<?xml version="1.0" encoding="UTF-8"?>
<svg id="ARTWORK" xmlns="http://www.w3.org/2000/svg" width="600" height="600" viewBox="0 0 600 600">
  <path d="M225.8,482.4c.2-1.7.4-3.3.4-5,0-.6.6-1.2-.4-2-.5-.4.8-.9.8-1.5,0-1.6.2-3.1.2-4.7,0-1.5-.4-3.1-.5-4.6,0-1.5.6-3.1,0-4.6-.5-1.3.5-2.4.3-3.6-.2-1.3-.3-2.6.2-3.9.4-.9.8-1.8.6-2.8-.1-.6-.8-1.1-.7-1.8,0-.6.6-1.2-.6-1.8-.1,0,.1-.3.3-.4.8-.6.8-1.4.2-1.9-.5-.5-.5-1-.5-1.5,0-1.3,0-2.6,0-3.9.1-1,.6-2,.8-2.9.2-1-.4-2.1.2-3.1.6-.9.6-1.8.7-2.8,0-.5.6-1.1-.6-1.6-.1,0,0-.2,0-.3,1.7-1.4-.4-3,.1-4.6.5-1.6.3-3.2.3-4.8,0-.4.4-.9-.5-1.3-.3-.2-.3-.6,0-.8,1.3-1.1.7-2.4,1-3.6.4-1.4,0-2.8,1-4.1.5-.6.8-1.3-.3-2.2-.5-.4.1-1,0-1.5,0-.4-.5-.9-.5-1.3,0-.4.5-.7.8-1,0,0,0-.2,0-.3-1.1-2.2,1-4,1-6.1,0-1.1,0-2.1.3-3.1.2-1,.5-2.1.8-3.1.3-1.1.9-2.2,3.3-2.5,1.1-.1,2.2.1,2.7.7.4.4.8.9.8,1.3,0,.7.2,1.3.3,2,.1,1.3.9,2.8.1,4-.2.4.3,1-.8,1.1-.1,0-.2.2-.2.3,1.3,2,0,3.6-.2,5.4,0,1.5,1,3.2.2,4.6,1.1,1,.9,1.9.4,2.8-.8,1.4-1.1,2.9-1.2,4.5,0,1.5,0,3.1-.2,4.6-.4,3.1-.3,6.2-.6,9.3,0,.5.7,1,0,1.6-.5.6-.2,1.3-.2,2,0,.6.2,1.3-.1,1.9-1.4,2.4-.7,4.9-.9,7.3-.2,2.4-.4,4.9-.1,7.3.2,1.5.8,3,.5,4.5-.1.6.5,1.3-.7,1.9-.3.2.5.8.6,1.2,0,1,0,2.1,0,3.1,0,1.4-.2,2.9-.1,4.3,0,.9.5,1.8.6,2.6,0,.9,0,1.9-.1,2.8-.2,1.2-.7,2.3-.9,3.5-.2,1.2.3,2.5-.4,3.6-1.2,2.1-.8,4.3-1.2,6.4-.3,2.1-.6,4.2-.7,6.4,0,1.2-1.2,2.2-1.3,3.4,0,.6-3.1.8-4.1.5-.2,0-.4-.2-.4-.3-.8-1.3-2.1-2.5-1.8-3.7.2-.9.3-1.9.4-2.8l.3-2.8Z"/>
  <path d="M381.2,322.8c.5-3.3,1-6.6,1.3-10,.1-1.2.5-2.5.1-3.8-.2-.7.5-1.8.6-3,.2-3.1.5-6.2.6-9.4,0-3,0-6.1-.1-9.1,0-3,.2-6.1-.3-9-.4-2.5-.1-4.7-.5-7-.5-2.5-1-4.9-1.4-7.3-.3-1.7-.6-3.5-1.4-5.1-.5-1-1.2-1.8-1.6-2.9-.4-1-.7-2.3-1.7-2.9,0,0-.2-.6-.2-.8-.2-1.3-.9-2.6-1.6-3.4-.7-.8-1.1-1.6-1.6-2.4-1.3-2.2-2.5-4.5-3.7-6.8-.9-1.7-1.6-3.5-2.5-5.3-.9-1.8-2.2-3.6-2.8-5.3-.6-1.8-1.5-3.4-2.4-5-.5-.9-.8-2.1-1.8-2.6,0,0-.3-.4-.3-.6-.7-3-3.1-5.1-4.3-7.8-1.3-2.8-3-5.5-4.5-8.2-.4-.7-.7-1.6-1.5-2-.3-.1-.7-.9-.9-1.3-.7-2.3-2.3-4.1-3.5-6-1.4-2.2-3.3-4.1-4.7-6.4-.6-1-1.6-2.2-3-2.6-.6-.2-1.4-1.2-2.1-1.7-.6-.4-1.4-.6-2-.9-.5-.3-.9-.8-1.4-1.1-.1-.1-.4-.2-.5-.2-1.7-.2-3.3-.5-5.2-.7-1.8-.2-3.8-.2-5.8,0-3.9.5-7.8.8-11.2,2-1.9.7-3.5,1.6-5.3,1.8-.8,0-1.3-.3-.8-1.2.2-.3.4-.7.7-1,.3-.3.6-.6.9-.9,1.1-.8,2.2-1.6,3.4-2.1,2.5-1.2,5.1-2.2,7.9-2.3.9,0,1.8-.4,2.6,0,.1,0,.4,0,.6,0,3.5-1,7.4-.9,11.3-.2,3.4.6,6.7,1.9,9.1,4.3,1.8.7,3.2,2.4,4.3,3.8,3.7,5.2,7.5,10.1,10.5,15.5,3.1,5.5,6,10.9,9,16.3.5.9,1.2,1.6,1.6,2.8.3,1.1,1.2,2.4,1.9,3.5.6,1.1,1.3,2.2,1.8,3.3,1.7,4.6,4.4,8.7,6.7,13,2.2,4.3,4.6,8.6,6.8,13,1.3,2.7,2.8,5.4,3.5,8.4.3,1.3,1,2.6.7,4,0,.4.6,1.5.7,2.3.4,2.1.6,4.1.8,6.2.2,2.9.3,5.7.4,8.6,0,1.7.3,3.4.3,5.2,0,1.8,0,3.6-.1,5.5-.1,2.3-.5,4.6-.7,6.9-.2,2.4-.1,4.9-.6,7.1-.9,4.2-1.1,8.4-1.8,12.6-.7,4.1-1.4,8.3-2.1,12.4-.4,2.3-1.3,4.4-1.9,6.6-.2,1.1-2,2.1-2.4,1.6,0-.1-.1-.3-.1-.5,0-2.3-.2-4.5.4-7,.8-3.7,1.5-7.4,2.1-11.2Z"/>
  <path d="M338.8,274c-.5-.7-.9-1.4-1.4-2-.2-.2-.1-.6-.8-.6-.3,0,0-.6-.1-.8-.5-.6-.8-1.2-1.3-1.8-.5-.6-1.1-1-1.5-1.6-.5-.6-.7-1.3-1.3-1.7-.6-.3-.5-1.1-.9-1.5-.5-.4-.9-.9-1.1-1.5-.1-.5-.2-.9-.6-1.2-.2-.2-.6-.2-.8-.4-.1-.2-.1-.6-.8-.5,0,0,0-.2,0-.3.1-.5,0-.8-.5-.8-.4,0-.5-.2-.6-.4-.4-.5-.8-1-1.1-1.5-.2-.4-.3-.9-.6-1.3-.2-.4-.8-.7-.8-1.2,0-.5-.3-.9-.6-1.2-.2-.2-.1-.6-.7-.4,0,0-.1,0,0-.1.2-1.1-1.1-.9-1.4-1.6-.3-.7-.9-1.2-1.4-1.8-.1-.2-.1-.4-.6-.3-.2,0-.3-.1-.3-.3.1-.8-.5-1-.8-1.5-.3-.6-1-.9-1-1.7,0-.3-.2-.7-.8-.6-.3,0-.3-.4-.5-.5-.2-.1-.5,0-.6-.2-.1-.1,0-.4,0-.6,0,0,0-.1-.1-.1-1.1-.3-1-1.6-1.8-2.2-.8-.6-1.3-1.4-1.9-2.2-.3-.4-.5-1,.1-2,.3-.5.7-.8,1.1-.9.3,0,.6,0,.8,0,.3.2.6.3.8.5.6.3,1.4.5,1.6,1.1,0,.2.4.2.2.6,0,0,0,.2,0,.2,1.2.1,1.3,1.2,1.9,1.8.5.5,1.5.7,1.7,1.4.8,0,1,.4,1.1.8.4,1.6,1.7,2.4,2.6,3.6.9,1.2,1.9,2.3,2.8,3.5.2.2.6.2.5.6,0,.4.4.5.6.8.2.2.5.4.5.7.2,1.3,1.2,2,1.9,3,.6,1,1.3,1.9,2.1,2.8.5.5,1.2.9,1.5,1.5.1.3.6.3.3.9,0,.2.4.1.6.3.3.4.6.8.9,1.2.4.5.8,1.1,1.2,1.6.3.3.7.5,1,.8.3.3.6.7.8,1.1.3.5.4,1.1.7,1.5.3.5.8.8.9,1.4.2,1.1.9,1.8,1.5,2.7.5.9,1,1.7,1.7,2.5.4.4.2,1.1.6,1.6.1.2-.9,1.3-1.4,1.5,0,0-.2,0-.3,0-.7-.2-1.6-.2-1.9-.7-.4-.8-1-1.5-1.5-2.3Z"/>
  <path d="M341.3,318.8c0-.8.2-1.5.2-2.3,0-.3.3-.6-.2-.9-.3-.2.4-.4.4-.7,0-.7.1-1.4,0-2.1,0-.7-.2-1.4-.2-2.1,0-.7.3-1.4,0-2.1-.3-.6.3-1.1.2-1.6-.1-.6-.2-1.2,0-1.8.2-.4.4-.8.3-1.2,0-.3-.4-.5-.3-.8,0-.3.3-.6-.3-.8,0,0,0-.1.1-.2.4-.3.4-.6.1-.9-.3-.2-.2-.4-.2-.6,0-.6,0-1.2,0-1.8,0-.4.3-.9.3-1.3,0-.5-.2-.9,0-1.4.3-.4.3-.8.3-1.2,0-.2.3-.5-.4-.7,0,0,0-.1,0-.1.8-.7-.3-1.3,0-2,.2-.7,0-1.4,0-2.1,0-.2.2-.4-.3-.6-.2,0-.2-.3,0-.4.6-.5.2-1.1.3-1.6,0-.6-.2-1.2.2-1.9.2-.3.3-.6-.3-.9-.3-.1,0-.4,0-.7,0-.2-.3-.4-.4-.5,0-.2.2-.3.3-.5,0,0,0-.1,0-.2-.7-.9.1-1.8-.1-2.7-.2-.9-.2-1.8-.2-2.7,0-.5.2-1,1.3-1.5.5-.2,1.1-.2,1.4,0,.3.1.5.3.6.5.1.3.3.6.4.8.2.6.8,1.1.6,1.8,0,.2.2.4-.3.6,0,0-.1.1,0,.1.8.8.4,1.6.5,2.5,0,.7.7,1.4.5,2.1.7.4.6.8.4,1.2-.6,1.4-.1,2.8-.2,4.2,0,1.4,0,2.8,0,4.3,0,.2.4.4,0,.7-.3.3,0,.6,0,.9,0,.3.1.6,0,.9-.7,1.1-.3,2.2-.4,3.4,0,1.1-.2,2.2,0,3.3,0,.7.4,1.4.3,2,0,.3.3.6-.3.9-.2,0,.3.4.3.5,0,.5,0,.9,0,1.4,0,.6-.1,1.3,0,1.9,0,.4.2.8.3,1.2,0,.4,0,.8,0,1.2-.1.5-.3,1-.4,1.5,0,.5.1,1.1-.2,1.6-.6.9-.4,1.9-.5,2.9-.1.9-.2,1.9-.2,2.9,0,.5-.5,1-.6,1.5,0,.2-1.5.4-2,.3,0,0-.2,0-.2-.1-.4-.6-1.1-1.1-1-1.7.2-.9.2-1.7.2-2.6Z"/>
  <path d="M329.7,349.1c0-.5,0-1.1,0-1.6,0-.2.3-.4-.3-.6-.3-.1.4-.3.4-.5,0-.5.1-1,.1-1.5,0-.5-.2-1-.1-1.5,0-.5.4-.9.2-1.4-.2-.5.4-.7.4-1.1,0-.4,0-.9.3-1.2.2-.2.5-.5.5-.8,0-.2-.3-.4-.2-.6,0-.2.4-.3-.2-.6,0,0,0,0,.2,0,.5,0,.5-.3.3-.5-.2-.2-.1-.4,0-.5.1-.4.2-.8.4-1.2.2-.3.5-.5.7-.7.2-.3,0-.7.4-.9.4-.1.5-.4.6-.7,0-.1.4-.2,0-.6,0,0,0,0,0,0,.9,0,.2-1,.6-1.3.4-.3.5-.9.8-1.3,0-.1.3-.1,0-.5-.1-.1,0-.3,0-.3.7,0,.6-.5.9-.8.3-.3.4-.8,1-.9.3,0,.5-.2.2-.7-.2-.2.2-.2.2-.4,0-.1,0-.4,0-.5,0,0,.3,0,.5,0,0,0,0,0,0,0-.1-.9,1-.8,1.3-1.4.3-.6.8-1,1.3-1.4.3-.2.7-.4,1.6.3.4.3.8.7.9,1,0,.2.2.5.1.6,0,.2,0,.4-.2.6-.1.4,0,1-.5,1.1-.1,0,0,.3-.5,0,0,0-.1,0-.1,0,.3.9-.5.9-.8,1.4-.2.4,0,1.1-.5,1.3.4.6.1.7-.2.8-.5.2-.8.5-1,.8-.2.4-.4.8-.6,1.1-.5.7-.9,1.5-1.3,2.3,0,.1.2.4-.1.4-.3,0-.2.3-.3.5,0,.2,0,.4-.2.5-.9.4-.8,1.2-1.1,1.8-.3.6-.6,1.3-.6,2,0,.4.2.9,0,1.3-.1.2.2.4-.4.5-.2,0,.2.3.2.4,0,.3-.1.6-.2.8,0,.4-.2.8-.2,1.2,0,.2.2.5.2.8,0,.3,0,.5,0,.7-.1.3-.4.6-.5.9-.1.3.2.7-.1,1-.5.6-.3,1.2-.4,1.8,0,.6-.1,1.2,0,1.8,0,.3-.4.7-.4,1,0,.2-1.5.5-2,.4,0,0-.2,0-.2,0-.5-.3-1.2-.6-1.2-1,0-.6,0-1.2,0-1.8Z"/>
  <path d="M342.5,351.2c-.2,0-.4,0-.6,0,0,0-.2-.2-.2.3,0,.3-.1-.4-.2-.3-.2,0-.4,0-.5.1-.2,0-.3.3-.5.4-.2,0-.4-.2-.5.1-.1.3-.3-.2-.4,0-.1.1-.3.2-.4,0-.1-.2-.3-.4-.3-.2,0,0,0,.4-.2.4,0,0-.2-.3-.2.4,0,0,0,0,0-.1-.1-.4-.2-.4-.2,0,0,.3,0,.2-.1.3-.1,0-.3,0-.4,0-.1,0-.3-.3-.4-.3-.1,0-.2.2-.4,0-.1-.3-.2-.3-.3-.3,0,0-.2-.3-.1.4,0,0,0,0,0,0-.3-.8-.3.3-.5.1-.2-.2-.4,0-.5,0,0,0-.1-.2-.1.3,0,.2,0,.2,0,0-.2-.6-.3-.2-.4-.3-.2-.1-.3.2-.5-.3,0-.2-.2-.3-.2.3,0,.3-.1,0-.2,0,0,0,0,.3-.1.3,0,0-.1-.2-.2-.3,0,0,0,0,0,0-.2.7-.5-.2-.7,0-.2.2-.5.2-.7,0-.1,0-.3-.2-.5-1.3,0-.5-.2-1.1-.1-1.4,0-.2,0-.5,0-.5,0-.1.1-.2.2-.3.1-.2.2-.8.4-.5,0,0,0-.2.2.3,0,0,0,.1,0,0,.1-.8.4-.3.6-.4.2,0,.3-.7.5-.5,0-.6.2-.5.3-.4.4.6.7.1,1.1.2.4,0,.7,0,1.1,0,0,0,0-.4.2,0,0,.3.2,0,.2,0,0,0,.1-.2.2,0,.4.6.6.2.9.2.3,0,.6,0,.8-.1.2-.1.3-.5.5-.4,0,0,.1-.3.3.3,0,.2,0-.3,0-.3.1,0,.2,0,.3,0,.2,0,.3,0,.5,0,0,0,.2-.3.3-.4,0,0,.2,0,.3,0,.1,0,.3.3.4.3.1,0,.3-.2.4,0,.3.5.5.2.8.2.2,0,.5,0,.7-.1.1,0,.3.4.4.4,0,0,.3,1.4.3,2,0,0,0,.2,0,.2,0,.5-.1,1.2-.3,1.2-.2,0-.4,0-.7,0Z"/>
  <path d="M339.6,363.5c.2-.4.4-.7.5-1.1,0-.1.3-.2-.1-.5-.2-.2.4,0,.5-.2,0-.4.3-.7.3-1,0-.4,0-.8,0-1.1,0-.3.4-.6.2-1-.2-.4.4-.5.3-.8,0-.3,0-.6.3-.9.2-.2.5-.3.4-.6,0-.1-.3-.3-.3-.5,0-.1.3-.2-.2-.5,0,0,0,0,.2,0,.4,0,.4-.2.2-.4-.2-.2-.2-.3-.2-.4,0-.3,0-.6.1-.9,0-.2.3-.4.4-.6,0-.2-.2-.5.2-.7.3-.2.3-.4.3-.6,0-.1.3-.2-.3-.4,0,0,0,0,0,0,.9-.3-.2-.7,0-1,.2-.3.1-.7,0-1.1,0,0,.2-.2-.3-.3-.2,0-.2-.1,0-.2.6-.3.3-.5.4-.8.1-.3-.2-.6.3-1,.2-.1.3-.3-.3-.5-.3,0,0-.2,0-.3,0,0-.3-.2-.4-.3,0,0,.2-.2.3-.3,0,0,0,0,0,0-.7-.4.1-.9-.1-1.4-.2-.4-.2-.9-.2-1.4,0-.3.1-.5,1.2-.9.5-.2,1-.3,1.4-.2.3,0,.5,0,.6.2.1.1.3.3.4.4.2.3.8.5.6.9,0,.1.2.2-.3.4,0,0-.1,0,0,0,.8.4.4.9.5,1.3,0,.4.7.7.5,1.1.7.2.5.5.4.7-.6.8-.2,1.6-.3,2.4,0,.8,0,1.6-.1,2.4,0,.1.3.3,0,.4-.3.1,0,.3-.1.5,0,.2.1.3,0,.5-.7.5-.4,1.2-.6,1.8-.2.6-.3,1.2-.3,1.8,0,.4.3.8,0,1.2,0,.1.2.4-.4.4-.2,0,.2.3.2.4,0,.3-.1.5-.2.8,0,.4-.3.7-.3,1,0,.2.1.5.1.7,0,.2,0,.5-.2.7-.2.3-.5.5-.6.7-.2.3,0,.7-.4.8-.7.3-.6.9-.9,1.4-.3.5-.5.9-.7,1.5,0,.3-.6.3-.8.6,0,.1-1.4-.4-1.9-.7,0,0-.2-.1-.2-.2-.3-.5-.8-1-.6-1.3.3-.4.4-.8.6-1.2Z"/>
  <path d="M351,368.5c-.2,0-.4,0-.5,0,0,0-.1-.3-.2.3,0,.3,0-.4-.1-.4-.2,0-.3,0-.5,0-.2,0-.4.2-.5.3-.2,0-.3-.3-.5,0-.2.3-.2-.3-.4-.2-.2.1-.3.2-.4,0,0-.2-.1-.4-.3-.3,0,0-.2.4-.2.3,0,0,0-.3-.2.3,0,0,0,0,0-.2,0-.4-.1-.4-.2-.1,0,.3-.1.2-.2.2-.1,0-.3,0-.4,0,0,0-.2-.3-.3-.4-.1,0-.2.2-.3-.1,0-.3-.2-.3-.3-.3,0,0,0-.3-.2.3,0,0,0,0,0,0,0-.8-.3.2-.5,0-.1-.2-.3,0-.5,0,0,0,0-.2-.2.3,0,.2,0,.2,0,0,0-.6-.2-.3-.4-.4-.1-.1-.3.1-.4-.3,0-.2-.1-.3-.2.3,0,.3-.1,0-.2,0,0,0-.1.3-.2.3,0,0,0-.2,0-.3,0,0,0,0,0,0-.3.6-.4-.3-.6,0-.2.2-.4,0-.7,0-.1,0-.2-.3-.3-1.4,0-.5,0-1.1,0-1.4,0-.2.1-.5.2-.5,0-.1.2-.2.2-.3.2-.2.3-.7.5-.4,0,0,.1-.2.1.3,0,0,0,.1,0,0,.2-.8.4-.2.6-.3.2,0,.4-.7.5-.4.1-.6.2-.5.3-.3.3.7.7.3,1,.4.3.1.7,0,1,.1,0,0,.1-.3.2,0,0,.3.1,0,.2,0,0,0,.2-.1.2,0,.2.7.5.3.8.4.3.1.5.2.8,0,.2,0,.4-.4.5-.3,0,0,.2-.3.2.3,0,.2.1-.3.2-.3.1,0,.2,0,.3,0,.2,0,.3,0,.5,0,.1,0,.2-.3.3-.3.1,0,.2,0,.3,0,.1,0,.2.3.3.4.1,0,.3-.2.4.1.2.5.4.3.7.4.2,0,.4.2.7,0,.1,0,.2.5.3.5,0,0-.1,1.5-.2,2,0,0,0,.2,0,.2-.2.4-.4,1.1-.6,1.1-.2-.1-.4,0-.6-.1Z"/>
  <path d="M357,347.6c0,.4,0,.8,0,1.1,0,.1-.3.3.3.5.3,0-.4.2-.4.3,0,.4,0,.7,0,1.1,0,.3.2.7.2,1.1,0,.3-.3.7,0,1,.2.3-.3.5-.2.8,0,.3.1.6-.1.9-.2.2-.4.4-.4.6,0,.1.3.3.3.4,0,.1-.3.2.3.4,0,0,0,0-.2,0-.4,0-.4.2-.2.4.3.2.2.3.2.4,0,.3,0,.6-.1.9,0,.2-.4.4-.5.6-.1.2.1.5-.2.7-.3.2-.4.3-.4.6,0,.1-.3.2.3.4,0,0,0,0,0,0-.9.2.1.7-.1,1-.3.3-.2.7-.3,1,0,0-.2.2.2.4.2,0,.1.2,0,.2-.7.1-.4.5-.6.8-.2.3,0,.7-.6.9-.2,0-.4.2,0,.6.2.2,0,.2,0,.4,0,.1.2.3.2.4,0,0-.3,0-.4.1,0,0,0,0,0,0,.3.8-.7.9-.9,1.5-.2.6-.7,1-1.3,1.4-.3.2-.8.2-1.5-.6-.3-.4-.6-.9-.7-1.2,0-.2-.1-.5-.1-.6,0-.1,0-.3,0-.4,0-.3-.2-.8.1-.7.1,0,0-.2.3,0,0,0,.1,0,0,0-.5-.7.1-.6.2-.9,0-.3-.4-.7,0-.9-.5-.4-.4-.5-.1-.6.8-.3.5-1,.8-1.6.2-.6.3-1.3.4-1.9,0-.1-.3-.3,0-.4.3,0,.1-.3.1-.4,0-.1,0-.3,0-.4.7-.4.4-1,.6-1.5.2-.5.3-1,.2-1.5,0-.3-.3-.7-.2-1,0-.1-.2-.3.4-.4.2,0-.3-.2-.3-.3,0-.2,0-.4,0-.6,0-.3.1-.6,0-.9,0-.2-.2-.4-.3-.6,0-.2,0-.4,0-.6.1-.2.3-.5.4-.7,0-.2-.2-.5.1-.7.5-.4.3-.9.4-1.3,0-.4.2-.9,0-1.3,0-.3.5-.5.5-.7,0-.1,1.5-.2,2-.1,0,0,.2,0,.2,0,.5.3,1.2.5,1.1.8,0,.4,0,.9,0,1.3Z"/>
  <path d="M361.8,369.1c-.1,0-.3,0-.4,0,0,0,0-.2-.2.3,0,.3,0-.4-.1-.3-.1,0-.3,0-.4,0-.1,0-.2.3-.4.3-.1,0-.2-.2-.4,0-.1.3-.2-.2-.3-.1-.1.1-.2.2-.3,0,0-.2-.1-.4-.2-.3,0,0,0,.4-.1.4,0,0,0-.3-.1.3,0,0,0,0,0-.1,0-.4,0-.4-.1-.1,0,.3,0,.2-.1.2-.1,0-.2,0-.3,0,0,0-.1-.3-.2-.4,0,0-.2.2-.2,0,0-.3-.1-.3-.2-.3,0,0,0-.3-.1.3,0,0,0,0,0,0,0-.8-.2.3-.4,0-.1-.2-.2,0-.4,0,0,0,0-.2-.1.3,0,.2,0,.2,0,0,0-.6-.2-.3-.3-.4-.1-.1-.2.2-.3-.3,0-.2,0-.3-.2.3,0,.3,0,0-.1,0,0,0,0,.3-.1.3,0,0,0-.2,0-.3,0,0,0,0,0,0-.2.7-.3-.2-.5,0-.2.2-.3,0-.5,0,0,0-.2-.2-.1-1.4,0-.5,0-1.1.1-1.4,0-.2,0-.5.1-.5,0-.1.1-.2.2-.3.1-.2.2-.7.3-.4,0,0,0-.2,0,.3,0,0,0,.1,0,0,.2-.8.3-.3.4-.3.1,0,.3-.7.4-.4.1-.6.2-.5.2-.3.2.7.5.2.7.3.2.1.5,0,.7,0,0,0,0-.3.1,0,0,.3,0,0,.2,0,0,0,.1-.1.1,0,.2.7.4.3.5.4.2,0,.4.1.6,0,.1,0,.2-.4.3-.3,0,0,.1-.3.1.3,0,.2,0-.3,0-.3,0,0,.2,0,.2,0,.1,0,.2,0,.3,0,0,0,.1-.3.2-.3,0,0,.1,0,.2,0,0,0,.2.3.3.4,0,0,.2-.2.3,0,.2.5.3.3.5.3.2,0,.3.1.5,0,0,0,.2.4.3.4,0,0,.1,1.5,0,2,0,0,0,.2,0,.2,0,.5-.2,1.2-.3,1.1-.2,0-.3,0-.5,0Z"/>
  <path d="M368.8,346.5c0,.4,0,.8,0,1.2,0,.2-.2.3.3.5.3,0-.4.2-.4.4,0,.4,0,.8,0,1.2,0,.4.3.8.3,1.1,0,.4-.3.7,0,1.1.3.3-.2.6-.1.9.1.3.2.7,0,1-.2.2-.4.4-.3.7,0,.1.4.3.3.5,0,.1-.3.3.3.5,0,0,0,0-.2.1-.4.1-.4.3-.1.5.3.2.2.3.2.4,0,.4,0,.7-.1,1.1,0,.3-.4.5-.5.7-.1.3.1.6-.3.8-.4.2-.4.4-.5.6,0,.1-.4.2.2.5,0,0,0,0,0,0-.9.1,0,.8-.3,1.2-.3.3-.4.8-.5,1.2,0,.1-.3.1.1.4.1,0,0,.2,0,.2-.7,0-.5.5-.7.7-.3.3-.2.7-.8.8-.3,0-.4.2,0,.6.2.2-.1.2-.1.4,0,.1.2.3.1.4,0,0-.3,0-.4,0,0,0,0,0,0,0,.3.8-.7.8-.8,1.3-.1.5-.5.9-.8,1.3-.2.2-.5.3-1.6-.1-.5-.2-.9-.5-1.1-.8-.2-.2-.3-.4-.3-.5,0-.2,0-.4,0-.6,0-.4-.3-.9.1-1,.1,0,0-.3.4,0,0,0,.1,0,0,0-.4-.8.2-.9.4-1.3.1-.3-.2-.9.2-1.1-.5-.5-.3-.6,0-.7.9-.3.8-1.1,1.2-1.7.4-.6.5-1.3.8-1.9,0-.1-.3-.3,0-.4.3,0,.1-.3.2-.4,0-.1,0-.3.1-.4.8-.4.5-1,.6-1.5.1-.5.2-1.1.1-1.6,0-.3-.4-.7-.3-1,0-.1-.3-.3.3-.4.2,0-.3-.2-.3-.3,0-.2,0-.5,0-.7,0-.3,0-.7,0-1,0-.2-.3-.4-.3-.6,0-.2,0-.4,0-.7,0-.3.3-.5.4-.8,0-.3-.2-.6,0-.9.5-.5.3-1,.4-1.5,0-.5.1-1,0-1.5,0-.3.4-.5.5-.8,0-.1,1.5-.3,2-.2,0,0,.2,0,.2,0,.5.3,1.2.6,1.1.9,0,.5,0,.9,0,1.4Z"/>
  <path d="M373.5,366.7c-.2,0-.3,0-.5,0,0,0-.1-.2-.2.3,0,.3,0-.4-.1-.3-.1,0-.3,0-.4,0-.1,0-.3.3-.4.3-.1,0-.3-.2-.4,0-.1.3-.2-.2-.3-.1-.1.1-.2.2-.4,0,0-.2-.2-.4-.3-.3,0,0-.1.4-.2.4,0,0-.1-.3-.2.3,0,0,0,0,0-.1,0-.4-.1-.4-.2-.1,0,.3,0,.2-.1.3-.1,0-.2,0-.4,0,0,0-.2-.3-.3-.3,0,0-.2.2-.3,0,0-.3-.2-.3-.3-.3,0,0-.1-.3-.1.3,0,0,0,0,0,0-.1-.8-.3.3-.4,0-.1-.2-.3,0-.4,0,0,0,0-.2-.1.3,0,.2,0,.2,0,0-.1-.6-.2-.2-.3-.4-.1-.1-.3.2-.4-.3,0-.2-.1-.3-.2.3,0,.3,0,0-.1,0,0,0,0,.3-.1.3,0,0,0-.2,0-.3,0,0,0,0,0,0-.2.7-.4-.2-.6,0-.2.2-.4.1-.6,0-.1,0-.2-.2-.3-1.4,0-.5,0-1.1,0-1.4,0-.2,0-.5.1-.5,0,0,.1-.2.2-.3.1-.2.2-.7.4-.4,0,0,0-.2.1.3,0,0,0,.1,0,0,.2-.8.3-.3.5-.3.1,0,.3-.7.4-.4,0-.6.2-.5.3-.3.3.7.6.2.9.3.3,0,.6,0,.9,0,0,0,0-.4.1,0,0,.3.1,0,.2,0s.1-.1.2,0c.2.7.5.3.7.3.2,0,.5.1.7,0,.1,0,.3-.4.4-.3,0,0,.1-.3.2.3,0,.2,0-.3.1-.3,0,0,.2,0,.3,0s.3,0,.4,0c0,0,.2-.3.2-.3,0,0,.2,0,.3,0,.1,0,.2.3.3.3.1,0,.2-.2.3,0,.2.5.4.3.6.3.2,0,.4.1.6,0,.1,0,.2.4.3.4,0,0,.1,1.5,0,2,0,0,0,.2,0,.2-.1.5-.2,1.2-.3,1.1-.2,0-.4,0-.5,0Z"/>
  <path d="M380.4,341.9c0,.4,0,.9,0,1.3,0,.2-.2.3.3.5.3,0-.4.3-.3.4,0,.4,0,.8,0,1.2,0,.4.3.8.3,1.2,0,.4-.2.8,0,1.2.3.3-.2.6-.1,1,.1.3.2.7,0,1-.2.2-.4.5-.3.7,0,.2.4.3.3.5,0,.2-.3.3.3.5,0,0,0,0-.2.1-.4.1-.4.3-.2.5.3.2.2.3.2.4,0,.4,0,.7-.1,1.1,0,.3-.4.5-.5.7-.1.3.1.6-.2.8-.3.2-.4.4-.4.7,0,.1-.3.2.3.5,0,0,0,0,0,0-.9.2,0,.8-.2,1.2-.3.4-.3.8-.4,1.3,0,.1-.2.2.2.4.1,0,.1.2,0,.2-.7.1-.4.6-.6.8-.2.3,0,.8-.7,1-.3,0-.4.2,0,.6.2.2-.1.3-.1.4,0,.1.2.3.2.4,0,0-.3,0-.4.1,0,0,0,0,0,0,.4.8-.7.9-.8,1.5-.1.6-.5,1.1-.9,1.5-.2.2-.6.4-1.6,0-.5-.2-.9-.5-1.1-.8-.1-.2-.3-.4-.3-.5,0-.2,0-.4,0-.6,0-.4-.3-.9.1-1,.1,0,0-.3.4-.1,0,0,.1,0,0,0-.5-.8.2-.9.3-1.3.1-.4-.3-.9,0-1.2-.5-.4-.3-.6,0-.7.9-.4.7-1.3,1-1.9.3-.7.4-1.4.6-2.2,0-.1-.3-.3,0-.4.3,0,.1-.3.1-.5,0-.1,0-.3.1-.4.7-.5.4-1.1.6-1.7.1-.6.3-1.2.2-1.8,0-.4-.4-.8-.2-1.1,0-.2-.3-.3.3-.5.2,0-.3-.2-.3-.3,0-.3,0-.5,0-.8,0-.3,0-.7,0-1.1,0-.2-.3-.4-.3-.6,0-.2,0-.5,0-.7,0-.3.3-.6.3-.9,0-.3-.2-.6,0-.9.5-.5.2-1.1.3-1.6,0-.5,0-1.1,0-1.6,0-.3.4-.6.4-.9,0-.1,1.5-.4,2-.3,0,0,.2,0,.2,0,.5.3,1.2.5,1.2.9,0,.5,0,1,0,1.5Z"/>
  <g>
    <path d="M335.4,265.2c-2.4-.2-4.8-.3-7.2-.3-2,0-4.2.2-5.6,1.5-2.2,2-1.8,5.4-1.2,8.3.2,1.1.5,2.2,1.2,3,1.2,1.3,3.3,1.4,5.1,1.3,4.8-.2,9.6-.5,14.4-.7-2.8-3.2-4.3-7.6-4.2-11.9"/>
    <path d="M340.2,271.1c.2.8.5,1.6.9,2.3,0,0,0,.1,0,.2,0,0,0,.1.1.3.1.3.4.5.8.7.5.3,0,.9.5,1.3,1.1,1.3,2.1,2.6,3.1,3.9h0c-.1,0-.2.1-.3.1h-.5c0,0-1,.2-1,.2-.6.1-1.3.2-2.1.3-1.5.1-3.3,0-4.5.3-.7.3-1.3-.2-2,0-.7.2-1.4.3-2.2,0-.5-.1-1-.3-1.5-.2-.3,0-.6.4-.9.4-.3,0-.7-.3-.9.4,0,0-.2,0-.2-.1-.4-.4-.8-.3-1.1,0-.3.3-.5.3-.8.3-.8,0-1.6.1-2.6,0-.7-.1-1.4-.5-2.2-.9-.4-.2-.8-.4-1.2-.6-.4-.3-.8-.6-.9-1.1-.3-.7-.5-1.4-.8-2.1-.1-.4,0-.8-.6-.9,0,0,0-.1,0-.2.6-1-.6-1.6-.5-2.6,0-1-.1-2,0-3.1,0-.3.2-.6-.2-.9-.1-.1-.1-.5,0-.6.8-.7.8-1.7,1.5-2.5.4-.4.7-.9,1.2-1.3.4-.4,1-.6,1.5-.7.5,0,1-.1,1.3-.8.2-.3.7-.2,1-.3.3,0,.5-.4.8-.4.2,0,.5.2.7.3,0,0,.1,0,.2,0,1.3-.8,2.3.2,3.5,0,1.2-.1,2.3,0,3.5.1.6,0,1.3.3,1.6,1.4.2.5.1,1.1-.2,1.4-.2.2-.4.5-.7.5-.4,0-.7.2-1.1.3-.7.2-1.4.7-2.1.4-.2,0-.5.2-.7-.3,0,0-.1-.1-.2,0-1,.8-2,.2-2.9.3-.8,0-1.4.8-2.1.6-.2.7-.4.7-.8.6-.5-.1-.9.2-1.1.6-.2.4-.3.9-.4,1.6-.2,1.3,0,2.8.4,4.4,0,.3.4.4.2.7-.2.3.1.5.2.7,0,.2.2.2.2.3,0,.4.2.7.6.8.4.1,1,0,1.6.1.6,0,1.2,0,1.9,0,.7,0,1.3,0,2-.2.8-.1,1.6-.5,2.4-.4.4,0,.7-.3,1.1.3.1.2.4-.3.6-.3.6,0,1.1,0,1.7,0h1c0,0,.1,0,.2,0,0,0,0-.3-.1-.3,0,0,0,0,0,0,0,0,.2,0,.3.1.1,0,.2,0,.2,0,0-.1-.4-.2-.1-.3.1,0,.1-.2.2-.3,0,0,0,0,0-.2v-.2c0,0-.3-.4-.3-.4-.3-.6-.5-1.2-.7-1.8-.3-1.2-.6-2.5-.9-3.7-.2-.7.3-1.4.3-2.1,0-.3,1.5-.7,2-.6,0,0,.2,0,.2.1.5.6,1.2,1.1,1.2,1.7,0,.9.2,1.9.5,2.8Z"/>
  </g>
  <g>
    <path d="M384,263.4c3.1-1.3,11.5-1.6,16.5-1.1s2.6,1.4,2.8,2.8c.3,2.8.4,5.7.2,8.5,0,1.4-1.2,2.5-2.6,2.5h-13.5c-.4,0-.8,0-1.1-.2-.3-.3-.3-.7-.3-1.2,0-3.5,0-7,0-10.5"/>
    <path d="M387.9,269.7c0,1,0,1.9,0,2.9,0,.2,0,.4,0,.5,0,0,0,.2,0,.3,0,.1.1,0,.3,0,.3,0-.4.2-.3.3,0,.1,0,.3.1.4,0,.1.2.1.4,0,0,0,.1,0,.2,0h0c0,0,0,0,0,0h.2c.4,0,.9-.2,1.3-.2.9,0,1.8.2,2.6,0,.7-.3,1.4.2,2.1,0,.7-.1,1.5-.2,2.2,0,.5.2,1.1.4,1.6.3.3,0,.6-.4,1-.4.3,0,.7.3,1-.3,0,0,.2,0,.2.1,0,.4.2.3.1,0,0-.3,0-.2,0-.2,0,0,0,0,0,0h0s0,0,0,0c0,0,0,0,0-.1,0-.5.3-1,.4-1.6,0-.6-.2-1.2,0-1.7.3-.5.3-1,.2-1.5,0-.3.3-.6-.4-.8,0,0,0-.1,0-.2.4-.4.3-.8.1-1.2,0-.2-.2-.4-.3-.6,0,0,0-.2,0-.3,0-.1,0,0,0-.1.2-.3-.2-.6-.4-.6,0,0,0-.2-.3.2,0,.2,0,.2,0,0,0-.2-.2-.3-.3-.3-.2,0-.3,0-.5-.1-.3,0-.7,0-1,0-.7-.2-1.5.1-2.3-.4-.3-.2-.8-.3-1.2.3-.2.3-.5,0-.8,0-.2,0-.4.3-.7.3-.2,0-.4-.2-.6-.3,0,0-.1,0-.2,0-1.1.7-2.2-.1-3.3.2-1.1.3-2.2.4-3.2.5-.6,0-1.1,0-1.8-.9-.4-.4-.6-.9-.4-1.3.1-.3.3-.6.5-.7.4-.2.7-.4,1.1-.6.7-.4,1.4-1,2.3-.8.3,0,.5-.3.8.2,0,0,.1,0,.2,0,1-.9,2.1-.5,3.2-.6.9,0,1.8-.7,2.7-.5.5-.6,1.1-.5,1.6-.3.9.4,1.8.4,2.7.5h1.4c.2,0,.6.1,1,.2.4,0,.7.2,1.1.4,1.4.7,2.4,2,2.8,3.4,0,.2,0,.4.1.5,0,.2,0,.4,0,.5v.7c.1.5.1.9.2,1.4,0,.3.4.6.1,1-.2.4,0,.8,0,1.2,0,.4.2.8,0,1.1-.3.7-.4,1.4-.4,2.2v1.1c0,.5-.1,1.2-.4,1.7-.5,1.1-1.4,1.9-2.5,2.3-.5.2-1.1.3-1.7.3-.3,0-.7,0-1,0-.8.1-1.7.5-2.5.3-.4,0-.7.3-1.1-.3-.1-.2-.4.3-.7.3-.6,0-1.2,0-1.7,0-.8,0-1.6,0-2.4,0-.5,0-1,.3-1.5.3-.3,0-.5,0-.8,0h-.4s-.8,0-.8,0c-.6,0-1.3-.1-1.8-.3-.5-.2-.9-.5-1.3-.8-.4-.4-.7-.8-.9-1.4-.2-.5-.3-1.1-.1-1.8,0-.3.1-.6.2-.8v-.2s0-.1,0-.1v-.2c0-.3.1-.6.1-.9,0-.6,0-1.2,0-1.8,0-1.2.1-2.4,0-3.6,0-.7.4-1.3.4-2,0-.3,1.5-.7,2-.6,0,0,.2,0,.2.1.5.7,1.2,1.2,1.1,2,0,1.1,0,2.2,0,3.3Z"/>
  </g>
  <path d="M325,382.5c0-1.9,0-3.9,0-5.8,0-.7.5-1.4-.6-2.2-.5-.4.7-1.1.7-1.7-.2-1.8,0-3.6-.1-5.4-.1-1.7-.6-3.5-.7-5.2-.1-1.7.5-3.5-.2-5.2-.6-1.4.4-2.7.2-4.1-.3-1.5-.4-3,0-4.4.3-1,.8-2.1.5-3.1-.1-.6-.8-1.3-.7-2,0-.7.6-1.4-.7-2-.1,0,.1-.3.3-.5.8-.7.8-1.6.2-2.2-.5-.6-.5-1.1-.5-1.6,0-1.5-.1-3,0-4.4,0-1.1.6-2.2.7-3.3.1-1.2-.5-2.4.1-3.4.6-1.1.6-2.1.6-3.1,0-.6.6-1.3-.7-1.8-.1,0-.1-.3,0-.4,1.6-1.7-.5-3.4-.1-5.1.4-1.8.1-3.6,0-5.4,0-.5.4-1-.6-1.4-.3-.2-.4-.7-.1-.9,1.3-1.3.5-2.7.7-4.1.2-1.6-.4-3.1.6-4.7.4-.7.6-1.6-.5-2.4-.5-.4,0-1.1-.1-1.7-.1-.5-.6-.9-.7-1.4,0-.4.5-.8.7-1.2,0-.1,0-.3,0-.4-1.3-2.3.4-4.5,0-6.8-.4-2.3-.2-4.6,0-6.9,0-1.3.5-2.6,2.7-3.5,1-.4,2.1-.4,2.8.1.5.4.9.8,1.1,1.3.2.7.5,1.4.7,2.2.4,1.5,1.5,2.9.9,4.4-.2.5.4,1-.6,1.4-.1,0-.2.3-.1.3,1.6,2,.6,4.1.7,6.2.1,1.8,1.4,3.4.8,5.2,1.3,1,1.1,2.1.7,3.1-1.3,3.5-.4,7-.6,10.4-.2,3.5,0,7.1,0,10.6,0,.6.7,1.1.2,1.8-.5.7-.1,1.5-.1,2.3,0,.7.3,1.4,0,2.1-1.3,2.8-.5,5.5-.6,8.3-.1,2.8-.2,5.5,0,8.3.2,1.7.9,3.3.7,5-.1.7.6,1.5-.6,2.2-.3.2.6.9.6,1.3.1,1.2,0,2.3,0,3.5,0,1.6,0,3.2,0,4.8,0,1,.6,1.9.7,2.9.1,1,.1,2.1,0,3.1-.1,1.3-.6,2.6-.7,3.9-.1,1.3.4,2.7-.1,4-1,2.4-.5,4.8-.6,7.2-.1,2.4-.2,4.8,0,7.1.1,1.3-.9,2.6-.8,3.9,0,.6-2.9,1.5-3.9,1.2-.2,0-.4-.1-.5-.2-.9-1.3-2.4-2.5-2.3-3.9.1-2.2,0-4.4,0-6.5Z"/>
  <path d="M381.6,381.9c.2-1.9.4-3.8.5-5.8,0-.7.6-1.4-.4-2.2-.5-.4.8-1,.8-1.7,0-1.8.4-3.6.4-5.4,0-1.7-.3-3.5-.2-5.3,0-1.7.8-3.5.3-5.2-.4-1.5.7-2.7.6-4.1-.1-1.5-.1-3,.5-4.4.4-1,1-2,.8-3.1,0-.7-.7-1.3-.6-2,.1-.6.7-1.3-.5-2-.1,0,.2-.3.3-.5.9-.6.9-1.5.4-2.1-.5-.6-.4-1.1-.4-1.7,0-1.5.1-3,.4-4.4.2-1.1.8-2.1,1-3.2.2-1.1-.2-2.4.5-3.4.7-1,.8-2,.9-3.1,0-.6.7-1.2-.5-1.8-.1,0,0-.3,0-.4,1.8-1.5-.2-3.4.3-5.1.6-1.7.4-3.6.6-5.4,0-.5.4-1-.4-1.5-.3-.2-.3-.7,0-.9,1.4-1.2.7-2.7,1.1-4,.4-1.5,0-3.1,1-4.6.5-.6.8-1.5-.3-2.4-.5-.4.1-1.1,0-1.7,0-.5-.6-1-.5-1.4,0-.4.5-.7.8-1.1,0-.1,0-.3,0-.4-1.1-2.4.9-4.5.7-6.8-.2-2.3.2-4.6.6-6.9.2-1.3.7-2.5,3.1-3.2,1.1-.3,2.2-.2,2.8.4.4.4.9.9.9,1.4.1.7.3,1.5.5,2.2.3,1.5,1.2,3,.5,4.5-.2.5.3,1.1-.7,1.4-.1,0-.2.2-.2.3,1.4,2.2.2,4.2.1,6.2,0,1.8,1,3.6.3,5.3,1.2,1.1.8,2.2.4,3.2-1.6,3.3-1.1,6.9-1.6,10.3-.5,3.5-.6,7-1,10.5,0,.6.6,1.2,0,1.8-.6.6-.2,1.5-.3,2.3,0,.7.1,1.5-.2,2.1-1.6,2.6-1,5.5-1.4,8.2-.4,2.7-.8,5.5-.7,8.2,0,1.7.6,3.4.2,5.1-.2.7.4,1.5-.8,2.1-.4.2.5.9.5,1.4,0,1.2-.2,2.3-.3,3.5-.1,1.6-.4,3.2-.4,4.8,0,1,.4,2,.4,3,0,1,0,2.1-.3,3.1-.3,1.3-.8,2.5-1,3.8-.2,1.3.2,2.8-.5,4-1.2,2.3-.9,4.7-1.3,7.1-.3,2.4-.6,4.7-.6,7.1,0,1.4-1.1,2.5-1.2,3.8,0,.6-3.1,1.2-4,.8-.2,0-.4-.2-.4-.3-.8-1.4-2.2-2.7-1.9-4.1.3-2.2.4-4.3.6-6.5Z"/>
  <path d="M329.3,352.9s0,0,0,0c0,0-.2-.2.2.2.2.2-.3-.3-.3-.2,0,0,0,0,0,0,0,0,.2.2.2.3,0,0-.2-.1,0,.1.2.2-.2-.1-.1,0,0,.1.1.2,0,0-.1-.1-.3-.3-.2-.2,0,0,.3.3.2.3,0,0-.2-.2.2.3,0,0,0,0-.1,0-.3-.3-.3-.3,0,0,.2.2.2.2.2.2,0,0,0,0,0,0,0,0-.2-.2-.3-.2,0,0,.1.2,0,0-.2-.2-.2-.2-.2-.2,0,0-.2-.2.2.3,0,0,0,0,0,0-.6-.6.2.2,0,0-.2-.1,0,0,0,0,0,0-.1-.1.2.2.1.1.1.1,0,0-.5-.4-.2-.2-.3-.2,0,0,0,.1-.3-.2-.2-.1-.2-.2.2.2.2.2,0,0,0,0,0,0,.2.2.2.2,0,0-.2-.2-.3-.2,0,0,0,0,0,0,.5.5-.2-.1,0,0,.1.1,0,.1,0,0,0,0-.2-.1-1-.9-.4-.4-.8-.8-1-1-.2-.2-.3-.3-.4-.4,0,0-.2-.2-.2-.2-.1-.2-.5-.5-.3-.4,0,0-.1-.2.2.2,0,0,0,0,0,0-.5-.6-.2-.2-.2-.3s-.5-.5-.2-.3c-.4-.5-.4-.4-.2-.3.5.4.2,0,.3.1,0,0,0,0,.1,0,0,0-.2-.3,0,0,.2.2,0,0,0,0,0,0,0-.1,0,0,.5.4.2.1.3.2,0,0,.1,0,0,0,0,0-.3-.3-.2-.3,0,0-.2-.2.2.2.1.1-.2-.2-.2-.2,0,0,0,0,0,0,0,0,0,0,0,0,0,0-.2-.2-.2-.3,0,0,0,0,0,0,0,0,.2.2.3.2,0,0-.1-.2,0,0,.4.3.2.1.3.2,0,0,.1,0,0,0,0,0,.3.3.3.3,0,0,1.1,1,1.4,1.4,0,0,.1.1.2.2.3.3.8.9.8.8,0,0,0,0,0,0Z"/>
  <path d="M343.5,356c-.3,0-.5,0-.8,0,0,0-.2-.5-.3.6,0,.5-.1-.7-.2-.7-.2.1-.5,0-.7,0-.2.1-.5.6-.7.7-.2.1-.5-.5-.7.2-.2.6-.4-.4-.6-.2-.2.3-.4.4-.6,0-.1-.3-.3-.8-.4-.6,0,.1-.2.8-.3.7,0,0-.2-.6-.3.7,0,.1,0-.1,0-.3,0-.8-.2-.8-.3-.2,0,.5-.1.5-.2.5-.2,0-.4.1-.6,0-.2,0-.3-.6-.5-.7-.2-.1-.3.4-.5-.2-.1-.6-.3-.6-.4-.6,0,0-.2-.6-.2.7,0,.1,0,.1,0,0-.2-1.7-.5.5-.7.1-.2-.4-.5-.1-.7,0,0,0-.1-.4-.2.6,0,.3,0,.4-.1.1-.2-1.3-.4-.5-.6-.7-.2-.2-.4.3-.6-.6,0-.4-.2-.6-.3.5,0,.5-.2,0-.2.1,0,.1-.1.6-.2.7,0,0-.1-.5-.2-.7,0,0,0,0,0,0-.3,1.3-.6-.4-.9,0-.3.4-.6.2-1,0-.2-.1-.4-.5-.5-2.8,0-1,0-2.1,0-2.8,0-.5.1-.9.2-1.1.1-.2.2-.5.3-.7.2-.4.4-1.5.6-.9,0,.2.1-.4.2.6,0,.1,0,.2,0,.1.3-1.6.6-.5.9-.7.2,0,.5-1.4.7-.8.1-1.3.3-1,.4-.7.5,1.3,1,.4,1.4.6.5.2,1,0,1.5,0,0,0,.2-.7.3-.1,0,.5.2.1.3.1s.2-.3.3,0c.4,1.3.8.5,1.1.7.4.1.8.3,1.1,0,.2-.2.5-.9.7-.6,0,.1.2-.6.3.6,0,.3.1-.6.2-.6.2-.1.3,0,.5,0s.4,0,.7,0c.1,0,.3-.6.4-.7.1-.1.3-.1.4,0,.2.2.4.6.5.7.2.1.4-.4.6.1.3,1,.7.5,1,.6.3.1.7.2,1,0,.2-.1.4.9.5.9,0,0,.2,2.9.2,4,0,.2,0,.4,0,.5-.2.9-.3,2.4-.5,2.3-.3-.1-.6,0-.9,0Z"/>
  <path d="M217.8,356c-.2,0-.4,0-.6,0,0,0-.1-.5-.2.6,0,.5-.1-.7-.2-.7-.2.1-.4,0-.5,0-.2.1-.3.6-.5.7-.2.1-.3-.5-.5.2-.1.6-.3-.4-.4-.2-.1.3-.3.4-.4,0-.1-.3-.2-.8-.3-.6,0,.1-.1.8-.2.7,0,0-.1-.6-.2.7,0,.1,0-.1,0-.3,0-.8-.2-.8-.2-.2,0,.5-.1.5-.2.5-.1,0-.3.1-.4,0-.1,0-.2-.6-.3-.7-.1-.1-.2.4-.3-.2-.1-.6-.2-.6-.3-.6,0,0-.1-.6-.2.7,0,.1,0,.1,0,0-.2-1.7-.3.5-.5.1-.2-.4-.4-.1-.5,0,0,0,0-.4-.1.6,0,.3,0,.4,0,.1-.1-1.3-.3-.5-.4-.7-.2-.2-.3.3-.5-.6,0-.4-.2-.6-.2.5,0,.5-.1,0-.2.1,0,.1,0,.6-.1.7,0,0,0-.5-.1-.7,0,0,0,0,0,0-.2,1.3-.4-.4-.7,0-.2.4-.5.2-.7,0-.1-.1-.3-.5-.3-2.8,0-1,0-2.1,0-2.8,0-.5,0-.9.1-1.1,0-.2.1-.5.2-.7.1-.4.3-1.5.4-.9,0,.2.1-.4.1.6,0,.1,0,.2,0,.1.2-1.6.4-.5.6-.7.2,0,.3-1.4.5-.8,0-1.3.2-1,.3-.7.3,1.3.7.4,1,.6.3.2.7,0,1,0,0,0,.1-.7.2-.1,0,.5.1.1.2.1s.1-.3.2,0c.3,1.3.5.5.8.7.3.1.5.3.8,0,.2-.2.3-.9.5-.6,0,.1.1-.6.2.6,0,.3,0-.6.1-.6.1-.1.2,0,.3,0s.3,0,.5,0c0,0,.2-.6.3-.7.1-.1.2-.1.3,0,.1.2.3.6.4.7.1.1.3-.4.4.1.2,1,.5.5.7.6.2.1.5.2.7,0,.1-.1.3.9.4.9,0,0,.1,2.9.1,4,0,.2,0,.4,0,.5-.1.9-.2,2.4-.4,2.3-.2-.1-.4,0-.6,0Z"/>
  <path d="M251.2,313.8c-.8,0-1.6,0-2.4,0-.3,0-.6-.5-.9.6-.2.5-.4-.7-.7-.7-.7.1-1.5,0-2.2,0-.7.1-1.4.6-2.1.7-.7.1-1.4-.5-2.1.2-.6.6-1.1-.4-1.7-.2-.6.3-1.2.4-1.8,0-.4-.3-.8-.8-1.3-.6-.3.1-.5.8-.8.7-.3,0-.6-.6-.8.7,0,.1-.1-.1-.2-.3-.3-.8-.6-.8-.9-.2-.2.5-.4.5-.7.5-.6,0-1.2.1-1.8,0-.5,0-.9-.6-1.4-.7-.5-.1-1,.4-1.4-.2-.4-.6-.9-.6-1.3-.6-.2,0-.5-.6-.7.7,0,.1-.1.1-.2,0-.7-1.7-1.4.5-2.1.1-.7-.4-1.5-.1-2.2,0-.2,0-.4-.4-.6.6,0,.3-.3.4-.4.1-.5-1.3-1.1-.5-1.7-.7-.6-.2-1.3.3-1.9-.6-.3-.4-.6-.6-1,.5-.1.5-.5,0-.7.1-.2.1-.4.6-.6.7-.2,0-.3-.5-.5-.7,0,0-.1,0-.2,0-.9,1.3-1.8-.4-2.8,0-.9.4-1.9.2-2.8,0-.5-.1-1.1-.5-1.4-2.8-.2-1-.2-2.1,0-2.8.2-.5.3-.9.5-1.1.3-.2.6-.5.9-.7.6-.4,1.2-1.5,1.8-.9.2.2.4-.4.6.6,0,.1.1.2.1.1.8-1.6,1.7-.5,2.5-.7.7,0,1.4-1.4,2.1-.8.4-1.3.9-1,1.3-.7,1.4,1.3,2.8.4,4.3.6,1.4.2,2.9,0,4.3,0,.2,0,.5-.7.7-.2.3.5.6.1.9.1s.6-.3.9,0c1.1,1.3,2.3.5,3.4.7,1.1.1,2.3.3,3.4,0,.7-.2,1.4-.9,2.1-.6.3.1.6-.6.9.6,0,.3.4-.6.5-.6.5-.1.9,0,1.4,0s1.3,0,2,0c.4,0,.8-.6,1.2-.7.4-.1.8-.1,1.3,0,.5.2,1.1.6,1.6.7.5.1,1.1-.4,1.6.1,1,1,2,.5,2.9.6,1,.1,1.9.2,2.9,0,.5-.1,1,.9,1.6.9.3,0,.6,2.9.5,4,0,.2,0,.4-.1.5-.5.9-1,2.4-1.6,2.3-.9-.1-1.8,0-2.7,0Z"/>
  <path d="M344.2,313.8c-.3,0-.7,0-1,0-.1,0-.2-.5-.4.6,0,.5-.2-.7-.3-.7-.3.1-.6,0-.9,0-.3.1-.6.6-.9.7-.3.1-.6-.5-.9.2-.2.6-.5-.4-.7-.2-.3.3-.5.4-.8,0-.2-.3-.4-.8-.5-.6-.1.1-.2.8-.3.7-.1,0-.2-.6-.3.7,0,.1,0-.1,0-.3-.1-.8-.3-.8-.4-.2,0,.5-.2.5-.3.5-.3,0-.5.1-.8,0-.2,0-.4-.6-.6-.7-.2-.1-.4.4-.6-.2-.2-.6-.4-.6-.5-.6-.1,0-.2-.6-.3.7,0,.1,0,.1,0,0-.3-1.7-.6.5-.9.1-.3-.4-.6-.1-.9,0,0,0-.2-.4-.2.6,0,.3-.1.4-.2.1-.2-1.3-.5-.5-.7-.7-.3-.2-.5.3-.8-.6-.1-.4-.3-.6-.4.5,0,.5-.2,0-.3.1,0,.1-.2.6-.2.7,0,0-.1-.5-.2-.7,0,0,0,0,0,0-.4,1.3-.8-.4-1.2,0-.4.4-.8.2-1.2,0-.2-.1-.4-.5-.6-2.8,0-1,0-2.1,0-2.8,0-.5.1-.9.2-1.1.1-.2.2-.5.4-.7.3-.4.5-1.5.8-.9,0,.2.2-.4.2.6,0,.1,0,.2,0,.1.3-1.6.7-.5,1.1-.7.3,0,.6-1.4.9-.8.2-1.3.4-1,.5-.7.6,1.3,1.2.4,1.8.6.6.2,1.2,0,1.8,0,.1,0,.2-.7.3-.2.1.5.3.1.4.1s.2-.3.4,0c.5,1.3,1,.5,1.4.7.5.1.9.3,1.4,0,.3-.2.6-.9.9-.6.1.1.3-.6.4.6,0,.3.2-.6.2-.6.2-.1.4,0,.6,0s.6,0,.8,0c.2,0,.3-.6.5-.7.2-.1.4-.1.5,0,.2.2.4.6.7.7.2.1.5-.4.7.1.4,1,.8.5,1.2.6.4.1.8.2,1.2,0,.2-.1.4.9.7.9.1,0,.2,2.9.2,4,0,.2,0,.4,0,.5-.2.9-.4,2.4-.7,2.3-.4-.1-.7,0-1.1,0Z"/>
  <path d="M392.9,313.8c-.2,0-.3,0-.5,0,0,0-.1-.5-.2.6,0,.5,0-.7-.1-.7-.2.1-.3,0-.5,0-.1.1-.3.6-.4.7-.1.1-.3-.5-.4.2-.1.6-.2-.4-.4-.2-.1.3-.3.4-.4,0,0-.3-.2-.8-.3-.6,0,.1-.1.8-.2.7,0,0-.1-.6-.2.7,0,.1,0-.1,0-.3,0-.8-.1-.8-.2-.2,0,.5,0,.5-.1.5-.1,0-.3.1-.4,0,0,0-.2-.6-.3-.7,0-.1-.2.4-.3-.2,0-.6-.2-.6-.3-.6,0,0-.1-.6-.2.7,0,.1,0,.1,0,0-.1-1.7-.3.5-.4.1-.2-.4-.3-.1-.5,0,0,0,0-.4-.1.6,0,.3,0,.4,0,.1-.1-1.3-.2-.5-.4-.7-.1-.2-.3.3-.4-.6,0-.4-.1-.6-.2.5,0,.5,0,0-.1.1,0,.1,0,.6-.1.7,0,0,0-.5-.1-.7,0,0,0,0,0,0-.2,1.3-.4-.4-.6,0-.2.4-.4.2-.6,0-.1-.1-.2-.5-.3-2.8,0-1,0-2.1,0-2.8,0-.5,0-.9.1-1.1,0-.2.1-.5.2-.7.1-.4.3-1.5.4-.9,0,.2,0-.4.1.6,0,.1,0,.2,0,.1.2-1.6.4-.5.5-.7.2,0,.3-1.4.4-.8,0-1.3.2-1,.3-.7.3,1.3.6.4.9.6.3.2.6,0,.9,0,0,0,0-.7.2-.2,0,.5.1.1.2.1s.1-.3.2,0c.2,1.3.5.5.7.7.2.1.5.3.7,0,.1-.2.3-.9.4-.6,0,.1.1-.6.2.6,0,.3,0-.6.1-.6,0-.1.2,0,.3,0s.3,0,.4,0c0,0,.2-.6.3-.7,0-.1.2-.1.3,0,.1.2.2.6.3.7.1.1.2-.4.3.1.2,1,.4.5.6.6.2.1.4.2.6,0,.1-.1.2.9.3.9,0,0,.1,2.9.1,4,0,.2,0,.4,0,.5-.1.9-.2,2.4-.3,2.3-.2-.1-.4,0-.6,0Z"/>
  <path d="M388.6,356c-.2,0-.4,0-.6,0,0,0-.1-.5-.2.6,0,.5-.1-.7-.2-.7-.2.1-.4,0-.5,0-.2.1-.4.6-.5.7-.2.1-.4-.5-.5.2-.1.6-.3-.4-.4-.2-.1.3-.3.4-.4,0-.1-.3-.2-.8-.3-.6,0,.1-.1.8-.2.7,0,0-.1-.6-.2.7,0,.1,0-.1,0-.3,0-.8-.2-.8-.2-.2,0,.5-.1.5-.2.5-.1,0-.3.1-.4,0-.1,0-.2-.6-.3-.7-.1-.1-.2.4-.3-.2-.1-.6-.2-.6-.3-.6,0,0-.1-.6-.2.7,0,.1,0,.1,0,0-.2-1.7-.3.5-.5.1-.2-.4-.4-.1-.5,0,0,0-.1-.4-.1.6,0,.3,0,.4,0,.1-.1-1.3-.3-.5-.4-.7-.2-.2-.3.3-.5-.6,0-.4-.2-.6-.2.5,0,.5-.1,0-.2.1,0,.1,0,.6-.1.7,0,0,0-.5-.1-.7,0,0,0,0,0,0-.2,1.3-.5-.4-.7,0-.2.4-.5.2-.7,0-.1-.1-.3-.5-.3-2.8,0-1,0-2.1,0-2.8,0-.5,0-.9.1-1.1,0-.2.1-.5.2-.7.1-.4.3-1.5.5-.9,0,.2.1-.4.1.6,0,.1,0,.2,0,.1.2-1.6.4-.5.6-.7.2,0,.4-1.4.5-.8,0-1.3.2-1,.3-.7.4,1.3.7.4,1.1.6.4.2.7,0,1.1,0,0,0,.1-.7.2-.1,0,.5.2.1.2.1s.1-.3.2,0c.3,1.3.6.5.8.7.3.1.6.3.8,0,.2-.2.3-.9.5-.6,0,.1.2-.6.2.6,0,.3,0-.6.1-.6.1-.1.2,0,.4,0s.3,0,.5,0c0,0,.2-.6.3-.7.1-.1.2-.1.3,0,.1.2.3.6.4.7.1.1.3-.4.4.1.2,1,.5.5.7.6.2.1.5.2.7,0,.1-.1.3.9.4.9,0,0,.1,2.9.1,4,0,.2,0,.4,0,.5-.1.9-.3,2.4-.4,2.3-.2-.1-.4,0-.7,0Z"/>
  <path d="M353.2,414c-.5-.4-1-.9-1.6-1.2-.2-.1,0-.7-1,0-.4.3.2-.8,0-.9-.6-.3-.9-.8-1.5-1.1-.5-.3-1.3-.3-1.8-.6-.5-.3-.6-1.1-1.5-1-.7.1-.4-1-.9-1.1-.5-.1-1.1-.4-1.1-1,0-.5,0-1.1-.4-1.1-.3,0-.8.3-1,.1-.1-.2,0-.8-1,0,0,0,0-.2,0-.3.4-.8,0-.9-.4-.7-.5.3-.6.1-.8,0-.4-.3-.8-.6-1.1-1-.2-.3-.2-.9-.4-1.3-.2-.4-.9-.2-.8-.9.1-.7-.1-.9-.4-1.2-.2-.1,0-.7-.9,0,0,0-.1,0,0,0,.7-1.6-1.2-.4-1.4-1.1-.2-.7-.8-.9-1.3-1.3-.1-.1,0-.5-.7,0-.3.2-.4.1-.3-.1.5-1.2-.3-1-.5-1.5-.2-.5-1-.5-.7-1.6.1-.5,0-.8-1-.2-.5.3-.3-.3-.5-.3-.2,0-.7.2-.8.1-.1,0,.1-.5.2-.8,0,0,0-.1,0,0-1.5.4-.8-1.4-1.6-1.7-.8-.3-1.3-1-1.7-1.7-.2-.4-.3-1,1.1-2.8.6-.8,1.4-1.6,2-1.9.4-.2.9-.5,1.1-.4.3,0,.7,0,1,0,.6,0,1.7-.3,1.7.4,0,.2.5,0,0,.8,0,.1,0,.2,0,.2,1.6-.6,1.4.6,1.9,1,.5.3,1.8-.2,1.8.6,1.1-.7,1.2-.3,1.2.2,0,1.8,1.4,1.9,2.1,2.9.7.9,1.7,1.6,2.5,2.5.1.1.8-.3.6.3-.2.5.3.4.5.6.2.2.5.1.5.5-.2,1.6,1,1.6,1.6,2.4.6.7,1.2,1.4,2.1,1.8.6.2,1.4,0,1.7.6.1.2.7-.1.2.9-.2.3.6-.2.7-.2.4.2.6.5.9.7.4.4.8.8,1.3,1,.3.2.9,0,1.2.1.3.1.6.3.8.7.2.4.3,1,.6,1.4.3.4,1,.3,1,1,0,1.3.9,1.4,1.5,2,.5.6,1.1,1.2,1.9,1.5.4.2.1,1.2.5,1.5.2.1-1.4,2.6-2.1,3.4-.1.1-.3.3-.4.3-.9.5-2.1,1.3-2.5,1-.5-.6-1.2-1-1.7-1.4Z"/>
  <path d="M357.1,407.1c.5-.4,1-.7,1.3-1.2.1-.2.7,0,.1-.9-.3-.5.7.3.9.2.3-.5.9-.7,1.2-1.1.3-.4.4-1.1.8-1.6.3-.4,1.1-.4,1.1-1.2,0-.7.9-.2,1.1-.7.2-.5.4-.9,1.1-.8.5,0,1,.2,1.1-.2,0-.2-.2-.8,0-1,.2,0,.7.2,0-.9,0,0,.2,0,.3.1.7.5.9.3.6-.3-.2-.5,0-.6,0-.7.3-.4.6-.7,1-.9.3-.2.9,0,1.2-.1.4-.1.3-.8.9-.6.6.2.9,0,1.1-.2.1-.1.7.2,0-.9,0,0,0-.1,0,0,1.5.9.5-1.1,1.1-1.1.7,0,.9-.6,1.3-1,.1-.1.5,0,0-.7-.2-.3,0-.4.1-.3,1.1.7,1-.2,1.4-.3.5-.1.5-.9,1.5-.5.4.2.8.2.2-.9-.3-.5.3-.2.3-.4,0-.2-.2-.7-.1-.8,0,0,.5.2.7.3,0,0,.1,0,0,0-.3-1.5,1.4-.6,1.7-1.3.3-.7.9-1.1,1.6-1.4.4-.2.9-.2,2.6,1.4.8.7,1.5,1.5,1.8,2.1.2.4.4.9.4,1.1,0,.3,0,.6,0,.9,0,.6.3,1.7-.5,1.6-.2,0,0,.5-.7-.2-.1,0-.2-.1-.2,0,.6,1.6-.6,1.2-1,1.8-.3.4,0,1.7-.7,1.7.6,1.2.2,1.2-.3,1.1-1.7-.3-1.9,1.1-2.9,1.6-.9.6-1.7,1.4-2.5,2.1-.2.1.2.8-.3.5-.5-.3-.4.2-.6.4-.2.1-.2.5-.5.4-1.5-.4-1.6.7-2.4,1.2-.7.5-1.5.9-1.9,1.7-.3.5-.2,1.4-.8,1.5-.2,0,0,.7-.9,0-.3-.2.2.6,0,.7-.2.3-.5.5-.8.7-.4.3-.8.6-1.1,1-.2.3,0,.8-.2,1.1-.2.3-.4.5-.7.6-.4.1-1,0-1.4.3-.4.2-.4.9-1,.7-1.2-.3-1.5.6-2.1,1-.3.2-.6.4-1,.7-.4.3-.8.7-1.3,1.1-.6.5-1.8,0-2.6,0-.2,0-.5-.7-.7-1.5-.2-.9-.2-1.8-.2-2.4,0-.2,0-.4,0-.5,0-.2,0-.5,0-.8,0-.3-.1-.6-.1-.6,0-.2-.1-.4-.3-.8,0,0,.1,0,.2-.1l.6-.5Z"/>
  <path d="M349,484.4c.1-1.3.3-2.7.3-4,0-.5.6-1-.5-1.6-.5-.3.8-.7.8-1.1,0-1.3.3-2.5.3-3.8,0-1.2-.4-2.5-.4-3.7,0-1.2.7-2.4.1-3.6-.5-1.1.6-1.9.4-2.9-.2-1-.3-2.1.3-3.1.4-.7.9-1.4.7-2.2-.1-.5-.7-.9-.6-1.4,0-.5.6-.9-.6-1.4-.1,0,.1-.2.3-.3.8-.4.8-1.1.3-1.5-.5-.4-.4-.8-.4-1.2,0-1,0-2.1.2-3.1.1-.8.6-1.5.8-2.3.2-.8-.4-1.7.3-2.4.6-.7.6-1.4.7-2.2,0-.4.6-.9-.6-1.3-.1,0,0-.2,0-.3,1.7-1.1-.4-2.4,0-3.6.5-1.2.2-2.5.2-3.8,0-.3.4-.7-.5-1-.3-.1-.3-.5-.1-.6,1.3-.9.6-1.9.8-2.8.3-1.1-.3-2.2.7-3.3.4-.5.7-1.1-.5-1.7-.5-.3,0-.8,0-1.2,0-.3-.6-.7-.6-1,0-.3.5-.5.7-.8,0,0,0-.2,0-.3-1.3-1.6.5-3.2.2-4.8-.3-1.6-.2-3.2,0-4.9.1-.9.5-1.8,2.8-2.4,1-.3,2.1-.3,2.8.1.5.3.9.6,1,.9.2.5.5,1,.6,1.5.4,1,1.4,2.1.9,3.2-.2.3.4.7-.6,1-.1,0-.2.2-.1.2,1.6,1.5.5,2.9.6,4.4,0,1.2,1.3,2.5.7,3.7,1.3.7,1,1.5.6,2.2-1.4,2.4-.6,4.9-.8,7.4-.3,2.5-.2,5-.4,7.5,0,.4.7.8,0,1.3-.5.4-.2,1.1-.2,1.6,0,.5.2,1-.1,1.5-1.4,1.9-.7,3.9-1,5.9-.3,1.9-.5,3.9-.3,5.9.1,1.2.7,2.4.4,3.6-.1.5.5,1.1-.7,1.5-.3.1.5.7.5,1,0,.8,0,1.6-.1,2.5,0,1.1-.3,2.3-.2,3.4,0,.7.5,1.4.5,2.1,0,.7,0,1.5-.2,2.2-.2.9-.7,1.8-.9,2.7-.2.9.2,2-.4,2.8-1.2,1.6-.8,3.3-1.1,5-.3,1.7-.5,3.3-.5,5,0,1-1,1.7-1.1,2.7,0,.4-3,.7-4,.4-.2,0-.4-.1-.4-.2-.8-1-2.2-2-2-3,.3-1.5.4-3,.5-4.6Z"/>
  <path d="M267.9,289.6c-.4-1.1-.7-2.2-1.1-3.2-.2-.4,0-.9-.7-1.1-.3-.1.1-.7,0-1.1-.4-1-.7-2-1.1-3-.4-.9-.9-1.8-1.3-2.8-.4-.9-.5-2-1.1-2.8-.5-.7-.3-1.6-.7-2.3-.4-.8-.8-1.6-.8-2.5,0-.6,0-1.3-.3-1.8-.2-.3-.6-.6-.7-1-.1-.4,0-.9-.7-1,0,0,0-.2,0-.3.2-.5,0-1-.3-1.2-.4-.2-.4-.5-.6-.8-.3-.8-.6-1.6-.9-2.5-.2-.6-.2-1.3-.3-1.9-.2-.7-.7-1.2-.6-1.9,0-.7-.1-1.3-.3-1.8-.1-.3,0-.8-.7-.9,0,0-.1-.1,0-.2.5-1.2-.9-1.8-1-2.8-.1-1.1-.6-2-1-3,0-.3,0-.6-.5-.7-.2,0-.3-.3-.2-.5.3-.9-.3-1.6-.5-2.4-.2-.9-.8-1.7-.6-2.7,0-.4,0-1-.7-1.2-.3-.1-.2-.6-.4-.9-.1-.2-.5-.4-.6-.7,0-.2,0-.5,0-.8,0,0,0-.2,0-.2-1.1-1-.7-2.6-1.3-3.8-.6-1.2-1-2.5-1.4-3.8-.2-.7-.3-1.5.6-2.4.4-.4.9-.6,1.3-.4.3.1.6.3.8.6.2.4.5.7.7,1.1.5.8,1.3,1.4,1.3,2.3,0,.3.4.5,0,.9,0,0,0,.2,0,.2,1.1.9,1.1,2.2,1.5,3.3.4,1,1.3,1.7,1.4,2.8.8.3.9,1,.9,1.6,0,2.1,1.1,3.9,1.7,5.9.6,2,1.4,3.9,2,5.9.1.3.6.5.4,1-.1.5.2.9.4,1.3.1.4.4.8.4,1.2,0,1.7.8,3.2,1.3,4.7.5,1.6.9,3.1,1.6,4.6.4.9,1.1,1.7,1.3,2.7,0,.4.6.7.1,1.3-.1.2.4.4.5.6.3.6.5,1.3.7,1.9.3.9.6,1.8,1,2.7.2.5.6,1,.9,1.5.3.5.5,1.1.6,1.7.2.7.2,1.5.4,2.3.2.8.7,1.5.7,2.3,0,1.5.7,2.7,1.1,4.1.4,1.3.8,2.7,1.4,3.9.3.7,0,1.6.4,2.3.1.3-1.1,1.3-1.6,1.3-.1,0-.2,0-.3,0-.7-.6-1.6-1-1.8-1.8-.4-1.2-.8-2.4-1.3-3.6Z"/>
  <path d="M247.3,444c.4-2.5.7-5,1.1-7.4.1-.9.5-1.8.2-2.9-.2-.5.6-1.3.7-2.2.3-2.3.8-4.6,1.2-6.9.4-2.2.5-4.5.9-6.8.4-2.2,1.1-4.4,1.3-6.6,0-1.9,1-3.4,1.2-5.2.3-1.9.6-3.8,1.3-5.6.5-1.3,1-2.5,1.2-3.9.1-.8,0-1.7.2-2.6.2-.8.7-1.7.3-2.6,0,0,.2-.4.3-.6.6-.8.9-1.9.8-2.7,0-.8.1-1.4.3-2.1.5-1.9.9-3.7,1.5-5.6.4-1.4,1-2.7,1.5-4.1.5-1.4.6-3.1,1.3-4.3.7-1.2,1.1-2.5,1.4-3.8.2-.7.8-1.5.3-2.3,0,0,0-.3.1-.5,1.4-1.9,1-4.3,1.9-6.3.9-2.1,1.4-4.4,2.2-6.7.2-.6.6-1.2.3-1.9,0-.2.1-.9.3-1.1,1.2-1.4,1.4-3.3,2-4.9.8-1.9,1.2-3.9,2.3-5.6.5-.7,1-1.8.8-3,0-.5.5-1.4.7-2.1.2-.6.1-1.2.3-1.8.2-.5.6-.9.9-1.3,0-.1.2-.3.2-.5.4-3,2.3-5.4,3.3-8.2.5-1.4,1-2.8,1.6-4.2.6-1.4,1.2-2.8,1.8-4.1.7-1.5,1.5-3,3-3.6.7-.3,1.2,0,1.2.7,0,.6,0,1.2-.2,1.8-.3.9-.5,1.8-.8,2.7-.5,1.8-.8,3.8-1.8,5.5-.3.5-.3,1.3-1,1.6,0,0-.2.3-.2.4-.2,2.7-1.8,5-2.6,7.6-.8,2.1-.9,4.4-2,6.5.1,1.4-.4,2.8-1.1,3.9-1.1,2-1.9,4.1-2.6,6.2-.7,2.1-1.3,4.3-2.1,6.4-.8,2.1-1.5,4.3-2.1,6.5l-2,6.5c-.2.7,0,1.5-.6,2.3-.5.7-.6,1.9-.9,2.8-.3.9-.4,1.8-.8,2.6-1.6,3.2-2.2,6.8-3.2,10.3-.9,3.4-2,6.9-2.6,10.4-.4,2.1-.6,4.3-1.2,6.4-.3.9-.1,1.9-.9,2.7-.2.2,0,1.2,0,1.8-.3,1.5-.6,2.9-.9,4.4-.5,2-.9,4.1-1.2,6.1-.2,1.2-.2,2.5-.4,3.8-.2,1.3-.4,2.6-.7,3.9-.4,1.6-.9,3.2-1.2,4.9-.4,1.7-.4,3.5-.9,5.1-1,3-1.3,6-1.8,9.1-.5,3-1,6.1-1.3,9.1-.2,1.7-.9,3.2-1.1,4.9,0,.8-1.7,1.7-2.2,1.3,0,0-.2-.2-.2-.3-.2-1.7-.8-3.3-.5-5.2.4-2.8.8-5.6,1.2-8.4Z"/>
  <path d="M301.9,453.1c.4-2.5.7-5,1.1-7.4.1-.9.5-1.8.2-2.9-.2-.5.6-1.3.7-2.2.3-2.3.8-4.6,1.2-6.9.4-2.2.5-4.5.9-6.8.4-2.2,1.1-4.4,1.3-6.6,0-1.9,1-3.4,1.2-5.2.3-1.9.6-3.8,1.3-5.6.5-1.3,1-2.5,1.2-3.9.1-.8,0-1.7.2-2.6.2-.8.7-1.7.3-2.6,0,0,.2-.4.3-.6.6-.8.9-1.9.8-2.7,0-.8.1-1.4.3-2.1.5-1.9.9-3.7,1.5-5.6.4-1.4,1-2.7,1.5-4.1.5-1.4.6-3.1,1.3-4.3.7-1.2,1.1-2.5,1.4-3.8.2-.7.8-1.5.3-2.3,0,0,0-.3.1-.5,1.4-1.9,1-4.3,1.9-6.3.9-2.1,1.4-4.4,2.2-6.7.2-.6.6-1.2.3-1.9,0-.2.1-.9.3-1.1,1.2-1.4,1.4-3.3,2-4.9.8-1.9,1.2-3.9,2.3-5.6.5-.7,1-1.8.8-3,0-.5.5-1.4.7-2.1.2-.6.1-1.2.3-1.8.2-.5.6-.9.9-1.3,0-.1.2-.3.2-.5.4-3,2.3-5.4,3.3-8.2.5-1.4,1-2.8,1.6-4.2.6-1.4,1.2-2.8,1.8-4.1.7-1.5,1.5-3,3-3.6.7-.3,1.2,0,1.2.7,0,.6,0,1.2-.2,1.8-.3.9-.5,1.8-.8,2.7-.5,1.8-.8,3.8-1.8,5.5-.3.5-.3,1.3-1,1.6,0,0-.2.3-.2.4-.2,2.7-1.8,5-2.6,7.6-.8,2.1-.9,4.4-2,6.5.1,1.4-.4,2.8-1.1,3.9-1.1,2-1.9,4.1-2.6,6.2-.7,2.1-1.3,4.3-2.1,6.4-.8,2.1-1.5,4.3-2.1,6.5l-2,6.5c-.2.7,0,1.5-.6,2.3-.5.7-.6,1.9-.9,2.8-.3.9-.4,1.8-.8,2.6-1.6,3.2-2.2,6.8-3.2,10.3-.9,3.4-2,6.9-2.6,10.4-.4,2.1-.6,4.3-1.2,6.4-.3.9-.1,1.9-.9,2.7-.2.2,0,1.2,0,1.8-.3,1.5-.6,2.9-.9,4.4-.5,2-.9,4.1-1.2,6.1-.2,1.2-.2,2.5-.4,3.8-.2,1.3-.4,2.6-.7,3.9-.4,1.6-.9,3.2-1.2,4.9-.4,1.7-.4,3.5-.9,5.1-1,3-1.3,6-1.8,9.1-.5,3-1,6.1-1.3,9.1-.2,1.7-.9,3.2-1.1,4.9,0,.8-1.7,1.7-2.2,1.3,0,0-.2-.2-.2-.3-.2-1.7-.8-3.3-.5-5.2.4-2.8.8-5.6,1.2-8.4Z"/>
  <g>
    <path d="M314.8,416.3c-18.4-6-40.2-10.8-59.5-10.6-.7,0-1.4,0-1.9.5-.4.3-.6.9-.7,1.4-3.3,10.5-9.7,44.9-11.8,55.7-.1.7-.3,1.5-.8,2-.6.7-1.6,1-2.5,1.3-5.2,1.5-10.4,3.9-14.1,7.9-1.3,1.5-2.5,3.5-1.8,5.3.7,1.6,2.5,2.3,4.1,2.8,23.1,7.3,44.9,12.1,69,14.3.6,0,1.3.1,1.9-.2.6-.3.9-1,1.1-1.6,3.7-9.3,1.7-13.8,5.3-29.6,2.1-9.3,8.5-41,10.6-50.3" fill="#00b4e9"/>
    <path d="M309.8,443.1c-1,4.9-2.1,9.8-3.1,14.8-.4,1.8-1,3.6-.9,5.7,0,1-.9,2.6-1.3,4.3-.9,4.5-1.6,9.1-2,13.7-.2,2.3-.3,4.6-.7,7-.3,2.4-.9,4.8-1.8,7l-.2.4v.2c0,0-.3.4-.3.4-.2.5-.5.9-.8,1.3-.7.8-1.7,1.3-2.7,1.3-.3,0-.5,0-.8,0-.3,0-.5,0-.7,0h-.9c0,0-1.7-.3-1.7-.3-2.3-.2-4.5-.5-6.7-.6-3.8-.2-7.1-1.1-10.7-1.6-3.8-.5-7.8-1.1-11.4-2-2.7-.7-5.3-1.5-8-2-1.7-.3-3.3-.4-5.1-.8-1.7-.4-3.5-1.2-5.1-.9-.1,0-.9-.3-1.2-.5-1.7-.9-3.9-1.5-5.5-1.6-1.5-.2-2.8-.6-4.2-.9-1.9-.5-3.7-1.1-5.6-1.6l-2.8-.9c-.9-.3-1.9-.6-3.1-1.2-.8-.4-1.8-1-2.5-2-.8-1-1.2-2.4-1.2-3.6,0-1.2.4-2.3.9-3.1.5-.9,1-1.6,1.6-2.2,2.3-2.5,5-4.8,7.9-5.9,2.8-1.1,5.4-2,8.1-2.8.3,0,.6-.2.8-.3.2,0,.3-.1.4-.2,0-.1,0-.2.1-.5,0-.2,0-.6-.1-.9,0-.1,0-.7.2-.9,1.7-4.2,1.4-8.7,2.5-13,1.1-4.5,1.9-9.2,2.8-13.8.2-1.2.7-2.5.5-3.7,0-.4.2-1.7.4-2.3,1.3-3.3,1.7-6.9,2.6-10.4.5-2,.9-4,1.4-6,.2-1,.5-2,.8-3,.1-.5.3-1,.5-1.5l.3-.7.2-.4c0-.2.2-.4.3-.6.3-.7.8-1.3,1.5-1.8.7-.4,1.5-.6,2.4-.6.3,0,.6,0,.9,0,.3,0,.5,0,.8,0,.5,0,1.1-.2,1.6-.3,1-.3,3,0,4.5,0,1.2,0,2.5-.2,3.7-.1,1,0,2.1.4,3.1.6.3,0,.7,0,1,0,6.1,0,11.8,1.8,17.8,2.8,6,1,11.9,2.6,17.7,4.3,3.2,1,6.5,2.2,8.3,4,.8.8.6,1.3-.8,1.2-1.1,0-2.3-.2-3.4-.5-1.8-.5-3.7-.9-5.5-1.3-3.7-.8-7.5-1.3-11.3-2.4-1.2-.4-2.6-.4-3.5-1.1-.1,0-.6-.2-.9-.3-5.3-.3-10.6-1.7-15.9-2.3-4.5-.5-8.9-.2-13.5-.6-1.3.3-2.6.4-4,.4h-.5s0,0,0,0c0,0,0,0,0,0,0,0,0,0-.1,0-1.6,4-2.6,8.5-3.6,12.9-.9,4.4-1.8,8.9-2.7,13.3-1.9,9-3.6,18.1-5.4,27.1-.2.8-.2,1.5-.3,2.3,0,.4-.2,1-.5,1.6-.3.7-.8,1.4-1.6,1.8-1.4.9-2.6,1-3.4,1.3-.9.3-1.9.7-2.8,1-1.6.6-3.2,1.5-4.7,2.2-1.5.7-2.9,1.6-4.2,2.7-.6.5-1.2,1.1-1.7,1.7-.5.6-.8,1.2-.9,1.7-.1.5,0,.9.2,1.2.2.3.7.7,1.3,1,.7.3,1.4.5,2.3.8l2.6.8c6.8,2.2,13.7,4.2,20.7,5.7,4.3.9,8.6,1.6,12.8,2.5,1.8.4,3.8.4,5.5,1.4.5.3,2.3.1,3.5.3,3,.4,5.9.9,8.9,1.3,4.1.5,8.2,1.1,12.4,1.4h.9c0,0,.5,0,.5,0h.2c0,0,0,0,0,0,0,0,.2,0,.2-.2,0,0,0,0,0-.1,0,0,0,0,0,0v-.4c.3-.6.5-1.1.7-1.7.7-2.4,1.2-4.8,1.6-7.3.5-3.2.9-6.7,1.5-10.1.5-3.5,1-7.3,2-10.5,1.8-6,2.8-12.2,4.2-18.2,1.3-6,2.7-12.1,3.8-18.2.7-3.5,1.8-6.5,2.5-9.8.3-1.6,2.2-3.4,2.6-2.6,0,.1.1.4,0,.7-.2,3.4-.2,6.6-1,10.3-1.2,5.6-2.4,11.1-3.5,16.7Z" fill="#00b4e9"/>
  </g>
  <path d="M306.7,414.6c-.9-.4-1.8-.8-2.7-1.1-.3-.1-.6-.5-1.1-.1-.3.2-.4-.5-.7-.6-.9-.3-1.7-.6-2.6-.9-.9-.2-1.7-.3-2.6-.5-.8-.2-1.6-.7-2.5-.7-.8,0-1.3-.6-2-.7-.7,0-1.5-.2-2.1-.6-.5-.3-.9-.6-1.5-.6-.3,0-.7.2-1,.1-.3,0-.6-.4-1,0,0,0-.2,0-.2-.2-.3-.5-.7-.5-1-.3-.3.2-.6.1-.8,0-.7-.1-1.5-.3-2.2-.4-.5-.1-1-.5-1.6-.6-.6-.2-1.2,0-1.7-.4-.5-.4-1-.4-1.5-.5-.3,0-.6-.4-.9.2,0,0-.1,0-.2,0-.7-1-1.7,0-2.5-.2-.9-.3-1.8-.3-2.7-.3-.2,0-.5-.2-.7.2,0,.2-.3.2-.5,0-.6-.7-1.3-.3-2-.5-.8-.1-1.6.1-2.3-.4-.3-.2-.8-.3-1.2.2-.2.3-.6,0-.9,0-.2,0-.5.3-.7.3-.2,0-.4-.2-.6-.3,0,0-.1,0-.2,0-1.1.7-2.3-.2-3.4,0-1.1.2-2.3.2-3.5.2-.6,0-1.3-.1-1.8-1.3-.2-.5-.3-1.1,0-1.4.2-.3.4-.5.6-.6.4-.1.7-.3,1.1-.4.7-.2,1.5-.8,2.3-.6.2,0,.5-.2.8.3,0,0,.1.1.2,0,1-.8,2.1-.4,3.2-.4.9,0,1.8-.7,2.7-.4.5-.6,1.1-.5,1.6-.3.9.4,1.8.4,2.7.5.9,0,1.8,0,2.7.1,1.8.2,3.7.3,5.5.6.3,0,.6-.3,1,0,.3.3.8.2,1.2.2.4,0,.8,0,1.1.2,1.3.9,2.8.7,4.2,1.1,1.4.4,2.8.7,4.2.9.9.1,1.8,0,2.6.3.4.1.8,0,1,.6,0,.2.5-.2.8-.1.6.1,1.2.3,1.7.5.8.2,1.6.5,2.4.7.5.1,1.1,0,1.6.1.5,0,1,.3,1.5.5.6.3,1.2.7,1.8,1,.6.3,1.4.3,1.9.8,1,.9,2.2,1.1,3.3,1.7,1.1.5,2.2,1,3.4,1.5.7.2,1,1,1.6,1.2.3.1,0,1.6-.3,2,0,0-.2.1-.2.2-.8.1-1.6.5-2.3.2-1-.5-2-.9-3-1.4Z"/>
  <path d="M293,449.2c-.7-.6-1.4-1.3-2.2-1.9-.3-.2-.4-.7-1-.5-.3,0-.2-.6-.4-.8-.7-.5-1.3-1.2-2-1.8-.7-.5-1.5-1-2.2-1.5-.7-.5-1.2-1.4-2-1.7-.7-.3-.9-1.1-1.5-1.5-.6-.4-1.2-.9-1.6-1.5-.3-.5-.5-1-.9-1.3-.3-.2-.7-.1-1-.4-.2-.2-.3-.7-1-.4,0,0,0-.2,0-.3,0-.5-.3-.8-.7-.8-.4,0-.6-.2-.8-.4-.6-.5-1.1-1-1.6-1.5-.4-.4-.6-1-1-1.4-.4-.4-1-.7-1.2-1.3-.2-.6-.5-.9-.9-1.3-.2-.2-.3-.7-.9-.4,0,0-.1,0-.1-.1,0-1.2-1.4-1-1.8-1.8-.5-.8-1.2-1.3-1.9-2-.2-.2-.2-.5-.7-.3-.2,0-.4-.1-.4-.3,0-.9-.8-1.2-1.2-1.7-.5-.6-1.2-1-1.4-1.9,0-.4-.3-.8-1-.7-.3,0-.4-.4-.6-.6-.2-.1-.6-.1-.7-.3-.1-.1-.1-.4-.2-.7,0,0,0-.1-.1-.1-1.3-.4-1.4-1.8-2.3-2.5-.9-.7-1.7-1.6-2.4-2.6-.4-.5-.7-1.1-.1-2.2.3-.5.7-.9,1.1-.9.3,0,.6,0,.8.1.3.2.7.4,1,.6.6.4,1.5.6,1.8,1.3,0,.2.5.2.3.7,0,0,0,.2,0,.2,1.3.2,1.6,1.3,2.3,2,.6.6,1.7.8,2.1,1.6.8,0,1.1.4,1.3.9.7,1.7,2.2,2.7,3.4,3.9,1.2,1.3,2.5,2.5,3.7,3.8.2.2.6.1.7.6,0,.4.5.6.8.8.2.2.6.4.7.8.5,1.4,1.8,2.1,2.7,3.1.9,1,1.9,2,3,2.8.7.5,1.5.8,2,1.5.2.3.7.3.6,1,0,.2.5,0,.7.2.5.4.9.8,1.3,1.2.6.5,1.2,1.1,1.8,1.6.4.3.9.4,1.3.7.4.3.8.6,1.1,1,.4.5.8,1.1,1.2,1.5.5.5,1.2.7,1.5,1.4.6,1.2,1.6,1.8,2.5,2.6.9.8,1.7,1.6,2.7,2.3.6.4.7,1.2,1.2,1.6.2.2-.4,1.6-.8,1.9,0,0-.2.1-.2,0-.8,0-1.7.1-2.2-.4-.8-.8-1.7-1.4-2.5-2.2Z" fill="#fff"/>
  <path d="M289.8,469.6c-.9-.6-1.7-1.2-2.6-1.8-.3-.2-.5-.7-1.2-.5-.3,0-.3-.6-.6-.8-.9-.5-1.6-1.2-2.4-1.8-.8-.5-1.7-.9-2.5-1.5-.8-.5-1.4-1.4-2.3-1.7-.8-.3-1-1.1-1.7-1.5-.7-.4-1.4-.9-1.9-1.6-.3-.5-.6-1.1-1.1-1.3-.3-.2-.8-.2-1.1-.4-.3-.3-.4-.7-1.1-.5,0,0-.1-.2-.1-.3,0-.6-.4-.9-.8-.9-.4,0-.6-.2-.8-.4-.6-.5-1.3-1.1-1.8-1.7-.4-.5-.7-1-1.1-1.5-.4-.5-1.1-.7-1.3-1.4-.2-.6-.6-1-1-1.4-.2-.2-.3-.7-.9-.4,0,0-.1,0-.1-.1,0-1.2-1.5-1.1-2-2-.5-.9-1.4-1.5-2.1-2.2-.2-.2-.2-.5-.8-.4-.2,0-.4-.1-.4-.3,0-1-.9-1.3-1.3-1.9-.5-.7-1.3-1.2-1.5-2.1,0-.4-.3-.9-1.1-.8-.3,0-.4-.5-.7-.7-.2-.2-.6-.2-.8-.4-.1-.2-.1-.5-.2-.7,0,0,0-.1-.1-.2-1.3-.5-1.5-2.1-2.4-2.9-1-.9-1.7-1.9-2.4-3-.4-.6-.7-1.3,0-2.4.3-.5.7-.8,1.2-.8.3,0,.7,0,.9.2.3.2.7.5,1,.7.7.5,1.6.8,1.9,1.6,0,.3.5.3.3.8,0,0,0,.2,0,.2,1.3.3,1.6,1.6,2.4,2.4.7.7,1.7,1,2.2,1.9.8,0,1.2.5,1.4,1,.8,1.9,2.4,3,3.6,4.4,1.2,1.5,2.7,2.8,4,4.1.2.2.7.2.8.6,0,.4.6.6.9.9.3.3.7.5.8.8.6,1.5,2,2.3,3.1,3.3,1.1,1,2.1,2.1,3.4,3,.8.5,1.7.9,2.3,1.6.3.3.8.3.7,1,0,.2.6,0,.8.2.5.4,1,.8,1.5,1.2.7.6,1.3,1.1,2.1,1.6.4.3,1,.4,1.5.7.5.3.9.6,1.3,1,.5.5.9,1.1,1.5,1.6.5.5,1.3.7,1.7,1.3.8,1.2,2,1.7,3,2.5,1,.8,2.1,1.6,3.2,2.2.7.3.9,1.1,1.5,1.5.3.2-.1,1.7-.5,2,0,0-.2.1-.2.1-.8,0-1.8.2-2.5-.3-1-.7-2-1.4-3-2.1Z" fill="#fff"/>
  <path d="M295.2,414.5c-.4.2-.8.3-1.2.6-.1,0-.4,0-.3.5,0,.3-.4-.2-.5-.1-.3.2-.8.3-1.1.6-.3.2-.6.6-.9.8-.3.2-.8.1-1,.6-.2.4-.7,0-.9.3-.2.3-.5.5-.9.4-.3,0-.6-.1-.8,0-.1.1,0,.5-.2.5-.1,0-.4-.1-.2.5,0,0,0,0-.2,0-.3-.3-.5-.2-.5.1,0,.3-.1.3-.2.4-.3.2-.6.4-.9.5-.2,0-.6,0-.8,0-.3,0-.4.5-.7.3-.4-.1-.6,0-.8.1-.1,0-.4-.1-.2.5,0,0,0,0,0,0-.8-.5-.5.6-1,.6-.5,0-.7.4-1.1.6,0,0-.3,0-.1.4,0,.2,0,.2-.1.2-.6-.4-.7.1-1,.2-.4,0-.5.5-1.1.3-.2,0-.5,0-.3.5,0,.3-.2.1-.3.3,0,.1,0,.4,0,.5,0,0-.3,0-.4-.1,0,0,0,0,0,0,0,.8-1,.4-1.3.8-.3.4-.8.7-1.3.9-.3.1-.6.1-1.5-.7-.4-.4-.7-.8-.8-1.2,0-.2-.1-.5,0-.6,0-.2.1-.4.2-.6.2-.4.2-1,.6-1,.1,0,0-.3.4,0,0,0,.1,0,.1,0,0-.9.7-.8,1-1.1.3-.3.3-1,.8-1-.2-.7.1-.7.4-.7,1.1.1,1.5-.7,2.3-1.1.8-.4,1.4-.9,2.2-1.3.1,0,0-.4.3-.3.3.1.3-.1.5-.2.1,0,.2-.3.4-.2.9.3,1.3-.4,1.9-.7.6-.3,1.2-.5,1.7-1,.3-.3.5-.8.9-.8.2,0,.2-.4.6,0,.1.1,0-.3.1-.4.2-.2.5-.3.7-.4.3-.2.7-.3,1-.5.2-.1.3-.5.5-.6.2-.2.4-.3.7-.3.3,0,.7,0,1,0,.3,0,.5-.5.9-.3.7.2,1.1-.2,1.7-.4.5-.2,1.1-.4,1.5-.7.3-.2.7.2,1,0,.1,0,.9,1.2,1,1.7,0,0,0,.2,0,.2,0,.5,0,1.3-.4,1.4-.5.1-.9.4-1.4.6Z" fill="#fff"/>
  <path d="M311.6,430.4c-.4.2-.8.3-1.2.5-.1,0-.4,0-.3.5,0,.3-.4-.2-.5-.2-.3.2-.7.3-1.1.5-.3.2-.6.6-.9.8-.3.2-.8,0-1,.5-.2.4-.6,0-.9.3-.2.2-.5.4-.9.4-.3,0-.6-.2-.7,0-.1.1-.1.5-.3.5-.1,0-.4-.1-.3.5,0,0,0,0-.2,0-.3-.3-.5-.2-.5,0,0,.3-.1.3-.2.4-.3.2-.6.3-.9.4-.2,0-.6,0-.8,0-.3,0-.4.4-.7.2-.3-.2-.5,0-.7,0-.1,0-.4-.2-.2.5,0,0,0,0,0,0-.7-.6-.6.5-1,.5-.4,0-.8.3-1.1.4,0,0-.3,0-.2.4,0,.2,0,.2-.2.1-.5-.5-.6,0-1,0-.4,0-.6.4-1.1.1-.2-.1-.4-.2-.4.5,0,.3-.2,0-.3.2,0,0,0,.4-.1.4,0,0-.3-.1-.4-.2,0,0,0,0,0,0-.2.8-1,.2-1.4.6-.4.4-.9.5-1.4.6-.3,0-.6,0-1.2-1-.3-.4-.5-.9-.5-1.3,0-.3,0-.5,0-.6.1-.2.2-.3.3-.5.2-.3.3-.9.7-.8.1,0,.1-.3.4.1,0,0,0,0,0,0,0-.9.7-.6,1.1-.8.3-.2.4-.9.9-.8,0-.7.2-.7.5-.6,1,.3,1.5-.4,2.2-.6.8-.2,1.4-.6,2.2-.9.1,0,0-.4.3-.2.2.2.3,0,.5-.1.1,0,.2-.3.4-.2.8.4,1.2-.2,1.8-.4.6-.2,1.2-.4,1.7-.7.3-.2.5-.7.9-.7.2,0,.2-.4.6,0,.1.1,0-.3.2-.4.2-.1.5-.2.7-.3.3-.1.7-.2,1-.4.2-.1.3-.4.5-.6.2-.1.4-.2.6-.3.3,0,.6,0,.9,0,.3,0,.5-.4.8-.3.7.3,1.1-.2,1.6-.3.5-.2,1-.3,1.4-.6.2-.2.7.2,1,0,.1,0,.9,1.2,1,1.7,0,0,0,.2,0,.2,0,.5,0,1.3-.3,1.4-.5.1-.9.4-1.3.6Z" fill="#fff"/>
  <path d="M285,485.1c-.9-.5-1.7-1-2.6-1.5-.3-.2-.5-.6-1.1-.3-.3.1-.3-.6-.6-.8-.8-.4-1.6-1-2.4-1.5-.8-.4-1.7-.7-2.5-1.2-.8-.4-1.4-1.2-2.3-1.4-.8-.2-1-1-1.7-1.3-.7-.3-1.4-.7-1.9-1.3-.3-.5-.6-1-1.1-1.2-.3-.1-.8,0-1-.3-.3-.2-.4-.7-1-.3,0,0-.1-.2-.1-.3,0-.5-.4-.8-.8-.8-.4,0-.6-.2-.8-.3-.6-.4-1.3-.9-1.8-1.4-.4-.4-.7-.9-1.1-1.3-.4-.4-1.1-.6-1.3-1.2-.2-.6-.7-.9-1.1-1.3-.2-.2-.3-.6-.9-.3,0,0-.1,0-.1-.1-.2-1.2-1.5-.9-2-1.7-.6-.8-1.4-1.2-2.1-1.9-.2-.2-.3-.5-.7-.3-.2,0-.4,0-.4-.3,0-.9-.9-1.1-1.3-1.7-.5-.6-1.3-1-1.6-1.9-.1-.4-.4-.8-1.1-.6-.3,0-.4-.4-.7-.6-.2-.1-.6,0-.7-.3-.2-.1-.1-.4-.2-.7,0,0,0-.1-.1-.1-1.3-.3-1.5-1.8-2.5-2.5-1-.7-1.8-1.6-2.5-2.6-.4-.5-.8-1.1-.2-2.2.2-.5.6-.9,1.1-.9.3,0,.6,0,.8.1.3.2.7.4,1,.6.7.4,1.5.6,1.9,1.3.1.2.5.2.3.7,0,0,0,.2,0,.2,1.3.2,1.7,1.3,2.5,2,.7.6,1.7.7,2.2,1.5.8-.1,1.1.4,1.4.8.8,1.7,2.4,2.5,3.7,3.8,1.3,1.3,2.7,2.3,4,3.5.2.2.7,0,.8.5,0,.4.6.5.9.8.3.2.7.4.8.7.7,1.4,2,2,3.1,2.9,1.1.9,2.1,1.8,3.4,2.5.7.4,1.6.6,2.2,1.2.3.3.8.2.7.9,0,.2.5,0,.7.1.5.3,1,.7,1.4,1,.7.5,1.3.9,2,1.3.4.2,1,.3,1.4.5.5.2.9.5,1.3.8.5.4.9.9,1.5,1.4.5.4,1.3.6,1.7,1.1.8,1.1,1.9,1.5,2.9,2.1,1,.7,2,1.3,3.1,1.8.6.3.9,1,1.5,1.3.3.1,0,1.7-.4,2,0,0-.2.1-.2.1-.8,0-1.7.4-2.3,0-1-.6-2-1.1-2.9-1.7Z" fill="#fff"/>
  <path d="M267.7,474.6c-.5.2-1.1.3-1.6.6-.2,0-.5,0-.5.5,0,.3-.4-.2-.6-.2-.5.2-1,.3-1.4.6-.4.2-.8.6-1.3.9-.4.3-1,.2-1.3.7-.3.4-.8.1-1.1.4-.3.3-.7.5-1.2.5-.3,0-.7,0-.9.1-.1.1-.2.5-.4.6-.2,0-.5,0-.4.5,0,0-.1,0-.2,0-.4-.3-.6-.1-.6.2,0,.3-.2.4-.3.4-.4.2-.7.4-1.1.6-.3.1-.7,0-1,.1-.3.1-.5.5-.9.4-.4-.1-.7,0-.9.2-.2,0-.5,0-.3.6,0,0,0,0,0,0-.8-.5-.7.7-1.3.8-.6,0-.9.5-1.4.7-.1,0-.3,0-.2.5,0,.2,0,.3-.2.2-.6-.4-.8.2-1.2.3-.5.1-.7.6-1.3.4-.3,0-.6,0-.5.6,0,.3-.3.2-.4.3,0,.1,0,.4-.2.5,0,0-.3,0-.5-.1,0,0,0,0,0,0-.2.9-1.3.5-1.7,1-.5.5-1.1.8-1.7,1.1-.3.1-.8.2-1.6-.7-.4-.4-.6-.9-.7-1.2,0-.3,0-.5,0-.6.1-.2.2-.4.4-.6.3-.4.4-1.1.9-1.1.2,0,.2-.3.5,0,0,0,.1,0,.1,0,.1-1,.9-.9,1.4-1.2.4-.3.5-1.1,1.1-1.1,0-.7.3-.8.6-.7,1.2,0,1.9-.8,2.8-1.3,1-.4,1.8-1,2.8-1.5.2,0,.1-.5.4-.3.3.1.4-.2.6-.3.2-.1.3-.3.6-.3,1,.2,1.6-.5,2.4-.9.8-.3,1.5-.6,2.2-1.1.4-.3.7-.8,1.2-.9.2,0,.3-.4.7,0,.1.1.1-.4.2-.4.3-.2.6-.3.9-.4.4-.2.9-.3,1.3-.6.3-.1.4-.5.7-.7.3-.2.6-.3.9-.4.4,0,.8,0,1.2-.1.4,0,.7-.5,1.2-.4.9.2,1.4-.3,2.1-.4.7-.2,1.4-.4,2-.7.4-.2.9.2,1.2,0,.2,0,.8,1.3.9,1.8,0,0,0,.2,0,.2-.2.6-.4,1.4-.8,1.4-.6.1-1.2.3-1.8.5Z" fill="#fff"/>
  <path d="M284.3,487.3c-.2.1-.5.2-.7.3,0,0-.3-.1-.2.4,0,.3-.3-.3-.4-.2-.2.2-.5.2-.7.3-.2.2-.3.5-.5.6-.2.2-.5,0-.6.4,0,.3-.4,0-.6.1-.1.2-.3.4-.6.2-.2,0-.4-.2-.5,0,0,.1,0,.4,0,.4,0,0-.3-.2-.1.4s0,0-.1-.1c-.3-.3-.4-.2-.3,0,0,.3,0,.3,0,.3-.2.1-.3.2-.6.3-.2,0-.4-.1-.6-.1-.2,0-.2.3-.5.1-.3-.2-.4-.1-.5,0,0,0-.3-.2,0,.4,0,0,0,0,0,0-.6-.6-.3.4-.6.4-.3,0-.5.2-.7.3,0,0-.2,0,0,.3,0,.2,0,.2,0,.1-.5-.5-.4,0-.7,0-.2,0-.3.4-.7,0-.2-.1-.3-.2-.2.4,0,.3-.1,0-.2.2,0,0,0,.3,0,.4,0,0-.2-.1-.3-.2,0,0,0,0,0,0,0,.7-.7.1-.9.4s-.5.4-.8.5c-.2,0-.4,0-1.1-1-.3-.4-.6-.9-.7-1.2,0-.2-.1-.5,0-.5,0-.1,0-.3.1-.4,0-.3,0-.8.3-.7.1,0,0-.3.3.2,0,0,0,0,0,0-.1-.8.4-.5.6-.7.2-.2.1-.8.5-.7-.2-.6,0-.6.2-.5.8.4,1-.3,1.5-.4.5-.2.9-.5,1.4-.7,0,0,0-.4.2-.2.2.2.2,0,.3,0,0,0,.1-.2.3-.1.6.4.8-.1,1.2-.2.4-.1.8-.2,1.1-.5.2-.2.2-.6.5-.6.1,0,0-.3.4.1,0,.1,0-.3,0-.4.1-.1.3-.2.4-.2.2,0,.4-.2.6-.3.1,0,.1-.4.2-.5.1-.1.2-.2.4-.2.2,0,.5.1.7,0,.2,0,.3-.4.6-.2.5.3.7,0,1.1-.1.3,0,.7-.2.9-.4.2-.1.5.3.7.2,0,0,.8,1.3.9,1.8,0,0,0,.2,0,.2,0,.5.1,1.2,0,1.3-.3,0-.6.2-.8.3Z" fill="#fff"/>
  <path d="M300.5,464.6c-.1,0-.3,0-.4.2,0,0-.2-.2,0,.3,0,.3-.2-.3-.2-.3-.1.1-.3,0-.4.2-.1.1-.2.4-.3.5-.1.1-.4-.1-.3.2,0,.3-.3-.1-.3,0,0,.2-.1.3-.3.1-.1-.1-.3-.3-.3-.1,0,0,0,.4,0,.4,0,0-.2-.2,0,.4,0,0,0,0-.1-.1-.2-.3-.3-.3-.2,0,0,.3,0,.3,0,.3,0,0-.2.2-.3.2,0,0-.3-.2-.4-.2-.1,0,0,.3-.3,0-.2-.2-.3-.2-.4-.1,0,0-.2-.2,0,.4,0,0,0,0,0,0-.6-.6,0,.4-.3.3-.2,0-.3.1-.4.2,0,0-.2-.1,0,.3,0,.1,0,.2,0,0-.4-.5-.3,0-.5-.1-.2,0,0,.3-.5,0-.2-.1-.3-.2,0,.3.1.2,0,0,0,.1,0,0,.1.3.1.3,0,0-.2-.1-.3-.2,0,0,0,0,0,0,.3.6-.4,0-.4.3,0,.3-.2.3-.4.4-.1,0-.3,0-1.1-.8-.4-.4-.8-.8-.9-1-.1-.2-.3-.4-.3-.5,0-.1,0-.3,0-.4,0-.2-.3-.7,0-.6,0,0,0-.2.3.1,0,0,0,0,0,0-.4-.7.1-.5.2-.6.1-.1-.2-.7.1-.6-.3-.6-.1-.5,0-.4.7.3.7-.2,1-.4.3-.1.6-.4.9-.5,0,0,0-.4.1-.2.2.2.2,0,.2,0,0,0,0-.2.2,0,.6.4.6,0,.9-.1.3,0,.5-.1.7-.4.1-.2,0-.5.3-.5,0,0,0-.3.3.2,0,.1,0-.3,0-.3,0,0,.2-.1.3-.2.1,0,.3,0,.4-.2,0,0,0-.3.1-.4,0,0,.2-.1.3-.1.1,0,.3.2.5.2.1,0,.2-.3.4,0,.4.4.5,0,.8,0,.2,0,.5,0,.7-.2.1-.1.4.4.5.3,0,0,.5,1.4.6,1.9,0,0,0,.2,0,.2,0,.5.1,1.2,0,1.2-.2,0-.3,0-.5.1Z" fill="#fff"/>
  <path d="M244.5,388.6c-1.2-1.6-2.2-3.2-3.3-4.8-.4-.6-.6-1.4-1.4-1.8-.4-.2-.2-1.1-.6-1.7-.9-1.6-1.6-3.3-2.3-5-.4-.8-.7-1.7-1.1-2.5-.3-.9-.7-1.7-.9-2.6-.5-1.8-.4-3.7-.8-5.4-.4-1.5.2-2.9,0-4.3,0-1.5,0-3.1.5-4.6.3-1,.7-2,.9-3.1,0-.7-.1-1.3,0-2,.2-.7.6-1.3.2-2,0,0,.1-.3.3-.4.6-.6.8-1.4.7-2.1,0-.6.1-1.1.3-1.6.4-1.4.9-2.8,1.5-4.2.4-1,1-2,1.5-3,.5-1,.7-2.3,1.4-3.2.7-.9,1.1-1.8,1.5-2.8.3-.5.8-1,.4-1.8,0,0,0-.3.2-.3,1.4-1.2,1.3-3.1,2.2-4.6,1-1.5,1.7-3.2,2.6-4.7.2-.4.6-.8.5-1.4,0-.2.2-.7.4-.8,1.2-.8,1.6-2.2,2.4-3.3.9-1.2,1.5-2.7,2.8-3.8.5-.4,1.1-1.1,1.1-2.1,0-.5.7-.9.9-1.4.2-.4.3-.9.5-1.3.2-.3.7-.5,1-.8,0,0,.2-.2.2-.3.8-2.2,2.9-3.5,4.2-5.4.7-.9,1.4-1.9,2.1-2.7.8-.9,1.6-1.7,2.4-2.6.9-.9,1.9-1.7,3.4-1.6.6,0,1,.5.9,1.1,0,.5-.2.9-.5,1.3-.4.6-.8,1.2-1.2,1.8-.8,1.2-1.4,2.6-2.5,3.6-.4.3-.5.9-1.1.9,0,0-.2.1-.3.2-.3,1-.9,1.8-1.5,2.6-.6.8-1.4,1.5-1.9,2.3-1,1.4-1.5,3.1-2.7,4.4,0,1.1-.7,2-1.4,2.7-2.4,2.4-3.8,5.6-5.6,8.5-1.8,2.9-3.3,6-4.8,9.1-.3.5-.1,1.1-.7,1.6-.5.5-.7,1.3-1,2-.3.6-.4,1.3-.8,1.9-.8,1.1-1.4,2.3-1.9,3.6-.5,1.3-.9,2.6-1.4,3.8-1,2.5-1.8,5.1-2.3,7.7-.3,1.6-.3,3.2-.7,4.8-.2.7,0,1.4-.6,2-.2.2.2.9.2,1.3v1.6c-.1.5-.1,1.1-.1,1.6,0,1.5,0,3,.3,4.4.1.9.6,1.7.8,2.6.3.9.5,1.8.8,2.7.1.6.3,1.2.4,1.7.1.6.3,1.2.6,1.7.2.6.5,1.1.9,1.7.3.6.6,1.1.8,1.7.7,2.2,2.2,4,3.4,5.9,1.3,1.9,2.7,3.8,4.2,5.5.9,1,1.3,2.2,2.1,3.2.4.5-.2,2-.8,2.2-.1,0-.2,0-.3,0-1.2-.7-2.5-1.1-3.4-2.3-1.3-1.7-2.7-3.4-4-5.2Z"/>
  <g>
    <path d="M260.5,263.1c-17.8-1.5-39.5-2.2-57.3-2.6-1.2,0-2.6,0-3.5.9-.6.6-.8,1.5-.9,2.3-.5,3-.4,6.1.4,9,.2.8.5,1.5,1.1,2,.7.6,1.8.7,2.8.7,19.4.3,38.8.4,58.2.3.4,0,.9,0,1.2-.3.3-.3.3-.8.3-1.3-.1-1.9-.7-3.8-1.6-5.6"/>
    <path d="M256.4,277.7c-2.3,0-4.7,0-7,0-.9,0-1.8-.2-2.7.3-.5.3-1.3-.4-2.1-.4-2.2,0-4.4,0-6.6,0-2.1,0-4.3.3-6.4.3-2.1,0-4.3-.3-6.3,0-1.8.3-3.3-.2-5-.1-1.8.1-3.6.2-5.4,0-1.3-.2-2.5-.4-3.8-.3-.8,0-1.5.4-2.4.4-.8,0-1.7-.3-2.4.3,0,0-.4,0-.6-.1-.9-.4-1.9-.4-2.6-.1-.4.1-.8.2-1.2.2-.5,0-.9,0-1.6-.3-.9-.2-1.6-.7-2.2-1.4-.6-.6-1.1-1.6-1.2-2.1-.2-.6-.3-1.1-.4-1.6-.1-.5-.2-1-.3-1.5-.2-1.5,0-3,0-4.5,0-.8,0-1.6.1-2.4,0-.8.2-1.5.6-2.4.1-.2.2-.4.4-.7.1-.2.3-.5.5-.7.4-.4.8-.8,1.2-1.1.4-.3,1-.5,1.4-.6.5-.1.9-.2,1.3-.2.9,0,1.8.3,2.4-.4,0,0,.3,0,.5,0,2,.9,4.1-.2,6.2,0,2.2.3,4.4.2,6.6.2.6,0,1.2.2,1.8-.2.2-.2.8-.2,1.1,0,1.6.7,3.3.4,5,.5,1.9.2,3.8,0,5.7.5.8.2,1.9.4,2.9-.1.5-.3,1.4,0,2.1,0,.6,0,1.1-.3,1.7-.3.5,0,1,.3,1.4.4.1,0,.3,0,.5,0,2.8-.5,5.5.5,8.3.5,2.8,0,5.6.2,8.5.5,1.5.2,3.1.5,4.1,1.7.4.6.4,1.1-.3,1.4-.5.2-1.1.4-1.6.4-.9,0-1.8,0-2.6.1-1.8,0-3.6.5-5.4,0-.6-.1-1.3.1-1.7-.4,0,0-.3-.1-.4,0-2.5.6-5,0-7.5,0-2.1,0-4.2.5-6.4.1-1.2.6-2.6.4-3.8.2-4.2-.8-8.5-.5-12.7-.8-4.3-.2-8.6-.2-12.9-.4-.7,0-1.4.3-2.2,0-.3-.1-.7-.1-1,0-.1,0-.3,0-.3.1,0,0,0,0-.1,0,0,0,0,.1-.1.2,0,0-.1.4-.3.6-1.2,2.8-.7,6.2.1,9,0,.1,0,.3.1.3,0,0,0,.1,0,.2,0,.1.2.2.3.3,0,0,.1,0,.2,0,.1,0,.3,0,.4,0,.3,0,.7,0,1.1,0,1.7,0,3.4,0,5,0,2,0,4.1-.4,6.1-.3.9,0,1.8-.3,2.7.3.2.2,1.1-.3,1.6-.3,1.4,0,2.8,0,4.2,0,2,0,3.9,0,5.9,0,1.2,0,2.4-.3,3.6-.3,1.2,0,2.5,0,3.7,0,1.6,0,3.1.3,4.7.4,1.6,0,3.3-.2,4.9,0,2.9.5,5.8.3,8.7.4h3.8c0,0,1.5,0,1.5,0,.2,0,.4,0,.6-.1,0,0,0-.2,0-.3,0-.1,0-.2,0-.4v-.2s0,0,0-.1v-.3c0-.7-.1-1.4-.4-2.1-.2-.6.7-2.1,1.2-2.1.1,0,.3,0,.4.2.6.6,1.1,1.3,1.6,2.1.2.4.4.8.6,1.2,0,.1,0,.2.1.3,0,.2,0,.3.1.5,0,.4.1.7.1,1.1,0,1.2,0,2.2-.9,3-.6.5-1.2.7-2,.8-.4,0-.8,0-1.2,0h-1s-2.9,0-2.9,0Z"/>
  </g>
  <path d="M202.9,357.1c0-1.5-.1-2.9-.3-4.4,0-.5.4-1.1-.7-1.6-.6-.3.7-.8.6-1.3-.2-1.3,0-2.7-.3-4.1-.2-1.3-.7-2.6-.9-3.9-.2-1.3.4-2.7-.3-3.9-.6-1.1.4-2.1.1-3.1-.3-1.1-.5-2.2,0-3.3.3-.8.7-1.6.5-2.4-.1-.5-.8-.9-.8-1.5,0-.5.6-1.1-.7-1.5-.1,0,.1-.3.3-.4.8-.6.7-1.2.2-1.6-.6-.4-.5-.8-.5-1.2,0-1.1-.2-2.2,0-3.4,0-.8.6-1.7.7-2.5.1-.9-.5-1.8.1-2.6.6-.8.6-1.6.6-2.4,0-.4.6-1-.7-1.3-.1,0-.1-.2,0-.3,1.7-1.3-.5-2.5,0-3.8.4-1.3.1-2.7.1-4.1,0-.4.4-.7-.5-1.1-.3-.1-.4-.5-.1-.7,1.3-1,.5-2.1.8-3.1.3-1.2-.3-2.4.7-3.5.4-.5.7-1.2-.5-1.8-.5-.3,0-.9,0-1.3,0-.4-.6-.7-.6-1.1,0-.3.5-.6.7-.9,0,0,0-.2,0-.3-1.3-1.8.6-3.4.3-5.1-.3-1.7,0-3.5.2-5.2.1-1,.6-1.9,2.9-2.5,1-.2,2.2-.2,2.8.3.5.3.9.7,1,1,.2.6.4,1.1.6,1.6.3,1.1,1.3,2.3.7,3.4-.2.3.4.8-.6,1-.1,0-.2.2-.2.2,1.5,1.6.4,3.1.5,4.7,0,1.3,1.3,2.6.7,3.9,1.2.8,1,1.6.6,2.3-1.4,2.6-.6,5.2-.8,7.8-.2,2.6,0,5.3-.2,7.9,0,.4.7.8.1,1.4-.5.5-.1,1.1-.1,1.7,0,.5.3,1.1,0,1.6-1.3,2.1-.5,4.1-.6,6.2-.1,2.1-.2,4.1.2,6.2.2,1.3,1,2.5.7,3.8-.1.5.6,1.1-.6,1.7-.3.2.6.6.6,1,.1.9,0,1.7.1,2.6,0,1.2,0,2.4.2,3.6.1.7.6,1.4.8,2.2.2.8.2,1.5.1,2.3-.1,1-.5,2-.6,2.9,0,1,.5,2,0,3-.9,1.8-.3,3.6-.3,5.4,0,1.8,0,3.6.4,5.3.2,1-.7,2-.6,3,0,.5-2.9,1.3-3.9,1.2-.2,0-.4,0-.5-.2-1-.9-2.5-1.7-2.5-2.8,0-1.7-.2-3.3-.3-4.9Z"/>
  <path d="M230.9,395.4c-.6-.5-1.1-1-1.7-1.4-.2-.2,0-.7-1-.1-.5.3.2-.8,0-1-.6-.4-1-1-1.6-1.3-.6-.4-1.4-.5-1.9-.9-.6-.4-.6-1.3-1.5-1.3-.8,0-.4-1.1-1-1.3-.6-.2-1.1-.5-1.1-1.3,0-.5,0-1.1-.4-1.3-.3,0-.9.2-1,0-.1-.2,0-.8-1-.1,0,0,0-.2,0-.3.4-.7.2-1-.4-.8-.6.2-.6,0-.8-.1-.4-.4-.8-.8-1.1-1.3-.2-.4-.1-1-.3-1.4-.2-.4-.9-.4-.7-1.1.2-.7,0-1-.3-1.3-.1-.2.1-.7-1,0-.1,0-.1,0,0-.1.9-1.5-1.2-.6-1.3-1.4,0-.8-.7-1.1-1.2-1.5-.1-.1,0-.5-.7,0-.3.2-.4,0-.3-.2.6-1.2-.3-1-.4-1.5-.2-.5-1-.5-.6-1.6.1-.4,0-.8-.9-.2-.5.3-.3-.2-.5-.3-.2,0-.6.3-.8.2,0,0,.1-.5.2-.8,0,0,0-.1,0,0-1.4.6-.8-1.2-1.6-1.3-.8,0-1.2-.5-1.7-1-.3-.3-.4-.7.2-3,.3-1,.7-2,1.1-2.6.3-.4.7-.7.9-.7.4,0,.8-.2,1.1-.2.7,0,1.8-.7,2.1.2,0,.3.6-.1.2.8,0,.1,0,.2,0,.2.8-.4,1.2-.3,1.6,0,.3.3.5.8.9,1,.6.4,2,0,2.2.8,1.2-.6,1.4-.1,1.4.4,0,2,1.7,2.4,2.4,3.5.8,1.2,1.8,2.1,2.5,3.2.1.2.8-.1.5.4-.3.5.3.5.4.7.2.2.5.2.4.6-.4,1.6.9,1.9,1.4,2.7.5.8,1.1,1.7,2,2.2.5.3,1.5.3,1.7.9,0,.3.8,0,0,1-.2.3.6-.2.8,0,.4.2.6.6.9.9.4.4.7.9,1.2,1.2.3.2.9,0,1.2.2.3.2.6.4.8.8.2.4.3,1.1.5,1.5.3.4,1,.4,1,1.1,0,1.3.9,1.5,1.5,2.2.6.6,1.2,1.3,2,1.6.5.2.2,1.3.5,1.5.2.1-1.4,2.6-2.1,3.4-.1.1-.3.3-.4.3-1,.4-2.2,1.3-2.6.8-.5-.6-1.3-1.1-1.9-1.6Z"/>
  <path d="M227.9,254.6c-.3-1.2-.5-2.5-.8-3.7-.1-.5,0-1-.6-1.3-.3-.2.2-.8,0-1.2-.3-1.1-.5-2.3-.8-3.4-.3-1.1-.7-2.2-1-3.3-.3-1.1-.2-2.3-.7-3.3-.5-.9-.1-1.8-.4-2.7-.3-.9-.6-1.9-.5-2.8,0-.7.1-1.4,0-2.1-.1-.4-.5-.7-.6-1.2,0-.4.1-1-.6-1.2,0,0,0-.2,0-.3.3-.5.2-1.1-.1-1.4-.3-.3-.3-.7-.4-1-.2-1-.4-1.9-.4-2.9,0-.7,0-1.5,0-2.2,0-.8-.4-1.6-.2-2.3.2-.7.2-1.4.1-2.1,0-.4.2-.9-.4-1.2,0,0,0-.2,0-.3.8-1.2-.3-2.3,0-3.5.2-1.2.2-2.4.3-3.7,0-.3.3-.7-.2-1-.1-.1-.1-.5,0-.6.8-.8.5-1.8.9-2.7.4-1,.4-2.2,1.2-3.1.3-.4.7-.9.4-1.7-.1-.4.3-.7.5-1.1.1-.3,0-.7.2-1.1.1-.3.5-.4.7-.6,0,0,.1-.1.2-.2.2-.9.8-1.6,1.4-2.1.7-.6,1.4-1,2.1-1.6,1.3-1.3,3-2,4.5-2.5.9-.3,1.8-.4,2.7.5.4.4.6.9.3,1.4-.2.3-.4.6-.6.8-.4.2-.8.5-1.2.8-.8.5-1.3,1.3-2.2,1.5-.3,0-.4.5-.8.2,0,0-.2,0-.2,0-.4,1.3-1.6,1.7-2.2,2.7-.6.9-.5,2-1.1,2.8.3.8,0,1.3-.4,1.8-1.3,1.7-1.3,4-1.6,6-.3,2.1-.3,4.4-.3,6.6,0,.4.4.7.1,1.1-.2.4,0,1,0,1.4,0,.4.2.9,0,1.3-.5,1.8.1,3.5.3,5.3.2,1.8.4,3.5.9,5.3.3,1.1.8,2.1.9,3.2,0,.5.5.9,0,1.5-.1.2.4.5.5.8.2.7.3,1.5.4,2.2.2,1,.4,2.1.6,3.1.2.6.5,1.2.7,1.8.2.6.3,1.3.4,2,0,.8,0,1.7.2,2.5.1.9.6,1.7.5,2.6-.2,1.6.4,3.1.7,4.6.3,1.5.6,3,1.1,4.5.3.8,0,1.7.2,2.6,0,.4-1.2,1.3-1.7,1.2-.1,0-.2,0-.3-.1-.6-.7-1.5-1.3-1.7-2.2-.3-1.4-.6-2.8-.9-4.2Z"/>
  <path d="M233.4,321.9c0-.8,0-1.5,0-2.3,0-.3.3-.6-.3-.9-.3-.2.4-.4.4-.7,0-.7,0-1.4,0-2.1,0-.7-.2-1.4-.3-2.1,0-.7.3-1.4,0-2.1-.3-.6.2-1.1.1-1.6-.1-.6-.2-1.2,0-1.8.2-.4.4-.8.3-1.2,0-.3-.4-.5-.3-.8,0-.3.3-.6-.3-.8,0,0,0-.1.2-.2.4-.3.4-.6.1-.9-.3-.2-.2-.4-.2-.7,0-.6,0-1.2,0-1.8,0-.4.3-.9.4-1.3,0-.5-.2-1,.1-1.4.3-.4.3-.8.3-1.2,0-.2.3-.5-.3-.7,0,0,0-.1,0-.1.8-.7-.2-1.3,0-2,.2-.7,0-1.4,0-2.1,0-.2.2-.4-.3-.6-.2,0-.2-.3,0-.4.6-.5.3-1.1.4-1.6.1-.6-.1-1.2.4-1.9.2-.3.3-.6-.2-.9-.3-.1,0-.4,0-.7,0-.2-.3-.4-.3-.6,0-.2.2-.3.4-.5,0,0,0-.1,0-.2-.6-.9.3-1.8.1-2.7-.2-.9,0-1.8,0-2.8,0-.5.3-1,1.4-1.4.5-.2,1.1-.1,1.4,0,.2.2.5.3.5.5.1.3.2.6.3.9.2.6.7,1.2.4,1.8,0,.2.2.4-.3.6,0,0-.1,0,0,.1.8.8.2,1.7.3,2.5,0,.7.6,1.4.4,2.1.6.4.5.9.3,1.2-.7,1.4-.3,2.8-.4,4.2-.1,1.4,0,2.8-.1,4.2,0,.2.3.5,0,.7-.3.3,0,.6,0,.9,0,.3.1.6,0,.8-.7,1.1-.3,2.2-.4,3.3,0,1.1-.2,2.2,0,3.3,0,.7.4,1.3.3,2,0,.3.3.6-.3.9-.2,0,.3.4.3.5,0,.5,0,.9,0,1.4,0,.6,0,1.3,0,1.9,0,.4.3.8.3,1.2,0,.4,0,.8,0,1.2,0,.5-.3,1-.4,1.5,0,.5.2,1.1-.1,1.6-.5.9-.3,1.9-.4,2.9,0,.9-.1,1.9,0,2.8,0,.5-.5,1-.5,1.5,0,.2-1.5.5-2,.4,0,0-.2,0-.2-.1-.5-.5-1.2-1-1.1-1.6,0-.9,0-1.7,0-2.6Z"/>
  <path d="M217.7,351.5c.2-.5.5-1,.6-1.6,0-.2.4-.3,0-.7-.2-.2.5-.1.5-.3.2-.5.5-.9.6-1.4.2-.5.2-1,.4-1.5.2-.5.7-.8.6-1.4,0-.5.6-.6.7-1,0-.4.2-.8.7-1.1.3-.2.6-.3.7-.6,0-.2-.2-.5,0-.7.1-.2.5-.2,0-.7,0,0,.1,0,.2,0,.5,0,.6-.2.4-.5-.1-.3,0-.4,0-.5.2-.4.4-.8.7-1.1.2-.2.6-.4.8-.6.2-.2.2-.7.6-.8.4,0,.6-.3.7-.6,0-.1.4-.1,0-.6,0,0,0,0,0,0,1,0,.3-.9.7-1.2.5-.3.6-.8.9-1.3,0-.1.3-.1,0-.5-.1-.1,0-.3,0-.2.7,0,.6-.5.9-.8.4-.3.4-.8,1-.9.3,0,.5-.2.2-.7-.2-.2.2-.3.2-.4,0-.1-.1-.4,0-.5,0,0,.3,0,.5,0,0,0,0,0,0,0-.2-.9.9-.9,1.2-1.5.2-.6.7-1.1,1.2-1.6.3-.3.6-.4,1.7,0,.5.2.9.6,1.1.9.1.2.2.5.2.6,0,.2,0,.5,0,.7,0,.4,0,1.1-.4,1.3-.1,0,0,.4-.5.1,0,0-.1,0-.1,0,.3.9-.5,1.1-.7,1.6-.2.4,0,1.2-.5,1.4.4.6,0,.8-.2.9-1.1.4-1.3,1.5-1.9,2.2-.6.8-1.1,1.6-1.7,2.4,0,.1.1.5-.2.5-.3,0-.3.3-.4.5-.1.2-.1.4-.3.5-1,.3-1,1.2-1.5,1.8-.5.6-.9,1.2-1.2,2-.1.5,0,1-.4,1.4-.1.1,0,.5-.6.4-.2,0,.1.4,0,.5-.1.3-.3.6-.5.8-.2.4-.5.8-.6,1.2,0,.3,0,.6,0,.9,0,.3-.2.5-.4.7-.2.3-.6.5-.8.8-.2.3-.1.8-.5,1-.7.4-.7,1.1-1,1.6-.1.3-.3.6-.4.9,0,.3-.2.7-.2.7,0,0,0,0,0,0,0,0,0,0,0,0h-.3c-.4,0-.8.2-.9.3,0,0,0,0,0,0,0,0,0,0,0,0v.2c0,.1,0,.2-.1.3,0,.2,0,.4-.1.5,0,0-.1.2-.2.2-.5,0-1.2-.2-1.5-.6-.4-.4-.6-.8-.5-1.2,0-.3,0-.5.2-.8v-.2c0,0,.1-.1.1-.1v-.2c0,0,.4-.9.4-.9Z"/>
  <path d="M229.4,358.5c-.2,0-.4-.1-.5-.1,0,0,0-.3-.3.2-.1.3,0-.4,0-.4-.2,0-.3-.1-.5,0-.2,0-.4.2-.6.2-.2,0-.3-.3-.5,0-.2.2-.2-.3-.4-.2-.2,0-.3.1-.4-.1,0-.2-.1-.4-.2-.3,0,0-.2.4-.3.3,0,0,0-.3-.3.3,0,0,0,0,0-.2,0-.4,0-.4-.2-.1-.1.3-.2.2-.2.2-.1,0-.3,0-.4,0,0,0-.1-.3-.2-.4,0,0-.3.2-.3-.1,0-.3-.1-.3-.2-.3,0,0,0-.3-.2.3,0,0,0,0,0,0,0-.8-.4.2-.5,0-.1-.2-.3-.1-.5-.1,0,0,0-.2-.2.2,0,.2,0,.2,0,0,0-.6-.2-.3-.3-.4-.1-.1-.3.1-.4-.4,0-.2,0-.3-.3.2,0,.3-.1,0-.2,0,0,0-.1.3-.2.3s0-.2,0-.4c0,0,0,0,0,0-.3.6-.4-.3-.6-.2-.3.1-.5,0-.7-.1-.1,0-.2-.3,0-1.4,0-.5.1-1.1.3-1.4,0-.2.2-.4.2-.5,0,0,.2-.2.3-.3.2-.2.4-.7.5-.4,0,0,.1-.2,0,.3,0,0,0,.1,0,0,.3-.7.5-.2.7-.2.2,0,.5-.6.6-.3.2-.6.3-.5.4-.3.2.7.6.3,1,.5.3.2.7.1,1,.3,0,0,.2-.3.2,0,0,.3.1,0,.2.1,0,0,.2-.1.2,0,.1.7.5.4.7.5.3.1.5.2.8.2.2,0,.4-.4.6-.2,0,0,.2-.2.1.4,0,.2.1-.3.2-.3.1,0,.2,0,.3,0,.2,0,.3.1.5,0,.1,0,.3-.2.4-.3.1,0,.2,0,.3,0,.1.1.2.3.3.4.1,0,.3-.1.4.2.1.6.4.4.6.5.2.1.4.2.7.2.1,0,.1.5.3.5,0,0-.2,1.5-.4,1.9,0,0,0,.2,0,.2-.2.4-.5,1.1-.7,1-.2-.1-.4-.1-.6-.2Z"/>
  <path d="M236.4,353.6c0,0-.1,0-.2,0,0,0,0-.2,0,.3,0,.3,0-.4-.1-.3,0,0-.1,0-.2,0,0,0,0,.3,0,.4,0,0-.2-.2-.1.2,0,.3-.2-.1-.2,0,0,.1,0,.2-.2,0-.1-.1-.3-.3-.3-.1,0,0,.2.3.2.3,0,0-.3-.2.2.3,0,0,0,0-.1,0-.3-.3-.3-.2-.1,0,.2.2.1.2.1.2,0,0,0,.1-.2.2,0,0-.3,0-.4,0,0,0,0,.2-.2.1-.3-.1-.3,0-.4,0,0,0-.3,0,.2.3,0,0,0,0,0,0-.8-.3,0,.3-.1.3-.2,0-.2.2-.2.3,0,0-.2,0,.2.2.1,0,.1.1,0,0-.6-.2-.3,0-.5.1-.2,0,0,.3-.5.2-.2,0-.3,0,.2.3.2.1,0,0,0,.1,0,0,.3.2.3.2s-.2,0-.3,0c0,0,0,0,0,0,.6.3-.2,0,0,.1.2,0,0,0,0,.1,0,0-.2,0-1.3.2-.5,0-1,.2-1.4.2-.3,0-.5,0-.6,0-.1,0-.3-.1-.4-.2-.2-.2-.8-.4-.5-.6,0,0-.2-.2.3-.2,0,0,.1,0,0,0-.7-.4-.1-.7-.1-.9,0-.2-.5-.7-.1-.7-.5-.4-.4-.5-.1-.5.7,0,.5-.4.7-.7.2-.2.3-.6.6-.9,0,0-.2-.3,0-.2.3,0,.1,0,.2-.2,0,0,0-.2.1-.2.7.2.6-.3.8-.5.2-.2.5-.3.6-.7,0-.2,0-.6.3-.6.1,0,0-.3.4,0,.1.1,0-.3,0-.3,0-.1.2-.2.4-.2.2-.1.4-.2.5-.3,0,0,.1-.4.2-.5.1-.1.2-.2.4-.1.2,0,.4.2.6.2.2,0,.3-.3.6,0,.4.5.7.2,1,.3.3,0,.6.2,1,.1.2,0,.2.5.4.6,0,0-.5,1.4-.7,1.8,0,0,0,.2-.1.2-.3.4-.6,1.1-.6,1,0,0,0,0-.2,0Z"/>
  <path d="M234.7,369.6c-.3,0-.7,0-1,0-.1,0-.2-.2-.4.3,0,.3-.2-.4-.3-.3-.3,0-.6,0-.9,0-.3,0-.6.3-.9.3-.3,0-.6-.2-.9,0-.3.3-.4-.2-.7-.1-.4.1-1,.2-1.4,0-.3-.2-.4-.5-.8-.5-.2,0-.5.2-.7.1-.2-.1-.2-.4-.7,0,0,0,0-.1,0-.2.1-.5,0-.6-.4-.6-.3,0-.4-.1-.5-.2-.3-.4-.5-.8-.5-1.3,0-.2,0-.4,0-.6,0-.2,0-.3,0-.5,0-.2-.3-.3,0-.6.3-.3.2-.4.2-.6,0,0,.2-.3-.4-.2,0,0,0,0,0,0,.7-.5-.4-.5-.3-.8.1-.3,0-.6-.2-.9,0,0,.1-.2-.3-.2-.2,0-.2,0,0-.1.6-.4.1-.5.2-.8,0-.3-.3-.5.1-.8.2-.2.2-.3-.4-.3-.3,0,0-.2-.1-.3,0,0-.4,0-.4-.2,0,0,.2-.2.3-.3,0,0,0,0,0,0-.7-.2,0-.8-.2-1.1-.3-.3-.3-.7-.3-1.1,0-.2.1-.5,1.2-.9.5-.2,1-.3,1.4-.3.3,0,.5,0,.6,0,.1,0,.3.2.4.3.2.2.8.3.6.6,0,0,.2.1-.2.3,0,0,0,0,0,0,.9.2.4.6.6.9.1.3.8.4.6.8.7,0,.6.2.4.4-.5.7,0,1.2.1,1.8,0,.6.3,1.2.4,1.7,0,0,.4,0,.1.3-.2.2,0,.3,0,.4,0,.1.2.2,0,.4-.1.2-.2.3-.2.4,0,.1,0,.3,0,.3,0,.1.1.1.1.2,0,.2,0,.4.3.3.2,0,.4-.4.3-.3,0,0,0-.3,0,.3,0,.2,0-.3,0-.3,0,0,0,0,.1,0h.3c.3,0,.5,0,.8,0,.2,0,.3-.3.5-.3.2,0,.3,0,.5,0,.2,0,.4.3.7.3.2,0,.5-.2.7,0,.4.5.8.3,1.2.3.4,0,.8.1,1.2,0,.2,0,.4.4.7.4.1,0,.2,1.5.2,2,0,0,0,.2,0,.2-.2.5-.4,1.2-.7,1.1-.4,0-.7,0-1.1,0Z"/>
  <path d="M256.5,300.8c0-.4.2-.8.2-1.3,0-.2.5-.2-.5-.6-.5-.2.8-.1.7-.3,0-.4.2-.8.1-1.2,0-.4-.4-.9-.5-1.3,0-.4.6-.7,0-1.2-.5-.4.5-.5.3-.9-.2-.4-.3-.7.2-1,.4-.2.8-.4.7-.6-.1-.2-.7-.4-.7-.5,0-.1.6-.2-.6-.5-.1,0,.1,0,.3,0,.8,0,.8-.2.3-.5-.5-.2-.4-.3-.4-.4,0-.3,0-.7.1-1,.1-.2.6-.4.8-.6.2-.2-.4-.6.3-.7.6-.2.6-.4.7-.6,0-.1.6-.2-.6-.5-.1,0,0,0,0,0,1.7-.2-.4-.8,0-1.2.5-.3.2-.8.2-1.2,0-.1.4-.2-.5-.4-.3,0-.3-.2-.1-.2,1.3-.2.6-.6.8-.8.3-.3-.3-.7.7-1,.4-.1.7-.3-.5-.6-.5-.1,0-.3,0-.4,0-.1-.6-.3-.6-.4,0,0,.5-.1.7-.2,0,0,0,0,0,0-1.3-.6.5-1,.2-1.5-.3-.6-.1-1.1.1-1.6.1-.3.5-.5,2.8-.5,1,0,2.1,0,2.8.3.5.1.9.3,1,.4.2.2.4.4.6.6.4.4,1.4.8.8,1.1-.2,0,.4.3-.6.3-.1,0-.2,0-.2,0,1.5.6.4,1,.5,1.5,0,.4,1.3.9.7,1.3,1.2.4,1,.6.6.8-1.4.7-.6,1.6-.9,2.4-.3.8-.2,1.6-.4,2.4,0,.1.7.3,0,.4-.5,0-.2.3-.2.5,0,.2.2.4-.1.5-1.4.5-.7,1.2-.9,1.8-.2.6-.4,1.2-.2,1.9.1.4.8.9.5,1.3-.1.1.5.4-.7.4-.3,0,.5.3.6.4,0,.3,0,.5,0,.8,0,.4-.2.7-.1,1.1,0,.2.5.5.6.8,0,.3,0,.5-.1.7-.2.3-.7.5-.8.8-.2.3.3.7-.3.9-1.1.4-.7,1-.9,1.5-.2.5-.4,1.1-.2,1.6,0,.3-1,.4-1,.7,0,.1-3-.2-3.9-.5-.2,0-.4-.1-.4-.1-.9-.5-2.2-1-2.1-1.3.2-.5.2-1,.3-1.5Z"/>
  <path d="M368.7,438.8c.5-.9,1.1-1.7,1.9-2.4.8-.7,1.7-1.2,2.6-1.6,1.9-.7,4-.9,6,0,.8.3,1.4.8,2,1.4.6.6,1.1,1.2,1.7,1.8.3.3.5.9.5,1.5,0,.6,0,1.3.1,2,.4,3.5-.6,6.7-2,9.6-1.4,2.8-3.2,5.4-5.6,7.5-2.4,2.1-5.3,3.4-7.9,4.8-2.3,1.2-4.6,1.4-6.9,2-2.4.7-5,1.1-7.5,1.1-1.8,0-3.6-.2-5.4-.1-1.1,0-2.2.3-3.4.1-1.1-.1-2.4-.6-3.5-.2,0,0-.6-.2-.8-.3-1.1-.6-2.6-1-3.7-1.1-1.1,0-1.9-.4-2.8-.8-2.4-1-4.8-2.4-6.8-4.2-1.5-1.3-2.7-3-3.9-4.7-1.1-1.8-2.4-3.8-2.6-5.9-.2-2-.3-4,0-6,.2-1.1.8-2.2.6-3.3,0-.1.1-.5.3-.7,1.1-1.3,1.9-2.6,3-3.9,1.1-1.2,2.5-2.4,4.2-2.9,3.6-1,7.4-.4,10.4,1.4.8.5,1.5,1.2,2.4,1.5.3,0,1.1.8,1.3,1.2.6,1.2,1.3,2.3,1.8,3.5.6,1.2,1.1,2.4,1.3,3.6.5,2.8.8,5.8-.1,8.5-.4,1.1-.9,2.6-.8,4.2,0,.7-.7,1.9-1.2,2.8-.3.8-.5,1.6-1,2.3-.4.6-1,1.1-1.5,1.6-.2.1-.3.4-.4.5-1,1.8-2.6,3.3-4.3,4.4-1.7,1.2-3.6,2-5.5,2.9-3.8,1.8-8.1,2.4-12.2,1.8-2.3-.3-4.6-1.1-5.6-2.7-.4-.7-.2-1.2.7-1.2.7,0,1.4,0,2.1,0,1.1.2,2.3.2,3.4.2,2.3,0,4.4-.7,6.7-.9.7,0,1.4-.6,2.2-.3.1,0,.4,0,.5-.1,1.3-.9,2.7-1.7,4-2.5,1.3-.8,2.6-1.8,3.6-2.9,1.8-2,2.7-4.5,3.9-6.8,0-1.6.5-3.1.9-4.5.7-2.4.7-5.1,0-7.4-.4-1.2-.9-2.3-1.6-3.2-.7-.9-1.5-1.8-2.5-2.5-1.9-1.4-4.4-2-6.5-1.5-2.1.5-4,2.1-5.1,4.2-.4.7-.3,1.5-.8,2.3-.5.8-.4,2-.4,3.1,0,.9.3,1.9.5,2.8.3,1.9,1.3,3.8,2.7,5.4,1.4,1.6,3.1,2.8,4.9,4,3.6,2.2,7.8,3.6,12.1,3.9,2.6.2,5.2-.1,7.9-.1,1.1,0,2.3-.5,3.5,0,.3.1,1.3-.5,2-.6,1.8-.4,3.5-.7,5.3-1.3,2.4-.7,4.7-1.7,6.7-3,1.2-.8,2.2-1.9,3.2-2.9,1-1.1,2-2.2,2.9-3.4,1.1-1.5,2.1-3.1,2.6-4.9.3-.9.3-1.9.4-2.8,0-.9-.1-1.8-.2-2.5,0-.7-.4-1.3-.8-1.8-.4-.4-1-.7-1.6-.8-1.3-.2-2.9.3-3.9,1.2-1,.9-1.8,2.4-1.9,4-.2,1.6.1,3.3.8,4.8.8,1.8,1.4,3.6,2.6,5.3.6.8.3,2.7-.4,2.7-.1,0-.3,0-.4-.2-1.7-1.4-3.5-2.6-4.7-5-1.7-3.5-2.5-8.1-.4-12.1Z" fill="#00b4e9"/>
  <path d="M387.8,461.4c-.2,0-.4,0-.5,0,0,0-.2-.2-.2.3,0,.3-.1-.4-.2-.3-.2,0-.3,0-.5,0-.2,0-.3.3-.5.4-.2,0-.3-.2-.5,0-.1.3-.3-.2-.4-.1-.1.1-.3.2-.4,0,0-.2-.2-.4-.3-.3,0,0-.2.4-.2.3,0,0-.1-.3-.2.3,0,0,0,0,0-.2,0-.4-.1-.4-.2-.1,0,.3-.1.2-.2.2-.1,0-.3,0-.4,0,0,0-.2-.3-.3-.4,0,0-.3.2-.3-.1,0-.3-.1-.3-.2-.3,0,0,0-.3-.2.3,0,0,0,0,0,0,0-.8-.4.2-.5,0-.1-.3-.3-.1-.5-.2,0,0,0-.2-.2.2,0,.1-.1.2-.1,0,0-.6-.2-.3-.3-.5,0-.2-.3,0-.3-.5,0-.2,0-.3-.3.2-.1.2,0,0-.2,0,0,0-.2.3-.3.3,0,0,0-.2,0-.4,0,0,0,0,0,0-.5.5-.3-.4-.6-.3-.3,0-.5-.1-.6-.3,0-.1-.1-.3.4-1.4.2-.5.5-.9.7-1.2.1-.2.3-.4.3-.4,0,0,.2-.2.3-.2.2-.1.5-.5.5-.2,0,0,.2-.2,0,.3,0,0,0,.1,0,0,.5-.7.4-.1.5-.1.1,0,.5-.5.5-.2.3-.6.3-.4.3-.2,0,.7.4.4.6.5.2.2.5.1.7.2,0,0,.2-.3.1,0,0,.3,0,0,.1,0,0,0,.1-.1.1,0,0,.7.3.3.5.4.2,0,.4.2.6,0,.1,0,.3-.4.4-.3,0,0,.1-.3.1.3,0,.2,0-.3.1-.3,0,0,.2,0,.2,0,.1,0,.2,0,.3,0,0,0,.1-.3.2-.3,0,0,.1,0,.2,0,0,0,.2.3.3.3,0,0,.2-.2.3,0,.2.5.4.2.5.3.2,0,.4,0,.5,0,0,0,.3.4.4.4,0,0,.4,1.4.5,1.9,0,0,0,.2,0,.2,0,.5,0,1.2-.1,1.2-.2,0-.4,0-.6,0Z" fill="#00b4e9"/>
  <path d="M367.9,200.9c-.4-.6-.9-1.2-1.3-1.8-.2-.2-.1-.6-.7-.5-.3,0,0-.6,0-.8-.5-.5-.7-1.2-1.2-1.7-.4-.5-1-1-1.4-1.5-.4-.5-.5-1.3-1.1-1.6-.5-.3-.4-1-.7-1.4-.4-.4-.8-.9-.8-1.4,0-.4,0-.9-.4-1.1-.2-.2-.6-.2-.7-.4-.1-.2,0-.6-.7-.4,0,0,0-.1,0-.2.2-.4,0-.7-.3-.7-.3,0-.4-.2-.5-.4-.3-.4-.6-.9-.9-1.4-.2-.4-.2-.8-.4-1.2-.2-.4-.7-.6-.7-1.1,0-.5-.2-.8-.5-1.1-.1-.2,0-.5-.7-.3,0,0-.1,0,0-.1.3-1-1-.8-1.2-1.4-.3-.6-.8-1-1.3-1.4-.1-.1-.1-.4-.6-.2-.2,0-.3,0-.3-.2,0-.8-.5-.8-.8-1.2-.3-.4-.9-.6-1.1-1.3,0-.3-.2-.6-.8-.3-.3.1-.3-.2-.5-.3-.2,0-.4,0-.6,0-.1,0,0-.3-.2-.5,0,0,0,0-.1,0-1,.1-1.2-1-2-1.2-.4,0-.8-.2-1.1-.4-.4-.1-.7-.3-1.1-.5-.4-.2-.7-.5-.7-1.7,0-.5.1-1.1.4-1.3.2-.2.5-.3.6-.3.3,0,.6,0,.9,0,.6,0,1.4-.3,1.8.3.1.2.5,0,.4.5,0,0,0,.1,0,.1,1.1-.3,1.6.5,2.4.9.6.3,1.6.2,2,.9.7-.3,1,.1,1.2.5.7,1.4,2,2,3,3.1.9,1.1,1.9,2.1,2.8,3.2.1.2.6.1.5.5,0,.4.3.5.5.8.2.2.5.4.5.7.1,1.3,1.1,1.9,1.6,2.9.5.9,1.1,1.9,1.8,2.7.4.5,1.1.9,1.3,1.5,0,.3.5.3.2.9-.1.2.4.1.5.3.3.3.5.7.7,1.1.3.5.6,1.1,1,1.5.2.3.6.5.9.8.3.3.5.6.6,1,.2.5.3,1,.5,1.4.2.5.7.7.8,1.3,0,1,.8,1.6,1.3,2.3.5.7,1,1.5,1.6,2.1.4.3.3,1,.6,1.4.1.2-.8,1.4-1.2,1.6,0,0-.2,0-.2,0-.7,0-1.5,0-1.9-.4-.5-.7-1.1-1.4-1.6-2Z" fill="#00b4e9"/>
  <path d="M379.4,187.7c0-.3-.1-.7-.3-.9,0-.1.2-.3-.4-.3-.3,0,.3-.3.2-.4-.2-.3-.2-.6-.4-.9-.2-.3-.5-.5-.7-.7-.2-.2,0-.6-.4-.8-.3,0,0-.5-.2-.7-.2-.2-.4-.3-.3-.7,0-.2.2-.5,0-.6-.1,0-.4,0-.5-.1,0-.1.1-.4-.5-.1,0,0,0,0,0-.1.3-.3.2-.4-.1-.4-.3,0-.3,0-.4,0-.2-.2-.3-.4-.4-.6,0-.2,0-.5,0-.6,0-.2-.4-.2-.3-.5.1-.3,0-.5-.1-.6,0,0,0-.4-.5,0,0,0,0,0,0,0,.4-.8-.6-.3-.6-.6,0-.4-.4-.5-.6-.7,0,0,0-.2-.4,0-.1,0-.2,0-.2,0,.3-.6-.2-.5-.3-.7-.1-.3-.5-.2-.4-.8,0-.2,0-.4-.5,0-.2.2-.1-.1-.3-.1,0,0-.3.2-.4.1,0,0,0-.3,0-.4,0,0,0,0,0,0-.7.3-.5-.6-.9-.7-.4,0-.7-.3-1-.6-.2-.2-.2-.4.2-1.5.2-.5.5-1,.7-1.2.2-.2.4-.3.5-.3.2,0,.4,0,.5,0,.3,0,.9-.3,1,0,0,.1.3,0,0,.4,0,0,0,.1,0,0,.8-.4.8.2,1.2.4.3.2,1-.1,1.1.3.6-.4.7-.1.7.2.1,1,.9,1.1,1.3,1.7.4.6,1,1,1.4,1.6,0,0,.4,0,.3.2-.1.3.2.3.3.4,0,.1.3.1.3.3-.2.8.5,1,.7,1.5.2.5.5,1,.9,1.4.3.2.7.3.8.7,0,.1.4.1,0,.5-.1.1.3,0,.4,0,.2.2.2.4.3.6.2.3.2.6.4.9.1.2.4.2.6.4.1.2.2.4.2.6,0,.3,0,.6,0,.9,0,.3.4.5.2.8-.3.6,0,1,.1,1.5,0,.5.2.9.4,1.4.1.3-.3.6-.3.8,0,.1-1.4.5-1.9.6,0,0-.2,0-.2,0-.5-.1-1.3-.2-1.3-.5,0-.4-.1-.7-.2-1.1Z" fill="#00b4e9"/>
  <path d="M225.2,185.4c-.5.1-1,.2-1.5.4-.2,0-.4-.1-.5.5,0,.3-.4-.3-.5-.2-.4.2-.9.3-1.3.5-.4.2-.7.6-1.1.9-.4.2-.9.2-1.2.7-.2.4-.7.1-1,.4-.3.3-.6.6-1,.6-.3,0-.7,0-.8.2-.1.2,0,.5-.2.6-.2,0-.5,0-.2.6,0,0-.1,0-.2,0-.4-.2-.6,0-.5.3,0,.3,0,.4-.2.5-.3.3-.6.5-.9.7-.2.2-.6.2-.9.3-.3.2-.3.6-.7.6-.4,0-.6.2-.8.4-.1.1-.5,0,0,.6,0,0,0,0,0,0-.9-.2-.4.8-.8,1-.5.2-.6.7-.9,1.1,0,.1-.3.1,0,.5.1.1,0,.2,0,.2-.7,0-.6.5-.9.7-.3.3-.3.8-.9.9-.3,0-.5.2,0,.7.2.2-.2.2-.2.4,0,.1.2.4.1.5,0,0-.3,0-.4.1,0,0,0,0,0,0,.2.4,0,.6-.2.9-.2.2-.5.5-.5.8,0,.7-.4,1.2-.7,1.8-.2.3-.5.6-1.6.4-.5,0-1-.3-1.3-.5-.2-.2-.4-.4-.4-.5,0-.2,0-.5,0-.7,0-.5-.4-1.1,0-1.4.1,0,0-.4.4-.3,0,0,.1,0,.1,0-.5-.9.2-1.2.4-1.8.2-.5-.2-1.3.3-1.6-.4-.6-.1-.8.2-1,.5-.3.9-.7,1.2-1.2.3-.4.5-1,.8-1.4.4-.4.7-.8,1-1.3.3-.4.7-.8,1.1-1.2.1-.1,0-.5.3-.5.3,0,.4-.3.5-.5.1-.2.2-.4.5-.4,1-.1,1.4-.9,2.1-1.5.7-.5,1.4-1,2-1.5.4-.4.6-1,1.1-1.1.2,0,.2-.5.7,0,.1.1,0-.4.2-.5.3-.2.6-.4.9-.5.4-.2.9-.4,1.3-.7.2-.2.4-.5.7-.7.3-.2.6-.3.9-.4.4-.1.8,0,1.2-.1.4,0,.7-.5,1.2-.4.9.3,1.5-.2,2.2-.3.7,0,1.4-.3,2.1-.5.4-.1.8.3,1.2.2.2,0,.6,1.4.6,1.9,0,0,0,.2,0,.2-.3.5-.5,1.3-.9,1.3-.6,0-1.1.2-1.7.3Z" fill="#00b4e9"/>
  <path d="M209.5,178.3c-.2,0-.5.1-.7.3,0,0-.3-.2-.2.4,0,.3-.3-.3-.3-.2-.2.1-.5.2-.7.3-.2.2-.3.4-.5.6-.2.2-.5,0-.6.4,0,.3-.4,0-.5.2-.1.2-.3.4-.5.3-.2,0-.4-.2-.5,0,0,.1,0,.4,0,.4,0,0-.3-.1,0,.4,0,0,0,0-.1,0-.3-.3-.4-.2-.3,0,0,.3,0,.3,0,.3-.1.1-.3.3-.5.3-.1,0-.4,0-.6,0-.2,0-.1.4-.4.2-.3-.2-.4,0-.5,0,0,0-.3-.1,0,.4,0,0,0,0,0,0-.7-.5-.2.5-.5.5-.3,0-.4.3-.6.5,0,0-.2,0,0,.3,0,.1,0,.2,0,.1-.6-.3-.4,0-.6.1-.2,0-.2.4-.7.2-.2,0-.4,0,0,.4.2.2,0,.1-.1.2,0,0,.2.3.1.4,0,0-.2,0-.4-.1,0,0,0,0,0,0,.3.7-.6.3-.6.7,0,.3-.3.6-.5.8-.1.1-.4.1-1.4-.4-.5-.2-.9-.5-1.1-.8-.2-.2-.3-.4-.3-.5,0-.1,0-.3,0-.5,0-.3-.3-.8,0-.8.1,0,0-.3.4,0,0,0,.1,0,0,0-.4-.7.2-.7.4-1,.1-.2-.2-.9.2-.9-.4-.5-.1-.6,0-.6.9,0,.9-.7,1.4-1,.5-.3.8-.8,1.3-1.1,0,0,0-.4.2-.2.2.1.2-.1.3-.2,0,0,0-.3.3-.2.8.3.9-.3,1.3-.5.4-.2.8-.4,1.1-.7.2-.2.2-.7.5-.7.1,0,0-.4.5,0,.1.1,0-.3,0-.4.1-.1.3-.2.5-.3.2-.1.5-.2.7-.4.1-.1.2-.4.3-.5.1-.1.3-.2.5-.2.2,0,.5,0,.7,0,.2,0,.3-.4.6-.2.5.3.8,0,1.2,0,.4,0,.8-.1,1.1-.3.2-.1.5.3.7.3,0,0,.6,1.4.6,1.9,0,0,0,.2,0,.2,0,.5,0,1.2-.2,1.2-.3,0-.6.1-.9.2Z" fill="#00b4e9"/>
  <g>
    <g>
      <path d="M324.4,145.2c-.3-.4-.7-.8-1-1.1-.1-.1,0-.4-.6-.2-.3.1,0-.5,0-.6-.4-.3-.6-.7-1-1-.4-.3-.8-.5-1.2-.8-.4-.3-.5-.8-1-.9-.5,0-.3-.7-.7-.9-.4-.2-.7-.4-.8-.9,0-.3,0-.7-.3-.8-.2,0-.5,0-.6-.1-.1-.1,0-.5-.6-.1,0,0,0-.1,0-.2.2-.4,0-.6-.3-.5-.3,0-.4,0-.5-.1-.3-.3-.6-.5-.8-.8-.2-.2-.2-.6-.3-.9-.2-.3-.6-.3-.6-.7,0-.4-.2-.6-.3-.8-.1-.1,0-.4-.6-.1,0,0,0,0,0,0,.3-.9-.8-.5-.9-.9-.2-.5-.6-.7-.9-1,0,0,0-.3-.5,0-.1,0-.2,0-.2-.1.2-.7-.3-.7-.5-1-.2-.4-.7-.5-.6-1.1,0-.3,0-.5-.6-.3-.3.1-.2-.2-.3-.3-.1,0-.4,0-.5,0,0,0,0-.3,0-.5,0,0,0,0,0,0-.9,0-.6-1-1.2-1.3-.5-.3-.9-.8-1.2-1.3-.2-.3-.3-.7.4-1.6.3-.4.7-.8,1-.9.2,0,.5-.2.6-.1.2,0,.4.1.6.2.4.1,1.1,0,1.1.5,0,.2.3,0,0,.5,0,0,0,.1,0,.1.9-.2.9.6,1.3,1,.3.3,1.1.2,1.2.7.6-.2.8,0,.8.4.1,1.1,1.1,1.5,1.6,2.2.6.7,1.3,1.3,1.9,2,.1.1.5,0,.4.3,0,.3.2.3.4.5.1.1.4.2.4.4,0,1,.8,1.2,1.2,1.8.4.6.9,1.1,1.5,1.6.4.3.9.3,1.1.7,0,.2.5,0,.2.6,0,.2.4,0,.5,0,.2.2.4.4.6.6.3.3.5.6.9.9.2.2.6.2.8.3.2.2.4.3.5.6.2.3.2.7.4,1,.2.3.6.4.7.8,0,.8.7,1.1,1,1.6.4.5.8,1,1.3,1.3.3.2.1.8.4,1,.1.1-.8,1.3-1.2,1.6,0,0-.2.1-.2.1-.6,0-1.3.3-1.5,0-.3-.5-.8-.8-1.1-1.3Z"/>
      <path d="M266.9,124.1c-.5.2-1,.4-1.4.6-.2.1-.5,0-.4.5,0,.3-.4-.2-.6,0-.4.3-.8.5-1.1.8-.3.3-.5.8-.7,1.1-.2.3-.7.5-.7,1,0,.4-.6.4-.6.8,0,.4-.2.7-.5,1-.3.2-.6.3-.6.6,0,.2.2.4.2.6,0,.1-.4.3.2.6,0,0,0,0-.2,0-.4,0-.5.3-.3.5.2.2.2.3.1.5,0,.4-.1.8-.2,1.1,0,.3-.4.5-.5.8-.1.3.1.7-.2.9-.3.3-.3.6-.4.9,0,.2-.3.4.3.6,0,0,0,0,0,.1-.9.4.2,1,0,1.5-.2.5-.1,1-.1,1.6,0,.1-.2.3.3.4.2,0,.2.2,0,.3-.6.4-.3.8-.4,1.2-.1.4.2.9-.3,1.4-.2.2-.3.5.3.7.3,0,0,.3,0,.5,0,.1.3.2.3.4,0,.1-.2.2-.3.4,0,0,0,0,0,.1.7.6-.1,1.3.1,1.9.3.6.3,1.3.3,1.9,0,.4-.1.8-1.2,1.2-.5.2-1,.3-1.4.2-.3,0-.5-.2-.6-.3-.1-.2-.3-.4-.4-.6-.3-.4-.9-.8-.6-1.3,0-.2-.3-.3.2-.5,0,0,0,0,0-.1-.9-.5-.4-1.3-.5-1.9,0-.5-.8-1-.5-1.6-.6-.3-.5-.7-.4-1,.7-1.1.2-2.2.3-3.3.1-1.1.1-2.2.2-3.3,0-.2-.3-.4,0-.6.3-.2,0-.5.1-.7,0-.2,0-.5,0-.7.7-.8.5-1.7.7-2.6.3-.9.5-1.7.7-2.6,0-.6,0-1.2.4-1.7.2-.2,0-.6.6-.5.2,0-.1-.4,0-.6.2-.4.4-.7.6-1,.3-.5.7-.9,1-1.4.2-.3.3-.7.5-1,.2-.3.5-.6.8-.8.4-.3.9-.4,1.3-.6.4-.2.7-.7,1.2-.7,1,0,1.5-.5,2.3-.8.7-.2,1.5-.5,2.1-.8.4-.2.9.2,1.3,0,.2,0,.8,1.3.9,1.8,0,0,0,.2,0,.2-.2.6-.4,1.3-.8,1.4-.6.1-1.2.4-1.7.6Z"/>
      <path d="M307.6,150.9c.3-.2.7-.3,1-.5.1,0,.4,0,.3-.5,0-.3.3.2.5.2.3-.2.6-.3.9-.5.3-.2.5-.5.8-.7.3-.2.7,0,.9-.5.1-.4.6,0,.8-.2.2-.2.5-.4.8-.3.3,0,.5.2.7,0,0-.1,0-.5.2-.5.1,0,.4.2.2-.5,0,0,0,0,.1,0,.3.3.4.2.4,0,0-.3.1-.3.2-.4.3-.1.5-.3.8-.3.2,0,.5.1.7,0,.2,0,.4-.4.7-.2.3.2.5.1.7,0,.1,0,.3.2.2-.4,0,0,0,0,0,0,.6.7.5-.5.9-.4.4,0,.7-.2,1-.3,0,0,.2.1.2-.4,0-.2,0-.2.1-.1.5.5.6,0,.9,0,.3,0,.5-.4,1,0,.2.2.4.2.4-.4,0-.3.2,0,.3-.2,0,0,0-.4.2-.4,0,0,.2.2.3.3,0,0,0,0,0,0,.2-.8.9,0,1.3-.3.4-.3.8-.4,1.3-.4.3,0,.6,0,1,1.2.2.5.4,1,.3,1.4,0,.3,0,.5,0,.6-.1.1-.2.3-.3.4-.2.3-.3.8-.7.7-.1,0-.1.3-.3-.2,0,0,0,0,0,0-.1.9-.7.5-1,.7-.3.1-.4.8-.8.7,0,.7-.2.6-.5.5-.8-.4-1.3.2-2,.3-.7.1-1.2.4-1.9.6-.1,0,0,.4-.3.2-.2-.2-.3,0-.4,0-.1,0-.2.2-.4.1-.7-.4-1.1.1-1.6.3-.5.1-1,.3-1.4.6-.3.2-.4.7-.8.7-.1,0-.1.4-.5-.1-.1-.1,0,.3-.1.4-.2.1-.4.2-.6.3-.3.1-.6.2-.8.4-.2.1-.2.4-.4.5-.1.1-.3.2-.5.2-.3,0-.6,0-.8,0-.3,0-.4.4-.7.3-.6-.3-.9.2-1.3.3-.4.1-.8.3-1.2.6-.2.2-.6-.2-.8,0-.1,0-.9-1.2-1.1-1.6,0,0,0-.2,0-.2,0-.5-.1-1.3.1-1.4.4-.1.8-.4,1.1-.6Z"/>
      <path d="M297.2,158.9c.3.6.7,1.2,1.1,1.7.2.2.2.6.7.4.3,0,0,.5.2.7.5.4.9,1,1.5,1.3.6.4,1.2.5,1.8.8.6.2,1,.8,1.7.7.6,0,.9.5,1.4.6.5,0,1.1,0,1.6.4.3.2.7.5,1.1.4.2,0,.5-.4.7-.3.2,0,.5.3.7-.4,0,0,.1,0,.2.1.3.4.6.3.8,0,.2-.3.3-.3.5-.3.5-.1,1-.3,1.5-.4.4,0,.8,0,1.2,0,.4-.1.7-.5,1.2-.4.2.2.4.1.5,0,0,0,.5,0-.2-.3,0,0,0,0,0,0,.5.1.6,0,.4,0-.1,0-.5-.1-.3-.2.2,0,.2,0,.2,0,0,0-.3,0-.3,0,0,0,.1-.1-.4.1-.2,0-.2.1,0,0,.3-.2.2-.3,0-.4,0,0,0,0-.2,0-.1,0-.3-.2-.4-.3-.5-.5-1.3-.7-1.5-1.6,0-.4-.3-.7-1-.5-.3,0-.4-.4-.6-.5-.2-.1-.5,0-.7-.2-.1-.1,0-.4-.1-.6,0,0,0-.1-.1-.1-1.2-.3-1.2-1.7-2-2.5-.8-.8-1.3-1.7-1.7-2.7-.2-.5-.3-1.2.5-2,.4-.4.9-.6,1.3-.5.3,0,.6.1.7.3.2.2.5.4.7.6.4.4,1.2.6,1.3,1.3,0,.2.4.2,0,.6,0,0,0,.1,0,.2,1.1.2,1.2,1.1,1.8,1.7.5.5,1.4.5,1.7,1.2.7-.2.9.1,1.1.5.3.7.8,1.1,1.4,1.5h.1c0,0,.2.2.2.2l.4.2.8.4c.6.3,1.3.6,1.9.9,1,.5,2.1,1,3.1,1.4-.3.4-.9,1-1.5,1.5-.5.5-1.1,1-1.7,1.5-.3.3-.3.7-.9.9-.6.2-1,.6-1.5.9-.2.1-.4.3-.7.5-.1,0-.3.1-.4.2,0,0-.2,0-.3,0-1.5,0-2.5.8-3.8,1.1-1.3.2-2.6.3-3.9.5-.8.1-1.6.4-2.4.2-.3,0-.8.2-1-.5,0-.2-.5.2-.7.2-.6,0-1.1-.3-1.6-.4-.7-.2-1.4-.6-2.2-.9-.4-.2-1-.2-1.4-.4-.5-.2-.9-.5-1.3-.8-.5-.4-.8-1-1.3-1.5-.4-.5-1.1-.8-1.4-1.4-.4-1.2-1.3-1.9-1.8-3-.5-1-1-2.2-1.3-3.4-.2-.7.2-1.4.3-2.1,0-.4,1.5-.5,2-.3,0,0,.2,0,.2.1.4.6,1.1.9,1.1,1.3,0,.7.3,1.4.7,2Z"/>
      <path d="M312.3,177.8c-.6,0-1.1-.1-1.7-.1-.2,0-.4-.3-.7.2-.1.3-.3-.4-.5-.4-.6,0-1.1-.2-1.6-.2-.5,0-1.1,0-1.7,0-.5,0-1-.5-1.6-.3-.5.1-.8-.5-1.2-.5-.5,0-1-.2-1.3-.6-.2-.3-.4-.7-.8-.7-.2,0-.6.1-.8,0-.2-.1-.3-.5-.8,0,0,0,0-.1,0-.2,0-.5-.2-.6-.6-.5-.3,0-.5,0-.6-.2-.4-.3-.9-.7-1.2-1.1-.2-.3-.3-.8-.5-1.1-.2-.4-.7-.6-.6-1,0-.5-.1-.7-.3-1.1,0-.2,0-.5-.6-.4,0,0,0,0,0-.1.5-.8-.7-.9-.7-1.5,0-.6-.3-1.1-.5-1.7,0-.1,0-.3-.4-.4-.2,0-.2-.2-.1-.3.5-.6,0-.9,0-1.3,0-.5-.4-.9,0-1.5.2-.2.2-.5-.4-.7-.3,0,0-.3-.1-.5,0-.1-.4-.2-.4-.4,0-.1.2-.3.3-.4,0,0,0,0,0-.1-.7-.6,0-1.4-.1-2.1-.2-.7-.2-1.4-.1-2.1,0-.4.2-.8,1.3-1.1.5-.1,1.1-.2,1.4,0,.2.1.5.2.5.4.1.2.2.4.4.6.2.4.8.8.5,1.2,0,.1.2.3-.3.4,0,0-.1,0,0,.1.8.5.4,1.1.5,1.7,0,.5.8.9.6,1.4.7.2.6.5.5.8-.5,1,.1,1.9.3,2.8.1.9.6,1.7.9,2.6,0,.1.4,0,.3.4-.2.3.1.4.2.5,0,.1.3.2.2.4-.1.5,0,.8.3,1,.2.2.5.4.7.7.4.5.9,1,1.6,1.2.4.1.9,0,1.2.3.1.1.5-.1.4.5,0,.2.3-.2.4-.1.3,0,.6.2.8.3.4.1.8.3,1.2.3.3,0,.6-.2.8-.1.3,0,.5,0,.8.2.3.1.6.4,1,.5.4.1.8-.1,1.1.2.6.6,1.3.4,2,.5.7.1,1.3.2,2,.1.4,0,.7.5,1.1.5.2,0,.3,1.5.2,2,0,0,0,.2,0,.2-.4.4-.8,1.2-1.2,1.1-.6-.1-1.3,0-1.9-.1Z"/>
      <path d="M301.6,185.7c.2-.1.4-.2.6-.4,0,0,.3,0,0-.4-.1-.2.3.2.4.1.1-.2.4-.3.5-.5.1-.2.1-.5.3-.7.1-.2.5-.2.4-.5,0-.3.4-.1.5-.3,0-.2.1-.4.4-.4.2,0,.5,0,.5-.1,0-.1-.2-.4,0-.5,0,0,.4,0,0-.4,0,0,0,0,.2,0,.4.2.4,0,.3-.2-.1-.2,0-.3,0-.3.1-.2.2-.4.4-.5.1,0,.4,0,.6-.1.2,0,0-.4.4-.3.3,0,.4,0,.5-.2,0,0,.3,0,0-.4,0,0,0,0,0,0,.8.4.1-.5.5-.6.3,0,.4-.4.6-.6s.2,0,0-.3c-.1-.1,0-.2,0-.1.6.3.4-.1.7-.2.2,0,.2-.5.7-.3.2,0,.4,0,0-.4-.2-.2.1-.1.1-.2,0,0-.2-.3-.1-.4,0,0,.2,0,.4,0,0,0,0,0,0,0-.3-.7.6-.3.7-.7,0-.4.4-.6.7-.8.2-.1.4-.1,1.4.5.4.3.8.7,1,.9.1.2.3.4.3.5,0,.1,0,.3,0,.5,0,.3.3.8,0,.8-.1,0,0,.3-.4,0,0,0-.1,0,0,0,.4.7-.2.6-.4.9-.1.2.2.8-.2.8.4.5.2.6,0,.6-.8,0-.8.6-1.2.9-.4.3-.7.8-1.1,1.1,0,0,.2.4-.1.3-.3,0-.2.1-.3.2,0,0,0,.2-.2.2-.8-.1-.7.4-1.1.7-.3.3-.6.5-.8.9,0,.3,0,.7-.3.8-.1,0,0,.4-.5,0-.1,0,.1.3,0,.4,0,.2-.2.3-.4.4-.2.2-.4.3-.5.6,0,.1,0,.4-.1.6,0,.2-.2.3-.4.4-.2,0-.5,0-.7.2-.2,0-.2.5-.6.4-.6-.2-.8.3-1.2.5-.4.2-.8.3-1.1.6-.2.2-.6-.2-.8-.1-.1,0-.7-1.3-.9-1.8,0,0,0-.2,0-.2,0-.5-.2-1.2,0-1.2.3,0,.5-.2.7-.3Z"/>
    </g>
    <path d="M300.4,136.8c.5.9.9,1.9,1.3,2.9.1.4,0,.8.6,1.1.3.2-.3.6-.2,1,.2,1,.1,1.9,0,2.9,0,.9,0,1.9-.3,2.9-.3,1-.9,1.7-1.2,2.7-.2.9-1.1,1.2-1.5,1.8-.5.7-1.1,1.4-2,1.6-.6.2-1.2.3-1.7.6-.3.2-.5.6-1,.7-.4,0-.9,0-1.1.6,0,0-.2,0-.3,0-.5-.3-1-.3-1.3,0-.3.3-.7.2-1,.2-.9,0-1.9-.2-2.7-.6-.7-.3-1.2-.9-1.7-1.3-.5-.4-1.3-.7-1.5-1.4-.2-.7-.6-1.1-.9-1.6-.2-.3-.1-.7-.8-.7,0,0-.1-.1,0-.2.1-.6-.1-1-.4-1.4-.3-.4-.7-.8-.7-1.2,0-1-.4-1.9-.5-2.9,0-.3.2-.5-.3-.8-.2,0-.2-.4,0-.5.6-.7.3-1.5.6-2.2.3-.8.2-1.7,1-2.4.3-.3.6-.6.3-1.3-.1-.3.3-.6.4-.9,0-.3,0-.6.1-.8.1-.2.4-.2.7-.4,0,0,.1-.1.1-.2.1-.7.7-1.2,1.3-1.6.6-.4,1.3-.6,1.9-1,1.2-.9,2.8-1.1,4.4-.9.8.1,1.8.6,1.7,1.9,0,.6-.3,1-.7,1.2-.2.1-.5.3-.6.3-.3,0-.5.1-.8.2-.5.2-.9.7-1.4.6-.2,0-.2.3-.5-.1,0,0-.1,0-.1,0-.1.5-.4.7-.7.9-.3.2-.6.4-.9.7-.4.5-.2,1.4-.7,1.8.4.6.1.9-.2,1.2-.5.5-.8,1.1-.8,1.8,0,.7,0,1.3,0,2,0,1.3.4,2.6.9,3.8,0,.2.5.2.4.5,0,.3.3.5.4.7.2.2.4.3.5.6,0,.6.5.9.9,1.2.4.2.9.3,1.3.5.9.3,2,.3,2.9-.1.6-.3.9-.8,1.5-1,.2,0,.2-.5.8-.2.2,0,0-.4.2-.5.3-.3.5-.6.8-.9.3-.5.7-.9.9-1.5.1-.3,0-.8,0-1.1,0-.4.1-.7.2-1.1.1-.4.4-.9.5-1.4,0-.5-.3-1,0-1.5.3-1-.2-1.8-.6-2.7-.4-.8-.9-1.6-1.6-2.1-.4-.3-.4-1-.9-1.2-.2,0,.2-1.6.5-2,0,0,.2-.1.2-.1.8-.1,1.8-.3,2.4.3.9.9,1.7,1.8,2.3,2.8Z"/>
    <path d="M318.6,134.5c.5.9.9,1.9,1.3,2.9.1.4,0,.8.6,1.1.3.2-.3.6-.2,1,.2,1,.1,1.9,0,2.9,0,.9,0,1.9-.3,2.9-.3,1-.9,1.7-1.2,2.7-.2.9-1.1,1.2-1.5,1.8-.5.7-1.1,1.4-2,1.6-.6.2-1.2.3-1.7.6-.3.2-.5.6-1,.7-.4,0-.9,0-1.1.6,0,0-.2,0-.3,0-.5-.3-1-.3-1.3,0-.3.3-.7.2-1,.2-.9,0-1.9-.2-2.7-.6-.7-.3-1.2-.9-1.7-1.3-.5-.4-1.3-.7-1.5-1.4-.2-.7-.6-1.1-.9-1.6-.2-.3-.1-.7-.8-.7,0,0-.1-.1,0-.2.1-.6-.1-1-.4-1.4-.3-.4-.7-.8-.7-1.2,0-1-.4-1.9-.5-2.9,0-.3.2-.5-.3-.8-.2,0-.2-.4,0-.5.6-.7.3-1.5.6-2.2.3-.8.2-1.7,1-2.4.3-.3.6-.6.3-1.3-.1-.3.3-.6.4-.9,0-.3,0-.6.1-.8.1-.2.4-.2.7-.4,0,0,.1-.1.1-.2.1-.7.7-1.2,1.3-1.6.6-.4,1.3-.6,1.9-1,1.2-.9,2.8-1.1,4.4-.9.8.1,1.8.6,1.7,1.9,0,.6-.3,1-.7,1.2-.2.1-.5.3-.6.3-.3,0-.5.1-.8.2-.5.2-.9.7-1.4.6-.2,0-.2.3-.5-.1,0,0-.1,0-.1,0-.1.5-.4.7-.7.9-.3.2-.6.4-.9.7-.4.5-.2,1.4-.7,1.8.4.6.1.9-.2,1.2-.5.5-.8,1.1-.8,1.8,0,.7,0,1.3,0,2,0,1.3.4,2.6.9,3.8,0,.2.5.2.4.5,0,.3.3.5.4.7.2.2.4.3.5.6,0,.6.5.9.9,1.2.4.2.9.3,1.3.5.9.3,2,.3,2.9-.1.6-.3.9-.8,1.5-1,.2,0,.2-.5.8-.2.2,0,0-.4.2-.5.3-.3.5-.6.8-.9.3-.5.7-.9.9-1.5.1-.3,0-.8,0-1.1,0-.4.1-.7.2-1.1.1-.4.4-.9.5-1.4,0-.5-.3-1,0-1.5.3-1-.2-1.8-.6-2.7-.4-.8-.9-1.6-1.6-2.1-.4-.3-.4-1-.9-1.2-.2,0,.2-1.6.5-2,0,0,.2-.1.2-.1.8-.1,1.8-.3,2.4.3.9.9,1.7,1.8,2.3,2.8Z"/>
    <path d="M274.5,152c-.4-.3-.8-.6-1.2-.7-.2,0-.2-.4-.6,0-.2.2,0-.4-.2-.5-.4-.1-.8-.3-1.2-.4-.4,0-.9,0-1.3.1-.4,0-.8-.3-1.2,0-.3.3-.6-.2-.9,0-.3.2-.6.3-.9.2-.2,0-.5-.2-.7,0,0,.1,0,.4-.1.5,0,0-.4,0,0,.4,0,0,0,0-.1,0-.3-.2-.4-.1-.3.1.2.2.1.3,0,.3,0,.2-.1.4-.3.6-.1.2-.4.3-.5.5-.1.2.1.5-.2.7-.3.2-.3.5-.3.7,0,.1-.3.3.4.4,0,0,0,0,0,0-.8.5.3.7.2,1.1-.1.4.2.8.3,1.2,0,.1,0,.3.4.2.2,0,.2,0,.1.2-.4.5,0,.7.1,1,0,.4.5.5.4,1.1,0,.3,0,.5.6.3.3,0,.2.2.3.3.1,0,.4,0,.5,0,0,0,0,.3,0,.4,0,0,0,0,0,0,.9,0,.6,1,1.2,1.3.6.3,1,.7,1.4,1.2.2.3.4.6,0,1.7-.2.5-.5.9-.9,1.1-.2.1-.5.2-.6.2-.2,0-.5,0-.7-.1-.5-.1-1.2,0-1.3-.5,0-.2-.4,0-.1-.5,0,0,0-.1,0-.1-1,.2-1.1-.7-1.6-1.1-.4-.4-1.3-.4-1.4-1-.7.1-.9-.3-.9-.6-.1-1.3-1.1-2.1-1.5-3.3-.4-1.2-.8-2.3-.8-3.6,0-.2-.4-.4-.1-.6.2-.2,0-.5,0-.8,0-.3-.1-.5,0-.8.8-.9.6-1.9,1.1-2.9.5-.9,1.3-1.8,2.1-2.6.5-.5,1-1.1,1.6-1.2.3,0,.5-.5.9,0,.1.1.2-.4.4-.4.4-.1.8-.2,1.2-.2.6,0,1.1,0,1.7,0,.3,0,.7-.2,1.1-.3.4,0,.7,0,1.1.2.4.2.8.5,1.2.7.4.2,1,.1,1.3.6.5.8,1.4.9,2,1.5.6.5,1.2,1,1.9,1.5.4.3.3.9.5,1.3.1.2-.9,1.2-1.4,1.5,0,0-.2,0-.2,0-.6,0-1.3.2-1.5,0-.3-.4-.7-.8-1.2-1.1Z"/>
    <path d="M283.5,148.9c-.2,0-.4,0-.6.1,0,0-.2-.2-.2.3,0,.3-.2-.3-.2-.3-.2,0-.4,0-.5.1-.2,0-.3.3-.5.4-.2,0-.4-.2-.5.2-.1.3-.3-.2-.4,0-.1.1-.3.2-.4,0-.1-.2-.3-.4-.4-.2,0,0,0,.4-.1.4,0,0-.2-.3-.1.4,0,0,0,0,0-.1-.1-.4-.2-.4-.2,0,0,.3,0,.3-.1.3-.1,0-.3.1-.4,0-.1,0-.3-.2-.4-.3-.1,0-.2.3-.4,0-.2-.3-.3-.3-.4-.2,0,0-.2-.3-.1.4,0,0,0,0,0,0-.3-.8-.3.3-.5.1-.2-.2-.4,0-.5,0,0,0-.1-.2-.1.3,0,.2,0,.2,0,0-.2-.6-.3-.2-.5-.3-.2,0-.3.2-.5-.2,0-.2-.2-.3-.2.3,0,.3-.1,0-.2,0,0,0,0,.3,0,.3,0,0-.1-.2-.2-.3,0,0,0,0,0,0-.1.7-.5-.2-.7,0-.2.2-.4.2-.7.1-.1,0-.3-.2-.6-1.3-.1-.5-.2-1.1-.2-1.4,0-.2,0-.5,0-.5,0-.1.1-.2.2-.4.1-.2.2-.8.4-.5,0,0,0-.2.2.3,0,0,0,.1,0,0,0-.8.4-.3.6-.4.2,0,.2-.7.5-.5,0-.6.1-.5.3-.4.4.6.7.1,1.1.1.4,0,.7-.1,1.1-.1,0,0,0-.4.2-.1.1.2.2,0,.2,0,0,0,.1-.2.2,0,.4.6.6.2.9.2.3,0,.6,0,.8-.2.2-.1.3-.5.5-.4,0,0,.1-.3.3.3,0,.2,0-.3,0-.3.1,0,.2,0,.3,0,.2,0,.3,0,.5,0,0,0,.2-.3.2-.4,0,0,.2,0,.3,0,.1,0,.3.2.4.3.1,0,.2-.3.4,0,.3.5.5.2.8.2h.2s0,0,0,0h0v.4c0,0,0,0,0,0h0s0,0,0,0h0s0,0,0,0c0,0,0,.3.2.6.2.3.4.4.4.4,0,0,0,0,0,0,0,0,0,0,0,0,.1,0,.2,0,.3,0,.2,0,.4-.1.5-.1,0,0,.2,0,.2,0,.3.2.5.6.6,1,0,.4,0,.8-.3,1-.4.2-.6.3-.9.4-.1,0-.2,0-.4.1h-.3Z"/>
    <path d="M291,145.9c0,0,0-.2,0-.3,0,0,.2-.1-.3,0-.3,0,.4-.1.3-.1,0,0,0-.2,0-.2,0,0-.3-.1-.4-.2,0,0,.2-.2-.1-.2-.3,0,.2-.2,0-.2-.1,0-.2-.1,0-.2.2,0,.4-.1.3-.2,0,0-.4,0-.4,0,0,0,.3,0-.3,0,0,0,0,0,.1,0,.4,0,.4-.1,0-.1-.3,0-.2,0-.3,0,0,0,0-.1,0-.2,0,0,.3-.1.3-.2,0,0-.2-.1,0-.2.3,0,.3-.1.3-.2,0,0,.3,0-.3,0,0,0,0,0,0,0,.8,0-.3-.2,0-.3.2,0,0-.2,0-.3,0,0,.2,0-.3,0-.2,0-.2,0,0,0,.6,0,.3-.1.4-.2.1,0-.2-.2.3-.2.2,0,.3,0-.3-.1-.3,0,0,0,0,0,0,0-.3,0-.3,0,0,0,.2,0,.3,0,0,0,0,0,0,0-.7-.2.2-.2,0-.3-.2-.1,0-.2,0-.3,0,0,.3,0,1.4,0,.5,0,1.1.2,1.4.2.2,0,.5.1.5.1,0,0,.2,0,.3.1.2,0,.7.2.4.2,0,0,.2,0-.3,0,0,0-.1,0,0,0,.8.2.3.2.3.3,0,0,.7.2.4.2.6,0,.5.1.3.1-.7,0-.2.2-.3.3,0,.1,0,.2,0,.4,0,0,.4,0,0,0-.3,0,0,0,0,0,0,0,.1,0,0,0-.7.1-.3.2-.3.3,0,0-.1.2,0,.3.1,0,.5,0,.3.1,0,0,.3,0-.3.1-.2,0,.3,0,.3,0,0,0,0,0,0,.1,0,0,0,.1,0,.2,0,0,.3,0,.4,0,0,0,0,0,0,0,0,0-.3.1-.3.2,0,0,.2,0,0,.1-.5.2-.2.2-.3.3,0,0,0,.2,0,.2,0,0-.4.2-.4.2,0,0-.3.1-.8.2-.4.1-.9.2-1.1.3,0,0-.2,0-.2,0-.5,0-1.2.2-1.2.1,0-.1,0-.2,0-.3Z"/>
    <path d="M308.5,143.4c0,0,0-.2,0-.3,0,0,.2-.1-.3,0-.3,0,.4-.1.3-.1,0,0,0-.2,0-.2,0,0-.3-.1-.4-.2,0,0,.2-.2-.1-.2-.3,0,.2-.2,0-.2-.1,0-.2-.1,0-.2.2,0,.4-.1.3-.2,0,0-.4,0-.4,0,0,0,.3,0-.3,0,0,0,0,0,.1,0,.4,0,.4-.1,0-.1-.3,0-.2,0-.3,0,0,0,0-.1,0-.2,0,0,.3-.1.3-.2,0,0-.2-.1,0-.2.3,0,.3-.1.3-.2,0,0,.3,0-.3,0,0,0,0,0,0,0,.8,0-.3-.2,0-.3.2,0,0-.2,0-.3,0,0,.2,0-.3,0-.2,0-.2,0,0,0,.6,0,.3-.1.4-.2.1,0-.2-.2.3-.2.2,0,.3,0-.3-.1-.3,0,0,0,0,0,0,0-.3,0-.3,0,0,0,.2,0,.3,0,0,0,0,0,0,0-.7-.2.2-.2,0-.3-.2-.1,0-.2,0-.3,0,0,.3,0,1.4,0,.5,0,1.1.2,1.4.2.2,0,.5.1.5.1,0,0,.2,0,.3.1.2,0,.7.2.4.2,0,0,.2,0-.3,0,0,0-.1,0,0,0,.8.2.2.2.3.3,0,0,.7.2.4.2.6,0,.5.1.3.1-.7,0-.2.2-.3.3,0,.1,0,.2,0,.4,0,0,.4,0,0,0-.3,0,0,0,0,0,0,0,.1,0,0,0-.7.1-.3.2-.3.3,0,0-.1.2,0,.3.1,0,.5,0,.3.1,0,0,.3,0-.3.1-.2,0,.3,0,.3,0,0,0,0,0,0,.1,0,0,0,.1,0,.2,0,0,.3,0,.4,0,0,0,0,0,0,0,0,0-.3.1-.3.2,0,0,.2,0,0,.1-.5.2-.2.2-.3.3,0,0,0,.2,0,.2,0,0-.4.2-.4.2,0,0-.3.1-.8.2-.4.1-.9.2-1.1.3,0,0-.2,0-.2,0-.5,0-1.2.2-1.2.1,0-.1,0-.2,0-.3Z"/>
    <path d="M238.6,224c-.3-1.9,0-3.7.6-5.4.2-.6.7-1.1.5-2-.1-.4.7-.7,1-1.2.7-1.4,1.7-2.6,2.5-3.8.8-1.2,1.4-2.4,2.1-3.5.7-1.1,1.6-2.1,1.7-3.2,0-1,.8-1.7.8-2.6,0-.9-.1-1.8,0-2.6,0-.6,0-1.3-.5-1.8-.3-.3-.8-.5-1.1-.9-.3-.4-.4-1-1.2-.8,0,0-.1-.2-.1-.4,0-.7-.6-1.2-1.1-1.3-.5-.2-.8-.5-1.1-.8-.9-.9-1.8-2.1-2.4-3.3-.2-.5-.4-.9-.6-1.4-.1-.5-.3-1-.4-1.5-.3-1-.9-2-.8-3,.1-1,0-1.9,0-2.8,0-.5.2-1.1-.4-1.6,0,0,0-.2,0-.3.4-.7.5-1.5.4-2.2,0-.4,0-.8,0-1.2,0-.4.1-.8.2-1.1.6-1.5,1.1-3.1,2-4.5.2-.4.6-.7.5-1.2,0-.2.2-.6.4-.7,1.2-.6,1.7-1.7,2.6-2.5,1-.9,1.8-2,3-2.4.5-.2,1.2-.6,1.2-1.5,0-.4.7-.6,1-.9.2-.3.3-.7.6-1,.2-.2.6-.2.9-.4,0,0,.2-.1.2-.2.7-1.6,2.5-2.3,3.3-3.7.8-1.4,1.6-2.8,2-4.2.2-.8.5-1.5,1.7-2.2.5-.3,1.1-.3,1.4.1.2.3.5.7.5,1.1,0,.6,0,1.3,0,1.9-.1,1.3-.2,2.8-1.1,3.8-.3.3-.3.9-.9.9,0,0-.2.1-.2.2-.3,1.9-1.9,3-3.1,4.3-1,1.1-1.6,2.5-2.9,3.2-.2,1-.9,1.5-1.6,1.9-2.5,1.3-4,3.5-5.4,5.5-1.4,2-2,4.4-2.2,6.9,0,.4.3.8,0,1.3-.3.5,0,1.1,0,1.6,0,.5.3,1,.2,1.5-.2,2.1,1,3.8,2.1,5.4,1.1,1.6,2.7,3.1,4.4,4.8,1,1.1,2.2,2.3,2.6,4,.2.7.6,1.5,0,2.2-.1.2.3.8.3,1.3,0,1.1-.2,2.2-.5,3.3-.4,1.4-1.1,2.8-1.7,4-.4.8-.7,1.6-1.1,2.3-.4.7-.9,1.4-1.5,2.1-.7.8-1.4,1.5-2,2.2-.6.8-.9,1.8-1.5,2.5-1.2,1.3-1.5,3-1.5,4.5,0,.8,0,1.4.3,2.1.2.7.7,1.3,1.2,1.8.3.3.5.6.7.9.2.3.5.6.9.7.2,0,.3.5.4.9.1.5.2,1,0,1.2,0,0-.2.2-.2.2-1.2.3-2.8.4-4-.6-1.6-1.6-2.7-3.5-3-5.7Z"/>
    <path d="M284.3,222.7c.2-1,.4-2.1.5-3.1,0-.4.3-.8-.2-1.2-.3-.2.4-.6.3-1-.1-1-.1-2-.3-3,0-.5-.3-.9-.5-1.4-.2-.4-.4-.9-.6-1.3-.2-.4-.3-.9-.4-1.4-.2-.4-.3-.9-.7-1.2-.3-.3-.4-.6-.5-1-.1-.3-.2-.7-.5-1-.2-.3-.5-.6-.8-.9-.2-.3-.4-.7-.6-1-.2-.5-.4-1.1-.9-1.4-.3-.2-.8-.2-1.1-.5-.3-.3-.4-.8-1.1-.5,0,0-.1-.2-.1-.3,0-.6-.5-.9-.9-.9-.4,0-.7-.3-.9-.5-.7-.6-1.4-1.3-2.1-2.1-.5-.6-.8-1.4-1.2-2-.4-.7-1.1-1.3-1.2-2.2,0-.8-.3-1.5-.5-2.3-.1-.4.1-1-.5-1.3,0,0,0-.2,0-.3.4-.7.4-1.3.3-1.9,0-.6,0-1.3.2-1.9.6-1.1.9-2.2,1.3-3.2.1-.3.4-.5,0-.9-.1-.1,0-.4.1-.5.9-.4.7-1.2,1-1.9.3-.8.1-1.6.7-2.4.2-.3.4-.8-.2-1.2-.3-.2,0-.6-.1-.9,0-.2-.4-.4-.4-.7,0-.2.2-.4.2-.7,0,0,0-.1,0-.2-.4-.5-.5-1.1-.6-1.7,0-.6-.1-1.2-.5-1.7-.7-1-1.2-2-1.8-2.6-.4-.4-.5-.6-.6-1.9,0-.5,0-1.1.4-1.3.3-.2.7-.3,1.1-.2.5.1,1.1.3,1.5.6.9.5,2,1.1,2.4,2.2,0,.3.5.5.2,1,0,0,0,.2,0,.2,1.3.9,1.4,2.4,1.7,3.7.3,1.1,1.1,2.2.9,3.4.7.6.5,1.5.3,2.1-.4,1.2-.7,2.3-1,3.5-.3,1.2-.7,2.3-1.1,3.3-1,2-1.6,3.7-1.6,5.2,0,.3.4.4.1.8-.2.3,0,.7.2,1,.1.3.4.6.4.9,0,.7.3,1.4.8,2,.5.6,1,1.1,1.6,1.6,1.1,1.1,2.3,2.2,3.7,3.3.8.6,1.9,1.2,2.5,2.1.3.4.9.6.7,1.3,0,.2.6.3.8.5.5.6.8,1.3,1.2,1.9l.7,1.4c.2.5.4,1,.7,1.5.3.6.7,1.1,1,1.7.3.6.4,1.3.5,2,0,.9,0,1.7,0,2.6,0,.4.1.9.2,1.3,0,.4,0,.9,0,1.3-.2.8-.4,1.6-.4,2.3-.1.8-.1,1.6-.3,2.3-.2.8-.4,1.5-.6,2.2-.2.8-.5,1.5-.7,2.2-.1.4-.4.8-.7,1.1-.2.2-.4.5-.5.7,0,.1-.2.2-.2.4,0,.1-.3.1-.4.2-.2.1-.8,0-1.1-.3-.4-.3-.7-.7-.7-.9,0,0,0-.2,0-.3.1-.3.2-.6,0-1,0-.2-.1-.2-.1-.4,0-.2,0-.4.2-.6.3-.5.5-1.1.7-1.7.2-.6.4-1.1.5-1.7Z"/>
    <path d="M262.3,230.9c-.4,0-.7,0-1.1,0-.1,0-.3-.2-.4.3,0,.3-.2-.4-.3-.3-.3,0-.7,0-1,0-.3,0-.6.3-1,.3-.3,0-.6-.2-1,0-.3.3-.5-.2-.8-.1-.3.1-.5.2-.8,0-.2-.2-.4-.4-.6-.3-.1,0-.2.4-.4.4-.1,0-.3-.3-.4.3,0,0,0,0,0-.1-.1-.4-.3-.4-.4-.1-.1.3-.2.2-.3.3-.3,0-.5,0-.8,0-.2,0-.4-.3-.6-.3-.2,0-.4.2-.6,0-.2-.3-.4-.3-.6-.3-.1,0-.2-.3-.3.3,0,0,0,0,0,0-.3-.8-.6.3-.9,0-.3-.2-.7,0-1,0,0,0-.2-.2-.3.3,0,.2-.1.2-.2,0-.2-.6-.5-.2-.8-.4-.3-.1-.6.2-.9-.3-.1-.2-.3-.3-.4.3,0,.3-.2,0-.3,0,0,0-.2.3-.3.3,0,0-.1-.2-.2-.3,0,0,0,0,0,0-.4.7-.8-.2-1.3,0-.4.2-.9.1-1.3,0-.2,0-.5-.2-.6-1.4,0-.5,0-1.1,0-1.4,0-.2.2-.5.2-.5.1,0,.3-.2.4-.3.3-.2.5-.7.8-.4,0,0,.2-.2.3.3,0,0,0,.1,0,0,.4-.8.8-.3,1.1-.3.3,0,.6-.7,1-.4.2-.6.4-.5.6-.3.6.7,1.3.2,1.9.3.6,0,1.3,0,1.9,0,.1,0,.2-.4.3,0,.1.3.3,0,.4,0s.3-.1.4,0c.5.7,1,.3,1.5.3.5,0,1,.1,1.5,0,.3,0,.6-.4.9-.3.1,0,.3-.3.4.3,0,.2.2-.3.2-.3.2,0,.4,0,.6,0s.6,0,.9,0c.2,0,.4-.3.5-.3.2,0,.4,0,.6,0,.2,0,.5.3.7.3.2,0,.5-.2.7,0,.4.5.9.3,1.3.3.4,0,.9.1,1.3,0,.2,0,.5.4.7.4.1,0,.3,1.5.2,2,0,0,0,.2,0,.2-.2.5-.5,1.2-.7,1.1-.4,0-.8,0-1.2,0Z"/>
    <path d="M263.4,215.3c0,.2-.2.4-.2.7,0,0-.3,0,.2.4.2.1-.4,0-.4,0,0,.2-.2.4-.1.7,0,.2.2.5.2.7,0,.2-.3.4,0,.6.2.2-.3.3-.2.5.1.2.2.4-.1.5-.2.1-.4.2-.3.4,0,0,.4.2.3.3,0,0-.3.2.3.3,0,0,0,0-.1,0-.4,0-.4.2-.1.3.3,0,.2.1.2.2,0,.2,0,.4,0,.5,0,.1-.3.3-.3.4,0,.1.2.3,0,.4-.3.2-.3.3-.2.4,0,0-.3.2.4.2,0,0,0,0,0,0-.8.3.3.4.1.6-.2.2,0,.4,0,.7,0,0-.1.2.3.1.2,0,.2,0,0,0-.6.3-.2.4-.2.6,0,.2.3.3-.1.6-.2.1-.2.3.3.2.3,0,0,.1.1.2,0,0,.3,0,.4,0,0,0-.2.2-.3.3,0,0,0,0,0,0,.7,0,0,.6.3.8.3.2.3.5.4.7,0,.2,0,.4-1,1.1-.4.3-.9.6-1.2.7-.2,0-.5.1-.5,0-.1,0-.3,0-.4-.1-.3-.1-.9,0-.7-.4,0-.1-.3,0,.2-.3,0,0,0,0,0,0-.8,0-.5-.5-.7-.8-.1-.2-.8-.3-.7-.6-.7,0-.6-.2-.5-.4.5-.7-.1-1.1-.1-1.7,0-.6-.2-1.1-.3-1.7,0,0-.4-.1-.1-.3.2-.1,0-.2,0-.4,0-.1-.2-.2,0-.3.6-.5.2-.9.3-1.3,0-.4.1-.9,0-1.3,0-.3-.4-.6-.3-.8,0-.1-.3-.3.3-.3.2,0-.3-.2-.3-.2,0-.2,0-.4,0-.6,0-.3.1-.5.1-.8,0-.2-.2-.4-.2-.5,0-.2,0-.3.1-.5.1-.2.4-.3.5-.5.1-.2,0-.5.3-.6.6-.2.5-.6.7-1,.2-.3.4-.7.4-1,0-.2.6-.2.7-.4,0,0,1.4.5,1.8.8,0,0,.2.1.2.1.3.4.9.8.8,1-.2.2-.3.5-.4.7Z"/>
    <path d="M271.2,230.4c-.1-.3-.2-.6-.4-.8,0,0,.1-.3-.4-.2-.3,0,.3-.3.2-.4-.2-.2-.2-.5-.3-.8-.1-.2-.5-.4-.6-.7-.1-.2,0-.6-.3-.8-.3-.1,0-.5,0-.7-.2-.2-.3-.4-.2-.7.1-.2.3-.4.2-.6,0,0-.4-.1-.4-.2,0-.1.2-.3-.4-.2,0,0,0,0,.1-.1.4-.2.3-.3,0-.4-.3,0-.3-.1-.3-.2,0-.2-.2-.5-.1-.7,0-.2.2-.4.3-.6,0-.2-.3-.3,0-.6.3-.2.2-.4.2-.5,0,0,.3-.2-.4-.2,0,0,0,0,0,0,.8-.3-.3-.5-.1-.8.2-.3,0-.6,0-.9,0,0,.2-.2-.3-.2-.2,0-.2-.1,0-.1.6-.2.2-.4.3-.7.1-.2-.2-.5.3-.7.2-.1.3-.2-.3-.4-.3,0,0-.2,0-.3,0,0-.3-.2-.3-.2,0,0,.2-.1.3-.2,0,0,0,0,0,0-.7-.4.3-.7.1-1.1-.2-.4,0-.8.1-1.1,0-.2.3-.4,1.4-.3.5,0,1.1.1,1.4.2.2,0,.4.2.5.3,0,.1.2.2.3.3.2.2.7.5.4.7,0,0,.2.2-.3.2,0,0-.1,0,0,0,.8.4.2.6.3.9,0,.2.7.5.4.7.6.2.5.3.3.4-.7.5-.2,1-.3,1.4,0,.5,0,1,0,1.4,0,0,.4.1.1.2-.2.1,0,.2,0,.3,0,0,.2.2,0,.3-.6.5-.1.8-.2,1.2,0,.4,0,.8.3,1.1.2.2.5.3.5.6,0,.1.3.1-.2.4-.2,0,.3,0,.3,0,0,.1.1.3.1.5,0,.2,0,.4.2.6,0,.1.3.2.4.3,0,.1.2.2.1.4,0,.2-.1.4-.1.6,0,.2.3.3.1.5-.3.5,0,.7.1,1,0,.3.2.6.4.9.1.1-.2.5-.1.7,0,0-1.2.9-1.7,1.1,0,0-.2,0-.2,0-.5,0-1.2.2-1.3,0,0-.3-.3-.6-.4-.9Z"/>
    <path d="M321.6,119.6c-.9-.7-1.8-1.5-2.7-2.2-.3-.3-.5-.7-1.2-.6-.3,0-.3-.7-.6-.9-.9-.6-1.6-1.3-2.5-1.9-.9-.6-1.8-1-2.7-1.5-.9-.5-1.6-1.3-2.5-1.6-.8-.2-1.2-1-2-1.3-.8-.3-1.6-.6-2.2-1.2-.4-.4-.9-.9-1.5-1-.4,0-.8,0-1.2,0-.3-.1-.6-.5-1.1,0,0,0-.2-.1-.2-.2-.2-.5-.7-.6-1.1-.5-.4.2-.6,0-.9,0-.8-.2-1.6-.3-2.4-.5-.6-.1-1.1-.5-1.7-.6-.6-.1-1.3.1-1.9-.2-.6-.3-1.1-.3-1.7-.3-.3,0-.7-.2-.9.4,0,0-.1,0-.2,0-.5-.4-1-.2-1.4,0-.4.2-.8.5-1.3.5-.5,0-1,.1-1.4.3-.5.2-.9.4-1.3.6-.2.1-.6,0-.6.5,0,.2-.2.3-.4.3-.4-.1-.8,0-1.1.2-.3.2-.6.4-.9.6-.7.4-1.2,1.1-2.1,1.3-.4,0-.8.4-.7,1.1,0,.3-.4.4-.5.7-.1.2,0,.6-.2.8-.1.2-.4.2-.6.3,0,0-.1,0-.1.2,0,1.3-1.4,2-1.7,3.2-.3,1.2-.6,2.3-.9,3.5-.1.7-.4,1.3-1.5,1.8-.5.2-1.1.2-1.4-.1-.2-.2-.4-.5-.5-.8,0-.5-.1-.9-.2-1.4,0-1-.4-2,.2-2.9.2-.3,0-.7.6-.8,0,0,.2-.1.1-.2-.3-1.5.8-2.6,1.4-3.8.5-1,.7-2.3,1.7-3.1,0-.9.6-1.4,1.2-1.7,2.1-1.2,3.8-2.8,6-3.7,2.2-.9,4.5-1.5,6.8-1.8.4,0,.7-.4,1.2-.2.4.2,1,0,1.5,0,.5,0,.9-.1,1.4,0,1.7.7,3.5.6,5.2,1,1.7.4,3.3,1,5,1.5l1.6.4c.5.1,1,.3,1.5.6.4.2,1,.2,1.1.9,0,.2.6,0,.9.1.7.3,1.3.7,1.9,1.1.9.5,1.7,1.1,2.5,1.6.5.3,1.1.4,1.7.7.6.3,1.1.7,1.5,1.1.6.5,1.1,1.2,1.7,1.7.6.6,1.4.9,1.9,1.6.8,1.3,2.1,2,3.1,3,1.1,1,2.1,1.9,3.3,2.7.7.4.9,1.3,1.5,1.8.3.2-.2,1.7-.7,2,0,0-.2.1-.3,0-.9-.1-1.9,0-2.6-.6-1-.9-2-1.7-3-2.5Z"/>
    <path d="M312.7,130.1c.2-.2.5-.4.6-.6,0,0,.3,0,0-.4-.1-.2.4.2.4,0,.2-.2.4-.3.6-.6.2-.2.2-.6.4-.8.2-.2.6-.2.5-.6,0-.4.5-.1.5-.3,0-.2.2-.5.5-.4.2,0,.5,0,.5,0,0-.1-.1-.4,0-.5,0,0,.3,0,0-.5,0,0,0,0,.2,0,.3.2.4.1.3-.1-.1-.3,0-.3,0-.4.2-.2.3-.3.5-.4.2,0,.4,0,.6,0,.2,0,.1-.4.5-.3.3.1.4,0,.6,0,0,0,.3.1,0-.4,0,0,0,0,0,0,.7.5.2-.5.6-.5.3,0,.5-.3.7-.5,0,0,.2,0,0-.4,0-.1,0-.2,0-.1.5.4.5,0,.7,0,.3,0,.3-.4.8-.2.2.1.4.1.1-.4-.1-.3.1,0,.2-.2,0,0,0-.3,0-.4,0,0,.2.1.3.2,0,0,0,0,0,0-.1-.7.7-.2.9-.6.2-.3.5-.5.9-.6.2,0,.5,0,1.2.9.3.4.6.9.8,1.2,0,.2.2.5.1.5,0,.1,0,.3,0,.4,0,.3,0,.8-.3.7-.1,0,0,.3-.3-.1,0,0,0,0,0,0,.2.8-.3.6-.6.8-.2.2,0,.8-.4.8.3.6,0,.6-.2.5-.8-.2-.9.4-1.4.6-.5.2-.8.6-1.3.9,0,0,0,.4-.2.2-.2-.1-.2,0-.3.2,0,0,0,.2-.3.2-.7-.3-.8.3-1.2.5-.4.2-.7.4-.9.8-.1.2,0,.7-.4.7-.1,0,0,.4-.4,0-.1-.1,0,.3,0,.4,0,.1-.2.2-.4.3-.2.2-.4.3-.5.5,0,.1,0,.4,0,.5,0,.1-.2.2-.3.3-.2,0-.5,0-.7.1-.2,0-.2.4-.5.3-.6-.1-.7.3-1,.5-.3.2-.6.4-.7.7,0,.2-.6,0-.7,0,0,0-1.2-.9-1.5-1.3,0,0-.1-.2-.1-.2-.2-.5-.6-1.1-.4-1.2.3-.2.5-.4.7-.7Z"/>
    <path d="M288.6,126.6c-.1.5-.2,1-.3,1.5,0,.2-.3.3.2.6.2.2-.4.2-.4.4,0,.5-.2.9-.3,1.4,0,.5,0,1,0,1.5,0,.5-.5.9-.3,1.4.2.5-.4.7-.4,1.1,0,.4,0,.8-.4,1.1-.2.2-.5.4-.5.7,0,.2.3.4.2.6,0,.2-.4.3.2.6,0,0,0,0-.2,0-.4,0-.5.3-.3.5.2.2.1.4.1.5,0,.4-.2.8-.4,1.1-.1.3-.5.5-.6.7-.2.3,0,.7-.4.9-.4.2-.5.4-.6.7,0,.2-.4.2.2.6,0,0,0,0,0,0-.9.1,0,.9-.4,1.3-.4.4-.4.9-.6,1.3,0,.1-.3.2.1.5.1.1,0,.2,0,.3-.7,0-.5.6-.8.9-.3.3-.2.8-.8,1-.3,0-.5.3,0,.7.2.2-.1.3-.1.4,0,.1.2.4.1.5,0,.1-.3,0-.4.2,0,0,0,0,0,0,.3.8-.7,1-.8,1.7-.1.6-.5,1.2-.8,1.7-.2.3-.5.5-1.7.2-.5-.1-1-.4-1.2-.7-.2-.2-.3-.4-.3-.6,0-.2,0-.4,0-.7,0-.4-.3-1,.1-1.2.1,0,0-.3.4-.2,0,0,.1,0,.1,0-.5-.8.2-1.1.4-1.6.1-.4-.2-1.1.2-1.4-.5-.5-.3-.7,0-.9,1-.6.9-1.6,1.3-2.4.4-.8.7-1.7,1-2.5,0-.1-.2-.4,0-.5.3,0,.2-.4.3-.5,0-.2,0-.4.2-.5.9-.5.7-1.3,1-1.9.3-.7.6-1.3.6-2.1,0-.4-.2-1,0-1.3.1-.2-.2-.4.5-.5.2,0-.2-.3-.2-.4,0-.3.1-.6.2-.9.1-.4.3-.8.3-1.2,0-.3-.1-.6-.1-.8,0-.3,0-.5.2-.8.2-.3.4-.6.6-.9.1-.3,0-.7.3-1,.6-.5.5-1.2.7-1.8.2-.6.3-1.2.3-1.8,0-.4.5-.6.6-.9,0-.2,1.5-.1,2,0,0,0,.2,0,.2.1.4.4,1.1.9.9,1.2-.2.6-.2,1.2-.3,1.7Z"/>
  </g>
</svg>