<?xml version="1.0" encoding="UTF-8"?>
<svg id="ARTWORK" xmlns="http://www.w3.org/2000/svg" width="600" height="600" viewBox="0 0 600 600">
  <g>
    <path d="M342.2,310.1c-4.2,2.1-9.2,2.2-13.8,1.1s-8.8-3.3-12.8-5.8c-1.3-.8-2.7-1.9-2.9-3.4-3.3,1.1-6.3,3.3-8.1,6.4-1.7,3-2.1,6.9-.6,10.1,1,2.3,2.9,4.1,5,5.6,8.7,6.1,20.2,5.4,30.8,4.3.2,0,.5,0,.6-.2.2-.2.2-.4.3-.6,1-4.6,1.9-9.1,2.9-13.7" fill="#aaca60"/>
    <path d="M343.4,323.9l-.6,2.6-.2.9c0,.4-.1.7-.3,1.1-.1.3-.3.6-.5.9-.2.3-.5.5-.8.6-.4.2-1,.3-1.6.3-.3,0-.6,0-.8.2-.2,0-.3.2-.5.3-.3.3-1-.3-1.6-.2-1.7.2-3.3.3-5,.4-1.6.1-3.3.4-4.9.4-1.7,0-3.3-.4-5-.3-1.4,0-2.6-.6-3.9-.8-1.4-.2-2.9-.6-4.1-1.3-.5-.3-.9-.6-1.3-.8-.4-.3-.9-.5-1.4-.7-.6-.2-1.3-.2-1.9-.6-.5-.4-1-1-1.9-.8,0,0-.2-.3-.3-.4-.3-.8-1-1.3-1.7-1.5-.6-.2-1-.7-1.4-1.1-1.1-1.2-2-2.6-2.5-4.3-.4-1.2-.4-2.5-.4-3.7,0-1.3-.2-2.7.4-3.7.5-1.1.9-2.1,1.4-3.1.3-.6.9-1,.7-1.8,0,0,.1-.3.2-.3.9-.5,1.4-1.2,1.9-1.9.5-.7,1.1-1.5,1.9-1.9.4-.2.8-.5,1.2-.7l.7-.4,1-.5c.7-.3,1.4-.6,2-.8l1-.4c.2,0,.4-.1.5-.2h.4c.2-.1.3-.2.5-.2.1,1.1.2,2,.6,2.5,0,0,.1.1.2.2,0,0,0,.1,0,.2,0,0,0,0,0,0,0,0,.1.1.1.2,0,1,1.5,1.3,2.4,2.1,1.1.8,2.5,1.2,3.5,2.3.4.4,1.1.9,2,.6.4-.1.9.4,1.4.5.4,0,.8,0,1.2.1.3.1.6.4.8.6,0,0,.2.1.3,0,1,0,1.9.2,2.8.5.9.3,1.8.6,2.8.5,1.9,0,3.8-.2,5.6-.5,1-.2,2-.4,3.2.3.5.3.8.8.5,1.3-.2.4-.6.8-1,1-.6.3-1.3.7-1.9.9-1.3.5-2.8,1.3-4.3,1.1-.5,0-1,.2-1.4-.3,0,0-.2-.1-.3,0-2,.7-4.1-.1-6-.6-1.6-.4-3.4-.3-4.9-1.3-1.1.2-2.1-.4-2.9-1-1.3-1.1-2.7-1.9-4.1-2.8-.7-.4-1.4-.8-2.2-1.4-.4-.3-.8-.6-1.2-1.1,0-.1,0-.1-.1-.1,0,0,0,0,0,0h0c0,0,0-.1,0-.1,0,0,0,0,0,0,0,0-.1,0-.2,0h-.1c0,0,0,0-.2.1-.3.2-.6.3-.9.5-1.1.8-2.1,1.7-2.9,2.7-.3.4-.2.9-.7,1.2-.5.3-.6,1-.7,1.5-.2.5-.2,1.1-.4,1.5-.5,1-.6,2.1-.4,3.1.2,1,.6,2,1.1,2.9,1,1.8,2.8,3.5,4.8,4.5,1.2.7,2.7,1,3.9,1.6.6.3,1.3.1,1.7.9.1.2.8,0,1.2,0,.5.1,1,.2,1.4.3.5.1,1,.2,1.5.3,1.4.2,2.7.4,4.1.5.9,0,1.7-.2,2.6-.2.9,0,1.8,0,2.7,0,1.1,0,2.3.2,3.5.2,1.2,0,2.4-.4,3.6-.3.3,0,.5,0,.8,0,.1,0,.3,0,.4,0,0,0,0,0,.1,0,.2,0,.4,0,.5,0,0-.2,0-.3.1-.5.1-.5.2-1.1.3-1.6.5-2.1,1-4.2,1.3-6.4.2-1.2.9-2.2,1.2-3.4.1-.5,1.7-1,2.2-.7,0,0,.2.2.2.3.2,1.2.7,2.5.4,3.8-.5,1.9-.8,3.9-1.3,5.9Z" fill="#aaca60"/>
  </g>
  <g>
    <path d="M316.1,278c-3.1-.7-6.6,0-9.2,1.8-2.6,1.9-4.3,5-4.3,8.3,0,4.2,2.9,7.9,6,10.7,7.6,6.8,17.8,10.1,27.9,11.1,1.9.2,4.1.2,5.3-1.3.7-.8.9-1.9,1.1-3,.9-5.5,1.9-11,2.8-16.5.3-2,.7-4.2-.2-6.1-1.3-2.8-4.9-4-8-3.4s-5.7-3.8-8.2-1.9"/>
    <path d="M339,277.6c2.2,0,4.5.6,6.4,2.1.7.6,1.1,1.4,2,2,.5.3.3,1.4.4,2.2.5,2.2,0,4.1-.2,5.8-.2,1.6-.3,3.3-.5,4.9-.2,1.6-.8,3.2-.7,4.9,0,1.4-.7,2.5-.8,3.8,0,.7-.1,1.4-.2,2.1-.1.7-.2,1.4-.6,2.2-.3.6-.6,1.3-1.1,1.9-.5.6-1.1,1.1-1.7,1.5-.8.5-1.5,1-2.4,1.1-.8,0-1.7-.2-2.3.4,0,0-.4,0-.5-.2-.7-.5-1.5-.5-2.1-.3-.6.2-1.1,0-1.6,0-1.4-.2-2.9-.4-4.3-.8-1.1-.3-2.1-.8-3.1-1.1-1.1-.4-2.3-.5-3.2-1.1-.9-.6-1.8-1-2.8-1.4-.5-.2-1-.8-1.7-.4,0,0-.3,0-.3-.2-1.1-1.5-3.1-1.3-4.5-2.4-1.4-1.1-3-2-4.4-3.1-.4-.3-.6-.8-1.3-.7-.2,0-.6-.3-.7-.6-.6-1.4-1.8-2.1-2.7-3.4-.9-1.3-2.1-2.7-2.3-4.5,0-.8-.3-1.7-1-2.5-.3-.4-.2-1.3-.3-2,0-.5-.3-1.1-.2-1.7,0-.5.4-.9.6-1.3,0-.1.1-.3.1-.4,0-1.4.7-2.6,1.5-3.6.8-1,1.8-1.9,2.8-2.8,2-1.8,4.7-2.7,7.3-2.8,1.4,0,3,.3,3.6,1.6.3.6.1,1.1-.4,1.3-.4.2-.8.3-1.2.4-.6,0-1.3.2-1.8.3-1.2.3-2.2,1.1-3.4,1.4-.4,0-.6.6-1.1.3,0,0-.2,0-.3,0-.4.8-.9,1.4-1.5,2-.5.6-1,1.3-1.3,2-.2.6-.2,1.3-.2,2,0,.7.1,1.2,0,1.9.7.6.8,1.4.9,2.1.2,1.3,1,2.6,1.9,3.7,1,1.1,2.1,2.1,3.3,3.1,2.4,2.1,5.1,3.7,8,5.1.5.2,1.1,0,1.5.6.4.5,1.3.6,1.9.8.6.2,1.3.3,1.8.7,2.2,1.4,4.8,1.7,7.3,2.2,1.2.3,2.5.5,3.8.6,1.3.1,2.5.3,3.5.1.6-.1,1-.4,1.2-.6.2-.2.2-.4.5-.8.2-.4,0-1.1.7-1.7.2-.2-.1-.9,0-1.3.1-1.1.4-2.2.5-3.2.3-1.5.6-3,.8-4.5.1-.9,0-1.9.1-2.8.1-1,.3-1.9.5-2.9.3-1.2.7-2.4.9-3.4.2-1.1-.2-2-.2-2.8,0-.7-.4-1.4-1.1-1.8-.7-.5-1.5-.7-2.4-.8-.4,0-.9,0-1.3,0-.5,0-.7.1-1.8.2-.9,0-1.7-.2-2.3-.5-.6-.3-1.2-.6-1.7-.8-.6-.3-1-.7-1.4-1-.4-.3-.7-.5-.9-.5,0,0-.3-.3-.7-.6-.4-.3-.8-.6-.9-.9,0-.1,0-.3.1-.4.5-.6,1.6-1.1,2.5-1.1.9,0,1.7.2,2.4.6.9.6,1.7,1.1,2.3,1.3.3,0,.5.1.7,0,0,0,.2,0,.4,0,.2,0,.3,0,.5,0,.3,0,.6,0,.9,0Z"/>
  </g>
  <g>
    <path d="M396,330.6c5.4,8.2,14.8,12.7,24,16.3,3.8,1.5,7.7,2.9,11.8,3.1s8.4-.8,11.3-3.6c-2,8.8-8.9,17.1-17.9,18-6.4.7-12.6-2.2-18.5-5.1-6.8-3.3-13.9-7-17.7-13.5,1.5-1.6,2.6-3.7,2.9-5.8" fill="#aaca60"/>
    <path d="M393.4,348.5c1.3,1.4,2.9,2.7,4.6,3.8.6.4,1.1,1,2.1,1,.5,0,.8.9,1.4,1.2,1.7.9,3.4,1.8,5.1,2.6,1.7.8,3.5,1.4,5.2,2.1,1.7.7,3.3,1.7,5,1.8,1.5.2,2.6.9,4,1,1.4,0,2.9,0,4.2,0,1,0,2,0,3-.4.6-.3,1-.8,1.6-1.1.6-.2,1.3-.4,1.5-1.2,0,0,.3-.1.5-.1.8,0,1.5-.6,1.7-1.2.3-.6.6-.9,1-1.2,1-1,1.9-2.2,2.7-3.3.3-.4.7-.9,1-1.3.1-.2,0,0,.1-.1h0c0,0,0,0,.1-.1,0,0,0-.2,0-.2,0,0,0-.1.3-.4.3-.3.5-.6.6-.8v-.2s0,0,0,0c0,0-.1.1-.2.2,0,0,0,0-.3.2-.1.1-.3.3-.5.6,0,0,0,0,0,0,.2-.5-.3-.2-.5,0,0,0-.3.2-.5.3-.2,0-.5.2-.7.3-.5.2-1,.3-1.6.3-2.2,0-4.4,0-6.5-.3-.6,0-1.1-.4-1.7,0-.2.1-.8,0-1-.2-1.3-1-2.9-1.1-4.4-1.8-1.6-.7-3.3-1.1-4.7-2.2-.6-.5-1.5-1-2.5-.8-.5,0-1.1-.5-1.8-.7-.5-.2-1.1-.2-1.5-.4-.4-.2-.7-.6-1.1-.9-.1,0-.2-.2-.4-.2-2.6-.6-4.4-2.7-6.6-4.1-2.3-1.4-4.3-3.2-6-5.3-.5-.6-.9-1.2-1.2-1.9-.3-.7-.3-1.4-.2-2.1.2-.6.6-.9,1.3-.7.4.2.9.5,1.2.8.6.5,1.1,1.1,1.7,1.5,1.2,1,2.6,1.6,3.6,2.9.3.4,1,.5,1,1.1,0,0,.1.3.2.3,2.2.6,3.7,2.2,5.7,3.2,1.7.8,3.6,1.1,5.2,2.1,1.2-.2,2.3.4,3.2,1,3.2,2,6.9,3,10.3,3.8,1.7.4,3.5.6,5.2.4.8,0,1.7-.2,2.5-.4h.2s.2,0,.2,0c.2,0,.4-.1.6-.2.4-.1.9-.4,1.3-.5.1,0,.2,0,.3-.2l.4-.2.7-.5.4-.2.5-.4,1-.8c.6-.5,1.5-1.3,2.3-2.1.4-.4.9-.8,1.3-1.3.5-.4,1-.9,1.5-1.3,0,.2-.1.5-.2.8,0,.2,0,.3-.1.4,0,.1-.1.3-.2.4-.2.4-.3.9-.4,1.1,0,.2,0,.3,0,.4,0,0,0,0,0,.1h0s0,.3,0,.3c0,.2,0,.3-.1.5-.2.6-.3,1.2-.4,1.8-.1.6-.3,1.2-.5,1.8-.5,1.2-1,2.4-1.4,3.5l-.8,1.7c-.3.6-.5,1.1-.8,1.7l-.7,1.2c-.2.4-.4.7-.6,1-.4.7-.9,1.3-1.4,2-2.1,2.4-4.6,4.6-7.5,6.2-1.7,1-3.6,2-5.7,2.1-.4,0-.9.2-1.3.2-.5,0-.9,0-1.3-.3-.2-.2-1.1.3-1.6.3-1.4,0-2.8-.3-4.1-.6-1.9-.4-3.6-1.1-5.3-1.7-1-.4-2.2-.6-3.2-1-1.1-.4-2.1-.9-3.1-1.5-1.2-.7-2.4-1.5-3.7-2.2-1.3-.7-2.8-1.2-3.9-2.2-2.1-1.8-4.5-3.1-6.5-5.1-.9-.9-1.7-1.7-2.5-2.7-.2-.2-.4-.5-.6-.7l-.3-.4c-.1-.2-.3-.4-.4-.6-.5-.8-1.1-1.6-1.5-2.4.3-.4.7-.8,1-1.2.5-.7,1.1-1.3,1.6-1.9.4-.5.7-1,.9-1.6,0-.3.5-.5,1-.7.5-.2,1-.3,1.2-.1,0,0,.2.2.2.3.2,1.5.4,3.3-.7,4.9l-.2.2s0,0,0,0h0c0,.1-.2.3-.2.3,0,.1.1.2.2.3,0,.1,0,.1.4.5.5.6,1,1.2,1.6,1.8Z" fill="#aaca60"/>
  </g>
  <g>
    <path d="M402.9,309.2c1.5,7-5.5,13.5-4.5,20.6.6,4.4,4.1,7.7,7.8,10.1,3,1.9,6.2,3.4,9.5,4.7,6.7,2.8,14,5.2,21.2,4.1,7.2-1.1,14.2-6.7,14.6-14,0-1.1,0-2.2-.4-3.3-.5-1.3-1.5-2.4-2.5-3.5-8.4-8.9-19.3-15.5-31.1-18.9-5-1.4-10.4-2.3-15.3-.8"/>
    <path d="M416,306.8c2.4.6,4.8,1.4,7.1,2.2.9.3,1.7.9,2.7.8.5,0,1.1.9,1.9,1.2,2.1.9,4.2,2,6.2,3.1,2,1.1,4,2.1,5.9,3.4,1.9,1.2,3.5,2.9,5.3,4.1,1.6,1,2.5,2.5,3.8,3.7.7.6,1.4,1.3,2.1,2,.7.8,1.4,1.7,1.8,2.9.6,1.7.5,3.4.5,4.9,0,.5,0,.9,0,1.4,0,.5,0,1-.2,1.5-.2.5-.4.9-.6,1.4-.2.5-.3.9-.2,1.5,0,0-.3.4-.5.6-.9.7-1.5,1.7-1.9,2.5-.3.8-.9,1.3-1.4,1.9-1.5,1.5-3.3,2.7-5.2,3.5-1.4.6-3,.9-4.5,1.2-1.6.3-3.3.8-4.7.5-1.5-.3-2.8-.3-4.2-.5-.8,0-1.6-.5-2.4,0,0,0-.4,0-.5,0-2-1.2-4.4-.8-6.5-1.7-2.1-.9-4.3-1.7-6.5-2.5-.6-.2-1.1-.7-1.8-.5-.2,0-.9-.2-1.1-.4-1.3-1.3-3.1-1.7-4.6-2.7-1.7-1.1-3.7-2-5-3.8-.6-.8-1.3-1.7-2.5-2.2-.5-.2-1-1.3-1.5-2-.4-.6-.9-1.1-1.2-1.7-.2-.6-.2-1.2-.2-1.9,0-.2,0-.4-.1-.6-.6-1.7-.5-3.5,0-5.1.4-1.6,1.1-3,1.6-4.4.9-2.9,2.3-5.4,2.9-7.8.3-1.3.6-2.5,1.5-3.7.4-.5,1-.7,1.4,0,.2.2.3.5.4.8,0,.3.2.6.2.9,0,1,0,2,0,3-.3,2-.5,4-1.5,5.7-.3.5-.3,1.3-1,1.5,0,0-.2.2-.2.4-.1,1.3-.5,2.5-.8,3.6-.4,1.1-.6,2.2-.5,3.3,0,.9.4,1.7.8,2.5.4.8.9,1.5,1.4,2.3,1.1.4,1.8,1.3,2.6,2.2,1.2,1.5,3,2.7,4.8,3.7,1.8,1,3.8,1.8,5.7,2.7,4,1.8,8,3.3,12.1,4.1.7.1,1.4,0,2.1.3.7.4,1.8.3,2.6.3.4,0,.8,0,1.2,0,.4,0,.8,0,1.2,0,3.2.5,6.3-.9,8.9-2.6,2.6-1.6,4.8-4.1,5.5-7,.4-1.7.2-3.6-.1-4.9-.2-.6-.8-.9-.8-1.9,0-.3-.9-.5-1.3-.9-.5-.5-1-1-1.5-1.5l-1.5-1.5c-1.4-1.3-2.9-2.6-4.5-3.8-1-.7-2.1-1.2-3.1-1.8-.5-.3-1.1-.7-1.6-1-.5-.3-1-.7-1.5-1-1.3-.9-2.6-1.8-3.9-2.6-1.4-.8-3.1-1.3-4.4-2.2-2.5-1.6-5.3-2.4-8.1-3.2-2.8-.8-5.6-1.5-8.3-1.4-1.5,0-3-.4-4.5,0-.7.1-2-1-1.9-1.6,0-.1.1-.2.2-.3,1.5-.9,3-1.9,5.1-1.9,3,0,5.8.4,8.6,1.1Z"/>
  </g>
  <g>
    <path d="M345.4,285.3c-19.5-.3-38-13.8-44.3-32.2-1.4-4.1-2.2-8.6-1.2-12.8,2.5-9.7,14.4-14.5,24.2-12.2s17.5,9.6,24,17.1c5,5.8,9.5,11.8,13.7,18.2-8.7,3.5-15.8,10.8-19.1,19.6" fill="#aaca60"/>
    <path d="M350.7,268c1.1-1.1,2.4-2,3.7-2.9.7-.4,1.3-.9,2-1.3l1-.6c.2,0,.3-.2.5-.3h.3c0-.1,0-.2,0-.2.2,0,.3-.1.5-.2,0,0,.1,0,.1-.1,0,0-.2-.2-.4-.2-.2,0-.1,0,0-.2,0-.1.2-.2,0-.5-1.6-2.2-3.1-4.5-4.8-6.6-1.6-2.1-3.5-4-5.2-6-1.7-2-3.3-4.2-5.2-5.8-1.7-1.4-2.7-3.1-4.3-4.4-1.7-1.4-3.5-2.7-5.1-4-1.1-1-2.4-1.9-3.7-2.6-.9-.3-1.8-.4-2.7-.8-.4-.2-.9-.4-1.3-.6-.5-.1-.9-.2-1.4,0,0,0-.4-.2-.6-.3-.4-.3-.9-.5-1.5-.6-.5-.1-1-.1-1.4,0-.8.2-1.5.1-2.2.1-2,0-4,.4-5.9.9-1.5.4-2.9.8-4.3,1.5-1.4.8-2.5,2-3.7,2.8-1.1.9-2,2-2.5,3.3-.2.4-.4.7-.5,1.1-.1.4-.2.8,0,1.2,0,0,0,.4-.1.5-.6,1-.7,2.2-.5,3.4.2,1.2.5,2.3.7,3.5.1,1.2.5,2.5.9,3.7.4,1.2,1,2.4,1.5,3.6.3.6.5,1.4,1.2,1.8.2.1.6.8.6,1.1.2,1,.7,1.9,1.2,2.7.5.9,1.2,1.6,1.7,2.5.6,1,1.4,1.8,2.1,2.7.7.9,1.5,1.7,2.1,2.7.5.9,1.4,1.8,2.7,2.2.3,0,.6.4.9.7.3.3.7.6,1,.9.6.4,1.3.6,1.8,1,.5.3.8.8,1.2,1.3.1.1.3.2.5.3.4.2.8.3,1.1.5.4.2.7.4,1.1.6.7.4,1.4.9,2.1,1.3,1.4.8,2.8,1.7,4.5,2.2,1.6.6,3.2,1,4.8,1.5,1.6.4,3.3.9,4.9,1.1,1.8.4,3.7.6,5,1.8.6.5.6,1.1-.3,1.4-.6.2-1.3.4-2.1.4-1.2,0-2.3,0-3.4,0-1.2,0-2.3-.1-3.5-.3-.6,0-1.2-.1-1.8-.3-.6-.2-1.1-.4-1.7-.6-.7-.3-1.7-.2-2.1-1,0,0-.3-.2-.5-.3-.8-.1-1.6-.3-2.4-.5-.8-.3-1.5-.6-2.3-1-1.5-.7-2.9-1.7-4.3-2.5-1.2-.7-2.4-1.4-3.6-2-1.2-.7-2.3-1.5-3.3-2.5-1.6-.6-2.9-1.9-3.8-3.2-3.4-4.5-6.9-8.8-9.2-14-1.1-2.6-2.1-5.3-2.8-8.1-.6-2.8-.9-5.9-.4-8.9,0-.5.1-1,.2-1.5.1-.5.3-1,.6-1.6.7-1,1.1-2.4,1.9-3.6.7-1,1.4-2.1,2.4-2.8,1.9-1.4,3.9-2.6,6-3.6,2.1-1,4.3-1.7,6.6-2,2.3-.3,4.6-.4,6.8,0,2.3.3,4.5.9,6.6,1.6,2.6.9,5.2,1.9,7.4,3.5.9.7,2.1,1.1,2.7,2.3.1.3,1.3.6,1.9,1.1,1.4,1.1,2.8,2.4,4.1,3.7,1.8,1.8,3.5,3.7,5.1,5.5,1,1.1,2.2,2.1,3.2,3.3,1.1,1.2,2.1,2.5,3,3.7,1.2,1.6,2.2,3.4,3.3,5,.6.9,1.2,1.7,1.9,2.6.3.4.6.8.9,1.3.5.8,1,1.6,1.4,2.3l1.1,2v.2c.1,0,.2,0,.2,0h0s-.1,0-.1,0l-.6.2-1.1.5-2.2.9-.9.4c-.2,0-.4.2-.6.3-1.5.8-2.9,1.8-4.3,2.9-1.4,1-2.7,2.2-3.9,3.5-1.2,1.3-2.3,2.6-3.2,4.1-1,1.6-2.3,3-3.1,4.7-.3.8-2.2,1.4-2.5.9,0-.1,0-.3,0-.4.3-2,.5-4.1,1.8-6.1,1-1.5,2-2.9,3.1-4.3,1.1-1.4,2.4-2.6,3.7-3.8Z" fill="#aaca60"/>
  </g>
  <g>
    <path d="M400.4,304.9c2.3-5,5-9.7,8.2-14.1.5-.7,1.1-1.5,1.9-1.9.7-.4,1.6-.4,2.4-.4,11.7-.5,23.4-1,35.1-1.5,2.7-.1,5.4-.2,8,.5,7.8,2.2,11.7,12.1,8.9,19.7s-10.5,12.6-18.5,13.8-16.1-.7-23.7-3.5c-7.6-2.8-14.9-6.4-22.6-8.8" fill="#aaca60"/>
    <path d="M414.5,312.2c2.4,1,4.8,2.1,7.2,2.9.9.3,1.7.9,2.8.7.6,0,1.2.8,2.1,1.1,2.3.7,4.6,1.4,6.9,1.8,2.3.4,4.5.4,6.8.4,2.2,0,4.5.1,6.5-.6,1.7-.6,3.4-.6,4.9-1.4,1.6-.8,3.2-1.8,4.8-2.6,1.1-.6,2.3-1.3,3.1-2.3.5-.7.7-1.4,1.2-2.1.5-.6,1.2-1.3.9-2.2,0,0,.2-.3.4-.4.3-.3.6-.7.8-1.1.1-.4.2-.8.1-1.2-.2-.7,0-1.2,0-1.9.1-1.7,0-3.4-.4-5-.3-1.2-.6-2.5-1.2-3.6-.3-.6-.8-1.1-1.2-1.6-.5-.5-.9-1-1.3-1.4-.3-.5-.8-.9-1.3-1.3-.5-.3-1-.6-1.6-.8-.6-.2-1.4-.7-2-.2,0,0-.3,0-.4,0-.9-.5-2-.5-3.1-.4-1.1.2-2.2.4-3.4.4-2.4-.1-4.9.1-7.3.3-.7,0-1.4-.1-1.9.4-.2.2-.9.2-1.2.1-1.8-.6-3.7,0-5.6-.1-2.1,0-4.2.4-6.4,0-.9-.2-2.1-.2-3.2.4-.5.3-1.5,0-2.3.2-.6,0-1.2.4-1.9.4-.5,0-1.1-.2-1.6-.3-.2,0-.4,0-.5,0-1.4.4-3.5.4-3.6.4-.1,0-.5.2-.9.7-.4.5-.9,1.2-1.3,1.8-1.6,2.6-3.2,5.2-4.7,7.8-.8,1.5-1.8,2.9-3.3,3.5-.7.3-1.2,0-1.2-.8,0-.6,0-1.3.3-1.8.4-.9.7-1.9,1.1-2.8.8-1.9,1.3-3.9,2.7-5.6.4-.5.6-1.3,1.3-1.5.1,0,.3-.2.3-.4.2-.7.5-1.3.9-2,.4-.6.8-1.3,1.5-2,.4-.3.8-.7,1.3-.9.5-.3,1.1-.4,1.5-.5,1-.1,1.7,0,2.4-.2,2.4-.2,4.7-.9,7.1-.7,1.3-.7,2.9-.6,4.2-.5,4.7.5,9.5-.2,14.2-.3,2.4,0,4.8-.2,7.2-.3,2.4,0,4.8-.3,7.5,0,.9.1,1.8-.1,2.8.4.5.3,1,.5,1.6.7.6.3,1.2.5,1.7.8.5.3,1,.6,1.5.9.4.4.9.7,1.2,1.1,1.3,1.7,2.5,3.5,3.3,5.4.9,1.9,1.5,3.9,1.6,6,.2,2.1,0,4.2-.6,6.2-.6,2-1.4,3.9-2.5,5.7-1.3,2.1-2.9,4.2-5,5.6-.4.3-.8.7-1.3,1-.4.3-1,.6-1.6.6-.3,0-1,.9-1.6,1.2-1.5.8-3.1,1.4-4.7,1.8-2.3.7-4.6,1-6.9,1.2-1.4.1-2.8.4-4.2.3-1.5,0-3-.2-4.4-.5-1.8-.4-3.6-.9-5.3-1.5-1.8-.5-3.8-.9-5.4-1.7-3-1.6-6.1-2.6-9.1-3.9-3-1.3-5.9-2.6-8.9-3.6-1.7-.6-3.1-1.6-4.7-2.2-.8-.2-1.4-2-.9-2.4,0,0,.3-.1.4-.1,1.8,0,3.6,0,5.5.7,2.8,1.1,5.6,2.2,8.3,3.4Z" fill="#aaca60"/>
  </g>
  <path d="M352.7,405.7c-1.9,2.9-3.7,5.8-5.6,8.7-1.9,2.9-4,5.7-6.1,8.5-1.6,2.1-3.4,3.9-4.8,6.3-.7,1.2-2.8,2.6-4.4,4.4-2.2,2.4-4.5,4.7-6.8,6.9-2.4,2.2-4.8,4.4-7.3,6.5-5,4-10.3,7.6-16.1,10.3-5.8,2.7-12.2,4.3-18.1,5.8-1.3.3-2.6.6-3.8.7-1.3.1-2.5.2-3.8.3-.6,0-1.2.1-1.9.1h-1.9c-1.2,0-2.5,0-3.8.1-5.4,0-11-.4-16.1-1.8-1.9-.5-3.7-1.1-5.5-1.6-1.8-.6-3.6-1.3-5.4-1.8-1.1-.4-2.2-.8-3.3-1.2-1.1-.4-2.3-.8-3.4-1.4-1.1-.5-2.2-1.2-3.3-1.7-1.1-.6-2.2-1-3.2-1.3-.2,0-1.1-.6-1.5-1-1-.8-2.2-1.6-3.4-2.3-1.2-.7-2.3-1.3-3.3-1.8-1.9-.8-3.5-1.9-5.1-2.9-4.5-2.9-8.9-6-13.1-9.2-3.1-2.4-6.1-5.1-9.1-7.6-3.2-2.7-6.7-5.3-9.4-8-2.7-2.7-5.4-5.2-8.2-7.7-1.6-1.4-3.2-3.3-4.9-4-.2,0-.7-.6-1-.9-3.9-4.7-8.9-8.2-13-12.9-2.1-2.4-4.2-4.9-6.2-7.5-2-2.6-4-5.2-5.8-7.9-.9-1.5-1.8-3.1-3-4.3-.4-.4-1.4-2-1.6-2.9-1.7-4.6-4-9.2-5.2-14.1-1.4-5.5-2.5-11.3-2-17.1,0-1.2.3-2.7.4-4.2.2-1.5.2-3.1.2-4.6,0-1.4.9-4.1,1.5-6.2.3-.8.5-1.7.7-2.5.3-.8.6-1.6.9-2.5.3-.7.7-1.3,1.1-2,.4-.6.8-1.2,1.3-1.9.3-.4.6-.8.8-1.2.5-.9,1-1.9,1.7-2.8.7-.9,1.3-1.7,2-2.5.7-.8,1.5-1.5,2.3-2.3.4-.4.8-.7,1.2-1.1l1.3-1,1.3-1,.6-.5.7-.4,2.7-1.7c1.9-.9,3.8-2,5.8-2.8,1.9-.9,4-1.5,6.1-2.2,2.1-.5,4.2-1,6.4-1.2,4.3-.5,8.7-.4,13,.5,4.7.9,9.4,2.9,11.5,5.5,1,1.1.7,1.6-1.1,1-.7-.2-1.4-.5-2.1-.7-.7-.2-1.5-.4-2.2-.7-.6-.2-1.2-.4-1.8-.6-.6-.1-1.2-.3-1.8-.4-.6-.1-1.2-.3-1.8-.4-.6,0-1.2-.1-1.8-.2-5-.6-10,0-15.2.8-.8.1-1.7.3-2.5.6-.8.2-1.6.4-2.3.4-.2,0-.9.1-1.1.3-1.5.9-3.2,1.5-4.7,2.5-.8.4-1.6.8-2.3,1.3l-2.2,1.4c-2.9,2-5.7,4.2-7.8,7-1.9,2.3-3.3,4.9-4.4,7.6-1.1,2.7-1.9,5.5-2.8,8.4,0,3.4-.6,7.1-.8,10.5-.4,5.9.7,11.9,2.4,17.7,1.9,5.7,4.6,11.1,7.8,16.3,6.5,10.5,15.2,19.5,24.3,28,1.6,1.5,3.1,2.4,4.8,4.3,1.6,1.8,4,3.7,6,5.5,1.9,1.7,3.9,3.3,5.6,5,7,6.9,14.9,12.8,22.9,18.5,4,2.9,8,5.6,12.2,8.1,4.2,2.5,8.4,4.9,12.8,6.9,5.4,2.5,10.8,4.2,16.5,5.6,1.2.3,2.5.4,3.7.7.6.1,1.3.2,1.9.4.6.2,1.2.3,1.8.5.3.1,1.1.1,2,.1.9,0,1.9,0,2.7,0h3c.5,0,1,.1,1.5.1h1.5c0,0,3-.2,3-.2,1,0,2-.2,3-.3,2.8-.2,5.5-.8,8.2-1.2l4-1,1-.3,1-.3,2-.7c.8-.3,1.6-.5,2.4-.9l2.3-1.1,2.3-1.1,2.2-1.2,2.4-1.2,2.3-1.4,2.3-1.3c.7-.5,1.5-1,2.2-1.5.9-.6,1.9-1.2,2.8-1.9l2.7-2,1.3-1,1.3-1.1c.9-.7,1.7-1.5,2.6-2.3,3.5-3.2,6.7-6.9,9.9-10.1,6-6,10.9-12.9,15.4-20,4.6-7.1,9.3-14.2,13.7-21.4,2.5-4.1,5.2-7.5,7.7-11.5,1.1-1.9,3.9-3.6,3.9-2.6,0,.2-.1.6-.3.9-2,4.2-3.6,8.2-6.4,12.6-4.2,6.5-8.4,13.1-12.7,19.6Z"/>
  <path d="M340.2,340.5c-1.3,1.1-2.5,2.2-3.7,3.3-.4.4-1.1.7-1.2,1.5,0,.4-.9.3-1.3.8-1.1,1.1-2.3,2.1-3.4,3.2-1.1,1.1-2,2.3-3,3.4-1,1.1-2.3,2-3.1,3.2-.7,1.1-1.8,1.5-2.6,2.5-.8,1-1.7,2-2.7,2.7-.8.5-1.5,1-2.1,1.7-.3.4-.5,1-.9,1.5-.4.4-1.1.7-1,1.5,0,0-.3.2-.4.2-.7.2-1.2.7-1.4,1.3-.2.5-.5.8-.8,1.2-.9.9-1.8,1.9-2.7,2.7-.7.7-1.5,1.2-2.3,1.8-.7.7-1.3,1.6-2.2,2.1-.9.4-1.5,1.1-2.1,1.7-.4.4-1,.6-.8,1.3,0,0-.1.2-.2.2-1.6.5-1.9,2.3-3.1,3.2-1.2.9-2.3,2.2-3.4,3.3-.3.3-.7.5-.7,1.1,0,.2-.3.5-.5.6-1.3.4-1.9,1.5-2.8,2.2-1,.9-1.8,2-3.2,2.6-.6.3-1.2.7-1.3,1.6,0,.4-.7.7-1,1.1-.3.3-.4.8-.7,1.1-.2.2-.7.3-1,.5,0,0-.2.1-.2.2-1,1.8-3.1,2.5-4.5,4-1.4,1.5-3,2.8-4.6,4-.9.7-1.9,1.3-3.2.8-.6-.2-.9-.6-.8-1.2.1-.4.3-.8.5-1.1.4-.5.8-1,1.2-1.4.9-.9,1.5-2.1,2.7-2.8.4-.2.5-.7,1.1-.6,0,0,.2,0,.3-.1.4-.9,1-1.5,1.7-2.1.7-.6,1.4-1.1,2.1-1.7,1.1-1.1,1.7-2.5,3-3.4.2-1,1-1.6,1.7-2.1,2.7-1.6,4.5-4,6.7-6.1,2.2-2.1,4.3-4.3,6.5-6.5.4-.4.4-.9,1.1-1.2.6-.2,1-.9,1.4-1.4.4-.4.8-1,1.3-1.3,2.2-1.2,3.6-3.3,5.3-4.9,1.7-1.7,3.5-3.3,5-5.2,1-1.1,1.7-2.4,2.9-3.3.5-.4.7-1.1,1.6-1.1.2,0,.3-.7.6-1,.7-.7,1.4-1.4,2.1-2.2,1-1,2-2,3-3,.6-.6,1-1.4,1.6-2,.6-.7,1.2-1.3,1.9-1.9.9-.7,1.8-1.4,2.7-2.1.9-.8,1.6-1.8,2.6-2.4,1.9-1,3.2-2.7,4.9-4,1.6-1.3,3.2-2.7,4.7-4.1.9-.8,2-1.1,2.9-1.8.4-.3,1.9.4,2,.9,0,.1,0,.2,0,.3-.6,1.1-.9,2.3-1.9,3-1.5,1.1-2.9,2.4-4.3,3.6Z"/>
  <path d="M346.9,287c0,.9-.2,1.7-.2,2.6,0,.3-.3.6.2,1,.3.2-.4.4-.4.7,0,.8-.2,1.6-.2,2.4,0,.8.2,1.6.2,2.4,0,.8-.3,1.5,0,2.3.2.7-.3,1.2-.2,1.8,0,.7.1,1.3-.2,2-.2.5-.4.9-.4,1.4,0,.3.4.6.3.9,0,.3-.3.6.3.9,0,0,0,.1-.2.2-.4.3-.4.7-.2,1,.3.3.2.5.2.7,0,.7,0,1.3,0,2,0,.5-.3,1-.4,1.5,0,.5.2,1.1-.1,1.5-.3.5-.3.9-.3,1.4,0,.3-.3.6.3.8,0,0,0,.1,0,.2-.9.7.2,1.5,0,2.3-.2.8-.1,1.6,0,2.4,0,.2-.2.4.3.6.2,0,.2.3,0,.4-.6.6-.3,1.2-.4,1.8-.1.7.2,1.4-.3,2.1-.2.3-.3.7.3,1.1.3.2,0,.5,0,.8,0,.2.3.4.3.6,0,.2-.2.4-.3.5,0,0,0,.1,0,.2.7,1-.2,2,0,3,.2,1,.1,2.1,0,3.1,0,.6-.2,1.2-1.4,1.6-.5.2-1.1.2-1.4,0-.2-.2-.5-.4-.5-.6-.1-.3-.2-.6-.3-1-.2-.7-.8-1.3-.5-2,0-.2-.2-.5.3-.6,0,0,.1-.1,0-.2-.8-.9-.3-1.9-.3-2.8,0-.8-.7-1.6-.4-2.4-.6-.4-.5-1-.3-1.4.7-1.6.2-3.1.4-4.7.1-1.6,0-3.2.2-4.8,0-.3-.3-.5,0-.8.3-.3,0-.7,0-1,0-.3-.1-.7,0-1,.7-1.2.4-2.5.5-3.7.1-1.2.3-2.5.2-3.7,0-.8-.4-1.5-.2-2.3,0-.3-.2-.7.4-1,.2,0-.3-.4-.3-.6,0-.5,0-1,0-1.6,0-.7.1-1.4.1-2.2,0-.4-.2-.9-.2-1.3,0-.5,0-.9.1-1.4.1-.6.4-1.1.5-1.7.1-.6-.1-1.3.2-1.8.6-1,.4-2.1.6-3.2.2-1.1.3-2.1.3-3.2,0-.6.6-1.1.6-1.7,0-.3,1.5-.5,2-.3,0,0,.2,0,.2.1.4.6,1.1,1.2.9,1.9-.2,1-.2,1.9-.3,2.9Z"/>
  <path d="M366.7,263.1c-.4.4-.8.7-1.1,1.2-.1.2-.5.1-.2.6.1.3-.5,0-.6,0-.3.4-.7.7-1.1,1.1-.3.4-.5.9-.8,1.3-.3.4-.9.5-1,1.1,0,.5-.7.4-.9.7-.2.4-.5.7-.9.9-.3,0-.7.1-.8.4,0,.2,0,.5-.1.6-.1.1-.5,0-.2.6,0,0-.1,0-.2,0-.4-.2-.6,0-.5.4,0,.3,0,.4-.1.5-.3.3-.6.6-.9.9-.3.2-.6.2-.9.4-.3.2-.3.6-.7.6-.4,0-.6.2-.8.4-.1.1-.5,0-.1.6,0,0,0,0,0,0-.9-.3-.5.8-1,1-.5.2-.8.7-1.1,1,0,0-.3,0,0,.5,0,.1,0,.3-.1.2-.7-.2-.7.4-1,.6-.4.2-.4.7-1.1.7-.3,0-.5.1-.2.6.1.2-.2.2-.2.4,0,.1,0,.4,0,.5,0,0-.3,0-.5,0,0,0,0,0,0,0,.2.9-.9.8-1.1,1.4-.2.6-.5,1-.9,1.5-.2.2-.5.4-1.6.2-.5-.1-1-.4-1.2-.6-.2-.2-.3-.4-.3-.6,0-.2,0-.5,0-.7,0-.5-.2-1.1.3-1.4.2,0,0-.4.5-.2,0,0,.1,0,.1,0-.3-1,.5-1.2.8-1.7.3-.4.1-1.2.7-1.5-.3-.6,0-.8.4-.9,1.2-.3,1.6-1.3,2.3-2,.8-.7,1.4-1.4,2.2-2.1.1-.1,0-.5.3-.4.3,0,.3-.3.5-.4.1-.1.2-.4.4-.4,1,0,1.3-.9,1.9-1.4.6-.5,1.2-1,1.6-1.7.3-.4.4-1,.8-1.2.2-.1,0-.5.7-.2.2,0,0-.4,0-.5.2-.3.5-.5.7-.7.3-.3.7-.6,1-1,.2-.2.2-.6.3-.8.2-.2.4-.5.6-.6.3-.2.7-.3,1-.5.3-.2.4-.7.9-.8.8-.1,1.1-.8,1.7-1.2.5-.4,1-.9,1.4-1.4.2-.3.8-.2,1.1-.5.1-.1,1.3.8,1.6,1.2,0,0,.1.2.1.2,0,.6.3,1.3,0,1.6-.5.4-.9.9-1.3,1.3Z"/>
  <path d="M379.5,267.2c-.2-.1-.3-.3-.5-.4,0,0,0-.3-.4,0-.2.2.2-.4,0-.4-.2,0-.3-.3-.5-.4-.2,0-.5,0-.7-.1-.2,0-.2-.4-.5-.3-.3.1,0-.4-.3-.4-.2,0-.4,0-.4-.3,0-.2,0-.4-.1-.4,0,0-.3.2-.4.2,0,0,0-.3-.4.2,0,0,0,0,0-.2.2-.4,0-.4-.1-.2-.2.2-.2.1-.3.1-.2,0-.3-.1-.4-.3,0-.1,0-.4-.1-.5,0-.1-.3,0-.3-.3,0-.3,0-.4-.2-.4,0,0,0-.3-.3.2,0,0,0,0,0,0,.2-.8-.4,0-.5-.2,0-.3-.3-.2-.5-.3,0,0,0-.2-.3.2,0,.1-.1.1-.1,0,.1-.6-.2-.4-.2-.5-.1-.2-.4,0-.3-.5,0-.2,0-.4-.3.1-.1.2-.1,0-.2,0,0,0-.2.3-.3.3,0,0,0-.2,0-.4,0,0,0,0,0,0-.5.5-.4-.4-.7-.3-.3,0-.5,0-.7-.2-.1,0-.2-.3,0-1.4.1-.5.3-1,.4-1.3.1-.2.2-.4.3-.5.1,0,.2-.2.4-.2.2-.1.6-.6.7-.2,0,.1.2-.2,0,.3,0,0,0,.1,0,0,.5-.7.6,0,.8,0,.2,0,.7-.5.8-.1.4-.5.5-.4.5-.1.1.8.7.6,1.1.8.4.3.8.4,1.2.7,0,0,.3-.2.2,0,0,.3.1.1.2.2,0,0,.2,0,.2.2,0,.8.5.6.7.8.3.3.5.5.9.6.2,0,.6-.1.7.1,0,0,.3-.1,0,.4,0,.2.3-.2.3-.1.1,0,.2.2.4.3.2.1.3.3.5.4.1,0,.4,0,.5,0,.1,0,.2.1.3.3,0,.2,0,.4.2.6,0,.2.4,0,.3.4-.1.6.3.6.4.9.2.3.4.5.7.6.2,0,0,.5,0,.6,0,0-1,1.1-1.4,1.4,0,0-.2.1-.2.1-.4.2-1.1.6-1.1.5-.1-.2-.3-.4-.5-.5Z"/>
  <path d="M365,282.6c.2-.3.5-.7.6-1,0-.1.4-.1,0-.6-.2-.2.4,0,.5-.1.1-.4.4-.6.6-1,.2-.3.2-.8.3-1.1.2-.3.6-.5.6-1,0-.4.5-.4.6-.7,0-.3.2-.6.6-.8.3,0,.6-.1.6-.4,0-.2-.2-.4,0-.6.1-.1.4,0,0-.5,0,0,0,0,.2,0,.4.1.5,0,.4-.3-.1-.3,0-.3,0-.4.2-.3.3-.5.6-.8.2-.2.5-.2.7-.4.2-.2.1-.5.5-.5.4,0,.5-.2.6-.3,0,0,.4,0,0-.5,0,0,0,0,0,0,.9.2.2-.7.6-.9.4-.2.5-.6.8-.9,0,0,.3,0,0-.4-.1-.1,0-.2,0-.2.7.2.6-.3.8-.4.3-.2.3-.6.9-.6.2,0,.5,0,.1-.6-.2-.2.2-.2.2-.3,0-.1-.1-.4,0-.4,0,0,.3,0,.4,0,0,0,0,0,0,0-.2-.8.8-.6,1-1.1.2-.5.6-.8,1-1.1.2-.2.6-.2,1.5.4.4.3.8.7,1,1,.1.2.2.4.2.6,0,.2,0,.4,0,.6,0,.4.1.9-.3,1-.1,0,0,.3-.4,0,0,0-.1,0-.1,0,.3.8-.4.8-.6,1.2-.2.3,0,1-.4,1.1.3.6.1.7-.2.7-1,.1-1.1.9-1.6,1.4-.5.5-.9,1.1-1.4,1.7,0,0,.1.4-.2.3-.3,0-.2.2-.3.3,0,.1,0,.3-.3.3-.9,0-.9.7-1.3,1.2-.4.4-.8.8-1,1.4-.1.3,0,.8-.4,1-.1,0,0,.4-.5.2-.2,0,.1.3,0,.4,0,.2-.3.4-.4.6-.2.3-.4.5-.5.8,0,.2,0,.5,0,.7,0,.2-.2.4-.4.5-.2.2-.5.3-.7.5-.2.2-.1.6-.5.7-.7.1-.7.7-1.1,1.1-.3.4-.6.8-.8,1.3,0,.3-.6.2-.8.5,0,.1-1.4-.5-1.8-.8,0,0-.2-.1-.2-.2-.3-.5-.7-1.1-.5-1.3.3-.4.5-.8.8-1.2Z"/>
  <path d="M391.4,268.8c-.2,0-.3-.2-.5-.2,0,0,0-.3-.3.2-.1.2,0-.4,0-.4-.2,0-.3-.1-.5-.1-.2,0-.4.2-.5.2-.2,0-.2-.3-.4,0-.2.2-.2-.3-.3-.2-.2,0-.3.1-.4-.1,0-.2,0-.4-.2-.3,0,0-.2.4-.2.3,0,0,0-.3-.2.3,0,0,0,0,0-.2,0-.4,0-.4-.2-.1,0,.3-.1.2-.2.2-.1,0-.2,0-.4,0,0,0-.2-.3-.2-.4,0,0-.2.2-.3-.1,0-.3-.2-.3-.3-.3,0,0,0-.3-.2.3,0,0,0,0,0,0-.1-.8-.3.3-.4,0-.1-.2-.3,0-.5,0,0,0,0-.2-.1.3,0,.2,0,.2,0,0-.1-.6-.2-.2-.4-.3-.1-.1-.2.2-.4-.3,0-.2-.2-.3-.2.3,0,.3,0,0-.1,0,0,0,0,.3,0,.3,0,0,0-.2-.1-.3,0,0,0,0,0,0,0,.7-.4-.2-.6,0-.2.2-.4.2-.6.1-.1,0-.3-.2-.6-1.3-.2-.5-.3-1-.3-1.4,0-.2,0-.5,0-.5,0-.1,0-.3.2-.4.1-.2.2-.8.4-.5,0,0,0-.2.2.3,0,0,0,.1,0,0,0-.8.4-.3.6-.4.2,0,.3-.7.5-.5,0-.6.2-.5.3-.4.4.6.8.2,1.2.2.4,0,.8,0,1.2,0,0,0,.1-.3.2,0,0,.3.2,0,.3,0,0,0,.2-.1.2,0,.2.7.6.3.9.4.3.1.6.2.9.1.2,0,.4-.4.6-.2,0,0,.2-.2.2.4,0,.2.2-.3.2-.3.1,0,.3,0,.4,0,.2,0,.3.1.5.1.1,0,.3-.2.4-.2.1,0,.2,0,.3.1.1.1.2.4.3.5.1.1.4,0,.4.2,0,.6.4.4.6.6.2.2.4.3.7.3.2,0,0,.5.2.6,0,0-.5,1.4-.8,1.8,0,0-.1.2-.1.2-.3.4-.7,1-.8.9-.1-.2-.3-.2-.5-.3Z"/>
  <path d="M384.6,289.2c.2-.4.4-.7.6-1.1,0-.1.4-.2,0-.6-.2-.2.4,0,.5-.2.1-.4.4-.7.5-1,.1-.4.1-.8.2-1.2.1-.4.6-.6.5-1,0-.4.5-.4.5-.7,0-.3.1-.7.5-.8.3-.1.6-.2.6-.5,0-.2-.2-.4-.1-.5,0-.1.4-.1,0-.5,0,0,0,0,.2,0,.4,0,.5-.1.3-.4-.2-.2,0-.3,0-.4.1-.3.3-.6.5-.8.2-.2.5-.3.6-.5.2-.2,0-.6.4-.6.4,0,.5-.3.6-.5,0-.1.4-.1-.1-.5,0,0,0,0,0,0,.9,0,.1-.8.5-1,.4-.2.4-.7.6-1,0,0,.3-.1,0-.4-.1-.1,0-.2,0-.2.7,0,.5-.4.7-.6.3-.2.2-.7.8-.7.2,0,.4-.1,0-.6-.2-.2.1-.2.1-.4,0-.1-.2-.3-.1-.4,0,0,.3,0,.4,0,0,0,0,0,0,0-.4-.7.7-.7.7-1.3,0-.5.4-.9.7-1.3.2-.2.5-.4,1.6,0,.5.2,1,.4,1.2.7.2.2.3.4.3.5,0,.2,0,.4,0,.6,0,.4.3.9,0,1.1-.1,0,0,.3-.4.1,0,0-.1,0,0,0,.5.8-.2.9-.4,1.3-.1.4.2,1-.2,1.2.5.5.2.7,0,.7-.9.3-.9,1.2-1.3,1.8-.4.6-.7,1.3-1.1,2,0,.1.2.4-.1.4-.3,0-.2.3-.3.4,0,.1,0,.3-.2.4-.9.2-.8.9-1.2,1.4-.3.5-.7,1-.8,1.6,0,.4,0,.8-.2,1.1-.1.1,0,.4-.5.3-.2,0,.2.3.1.4,0,.2-.2.4-.3.7-.2.3-.4.6-.5.9,0,.2,0,.5,0,.7,0,.2-.2.4-.3.6-.2.2-.5.4-.7.6-.2.2,0,.6-.5.7-.7.2-.7.8-1,1.2-.3.4-.6.9-.7,1.4,0,.3-.6.3-.8.5,0,.1-1.4-.4-1.9-.7,0,0-.2-.1-.2-.2-.3-.5-.8-1-.6-1.3.3-.4.5-.8.7-1.2Z"/>
  <path d="M410.8,282.9c-.1-.2-.2-.4-.4-.5,0,0,0-.3-.4,0-.2.1.2-.3.1-.4-.2-.1-.3-.3-.5-.4-.2-.1-.5,0-.7-.2-.2,0-.2-.5-.6-.3-.3.1-.2-.4-.4-.4-.2,0-.5,0-.5-.3,0-.2,0-.5-.2-.5-.1,0-.3.2-.4.2,0,0,0-.4-.4.2,0,0,0,0,0-.2.1-.4,0-.4-.2-.2-.2.2-.3.1-.3.1-.2,0-.4-.2-.6-.3-.1-.1-.2-.4-.3-.5-.1-.1-.4,0-.4-.3,0-.3-.2-.4-.3-.5,0,0,0-.4-.4.2,0,0,0,0,0,0,.1-.9-.6,0-.7-.3-.1-.3-.5-.3-.7-.4,0,0,0-.2-.3.1,0,.1-.2.1-.2,0,.1-.7-.3-.4-.4-.6-.2-.2-.5,0-.5-.6,0-.2,0-.4-.5,0-.2.2-.2,0-.3,0,0,0-.3.2-.3.2,0,0,0-.3,0-.4,0,0,0,0,0,0-.6.4-.5-.5-.9-.5-.4,0-.7-.2-1-.5-.2-.1-.2-.4.2-1.5.2-.5.4-1,.7-1.2.2-.2.3-.4.4-.4.1,0,.3-.1.4-.1.3,0,.7-.4.8,0,0,.1.2-.1,0,.4,0,0,0,.1,0,0,.6-.6.7,0,1,.2.3,0,.8-.4.9,0,.4-.5.5-.3.6,0,.2.8.9.7,1.3,1,.4.3,1,.5,1.4.8,0,0,.3-.2.3,0,0,.3.2.2.3.2,0,0,.3,0,.3.2,0,.8.6.6,1,.9.4.3.7.5,1.2.6.3,0,.7-.1.9.1,0,.1.4-.1.2.5,0,.2.3-.2.4-.1.2,0,.3.2.5.3.2.2.4.4.7.5.2,0,.5,0,.6,0,.2,0,.3.2.5.4.1.2.2.5.3.8.1.2.5.2.5.6,0,.7.4.9.6,1.3.2.4.4.9.7,1.3.2.2-.2.6-.2.9,0,.1-1.4.6-1.9.7,0,0-.2,0-.2,0-.5,0-1.2,0-1.2-.1,0-.2-.2-.4-.3-.6Z"/>
  <path d="M411.2,291.2c0-.1,0-.3,0-.4,0,0,.2-.1-.3-.1-.3,0,.4-.1.3-.2,0-.1,0-.3,0-.4,0-.1-.3-.2-.4-.4,0-.1.2-.3-.1-.4-.3,0,.2-.2,0-.3-.1,0-.2-.2,0-.3.2,0,.4-.2.3-.3,0,0-.4,0-.4-.1,0,0,.3-.1-.3-.1,0,0,0,0,.1,0,.4,0,.4-.2,0-.2-.3,0-.2,0-.3-.1,0-.1,0-.2,0-.3,0,0,.3-.2.3-.3,0,0-.2-.2,0-.3.3,0,.3-.2.3-.3,0,0,.3-.1-.4-.1,0,0,0,0,0,0,.8-.2-.3-.2,0-.4.2-.1,0-.3,0-.4,0,0,.2,0-.3-.1-.2,0-.2,0,0,0,.6-.1.2-.2.3-.3.1-.1-.2-.2.3-.4.2,0,.3-.1-.3-.2-.3,0,0,0,0-.1,0,0-.3,0-.3-.1,0,0,.2,0,.3,0,0,0,0,0,0,0-.7-.2.2-.3,0-.5-.2-.2,0-.4,0-.5,0,0,.2-.2,1.4-.2.5,0,1.1,0,1.4,0,.2,0,.5,0,.5.1.1,0,.2.1.3.2.2.1.7.2.4.3,0,0,.2,0-.3,0,0,0-.1,0,0,0,.8.2.3.3.3.4,0,.1.7.2.4.4.6,0,.5.1.3.2-.7.2-.2.5-.3.7,0,.2,0,.5,0,.7,0,0,.4,0,0,.1-.3,0,0,.1,0,.2,0,0,.1,0,0,.1-.6.2-.2.4-.3.6,0,.2-.1.4,0,.6.1.1.5.2.3.3,0,0,.3,0-.3.2-.2,0,.3,0,.3,0,0,0,0,.2,0,.2,0,.1,0,.2,0,.3,0,0,.3,0,.4.2,0,0,0,.1,0,.2,0,0-.3.2-.3.3,0,.1.2.2,0,.3-.5.2-.2.4-.2.5,0,.2,0,.3.1.5,0,0-.4.3-.4.3,0,0-1.4.4-1.9.4,0,0-.2,0-.2,0-.5,0-1.2,0-1.2,0,0-.2,0-.3,0-.5Z"/>
  <path d="M374.3,362.4c.7-.9,1.6-1.7,2.2-2.6.2-.3.7-.5.6-1.2,0-.3.7-.3.9-.6.6-.9,1.3-1.7,1.9-2.6.6-.9,1-1.8,1.5-2.7.5-.9,1.4-1.6,1.6-2.6.2-.9,1-1.3,1.4-2,.3-.8.8-1.6,1.4-2.2.5-.5.9-.9,1.1-1.5.1-.4,0-.8.2-1.2.2-.3.7-.6.3-1.2,0,0,.1-.2.3-.2.6-.2.8-.7.7-1.1,0-.4,0-.7.2-1,.4-.8.8-1.6,1.1-2.4.3-.6.8-1.1,1.1-1.6.3-.6.4-1.4.9-1.8.5-.5.7-1,1-1.6.1-.3.6-.6,0-1.1,0,0,0-.2,0-.2,1.2-.6.5-2,1-2.9.5-.9.8-2,1.1-3,0-.3.3-.5,0-.9-.1-.1,0-.4,0-.5.8-.6.7-1.5,1-2.2.3-.9.3-1.8,1-2.6.3-.3.5-.8,0-1.4-.2-.3.1-.7.2-1,0-.3-.2-.6-.2-.9,0-.2.3-.4.5-.6,0,0,0-.1,0-.2-.3-1.4.7-2.6.8-4,0-.7.1-1.4.2-2,0-.7.2-1.4.4-2,.1-.7.4-1.5,1.6-1.9.5-.2,1.1-.1,1.4.2.2.3.4.6.4.9,0,.5.1.9.2,1.4,0,.9.5,1.9,0,2.8-.1.3.1.7-.4.8,0,0-.1.1-.1.2.6,1.4-.1,2.6-.4,3.8-.2,1.1.2,2.2-.3,3.3.5.7.2,1.4-.1,1.9-.6,1-.9,2-1.2,3-.3,1-.5,2.1-.9,3.1l-1.1,3.1c-.4,1-.7,2.1-1.1,3.1-.1.3,0,.8-.3,1.1-.4.3-.4.9-.6,1.3-.2.4-.2.9-.5,1.2-1.3,1.3-1.6,3-2.4,4.6-.8,1.5-1.6,3-2.3,4.6-.4,1-.6,2-1.2,2.9-.3.4-.2.9-1,1-.2,0,0,.6-.2.9-.3.6-.7,1.2-1.1,1.8-.5.9-1.1,1.6-1.6,2.5-.3.5-.4,1.2-.7,1.7-.3.6-.7,1.1-1.1,1.6-.5.6-1.2,1.1-1.7,1.7-.5.6-.9,1.5-1.6,1.9-1.3.8-2,2.2-3.1,3.2-1,1.1-2,2.2-2.9,3.3-.5.7-1.4.9-2,1.4-.3.3-1.7-.4-1.9-.9,0,0,0-.2,0-.3.2-.9.2-1.9.8-2.5.5-.4.9-.9,1.4-1.4l1.3-1.5Z"/>
  <path d="M357.3,242.4c.1.4.2.7.4,1.1,0,.1-.1.4.4.3.3,0-.3.3-.2.4.2.3.2.7.4,1,.2.3.5.5.7.8.2.3,0,.7.4.9.4.2,0,.6.2.8.2.2.4.5.3.8,0,.3-.2.5,0,.7.1,0,.5,0,.5.2,0,.1-.2.4.5.2,0,0,0,0-.1.1-.3.3-.2.4,0,.4.3,0,.3.1.4.2.1.3.3.5.3.8,0,.2-.1.5,0,.7,0,.2.4.4.2.7-.2.3-.1.5,0,.7,0,.1-.2.3.5.2,0,0,0,0,0,0-.6.6.5.5.4.9,0,.4.2.7.4,1,0,0,0,.2.4.2.2,0,.2,0,.1.1-.5.5,0,.6,0,.9,0,.3.4.5,0,1-.1.2-.2.4.4.3.3,0,0,.2.2.3,0,0,.4,0,.4.1,0,0-.2.2-.2.3,0,0,0,0,0,0,.8.2.1.9.5,1.3.3.3.5.8.5,1.3,0,.3,0,.6-1,1.2-.4.3-1,.5-1.3.5-.3,0-.5,0-.6,0-.1,0-.3-.2-.5-.3-.3-.2-.9-.3-.8-.6,0-.1-.3-.1.2-.4,0,0,0,0,0,0-.9,0-.6-.7-.8-1-.2-.3-.9-.4-.8-.8-.7,0-.6-.2-.5-.4.4-.9-.3-1.4-.5-2.1-.2-.7-.5-1.3-.8-2,0-.1-.4,0-.2-.3.2-.2,0-.3-.1-.4,0-.1-.2-.2-.1-.4.4-.8-.2-1.1-.3-1.7-.1-.5-.3-1.1-.6-1.5-.2-.3-.7-.5-.7-.8,0-.2-.4-.2.1-.5.1,0-.3,0-.4-.1-.1-.2-.2-.4-.3-.6-.1-.3-.2-.6-.4-.9-.1-.2-.4-.3-.5-.4-.1-.2-.2-.4-.2-.6,0-.3,0-.6,0-.9,0-.3-.4-.4-.2-.8.3-.6,0-1-.2-1.5-.1-.5-.2-.9-.5-1.3-.2-.2.2-.6.1-.9,0-.1,1.3-.8,1.8-.9,0,0,.2,0,.2,0,.5,0,1.3,0,1.3.3,0,.4.3.8.4,1.2Z"/>
  <path d="M368.5,239.3c-.1,0-.3,0-.4,0,0,0-.2-.2-.2.3,0,.3-.1-.4-.2-.3-.2.1-.4,0-.6.2-.2.1-.3.4-.5.5-.2.1-.5-.1-.6.3,0,.3-.4-.1-.5,0-.1.2-.3.3-.5.1-.2-.1-.4-.3-.5-.1,0,0,0,.4-.1.4,0,0-.3-.2-.1.4,0,0,0,0-.1-.1-.2-.4-.3-.3-.3,0,0,.3,0,.3-.1.3-.2,0-.3.2-.5.2-.1,0-.4-.2-.5-.2-.2,0-.2.3-.4,0-.2-.2-.4-.2-.5-.1,0,0-.3-.2,0,.4,0,0,0,0,0,0-.5-.7-.3.4-.6.3-.3-.1-.4.1-.6.2,0,0-.2-.1,0,.3,0,.2,0,.2,0,.1-.4-.5-.4,0-.6,0-.2,0-.3.3-.7,0-.2-.1-.3-.2-.1.4,0,.3-.1,0-.2.2,0,0,0,.3,0,.4,0,0-.2-.2-.3-.2,0,0,0,0,0,0,0,.7-.6,0-.8.4-.2.3-.4.4-.7.5-.2,0-.4,0-1.1-1-.3-.4-.6-.9-.7-1.2,0-.2-.1-.5-.1-.5,0-.1,0-.3,0-.4,0-.3,0-.8.3-.7.1,0,0-.3.3.2,0,0,0,0,0,0-.2-.8.4-.5.6-.7.2-.2,0-.8.4-.7-.2-.6,0-.6.2-.5.7.4,1-.2,1.4-.4.5-.1.9-.4,1.4-.6,0,0,0-.4.2-.2.2.2.2,0,.3,0,0,0,.1-.2.3,0,.6.5.8,0,1.2-.1.4,0,.8-.1,1.1-.4.2-.2.3-.6.6-.5.1,0,.1-.3.4.2,0,.2,0-.3,0-.3.1,0,.3-.1.5-.2.2,0,.4,0,.6-.2.1,0,.2-.3.3-.4.1,0,.3-.1.4-.1.2,0,.5.2.7.2.2,0,.4-.3.7,0,.5.4.8.2,1.3.2.5,0,.9.2,1.5.2.3,0,.4.6.6.7.1,0-.6,1.4-.9,1.8,0,0-.1.2-.1.2-.4.3-.7,1-.7.9,0,0-.2,0-.3,0Z"/>
  <path d="M376.2,259.3c0-.4-.2-.8-.3-1.2,0-.1.2-.4-.4-.4-.3,0,.3-.3.2-.4-.2-.3-.2-.7-.4-1.1-.2-.3-.5-.6-.7-1-.2-.3,0-.8-.4-1-.4-.2,0-.6-.2-.9-.2-.3-.4-.5-.3-.9,0-.3.2-.5,0-.7-.1-.1-.5-.1-.5-.3,0-.1.2-.4-.5-.3,0,0,0,0,.1-.1.3-.3.2-.4,0-.5-.3,0-.3-.1-.4-.2-.1-.3-.3-.6-.3-.9,0-.2,0-.5,0-.8,0-.2-.4-.4-.2-.7.2-.3,0-.5,0-.7,0-.1.2-.4-.5-.2,0,0,0,0,0,0,.6-.7-.5-.6-.5-1,0-.4-.3-.7-.4-1,0,0,0-.3-.4-.2-.2,0-.2,0-.1-.1.5-.5,0-.6,0-.9,0-.3-.4-.5-.1-1,.1-.2.1-.4-.5-.3-.3,0-.1-.2-.2-.3,0,0-.4,0-.4-.1,0,0,.1-.3.2-.4,0,0,0,0,0,0-.8-.1-.2-.9-.6-1.3-.3-.3-.7-.9-.8-1.9,0-.5.1-1.1,1.4-1.3.6,0,1.1,0,1.4,0,.2,0,.4.1.5.2,0,0,.2.2.3.2.2,0,.8,0,.6.4,0,.1.3,0-.1.4,0,0,0,0,0,.1.9,0,.7.7.9,1.1.2.3,1,.4.9.8.7,0,.7.2.6.5-.3,1,.5,1.5.7,2.2.2.8.6,1.4.9,2.2,0,.1.4,0,.2.3-.2.2,0,.3.1.5,0,.1.2.2.2.4-.4.8.2,1.2.4,1.8.2.6.3,1.2.7,1.7.2.3.7.5.7.9,0,.2.4.2-.1.6-.1,0,.3,0,.4.2.1.2.2.5.3.7.1.3.2.7.3,1,0,.2.4.3.5.5.1.2.2.4.2.7,0,.3-.1.6,0,.9,0,.3.4.5.2.9-.4.6,0,1.1.1,1.6,0,.5.2,1,.4,1.5.1.3-.3.7-.2.9,0,.1-1.4.6-1.9.7,0,0-.2,0-.2,0-.5-.2-1.3-.2-1.3-.6,0-.5-.2-.9-.3-1.3Z"/>
  <path d="M379.1,233c0,.5.1,1.1.3,1.6,0,.2-.2.4.4.6.3,0-.3.3-.3.5.2.5.1,1,.3,1.5.1.5.4.9.5,1.4.1.5-.1,1,.3,1.4.3.4-.1.8,0,1.1.2.4.3.8,0,1.2-.1.3-.3.6-.2.9,0,.2.4.3.4.5,0,.2-.3.4.4.5,0,0,0,0-.1.1-.4.2-.3.5,0,.6.3.1.3.3.3.4,0,.4.1.8,0,1.2,0,.3-.2.6-.3.9,0,.3.3.6,0,1-.3.3-.3.6-.3.9,0,.2-.3.4.4.5,0,0,0,0,0,.1-.8.5.3.9,0,1.4-.2.5,0,1,0,1.5,0,.1-.2.3.3.4.2,0,.2.2,0,.2-.6.4-.2.8-.3,1.1-.1.4.2.9-.3,1.3-.2.2-.3.4.3.7.3.1,0,.3,0,.5,0,.1.3.3.3.4,0,.1-.2.2-.4.3,0,0,0,0,0,.1.7.7-.3,1.2-.1,1.9.2.6,0,1.3,0,1.9,0,.3-.3.7-1.4.9-.5,0-1.1,0-1.4-.1-.2-.1-.5-.3-.5-.4,0-.2-.2-.4-.3-.6-.2-.4-.7-.8-.4-1.2,0-.1-.2-.3.3-.4,0,0,.1,0,0,0-.8-.6-.2-1.1-.3-1.7,0-.5-.7-.9-.4-1.4-.6-.3-.5-.6-.3-.8.7-.9.2-1.9.3-2.8,0-.9,0-1.9,0-2.8,0-.2-.4-.3,0-.5.3-.2,0-.4,0-.6,0-.2-.2-.4,0-.6.6-.8.2-1.5.2-2.2,0-.7,0-1.5-.2-2.2-.1-.4-.5-.9-.4-1.3,0-.2-.3-.4.2-.6.2,0-.3-.2-.3-.3,0-.3,0-.6-.1-.9,0-.4,0-.9-.2-1.3,0-.3-.3-.5-.4-.7,0-.3-.1-.5-.1-.8,0-.4.2-.7.2-1.1,0-.4-.3-.7-.1-1.1.4-.7,0-1.3,0-1.9,0-.6-.1-1.3-.4-1.9-.1-.3.3-.8.2-1.1,0-.2,1.4-.7,1.9-.7,0,0,.2,0,.2,0,.5.3,1.3.4,1.3.8,0,.6.2,1.2.3,1.8Z"/>
  <path d="M391.3,235.9c-.3,0-.5-.2-.8-.2-.1,0-.1-.3-.4.2-.1.2,0-.4-.2-.4-.3,0-.5-.1-.8-.1-.3,0-.5.2-.8.2-.3,0-.4-.3-.7,0-.3.2-.3-.3-.5-.2-.2,0-.5.1-.6-.2-.1-.2-.2-.4-.4-.4-.1,0-.2.3-.3.3,0,0-.1-.3-.3.3,0,0,0,0,0-.2,0-.4-.1-.4-.3-.2-.1.3-.2.2-.3.2-.2,0-.4,0-.6-.1-.1,0-.3-.3-.4-.4-.1,0-.4.2-.5-.2,0-.3-.2-.3-.4-.4,0,0-.1-.3-.3.3,0,0,0,0,0,0-.1-.9-.5.2-.7,0-.2-.2-.5-.1-.7-.2,0,0-.1-.2-.2.2,0,.2-.1.2-.1,0,0-.6-.3-.3-.5-.4-.2-.1-.5.1-.6-.4,0-.2-.2-.3-.4.2,0,.3-.2,0-.2,0,0,0-.2.3-.2.3,0,0,0-.2-.1-.4,0,0,0,0,0,0-.4.6-.6-.3-.9-.2-.3.1-.7,0-1,0-.2,0-.3-.3-.3-1.4,0-.5,0-1.1.2-1.4,0-.2.2-.5.2-.5.1,0,.2-.2.3-.3.2-.2.5-.7.7-.4,0,0,.2-.2.2.3,0,0,0,.1,0,0,.4-.8.6-.2.9-.2.3,0,.6-.6.8-.3.2-.6.4-.5.5-.3.4.7,1,.4,1.5.5.5.2,1,.2,1.5.3,0,0,.2-.3.3,0,0,.3.2,0,.3.1.1,0,.2,0,.3,0,.3.7.8.4,1.1.5.4.1.8.3,1.2.2.3,0,.6-.3.8-.2,0,0,.3-.2.3.4,0,.2.2-.3.3-.3.2,0,.3,0,.5,0,.2,0,.5.1.7.1.1,0,.3-.2.5-.2.2,0,.3,0,.4,0,.2.1.3.4.5.5.2.1.4-.1.6.2.2.6.6.4,1,.5.3.1.7.3,1,.2.2,0,.3.5.4.6,0,0-.2,1.5-.3,2,0,0,0,.2,0,.2-.3.4-.6,1.1-.8,1-.3-.1-.6-.2-.9-.2Z"/>
  <path d="M393.4,261c0-.4,0-.9,0-1.3,0-.2.2-.3-.3-.5-.3,0,.4-.3.3-.4,0-.4,0-.8,0-1.2,0-.4-.3-.8-.4-1.2,0-.4.2-.8-.1-1.2-.3-.3.2-.6,0-1-.1-.3-.2-.7,0-1,.2-.2.4-.5.3-.7,0-.1-.4-.3-.4-.4,0-.2.3-.3-.4-.4,0,0,0,0,.1-.1.4-.2.4-.4,0-.5-.3-.1-.2-.2-.3-.4,0-.3,0-.7,0-1,0-.3.3-.5.3-.8,0-.3-.3-.5,0-.8.3-.3.3-.5.2-.7,0-.1.3-.3-.4-.4,0,0,0,0,0,0,.8-.4-.3-.8-.1-1.2.2-.4,0-.8,0-1.2,0-.1.2-.2-.3-.3-.2,0-.2-.1,0-.2.6-.3.2-.6.3-1,0-.4-.2-.7.2-1.1.2-.2.3-.4-.3-.5-.3,0,0-.3,0-.4,0-.1-.3-.2-.4-.3,0,0,.2-.2.3-.3,0,0,0,0,0,0-.7-.5.1-1.1,0-1.6-.2-.5-.2-1.1-.2-1.6,0-.3.2-.6,1.3-.9.5-.1,1.1-.2,1.4,0,.2,0,.5.2.6.3.1.2.3.3.4.5.2.3.8.6.5,1,0,.1.2.2-.3.4,0,0-.1,0,0,0,.8.4.4.9.4,1.4,0,.4.7.8.5,1.2.6.2.6.5.4.7-.6.9-.1,1.6-.1,2.5,0,.8.1,1.7.1,2.5,0,.1.4.2,0,.4-.3.2,0,.4,0,.5,0,.2.2.3,0,.5-.6.7-.2,1.3-.2,2,0,.6,0,1.3.1,1.9.1.4.5.8.4,1.2,0,.2.3.3-.3.5-.2,0,.3.2.3.3,0,.3,0,.5,0,.8,0,.4,0,.8,0,1.1,0,.2.3.4.4.7,0,.2,0,.5,0,.7,0,.3-.3.6-.3.9,0,.3.2.6,0,.9-.5.6-.2,1.1-.3,1.7,0,.6,0,1.1,0,1.7,0,.3-.4.6-.4.9,0,.1-1.5.3-2,.3,0,0-.2,0-.2,0-.5-.3-1.2-.6-1.2-.9,0-.5,0-1,0-1.5Z"/>
  <path d="M399.1,248.7c0,.4,0,.8,0,1.1,0,.1-.2.3.3.4.3,0-.4.2-.3.3,0,.4,0,.7,0,1.1,0,.3.3.7.3,1,0,.3-.2.7,0,1,.3.3-.2.5-.1.8.1.3.2.6,0,.9-.2.2-.4.4-.3.6,0,.1.4.3.4.4,0,.1-.3.3.3.4,0,0,0,0-.2,0-.4.1-.4.3-.1.4.3.1.2.2.2.3,0,.3,0,.6,0,.9,0,.2-.3.4-.4.6,0,.2.2.5-.1.7-.3.2-.3.4-.3.6,0,.1-.3.2.3.4,0,0,0,0,0,0-.8.3.2.7,0,1-.2.3-.1.7-.1,1.1,0,0-.2.2.3.3.2,0,.2.1,0,.2-.7.2-.3.5-.4.8-.2.3.1.6-.4.9-.2.1-.3.3.2.5.3.1,0,.2,0,.3,0,0,.3.2.3.3,0,0-.2.1-.4.2,0,0,0,0,0,0,.6.5-.3.9-.2,1.3.1.5,0,.9-.2,1.4,0,.2-.3.5-1.5.5-.5,0-1.1,0-1.4-.2-.2-.1-.4-.2-.5-.3,0-.2-.2-.3-.3-.5-.2-.3-.6-.7-.3-.9,0,0-.2-.2.3-.2,0,0,.1,0,0,0-.7-.5-.2-.8-.2-1.2,0-.3-.6-.7-.3-1-.6-.3-.5-.5-.3-.6.7-.6.4-1.3.5-1.9.2-.7.1-1.3.2-2,0-.1-.3-.2,0-.4.3-.1,0-.3,0-.4,0-.1-.1-.3,0-.4.7-.5.3-1,.4-1.6,0-.5.2-1.1,0-1.6,0-.3-.4-.7-.3-1,0-.1-.3-.3.3-.4.2,0-.3-.2-.3-.3,0-.2,0-.4,0-.7,0-.3,0-.6,0-.9,0-.2-.3-.4-.3-.6,0-.2,0-.4,0-.6,0-.2.3-.5.3-.7,0-.3-.2-.5,0-.8.5-.5.2-.9.3-1.4,0-.5,0-.9,0-1.4,0-.3.4-.5.4-.8,0-.1,1.5-.3,2-.3,0,0,.2,0,.2,0,.5.2,1.2.4,1.2.7,0,.4,0,.9,0,1.3Z"/>
  <path d="M410.6,254.4c-.3,0-.5-.2-.8-.2-.1,0-.1-.3-.4.2-.1.2,0-.4-.1-.4-.3,0-.5-.2-.7-.2-.2,0-.5.1-.8,0-.2,0-.4-.4-.7-.1-.3.2-.3-.3-.5-.3-.2,0-.5,0-.6-.2,0-.2-.1-.5-.3-.4-.1,0-.3.3-.4.3,0,0,0-.3-.4.2,0,0,0,0,0-.2,0-.4,0-.4-.3-.2-.2.2-.2.2-.3.2-.2,0-.4,0-.6-.2-.1,0-.2-.4-.3-.5-.1-.1-.4.1-.4-.2,0-.3-.2-.4-.3-.4,0,0,0-.3-.3.3,0,0,0,0,0,0,0-.9-.5,0-.7-.2-.2-.3-.5-.2-.7-.3,0,0,0-.2-.3.2,0,.1-.1.1-.1,0,0-.7-.3-.4-.4-.5-.2-.2-.5,0-.5-.5,0-.2-.1-.4-.4.2-.1.2-.1,0-.2,0,0,0-.2.3-.3.3,0,0,0-.3,0-.4,0,0,0,0,0,0-.5.5-.5-.4-.9-.3-.4,0-.6-.1-.9-.3-.2-.1-.3-.3,0-1.5.1-.5.3-1,.4-1.3.1-.2.3-.4.3-.4.1,0,.3-.2.4-.2.3-.1.6-.6.7-.2,0,.1.2-.2,0,.3,0,0,0,.1,0,0,.5-.7.6,0,.9,0,.2,0,.7-.5.8-.2.3-.6.4-.4.5-.2.3.8.9.5,1.3.8.4.2.9.3,1.4.5,0,0,.3-.3.3,0,0,.3.2.1.3.2,0,0,.2,0,.3.1.2.7.6.5,1,.7.3.2.7.4,1.1.3.3,0,.6-.3.8,0,0,0,.3-.2.2.4,0,.2.2-.2.3-.2.2,0,.3,0,.5.1.2,0,.4.2.6.2.1,0,.4-.2.5-.2.2,0,.3,0,.4.1.1.1.2.4.4.5.2.1.4,0,.5.2.1.6.5.5.8.6.3.2.6.3.9.3.2,0,.2.5.4.6,0,0-.3,1.4-.5,1.9,0,0,0,.2-.1.2-.3.4-.7,1-.9.9-.3-.2-.6-.2-.8-.3Z"/>
  <path d="M410.7,272.9c0-.3,0-.7,0-1,0-.1.2-.3-.3-.4-.3,0,.4-.2.4-.3,0-.3,0-.6,0-1,0-.3-.3-.6-.3-.9,0-.3.2-.6,0-.9-.3-.3.2-.5.1-.7-.1-.3-.2-.5,0-.8.2-.2.4-.4.3-.6,0-.1-.4-.2-.4-.4,0-.1.3-.2-.3-.4,0,0,0,0,.1,0,.4-.1.4-.3.1-.4-.3-.1-.2-.2-.2-.3,0-.3,0-.5,0-.8,0-.2.3-.4.3-.6,0-.2-.2-.4,0-.6.3-.2.3-.4.3-.6,0-.1.3-.2-.3-.3,0,0,0,0,0,0,.8-.3-.3-.6,0-.9.2-.3,0-.6,0-1,0,0,.2-.2-.3-.3-.2,0-.2-.1,0-.2.6-.2.2-.5.3-.7.1-.3-.2-.5.3-.8.2-.1.3-.3-.3-.4-.3,0,0-.2,0-.3,0,0-.3-.2-.3-.2,0,0,.2-.1.3-.2,0,0,0,0,0,0-.7-.4.2-.8,0-1.2-.2-.4-.1-.8,0-1.2,0-.2.2-.5,1.4-.6.5,0,1.1,0,1.4,0,.2,0,.5.1.5.2,0,.1.2.3.3.4.2.3.7.5.5.8,0,0,.2.2-.3.3,0,0-.1,0,0,0,.8.3.3.7.3,1.1,0,.3.7.6.4.9.6.2.5.4.3.6-.7.6-.2,1.3-.3,1.9,0,.6,0,1.3,0,1.9,0,.1.4.2,0,.3-.3.1,0,.3,0,.4,0,.1.1.3,0,.4-.7.5-.3,1-.3,1.5,0,.5-.1,1,0,1.5,0,.3.4.6.3.9,0,.1.3.3-.3.4-.2,0,.3.2.3.2,0,.2,0,.4,0,.6,0,.3,0,.6,0,.9,0,.2.3.4.3.5,0,.2,0,.4,0,.6,0,.2-.3.5-.4.7,0,.2.2.5,0,.7-.5.4-.3.9-.3,1.3,0,.4-.1.8,0,1.3,0,.2-.4.4-.5.7,0,.1-1.5.2-2,.1,0,0-.2,0-.2,0-.5-.2-1.2-.5-1.1-.7,0-.4,0-.8,0-1.2Z"/>
  <path d="M358.9,400.9c1.2.3,2.5.6,3.7.7.5,0,.9.4,1.5,0,.3-.2.6.5,1.1.5,1.2,0,2.3.2,3.5.2,1.1,0,2.3-.2,3.4-.3,1.1,0,2.3.1,3.3-.3.9-.4,1.8,0,2.7-.3.9-.3,1.8-.6,2.7-.6.7,0,1.3,0,1.9-.4.3-.2.5-.7.9-.8.3-.2.9-.2.8-.9,0,0,.2,0,.3,0,.6,0,1-.2,1.1-.7,0-.4.3-.6.6-.8l1.9-2c.5-.5,1.1-.9,1.6-1.4.5-.6.7-1.4,1.4-1.8.6-.4,1-1,1.3-1.6.2-.3.7-.6.3-1.2,0,0,0-.2.1-.2,1.3-.5.8-2,1.5-2.9.7-1,1-2.1,1.4-3.2.1-.3.4-.5,0-1-.1-.2,0-.5.1-.6.9-.6.8-1.6,1.2-2.4.4-.9.4-2,1.1-2.9.3-.4.5-.9,0-1.6-.2-.3.2-.7.2-1.1,0-.3-.2-.6-.2-.9,0-.3.3-.5.5-.7,0,0,0-.2,0-.2-.5-1.5.6-2.9.5-4.4,0-.7,0-1.5,0-2.2,0-.7,0-1.5,0-2.2,0-.8.1-1.7,1.2-2.4.5-.3,1-.4,1.4,0,.3.3.5.5.6.9.1.5.3,1,.4,1.5.2,1,.8,2,.5,3.1,0,.3.2.7-.3,1,0,0-.1.2,0,.2.7,1.5,0,2.9,0,4.4-.1,1.2.3,2.5-.2,3.7.5.8.2,1.6-.1,2.2-1.2,2.2-1.6,4.7-2.5,7-1,2.3-2,4.6-3.3,6.8-.2.4,0,.9-.6,1.2-.5.3-.6.9-.9,1.3-.3.4-.4.9-.8,1.2-1.6,1.2-2.5,3-3.9,4.5-1.4,1.4-3,2.7-4.8,3.9-1.1.7-2.2,1.5-3.4,1.8-.5.1-1,.6-1.7.1-.2-.1-.6.4-.9.5-.8.2-1.6.3-2.5.4-1.1.1-2.3.2-3.4.3-.7,0-1.4.4-2.1.4-.7,0-1.5,0-2.2,0-.9,0-1.8-.3-2.7-.5-.9-.1-2,0-2.8-.3-1.6-.7-3.3-.8-4.9-1.2-1.6-.4-3.2-.9-4.8-1.3-.9-.2-1.6-1-2.4-1.3-.4-.2-.4-1.7,0-2.1,0,0,.2-.1.2-.2,1-.1,2-.5,2.8-.2,1.3.5,2.7.9,4.1,1.2Z"/>
  <path d="M412.1,215.4c-2.8-2.4-6.3-4.5-10-6.2-1.3-.6-2.6-1.7-4.4-1.3-.9.2-1.8-1.5-3.1-1.9-3.6-1.1-7.2-2.2-10.9-2.6-3.6-.5-7.2-.3-10.8-.2-3.5.1-7.3,0-10.5,1.1-1.4.5-2.7.7-4,1-1.3.2-2.6.5-3.7,1.1-.3.2-.6.3-.9.5-.3.2-.5.3-.7.5-.2.2-.4.3-.6.5l-.3.2c-.1.1,0,0,0,0-.1.2-.3.2-.6.6-.2.2-.3.6-.1.9,0,.1.2.3.3.4,0,0,0,0,.1,0,0,0,.2,0,.2.1.2,0,.4.2.6.2.5.1,1.2.2,1.8.2.6,0,1.2,0,1.8.2,1.1.3,2.5,1,3.6-.1,0-.1.6.1.9.3,1.3.8,3,.7,3.9,0,1-.7,1.8-.8,2.8-1.1,1.2-.4,2.5-.9,3.6-1.5,1.1-.6,2.2-1.2,3.3-2,1.6-1.1,3.3-2.2,4.6-3.7,1.4-1.6,2-3.9,3.2-5.5,1.3-1.6,1.7-3.6,2-5.5,0-.6.3-1.1.3-1.7,0-.6-.2-1.1-.8-1.5-.1,0-.1-.5,0-.6.7-1.5.2-3-.6-3.9-.8-1-1.9-1.5-2.8-2.6-1.9-2.2-5.7-3.5-9.1-4.8-.9-.3-1.8-1-2.9-.4-.4.2-1.4,0-1.8-.4-2.3-2-5.3-1.8-8-2.4-3.2-.7-6.4-.4-9.6-1.4-1.4-.4-3.3-.6-4.9.7-.7.6-2.3.2-3.5.4-1,.2-1.8.9-2.7,1-.8.1-1.7-.2-2.5-.3-.3,0-.6,0-.8.1-2.2,1.1-4.5,1.6-6.8,2-2.3.4-4.7.9-6.9,1.9-4.4,2.1-8.8,4-13.1,6.3-2.4,1.2-4.9,2.4-7.7,1.5-1.3-.4-1.9-1.3-1.3-2.5.5-.9,1.1-1.8,1.9-2.5,1.3-1,2.5-2.1,3.8-3,2.7-2,5.2-4.4,8.6-5.3,1.1-.3,2-1.3,3.2-.7.2,0,.6,0,.8-.2,3.7-3.2,8.7-3.7,13.3-4.8,3.9-1,7.6-2.8,11.8-2.6,2.2-1.5,4.9-1.3,7.2-.9,4.1.7,8.1,1.2,12.1,1.8,4,.6,8,1.5,11.9,2.9,1,.4,1.9.8,2.9,1.1l2.9,1.3c1.9.9,3.9,1.9,5.8,3.3,1.9,1.4,3.8,3.1,5.2,5.4,1.4,2.3,2.1,4.9,2.4,7.2.2,1.6,1,3,.3,4.8-.6,1.7-.5,3.9-1,5.8-.4,1.7-.8,3.7-1.8,5.1-1,1.5-2,2.9-3.1,4.3-1,1.4-2.1,2.7-3.3,4-1.2,1.3-2.5,2.5-3.8,3.6-1.4,1.1-2.9,2-4.4,2.8-6.3,3-13.3,3.7-20.1,2.7l-1.6-.3-1.6-.3c-1-.3-2-.5-3.2-1-.3-.1-.5-.2-.9-.4-.4-.2-.7-.4-1.1-.6-.7-.4-1.4-.9-2-1.5-1.2-1.2-2-2.6-2.3-4.3-.3-1.3-.4-2.8,0-4.2.4-1.4,1.3-2.7,2.6-3.3.4-.2.8-.9,1.4-1.6.5-.6,1-1.3,1.6-1.7,1.5-1,2.7-1.5,4.1-2.1,1.4-.5,2.7-1,4.1-1.4,3.8-1.1,7.5-1.5,11.3-1.9,2.3-.3,4.5-.8,6.9-.9,1.2,0,2.4,0,3.6,0,1.2.1,2.4.2,3.6.4,3,.5,5.9,1.5,8.9,2.3,3,.8,6.3,1.3,9,2.9,2.4,1.4,4.9,2.7,7.4,4,2.4,1.3,4.9,2.6,7.2,4.3,2.3,1.7,4.5,3.7,6.4,6,1.9,2.3,3.5,4.9,4.7,7.5,1.5,3,1.3,6.1,2,9,.3,1.4-2.2,3.8-3.3,3.4-.2,0-.5-.2-.6-.4-1.5-2.6-3.5-4.6-4.4-7.3-.7-2-1.6-4-2.8-5.7-1.2-1.7-2.5-3.2-4.2-4.6Z"/>
  <path d="M332.7,241.6c-.3.1-.5.2-.8.3,0,0-.3-.1-.2.4,0,.3-.3-.3-.4-.2-.2.2-.5.2-.7.4-.2.2-.3.5-.5.7-.2.2-.6,0-.6.4,0,.3-.5,0-.6.2-.1.2-.3.4-.6.3-.2,0-.5-.2-.5,0,0,.1,0,.4,0,.5,0,0-.3-.1,0,.4,0,0,0,0-.1,0-.3-.3-.4-.2-.3,0,0,.3,0,.3,0,.3-.2.1-.4.3-.6.3-.2,0-.4,0-.6,0-.2,0-.2.4-.5.2-.3-.2-.4,0-.6,0,0,0-.3-.1,0,.4,0,0,0,0,0,0-.7-.6-.3.5-.6.5-.3,0-.5.3-.7.4,0,0-.2,0,0,.4,0,.1,0,.2,0,.1-.5-.4-.5,0-.7,0-.3,0-.3.4-.8.1-.2-.1-.4-.1-.1.4.1.3-.1,0-.2.2,0,0,0,.3,0,.4,0,0-.2-.1-.3-.2,0,0,0,0,0,0,0,.7-.7.2-.9.6-.2.4-.5.5-.9.6-.2,0-.5,0-1.2-.8-.3-.4-.7-.8-.8-1.2,0-.2-.2-.5-.1-.5,0-.1,0-.3,0-.5,0-.3,0-.9.3-.8.1,0,0-.3.4.1,0,0,0,0,0,0-.2-.8.4-.6.6-.8.2-.2,0-.9.4-.8-.2-.6,0-.6.2-.6.8.2,1-.4,1.5-.7.5-.2.9-.6,1.4-.9,0,0,0-.4.2-.2.2.2.2,0,.3-.2,0,0,.1-.2.3-.2.7.3.9-.2,1.3-.4.4-.2.8-.3,1.1-.7.2-.2.3-.7.6-.7.1,0,0-.4.5,0,.1.1,0-.3,0-.4.1-.1.3-.2.5-.3.2-.1.5-.2.7-.4.1-.1.2-.4.3-.5.1-.1.3-.2.5-.2.2,0,.5,0,.7,0,.2,0,.3-.4.6-.2.6.3.8,0,1.2-.2.4,0,.8-.2,1.1-.4.2-.1.5.3.7.2,0,0,.7,1.3.8,1.8,0,0,0,.2,0,.2,0,.5,0,1.3-.2,1.3-.3,0-.6.2-.9.3Z" fill="#fff"/>
  <path d="M344,253.6c-.3.1-.6.2-.8.3,0,0-.3-.1-.2.4,0,.3-.3-.3-.4-.2-.2.2-.5.2-.7.4-.2.2-.4.5-.6.7-.2.2-.6,0-.7.5,0,.4-.5,0-.6.2-.1.2-.3.4-.6.3-.2,0-.5-.2-.6,0,0,.1,0,.4,0,.5,0,0-.3-.1,0,.5,0,0,0,0-.1,0-.3-.3-.4-.2-.3.1,0,.3,0,.3,0,.4-.2.2-.4.3-.6.4-.2,0-.5,0-.6,0-.2,0-.2.4-.5.3-.3-.2-.4,0-.6,0,0,0-.3-.1,0,.5,0,0,0,0,0,0-.7-.5-.3.5-.7.5-.4,0-.5.3-.8.5,0,0-.2,0,0,.4,0,.1,0,.2,0,.1-.5-.4-.5,0-.8,0-.3,0-.4.4-.9.2-.2-.1-.4-.1-.2.4,0,.3-.2,0-.2.2,0,0,0,.4,0,.4,0,0-.2-.1-.4-.2,0,0,0,0,0,0,0,.8-.8.2-1.1.6-.3.4-.7.5-1.1.6-.2,0-.5,0-1.1-1-.3-.4-.5-.9-.6-1.3,0-.2,0-.5,0-.6,0-.1.1-.3.2-.4.1-.3,0-.8.4-.7.1,0,0-.3.3.2,0,0,0,0,0,0,0-.9.4-.5.7-.8.2-.2.1-.9.5-.8-.2-.6,0-.6.2-.5.8.3,1.1-.4,1.6-.6.5-.2,1-.6,1.5-.9,0,0,0-.4.2-.2.2.2.2,0,.3-.2,0,0,.1-.2.3-.2.8.3.9-.3,1.3-.5.4-.2.9-.4,1.2-.8.2-.2.2-.7.6-.7.1,0,0-.4.5,0,.1.1,0-.3,0-.4.1-.1.3-.2.5-.3.2-.1.5-.2.7-.4.1-.1.2-.4.3-.6.1-.1.3-.2.5-.3.2,0,.5,0,.8,0,.2,0,.4-.4.7-.2.6.3.9-.1,1.3-.2.4,0,.8-.2,1.2-.4.2-.1.6.3.8.2.1,0,.6,1.4.7,1.9,0,0,0,.2,0,.2,0,.5,0,1.3-.3,1.3-.3,0-.6.2-.9.3Z" fill="#fff"/>
  <path d="M355.2,264.9c-.2,0-.4.1-.5.3,0,0-.2-.1,0,.4,0,.3-.3-.3-.3-.2-.1.1-.3.1-.5.3-.1.1-.2.4-.3.5-.1.1-.4,0-.4.3,0,.3-.3,0-.4,0,0,.2-.2.3-.4.2-.2-.1-.4-.2-.4-.1,0,0,0,.4,0,.4,0,0-.3-.2,0,.4,0,0,0,0-.1-.1-.3-.3-.3-.3-.2,0,0,.3,0,.3,0,.3-.1.1-.2.2-.4.2-.1,0-.3-.1-.4-.1-.1,0,0,.3-.3,0-.2-.2-.3-.2-.4-.1,0,0-.3-.2,0,.4,0,0,0,0,0,0-.6-.6-.2.4-.4.3-.3,0-.3.1-.5.2,0,0-.2-.1,0,.3,0,.1,0,.2,0,0-.4-.5-.4,0-.5-.1-.2,0-.2.3-.6,0-.2-.1-.3-.2,0,.3.1.3,0,0-.1.1,0,0,0,.3,0,.4,0,0-.2-.2-.3-.2,0,0,0,0,0,0,.1.7-.5,0-.6.3-.1.3-.3.3-.6.4-.1,0-.3,0-1-1-.3-.4-.6-.9-.7-1.2,0-.2-.2-.4-.2-.5,0-.1,0-.3,0-.4,0-.2-.1-.8.2-.6,0,0,0-.2.3.2,0,0,0,0,0,0-.2-.8.2-.4.4-.6.1-.1,0-.8.2-.6-.2-.6,0-.6.1-.4.6.4.7-.2,1.1-.3.4,0,.6-.4.9-.5,0,0,0-.4.1-.2.2.2.2,0,.2,0,0,0,0-.2.2,0,.6.4.6,0,.9-.1.3,0,.6-.1.7-.4.1-.2,0-.6.3-.5,0,0,0-.3.3.2,0,.1,0-.3,0-.3,0,0,.2-.1.3-.2.1,0,.3-.1.4-.2,0,0,0-.3.1-.4,0-.1.2-.2.3-.1.2,0,.4.1.5.1.1,0,.1-.3.4-.1.4.3.5,0,.8,0,.2,0,.5-.1.6-.3,0-.1.4.3.5.2,0,0,.8,1.3,1,1.7,0,0,0,.2,0,.2,0,.5.3,1.2.2,1.2-.2,0-.4.2-.6.3Z" fill="#fff"/>
  <path d="M406,294.5c.1-.2.3-.4.4-.6,0,0,.3,0,0-.4-.2-.2.4.1.4,0,0-.2.3-.3.4-.5,0-.2,0-.5.2-.7.1-.2.5-.2.4-.5,0-.3.4,0,.4-.3,0-.2.1-.4.4-.4.2,0,.5.1.5,0,0-.1-.1-.4,0-.4,0,0,.3.1,0-.4,0,0,0,0,.1,0,.3.3.4.2.3,0-.1-.3,0-.3,0-.3.1-.1.2-.3.4-.4.1,0,.4,0,.5,0,.2,0,0-.4.4-.2.3.2.4,0,.5,0,0,0,.3.1,0-.4,0,0,0,0,0,0,.6.6.2-.4.5-.4.3,0,.4-.2.6-.3,0,0,.2,0,0-.3,0-.1,0-.2,0-.1.5.5.4,0,.6,0,.2,0,.3-.3.7,0,.2.1.3.2.1-.4,0-.3.1,0,.2-.1,0,0,0-.3,0-.4,0,0,.2.2.3.2,0,0,0,0,0,0,0-.7.6,0,.8-.3.2-.3.5-.3.8-.3.2,0,.4.1.9,1.2.2.5.4,1,.5,1.3,0,.2,0,.5,0,.5,0,.1,0,.3,0,.4,0,.2,0,.8-.3.6,0,0,0,.2-.2-.2,0,0,0,0,0,0,.1.8-.3.4-.4.6-.1.1,0,.8-.3.6.2.6,0,.6-.1.4-.6-.4-.7.1-1,.2-.3,0-.6.4-.9.5,0,0,.1.4-.1.2-.2-.2-.2,0-.2,0,0,0,0,.2-.2.1-.6-.4-.6.1-.9.2-.3.1-.5.3-.6.6,0,.2,0,.6-.2.6,0,0,0,.3-.4,0-.1-.1.1.3.1.3,0,.1-.1.2-.2.3-.1.1-.2.2-.3.4,0,0,0,.3,0,.4,0,.1,0,.2-.2.2-.1,0-.4,0-.5,0-.1,0,0,.3-.3.3-.5-.1-.5.2-.7.4-.2.2-.4.3-.4.6,0,.2-.5,0-.6,0,0,0-1.3-.7-1.7-.9,0,0-.2-.1-.2-.1-.3-.4-.9-.9-.7-1,.2-.2.3-.4.5-.7Z" fill="#fff"/>
  <path d="M422.1,300.2c.2-.2.4-.4.5-.7,0,0,.3,0,0-.4-.2-.2.4.1.4,0,.1-.2.3-.4.4-.6.1-.2,0-.6.2-.8.1-.2.5-.2.4-.6,0-.3.4-.2.5-.4,0-.2.1-.5.4-.5.2,0,.5,0,.5-.2,0-.1-.2-.4-.1-.4,0,0,.4,0,0-.4,0,0,0,0,.2,0,.4.2.4,0,.3-.2-.2-.2,0-.3,0-.3.1-.2.2-.4.4-.5.1,0,.4,0,.6-.1.2,0,0-.4.4-.3.3,0,.4,0,.5-.2,0,0,.3,0-.1-.4,0,0,0,0,0,0,.8.3.1-.5.4-.6.3,0,.4-.4.5-.6,0,0,.2,0,0-.3-.1-.1,0-.2,0-.1.6.3.4-.1.6-.2.2,0,.2-.4.7-.3.2,0,.4,0,0-.4-.2-.2.1-.1.1-.2,0,0-.2-.3-.1-.4,0,0,.2,0,.4,0,0,0,0,0,0,0-.3-.7.6-.3.7-.7,0-.4.4-.6.6-.8.2-.1.4-.1,1.4.6.4.3.8.7,1,.9.1.2.3.4.3.5,0,.1,0,.3,0,.4,0,.3.3.8,0,.8-.1,0,0,.3-.4,0,0,0-.1,0,0,0,.4.7-.2.6-.3.9-.1.2.2.8-.2.8.4.5.2.6,0,.5-.8,0-.8.6-1.2.9-.4.3-.6.8-1,1.1,0,0,.2.3-.1.2-.3,0-.2.1-.2.2,0,0,0,.2-.2.2-.8-.1-.7.4-1,.7-.3.3-.6.5-.7.9,0,.2,0,.6-.2.7-.1,0,0,.3-.4,0-.1,0,.1.3.1.3,0,.2-.2.3-.3.4-.1.2-.3.3-.4.5,0,.1,0,.4,0,.5,0,.2-.1.3-.3.3-.2,0-.5.1-.6.2-.2.1,0,.4-.4.4-.6,0-.6.4-.9.6-.3.2-.5.5-.6.8,0,.2-.6,0-.7.2,0,0-1.3-.7-1.7-1.1,0,0-.1-.1-.2-.2-.3-.4-.7-1-.6-1.1.2-.2.4-.5.6-.7Z" fill="#fff"/>
  <path d="M437.3,305.1c.2-.3.4-.5.6-.8,0-.1.3,0,0-.5-.2-.2.4,0,.5,0,.1-.3.4-.5.5-.8.1-.3.1-.7.3-.9.1-.3.6-.3.5-.8,0-.4.5-.2.5-.5,0-.3.2-.5.5-.6.3,0,.5,0,.6-.2,0-.1-.2-.4,0-.5,0,0,.4,0,0-.5,0,0,0,0,.2,0,.4.2.5,0,.3-.2-.1-.3,0-.3,0-.4.1-.2.3-.4.5-.6.2-.1.5-.1.6-.2.2-.1.1-.5.5-.4.4,0,.5,0,.6-.2,0,0,.4,0,0-.5,0,0,0,0,0,0,.8.3.2-.6.5-.7.4,0,.5-.4.7-.7,0,0,.2,0,0-.4-.1-.1,0-.2,0-.2.6.3.5-.2.7-.3.3-.1.2-.5.8-.4.2,0,.4,0,0-.5-.2-.2.1-.1.2-.3,0,0-.1-.3,0-.4,0,0,.3,0,.4,0,0,0,0,0,0,0-.2-.7.7-.4.9-.8.1-.4.5-.7.8-.9.2-.1.5-.2,1.4.5.4.3.8.7,1,1,.1.2.2.4.2.5,0,.2,0,.3,0,.5,0,.3.2.9-.2.9-.1,0,0,.3-.4,0,0,0-.1,0,0,0,.3.8-.3.7-.5,1-.2.3,0,.9-.3.9.3.6.1.6-.1.6-.9,0-1,.7-1.4,1.1-.5.4-.8.9-1.2,1.3,0,0,.1.4-.1.3-.3,0-.2.2-.3.3,0,0,0,.3-.3.3-.8,0-.8.5-1.2.9-.4.3-.7.6-.9,1.1-.1.3,0,.7-.3.9-.1,0,0,.4-.5,0-.2,0,.1.3,0,.4,0,.2-.2.3-.4.5-.2.2-.4.4-.5.6,0,.2,0,.4,0,.6,0,.2-.2.3-.3.4-.2.1-.5.2-.7.3-.2.1-.1.5-.5.5-.7,0-.7.5-1,.8-.3.3-.6.6-.7,1,0,.2-.6,0-.7.3,0,0-1.3-.7-1.7-1,0,0-.1-.1-.2-.2-.2-.5-.7-1-.5-1.2.3-.3.5-.6.7-.9Z" fill="#fff"/>
  <path d="M185.6,169.1c-.2-.3-.3-.6-.5-.8,0,0,0-.3-.5-.1-.3,0,.2-.4.1-.4-.2-.2-.3-.5-.5-.7-.2-.2-.6-.3-.8-.5-.2-.2-.1-.6-.6-.7-.4,0,0-.5-.3-.6-.2-.1-.5-.3-.4-.6,0-.2.1-.5,0-.6-.1,0-.4,0-.5,0,0-.1.1-.4-.5,0,0,0,0,0,0-.2.3-.3.2-.4-.1-.4-.3,0-.3,0-.4,0-.2-.2-.3-.4-.4-.6,0-.2,0-.5,0-.6,0-.2-.4-.2-.3-.5.1-.3,0-.5,0-.6,0,0,.1-.3-.5,0,0,0,0,0,0,0,.5-.7-.5-.3-.6-.6,0-.4-.3-.5-.5-.7,0,0,0-.2-.4,0-.1,0-.2,0-.1,0,.4-.6,0-.5-.1-.8,0-.3-.5-.3-.2-.8,0-.2,0-.4-.5-.1-.2.1-.1-.1-.2-.2,0,0-.3,0-.4,0,0,0,0-.2.1-.4,0,0,0,0,0,0-.8.1-.3-.7-.7-.9-.4-.2-.6-.5-.7-.9,0-.2,0-.5.7-1.3.4-.4.8-.7,1.1-.9.2-.1.5-.2.5-.2.2,0,.3,0,.5,0,.3,0,.9,0,.8.3,0,.1.3,0,0,.4,0,0,0,.1,0,0,.8-.2.7.4.9.6.2.2.9,0,.9.5.6-.3.6,0,.6.2-.2.9.6,1.1.9,1.6.3.5.7,1,1.1,1.5,0,0,.4,0,.2.2-.1.2.1.2.2.3,0,0,.3.1.2.3-.3.8.4.9.6,1.4.2.4.4.8.9,1.1.2.2.7.2.8.5,0,.1.4,0,0,.5-.1.1.3,0,.4,0,.2.1.2.3.4.5.2.2.3.5.5.7.1.1.4.1.6.2.2.1.2.3.3.4,0,.2,0,.5,0,.7,0,.2.4.3.3.6-.2.6.2.8.4,1.2.2.4.4.7.7,1,.2.2-.1.6,0,.8,0,0-1.1,1-1.6,1.2,0,0-.2,0-.2,0-.5,0-1.2.3-1.3,0-.1-.3-.4-.6-.6-.9Z" fill="#aaca60"/>
  <path d="M210.5,158.7c0-.4,0-.7,0-1.1,0-.1.3-.3-.3-.4-.3,0,.4-.2.4-.3,0-.3,0-.7,0-1,0-.3-.2-.7-.3-1,0-.3.3-.7,0-1-.3-.3.2-.5.1-.8-.1-.3-.2-.6,0-.8.2-.2.4-.4.3-.6,0-.1-.4-.3-.4-.4,0-.1.3-.3-.3-.4,0,0,0,0,.1,0,.4-.1.4-.3.1-.4-.3-.1-.2-.2-.2-.3,0-.3,0-.6,0-.8,0-.2.3-.4.4-.6,0-.2-.2-.5,0-.7.3-.2.3-.4.3-.6,0-.1.3-.2-.3-.3,0,0,0,0,0,0,.8-.3-.3-.6,0-1,.2-.3,0-.7,0-1,0,0,.2-.2-.3-.3-.2,0-.2-.1,0-.2.6-.3.2-.5.3-.8.1-.3-.2-.6.3-.9.2-.1.3-.3-.3-.5-.3,0,0-.2,0-.3,0,0-.3-.2-.3-.3,0,0,.2-.2.3-.2,0,0,0,0,0,0-.7-.4.2-.9,0-1.3-.2-.4-.1-.9,0-1.3,0-.2.2-.5,1.4-.7.5,0,1.1-.1,1.4,0,.2,0,.5.1.5.2.1.1.2.3.3.4.2.3.7.6.5.9,0,0,.2.2-.3.3,0,0-.1,0,0,0,.8.4.3.8.4,1.2,0,.3.7.7.4,1,.6.2.5.4.3.6-.7.7-.2,1.4-.3,2.1,0,.7,0,1.4,0,2.1,0,.1.3.2,0,.4-.3.1,0,.3,0,.4,0,.1.1.3,0,.4-.7.5-.3,1.1-.4,1.6,0,.5-.2,1.1,0,1.6,0,.3.4.7.3,1,0,.1.3.3-.3.4-.2,0,.3.2.3.3,0,.2,0,.5,0,.7,0,.3,0,.6,0,.9,0,.2.3.4.3.6,0,.2,0,.4,0,.6,0,.3-.3.5-.4.7,0,.3.2.6-.1.8-.5.4-.3.9-.4,1.4,0,.5-.2.9,0,1.4,0,.3-.5.5-.5.7,0,.1-1.5.2-2,0,0,0-.2,0-.2,0-.4-.3-1.1-.6-1.1-.9.1-.4,0-.8.1-1.3Z" fill="#aaca60"/>
  <path d="M236.4,160.7c.2-.4.4-.7.5-1.1,0-.1.3-.2,0-.5-.2-.2.4,0,.5-.2,0-.4.3-.7.5-1,.1-.4,0-.8.2-1.1,0-.4.5-.6.4-1-.1-.4.4-.4.5-.7,0-.3,0-.7.4-.8.3-.1.5-.2.5-.5,0-.2-.2-.4-.2-.5,0-.1.4-.1-.1-.5,0,0,0,0,.2,0,.4,0,.5-.1.3-.4-.2-.2-.1-.3,0-.4.1-.3.2-.6.4-.8.1-.2.5-.3.6-.5.2-.2,0-.5.4-.6.4,0,.4-.3.5-.5,0-.1.4-.1-.2-.5,0,0,0,0,0,0,.9,0,0-.8.4-1,.4-.2.4-.7.5-1,0,0,.3-.1-.1-.4-.1,0-.1-.2,0-.2.7,0,.5-.4.7-.6.2-.2.1-.7.7-.8.2,0,.4-.2,0-.6-.2-.2.1-.2,0-.3,0-.1-.2-.3-.2-.4,0,0,.3,0,.4,0,0,0,0,0,0,0-.4-.7.6-.8.7-1.3,0-.5.3-.9.6-1.3.2-.2.4-.4,1.6,0,.5.1,1,.4,1.2.6.2.2.3.4.4.5,0,.2,0,.4.1.6,0,.4.4.9,0,1-.1,0,.1.3-.4.1,0,0-.1,0,0,0,.5.7-.1.9-.3,1.3-.1.4.3.9-.1,1.2.5.5.3.6,0,.7-.9.4-.8,1.2-1.2,1.9-.4.6-.6,1.3-1,2,0,.1.2.4,0,.4-.3,0-.2.3-.3.4,0,.1,0,.3-.2.4-.8.2-.7.9-1.1,1.4-.3.5-.6,1-.7,1.6,0,.4.1.8-.2,1.1-.1.1.1.4-.5.3-.2,0,.2.3.2.4,0,.2-.2.4-.3.7-.1.3-.3.6-.4.9,0,.2,0,.5,0,.7,0,.2-.1.4-.3.6-.2.2-.5.4-.7.6-.2.2,0,.6-.4.7-.7.2-.7.8-.9,1.2-.3.4-.5.9-.6,1.4,0,.3-.6.3-.7.6,0,.1-1.5-.4-1.9-.6,0,0-.2-.1-.2-.1-.3-.4-.9-1-.7-1.2.3-.4.4-.8.6-1.2Z" fill="#aaca60"/>
  <path d="M276.5,167.3c-.3.1-.5.2-.8.4,0,0-.3-.1-.1.4,0,.3-.3-.3-.4-.2-.2.2-.5.2-.7.4-.2.2-.3.5-.5.7-.2.2-.6,0-.6.5,0,.3-.5,0-.6.2-.1.2-.3.4-.6.3-.2,0-.5-.2-.5,0,0,.1,0,.4,0,.5,0,0-.3-.1,0,.4,0,0,0,0-.1,0-.3-.3-.4-.2-.3,0,0,.3,0,.3,0,.3-.2.1-.3.3-.6.3-.2,0-.4,0-.6,0-.2,0-.2.4-.5.2-.3-.2-.4,0-.5,0,0,0-.3-.1,0,.4,0,0,0,0,0,0-.7-.6-.3.5-.6.5-.3,0-.5.2-.7.4,0,0-.2,0,0,.4,0,.1,0,.2,0,.1-.5-.4-.5,0-.7,0-.3,0-.3.4-.8.1-.2-.1-.4-.1-.1.4.1.3-.1,0-.2.2,0,0,0,.3,0,.4,0,0-.2-.1-.3-.2,0,0,0,0,0,0,.1.7-.7.2-.9.6s-.5.5-.8.6c-.2,0-.5,0-1.2-.8-.4-.4-.7-.8-.8-1.1,0-.2-.2-.5-.2-.5,0-.2,0-.3,0-.5,0-.3,0-.9.3-.8.1,0,0-.3.4.1,0,0,0,0,0,0-.2-.8.4-.6.6-.8.2-.2,0-.9.4-.8-.2-.6,0-.6.2-.5.8.2,1-.4,1.5-.7.5-.2.9-.6,1.4-.9,0,0,0-.4.2-.2.2.2.2,0,.3-.1,0,0,.1-.2.3-.2.7.3.9-.2,1.3-.4.4-.2.8-.3,1.1-.7.2-.2.2-.6.5-.7.1,0,0-.4.4,0,.1.1,0-.3,0-.4.1-.1.3-.2.5-.3.2-.1.5-.2.6-.4.1-.1.1-.4.2-.5.1-.1.3-.2.4-.2.2,0,.5,0,.7,0,.2,0,.3-.4.6-.2.6.3.8-.1,1.1-.2.4-.1.7-.3,1-.5.2-.2.6.2.7.1,0,0,.9,1.2,1.1,1.7,0,0,0,.2,0,.2,0,.5.2,1.2,0,1.3-.3,0-.6.3-.9.4Z" fill="#aaca60"/>
  <path d="M167.2,179.8c-.2,0-.5,0-.7,0,0,0-.2-.3-.3.3,0,.3-.1-.4-.2-.4-.2,0-.5,0-.7,0-.2,0-.5.2-.7.3-.2,0-.4-.3-.7,0-.2.3-.3-.3-.5-.2-.2.1-.4.2-.6,0-.1-.2-.2-.4-.4-.3,0,0-.2.4-.3.3,0,0-.1-.3-.3.3,0,0,0,0,0-.2,0-.4-.2-.4-.3-.1-.1.3-.2.2-.2.2-.2,0-.4,0-.6,0-.1,0-.2-.3-.4-.4-.1,0-.3.2-.4-.1,0-.3-.2-.3-.4-.3,0,0-.1-.3-.3.3,0,0,0,0,0,0-.1-.8-.5.2-.6,0-.2-.2-.4-.1-.7-.1,0,0-.1-.2-.2.3,0,.2-.1.2-.1,0,0-.6-.3-.3-.5-.4-.2-.1-.4.1-.5-.4,0-.2-.1-.3-.3.2,0,.3-.1,0-.2,0,0,0-.2.3-.2.3,0,0,0-.2,0-.4,0,0,0,0,0,0-.4.6-.5-.3-.8-.2-.3.1-.6,0-.9-.1-.2,0-.3-.3-.2-1.4,0-.5.1-1.1.3-1.4,0-.2.2-.4.2-.5.1,0,.2-.2.3-.3.2-.2.5-.7.6-.3,0,0,.2-.2.1.3,0,0,0,.1,0,0,.4-.7.5-.2.8-.2.2,0,.5-.6.7-.3.2-.6.3-.5.4-.3.3.7.8.3,1.2.5.4.2.9.1,1.3.2,0,0,.2-.3.2,0,0,.3.2,0,.3,0,0,0,.2-.1.3,0,.3.7.6.3,1,.5.3.1.7.2,1,0,.2,0,.5-.4.6-.2,0,0,.2-.3.2.3,0,.2.1-.3.2-.3.1,0,.3,0,.4,0,.2,0,.4,0,.6,0,.1,0,.3-.3.4-.3.1,0,.3,0,.4,0,.2,0,.3.3.4.4.2,0,.4-.2.5.1.3.5.6.3.9.4.3,0,.6.1.9,0,.2,0,.3.5.5.5,0,0,0,1.5,0,2,0,0,0,.2,0,.2-.2.5-.4,1.2-.6,1.1-.3,0-.5,0-.8,0Z" fill="#aaca60"/>
  <path d="M321.9,322.8c-1.1-.8-2.3-1.6-3.4-2.4-.4-.3-.7-.8-1.5-.7-.4,0-.4-.7-.8-1-1.1-.7-2.1-1.5-3.2-2.2-1.1-.7-2.2-1.2-3.3-1.8-1.1-.6-2-1.6-3.2-2-1-.3-1.5-1.3-2.4-1.7-.9-.5-1.9-1-2.7-1.7-.5-.5-1.1-1.1-1.8-1.4-.4-.2-1-.1-1.4-.4-.4-.3-.7-.8-1.4-.4,0,0-.2-.2-.2-.3-.2-.6-.8-.9-1.3-.9-.5,0-.8-.2-1.1-.4-.9-.5-1.9-1-2.7-1.6-.7-.4-1.2-1-1.9-1.4-.7-.5-1.6-.6-2.1-1.2-.5-.6-1.2-1-1.9-1.3-.4-.2-.7-.7-1.3-.3,0,0-.2,0-.2-.1-.7-1.3-2.3-.8-3.3-1.5-1-.7-2.3-1.1-3.4-1.5-.3-.1-.6-.4-1,0-.2.1-.5,0-.6-.1-.7-.9-1.7-.8-2.5-1-1-.3-2-.2-3-.7-.4-.2-1-.3-1.5.3-.2.3-.7,0-1.1.1-.3,0-.5.4-.8.4-.2,0-.5-.1-.8-.2,0,0-.2,0-.2,0-.6.5-1.3.6-2,.8-.7.1-1.5.3-2.1.7-1.2.8-2.5,1.6-3.6,2.5-.7.5-1.3,1-2.6.7-.6-.1-1-.5-1-1,0-.4,0-.8.3-1.1.3-.5.6-1,1-1.4.7-.9,1.3-2,2.5-2.4.4-.1.6-.6,1.1-.3,0,0,.2,0,.3,0,1-1.5,2.9-1.6,4.4-2.1,1.3-.4,2.6-1.3,4.1-1.1.7-.7,1.7-.6,2.5-.3,2.8.8,5.5,1.1,8,2.1,2.5,1,4.9,2.1,7.2,3.3.4.2.9,0,1.2.5.3.5,1,.5,1.5.8.5.2,1,.4,1.4.7,1.5,1.5,3.4,2.2,5.2,3.2,1.7,1.1,3.4,2.1,5.2,3,1.1.6,2.3.9,3.3,1.7.4.3,1.1.3,1.2,1.1,0,.2.7,0,1,.3.7.4,1.4.9,2.1,1.4,1,.6,1.9,1.3,2.9,1.9.6.4,1.3.5,2,.9.7.4,1.3.8,1.9,1.2.7.6,1.4,1.3,2.1,1.9.8.6,1.8,1,2.4,1.7,1.1,1.4,2.7,2.2,4.1,3.2,1.4,1,2.8,2.1,4.2,3,.8.5,1.3,1.4,2,2,.4.3,0,1.8-.4,2.1,0,0-.2,0-.3,0-1-.2-2.1,0-3-.7-1.2-1-2.6-1.8-3.9-2.7Z"/>
  <path d="M290.7,383.9c-.1-.8-.2-1.6-.4-2.4,0-.3.1-.6-.4-.9-.3-.1.3-.5.2-.8-.2-.7-.2-1.5-.4-2.2-.2-.7-.6-1.4-.8-2.1-.2-.7,0-1.5-.6-2.1-.4-.5,0-1.2-.3-1.7-.3-.6-.5-1.1-.4-1.8,0-.5.2-.9,0-1.3-.1-.2-.5-.4-.6-.7,0-.3.1-.6-.5-.7,0,0,0-.2,0-.2.3-.4.2-.7-.2-.9-.3-.2-.4-.4-.4-.6-.2-.6-.4-1.2-.5-1.8,0-.5,0-1,0-1.4,0-.5-.5-.9-.4-1.4.2-.5,0-.9-.1-1.4,0-.2.1-.6-.6-.6,0,0,0,0,0-.2.6-.9-.7-1.3-.7-2,0-.8-.4-1.5-.6-2.2,0-.2,0-.5-.4-.5-.2,0-.3-.2-.2-.4.4-.7,0-1.2-.1-1.8,0-.7-.5-1.2-.2-2,.1-.3.1-.7-.5-.9-.3,0-.1-.5-.2-.7,0-.2-.4-.3-.5-.5,0-.2.1-.4.2-.6,0,0,0-.1,0-.2-.9-.8-.2-2-.6-2.9-.4-.9-.5-2-.5-3,0-.6,0-1.2,1.2-1.7.5-.2,1-.3,1.4-.1.3.1.5.3.6.5.1.3.3.6.5.8.3.6.9,1.1.7,1.7,0,.2.3.4-.2.6,0,0,0,.1,0,.2.9.7.6,1.6.9,2.4.2.7,1,1.2.9,2,.7.2.7.7.6,1.2-.3,1.6.6,2.9.9,4.3.3,1.4.9,2.8,1.3,4.3,0,.2.5.3.3.7-.2.3.1.6.2.9,0,.3.3.5.2.9-.3,1.3.5,2.3.7,3.5.3,1.1.6,2.3,1,3.4.3.7.8,1.3.9,2,0,.3.4.5,0,1-.1.1.4.3.4.5.2.5.3,1,.4,1.4.2.7.3,1.4.5,2,.1.4.5.8.6,1.2.2.4.2.9.3,1.3,0,.6,0,1.2,0,1.7,0,.6.4,1.1.2,1.7-.3,1.1,0,2.1.2,3.1,0,1,.2,2,.4,3,.1.6-.3,1.1-.3,1.7,0,.3-1.4.7-1.9.7,0,0-.2,0-.2,0-.5-.5-1.3-.9-1.3-1.5,0-.9-.2-1.8-.3-2.7Z"/>
  <path d="M419.4,396.9c-.2,3-.8,5.9-1.6,8.8-.3,1.1-.9,2.1-.8,3.4,0,.6-1,1.4-1.4,2.3-1.2,2.6-2.7,4.9-4.5,7.2-1.7,2.2-3.5,4.3-5.6,6.1-2.1,1.8-4.7,3-7.1,4.3-2,1.2-4.2,1.3-6.4,1.8-2.3.6-4.8.8-7.1.4-1.7-.2-3.3-.7-4.9-.9-1-.2-2.1-.1-3.1-.5-1-.4-2-1-3.1-.9,0,0-.5-.3-.7-.5-.4-.4-.9-.9-1.5-1.2-.5-.3-1-.6-1.5-.8-.9-.3-1.6-.9-2.3-1.5-.5-.4-1.1-1-1.6-1.9-.5-.9-.8-2-.8-3.1,0-1.1.5-2,.9-2.8.5-.7,1-1.3,1.6-1.8.8-.7,1.7-1.2,2.7-1.6.2-.1.5-.2.7-.3l.6-.2,1.3-.4c1.8-.6,3.7-1.3,5.5-1.2,1.8.1,3.5.1,5.2.4,1,.2,2,.7,3,.5,0,0,.5.1.6.2,1.2,1,2.4,1.6,3.6,2.5,1.2.8,2.4,1.9,3.1,3.3.7,1.5,1.2,3.1,1.3,4.7.1,1.6,0,3.3-.5,4.8-.1.4-.3.8-.4,1.2-.1.4-.2.8-.2,1.2,0,.3-.4,1.1-.7,1.4-1.7,1.6-2.9,3.6-4.7,5-1,.8-2,1.6-3.1,2.2-.5.3-1.1.7-1.6.9-.6.3-1.2.5-1.8.6-.5.2-1.1.3-1.7.6-.6.3-1.1.7-1.6,1.1-.5.4-1.7.6-2.5.9-.7.2-1.3.7-2,.9-.6.1-1.3,0-1.9,0-.2,0-.4,0-.6.1-3.4,1.3-7,.7-10.5.8-3.5.2-7.1-.1-10.5-.6-1.9-.3-3.8-.7-5-2-.5-.6-.4-1.1.4-1.4.6-.2,1.3-.3,2-.3,1.1,0,2.2,0,3.2,0,2.2,0,4.3-.3,6.5,0,.7.1,1.5-.2,2.1.4,0,0,.4.1.5,0,2.9-.8,6-.4,8.9-.9,2.5-.4,4.7-1.6,7.1-2.1.5-.5,1.2-.9,1.8-1.2.7-.3,1.4-.5,2-.8.6-.2,1.1-.4,1.7-.7.5-.3,1.1-.6,1.6-.9,1-.6,1.9-1.3,2.8-2.1,1.6-1.6,3-3.6,3.7-5.6.8-2,.8-4.2,0-6-.8-1.8-2.5-3.4-4.4-4.3-.7-.3-1.4-.2-2.1-.7-.7-.5-1.9-.4-2.9-.4-.9,0-1.9.2-2.8.2-1.9,0-3.8.5-5.5,1.3-.8.3-1.5.8-2.1,1.4-.6.5-.9,1.1-.9,1.4,0,.3,0,.6.6,1.2.3.3.7.6,1.1.9.4.3.7.6,1.1.8,1.6,1.1,3.3,1.9,5.1,2.5,2.2.7,4.5.8,6.8,1.1,1,.1,2-.2,3,.3.3.1,1.2-.3,1.8-.5,1.6-.2,3.1-.6,4.6-1,2.1-.7,4.1-1.6,6-2.8,1.1-.7,2.1-1.7,3.1-2.6,1-1,2.1-1.9,3-2.9,1.3-1.3,2.5-2.6,3.6-4.1,1.1-1.6,1.7-3.4,2.7-4.9.9-1.4,1.5-3,1.9-4.7.5-1.6.7-3.3,1-5,.5-3.3.6-6.8,0-10.1-.3-1.9,0-3.7-.5-5.6-.2-.8.9-2.4,1.5-2.2.1,0,.2.2.3.3.9,1.8,2,3.4,2.3,5.7.4,3.3.5,6.7.3,10.1Z" fill="#aaca60"/>
  <g>
    <g>
      <path d="M265.6,228.9c-2.3-2.5-4.6-5-7-7.5-.9-.9-1.6-2-2.9-2.6-.6-.3-1-1.6-1.8-2.5-2.2-2.3-4.3-4.7-6.6-7-2.1-2.2-4.4-4-6.8-4.9-2.4-.9-5.4-1.4-8.3-1.2-2.5.2-4.8-.3-7.2-.1-2.6.2-5.2.4-7.7.4-1.8,0-3.7,0-5.5.3-1.1.2-2.1.7-3.3.9-1.1.2-2.5.1-3.3,1,0,0-.6,0-.9,0-1.3-.1-2.8.2-3.7.7-.9.5-1.8.7-2.7.9-2.5.7-4.9,1.4-7.2,2.3-1.7.6-3.4,1.2-4.8,2.2-1.5,1-2.5,2.5-3.5,3.8-1.1,1.3-1.7,2.8-2.1,4.5-.2.9-.7,2.1-.2,3,0,0,0,.5,0,.6-1.2,2.8-.1,5.8-.4,8.8-.2,3.1,0,6.3.1,9.5,0,.8-.1,1.8.4,2.5.2.3.2,1.1.2,1.6-.5,2.4,0,4.8.2,7.2,0,1.4.2,2.7.4,4.1.2,1.4.3,2.7.2,4.1,0,1.2,0,2.8.8,4.1.3.6.3,2,.5,3,.2.8.5,1.6.7,2.4.1.7,0,1.4,0,2.1,0,.2,0,.5.1.7,1.3,3.9,1.1,7.9,1.9,11.9.9,4,1.6,8,2.2,12.1.4,2.2.6,4.6-.2,6.3-.4.8-.9.9-1.4,0-.4-.6-.7-1.4-1-2.2-.3-1.2-.7-2.5-1-3.7-.7-2.5-1.7-5-1.9-7.7,0-.8-.5-1.8-.2-2.5,0-.1,0-.5,0-.6-1.4-3.4-1.5-7.2-2.2-10.8-.5-3.1-1.6-6-1.8-9.2-.8-1.6-1-3.7-1-5.5,0-6.3-1.1-12.4-1.3-18.7v-4.8c-.1,0-.2-4.8-.2-4.8,0-3.2,0-6.3.4-9.6.1-1.1,0-2.1.4-3.4.5-1.2.7-2.8,1.3-4.3.5-1.3,1.1-2.7,2-3.7,3.7-4.4,8.7-6.8,13.6-8.2,4.8-1.4,9.7-2.5,14.5-3.5,3-.6,5.9-1.4,9-1.5,1.3,0,2.7-.5,4,0,.4.1,1.6-.4,2.4-.4,2.1-.1,4.2-.2,6.3-.1,2.9,0,5.8,0,8.9.5,1.9.3,3.9.6,5.8,1.5,2,.9,3.6,2.3,5,3.7,1.7,1.8,3,3.6,4.6,5.3,1.6,1.8,3.5,3.4,4.8,5.3,2.5,3.5,5.6,6.4,8.5,9.5,2.8,3.1,5.7,6.2,8.7,9.2,1.7,1.7,2.8,3.6,4.4,5.3.7.8.7,2.9,0,2.9-.1,0-.3,0-.5-.2-1.9-1.4-3.9-2.4-5.6-4.4-2.6-2.9-5.3-5.7-7.9-8.5Z"/>
      <path d="M251.1,249.7c.5-.2,1-.5,1.5-.8.2-.1.5,0,.4-.5,0-.3.4.2.6,0,.4-.3.9-.4,1.4-.7.4-.3.8-.7,1.2-.9.4-.3,1-.2,1.3-.7.3-.4.8-.1,1.1-.4.3-.3.7-.5,1.2-.5.3,0,.7.1.9,0,.1-.1.2-.5.4-.6.2,0,.5.1.4-.5,0,0,.1,0,.2,0,.3.3.6.2.6-.1,0-.3.2-.3.3-.4.4-.2.8-.4,1.2-.5.3,0,.7,0,1,0,.3,0,.6-.5.9-.3.4.2.7,0,.9,0,.2,0,.4.1.4-.5,0,0,0,0,0,0,.7.6.8-.6,1.3-.5.5,0,1-.3,1.5-.5.1,0,.3,0,.3-.4,0-.2.1-.2.2-.1.6.5.8,0,1.2,0,.5,0,.8-.4,1.4-.1.2.1.5.2.6-.5,0-.3.3,0,.4-.2.1,0,.2-.4.3-.4.1,0,.3.2.4.2,0,0,0,0,.1,0,.4-.8,1.3-.2,1.9-.5.6-.4,1.2-.5,1.9-.6.4,0,.8,0,1.3,1.1.2.5.4,1,.3,1.4,0,.3-.1.5-.2.6-.2.1-.3.3-.5.5-.3.3-.6.9-1.1.8-.2,0-.2.3-.5-.2,0,0,0,0-.1,0-.3.9-1,.6-1.6.8-.5.2-.7.9-1.3.8,0,.7-.4.7-.7.6-1.1-.3-1.9.4-2.8.6-1,.2-1.8.7-2.8,1-.2,0-.2.4-.4.2-.3-.2-.4,0-.6.2-.2,0-.3.3-.6.2-.9-.3-1.5.3-2.3.5-.7.2-1.5.4-2.1.9-.4.3-.7.8-1.2.8-.2,0-.3.4-.7,0-.1-.1-.1.4-.2.4-.3.2-.6.3-.9.4-.4.2-.8.3-1.2.6-.2.1-.4.5-.6.6-.2.2-.5.3-.8.4-.4,0-.8,0-1.1.1-.4.1-.6.5-1,.4-.8-.2-1.3.4-1.9.6-.6.2-1.2.5-1.8.9-.3.2-.8,0-1.2.1-.1,0-1-1.1-1.2-1.6,0,0,0-.2,0-.2.1-.6,0-1.4.5-1.5.6-.2,1.1-.6,1.7-.8Z"/>
      <path d="M234.7,261c.5.9,1,1.9,1.7,2.7.3.3.3.8,1,.8.3,0,.1.7.4.9.8.7,1.5,1.4,2.3,2,.8.6,1.8.9,2.7,1.4.9.4,1.7,1.1,2.7,1.2.8,0,1.4.7,2.2.8.8,0,1.7.2,2.4.5.6.2,1.1.5,1.7.4.4,0,.7-.4,1.1-.3.4,0,.8.3,1.1-.4,0,0,.2,0,.3.1.4.4.9.3,1.2,0,.3-.3.6-.3.9-.4.8-.2,1.6-.4,2.4-.6.6-.1,1.3-.1,1.8-.3.6-.2,1.1-.7,1.8-.7.7,0,1.2-.3,1.7-.6,0,0,.2,0,.2-.1,0,0,.2,0,.2,0,0,0,0-.1-.2-.4,0,0,0,0,0,0,.4.2.6,0,.5,0,0-.1-.4-.2-.2-.2,0,0,.2,0,.2,0,0,0-.3-.1-.5-.2,0,0,0-.2-.3.2,0,0,0,.1-.1,0-.1,0-.2-.1-.2-.2-.4-1-1.4-1.1-2.1-1.8-.8-.7-1.8-1.1-2.3-2.1-.2-.4-.6-.9-1.4-.8-.4,0-.5-.5-.9-.7-.3-.2-.7-.2-.9-.4-.2-.2-.2-.5-.3-.8,0,0,0-.1-.2-.2-1.5-.7-1.8-2.4-2.8-3.5-1-1.1-1.8-2.5-2.5-3.9-.4-.8-.6-1.6.2-2.6.4-.4.9-.7,1.3-.5.3.1.6.3.8.5.3.4.6.7.9,1,.6.7,1.5,1.1,1.7,2,0,.3.5.4.2.9,0,0,0,.2,0,.2,1.4.5,1.7,1.8,2.6,2.7.4.4.8.6,1.3.9.4.3.9.6,1.2,1,.8,0,1.3.4,1.6.9.6.9,1.4,1.6,2.2,2.1.4.3.9.5,1.3.8l.7.4c.4.2.8.5,1.3.7,1.7.8,3.4,1.6,5.1,2.4-.2.3-.7.7-1,1l-1.1,1.1-1.1,1-1.2,1c-.3.2-.4.5-.7.7-.2.2-.6.5-.9.6-.5,0-.9.5-1.4.8-.4.2-.8.6-1.3.7-2,.2-3.5,1.2-5.4,1.6-1.8.4-3.7.5-5.5.7-1.1.1-2.3.4-3.4.1-.5-.1-1.1.1-1.4-.5-.1-.2-.6.2-1,.1-.8-.1-1.5-.4-2.3-.6-1-.3-2-.8-3-1.2-.6-.3-1.3-.4-1.9-.7-.6-.3-1.2-.7-1.8-1.2-.7-.6-1.3-1.3-1.9-1.9-.6-.6-1.5-1.1-1.9-2-.7-1.6-1.9-2.6-2.6-4.1-.8-1.5-1.4-3-1.8-4.7-.3-1,.2-1.9.2-2.9,0-.5,1.6-.8,2-.6,0,0,.2.1.2.2.4.8,1.1,1.4,1.1,2.1,0,1.1.5,2.2,1,3.3Z"/>
      <path d="M257.7,287.5c-.8,0-1.7-.2-2.5-.2-.3,0-.6-.3-1,.2-.2.2-.4-.4-.7-.4-.8,0-1.6-.3-2.4-.3-.8,0-1.6,0-2.4-.1-.8-.1-1.5-.6-2.3-.5-.7,0-1.1-.6-1.8-.7-.7,0-1.4-.3-1.9-.8-.4-.4-.7-.8-1.2-.9-.3,0-.7,0-1-.1-.3-.2-.4-.6-1-.2,0,0-.1-.1-.1-.3,0-.5-.4-.8-.8-.7-.4,0-.6-.1-.8-.3-.6-.5-1.2-.9-1.6-1.5-.3-.4-.5-1-.8-1.5-.3-.5-.9-.8-.9-1.4,0-.6-.3-1-.5-1.4-.1-.2,0-.7-.7-.6,0,0-.1,0,0-.2.4-1.1-.9-1.3-1-2.2,0-.8-.5-1.6-.7-2.4,0-.2,0-.5-.4-.6-.2,0-.2-.2-.2-.4.5-.7,0-1.3,0-1.9,0-.7-.4-1.3,0-2.1.2-.3.2-.7-.4-1-.3-.1,0-.5-.2-.7,0-.2-.4-.4-.4-.6,0-.2.2-.4.3-.6,0,0,0-.1,0-.2-.8-.9,0-2-.2-3-.2-1-.2-2-.2-3,0-.5.2-1.1,1.3-1.5.5-.2,1.1-.2,1.4,0,.2.2.5.3.5.5.1.3.3.6.4.9.2.6.8,1.2.5,1.8,0,.2.2.4-.3.6,0,0-.1.1,0,.1.9.8.4,1.7.5,2.5.1.7.8,1.3.7,2.1.7.3.6.8.5,1.2-.4,1.5.3,2.8.6,4.2.3,1.4.8,2.7,1.4,3.9,0,.2.5.2.4.6-.1.3.2.5.4.8.1.2.4.4.4.7,0,.6.3,1.1.6,1.5l1.1,1.1c.4.4.7.8,1.1,1.1.2.2.4.3.6.5.2.1.5.2.7.3.6.3,1.3.2,1.8.6.2.2.6,0,.7.6,0,.2.4-.1.6,0,.4.1.9.3,1.3.4.6.2,1.2.4,1.8.5.4,0,.8,0,1.2,0,.4,0,.8.1,1.2.2.5.2,1,.5,1.5.6.5.2,1.1,0,1.6.3.9.6,1.9.5,2.9.6,1,.1,2,.3,3,.2.6,0,1.1.5,1.6.5.3,0,.5,1.5.4,2,0,0,0,.2-.1.2-.6.4-1.1,1.1-1.7,1.1-.9-.1-1.9-.1-2.8-.2Z"/>
      <path d="M242.4,300.6c.3-.2.6-.4.9-.6,0,0,.4,0,.2-.5-.1-.3.4.2.5,0,.2-.3.6-.4.8-.7.2-.3.3-.7.5-1,.2-.3.7-.3.7-.8,0-.4.5-.2.7-.5.1-.3.3-.6.6-.7.3,0,.6,0,.6-.3,0-.1-.1-.5,0-.6.1,0,.4,0,0-.5,0,0,0,0,.2,0,.4.2.5,0,.4-.3-.1-.3,0-.3,0-.4.2-.3.4-.5.6-.7.2-.1.5-.2.7-.3.2-.1.2-.5.5-.5.4,0,.5-.1.7-.3,0,0,.4,0,0-.5,0,0,0,0,0,0,.9.3.3-.7.7-.9.4-.1.6-.5.8-.8,0,0,.3,0,0-.4,0-.1,0-.2,0-.2.7.2.6-.3.8-.4.3-.2.3-.6.9-.5.2,0,.5,0,.1-.6-.2-.2.2-.2.2-.3,0-.1-.1-.4,0-.4,0,0,.3,0,.4,0,0,0,0,0,0,0-.2-.8.8-.6,1-1.1.2-.5.6-.8,1-1.1.2-.2.5-.3,1.5.4.4.3.9.6,1,.9.1.2.2.4.2.6,0,.2,0,.4,0,.6,0,.4.1,1-.3,1-.1,0,0,.3-.4,0,0,0-.1,0-.1,0,.3.9-.4.8-.6,1.2-.2.3,0,1-.4,1.1.3.6,0,.7-.2.7-1,.1-1.2,1-1.7,1.5-.6.5-1,1.1-1.5,1.7,0,0,.1.4-.2.3-.3,0-.3.2-.4.3-.1.1-.1.3-.3.3-.9,0-1,.7-1.4,1.1-.4.4-.9.8-1.2,1.4-.2.3-.1.8-.5,1-.1,0,0,.4-.6.2-.2,0,0,.3,0,.4-.1.2-.3.4-.5.6-.3.3-.5.5-.8.8-.1.2-.1.5-.2.7-.1.2-.3.4-.5.5-.3.2-.6.2-.9.3-.3.2-.4.6-.8.6-.8,0-1.1.5-1.6.7-.5.3-1,.5-1.5.9-.3.2-.8-.1-1,0-.1,0-.8-1.3-.9-1.7,0,0,0-.2,0-.2,0-.5,0-1.3.3-1.3.4,0,.7-.3,1.1-.5Z"/>
      <path d="M230.2,240.1c0-.2,0-.4,0-.6,0,0,.3-.1-.3-.2-.3,0,.4,0,.4-.1,0-.2,0-.4,0-.5,0-.2-.2-.4-.3-.6,0-.2.3-.3,0-.5-.3-.2.2-.3.1-.4-.1-.2-.2-.3,0-.4.2,0,.4-.2.3-.3,0,0-.4-.2-.3-.2,0,0,.3-.1-.3-.2,0,0,0,0,.2,0,.4,0,.4-.1.1-.2-.3,0-.2-.1-.2-.2,0-.2,0-.3,0-.4,0-.1.3-.2.4-.3,0-.1-.2-.3.1-.3.3,0,.3-.2.3-.3,0,0,.3,0-.3-.2,0,0,0,0,0,0,.8,0-.2-.4,0-.5.2-.2,0-.4,0-.5,0,0,.2,0-.3-.2-.2,0-.2,0,0,0,.6,0,.3-.2.4-.4.1-.1-.1-.3.4-.4.2,0,.3-.1-.2-.3-.3,0,0-.1,0-.2,0,0-.3-.1-.3-.2,0,0,.2,0,.4,0,0,0,0,0,0,0-.6-.3.3-.4.1-.7-.2-.3,0-.5,0-.7,0-.1.3-.2,1.4-.2.5,0,1.1,0,1.4.2.2,0,.5.1.5.2,0,0,.2.2.3.3.2.2.7.4.4.5,0,0,.2.1-.3.1,0,0-.1,0,0,0,.8.3.2.4.3.6,0,.2.6.4.4.6.6.2.5.3.3.3-.7.3-.3.7-.4,1-.1.3,0,.7-.1,1,0,0,.3.1,0,.2-.3,0,0,.1,0,.2,0,0,.1.2,0,.2-.7.2-.3.5-.4.8,0,.3-.2.5,0,.8,0,.2.4.4.3.5,0,0,.3.2-.3.2-.2,0,.3.1.3.2,0,.1,0,.2,0,.3,0,.2,0,.3,0,.5,0,0,.3.2.3.3,0,.1,0,.2,0,.3,0,.1-.3.2-.4.4,0,.1.2.3-.1.4-.5.2-.3.4-.4.7,0,.2-.1.5,0,.7,0,.1-.5.2-.5.3,0,0-1.5,0-2,0,0,0-.2,0-.2,0-.5-.2-1.2-.3-1.1-.5,0-.2,0-.4,0-.7Z"/>
      <path d="M245.5,240.1c0-.2,0-.4,0-.6,0,0,.3-.1-.3-.2-.3,0,.4,0,.4-.1,0-.2,0-.4,0-.5,0-.2-.2-.4-.3-.6,0-.2.3-.3,0-.5-.3-.2.2-.3.1-.4-.1-.2-.2-.3,0-.4.2,0,.4-.2.3-.3,0,0-.4-.2-.3-.2,0,0,.3-.1-.3-.2,0,0,0,0,.2,0,.4,0,.4-.1.1-.2-.3,0-.2-.1-.2-.2,0-.2,0-.3,0-.4,0-.1.3-.2.4-.3,0-.1-.2-.3.1-.3.3,0,.3-.2.3-.3,0,0,.3,0-.3-.2,0,0,0,0,0,0,.8,0-.2-.4,0-.5.2-.2,0-.4,0-.5,0,0,.2,0-.3-.2-.2,0-.2,0,0,0,.6,0,.3-.2.4-.4.1-.1-.1-.3.4-.4.2,0,.3-.1-.2-.3-.3,0,0-.1,0-.2,0,0-.3-.1-.3-.2,0,0,.2,0,.4,0,0,0,0,0,0,0-.6-.3.3-.4.1-.7-.2-.3,0-.5,0-.7,0-.1.3-.2,1.4-.2.5,0,1.1,0,1.4.2.2,0,.5.1.5.2,0,0,.2.2.3.3.2.2.7.4.4.5,0,0,.2.1-.3.1,0,0-.1,0,0,0,.8.3.2.4.3.6,0,.2.6.4.4.6.6.2.5.3.3.3-.7.3-.3.7-.4,1-.1.3,0,.7-.1,1,0,0,.3.1,0,.2-.3,0,0,.1,0,.2,0,0,.1.2,0,.2-.7.2-.3.5-.4.8,0,.3-.2.5,0,.8,0,.2.4.4.3.5,0,0,.3.2-.3.2-.2,0,.3.1.3.2,0,.1,0,.2,0,.3,0,.2,0,.3,0,.5,0,0,.3.2.3.3,0,.1,0,.2,0,.3,0,.1-.3.2-.4.4,0,.1.2.3-.1.4-.5.2-.3.4-.4.7,0,.2-.1.5,0,.7,0,.1-.5.2-.5.3,0,0-1.5,0-2,0,0,0-.2,0-.2,0-.5-.2-1.2-.3-1.1-.5,0-.2,0-.4,0-.7Z"/>
    </g>
    <path d="M145.5,341.8c1.6-2.2,3.1-4.4,4.8-6.5.6-.8,1.4-1.4,1.7-2.6.1-.6,1.2-.9,1.8-1.6,1.6-1.9,3.3-3.7,5-5.6,1.6-1.8,3.1-3.7,4.8-5.4,1.6-1.7,3.6-3.3,5-5.1,1.2-1.6,2.9-2.5,4.1-3.8,1.4-1.5,2.8-3,4.4-4.1,1.1-.9,2.3-1.7,3.3-2.7.6-.7,1-1.5,1.7-2.1.6-.6,1.6-1.1,1.7-2.1,0,0,.4-.3.6-.4,1-.4,1.8-1.2,2.2-2,.4-.7.9-1.2,1.4-1.7,1.4-1.5,2.8-2.9,4.1-4.3,1-1.1,2.2-2,3.3-3.1,1.1-1.1,1.9-2.6,3.1-3.5,1.1-.9,2.1-2,2.9-3.1.5-.6,1.3-1.2,1.1-2.1,0,0,.2-.3.3-.4,1-.7,1.7-1.6,2.2-2.6.5-1,.9-2.1,1.6-3,.2-.1.3-.3.4-.4-.1,0-.3-.1-.4-.2h0s-.4-.3-.4-.3l-1-.6c-.6-.3-1.1-.8-1.9-.8-.3,0-.9-.3-1.1-.6-1.2-1.5-3.1-2.3-4.6-3.5-1.7-1.4-3.6-2.7-4.8-4.7-.5-.8-1.3-1.9-2.5-2.4-.6-.3-1-1.4-1.5-2.1-.4-.6-1-1.1-1.3-1.7-.3-.6-.3-1.2-.4-1.9,0-.2,0-.4-.2-.6-.8-1.6-1-3.7-.6-5.6,0-.5.3-1,.4-1.4.2-.5.4-1,.7-1.4.3-.4.6-.9.9-1.3.3-.4.6-.8,1-1.1,1.4-1.5,3.2-2.4,5.1-2.8,1.9-.4,3.9-.4,5.8.1.3,0,.5.2.8.3.3.1.5.2.7.4.5.2.9.6,1.3.9.8.7,1.2,1.7,1.2,2.5,0,.8-.5,1-1.2.7-.5-.3-1.1-.4-1.5-.7-.8-.4-1.6-.6-2.4-.7-.4,0-.9,0-1.3,0-.4,0-.8.1-1.2.2-.8.2-1.6.5-2.4.6-.3,0-.5.2-.7.4-.2.1-.5.2-.8.1,0,0-.3,0-.3.2-.6,1-1.2,1.8-1.5,2.8-.3,1-.5,2.2-.3,3.3.2,1,.7,1.9,1.2,2.8.5.9,1.1,1.7,1.7,2.7,1.2.6,2,1.7,2.7,2.7,1.3,1.8,3,3.3,4.9,4.6,1.9,1.3,3.9,2.5,5.9,3.7l1.1.7,1.3.8,4,2.3-3.8,5.9c-.4.7-.9,1.3-1.3,2l-1.4,1.9c-.5.7-.6,1.5-1.5,2.1-.8.6-1.3,1.7-2,2.5-.6.8-1.2,1.6-1.9,2.2-.7.6-1.4,1.3-2.1,2-.7.7-1.3,1.4-2,2.1-1.3,1.4-2.5,2.9-3.9,4.2l-4,4c-1.4,1.3-2.7,2.7-4,4.1-1.6,1.7-3,3.5-4.8,5-.8.6-1.3,1.6-2.4,1.8-.3,0-.7,1-1.1,1.5-1.1,1.1-2.3,2.2-3.4,3.3-1.6,1.5-3.2,3-4.7,4.6-.9,1-1.7,2.1-2.6,3-.9,1-1.9,2-2.9,3-1.3,1.2-2.6,2.3-3.8,3.6-1.2,1.3-2.3,2.9-3.6,4-2.4,2.2-4.3,4.8-6.1,7.4-2,2.5-3.6,5.3-5.2,8-.8,1.6-2,2.8-2.8,4.4-.4.7-2.2,1.1-2.5.6,0,0,0-.3,0-.4.4-1.8.5-3.6,1.5-5.4.3-.7.7-1.3,1.2-2l1.2-1.9c.8-1.3,1.5-2.6,2.5-3.8Z"/>
    <path d="M199.5,356.9c-.2-1-.4-2-.6-2.9,0-.4,0-.8-.5-1.1-.3-.1.2-.6.1-.9-.3-.9-.4-1.8-.6-2.7-.3-.9-.7-1.7-1-2.6-.3-.9-.2-1.8-.7-2.6-.5-.7-.1-1.4-.4-2.1-.3-.7-.6-1.4-.6-2.2,0-.6,0-1.1-.2-1.6-.2-.3-.6-.5-.6-.9,0-.3,0-.8-.6-.9,0,0,0-.2,0-.3.3-.5.1-.9-.2-1.1-.3-.2-.4-.5-.5-.7-.3-.7-.5-1.5-.7-2.2-.1-.6,0-1.2-.2-1.7-.1-.6-.6-1.1-.5-1.7.1-.6,0-1.1-.2-1.7,0-.3,0-.7-.6-.8,0,0,0-.1,0-.2.5-1.1-.8-1.6-.9-2.5,0-1-.5-1.8-.8-2.7,0-.2,0-.6-.5-.7-.2,0-.3-.3-.2-.4.4-.9-.2-1.5-.2-2.2-.1-.8-.6-1.6-.3-2.5.1-.4.1-.9-.5-1.2-.3-.1-.1-.6-.3-.9-.1-.2-.4-.4-.5-.7,0-.2.1-.5.2-.7,0,0,0-.1,0-.2-.9-1.1-.2-2.5-.5-3.7-.3-1.2-.4-2.5-.3-3.8,0-.7.2-1.4,1.3-1.9.5-.2,1.1-.2,1.4,0,.2.2.5.4.5.7.1.4.2.7.4,1.1.3.7.8,1.4.6,2.2,0,.2.3.5-.2.7,0,0,0,.1,0,.2.9.9.5,2,.8,3.1.2.9,1,1.6.9,2.5.7.3.7.9.7,1.5-.2,1.9.7,3.5,1.1,5.2.4,1.8,1.1,3.5,1.6,5.3,0,.3.5.5.4.9-.1.4.2.8.3,1.2.1.4.4.7.3,1.1-.2,1.6.6,2.9,1,4.3.4,1.4.7,2.8,1.3,4.2.3.8.9,1.6,1,2.5,0,.4.5.7,0,1.2-.1.1.4.4.5.6.2.6.3,1.2.5,1.8.2.8.4,1.7.6,2.5.2.5.5.9.7,1.4.2.5.3,1,.4,1.6,0,.7,0,1.4.1,2.1,0,.7.5,1.4.4,2.1-.2,1.3.3,2.5.5,3.8.2,1.2.4,2.5.7,3.7.2.7-.2,1.4,0,2.1,0,.3-1.3,1-1.8,1,0,0-.2,0-.3,0-.6-.6-1.4-1.1-1.5-1.8-.1-1.1-.4-2.2-.6-3.4Z"/>
    <path d="M162.2,366.5c-.5-.1-.9-.3-1.4-.3-.2,0-.3-.3-.6.2-.2.2-.2-.4-.3-.4-.5,0-.9-.3-1.3-.3-.4,0-.9,0-1.4,0-.4,0-.8-.5-1.3-.3-.4.2-.6-.4-1-.4-.4,0-.8,0-1.1-.4-.2-.3-.4-.5-.7-.5-.2,0-.4.3-.6.2-.2,0-.2-.4-.6.2,0,0,0,0,0-.2,0-.4-.2-.5-.5-.3-.2.2-.3.1-.5,0-.4,0-.7-.2-1.1-.4-.2-.1-.4-.5-.7-.6-.2-.2-.7,0-.8-.4-.1-.4-.4-.5-.6-.6-.1,0-.2-.4-.6.1,0,0,0,0,0,0,0-.9-.9-.1-1.2-.5-.3-.4-.8-.4-1.2-.6-.1,0-.2-.3-.4,0-.1.1-.2,0-.2,0,0-.7-.5-.5-.8-.8-.3-.3-.8-.2-.9-.8,0-.3-.2-.5-.7,0-.2.2-.3-.1-.4-.1-.1,0-.4.2-.5.1,0,0,0-.3-.1-.4,0,0,0,0,0,0-.8.3-.9-.7-1.5-.9-.6-.1-1.1-.5-1.5-.9-.3-.2-.5-.5,0-1.6.2-.5.5-1,.7-1.2.2-.2.4-.3.5-.3.2,0,.4,0,.6,0,.4,0,1-.3,1.2.2,0,.1.3,0,.2.4,0,0,0,.1,0,.1.8-.5,1,.3,1.5.4.4.2,1.1-.2,1.3.2.5-.5.7-.2.8,0,.5,1,1.4.9,2.1,1.4.7.4,1.6.7,2.3,1.1.1,0,.4-.2.4.1,0,.3.3.2.5.3.2,0,.4,0,.5.2.4.9,1.2.7,1.8,1,.6.3,1.2.6,1.9.7.4,0,.9-.2,1.3.1.1.1.4-.2.4.5,0,.2.3-.2.4-.2.3,0,.5.2.8.2.4.1.7.3,1.1.3.2,0,.5-.1.8-.1.3,0,.5,0,.7.2.3.2.5.4.8.6.3.2.7,0,.9.3.4.6,1.1.5,1.6.7.5.2,1.1.4,1.7.4.3,0,.5.6.8.6.1,0,0,1.5-.1,2,0,0,0,.2-.1.2-.4.4-.8,1-1.2.9-.5-.2-1.1-.2-1.6-.4Z"/>
    <path d="M171.8,343.1c-.1.4-.3.8-.4,1.2,0,.2-.3.2.1.6.2.2-.4.1-.5.3,0,.4-.3.8-.4,1.2,0,.4,0,.8,0,1.2,0,.4-.5.7-.3,1.1.2.4-.4.5-.4.8,0,.4,0,.7-.4.9-.2.2-.5.3-.5.6,0,.2.3.4.2.5,0,.1-.4.2.2.5,0,0,0,0-.2,0-.4,0-.5.2-.3.4.2.2.1.3.1.4,0,.3-.2.6-.3.9-.1.2-.4.4-.6.6-.1.2,0,.6-.3.7-.4.1-.4.3-.5.6,0,.1-.4.2.2.5,0,0,0,0,0,0-.9,0,0,.8-.3,1.1-.3.3-.3.7-.4,1.1,0,.1-.2.2.2.4.1,0,.1.2,0,.2-.7,0-.4.5-.6.8-.2.3,0,.7-.7.9-.2,0-.4.2,0,.6.2.2,0,.2,0,.4,0,.1.2.3.2.4,0,0-.3,0-.4.1,0,0,0,0,0,0,.5.7-.6.9-.6,1.4,0,.5-.2,1-.5,1.5-.1.3-.4.5-1.6.3-.5,0-1-.3-1.3-.5-.2-.2-.4-.3-.4-.4,0-.2-.1-.4-.1-.6,0-.4-.5-.9,0-1.1.1,0-.1-.3.4-.2,0,0,.1,0,0,0-.6-.7,0-1,.2-1.4,0-.4-.4-1,0-1.3-.5-.4-.3-.6,0-.8.9-.5.7-1.4,1.1-2.1.4-.7.5-1.5.8-2.3,0-.1-.2-.4,0-.4.3,0,.2-.3.2-.5,0-.2,0-.4.2-.4.8-.4.7-1.1.9-1.7.3-.6.5-1.1.6-1.8,0-.4-.2-.9,0-1.2.1-.1-.2-.4.5-.4.2,0-.2-.3-.2-.4,0-.3.2-.5.2-.7.1-.3.3-.7.3-1,0-.2-.1-.5-.1-.7,0-.2,0-.5.2-.7.2-.3.5-.5.6-.7.2-.3,0-.7.4-.8.7-.3.6-.9.8-1.4.2-.5.5-1,.5-1.5,0-.3.6-.4.7-.7,0-.1,1.5.2,1.9.4,0,0,.2.1.2.1.3.4.9.9.8,1.2-.2.4-.3.9-.5,1.4Z"/>
    <path d="M179,365.4c0-.4.1-.7,0-1.1,0-.1.3-.3-.3-.4-.3,0,.4-.2.4-.3,0-.3,0-.7,0-1,0-.3-.2-.7-.2-1,0-.3.3-.7,0-1-.3-.3.3-.5.2-.8,0-.3-.2-.6.1-.8.2-.2.4-.4.3-.6,0-.1-.4-.3-.3-.4,0-.1.3-.2-.3-.4,0,0,0,0,.2,0,.4,0,.4-.3.1-.4-.3-.1-.2-.2-.2-.3,0-.3,0-.6,0-.8,0-.2.3-.4.4-.6,0-.2-.2-.5.1-.7.3-.2.3-.4.3-.6,0-.1.3-.2-.3-.4,0,0,0,0,0,0,.9-.2-.2-.7,0-1,.2-.3.1-.7.1-1,0,0,.2-.2-.3-.3-.2,0-.2-.1,0-.2.6-.2.3-.5.4-.7.1-.3-.1-.6.4-.9.2-.1.3-.3-.2-.5-.3,0,0-.2,0-.3,0,0-.3-.2-.3-.3,0,0,.2-.1.4-.2,0,0,0,0,0,0-.6-.5.3-.8.2-1.3-.1-.5,0-.9.1-1.3,0-.2.3-.5,1.4-.5.5,0,1.1,0,1.4.2.2.1.4.2.5.3,0,.1.2.3.3.4.2.3.7.6.4.9,0,0,.2.2-.3.2,0,0-.1,0,0,0,.8.5.2.8.2,1.2,0,.3.6.7.3,1,.6.3.5.5.3.6-.7.6-.3,1.3-.5,1.9-.2.7-.1,1.3-.2,2,0,.1.3.2,0,.4-.3,0,0,.3,0,.4,0,.1.1.3,0,.4-.7.5-.4,1-.5,1.5-.1.5-.2,1-.1,1.6,0,.3.4.7.2,1,0,.1.3.3-.3.4-.2,0,.3.2.3.3,0,.2,0,.4,0,.7,0,.3-.1.6,0,.9,0,.2.2.4.3.6,0,.2,0,.4,0,.6,0,.2-.3.5-.4.7,0,.3.2.5-.1.8-.6.4-.3.9-.4,1.3-.1.4-.2.9-.1,1.4,0,.3-.5.5-.5.7,0,.1-1.5.2-2,0,0,0-.2,0-.2,0-.4-.3-1.1-.6-1.1-.8.1-.4,0-.8.1-1.3Z"/>
    <path d="M203.9,362.1c-.2.2-.5.3-.7.5,0,0-.3,0-.1.4,0,.3-.3-.2-.4-.2-.2.2-.5.3-.6.4-.2.2-.3.5-.5.7-.2.2-.6,0-.6.5,0,.3-.5,0-.6.2-.1.2-.3.4-.6.3-.2,0-.4-.2-.5,0,0,.1,0,.4,0,.5,0,0-.3-.2-.1.4,0,0,0,0-.1,0-.3-.3-.4-.2-.3,0,0,.3,0,.3-.1.3-.2.1-.4.2-.6.3-.2,0-.4-.1-.6-.1-.2,0-.2.3-.5.1-.3-.2-.4-.1-.5,0,0,0-.3-.2,0,.4,0,0,0,0,0,0-.5-.7-.4.4-.7.3-.3-.1-.5.1-.7.3,0,0-.2-.1,0,.3,0,.2,0,.2-.1.1-.4-.5-.5,0-.7-.1-.3,0-.4.3-.7,0-.2-.2-.3-.2-.2.4,0,.3-.2,0-.2.1,0,0,0,.3,0,.4,0,0-.2-.2-.3-.3,0,0,0,0,0,0-.1.7-.7,0-1,.2-.3.3-.6.3-1,.3-.2,0-.4-.1-.8-1.2-.2-.5-.3-1-.3-1.4,0-.2,0-.5,0-.6,0-.1.1-.3.2-.4.1-.2.2-.8.5-.6,0,0,0-.2.3.2,0,0,0,0,0,0,0-.8.4-.4.7-.6.2-.1.2-.8.5-.6,0-.6,0-.6.3-.4.6.5.9,0,1.4-.2.5,0,.9-.3,1.3-.5,0,0,0-.4.2-.2.2.2.2,0,.3,0,0,0,.1-.2.3,0,.6.5.8,0,1.1-.2.4,0,.7-.2,1-.5.2-.2.2-.6.4-.6.1,0,0-.3.4.1.1.1,0-.3,0-.4.1-.1.3-.2.4-.2.2,0,.4-.2.5-.3,0,0,0-.4.2-.5,0-.1.2-.2.3-.2.2,0,.4,0,.6,0,.2,0,.2-.4.5-.2.5.3.7-.1,1-.3.3-.1.6-.3.8-.6.1-.2.5.2.7,0,0,0,1,1.1,1.3,1.5,0,0,0,.2.1.2.1.5.4,1.2.2,1.3-.3.1-.5.3-.8.5Z"/>
    <path d="M236.4,204c-.4.8-.9,1.7-1.2,2.5-.1.3-.5.5-.2,1.1.2.3-.6.3-.7.6-.3.8-.8,1.6-1.1,2.4-.3.8-.5,1.7-.8,2.5-.3.8-1,1.5-1,2.3,0,.8-.8,1.1-1,1.8-.2.7-.5,1.4-1,1.9-.4.4-.8.7-.9,1.3,0,.3,0,.7-.1,1-.2.3-.6.5-.1,1,0,0-.1.1-.2.2-.5.1-.7.5-.6.9.1.4,0,.6-.1.8-.3.7-.6,1.3-1,1.9-.3.5-.8.8-1.1,1.3-.3.5-.4,1.1-.9,1.5-.5.3-.8.8-1,1.2-.1.3-.6.4-.1.9,0,0,0,.1,0,.2-1.1.3-.6,1.6-1.3,2.2-.6.7-1,1.5-1.5,2.3-.1.2-.4.3-.2.8,0,.2,0,.4-.2.4-.9.2-1,1-1.6,1.5-.6.6-.9,1.4-1.8,1.6-.4.1-.8.4-.7,1.1,0,.3-.4.4-.6.7-.1.2-.1.6-.3.7-.2.1-.5.1-.7.2,0,0-.1,0-.2.1-.5,1.3-2.1,1.3-3.1,2.1-1,.8-2.3,1.3-3.6,1.5-.7.2-1.5.1-2.1-.9-.3-.5-.4-1-.2-1.4.1-.3.3-.5.5-.6.3-.2.6-.4.8-.6.6-.4.9-1.1,1.7-1.1.2,0,.3-.4.7,0,0,0,.1,0,.2,0,.4-1.1,1.4-1.2,2.1-1.8.6-.5.7-1.5,1.5-1.8-.1-.7.3-1,.7-1.2,1.6-.7,2.2-2.3,3.2-3.5,1-1.3,1.8-2.8,2.7-4.2.1-.2,0-.6.4-.8.4-.1.4-.6.6-.9.2-.3.2-.7.5-.9,1.2-.8,1.5-2.2,2.2-3.4.7-1.2,1.3-2.3,1.8-3.6.3-.8.3-1.7.8-2.3.2-.3,0-.8.7-.8.2,0,0-.5,0-.7.2-.5.5-1,.7-1.5.3-.7.7-1.4,1-2.1.2-.4.2-1,.3-1.4.2-.5.4-.9.6-1.4.3-.5.8-1,1.1-1.6.3-.6.4-1.3.9-1.8,1-.8,1.2-2,1.8-3,.6-1,1.1-2.1,1.5-3.1.2-.6,1-.9,1.2-1.5.1-.3,1.6,0,2,.4,0,0,.1.2.2.2.1.8.5,1.6.2,2.2-.5.9-1,1.9-1.4,2.8Z"/>
    <path d="M263.6,218.5c.8-1,1.6-1.9,2.4-2.9.3-.4.8-.5.7-1.2,0-.4.7-.2,1-.6.7-.9,1.6-1.6,2.4-2.5.4-.4.7-.8,1-1.3l.2-.3h0c0,0,0-.2,0-.2,0-.1.2-.4-.2-.5-.8-.5-1-1.4-1.6-2-.7-.6-1.4-1.3-1.8-2.1-.3-.6-.6-1.2-1.1-1.6-.3-.3-.8-.3-1.1-.7-.3-.3-.4-.9-1.1-.7,0,0,0-.2,0-.3,0-.6-.4-1-.8-1.1-.4,0-.6-.3-.9-.6-.6-.7-1.3-1.3-1.8-2.1-.4-.5-.7-1.2-1.1-1.8-.4-.6-1.2-.9-1.4-1.6-.2-.7-.7-1.1-1.1-1.5-.3-.2-.4-.7-1-.4,0,0-.2,0-.2-.1-.2-1.3-1.7-1-2.3-1.6-.7-.7-1.7-1-2.5-1.2-.2,0-.5-.3-.8,0-.1.1-.4.1-.5,0-.6-.7-1.3-.4-2-.5-.8,0-1.6.3-2.5,0-.4-.1-.9,0-1.2.6,0,.3-.6.2-.8.4-.2.2-.3.5-.5.6-.2,0-.5,0-.7,0,0,0-.1,0-.2.1-.8,1.2-2.3,1.1-3.2,2.1-.9,1-1.8,1.9-2.7,2.8-.5.5-1,1-2.3.8-.6,0-1-.4-1.1-.8,0-.3,0-.7,0-1,.2-.5.4-.9.6-1.3.5-.9.7-2,1.7-2.5.3-.2.4-.7.9-.4,0,0,.2,0,.2,0,.5-1.5,2-2,3.2-2.8,1-.6,1.8-1.8,3.1-1.9.2-.4.5-.7.9-.8.4-.1.8-.2,1.1-.2.7,0,1.3,0,1.9,0h1.9c1.3,0,2.6,0,3.8.4,2.5.8,4.8,2.1,6.6,3.7.3.3.8.2,1,.8.2.5.7.7,1.1,1.1.3.3.8.6,1,1,.8,1.7,2.2,2.8,3.3,4.1,1.1,1.3,2.2,2.7,3.5,3.9.8.7,1.7,1.3,2.4,2.2.3.4.8.5.7,1.2,0,.2.6.2.8.4.5.5,1,1.1,1.5,1.6l1.1,1.3c.6.7,1.1,1.5,1.3,2.3.2,1,.2,2.2-.5,3.1-.2.3-.4.5-.6.7l-.5.6c-.2.2-.5.5-.7.7-.6.5-1.4.9-2,1.5-.6.6-1,1.4-1.8,1.7-1.4.7-2.2,2-3.1,3.1-.9,1.1-1.8,2.2-2.5,3.5-.4.7-1.1,1.1-1.5,1.8-.2.3-1.7.2-2.1-.2,0,0-.1-.2-.1-.2,0-.9-.3-2,.2-2.8.8-1.2,1.6-2.4,2.5-3.6Z"/>
  </g>
</svg>