<?xml version="1.0" encoding="UTF-8"?>
<svg id="ARTWORK" xmlns="http://www.w3.org/2000/svg" width="600" height="600" viewBox="0 0 600 600">
  <g>
    <path d="M359.4,292.5c-1.5,3.1-2.5,6.4-3,9.9,0,.3,0,.7,0,1,.2.4.6.6,1.1.7,1.6.5,3.9.7,4.5-.8.2-.6.1-1.2,0-1.8,0-1.5.4-3.1,1.3-4.4.4-.5.8-1,1-1.6.4-1.4-1.1-2.8-2.5-2.4" fill="#00b4e9"/>
    <path d="M365.9,293.1c.5.8.6,1.9.3,2.9,0,.4-.5.5-.1,1,.1.3-.5.2-.6.3-.3.5-.6.7-.7,1-.1.3,0,.7,0,1,0,.3-.4.5-.1.9.2.3-.3.4-.2.7,0,.1.1.2.1.4,0,.3,0,.7-.1,1-.2.5-.4.8-.5,1.3,0,0,0,.1,0,.2,0,.2,0,.5,0,.7-.2.3-.6.3-.3.9,0,0-.2,0-.3,0-.5,0-.8.1-.9.5,0,.4-.3.4-.5.6-.6.3-1.4.4-2.1.4-.3,0-.6-.1-.8-.2-.3,0-.4-.2-.6-.3-.5-.1-1.2,0-1.5-.5-.3-.4-.7-.6-1-.8-.2-.1-.2-.5-.8-.2,0,0-.1,0-.1-.1,0-.4,0-.6-.2-.8-.3-.3-.7-.6-.6-1.1.1-.4.2-.8.2-1.2,0-.4,0-.8.1-1.2,0-.1.2-.2-.2-.4-.2,0-.1-.2,0-.3.7-.2.4-.7.6-1,.2-.4,0-.9.6-1.1.2-.1.4-.3,0-.7-.2-.2,0-.3,0-.5,0-.1-.2-.3-.2-.5,0-.1.3-.1.4-.2,0,0,0,0,0,0-.4-.8.6-1.1.7-1.7,0-.6.4-1.2.7-1.7.2-.3.5-.5,1.6-.3.5.1,1,.4,1.2.6.2.2.3.4.3.5,0,.2,0,.4,0,.6,0,.4.4.9,0,1.2-.1,0,.1.3-.4.2,0,0-.1,0,0,0,.6.7,0,1-.2,1.5,0,.4.4,1,0,1.3.5.4.4.6.1.8-.9.6-.6,1.6-.8,2.3,0,.1,0,.1,0,.2h0c0,.2,0,.2,0,.2,0,0,0,.1,0,.2,0,0,0,0,0,0,0,0,.3-.2.1,0-.2.2,0,0,0,0,0,0,.1-.1,0,0,0,.2,0,.3,0,.3,0,0,0,0,0,0,0,0,.1,0,.2,0,.2,0,.2,0,.4,0,.2,0,.6,0,.5-.3,0,0,0-.1-.1-.2-.1-.1-.2-.2-.1-.2,0,0-.3,0,.3-.1.2,0-.3-.2-.3-.3,0-.4,0-.8,0-1.2,0-.5.2-1.1.3-1.6,0-.3,0-.7,0-1.1,0-.4.2-.7.4-1,.3-.4.7-.6,1-.9.3-.3.3-.7.6-.7.1,0,.2,0,.3,0,0,0,0,0,0,0h0s0,0,0,0h.2c0,0,0,0,0,0h0s0,0,0,0h0s0,0,0,0c0,0,0,0,0,0,0,0-.2,0-.1,0,0,0,0-.3-.2-.2,0,0,0-.4,0-.4,0,0,0-.4-.2-.8-.1-.4-.4-.9-.4-1.1,0,0,0-.2,0-.2.3-.6,1.1-1.3,1.8-1,1,.4,1.8,1,2.3,1.9Z" fill="#00b4e9"/>
  </g>
  <g>
    <path d="M387.1,284.8c.8.2,1.1,1,1.4,1.7,7.8,22.5,10.9,46.5,15.6,69.9,2.4,11.8,5.3,23.6,8.1,35.3,6.6,26.9,12.1,54.8,20.6,80.6.6,1.8.9,3.7,2.2,5,1.2,1.4,2.6,2,4.1.9,1.8-1.4,1.4-4.2.7-6.4-2-6.7-3.8-13.4-5.7-20.1-4.8-17.6-9.3-35.3-13.5-53.1-3.6-15.4-7-30.8-10.4-46.2-2.7-12.4-5.5-24.8-8.2-37.1-1.9-8.5-6.2-22.4-8.1-31-.4-1.6-.7-3.3-1.7-4.6-1.4-1.9-2.1,5.1-4.4,5.8" fill="#00b4e9"/>
    <path d="M402.1,308.1c.9,3.3,1.7,6.7,2.4,9.9.7,3.3,1.5,6.6,2.2,9.9.6,2.5.9,5,1.9,7.5.5,1.2.4,3.7,1,6,1.4,6.1,2.7,12.3,4.2,18.5,1.5,6,2.9,11.9,4.4,17.8,1.4,5.9,2.5,12.1,4.1,17.7,1.4,4.9,2,9.4,3.2,14.1,1.3,5,2.7,10.1,3.7,15,.7,3.6,1.4,7.2,2.5,10.7.6,2.2,1.5,4.2,2.1,6.6.6,2.2,1,4.8,2.1,6.6,0,.1.3,1.2.3,1.7.3,2.5,1.1,5.4,2,7.3.8,1.9,1.3,3.6,1.8,5.4.7,2.5,1.4,5,2.1,7.5l.3.9c0,.3.2.7.3,1.1.2.7.3,1.5.4,2.4,0,.8,0,1.8-.3,2.8-.3,1-1,2.2-2,3-.8.6-1.6,1-2.6,1.1-.9.1-1.9,0-2.7-.5-.4-.2-.8-.5-1.1-.7-.3-.3-.5-.5-.8-.7-.4-.4-.9-1.1-1.2-1.6-.7-1.2-1-2.3-1.2-3.3l-.4-1.4-.4-1.4c-1.2-3.9-2.8-8-3.5-11.7-.8-3.7-1.7-7.2-2.7-10.7-.5-2-.9-4.5-1.9-6,0-.1-.3-.9-.3-1.3-.7-6-3.1-11.4-4.3-17.4-1.2-6.1-2.8-12.3-4.2-18.4-.4-1.6-.6-3.4-1.4-4.8-.3-.5-.7-2.2-.8-3.1-.5-4.7-2-9.3-3-14-1.2-5.3-2.7-10.6-3.5-16.1-.3-2.3-.9-5.4-2-8.1-.5-1.2-.8-3.9-1.3-5.8-.4-1.6-.9-3.1-1.3-4.7-.3-1.4-.3-2.8-.4-4.2,0-.4-.1-.9-.2-1.3-2.1-7.7-2.6-15.7-4.4-23.5-1.8-7.8-3.5-15.8-5.6-23.5-.6-2.1-1.2-4.3-1.6-6.3-.2-1-.4-2-.5-2.9,0-.5-.1-.9-.1-1.3,0-.4,0-.7,0-1,0-.5-.3-.8-.1-1,.1-.2.9-.3,1.6.7.5.7.7,1.3,1.1,2.1.3.7.7,1.4.9,2.2.9,2.4,1.8,4.8,2.5,7.2,1.6,4.9,3.3,9.8,4.2,15.1.3,1.7,1,3.5.8,5,0,.2,0,.9.2,1.2,2.2,6.8,3,14.2,4.4,21.3,1.2,6.1,2.9,11.8,3.8,17.9,1.3,3.2,2,7.1,2.6,10.5,2,12,5.5,23.8,8.2,35.7,2.7,12.1,5.5,24.2,8.5,36.2.5,2,1.3,3.7,1.7,6.2.3,2.3,1.3,5.1,2,7.7.7,2.4,1.5,4.8,2,7.1.5,2.4,1.1,4.7,1.8,7l1.1,3.5c.4,1.2.7,2.5,1.1,3.4.2.5.4.9.6,1.2.2.3.7.7.9.9.2.1.4.2.6.2.2,0,.4-.1.5-.3.2-.2.5-.9.4-1.9,0-.5-.1-1-.2-1.5-.1-.5-.3-1.1-.4-1.7-2.5-9.4-5.2-18.7-7.8-28-1.6-5.7-3.4-11.3-4.8-17.1-.6-2.5-1.6-5-1.6-7.6,0-.7-1-2.9-1.4-4.5-1-3.9-1.9-7.9-2.9-11.8-1.3-5.5-2.5-11-3.8-16.5-.8-3.3-1.8-6.6-2.6-9.9-.9-3.5-1.7-7-2.4-10.6-.9-4.5-1.8-8.9-2.7-13.4-1-4.6-2.3-9.4-3-13.8-1.3-8.3-3.4-16.5-5.1-24.6-1.9-8-4.3-16-6.5-24.1-.3-1.1-.6-2.3-.8-3.4l-.2-.8v-.3c0-.2,0-.4-.1-.7,0-.5-.2-1-.5-1.5,0-.1-.2,0-.3,0,0,0-.1.2-.2.3-.1.2-.2.4-.3.7,0,.2-.2.4-.5.5-.2,0-.3.2-.4.3-.2.2-.5.4-.7.5-.5.3-1,.3-1.3.2-.2-.1-.3-.3-.2-.5,0-.1.2-.3.3-.5.1-.2.2-.4.3-.6.2-.3.3-.7.4-1.1.3-.8.5-1.6.8-2.3.3-.7.6-1.3,1-1.7.2-.2.3-.4.6-.6.1,0,.2-.2.4-.2.2,0,.4,0,.5,0,.5.2,1,.5,1.4.9.4.5.8,1.1,1.2,1.9.4.8.7,1.7.9,2.7.2.8.4,1.5.5,2.3,1.7,7.4,4,14.7,5.9,22.2Z" fill="#00b4e9"/>
  </g>
  <path d="M348.9,255.9c-1.3-1.1-2.5-2.2-3.8-3.2-.5-.4-.8-1-1.6-1-.4,0-.5-.9-.9-1.2-1.2-.9-2.4-1.9-3.6-2.9-1.2-.9-2.5-1.6-3.8-2.5-1.2-.9-2.3-2-3.6-2.6-1.2-.5-1.8-1.6-2.8-2.2-1.1-.7-2.2-1.4-3-2.3-.6-.7-1.2-1.4-2-1.8-.5-.3-1.1-.3-1.6-.7-.4-.4-.8-1-1.6-.7,0,0-.2-.2-.3-.4-.3-.7-.9-1.1-1.5-1.2-.6,0-.9-.4-1.3-.6-1.1-.7-2.1-1.4-3.1-2.2-.7-.6-1.4-1.3-2.1-1.9-.8-.6-1.8-1-2.4-1.8-.6-.8-1.3-1.3-2-1.8-.4-.3-.7-.9-1.5-.6,0,0-.2,0-.3-.2-.7-1.5-2.5-1.4-3.6-2.5-1.1-1-2.5-1.8-3.8-2.7-.3-.2-.6-.6-1.2-.5-.2,0-.6-.2-.7-.4-.6-1.2-1.8-1.5-2.7-2.3-1-.9-2.3-1.4-3.1-2.5-.4-.5-.9-1-1.8-.9-.4,0-.8-.6-1.2-.8-.4-.2-.8-.2-1.2-.4-.3-.2-.4-.6-.7-.9,0,0-.2-.2-.3-.2-2-.6-3.1-2.4-4.8-3.4-1.7-1-3.3-2.2-4.9-3.4-.9-.7-1.7-1.5-1.7-2.8,0-.6.3-1.1.9-1.1.4,0,.9,0,1.2.2.6.3,1.2.5,1.7.8,1.2.6,2.5.8,3.4,1.8.3.3.9.3.8.9,0,0,.1.2.2.2,1.9.3,3.1,1.8,4.6,2.8,1.3.8,2.8,1.1,4,2.2,1.1,0,1.8.6,2.4,1.2,2.1,2.3,4.8,3.6,7.3,5.4,2.5,1.8,5,3.5,7.5,5.3.4.3,1,.3,1.3.8.3.5,1,.8,1.6,1.2.5.4,1.1.6,1.5,1.1,1.6,1.9,3.8,3,5.7,4.4,1.9,1.5,3.8,2.9,5.8,4.2,1.2.8,2.6,1.4,3.7,2.3.5.4,1.2.5,1.3,1.4,0,.2.8.2,1.1.5.8.6,1.6,1.2,2.4,1.8,1.1.8,2.2,1.7,3.3,2.5.7.5,1.5.8,2.2,1.3.7.5,1.5,1,2.1,1.6.8.8,1.6,1.6,2.4,2.4.9.8,2,1.3,2.7,2.2,1.3,1.7,3.1,2.8,4.6,4.2,1.5,1.4,3.1,2.7,4.7,4,.9.7,1.4,1.8,2.2,2.6.4.4,0,1.9-.6,2.1,0,0-.2,0-.3,0-1.1-.4-2.4-.5-3.3-1.4-1.3-1.3-2.8-2.5-4.2-3.7Z"/>
  <path d="M323.6,274.9c-1.1-.7-2.2-1.5-3.4-2.1-.4-.2-.7-.7-1.4-.6-.4,0-.4-.7-.8-.9-1.1-.6-2.1-1.3-3.2-1.9-1.1-.6-2.2-1-3.3-1.6-1-.6-1.9-1.5-3.1-1.8-1-.3-1.5-1.2-2.4-1.6-.9-.4-1.9-.9-2.6-1.6-.5-.5-1-1.1-1.7-1.4-.4-.2-.9-.1-1.3-.4-.4-.3-.7-.8-1.3-.4,0,0-.2-.2-.2-.3-.2-.6-.7-.9-1.2-.9-.5,0-.8-.2-1.1-.4-.9-.5-1.8-1-2.6-1.6-.6-.4-1.1-1-1.8-1.5-.6-.5-1.5-.7-2-1.3-.5-.7-1.1-1-1.7-1.4-.3-.2-.6-.7-1.2-.4,0,0-.2,0-.2-.1-.6-1.3-2.1-1-3-1.8-.9-.8-2.1-1.4-3.1-2-.3-.2-.5-.5-1-.3-.2,0-.5,0-.6-.3-.4-1-1.5-1.2-2.2-1.8-.8-.7-1.9-1-2.6-2-.3-.4-.8-.8-1.5-.6-.4,0-.7-.4-1-.6-.3-.1-.7,0-1-.2-.2-.1-.3-.5-.5-.7,0,0-.1-.1-.2-.1-1.7-.3-2.5-1.9-4-2.5-1.4-.7-2.8-1.6-4.1-2.5-.7-.5-1.4-1.1-1.3-2.4,0-.6.3-1.1.8-1.1.4,0,.7,0,1,0,.5.2,1,.3,1.4.5,1,.4,2.1.5,2.9,1.3.2.2.7.2.7.8,0,0,0,.2.2.2,1.6,0,2.6,1.3,3.8,2,1.1.6,2.4.7,3.3,1.6.9-.2,1.5.3,2,.9,1.7,1.8,4,2.7,6,4.1,2,1.4,4.1,2.6,6.2,3.9.3.2.8.1,1.1.6.2.5.9.6,1.3.9.4.3.9.4,1.2.8,1.3,1.6,3.1,2.3,4.7,3.3,1.6,1.1,3.2,2.1,4.9,3,1,.5,2.2.9,3.1,1.6.4.3,1,.3,1.1,1.1,0,.2.7,0,.9.2.7.4,1.4.8,2,1.3.9.6,1.9,1.2,2.8,1.8.6.3,1.3.5,1.9.8.6.3,1.2.7,1.8,1.1.7.5,1.4,1.2,2.1,1.7.8.5,1.7.8,2.3,1.5,1.1,1.3,2.7,2,4,2.9,1.4.9,2.7,1.9,4.2,2.7.8.5,1.2,1.4,2,1.9.4.2,0,1.8-.5,2.1,0,0-.2.1-.3,0-1-.1-2.1,0-2.9-.6-1.2-.9-2.5-1.7-3.7-2.5Z"/>
  <path d="M351.8,288.7c-.5,0-.9,0-1.4,0-.2,0-.3-.3-.6.2-.1.3-.2-.4-.4-.4-.5,0-.9-.2-1.3-.2-.4,0-.9.1-1.3.1-.4,0-.8-.4-1.3-.2-.4.2-.6-.4-1-.4-.4,0-.8,0-1-.3-.2-.2-.4-.5-.7-.5-.2,0-.4.3-.6.2-.1,0-.2-.4-.6.2,0,0,0,0,0-.2,0-.4-.2-.5-.5-.3-.2.2-.3.1-.5,0-.4-.1-.7-.2-1-.4-.2-.2-.4-.5-.6-.6-.2-.2-.6,0-.7-.4-.1-.4-.3-.5-.6-.6-.1,0-.2-.4-.6.1,0,0,0,0,0,0,0-.9-.9-.2-1.1-.6-.3-.4-.8-.5-1.1-.7-.1,0-.1-.3-.5,0-.1.1-.2,0-.2,0,0-.7-.4-.6-.7-.8-.2-.3-.7-.3-.8-.9,0-.3-.1-.5-.6-.1-.2.2-.2-.2-.4-.2-.1,0-.4.1-.5,0,0,0,0-.3,0-.5,0,0,0,0,0,0-.9.2-.7-.9-1.3-1.1-.6-.2-.9-.7-1.3-1.2-.2-.3-.3-.6.4-1.6.3-.4.7-.8,1-1,.2-.1.5-.2.6-.2.2,0,.4,0,.6.1.4,0,1,0,1,.4,0,.1.3,0,0,.4,0,0,0,.1,0,.1.9-.3.9.4,1.3.6.3.2,1,0,1.2.4.5-.4.7-.2.7.1.2,1,1.1,1,1.7,1.5.6.5,1.3.8,2,1.2.1,0,.4-.2.4.1,0,.3.3.2.4.3.1,0,.3,0,.4.2.3.8,1,.7,1.5,1,.5.3,1.1.6,1.7.6.4,0,.8-.2,1.2,0,.1.1.4-.2.4.4,0,.2.3-.2.4-.2.3,0,.5.1.7.2.3,0,.7.2,1,.2.2,0,.5-.2.7-.2.2,0,.4,0,.7.1.3.1.5.4.8.5.3.1.6-.1.9.2.5.6,1,.4,1.5.5.5,0,1,.2,1.6,0,.3,0,.6.4.9.4.1,0,.3,1.5.3,2,0,0,0,.2,0,.2-.3.5-.6,1.2-1,1.1-.5,0-1.1,0-1.6,0Z"/>
  <path d="M364.6,295.1c-.2-.1-.3-.3-.5-.4,0,0,0-.3-.4,0-.2.2.1-.4,0-.4-.2,0-.3-.3-.5-.4-.2,0-.5,0-.7,0-.2,0-.2-.4-.5-.3-.3.1-.1-.4-.3-.4-.2,0-.4,0-.4-.3,0-.2,0-.5-.1-.4-.1,0-.3.2-.4.2,0,0,0-.3-.4.1,0,0,0,0,0-.2.2-.4,0-.4-.1-.2-.2.2-.2.1-.3.1-.2,0-.3-.1-.4-.3,0-.1,0-.4-.1-.5,0-.1-.3,0-.3-.3,0-.3,0-.4-.2-.4,0,0,0-.3-.4.2,0,0,0,0,0,0,.3-.8-.5,0-.5-.3,0-.3-.3-.3-.5-.3,0,0,0-.2-.3.2,0,.1-.2.1-.1,0,.2-.6-.2-.4-.2-.5-.1-.2-.4,0-.3-.5,0-.2,0-.4-.4.1-.2.2-.1,0-.2,0,0,0-.2.2-.3.2,0,0,0-.2,0-.4,0,0,0,0,0,0-.5.5-.4-.4-.7-.4-.3,0-.5-.1-.7-.3-.1-.1-.2-.3.2-1.4.2-.5.4-1,.6-1.3.1-.2.3-.4.4-.4.1,0,.3-.1.4-.2.2,0,.6-.5.7-.2,0,.1.2-.1,0,.3,0,0,0,.1,0,0,.6-.6.6,0,.8,0,.2,0,.7-.4.8,0,.4-.5.5-.3.5-.1,0,.8.7.6,1,.9.3.3.8.4,1.1.7,0,0,.3-.2.2,0,0,.3.1.1.2.2,0,0,.2,0,.2.2,0,.7.4.6.7.8.2.3.5.5.9.6.2,0,.6-.1.7.1,0,0,.3-.1,0,.4,0,.2.3-.2.3-.1.1,0,.2.2.4.2.2.1.3.3.5.4.1,0,.4,0,.5,0,.1,0,.2.1.3.2,0,.2,0,.4.2.6,0,.2.4,0,.4.4,0,.6.3.6.5.8.2.2.4.5.7.6.2,0,0,.5,0,.6,0,0-.9,1.2-1.2,1.6,0,0-.1.1-.2.2-.4.2-1,.7-1.1.5-.1-.2-.4-.3-.6-.5Z"/>
  <path d="M374.8,292.1c-.1,0-.3,0-.4.2,0,0-.2-.2,0,.3,0,.3-.2-.3-.2-.3-.1.1-.3,0-.4.2-.1.1-.1.4-.2.5,0,.1-.3-.1-.3.2,0,.3-.3-.1-.3,0,0,.2-.1.3-.3.1-.1-.1-.3-.3-.3-.2,0,0,0,.4,0,.4,0,0-.2-.2,0,.4,0,0,0,0,0-.1-.2-.3-.3-.3-.2,0,0,.3,0,.2,0,.3,0,0-.2.1-.3.1,0,0-.3-.2-.4-.2-.1,0,0,.3-.3,0-.2-.2-.3-.2-.3-.1,0,0-.2-.2,0,.4,0,0,0,0,0,0-.5-.6,0,.4-.3.2-.2-.1-.3,0-.4.2,0,0-.2-.1,0,.3,0,.1,0,.2,0,0-.4-.5-.3,0-.4-.1-.2,0,0,.3-.5,0-.2-.1-.3-.2,0,.3.1.2,0,0,0,.1,0,0,.1.3.1.3,0,0-.2-.2-.3-.2,0,0,0,0,0,0,.3.6-.4,0-.4.3,0,.2-.2.3-.4.3-.1,0-.3,0-1.1-.9-.4-.4-.7-.8-.9-1.1-.1-.2-.2-.4-.2-.5,0-.1,0-.3,0-.4,0-.2-.3-.7,0-.6,0,0,0-.2.3.2,0,0,0,0,0,0-.3-.7.1-.4.2-.6,0-.1-.2-.7.1-.6-.3-.6-.1-.5,0-.4.6.4.6-.2,1-.3.3,0,.5-.3.8-.5,0,0,0-.4.1-.1.2.2.1,0,.2,0,0,0,0-.2.2,0,.5.5.6,0,.8,0,.2,0,.5-.1.6-.4,0-.2,0-.5.3-.5,0,0,0-.3.3.2,0,.1,0-.3,0-.3,0,0,.2-.1.3-.1.1,0,.3,0,.4-.2,0,0,0-.3.1-.4,0,0,.1-.1.3-.1.1,0,.3.2.5.2.1,0,.2-.3.4,0,.4.4.5,0,.7,0,.2,0,.4,0,.6-.2,0-.1.3.3.5.3,0,0,.5,1.4.7,1.9,0,0,0,.2,0,.2,0,.5.2,1.2,0,1.2-.2,0-.3,0-.5.1Z"/>
  <path d="M371.3,290.3c-.1-.2-.2-.5-.4-.6,0,0,.1-.3-.4,0-.3,0,.3-.3.2-.4-.2-.2-.2-.4-.4-.6-.2-.2-.5-.2-.7-.4-.2-.1,0-.5-.4-.5-.3,0,0-.4-.2-.5-.2,0-.4-.2-.3-.5,0-.2.1-.5,0-.5-.1,0-.4.1-.4,0,0,0,.1-.3-.4,0,0,0,0,0,0-.1.2-.3.1-.4-.1-.3-.2.1-.3,0-.3,0-.2-.1-.3-.2-.4-.4,0-.1,0-.4,0-.5,0-.1-.4,0-.3-.4.1-.3,0-.4-.1-.5,0,0,0-.3-.4.1,0,0,0,0,0,0,.4-.8-.5,0-.5-.4,0-.3-.3-.3-.5-.4,0,0,0-.2-.3.1-.1.1-.2,0-.1,0,.2-.6-.1-.4-.2-.6,0-.2-.4,0-.3-.6,0-.2,0-.4-.4,0-.2.2-.1,0-.2,0,0,0-.3.2-.3.2,0,0,0-.2,0-.4,0,0,0,0,0,0-.6.4-.4-.5-.7-.4-.3,0-.6-.2-.8-.4-.1-.1-.2-.3.2-1.4.2-.5.4-1,.6-1.3.1-.2.3-.4.4-.4.1,0,.3-.1.4-.2.3,0,.7-.5.8-.1,0,.1.2-.1,0,.4,0,0,0,.1,0,0,.6-.6.7,0,1,.1.3,0,.8-.3.9,0,.5-.5.6-.3.6,0,0,.8.8.8,1.2,1.2.4.4.9.7,1.3,1,0,0,.4-.2.3.1,0,.3.1.2.2.3,0,0,.3,0,.2.2-.1.8.4.8.7,1.1.2.4.5.7.9.9.2.1.7,0,.7.4,0,.1.4,0,0,.5-.1.1.3,0,.4,0,.1.1.2.3.3.4.2.2.3.4.4.6.1.1.4,0,.5.2.1,0,.2.2.3.4,0,.2,0,.5,0,.7,0,.2.4.3.3.6-.3.6.2.8.3,1.1.1.3.2.7.5,1,.2.2-.2.5-.1.7,0,0-1.3.8-1.7.9,0,0-.2,0-.2,0-.5,0-1.2.2-1.3,0,0-.3-.2-.5-.3-.8Z"/>
  <path d="M379.7,283.8c-.2-.2-.4-.5-.6-.7,0,0,0-.3-.5,0-.2.1.2-.4,0-.4-.2-.2-.4-.5-.6-.6-.2-.2-.6-.2-.8-.4-.2-.2-.2-.6-.7-.5-.4,0-.2-.5-.4-.5-.3,0-.5-.2-.5-.5,0-.2,0-.5-.2-.6-.1,0-.4.2-.5,0,0,0,0-.4-.5,0,0,0,0,0,0-.2.2-.4,0-.5-.2-.3-.2.1-.3,0-.4,0-.2-.1-.4-.3-.6-.5-.1-.1-.1-.4-.2-.6-.1-.2-.4,0-.4-.4,0-.3-.1-.4-.2-.5,0,0,0-.4-.4.1,0,0,0,0,0,0,.3-.8-.6-.1-.7-.4-.1-.3-.5-.4-.7-.5,0,0,0-.2-.4.1-.1.1-.2,0-.2,0,.2-.6-.2-.5-.4-.7-.2-.2-.5-.1-.5-.7,0-.2,0-.4-.5,0-.2.2-.2,0-.3,0,0,0-.3.2-.4.2,0,0,0-.3,0-.4,0,0,0,0,0,0-.6.4-.5-.6-1-.6-.4,0-.7-.3-1-.5-.2-.1-.3-.4,0-1.5.2-.5.4-1,.6-1.3.2-.2.3-.4.4-.4.2,0,.3,0,.5-.1.3,0,.8-.4.9,0,0,.1.3-.1,0,.4,0,0,0,.1,0,0,.7-.5.8.1,1.1.2.3.1.9-.3,1,.1.5-.5.6-.2.7,0,.2.9,1,.9,1.5,1.3.5.4,1.1.7,1.6,1.1,0,0,.4-.2.3.1,0,.3.2.2.3.3.1,0,.3,0,.3.3,0,.8.6.8,1,1.2.3.4.7.7,1.2,1,.3.1.8,0,.9.4,0,.1.4,0,0,.5,0,.1.3,0,.4,0,.2.1.3.3.5.4.2.2.4.4.6.6.2.1.5,0,.6.1.2,0,.3.2.4.4.1.2.1.5.2.8.1.2.5.2.4.6,0,.7.4.8.6,1.2.2.4.5.7.8,1,.2.2,0,.6,0,.8,0,0-1,1.1-1.5,1.4,0,0-.2,0-.2.1-.5.1-1.2.4-1.3.2-.2-.3-.4-.6-.7-.9Z"/>
  <path d="M374.8,288.8c.1,0,.2-.1.3-.3,0,0,.2.1,0-.3-.2-.2.3.2.3.2,0-.1.2-.1.3-.3,0-.1,0-.4,0-.5,0-.1.3,0,.2-.3-.1-.3.3,0,.3-.1,0-.2,0-.3.2-.2.2,0,.4.2.4,0,0,0-.2-.3-.2-.4,0,0,.3.1-.1-.3,0,0,0,0,.1,0,.3.3.3.2.2,0-.2-.2-.1-.2-.1-.3,0,0,0-.2.2-.2,0,0,.3,0,.4,0,.1,0,0-.3.2-.1.3.2.3,0,.4,0,0,0,.3.1-.2-.3,0,0,0,0,0,0,.7.5,0-.3.2-.3.2,0,.2-.1.3-.3,0,0,.2,0-.1-.3-.1-.1-.1-.2,0,0,.5.3.3,0,.5,0,.2,0,0-.3.5,0,.2,0,.3.1-.1-.3-.2-.2,0,0,0-.1,0,0-.2-.3-.2-.3,0,0,.2.1.3.2,0,0,0,0,0,0-.4-.5.4-.1.3-.3,0-.2.1-.3.3-.4,0,0,.3,0,1.3.6.4.3.9.6,1.1.8.2.2.3.3.4.4,0,.1.1.2.2.3,0,.2.4.6.1.5,0,0,.1.2-.3,0,0,0,0,0,0,0,.5.6,0,.4,0,.6,0,.1.4.6,0,.6.4.5.3.5,0,.4-.7-.2-.5.3-.8.4-.3.1-.4.4-.6.6,0,0,.2.3,0,.2-.2-.1-.1,0-.2,0,0,0,0,.2-.1.1-.6-.3-.5.1-.7.2-.2.1-.4.2-.4.5,0,.2.1.5,0,.5,0,0,.1.3-.3-.1-.1-.1.1.3.1.3,0,0-.1.1-.2.2,0,0-.2.1-.3.3,0,0,0,.3,0,.4,0,.1,0,.2-.2.2-.1,0-.3,0-.5,0-.1,0,0,.3-.3.2-.5-.3-.4,0-.6.1-.2,0-.3.2-.4.4,0,.1-.4-.2-.5-.1,0,0-1-1.1-1.3-1.5,0,0-.1-.2-.1-.2-.2-.4-.6-1-.5-1.1.2,0,.2-.2.4-.3Z"/>
  <path d="M378.2,293c0,0-.2,0-.2,0,0,0,0-.2-.1.3,0,.3,0-.4,0-.3,0,0-.1,0-.2,0,0,0-.1.3-.2.3,0,0-.1-.2-.2,0,0,.3-.1-.2-.2-.1,0,.1-.1.2-.2,0,0-.2,0-.4-.1-.3,0,0,0,.4,0,.4,0,0,0-.3,0,.3,0,0,0,0,0-.1,0-.4,0-.4,0,0,0,.3,0,.2,0,.3,0,0-.1,0-.2,0,0,0-.1-.3-.2-.3,0,0,0,.2-.1,0,0-.3-.1-.3-.2-.3,0,0,0-.3,0,.4,0,0,0,0,0,0-.2-.8-.1.3-.2,0,0-.2-.2,0-.2,0,0,0,0-.2,0,.3,0,.2,0,.2,0,0-.1-.6-.1-.2-.2-.3,0-.1,0,.2-.2-.3,0-.2-.1-.3,0,.3,0,.3,0,0,0,0,0,0,0,.3,0,.3,0,0,0-.2-.1-.3,0,0,0,0,0,0,0,.7-.2-.2-.3,0,0,.2-.2.1-.3,0,0,0-.2-.2-.4-1.3-.1-.5-.2-1-.3-1.4,0-.2,0-.5,0-.5,0-.1,0-.2,0-.3,0-.2,0-.7.1-.5,0,0,0-.2.1.3,0,0,0,.1,0,0,0-.8.2-.3.2-.4,0,0,0-.7.2-.4,0-.6,0-.5.1-.4.3.6.4.2.6.2.2,0,.4,0,.5,0,0,0,0-.4,0,0,0,.3,0,0,.1,0,0,0,0-.1.1,0,.2.6.3.2.4.3.1,0,.3.1.4,0,0-.1.2-.5.2-.3,0,0,0-.3.1.3,0,.2,0-.3,0-.3,0,0,.1,0,.2,0,0,0,.2,0,.2,0,0,0,.1-.3.2-.3,0,0,.1,0,.2,0,0,0,.1.3.2.4,0,0,.1-.2.2,0,.1.5.2.3.4.3.1,0,.2.1.4,0,0,0,0,.4.2.4,0,0,0,0,0,.2,0,.1,0,.3,0,.6,0,.4,0,.9,0,1.2,0,0,0,.2,0,.2,0,.5-.2,1.2-.3,1.1,0,0-.2,0-.3,0Z"/>
  <path d="M385.7,273.9c-.2-.1-.4-.3-.7-.3,0,0,0-.3-.4.2-.2.2,0-.4,0-.4-.2,0-.4-.2-.6-.3-.2,0-.5,0-.7,0-.2,0-.3-.4-.6-.2-.3.2-.2-.3-.4-.3-.2,0-.4,0-.5-.3,0-.2,0-.5-.3-.4-.1,0-.3.3-.4.2,0,0,0-.3-.4.2,0,0,0,0,0-.2,0-.4,0-.4-.2-.2-.2.2-.2.2-.3.2-.2,0-.4,0-.5-.2-.1,0-.2-.4-.3-.5-.1-.1-.4,0-.4-.2,0-.3-.1-.4-.3-.4,0,0,0-.3-.3.2,0,0,0,0,0,0,0-.9-.5,0-.6-.2-.1-.3-.4-.2-.6-.3,0,0,0-.2-.3.2,0,.1-.1.1-.1,0,0-.6-.2-.3-.4-.5-.1-.2-.4,0-.5-.5,0-.2,0-.4-.4.2-.1.2-.1,0-.2,0,0,0-.2.3-.3.3,0,0,0-.2,0-.4,0,0,0,0,0,0-.5.5-.5-.4-.8-.3-.3,0-.6,0-.8-.3-.1,0-.2-.3,0-1.5.1-.5.3-1,.4-1.3.1-.2.2-.4.3-.5.1,0,.3-.2.4-.2.2-.1.6-.6.7-.2,0,.1.2-.2,0,.3,0,0,0,.1,0,0,.5-.7.6,0,.9,0,.2,0,.7-.5.8-.2.3-.6.4-.4.5-.2.2.8.8.5,1.2.8.4.2.9.3,1.3.5,0,0,.3-.3.3,0,0,.3.2.1.3.2,0,0,.2,0,.3.1.1.8.6.5.9.7.3.2.6.4,1,.4.2,0,.6-.2.7,0,0,0,.3-.2.1.4,0,.2.2-.2.3-.2.2,0,.3.1.4.2.2,0,.4.2.6.2.1,0,.4-.2.5-.2.2,0,.3,0,.4.2.1.1.2.4.3.5.1.1.4,0,.5.3,0,.6.5.5.7.7.3.2.5.4.9.4.2,0,.1.5.3.6,0,0-.5,1.4-.8,1.8,0,0-.1.2-.1.2-.4.3-.8.9-1,.8-.2-.2-.5-.3-.7-.4Z"/>
  <path d="M387.4,284.3c0-.2,0-.4,0-.5,0,0,.2-.1-.3-.2-.3,0,.4-.1.3-.2,0-.2,0-.3,0-.5,0-.2-.3-.3-.4-.5,0-.2.2-.3-.1-.5-.3-.1.2-.3,0-.4-.1-.1-.2-.3,0-.4.2-.1.4-.2.3-.3,0,0-.4,0-.4-.2,0,0,.3-.2-.3-.2,0,0,0,0,.1,0,.4,0,.4-.2,0-.2-.3,0-.2,0-.3-.1,0-.1,0-.3,0-.4,0-.1.3-.2.3-.3,0-.1-.2-.2,0-.3.3-.1.3-.2.3-.3,0,0,.3-.1-.4-.1,0,0,0,0,0,0,.8-.2-.3-.3-.1-.5.2-.2,0-.3,0-.5,0,0,.2-.1-.3,0-.2,0-.2,0,0,0,.6-.2.2-.3.3-.4.1-.2-.2-.3.3-.5.2,0,.3-.2-.3-.2-.3,0,0-.1,0-.1,0,0-.3,0-.3,0,0,0,.2-.1.3-.2,0,0,0,0,0,0-.7-.1.2-.4,0-.6-.2-.2-.2-.4-.1-.6,0-.1.2-.3,1.3-.5.5-.1,1.1-.2,1.4-.2.2,0,.5,0,.5,0,.1,0,.2.1.4.2.2.1.8.2.5.4,0,0,.2,0-.3.2,0,0-.1,0,0,0,.8,0,.3.4.4.5,0,.2.7.2.5.4.6,0,.5.1.4.3-.6.4-.1.7-.2,1.1,0,.4,0,.7,0,1,0,0,.4,0,0,.2-.3,0,0,.2,0,.2,0,0,.1.1,0,.2-.6.3-.2.6-.3.8,0,.3,0,.5,0,.8.1.2.5.3.3.5,0,0,.3.1-.3.2-.2,0,.3,0,.3.1,0,.1,0,.2,0,.3,0,.2,0,.3,0,.5,0,0,.3.2.4.3,0,0,0,.2,0,.3,0,.1-.3.3-.3.4,0,.1.2.3,0,.4-.5.2-.2.5-.3.7,0,.2,0,.5,0,.7,0,.1-.4.3-.4.4,0,0-1.5.2-2,.1,0,0-.2,0-.2,0-.5-.1-1.2-.2-1.1-.4,0-.2,0-.4,0-.6Z"/>
  <path d="M387.8,287.6c-.1,0-.3,0-.4,0,0,0,0-.2-.1.3,0,.3,0-.4-.1-.3-.1,0-.2,0-.4,0-.1,0-.2.3-.3.3-.1,0-.2-.2-.3,0,0,.3-.2-.2-.3-.1,0,.1-.2.2-.3,0,0-.2-.1-.4-.2-.3,0,0,0,.4-.1.4,0,0,0-.3-.1.3,0,0,0,0,0-.1,0-.4-.1-.4-.1-.1,0,.3,0,.2-.1.3,0,0-.2,0-.3,0,0,0-.1-.3-.2-.3,0,0-.2.2-.2,0,0-.3-.1-.3-.2-.3,0,0,0-.3-.1.3,0,0,0,0,0,0-.1-.8-.2.3-.3,0-.1-.2-.2,0-.4,0,0,0,0-.2,0,.3,0,.2,0,.2,0,0,0-.6-.2-.2-.3-.4-.1-.1-.2.2-.3-.3,0-.2-.1-.3-.2.3,0,.3,0,0-.1,0,0,0,0,.3,0,.3,0,0,0-.2,0-.3,0,0,0,0,0,0-.1.7-.3-.2-.4,0-.1.2-.3.1-.5,0,0,0-.2-.2-.2-1.4,0-.5,0-1.1,0-1.4,0-.2,0-.5,0-.5,0,0,0-.2.1-.3,0-.2.2-.7.3-.4,0,0,0-.2,0,.3,0,0,0,.1,0,0,.1-.8.3-.3.4-.3.1,0,.2-.7.3-.4,0-.6.1-.5.2-.3.2.7.5.2.7.3.2,0,.5,0,.7,0,0,0,0-.4.1,0,0,.3,0,0,.1,0s0-.1.1,0c.2.7.4.3.5.3.2,0,.4.1.5,0,.1,0,.2-.4.3-.3,0,0,0-.3.1.3,0,.2,0-.3,0-.3,0,0,.2,0,.2,0s.2,0,.3,0c0,0,.1-.3.2-.3,0,0,.1,0,.2,0,0,0,.2.3.3.3,0,0,.2-.2.3,0,.2.5.3.3.5.3.2,0,.3.1.5,0,0,0,.2.4.3.4,0,0,0,1.5,0,2,0,0,0,.2,0,.2,0,.5-.2,1.2-.3,1.1-.1,0-.3,0-.4,0Z"/>
  <path d="M377.6,263c-.4,0-.7-.1-1.1-.1-.1,0-.3-.3-.5.2-.1.3-.2-.4-.3-.4-.4,0-.7-.1-1.1,0-.3,0-.7.2-1.1.2-.3,0-.7-.3-1,0-.3.2-.5-.3-.8-.2-.3.1-.6.2-.9-.1-.2-.2-.4-.4-.6-.3-.1,0-.3.4-.4.3-.1,0-.3-.3-.4.3,0,0,0,0,0-.2-.1-.4-.3-.4-.4-.1-.1.3-.2.2-.3.2-.3,0-.6,0-.9,0-.2,0-.4-.3-.6-.4-.2,0-.5.2-.7-.1-.2-.3-.4-.3-.6-.3-.1,0-.2-.3-.4.3,0,0,0,0,0,0-.3-.8-.7.2-1,0-.3-.2-.7,0-1.1,0,0,0-.2-.2-.3.3,0,.2-.1.2-.2,0-.3-.6-.5-.3-.8-.4-.3-.1-.6.2-.9-.3-.1-.2-.3-.3-.5.3,0,.3-.2,0-.3,0,0,0-.2.3-.3.3,0,0-.2-.2-.2-.3,0,0,0,0,0,0-.4.7-.9-.2-1.3,0-.4.2-.9.1-1.4,0-.3,0-.5-.2-.7-1.4-.1-.5-.1-1.1,0-1.4,0-.2.1-.5.2-.5.1-.1.3-.2.4-.3.3-.2.6-.8.9-.5,0,0,.2-.2.3.3,0,0,0,.1,0,0,.4-.8.8-.3,1.2-.4.4,0,.7-.7,1.1-.4.2-.6.4-.5.6-.3.7.7,1.4.2,2.1.3.7,0,1.4,0,2.2,0,.1,0,.2-.3.4,0,.1.3.3,0,.5,0,.1,0,.3-.1.4,0,.5.7,1.1.3,1.7.4.6.1,1.1.2,1.7,0,.3,0,.7-.4,1-.2.1,0,.3-.3.4.3,0,.2.2-.3.3-.3.2,0,.5,0,.7,0,.3,0,.6.1,1,0,.2,0,.4-.2.6-.3.2,0,.4,0,.6,0,.3.1.5.3.7.4.3,0,.6-.1.8.2.4.6.9.4,1.4.5.5.1.9.2,1.4.2.3,0,.4.5.7.5.1,0,0,1.5,0,2,0,0,0,.2,0,.2-.3.4-.7,1.1-.9,1-.4-.1-.8-.1-1.3-.2Z"/>
  <path d="M375.9,268.7c0-.1,0-.2,0-.4,0,0,.3,0-.3-.2-.3,0,.4,0,.4,0,0-.1,0-.2,0-.4,0-.1-.2-.3-.3-.4,0-.1.3-.2,0-.4-.3-.1.3-.1.2-.3-.1-.1-.2-.2,0-.3.2,0,.4,0,.3-.2,0,0-.4-.2-.3-.2,0,0,.3,0-.3-.2,0,0,0,0,.2,0,.4,0,.4,0,.1-.1-.3,0-.2-.1-.2-.2,0-.1,0-.2,0-.3,0,0,.3,0,.4-.2,0,0-.2-.2.1-.2.3,0,.3,0,.3-.2,0,0,.3,0-.3-.2,0,0,0,0,0,0,.8,0-.2-.3,0-.3.2,0,.1-.2.1-.3,0,0,.2,0-.3-.1-.2,0-.2,0,0,0,.6,0,.3-.1.4-.2.1,0-.1-.2.4-.2.2,0,.3,0-.2-.2-.3,0,0,0,0-.1,0,0-.3-.1-.3-.2,0,0,.2,0,.3,0,0,0,0,0,0,0-.6-.3.3-.3.1-.4-.1-.2,0-.3,0-.5,0,0,.3-.1,1.4,0,.5,0,1.1.2,1.4.3.2,0,.4.1.5.2,0,0,.2.1.3.2.2.1.7.3.4.4,0,0,.2.1-.3,0,0,0-.1,0,0,0,.8.3.2.3.2.5,0,.1.6.4.3.4.6.2.5.2.3.3-.7.1-.3.4-.4.6-.1.2,0,.5-.2.7,0,0,.3.1,0,.1-.3,0,0,0,0,.1,0,0,.1.1,0,.1-.7,0-.3.3-.4.5-.1.2-.2.3,0,.5,0,.1.4.3.2.4,0,0,.3.2-.3,0-.2,0,.3.1.3.1,0,0,0,.2,0,.2,0,.1,0,.2,0,.3,0,0,.3.2.3.3,0,0,0,.1,0,.2,0,0-.3.1-.4.2,0,0,.2.2-.1.3-.5,0-.3.3-.4.4,0,.1-.2.3,0,.5,0,.1-.5,0-.5.2,0,0-1.5-.2-2-.3,0,0-.2,0-.2,0-.4-.2-1.1-.4-1.1-.5,0-.1,0-.3.1-.4Z"/>
  <path d="M203.7,279.7l2.3-5.1c.3-.6.8-1.2.6-2.1,0-.4.8-.8,1-1.4.7-1.6,1.6-3.1,2.3-4.7.7-1.6,1.3-3.2,2-4.7.7-1.5,1.8-2.9,2.2-4.5.4-1.4,1.5-2.3,2-3.5.6-1.3,1.2-2.7,2.1-3.8.6-.8,1.3-1.6,1.7-2.5.2-.6.2-1.3.6-1.9.3-.6.9-1.1.6-1.9,0,0,.2-.3.4-.3.7-.4,1.1-1.2,1.1-1.8,0-.6.3-1,.6-1.5.7-1.3,1.4-2.5,2.1-3.8.6-.9,1.3-1.7,1.9-2.6.6-.9,1-2.1,1.7-2.9.8-.7,1.3-1.6,1.8-2.5.3-.5.9-.9.6-1.7,0,0,0-.3.2-.3,1.5-1,1.4-3,2.5-4.3,1.1-1.4,1.8-3,2.7-4.5.2-.4.6-.7.5-1.3,0-.2.2-.6.4-.8,1.2-.8,1.6-2.2,2.3-3.2.9-1.2,1.4-2.7,2.6-3.7.5-.4,1.1-1.1,1-2.1,0-.4.6-.9.8-1.4.2-.4.2-.9.4-1.3.2-.3.6-.5.9-.8,0,0,.2-.2.2-.3.6-2.2,2.5-3.6,3.5-5.6,1-2,2.2-3.9,3.5-5.8.7-1,1.5-2,2.9-2.1.6,0,1.1.2,1.1.8,0,.5,0,1-.2,1.4-.3.7-.5,1.3-.8,2-.6,1.3-.9,2.8-1.9,3.9-.3.3-.3,1-1,1,0,0-.2.2-.2.2-.3,2.1-1.9,3.6-2.8,5.3-.8,1.5-1.2,3.2-2.3,4.6,0,1.1-.6,2-1.3,2.8-2.3,2.5-3.7,5.7-5.5,8.5-1.8,2.9-3.5,5.9-5.3,8.8-.3.5-.2,1.1-.8,1.6-.5.4-.8,1.2-1.2,1.9-.3.6-.6,1.3-1.1,1.8-1.9,2-2.9,4.5-4.3,6.8-1.4,2.3-2.8,4.6-3.9,7-.7,1.5-1.2,3.1-2.1,4.4-.4.6-.4,1.4-1.3,1.7-.2,0-.1.9-.3,1.3-.5,1-1,2-1.6,3-.7,1.4-1.5,2.7-2.1,4.1-.4.9-.6,1.8-1,2.7-.4.9-.8,1.8-1.3,2.7-.6,1.1-1.4,2.1-2,3.2-.6,1.1-1,2.5-1.8,3.5-1.4,1.9-2.2,4.1-3.2,6.2-1,2.1-2,4.1-2.8,6.3-.4,1.2-1.4,2.1-1.9,3.3-.2.5-1.9.7-2.3.3,0,0-.1-.2-.1-.3,0-1.3-.2-2.7.4-4,.9-2,1.7-3.9,2.6-5.9Z"/>
  <path d="M275.4,284.8c.2-.7.5-1.3.7-2,0-.2.4-.4,0-.8-.2-.2.5-.2.5-.5.1-.6.5-1.2.7-1.8.2-.6.2-1.3.4-1.9.2-.6.7-1.1.6-1.7,0-.6.6-.8.7-1.3,0-.5.2-1.1.6-1.4.3-.3.7-.5.7-.9,0-.2-.2-.6,0-.8.1-.2.5-.3,0-.8,0,0,.1,0,.2-.1.5,0,.6-.4.4-.7-.2-.3,0-.4,0-.6.2-.5.4-1,.6-1.4.2-.3.6-.6.8-.9.2-.3.1-.9.6-1.1.4-.2.6-.6.7-.9,0-.2.4-.3,0-.7,0,0,0-.1,0-.1,1-.2.2-1.2.6-1.7.4-.5.5-1.1.8-1.7,0-.2.3-.3,0-.6-.1-.1,0-.3,0-.3.8-.2.6-.8.9-1.2.3-.5.2-1.1.9-1.4.3-.1.5-.4,0-.9-.2-.2.1-.4.1-.6,0-.2-.2-.4-.2-.6,0-.1.3-.2.5-.3,0,0,0,0,0-.1-.4-1,.7-1.4.8-2.2,0-.8.4-1.5.7-2.3.2-.4.5-.8,1.7-.8.5,0,1.1.1,1.3.4.2.2.4.4.4.6,0,.3,0,.6,0,.8,0,.6.4,1.2,0,1.7-.1.1,0,.4-.4.4,0,0-.1,0-.1,0,.5.9-.2,1.5-.4,2.2-.2.6.2,1.4-.2,1.9.5.5.2.9,0,1.2-1.1.9-1.1,2.2-1.7,3.4-.6,1.1-1,2.3-1.5,3.5,0,.2.2.5-.2.6-.3.1-.3.5-.4.7,0,.2,0,.5-.3.7-1,.6-1,1.7-1.5,2.6-.5.9-.9,1.7-1.1,2.7-.1.6,0,1.3-.4,1.7-.2.2,0,.6-.6.6-.2,0,.1.4,0,.6-.1.4-.3.7-.5,1.1-.2.5-.5,1-.6,1.6,0,.3,0,.7,0,1.1,0,.4-.2.7-.4,1-.2.4-.6.7-.8,1.1-.2.4-.1,1-.5,1.3-.8.6-.8,1.5-1.1,2.2-.3.8-.6,1.5-.7,2.3,0,.5-.7.7-.8,1.2,0,.2-1.6,0-2-.1,0,0-.2-.1-.2-.1-.3-.6-.9-1.2-.7-1.7.3-.7.5-1.5.7-2.2Z"/>
  <path d="M175.6,454.3c-.4-.2-.7-.5-1.1-.7-.1,0-.1-.4-.6,0-.2.2,0-.4-.1-.5-.4-.2-.6-.5-1-.7-.3-.2-.8-.3-1.1-.5-.3-.2-.5-.7-1-.7-.4,0-.3-.6-.6-.7-.3-.1-.6-.3-.7-.7,0-.3,0-.6-.3-.7-.2,0-.5,0-.6,0,0-.1,0-.4-.6,0,0,0,0,0,0-.2.2-.4,0-.5-.3-.4-.3.1-.3,0-.4,0-.3-.2-.5-.4-.7-.7-.1-.2-.1-.6-.3-.8-.1-.2-.5-.2-.5-.6,0-.4-.1-.5-.3-.7,0,0,0-.4-.5,0,0,0,0,0,0,0,.4-.8-.7-.4-.8-.8,0-.4-.5-.6-.8-.9,0,0,0-.3-.4,0-.1,0-.2,0-.2-.1.3-.6-.2-.6-.3-.9-.1-.4-.6-.4-.4-1,0-.2,0-.5-.5-.3-.3,0-.1-.2-.3-.3-.1,0-.4,0-.5,0,0,0,0-.3.1-.4,0,0,0,0,0,0-.8,0-.4-1-.8-1.3-.4-.3-.7-.8-.9-1.3-.1-.3-.1-.6.7-1.4.4-.3.9-.6,1.2-.7.3,0,.5,0,.6,0,.2,0,.4.1.5.2.3.2.9.1.9.5,0,.1.3,0,0,.4,0,0,0,.1,0,.1.9,0,.7.6,1,.9.3.3,1,.2,1,.6.6-.2.7,0,.7.3,0,1,.7,1.3,1.1,1.9.4.6,1,1.1,1.4,1.7,0,0,.4,0,.3.2,0,.3.2.3.3.4,0,.1.3.1.3.3,0,.9.6,1,1,1.5.4.5.7.9,1.3,1.2.3.2.8.1,1,.5,0,.1.4,0,.1.5,0,.2.3,0,.4,0,.2.1.4.3.6.5.2.2.5.5.8.6.2.1.5,0,.7.1.2,0,.4.2.5.4.2.2.2.6.4.8.2.2.6.2.6.6,0,.7.7.8,1,1.1.4.3.8.7,1.2.8.3,0,.2.7.5.8.1,0-.5,1.4-.9,1.8,0,0-.1.1-.2.2-.5.2-1.1.7-1.4.5-.4-.3-.8-.6-1.2-.8Z"/>
  <path d="M187,452.4c-.1,0-.3,0-.4.2,0,0-.2-.2,0,.3,0,.3-.2-.3-.2-.3,0,.1-.2,0-.3.2,0,.1-.1.4-.2.5,0,.1-.3-.1-.3.2,0,.3-.3-.1-.3,0,0,.2,0,.3-.3.1-.1-.1-.3-.3-.3-.1,0,0,.1.4,0,.4,0,0-.2-.2,0,.4,0,0,0,0-.1-.1-.3-.3-.3-.3-.2,0,.1.3,0,.2,0,.3,0,0-.1.2-.3.2,0,0-.3-.1-.4-.2-.1,0,0,.3-.2,0-.2-.2-.3-.1-.3-.1,0,0-.2-.2.1.4,0,0,0,0,0,0-.6-.6,0,.4-.2.3-.2,0-.2.1-.3.2,0,0-.2,0,.1.3,0,.1,0,.2,0,0-.5-.4-.3,0-.4,0-.2,0,0,.3-.5,0-.2-.1-.3-.2,0,.3.2.2,0,0,0,.1,0,0,.2.3.2.3,0,0-.2-.1-.3-.2,0,0,0,0,0,0,.4.6-.4,0-.4.3,0,.2-.1.3-.3.4,0,0-.3,0-1.2-.7-.4-.3-.9-.6-1.1-.9-.2-.2-.3-.4-.3-.4,0-.1,0-.2-.1-.4,0-.2-.4-.7,0-.6,0,0,0-.2.3.1,0,0,0,0,0,0-.5-.7,0-.5.1-.6,0-.1-.3-.7,0-.6-.4-.5-.2-.5,0-.4.7.3.6-.3.9-.4.3-.1.5-.4.8-.6,0,0-.1-.3,0-.2.2.2.1,0,.2,0,0,0,0-.2.2,0,.6.4.6,0,.8-.2.3,0,.5-.2.6-.4,0-.2,0-.5.2-.5,0,0,0-.3.3.2,0,.1,0-.3,0-.3,0,0,.2-.1.3-.2.1,0,.3,0,.4-.2,0,0,0-.3.1-.4,0,0,.2-.1.3-.1.1,0,.3.2.5.2.1,0,.2-.3.4,0,.4.4.5,0,.7,0,.2,0,.4,0,.6-.2,0-.1.3.3.5.3,0,0,.5,1.4.6,1.9,0,0,0,.2,0,.2,0,.5.1,1.2,0,1.2-.2,0-.3,0-.5.1Z"/>
  <path d="M209.5,449.6c.6,1.1,1.2,2.2,1.8,3.3.2.4.2.9,1,1.1.4,0,0,.8.2,1.2.6,1,1.1,2.1,1.7,3.1.6,1,1.3,1.9,1.9,2.8.6,1,.9,2.1,1.7,2.9.7.7.7,1.7,1.2,2.4.5.7,1.2,1.7,1.4,3.1,0,.5,0,1.1,0,1.7,0,.6-.3,1.1-.4,1.7-.2.7-.4,1.5-1.2,2-.7.5-1.6.5-2,1.2,0,0-.4,0-.5,0-.7-.3-1.4-.3-1.9,0-.5.2-.9.2-1.4.1-.6,0-1.1-.2-1.6-.3-.5,0-1-.2-1.5-.4-.7-.2-1.4-.7-2.1-.9-.7-.3-1.6-.3-2.2-.8-.6-.5-1.2-.7-1.9-1-.4-.1-.7-.6-1.2-.1,0,0-.2,0-.2,0-.7-1.2-2.2-.6-3.2-1.3-1-.7-2.2-1.1-3.3-1.6-.3-.1-.5-.5-1-.2-.2,0-.5,0-.6-.2-.5-1-1.5-1-2.3-1.5-.9-.6-1.9-.8-2.6-1.7-.3-.4-.8-.8-1.5-.5-.2,0-.3,0-.5-.1,0,0-.2-.1-.3-.2,0,0-.3-.2-.4-.2-.5-.2-1.2-.3-1.6-.8-.3-.4-.4-.9-.4-1.4,0-.1,0-.3-.1-.4-.3-.6-.4-1.4-.3-2,0-.4,0-.7.2-1.1.2-.7.4-1.5.3-2.2,0-1.5,0-3,.3-4.5.1-.8.3-1.7,1.5-2.2.5-.2,1.1-.2,1.4.2.2.3.4.6.5.9,0,.5.2,1,.2,1.4.1,1,.6,2,.3,2.9-.1.3.2.7-.4.9,0,0-.1.2,0,.2.4.7.4,1.4.3,2,0,.3,0,.7-.1,1v.5c0,0,0,.2,0,.2,0,0,0,0,0,0,0,.2.2.3.4.3,0,0,.2,0,.2,0,0,0,0,0,.1,0,.1,0,.2.2.4.3.9-.3,1.5.2,1.9.7,1.7,1.7,3.9,2.3,5.9,3.4,2,1.1,4.1,1.9,6.2,2.8.4.2.8,0,1.1.4.3.4.9.4,1.3.6.4.1.9.2,1.3.5,1.5,1.2,3.3,1.3,5,1.7.9.2,1.6.4,2.3.4.4,0,.7,0,1,0,.1,0,.3,0,.4-.1,0,0,.1,0,.2-.1.1-.1.1-.3,0-.5,0-.2,0-.2,0-.4,0-.3-.4-.4,0-1,.1-.2-.5-.3-.6-.5-.4-.6-.7-1.3-1.1-2-.5-.9-1-1.9-1.5-2.8-.3-.5-.9-1-1.2-1.5-.4-.6-.7-1.2-1-1.8-.3-.8-.6-1.6-.9-2.4-.4-.8-1-1.5-1.2-2.4-.3-1.6-1.3-2.9-2-4.3-.7-1.4-1.4-2.8-2.2-4.1-.5-.7-.4-1.6-.9-2.2-.2-.3.6-1.6,1.1-1.8,0,0,.2,0,.3,0,.9.4,2,.7,2.5,1.7.7,1.4,1.4,2.6,2.1,3.8Z"/>
  <path d="M211.7,434c1.5-1.7,3-3.5,4.4-5.2.5-.7,1.3-1.2,1.5-2.2,0-.5,1.1-.7,1.6-1.3,1.3-1.7,2.9-3.2,4.2-4.8,1.3-1.6,2.6-3.2,3.9-4.8,1.3-1.6,2.9-3,3.9-4.7.9-1.5,2.2-2.3,3.1-3.7.9-1.4,1.9-2.9,3-4.1.8-.9,1.6-1.8,2.2-2.9.3-.7.4-1.4.8-2.1.4-.6,1-1.3.8-2.1,0,0,.2-.3.4-.4.7-.5,1.1-1.5,1.2-2.2,0-.7.3-1.2.5-1.8.6-1.5,1.1-3.1,1.7-4.7.4-1.2,1-2.3,1.3-3.6.4-1.3.4-2.7.9-3.9.5-1.2.7-2.3.9-3.5.1-.7.5-1.5,0-2.1,0,0,0-.3,0-.4,1.1-1.9.3-3.9.7-5.9.5-2.1.5-4.2.8-6.3,0-.6.3-1.1,0-1.7-.1-.2,0-.8,0-1.1.8-1.5.6-3.2.9-4.8.3-1.8.3-3.7.9-5.5.3-.8.5-1.8,0-2.8-.2-.5.2-1.3.2-2,0-.6-.2-1.1-.1-1.7,0-.5.3-.9.5-1.4,0-.1,0-.3,0-.4-.4-2.7.8-5.3,1-8,.1-2.7.5-5.5.9-8.2.2-1.5.6-3,1.8-3.9.6-.4,1.1-.3,1.4.3.2.5.3,1.1.3,1.6,0,.9,0,1.7,0,2.6,0,1.8.3,3.5-.2,5.3-.2.5,0,1.2-.5,1.6,0,0-.1.3-.1.4.5,2.5-.3,4.9-.5,7.3-.2,2.1.2,4.1-.3,6.2.5,1.2.2,2.6,0,3.7-1.1,4-1.2,8.2-1.7,12.3-.6,4.1-.9,8.3-1.5,12.5-.1.7.2,1.4-.2,2.2-.4.7-.3,1.8-.5,2.7-.1.8-.2,1.7-.5,2.5-1.3,3.1-1.7,6.5-2.9,9.7-1.2,3.2-2.7,6.2-4.2,9.2-.9,1.8-1.7,3.8-3,5.4-.5.7-.8,1.7-1.8,2-.3,0-.4,1-.7,1.5-.8,1.1-1.7,2.2-2.6,3.3-1.2,1.5-2.5,3-3.7,4.4-.7.9-1.3,1.9-2,2.9-.8,1-1.6,1.9-2.4,2.7-1.1,1.1-2.3,2.1-3.4,3.2-1.1,1.1-2,2.6-3.2,3.5-2.2,1.8-3.8,4.1-5.7,6.2-1.9,2.1-3.7,4.2-5.4,6.4-1,1.3-2.3,2-3.3,3.2-.5.6-2.2.4-2.4-.2,0-.1,0-.3,0-.4.6-1.5,1-3,2.2-4.3,1.7-1.9,3.4-3.9,5.1-5.9Z"/>
  <path d="M197.3,386.9c-.6.9-1.3,1.8-1.9,2.8-.2.4-.7.6-.5,1.2,0,.3-.7.3-.9.6-.5.9-1.2,1.7-1.8,2.6-.5.9-.9,1.8-1.5,2.7-.5.9-1.4,1.6-1.7,2.5-.3.9-1.1,1.2-1.5,1.9-.4.8-.8,1.5-1.5,2.1-.5.4-1,.8-1.3,1.3-.2.4-.1.8-.4,1.2-.2.3-.7.5-.4,1.1,0,0-.2.1-.3.2-.6.1-.8.5-.8,1,0,.4-.2.7-.3.9-.5.7-.9,1.5-1.5,2.1-.4.5-1,.9-1.4,1.4-.4.5-.6,1.3-1.2,1.6-.6.3-.9.8-1.3,1.3-.2.3-.7.5-.3,1.1,0,0,0,.2-.1.2-1.2.3-.9,1.8-1.7,2.5-.8.7-1.3,1.7-1.8,2.6-.2.2-.5.4-.2.8,0,.2,0,.4-.2.5-1,.3-1.1,1.2-1.7,1.8-.6.7-.9,1.6-1.8,2.1-.4.2-.8.6-.6,1.3,0,.3-.4.5-.5.8-.1.3,0,.6-.2.9-.1.2-.5.2-.7.4,0,0-.1.1-.1.2-.2,1.5-1.7,2-2.3,3.2-.6,1.2-1.5,2.3-2.3,3.3-.5.6-1.1,1.1-2.3.9-.6-.1-1-.4-1.1-.9,0-.3,0-.7,0-.9.2-.4.3-.8.5-1.2.3-.8.4-1.8,1.1-2.4.2-.2.2-.6.7-.5,0,0,.2,0,.2-.1,0-1.4,1.2-2.1,1.8-3.2.5-.9.6-2,1.4-2.7-.2-.8.3-1.3.8-1.7,1.7-1.3,2.5-3.2,3.7-4.8,1.3-1.6,2.4-3.4,3.6-5.1.2-.3,0-.7.5-.9.4-.2.6-.7.8-1.1.2-.3.4-.8.7-1,1.5-.9,2.1-2.5,3.1-3.8,1-1.3,2-2.6,2.7-4,.5-.9.8-1.9,1.4-2.6.3-.3.3-.9,1-.9.2,0,0-.6.2-.8.3-.6.8-1.1,1.1-1.7.5-.8,1.1-1.5,1.6-2.3.3-.5.4-1.1.7-1.6.3-.5.6-1,1-1.5.5-.6,1.1-1.1,1.6-1.7.5-.6.7-1.4,1.4-1.9,1.2-.9,1.8-2.1,2.7-3.3.8-1.1,1.7-2.2,2.4-3.4.4-.7,1.2-1,1.7-1.6.2-.3,1.7.2,2,.6,0,0,.1.2.1.3,0,.9.2,1.9-.4,2.5-.8,1-1.5,2.1-2.2,3.1Z"/>
  <path d="M196.4,371.8c0-1.5.2-3,.2-4.5,0-.6.3-1.1-.2-1.7-.3-.3.4-.8.4-1.3,0-1.4.2-2.8.2-4.2,0-1.4-.2-2.7-.2-4.1,0-1.4.4-2.7,0-4.1-.2-1.1.3-2.1.2-3.2,0-1.1-.1-2.3.2-3.4.2-.8.5-1.6.4-2.4,0-.5-.4-1-.3-1.5,0-.5.3-1.1-.3-1.6,0,0,0-.3.2-.4.4-.5.4-1.2.2-1.7-.3-.5-.2-.9-.2-1.3,0-1.2,0-2.3.1-3.5,0-.9.3-1.7.4-2.6,0-.9-.2-1.9.2-2.7.3-.8.3-1.6.4-2.4,0-.5.3-1-.3-1.4,0,0,0-.2,0-.3.9-1.3-.2-2.6,0-4,.3-1.4.2-2.8.2-4.2,0-.4.2-.8-.2-1.1-.2-.1-.2-.5,0-.7.7-1,.3-2.1.4-3.2.2-1.2-.1-2.4.4-3.6.2-.5.4-1.2-.2-1.9-.3-.3,0-.9,0-1.3,0-.4-.3-.7-.3-1.1,0-.3.2-.6.4-.9,0,0,0-.2,0-.3-.6-1.8.3-3.5.2-5.3-.1-1.8,0-3.6.1-5.4,0-1,.3-2,1.4-2.7.5-.3,1.1-.3,1.4.1.2.3.5.7.5,1,0,.6.2,1.1.3,1.7.2,1.2.7,2.3.4,3.5,0,.4.2.8-.3,1.1,0,0-.1.2,0,.3.8,1.6.2,3.2.2,4.9,0,1.4.6,2.7.3,4.1.6.8.5,1.7.3,2.4-.7,2.7-.4,5.4-.6,8.2-.2,2.8-.2,5.5-.3,8.3,0,.5.3.9,0,1.4-.3.5,0,1.2-.1,1.8,0,.6,0,1.1,0,1.7-.7,2.1-.4,4.3-.6,6.5-.2,2.2-.3,4.3-.2,6.5,0,1.3.3,2.6.2,4,0,.6.2,1.2-.4,1.7-.2.2.3.7.3,1.1,0,.9,0,1.8,0,2.7,0,1.3-.1,2.5-.1,3.8,0,.8.2,1.5.2,2.3,0,.8,0,1.6-.1,2.4-.1,1-.4,2-.5,3-.1,1,.1,2.2-.2,3.1-.6,1.8-.4,3.7-.6,5.6-.1,1.9-.3,3.7-.2,5.6,0,1.1-.5,2-.6,3,0,.5-1.5,1.1-2,.8,0,0-.2-.1-.2-.2-.4-1-1.1-2-1-3.1.2-1.7.2-3.4.3-5.1Z"/>
  <path d="M308.7,456.2c-1-2-2-4-3.1-6-.4-.7-.6-1.6-1.4-2.2-.4-.3-.2-1.3-.6-2-1-1.8-1.9-3.8-2.9-5.6-1-1.8-2.1-3.5-3.1-5.3-1-1.8-1.7-3.8-2.8-5.4-1-1.4-1.2-3-2.1-4.4-.9-1.5-1.7-3-2.3-4.7-.4-1.2-.7-2.4-1.4-3.4-.4-.7-1-1.2-1.3-1.9-.3-.7-.5-1.6-1.3-1.9,0,0-.1-.4-.1-.6,0-.9-.5-1.8-1-2.3-.5-.5-.8-1.1-1.1-1.6-.8-1.5-1.6-3.1-2.2-4.7-.5-1.2-.9-2.4-1.4-3.6-.5-1.2-1.4-2.4-1.7-3.7-.3-1.3-.8-2.3-1.3-3.4-.3-.6-.4-1.5-1.2-1.7,0,0-.2-.3-.2-.4-.1-2.1-2-3.4-2.7-5.3-.7-1.9-1.8-3.8-2.8-5.6-.3-.5-.4-1.1-1-1.4-.2,0-.5-.6-.5-.9-.1-1.7-1.2-2.9-1.9-4.4-.7-1.7-1.8-3.1-2.3-5-.2-.8-.6-1.8-1.5-2.3-.4-.3-.6-1.2-1-1.7-.3-.5-.8-.8-1.1-1.3-.2-.4-.2-.9-.4-1.4,0-.1-.1-.3-.2-.4-1.8-2-2.3-4.8-3.8-7-1.5-2.3-2.7-4.7-4-7.1-.7-1.3-1.3-2.7-.8-4.2.2-.7.7-.9,1.3-.5.4.3.9.6,1.2,1.1.5.7,1,1.4,1.5,2,1,1.4,2.3,2.6,2.9,4.4.2.5.8,1,.6,1.6,0,0,0,.3.1.4,1.8,1.7,2.6,4.1,3.8,6.2,1,1.8,2.5,3.3,3.3,5.2,1.1.7,1.6,2,2,3.1,1.3,3.9,3.6,7.4,5.4,11,1.8,3.7,3.8,7.4,5.5,11.1.3.6.9,1,1,1.9.1.8.7,1.6,1.1,2.4.4.7.9,1.5,1.1,2.2.8,3.2,2.6,6,3.9,9,1.3,2.9,2.7,5.9,4.2,8.7,1,1.7,2.1,3.3,2.9,5.2.3.8,1,1.4.9,2.4,0,.3.7.8,1,1.3.6,1.2,1.2,2.4,1.8,3.6.8,1.7,1.6,3.4,2.5,5,.5,1,1.3,1.9,1.8,2.9.6,1,1.1,2.1,1.6,3.2.6,1.4,1.1,2.8,1.8,4.2.7,1.4,1.7,2.8,2.1,4.2.8,2.7,2.3,5.1,3.6,7.6,1.2,2.5,2.5,5,3.9,7.4.8,1.4,1,2.9,1.7,4.2.3.6-.5,2.2-1.1,2.2-.1,0-.3,0-.3-.1-1.1-1.1-2.4-2-3.2-3.6-1.1-2.3-2.4-4.5-3.5-6.8Z"/>
  <path d="M340.4,457.8c-.4.3-.7.7-1.1,1-.1.1-.4,0-.2.6,0,.3-.4-.1-.6,0-.3.3-.8.5-1.1.8-.3.3-.6.7-.9,1-.4.3-.9.2-1.1.7-.2.4-.7.1-1,.4-.3.3-.6.5-1,.4-.3,0-.6-.2-.8,0-.1.1-.1.5-.3.5-.2,0-.4-.1-.4.5,0,0-.1,0-.2,0-.3-.3-.5-.2-.6,0,0,.3-.2.3-.3.4-.3.1-.7.3-1.1.3-.3,0-.6-.1-.9-.1-.3,0-.5.4-.8.1-.3-.2-.6-.2-.8-.1-.1,0-.4-.2-.4.4,0,0,0,0,0,0-.6-.7-.8.4-1.2.3-.5-.1-.9,0-1.3.2-.1,0-.3-.1-.3.3,0,.2-.1.2-.2,0-.4-.6-.7-.1-1-.2-.4,0-.7.3-1.2-.2-.2-.2-.4-.3-.5.3,0,.3-.3,0-.4.1-.1,0-.2.3-.3.4,0,0-.2-.2-.3-.3,0,0,0,0,0,0-.5.7-1.1-.1-1.6.1-.5.2-1.1.2-1.6.2-.3,0-.6-.2-.9-1.3-.1-.5-.2-1.1,0-1.4,0-.2.2-.5.3-.6.2-.1.3-.3.5-.4.3-.2.6-.8,1-.5.1,0,.2-.2.4.3,0,0,0,.1,0,0,.4-.8.9-.4,1.4-.5.4,0,.7-.8,1.2-.5.2-.7.4-.6.7-.4.9.6,1.6,0,2.4,0,.8,0,1.6-.3,2.3-.4.1,0,.2-.4.4-.2.2.2.3,0,.5,0,.2,0,.3-.2.5,0,.8.5,1.3,0,1.9-.2.6-.1,1.2-.2,1.7-.6.3-.2.5-.7.9-.7.2,0,.2-.4.6,0,.1.1,0-.3.1-.4.2-.1.4-.2.7-.3.3-.1.6-.3.9-.5.2-.1.2-.5.4-.6.2-.2.3-.3.5-.3.3,0,.6,0,.9-.2.3-.1.3-.5.7-.5.7,0,.9-.4,1.3-.7.4-.3.8-.6,1-1.1.1-.2.7-.1.9-.4,0,0,1.4.6,1.7,1,0,0,.1.1.1.2.2.5.6,1.2.3,1.5-.4.4-.8.8-1.2,1.2Z"/>
  <path d="M339.9,447.6c0,.1,0,.2,0,.3,0,0-.2.1.3,0,.3,0-.4.1-.3.1,0,0,0,.2,0,.3,0,0,.3.2.4.3,0,0-.2.2.1.3.3,0-.2.2,0,.3.1,0,.2.1,0,.3-.2,0-.4.2-.2.2,0,0,.4,0,.4,0,0,0-.3.1.4,0,0,0,0,0-.1,0-.4.1-.3.2,0,.1.3,0,.2,0,.3,0,0,0,0,.2,0,.3,0,0-.2.2-.3.3,0,0,.3,0,0,.2-.3.1-.2.2-.2.3,0,0-.3.2.4,0,0,0,0,0,0,0-.8.3.3.1.1.3-.2.2,0,.2,0,.3,0,0-.1.1.3,0,.2,0,.2,0,0,0-.6.3-.2.2-.3.3,0,.1.2.1-.2.4-.2.1-.3.2.3,0,.3,0,0,0,0,0,0,0,.3,0,.3,0,0,0-.2.1-.3.2,0,0,0,0,0,0,.7-.1-.1.3.1.4.2,0,.2.2.2.4,0,0-.2.2-1.2.8-.5.2-1,.5-1.3.6-.2,0-.4.1-.5.1-.1,0-.2,0-.4,0-.2,0-.8.1-.5-.1,0,0-.2,0,.2-.2,0,0,0,0,0,0-.8.2-.4-.2-.5-.3,0,0-.7,0-.5-.2-.6.2-.5,0-.4,0,.5-.5,0-.6,0-.8,0-.3-.2-.5-.2-.8,0,0-.4,0-.1-.1.2-.1,0-.1,0-.2,0,0-.2,0,0-.2.6-.4.1-.5.2-.7,0-.2,0-.4-.2-.6-.1,0-.5-.1-.4-.3,0,0-.3,0,.3-.2.2,0-.3,0-.3,0,0,0,0-.2,0-.2,0-.1,0-.2,0-.3,0,0-.3,0-.4-.2,0,0,0-.1,0-.2,0-.1.3-.2.3-.3,0-.1-.2-.2,0-.3.5-.2.2-.4.2-.6,0-.2,0-.4,0-.5,0,0,.4-.2.4-.3,0,0,1.5-.2,2-.2,0,0,.2,0,.2,0,.5,0,1.2,0,1.2.2,0,.1,0,.3,0,.4Z"/>
  <path d="M348.4,453.2c-.2,0-.4-.1-.6-.1,0,0,0-.3-.3.2-.1.3,0-.4,0-.4-.2,0-.4-.1-.5,0-.2,0-.4.2-.6.2-.2,0-.3-.3-.5,0-.2.2-.2-.3-.4-.2-.2,0-.3.1-.4-.1,0-.2-.1-.4-.2-.4,0,0-.2.3-.3.3,0,0,0-.3-.3.3,0,0,0,0,0-.2,0-.4,0-.4-.2-.2-.1.2-.2.2-.2.2-.2,0-.3,0-.4-.1,0,0-.2-.3-.2-.4-.1,0-.3.2-.3-.2,0-.3-.1-.3-.2-.4,0,0,0-.3-.3.3,0,0,0,0,0,0,0-.8-.4.2-.5,0-.1-.2-.3-.1-.5-.2,0,0,0-.2-.2.2,0,.2-.1.2-.1,0,0-.6-.2-.3-.3-.4-.1-.2-.4,0-.4-.4,0-.2,0-.3-.3.2-.1.3-.1,0-.2,0,0,0-.2.3-.2.3,0,0,0-.2,0-.4,0,0,0,0,0,0-.4.6-.4-.3-.7-.2-.3.1-.5,0-.7-.2-.1,0-.2-.3,0-1.4,0-.5.2-1,.3-1.4,0-.2.2-.4.3-.5,0,0,.2-.2.3-.3.2-.2.5-.6.6-.3,0,0,.2-.2,0,.3,0,0,0,.1,0,0,.4-.7.5-.2.7-.2.2,0,.5-.6.6-.3.2-.6.3-.5.4-.2.2.7.6.4,1,.6.3.2.7.2,1.1.3,0,0,.2-.3.2,0,0,.3.1,0,.2.1,0,0,.2,0,.2,0,.1.7.5.4.8.5.3.1.5.3.8.2.2,0,.4-.4.6-.2,0,0,.2-.2.1.4,0,.2.2-.3.2-.3.1,0,.2,0,.4,0,.2,0,.3.1.5.1.1,0,.3-.2.4-.3.1,0,.2,0,.3,0,.1.1.2.3.3.4.1,0,.3-.1.4.2.1.6.4.4.6.5.2.1.5.2.7.2.2,0,.2.5.3.5,0,0-.2,1.5-.4,1.9,0,0,0,.2,0,.2-.2.4-.5,1.1-.7,1-.2-.1-.4-.1-.7-.2Z"/>
  <path d="M350,427.1c1.1,0,2.1,0,3.2,0,.4,0,.8.3,1.2-.2.2-.3.6.4.9.4,1,0,2,.2,3,.2,1,0,1.9-.1,2.9,0,1,0,1.9.4,2.8.2.8-.2,1.5.4,2.2.3.8,0,1.6,0,2.4.2.6.2,1.1.5,1.7.4.4,0,.7-.3,1.1-.3,0,0,.2,0,.4,0,.2,0,.3,0,.5,0,.3,0,.6,0,1-.3,0,0,.3.1.4.2.5.5,1.3.4,1.9.5.6,0,.9.3,1.2.6.4.5.7,1.1.8,1.7,0,.1,0,.3,0,.4,0,.2,0,.3-.1.5l-.2,1c0,.2-.3.5-.4.8l-.5.7c-.2.2-.3.5-.5.7l-.4.6c-.4.6-.6,1.3-1.2,1.7-.6.3-1,.8-1.4,1.3-.2.3-.7.4-.4,1,0,0,0,.2-.1.2-1.3.2-1.2,1.6-2.1,2.1-.9.5-1.6,1.3-2.5,1.9-.2.2-.6.2-.5.7,0,.2-.2.4-.4.4-1,0-1.5.7-2.2,1-.8.4-1.5,1-2.5,1-.4,0-.9.1-1.1.8,0,.3-.6.3-.8.5-.2.2-.3.5-.6.6-.2.1-.5,0-.8,0,0,0-.2,0-.2,0-.9,1.1-2.4.8-3.5,1.4-1.1.6-2.4,1-3.6,1.3-.7.2-1.4.3-2.2-.7-.4-.4-.6-.9-.4-1.3.1-.3.3-.6.5-.7.3-.2.7-.5,1-.7.7-.5,1.2-1.2,2.1-1.2.3,0,.4-.4.8,0,0,0,.2,0,.2,0,.7-1.1,2-1.1,3-1.5.8-.4,1.4-1.4,2.4-1.5.2-.8.8-1,1.3-1,1.9-.2,3.3-1.6,4.7-2.5,1.5-1,2.8-2.2,4.1-3.5.2-.2.1-.6.6-.7.4,0,.5-.5.8-.8.2-.3.3-.7.6-.8.3-.2.6-.4.8-.7.1-.1.2-.3.3-.4,0,0,0-.1.1-.2.1-.2.1-.4.3-.7,0-.1,0-.3,0-.4,0,0-.2-.1-.3-.1-.3,0-.6,0-.9,0-.9,0-1.9.3-2.8,0-.4,0-.8.2-1.2-.4,0-.2-.5.2-.8.2-.6,0-1.3-.1-1.9-.2-.9,0-1.7-.2-2.6-.2-.5,0-1.1.2-1.6.2-.6,0-1.1,0-1.7-.1-.7-.1-1.4-.4-2.1-.5-.7-.1-1.5.1-2.2-.2-1.3-.6-2.6-.4-3.8-.5-1.3,0-2.6-.1-3.8,0-.7,0-1.4-.4-2.1-.4-.3,0-.8-1.5-.7-2,0,0,0-.2.1-.2.7-.5,1.3-1.2,2.2-1.2,1.2,0,2.4,0,3.6,0Z"/>
  <path d="M336.3,416.9c-.9-2.3-1.7-4.5-2.7-6.8-.4-.8-.5-1.8-1.3-2.4-.4-.3-.2-1.4-.5-2.1-.9-2.1-1.7-4.2-2.7-6.3-.9-2-2-3.9-2.9-5.9-.9-2-1.6-4.2-2.7-6-1-1.5-1.2-3.3-2-4.8-.9-1.6-1.7-3.3-2.3-5.1-.4-1.3-.7-2.5-1.4-3.7-.4-.7-1-1.3-1.4-2.1-.3-.8-.5-1.7-1.4-2.1,0,0-.1-.4-.1-.6,0-1-.5-2-1.1-2.5-.6-.5-.8-1.1-1.1-1.7-.9-1.6-1.7-3.3-2.5-5-.6-1.3-1-2.6-1.6-3.9-.6-1.3-1.6-2.6-2-3.9-.4-1.3-1-2.5-1.6-3.6-.4-.7-.5-1.6-1.4-1.8,0,0-.2-.3-.2-.4-.3-2.3-2.2-3.6-3.1-5.6-.9-2.1-2.1-4-3.2-6-.3-.5-.4-1.2-1.1-1.5-.2,0-.6-.6-.6-1-.2-1.8-1.4-3.2-2.1-4.7-.8-1.8-2-3.4-2.5-5.4-.2-.8-.7-1.9-1.7-2.5-.5-.3-.7-1.3-1.1-1.9-.3-.5-.8-.9-1.1-1.4-.2-.4-.3-1-.4-1.5,0-.1-.1-.3-.2-.4-2-2.2-2.5-5.1-4.1-7.6-1.5-2.5-2.9-5.1-4.2-7.7-.7-1.4-1.3-3-.9-4.5.2-.7.7-.9,1.3-.5.5.3.9.7,1.2,1.2.5.8,1.1,1.5,1.6,2.2,1.1,1.5,2.4,2.9,3.1,4.7.2.6.8,1,.6,1.7,0,0,0,.3.1.4,1.9,1.9,2.7,4.5,4,6.7,1.1,1.9,2.7,3.5,3.5,5.6,1.1.8,1.7,2.1,2.2,3.3,1.5,4.2,4,7.9,6,11.8,2,4,4.2,7.9,6.3,11.9.4.7,1,1.1,1.1,2,.2.9.9,1.7,1.3,2.6.4.8,1,1.6,1.2,2.4.5,1.7,1.3,3.3,2.1,4.8.8,1.6,1.7,3.1,2.4,4.7,1.5,3.2,3,6.4,4.6,9.5,1,1.9,2.2,3.7,3,5.7.3.9,1,1.6.9,2.7,0,.3.7.9,1,1.4.7,1.3,1.2,2.7,1.8,4,.8,1.9,1.6,3.7,2.5,5.6.5,1.1,1.3,2.1,1.8,3.3.6,1.2,1.1,2.4,1.5,3.6.6,1.5,1,3.1,1.6,4.7.6,1.6,1.5,3.1,1.9,4.7.7,3,2.1,5.7,3.1,8.6,1.1,2.8,2.1,5.7,3.3,8.4.7,1.6.7,3.2,1.3,4.8.3.7-.8,2.2-1.4,2.1-.1,0-.3-.1-.3-.2-1-1.4-2.2-2.5-2.8-4.3-.9-2.6-1.9-5.1-2.9-7.7Z"/>
  <path d="M403.3,316.2c-.1,0-.3,0-.4.2,0,0-.2-.2,0,.3,0,.3-.2-.3-.2-.3-.1.1-.3,0-.4.2,0,.1-.1.4-.2.5,0,.1-.3-.1-.3.2,0,.3-.3-.1-.3,0,0,.2-.1.3-.3,0-.1-.1-.3-.3-.3-.2,0,0,0,.4,0,.4,0,0-.2-.2,0,.4,0,0,0,0,0-.1-.2-.4-.3-.3-.2,0,0,.3,0,.2,0,.3,0,0-.2.1-.3.1,0,0-.3-.2-.4-.2-.1,0,0,.3-.3,0-.2-.2-.3-.2-.3-.2,0,0-.2-.2,0,.4,0,0,0,0,0,0-.4-.7-.1.3-.3.2-.2-.1-.3,0-.4.1,0,0-.1-.1,0,.3,0,.2,0,.2,0,0-.4-.5-.3-.1-.4-.2-.2,0-.1.3-.4-.1-.1-.2-.2-.2,0,.3,0,.3,0,0,0,.1,0,0,0,.3,0,.3,0,0-.2-.2-.2-.3,0,0,0,0,0,0,.1.7-.4,0-.5.2,0,.2-.3.2-.4.2-.1,0-.3-.1-.9-1.1-.3-.4-.5-.9-.6-1.2,0-.2-.2-.4-.2-.5,0-.1,0-.3,0-.4,0-.2-.1-.8.1-.6,0,0,0-.2.2.2,0,0,0,0,0,0-.2-.8.2-.4.3-.5.1-.1,0-.7.2-.5-.2-.6,0-.5,0-.4.5.5.6,0,.9,0,.3,0,.5-.2.8-.3,0,0,0-.4.1-.1.2.2.1,0,.2,0,0,0,0-.2.2,0,.5.5.5,0,.7,0,.2,0,.5,0,.6-.3,0-.1,0-.5.3-.4,0,0,0-.3.3.2,0,.2,0-.3,0-.3,0,0,.2,0,.2-.1.1,0,.3,0,.4-.2,0,0,0-.3,0-.4,0,0,.1-.1.2,0,.1,0,.3.2.4.2.1,0,.1-.3.3,0,.3.4.4.1.6.1.2,0,.4,0,.5-.2,0-.1.3.3.4.3,0,0,.6,1.4.7,1.9,0,0,0,.2,0,.2,0,.5.2,1.2,0,1.2-.2,0-.3,0-.5.1Z" fill="#fff"/>
  <path d="M406.3,328.1c-.1,0-.3.1-.4.2,0,0-.2-.2,0,.3,0,.3-.3-.3-.3-.2-.1.1-.3.1-.4.2-.1.1-.1.4-.2.5-.1.1-.4,0-.4.3,0,.3-.3,0-.4,0,0,.2-.1.3-.3.1-.2-.1-.3-.3-.4-.1,0,0,0,.4,0,.4,0,0-.2-.2,0,.4,0,0,0,0-.1-.1-.2-.3-.3-.3-.2,0,0,.3,0,.3,0,.3,0,0-.2.2-.3.2-.1,0-.3-.2-.4-.2-.1,0,0,.3-.3,0-.2-.2-.3-.2-.4-.1,0,0-.2-.2,0,.4,0,0,0,0,0,0-.5-.7-.1.4-.4.2-.2-.1-.3,0-.4.2,0,0-.2-.1,0,.3,0,.2,0,.2,0,0-.4-.5-.3-.1-.5-.2-.2,0-.2.3-.5-.1-.1-.2-.3-.2,0,.3,0,.3,0,0-.1.1,0,0,0,.3,0,.4,0,0-.2-.2-.2-.3,0,0,0,0,0,0,.1.7-.4,0-.5.2,0,.3-.3.3-.5.3-.1,0-.3-.1-.9-1.1-.3-.4-.5-.9-.6-1.3,0-.2-.1-.5-.1-.5,0-.1,0-.3,0-.4,0-.2-.1-.8.1-.6,0,0,0-.2.2.2,0,0,0,0,0,0-.2-.8.2-.4.3-.5.1-.1,0-.7.2-.6-.2-.6,0-.5,0-.4.6.5.6,0,.9-.1.3,0,.5-.3.8-.4,0,0,0-.4.1-.1.2.2.1,0,.2,0,0,0,0-.2.2,0,.5.5.5,0,.8,0,.2,0,.5,0,.6-.3,0-.2,0-.5.2-.5,0,0,0-.3.3.2,0,.1,0-.3,0-.3,0,0,.2-.1.2-.1.1,0,.3,0,.3-.2,0,0,0-.3,0-.4,0,0,.1-.1.2-.1.1,0,.3.2.5.2.1,0,.1-.3.3,0,.4.4.5,0,.7,0,.2,0,.4,0,.5-.3,0-.1.4.3.5.2,0,0,.8,1.2,1,1.7,0,0,0,.2,0,.2.1.5.4,1.1.2,1.2-.2,0-.3.2-.5.2Z" fill="#fff"/>
  <path d="M408.5,340.3c-.1,0-.3,0-.4.2,0,0-.2-.2,0,.3,0,.3-.2-.3-.2-.3,0,.1-.2,0-.3.2,0,.1-.1.4-.2.5,0,.1-.3-.1-.3.2,0,.3-.3-.1-.3,0,0,.2-.1.3-.3,0-.1-.1-.3-.3-.3-.2,0,0,0,.4,0,.4,0,0-.2-.2,0,.4,0,0,0,0,0-.1-.2-.4-.3-.3-.2,0,0,.3,0,.2,0,.3,0,0-.2.1-.3.1,0,0-.3-.2-.4-.2-.1,0,0,.3-.3,0-.2-.2-.3-.2-.3-.2,0,0-.2-.2,0,.4,0,0,0,0,0,0-.5-.7-.1.3-.3.2-.2-.1-.3,0-.4.1,0,0-.1-.1,0,.3,0,.1,0,.2,0,0-.4-.5-.3-.1-.4-.2-.2,0-.1.3-.4-.1-.1-.2-.3-.2,0,.3.1.2,0,0,0,.1,0,0,0,.3,0,.3,0,0-.2-.2-.2-.3,0,0,0,0,0,0,.2.7-.4,0-.4.2,0,.2-.2.3-.4.3-.1,0-.3-.1-.9-1.1-.3-.4-.6-.9-.7-1.2,0-.2-.2-.4-.2-.5,0-.1,0-.3,0-.4,0-.2-.2-.7,0-.6,0,0,0-.2.2.2,0,0,0,0,0,0-.3-.8.1-.4.3-.5,0-.1,0-.7.2-.6-.2-.6,0-.5,0-.4.6.5.6,0,.9-.1.3,0,.5-.3.8-.3,0,0,0-.4,0-.1.2.2.1,0,.2,0,0,0,0-.2.2,0,.5.5.5,0,.7,0,.2,0,.4,0,.6-.3,0-.1,0-.5.2-.4,0,0,0-.3.3.2,0,.1,0-.3,0-.3,0,0,.2,0,.2-.1.1,0,.3,0,.3-.2,0,0,0-.3,0-.4,0,0,.1-.1.2,0,.1,0,.3.2.4.2.1,0,.1-.3.3,0,.4.4.4.1.6.1.2,0,.4,0,.5-.2,0-.1.3.3.4.3,0,0,.6,1.4.7,1.9,0,0,0,.2,0,.2,0,.5.2,1.2,0,1.2-.2,0-.3,0-.4.1Z" fill="#fff"/>
  <path d="M407.6,354.2s0,0,0,0c0,0-.1-.2.1.3.1.2-.2-.3-.2-.3,0,0,0,0,0,0,0,0,0,.3.1.3,0,0-.1-.2,0,.1.1.3-.1-.2,0,0,0,.1,0,.2,0,0,0-.2-.2-.3-.2-.2,0,0,.2.4.1.3,0,0-.1-.3.1.3,0,0,0,0,0-.1-.2-.4-.2-.3,0,0,.1.2,0,.2,0,.2,0,0,0,0,0,0,0,0-.1-.2-.2-.3,0,0,0,.2,0,0-.1-.3-.1-.2-.2-.2,0,0-.1-.3.1.3,0,0,0,0,0,0-.4-.7,0,.2,0,0-.1-.2,0,0,0,0,0,0,0-.2.1.3,0,.1,0,.2,0,0-.3-.6-.1-.2-.2-.3,0-.1,0,.2-.2-.3,0-.2-.2-.3.1.2.1.2,0,0,0,0,0,0,.1.3.1.3,0,0-.1-.2-.2-.3,0,0,0,0,0,0,.3.6-.1-.2,0,0,0,.2,0,.1,0,0,0,0-.1-.2-.6-1.2-.2-.5-.5-1-.6-1.3-.1-.2-.2-.4-.2-.5,0,0,0-.2-.1-.3,0-.2-.3-.7-.2-.4,0,0,0-.2.1.3,0,0,0,0,0,0-.3-.7,0-.3,0-.3,0,0-.3-.6-.1-.4-.3-.6-.2-.5-.1-.3.3.6.2.2.2.2,0,0,0,0,.1,0,0,0-.1-.3,0,0,.1.2,0,0,0,0,0,0,0-.1,0,0,.3.6.2.2.2.3,0,0,.1,0,0,0,0,0-.2-.4,0-.3,0,0-.1-.3.2.3,0,.1-.1-.3-.1-.3,0,0,0,0,0,0,0,0,0,0,0,0,0,0-.1-.3-.1-.3,0,0,0,0,0,0,0,0,.1.2.2.3,0,0,0-.2,0,0,.2.4.2.2.2.2,0,0,0,0,0,0,0,0,.2.4.2.4,0,0,.7,1.3.9,1.8,0,0,0,.2.1.2.2.4.5,1.1.5,1,0,0,0,0,0,0Z" fill="#fff"/>
  <path d="M398.4,308s0,0,0,0c0,0-.2,0,.3.1.3,0-.4,0-.3,0,0,0,0,0,0,0,0,0,.3.1.3.2,0,0-.2,0,0,.1.3.1-.2,0-.1,0,.1,0,.2.1,0,0-.2,0-.4,0-.3,0,0,0,.4.1.3.1,0,0-.3,0,.3.1,0,0,0,0-.1,0-.4-.1-.4,0-.1,0,.3,0,.2,0,.2.1,0,0,0,0,0,0,0,0-.3,0-.3,0,0,0,.2.1,0,0-.3,0-.3,0-.3,0,0,0-.3,0,.3.1,0,0,0,0,0,0-.8-.2.2.1,0,0-.2,0,0,0,0,0,0,0-.2,0,.3.1.2,0,.2,0,0,0-.6-.2-.2,0-.4,0-.1,0,.1,0-.3,0-.2,0-.3,0,.2.1.3,0,0,0,0,0,0,0,.3.1.3.1,0,0-.2,0-.3,0,0,0,0,0,0,0,.6.2-.2,0,0,0,.2,0,0,0,0,.1,0,0-.2,0-1.3-.4-.5-.2-1-.3-1.3-.4-.2,0-.4-.2-.5-.2,0,0-.2,0-.3-.1-.2,0-.7-.3-.4-.2,0,0-.2,0,.3,0,0,0,.1,0,0,0-.7-.3-.2-.1-.3-.2,0,0-.6-.3-.4-.2-.6-.2-.5-.2-.3-.1.7.2.2,0,.3,0,.1,0,0-.1,0-.1,0,0-.3-.1,0,0,.3,0,0,0,0,0,0,0-.1,0,0,0,.6.2.3,0,.4,0,0,0,.2,0,0-.1,0,0-.4-.2-.3-.2,0,0-.3-.1.3,0,.2,0-.3-.1-.3-.1,0,0,0,0,0,0,0,0,0,0,0,0,0,0-.3-.1-.3-.1,0,0,0,0,0,0,0,0,.3,0,.3,0s-.2-.1,0,0c.5.1.3,0,.3,0,0,0,.1,0,0-.1,0,0,.4,0,.4,0,0,0,1.4.4,1.9.6,0,0,.2,0,.2,0,.4.2,1.1.4,1.1.4,0,0,0,0,0,0Z" fill="#fff"/>
  <path d="M316.4,227.8c-.4-.9-.7-1.7-1-2.6-.1-.3,0-.7-.6-.9-.3,0,.2-.6,0-.9-.3-.8-.5-1.7-.8-2.4-.3-.7-.8-1.4-1.1-2.1-.3-.7-.4-1.6-1-2.2-.5-.5-.3-1.3-.6-1.8-.4-.6-.7-1.2-.7-2,0-.5,0-1.1-.2-1.5-.2-.3-.6-.5-.6-.8,0-.3,0-.7-.6-.8,0,0,0-.2,0-.3.3-.4.1-.8-.2-1-.3-.2-.4-.4-.5-.6-.2-.6-.5-1.3-.6-1.9-.1-.5,0-1-.2-1.5-.1-.5-.6-.9-.5-1.4,0-.6-.1-.9-.3-1.3-.1-.2,0-.6-.7-.5,0,0,0,0,0-.1.3-1.1-1-1-1.2-1.7-.3-.7-.9-1.2-1.4-1.7-.1-.1-.2-.4-.6-.2-.2,0-.3,0-.3-.2,0-.8-.7-1-1.1-1.4-.4-.5-1.1-.6-1.4-1.4-.1-.3-.4-.6-1-.2-.3.2-.4-.2-.6-.3-.2,0-.5.1-.6,0-.1,0-.2-.3-.3-.5,0,0,0,0-.1,0-1.1.3-1.7-.8-2.6-.7-.9,0-1.8,0-2.7,0-.5,0-1-.1-1.6-1.2-.3-.5-.4-1-.2-1.4.1-.3.3-.5.5-.6.3-.2.7-.3,1.1-.5.7-.2,1.5-.8,2.3-.4.2.1.6-.2.7.4,0,0,.1.1.2,0,1.2-.6,2.2.1,3.2.4.9.2,1.9,0,2.7.7.7-.3,1.2,0,1.6.5,1.2,1.5,2.8,2.3,4.1,3.6,1.2,1.3,2.5,2.7,3.4,4.3.1.3.6.3.5.8,0,.4.3.7.5,1.1.2.3.4.6.4,1,0,1.5.8,2.6,1.1,3.9.4,1.3.7,2.5,1.2,3.7.3.7.9,1.3,1,2,0,.3.5.5,0,1-.1.1.4.3.5.5.2.5.4,1,.6,1.5.3.7.5,1.4.9,2.1.2.4.6.8.8,1.2.2.4.4.9.5,1.4.1.6.2,1.3.3,1.9.1.6.6,1.1.5,1.8-.1,1.2.5,2.1.8,3.2.3,1,.7,2,1.3,2.9.3.5.1,1.2.4,1.7.1.2-.9,1.3-1.4,1.5,0,0-.2,0-.3,0-.7-.3-1.7-.5-2-1.1-.4-1-.9-2-1.3-2.9Z"/>
  <g>
    <path d="M364.1,257.8c0-.1,0-.2-.2-.3,0,0,.2-.2-.3,0-.3,0,.3-.2.3-.2-.1,0,0-.2-.2-.3,0,0-.3-.1-.4-.2,0,0,.1-.3-.2-.3-.3,0,.1-.2,0-.3-.2,0-.3-.1,0-.3.1-.1.3-.3.2-.3,0,0-.4,0-.4,0,0,0,.2-.2-.4,0,0,0,0,0,.1,0,.4-.2.3-.2,0-.2-.3,0-.2,0-.3,0,0,0-.1-.2-.1-.3,0,0,.2-.2.2-.3,0,0-.3,0,0-.2.3-.2.2-.2.2-.3,0,0,.2-.2-.4,0,0,0,0,0,0,0,.7-.4-.3-.1-.2-.3.2-.2,0-.2,0-.3,0,0,.1-.1-.3,0-.2,0-.2,0,0,0,.6-.3.2-.3.2-.4,0-.1-.2-.1.2-.4.2-.1.3-.2-.3,0-.3,0,0,0,0,0,0,0-.3,0-.3,0,0,0,.2-.1.3-.2,0,0,0,0,0,0-.7.1,0-.4-.1-.4-.2,0-.1,0,0,0,0,0,.2-.1,1-.8.4-.3.8-.6,1.1-.8.2-.1.4-.2.5-.3.1,0,.3,0,.4,0,.2,0,.8-.1.6.2,0,0,.2,0-.2.3,0,0,0,0,0,0,.8,0,.4.2.5.3,0,0,.7,0,.5.2.6-.2.5,0,.4,0-.5.5,0,.5,0,.7,0,.2.2.4.2.6,0,0,.4,0,.1,0-.2.1,0,.1,0,.2,0,0,.2,0,0,.1-.5.4-.1.4-.1.6,0,.2,0,.4.2.5.1,0,.5,0,.4.2,0,0,.3,0-.2.2-.2,0,.3,0,.3,0,0,0,0,.1,0,.2,0,0,0,.2.1.3,0,0,.3,0,.4,0,0,0,.1.1,0,.2,0,.1-.2.3-.2.4,0,.1.3,0,0,.3-.4.3-.1.4-.1.5,0,.2,0,.3.2.4,0,0-.3.3-.3.4,0,0-.3.2-.7.3-.4.2-.9.4-1.1.4,0,0-.2,0-.2,0-.5,0-1.2.3-1.2.2,0-.2,0-.3-.1-.4Z"/>
    <g>
      <path d="M371,259.5c-.1,0-.2,0-.3,0,0,0,0-.2-.2.3,0,.3,0-.4,0-.4-.1,0-.2,0-.3,0-.1,0-.2.3-.3.3-.1,0-.2-.3-.3,0-.1.3-.1-.2-.2-.1,0,.1-.2.2-.2,0,0-.2,0-.4-.1-.3,0,0-.1.4-.2.4,0,0,0-.3-.1.3,0,0,0,0,0-.1,0-.4,0-.4-.1-.1,0,.3,0,.2-.1.2,0,0-.2,0-.2,0,0,0,0-.3-.2-.4,0,0-.2.2-.2,0,0-.3,0-.3-.1-.3,0,0,0-.3-.1.3,0,0,0,0,0,0,0-.8-.2.2-.3,0,0-.2-.2,0-.3,0,0,0,0-.2-.1.3,0,.2,0,.2,0,0,0-.6-.1-.3-.2-.4,0-.1-.2.2-.2-.3,0-.2,0-.3-.1.3,0,.3,0,0,0,0,0,0,0,.3,0,.3,0,0,0-.2,0-.3,0,0,0,0,0,0-.2.7-.2-.2-.4,0-.1.2-.3,0-.4,0,0,0-.1-.2-.1-1.4,0-.5,0-1.1,0-1.4,0-.2,0-.5,0-.5,0-.1,0-.2.1-.3,0-.2.2-.7.3-.4,0,0,0-.2,0,.3,0,0,0,.1,0,0,.2-.8.3-.3.4-.3.1,0,.2-.7.3-.4,0-.6.2-.5.2-.3.2.7.4.2.6.4.2.1.4,0,.6,0,0,0,0-.3.1,0,0,.3,0,0,.1,0,0,0,0-.1.1,0,.1.7.3.3.5.4.2,0,.3.2.5,0,.1,0,.3-.4.3-.3,0,0,.1-.3,0,.3,0,.2,0-.3.1-.3,0,0,.1,0,.2,0,0,0,.2,0,.3,0,0,0,.2-.3.2-.3,0,0,.1,0,.2,0,0,0,.1.3.2.4,0,0,.2-.2.2,0,0,.5.2.3.4.4.1,0,.3.1.4,0,0,0,0,.5.2.5,0,0,0,.4,0,.8,0,.4-.1.9-.2,1.2,0,0,0,.2,0,.2-.1.4-.3,1.2-.4,1.1-.1,0-.2,0-.4,0Z"/>
      <g>
        <path d="M362.1,228.6c-.4.3-.9.5-1.3.9-.1.1-.5,0-.3.6,0,.3-.4-.1-.6,0-.4.3-.8.5-1.2.8-.4.3-.6.8-1,1.1-.4.3-.9.3-1.1.9-.2.5-.7.2-1,.6-.3.3-.5.6-1,.7-.3,0-.7,0-.9.3-.1.2,0,.5-.2.6-.2,0-.5,0-.2.6,0,0-.1,0-.2,0-.4-.2-.6,0-.5.3,0,.3-.1.4-.2.5-.3.3-.6.5-1,.7-.3.1-.6.1-.9.2-.3.1-.4.6-.8.5-.4,0-.6.1-.9.3-.1,0-.5,0-.2.6,0,0,0,0,0,0-.9-.4-.6.8-1.1.9-.5.1-.8.5-1.2.8,0,0-.3,0-.1.5,0,.2,0,.3-.2.2-.7-.3-.7.3-1.1.4-.4.2-.6.6-1.2.5-.3,0-.5,0-.3.6,0,.3-.2.2-.3.3,0,.1,0,.4,0,.5,0,0-.3,0-.5,0,0,0,0,0,0,0,0,.9-1.1.6-1.5,1.1-.4.5-.9.9-1.5,1.2-.3.2-.7.3-1.6-.5-.4-.3-.8-.8-.8-1.1,0-.3-.1-.5,0-.6,0-.2.2-.4.3-.6.2-.4.2-1.1.7-1.1.2,0,0-.3.5,0,0,0,.1,0,.1,0,0-1,.7-.9,1.1-1.3.3-.3.3-1.1.9-1.2-.2-.7.1-.8.5-.8,1.2,0,1.6-1,2.5-1.5.8-.5,1.6-1.2,2.4-1.7.1,0,0-.5.4-.4.3.1.4-.2.5-.3.2-.1.2-.3.5-.3,1,0,1.4-.7,2-1.1.7-.4,1.3-.8,1.8-1.3.3-.3.5-.9.9-1.1.2,0,.2-.5.7,0,.1.1,0-.4.1-.5.2-.2.5-.4.8-.6.4-.3.8-.5,1.1-.8.2-.2.3-.5.5-.7.2-.2.4-.4.7-.5.3-.1.8-.2,1.1-.3.3-.2.5-.6,1-.6.8,0,1.2-.5,1.8-.8.6-.3,1.1-.6,1.6-1.1.3-.3.8,0,1.1-.2.1,0,1.1,1,1.3,1.5,0,0,0,.2,0,.2,0,.6,0,1.4-.3,1.5-.5.3-1,.6-1.5,1Z"/>
        <path d="M380.5,223.3c-.3,0-.6.1-.9.2-.1,0-.3-.2-.3.4,0,.3-.3-.3-.4-.3-.3.1-.6.1-.9.2-.3.1-.5.4-.8.5-.3.1-.6,0-.8.3-.2.3-.5-.1-.7,0-.2.2-.4.3-.7.2-.2-.1-.4-.3-.6-.1,0,0-.1.4-.2.4-.1,0-.3-.2-.2.4,0,0,0,0-.1-.1-.2-.4-.4-.3-.4,0,0,.3-.1.3-.2.3-.2,0-.5.2-.7.2-.2,0-.4-.2-.6-.2-.2,0-.3.3-.6,0-.3-.2-.4-.2-.6-.1,0,0-.3-.2-.2.4,0,0,0,0,0,0-.5-.7-.5.4-.8.3-.3-.1-.6.1-.9.2,0,0-.2-.1-.1.3,0,.2,0,.2-.1.1-.4-.5-.5-.1-.8-.1-.3,0-.4.3-.8,0-.2-.2-.3-.2-.3.4,0,.3-.2,0-.3.1,0,0,0,.4-.1.4,0,0-.2-.2-.3-.3,0,0,0,0,0,0-.2.7-.8,0-1.1.3-.3.3-.7.3-1.1.4-.2,0-.5,0-1-1.1-.2-.5-.4-1-.4-1.3,0-.2,0-.5,0-.6,0-.1.2-.3.2-.4.2-.3.2-.8.6-.7.1,0,.1-.3.3.2,0,0,0,0,0,0,0-.9.6-.5.9-.6.3-.1.4-.8.7-.7,0-.7.2-.6.4-.5.8.5,1.2-.1,1.8-.2.6,0,1.2-.3,1.7-.5.1,0,0-.4.3-.2.2.2.3,0,.4,0,.1,0,.2-.2.4,0,.6.5,1,0,1.5,0,.5,0,.9-.1,1.4-.4.3-.2.4-.6.8-.5.1,0,.2-.3.4.2,0,.2,0-.3.1-.4.2,0,.4-.1.6-.2.3,0,.5,0,.8-.2.2,0,.3-.4.4-.5.2-.1.3-.1.5-.1.2,0,.5.2.7.2.2,0,.4-.3.7,0,.5.4.9,0,1.3,0,.4,0,.8,0,1.2-.3.2-.1.5.3.7.3.1,0,.5,1.4.6,1.9,0,0,0,.2,0,.2-.1.5-.2,1.3-.4,1.3-.4,0-.7.1-1.1.2Z"/>
        <path d="M379.4,228.3c0-.1,0-.3,0-.4,0,0,.2-.1-.3-.1-.3,0,.4,0,.3-.1,0-.1,0-.2,0-.4,0-.1-.3-.2-.4-.3,0-.1.2-.2-.1-.3-.3,0,.2-.2,0-.3-.1,0-.2-.2,0-.3.2,0,.4-.2.3-.2,0,0-.4,0-.4-.1,0,0,.3-.1-.3-.1,0,0,0,0,.1,0,.4,0,.4-.1,0-.1-.3,0-.2,0-.3,0,0,0,0-.2,0-.3,0,0,.3-.2.3-.2,0,0-.2-.1,0-.2.3,0,.3-.1.3-.2,0,0,.3,0-.4-.1,0,0,0,0,0,0,.8-.1-.3-.2,0-.3.2-.1,0-.2,0-.4,0,0,.2,0-.3,0-.2,0-.2,0,0,0,.6-.1.2-.2.3-.3.1-.1-.2-.2.3-.3.2,0,.3-.1-.3-.1-.3,0,0,0,0-.1,0,0-.3,0-.3,0,0,0,.2,0,.3,0,0,0,0,0,0,0-.7-.1.2-.3,0-.4-.2-.1-.1-.3,0-.5,0,0,.2-.2,1.4-.3.5,0,1.1,0,1.4,0,.2,0,.5,0,.5,0,0,0,.2,0,.3.1.2,0,.7.2.5.3,0,0,.2,0-.3.1,0,0-.1,0,0,0,.8.1.3.3.3.4,0,.1.7.2.4.3.6,0,.5.1.3.2-.7.3-.2.5-.3.7,0,.2,0,.5,0,.7,0,0,.4,0,0,.1-.3,0,0,.1,0,.2,0,0,.1,0,0,.1-.7.2-.2.4-.3.6,0,.2-.1.4,0,.5.1.1.5.2.3.3,0,0,.3,0-.3.2-.2,0,.3,0,.3,0,0,0,0,.2,0,.2,0,.1,0,.2,0,.3,0,0,.3.1.4.2,0,0,0,.1,0,.2,0,0-.3.2-.3.3,0,0,.2.2,0,.3-.5.2-.2.3-.3.5,0,.2,0,.3,0,.5,0,0-.4.2-.4.3,0,0-1.5.2-2,.2,0,0-.2,0-.2,0-.5,0-1.2-.1-1.2-.2,0-.1,0-.3,0-.4Z"/>
        <path d="M367.6,233.2c.2-.1.5-.2.7-.3,0,0,.3.1.1-.4,0-.3.3.3.4.2.2-.2.4-.2.6-.3.2-.2.3-.5.5-.6.2-.2.5,0,.6-.4,0-.3.4,0,.5-.1.1-.2.3-.4.5-.2.2,0,.4.2.5,0,0,0,0-.4,0-.4,0,0,.3.2,0-.4,0,0,0,0,.1.1.3.3.4.3.3,0,0-.3,0-.3,0-.3.2-.1.3-.2.5-.2.2,0,.4.1.5.1.2,0,.2-.3.4-.1.3.2.4.1.5,0,0,0,.3.2,0-.4,0,0,0,0,0,0,.6.7.3-.4.6-.3.3,0,.5-.1.7-.3,0,0,.2.1,0-.3,0-.2,0-.2,0-.1.4.5.4,0,.6,0,.2,0,.3-.3.7,0,.2.1.3.2.2-.4,0-.3.1,0,.2-.2,0,0,0-.3,0-.4,0,0,.2.2.3.2,0,0,0,0,0,0,0-.7.6,0,.8-.3.2-.3.5-.4.8-.4.2,0,.4,0,1,1.1.3.4.5.9.6,1.3,0,.2,0,.5,0,.5,0,.1,0,.3-.1.4,0,.3,0,.8-.3.7,0,0,0,.3-.3-.2,0,0,0,0,0,0,0,.8-.4.5-.6.6-.2.1-.1.8-.4.7.2.6,0,.6-.2.5-.7-.4-.9.2-1.4.3-.5.1-.8.4-1.3.6,0,0,0,.4-.2.2-.2-.2-.2,0-.3,0,0,0-.1.2-.3,0-.6-.4-.8,0-1.1.2-.4,0-.7.2-1,.5-.2.2-.2.6-.5.6-.1,0,0,.3-.4-.2,0-.1,0,.3,0,.4-.1.1-.3.1-.4.2-.2,0-.4.1-.6.3-.1,0-.1.4-.2.5,0,.1-.2.2-.4.2-.2,0-.4-.1-.6,0-.2,0-.2.3-.5.2-.5-.3-.7,0-1,.1-.3,0-.6.2-.8.4-.1.1-.5-.2-.6-.2,0,0-.8-1.3-1-1.7,0,0,0-.2,0-.2,0-.5-.2-1.2,0-1.3.3,0,.5-.2.8-.4Z"/>
        <path d="M374.5,239.6c-.1,0-.3-.2-.4-.2,0,0,0-.3-.3.2-.1.2,0-.4,0-.4-.2,0-.3-.1-.4-.1-.2,0-.4.1-.5.1-.2,0-.2-.3-.4,0-.2.2-.1-.3-.3-.2-.2,0-.3.1-.3-.2,0-.2,0-.4-.1-.4,0,0-.2.3-.3.3,0,0,0-.3-.3.3,0,0,0,0,0-.2,0-.4,0-.4-.1-.2-.1.2-.2.2-.2.2-.1,0-.2,0-.3-.1,0,0,0-.3-.1-.4,0,0-.2.2-.2-.2,0-.3,0-.3-.1-.3,0,0,0-.3-.2.3,0,0,0,0,0,0,.1-.8-.3.2-.4,0,0-.2-.2-.1-.4-.1,0,0,0-.2-.2.2,0,.2,0,.2,0,0,0-.6-.1-.3-.2-.4,0-.1-.3.1-.3-.4,0-.2,0-.3-.2.2,0,.3,0,0-.1,0,0,0-.1.3-.2.3,0,0,0-.2,0-.3,0,0,0,0,0,0-.3.6-.3-.3-.5-.1-.2.2-.3,0-.5,0,0,0-.2-.2-.2-1.4,0-.5,0-1.1,0-1.4,0-.2,0-.5.1-.5,0,0,.1-.2.2-.3.2-.2.4-.7.5-.4,0,0,.1-.2.1.3,0,0,0,.1,0,0,.3-.8.4-.2.6-.2.2,0,.4-.6.6-.3.2-.6.3-.5.4-.3.2.7.6.4.9.5.3.2.6.2.9.3,0,0,.2-.3.2,0,0,.3.1,0,.2.1,0,0,.2,0,.2,0,0,.7.4.4.6.6.2.2.4.3.7.2.2,0,.4-.3.5-.1,0,0,.2-.2,0,.4,0,.2.2-.2.2-.2.1,0,.2,0,.3.1.1,0,.2.1.4.2,0,0,.3-.2.4-.2.1,0,.2,0,.3.1,0,.1,0,.4.2.5,0,.1.3,0,.3.2,0,.6.3.4.4.5.2.1.3.3.6.2.1,0,0,.5.1.5,0,0-.5,1.4-.8,1.8,0,0,0,.2-.1.2-.3.4-.7,1-.8.9-.1-.1-.3-.2-.5-.2Z"/>
        <path d="M373.1,244.1c0-.1,0-.2,0-.3,0,0,.3,0-.3-.2-.3,0,.4,0,.4,0,0-.1,0-.2,0-.3,0-.1-.2-.3-.3-.4,0-.1.3-.2,0-.3-.3-.1.2-.1.1-.2-.1-.1-.2-.2,0-.3.2,0,.4,0,.3-.2,0,0-.4-.1-.3-.2,0,0,.3,0-.3-.2,0,0,0,0,.1,0,.4,0,.4,0,.1-.1-.3,0-.2,0-.2-.1,0,0,0-.2,0-.3,0,0,.3-.1.4-.2,0,0-.2-.2.1-.2.3,0,.3,0,.3-.2,0,0,.3,0-.3-.1,0,0,0,0,0,0,.8,0-.2-.2,0-.3.2,0,0-.2,0-.3,0,0,.2,0-.3-.1-.2,0-.2,0,0,0,.6,0,.3-.1.4-.2.1,0-.2-.2.3-.3.2,0,.3,0-.3-.2-.3,0,0,0,0-.1,0,0-.3,0-.3,0,0,0,.2,0,.3,0,0,0,0,0,0,0-.7-.2.2-.3,0-.4-.2-.1,0-.3,0-.4,0,0,.2-.1,1.4-.2.5,0,1.1,0,1.4,0,.2,0,.5,0,.5,0,.1,0,.2.1.3.1.2.1.7.2.4.3,0,0,.2,0-.3,0,0,0-.1,0,0,0,.8.2.3.3.3.4,0,.1.7.3.4.4.6,0,.5.2.3.2-.7.2-.2.5-.4.7-.1.2,0,.5,0,.7,0,0,.3.1,0,.1-.3,0,0,0,0,.1,0,0,.1.1,0,.1-.7.1-.3.3-.4.5,0,.2-.2.4,0,.6,0,.1.4.3.3.4,0,0,.3.1-.3.1-.2,0,.3,0,.3.1,0,0,0,.2,0,.2,0,.1,0,.2,0,.3,0,0,.3.2.3.2,0,0,0,.1,0,.2,0,0-.3.1-.4.2,0,0,.2.2-.1.3-.5,0-.3.3-.4.4,0,.1-.2.3,0,.5,0,.1-.5,0-.5.2,0,0-1.5-.2-2-.3,0,0-.2,0-.2,0-.4-.2-1.1-.4-1.1-.5,0-.1,0-.3,0-.4Z"/>
        <path d="M360.1,251.7c.2-.4.3-.8.3-1.2,0-.1.3-.3-.3-.4-.3,0,.4-.2.3-.4,0,0,0-.2,0-.3,0,0,0-.2-.1-.3,0-.1,0-.2-.2-.3-.4-.4-1.1-1-1.8-1.6-.4-.4-.9-.7-1.5-1.1.3-.2.5-.4.6-.5,0,0,0-.1.1-.2,0,0,.2-.1.4-.2.9-.3,2.2-.4,2.8-.9.3-.2.8-.3,1.2-.4.4,0,.8,0,1.2-.2.5-.2.6-.3.8-.4.2,0,.5-.1.7,0,.4,0,.7.2,1,0,.2-.1.3-.5.5-.5.1,0,.2,0,.3,0,0,0,0-.1,0-.4,0,0,0,0,0,.1.2.4.3.3.1,0-.2-.2-.2-.2-.2-.2,0,0,0,0,0,0,0,0,.3,0,.3-.1,0-.3-.3-.7,0-1,.3-.3.2-.7.2-1,0-.2.3-.4-.4-.5,0,0,0,0,0-.1.8-.6-.3-1.1-.2-1.5.2-.1,0-.3,0-.3,0,0,.2-.2-.3.2-.2.1-.2.2,0,0,.1-.1.2-.2.3-.3.1-.2-.1,0,0,0,0,0,0,0-.1,0,0,0,0,0-.1-.3,0-.2-.4-.3-.6.3,0,.3-.4,0-.5.1-.1,0-.3.3-.4.4-.1,0-.3-.2-.4-.3,0,0,0,0-.1,0-.6.7-1.3,0-2,.2-.6.3-1.4.4-2.1.4-.4,0-.8,0-1.3-1.1-.2-.5-.3-1-.2-1.4,0-.3.2-.5.3-.6.2-.1.4-.3.6-.5.4-.3.8-.9,1.3-.7.2,0,.3-.3.5.2,0,0,0,0,.1,0,.5-.9,1.3-.5,2-.6.6-.1,1.1-.8,1.7-.6.1-.3.3-.5.4-.5,0,0,.1,0,.3,0,.2,0,.3,0,.5,0,1.5.4,2.9,0,4.5-.1,0,.5.1,1,.1,1.6,0,1.1,0,2,.2,3.1v1c0,0,.1.9.1.9,0,.2.4.3.1.6-.2.2,0,.5,0,.7,0,.2.2.5,0,.7-.3.5-.3.8-.3,1.6,0,.7.2,1.5-.1,2.1-.1.3-.4.6-.6.8-.3.2-.5.3-.9.5-.3.1-.7.2-1,.3l-.5.2c-.2,0-.2,0-.3.2-.5.2-.9.7-1.4.8-.2,0-.4.4-.8,0-.1-.1-.2.4-.3.4h-.1c0,0,0,0,0,0,0,0,0,0,0,0h0c0,0-.2,0-.2.1,0,0,.3.2.4.3.1,0,0,0,0,0h0c0,0-.3,0-.3,0,0,0,0,0,0,0,0,0,0,0,0,0v.2c.2.3.2.6,0,.9-.4,1.1-.4,2.1-.7,3-.4.9-.9,1.7-1.3,2.4-.2.5-.9.5-1.2.8-.1.2-1.4-.6-1.8-1,0,0-.1-.2-.1-.2,0-.6-.5-1.3-.2-1.6.4-.4.6-1,.9-1.4Z"/>
        <path d="M366.4,252.8c0,0-.2-.1-.3-.1,0,0,0-.3-.2.2-.1.2.1-.4,0-.3-.1,0-.2-.1-.3-.1-.1,0-.3.2-.4.2-.1,0,0-.3-.3,0-.2.2,0-.3-.1-.2-.1,0-.3,0-.2-.2,0-.2.1-.4,0-.3,0,0-.3.3-.3.2,0,0,.1-.3-.3.2,0,0,0,0,0-.1.2-.4.1-.4,0-.2-.2.2-.2.2-.2.1,0,0-.2,0-.2-.2,0,0,0-.3,0-.4,0,0-.2,0-.1-.2.1-.3,0-.3,0-.3,0,0,.1-.3-.3.2,0,0,0,0,0,0,.5-.7-.3,0-.3-.1,0-.2-.1-.2-.2-.2,0,0,0-.2-.2.2-.1.1-.1.1,0,0,.4-.5,0-.3,0-.4,0-.1-.2,0,0-.4.1-.2.2-.3-.3,0-.2.2,0,0-.1,0,0,0-.3.2-.3.2,0,0,.1-.2.2-.3,0,0,0,0,0,0-.6.4,0-.3-.2-.3-.2,0-.3-.1-.3-.3,0,0,0-.3.9-1.1.4-.4.8-.7,1.1-.9.2-.1.4-.3.4-.3,0,0,.2-.1.3-.1.2,0,.6-.4.5-.2,0,0,.2-.1-.2.2,0,0,0,0,0,0,.6-.5.3,0,.4,0,0,0,.6-.4.4-.1.5-.4.4-.3.3-.1-.4.6,0,.4,0,.5,0,.2.2.2.3.3,0,0,.3-.2.1,0-.1.2,0,0,0,.1,0,0,.1,0,0,0-.3.6,0,.3,0,.5,0,.1.1.2.3.2.1,0,.4-.3.3-.1,0,0,.2-.2,0,.3,0,.1.2-.2.2-.2,0,0,0,0,.1,0,0,0,0,.1.2,0,0,0,.2-.2.3-.2,0,0,.1,0,.1,0,0,0,0,.3,0,.4,0,0,.2-.1.1.1-.2.5,0,.3.1.4,0,0,.1.2.3.1,0,0,0,.4,0,.5,0,0,0,0,0,.2,0,.1-.1.3-.2.5-.2.4-.4.9-.5,1.1,0,0,0,.2-.1.2-.2.4-.6,1-.7,1,0-.1-.2-.1-.3-.2Z"/>
        <path d="M376.7,247.5c-.1.1-.3.3-.3.4,0,0-.3,0,0,.4.2.2-.3-.2-.4-.1,0,.2-.3.2-.3.4,0,.2,0,.4-.1.6,0,.2-.4,0-.3.4,0,.3-.4,0-.4.2,0,.2,0,.4-.4.3-.2,0-.4-.2-.4,0,0,0,.1.4,0,.4,0,0-.3-.1,0,.4,0,0,0,0-.1,0-.3-.3-.4-.2-.2,0,.1.3,0,.3,0,.3,0,.1-.2.2-.4.3-.1,0-.3-.1-.5,0-.1,0,0,.3-.3.1-.3-.2-.3-.1-.4,0,0,0-.3-.2,0,.4,0,0,0,0,0,0-.6-.6-.2.4-.4.3-.3,0-.3.1-.5.2,0,0-.2-.1,0,.3,0,.2,0,.2,0,0-.4-.5-.4,0-.5-.1-.2,0-.2.3-.6,0-.1-.2-.3-.2,0,.3,0,.3-.1,0-.1.1,0,0,0,.3,0,.4,0,0-.2-.2-.2-.3,0,0,0,0,0,0,0,.7-.5,0-.6.2-.1.3-.4.3-.6.2-.1,0-.3-.1-.7-1.2-.2-.5-.3-1-.4-1.3,0-.2,0-.5,0-.5,0-.1,0-.3,0-.4,0-.2,0-.8.2-.5,0,0,0-.2.2.2,0,0,0,0,0,0-.1-.8.2-.4.3-.5.1-.1,0-.7.2-.5-.2-.6,0-.5,0-.4.5.5.6,0,.8,0,.3,0,.5-.3.7-.4,0,0-.1-.3,0-.1.2.2.1,0,.2,0,0,0,0-.2.1,0,.5.4.5,0,.7,0,.2,0,.4-.1.5-.4,0-.2,0-.5.1-.5,0,0,0-.3.3.1.1.1-.1-.3-.1-.3,0,0,.1-.1.2-.2,0,0,.2-.1.3-.3,0,0,0-.3,0-.4,0,0,0-.2.2-.2.1,0,.3,0,.5,0,.1,0,0-.3.3-.2.5.2.4-.1.6-.2.2-.1.3-.2.3-.4,0-.1.5.1.5,0,0,0,1.3.8,1.7,1.1,0,0,.2.1.2.2.3.4.8.9.7,1-.2.1-.3.3-.4.5Z"/>
        <path d="M377.4,250.7c0-.1,0-.2-.2-.3,0,0,.2-.2-.3,0-.2.1.3-.2.3-.2-.1,0,0-.2-.2-.3-.1,0-.3,0-.5-.1-.1,0,.1-.3-.2-.2-.3,0,.1-.2,0-.3-.2,0-.3,0-.1-.2.1-.1.3-.3.1-.3,0,0-.4.1-.4,0,0,0,.2-.2-.3,0,0,0,0,0,.1-.1.3-.3.3-.3,0-.2-.2.1-.2,0-.3,0,0,0-.1-.1-.1-.2,0,0,.2-.3.2-.4,0,0-.3,0,0-.2.2-.2.2-.3.1-.3,0,0,.2-.2-.3.1,0,0,0,0,0,0,.6-.6-.3,0-.2-.2.1-.2,0-.2-.2-.3,0,0,.1-.2-.3.1-.1,0-.2,0,0,0,.4-.4,0-.3.1-.4,0-.1-.2,0,0-.4.1-.2.2-.3-.3,0-.2.2,0,0-.1,0,0,0-.3.2-.3.2,0,0,.1-.2.2-.3,0,0,0,0,0,0-.6.3,0-.3-.2-.3-.2,0-.3-.1-.3-.3,0,0,0-.3.9-1.1.4-.4.8-.7,1-.9.2-.1.4-.3.4-.3.1,0,.2,0,.3-.1.2,0,.7-.3.5,0,0,0,.2,0-.2.3,0,0,0,0,0,0,.7-.4.4,0,.5.1.1,0,.7-.3.5,0,.5-.4.5-.2.4,0-.4.6.1.5.2.8,0,.3.3.4.4.6,0,0,.3-.1.1,0-.2.2,0,.1,0,.2,0,0,.2,0,0,.1-.4.5,0,.5,0,.7,0,.2,0,.4.3.5.1,0,.5,0,.5.1,0,0,.3,0-.2.3-.1,0,.3,0,.3,0,0,0,0,.1.1.2,0,0,0,.2.2.3,0,0,.3,0,.4,0,0,0,.1,0,.1.2,0,.1-.2.3-.2.4,0,.1.3,0,0,.3-.4.4,0,.4,0,.6,0,.2,0,.3.2.4.1,0-.3.3-.3.4,0,0-1.3.7-1.8.9,0,0-.2,0-.2,0-.5.1-1.1.4-1.1.3,0-.1,0-.2-.2-.4Z"/>
        <path d="M381,252.2c-.1.2-.3.3-.4.5,0,0-.3,0,0,.4.2.2-.4-.2-.4,0,0,.2-.3.3-.3.4,0,.2,0,.5,0,.6,0,.2-.4.1-.3.5.1.3-.4,0-.4.2,0,.2,0,.4-.3.3-.2,0-.4-.1-.4,0,0,0,.2.4.1.4,0,0-.3-.1,0,.4,0,0,0,0-.1,0-.3-.2-.4-.2-.2,0,.2.2,0,.2,0,.3,0,.1-.2.3-.3.3-.1,0-.4,0-.5,0-.1,0,0,.3-.3.2-.3-.1-.4,0-.4,0,0,0-.3-.1.1.4,0,0,0,0,0,0-.7-.5,0,.4-.3.4-.3,0-.3.2-.4.3,0,0-.2,0,0,.3,0,.1,0,.2,0,.1-.5-.4-.4,0-.5,0-.2,0-.1.3-.6,0-.2-.1-.3-.1,0,.4.1.2,0,0,0,.2,0,0,.1.3,0,.3,0,0-.2-.1-.3-.2,0,0,0,0,0,0,.2.7-.5.1-.6.4,0,.3-.3.4-.5.4-.1,0-.4,0-1.1-.9-.3-.4-.7-.8-.8-1.1-.1-.2-.2-.4-.2-.5,0-.1,0-.3,0-.4,0-.2-.2-.7,0-.6,0,0,0-.2.3.2,0,0,0,0,0,0-.3-.7.1-.4.2-.6,0-.1-.2-.7.1-.6-.3-.5-.2-.5,0-.4.7.3.6-.2.9-.4.3-.1.5-.4.7-.6,0,0-.2-.3,0-.2.2.1.1,0,.2-.1,0,0,0-.2.2-.1.6.3.5-.2.8-.3.2-.1.5-.3.5-.6,0-.2-.1-.5,0-.6,0,0-.1-.3.4,0,.1.1-.2-.3-.1-.3,0-.1.1-.2.2-.2.1-.1.2-.2.3-.3,0,0,0-.3,0-.4,0-.1,0-.2.2-.2.1,0,.4,0,.5,0,.1,0,0-.3.3-.2.5.2.5-.2.7-.3.2-.1.4-.3.4-.5,0-.1.5,0,.6,0,0,0,1.2.8,1.6,1.1,0,0,.1.1.2.2.3.4.8.9.7,1-.2.1-.3.3-.4.5Z"/>
      </g>
    </g>
  </g>
  <path d="M330.5,285.7l-2.8.9c-.3.1-.8,0-1,.6-.1.3-.6-.2-.9-.1-.9.3-1.8.4-2.7.6-.4,0-.9.2-1.3.3-.5.1-.9.2-1.4.3-.5,0-.9,0-1.4,0-.5,0-.9,0-1.4,0-.8.2-1.5-.4-2.2-.5-.8,0-1.6-.2-2.3-.7-.5-.3-.9-.7-1.4-.9-.3,0-.8,0-1.1,0-.3-.2-.5-.6-1.1-.2,0,0-.1-.1-.2-.3-.1-.5-.5-.7-.9-.6-.4,0-.6,0-.9-.2-.7-.4-1.3-.7-1.9-1.2-.4-.3-.8-.9-1.2-1.2-.4-.4-1.1-.5-1.4-1.1-.2-.6-.7-.9-1.1-1.2-.2-.2-.3-.6-.9-.3,0,0-.1,0-.1-.1-.1-1.2-1.5-.9-2-1.6-.5-.7-1.3-1.2-2-1.8-.2-.2-.2-.5-.7-.3-.2,0-.4-.1-.4-.3,0-.9-.8-1.1-1.2-1.7-.4-.7-1.2-1-1.4-2,0-.4-.3-.8-1-.7-.3,0-.4-.4-.6-.6-.2-.2-.5-.2-.7-.3-.1-.2,0-.5-.1-.7,0,0,0-.1-.1-.2-1.2-.5-1.2-2-2-2.9-.8-.9-1.4-2.2-1.7-3.6-.2-.8-.1-1.7,1-2.2.5-.2,1.1-.2,1.4,0,.2.2.5.3.6.5.1.3.3.5.5.8.4.5,1.1.8,1.1,1.5,0,.2.4.3,0,.7,0,0,0,.2,0,.2,1.1.3,1.3,1.4,1.9,2.2.5.6,1.5.9,1.8,1.7.8,0,1,.4,1.2.9.6,1.7,2,2.5,3.1,3.7,1.1,1.2,2.4,2.2,3.7,3.3.2.2.6,0,.7.5,0,.4.5.5.8.7.3.2.6.3.8.6.7,1.3,2,1.7,3,2.5,1,.7,2.1,1.4,3.3,1.8.7.2,1.5.2,2.2.6.3.2.7,0,.8.6,0,.2.4-.2.6-.1.5,0,1,.2,1.4.3.7.1,1.4.2,2,.2.4,0,.8-.3,1.2-.4.4,0,.9-.1,1.3-.1.6,0,1.2.1,1.7.1.6,0,1.2-.4,1.8-.3,1.2.2,2.2-.3,3.2-.7,1.1-.3,2.1-.7,3.1-1.2.6-.3,1.3,0,1.9-.4.3-.1,1.2,1.1,1.3,1.6,0,0,0,.2,0,.3-.4.7-.6,1.6-1.3,1.8-1,.4-2,.8-3,1.2Z"/>
  <path d="M372.5,209.6c0-.2-.1-.4-.2-.5,0,0,.2-.2-.4,0-.3,0,.3-.2.3-.3-.1-.1-.1-.3-.2-.5-.1-.1-.4-.2-.5-.4-.1-.1.1-.4-.2-.5-.3,0,.1-.3,0-.4-.2-.1-.3-.2,0-.4.1-.1.3-.3.2-.4,0,0-.4,0-.4,0,0,0,.2-.2-.4-.1,0,0,0,0,.1,0,.4-.2.3-.2,0-.2-.3,0-.3,0-.3,0,0-.1-.1-.3,0-.4,0-.1.2-.3.3-.4,0-.1-.3-.2,0-.4.3-.2.2-.3.2-.4,0,0,.3-.2-.4-.1,0,0,0,0,0,0,.8-.3-.3-.3-.1-.5.2-.2,0-.4,0-.5,0,0,.2-.1-.3-.1-.2,0-.2,0,0,0,.6-.2.2-.3.3-.4.1-.2-.2-.3.3-.5.2,0,.3-.2-.3-.2-.3,0,0-.1,0-.2,0,0-.3,0-.3-.1,0,0,.2,0,.3-.1,0,0,0,0,0,0-.7-.2.2-.5,0-.7-.2-.2-.1-.5,0-.7,0-.1.2-.3,1.4-.4.5,0,1.1,0,1.4,0,.2,0,.5,0,.5.1.1,0,.2.1.3.2.2.1.7.2.5.4,0,0,.2,0-.3.1,0,0-.1,0,0,0,.8.1.3.3.4.5,0,.1.7.2.4.4.6,0,.5.1.4.2-.6.4-.2.6-.2.9,0,.3,0,.6.1.9,0,0,.4,0,.1.1-.2.1,0,.1,0,.2,0,0,.2,0,0,.2-.6.4-.2.5-.2.8,0,.2,0,.5.2.7.1.1.5.2.4.3,0,0,.3,0-.2.3-.2,0,.3,0,.3,0,0,0,0,.2,0,.3,0,.1,0,.3.1.4,0,0,.3,0,.4.1,0,0,.1.1,0,.2,0,.1-.2.3-.2.4,0,.1.3.1,0,.3-.4.4,0,.5,0,.7,0,.2,0,.4.3.5.1,0-.3.4-.3.5,0,0-1.3.7-1.7.9,0,0-.2,0-.2,0-.5,0-1.2.3-1.2.1,0-.2-.2-.4-.2-.6Z" fill="#00b4e9"/>
  <path d="M394.3,202.2c-.1.1-.3.2-.4.4,0,0-.3,0,0,.4.2.2-.3-.2-.4-.1,0,.2-.3.2-.4.4,0,.2,0,.5-.1.6,0,.2-.4.1-.3.4.1.3-.3,0-.4.2,0,.2,0,.4-.3.3-.2,0-.4,0-.4,0,0,0,.2.3.2.4,0,0-.3,0,.1.4,0,0,0,0-.1,0-.4-.2-.4-.1-.2.1.2.2.1.2,0,.3,0,.1-.1.3-.3.4-.1,0-.4,0-.5,0-.1,0,0,.3-.3.2-.3,0-.4,0-.4.1,0,0-.3,0,.2.3,0,0,0,0,0,0-.8-.3,0,.4-.2.5-.3,0-.3.3-.3.4,0,0-.2,0,.2.3.1,0,.1.1,0,.1-.6-.2-.4.1-.5.2-.2,0,0,.4-.5.3-.2,0-.4,0,.1.3.2.2,0,.1,0,.2,0,0,.2.2.2.3,0,0-.2,0-.4,0,0,0,0,0,0,0,.5.5-.4.3-.3.6,0,.3-.1.5-.3.6,0,0-.3.1-1.4-.2-.5-.2-1-.4-1.3-.6-.2-.1-.4-.3-.4-.3,0-.1-.1-.2-.2-.4-.1-.2-.5-.6-.2-.7.1,0-.1-.2.3,0,0,0,.1,0,0,0-.6-.6,0-.6,0-.8,0-.2-.4-.7,0-.7-.5-.4-.3-.5-.1-.5.8,0,.6-.6.9-.9.3-.3.4-.7.7-1,0,0-.2-.3,0-.2.3,0,.1-.1.2-.2,0,0,0-.2.2-.2.7.1.6-.4.8-.6.3-.2.5-.4.6-.8,0-.2,0-.6.1-.7,0,0-.1-.3.4,0,.1,0-.1-.3-.1-.3,0-.1.2-.2.3-.3.1-.1.3-.3.4-.4,0-.1,0-.4,0-.5,0-.1.1-.2.3-.3.2,0,.4,0,.6,0,.2,0,0-.4.4-.3.6.2.6-.2.8-.4.2-.1.5-.3.6-.6,0-.2.5.1.6,0,0,0,1.1,1,1.4,1.4,0,0,.1.2.1.2.2.4.6,1.1.4,1.1-.2,0-.4.3-.5.4Z" fill="#00b4e9"/>
  <path d="M406.2,218.2c-.2,0-.3,0-.5,0,0,0-.1-.2-.2.3,0,.3-.1-.4-.2-.3-.1,0-.3,0-.4,0-.1,0-.3.3-.4.4-.1,0-.3-.2-.4.1,0,.3-.3-.2-.4,0,0,.1-.2.2-.4,0-.1-.2-.2-.3-.3-.2,0,0,0,.4,0,.4,0,0-.2-.3,0,.4,0,0,0,0,0-.1-.1-.4-.2-.3-.2,0,0,.3,0,.3,0,.3-.1,0-.2.1-.3,0,0,0-.2-.2-.4-.3-.1,0-.1.3-.3,0-.2-.3-.3-.2-.3-.2,0,0-.2-.2,0,.4,0,0,0,0,0,0-.4-.7-.2.3-.4.2-.2-.1-.3,0-.4.1,0,0-.1-.1,0,.3,0,.2,0,.2,0,0-.3-.5-.3-.1-.4-.2-.2,0-.2.3-.5-.1-.1-.2-.3-.2,0,.3,0,.3,0,0,0,.1,0,0,0,.3,0,.3,0,0-.2-.2-.2-.3,0,0,0,0,0,0,.1.7-.4,0-.5.2,0,.2-.3.3-.5.3-.1,0-.3,0-1-1-.3-.4-.6-.9-.7-1.2,0-.2-.2-.4-.2-.5,0-.1,0-.3,0-.4,0-.2-.1-.8.2-.6,0,0,0-.2.3.2,0,0,0,0,0,0-.2-.8.2-.4.4-.6.1-.1,0-.8.3-.6-.2-.6,0-.6.2-.4.6.5.8-.1,1.1-.2.4,0,.7-.3,1.1-.4,0,0,0-.4.2-.1.1.2.2,0,.2,0,0,0,.1-.2.2,0,.5.6.6,0,.9,0,.3,0,.6,0,.8-.2.1-.1.2-.5.4-.4,0,0,.1-.3.3.3,0,.2,0-.3,0-.3.1,0,.2,0,.4,0,.2,0,.3,0,.5,0,0,0,.2-.3.3-.4.1,0,.2,0,.3,0,.1,0,.3.3.4.3.1,0,.3-.2.4,0,.3.5.5.2.8.3.2,0,.5,0,.7,0,.1,0,.3.4.4.4,0,0,0,1.5,0,2,0,0,0,.2,0,.2-.1.5-.2,1.2-.4,1.1-.2,0-.4,0-.5,0Z" fill="#00b4e9"/>
  <path d="M403.6,236.3c-.2-.1-.3-.3-.5-.3,0,0,0-.3-.4.1-.2.2,0-.4,0-.4-.2,0-.3-.2-.5-.3-.2,0-.5,0-.7,0-.2,0-.2-.4-.5-.2-.3.2-.1-.3-.3-.3-.2,0-.4,0-.4-.3,0-.2,0-.4-.2-.4,0,0-.3.3-.4.2,0,0,0-.3-.3.2,0,0,0,0,0-.2.1-.4,0-.4-.2-.2-.2.2-.2.2-.3.1-.2,0-.3,0-.4-.2,0,0,0-.4-.2-.5,0-.1-.3,0-.3-.2,0-.3,0-.4-.2-.4,0,0,0-.3-.3.2,0,0,0,0,0,0,.2-.8-.4,0-.5-.2,0-.3-.3-.2-.5-.3,0,0,0-.2-.3.2,0,.1-.1.1-.1,0,.1-.6-.2-.3-.3-.5-.1-.2-.4,0-.3-.5,0-.2,0-.4-.3.2-.1.2-.1,0-.2,0,0,0-.2.3-.3.3,0,0,0-.2,0-.4,0,0,0,0,0,0-.5.5-.4-.4-.7-.3-.3,0-.5,0-.7-.2-.1,0-.2-.3.1-1.4.1-.5.3-1,.5-1.3.1-.2.2-.4.3-.4.1,0,.2-.2.3-.2.2-.1.6-.6.6-.2,0,.1.2-.2,0,.3,0,0,0,.1,0,0,.5-.7.5,0,.8,0,.2,0,.6-.5.7-.2.3-.5.4-.4.5-.2.1.8.7.5,1,.8.3.2.7.3,1.1.5,0,0,.3-.3.2,0,0,.3.1.1.2.2,0,0,.2,0,.2.1,0,.7.5.5.7.7.2.2.5.4.9.4.2,0,.6-.2.7,0,0,0,.3-.2,0,.4,0,.2.2-.2.3-.2.1,0,.2.1.4.2.2,0,.3.2.5.3.1,0,.3-.1.5-.1.1,0,.2,0,.3.2,0,.1.1.4.2.5.1.1.4,0,.4.3,0,.6.3.5.5.7.2.2.4.4.7.4.2,0,0,.5.1.6,0,0-.7,1.3-1,1.7,0,0-.1.2-.2.2-.4.3-.9.8-1,.7-.2-.2-.4-.3-.6-.4Z" fill="#00b4e9"/>
  <path d="M391.5,246.4s0,0-.1,0c0,0,0-.2-.1.3,0,.3,0-.4,0-.3,0,0,0,0-.1,0,0,0-.2.2-.2.3,0,0,0-.2-.1,0-.1.3,0-.2,0-.1,0,.1-.1.2,0,0,0-.2,0-.4,0-.3,0,0-.1.4-.2.3,0,0,0-.3-.1.3,0,0,0,0,0-.1.1-.4,0-.4,0-.1,0,.3,0,.2-.1.2,0,0,0,0,0,0,0,0,0-.3,0-.3,0,0-.1.2,0,0,0-.3,0-.3,0-.3,0,0,0-.3-.1.3,0,0,0,0,0,0,.2-.8-.2.2-.1,0,0-.2,0,0,0,0,0,0,0-.2-.1.3,0,.2,0,.2,0,0,.2-.6,0-.3,0-.4,0-.1-.1.1,0-.3,0-.2,0-.3-.1.2,0,.3,0,0,0,0,0,0-.1.3-.1.3,0,0,0-.2,0-.3,0,0,0,0,0,0-.3.6,0-.2-.1,0-.1.2-.1,0-.1,0,0,0,0-.2.4-1.3.2-.5.3-1,.4-1.3,0-.2.2-.4.2-.5,0,0,.1-.2.1-.3,0-.2.3-.7.2-.4,0,0,0-.2,0,.3,0,0,0,.1,0,0,.3-.7.2-.2.2-.3,0,0,.3-.6.2-.4.2-.6.2-.5.2-.3-.1.7,0,.3.1.4,0,.1.1,0,.2.1,0,0,.1-.3,0,0,0,.3,0,0,0,0,0,0,0-.1,0,0-.2.6,0,.3,0,.4,0,0,0,.2.2,0,0,0,.2-.4.2-.3,0,0,.1-.3,0,.3,0,.2.1-.3.1-.3,0,0,0,0,0,0,0,0,0,0,.1,0,0,0,.1-.3.2-.3,0,0,0,0,0,0,0,0,0,.3,0,.4,0,0,.1-.2,0,0-.1.5,0,.3,0,.3,0,0,0,.1.2,0,0,0,0,.4,0,.4,0,0-.4,1.4-.6,1.9,0,0,0,.2,0,.2-.2.4-.4,1.1-.4,1.1,0,0,0,0-.1,0Z" fill="#00b4e9"/>
  <path d="M359.8,212.8s0,0,0,0c0,0,.1-.2-.2.2-.2.2.2-.3.2-.3,0,0,0,0-.1,0,0,0-.2.2-.3.2,0,0,0-.2-.1,0-.2.2,0-.2,0-.1,0,0-.1.1,0,0,0-.2.2-.4,0-.3,0,0-.2.3-.2.3,0,0,.1-.3-.2.3,0,0,0,0,0-.1.2-.4.1-.4,0-.1-.1.2-.1.2-.1.2,0,0,0,0,0,0,0,0,0-.3,0-.3,0,0-.1.2,0,0,0-.3,0-.3,0-.3,0,0,0-.3-.1.3,0,0,0,0,0,0,.2-.8-.1.2,0,0,0-.2,0,0,0,0,0,0,0-.2,0,.3,0,.2,0,.2,0,0,.1-.6,0-.3,0-.4,0-.1,0,.2,0-.3,0-.2,0-.3,0,.3,0,.3,0,0,0,0,0,0,0,.3,0,.3,0,0,0-.2,0-.3,0,0,0,0,0,0,0,.7,0-.2-.1,0,0,.2,0,.1-.1,0,0,0,0-.2-.1-1.4,0-.5,0-1.1,0-1.4,0-.2,0-.5,0-.5,0-.1,0-.2,0-.3,0-.2.1-.7.2-.4,0,0,0-.2,0,.3,0,0,0,.1,0,0,.1-.8.2-.3.3-.3,0,0,.2-.7.3-.4.1-.6.2-.5.2-.3,0,.7.3.3.5.4.2.1.4,0,.5.2,0,0,.2-.3.1,0,0,.3,0,0,0,0,0,0,.1-.1,0,0-.1.7.2.3.3.5,0,.1.2.2.4.2.1,0,.4-.3.4-.1,0,0,.2-.2,0,.3,0,.1.2-.2.2-.2,0,0,.1,0,.2,0,0,0,.1.1.2.1,0,0,.3-.2.3-.2,0,0,.1,0,.1.1,0,.1,0,.3,0,.4,0,0,.3,0,.1.2-.3.5,0,.3,0,.5,0,.1,0,.2.3.3,0,0-.3.4-.2.4,0,0,0,0-.2.2-.1,0-.3.2-.4.4-.3.3-.7.6-.9.7,0,0-.2.1-.2.1-.4.3-1,.7-1,.6,0,0,0,0,0-.1Z" fill="#00b4e9"/>
  <path d="M275.2,415.1c3-.9,6-1.8,8.9-3.1.5-.2,1.1-.4,1.7-.6.5-.3,1.1-.6,1.5-1.1.4-.5,1.7-.4,2.7-.9l1.9-1c.6-.3,1.3-.7,1.9-1.1,1.3-.7,2.5-1.5,3.7-2.3,1.2-.8,2.3-1.7,3.4-2.6l3.2-2.8c2.1-1.8,4.5-3.6,6.1-5.7,1.4-1.8,3-3.1,3.9-4.9.9-1.9,1.4-3.9,1.5-5.9.1-1.4,0-2.9-.9-3.9-.3-.3-.6-.5-.8-.6-.3-.1-.4,0-.6-.1-.3-.1-1.4-.2-2.2.6,0,0-.6,0-.8,0-1.2-.1-2.5.2-3.2.8-.7.5-1.4.8-2,1.2-.9.5-1.5,1-2,1.7-.5.7-.9,1.4-1,2.2-.1.5-.2,1,0,1.5,0,.5.3,1,.7,1.4.8.9,2.5,1.1,4,1.6,1.5.5,3.1.4,4.7.2.9,0,2.1,0,2.8-.7,0,0,.4-.1.6,0,2.8.3,5.2-1.5,7.8-2.2,2.7-.8,5.3-2.2,7.7-3.7.7-.4,1.4-.7,1.8-1.5.1-.3.8-.7,1.1-.9,2.1-.7,3.6-2.4,5.2-3.8,1.9-1.6,3.3-3.6,5.2-5.3.8-.7,1.8-1.8,1.9-3.2.1-.6.9-1.5,1.3-2.3.3-.7.4-1.4.7-2.1.3-.6.8-1,1.1-1.6.1-.2.2-.4.2-.6.8-3.5,2.7-6.7,3.2-10.3.5-3.6.8-7.3.7-11,0-2-.2-4.1.7-5.7.4-.7.9-.8,1.4,0,.3.6.7,1.3.9,2.1.2,1.2.5,2.4.6,3.6.2,1.3.3,2.5.5,3.8,0,1.3,0,2.6-.2,3.9-.2.8,0,1.8-.6,2.4,0,0-.2.4-.2.6.2,3.6-1.2,7-2.5,10.4-1,2.8-1.8,5.8-3.6,8.3-.2.9-.6,1.7-1.1,2.5-.5.8-1.1,1.5-1.7,2.1-2.1,2.2-4.3,4.4-6.5,6.4-2.2,2-4.6,4-7.2,5.5-5.3,3.1-11,5.6-17.1,6.7-1,.2-1.9.7-3.1.6-.6,0-1.2,0-1.9,0-.7,0-1.4.2-2.1.2-1.3,0-2.7,0-4-.3-1.3-.4-2.6-.9-3.8-1.7-1.2-.8-2.4-1.9-3-3.3-.7-1.4-.8-3.1-.6-4.5.3-1.5.9-2.8,1.8-3.9.8-1.1,2-2,3.1-2.7,1.1-.7,2.3-1.2,3.5-1.6,1.2-.4,2.4-.7,3.5-1,1.1-.2,2.3-.7,4-.6,1,0,2.2.5,3,1.1.8.6,1.4,1.4,1.9,2.1,1,1.5,1.5,3.2,1.6,4.9,0,1.4.3,3-.6,4.2-.2.3-.1,1.7-.5,2.5-.8,2.1-2,3.9-3.3,5.5-1.8,2.3-3.9,4.1-5.8,6-1.2,1.1-2.3,2.4-3.6,3.5-1.3,1.1-2.8,2.2-4.2,3.2-.5.3-.9.6-1.4.9l-1.5.8c-1,.5-1.9,1.1-2.9,1.6-2,1.1-4,2.5-6.1,3.2-3.9,1.3-7.6,3-11.5,4.2-3.9,1.2-7.8,2.1-11.8,2.8-1.1.2-2.2.3-3.3.3-.5,0-1.1,0-1.6,0-.5,0-1.1,0-1.7,0-1,0-2.5-1.3-2.1-1.8,0-.1.2-.2.4-.3,1-.3,2-.7,3.1-1,1-.4,2.1-.7,3.3-.8,3.5-.5,7-1.2,10.4-2.2Z" fill="#00b4e9"/>
  <g>
    <g>
      <g>
        <path d="M307.2,157.4c-.2-.2-.3-.4-.5-.6,0,0,0-.3-.4,0-.2.1.2-.3.1-.4-.2-.1-.3-.4-.5-.5-.2-.2-.5-.2-.7-.4-.2-.2-.1-.5-.5-.5-.4,0,0-.5-.3-.5-.2-.1-.4-.2-.3-.6,0-.2.2-.5,0-.5-.1,0-.4,0-.5,0,0,0,.2-.3-.4,0,0,0,0,0,0-.1.3-.3.2-.4,0-.3-.3,0-.3,0-.3,0-.1-.2-.2-.3-.3-.5,0-.1.1-.4.1-.5,0-.2-.3-.1-.1-.4.2-.3.1-.4,0-.5,0,0,.2-.3-.4,0,0,0,0,0,0,0,.6-.6-.4-.2-.4-.5,0-.3-.2-.4-.3-.5,0,0,0-.2-.3,0-.1,0-.2,0-.1,0,.4-.5,0-.4,0-.6,0-.2-.4-.2-.1-.6.1-.2.1-.4-.4,0-.2.1,0-.1-.2-.1,0,0-.3.1-.4,0,0,0,.1-.2.2-.3,0,0,0,0,0,0-.7.2-.2-.6-.5-.7-.3,0-.5-.4-.6-.6,0-.2,0-.4.7-1.3.3-.4.7-.8,1-.9.2-.1.4-.2.5-.2.1,0,.3,0,.4,0,.3,0,.8-.2.7.1,0,.1.3,0,0,.3,0,0,0,0,0,0,.8-.3.6.2.8.4.2.1.8,0,.8.3.6-.3.6,0,.5.1-.2.8.4.9.7,1.4.2.4.6.8.8,1.3,0,0,.4,0,.2.2-.2.2,0,.2.1.3,0,0,.2.1.1.3-.4.7.1.8.2,1.1,0,.3.2.7.5.9.2.1.6,0,.6.3,0,.1.3,0-.1.4-.1.1.3,0,.3,0,.1,0,.2.2.2.3.1.2.2.3.3.4,0,0,.4,0,.5,0,.1,0,.2.2.2.3,0,.2,0,.4,0,.6,0,.2.4.1.3.4-.2.6.2.6.3.9.2.3.3.5.6.6.2,0-.1.5,0,.6,0,0-1,1.1-1.3,1.5,0,0-.2.1-.2.1-.5.2-1.1.6-1.2.4-.1-.3-.4-.4-.6-.7Z"/>
        <path d="M292.1,161.2c.3-.1.6-.3.9-.5,0,0,.3.1.2-.4,0-.3.3.3.4.2.2-.2.6-.2.8-.4.2-.2.4-.5.7-.7.2-.2.6,0,.8-.4.1-.4.5,0,.7-.2.2-.2.4-.4.7-.3.2,0,.5.2.6,0,0-.1,0-.4.2-.5.1,0,.3.2.2-.4,0,0,0,0,.1.1.3.3.4.3.4,0,0-.3,0-.3.2-.3.2-.1.4-.2.7-.3.2,0,.5.1.6.1.2,0,.3-.4.6-.1.3.2.4.1.6,0,0,0,.3.2.2-.4,0,0,0,0,0,0,.6.7.4-.4.8-.3.4,0,.6-.2.9-.3,0,0,.2.1.1-.3,0-.2,0-.2.1-.1.4.5.5,0,.8.1.3,0,.4-.3.9,0,.2.2.3.2.3-.4,0-.3.2,0,.3-.1,0,0,0-.4.1-.4,0,0,.2.2.3.3,0,0,0,0,0,0,.2-.8.8,0,1.1-.3.3-.3.7-.3,1.1-.3.2,0,.5.1.9,1.2.2.5.3,1,.3,1.4,0,.2,0,.5,0,.6,0,.1-.2.3-.3.4-.2.3-.3.8-.6.6,0,0,0,.3-.3-.2,0,0,0,0,0,0,0,.9-.6.4-.9.6-.3.1-.3.8-.7.6,0,.6-.2.6-.4.5-.7-.5-1.1.1-1.7.2-.6.1-1.1.4-1.6.5,0,0,0,.4-.2.2-.2-.2-.2,0-.4,0-.1,0-.2.2-.3,0-.7-.5-.9,0-1.4.2-.4.1-.9.2-1.2.5-.2.2-.3.6-.6.6-.1,0-.1.4-.4-.1,0-.1,0,.3,0,.4-.1.1-.3.2-.5.2-.2.1-.5.2-.7.3-.1,0-.2.4-.3.5-.1.1-.3.2-.4.2-.2,0-.5,0-.7,0-.2,0-.3.4-.6.2-.6-.3-.8.1-1.2.2-.4.1-.7.3-1,.5-.2.2-.6-.2-.8,0,0,0-.9-1.2-1.1-1.7,0,0,0-.2,0-.2,0-.5-.2-1.2,0-1.3.4-.1.7-.3,1-.5Z"/>
      </g>
      <path d="M289.4,191.2c0-.5.2-1,.2-1.5,0-.2.3-.3-.2-.6-.3-.1.4-.2.4-.4,0-.5.1-.9.1-1.4,0-.4-.2-.9-.2-1.4,0-.4.3-.9,0-1.3-.2-.4.3-.7.2-1,0-.4-.1-.8.1-1.1.2-.3.4-.5.3-.8,0-.2-.4-.3-.3-.5,0-.2.3-.3-.3-.5,0,0,0,0,.2-.1.4-.2.4-.4.1-.5-.3-.2-.2-.3-.2-.4,0-.4,0-.7,0-1.1,0-.3.3-.5.4-.8,0-.3-.2-.6.1-.9.3-.3.3-.5.3-.8,0-.2.3-.3-.3-.5,0,0,0,0,0,0,.8-.4-.2-.9,0-1.3.2-.4,0-.9,0-1.4,0-.1.2-.3-.3-.4-.2,0-.2-.2,0-.2.6-.3.3-.7.4-1,.1-.4-.2-.8.3-1.2.2-.2.3-.4-.3-.6-.3,0,0-.3,0-.4,0-.1-.3-.2-.3-.3,0,0,.2-.2.3-.3,0,0,0,0,0,0-.7-.6.2-1.2,0-1.7-.2-.6-.2-1.2,0-1.8,0-.3.2-.7,1.3-1,.5-.1,1.1-.2,1.4,0,.2,0,.5.2.5.3.1.2.3.4.4.5.2.4.8.7.5,1.1,0,.1.2.3-.3.4,0,0-.1,0,0,0,.8.5.3,1.1.4,1.6,0,.5.7.9.4,1.4.6.2.5.5.3.8-.7.9-.2,1.8-.3,2.7,0,.9,0,1.8,0,2.8,0,.2.3.3,0,.5-.3.2,0,.4,0,.6,0,.2.1.4,0,.6-.7.7-.3,1.4-.4,2.2-.1.7-.2,1.4-.1,2.2,0,.4.4.9.2,1.3,0,.2.3.4-.4.5-.2,0,.3.3.3.4,0,.3,0,.6,0,.9,0,.4-.1.8-.1,1.3,0,.3.2.5.3.8,0,.3,0,.5,0,.8-.1.3-.4.6-.5,1,0,.3.1.7-.2,1-.6.6-.4,1.2-.6,1.8-.1.6-.3,1.2-.2,1.8,0,.4-.5.6-.6.9,0,.2-1.5.1-2,0,0,0-.2,0-.2-.1-.4-.4-1.1-.8-1-1.2.2-.5.2-1.1.3-1.6Z"/>
      <path d="M284.6,177.3c-.2,0-.5.1-.7.2,0,0-.2-.2-.2.4,0,.3-.2-.3-.3-.3-.2.1-.4,0-.7.2-.2,0-.4.3-.6.4-.2,0-.5-.2-.7.1-.2.3-.4-.2-.6-.1-.2.1-.4.2-.6,0-.1-.2-.2-.4-.4-.3,0,0-.3.3-.3.3,0,0-.1-.3-.4.3,0,0,0,0,0-.2,0-.4-.1-.4-.3-.2-.2.2-.2.2-.3.2-.2,0-.4,0-.7-.3-.2-.1-.2-.4-.3-.6-.1-.1-.5,0-.4-.4,0-.3,0-.4-.2-.5,0,0,0-.3-.4,0,0,0,0,0,0,0,.4-.8-.5-.2-.6-.5,0-.3-.3-.5-.5-.7,0,0,0-.2-.4,0-.1,0-.2,0-.1,0,.4-.5,0-.5,0-.7,0-.3-.4-.4,0-.8.2-.2.2-.3-.4-.3-.3,0,0-.2-.1-.3,0,0-.3,0-.4-.2,0,0,.2-.2.3-.3,0,0,0,0,0,0-.7-.3.1-.8,0-1.2-.2-.4,0-.8.2-1.2.1-.2.4-.4,1.5,0,.5.2,1,.4,1.3.6.2.1.4.2.5.3,0,0,.2.2.3.2.2.1.7.3.4.3,0,0,.2,0-.3,0,0,0-.1,0,0,0,.8.1.3.2.3.3,0,0,.7,0,.4.2.6-.1.5,0,.4,0-.6.4,0,.4,0,.6,0,.2.2.3.3.5,0,0,.3-.2.1,0-.1.2,0,0,0,.1,0,0,.1,0,0,0-.2.6.1.4.2.5.1.1.3.3.5.1.1,0,.3-.4.4-.2,0,0,.1-.3.1.3,0,.2,0-.3.1-.3,0,0,.2,0,.2,0,.1,0,.2,0,.3,0,0,0,.1-.3.2-.4,0,0,.1,0,.2,0,0,0,.2.3.3.3.1,0,.2-.3.3,0,.3.5.4.1.6.1.2,0,.4,0,.6-.2,0-.1.4.3.5.3,0,0,.7,1.3.9,1.8,0,0,0,.2,0,.2,0,.5.2,1.2,0,1.2-.3,0-.5.2-.8.3Z"/>
    </g>
    <path d="M283.3,149l.2,1.5c0,.5.2,1,.3,1.5,0,.4-.1.8.5,1.2.3.2-.3.7-.2,1,.2,1,.2,2.1.2,3.3,0,1.1,0,2.3-.3,3.5-.4,1.2-1.2,2.1-1.9,3.3-.3.5-.8.8-1.2,1.1-.5.2-1,.4-1.4.7-.9.5-2,.9-2.9.8-.7,0-1.3-.2-1.9,0-.4,0-.7.4-1.1.4-.4,0-.8-.3-1.1.4,0,0-.2,0-.3-.1-.4-.4-.9-.4-1.3-.1-.4.2-.7.2-1.1.1-1,0-2.1-.3-3.1-.9-.8-.4-1.4-1.1-2-1.8-.6-.7-1.4-1.3-1.5-2.1,0-.8-.3-1.4-.5-2-.1-.4,0-.8-.6-1,0,0,0-.1,0-.2.6-1.1-.7-1.8-.6-2.8,0-1-.3-2-.4-3.1,0-.3.1-.6-.4-.8-.2,0-.2-.4,0-.6.6-.9.2-1.7.5-2.7.1-.5.2-1.1.4-1.6.2-.5.5-1.1,1-1.5.5-.3.9-.8,1.1-1.6,0-.4.8-.6,1.2-.8.3-.2.6-.6.9-.7.3-.1.6,0,.9.1,0,0,.2,0,.3,0,.7-.5,1.4-.5,2-.4.7,0,1.3.2,2,0,1.3-.2,2.7-.2,4,0,.7,0,1.5.3,1.8,1.5.2.5.1,1.1-.2,1.4-.2.2-.5.4-.7.5-.4,0-.8.2-1.2.3-.8.2-1.5.7-2.3.4-.2,0-.5.2-.7-.3,0,0-.1-.1-.2,0-1,.8-2.1.4-3.2.6-.4,0-.8.3-1,.5-.3.2-.4.4-.6.4.2.6,0,.6-.2.7-.5.2-.8.9-.8,1.6,0,.7,0,1.6.1,2.4,0,1.8.5,3.6.9,5.4,0,.3.5.5.3.8-.2.4.1.7.3,1,.1.3.4.5.3.8,0,.6.2,1,.7,1.3.4.3.9.4,1.5.6,1.1.4,2.5.5,3.9.2.9-.1,1.7-.5,2.5-.5.3,0,.6-.4,1,.1.1.1.3-.4.4-.4.4-.2.8-.3,1.1-.6.4-.3.8-.7,1-1.2.1-.3,0-.8.1-1.2,0-.4.1-.8.3-1.2.1-.5.4-1.1.4-1.7,0-.6-.3-1.3-.1-2,.3-1.3-.2-2.5-.3-3.9,0-.7-.1-1.3-.2-1.7-.1-.5-.3-.8-.5-.9-.1,0-.1-.2-.2-.4,0-.2-.2-.3-.2-.3,0,0-.1-.4-.3-.7-.2-.4-.5-.8-.6-1,0-.1,0-.2,0-.3.8-.8,2.4-1.2,3.4-.3.8.6,1.3,1.5,1.6,2.3.3.8.4,1.5.5,2.1Z"/>
    <path d="M301.9,145.5l.2,1.5c0,.5.2,1,.3,1.5,0,.4-.1.8.5,1.2.3.2-.3.7-.2,1,.2,1,.2,2.1.2,3.3,0,1.1,0,2.3-.3,3.5-.4,1.2-1.2,2.1-1.9,3.3-.3.5-.8.8-1.2,1.1-.5.2-1,.4-1.4.7-.9.5-2,.9-2.9.8-.7,0-1.3-.2-1.9,0-.4,0-.7.4-1.1.4-.4,0-.8-.3-1.1.4,0,0-.2,0-.3-.1-.4-.4-.9-.4-1.3-.1-.4.2-.7.2-1.1.1-1,0-2.1-.3-3.1-.9-.8-.4-1.4-1.1-2-1.8-.6-.7-1.4-1.3-1.5-2.1,0-.8-.3-1.4-.5-2-.1-.4,0-.8-.6-1,0,0,0-.1,0-.2.6-1.1-.7-1.8-.6-2.8,0-1-.3-2-.4-3.1,0-.3.1-.6-.4-.8-.2,0-.2-.4,0-.6.6-.9.2-1.7.5-2.7.1-.5.2-1.1.4-1.6.2-.5.5-1.1,1-1.5.5-.3.9-.8,1.1-1.6,0-.4.8-.6,1.2-.8.3-.2.6-.6.9-.7.3-.1.6,0,.9.1,0,0,.2,0,.3,0,.7-.5,1.4-.5,2-.4.7,0,1.3.2,2,0,1.3-.2,2.7-.2,4,0,.7,0,1.5.3,1.8,1.5.2.5.1,1.1-.2,1.4-.2.2-.5.4-.7.5-.4,0-.8.2-1.2.3-.8.2-1.5.7-2.3.4-.2,0-.5.2-.7-.3,0,0-.1-.1-.2,0-1,.8-2.1.4-3.2.6-.4,0-.8.3-1,.5-.3.2-.4.4-.6.4.2.6,0,.6-.2.7-.5.2-.8.9-.8,1.6,0,.7,0,1.6.1,2.4,0,1.8.5,3.6.9,5.4,0,.3.5.5.3.8-.2.4.1.7.3,1,.1.3.4.5.3.8,0,.6.2,1,.7,1.3.4.3.9.4,1.5.6,1.1.4,2.5.5,3.9.2.9-.1,1.7-.5,2.5-.5.3,0,.6-.4,1,.1.1.1.3-.4.4-.4.4-.2.8-.3,1.1-.6.4-.3.8-.7,1-1.2.1-.3,0-.8.1-1.2,0-.4.1-.8.3-1.2.1-.5.4-1.1.4-1.7,0-.6-.3-1.3-.1-2,.3-1.3-.2-2.5-.3-3.9,0-.7-.1-1.3-.2-1.7-.1-.5-.3-.8-.5-.9-.1,0-.1-.2-.2-.4,0-.2-.2-.3-.2-.3,0,0-.1-.4-.3-.7-.2-.4-.5-.8-.6-1,0-.1,0-.2,0-.3.8-.8,2.4-1.2,3.4-.3.8.6,1.3,1.5,1.6,2.3.3.8.4,1.5.5,2.1Z"/>
    <path d="M277.9,153.1c0,.3,0,.6.1.9,0,.1-.2.2.3.4.3,0-.4.2-.3.3,0,.3,0,.6,0,.9,0,.2.2.7.1,1.2,0,.4-.5.7-.4,1.2,0,.5-.5.4-.7.7-.1.3-.4.6-.8.6-.3,0-.6,0-.8,0,0,.1,0,.5-.3.5-.2,0-.4-.2-.4.5,0,0-.1,0-.2-.1-.3-.4-.4-.3-.5,0,0,.3-.2.3-.4.3-.4,0-.7,0-1,0-.2,0-.4-.3-.6-.4-.2-.1-.5.1-.6-.2-.1-.3-.3-.4-.5-.5-.1,0,0-.4-.5.2,0,0,0,0,0,0,.1-.9-.7,0-.9-.5-.2-.4-.5-.5-.8-.7,0,0,0-.3-.4,0-.1,0-.2,0-.2,0,.3-.6-.2-.6-.2-.8,0-.3-.5-.4-.2-.9.1-.2.2-.4-.4-.3-.3,0,0-.2-.2-.3,0,0-.4,0-.4-.1,0,0,.2-.2.2-.3,0,0,0,0,0,0-.8-.2,0-.9-.3-1.2-.2-.4-.2-.8-.1-1.2,0-.2.2-.5,1.4-.5.5,0,1.1,0,1.4,0,.2,0,.5.1.5.2,0,0,.2.2.3.2.2.1.7.2.5.4,0,0,.2,0-.3.2,0,0-.1,0,0,0,.8,0,.3.3.5.5,0,.1.7,0,.5.3.6-.2.5,0,.4,0-.5.5,0,.5.1.7,0,.2.3.3.5.4,0,0,.2-.3.1,0,0,.3,0,0,.1.1,0,0,.1-.1.1,0,0,.7.3.3.5.4.2,0,.3.1.3,0,0-.1-.1-.4,0-.3,0,0-.2-.2.3.2.1.1-.2-.2-.2-.3,0,0,0,0,0,0,0,0,0,0,0-.1,0,0-.3-.1-.3-.2,0,0,0,0,0,0,0,0,.3-.2.4-.3,0-.1-.2-.2,0-.4.5-.2.2-.5.3-.7,0-.2,0-.5-.2-.7-.1-.1.4-.4.3-.5,0,0,1.3-.6,1.8-.8,0,0,.2,0,.2,0,.5,0,1.3,0,1.3.2,0,.4.1.7.2,1Z"/>
    <path d="M296.7,150.2c0,.3,0,.6.1.9,0,.1-.2.2.3.4.3,0-.4.2-.3.3,0,.3,0,.6,0,.9,0,.2.2.7.1,1.2,0,.4-.5.7-.4,1.2,0,.5-.5.4-.7.7-.1.3-.4.6-.8.6-.3,0-.6,0-.8,0,0,.1,0,.5-.3.5-.2,0-.4-.2-.4.5,0,0-.1,0-.2-.1-.3-.4-.4-.3-.5,0,0,.3-.2.3-.4.3-.4,0-.7,0-1,0-.2,0-.4-.3-.6-.4-.2-.1-.5.1-.6-.2-.1-.3-.3-.4-.5-.5-.1,0,0-.4-.5.2,0,0,0,0,0,0,.1-.9-.7,0-.9-.5-.2-.4-.5-.5-.8-.7,0,0,0-.3-.4,0-.1,0-.2,0-.2,0,.3-.6-.2-.6-.2-.8,0-.3-.5-.4-.2-.9.1-.2.2-.4-.4-.3-.3,0,0-.2-.2-.3,0,0-.4,0-.4-.1,0,0,.2-.2.2-.3,0,0,0,0,0,0-.8-.2,0-.9-.3-1.2-.2-.4-.2-.8-.1-1.2,0-.2.2-.5,1.4-.5.5,0,1.1,0,1.4,0,.2,0,.5.1.5.2,0,0,.2.2.3.2.2.1.7.2.5.4,0,0,.2,0-.3.2,0,0-.1,0,0,0,.8,0,.3.3.5.5,0,.1.7,0,.5.3.6-.2.5,0,.4,0-.5.5,0,.5.1.7,0,.2.3.3.5.4,0,0,.2-.3.1,0,0,.3,0,0,.1.1,0,0,.1-.1.1,0,0,.7.3.3.5.4.2,0,.3.1.3,0,0-.1-.1-.4,0-.3,0,0-.2-.2.3.2.1.1-.2-.2-.2-.3,0,0,0,0,0,0,0,0,0,0,0-.1,0,0-.3-.1-.3-.2,0,0,0,0,0,0,0,0,.3-.2.4-.3,0-.1-.2-.2,0-.4.5-.2.2-.5.3-.7,0-.2,0-.5-.2-.7-.1-.1.4-.4.3-.5,0,0,1.3-.6,1.8-.8,0,0,.2,0,.2,0,.5,0,1.3,0,1.3.2,0,.4.1.7.2,1Z"/>
    <path d="M259.2,162c-.4-.3-.7-.6-1.1-.8-.1,0-.1-.4-.6,0-.2.2,0-.4-.1-.5-.4-.1-.7-.4-1.1-.4-.4,0-.7,0-1,.1-.3,0-.6-.3-.8,0-.2.3-.5-.1-.7,0-.2.2-.5.4-.9.3-.3,0-.6-.1-.8,0-.1.1,0,.5-.2.6-.1,0-.4,0-.1.5,0,0,0,0-.1,0-.3-.3-.3-.2-.1,0,.2.2.2.2.2.2,0,0,0,0,0,.1,0,0-.3.2-.4.5,0,.2.3.5,0,.7-.3.3-.2.5-.2.7,0,.1-.2.4.4.3,0,0,0,0,0,0-.7.6.4.6.4,1,0,.4.2.8.4,1.1,0,0,0,.3.4.1.2,0,.2,0,.1.1-.4.6.1.6.2.9.1.4.5.4.4,1,0,.3,0,.5.6.2.2-.1.2.2.3.2.1,0,.4,0,.4,0,0,0,0,.3,0,.4,0,0,0,0,0,0,.8-.2.6.8,1.2.9.5.1.9.4,1.4.7.2.2.4.4.3,1.6,0,.5-.2,1.1-.4,1.3-.2.2-.4.4-.5.4-.2,0-.5,0-.7,0-.5,0-1.1.3-1.4-.2,0-.1-.4,0-.2-.5,0,0,0-.1,0-.1-.5.2-.8,0-1-.1-.3-.2-.4-.5-.7-.7-.4-.3-1.3-.2-1.5-.8-.7.2-.9-.1-.9-.5-.2-1.3-1.2-1.9-1.7-2.9-.4-1-1-2.1-1.2-3.2,0-.2-.4-.3-.2-.6.2-.3,0-.5,0-.7,0-.2-.2-.5,0-.7.6-.9.1-1.8.6-3.1.2-.6.6-1.1,1-1.6.5-.5.9-.8,1.2-1.1.4-.3.6-.9,1.2-1,.2,0,.3-.5.8,0,.1.1.1-.4.3-.5.4-.2.8-.3,1.2-.4.6-.1,1.2-.2,1.8-.2.4,0,.8-.3,1.1-.3.4,0,.8,0,1.1.2.4.2.8.6,1.2.8.4.2,1,.2,1.2.7.4.8,1.1,1,1.7,1.6.5.5,1,1,1.6,1.4.3.2.2.8.5,1.1.1.1-.8,1.3-1.2,1.6,0,0-.2.1-.2.1-.6,0-1.3.4-1.6,0-.4-.5-.8-.8-1.2-1.1Z"/>
    <path d="M314.4,131.6c-1,.5-2,.8-3,1.1-.4,0-.8,0-1.2.5-.2.3-.6-.3-1-.3-1,.1-2,0-2.9,0-.9,0-1.9,0-2.8-.2-.9-.2-1.7-.8-2.6-.8-.8,0-1.2-.8-1.9-1-.7-.2-1.4-.5-1.9-1.1-.4-.4-.7-.9-1.2-1.1-.3-.1-.7,0-1-.2-.3-.2-.4-.6-1-.2,0,0-.1-.1-.1-.3,0-.5-.4-.7-.8-.6-.4,0-.6,0-.8-.2-.6-.3-1.2-.7-1.7-1-.4-.3-.7-.7-1.1-1-.4-.3-1-.2-1.3-.7-.3-.5-.7-.6-1.1-.7-.2,0-.4-.4-.8.1,0,0-.1,0-.1,0-.5-1-1.4,0-2-.3-.7-.3-1.4,0-2,0-.2,0-.4,0-.4.4,0,.2-.2.2-.3.2-.7-.5-1,.1-1.5.3-.6.2-.9.7-1.7.7-.3,0-.7.2-.6.8,0,.3-.3.3-.4.5,0,.2,0,.5-.1.6,0,.1-.4,0-.6.1,0,0,0,0,0,.1,0,1.1-1.3,1.4-1.6,2.3-.3.9-.8,1.8-1.2,2.7-.2.5-.6,1-1.8,1-.5,0-1.1-.1-1.3-.5-.2-.3-.3-.5-.3-.8,0-.4,0-.8,0-1.1,0-.8-.1-1.7.5-2.3.2-.2,0-.6.6-.5,0,0,.2,0,.1-.1-.2-1.3.8-2,1.4-2.9.5-.8.7-1.9,1.6-2.4,0-.8.5-1.2,1.1-1.4,1-.3,1.8-.8,2.7-1.2.9-.4,1.8-.9,2.8-1.1,2-.4,4.1-.3,6,.2.3,0,.7-.2,1,.2.3.4.8.3,1.1.4.4.1.8.2,1,.4,1.1,1.2,2.4,1.5,3.6,2.3,1.1.8,2.2,1.6,3.4,2.1.7.3,1.6.5,2.1,1,.3.2.7,0,.7.8,0,.2.5,0,.7,0,.5.2.9.5,1.4.7.6.3,1.3.6,1.9.8.4.1.9,0,1.3,0,.4,0,.8.1,1.2.3.5.2,1,.4,1.5.5.6,0,1.1-.2,1.6,0,1,.4,1.9,0,2.8-.4.9-.3,1.8-.8,2.4-1.5.3-.4,1-.4,1.4-.8.1-.2,1.6.4,1.9.7,0,0,.1.2.1.2,0,.8.1,1.8-.5,2.4-1,.8-2,1.5-3.1,2.1Z"/>
    <path d="M301.6,140.2c.3,0,.6,0,.9,0,.1,0,.3.2.3-.3,0-.3.2.3.3.3.3-.1.6-.1.9-.2.3-.1.5-.4.7-.6.3-.2.7,0,.8-.4.1-.4.5,0,.7-.2.2-.2.4-.4.7-.3.2,0,.5.1.6,0,0-.1,0-.4.1-.5.1,0,.4.1.1-.5,0,0,0,0,.2,0,.3.3.4.2.4-.1,0-.3,0-.3,0-.4.2-.2.4-.4.6-.5.2,0,.5,0,.7-.1.2,0,.2-.4.5-.3.3,0,.5,0,.6-.2,0,0,.4,0,0-.5,0,0,0,0,0,0,.8.4.3-.6.6-.7.4-.1.5-.4.7-.7,0,0,.3,0,0-.4-.1-.1,0-.2,0-.2.6.2.5-.2.7-.4.3-.2.2-.5.7-.5.2,0,.4,0,0-.5-.2-.2.1-.2.1-.3,0-.1-.2-.3-.2-.4,0,0,.3,0,.4,0,0,0,0,0,0,0-.4-.7.6-.6.6-1.1,0-.5.2-.8.5-1.1.1-.2.4-.3,1.5-.1.5,0,1,.3,1.3.5.2.2.4.3.4.4,0,.2.1.4.1.6,0,.4.4.9,0,1.1-.1,0,.1.3-.4.2,0,0-.1,0,0,0,.5.7-.2.9-.3,1.4-.1.4.2,1-.2,1.2.4.5.2.7-.1.8-1,.3-1.1,1.2-1.6,1.7-.6.6-1,1.2-1.6,1.7,0,0,0,.4-.2.3-.3,0-.3.2-.4.3-.1.1-.1.3-.4.3-.9-.1-1.1.6-1.6.9-.5.3-1.1.6-1.5,1.1-.3.3-.4.8-.8.8-.2,0-.2.4-.6,0-.1-.1,0,.3-.1.4-.2.2-.5.3-.7.4-.3.1-.7.3-1,.5-.2.1-.3.4-.5.6-.2.1-.4.2-.7.2-.3,0-.7-.1-1,0-.3,0-.6.4-1,.1-.7-.4-1.2-.1-1.8-.2-.6,0-1.2-.2-1.8-.2-.4,0-.5-.6-.8-.7-.2,0,.2-1.5.5-1.9,0,0,0-.2.1-.2.4-.3.8-1,.9-.9.3.1.6.1.9.1Z"/>
    <path d="M249,178.1c-1.3-.7-2.6-1.5-3.9-2.3-.5-.3-.8-.8-1.6-.7-.4,0-.4-.8-.9-1.1-1.1-.8-2.1-1.8-3.2-2.6-1-.9-2.1-1.6-3.1-2.5-1-.9-1.7-2.1-2.8-2.8-.9-.6-1.2-1.7-2-2.4-.8-.8-1.6-1.6-2.1-2.6-.2-.4-.4-.8-.6-1.3-.3-.5-.5-1.2-.7-1.8-.2-.8-.4-1.7,0-2.6.4-.9,1-1.2.9-2,0,0,.2-.2.4-.2.7-.2,1.1-.7,1.2-1.2.1-.5.4-.8.7-1.1.8-.8,1.6-1.6,2.5-2.3.6-.5,1.4-.9,2-1.4.7-.5,1.1-1.3,1.9-1.6.8-.3,1.2-.9,1.7-1.4.3-.3.8-.5.5-1.2,0,0,0-.2.2-.2,1.4-.4,1.2-2,2.1-2.9.9-.9,1.6-2.2,2.5-3.3.2-.3.6-.5.5-1.1,0-.2.2-.5.4-.6,1.2-.4,1.7-1.5,2.7-2.1.5-.4,1.1-.8,1.6-1.2.6-.3,1.2-.7,1.9-.7.3,0,.6-.1.9-.3.3-.1.6-.4.8-.8.2-.4.9-.3,1.3-.5.4-.2.7-.5,1.1-.6.3,0,.7,0,1.1.1.1,0,.2,0,.3,0,.9-.5,1.9-.5,2.8-.4,1,.1,1.9.4,2.9.4,1.9.1,3.9.8,5.6,1.7.5.3.9.6,1.2,1,.3.4.5,1,.4,1.6,0,.6-.4,1-.9,1.1-.4,0-.8,0-1,0-.5-.2-1-.3-1.4-.4-.5-.1-1-.2-1.5-.2-.3,0-.5,0-.7-.1-.2,0-.5-.1-.7-.3-.3-.2-.7,0-.9-.5,0,0-.1-.1-.2-.1-1.5.6-2.8,0-4.2.2-1.2.2-2.1,1-3.3,1.1-.4.8-1,1-1.7,1.1-2.3.4-3.7,2.3-5.3,4.1-1.6,1.9-3,4.1-4.7,6.3-.3.4-.3.9-.9,1.2-.5.2-.8.9-1.3,1.3-.4.4-.7.9-1.2,1.1-2,1-3.3,2.6-4.8,4-.8.7-1.5,1.3-2.2,2-.7.7-1.4,1.5-1.5,2,0,.2,0,.4.2.5,0,0,0,0,.2.2.1.1.2.3.4.6.3.4.9.7.8,1.4,0,.2.6.3.9.6.6.6,1.1,1.3,1.6,1.9.8.9,1.5,1.8,2.3,2.6.5.5,1.2.8,1.7,1.3.6.5,1.1,1,1.6,1.5.6.7,1.2,1.5,1.8,2.1.7.7,1.6,1.1,2.2,1.8,1.1,1.4,2.6,2.2,4.1,3,.7.5,1.5.8,2.2,1.2l.5.2h.2c.1.1.3.2.4,0,.1-.1.2-.1.4-.2,0,0,0,0,.2,0l.3-.2c.2-.2.4-.3.5-.5.3-.3,1.8.1,2.1.6,0,0,0,.2,0,.3-.1.5-.2,1.1-.3,1.6,0,.1,0,.3-.1.4,0,.1-.2.3-.3.5-.2.4-.5.8-.8,1-.3.2-.5.4-.8.5-.3.1-.6.2-.9.1-.6,0-1.2-.3-1.9-.6l-.8-.3c-.2,0-.4-.2-.6-.3l-1.2-.6Z"/>
    <path d="M254.2,188.4c0-.2,0-.4,0-.6,0,0,.2-.1-.3-.2-.3,0,.4-.1.3-.2,0-.2,0-.4,0-.5,0-.2-.3-.3-.4-.5,0-.2.2-.4-.1-.5-.3-.1.2-.3,0-.4-.1-.1-.2-.2,0-.4.2-.1.3-.3.2-.3,0,0-.4,0-.4-.1,0,0,.3-.2-.4-.1,0,0,0,0,.1,0,.4-.2.3-.2,0-.2-.3,0-.3,0-.3,0,0-.1-.1-.3,0-.4,0-.1.2-.3.2-.4,0-.1-.3-.2,0-.3.3-.2.2-.3.2-.4,0,0,.2-.2-.4,0,0,0,0,0,0,0,.7-.4-.4-.2-.2-.4.1-.2,0-.3-.1-.5,0,0,.1-.2-.3,0-.2,0-.2,0,0,0,.5-.4.1-.3.2-.5,0-.2-.3-.2.1-.5.2-.1.2-.3-.3,0-.3,0,0,0-.1-.1,0,0-.3,0-.4,0,0,0,.2-.2.3-.3,0,0,0,0,0,0-.7.1,0-.5-.3-.6-.3-.1-.3-.3-.3-.6,0-.1,0-.3,1-1,.4-.3.9-.6,1.2-.7.2,0,.4-.2.5-.2.1,0,.3,0,.4,0,.3,0,.8,0,.7.2,0,0,.2,0-.2.3,0,0,0,0,0,0,.8-.2.5.3.6.5.1.2.8,0,.6.4.6-.2.6,0,.5.2-.4.7.1.9.2,1.3,0,.4.3.8.4,1.2,0,0,.4,0,.1.2-.2.2,0,.2,0,.3,0,0,.2.1,0,.2-.5.5,0,.7,0,1,0,.3,0,.7.2.9.1.2.5.3.4.5,0,0,.3.1-.3.3-.2,0,.3,0,.3.1,0,.1,0,.3,0,.4,0,.2,0,.4,0,.6,0,.1.3.2.4.3,0,.1,0,.2,0,.4,0,.2-.3.3-.3.5,0,.2.2.3,0,.5-.5.3-.2.6-.3.9,0,.3-.1.6,0,.8,0,.2-.5.3-.5.4,0,0-1.5,0-2,0,0,0-.2,0-.2,0-.5-.2-1.2-.3-1.1-.5,0-.2,0-.4,0-.6Z"/>
  </g>
</svg>