<?xml version="1.0" encoding="UTF-8"?>
<svg id="ARTWORK" xmlns="http://www.w3.org/2000/svg" width="600" height="600" viewBox="0 0 600 600">
  <g>
    <path d="M178.8,261.6c-13.5,12.5-31.2,19.8-49.2,23.4-18,3.6-36.6,3.7-55,3.3,15.6,5.4,32.1,8.6,48.6,9.2-9.4,8-20.1,14.3-31.6,18.8,20.5-2.2,39.6-11.3,57.1-22.1,4.9-3,9.8-6.3,13.9-10.4,3-3,5.5-6.4,8-9.8,5.5-7.4,10.9-14.8,16.4-22.2"/>
    <path d="M171.5,276.1c-1.5,2.1-3.1,4.2-4.8,6.2-1.7,2-3.6,3.9-5.6,5.7-1.5,1.3-3.2,2.3-4.6,3.9-.7.8-2.6,1.3-4.1,2.3-4,2.7-8.2,5.1-12.4,7.4-4.1,2.3-8.2,4.7-12.4,6.7-4.2,2-8.8,3.5-13,5.3-3.6,1.5-7.2,2-10.8,3-3.8,1-7.9,1.8-11.7,2l-16.8.9,15.7-5.2h.1c2.6-.9,5.2-1.7,7.6-3,1.5-.8,2.8-1.8,4.4-2.6,1.5-.8,3.4-1.5,4.3-2.8,0-.1.8-.4,1.2-.5,1.8-.6,3.7-1.9,4.8-3,.5-.5,1.1-1,1.6-1.4l.8-.6.4-.3s0,0,0,0c0,0,0,0,0,0,0,0,0,0,0,0h0s0,0,0,0h-.5c-.7-.2-1.5-.3-2.2-.4-1.5-.2-2.9-.4-4.4-.7-3.1-.4-6.4-.7-9.2-1.5-2.8-.8-5.5-1.4-8.2-2-1.6-.4-3.3-1.1-4.7-.8-.1,0-.7-.1-1-.2-3.8-1.8-8-2.2-12-3.6l-13.9-4.8,14.7.3c.4,0,.8,0,1.2,0,4.7.3,9.5.2,14.3.2,1.3,0,2.6.2,3.8-.3.4-.2,1.7-.2,2.4-.1,3.5.5,7.2,0,10.8-.1,4.1-.2,8.1-.8,12.3-.9.9,0,1.9,0,3-.3,1.1-.2,2.1-.5,3.1-.9.9-.4,2.9-.5,4.4-.9,1.2-.3,2.3-.8,3.5-1.1,1-.3,2.1-.2,3.1-.4.3,0,.7-.1,1-.3,5.5-2.2,11.4-3.3,16.8-5.9,5.4-2.6,10.7-5.5,15.6-8.9,2.7-1.9,5.4-3.9,7.9-4.6,1.1-.3,1.5,0,.6,1.3-.6.9-1.4,1.9-2.3,2.7-1.4,1.3-2.9,2.6-4.4,3.8-3.1,2.4-6.3,5-10.1,6.7-1.2.5-2.4,1.5-3.6,1.5-.2,0-.7.2-.9.3-4.6,3.1-10.2,4.6-15.6,6.2-4.5,1.4-8.9,3.1-13.7,3.7-2.5,1.1-5.6,1.5-8.2,1.6-9.4.6-18.7,1.5-28.1,1.5-5.7,0-11.3,0-16.9-.2l.8-4.3c3.5,1.2,7.1,2.3,10.7,3.3,1.5.4,2.9.4,4.7,1.1,1.6.7,3.9,1,5.9,1.4,1.8.4,3.8.6,5.5,1.1,3.4.9,6.9,1.5,10.5,1.8.9,0,1.8.2,2.7.2h1.4c.8.2,1.5.2,2.3.2,3.1.2,6.2.3,9.3.5,0,.2-.5.4-.7.6l-3.5,2.9-1.7,1.4-1.8,1.4-.9.7c-.3.2-.7.5-.8.6l-1.1.8-2.3,1.6c-3.1,2.1-6.3,4.1-9.5,5.9-3.9,2.3-7.9,4.5-12.2,6.1-.3.1-.6.2-.9.4l-1-4.2c1.6-.3,3.2-.6,4.8-.4.5,0,2.2-.6,3.4-.9,1.5-.3,2.9-.6,4.4-1l2.2-.5,2.2-.6c4-1.2,8-2.5,11.9-4.2,1.2-.5,2.3-1.1,3.5-1.6,1.1-.6,2.3-1.2,3.4-1.7,2.4-1.2,4.8-2.4,7.2-3.6,3-1.5,6.1-3,9.1-4.7,3.1-1.8,6.1-3.9,9-5.6,2.7-1.5,5.3-3.4,7.5-5.4,2.3-2.1,4.2-4.4,6.1-6.9,3.8-4.9,7.6-10.1,11.2-15.2,2.1-2.9,4.4-5.3,6.5-8.1,1-1.3,3.5-2.2,3.5-1.4,0,.2,0,.4-.2.7-1.7,3-2.9,6-5.3,9.1-3.5,4.6-6.9,9.3-10.4,14Z"/>
  </g>
  <path d="M438.4,309.1c-.8.2-1.6.4-2.3.7-.3.1-.7,0-.8.6,0,.3-.5-.2-.8-.1-.7.3-1.5.4-2.2.7-.7.3-1.3.7-2,1-.7.3-1.5.2-2.1.8-.5.5-1.2.1-1.7.4-.5.3-1.1.6-1.8.5-.5,0-1,0-1.3.1-.2.2-.4.5-.7.6-.3,0-.7,0-.7.6,0,0-.2,0-.2,0-.4-.3-.8-.2-.9.2-.1.3-.4.4-.6.5-.6.2-1.2.4-1.8.6-.5.1-1,0-1.4.1-.5,0-.9.5-1.4.4-.5-.1-.9,0-1.4.1-.2,0-.6-.1-.6.6,0,0,0,0-.1,0-.9-.6-1.3.7-2,.7-.8,0-1.5.4-2.2.7-.2,0-.5,0-.5.5,0,.2-.2.3-.3.2-.7-.4-1.2.1-1.8.2-.7,0-1.2.6-2,.3-.3-.1-.7-.1-.9.6,0,.3-.5.1-.7.3-.2.1-.3.4-.5.5-.2,0-.4-.1-.6-.2,0,0-.1,0-.2,0-.7.9-1.9.3-2.8.8-.9.5-1.8.7-2.8.9-.5.1-1.1,0-1.8-.9-.3-.4-.5-1-.3-1.4,0-.3.2-.6.4-.7.3-.2.5-.4.8-.6.5-.4,1-1.1,1.7-1,.2,0,.4-.3.7.1,0,0,.1,0,.2,0,.6-1,1.6-.8,2.4-1.1.7-.3,1.2-1.1,2-1,.2-.7.7-.8,1.2-.7,1.6.2,2.9-.7,4.3-1,1.4-.4,2.8-.9,4.3-1.3.2,0,.3-.5.7-.3.3.2.6-.1.9-.2.3,0,.5-.3.9-.3,1.3.3,2.3-.5,3.4-.8,1.1-.3,2.3-.6,3.3-1.1.6-.3,1.2-.9,1.9-1,.3,0,.5-.5,1,0,.1.1.3-.4.4-.5.4-.2.9-.3,1.4-.5.6-.2,1.3-.4,1.9-.6.4-.2.7-.5,1.1-.7.4-.2.8-.3,1.2-.4.5,0,1.1,0,1.7-.2.6-.1,1.1-.5,1.7-.4,1.1.2,2-.4,3-.6,1-.2,2-.5,2.9-.9.5-.2,1.2.1,1.7,0,.2,0,1,1.2,1,1.8,0,0,0,.2,0,.3-.4.6-.7,1.4-1.3,1.6-.9.2-1.8.5-2.7.8Z"/>
  <path d="M438.3,273.1c0,.6,0,1.2,0,1.8,0,.2-.2.5.3.7.3.1-.4.3-.3.5,0,.6,0,1.1,0,1.7,0,.5.3,1.1.4,1.6,0,.5-.2,1.1.1,1.6.3.4-.2.9,0,1.3.1.4.2.9,0,1.4-.2.3-.4.7-.2,1,0,.2.4.4.4.6,0,.2-.3.4.4.6,0,0,0,.1-.1.2-.4.2-.4.5,0,.7.3.2.3.3.3.5,0,.5,0,.9,0,1.4,0,.3-.2.7-.3,1,0,.4.3.7,0,1.1-.3.3-.2.7-.2,1,0,.2-.3.4.4.5,0,0,0,0,0,.1-.8.6.3,1,.2,1.6-.2.6,0,1.1,0,1.7,0,.1-.2.3.3.4.2,0,.2.2,0,.3-.6.5-.2.9-.3,1.3,0,.5.3.9-.2,1.5-.2.2-.3.5.3.7.3,0,0,.3.1.5,0,.1.3.3.4.4,0,.1-.2.3-.3.4,0,0,0,0,0,.1.7.6,0,1.4.2,2.1.2.7.2,1.4.2,2.1,0,.4-.2.8-1.3,1.2-.5.2-1.1.2-1.4.1-.3,0-.5-.2-.6-.3-.1-.2-.3-.4-.4-.6-.2-.4-.8-.8-.6-1.3,0-.2-.2-.3.3-.5,0,0,.1,0,0-.1-.9-.6-.4-1.3-.5-1.9,0-.5-.8-1-.6-1.6-.7-.2-.6-.6-.4-.9.6-1.1,0-2.2,0-3.3,0-1.1-.2-2.2-.2-3.3,0-.2-.4-.3-.1-.6.2-.2,0-.5,0-.7,0-.2-.2-.4,0-.7.6-.9.2-1.7.2-2.6,0-.9,0-1.7-.1-2.6-.1-.5-.5-1-.4-1.6,0-.2-.3-.5.3-.7.2,0-.3-.3-.3-.4,0-.4,0-.7,0-1.1,0-.5,0-1,0-1.5,0-.3-.3-.6-.4-.9,0-.3,0-.6,0-1,0-.4.3-.8.3-1.2,0-.4-.2-.9,0-1.3.5-.8.2-1.5.3-2.2,0-.7,0-1.5,0-2.2,0-.4.4-.8.4-1.2,0-.2,1.5-.4,2-.4,0,0,.2,0,.2,0,.5.4,1.2.8,1.1,1.2,0,.7,0,1.3,0,2Z"/>
  <path d="M327.8,372.3c.9-1,1.8-2,2.7-3,.3-.4.8-.6.8-1.3,0-.4.8-.3,1.1-.7.8-1,1.7-1.9,2.4-2.9.8-1,1.4-2,2.1-3,.7-1,1.8-1.7,2.3-2.8.4-1,1.4-1.3,2-2.1.6-.9,1.2-1.7,2-2.3.6-.4,1.2-.9,1.6-1.5.2-.4.3-.9.6-1.3.3-.3.9-.6.6-1.3,0,0,.2-.1.3-.2.6-.1,1-.6,1.1-1.1,0-.5.3-.7.6-1,.6-.8,1.3-1.6,2-2.4.5-.6,1.2-1,1.8-1.5.6-.6.9-1.4,1.7-1.8.7-.4,1.2-.9,1.7-1.5.3-.3.8-.5.6-1.2,0,0,0-.2.2-.2,1.4-.3,1.4-1.9,2.4-2.7,1-.8,1.8-1.8,2.6-2.8.2-.2.6-.4.5-.9,0-.2.2-.5.4-.5,1.1-.2,1.5-1.2,2.3-1.8.9-.7,1.4-1.7,2.6-2.1.5-.2,1-.6,1-1.4,0-.4.6-.6.8-.9.2-.3.3-.7.5-.9.2-.2.6-.2.9-.3,0,0,.2-.1.2-.2.4-.8,1-1.3,1.7-1.8.7-.4,1.4-.8,2-1.4.6-.6,1.2-1.2,1.8-1.7.6-.5,1.3-1,2-1.5.7-.5,1.6-1,2.8-.4.5.2.9.7.8,1.2,0,.4-.2.7-.4,1-.3.4-.7.8-1,1.2-.7.8-1.1,1.8-2.1,2.3-.3.1-.4.6-.9.4,0,0-.2,0-.2.1-.5,1.5-2,2.1-3,3.1-.9.9-1.3,2.1-2.4,2.8,0,.9-.7,1.4-1.3,1.8-2.2,1.2-3.6,3.3-5.3,5-1.8,1.7-3.4,3.6-5,5.4-.3.3-.3.8-.8,1-.5.2-.7.8-1.1,1.2-.3.4-.6.8-1,1.1-1.8,1-2.8,2.8-4.1,4.2-1.3,1.4-2.6,2.9-3.8,4.4-.7,1-1.2,2.1-2.1,2.9-.4.3-.5,1-1.2,1-.2,0-.2.7-.4.9-.5.7-1,1.2-1.6,1.9-.7.9-1.5,1.7-2.2,2.6-.4.5-.7,1.2-1.1,1.8-.4.6-.9,1.1-1.4,1.7-.7.6-1.4,1.2-2.1,1.8-.7.7-1.1,1.6-1.9,2.1-1.5.9-2.4,2.4-3.6,3.6-1.2,1.2-2.3,2.4-3.4,3.7-.6.7-1.6,1-2.2,1.7-.3.3-1.8-.3-2-.8,0,0,0-.2,0-.3.3-1,.3-2.1,1.1-2.8,1.1-1,2.1-2.2,3.1-3.3Z"/>
  <path d="M411.6,360.2c-.4.6-.8,1.3-1.1,1.9-.1.2-.5.4-.2.9.2.3-.5.2-.6.4-.3.6-.7,1.2-1,1.8-.3.6-.5,1.3-.7,1.9-.3.6-.9,1-1,1.8,0,.6-.7.8-.9,1.3-.2.6-.4,1.1-.9,1.4-.4.3-.7.5-.9.9,0,.3,0,.6,0,.8-.1.2-.5.3-.1.8,0,0-.1,0-.2,0-.5,0-.6.3-.5.7.1.3,0,.5-.1.7-.3.5-.5,1-.9,1.5-.3.3-.7.6-.9.9-.3.4-.3.9-.7,1.1-.5.2-.7.6-.9.9-.1.2-.5.3,0,.8,0,0,0,.1,0,.1-1,.2-.4,1.3-.9,1.7-.5.5-.7,1.2-1.1,1.8,0,.2-.3.2,0,.6.1.1,0,.3-.1.3-.8.1-.7.8-1.1,1.2-.4.5-.4,1.1-1.2,1.4-.3.1-.6.4-.2.9.2.3-.2.4-.3.6,0,.2.1.5,0,.6,0,.1-.3.2-.5.2,0,0,0,0,0,.1.2,1.1-1,1.4-1.3,2.3-.3.9-.8,1.6-1.3,2.3-.3.4-.7.8-1.9.5-.5-.1-1-.4-1.2-.7-.1-.3-.2-.5-.2-.7,0-.3,0-.6.1-.9.1-.6,0-1.3.4-1.7.2-.1,0-.5.5-.3,0,0,.1,0,.1,0-.3-1.1.5-1.5.9-2.3.3-.6,0-1.5.6-2-.4-.6,0-1,.3-1.2,1.3-.8,1.5-2.2,2.3-3.4.8-1.1,1.4-2.4,2.1-3.5.1-.2,0-.6.3-.6.4,0,.3-.5.5-.7.1-.2.2-.6.4-.7,1.1-.6,1.3-1.7,1.9-2.6.6-.9,1.2-1.8,1.6-2.8.2-.6.3-1.3.7-1.8.2-.2,0-.6.7-.6.2,0,0-.4,0-.6.2-.4.4-.8.7-1.2.3-.5.7-1,.9-1.6.2-.3.1-.8.3-1.1.2-.4.4-.7.6-1,.3-.4.8-.7,1.1-1.1.3-.4.4-1,.9-1.3.9-.5,1.2-1.5,1.7-2.2.5-.8,1-1.5,1.4-2.4.2-.5.9-.6,1.1-1.1.1-.2,1.5.3,1.9.6,0,0,.1.2.2.2.1.7.5,1.4.2,1.9-.5.7-.9,1.4-1.3,2.2Z"/>
  <path d="M464.5,327.7c-1,.8-2,1.5-3,2.3-.4.3-.9.3-1,1.1,0,.4-.8,0-1.1.3-.9.7-2,1.2-3,1.9-.9.6-1.8,1.4-2.8,2-.9.6-2.1.9-2.9,1.7-.7.7-1.6.7-2.4,1.2-.8.6-1.6,1.1-2.5,1.4-.7.2-1.4.3-1.9.7-.3.3-.5.7-.9.9-.4.2-.9.2-.9.9,0,0-.2,0-.3,0-.6-.1-1.1.2-1.3.6-.2.4-.5.5-.8.7-.8.5-1.6,1-2.5,1.4-.6.3-1.4.4-2,.7-.7.3-1.2.9-2,1-.7,0-1.3.4-1.9.7-.3.2-.9.1-.8.8,0,0-.1.1-.2.1-1.4-.2-1.8,1.2-2.9,1.6-1.1.3-2.1,1-3.1,1.5-.3.1-.6.1-.7.7,0,.2-.3.4-.5.3-1-.2-1.7.6-2.5.9-.9.3-1.7,1-2.8,1-.5,0-1,.2-1.2.9,0,.3-.7.3-1,.5-.2.2-.4.5-.7.7-.2.1-.6,0-.8,0,0,0-.2,0-.2.1-1,1.2-2.7,1-4,1.8-1.3.8-2.7,1.3-4,1.9-.8.3-1.6.5-2.6-.4-.4-.4-.7-.9-.5-1.3.1-.3.3-.6.5-.8.4-.3.8-.6,1.1-.9.8-.6,1.4-1.4,2.4-1.6.3,0,.5-.5.9-.1,0,0,.2,0,.2,0,.8-1.3,2.3-1.4,3.4-2,1-.5,1.7-1.6,2.8-1.8.3-.8,1-1.1,1.6-1.2,2.3-.4,4.1-1.8,6.1-2.7,2-.9,4-2.1,6-3.1.3-.2.5-.6,1-.6.5,0,.9-.4,1.3-.6.4-.2.8-.6,1.2-.6,1.9-.3,3.2-1.4,4.8-2.2,1.6-.8,3.2-1.6,4.6-2.6.9-.6,1.7-1.4,2.7-1.8.4-.2.7-.7,1.4-.4.2,0,.3-.5.6-.7.6-.4,1.3-.7,1.9-1.1.9-.5,1.8-1,2.7-1.5.5-.3.9-.9,1.4-1.2.5-.4,1.1-.7,1.7-1,.7-.4,1.5-.6,2.3-1,.7-.4,1.3-1.1,2.1-1.3,1.5-.4,2.6-1.5,3.8-2.3,1.2-.9,2.3-1.8,3.3-2.9.5-.6,1.4-.8,2-1.4.2-.3,1.7.3,2,.8,0,0,0,.2,0,.3-.2.9-.2,2-1,2.7-1.1,1-2.1,2-3.3,2.9Z"/>
  <path d="M465.6,315.4c0-.8-.1-1.7-.3-2.5,0-.3.2-.7-.4-.9-.3-.1.3-.5.2-.8-.2-.8-.2-1.6-.4-2.3-.2-.7-.5-1.5-.7-2.2-.2-.7,0-1.5-.5-2.2-.4-.6,0-1.2-.3-1.8-.3-.6-.5-1.2-.4-1.9,0-.5.2-1,0-1.4-.1-.3-.5-.4-.6-.7,0-.3.1-.7-.5-.8,0,0,0-.2,0-.2.3-.4.2-.8-.1-.9-.3-.2-.4-.4-.4-.6-.2-.6-.4-1.2-.5-1.8,0-.5,0-1,0-1.5,0-.5-.5-.9-.4-1.5.1-.5,0-1-.1-1.4,0-.2.1-.6-.6-.6,0,0,0,0,0-.2.6-1-.7-1.3-.8-2.1,0-.8-.5-1.5-.8-2.2,0-.2,0-.5-.5-.5-.2,0-.3-.2-.2-.3.4-.8-.2-1.2-.3-1.8-.1-.7-.7-1.2-.5-2,0-.3,0-.8-.6-.8-.3,0-.2-.4-.4-.6-.1-.2-.5-.2-.5-.4,0-.2,0-.4,0-.6s0-.1,0-.2c-1-.6-.6-1.9-1.2-2.7-.6-.8-1-1.8-1.4-2.7-.2-.5-.3-1.1.5-2,.4-.4.9-.7,1.3-.6.3,0,.6.1.7.3.2.2.5.5.7.7.5.5,1.3.8,1.3,1.6,0,.2.4.3,0,.7,0,0,0,.1,0,.2,1.1.5,1.1,1.5,1.5,2.4.4.7,1.3,1.1,1.3,2,.8.1.9.7.9,1.2,0,1.7,1,3,1.5,4.5.5,1.5,1.1,3,1.6,4.5,0,.3.5.4.3.8-.2.4.2.7.3,1,0,.3.3.6.3.9-.3,1.4.5,2.5.7,3.7.2,1.2.5,2.4,1,3.6.3.7.8,1.4.8,2.1,0,.3.4.6,0,1-.1.1.4.3.4.5.2.5.2,1,.3,1.5.2.7.2,1.4.4,2.1.1.4.4.8.6,1.2.2.4.2.9.2,1.4,0,.6-.1,1.2,0,1.8,0,.6.4,1.2.2,1.8-.4,1.1,0,2.2,0,3.2,0,1.1.1,2.1.3,3.2.1.6-.3,1.2-.3,1.8,0,.3-1.4.7-1.9.6,0,0-.2,0-.2,0-.5-.5-1.3-1-1.3-1.6,0-1-.1-1.9-.2-2.8Z"/>
  <path d="M433.4,253.1c0,.3,0,.5.1.8,0,0-.2.2.3.2.3,0-.3.2-.3.3.1.2,0,.5.2.7.1.2.4.4.5.6.1.2,0,.5.3.6.3,0,0,.4,0,.6.2.1.3.3.2.6-.1.2-.3.4-.1.5,0,0,.4,0,.4.1,0,0-.2.3.4.1,0,0,0,0-.1.1-.3.3-.3.4,0,.3.3,0,.3,0,.3.1.1.2.2.4.3.6,0,.2-.1.4-.1.6,0,.2.3.2.1.5-.2.3-.1.4,0,.5,0,0-.2.3.4,0,0,0,0,0,0,0-.6.6.5.3.4.7,0,.3.2.5.3.7,0,0,0,.2.3,0,.2,0,.2,0,.1,0-.5.5,0,.5,0,.7,0,.3.4.4,0,.8-.1.2-.2.4.4.2.3,0,0,.2.2.2,0,0,.4,0,.4,0,0,0-.2.2-.2.3,0,0,0,0,0,0,.8,0,0,.7.4,1,.3.3.4.6.4,1,0,.2,0,.5-1.1,1-.5.2-1,.4-1.3.5-.2,0-.5,0-.6,0-.1,0-.3-.1-.4-.2-.3-.1-.8-.1-.7-.4,0,0-.3,0,.2-.3,0,0,0,0,0,0-.8,0-.5-.4-.7-.7-.2-.2-.8-.2-.7-.5-.6.1-.6,0-.5-.3.4-.7-.2-1-.4-1.5-.1-.5-.5-1-.7-1.5,0,0-.4,0-.2-.2.2-.2,0-.2-.1-.3,0,0-.2-.1-.1-.3.4-.7-.1-.9-.2-1.3-.1-.4-.2-.8-.5-1.2-.2-.2-.6-.3-.6-.6,0-.1-.4-.1.2-.4.1,0-.3,0-.4,0-.1-.2-.1-.3-.2-.5,0-.2-.1-.5-.3-.7,0-.1-.4-.2-.5-.4-.1-.1-.2-.3-.1-.5,0-.2.2-.5.2-.7,0-.2-.3-.4,0-.7.4-.5,0-.8.1-1.2,0-.4,0-.8-.1-1.2,0-.2.4-.4.4-.7,0-.1,1.5-.2,2-.2,0,0,.2,0,.2,0,.5.2,1.2.3,1.2.5,0,.3,0,.6,0,.9Z"/>
  <path d="M444.5,238.2c-.1.3-.3.5-.3.8,0,.1-.3.1.2.4.2.2-.4,0-.4.1,0,.3-.2.5-.3.8,0,.3,0,.6,0,.8,0,.3-.4.4-.2.7.2.3-.3.3-.3.5,0,.2,0,.5-.3.6-.2,0-.5.2-.4.3,0,.1.3.3.2.4,0,0-.3,0,.2.4,0,0,0,0-.2,0-.4,0-.4,0-.2.3.2.2.2.2.2.3,0,.2,0,.4-.2.6,0,.1-.4.2-.5.3-.1.1,0,.4-.2.5-.3,0-.4.2-.4.3,0,0-.3,0,.2.4,0,0,0,0,0,0-.9,0,0,.6-.2.7-.3.2-.2.5-.3.7,0,0-.2,0,.2.3.1,0,.1.1,0,.1-.7,0-.4.3-.5.5-.2.2,0,.5-.5.6-.2,0-.4.1.2.4.2.1,0,.2,0,.3,0,0,.3.2.3.3,0,0-.3,0-.4,0,0,0,0,0,0,0,.5.5-.4.6-.3,1,0,.4,0,.7-.3,1,0,.2-.3.3-1.5.1-.5,0-1.1-.2-1.3-.4-.2-.1-.4-.2-.5-.3,0-.1-.2-.3-.2-.4-.1-.3-.6-.6-.3-.8.1,0-.2-.2.3-.1,0,0,.1,0,0,0-.7-.5,0-.7,0-1,0-.3-.5-.7-.2-.9-.6-.3-.4-.5-.2-.5.8-.3.5-1,.8-1.4.2-.5.3-1,.5-1.5,0,0-.3-.3,0-.3.3,0,.1-.2.2-.3,0-.1,0-.3.1-.3.8-.2.5-.7.7-1.1.2-.4.4-.8.4-1.2,0-.3-.2-.6,0-.8,0,0-.2-.3.4-.2.2,0-.2-.2-.2-.3,0-.2.1-.3.2-.5,0-.2.2-.4.2-.7,0-.2-.2-.4-.2-.5,0-.2,0-.3.2-.4.1-.2.4-.3.5-.4.1-.2,0-.5.3-.5.6-.1.5-.6.7-.9.2-.3.4-.6.4-1,0-.2.6-.2.6-.4,0,0,1.4.4,1.9.6,0,0,.2,0,.2.1.4.4,1,.8.8,1-.2.3-.3.6-.4.9Z"/>
  <path d="M447.1,244.3c0-.2.2-.4.2-.6,0,0,.3,0-.2-.3-.2-.1.4,0,.4,0,0-.2.2-.4.2-.6,0-.2-.1-.5-.1-.7,0-.2.4-.3.1-.6-.2-.3.3-.2.3-.4,0-.2,0-.4.2-.4.2,0,.5,0,.4-.2,0,0-.3-.3-.3-.3,0,0,.3,0-.2-.3,0,0,0,0,.2,0,.4,0,.4,0,.1,0-.1,0-.2,0-.2,0,0,0,0,0,0,0,0,0,.3,0,.4,0,0,0-.2,0,.1,0,.4,0,.4-.1.4-.2,0,0,.3-.2-.4,0,0,0,0,0,0,0,.5-.2.4-.2.2-.1-.2,0-.4.2-.3,0,.2-.1,0,0,0,0,0,0,.1-.1-.2.2-.1.1-.1.1,0,0,.5-.5.1-.2.2-.3,0,0,0,0,0,0,0,0,0,0,0,0,0,0,0-.1,0-.3,0-.2,0-.4-.4.1-.2.2-.1,0-.2,0,0,0-.2.2-.3.2,0,0,0-.2,0-.4,0,0,0,0,0,0-.5.5-.3-.4-.6-.4-.3,0-.5-.1-.7-.4,0-.1-.1-.3.3-1.4.2-.5.5-1,.7-1.2.2-.2.3-.4.4-.4.1,0,.2-.1.4-.2.2,0,.6-.5.7-.1,0,.1.2-.1,0,.3,0,0,0,.1,0,0,.6-.6.5,0,.8,0,.2,0,.7-.4.7,0,.4-.5.5-.3.5-.1.1.8,1.1.8,1.6,1.3.5.5,1,.9,1.2,1.5,0,.1.4,0,.2.3-.2.2,0,.3,0,.4,0,.1.1.2,0,.4-.7.5-.4,1-.7,1.5-.3.5-.5,1-.5,1.3,0,.2.3.5,0,.6,0,0,.2.3-.4.1-.2,0,.2.2.2.3,0,.1,0,.2-.1.4,0,.2-.2.3-.2.5,0,.1.2.3.2.4,0,.1,0,.2-.1.3-.1.1-.4.2-.5.3-.1.1,0,.4-.2.4-.6,0-.4.4-.6.6-.2.2-.3.5-.3.7,0,.2-.5.1-.6.2,0,0-1.4-.4-1.9-.6,0,0-.2,0-.2-.1-.4-.3-1-.7-.9-.8.2-.2.2-.4.3-.7Z"/>
  <path d="M453,250.6c0-.2.2-.4.2-.6,0,0,.3,0-.2-.3-.2-.2.4,0,.4,0,0-.2.2-.3.2-.5,0-.2,0-.5,0-.6,0-.2.4-.2.2-.5-.2-.3.3-.1.3-.3,0-.2,0-.4.2-.4.2,0,.4,0,.4-.1,0,0-.3-.3-.2-.3,0,0,.3,0-.2-.3,0,0,0,0,.1,0,.4.1.4,0,.2-.1-.2-.2-.2-.2-.2-.2,0-.1,0-.3.2-.3,0,0,.3,0,.4,0,0,0-.1-.3.2-.2.3,0,.3,0,.4-.1,0,0,.3,0-.3-.3,0,0,0,0,0,0,.8.2-.1-.3,0-.4.2,0,.1-.2.2-.4,0,0,.2,0-.2-.2-.2,0-.2,0,0,0,.6,0,.3-.1.4-.2.1,0-.1-.2.4-.3.2,0,.3,0-.2-.2-.3,0,0,0,0-.1,0,0-.3,0-.3-.1,0,0,.2,0,.3,0,0,0,0,0,0,0-.7-.2.2-.3,0-.4-.2-.1-.1-.2,0-.4,0,0,.2-.2,1.3-.5.5-.2,1-.3,1.4-.3.2,0,.5,0,.5,0,.1,0,.3.1.4.2.2.1.8.3.5.5,0,0,.2.1-.3.2,0,0-.1,0,0,0,.8.2.3.5.3.8,0,.2.6.5.3.7.6.2.5.4.3.4-.7.3-.4.8-.6,1.2-.2.4-.3.8-.4,1.2,0,0,.3.3,0,.2-.3,0-.1.1-.2.2,0,0,0,.2-.1.2-.7,0-.5.4-.7.7-.2.2-.4.4-.4.8,0,.2.2.5,0,.6,0,0,.2.3-.4,0-.2,0,.2.2.2.3,0,.1,0,.2-.1.3,0,.1-.2.2-.2.4,0,0,.2.3.2.4,0,.1,0,.2-.1.2-.1,0-.4,0-.5.1-.1,0,0,.3-.2.3-.5,0-.4.3-.5.4-.1.2-.2.3-.2.5,0,.1-.5,0-.5.2,0,0-1.5-.3-1.9-.4,0,0-.2,0-.2,0-.4-.3-1.1-.6-1-.8.1-.2.2-.5.3-.7Z"/>
  <path d="M451.7,270.4c.1-.4.4-.8.5-1.2,0-.2.3-.2,0-.6-.2-.2.4,0,.5-.2,0-.4.4-.7.5-1.1.1-.4,0-.8.2-1.2.1-.4.6-.6.4-1.1-.1-.4.5-.4.5-.8,0-.3.1-.7.5-.8.3-.1.6-.2.6-.5,0-.2-.2-.4-.1-.5,0-.1.4-.1,0-.5,0,0,0,0,.2,0,.4,0,.5-.1.3-.4-.2-.2,0-.3,0-.4.1-.3.3-.6.5-.8.2-.2.5-.3.6-.4.2-.2,0-.5.4-.6.4,0,.5-.2.6-.4,0-.1.4,0-.1-.5,0,0,0,0,0,0,.9,0,.1-.7.5-1,.4-.2.4-.6.6-1,0,0,.3-.1-.1-.4-.1-.1,0-.2,0-.2.7,0,.5-.4.7-.6.2-.2.1-.6.7-.7.2,0,.4-.2,0-.6-.2-.2,0-.2,0-.3,0-.1-.2-.3-.2-.4,0,0,.3,0,.4,0,0,0,0,0,0,0-.4-.7.6-.8.6-1.2,0-.5.2-.8.3-1,0-.2.3-.2,1.4-.3.5,0,1.1,0,1.4.1.2.1.4.3.5.4,0,.2.2.4.2.6.1.4.5,1,0,1.2-.1,0,.1.3-.4.2,0,0-.1,0,0,0,.6.7-.1.9-.2,1.4-.1.4.3,1-.1,1.2.5.5.3.6,0,.8-.9.4-.9,1.3-1.3,1.9-.4.6-.7,1.4-1.1,2,0,.1.2.4-.1.4-.3,0-.2.3-.3.4,0,.1,0,.3-.2.4-.9.2-.8.9-1.1,1.4-.3.5-.7,1-.8,1.5,0,.4,0,.8-.2,1.1-.1.1.1.4-.5.3-.2,0,.2.3.1.4,0,.2-.2.4-.3.6-.2.3-.3.6-.4.9,0,.2,0,.5,0,.7,0,.2-.1.4-.3.6-.2.2-.5.4-.6.6-.2.2,0,.6-.4.7-.7.2-.6.8-.8,1.2-.2.4-.5.9-.5,1.4,0,.3-.6.3-.7.6,0,.1-1.5-.2-2-.4,0,0-.2,0-.2-.1-.4-.4-1-.9-.8-1.2.2-.4.3-.9.5-1.4Z"/>
  <path d="M444.6,392.7c-1,0-2,0-3.1,0-.4,0-.8-.3-1.2.3-.2.3-.6-.4-.9-.4-1,0-1.9,0-2.9,0-.9,0-1.9.2-2.8.3-.9,0-1.9-.3-2.7,0-.8.3-1.4-.3-2.2-.1-.8.1-1.6.2-2.3,0-.5-.2-1.1-.4-1.6-.3-.3,0-.7.4-1,.4-.3,0-.7-.3-1,.3,0,0-.2,0-.3-.1-.4-.4-.8-.4-1.1,0-.3.3-.6.2-.8.3-.8,0-1.5,0-2.3,0-.6,0-1.2-.2-1.7-.3-.6,0-1.2.3-1.8,0-.6-.3-1.1-.2-1.7-.2-.3,0-.7-.3-.9.4,0,0-.1,0-.2,0-.9-.8-1.7.4-2.7.2-.9-.1-1.9.1-2.8.2-.2,0-.5-.1-.7.3,0,.2-.3.2-.5.1-.8-.6-1.5,0-2.2-.1-.8,0-1.6.3-2.5,0-.4-.2-.9-.2-1.2.4-.2.3-.6,0-.9.2-.2,0-.4.4-.7.4-.2,0-.4-.2-.7-.3,0,0-.1,0-.2,0-1.1.8-2.4,0-3.6.4-1.2.3-2.4.4-3.6.5-.7,0-1.4,0-2-1.1-.3-.5-.4-1-.1-1.4.2-.3.4-.5.6-.6.4-.2.7-.3,1.1-.5.7-.3,1.4-.9,2.3-.8.3,0,.5-.3.8.2,0,0,.1,0,.2,0,1-.9,2.1-.6,3.2-.8.9-.2,1.7-.9,2.7-.8.4-.7,1.1-.7,1.6-.5,1.9.4,3.7-.2,5.6-.3,1.9,0,3.8-.3,5.7-.4.3,0,.6-.4,1-.1.4.2.8,0,1.2,0,.4,0,.8-.2,1.1,0,1.5.6,3,.1,4.5.2,1.5,0,3,0,4.4,0,.9-.1,1.8-.5,2.7-.3.4,0,.8-.3,1.2.3.1.2.5-.3.7-.3.6,0,1.2,0,1.8,0,.9,0,1.7,0,2.6,0,.5,0,1-.3,1.6-.3.5,0,1.1,0,1.6,0,.7,0,1.4.3,2.1.4.7,0,1.5-.2,2.1.1,1.3.5,2.5.3,3.8.4,1.3,0,2.5.2,3.8,0,.7,0,1.4.5,2,.5.3,0,.7,1.5.6,2,0,0,0,.2-.1.2-.7.4-1.3,1.2-2.1,1.1-1.2-.1-2.3,0-3.5-.1Z"/>
  <path d="M487.4,417.8c-.6-.5-1.3-1-1.9-1.5-.3-.2-.3-.6-.9-.3-.3.1-.1-.6-.4-.7-.6-.4-1.2-.9-1.8-1.3-.6-.4-1.3-.7-2-1-.6-.4-1.1-1.1-1.8-1.2-.7-.1-.8-.8-1.4-1.1-.6-.3-1.1-.6-1.5-1.1-.3-.4-.5-.8-.9-1-.3,0-.7,0-.9-.2-.2-.2-.3-.6-.9-.2,0,0,0-.1,0-.2,0-.5-.3-.7-.7-.6-.4,0-.5,0-.7-.2-.5-.3-1.1-.6-1.6-1-.4-.3-.6-.7-1-1.1-.4-.3-1-.4-1.2-.9-.2-.5-.6-.7-1-1-.2-.1-.3-.5-.8-.1,0,0-.1,0-.1,0-.2-1.1-1.3-.5-1.8-1.1-.5-.6-1.3-.9-1.9-1.2-.2,0-.3-.4-.7,0-.1.1-.3,0-.4-.1-.2-.8-.9-.8-1.3-1.2-.5-.4-1.2-.5-1.5-1.3-.1-.3-.4-.6-1-.3-.3.2-.4-.2-.7-.3-.2,0-.5,0-.7,0-.1,0-.2-.4-.3-.5,0,0,0,0-.1,0-1.2.1-1.6-1.1-2.5-1.4-.9-.3-1.8-.9-2.6-1.4-.4-.3-.8-.7-.6-1.9,0-.5.4-1,.7-1.2.3-.1.5-.2.7-.2.3,0,.7.1,1,.2.6.1,1.5,0,1.9.5.1.2.5,0,.4.6,0,0,0,.1,0,.1,1.1-.3,1.7.6,2.5,1,.7.3,1.6.1,2.2.8.7-.3,1,0,1.3.4,1,1.3,2.5,1.7,3.7,2.6,1.2.9,2.6,1.6,3.8,2.4.2.1.6,0,.7.4,0,.4.5.4.8.6.3.2.6.2.8.5.6,1.2,1.9,1.5,2.8,2.2.9.7,1.9,1.4,3,2,.6.3,1.4.4,2,1,.2.2.7.1.6.8,0,.2.5,0,.6,0,.4.2.8.6,1.2.8.6.4,1.1.8,1.7,1.2.4.2.8.3,1.2.5.4.2.7.5,1.1.8.4.4.7.9,1.1,1.3.4.4,1.1.5,1.3,1.1.5,1,1.5,1.4,2.3,2.1.8.7,1.5,1.3,2.4,1.9.5.3.6,1,1,1.4.2.2-.4,1.5-.8,1.9,0,0-.2.1-.2.1-.7,0-1.6.3-2-.1-.7-.6-1.4-1.2-2.2-1.7Z"/>
  <path d="M515.3,406.5c-.5.2-.9.3-1.4.5-.2,0-.4,0-.4.5,0,.3-.4-.2-.5-.2-.4.2-.9.3-1.3.6-.4.2-.7.6-1.1.8-.4.2-.9.2-1.2.6-.2.4-.7,0-1,.4-.3.3-.6.5-1,.5-.3,0-.6-.1-.8.1-.1.1-.1.5-.3.6-.2,0-.5,0-.3.5,0,0-.1,0-.2,0-.3-.3-.5-.2-.5.2,0,.3-.1.3-.2.4-.3.2-.6.4-1,.5-.3,0-.6,0-.9.1-.3,0-.4.5-.8.4-.4-.1-.6,0-.8.2-.1,0-.4,0-.2.5,0,0,0,0,0,0-.8-.5-.6.7-1.1.7-.5,0-.8.4-1.2.7,0,0-.3,0-.2.4,0,.2,0,.2-.2.2-.6-.3-.7.2-1.1.3-.4.1-.6.6-1.2.4-.3,0-.5,0-.3.6,0,.3-.2.2-.3.3,0,.1,0,.4,0,.5,0,0-.3,0-.4-.1,0,0,0,0,0,0,0,.9-1.1.5-1.4,1-.4.5-.9.8-1.4,1.1-.3.2-.7.2-1.6-.6-.4-.3-.7-.8-.8-1.1,0-.3-.1-.5,0-.6,0-.2.2-.4.3-.6.2-.4.2-1.1.7-1.1.2,0,0-.3.5,0,0,0,.1,0,.1,0,0-1,.7-.9,1.1-1.2.4-.3.4-1.1.9-1.1-.1-.7.2-.7.5-.7,1.1,0,1.7-.9,2.5-1.3.8-.4,1.6-1,2.4-1.5.1,0,0-.5.4-.3.3.1.4-.2.6-.3.2,0,.3-.3.5-.3,1,.2,1.4-.5,2.1-.8.7-.3,1.4-.6,1.9-1,.4-.3.6-.8,1.1-.9.2,0,.2-.4.7,0,.1.1,0-.4.2-.4.3-.2.6-.3.8-.4.4-.2.8-.3,1.2-.5.2-.1.4-.5.6-.6.2-.2.5-.3.8-.3.4,0,.8,0,1.1,0,.4,0,.6-.5,1-.3.8.2,1.3-.2,1.9-.4.6-.2,1.2-.4,1.8-.7.3-.2.8.2,1.1,0,.2,0,.8,1.3.9,1.8,0,0,0,.2,0,.2-.2.6-.2,1.3-.6,1.4-.6.1-1.1.4-1.6.6Z"/>
  <path d="M492,439.3c.5-.6,1-1.1,1.5-1.7.2-.2.6-.3.3-.8-.1-.3.6,0,.7-.3.4-.6.9-1.1,1.3-1.6.4-.6.7-1.2,1-1.8.4-.6,1-.9,1.2-1.6.1-.6.8-.7,1.1-1.2.2-.5.5-1,1.1-1.4.4-.2.8-.4.9-.8,0-.2,0-.6.2-.8.2-.2.6-.3.2-.8,0,0,.1,0,.2,0,.5,0,.7-.3.6-.6,0-.3,0-.5.2-.7.3-.5.6-1,1-1.4.3-.3.7-.6,1-.9.3-.3.3-.9.8-1.1.5-.2.7-.5.9-.9.1-.2.5-.3,0-.8,0,0,0-.1,0-.1,1.1-.1.5-1.3,1-1.7.5-.5.8-1.2,1.1-1.8,0-.2.3-.2,0-.6-.1-.1,0-.3.1-.3.8-.1.7-.8,1.1-1.2.4-.5.4-1.1,1.2-1.4.3-.1.6-.4.2-.9-.2-.3.2-.4.3-.6,0-.2-.1-.5,0-.6,0-.1.3-.2.5-.3,0,0,0,0,0-.1-.2-1.1,1-1.5,1.2-2.4.2-.9.7-1.7,1.2-2.4.3-.4.6-.8,1.8-.6.5,0,1,.3,1.2.6.2.2.3.5.3.7,0,.3,0,.6,0,.9,0,.6.2,1.4-.4,1.8-.2.1,0,.5-.5.4,0,0-.1,0-.1,0,.3,1.1-.5,1.6-.8,2.4-.3.6,0,1.5-.6,2.1.4.6,0,1-.3,1.3-1.3.9-1.5,2.4-2.3,3.5-.8,1.2-1.5,2.4-2.2,3.6-.1.2,0,.6-.3.7-.4,0-.4.5-.5.7-.2.2-.2.6-.5.7-1.2.6-1.4,1.7-2.1,2.6-.7.9-1.4,1.8-1.9,2.7-.3.6-.4,1.4-.9,1.8-.2.2-.1.6-.8.5-.2,0,0,.5,0,.6-.2.4-.5.8-.8,1.1-.4.5-.8,1-1.2,1.5-.2.3-.3.8-.5,1.1-.2.4-.5.7-.8,1-.4.4-.9.6-1.3,1-.4.4-.6,1-1.1,1.2-1,.4-1.4,1.3-2.1,2-.7.7-1.3,1.4-1.9,2.1-.3.4-1,.5-1.4.8-.2.2-1.5-.6-1.8-1,0,0-.1-.2-.1-.2,0-.7-.2-1.5.2-1.9.6-.6,1.2-1.2,1.7-1.9Z"/>
  <path d="M443.3,421.7c.9.4,1.7.8,2.6,1.1.3.1.6.5,1.1.1.3-.2.3.5.6.6.8.3,1.6.7,2.4,1,.8.3,1.7.4,2.5.6.8.3,1.5.9,2.4.9.8,0,1.2.7,1.8.8.7.1,1.4.3,2,.8.4.3.8.7,1.3.8.3,0,.7-.1,1,0,.3.1.5.5,1,0,0,0,.1.1.2.2.2.5.6.6.9.5.4-.2.6,0,.8,0,.7.2,1.4.5,2,.8.5.2.9.6,1.4.9.5.3,1.2.2,1.5.7.4.5.8.6,1.3.8.3.1.5.5.9,0,0,0,.1,0,.2,0,.5,1.1,1.6.3,2.3.8.7.5,1.6.7,2.4,1,.2,0,.4.3.7,0,.1-.1.4,0,.4,0,.4.8,1.2.7,1.7,1,.7.4,1.5.4,2,1.1.2.3.6.6,1.2.1.3-.2.5.2.8.2.2,0,.5-.2.7,0,.2,0,.3.3.4.5,0,0,.1,0,.2,0,1.3-.2,2,1,3.1,1.2,1.1.2,2.1.7,3.2,1.1.6.3,1.1.6,1.1,1.9,0,.5-.2,1.1-.5,1.3-.3.2-.5.3-.8.3-.4,0-.7,0-1.1,0-.7,0-1.6.2-2.2-.3-.2-.2-.5,0-.6-.5,0,0,0-.1-.1-.1-1.2.4-2-.4-3-.7-.8-.2-1.8,0-2.5-.5-.7.4-1.1.1-1.5-.2-1.4-1.2-3.1-1.4-4.7-2.1-1.6-.7-3.2-1.2-4.8-1.9-.3-.1-.6.1-.9-.2-.2-.4-.7-.3-1-.5-.3-.1-.7-.1-1-.4-1-1.1-2.4-1.2-3.7-1.8-1.2-.6-2.5-1.1-3.8-1.4-.8-.2-1.7-.2-2.4-.6-.3-.2-.8,0-.9-.7,0-.2-.5.1-.7,0-.5-.2-1.1-.4-1.6-.6-.7-.3-1.4-.6-2.2-.9-.5-.1-1,0-1.4-.2-.5-.1-1-.3-1.4-.6-.6-.3-1.1-.7-1.6-1-.6-.3-1.3-.3-1.8-.8-.9-.9-2.1-1.1-3.1-1.6-1-.5-2.1-1-3.2-1.3-.6-.2-1-.9-1.6-1.1-.3-.1,0-1.6.2-2,0,0,.1-.2.2-.2.8-.2,1.6-.6,2.2-.3.9.5,1.9.8,2.9,1.3Z"/>
  <path d="M358.9,434.4c1.4-.1,2.9-.2,4.3-.5.5,0,1.1.1,1.6-.5.2-.3.8.3,1.3.2,1.3-.2,2.7-.3,4-.5,1.3-.2,2.6-.6,3.9-.8,1.3-.2,2.6,0,3.8-.6,1-.4,2.1,0,3.1-.3,1.1-.3,2.2-.5,3.3-.4.8,0,1.6.2,2.4,0,.5-.1.9-.5,1.4-.6.5,0,1.1.1,1.4-.5,0,0,.3,0,.4,0,.6.3,1.2.2,1.6-.1.4-.3.8-.4,1.2-.4,1.1-.2,2.2-.4,3.3-.5.8,0,1.7,0,2.5,0,.9,0,1.7-.5,2.6-.4.8.2,1.6,0,2.4-.1.4,0,1,.1,1.2-.6,0,0,.2,0,.3,0,1.4.6,2.4-.7,3.7-.8,1.3,0,2.6-.5,3.9-.8.3,0,.8,0,1-.5,0-.2.4-.3.6-.2,1.1.4,2-.2,3.1-.3,1.2-.1,2.2-.7,3.5-.5.5,0,1.2,0,1.7-.7.2-.3.8-.2,1.2-.4.3-.1.6-.5.9-.6.3,0,.6,0,.9.1,0,0,.2,0,.3,0,1.5-1,3.3-.6,4.9-1.2,1.6-.6,3.3-1,5-1.4.9-.2,1.9-.3,2.9.7.4.4.6,1,.3,1.4-.2.3-.5.6-.8.8-.5.2-1,.5-1.5.7-1,.5-1.9,1.3-3.1,1.3-.4,0-.7.4-1.1,0,0,0-.2,0-.3,0-1.3,1.1-3,1-4.4,1.5-1.3.4-2.4,1.3-3.7,1.3-.6.8-1.4.9-2.2.9-2.7,0-5.2,1-7.8,1.4l-7.9,1.5c-.4,0-.8.5-1.3.3-.5-.2-1.1.2-1.7.3-.5,0-1.1.3-1.6.3-2.2-.3-4.2.4-6.3.7-2.1.2-4.1.5-6.2,1-1.2.3-2.4.8-3.7.8-.5,0-1.1.4-1.7,0-.2-.1-.6.4-1,.4-.9.2-1.7.2-2.6.4-1.2.1-2.4.2-3.6.5-.7.1-1.4.5-2.2.6-.8.1-1.5.2-2.3.3-1,0-2,0-2.9,0-1,0-2,.4-3,.3-1.8-.3-3.6.1-5.4.2-1.8.1-3.6.3-5.3.5-1,.2-2-.2-3-.1-.5,0-1.2-1.4-1.1-1.9,0,0,0-.2.2-.3.9-.6,1.7-1.4,2.8-1.4,1.6,0,3.3-.3,4.9-.5Z"/>
  <path d="M260.1,447.9c1.9,1.5,3.8,3,5.7,4.4.7.5,1.3,1.3,2.4,1.4.5,0,.8,1.1,1.5,1.5,1.8,1.2,3.6,2.6,5.5,3.8,1.8,1.2,3.8,2.1,5.6,3.2,1.8,1.1,3.6,2.5,5.5,3.2,1.7.6,2.9,1.8,4.4,2.5,1.7.7,3.4,1.4,4.9,2.4,1.1.7,2.2,1.5,3.2,1.6.3,0,.6,0,.9,0,.3,0,.5-.1.7-.2.5,0,1.3,0,1.7-.9,0,0,.4,0,.6,0,.9,0,1.8-.5,2.3-1.1.5-.5,1-.8,1.6-1.2l2.3-1.4c.8-.5,1.5-1,2.3-1.4,1.2-.7,2.4-1.3,3.6-2,1.2-.8,2.3-1.8,3.6-2.4,1.3-.5,2.3-1.3,3.3-2,.6-.4,1.5-.7,1.6-1.6,0,0,.2-.2.4-.3,2.2-.6,3.2-2.7,5-3.8,1.9-1.2,3.6-2.7,5.3-4.1.5-.4,1.1-.6,1.2-1.3,0-.2.5-.6.8-.7,1.7-.5,2.8-1.9,4.2-2.9,1.6-1.1,2.9-2.6,4.7-3.4.8-.4,1.7-1,2.1-2.1.2-.5,1.1-.9,1.6-1.4.4-.4.7-1,1.1-1.4.4-.3.9-.5,1.4-.7.1,0,.3-.2.4-.3,1.7-2.3,4.4-3.5,6.4-5.5,2-2,4.2-3.9,6.3-5.8,1.2-1,2.4-2.1,4-2.1.7,0,1.1.4.9,1.1-.2.5-.4,1.1-.8,1.6-.6.7-1.1,1.5-1.7,2.2-1.2,1.4-2.2,3.1-3.8,4.2-.5.3-.8,1-1.5,1,0,0-.3.1-.4.2-1.4,2.3-3.7,3.7-5.7,5.4-1.6,1.5-2.9,3.3-4.8,4.6-.5,1.3-1.7,2.1-2.8,2.7-3.8,2.3-6.9,5.4-10.4,8l-5.3,4c-1.8,1.4-3.5,2.7-5.3,4-.6.4-.9,1.1-1.8,1.4-.8.3-1.6,1.1-2.4,1.6-.7.5-1.4,1.2-2.2,1.5-1.6.7-3.1,1.7-4.5,2.7-1.4,1-2.9,2-4.4,2.9l-2.3,1.3c-.8.4-1.5.9-2.3,1.3-1.6.8-3.1,1.7-5.2,2.3-.6.2-1.4.3-2.1.2-.7,0-1.4-.1-2-.3-1.3-.3-2.2-.7-3.2-1.2-.8-.4-1.9-.5-2.4-1.4-.2-.3-1.1-.2-1.7-.5-1.4-.6-2.6-1.3-3.9-2-1.8-1-3.6-2-5.3-3-1.1-.6-2.3-1-3.4-1.6-1.1-.6-2.2-1.3-3.3-2.1-1.3-1-2.6-2.1-3.9-3.1-1.4-1-3-1.8-4.1-3-2.1-2.2-4.7-3.8-7-5.7-2.3-1.9-4.6-3.8-7-5.5-1.4-1-2.2-2.4-3.5-3.4-.6-.5-.5-2.3,0-2.5.1,0,.3,0,.4,0,1.5.7,3.2,1,4.6,2.2,2.1,1.8,4.2,3.4,6.4,5.1Z"/>
  <path d="M243.1,427.2c-1,.7-2,1.4-3,2.2-.4.3-.9.4-.9,1.1,0,.4-.8.1-1.1.4-.9.8-1.8,1.4-2.7,2.2-.8.8-1.6,1.7-2.4,2.4-.8.8-1.9,1.3-2.4,2.3-.5.8-1.4,1-2,1.7-.6.7-1.2,1.5-2.1,2-.6.4-1.2.7-1.6,1.2-.3.3-.3.9-.6,1.2-.3.3-.8.5-.6,1.2,0,0-.2.1-.3.1-.6,0-1,.5-1,1,0,.5-.3.7-.5.9l-.2.3h0s0,0,0,0c0,0,0,0-.1,0,0,0-.5.1-.7.3,0,0,0,0,0,0,0,0,0,0,.1,0,0,0,.1,0,0,.2-.3.4,0,.3.2.3,0,0,.2.3.4-.4,0,0,0,0,0,0,0,.2,0,.3.2.3.2,0,.5-.1.7-.2.5-.2,1-.5,1.6-.5,1.1,0,2.2-.4,3.4-.6.3,0,.7,0,.8-.5,0-.2.4-.3.5-.2,1,.4,1.7-.2,2.6-.3,1-.1,1.9-.7,3-.6.5,0,1.1,0,1.4-.7.1-.3.7-.2,1-.4.3-.1.5-.5.7-.6.2,0,.6,0,.8,0,0,0,.2,0,.2,0,1.1-1.1,2.8-.8,4.2-1.5,1.3-.7,2.8-1.2,4.2-1.7.8-.3,1.7-.4,2.6.4.4.4.6.9.4,1.3-.2.3-.3.6-.6.8-.4.3-.8.6-1.2.8-.8.5-1.5,1.4-2.6,1.5-.3,0-.6.5-1,0,0,0-.2,0-.2,0-1,1.2-2.5,1.2-3.7,1.8-1.1.5-1.9,1.4-3.1,1.5-.4.8-1.2.9-1.9,1-2.4,0-4.5,1.1-6.9,1.6l-3.5.7-1.8.3h-.9c0,.1-.6.2-.6.2-.3,0-.5,0-.8,0-.7,0-1.4.4-2.1.1-.6-.3-1.7,0-2.3-.2-.6-.2-1.2-.3-1.5-.8-.1-.2-.3-.4-.4-.7l-.2-.4v-.2c-.2,0-.2-.1-.1-.2.2-.5.4-.9.6-1.4l.2-.7v-.3c.1,0,.2-.2.2-.2,0,0,.1-.1.2-.2.5-.6,1-1.1,1.5-1.7l1.4-1.5,1-1c.6-.7,1.2-1.4,1.8-2.1.7-.9,1.2-1.9,2.1-2.6.4-.3.5-.9,1.3-.8.2,0,.2-.6.4-.8.5-.6,1.1-1.1,1.7-1.6.8-.7,1.6-1.4,2.4-2.2.5-.5.8-1.1,1.2-1.5.5-.5,1-.9,1.6-1.3.7-.5,1.5-.9,2.2-1.4.7-.5,1.3-1.3,2.2-1.6,1.6-.6,2.7-1.7,4-2.6,1.3-.9,2.6-1.7,3.9-2.7.7-.6,1.7-.6,2.4-1.1.3-.2,1.6.7,1.7,1.2,0,0,0,.2,0,.3-.5.9-.7,1.9-1.5,2.4-1.2.7-2.4,1.6-3.5,2.4Z"/>
  <path d="M285.3,436.5c-.6-.4-1.2-.8-1.8-1.1-.2-.1-.3-.5-.8-.2-.3.2-.1-.5-.4-.6-.6-.3-1.1-.7-1.7-.9-.6-.3-1.2-.4-1.8-.6-.6-.2-1-.8-1.7-.8-.6,0-.8-.6-1.3-.8-.5-.1-1.1-.3-1.4-.7-.3-.3-.5-.7-.9-.7-.2,0-.6.2-.8,0-.2-.1-.3-.5-.8,0,0,0,0-.1-.1-.2,0-.5-.4-.6-.7-.4-.3.2-.5,0-.6,0-.5-.2-1-.4-1.5-.6-.4-.2-.6-.6-1-.8-.4-.2-.9-.1-1.1-.5-.3-.4-.6-.5-1-.7-.2,0-.3-.4-.7.1,0,0-.1,0-.1,0-.3-1-1.2-.2-1.8-.6-.5-.4-1.2-.5-1.9-.6-.2,0-.3-.3-.6.1-.1.1-.3.1-.3,0-.3-.7-.9-.5-1.3-.8-.5-.3-1.1-.1-1.6-.8-.2-.3-.5-.5-.9,0-.2.2-.4-.1-.6,0-.2,0-.4.2-.6.2-.1,0-.2-.3-.3-.4,0,0,0,0-.1,0-1,.4-1.6-.6-2.4-.6-.9,0-1.7-.2-2.5-.5-.4-.1-.9-.4-1-1.6,0-.5,0-1.1.3-1.4.2-.2.4-.4.6-.4.3,0,.6-.1.9-.2.6,0,1.2-.5,1.7-.1.2.1.4-.1.5.4,0,0,0,.1.1,0,.9-.6,1.6,0,2.4.2.7.1,1.4-.3,2,0,.5-.5.9-.3,1.2,0,1.1,1,2.5.9,3.7,1.4,1.3.5,2.6.8,3.8,1.3.2,0,.5-.2.7.2.1.3.5.3.8.4.3,0,.6,0,.7.3.7,1,1.9,1,2.8,1.5.9.5,1.9.9,2.9,1.2.6.2,1.3.1,1.9.5.2.2.6,0,.6.6,0,.2.4-.1.6,0,.4.1.8.4,1.2.6.6.3,1.1.6,1.6.8.3.1.8,0,1.1.2.4.1.7.3,1,.6.4.3.7.7,1.1,1,.4.3,1,.3,1.3.8.5.9,1.4,1.1,2.2,1.7.7.5,1.5,1,2.3,1.5.5.2.6.9,1,1.2.2.1-.4,1.5-.8,1.9,0,0-.2.1-.2.1-.7.1-1.4.5-1.8.1-.6-.5-1.3-.9-2-1.3Z"/>
  <path d="M325.4,382.5c-.6,1-1.3,1.9-1.9,2.9-.2.4-.7.6-.5,1.3.1.3-.7.3-.9.7-.5,1-1.2,1.8-1.8,2.8-.5.9-.9,1.9-1.4,2.9-.5.9-1.4,1.7-1.6,2.7-.2.9-1.1,1.3-1.5,2.1-.4.8-.8,1.6-1.5,2.2-.5.4-1,.9-1.3,1.4-.2.4,0,.9-.3,1.2-.2.3-.7.6-.4,1.2,0,0-.2.1-.3.2-.6.1-.8.6-.8,1.1,0,.4-.2.7-.3,1-.5.8-.9,1.5-1.5,2.3-.4.5-1,1-1.4,1.5-.4.6-.6,1.3-1.2,1.7-.6.4-.9.9-1.3,1.4-.2.3-.7.5-.3,1.1,0,0,0,.2-.1.2-1.3.4-.9,1.9-1.7,2.6-.8.8-1.3,1.8-1.9,2.7-.2.2-.5.4-.3.9,0,.2,0,.4-.3.5-1,.3-1.1,1.2-1.7,1.9-.6.7-.9,1.7-1.9,2.2-.4.2-.8.6-.6,1.3,0,.3-.4.6-.5.9-.1.3,0,.6-.2.9-.1.2-.5.3-.7.4,0,0-.1.1-.1.2-.3,1.5-1.8,2.1-2.5,3.4-.7,1.2-1.6,2.4-2.5,3.4-.5.6-1.1,1.1-2.4.9-.6-.1-1-.5-1.1-.9,0-.3,0-.7,0-1,.2-.4.4-.8.5-1.2.4-.8.5-1.8,1.2-2.4.2-.2.2-.6.7-.5,0,0,.2,0,.2-.1,0-1.5,1.2-2.2,1.9-3.2.6-.9.7-2.1,1.5-2.8-.2-.8.3-1.4.8-1.7,1.7-1.4,2.6-3.4,3.8-5.1,1.3-1.7,2.4-3.6,3.6-5.3.2-.3,0-.8.5-1,.4-.2.6-.7.8-1.1.2-.4.4-.8.7-1.1,1.5-1,2.1-2.7,3-4.1,1-1.4,1.9-2.8,2.7-4.2.5-.9.7-2,1.4-2.7.3-.3.3-.9,1-1,.2,0,0-.6.2-.9.3-.6.8-1.2,1.1-1.8.5-.8,1.1-1.6,1.6-2.5.3-.5.4-1.1.7-1.7.3-.6.6-1.1,1-1.6.5-.6,1.1-1.2,1.6-1.8.5-.7.7-1.5,1.4-2,1.2-.9,1.8-2.3,2.7-3.5.8-1.2,1.7-2.4,2.4-3.6.4-.7,1.2-1.1,1.7-1.7.2-.3,1.7,0,2,.5,0,0,.1.2.1.3,0,.9.2,1.9-.4,2.6-.8,1.1-1.5,2.2-2.2,3.3Z"/>
  <path d="M475.1,274.8c.6.7,1.1,1.5,1.7,2.1.2.3.3.7.9.6.3,0,0,.6.3.9.6.6,1.1,1.4,1.7,2,.6.6,1.3,1.2,1.9,1.8.6.6.9,1.5,1.6,2,.7.4.6,1.3,1.1,1.8.5.5,1,1.2,1.2,1.9.1.5.2,1.1.5,1.5.2.3.7.4.8.7.1.3,0,.8.7.8,0,0,0,.2,0,.3-.2.5,0,.9.4,1.1.4.2.4.4.6.7.3.7.6,1.5.7,2.3.1.6,0,1.2,0,1.8,0,.6.5,1.2.3,1.7-.2.6-.1,1.1,0,1.6,0,.1,0,.3,0,.5,0,.2.2.4.5.6,0,0,0,.2,0,.3-.4.7-.3,1.3-.5,2-.2.7-.5,1.4-1.2,1.7-.4.2-.7.3-1.1.4l-.4.2h-.3c0,.1-1.2.7-1.2.7-.2.1-.5,0-.5.5,0,.2-.2.3-.4.2-.8-.3-1.3.3-1.9.5-.7.2-1.3.8-2.2.6-.4,0-.8,0-.9.7,0,.3-.5.2-.7.4-.2.1-.3.5-.5.6-.2,0-.4,0-.7,0,0,0-.1,0-.2,0-.7,1.1-2.1.7-3,1.3-.9.6-2,1-3.1,1.4-.6.2-1.2.3-2.1-.6-.4-.4-.6-.9-.5-1.3,0-.3.2-.6.4-.7.3-.2.6-.5.8-.7.6-.5,1-1.2,1.8-1.3.2,0,.4-.4.7,0,0,0,.2,0,.2,0,.6-1.1,1.7-1.1,2.6-1.5.8-.4,1.2-1.3,2.1-1.4.2-.8.7-.9,1.2-.9,1.8,0,3.2-1.2,4.7-1.8.4-.2.8-.3,1.2-.5l.8-.4c.2,0,.3-.2.2-.4,0,0,0,0-.2,0,0,0,0,0,0-.2.2-.4,0-.7-.1-1.1,0-.3-.2-.6-.1-1,.4-1.4-.2-2.5-.6-3.7-.3-1.2-.7-2.4-1.4-3.4-.4-.6-1.1-1.1-1.4-1.9-.1-.3-.6-.4-.3-1,0-.2-.4-.2-.6-.4-.3-.4-.6-.9-.9-1.3-.4-.6-.8-1.2-1.3-1.8-.3-.3-.8-.6-1.1-.9-.4-.3-.7-.7-.9-1.1-.3-.5-.6-1.1-.9-1.7-.4-.5-1-.9-1.2-1.5-.3-1.2-1.3-2-2-2.9-.7-1-1.4-1.9-2.1-2.8-.5-.5-.4-1.3-.8-1.8-.2-.3.8-1.4,1.3-1.6,0,0,.2,0,.3,0,.7.3,1.6.3,2,.9.5.9,1.2,1.7,1.8,2.5Z"/>
  <path d="M479.7,264.7c-.2.2-.4.3-.6.6,0,0-.3,0,0,.4.1.2-.4-.2-.4,0-.1.2-.4.3-.5.5-.1.2-.2.5-.3.7-.1.2-.5.1-.5.5,0,.3-.4,0-.5.3,0,.2-.2.4-.5.4-.2,0-.5-.1-.5,0,0,.1.1.4,0,.5,0,0-.3-.1,0,.4,0,0,0,0-.1,0-.3-.3-.4-.2-.3.1.1.3,0,.3,0,.3-.1.2-.3.3-.5.4-.2,0-.4,0-.6,0-.2,0-.1.4-.4.2-.3-.2-.4,0-.5,0,0,0-.3-.1,0,.4,0,0,0,0,0,0-.7-.5-.2.5-.5.5-.3,0-.4.3-.6.4,0,0-.2,0,0,.3,0,.1,0,.2,0,.1-.5-.4-.5,0-.7,0-.2,0-.3.4-.7.1-.2-.1-.4-.1-.1.4.1.3-.1,0-.2.2,0,0,0,.3,0,.4,0,0-.2-.1-.3-.2,0,0,0,0,0,0,.1.7-.7.2-.8.5-.2.3-.5.4-.8.5-.2,0-.4,0-1.2-.9-.3-.4-.6-.9-.7-1.2,0-.2-.2-.5-.1-.5,0-.1,0-.3,0-.4,0-.3,0-.8.3-.7.1,0,0-.3.3.1,0,0,0,0,0,0-.2-.8.3-.5.5-.7.2-.2,0-.8.3-.7-.3-.6,0-.6.2-.5.8.3.9-.4,1.3-.6.4-.2.8-.6,1.2-.8,0,0,0-.4.1-.2.2.2.2,0,.3-.1,0,0,0-.2.2-.2.7.3.7-.2,1.1-.4.3-.2.7-.4.9-.7.1-.2,0-.6.3-.7.1,0,0-.3.4,0,.1.1,0-.3,0-.4,0-.1.2-.2.3-.3.2-.1.4-.2.5-.4,0-.1,0-.4,0-.5,0-.1.2-.2.3-.3.2,0,.4,0,.6,0,.2,0,.1-.4.4-.3.6.2.6-.2.9-.4.3-.2.5-.3.7-.7,0-.2.5,0,.7,0,0,0,1.1.9,1.5,1.3,0,0,.1.2.1.2.2.5.6,1.1.4,1.2-.3.2-.5.4-.7.6Z"/>
  <path d="M476.4,253c.1.2.2.4.3.5,0,0-.1.2.4,0,.3,0-.3.3-.2.3.2.1.1.3.3.5.1.1.4.2.5.4.1.1,0,.4.3.5.3,0-.1.3,0,.4.2,0,.3.2.1.4-.1.1-.3.3-.2.4,0,0,.4,0,.4,0,0,0-.2.2.4,0,0,0,0,0-.1,0-.4.2-.3.2,0,.2.3,0,.3,0,.3,0,0,.1.1.2.1.4,0,.1-.2.3-.3.4,0,.1.3.1,0,.3-.3.2-.2.3-.2.3,0,0-.2.2.4,0,0,0,0,0,0,0-.8.4.3.2.2.4-.2.2,0,.3,0,.4,0,0-.1.1.3,0,.2,0,.2,0,0,0-.6.3-.2.3-.2.4,0,.2.2.2-.2.4-.2.1-.3.2.3,0,.3,0,0,0,.1.1,0,0,.3,0,.3,0,0,0-.2.1-.3.2,0,0,0,0,0,0,.7,0,0,.4.1.5.2,0,.2.3.2.4,0,.1-.1.3-1.1.9-.4.3-.9.5-1.2.6-.2,0-.5.1-.5.1-.1,0-.3,0-.4,0-.2,0-.8,0-.6-.2,0,0-.2,0,.2-.2,0,0,0,0,0,0-.8.1-.4-.3-.5-.4-.1-.1-.8,0-.6-.3-.6.1-.6,0-.4-.2.5-.5,0-.7,0-1,0-.3-.2-.6-.2-.9,0,0-.4,0-.1-.1.2-.1,0-.1,0-.2,0,0-.2,0,0-.2.6-.4.1-.5.1-.8,0-.2,0-.5-.2-.7-.1-.1-.5-.1-.4-.3,0,0-.3,0,.2-.3.2,0-.3,0-.3,0,0,0,0-.2-.1-.2,0-.1,0-.2-.1-.3,0,0-.3,0-.4,0,0,0-.1-.1,0-.2,0-.1.2-.3.2-.4,0-.1-.3,0,0-.3.4-.4,0-.4,0-.6,0-.2,0-.3-.3-.4-.1,0,.2-.4.2-.5,0,0,.3-.3.6-.5.3-.3.7-.6.9-.7,0,0,.2-.1.2-.1.4-.2,1.1-.5,1.2-.4,0,.2.3.4.4.6Z"/>
  <path d="M465.3,254.3c.1,0,.3,0,.4-.2,0,0,.2.2,0-.3,0-.3.2.3.3.3.1-.1.3,0,.4-.2.1-.1.2-.4.3-.5.1-.1.3.1.3-.2,0-.3.3.1.3,0,0-.2.1-.3.3,0,.1.1.3.3.3.2,0,0,0-.4,0-.4,0,0,.2.2,0-.4,0,0,0,0,0,.1.2.4.3.3.2,0,0-.3,0-.3,0-.3,0,0,.2-.1.3-.1,0,0,.3.2.4.2.1,0,0-.3.3,0,.2.3.3.2.3.2,0,0,.2.2,0-.4,0,0,0,0,0,0,.4.7.2-.3.4-.2.2.1.3,0,.5-.1,0,0,.1.1,0-.3,0-.2,0-.2,0,0,.3.6.3.2.5.2.2,0,.3-.2.5.2.1.2.2.3.2-.3,0-.3.1,0,.2,0,0,0,0-.3.1-.3,0,0,.1.2.2.3,0,0,0,0,0,0,.3-.7.6.2.8,0,.3-.2.6,0,.9.1.2,0,.3.3,0,1.4-.1.5-.4,1-.5,1.3-.1.2-.2.4-.2.5,0,0-.1.2-.2.3-.1.2-.2.7-.2.4,0,0,0,.2,0-.3,0,0,0-.1,0,0-.1.8-.2.3-.3.3,0,0,0,.7-.2.4,0,.6,0,.5,0,.3-.3-.6-.4-.1-.6-.2-.2,0-.4.1-.7.2,0,0,0,.4,0,.1-.1-.2-.1,0-.2,0,0,0,0,.2-.2,0-.4-.5-.5,0-.7,0-.2,0-.4,0-.6.3,0,.1,0,.5-.3.4,0,0,0,.3-.3-.2,0-.2,0,.3,0,.3,0,0-.2,0-.2.1-.1,0-.2,0-.3.1,0,0,0,.3,0,.4,0,0-.1.1-.2,0-.1,0-.3-.2-.4-.2-.1,0-.1.3-.3,0-.4-.4-.4-.1-.6,0-.2,0-.4,0-.5.2,0,.1-.3-.3-.4-.3,0,0-.6-1.3-.8-1.8,0,0,0-.2,0-.2,0-.5-.3-1.2-.1-1.2.2,0,.3-.1.5-.2Z"/>
  <path d="M464.7,264.4c-.1-.1-.2-.3-.3-.4,0,0,.1-.2-.4,0-.2.1.3-.3.2-.3-.1,0-.1-.3-.3-.4-.1-.1-.4-.1-.5-.2-.1-.1,0-.4-.3-.4-.3,0,.1-.3,0-.4-.2,0-.3-.2-.1-.4.1-.1.3-.3.2-.4,0,0-.4,0-.4,0,0,0,.2-.2-.4,0,0,0,0,0,.1,0,.4-.2.3-.2,0-.2-.3,0-.3,0-.3,0,0-.1-.1-.2,0-.4,0-.1.2-.3.3-.4,0-.1-.3-.2,0-.3.3-.1.3-.2.2-.3,0,0,.3-.1-.4-.1,0,0,0,0,0,0,.8-.2-.3-.3-.1-.4.2-.2,0-.3,0-.5,0,0,.2,0-.3-.1-.2,0-.2,0,0,0,.6-.1.2-.2.3-.4.1-.1-.2-.3.3-.4.2,0,.3-.1-.3-.2-.3,0,0-.1,0-.2,0,0-.3-.1-.3-.2,0,0,.2,0,.4,0,0,0,0,0,0,0-.6-.3.3-.4.1-.6-.1-.2,0-.4.1-.6,0,0,.3-.2,1.4,0,.5.1,1,.3,1.3.4.2,0,.4.2.5.2,0,0,.2.1.3.2.2.1.7.3.4.3,0,0,.2,0-.3,0,0,0-.1,0,0,0,.8.2.2.3.3.4,0,.1.7.3.4.3.6,0,.5.1.3.2-.7.1-.2.3-.3.5,0,.2,0,.4,0,.5,0,0,.4,0,0,0-.3,0,0,0,0,.1,0,0,.1,0,0,.1-.6.3-.2.3-.2.5,0,.2,0,.3.2.4.1,0,.5,0,.4.1,0,0,.3,0-.2.2-.2,0,.3,0,.3,0,0,0,0,.1,0,.2,0,0,0,.2.1.2,0,0,.3,0,.4,0,0,0,.1,0,0,.1,0,0-.2.3-.2.3,0,0,.3,0,0,.2-.4.4,0,.4,0,.5,0,.1,0,.3.3.3,0,0-.2.4-.2.4,0,0-.2.3-.6.6-.3.3-.7.7-.9.8,0,0-.2.1-.2.1-.4.2-1,.7-1.1.5,0-.2-.2-.3-.3-.5Z"/>
  <path d="M470.8,265.4c0,0-.2,0-.2,0,0,0-.1-.2,0,.3,0,.3-.1-.3-.2-.3,0,0-.2,0-.2,0,0,0,0,.3-.1.4,0,0-.2-.2-.2.1,0,.3-.2-.2-.2,0,0,.1,0,.2-.2,0,0-.2-.2-.4-.2-.3,0,0,0,.4,0,.4,0,0-.1-.3,0,.3,0,0,0,0,0-.1-.1-.4-.1-.4-.1,0,0,.3,0,.2,0,.3,0,0-.1,0-.2,0,0,0-.1-.3-.2-.3,0,0,0,.2-.2,0,0-.3-.1-.3-.2-.3,0,0,0-.3,0,.4,0,0,0,0,0,0-.2-.8-.1.3-.2,0-.1-.2-.2,0-.2,0,0,0,0-.2,0,.3,0,.2,0,.2,0,0-.1-.6-.1-.2-.2-.3,0-.1-.1.2-.2-.3,0-.2,0-.3,0,.3,0,.3,0,0,0,0,0,0,0,.3,0,.3,0,0,0-.2,0-.3,0,0,0,0,0,0,0,.7-.2-.2-.3,0,0,.2-.2.1-.3,0,0,0-.1-.2-.1-1.4,0-.5,0-1.1,0-1.4,0-.2,0-.5,0-.5,0,0,0-.2,0-.3,0-.2,0-.7.1-.4,0,0,0-.2,0,.3,0,0,0,.1,0,0,0-.8.1-.3.2-.3,0,0,0-.7.2-.4,0-.6,0-.5,0-.3.2.7.2.2.4.3.1,0,.2,0,.3,0,0,0,0-.4,0,0,0,.3,0,0,0,0,0,0,0-.1,0,0,.2.6.2.2.3.3.1,0,.2.1.3,0,0-.1,0-.5.1-.3,0,0,0-.3.1.3,0,.2,0-.3,0-.3,0,0,0,0,.1,0,0,0,.1,0,.1,0,0,0,0-.3,0-.4,0,0,0,0,0,0,0,0,.1.3.2.3,0,0,0-.2.1,0,.2.5.2.2.3.2,0,0,.2,0,.2,0,0,0,.2.4.3.4,0,0,.1.3.3.7.1.4.3.9.4,1.1,0,0,0,.2,0,.2,0,.5.3,1.2.2,1.1-.1,0-.2,0-.3,0Z"/>
  <path d="M471.2,247.6c-.1,0-.3,0-.4,0,0,0-.1-.2-.1.3,0,.3,0-.4-.1-.3-.1,0-.3,0-.4,0-.1,0-.2.3-.3.4-.1,0-.3-.2-.3.2,0,.3-.2-.2-.3,0,0,.2-.1.3-.3,0-.1-.1-.3-.3-.3-.2,0,0,0,.4,0,.4,0,0-.2-.2,0,.4,0,0,0,0,0-.1-.2-.4-.3-.3-.2,0,0,.3,0,.2,0,.3,0,0-.2.1-.3.1,0,0-.3-.2-.4-.2-.1,0,0,.3-.3,0-.2-.2-.3-.2-.4-.1,0,0-.2-.2,0,.4,0,0,0,0,0,0-.5-.7-.1.4-.3.3-.2-.1-.3,0-.4.2,0,0-.2-.1,0,.3,0,.1,0,.2,0,0-.4-.5-.3,0-.5-.1-.2,0-.2.3-.5,0-.2-.1-.3-.2,0,.3.1.2,0,0-.1.1,0,0,.1.3,0,.3,0,0-.2-.2-.2-.3,0,0,0,0,0,0,.3.6-.3,0-.2,0,.1.2,0,.1,0,0,0,0-.2,0-1.2-.5-.4-.2-.9-.4-1.2-.6-.2-.1-.4-.3-.5-.4,0-.1-.2-.3-.2-.4,0-.3-.4-.8,0-.8.1,0,0-.3.4,0,0,0,.1,0,0,0-.3-.8.3-.6.5-.8.1-.2,0-.8.3-.7-.2-.6,0-.5,0-.4.6.4.7-.2,1-.2.3,0,.6-.3.9-.5,0,0,0-.4.1-.2.2.2.2,0,.2,0,0,0,0-.2.2,0,.5.5.6,0,.9,0,.3,0,.6-.1.8-.4.1-.2.2-.5.4-.5,0,0,0-.3.3.2,0,.2,0-.3,0-.3.1,0,.2,0,.4-.1.2,0,.4,0,.5-.1.1,0,.2-.3.3-.4.1,0,.2-.1.4,0,.2,0,.3.2.5.3.2,0,.3-.2.5,0,.3.5.6.2.9.3.3,0,.5.1.8,0,.2,0,.2.5.4.5,0,0-.2,1.5-.3,2,0,0,0,.2,0,.2-.2.4-.4,1.1-.5,1.1-.1,0-.3,0-.4,0Z"/>
  <path d="M473.5,254.4c0-.1,0-.3-.2-.4,0,0,.2-.2-.3,0-.3,0,.3-.2.3-.2-.1,0,0-.2-.2-.3-.1,0-.4-.1-.5-.2-.1,0,.1-.3-.2-.3-.3,0,.1-.3,0-.3-.2,0-.3-.1,0-.3.1-.1.3-.3.2-.3,0,0-.4,0-.4,0,0,0,.2-.2-.4,0,0,0,0,0,.1,0,.4-.2.3-.3,0-.2-.3,0-.2,0-.3,0,0,0-.1-.2-.1-.3,0,0,.2-.3.2-.4,0-.1-.3,0,0-.3.3-.2.2-.3.2-.3,0,0,.2-.2-.4,0,0,0,0,0,0,0,.7-.4-.3-.1-.2-.3.1-.2,0-.3-.1-.4,0,0,.1-.1-.3,0-.2,0-.2,0,0,0,.5-.3.1-.3.2-.4,0-.2-.2-.1.2-.4.2-.1.2-.2-.3,0-.3,0,0,0-.1,0,0,0-.3,0-.3,0,0,0,.2-.1.3-.2,0,0,0,0,0,0-.7.1,0-.4-.2-.5-.2,0-.2-.3-.2-.5,0-.1.1-.3,1.2-.8.5-.2,1-.4,1.3-.5.2,0,.5-.1.5-.1.1,0,.3,0,.4,0,.2,0,.8,0,.5.1,0,0,.2,0-.2.2,0,0,0,0,0,0,.8-.2.4.2.5.3,0,0,.7,0,.5.2.6-.2.5,0,.4,0-.5.5,0,.5,0,.8,0,.3.2.5.3.7,0,0,.4,0,.1,0-.2.1,0,.1,0,.2,0,0,.2,0,0,.1-.5.4,0,.5,0,.7,0,.2,0,.4.3.5.1,0,.5,0,.4.2,0,0,.3,0-.2.3-.1,0,.3,0,.3,0,0,0,0,.1.1.2,0,.1,0,.2.2.3,0,0,.3,0,.4,0,0,0,.1.1,0,.2,0,.1-.2.3-.2.4,0,.1.3,0,0,.3-.4.4,0,.4,0,.6,0,.2,0,.4.2.5.1,0-.3.3-.3.4,0,0-1.3.7-1.8.9,0,0-.2,0-.2,0-.5,0-1.2.3-1.2.2,0-.2-.1-.3-.2-.4Z"/>
  <path d="M457.4,241.6c.2-.2.5-.5.7-.7,0-.1.3,0,0-.5-.1-.2.4.1.5,0,.2-.3.5-.4.7-.6.2-.2.3-.6.5-.8.2-.2.6-.1.7-.6,0-.4.5,0,.7-.3.2-.2.4-.4.7-.3.2,0,.5.2.6,0,0-.1,0-.4.2-.5.1,0,.3.2.2-.4,0,0,0,0,.1.1.3.3.4.3.4,0,0-.3.1-.3.2-.3.2-.1.5-.2.8-.2.3,0,.6.2.9.2.3,0,.7-.3.9,0,.2.3.5.3.7.4.2,0,.2.4.5-.2,0,0,0,0,0,0,0,.5.2.5.5.5.3,0,.6,0,.7.2.2.5.6.7.9,1.1,0,0,0,.2.4,0,.1,0,.2,0,.1,0-.4.5,0,.5,0,.7,0,.3.4.3.1.8-.1.2-.1.4.4.2.3,0,0,.1.2.2,0,0,.3,0,.4,0,0,0-.1.2-.2.3,0,0,0,0,0,0,.8,0,.2.7.5.9.3.2.5.5.6.9,0,.2,0,.5-.9,1.1-.4.3-.9.6-1.2.7-.2,0-.5.1-.6,0-.1,0-.3,0-.4-.1-.3,0-.8,0-.7-.3,0-.1-.3,0,.1-.3,0,0,0,0,0,0-.8.2-.5-.4-.7-.6-.2-.2-.8,0-.7-.4-.6.2-.6,0-.5-.2.3-.8-.3-1-.5-1.4,0-.2-.1-.2-.2-.3,0,0-.2.3,0,0,0-.3,0,0,0,0,0,0,0,.1,0,0,0-.3-.1-.4-.2-.4,0,0-.2.1-.3.1-.3,0-.7,0-1,.4-.2.2-.2.6-.4.5-.1,0,0,.3-.4-.2,0-.1,0,.3,0,.3-.1.1-.2.1-.4.2-.2,0-.4.2-.5.3,0,0,0,.4,0,.5,0,.1-.2.2-.3.2-.2,0-.4,0-.6,0-.2,0-.1.4-.4.3-.6-.2-.6.2-.8.4-.2.2-.5.4-.6.7,0,.2-.5,0-.6.1,0,0-1.3-.7-1.7-1,0,0-.2-.1-.2-.2-.3-.4-.8-1-.6-1.2.3-.3.5-.6.7-.9Z"/>
  <path d="M415.6,245.7c-3.4-.9-6.7-1.9-10-2.8-1.2-.4-2.4-1-3.9-.9-.7,0-1.7-.9-2.9-1.3-3.1-.9-6.1-2-9.2-3.1-3-1-6-1.9-9-2.9-2.9-1.1-5.8-2.5-8.7-3.4-2.5-.7-4.5-2.2-6.8-3-2.5-.9-5-2-7.2-3.3-1.6-.9-3.2-1.9-5-2.6-1.1-.4-2.2-.6-3.3-1.2-1.1-.5-2.1-1.4-3.3-1.2-.1,0-.5-.3-.7-.5-1-.9-2.4-1.6-3.5-1.8-1.1-.2-1.9-.6-2.7-1.1-2.4-1.2-4.8-2.3-7.1-3.6-1.8-.9-3.4-2.1-5.1-3-1.8-1-3.9-1.8-5.5-2.9-1.6-1.2-3.2-2-4.8-2.9-.9-.5-1.9-1.3-3-1.2,0,0-.4-.2-.6-.3-2.3-2.2-5.4-2.6-8.1-4.3-2.7-1.7-5.6-3.1-8.5-4.7-.8-.4-1.5-1-2.4-1-.3,0-1.1-.4-1.4-.7-1.8-1.7-4.2-2.6-6.2-3.9-2.4-1.5-4.9-2.6-7.1-4.4-.9-.8-2.3-1.7-3.8-1.9-.7,0-1.7-1-2.7-1.5-.8-.4-1.6-.5-2.3-1-.6-.3-1.1-.9-1.7-1.4-.2-.1-.4-.3-.6-.3-3.9-1.5-6.9-4.3-10.5-6.3-3.6-2-7.1-4.2-10.6-6.5-1.9-1.3-3.8-2.7-4.5-4.5-.3-.8,0-1.3,1-1,.7.2,1.5.4,2.3.8,1.2.6,2.3,1.2,3.4,1.8,2.3,1.2,4.8,2.1,7,3.8.7.5,1.7.8,2,1.6,0,.1.3.3.5.4,3.5,1.2,6.5,3.6,9.7,5.4,2.7,1.6,5.7,2.5,8.3,4.3,1.8.3,3.5,1.4,5,2.5,5.1,3.7,10.7,6.3,16.1,9.4,5.5,3.1,11.1,6.1,16.6,9.1.9.5,1.9.6,2.9,1.5.9.8,2.4,1.3,3.6,2,1.1.6,2.4,1.1,3.3,1.8,4.1,2.8,8.7,4.8,13.1,7.1,4.4,2.3,8.8,4.5,13.3,6.5,2.8,1.2,5.6,2.2,8.3,3.6,1.1.6,2.5.8,3.4,1.9.3.3,1.5.4,2.3.7,1.9.8,3.8,1.6,5.7,2.5,2.6,1.1,5.2,2.3,7.9,3.3,1.6.6,3.3,1,5,1.6,1.7.6,3.4,1.2,5.1,1.9,2.1.9,4.2,1.8,6.4,2.6,2.3.8,4.7,1.3,6.8,2.3,3.9,1.8,8.1,2.7,12.2,3.9,4.1,1.2,8.2,2.2,12.3,3,2.4.5,4.4,1.4,6.7,1.9,1.1.2,2.2,2,1.7,2.4-.1,0-.3.1-.5.1-2.4,0-4.6.3-7.2-.4-3.8-.9-7.7-1.8-11.5-2.8Z" fill="#aaca60"/>
  <path d="M523.1,343.3l-.4-2.9c-.2-1-.4-1.9-.6-2.9-.2-.7-.1-1.5-.8-2.1-.4-.3.1-1.1,0-1.8-.6-1.7-1-3.5-1.7-5.2-.3-.8-.7-1.6-1.1-2.4l-1.2-2.4c-.4-.8-.7-1.6-1-2.5-.3-.8-.8-1.6-1.3-2.3-.9-1.2-1.1-2.6-1.9-3.8-.8-1.3-1.7-2.6-2.2-4-.4-1-.8-2-1.4-2.9-.4-.5-1-.9-1.4-1.5-.3-.6-.5-1.4-1.4-1.5,0,0-.1-.3-.2-.5,0-.8-.6-1.6-1.1-1.9-.6-.3-.8-.8-1.2-1.2-.9-1.2-1.8-2.5-2.6-3.7-.6-.9-1.1-2-1.7-2.9-.7-1-1.7-1.8-2.1-2.9-.5-1-1.1-1.9-1.8-2.7-.4-.5-.6-1.2-1.4-1.2,0,0-.2-.2-.2-.3-.3-.9-.9-1.5-1.5-2.1-.7-.5-1.4-1-2-1.7-1-1.5-2.5-2.7-3.8-4-.4-.3-.6-.8-1.3-.8-.2,0-.6-.3-.7-.6-.5-1.4-1.9-2-2.9-3-1.1-1.1-2.6-1.8-3.5-3.2-.4-.6-1.1-1.2-2.1-1.2-.5,0-.9-.6-1.4-.9-.4-.2-.9-.3-1.3-.5-.3-.2-.6-.6-.8-.9,0,0-.2-.2-.3-.2-.6-.2-1.1-.4-1.6-.7-.5-.3-1-.6-1.5-.9-1-.6-1.9-1.3-3-1.7-2.1-.8-4.3-1.7-6.5-2.5-1.2-.4-2.4-.9-3-2.3-.3-.6-.1-1.1.5-1.3.5-.1,1-.2,1.5-.1.8.1,1.6.2,2.3.3,1.5.3,3.2.3,4.6,1.2.4.3,1.1.2,1.3.9,0,0,.2.2.3.2.6,0,1.1.2,1.7.3.5.2,1,.4,1.5.7,1,.6,1.9,1.1,2.9,1.7,1.6.9,3.6,1.3,5,2.6,1.2,0,2.2.8,2.9,1.7.6.7,1.3,1.3,2,2,.7.6,1.4,1.2,2.1,1.8,1.5,1.2,2.8,2.4,4.2,3.7,2.6,2.7,5.3,5.3,7.7,8.2.4.5,1,.7,1.3,1.4.3.7,1,1.3,1.5,1.9.5.6,1.1,1.1,1.4,1.8.6,1.4,1.5,2.6,2.3,3.7.9,1.2,1.8,2.3,2.6,3.5,1.6,2.4,3.2,4.9,4.9,7.2,1,1.4,2.3,2.8,3.1,4.4.4.7,1,1.2.9,2.2,0,.3.7.7,1,1.1.7,1,1.2,2.2,1.8,3.2.8,1.5,1.5,3.1,2.3,4.6.5.9,1.1,1.8,1.6,2.7.5,1,.9,2,1.2,3.1.4,1.3.7,2.7,1.1,4.1.3,1.4,1.1,2.8,1.1,4.2,0,1.3.3,2.6.5,3.8.2,1.3.5,2.5.6,3.8.1,1.3.3,2.5.3,3.8v1.9c.1,0,.2,1.9.2,1.9,0,.7,0,1.4-.2,2.1-.2.7-.3,1.4-.4,2.1,0,.7-1.6,1.4-2.1,1.1,0,0-.2-.2-.2-.3-.2-.7-.4-1.3-.6-2-.2-.7-.3-1.3-.3-2.1.1-2.2,0-4.4-.3-6.6Z" fill="#aaca60"/>
  <g>
    <path d="M271.1,89.1c-29.9,17.1-61.1,31.6-93.4,43.5,3,14.3,5.1,28.8,6.3,43.3,2.1,26.3,1.2,52.7.3,79.1,18.9-9.8,36.1-22.6,53.2-35.3,14.4-10.7,28.8-21.5,43.3-32.2,1.1-.8,2.3-1.7,3-2.9,1.3-2.3.8-5.1.3-7.7-6-29.1-9.6-58.8-10.9-88.5" fill="#aaca60"/>
    <path d="M278.1,128.6c.8,7.2,1.8,14.3,2.9,21.4.4,2.6.6,5.4,1.6,8,.5,1.3.3,4,.8,6.4.6,3.3,1.3,6.6,1.9,9.9.3,1.6.7,3.3.9,5.1.2,1.8.2,4.1-1,6.1-.6,1-1.3,1.7-2,2.4-.7.6-1.4,1.1-2,1.6l-3.9,3c-2.6,2-5.2,4-7.8,6-5.2,3.9-10.7,7.7-15.5,11.7-4.2,3.5-8.4,6-12.5,9.2-4.3,3.4-8.9,6.8-13.3,9.8-3.3,2.2-6.6,4.3-9.7,6.6-2,1.5-3.7,3-5.9,4.5-2.1,1.4-4.5,2.7-6,4.4-.1.1-1.1.7-1.6.9-2.5,1.1-5.2,2.9-7,4.3-1.7,1.4-3.4,2.3-5.2,3.3l-4.1,2.3-7.3,3.9h-.1c0,0,0,0,0,0v-.2s0-.5,0-.5v-1s0-2,0-2v-4c.1,0,.3-4.9.3-4.9.2-4.1.5-8.2.7-12.4.2-4.3,0-8.9.3-12.9.4-4,.4-7.8.4-11.7,0-2.2.3-4.8-.4-6.6,0-.2,0-1,0-1.4.7-6.4-.6-12.6-.8-19-.2-6.6-.9-13.3-1.8-20-.2-1.8-.3-3.7-1-5.3-.2-.6-.5-2.4-.5-3.3,0-5-1.3-10.1-2.2-15.1-.2-1-.4-2-.6-3l-1-4.9,4.4-1.7,2.7-1c1.8-.6,3.6-1.2,5.4-1.8,2.4-.7,5.6-1.8,8.1-3.5,1.2-.8,3.9-1.6,5.8-2.5,1.6-.7,3-1.6,4.6-2.3,1.4-.6,2.8-1,4.2-1.5.4-.1.9-.4,1.3-.6,7.5-4,15.5-6.7,23.1-10.7,7.6-3.9,15.4-7.8,23-11.9,4.2-2.2,8.6-4.4,11.9-5.1,1.5-.3,1.8.2.2,1.5-1.2.9-2.6,2-4,2.9-2.3,1.4-4.7,2.9-7,4.2-4.8,2.8-9.4,5.8-14.6,8.2-1.6.7-3.4,1.9-4.9,2.1-.2,0-.9.3-1.2.5-6.5,4.1-13.9,7-21,10.2-6,2.7-11.7,5.8-17.9,8.1-3.1,2-7.2,3.5-10.7,4.6l-5.1,1.7-2.5.9h-.3c0,.1,0,.1,0,.1h-.1s-.2,0-.2,0v.5c0,0,.3,1.1.3,1.1l.7,3.5c.4,2.3.9,4.7,1.3,7,.8,4.7,1.5,9.4,2.1,14.2,1.6,13.2,2.5,26.6,2.7,39.9,0,2.3.4,4.2.2,6.9-.2,2.5,0,5.7,0,8.6,0,2.7,0,5.4-.1,7.9-.4,5.2-.6,10.4-.8,15.6l-.2,7.8v3.3c0,0-.1,1.4-.1,1.4,0,0,0,0,0,0h.1c0,0,.3-.2.3-.2l.5-.3,2.8-1.5c2.2-1.3,4.5-2.5,6.7-3.9,4.4-2.7,8.7-5.5,12.9-8.4,5.1-3.6,10-7.5,15.2-11.1,2.2-1.5,4.3-3.5,6.8-4.6.7-.3,2.5-2.2,3.9-3.2,3.4-2.6,6.9-5.2,10.4-7.8,4.8-3.6,9.7-7.2,14.5-10.8,2.9-2.2,5.7-4.6,8.6-6.8,3-2.3,6.2-4.7,9.3-6.9,1-.7,2-1.4,2.6-2,.7-.6,1-1.1,1.2-1.8.2-.8.2-1.7.1-2.8-.1-1.1-.4-2.2-.6-3.4-1-5-2.2-10.1-2.8-14.9-1-9-2.6-17.8-3.7-26.7-1.1-8.9-1.9-17.8-2.7-26.7-.5-5-.2-9.7-.5-14.6-.1-2.3,1.2-5.5,1.8-4.6.1.2.2.5.3.9.7,4.8,1.6,9.2,2,14.7.5,8.1,1.3,16.3,2.2,24.4Z" fill="#aaca60"/>
  </g>
  <path d="M189.4,244.4c1.7-2.6,3.3-5.3,4.9-8,.6-1,1.4-1.9,1.6-3.2,0-.7,1.2-1.3,1.7-2.2,1.4-2.5,3-5,4.4-7.5,1.4-2.5,2.6-5,4-7.5,1.4-2.5,3-4.8,4.1-7.4.9-2.2,2.4-3.8,3.3-5.8,1-2.1,2.1-4.3,3.5-6.3,1-1.4,1.9-2.8,2.6-4.3.4-1,.6-2,1.2-3,.5-.9,1.3-1.9,1.2-3,0,0,.3-.5.5-.6.9-.8,1.5-2.1,1.7-3.1.2-1,.6-1.7,1-2.5,1.1-2.1,2.1-4.3,3.3-6.4.9-1.6,1.9-3.1,2.7-4.6.9-1.6,1.5-3.6,2.6-5,1-1.4,1.8-2.9,2.5-4.4.4-.9,1.2-1.8,1-2.7,0,0,.1-.4.3-.5,2-2.1,2.2-5,3.6-7.5,1.4-2.5,2.6-5.2,3.8-7.9.3-.7.8-1.4.7-2.2,0-.3.3-1,.6-1.4,1.5-1.7,2.1-3.9,3.1-5.9,1.2-2.2,2-4.7,3.5-6.8.6-.9,1.4-2.2,1.4-3.6,0-.7.8-1.7,1.1-2.5.3-.7.3-1.5.6-2.2.3-.6.7-1.1,1.1-1.6.1-.2.2-.4.3-.6.9-3.6,3.3-6.6,4.6-10.1,1.4-3.5,3-6.9,4.6-10.3.9-1.9,1.9-3.7,3.6-4.5.7-.4,1.2-.1,1.2.8,0,.7-.1,1.5-.4,2.2-.4,1.1-.8,2.2-1.1,3.3-.8,2.3-1.3,4.6-2.6,6.8-.4.7-.5,1.6-1.2,2-.1,0-.3.3-.3.5-.6,3.3-2.5,6.2-3.9,9.3-1.1,2.6-1.7,5.4-3.2,7.9,0,1.7-1,3.4-1.8,4.7-3,4.8-5,10.2-7.5,15.3-2.6,5.1-4.9,10.4-7.5,15.5-.4.9-.5,1.8-1.2,2.7-.7.9-1.1,2.2-1.7,3.3-.5,1-.9,2.2-1.6,3.1-2.6,3.7-4.3,8-6.4,12-2.1,4-4.2,7.9-6.2,12-1.2,2.5-2.2,5-3.6,7.4-.6,1-.9,2.3-2,3-.3.2-.4,1.4-.8,2.1-.9,1.7-1.8,3.3-2.7,5-1.3,2.3-2.6,4.6-3.8,6.9-.8,1.4-1.3,2.9-2.1,4.3-.8,1.5-1.6,2.9-2.5,4.4-1.1,1.8-2.4,3.5-3.5,5.3-1.2,1.9-2.1,4-3.4,5.6-2.5,3.1-4.3,6.5-6.4,9.8-2.1,3.3-4.2,6.5-6.3,9.8-1.2,1.9-2.7,3.2-3.9,5-.6.8-2.6,1.1-2.7.5,0-.1,0-.3,0-.5.8-2,1.3-4,2.7-5.9,2-2.9,3.9-5.9,5.8-8.9Z" fill="#fff"/>
  <path d="M273,177.6c-1.6-.9-3.2-1.7-4.9-2.5-.6-.3-1.1-.8-2-.6-.4,0-.8-.8-1.3-1-1.6-.6-3.1-1.4-4.7-2.1-1.6-.6-3.2-1.1-4.7-1.7-1.6-.6-3-1.6-4.6-1.9-1.4-.3-2.3-1.2-3.6-1.7-1.3-.4-2.7-.9-3.9-1.7-.9-.6-1.7-1.2-2.6-1.4-.6-.2-1.3-.1-1.9-.4-.6-.3-1.1-.8-1.9-.4,0,0-.3-.2-.4-.3-.5-.6-1.2-1-1.9-.9-.6,0-1.1-.2-1.5-.4-1.3-.5-2.6-1.1-3.9-1.7-1-.5-1.8-1.1-2.8-1.6-1-.5-2.2-.7-3-1.4-.8-.7-1.7-1.1-2.7-1.5-.5-.2-1-.8-1.7-.4,0,0-.3,0-.3-.1-1.2-1.4-3.1-1-4.5-1.9-1.5-.9-3.1-1.4-4.7-2.1-.4-.2-.8-.5-1.4-.3-.2,0-.7,0-.8-.3-.9-1.1-2.3-1.3-3.5-1.9-1.3-.7-2.8-1-4-2.1-.5-.4-1.3-.9-2.2-.7-.4.1-1-.4-1.5-.6-.4-.1-.9,0-1.4-.2-.4-.1-.6-.5-.9-.8,0,0-.2-.1-.3-.1-2.3-.3-3.9-1.9-6-2.6-2.1-.7-4.1-1.7-6.1-2.6-1.1-.5-2.2-1.2-2.5-2.6-.1-.6,0-1.1.7-1.2.4,0,.9-.1,1.4,0,.7.2,1.4.4,2,.5,1.4.4,2.9.4,4.1,1.3.4.3,1,.2,1.1.8,0,0,.2.2.3.2,2.1,0,3.8,1.3,5.6,2.1,1.6.6,3.3.7,4.8,1.6,1.1-.2,2.1.3,2.9.9,2.8,1.9,6.1,2.9,9.1,4.3,3.1,1.4,6.2,2.7,9.3,4.1.5.2,1.1.1,1.6.6.5.5,1.3.6,2,.9.6.3,1.3.4,1.9.8,2.2,1.7,4.8,2.4,7.2,3.5,2.4,1.1,4.8,2.2,7.3,3.1,1.5.5,3.1.9,4.6,1.6.6.3,1.4.3,1.8,1.1.1.2.9,0,1.3.2,1,.4,2,.9,3.1,1.3,1.4.6,2.8,1.3,4.3,1.8.9.3,1.8.5,2.7.8.9.3,1.8.7,2.7,1.2,1.1.6,2.2,1.3,3.3,1.8,1.2.6,2.5.9,3.5,1.7,1.9,1.4,4.1,2.2,6.1,3.3,2,1.1,4,2.3,6.1,3.4,1.2.6,1.9,1.7,3,2.4.5.3.4,2-.1,2.3,0,0-.2,0-.3,0-1.3-.3-2.6-.3-3.8-1-1.7-1.1-3.6-2.1-5.4-3.1Z" fill="#fff"/>
  <path d="M486.9,468.5c-2.5,2-5.3,3.5-8.1,4.8-1.1.5-2.3.6-3.3,1.5-.3.2-.7.3-1.2.3-.5,0-1.1,0-1.6.1-2.8.7-5.7.9-8.6,1.1-2.8.1-5.6.2-8.4,0-2.8-.2-5.5-1-8.2-1.2-2.3-.2-4.2-1.2-6.3-1.6-2.2-.4-4.6-1-6.8-2-1.6-.7-3-1.6-4.6-2.4-1-.5-2-.8-3-1.6-.9-.8-1.6-1.8-2.8-2.3-.1,0-.3-.6-.4-.8-.4-1.3-1.1-2.7-1.7-3.7-.6-.9-.8-1.9-.9-2.9-.2-1.4,0-2.9.3-4.3.4-1.5,1.1-2.9,2.2-4.1.8-.9,1.8-1.6,2.8-2,1.1-.5,2.2-.7,3.2-.8,2.2-.3,4.7,0,6.4,1.1.9.6,1.6,1.2,2.4,1.8.7.7,1.4,1.4,1.9,2.2.6.9.9,2.2,1.7,2.8,0,0,.2.5.2.7,0,1.6.2,3.1.3,4.6,0,1.5,0,3.1-.6,4.5-1.2,3-3,5.6-5.2,7.8-.6.6-1.3,1-1.6,1.8-.1.3-.8.8-1.2,1-2.2.8-4,2.2-6.1,3.1-1.2.5-2.3,1-3.6,1.4-.6.2-1.2.4-1.8.6-.6.1-1.3.2-1.9.2-1.1.1-2.5.2-3.7,1-.6.4-1.8.2-2.8.3-.8.1-1.5.4-2.2.4-.6,0-1.3-.2-1.9-.3-.2,0-.4,0-.6,0-.9.1-1.9.1-2.8,0-.9-.1-1.8-.3-2.7-.4-1.8-.4-3.6-.9-5.4-1.4-3.6-.8-7.2-2.3-10.4-4.2-.9-.5-1.8-1.1-2.5-1.8-.7-.7-1.2-1.5-1.5-2.3-.2-.8.1-1.2,1-1,.6.1,1.3.3,1.9.7,1,.5,2,.9,3,1.4,1,.4,2.1.7,3.1,1.1,1.1.3,2.1.7,3.1,1.2.6.3,1.5.3,1.9,1,0,0,.3.2.5.2,3.1,0,6.1,1.1,9.2,1.3,1.3,0,2.6,0,3.9-.2,1.3-.1,2.5-.4,3.8-.3.7-.4,1.4-.7,2.2-.8.8-.1,1.5-.2,2.2-.3,5.1-.5,9.7-3.3,13.4-6.4,1.9-1.6,3.4-3.6,4.3-5.8.9-2.1,1.1-4.5.6-6.7-.2-.8-.7-1.2-.8-2.1-.1-.8-.9-1.6-1.6-2.1-.6-.5-1.4-.8-2.1-1.3-1.4-.9-3.4-1-4.8-.4-1.5.6-2.5,2-3,3.6-.5,1.6-.4,3.5.3,5.2.3.9.7,1.7,1.3,2.4.5.7,1.2,1.4,1.9,1.9,1.8,1.4,4.1,2.1,6.3,3.1,1,.4,2.1.4,3,1.3.2.2,1.4,0,2,.2,1.7.4,3.4.9,5.1,1.3,2.4.5,4.8,1.1,7.2,1.4,1.5.2,2.9.1,4.4.2,1.5,0,3,.2,4.6.3,1.9,0,3.8.2,5.7,0,2-.2,4-.8,5.8-1,3.5-.5,6.7-2.1,9.6-4.1,2.9-1.9,5.5-4.3,7.3-7.2,1-1.6,2.2-3,2.8-4.8.2-.8,2-1.7,2.4-1.2,0,0,.1.3.1.4,0,.5,0,1.1,0,1.6,0,.5-.1,1.1-.2,1.6,0,.5-.2,1.1-.4,1.6-.2.5-.4,1.1-.8,1.6-1.9,3.1-4.3,5.9-7.2,8.1Z" fill="#aaca60"/>
  <path d="M454.1,206.8c0,.3-.2.6-.2,1,0,.1-.3.2.2.4.2.1-.4,0-.4.2,0,.3-.2.6-.2.9,0,.3.1.6.1.9,0,.3-.3.5,0,.9.2.3-.3.4-.2.7,0,.3.1.5-.2.7-.2.1-.4.3-.4.5,0,.1.4.3.3.4,0,.1-.3.2.3.4,0,0,0,0-.2,0-.4,0-.4.2-.2.3.3.1.2.2.2.3,0,.3,0,.5,0,.7,0,.2-.3.3-.4.5,0,.2.2.4-.1.6-.3.2-.3.3-.3.5,0,.1-.3.2.3.3,0,0,0,0,0,0-.9.2.2.6,0,.9-.2.3-.1.6,0,.9,0,0-.2.2.3.3.2,0,.2.1,0,.2-.6.2-.3.5-.4.7-.1.3.2.5-.3.8-.2.1-.3.3.3.4.3,0,0,.2,0,.3,0,0,.3.2.3.2,0,0-.2.1-.3.2,0,0,0,0,0,0,.7.4-.2.8,0,1.2.2.4.1.8,0,1.2,0,.2-.2.4-1.3.7-.5.1-1.1.1-1.4,0-.2,0-.5-.1-.5-.2-.1-.1-.2-.3-.3-.4-.2-.3-.8-.5-.5-.8,0,0-.2-.2.3-.3,0,0,.1,0,0,0-.8-.3-.3-.7-.4-1.1,0-.3-.7-.6-.4-1-.6-.2-.5-.4-.3-.6.7-.6.2-1.3.4-1.9.1-.6,0-1.3.2-1.9,0-.1-.3-.2,0-.3.3,0,0-.3,0-.4,0-.1-.1-.3,0-.4.7-.4.4-1,.5-1.5.1-.5.3-1,.2-1.5,0-.3-.3-.7-.2-1,0-.1-.2-.3.4-.3.2,0-.3-.2-.3-.3,0-.2,0-.4,0-.6,0-.3.2-.6.2-.9,0-.2-.2-.4-.2-.6,0-.2,0-.4.1-.6.1-.2.4-.4.5-.6.1-.2,0-.5.2-.7.6-.3.5-.8.6-1.2.2-.4.3-.8.3-1.3,0-.3.6-.3.6-.5,0-.1,1.5.2,1.9.4,0,0,.2,0,.2.1.4.4,1,.8.9,1-.2.3-.2.7-.3,1.1Z" fill="#aaca60"/>
  <path d="M482.8,209.7c-.2.3-.5.5-.7.8,0,.1-.4,0,0,.5.2.2-.4,0-.5,0-.2.3-.4.5-.6.8-.2.3-.2.7-.3.9-.1.3-.6.3-.5.8,0,.4-.5.2-.5.5,0,.3-.2.5-.5.6-.2,0-.5,0-.6.3,0,.1.2.4,0,.5,0,0-.4,0,0,.5,0,0,0,0-.2,0-.4-.1-.5,0-.3.2.2.2,0,.3,0,.4-.1.2-.3.5-.5.6-.2.1-.5.1-.6.3-.2.1,0,.5-.4.4-.4,0-.5.1-.6.3,0,0-.4,0,.1.5,0,0,0,0,0,0-.9-.2-.1.6-.5.8-.4.1-.4.5-.6.8,0,0-.2,0,0,.4.1.1,0,.2,0,.2-.7-.2-.5.3-.7.4-.3.2-.2.6-.7.5-.2,0-.4,0,0,.5.2.2-.1.2-.1.3,0,0,.2.3.1.4,0,0-.3,0-.4,0s0,0,0,0c.3.7-.6.6-.7,1,0,.4-.3.8-.6,1.1-.2.2-.4.3-1.5-.2-.5-.2-1-.5-1.2-.7-.2-.2-.3-.4-.3-.5,0-.2,0-.3,0-.5,0-.3-.3-.8,0-.9.1,0,0-.3.4,0,0,0,.1,0,0,0-.5-.7.2-.8.3-1.1.1-.3-.2-.9.2-1-.4-.5-.2-.6,0-.7.9-.2.9-1,1.3-1.4.4-.5.7-1.1,1.1-1.6,0,0-.2-.4.1-.3.3,0,.2-.2.3-.3,0-.1,0-.3.2-.3.8,0,.8-.7,1.2-1,.4-.4.7-.7.9-1.2.1-.3,0-.8.3-.9.1,0,0-.4.5-.1.2,0-.1-.3,0-.4,0-.2.2-.3.4-.5.2-.2.4-.4.5-.7,0-.2,0-.5,0-.6,0-.2.2-.3.4-.4.2-.1.5-.2.7-.3.2-.2.2-.5.5-.5.7,0,.8-.5,1.1-.8.3-.3.6-.6.8-1,.1-.2.6,0,.8-.3,0,0,1.3.8,1.6,1.2,0,0,.1.2.1.2.2.5.6,1.1.4,1.3-.3.2-.5.6-.8.9Z" fill="#aaca60"/>
  <path d="M505.5,226.2c-.4.2-.7.3-1.1.5-.1,0-.4,0-.3.5,0,.3-.4-.2-.5-.2-.3.2-.7.3-1,.5-.3.2-.5.6-.9.8-.3.2-.8,0-1,.5-.2.4-.6,0-.8.3-.2.2-.5.4-.9.3-.3,0-.6-.2-.7,0,0,.1,0,.5-.2.5-.1,0-.4-.1-.2.5,0,0,0,0-.2,0-.3-.3-.5-.2-.5,0,0,.3-.1.3-.2.4-.3.2-.5.3-.9.4-.2,0-.5,0-.8,0-.2,0-.4.4-.7.2-.3-.2-.5,0-.7,0-.1,0-.4-.2-.2.5,0,0,0,0,0,0-.6-.6-.6.5-1,.5-.4,0-.7.2-1.1.4,0,0-.3,0-.2.4,0,.2,0,.2-.2.1-.5-.5-.6,0-.9,0-.3,0-.5.4-1,0-.2-.1-.4-.2-.4.4,0,.3-.2,0-.3.2,0,0,0,.4-.1.4,0,0-.2-.2-.4-.2,0,0,0,0,0,0-.2.8-1,.1-1.3.5-.4.3-.9.5-1.4.5-.3,0-.6,0-1.2-1-.3-.5-.5-1-.5-1.3,0-.3,0-.5,0-.6.1-.1.2-.3.3-.5.2-.3.3-.9.7-.7.1,0,.1-.3.4.2,0,0,0,0,0,0,.1-.9.7-.6,1.1-.8.3-.2.4-.9.9-.8,0-.7.2-.6.5-.5.9.4,1.4-.3,2.1-.5.7-.2,1.4-.6,2-.8.1,0,0-.4.3-.2.2.2.3,0,.5-.1.1,0,.2-.2.4-.1.8.4,1.2-.2,1.7-.4.6-.2,1.1-.3,1.6-.7.3-.2.5-.7.8-.7.2,0,.2-.4.5,0,.1.1,0-.3.1-.4.2-.1.4-.2.6-.3.3-.1.6-.2.9-.4.2-.1.3-.4.4-.6.2-.1.4-.2.6-.3.3,0,.6,0,.9,0,.3,0,.4-.4.8-.3.7.3,1-.2,1.5-.3.5-.2.9-.3,1.3-.6.2-.2.7.2.9,0,.1,0,.9,1.2,1.1,1.7,0,0,0,.2,0,.2,0,.5,0,1.3-.3,1.4-.4.1-.8.4-1.3.6Z" fill="#aaca60"/>
  <path d="M512.9,246c-.3,0-.6.2-.9.3-.1,0-.3-.2-.3.4,0,.3-.3-.3-.4-.2-.3.2-.6.1-.8.3-.3.1-.5.4-.8.6-.3.1-.6,0-.8.3-.2.3-.5-.1-.7,0-.2.2-.4.3-.7.1-.2-.1-.4-.3-.6-.2,0,0-.1.4-.3.4-.1,0-.3-.2-.3.4,0,0,0,0-.1-.1-.2-.4-.3-.3-.4,0,0,.3-.1.3-.2.3-.2,0-.5.1-.7.1-.2,0-.4-.2-.6-.3-.2,0-.4.3-.6,0-.2-.3-.4-.2-.6-.2,0,0-.2-.3-.3.4,0,0,0,0,0,0-.4-.8-.5.3-.8.1-.3-.2-.6,0-.9,0,0,0-.2-.2-.2.3,0,.2,0,.2-.1,0-.3-.6-.5-.2-.7-.3-.3-.1-.5.2-.8-.3-.1-.2-.3-.3-.4.3,0,.3-.2,0-.3,0,0,0-.1.3-.2.3,0,0-.1-.2-.2-.3,0,0,0,0,0,0-.4.7-.8-.2-1.1,0-.4.2-.8,0-1.2,0-.2,0-.4-.3-.5-1.4,0-.5,0-1.1,0-1.4,0-.2.2-.5.2-.5.1,0,.2-.2.3-.3.2-.2.5-.7.7-.4,0,0,.2-.2.2.3,0,0,0,.1,0,0,.3-.8.6-.3,1-.3.3,0,.5-.7.8-.4.1-.6.3-.5.5-.3.5.7,1.1.2,1.6.2.5,0,1.1,0,1.6,0,0,0,.1-.4.3-.1.1.2.2,0,.4,0,.1,0,.2-.2.3,0,.5.6.9.1,1.3.2.4,0,.9,0,1.2-.2.2-.1.4-.5.7-.5.1,0,.2-.3.4.2,0,.2,0-.3.1-.3.2,0,.3,0,.5-.1.2,0,.5,0,.7-.2.1,0,.2-.3.3-.4.1,0,.3-.1.4-.1.2,0,.5.2.7.2.2,0,.3-.3.6-.1.5.4.8,0,1.1,0,.4,0,.7-.1,1-.4.2-.1.5.3.7.2,0,0,.7,1.3.9,1.8,0,0,0,.2,0,.2,0,.5,0,1.3-.2,1.3-.4,0-.7.2-1,.3Z" fill="#aaca60"/>
  <path d="M295,362.2c-2.2-.2-4.4-.4-6.7-.4-.8,0-1.7-.4-2.6.1-.4.2-1.2-.5-2-.5-2.1,0-4.1-.3-6.2-.4-2,0-4,0-6.1,0-2,0-4-.5-6-.3-1.7.2-3.2-.4-4.8-.4-1.7,0-3.5,0-5.1-.4-1.2-.3-2.4-.6-3.6-.5-.8,0-1.5.3-2.3.2-.8,0-1.6-.4-2.3.2,0,0-.4,0-.6-.2-.8-.5-1.8-.5-2.5-.3-.7.2-1.3.1-1.9.1-1.7,0-3.4-.2-5.1-.4-1.3-.1-2.5-.5-3.8-.6-1.3-.2-2.8,0-4-.4-1.2-.4-2.4-.5-3.6-.5-.7,0-1.5-.4-2.1.2,0,0-.3,0-.4,0-1.9-1-3.9,0-5.9-.4-2-.4-4.1-.4-6.2-.5-.6,0-1.1-.3-1.7.2-.2.1-.8.1-1,0-1.5-.7-3.1-.5-4.7-.7-1.8-.2-3.6,0-5.4-.7-.7-.3-1.8-.4-2.7,0-.4.2-1.3,0-2,0-.5,0-1.1.2-1.6.2-.5,0-.9-.3-1.3-.4-.1,0-.3,0-.4,0-2.7.5-5.2-.6-7.9-.6-2.7,0-5.3-.3-8-.5-1.5-.2-3-.4-3.9-1.7-.4-.5-.4-1.1.3-1.4.5-.2,1-.4,1.5-.4.8,0,1.7-.1,2.5-.2,1.7,0,3.4-.5,5.2,0,.5.1,1.2-.1,1.6.4,0,0,.3.1.4,0,2.4-.6,4.8,0,7.2.2,2,0,4-.4,6.1,0,1.2-.6,2.5-.3,3.6,0,4,1,8,.8,12,1.2,4.1.4,8.1.6,12.2.9.7,0,1.3-.3,2.1,0,.7.3,1.7.2,2.6.2.8,0,1.7,0,2.4.2,3.1.9,6.4.7,9.6,1,3.2.3,6.4.6,9.6.6,1.9,0,3.9-.2,5.8,0,.8.1,1.7-.2,2.5.5.2.2,1-.2,1.6-.2,1.3,0,2.7.2,4,.3,1.9.1,3.7.3,5.6.4,1.1,0,2.3-.1,3.4-.1,1.2,0,2.4.1,3.6.2,1.5.2,3,.5,4.5.7,1.5.2,3.2,0,4.6.4,2.7.7,5.5.6,8.3.9,2.7.3,5.5.5,8.2.6,1.6,0,2.9.6,4.5.7.7,0,1.6,1.6,1.2,2.1,0,0-.2.2-.3.2-1.5.4-2.9,1-4.6.8-2.5-.2-5-.4-7.6-.5Z" fill="#aaca60"/>
  <path d="M318.9,388.9c-1.2,0-2.5-.2-3.7-.2-.5,0-.9-.3-1.4.2-.3.3-.7-.4-1.1-.4-1.2,0-2.3-.2-3.5-.2-1.1,0-2.3.1-3.4.1-1.1,0-2.3-.4-3.4-.1-1,.2-1.8-.3-2.7-.3-1,0-1.9,0-2.9-.2-.7-.2-1.3-.5-2-.4-.4,0-.8.3-1.3.3-.4,0-.9-.4-1.3.2,0,0-.2,0-.3-.2-.4-.4-1-.5-1.4-.2-.4.2-.7.2-1.1.2-1,0-1.9,0-2.9-.2-.7,0-1.4-.4-2.1-.5-.7-.1-1.6.1-2.2-.2-.7-.4-1.3-.4-2-.4-.4,0-.8-.3-1.2.3,0,0-.2,0-.2,0-1-.9-2.2.1-3.3-.2-1.1-.3-2.3-.2-3.5-.3-.3,0-.6-.2-.9.2-.1.2-.4.1-.6,0-.8-.7-1.7-.4-2.6-.5-1-.2-2,0-3-.5-.4-.2-1-.4-1.5.2-.3.3-.7,0-1.1,0-.3,0-.6.3-.9.3-.3,0-.5-.3-.7-.4,0,0-.2,0-.2,0-1.5.6-2.9-.4-4.4-.4-1.5,0-3-.1-4.5-.3-.8-.1-1.7-.4-2.1-1.5-.2-.5-.2-1.1.2-1.4.3-.2.6-.4.9-.5.5,0,1-.2,1.4-.2,1-.1,1.9-.6,2.9-.2.3.1.7-.2.9.4,0,0,.2.1.2,0,1.4-.7,2.7,0,4,0,1.1,0,2.3-.5,3.4-.2.7-.6,1.4-.4,2-.2,2.2.8,4.5.5,6.7.8,2.3.3,4.6.3,6.8.5.4,0,.7-.3,1.2,0,.4.3,1,.1,1.5.2.5,0,.9,0,1.4.1,1.7.8,3.6.5,5.4.7,1.8.2,3.6.4,5.4.3,1.1,0,2.2-.3,3.3,0,.5,0,1-.2,1.4.4.1.2.6-.2.9-.2.7,0,1.5,0,2.2.1,1,0,2.1.2,3.1.2.6,0,1.3-.2,1.9-.2.7,0,1.3,0,2,.1.8.1,1.7.4,2.5.5.9.1,1.8,0,2.6.2,1.5.6,3.1.5,4.6.6,1.5.2,3.1.3,4.6.3.9,0,1.6.5,2.5.6.4,0,.8,1.5.6,2,0,0-.1.2-.2.2-.9.4-1.7,1.1-2.6,1-1.4-.2-2.8-.2-4.2-.3Z" fill="#aaca60"/>
  <g>
    <g>
      <path d="M373.9,279.5c.4-.2.8-.4,1.1-.7.1-.1.4,0,.3-.5,0-.3.4.2.5.1.3-.3.7-.4,1-.6.3-.3.5-.6.8-.9.3-.2.8-.2,1-.7.1-.4.6-.1.9-.4.2-.3.5-.5.9-.5.3,0,.6.1.7-.1,0-.1,0-.5.2-.5s.4,0,.2-.5c0,0,0,0,.2,0,.3.3.5.2.5-.2,0-.3,0-.3.2-.4.3-.2.5-.4.9-.5.2,0,.6,0,.8,0,.3,0,.4-.5.7-.3.4.1.6,0,.8-.1.1,0,.4.1.2-.5,0,0,0,0,0,0,.7.5.5-.6,1-.6.5,0,.7-.4,1.1-.6,0,0,.3,0,.1-.4,0-.2,0-.2.1-.2.6.4.7,0,1-.2.4,0,.5-.5,1.1-.3.2.1.5,0,.3-.5,0-.3.2-.1.3-.2,0,0,0-.4.1-.4,0,0,.3.1.4.2,0,0,0,0,0,0,.1-.8,1.1-.3,1.5-.8.5-.4,1.1-.6,1.8-.7.4,0,.8,0,1.3,1.1.2.5.3,1,.2,1.4,0,.3,0,.5-.1.6-.1.1-.2.3-.3.4-.2.3-.2.9-.6.7-.1,0,0,.3-.4-.2,0,0,0,0,0,0,0,.9-.6.6-1,.9-.3.2-.3,1-.8.9.1.7-.2.7-.4.6-1-.2-1.5.6-2.2.9-.7.3-1.4.8-2.1,1.2-.1,0,0,.4-.3.3-.3-.2-.3.1-.5.2-.1,0-.2.3-.4.2-.9-.3-1.2.4-1.8.7-.6.3-1.1.5-1.6,1-.3.3-.4.8-.8.8-.2,0-.1.4-.6,0-.1-.1,0,.3-.1.4-.2.2-.4.3-.7.4-.3.2-.6.3-.9.6-.2.1-.2.5-.4.6-.2.2-.4.3-.6.4-.3,0-.6,0-.9.1-.3,0-.4.5-.8.4-.7-.2-1.1.3-1.6.5-.5.2-1,.4-1.4.8-.2.2-.7,0-1,0-.1,0-1-1.1-1.2-1.6,0,0,0-.2,0-.2,0-.5-.1-1.3.2-1.4.5-.2.9-.5,1.3-.7Z"/>
      <path d="M383.4,292.4c-.2-.2-.3-.4-.6-.5,0,0,0-.3-.4,0-.2.2.1-.4,0-.4-.2-.1-.3-.3-.6-.5-.2-.1-.5-.1-.8-.2-.2-.1-.2-.5-.6-.4-.3,0-.1-.4-.4-.4-.2,0-.4-.1-.4-.4,0-.2,0-.5-.1-.5-.1,0-.4.2-.4.1,0,0,0-.3-.4,0,0,0,0,0,0-.2.2-.4,0-.4-.2-.3-.2.2-.3,0-.3,0-.2,0-.3-.2-.5-.4,0-.1,0-.4-.1-.5,0-.1-.4,0-.3-.3,0-.3,0-.4-.2-.5,0,0,0-.3-.4.1,0,0,0,0,0,0,.3-.8-.5,0-.6-.4,0-.3-.4-.3-.6-.5,0,0,0-.2-.3.1-.1.1-.2,0-.1,0,.2-.6-.2-.4-.2-.6-.1-.2-.4,0-.3-.6,0-.2,0-.4-.4,0-.2.2-.1,0-.2,0,0,0-.3.2-.3.2,0,0,0-.2,0-.4,0,0,0,0,0,0-.6.4-.4-.5-.7-.5-.4,0-.6-.3-.8-.5-.1-.1-.2-.4.3-1.4.2-.5.5-.9.8-1.2.2-.2.3-.3.4-.3.1,0,.3,0,.4-.1.3,0,.7-.4.8,0,0,.1.2,0,0,.4,0,0,0,.1,0,0,.7-.5.6,0,.9.2.2,0,.8-.3.8,0,.5-.4.5-.3.6,0,0,.8.7.8,1,1.1.4.4.8.6,1.2.9,0,0,.3-.2.3,0,0,.3.1.2.2.2,0,0,.2,0,.2.2,0,.8.5.7.7,1,.3.3.5.6.9.7.2,0,.7,0,.8.2,0,.1.3,0,0,.4,0,.1.3-.1.3-.1.2,0,.3.2.4.3.2.1.3.3.5.4.1,0,.4,0,.5,0,.2,0,.3.2.3.3,0,.2,0,.5.2.6.1.2.4.1.4.4,0,.6.3.6.5.9.2.3.4.5.7.7.2,0,0,.6,0,.7,0,0-.9,1.2-1.3,1.5,0,0-.2.1-.2.1-.5.2-1.1.6-1.2.4-.2-.3-.4-.4-.6-.6Z"/>
      <path d="M393.5,299.9c-.5.5-1.1,1-1.6,1.4-.2.2-.6,0-.5.7,0,.3-.5-.1-.7,0-.5.4-1.2.6-1.7.9-.6.3-1.1.7-1.7.9-.6.2-1.3,0-1.9.4-.5.3-1-.2-1.5,0-.5.1-1.1.1-1.6-.2-.4-.2-.7-.5-1.1-.5-.2,0-.5.3-.8.2-.2,0-.4-.4-.8,0,0,0-.1-.1-.1-.2-.1-.5-.4-.6-.7-.4-.3.2-.5,0-.7,0-.5-.2-1-.5-1.4-.8-.2-.2-.2-.3-.5-.5-.2-.3-.4-.5-.6-.7-.2-.2-.5-.4-.8-.6-.3-.2-.5-.4-.5-.7,0-.5-.4-.9-.7-1.3-.2-.2,0-.5-.9-.7,0,0-.1-.1,0-.2.3-.3,0-.6-.4-1-.4-.4-.9-.8-1-1.2,0,0,0-.2,0-.3,0,0,0-.2,0-.2,0-.2-.1-.3-.2-.5l1.4-.2c.3,0,.9,0,.6-.4-.1-.1.3-.2.6-.1.8.2,1.3.2,1.7.1.2,0,.4,0,.6-.1.2,0,.4-.1.6-.2.4,0,.9-.2,1.3-.4.2,0,.4,0,.7,0,.2.1.5.1.5-.5,0-.3.3-.1.4-.3,0,0,0-.4.2-.5,0,0,.3.1.4.1,0,0,0,0,0,0,.2-.9,1.1-.4,1.5-1,.4-.5.9-.8,1.4-1.2.3-.2.6-.3,1.7.3.5.3.9.6,1,1,0,.3.2.5.1.7,0,.2-.2.5-.3.7-.2.5-.2,1.2-.8,1.3-.2,0-.1.4-.6,0,0,0-.1,0-.1,0,0,1-1,1.1-1.5,1.5-.5.4-.7,1.2-1.4,1.2,0,.7-.5.8-.9.8-.2,0-.3,0-.5,0h-.2c0,0-.2,0-.1,0,0,0-.1,0-.2,0,0,0,0,.1-.2.1,0,0-.1,0-.2,0-.3,0,0,.2,0,.3,0,0,.5,0,.2,0-.3,0,0,0,0,0,0,0,.2,0,0,0-.3.2-.2.4,0,.4l.4.2c.2,0,.3.2.5.3.6.4,1.2.8,1.9.8.4,0,.9-.2,1.3,0,.2,0,.4-.2.5.4,0,.2.2-.3.4-.3.3,0,.6,0,.9,0,.4,0,.8,0,1.2-.1.2,0,.4-.4.6-.5.2-.1.5-.2.7-.2.3,0,.7,0,1,0,.3,0,.5-.5.9-.4.8.1,1.2-.5,1.6-.8.5-.3.8-.8,1-1.2,0-.3.6-.3.7-.6,0,0,1.5,0,2,0,0,0,.2,0,.2.1.4.5.9,1.3.6,1.8-.5.8-.9,1.5-1.5,2.2Z"/>
      <path d="M377.4,304.5c.4,0,.8.2,1.1.2.1,0,.2.3.5-.2.1-.3.1.4.3.4.4,0,.7.1,1,.1.3,0,.7-.2,1-.3.3,0,.6.3.9,0,.3-.3.5.2.7,0,.3-.1.5-.3.8,0,.2.1.4.3.6.2,0,0,.1-.4.2-.4.1,0,.3.2.2-.4,0,0,0,0,.1.1.2.4.3.3.3,0,0-.3,0-.3.1-.3.2-.1.3-.2.5-.3.1,0,.4,0,.6,0,.2,0,.1-.4.5-.3.3.1.5,0,.6-.1,0,0,.4,0,0-.5,0,0,0,0,0,0,.8.3.2-.6.5-.7.4-.1.4-.5.6-.8,0,0,.2,0,0-.4-.1-.1,0-.2,0-.2.7.1.5-.3.7-.5.2-.2.1-.6.7-.7.2,0,.4-.1,0-.5-.2-.2,0-.2,0-.3,0-.1-.2-.3-.2-.4,0,0,.3,0,.4,0,0,0,0,0,0,0-.4-.7.5-.7.5-1.2,0-.5.2-.9.5-1.3.1-.2.4-.4,1.5-.2.5,0,1,.3,1.3.5.2.2.4.3.4.4,0,.2.1.4.2.5,0,.4.5.8,0,1.1-.1,0,.1.3-.4.2,0,0-.1,0,0,0,.6.7,0,.9-.2,1.4,0,.4.3,1,0,1.2.5.5.3.7,0,.8-.9.4-.9,1.3-1.4,2-.5.7-1,1.4-1.6,2.1-.1.1,0,.5-.3.4-.3,0-.3.2-.5.4-.1.1-.2.4-.4.4-.5,0-.8.1-1.1.4-.3.2-.6.5-.9.6-.7.3-1.4.5-2,.8-.4.2-.7.6-1.2.6-.2,0-.3.3-.6-.2,0-.2-.2.3-.3.3-.3,0-.6,0-.8,0-.4,0-.8,0-1.2,0-.2,0-.5.3-.7.3-.2,0-.5,0-.7,0-.3,0-.6-.4-.9-.4-.3,0-.6.1-.9-.2-.4-.6-1-.4-1.5-.6-.5-.2-1-.3-1.5-.3-.3,0-.4-.6-.7-.6-.1,0,0-1.5.2-2,0,0,0-.2.1-.2.4-.4.8-1,1.1-.9.4.2.9.2,1.3.3Z"/>
      <path d="M380.1,317.6c-.2-.2-.3-.4-.5-.6,0,0,0-.3-.4,0-.2.1.2-.3.2-.4-.2-.1-.2-.4-.4-.5-.2-.2-.5-.2-.6-.4-.2-.2,0-.5-.4-.5-.3,0,0-.4-.1-.5-.2,0-.3-.2-.2-.5.1-.2.3-.4.1-.4,0,0-.4,0-.4,0,0,0,.2-.3-.4,0,0,0,0,0,.1-.1.3-.2.3-.3,0-.3-.3,0-.3,0-.3,0,0-.1-.2-.3-.2-.4,0-.1.2-.3.2-.5,0-.1-.3-.1,0-.4.2-.2.2-.3.1-.4,0,0,.2-.2-.4,0,0,0,0,0,0,0,.7-.5-.4-.2-.3-.5.1-.3-.1-.4-.2-.5,0,0,.1-.2-.3,0-.2,0-.2,0,0,0,.5-.4.1-.4.1-.5,0-.2-.3-.2,0-.6.2-.1.2-.3-.3-.1-.3,0,0-.1-.1-.1,0,0-.3,0-.4,0,0,0,.2-.2.3-.3,0,0,0,0,0,0-.7,0,0-.5-.3-.7-.3-.1-.3-.4-.3-.7,0-.1.1-.3,1.1-.9.5-.3,1-.5,1.3-.6.2,0,.5-.1.5,0,.1,0,.3,0,.4,0,.2,0,.8,0,.6.2,0,0,.2,0-.2.3,0,0,0,0,0,0,.8-.1.4.3.6.5.1.1.8,0,.6.3.6-.2.6,0,.4.2-.5.6.1.8.2,1.1,0,.4.3.7.4,1,0,0,.4,0,.1.1-.2.2,0,.2,0,.2,0,0,.2,0,0,.2-.5.5,0,.6,0,.9,0,.3.1.6.4.8.2.1.6.1.5.3,0,0,.3,0-.2.3-.1,0,.3,0,.3,0,0,0,.1.2.2.3,0,.1,0,.3.2.4,0,0,.3,0,.4,0,0,0,.1.1.1.2,0,.1-.1.3-.1.5,0,.1.3,0,.1.3-.3.5,0,.5.1.6,0,.2.2.3.4.4.1,0-.1.5,0,.5,0,0-.2.3-.4.7-.2.4-.5.8-.7,1,0,0-.1.1-.2.2-.4.3-1,.7-1.1.6-.2-.3-.4-.4-.6-.6Z"/>
      <path d="M393.8,288.2c0,0,0-.2,0-.3,0,0,.2,0-.3-.2-.3,0,.4,0,.4,0,0-.1,0-.2,0-.3,0,0-.2-.2-.3-.3,0,0,.3-.1,0-.3-.3-.1.2,0,.1-.2-.1,0-.2-.2,0-.2.2,0,.4,0,.3,0,0,0-.4-.1-.3-.2,0,0,.3,0-.3-.2,0,0,0,0,.1,0,.4,0,.4,0,.1,0-.3,0-.2,0-.2-.1,0,0,0-.2,0-.2,0,0,.3,0,.4,0,0,0-.2-.2.1-.1.3,0,.3,0,.3,0,0,0,.3,0-.3-.1,0,0,0,0,0,0,.8,0-.2-.2,0-.3.2,0,0-.2,0-.2,0,0,.2,0-.3-.1-.2,0-.2,0,0,0,.6,0,.3,0,.4-.1.1,0-.1-.2.4-.2.2,0,.3,0-.2-.2-.3,0,0,0,0,0,0,0-.3-.1-.3-.1,0,0,.2,0,.3,0,0,0,0,0,0,0-.6-.2.3-.2.1-.3-.2-.1,0-.2,0-.3,0,0,.3,0,1.4,0,.5,0,1.1.2,1.4.2.2,0,.5.1.5.2,0,0,.2.1.3.2.2.1.7.3.4.3,0,0,.2,0-.3,0,0,0-.1,0,0,0,.8.2.2.2.3.4,0,0,.6.3.4.3.6.2.5.2.3.2-.7,0-.3.3-.4.5-.1.2,0,.3-.1.5,0,0,.3.1,0,.1-.3,0,0,0,0,.1,0,0,.1,0,0,0-.7,0-.3.2-.4.3,0,.1-.2.2,0,.4,0,.1.4.3.3.3,0,0,.3.1-.3,0-.2,0,.3,0,.3.1,0,0,0,.1,0,.2,0,0,0,.1,0,.2,0,0,.3.2.3.2,0,0,0,.1,0,.2,0,0-.3,0-.4.1,0,0,.2.2-.1.2-.5,0-.3.2-.4.3,0,.1-.1.2,0,.4,0,0-.4,0-.5,0,0,0,0,0-.2,0-.1,0-.3,0-.6,0-.4,0-.9-.2-1.2-.2,0,0-.2,0-.2,0-.4-.2-1.1-.4-1.1-.4,0,0,0-.2,0-.3Z"/>
      <path d="M386.6,286c0,0,0-.2,0-.3,0,0,.2,0-.3-.2-.3,0,.4,0,.4,0,0-.1,0-.2,0-.3,0,0-.2-.2-.3-.3,0,0,.3-.1,0-.3-.3-.1.2,0,.1-.2-.1,0-.2-.2,0-.2.2,0,.4,0,.3,0,0,0-.4-.1-.3-.2,0,0,.3,0-.3-.2,0,0,0,0,.1,0,.4,0,.4,0,.1,0-.3,0-.2,0-.2-.1,0,0,0-.2,0-.2,0,0,.3,0,.4,0,0,0-.2-.2.1-.1.3,0,.3,0,.3,0,0,0,.3,0-.3-.1,0,0,0,0,0,0,.8,0-.2-.2,0-.3.2,0,0-.2,0-.2,0,0,.2,0-.3-.1-.2,0-.2,0,0,0,.6,0,.3,0,.4-.1.1,0-.1-.2.4-.2.2,0,.3,0-.2-.2-.3,0,0,0,0,0,0,0-.3-.1-.3-.1,0,0,.2,0,.3,0,0,0,0,0,0,0-.6-.2.3-.2.1-.3-.2-.1,0-.2,0-.3,0,0,.3,0,1.4,0,.5,0,1.1.2,1.4.2.2,0,.5.1.5.2,0,0,.2.1.3.2.2.1.7.3.4.3,0,0,.2,0-.3,0,0,0-.1,0,0,0,.8.2.2.2.3.4,0,0,.6.3.4.3.6.2.5.2.3.2-.7,0-.3.3-.4.5-.1.2,0,.3-.1.5,0,0,.3.1,0,.1-.3,0,0,0,0,.1,0,0,.1,0,0,0-.7,0-.3.2-.4.3,0,.1-.2.2,0,.4,0,.1.4.3.3.3,0,0,.3.1-.3,0-.2,0,.3,0,.3.1,0,0,0,.1,0,.2,0,0,0,.1,0,.2,0,0,.3.2.3.2,0,0,0,.1,0,.2,0,0-.3,0-.4.1,0,0,.2.2-.1.2-.5,0-.3.2-.4.3,0,.1-.1.2,0,.4,0,0-.4,0-.5,0,0,0,0,0-.2,0-.1,0-.3,0-.6,0-.4,0-.9-.2-1.2-.2,0,0-.2,0-.2,0-.4-.2-1.1-.4-1.1-.4,0,0,0-.2,0-.3Z"/>
    </g>
    <path d="M398.1,262c.9-1.2,1.9-2.4,2.8-3.6.3-.5.9-.8.8-1.6,0-.4.8-.5,1.2-.9.9-1.2,2-2.3,3.1-3.4,1.1-1.1,2.2-2.2,3.8-3,1.5-.8,3.5-.9,5.4-.8.8,0,1.6.3,2.2.7.6.4,1.2.8,1.8,1.3.7.5,1.3,1.2,1.7,2,.4.8.6,1.7.5,2.4,0,1.1-.3,2-.3,2.9,0,.6.3,1,.2,1.7,0,.4-.2.6-.2.9,0,.1,0,.3,0,.4,0,.2.1.2.3.2,0,0,0,0-.2,0-.4,0-.4.4,0,.2.3-.1.2-.1.3-.1.1,0-.3,0,1-.2.7-.1,1.6-.2,2.4-.4.9-.2,1.8-.9,2.8-.8,1,0,2-.1,3.1,0,.3,0,.6.1,1,.2.3,0,.6,0,1-.2,0,0,.3,0,.4.1.8.7,1.5,1.1,2.3,1.7.8.5,1.5,1.1,1.9,2,.7,1.7,1.2,3.5,1.2,5.3,0,.5-.2.9.2,1.4.1.2,0,.7,0,.9-.9,1.1-.9,2.4-1.5,3.4-.6,1.2-1,2.5-2,3.4-.4.4-.9,1-.7,1.8,0,.4-.4.8-.6,1.2-.1.4,0,.8-.3,1.1-.2.3-.5.4-.8.7,0,0-.1.2-.2.3-.4,1.9-2.1,3-2.9,4.7-.8,1.7-2,3.2-3.1,4.7-.6.8-1.4,1.6-2.7,1.5-.6,0-1-.4-1.1-.9,0-.4,0-.8.2-1.1.2-.5.5-1.1.7-1.6.5-1.1.7-2.3,1.6-3.1.3-.3.3-.8.9-.8,0,0,.2-.1.2-.2.2-1.8,1.5-2.9,2.3-4.3.7-1.2.8-2.7,1.7-3.8-.2-1,.3-1.7.9-2.3,1.9-2.1,2.6-4.6,2.8-6.7.1-1,0-2.1-.5-3-.4-.9-1.1-1.6-1.8-1.9-.3-.1-.6.2-.8-.2-.3-.3-.8-.1-1.2,0-.4,0-.8.3-1.3.3-1,0-2.1.3-3.1.6-.5.2-1.1.4-1.7.6-.3,0-.6.2-.9.2h-.2c0,0-.3,0-.3,0h-.7c-.9.1-1.8.1-2.6-.2-.4-.1-.7-.4-1-.7-.3-.3-.5-.7-.6-1.1-.3-.8-.3-1.7-.2-2.6,0-.2,0-.4,0-.6v-.5c.1-.3.1-.5.2-.8,0-.2,0-.6,0-.9v-.9c0-.6-.1-1.2-.1-1.6,0-.4-.4-.7,0-1.2.1-.2-.4-.2-.5-.3-.3-.3-.7-.7-1.3-1-.8-.3-1.5-.5-2.4-.2-.5.1-1,.6-1.4.9l-1.6,1.1c-.7.5-1.5,1-2.2,1.6-.7.7-1.2,1.6-2,2.2-1.6,1.2-2.5,2.9-3.7,4.3-1.2,1.5-2.4,2.9-3.5,4.5-.6.9-1.6,1.4-2.2,2.2-.3.4-1.9,0-2.1-.5,0,0,0-.2,0-.3.3-1.1.3-2.3,1-3.2,1.1-1.3,2.1-2.7,3.2-4.1Z"/>
    <path d="M385.4,261.1c1,.7,2,1.3,3.1,1.9.4.2.7.7,1.4.5.3,0,.4.7.8.9,1,.6,1.9,1.3,3,1.8,1,.6,2,1,3,1.6,1,.6,1.8,1.4,2.8,1.8.9.3,1.3,1.2,2.2,1.6.9.4,1.7.9,2.3,1.6.5.5.9,1.1,1.5,1.4.4.2.9.1,1.2.4.3.3.6.8,1.2.5,0,0,.1.2.2.3.1.6.6.9,1.1.9.5,0,.7.2,1,.4.8.5,1.6,1.1,2.3,1.7.5.5,1,1.1,1.5,1.5.6.5,1.4.7,1.7,1.4.4.7.9,1,1.4,1.5.3.2.5.7,1.1.4,0,0,.2,0,.2.1.4,1.3,1.9,1.1,2.6,2,.8.9,1.8,1.5,2.7,2.2.2.2.4.5.9.4.2,0,.4.1.5.3.3,1,1.2,1.3,1.8,1.9.7.7,1.7,1.1,2.2,2.1.2.4.6.9,1.4.8.4,0,.6.5.9.6.3.2.7.1.9.3.2.2.2.5.4.8,0,0,.1.1.2.2,1.6.4,2.1,2,3.3,2.9,1.2.8,2.3,1.9,3.4,2.9.6.6,1.1,1.3.8,2.5-.2.6-.5,1-1,1-.4,0-.7,0-1-.2-.4-.2-.8-.4-1.3-.7-.8-.5-1.9-.7-2.4-1.5-.2-.3-.6-.3-.5-.8,0,0,0-.2-.1-.2-1.5-.2-2.2-1.5-3.2-2.3-.9-.7-2.1-.9-2.8-1.8-.9,0-1.4-.5-1.7-1-1.3-1.9-3.3-3-5-4.4-1.7-1.5-3.6-2.8-5.3-4.2-.3-.2-.8-.1-1-.6-.2-.5-.7-.6-1.1-.9-.4-.3-.8-.4-1.1-.8-1-1.6-2.7-2.3-4.1-3.4-1.4-1.1-2.8-2.2-4.3-3.1-.9-.5-2-.9-2.8-1.6-.3-.3-.9-.3-1-1.1,0-.2-.6,0-.9-.2-.6-.4-1.2-.8-1.8-1.2-.9-.6-1.7-1.2-2.6-1.7-.5-.3-1.2-.4-1.7-.7-.6-.3-1.1-.7-1.6-1.1-.7-.5-1.2-1.1-1.9-1.6-.7-.5-1.6-.8-2.1-1.4-1-1.3-2.4-1.8-3.8-2.7-1.3-.9-2.6-1.9-3.9-3.1-.7-.7-.9-1.7-1.4-2.5-.3-.4.8-1.6,1.3-1.7,0,0,.2,0,.3,0,.8.5,1.7.5,2.2,1.2.7.9,1.8,1.7,2.8,2.4Z"/>
    <path d="M407.8,304.1c.7,0,1.4-.1,2-.4.2,0,.6,0,.6-.5,0-.3.5.2.7,0,.5-.3,1.1-.6,1.5-1,.4-.4.6-1,.8-1.4.2-.4.6-.8.4-1.3-.2-.4.3-.7.2-1.1-.2-.4-.3-.7-.2-1.1,0-.3.1-.7-.1-.8-.2,0-.5,0-.6,0,0-.1,0-.4-.5,0,0,0,0,0,0-.2,0-.4-.2-.5-.4-.3-.2.2-.3.1-.4.1-.3,0-.7,0-1.1,0-.1,0-.3,0-.5-.1,0,0-.2,0-.2,0,0,0,0,0-.1,0,0,0,0,0-.2,0-.4,0-.9.3-1.3.6-.2.1-.5.3-.7.4-.2.1-.5.3-.6.3-.8.3-1.6.9-2.6,1.7-.3.2-.5.3-.7.5-.3.2-.7.7-1.4,1.7-.1.2-.4.4-.4.3,0-.2-.1-.2-.3-.1.5-1.5-.8.1-.2-1.6.6-1.7.7-2.8,1-4.1,0-.4.4-.9,0-.9-.2,0,0-.4,0-.7.5-.7.7-1.2.8-1.7.1-.5.2-1,.3-1.5,0-.3.2-.6.2-.8v-.5c.2-.3.3-.6.6-.9.3-.2.5-.6,0-1-.2-.2.1-.5.1-.7,0-.2-.2-.5-.2-.6,0-.2.3-.3.4-.4,0,0,0-.1,0-.2-.4-1.1.7-1.8.7-2.8,0-1,.3-1.9.7-2.9.2-.5.5-1,1.7-1.1.5,0,1.1.1,1.3.4.2.2.4.5.4.7,0,.3,0,.6.1,1,0,.6.4,1.4,0,1.9-.1.2.1.5-.4.5,0,0-.1,0-.1.1.6,1-.1,1.7-.3,2.6-.1.7.3,1.6-.1,2.2.5.5.3,1,0,1.3-.5.6-.8,1.6-.7,1.5,0,.2,0,.2,0,.4,0,.2-.1.3-.1.4,0,0,0,.2,0,.1,0,0,.1,0,.1-.1h0s.4-.6.2-.2c-.2.3,0,0,.1,0,0,0,.1-.2.1,0,0,.2,0,.2.2.3,0,0,0,0,.2,0h.5c.7-.2,1.5-.4,2.2-.3,1.5.2,2.9.7,4.3,1.7.8.6,1.7,1.3,2,2.3.1.4.6.8.1,1.3-.1.1.4.4.4.7.1.6.1,1.3,0,2,0,.9-.3,1.8-.7,2.6-.2.5-.3,1.2-.5,1.6-.3.5-.7,1-1.1,1.3-.6.5-1.3.7-1.9,1.1-.6.3-1.1.9-1.9.9-1.3,0-2.3.5-3.5.7-1.1,0-2.3,0-3.4,0-.7,0-1.2-.6-1.8-.7-.3,0-.3-1.6,0-2,0,0,.1-.2.2-.2.6-.3,1.2-1,1.7-.8.8.2,1.6.1,2.3,0Z"/>
    <path d="M409.9,266.2c.4.3.8.6,1.2.8.2,0,.1.4.6,0,.2-.2,0,.5.1.5.4.2.7.6,1.1.8.4.2.9.3,1.2.6.4.2.5.7,1.1.8.5,0,.4.6.7.7.4.1.7.3.8.7,0,.3.1.6.4.7.2,0,.5,0,.6,0,.1.1,0,.4.6,0,0,0,0,.1,0,.2-.1.4,0,.5.3.4.3-.1.4,0,.5,0,.3.2.6.4.8.7.2.2.2.6.4.8.2.2.6.2.6.6,0,.4.2.5.4.7.1,0,0,.4.6,0,0,0,0,0,0,0-.2.9.8.3,1,.7.2.4.6.6,1,.8,0,0,0,.3.4,0,.1-.1.2,0,.2,0-.1.7.4.6.6.9.2.3.7.3.7.9,0,.3.1.5.6,0,.2-.2.2.1.4.2.1,0,.4-.2.4-.1,0,0,0,.3,0,.4,0,0,0,0,0,0,.8-.3.8.7,1.3.8.5.1,1,.4,1.4.7.2.2.4.5.1,1.6-.1.5-.4,1-.6,1.2-.2.2-.4.3-.5.3-.2,0-.4,0-.6,0-.4,0-1,.3-1.2-.1,0-.1-.3,0-.2-.4,0,0,0-.1,0-.1-.8.4-1.1-.3-1.5-.5-.4-.2-1.1,0-1.4-.4-.6.4-.7.1-.8-.2-.4-1.1-1.3-1.2-2-1.8-.7-.6-1.4-1.1-2.1-1.7-.1-.1-.4,0-.4-.2,0-.3-.3-.3-.4-.4-.1-.1-.4-.1-.4-.4,0-.9-.9-1.1-1.4-1.6-.5-.5-.9-1-1.6-1.3-.4-.2-.9-.2-1.1-.6,0-.2-.5,0-.2-.6,0-.2-.3,0-.4,0-.2-.1-.4-.4-.7-.5-.3-.3-.6-.5-.9-.7-.2-.1-.5,0-.8-.2-.2-.1-.4-.3-.6-.5-.2-.3-.3-.6-.5-.8-.2-.3-.6-.2-.7-.6-.1-.8-.8-.9-1.2-1.3-.4-.4-.9-.7-1.4-.9-.3-.1-.3-.7-.5-.9-.1,0,.5-1.4.8-1.8,0,0,.1-.1.2-.2.5-.2,1.2-.7,1.5-.4.4.4.9.6,1.4,1Z"/>
  </g>
</svg>