<?xml version="1.0" encoding="UTF-8"?>
<svg id="ARTWORK" xmlns="http://www.w3.org/2000/svg" width="600" height="600" viewBox="0 0 600 600">
  <path d="M219.5,374c-.4.2-.7.4-1.1.6-.1,0-.4,0-.3.5,0,.3-.4-.2-.5-.1-.3.3-.7.4-1,.6-.3.2-.6.6-.9.9-.3.2-.8.1-1,.6-.2.4-.7,0-.9.3-.3.2-.6.5-1,.4-.3,0-.6-.2-.8,0-.1.1-.2.5-.3.5-.2,0-.4-.2-.4.5,0,0,0,0-.2-.1-.3-.3-.5-.3-.5,0,0,.3-.2.3-.3.3-.4.1-.7.2-1.1.2-.3,0-.6-.2-.9-.2-.3,0-.6.3-.8,0-.3-.3-.5-.2-.8-.2-.1,0-.3-.3-.4.4,0,0,0,0,0,0-.4-.8-.8.3-1.2,0-.4-.2-.8-.1-1.3-.1-.1,0-.2-.2-.4.2,0,.2-.2.2-.2,0-.2-.7-.6-.3-.9-.5-.3-.2-.7,0-1-.5-.1-.2-.3-.4-.6.2-.1.3-.3,0-.4,0-.1,0-.3.3-.4.3,0,0-.1-.3-.2-.4,0,0,0,0,0,0-.6.6-.9-.4-1.5-.4-.5,0-1-.1-1.5-.3-.3-.1-.5-.4-.4-1.5,0-.5.2-1.1.4-1.4.1-.2.3-.4.4-.4.2,0,.4-.2.5-.2.4-.1.8-.6,1-.2,0,.1.3-.2.2.4,0,0,0,.1,0,0,.6-.7.9,0,1.3,0,.4,0,.8-.5,1.1-.2.3-.6.5-.4.7-.2.6.8,1.4.4,2,.6.7.2,1.4,0,2.1.1.1,0,.2-.4.3,0,.1.3.3,0,.4,0,.1,0,.3-.2.4,0,.6.6,1.1.1,1.6.1.5,0,1.1,0,1.5-.4.3-.2.5-.6.8-.6.2,0,.2-.4.5.1,0,.1,0-.3.1-.4.2-.1.4-.2.6-.3.3-.1.6-.2.9-.4.2-.1.2-.4.4-.6.2-.2.3-.2.6-.3.3,0,.6,0,.9,0,.3,0,.4-.5.8-.4.7.2,1-.3,1.5-.5.5-.2,1-.4,1.2-.7.1-.2.6.1.7,0,0,0,1.2.8,1.6,1.2,0,0,.1.2.1.2.1.6.3,1.4,0,1.6-.6.3-1,.6-1.4.9Z" fill="#aaca60"/>
  <path d="M246.7,348.6c.4-.2.7-.4,1.1-.6.1,0,.4,0,.2-.5,0-.3.4.2.5,0,.3-.3.7-.4.9-.7.3-.3.4-.7.7-.9.3-.3.7-.3.8-.7,0-.4.6-.2.7-.5.2-.3.3-.5.7-.6.3,0,.6,0,.7-.2,0-.1,0-.5,0-.5.1,0,.4,0,0-.5,0,0,0,0,.2,0,.4.2.5,0,.3-.2-.1-.3,0-.3,0-.4.1-.2.3-.4.4-.6.1-.1.4-.1.6-.3.1-.1,0-.4.3-.4.3,0,.4-.2.4-.4,0,0,.3-.1-.3-.3,0,0,0,0,0,0,.4,0,.4-.2.3-.3-.1-.1-.3-.3-.2-.4.2-.3,0-.5,0-.8,0,0,.1-.2-.3-.2-.2,0-.2,0,0-.1.6-.4.1-.5.2-.7,0-.3-.3-.4,0-.9.1-.2.2-.4-.4-.3-.3,0,0-.2-.2-.3,0,0-.4,0-.4,0,0,0,.1-.2.2-.4,0,0,0,0,0,0-.8,0-.3-.9-.7-1.2-.4-.3-.6-.7-.8-1.2-.1-.2-.1-.6.7-1.4.4-.4.8-.7,1.1-.8.2,0,.5-.1.6,0,.2,0,.4.1.6.2.4.2,1,.1,1,.6,0,.1.3,0,0,.4,0,0,0,.1,0,.1.9,0,.8.7,1.1,1.1.3.3,1,.4,1,1,.7,0,.7.3.6.6-.2,1.1.5,1.8.6,2.9,0,1,.2,2.1,0,3.1,0,.2.3.4,0,.6-.3.1-.2.4-.3.7,0,.2,0,.5-.2.6-.9.5-.9,1.3-1.5,1.9-.5.6-1,1-1.4,1.6-.2.4-.3.9-.7,1.1-.2,0,0,.5-.6.1-.1,0,0,.4,0,.4-.2.2-.4.4-.6.5-.3.2-.6.4-.9.7-.2.2-.2.5-.4.7-.2.2-.4.3-.6.4-.3.1-.7.1-1,.2-.3.1-.4.5-.8.5-.7-.1-1.1.4-1.6.6-.5.2-1,.5-1.4.8-.2.2-.7-.1-1,0-.1,0-.9-1.2-1.1-1.7,0,0,0-.2,0-.2,0-.5,0-1.3.2-1.4.4-.1.8-.4,1.2-.6Z" fill="#aaca60"/>
  <path d="M294.3,419.8l2.5,2.8c.9.9,1.7,1.8,2.6,2.7,1.7,1.8,3.5,3.5,5.4,5.3,1.3,1.3,2.6,2.7,4.4,3.6.9.4,1.8,2.1,3.1,3.2,1.8,1.5,3.6,3,5.4,4.4l2.8,2.2c.9.7,1.9,1.4,2.8,2,.9.6,1.9,1.3,2.8,1.9l2.9,1.8c1,.6,1.9,1.2,2.9,1.8l2.9,1.7c3.9,2.2,7.8,4.6,11.8,6.2,1.7.7,3.4,1.4,4.9,2.2,1.6.8,3.1,1.5,4.8,2,3.5,1.1,7.1,1.7,10.4,1.4,2.4-.1,4.9-.8,7.1-2.1,1.4-.8,2.4-1.9,3.8-3,1.3-1,2.9-2,3.6-3.4,0-.1.7-.5,1-.7,1.6-.9,3.1-2.6,4-3.9.8-1.3,1.8-2.2,2.7-3.2l3.9-4.3c1.3-1.4,2.5-2.9,3.8-4.3,1.9-2.2,3.9-4.2,5.8-6.4,1.9-2.3,3.7-5,5.6-7,1.9-2,3.5-4.2,5.1-6.4.9-1.2,2.2-2.6,2.4-4,0-.1.4-.6.6-.8,3.2-3.1,4.8-7.4,7.4-11,2.7-3.7,5.1-7.8,7.6-11.9.7-1.1,1.5-2.1,1.7-3.3,0-.4.7-1.6,1.2-2,2.3-2.6,3.9-6,5.7-9,2.2-3.4,3.9-7.1,6.4-10.4,1-1.4,2.3-3.4,2.7-5.5.2-1,1.4-2.6,2-3.9.5-1.1.7-2.3,1.2-3.3.4-.9,1-1.7,1.5-2.6.2-.3.3-.6.4-.9.8-2.8,1.8-5.5,2.7-8.2.9-2.7,1.7-5.5,1.8-8.3.3-5.6-.9-11.3-3.1-16.6-1.2-2.9-2.7-5.8-3.1-8.2-.2-1.1.3-1.5,1.4-.5.4.4.8.8,1.2,1.2.4.4.8.9,1.1,1.4,1.1,1.6,2.1,3.3,2.9,5,1.7,3.6,3.4,7.3,3.6,11.6,0,1.3.4,2.8,0,3.9,0,.1-.1.7,0,.9.2,1.4.1,2.8,0,4.3-.2,1.4-.4,2.8-.8,4.1-.7,2.7-1.6,5.4-2.6,8-1.6,4.4-3,8.8-5.4,12.9-.6,2.6-2.2,5.2-3.7,7.4-5.1,7.6-9.3,15.8-14.2,23.5-4.9,7.9-9.9,15.7-15.2,23.4-.9,1.3-1.4,2.6-2.7,4-1.2,1.3-2.4,3.2-3.6,4.8-1.1,1.5-2.2,3.1-3.4,4.4-5,5.4-9.3,11.3-14.2,16.7-2.5,2.7-5,5.3-7.5,7.9-2.5,2.6-5.1,5.2-8,7.6-1.8,1.5-3.6,2.9-5.7,4-2.1,1.2-4.4,2.1-6.8,2.4-2.1.3-4.4.7-6.3-.2-.5-.2-2.5,0-3.8-.4-3.2-.7-6.1-1.9-8.9-3.2l-3-1.3-2.9-1.4-2.9-1.4-2.8-1.5c-1.1-.6-2.3-1.1-3.5-1.7-1.1-.6-2.3-1.2-3.4-1.9l-1.8-1c-.6-.4-1.2-.7-1.7-1.1-1.1-.8-2.3-1.5-3.4-2.3-2.8-2.1-5.5-4.2-8.1-6.4-1.4-1.1-2.9-2.2-4.2-3.4-1.4-1.2-2.8-2.3-4-3.5-4.4-4.6-9.1-8.8-13.4-13.4-4.2-4.6-8.3-9.4-12.4-14.2-2.3-2.7-3.9-5.6-5.9-8.4-1-1.3-1.1-3.9-.3-3.7.2,0,.4.2.6.4,1.2,1.2,2.4,2.3,3.6,3.5,1.2,1.2,2.4,2.4,3.6,4,1.7,2.3,3.6,4.4,5.4,6.6,1.9,2.1,3.7,4.3,5.7,6.4Z"/>
  <path d="M355.6,406.5c-1.1-.5-2.1-1.1-3.2-1.5-.4-.2-.7-.6-1.4-.3-.3.1-.4-.6-.8-.8-1-.4-2-1-3-1.4-1-.4-2.1-.7-3.1-1.1-1-.4-1.8-1.2-2.9-1.4-.9-.2-1.4-1-2.2-1.3-.9-.3-1.7-.7-2.4-1.3-.5-.5-1-.9-1.6-1.1-.4-.1-.9,0-1.3-.2-.4-.2-.6-.7-1.2-.3,0,0-.2-.2-.2-.3-.2-.6-.7-.8-1.1-.7-.4,0-.7-.1-1-.3-.8-.4-1.7-.8-2.4-1.3-.6-.4-1.1-.9-1.6-1.3-.6-.4-1.4-.5-1.8-1.1-.4-.6-1-.9-1.6-1.2-.3-.2-.6-.6-1.1-.2,0,0-.2,0-.2-.1-.5-1.2-2-.8-2.8-1.5-.9-.7-1.9-1.1-2.9-1.7-.3-.1-.4-.5-.9-.2-.2,0-.4,0-.5-.2-.4-1-1.4-1.1-2-1.6-.8-.6-1.8-.8-2.4-1.7-.3-.4-.7-.8-1.4-.5-.3.1-.6-.4-.9-.5-.3-.1-.7,0-.9-.2-.2-.1-.3-.4-.5-.7,0,0-.1-.1-.2-.1-1.6-.1-2.3-1.6-3.6-2.2-1.3-.6-2.5-1.4-3.7-2.2-.6-.5-1.2-1-1.1-2.3,0-.6.4-1,.8-1.1.3,0,.7-.1,1,0,.4.1.9.3,1.3.4.9.3,1.9.3,2.6,1.1.2.2.7.1.6.7,0,0,0,.2.1.2,1.5,0,2.3,1.1,3.5,1.7,1,.5,2.2.5,3,1.3.8-.2,1.4.2,1.8.7,1.5,1.7,3.6,2.3,5.4,3.5,1.8,1.2,3.8,2.1,5.7,3.2.3.2.8,0,1,.5.2.4.8.5,1.2.7.4.2.8.3,1.1.7,1.2,1.4,2.9,1.9,4.4,2.7,1.5.9,2.9,1.7,4.5,2.4,1,.4,2,.6,2.9,1.2.4.3.9.2,1.1.9,0,.2.6,0,.9.1.7.3,1.3.6,1.9,1,.9.5,1.7.9,2.7,1.3.6.2,1.2.3,1.8.5.6.2,1.2.5,1.7.8.7.4,1.3,1,2,1.4.7.4,1.6.6,2.2,1.1,1.1,1.1,2.5,1.5,3.9,2.2,1.3.7,2.6,1.4,4,1.9.8.3,1.3,1.1,2,1.4.3.2.2,1.7-.2,2.1,0,0-.2.1-.2.1-.9,0-1.9.4-2.7,0-1.2-.6-2.4-1.2-3.7-1.7Z"/>
  <path d="M271.9,335.4c.5.6,1.1,1.3,1.6,1.9.2.2.2.6.8.5.3,0,0,.6.2.8.6.5,1,1.2,1.5,1.7.5.5,1.2,1,1.7,1.5.5.5.8,1.3,1.5,1.6.6.3.6,1,1.1,1.4.5.4,1,.8,1.2,1.5.2.5.3.9.7,1.2.2.2.6.2.8.4.2.2.2.6.8.4,0,0,0,.2,0,.3-.1.5.2.8.5.8.4,0,.5.2.6.4.4.5.9.9,1.2,1.5.3.4.4.9.7,1.3.3.4.8.6.9,1.2,0,.6.4.9.7,1.2.2.2.1.6.8.4,0,0,.1,0,.1.1-.2,1.1,1.1,1,1.4,1.7.3.7.9,1.3,1.4,1.9.1.2.1.5.6.3.2,0,.3.1.3.3-.1.8.5,1.1.8,1.7.3.6.9,1,.9,1.9,0,.4.1.7.8.7.3,0,.3.4.5.6.2.1.5.2.6.3.1.1,0,.4,0,.6,0,0,0,.1,0,.1,1.1.5.9,1.8,1.5,2.5.7.7,1.1,1.6,1.6,2.4.3.5.4,1-.3,2-.3.4-.7.8-1.1.8-.3,0-.6,0-.8-.1-.3-.2-.6-.4-.8-.6-.5-.4-1.3-.7-1.5-1.4,0-.2-.4-.3,0-.7,0,0,0-.2,0-.2-1.2-.3-1.2-1.4-1.7-2.1-.4-.6-1.4-.9-1.5-1.6-.8,0-.9-.4-1-.9-.3-1.6-1.5-2.5-2.3-3.7-.8-1.2-1.8-2.3-2.8-3.5-.2-.2-.6-.1-.6-.5,0-.4-.4-.5-.6-.8-.2-.2-.5-.4-.6-.7-.3-1.3-1.3-2-2.1-2.9-.7-.9-1.4-1.9-2.3-2.7-.5-.5-1.3-.8-1.7-1.4-.2-.3-.6-.3-.4-.9,0-.2-.5,0-.6-.2-.4-.3-.7-.7-1-1.1-.4-.5-.9-1.1-1.4-1.6-.3-.3-.8-.5-1.1-.7-.3-.3-.6-.6-.9-1-.3-.5-.5-1-.8-1.5-.3-.5-.9-.8-1.1-1.4-.3-1.1-1.1-1.7-1.8-2.5-.6-.8-1.3-1.6-2-2.3-.4-.4-.4-1.1-.8-1.5-.2-.2.7-1.4,1.2-1.7,0,0,.2,0,.2,0,.7.1,1.6,0,2,.5.6.8,1.2,1.4,1.8,2.1Z"/>
  <path d="M254.3,342.5c.2-.2.4-.3.6-.6,0,0,.3,0,0-.4-.1-.2.4.2.4,0,.1-.2.4-.3.5-.5.1-.2.2-.5.3-.8.1-.2.5-.2.5-.6,0-.3.4,0,.5-.3,0-.2.2-.4.5-.4.2,0,.5.1.5,0,0-.1-.1-.4,0-.5,0,0,.3,0,0-.4,0,0,0,0,.1,0,.3.2.4.1.3-.1-.1-.3,0-.3,0-.3.1-.2.3-.3.5-.4.2,0,.4,0,.6,0,.2,0,.1-.4.4-.3.3.1.4,0,.5,0,0,0,.3.1,0-.4,0,0,0,0,0,0,.7.5.2-.5.5-.5.3,0,.4-.3.6-.5,0,0,.2,0,0-.3,0-.1,0-.2,0-.1.5.4.5,0,.7,0,.2,0,.2-.4.7-.2.2.1.4.1,0-.4-.1-.2.1,0,.2-.2,0,0,0-.3,0-.4,0,0,.2.1.3.2,0,0,0,0,0,0-.2-.7.7-.2.8-.6.1-.3.5-.5.8-.6.2,0,.4,0,1.2.8.4.4.7.8.8,1.1.1.2.2.4.2.5,0,.1,0,.3,0,.4,0,.3.1.8-.2.7-.1,0,0,.3-.3-.1,0,0,0,0,0,0,.3.8-.3.6-.5.8-.2.2,0,.8-.3.8.3.6,0,.6-.1.5-.8-.2-.9.4-1.3.7-.4.2-.8.6-1.2.9,0,0,.1.4-.1.2-.2-.1-.2,0-.3.2,0,0,0,.2-.2.2-.7-.3-.8.3-1.1.5-.3.2-.7.4-.9.8-.1.2,0,.6-.3.7-.1,0,0,.3-.4,0-.1-.1,0,.3,0,.4,0,.1-.2.2-.4.3-.2.1-.4.3-.5.5,0,.1,0,.4,0,.5,0,.1-.2.2-.3.3-.2,0-.5,0-.6.1-.2,0-.1.4-.5.3-.6-.2-.7.3-.9.4-.3.2-.6.4-.7.7,0,.2-.6,0-.7,0,0,0-1.2-.9-1.5-1.3,0,0-.1-.2-.1-.2-.2-.5-.6-1.1-.4-1.2.3-.2.5-.4.7-.6Z"/>
  <path d="M263.2,362.2c-.2-.3-.4-.6-.7-.9-.1-.1,0-.4-.5-.2-.3,0,.2-.4,0-.5-.3-.2-.4-.6-.7-.9-.3-.2-.6-.4-.9-.7-.2-.3-.2-.7-.7-.8-.4,0-.1-.6-.4-.7-.3-.2-.5-.4-.5-.8,0-.3.1-.6-.1-.7-.1,0-.5,0-.5-.1,0-.1,0-.4-.5-.2,0,0,0,0,0-.2.3-.3.2-.5-.1-.4-.3,0-.3,0-.4-.1-.2-.2-.4-.5-.5-.8,0-.2,0-.5,0-.7,0-.2-.4-.3-.3-.6.2-.3,0-.5,0-.7,0-.1.1-.4-.5-.1,0,0,0,0,0,0,.5-.7-.6-.5-.6-.9,0-.4-.3-.7-.5-1,0,0,0-.3-.4-.1-.2,0-.2,0-.1-.1.4-.5,0-.6,0-.9,0-.3-.4-.5-.2-1,.1-.2.1-.4-.5-.3-.3,0-.1-.2-.2-.3,0,0-.4,0-.4,0,0,0,.1-.2.2-.4,0,0,0,0,0,0-.8-.1-.2-.9-.6-1.2-.3-.3-.4-.6-.5-1l-1-3.4,2.8.2h.3c.3,0,.5.2.8,1.3.1.5.2,1.1.1,1.4,0,.2-.1.5-.2.6-.1.1-.3.3-.4.4,0,0-.1.2-.2.2l1.2-2.3c.3,0,.6.2.5.5,0,.1.3,0-.1.4,0,0,0,0,0,0,.9,0,.6.6.8.9.2.3.9.3.8.7.6-.1.6.1.6.4-.3.9.4,1.3.7,1.9.2.6.7,1.2,1,1.8,0,.1.4,0,.2.3-.2.2.1.3.2.4,0,.1.3.2.2.4-.3.8.3,1,.5,1.5.2.5.5,1,.9,1.3.3.2.7.3.8.6,0,.1.4,0,0,.5-.1.1.3,0,.4,0,.2.2.3.4.4.5.2.3.3.5.5.8.1.1.4.1.6.3.2.1.3.3.3.5,0,.2,0,.6.1.8,0,.2.5.3.4.7-.1.7.3.9.6,1.3.2.4.5.8.8,1.1.2.2,0,.7.1.9,0,0-1,1.1-1.4,1.4,0,0-.2,0-.2.1-.5,0-1.2.3-1.4,0-.2-.4-.5-.7-.8-1Z"/>
  <path d="M234,342.7c.5.4.9.9,1.5,1.3.2.1.2.5.8.3.3-.1,0,.5.2.6.5.3.9.8,1.5,1.1.5.3,1.1.5,1.6.8.5.3.8.9,1.5,1,.6,0,.6.7,1.1.9.5.2.9.4,1.2.9.2.3.4.7.7.8.2,0,.6,0,.8,0,.2.1.2.5.7,0,0,0,0,.1,0,.2,0,.5.3.6.6.5.3-.1.4,0,.6,0,.4.2.9.5,1.3.8.3.2.5.6.8.9.3.2.8.2,1,.7.2.4.5.6.8.8.2,0,.3.5.7,0,0,0,.1,0,.1,0,.1,1,1.1.3,1.6.7.4.5,1.1.6,1.6.8.2,0,.2.3.6,0,.1-.1.3,0,.3,0,.1.8.7.6,1.1.9.4.3,1,.3,1.3.9.1.3.4.5.8,0,.2-.2.4.1.6.2.2,0,.4-.2.6-.1.1,0,.2.3.3.5,0,0,0,0,.1,0,1-.3,1.4.7,2.2.8.8,0,1.5.4,2.2.7.4.2.8.5.7,1.7,0,.5-.2,1.1-.5,1.3-.2.2-.4.4-.6.4-.3,0-.6,0-.8,0-.6,0-1.2.4-1.7,0-.1-.1-.4,0-.4-.4,0,0,0-.1,0-.1-.9.5-1.5-.2-2.2-.4-.6-.2-1.4.2-1.9-.3-.6.5-.9.2-1.2-.1-.9-1.1-2.2-1.2-3.3-1.8-1.1-.6-2.3-1.1-3.4-1.7-.2-.1-.5.1-.6-.2,0-.3-.5-.3-.7-.4-.2-.1-.5-.1-.7-.4-.5-1.1-1.6-1.2-2.4-1.8-.8-.6-1.6-1.1-2.5-1.5-.6-.2-1.2-.3-1.7-.7-.2-.2-.6,0-.5-.7,0-.2-.4,0-.6,0-.4-.2-.7-.5-1-.7-.5-.3-.9-.7-1.4-1-.3-.2-.7-.2-1-.4-.3-.2-.6-.4-.9-.7-.3-.4-.6-.8-.9-1.1-.3-.3-.9-.5-1.1-1-.3-.9-1.1-1.3-1.7-1.9-.6-.6-1.2-1.2-1.9-1.7-.4-.3-.4-.9-.7-1.3-.2-.2.7-1.4,1.1-1.7,0,0,.2-.1.2-.1.7,0,1.4-.3,1.8.1.5.6,1.1,1,1.6,1.5Z"/>
  <path d="M221.8,350.7c.1-.2.2-.3.3-.5,0,0,.3,0-.1-.4-.2-.2.4,0,.4,0,0-.2.2-.3.3-.5,0-.2,0-.5,0-.7,0-.2.4-.2.2-.5-.1-.3.3-.1.3-.3,0-.2,0-.4.3-.4.2,0,.5,0,.4-.1,0,0-.2-.3-.2-.4,0,0,.3,0-.2-.4,0,0,0,0,.2,0,.4.2.4,0,.2-.1-.2-.2-.1-.2-.1-.3,0-.2.1-.3.3-.4.1,0,.4,0,.5,0,.1,0,0-.3.3-.3.3,0,.4,0,.4,0,0,0,.3,0-.2-.4,0,0,0,0,0,0,.8.4,0-.4.3-.5.3,0,.3-.3.4-.4,0,0,.2,0-.1-.3-.1-.1,0-.2,0-.1.6.3.4,0,.6-.1.2,0,0-.4.6-.2.2,0,.4,0,0-.4-.2-.2,0,0,0-.2,0,0-.2-.3-.2-.3,0,0,.2,0,.3.1,0,0,0,0,0,0-.4-.6.5-.2.5-.5,0-.3.2-.5.5-.6.1,0,.4,0,1.3.6.4.3.8.7,1,.9.2.2.3.4.3.5,0,.1,0,.3,0,.4,0,.2.3.7,0,.6,0,0,0,.2-.3,0,0,0,0,0,0,0,.5.7,0,.5-.2.7,0,.2.3.7,0,.7.4.5.3.5,0,.4-.7-.2-.6.4-.9.6-.3.2-.4.6-.7.8,0,0,.2.3,0,.2-.2-.1-.1,0-.2.2,0,0,0,.2-.1.2-.7-.2-.5.3-.8.5-.2.2-.4.4-.5.7,0,.2.2.5,0,.6,0,0,.2.3-.4,0-.2,0,.2.2.2.3,0,.1-.1.2-.2.3,0,.1-.2.2-.2.4,0,.1.1.3.1.4,0,.1,0,.2-.2.3-.1,0-.4,0-.5.1-.1,0,0,.3-.3.3-.6,0-.5.3-.6.5-.2.2-.3.4-.3.6,0,.2-.5,0-.6.1,0,0-1.4-.6-1.8-.9,0,0-.2-.1-.2-.1-.3-.3-.9-.8-.8-.9.2-.2.2-.4.4-.6Z"/>
  <path d="M247.8,376.1c-.6-.3-1.1-.7-1.7-1-.2-.1-.3-.5-.8-.2-.3.2-.1-.5-.3-.6-.6-.3-1.1-.7-1.6-1-.5-.3-1.2-.5-1.7-.7-.5-.3-.9-.9-1.5-1-.6,0-.7-.7-1.1-.9-.5-.2-1-.4-1.2-.9-.2-.4-.3-.7-.7-.9-.2,0-.6,0-.8-.1-.2-.2-.2-.5-.8-.1,0,0,0-.1,0-.2,0-.5-.2-.6-.5-.5-.3,0-.4,0-.6-.1-.4-.3-.9-.6-1.2-1-.3-.3-.4-.7-.7-1-.3-.3-.8-.3-.9-.8,0-.5-.4-.7-.7-.9-.2-.1-.2-.5-.7-.1,0,0-.1,0-.1,0,0-1-1.1-.5-1.4-1.1-.3-.6-.9-.9-1.4-1.2-.1-.1-.1-.4-.6-.1-.1,0-.3,0-.3-.2,0-.8-.6-.8-.8-1.2-.3-.5-.9-.6-1-1.3,0-.3-.2-.6-.8-.4-.3.1-.3-.3-.5-.4-.2,0-.5,0-.6,0-.1,0,0-.4,0-.5,0,0,0,0,0,0-.5,0-.8-.4-1-.7-.2-.4-.3-.7-.8-1.1-.4-.3-.9-.8-1.2-1.6-.3-.7-.3-1.5-.2-2.2.2-.8.9-1.6,2.3-1.1.3.1.6.3.9.4.2.1.2.2.3.2,0,0,.1.2,0,.3,0,.1,0,.3,0,.4.1.3.7.2.5.5,0,.1.3,0,0,.4,0,0,0,.1,0,.1.9-.2,1.1.7,1.6,1.2.5.4,1.3.3,1.6.9.7-.2.9.1,1,.5.4,1.3,1.6,1.7,2.4,2.6.8.9,1.8,1.6,2.7,2.4.2.1.5,0,.5.3,0,.3.4.4.6.5.2.2.5.2.5.5.3,1.1,1.3,1.4,2,2,.7.6,1.4,1.3,2.3,1.7.5.3,1.2.3,1.6.8.2.2.6,0,.4.7,0,.2.4,0,.5,0,.3.2.6.5,1,.7.4.3.9.7,1.3.9.3.2.7.2,1,.3.3.1.6.3.9.6.3.3.6.7.9,1,.3.3.9.3,1.1.8.4.9,1.2,1.1,1.9,1.5.7.5,1.3.9,2.1,1.2.4.1.5.8.9,1,.2,0-.2,1.5-.5,2,0,0-.1.2-.2.2-.6.2-1.3.7-1.8.4-.7-.4-1.3-.8-2-1.2Z"/>
  <path d="M220.1,371.3c0-.2.2-.4.2-.7,0,0,.3,0-.2-.3-.2-.1.4,0,.4-.1,0-.2.2-.4.2-.6,0-.2-.1-.5-.1-.7,0-.2.4-.3.1-.6-.2-.3.3-.2.3-.4,0-.2,0-.4.2-.5.2,0,.5,0,.4-.3,0,0-.3-.3-.3-.4,0,0,.3,0-.2-.3,0,0,0,0,.2,0,.4,0,.4,0,.2-.2-.2-.2-.2-.2-.2-.3,0-.2,0-.4.2-.5,0-.1.4-.1.5-.2.1-.1,0-.4.2-.4.3,0,.4-.1.4-.2,0,0,.3,0-.2-.3,0,0,0,0,0,0,.8.1,0-.5.2-.6.3-.1.2-.4.3-.6,0,0,.2,0-.2-.3-.1,0-.1-.2,0-.1.6.1.4-.2.5-.3.2-.1,0-.4.5-.4.2,0,.4,0-.1-.4-.2-.2,0-.1,0-.2,0,0-.2-.2-.2-.3,0,0,.2,0,.4,0,0,0,0,0,0,0-.5-.6.5-.4.4-.7,0-.3.2-.5.4-.7.1-.1.4-.2,1.4.3.5.2,1,.5,1.2.7.2.2.4.3.4.4,0,.1.1.3.2.4,0,.2.5.6.1.7-.1,0,.1.2-.3,0,0,0-.1,0,0,0,.6.6,0,.5,0,.8,0,.2.4.7,0,.7.5.4.4.4.1.5-.8,0-.5.6-.8.9-.3.3-.3.7-.5,1.1,0,0,.3.3,0,.2-.3,0-.1.1-.2.2,0,0,0,.2-.1.2-.7,0-.5.5-.7.7-.2.3-.4.5-.3.9,0,.2.3.5,0,.6,0,0,.2.3-.4.1-.2,0,.2.2.2.2,0,.1,0,.2-.1.4,0,.2-.2.3-.2.5,0,.1.2.3.2.4,0,.1,0,.2-.1.3-.1.1-.4.2-.5.3-.1.1.1.4-.2.4-.6.1-.4.4-.5.7-.1.2-.2.5-.2.8,0,.2-.5.2-.5.3,0,0-1.5-.2-1.9-.4,0,0-.2,0-.2,0-.4-.3-1.1-.6-1-.8.1-.2.2-.5.2-.8Z"/>
  <path d="M252.9,391.2c-.7-.1-1.3-.3-2-.4-.2,0-.4-.4-.8,0-.2.2-.3-.5-.5-.5-.6,0-1.2-.4-1.8-.5-.6-.1-1.3,0-1.9-.2-.6-.1-1.1-.6-1.8-.5-.6.1-.8-.5-1.3-.6-.5,0-1.1-.2-1.4-.6-.3-.3-.5-.6-.9-.7-.2,0-.6.2-.8,0-.2-.1-.3-.5-.8,0,0,0,0-.1,0-.2,0-.5-.3-.6-.7-.4-.3.2-.4,0-.6,0-.5-.2-1-.4-1.4-.7-.3-.2-.6-.6-.9-.8-.3-.2-.9-.2-1-.6-.2-.5-.5-.6-.8-.8-.2-.1-.3-.5-.7,0,0,0-.1,0-.1,0-.1-1-1.1-.4-1.6-.9-.4-.5-1.1-.7-1.6-1-.1,0-.2-.3-.6,0-.1.1-.3,0-.3-.1,0-.8-.7-.7-1-1.1-.4-.4-1-.5-1.2-1.2,0-.3-.3-.6-.8-.3-.3.1-.3-.2-.5-.3-.2,0-.5,0-.6,0-.1,0,0-.4-.1-.5,0,0,0,0-.1,0-1.1,0-1.1-1.2-1.8-1.5-.7-.4-1.3-1-1.9-1.6-.3-.3-.5-.8,0-1.8.2-.5.6-.9,1-1,.3,0,.5-.2.7,0,.2,0,.5.1.8.2.5.2,1.2.1,1.4.6,0,.2.4,0,.2.5,0,0,0,.1,0,.1,1-.2,1.2.7,1.8,1,.5.3,1.3.2,1.6.7.6-.3.9,0,1,.3.5,1.2,1.8,1.5,2.7,2.2.9.7,2,1.2,3,1.8.2.1.5-.1.6.2,0,.3.4.3.6.4.2.1.5.1.6.4.5,1,1.5,1.1,2.3,1.5.8.4,1.6.9,2.5,1.1.6.1,1.2,0,1.7.4.2.1.6,0,.6.6,0,.2.4-.2.5-.1.4,0,.7.3,1.1.4.5.2,1,.4,1.5.5.3,0,.7,0,1,0,.3,0,.7.1,1,.3.4.2.7.5,1.1.7.4.2.9,0,1.3.4.6.7,1.5.6,2.2.9.8.2,1.5.5,2.3.5.5,0,.8.6,1.2.6.2,0,.2,1.5,0,2,0,0,0,.2-.1.2-.5.4-1,1-1.5.9-.7-.2-1.5-.3-2.2-.5Z"/>
  <path d="M229.8,398.2c-.2-.3-.3-.6-.5-.8,0,0,.1-.3-.4-.2-.3,0,.3-.3.2-.4-.2-.2-.2-.5-.3-.8-.1-.2-.4-.4-.6-.7-.1-.2,0-.6-.3-.7-.3-.1.1-.4,0-.6-.2-.2-.3-.4,0-.6.1-.2.3-.3.2-.5,0,0-.4-.1-.4-.2,0,0,.3-.2-.4-.2,0,0,0,0,.1,0,.4-.1.4-.2,0-.3-.3,0-.3-.1-.3-.2,0-.2,0-.4,0-.6,0-.2.3-.3.3-.5,0-.2-.2-.3,0-.5.3-.2.3-.3.3-.4,0,0,.3-.2-.4-.2,0,0,0,0,0,0,.8-.3-.3-.4,0-.7.2-.2,0-.5,0-.7,0,0,.2-.1-.3-.2-.2,0-.2,0,0-.1.6-.2.2-.4.4-.5.1-.2-.2-.4.3-.6.2,0,.3-.2-.3-.3-.3,0,0-.1,0-.2,0,0-.3-.1-.3-.2,0,0,.2,0,.3-.1,0,0,0,0,0,0-.7-.3.3-.6,0-.9-.2-.3,0-.6,0-.9,0-.2.3-.3,1.4-.3.5,0,1.1,0,1.4.2.2,0,.5.2.5.2,0,0,.2.2.3.3.2.2.7.4.4.6,0,0,.2.1-.3.2,0,0-.1,0,0,0,.8.3.2.5.3.8,0,.2.7.4.4.6.6.1.5.3.3.4-.7.4-.2.8-.3,1.2,0,.4,0,.8,0,1.3,0,0,.4.1,0,.2-.3,0,0,.2,0,.3,0,0,.1.2,0,.3-.6.4-.2.7-.3,1,0,.3,0,.7.1,1,.1.2.5.3.4.5,0,0,.3.1-.3.3-.2,0,.3,0,.3,0,0,.1,0,.2,0,.4,0,.2,0,.3.1.5,0,0,.3.1.4.2,0,0,.1.2,0,.3,0,.1-.2.3-.2.5,0,.1.3.1,0,.4-.4.4,0,.5,0,.7,0,.2.2.4.4.5.1,0-.2.5,0,.5,0,0-.9,1.2-1.2,1.6,0,0-.1.1-.2.2-.4.2-1.1.6-1.2.4-.2-.3-.5-.6-.7-.9Z"/>
  <path d="M271.3,403.9c-.7,0-1.5,0-2.2.2-.3,0-.6-.2-.8.3-.1.3-.4-.3-.7-.3-.7.1-1.4,0-2.1.1-.7,0-1.3.3-2,.4-.7,0-1.3-.2-2,0-.6.3-1-.3-1.6-.1-.6.1-1.2.2-1.7,0-.4-.2-.8-.4-1.2-.4-.3,0-.5.4-.8.3-.3,0-.5-.3-.8.3,0,0-.1,0-.2-.2-.2-.4-.6-.4-.8-.2-.2.3-.4.2-.6.2-.6,0-1.1,0-1.7-.2-.4,0-.8-.4-1.2-.5-.4-.1-.9.1-1.3-.2-.4-.4-.8-.4-1.1-.5-.2,0-.4-.4-.7.2,0,0-.1,0-.1,0-.5-.9-1.3,0-1.9-.3-.6-.3-1.3-.3-2-.4-.2,0-.3-.3-.6.2,0,.1-.3.1-.4,0-.4-.7-1-.4-1.5-.7-.6-.3-1.2-.1-1.7-.7-.2-.3-.5-.4-.9,0-.2.2-.4-.1-.6-.1-.2,0-.4.2-.6.2-.1,0-.2-.3-.4-.4,0,0,0,0-.1,0-1,.4-1.6-.7-2.5-.8-.9,0-1.7-.4-2.5-.8-.4-.2-.9-.5-.8-1.7,0-.5.2-1.1.5-1.3.2-.2.5-.3.6-.3.3,0,.6,0,.9,0,.6,0,1.2-.3,1.7,0,.1.1.4,0,.4.4,0,0,0,.1,0,.1.9-.6,1.5.2,2.3.3.6.1,1.4-.3,2,0,.5-.5.9-.3,1.2,0,1.1,1,2.4.8,3.7,1.1,1.2.4,2.5.5,3.8.7.2,0,.5-.3.7,0,.2.3.5.1.8.2.3,0,.5,0,.8.1.9.8,2,.5,3,.7,1,.2,2,.3,3,.2.6,0,1.3-.4,1.9-.2.3,0,.6-.3.8.3,0,.2.3-.3.5-.3.4,0,.8,0,1.3,0,.6,0,1.2,0,1.8,0,.4,0,.7-.3,1.1-.3.4,0,.7,0,1.1,0,.5,0,1,.3,1.4.3.5,0,1-.3,1.5,0,.9.5,1.8.2,2.6.1.9,0,1.8,0,2.6-.3.5-.1,1,.3,1.5.3.2,0,.7,1.4.7,1.9,0,0,0,.2,0,.2-.4.5-.8,1.3-1.4,1.3-.8,0-1.7.2-2.5.2Z"/>
  <path d="M183.8,364c-1.9-2.9-3.6-5.8-5.3-8.8-.6-1.1-1-2.3-2.1-3.2-.5-.4-.6-1.8-1.2-2.8-1.6-2.7-3-5.5-4.6-8.3-1.5-2.7-3.1-5.3-4.5-8.1-1.4-2.8-2.3-5.9-3.4-8.8-1-2.5-1-5-1.4-7.5-.5-2.7-.6-5.5-.3-8.1.1-1,.3-1.9.5-2.8.2-.9.3-1.9.5-2.9.1-.7.2-1.3.5-2,.2-.7.6-1.4,1.1-2,.9-1.1,2.2-1.8,2.6-3,0,0,.5-.4.8-.5,1.3-.5,2.5-1.5,3.2-2.3.7-.8,1.5-1.3,2.3-1.9,2.2-1.5,4.6-2.8,7-3.9,1.8-.9,3.7-1.5,5.5-2.2,1.9-.8,3.8-1.8,5.7-2.2,1.9-.4,3.6-1,5.3-1.7,1-.4,2.2-.5,2.9-1.4,0,0,.4-.2.6-.2,3.1-.2,5.7-2.1,8.9-2.4,3.3-.4,6.6-.8,10.1-.3.9.1,1.8.5,2.8.3.3,0,1.3.2,1.7.5,1.1.8,2.3,1.4,3.5,2.2,1.2.8,2.3,1.8,3.1,2.8.9,1.2,1.8,2.3,2.6,3.4.8,1.1,1.6,2.3,2.1,3.6.5,1.1,1.3,2.5,2.6,3.3.6.4,1.1,1.7,1.7,2.5.5.7,1.1,1.2,1.6,1.9.4.6.5,1.3.8,2,0,.2.2.4.4.6,2.7,3.1,3.9,7.1,5.9,10.6,2,3.6,3.7,7.4,5.1,11.2.8,2.1,1.4,4.4.8,6.2-.3.8-.8,1-1.4.2-.5-.6-.9-1.2-1.2-2-.5-1.1-1.1-2.3-1.6-3.4-1.1-2.3-2.6-4.4-3.5-6.9-.3-.8-1-1.5-.8-2.3,0-.1,0-.4-.2-.6-2.3-2.8-3.6-6.2-5.4-9.3-1.6-2.6-3.7-4.8-5.2-7.5-1.4-1.1-2.5-2.8-3.3-4.3-.7-1.3-1.5-2.6-2.3-3.9-.8-1.3-1.7-2.4-2.6-3.3-1.8-1.8-4.3-2.8-6.9-3.3-2.7-.5-5.6-.5-8.5,0-2.9.4-5.8,1.3-8.6,2.2-1,.3-1.7.9-2.9,1.1-1.2.1-2.5.8-3.8,1.3-1.2.4-2.3,1-3.4,1.3-4.7,1.1-8.9,3.5-13.1,5.7-2.1,1.1-4.1,2.3-6,3.7-1,.7-1.9,1.4-2.8,2.1-.9.7-1.8,1.5-2.4,2.3-.8.9-1.1,1.8-1.2,3.1-.2,1.2-.2,2.7-.4,4.1-.1,1.2.2,2.5-.4,3.7-.2.3.3,1.5.4,2.2.2,1.9.4,3.8.8,5.7.6,2.6,1.3,5.2,2.4,7.7.6,1.5,1.5,2.9,2.3,4.4.8,1.5,1.6,3.1,2.4,4.7,1,2,1.9,4.1,2.9,6.1,1.1,2.1,2.5,4.1,3.3,6.2,1.6,3.9,3.8,7.4,5.9,10.9,2.1,3.5,4.5,6.8,7.3,9.6,1.6,1.5,2.8,3.3,4.7,4.5.8.6,1.3,2.6.7,2.8-.1,0-.3,0-.5,0-2.2-.8-4.4-1.6-6.4-3.5-1.4-1.4-2.8-2.9-4-4.4-1.2-1.5-2.4-3.1-3.5-4.7Z" fill="#aaca60"/>
  <g>
    <path d="M153.9,306.3c3.2-2.2,6.4-4.2,9.7-6.1,2.4-1.4,5.2-2.7,7.9-1.9,2,.6,3.5,2.3,4.9,3.9,3.9,4.7,7.8,9.3,11.4,14.3,6.7,9.3,11.9,19.6,17.1,29.7,3.8,7.4,7.6,14.9,8.6,23.1.2,1.4.2,2.9-.5,4.1-.6,1-1.7,1.6-2.8,2.2-5.5,2.8-11.1,5.4-16.9,7.7-3.2,1.3-6.7,2.4-10,1.6-2.9-.7-5.2-2.9-7.1-5.1-6.8-7.9-15.4-26.1-18.7-36-3.7-10.9-2.1-7.6-5-18.8-.6-2.2-1.2-10.7-.7-13,.4-2.3,2.2-4.5,4.5-4.6" fill="#aaca60"/>
    <path d="M154.4,325.5c.5,1.8.9,3.6,1.3,5.5.4,1.9.7,3.7,1.2,5.3.4,1.3.5,2.7,1.5,3.9.5.6.3,2.1.7,3.2,1.2,3.2,2.4,6.4,3.8,9.5,1.4,3,3,5.9,4.6,8.9,1.5,2.9,2.9,6,4.8,8.6,1.6,2.2,2.6,4.5,4.2,6.5,1.7,2.1,3.6,4,5.4,5.2.7.5,1.4.8,2.1,1,.8.2,1.6.2,2.4,0,1.1-.2,2-.7,3.2-1.1,1.1-.3,2.5-.6,3.3-1.6,0,0,.6-.2.9-.2,1.4-.1,2.9-.8,3.9-1.5.9-.7,1.8-1.1,2.7-1.5,2.5-1.2,5.1-2.4,7.6-3.7,1-.5,1.9-.8,2.3-1.2.2-.2.4-.3.5-.4.1-.2.2-.4.3-.7.1-.7,0-1.7-.3-2.8-.2-1-.4-2.1-.5-3-.2-2-.8-3.8-1.4-5.6-.4-1-.6-2.4-1.6-3,0,0-.3-.4-.3-.6-.5-3.3-3-5.7-4.3-8.7-1.4-3.1-3.1-6.2-4.7-9.2-.4-.8-.7-1.8-1.5-2.3-.3-.2-.8-1-.9-1.5-.7-2.5-2.3-4.7-3.6-7-1.4-2.6-3.2-5-4.5-7.7-.5-1.2-1.4-2.6-2.8-3.5-.6-.4-1.3-1.7-2-2.5-.6-.7-1.3-1.2-1.9-1.9-.5-.6-.8-1.3-1.2-2-.1-.2-.3-.4-.5-.6-1.6-1.5-3-3.2-4.3-4.9-1.3-1.8-2.5-3.5-3.9-4-.6-.2-1.3-.3-2.1-.2-.8.1-1.6.4-2.5.8-.9.4-1.8.9-2.8,1.4l-2.9,1.6c-2.1,1.2-4.3,2.4-6.3,2.4-.9,0-1.2-.5-.5-1.3.5-.6,1.1-1.3,1.8-1.8,1.1-.9,2.3-1.7,3.4-2.5,1.2-.8,2.3-1.7,3.5-2.5,1.2-.8,2.7-1.6,4.4-1.9,1-.2,2.4-.6,3.4,0,.1,0,.6.2.8.2,1.3,0,2.5.6,3.4,1.3,1,.7,1.7,1.5,2.4,2.3,1.3,1.6,2.5,3.2,3.8,4.7,2.2,2.6,4.8,4.8,6.7,7.7,1.7,1.1,2.9,3.1,3.8,4.8,3.3,6,7,11.7,10.1,17.7l4.7,9.1c1.6,3,3.2,6.1,4.6,9.3.5,1.1,1.2,1.9,1.5,3.3.3,1.3,1,2.9,1.5,4.3.4,1.4.9,2.8,1.1,4.2.1,1.4.2,2.8.3,4.3,0,.8,0,1.6-.2,2.5-.2.9-.6,1.9-1.2,2.6-.6.8-1.4,1.3-2,1.7-.7.4-1.3.7-1.9,1-1.2.6-2.4,1.2-3.6,1.8-2.4,1.1-4.9,2.2-7.4,3.3-2.5,1.1-4.9,2.1-7.5,3.1-1.6.6-3.3,1.2-5.2,1.4-1.9.2-4,0-5.8-1-1.5-.8-3.1-1.6-3.8-3-.2-.4-1.5-1.1-2.1-1.8-1.6-1.8-2.9-3.7-4.2-5.6-1.7-2.7-3.3-5.4-4.8-8.2-.9-1.7-2-3.2-2.9-4.9-1-1.8-1.8-3.6-2.6-5.4-1-2.3-1.8-4.7-2.7-7.1-.5-1.2-1-2.5-1.5-3.7-.5-1.3-.9-2.5-1.2-3.7-.5-2.3-1.1-4.5-1.7-6.9-.5-2.4-1-4.5-1.5-6.7l-.8-3.3c-.3-1.3-.4-2.5-.6-3.7-.2-2.4-.4-4.7-.5-7,0-.7,0-1.3,0-2,0-.7.2-1.6.6-2.2.6-1.4,1.6-2.7,2.9-3.6.6-.5,1.7-.5,2.3-.2.7.3.9.8.7,1.1,0,.1-.2.2-.4.3-.9.4-1.5,1.3-1.8,2.2-.2.4-.3.9-.4,1.4,0,.5,0,.9-.1,1.5-.1,1.9,0,4,.1,6.1,0,1,.2,2.1.3,3.1,0,.5.1,1,.2,1.5,0,.3,0,.4.1.6l.2.8Z" fill="#aaca60"/>
  </g>
  <path d="M277.4,336.8c.7-1.3,1.5-2.6,2.2-3.9.3-.5.8-.8.6-1.6,0-.4.7-.5,1-1,.6-1.2,1.4-2.4,2.1-3.6.6-1.2,1.2-2.4,1.8-3.6.6-1.2,1.6-2.2,2-3.4.4-1.1,1.3-1.7,1.8-2.6.5-1,1-2,1.8-2.8.6-.6,1.2-1.1,1.5-1.8.2-.5.2-1,.5-1.5.3-.4.8-.8.5-1.5,0,0,.2-.2.3-.2.6-.3.9-.8.9-1.4,0-.5.2-.8.4-1.2.6-1,1.1-2,1.8-2.9.5-.7,1.1-1.3,1.7-2,.5-.7.8-1.7,1.6-2.2.7-.5,1.2-1.2,1.6-1.8.3-.4.8-.6.6-1.3,0,0,0-.2.2-.2,1.5-.5,1.4-2.2,2.5-3.2,1.1-.9,2-2.1,3-3.1.3-.3.7-.4.7-1,0-.2.3-.5.5-.5.6-.1,1.1-.4,1.5-.8.4-.3.8-.8,1.3-1,1.1-.6,2-1.6,3.4-1.8.6,0,1.2-.3,1.6-1.1.2-.4.8-.4,1.2-.6.3-.2.6-.6.9-.7.3-.1.7,0,1,0,.1,0,.2,0,.3,0,1.6-1.3,3.7-.8,5.5-1.3,1.9-.4,3.9-.3,5.8,0,1.1.2,2.1.6,2.5,1.9.2.6,0,1.1-.5,1.3-.3.2-.7.3-1.1.3-.5,0-1.1,0-1.6,0-1.1,0-2.1.5-3.1.3-.3,0-.7.2-1-.2,0,0-.2,0-.2,0-1.3.9-2.8.7-4.2,1.2-1.2.4-2.1,1.4-3.3,1.7-.4.8-1.1,1.1-1.8,1.3-2.5.6-4.3,2.5-6.1,4.1-1.9,1.7-3.6,3.7-5.2,5.7-.3.3-.2.9-.7,1.1-.5.2-.7.9-1,1.3-.3.4-.5,1-.9,1.3-1.7,1.3-2.5,3.3-3.7,5.1-1.2,1.7-2.3,3.5-3.2,5.4-.6,1.1-1,2.4-1.8,3.5-.3.4-.4,1.1-1.2,1.2-.2,0-.1.7-.3,1-.4.8-.9,1.5-1.4,2.2-.7,1-1.3,2-1.9,3.1-.4.6-.5,1.4-.9,2.1-.4.7-.8,1.4-1.2,2-.6.8-1.3,1.5-1.8,2.3-.6.8-.9,1.9-1.6,2.6-1.4,1.3-2,3-3,4.5-.9,1.5-1.8,3.1-2.6,4.7-.4.9-1.3,1.5-1.8,2.4-.2.4-1.8.3-2.2-.1,0,0-.1-.2-.1-.3,0-1.1-.2-2.2.4-3.2.9-1.4,1.6-2.9,2.4-4.4Z"/>
  <path d="M144,345.6c-.1,1.3,0,2.6.3,4,.1.5-.2,1.2,1,1.4.6,0-.5,1-.2,1.4.6,1.2,1,2.6,1.8,3.7.8,1.1,1.9,1.9,2.8,2.6.4.4.8.9,1.2,1.3.4.4.9.7,1.5.7.5,0,.8.2,1.1.6.3.3.7.6,1.1.6,1,0,1.9,0,2.8.5.7.4,1.4.8,2.1.5.4-.2.7-.9,1.1-1,.4,0,1,.3.9-1,0-.1.2,0,.4.2.7.6,1.2.3,1.2-.4,0-.7.3-.7.5-.9.6-.6,1.2-1.2,1.9-1.8.5-.5,1.3-.8,1.7-1.3.5-.6.2-1.5,1-2,.8-.5.9-1.2,1-1.9,0-.4.7-.9-.6-1.2-.1,0,0-.2,0-.2.4-.3.6-.6.6-.8,0-.3-.1-.6-.3-.8-.4-.5-.9-.9-.9-1.5,0-1.2-.8-2.3-1.5-3.3-.2-.3,0-.8-1-.5-.3,0-.6-.2-.5-.4.4-1.5-.9-1.9-1.4-2.7-.7-1-1.9-1.4-2.3-2.9-.1-.6-.6-1.3-1.8-.6-.5.3-.7-.5-1.1-.6-.3,0-.9.2-1.2.1-.2-.1-.3-.7-.4-1,0,0-.1-.1-.2-.1-1,.3-1.6,0-2.3-.5-.7-.4-1.3-.9-2.1-.8-1.5.3-2.9.3-4.2.6-.7.2-1.4.1-3.3-1.3-.8-.7-1.6-1.5-1.5-2.3,0-.6.2-1.3.6-1.6.6-.5,1.2-1.1,1.8-1.6.7-.5,1.4-1,2.1-1.4.8-.4,1.6-.6,2.5-.4.5.1,1.2-.5,1.6.6,0,.1.3.2.4.2,1.1-.8,2.3-.7,3.4-.5,1.1.3,2.1.8,3.1,1.2,1.7.6,4,.3,5.3,1.8,1.5-.5,2.5.4,3,1.3,1,1.6,2.2,2.9,3.4,4.2,1.2,1.3,2.5,2.6,3.5,4.2,1.9,3.2,3.6,6.9,3.6,11.1,0,.7.7,1.3.1,2.1-.6.7-.3,1.7-.5,2.6,0,.4-.1.8-.2,1.2,0,.4-.2.8-.5,1.1-1.1,1.3-1.9,2.5-2.7,3.8-.8,1.3-1.6,2.6-2.8,3.6-2.3,2.1-5.1,3.5-8,4.6-1.7.7-3.6,1.6-5.5,1.3-.4,0-.8,0-1.3,0-.4,0-.8-.2-1.1-.8-.2-.4-1.1.4-1.6.3-1.3-.2-2.6-.7-3.8-1.2-1.7-.8-3.3-1.9-4.7-3-.9-.7-2-1.1-2.8-1.9-.9-.8-1.5-1.7-2.1-2.7-.7-1.3-.9-2.7-1.4-3.9-.5-1.3-1.5-2.4-1.4-3.9,0-1.3,0-2.6-.3-3.8-.2-1.2-.4-2.5-.4-3.8.1-2.6.8-5.2,1.8-7.8.3-.7.9-1.3,1.5-1.8.6-.5,1.3-.9,1.8-1.4.2-.3,1.1,0,1.8.5.8.5,1.5,1.2,1.7,1.6,0,.2.2.4.2.5-.1,1.4.6,2.8,0,3.5-.8,1.1-1.1,2.5-1.3,4Z"/>
  <path d="M248.9,310.6c.1-.5.3-1.1.3-1.6,0-.2.5-.3-.5-.7-.5-.2.8-.2.8-.4,0-.5.2-1,.1-1.5,0-.5-.5-.9-.6-1.4-.1-.4.5-.9-.2-1.2-.6-.3.4-.6.1-.9-.3-.3-.5-.5,0-.9.3-.3.6-.6.4-.8-.2,0-.8,0-.8-.1,0-.1.5-.5-.7,0-.1,0,0,0,.2-.2.7-.4.6-.6,0-.4-.5.2-.5,0-.6,0-.2-.2-.4-.4-.4-.6,0-.2.2-.7.1-.9,0-.3-.7,0-.4-.7.3-.6,0-.8-.1-.9-.1,0,.1-.7-.8.2,0,0-.1,0,0,0,.7-1.5-1-.1-1.1-.7-.1-.6-.7-.7-1.1-.9-.1,0,0-.4-.6.3-.2.2-.3.2-.3,0,.4-1.2-.3-.8-.5-1.1-.2-.4-.8,0-.7-1.1,0-.4,0-.7-.7.2-.3.5-.2,0-.4,0-.1,0-.4.5-.5.5,0,0,0-.5,0-.7,0,0,0,0,0,0-.4.6-.6.4-.7.1-.1-.3-.3-.7-.5-.5-.4.3-.7.2-1,0-.2,0-.3-.4-1.1-2.6-.4-1-.7-2-.7-2.7,0-.5,0-1,.2-1.1.2-.3.5-.6.8-.8.5-.5,1.2-1.5,1.9-.9.2.2.5-.4.6.6,0,.1,0,.2.1.2.5-.7,1-.8,1.4-.7.4.1.8.5,1.2.5.7,0,1.8-.8,2.2,0,.9-1,1.2-.6,1.4,0,.6,1.8,2,1.7,3,2.5.9.8,2,1.4,2.9,2.3.2.1.8-.3.6.3-.2.5.3.5.6.7.2.2.6.2.5.6-.2,1.7,1,1.9,1.5,3,.5,1,.9,2.1,1.6,3,.4.6,1.3,1,1.2,1.8,0,.3.7.5-.4,1-.3.1.6.2.7.4.2.4.2.9.2,1.4,0,.6,0,1.2.1,1.8,0,.4.6.7.7,1.1.1.4,0,.8,0,1.1-.2.5-.7.9-.8,1.3-.2.4.3,1-.3,1.4-1.1.6-.8,1.5-1,2.2-.3.7-.5,1.4-.4,2.2,0,.5-.4.9-.9,1.3-.5.4-1,.8-2,1.4-.2.1-.6,0-1-.1-.3-.2-.6-.6-.7-1-.1-.4,0-.9,0-1.3,0-.2,0-.4.1-.6h0s0,0,0,0c0,.1,0-.1-.4-.4-.3-.3-.9-.6-1.2-.7h-.1s0,0,0,0h0s0,0,0,0h0s0,0,0,0c1,.2-1.4-.3-1.2-.3h0s0,0,0,0h0s0,0,0,0h0c0,0,0-.2,0-.2,0-.2,0-.3.1-.5l.2-1Z"/>
  <path d="M210.7,313.8c-.2-.2-.4-.4-.6-.6,0,0,0-.3-.4,0-.2.1.2-.4,0-.4-.2-.1-.3-.4-.5-.5-.2-.1-.6-.2-.8-.4-.2-.2-.1-.5-.5-.5-.4,0,0-.5-.3-.5-.2,0-.4-.2-.3-.5,0-.2.2-.5,0-.5-.1,0-.4,0-.5,0,0,0,.1-.3-.4,0,0,0,0,0,0-.1.3-.3.2-.4,0-.3-.3,0-.3,0-.3,0-.1-.2-.3-.3-.3-.6,0-.2,0-.4,0-.6,0-.2-.4-.2-.2-.5.2-.3.1-.4,0-.5,0,0,.2-.3-.4,0,0,0,0,0,0,0,.7-.6-.4-.3-.3-.7.1-.3-.1-.5-.3-.7,0,0,.1-.2-.3-.1-.2,0-.2,0-.1-.1.5-.4,0-.5.1-.7,0-.3-.3-.4.1-.7.2-.1.2-.3-.4-.3-.3,0,0-.2-.1-.2,0,0-.3,0-.4-.1,0,0,.2-.2.3-.3,0,0,0,0,0,0-.7-.2,0-.7-.2-1-.2-.3-.2-.6-.2-1,0-.2.2-.4,1.3-.7.5-.1,1.1-.2,1.4-.1.2,0,.5,0,.5,0,.1,0,.3.1.4.2.2.2.8.2.5.5,0,0,.2,0-.3.2,0,0-.1,0,0,0,.8,0,.3.4.5.7,0,.2.8.2.5.5.6,0,.6,0,.4.3-.5.6,0,.8,0,1.2,0,.4.3.8.4,1.2,0,0,.4,0,.2.2-.2.2,0,.2,0,.3,0,0,.2,0,0,.2-.4.6,0,.7.2,1,.1.3.2.6.5.8.2.1.6,0,.6.3,0,.1.3,0-.1.4-.1.1.3,0,.3,0,.1,0,.2.2.3.3.1.2.2.3.4.4,0,0,.4,0,.5,0,.1,0,.2.1.2.3,0,.2,0,.4,0,.6,0,.2.4,0,.3.4-.2.6.2.6.4.8.2.2.3.5.6.5.2,0,0,.5,0,.6,0,0-.8,1.3-1.1,1.6,0,0-.1.1-.2.2-.4.3-1,.7-1.2.5-.2-.3-.5-.4-.7-.6Z" fill="#aaca60"/>
  <path d="M221.8,308.6c-.2-.2-.4-.4-.6-.6,0,0,0-.3-.4,0-.2.1.2-.4,0-.4-.2-.1-.3-.4-.5-.5-.2-.1-.6-.2-.8-.4-.2-.2-.1-.5-.5-.5-.4,0,0-.5-.3-.5-.2,0-.4-.2-.3-.5,0-.2.2-.5,0-.5-.1,0-.4,0-.5,0,0,0,.1-.3-.4,0,0,0,0,0,0-.1.3-.3.2-.4,0-.3-.3,0-.3,0-.3,0-.1-.2-.3-.3-.3-.6,0-.2,0-.4,0-.6,0-.2-.4-.2-.2-.5.2-.3.1-.4,0-.5,0,0,.2-.3-.4,0,0,0,0,0,0,0,.7-.6-.4-.3-.3-.7.1-.3-.1-.5-.3-.7,0,0,.1-.2-.3-.1-.2,0-.2,0-.1-.1.5-.4,0-.5.1-.7,0-.3-.3-.4.1-.7.2-.1.2-.3-.4-.3-.3,0,0-.2-.1-.2,0,0-.3,0-.4-.1,0,0,.2-.2.3-.3,0,0,0,0,0,0-.7-.2,0-.7-.2-1-.2-.3-.2-.6-.2-1,0-.2.2-.4,1.3-.7.5-.1,1.1-.2,1.4-.1.2,0,.5,0,.5,0,.1,0,.3.1.4.2.2.2.8.2.5.5,0,0,.2,0-.3.2,0,0-.1,0,0,0,.8,0,.3.4.5.7,0,.2.8.2.5.5.6,0,.6,0,.4.3-.5.6,0,.8,0,1.2,0,.4.3.8.4,1.2,0,0,.4,0,.2.2-.2.2,0,.2,0,.3,0,0,.2,0,0,.2-.4.6,0,.7.2,1,.1.3.2.6.5.8.2.1.6,0,.6.3,0,.1.3,0-.1.4-.1.1.3,0,.3,0,.1,0,.2.2.3.3.1.2.2.3.4.4,0,0,.4,0,.5,0,.1,0,.2.1.2.3,0,.2,0,.4,0,.6,0,.2.4,0,.3.4-.2.6.2.6.4.8.2.2.3.5.6.5.2,0,0,.5,0,.6,0,0-.8,1.3-1.1,1.6,0,0-.1.1-.2.2-.4.3-1,.7-1.2.5-.2-.3-.5-.4-.7-.6Z" fill="#aaca60"/>
  <path d="M231.4,337.2c-.8,0-1.5,0-2.3.1-.3,0-.6-.3-.9.3-.2.3-.4-.4-.7-.4-.7,0-1.4-.2-2.1-.3-.7,0-1.4,0-2.1-.2-.7-.2-1.2-.7-2-.7-.7,0-.9-.7-1.4-.9-.6-.2-1.1-.5-1.5-1-.2-.4-.4-.8-.8-1-.2-.1-.6,0-.8-.2-.2-.2-.2-.6-.8-.3,0,0,0-.1,0-.2,0-.5-.2-.7-.5-.7-.4,0-.5-.2-.6-.3-.2-.2-.4-.4-.6-.7l-.3-.4c-.1-.2-.3-.4-.4-.7-.2-.3-.3-.7-.4-1,0-.3-.2-.7-.3-1-.3-.6-.9-1.4-.9-1.9,0-.1,0-.3,0-.4,0,0,0-.1,0-.2h.2c.3-.2.6-.4.8-.5.3-.2.9-.2.6-.7,0,0,0-.1.2-.1.9,0,1.2-.2,1.6-.5.2-.2.4-.4.6-.5.3-.2.4-.3.5-.3.7,0,1.2-.5,1.8-.8.2,0,.4,0,.3-.5,0-.2.1-.3.3-.2.7.4,1-.2,1.5-.3.6-.1.9-.6,1.6-.4.3,0,.6,0,.7-.6,0-.3.4-.2.5-.3.1-.1.2-.4.3-.5.1,0,.3,0,.5.1,0,0,0,0,.1,0,.5-.9,1.6-.5,2.3-1,.8-.5,1.8-.7,2.8-.8.6,0,1.2.1,1.6,1.3.1.5.1,1.1,0,1.4-.1.2-.3.5-.4.5-.2.1-.4.3-.6.4-.4.3-.7.9-1.2.8-.2,0-.2.3-.5-.1,0,0-.1,0-.1,0-.3,1-1.2.8-1.8,1.1-.5.3-.8,1.1-1.5,1.1,0,.7-.5.8-.9.8-1.4-.1-2.3.8-3.5,1.2-.6.2-1.2.5-1.7.7l-.5.2c0,0-.1,0-.2,0,0,0,.3.3,0,0-.3-.1-.2,0-.2,0,0,0,.2.1,0,.1-.4,0-.4.2-.3.3,0,0,.1.1.2.2,0,0,0,0,.2.3.5.7,1,1.4,1.8,1.9.5.3,1.1.3,1.4.8.1.2.5,0,.4.6,0,.2.4,0,.5,0,.3.2.6.3.9.5.4.2.9.5,1.3.6.3,0,.6,0,.9,0,.3,0,.6.1.9.2.4.2.7.4,1.1.6.4.1.9,0,1.2.2.7.6,1.5.3,2.2.3.7,0,1.5,0,2.2-.4.4-.2.9.2,1.3,0,.2,0,.9,1.2,1,1.7,0,0,0,.2,0,.2-.3.6-.5,1.4-1.1,1.5-.9.1-1.7.3-2.5.4Z" fill="#aaca60"/>
  <path d="M170.3,287c-1.2-1.3-2.2-2.6-3.3-3.9-.4-.5-.6-1.1-1.4-1.3-.4,0-.3-1-.6-1.4-1-1.2-1.8-2.6-2.7-4-.8-1.3-1.7-2.7-2.3-4.3-.6-1.6-.6-3.3-1-4.9-.3-1.4.3-2.7.4-4.1.2-1.5.7-3,1.6-4.2.7-.8,1.5-1.5,2.2-2.3.4-.5.8-1.2,1.5-1.6.6-.4,1.5-.4,1.9-1.2,0,0,.4,0,.6,0,.9.2,1.9,0,2.7-.1.4-.1.7,0,1.1,0,.4,0,.7.2,1.1.3,1.9.8,3.4,2.3,3.9,4.4.2.8.2,1.7,0,2.5-.2.8-.6,1.5-1,2.1-.9,1.2-1.8,2.3-2.7,2.6-1,.3-1.6.8-2.5,1.4-.5.3-1.1.4-1.2,1.2,0,0-.2.2-.3.2-.9,0-1.6.4-2.4.8-.4.2-.8.4-1.2.5-.2,0-.4.1-.7.2-.2,0-.5,0-.7,0-1.9,0-3.8-.3-5.5-1-.5-.2-.8-.6-1.4-.4-.2,0-.7-.2-.8-.4-.8-1.2-2.1-1.8-2.9-2.9-.9-1.2-2.1-2.3-2.3-4,0-.7-.3-1.5-1.1-2.1-.4-.3-.3-1.1-.5-1.6-.1-.4-.5-.8-.5-1.3,0-.4.2-.8.2-1.2,0-.1,0-.3,0-.4-.4-1.1-.3-2.2,0-3.3.2-1.1.6-2.1.7-3.1.3-2.1,1.1-4.1,2-6,.5-1,1.2-2,2.6-2.2.6,0,1.1.2,1.2.8,0,.4,0,.8,0,1.2-.2.6-.3,1.2-.4,1.8-.3,1.2-.2,2.5-.8,3.6-.2.3,0,.8-.6,1,0,0-.2.2-.1.3.4,1.7-.4,3.3-.3,4.9,0,1.4.8,2.6.9,3.9.8.5.9,1.2,1.1,1.9.2,1.2,1,2.3,1.9,3.2.9.9,2,1.5,3,2.1,1.1.6,2.3.8,3.4.8,1.1,0,2.2-.3,3.4-.9.4-.2.5-.7,1.1-.7.6,0,1-.6,1.6-1,.5-.3.9-.8,1.4-1,1-.3,1.6-1,1.7-1.5.1-.5-.1-1.1-.6-1.6-.2-.3-.5-.5-.8-.7-.1,0-.3-.1-.5-.2-.2,0-.4,0-.6,0-.8,0-1.6.2-2.4.7-.9.6-1.4,1.7-2.1,2.5-.3.4-.2,1-1,1.2-.2,0,0,.7,0,1-.2.8-.4,1.6-.4,2.4,0,1.2,0,2.4.3,3.5.2.7.6,1.3.9,2,.3.7.6,1.4.9,2.1.4.9.7,1.9,1.2,2.8.5.9,1.4,1.7,1.9,2.7.8,1.9,2.3,3.3,3.5,4.8,1.2,1.5,2.6,2.9,4.1,3.9.9.6,1.4,1.5,2.3,2,.4.2.4,1.8,0,2.2,0,0-.2.1-.3.1-1.2,0-2.6,0-3.7-.8-1.6-1.2-3.1-2.6-4.4-4Z" fill="#aaca60"/>
  <g>
    <path d="M151.6,241c-3.5-.9-6.7-2.8-9.1-5.4-2.6-2.8-4.3-7.2-2.3-10.4,1.5-2.4,4.4-3.3,7.2-3.7,1.5-.2,3.1-.3,4.6,0,4.2.9,7.4,5.3,6.7,9.6-.7,4.1-4.3,7-7.7,9.5"/>
    <path d="M154,235.8c.6-.6,1.2-1.3,1.6-2,.2-.3.5-.4.2-.9-.2-.3.5-.2.6-.5.2-.7.5-1.4.5-2.1,0-.7-.3-1.3-.5-1.9-.2-.6-.3-1.4-.9-1.7-.5-.3-.5-1-.9-1.3-.5-.3-1-.6-1.3-1-.3-.3-.5-.7-1-.8-.3,0-.6.2-.8.2-.2,0-.5-.4-.8.2,0,0-.1,0-.2-.2-.3-.4-.6-.4-.9-.1-.2.3-.5.3-.7.3-.6,0-1.3.2-2,.2-.5,0-1,0-1.5,0-.5,0-.9.5-1.4.4-.5,0-.9.1-1.2.4-.2.1-.6,0-.3.7,0,0,0,0,0,0-.5,0-.6.2-.7.5,0,.3,0,.6-.1.8-.4.5-.3,1.1-.2,1.8,0,.2-.1.4.3.5.2,0,.2.2.1.3-.5.6,0,1.1.2,1.6.2.6.7,1.1.7,1.9,0,.4.2.8.8.6.3,0,.3.4.5.5.2.1.5,0,.7.2.1.1,0,.4.2.6,0,0,0,.1.1.1,1.2.2,1.4,1.4,2.4,1.8,1,.4,1.9.9,2.8,1.3.5.2,1,.6,1.1,1.8,0,.5,0,1.1-.4,1.3-.3.2-.6.3-.8.3-.4,0-.8,0-1.2,0-.8,0-1.8,0-2.4-.6-.2-.2-.6,0-.6-.6,0,0,0-.2-.1-.2-1.4.1-2.1-1-3-1.7-.8-.6-1.9-.8-2.4-1.8-.9,0-1.2-.7-1.4-1.3-.3-1.1-.8-2-1.2-2.9-.4-1-.8-2-.9-3.1,0-1.1,0-2.4.3-3.6.3-1.2,1-2.3,1.8-3.2.3-.3.3-.8.9-.9.5,0,.8-.6,1.3-.8.4-.2.8-.6,1.2-.6,1.8,0,3.2-.7,4.7-.9,1.5-.1,3.1-.1,4.8,0,1,.1,2.2.1,3.1.8.4.3,1,.2,1,1,0,.2.6,0,.8.3.6.4,1.1,1,1.5,1.6.6.8,1.1,1.7,1.6,2.6.3.6.7,1.1.9,1.7.2.7.3,1.4.3,2.1,0,.9-.4,1.8-.6,2.5-.3.8-.3,1.8-.9,2.4-1.1,1.1-1.7,2.3-2.7,3.3-1,.9-2,1.8-2.9,2.7-.5.5-1.3.5-1.9.9-.3.2-1.5-.7-1.7-1.2,0,0,0-.2,0-.3.2-.8.3-1.7.9-2.1.9-.6,1.6-1.3,2.4-2Z"/>
  </g>
  <path d="M192.2,393.6c-.4,0-.8,0-1.2,0-.1,0-.3-.2-.4.3,0,.3-.2-.4-.3-.3-.4,0-.7,0-1.1,0-.4,0-.7.3-1.1.3-.4,0-.7-.3-1.1,0-.3.3-.6-.2-.8-.1-.3.1-.6.2-.9,0-.2-.2-.4-.4-.6-.3-.1,0-.3.4-.4.3-.1,0-.3-.3-.4.3,0,0,0,0,0-.2-.1-.4-.3-.4-.4-.1-.1.3-.2.2-.3.2-.3,0-.6,0-.9,0-.2,0-.4-.3-.6-.4-.2,0-.5.2-.7-.1-.2-.3-.4-.3-.6-.3-.1,0-.2-.3-.4.3,0,0,0,0,0,0-.3-.9-.7.2-1,0-.3-.2-.7-.1-1.1-.1,0,0-.2-.2-.3.3,0,.2-.2.2-.2,0-.2-.7-.5-.3-.8-.4-.3-.2-.6.1-.9-.4-.1-.2-.3-.3-.5.2-.1.3-.2,0-.3,0-.1,0-.2.3-.3.3,0,0-.1-.2-.2-.4,0,0,0,0,0,0-.5.6-.9-.3-1.4-.2-.5.1-.9,0-1.4-.2-.2,0-.5-.3-.5-1.5,0-.5,0-1.1.2-1.4.1-.2.2-.4.3-.5.2,0,.3-.2.5-.3.3-.2.7-.6.9-.3,0,0,.2-.2.2.3,0,0,0,.1,0,0,.5-.7.8-.2,1.3-.2.4,0,.8-.6,1.1-.3.3-.6.5-.5.6-.3.6.7,1.3.4,2,.5.7.2,1.4.1,2.1.2.1,0,.2-.3.4,0,.1.3.3,0,.4,0,.1,0,.3-.1.4,0,.5.7,1.1.3,1.6.4.5,0,1.1.2,1.6,0,.3,0,.7-.4,1-.3.1,0,.3-.3.4.3,0,.2.2-.3.3-.3.2,0,.5,0,.7,0,.3,0,.6,0,.9,0,.2,0,.4-.3.6-.3.2,0,.4,0,.6,0,.3,0,.5.3.8.4.3,0,.5-.2.8,0,.5.5.9.3,1.4.3.5,0,.9,0,1.4,0,.3,0,.5.4.8.4.1,0,.3,1.5.3,2,0,0,0,.2,0,.2-.2.5-.5,1.2-.8,1.2-.4,0-.9,0-1.3,0Z"/>
  <path d="M283.2,425.7c-.9.4-1.8.8-2.6,1.1-.9.4-1.8.7-2.7,1-.7.3-1.4.2-2,1-.3.4-1.1,0-1.7.2-1.7.5-3.5.8-5.2,1.2-.8.2-1.7.4-2.5.5-.8.2-1.7.3-2.6.4-.9.1-1.7.1-2.6,0-.9,0-1.7,0-2.6.2-.7.1-1.4,0-2.1,0-.7-.1-1.3-.3-2-.3-.7,0-1.5,0-2.2-.2-.7,0-1.5-.3-2.2-.6-.5-.2-1-.4-1.5-.6-.5-.2-1-.3-1.5-.4-.6,0-1.3,0-2-.2-.6-.2-1.2-.7-2-.2,0,0-.3-.2-.4-.3-.5-.6-1.3-.9-2-.8-.6,0-1.1-.1-1.6-.3-1.4-.5-2.8-1-4.1-1.6-1-.5-1.9-1.1-2.8-1.6-1-.5-2.2-.8-3-1.6-.8-.7-1.7-1.2-2.6-1.7-.5-.3-1-.9-1.7-.6,0,0-.3,0-.3-.2-1-1.6-3-1.5-4.3-2.6-1.3-1.1-2.9-2.1-4.3-3.1-.4-.3-.7-.7-1.3-.6-.2,0-.6-.3-.7-.5-.6-1.3-1.9-1.9-2.9-2.8-1.1-1.1-2.4-1.8-3.2-3.2-.3-.6-.9-1.2-1.9-1.3-.4,0-.8-.7-1.3-1.1-.4-.3-.9-.4-1.2-.7-.3-.3-.4-.7-.6-1,0-.1-.2-.2-.3-.3-2.1-1-3-3.2-4.7-4.6-1.7-1.4-3.2-3.1-4.7-4.7-.8-.9-1.6-1.9-1.3-3.3.1-.6.5-1,1.1-.9.4.1.9.3,1.3.5.6.4,1.1.8,1.7,1.2,1.1.9,2.5,1.5,3.3,2.7.3.4.8.5.8,1.2,0,0,0,.2.2.3,1.9.8,3,2.6,4.5,3.9,1.3,1.1,2.9,1.8,3.9,3.1,1.1.2,1.8,1,2.4,1.7,2,2.7,4.9,4.4,7.4,6.5,2.6,2.1,5.4,3.9,8.2,5.6.5.3,1.1.2,1.5.8.4.5,1.2.7,1.8,1.1.6.3,1.3.5,1.7.9,2,1.8,4.6,2.5,7,3.5,2.4,1,4.8,1.9,7.4,2.5.8.2,1.6.3,2.3.4.8.1,1.6.3,2.3.5.6.2,1.3,0,1.9.7.2.2.8-.2,1.3-.1,1,.1,2.1.2,3.1.3h2.2c.7.1,1.5,0,2.2,0,.9,0,1.8-.4,2.6-.5.9-.1,1.9-.3,2.8-.3,1.2,0,2.4-.1,3.6-.3,1.2-.2,2.4-.8,3.6-.9.6,0,1.1-.1,1.7-.2.5-.1,1.1-.3,1.6-.5,1.1-.3,2-.8,3.1-1.2,1-.4,2-.9,3-1.4.9-.5,1.9-1,2.8-1.7.5-.4,1.1-.6,1.6-.8.6-.2,1.1-.5,1.6-.9.4-.3,2,.4,2.1.9,0,.1,0,.2,0,.3-.7,1.1-1.2,2.5-2.5,3.2l-1.4.9-1.4.8c-.9.6-1.9,1-2.9,1.5Z"/>
  <path d="M327.3,389.5c-.2-.8-.4-1.7-.7-2.5-.1-.3,0-.7-.5-.9-.3,0,.2-.6.1-.8-.3-.8-.4-1.6-.7-2.3-.3-.7-.7-1.4-.9-2.2-.3-.7-.2-1.6-.7-2.2-.4-.6,0-1.3-.4-1.8-.3-.6-.5-1.2-.5-1.9,0-.5.1-1,0-1.4-.1-.3-.5-.5-.6-.8,0-.3.1-.7-.5-.8,0,0,0-.2,0-.2.3-.4.2-.8-.1-1-.3-.2-.3-.4-.4-.7-.2-.6-.4-1.3-.5-1.9,0-.5,0-1,0-1.5,0-.5-.5-1-.3-1.5.2-.5,0-1,0-1.4,0-.3.2-.6-.5-.7,0,0,0-.1,0-.2.6-.9-.6-1.4-.6-2.2,0-.8-.3-1.6-.5-2.4,0-.2,0-.5-.4-.6-.2,0-.2-.2-.2-.4.5-.7,0-1.3,0-1.9,0-.7-.5-1.3-.1-2.1.1-.3.2-.8-.5-1-.3-.1-.1-.5-.2-.7,0-.2-.4-.3-.5-.5,0-.2.1-.4.2-.6,0,0,0-.1,0-.2-.9-.9-.2-2-.6-3-.4-1-.5-2-.7-3,0-.6,0-1.2,1-1.8.5-.3,1-.4,1.4-.2.3.1.5.3.6.5.2.3.3.6.5.9.3.6,1,1.1.8,1.9,0,.2.3.4-.2.7,0,0,0,.1,0,.2,1,.7.6,1.8.9,2.6.2.8,1,1.4.9,2.2.7.3.7.8.6,1.3-.3,1.7.5,3.1.7,4.6.3,1.6.7,3.1,1,4.6,0,.3.5.4.3.8-.2.3.1.7.2,1,0,.3.3.6.2.9-.4,1.4.3,2.5.5,3.7.2,1.2.5,2.4.9,3.6.3.7.8,1.3.9,2.1,0,.3.4.6,0,1-.1.1.4.3.4.5.2.5.3,1,.4,1.5.2.7.3,1.4.6,2.1.1.4.5.8.7,1.2.2.4.3.9.4,1.3,0,.6,0,1.2.1,1.8,0,.6.5,1.1.4,1.8-.2,1.2.3,2.1.5,3.2.2,1,.5,2.1.9,3.1,0,0,0,.1,0,.2h0c0,0,0,0,0,0h0s0,0,0,0h0s0,0,0,0h0c.2,0-1.7.5-.9.3h0c0,0,.1,0,.2,0,.2,0,.5-.3.5-.3,0,0,0,.1,0,.1-.1.1-.3.5-.4.8,0,0,0,.2,0,.2,0,0,0,0,0,0,0,0,0,0,0,0,0,0,0,0,0,0,0,0,0,0,0,0,0,0,0,0,.1,0,.1,0,.2,0,.3,0,.2,0,.4,0,.5.1,0,0,.2.2.1.3,0,.2-.2.5-.5.7-.3.2-.6.2-.8.2-.4,0-.7,0-1.1,0-.6-.2-1.1-.4-1.5-1.3,0-.2,0-.2,0-.3v-.2s-.1-.4-.1-.4l-.2-.7-.4-1.4Z"/>
  <g>
    <path d="M255.2,213.3c-17-.6-34.1-1.2-50.9,1.2-3.7.5-7.8,1.5-9.5,4.7-.7,1.3-1,2.9-1.1,4.4-1,8.4-1,16.9-.2,25.4.3,2.6.7,5.5,2.8,7.2,1.4,1.1,3.2,1.5,4.9,1.7,6.7,1,13.5.9,20.3.7-1,3.6-2.7,7-5.1,9.9,4.8-.4,8.5-4.2,11.7-7.7.9-1,1.8-2,3-2.6,1-.5,2.2-.6,3.3-.8,6.4-.8,12.7-1.6,19.1-2.4,3.2-.4,6.5-.9,8.9-3,3.4-3.1,3.2-8.4,2.8-13-.5-5.8-1-11.7-1.5-17.5-.2-2.2-.4-4.5-1.5-6.3s-3.5-3.2-5.5-2.5" fill="#aaca60"/>
    <path d="M266.1,229.2c.3,3.8.6,7.5,1,11.3.1,1.5-.1,2.9.3,4.6.2.8-.6,2.3-1.1,3.7-.6,2-1.8,3.9-3.6,5.2-1.7,1.3-3.7,1.9-5.6,2.4-1.8.4-3.5.6-5.2.9-1.7.3-3.4.6-5,.8-3.3.5-6.8.6-10,1.3-1.3.3-2.8.4-3.8.5-.5,0-.9.2-1.3.3-.4.2-.7.5-1.1.9-.8.9-1.8,2.1-2.8,3.2-1,1.1-2.2,2.1-3.5,3-1.9,1.3-4,2.2-6.3,2.8-.5.2-1.1.3-1.6.4l-4.3,1.1,2.6-4.4c.4-.6.7-1.3,1.2-2,.7-1,1.6-2,1.4-3.2,0,0,0-.2.2-.3,0,0,.1-.2.1-.2,0,0,0,0,0,0,.4,0,.7-.6.3-.5,0,0,0,0,0,0-.5.3-.3.2-.4.3.1,0-.4,0-.7,0h-1.1s-2.2,0-2.2,0c-1.5,0-2.9,0-4.4-.1-2.2-.1-4.4-.5-6.6-.9-1.2-.2-2.3-.3-3.6-.5-1.3-.3-2.7-.8-3.8-1.8-1.1-1-1.8-2.2-2.3-3.4-.5-1.2-.8-2.3-.9-3.4-.2-1.3,0-2.7-.7-3.6,0,0,0-.5,0-.7.6-3.4-.6-6.7-.4-10.1.2-3.5.2-7.1.5-10.7,0-1,.4-1.9,0-2.9-.1-.3,0-1.4.2-1.9.3-.7.6-1.5.9-2.3.4-.8.8-1.6,1.4-2.3,1.1-1.4,2.6-2.4,4-3,1.7-.7,3.3-1.1,4.9-1.4,1.6-.3,3.1-.4,4.7-.3,1.3,0,3.1,0,4.6-.7.7-.3,2.2-.2,3.3-.3.9-.1,1.8-.5,2.7-.5.8,0,1.6.1,2.4.2.2,0,.5,0,.8,0,4.5-.9,8.9,0,13.4-.2,4.5-.2,9.1,0,13.6.3,2.5.1,5,.4,6.7,1.6.7.5.7,1.1-.3,1.4-.8.2-1.7.4-2.6.4-1.4,0-2.8.1-4.2.2-2.9.1-5.7.6-8.7.2-.9-.1-2,.2-2.8-.3-.1,0-.5-.1-.7,0-3.9.8-8,.3-12,.5-3.4.2-6.6,1-10.1,1-1.8.8-4,.9-5.9.9-1.7,0-3.4.1-4.9.4-1.5.3-3,.7-4.1,1.4-1.1.7-1.8,1.5-2.1,2.7-.4,1.2-.5,2.9-.7,4.6-.8,6.7-.8,13.5-.3,20.3,0,1.1.5,2.1.4,3.4-.1,1.2.3,2.7.8,3.6.2.5.5.8.8,1.1.3.3.6.5,1,.8.7.6,1.9.9,3.2,1.1,1.3.2,2.6.4,3.9.5,2.6.2,5.3.2,8,.3,1.3,0,2.6,0,3.9,0,2.2,0,4.3,0,6.4-.1-.5,2-1.2,4.2-2.1,6.3l-.3.6-.2.5c-.2.3-.3.7-.5,1-.3.7-.7,1.3-1.1,1.9-.5.9-1.1,1.8-1.8,2.7l-1.7-3.3c1.8-.3,3.4-1.2,5.1-2.3,1.1-.7,1.8-1.9,3.2-2.4.4-.1.9-1.4,1.5-2,.7-.8,1.5-1.8,2.7-2.7.6-.4,1.3-.9,2-1.1.7-.3,1.4-.4,2.1-.5.9-.1,1.6-.2,2.4-.3l2.3-.3c1.6-.2,3.1-.4,4.7-.6,1.9-.3,3.7-.7,5.6-1,2-.3,4-.6,6-.7,2.4-.2,4.7-.5,6.3-1.5.8-.5,1.4-1.3,1.9-2.1.4-.9.7-1.9,1-2.9.6-2,.5-4.2.4-6.5-.2-2.3-.4-4.6-.6-7-.2-2.3-.4-4.6-.5-6.9l-.3-3.5c-.1-1.2-.2-2.3-.4-3.3-.2-1.1-.5-2.1-.9-2.9-.4-.8-1.1-1.5-2-1.8-.4-.1-.8-.5-1.3-.9-.5-.4-1-.7-.8-1,0-.1.3-.3.5-.4,1.5-.5,3.1-.2,4.5.5.7.4,1.4.9,1.9,1.6.5.7.9,1.4,1.2,2.3.8,2.5.8,4.7,1,6.8l.6,6.4Z" fill="#aaca60"/>
  </g>
  <path d="M246.6,175.5c-.3,3.7-.7,7.5-.9,11.2,0,1.3-.3,2.7.3,4,.3.6-.2,1.9.2,2.9.5,1.4,1.2,2.5,2.3,3.3,1.1.8,2.5,1.3,4.1,1.6,1.5.3,3.2.4,4.9.5,1.7.1,3.4.3,5.1.5,3.4.4,6.8,1.1,10.1,1.2,1.4,0,2.6.2,4.2.6.8.2,1.6.5,2.5,1,.8.5,1.5,1,2.1,1.6,1.3,1.2,2.1,2.1,3.1,3.1,1,1,1.9,1.9,2.8,2.8,1.3,1.3,2.8,2.3,4.5,2.6.4,0,.7,0,1.1,0l-1.8,3.4c-.6-.6-1.2-1.2-1.8-2-.8-1.2-1.3-2.7-2.4-3.5,0,0-.1-.2-.2-.4,0-.3-.2-.6-.2-.8-.6-2.4-1.2-4.6-2.1-6.8.1,0,.3,0,.4,0,1.8-.2,3.9-.1,6-.1h2.5s2.1,0,2.1,0c1.4,0,2.8,0,4.2,0,2.1,0,4.2,0,6.3-.2,1.1-.1,2.2-.3,3.1-.5.9-.2,1.6-.5,2.2-.8,1.2-.5,1.9-2.1,2.1-3.9.2-1,.6-2.3,0-3.3,0,0,0-.5,0-.7,1.1-3.2.1-6.5.3-9.7.2-3.4-.1-6.9-.5-10.3,0-.9,0-1.9-.6-2.7-.2-.3-.3-1.2-.3-1.6.3-2.3-1.1-3.4-3.1-4.4-2.2-1.1-5.3-1.1-8.2-2-1.2-.3-3-.7-4.6-.2-.7.2-2.2-.2-3.3-.2-.9,0-1.8.2-2.7.2-.8,0-1.5-.3-2.3-.5-.2,0-.5,0-.7,0-4.4.5-8.7-.5-13.2-.3-4.5.2-9,.2-13.5.3-2.5,0-5,0-6.8-1.2-.8-.5-.8-1,.2-1.4.8-.3,1.6-.5,2.5-.6,1.4-.2,2.8-.3,4.2-.5,2.9-.3,5.7-.9,8.7-.7.9,0,2-.2,2.8.3.1,0,.5.1.7,0,4-.8,8.1-.3,12.2-.2,3.5,0,6.8-.4,10.3.2,2-.5,4.2-.1,6.2.3,1.7.4,3.4.7,5.2,1.1,1.8.4,3.7,1,5.5,2,.9.5,1.8,1.2,2.5,2.1.7.9,1.3,1.9,1.6,2.9.3,1,.5,2,.6,2.9.1.9.2,1.7.3,2.6.6,7,.8,14,.2,21,0,1.2.2,2.2-.2,3.6-.4,1.3-.5,3.2-1.3,5-.4.8-.9,1.6-1.5,2.4-.7.7-1.5,1.3-2.3,1.6-1.7.6-3.2.8-4.6.9-1.4.1-2.8.3-4.1.4-2.8.2-5.5.4-8.3.4h-4c0,0-1.4-.1-1.4-.1h0s0,0,0,0h0c0,0,0,.3,0,.3v.3c.2.2.3.4.4.7l.4.8c.1.3.3.6.5.9.3.6.7,1.1,1,1.6.5.8,1.1,1.5,1.7,2.2l3.1,3.4h-4.8c-2.8-.2-5.4-1.4-7.4-2.9-1.2-1-2.6-1.8-3.3-3.3-.2-.4-1.4-1.1-2.1-1.8-.8-.9-1.5-1.6-2.1-2.1-.3-.2-.6-.4-.9-.5-.3-.1-.7-.2-1.2-.3-.6-.1-1.5-.2-2.2-.3l-2.3-.3c-1.6-.2-3.1-.4-4.7-.5-1.9-.2-3.8-.2-5.7-.4-2-.2-4-.4-6-.7-2.6-.4-5.4-1-8.1-2.9-1.4-.9-2.6-2.2-3.4-3.7-.8-1.5-1.2-3-1.3-4.4-.2-2.7,0-5.1.3-7.5.2-2.3.4-4.7.6-7,.2-2.3.4-4.6.7-6.9l.3-3.5c0-1.1.2-2.4.4-3.6.2-1.5.8-2.9,1.8-4.1,1-1.2,2.3-2.1,3.9-2.6.8-.2,1.8,0,2.3.6.5.5.5,1.1.2,1.3-.1,0-.3.1-.4.1-1,0-1.8.7-2.4,1.5-.6.8-.9,1.5-1.3,2.6-.6,1.6-.7,3.7-.9,5.8l-.5,6.4Z" fill="#aaca60"/>
  <path d="M359.2,150.7c0-.3,0-.6-.1-.9,0-.1.2-.3-.3-.3-.3,0,.3-.2.3-.3-.1-.3,0-.6-.1-.9,0-.3-.3-.5-.4-.8,0-.3.2-.6-.2-.8-.3-.2.2-.5,0-.7-.2-.2-.3-.5,0-.7.1-.2.3-.4.2-.5,0,0-.4-.2-.4-.3,0-.1.3-.3-.4-.3,0,0,0,0,.1-.1.4-.2.3-.3,0-.4-.3,0-.3-.1-.3-.2,0-.2-.1-.5-.1-.7,0-.2.2-.4.3-.6,0-.2-.3-.4,0-.6.3-.2.2-.4.2-.6,0,0,.3-.3-.4-.2,0,0,0,0,0,0,.8-.4-.3-.5-.2-.8.2-.3,0-.6-.1-.9,0,0,.1-.2-.3-.2-.2,0-.2,0,0-.1.6-.3.2-.5.2-.7,0-.3-.3-.5.2-.8.2-.1.3-.3-.3-.3-.3,0,0-.2-.1-.3,0,0-.3,0-.4-.2,0,0,.2-.2.3-.3,0,0,0,0,0,0-.7-.2,0-.8-.2-1.1-.2-.3-.3-.7-.2-1.1,0-.2.1-.5,1.2-.8.5-.2,1-.3,1.4-.3.2,0,.5,0,.6.1.1,0,.3.2.4.3.2.2.8.3.6.6,0,0,.2.1-.2.3,0,0,0,0,0,0,.8.2.4.6.5,1,.1.3.8.4.6.8.7,0,.6.3.4.5-.6.7,0,1.2,0,1.8,0,.6.2,1.2.3,1.8,0,.1.4.1.1.3-.2.2,0,.3,0,.4,0,.1.2.2,0,.4-.6.6-.1,1-.1,1.4,0,.5,0,.9.2,1.4.1.3.5.5.4.8,0,.1.3.2-.3.4-.2,0,.3.1.3.2,0,.2,0,.4,0,.6,0,.3,0,.5.1.8,0,.2.3.3.4.4,0,.2.1.3,0,.5,0,.2-.2.5-.3.7,0,.2.3.4,0,.7-.5.5-.2.8-.2,1.2,0,.4,0,.8.1,1.2,0,.2-.4.5-.4.7,0,.1-1.4.4-2,.4,0,0-.2,0-.2,0-.5-.2-1.2-.3-1.2-.5,0-.4,0-.7,0-1.1Z" fill="#aaca60"/>
  <path d="M381.9,149.5c0-.3.2-.6.3-.9,0-.1.3-.1-.2-.4-.2-.1.4,0,.4-.2,0-.3.2-.5.2-.8,0-.3,0-.6,0-.9,0-.3.4-.5.2-.8-.2-.3.3-.4.3-.6,0-.3,0-.5.2-.7.2-.1.5-.2.4-.4,0-.1-.3-.3-.3-.4,0,0,.3-.1-.2-.4,0,0,0,0,.2,0,.4,0,.4-.1.2-.3-.2-.2-.2-.2-.2-.3,0-.2,0-.5.2-.7,0-.2.4-.3.5-.4.1-.2-.1-.4.2-.5.3,0,.4-.3.4-.4,0,0,.3-.1-.3-.4,0,0,0,0,0,0,.9,0-.1-.6.1-.8.3-.2.2-.5.2-.8,0,0,.2-.1-.2-.3-.2,0-.2-.1,0-.1.7,0,.3-.4.5-.6.2-.2,0-.5.4-.7.2,0,.4-.2-.2-.4-.3,0,0-.2,0-.3,0,0-.3-.2-.3-.3,0,0,.2,0,.4-.1,0,0,0,0,0,0-.6-.4.3-.7.2-1-.1-.4,0-.7,0-1.1,0-.2.3-.4,1.4-.4.5,0,1.1,0,1.4.1.2,0,.5.2.5.3,0,.1.2.3.3.4.2.3.7.6.4.8,0,0,.2.2-.3.2,0,0-.1,0,0,0,.7.4.2.7.2,1.1,0,.3.6.7.3.9.6.3.5.4.2.6-.8.5-.4,1.1-.6,1.7-.2.6-.2,1.2-.4,1.7,0,0,.3.3,0,.3-.3,0-.1.2-.1.4,0,.1,0,.3-.1.3-.8.3-.5.8-.7,1.3-.2.4-.4.9-.3,1.3,0,.3.3.7,0,.9,0,0,.2.3-.4.3-.2,0,.2.2.2.3,0,.2,0,.4-.1.6,0,.3-.2.5-.2.8,0,.2.2.4.2.6,0,.2,0,.3-.2.5-.1.2-.4.3-.5.5-.1.2,0,.5-.3.6-.6.2-.5.7-.7,1-.2.3-.3.7-.3,1.1,0,.2-.5.3-.6.5,0,0-1.5-.2-1.9-.4,0,0-.2,0-.2-.1-.4-.3-1-.8-.9-1,.2-.3.2-.7.4-1Z" fill="#aaca60"/>
  <path d="M401,157c.3-.3.5-.5.7-.9,0-.1.4,0,0-.5-.2-.2.4,0,.5,0,.2-.3.5-.5.7-.8.2-.3.2-.7.4-1,.2-.3.6-.4.6-.9,0-.4.5-.3.6-.6,0-.3.2-.6.6-.7.3,0,.6,0,.6-.3,0-.1-.2-.4,0-.5,0,0,.4,0,0-.5,0,0,0,0,.2,0,.4.1.5,0,.3-.3-.1-.3,0-.3,0-.4.1-.3.3-.5.5-.7.2-.1.5-.2.7-.3.2-.1.1-.5.5-.5.4,0,.5-.2.6-.3,0,0,.4,0,0-.5,0,0,0,0,0,0,.9.2.2-.7.5-.9.4-.2.5-.5.6-.9,0,0,.3,0,0-.4-.1-.1,0-.2,0-.2.7.1.5-.3.8-.5.3-.2.2-.6.8-.6.2,0,.4,0,0-.5-.2-.2.1-.2.1-.3,0-.1-.2-.3-.1-.4,0,0,.3,0,.4,0,0,0,0,0,0,0-.3-.7.7-.6.8-1.1,0-.5.4-.8.7-1.2.2-.2.5-.3,1.5.1.5.2,1,.5,1.2.8.2.2.3.4.3.5,0,.2,0,.4,0,.5,0,.4.3.9-.1,1-.1,0,0,.3-.4,0,0,0-.1,0,0,0,.4.8-.2.9-.4,1.3-.2.3.2,1-.3,1.1.4.5.2.7,0,.7-1,.2-1,1.1-1.5,1.6-.5.5-.8,1.2-1.3,1.8,0,0,.1.4-.2.3-.3,0-.2.2-.3.3,0,.1,0,.3-.3.3-.9,0-.9.8-1.3,1.2-.4.4-.8.8-1,1.4-.1.3,0,.8-.4,1-.1,0,0,.4-.5.2-.2,0,.1.3,0,.4-.1.2-.3.4-.4.6-.2.3-.5.5-.6.8-.1.2,0,.5-.1.7,0,.2-.2.4-.4.5-.2.2-.6.2-.8.4-.2.2-.2.6-.6.6-.7,0-.8.6-1.2.9-.4.3-.7.7-1,1.1-.1.3-.7.1-.9.3,0,0-1.3-.8-1.6-1.2,0,0-.1-.2-.1-.2-.2-.5-.5-1.2-.3-1.4.3-.3.6-.6.9-1Z" fill="#aaca60"/>
  <path d="M437.1,165.9c-.3.1-.6.2-.9.3-.1,0-.3-.1-.3.4,0,.3-.3-.3-.4-.2-.3.2-.6.2-.9.3-.3.2-.5.5-.7.6-.3.2-.7,0-.8.4-.1.3-.5,0-.7.2-.2.2-.4.4-.7.3-.2,0-.5-.2-.6,0,0,.1,0,.4-.2.5-.1,0-.3-.2-.2.4,0,0,0,0-.1-.1-.3-.3-.4-.2-.4,0,0,.3,0,.3-.2.3-.2.1-.4.3-.7.3-.2,0-.5-.1-.7,0-.2,0-.3.4-.6.2-.3-.2-.4-.1-.6,0,0,0-.3-.2-.1.4,0,0,0,0,0,0-.6-.6-.4.5-.8.4-.4,0-.6.2-.8.4,0,0-.2,0,0,.4,0,.2,0,.2-.1.1-.5-.5-.5,0-.8,0-.3,0-.4.4-.9.1-.2-.1-.4-.1-.2.4,0,.3-.2,0-.2.2,0,0,0,.4,0,.4,0,0-.2-.1-.3-.2,0,0,0,0,0,0,0,.8-.8.2-1,.6-.2.4-.6.5-1,.6-.2,0-.5,0-1.2-.9-.3-.4-.6-.9-.7-1.2,0-.2-.1-.5,0-.6,0-.2.1-.3.2-.5.1-.3,0-.9.5-.8.1,0,0-.3.4.1,0,0,0,0,0,0,0-.9.5-.6.8-.9.3-.2.2-.9.6-.8-.2-.6,0-.6.3-.6.9.3,1.2-.4,1.8-.6.6-.2,1.1-.6,1.7-.8.1,0,0-.4.3-.2.2.2.3,0,.4-.1.1,0,.2-.2.4-.1.7.4,1-.2,1.5-.3.5-.1,1-.3,1.4-.6.2-.2.4-.6.7-.6.1,0,.1-.4.5.1,0,.1,0-.3.1-.4.2-.1.4-.2.6-.3.3-.1.6-.2.8-.3.2,0,.2-.4.4-.5.2-.1.3-.2.5-.2.2,0,.5.1.8,0,.3,0,.4-.4.7-.2.6.3.9,0,1.3-.1.4,0,.9-.2,1.2-.4.2-.1.6.3.8.2.1,0,.7,1.3.8,1.8,0,0,0,.2,0,.2,0,.5,0,1.3-.3,1.3-.4,0-.7.2-1.1.3Z" fill="#aaca60"/>
  <path d="M439.7,195.3c-.2,0-.4,0-.6.1,0,0-.2-.2-.2.3,0,.3-.2-.3-.3-.3-.2.1-.4,0-.6.2-.2,0-.3.4-.5.4-.2,0-.4-.2-.5.2-.1.3-.3-.2-.5,0-.1.2-.3.3-.5,0-.1-.1-.3-.3-.4-.2,0,0,0,.4-.1.4,0,0-.2-.3-.2.4,0,0,0,0,0-.1-.2-.4-.2-.3-.3,0,0,.3,0,.3-.1.3-.2,0-.3.1-.5,0-.1,0-.3-.2-.4-.3-.1,0-.2.3-.4,0-.2-.3-.3-.2-.4-.2,0,0-.2-.3-.1.4,0,0,0,0,0,0-.3-.8-.3.3-.5.2-.2-.2-.4,0-.6,0,0,0-.1-.2-.1.3,0,.2,0,.2,0,0-.3-.6-.3-.2-.5-.3-.2,0-.3.2-.6-.2-.1-.2-.2-.3-.2.3,0,.3-.1,0-.2,0,0,0,0,.3,0,.4,0,0-.1-.2-.2-.3,0,0,0,0,0,0-.1.7-.5-.1-.8,0-.2.2-.5.2-.8.2-.1,0-.3-.2-.6-1.3-.1-.5-.2-1-.2-1.4,0-.2,0-.5,0-.5,0-.1.1-.3.2-.4.1-.2.2-.8.4-.5,0,0,0-.2.2.3,0,0,0,.1,0,0,0-.8.4-.4.6-.5.2,0,.2-.7.5-.5,0-.6.1-.6.3-.4.5.6.8,0,1.2,0,.4,0,.8-.1,1.2-.2,0,0,0-.4.2-.1.1.2.2,0,.3,0,0,0,.1-.2.2,0,.4.6.7.1,1,.2.3,0,.6,0,.9-.2.2-.1.3-.5.5-.4,0,0,.1-.3.3.3,0,.2,0-.3,0-.3.1,0,.2,0,.4,0,.2,0,.4,0,.5-.1,0,0,.2-.3.3-.4,0,0,.2-.1.3,0,.2,0,.3.2.5.3.2,0,.3-.3.5,0,.4.5.6.1.8.2.3,0,.5,0,.8-.2.1,0,.4.4.5.3,0,0,.4,1.4.5,1.9,0,0,0,.2,0,.2,0,.5,0,1.2-.2,1.2-.3,0-.5,0-.7.1Z" fill="#aaca60"/>
  <path d="M278,185.8c0-.6.3-1.3.4-1.9,0-.3.4-.4,0-.9-.2-.2.5-.2.6-.4.2-.6.7-1,1-1.5.3-.5.5-1,.9-1.4.3-.4.9-.5,1-1.1,0-.5.7-.3.8-.7.2-.4.4-.7.7-.7.3,0,.6-.1.6-.4,0-.2-.2-.4,0-.5,0,0,.4,0-.1-.5,0,0,0,0,.2,0,.4,0,.4-.1.2-.3-.2-.2-.2-.2-.2-.3,0-.2,0-.4,0-.6,0-.2.3-.3.3-.5,0-.2-.3-.3,0-.6.2-.3.1-.4,0-.6,0,0,.1-.4-.4,0,0,0,0,0,0,0,.3-.3.1-.4-.1-.4-.2,0-.4,0-.5,0,0-.3-.5-.4-.7-.5,0,0,0-.2-.3.2,0,.1-.1.1-.1,0,0-.7-.3-.3-.5-.4-.3-.1-.5.2-.9-.3-.2-.2-.4-.3-.5.3,0,.3-.2,0-.4.1,0,0-.1.4-.2.4,0,0-.2-.2-.4-.3,0,0,0,0,0,0-.3.8-1.1,0-1.4.5-.3.4-.7.5-.9.6-.2,0-.4,0-1.4-.4-.5-.2-1-.4-1.2-.8-.1-.2-.2-.5-.2-.7,0-.3.2-.6.3-.8.2-.5.4-1.3,1-1.3.2,0,.2-.4.6,0,0,0,.1,0,.1,0,.3-1,1.2-.8,1.7-1,.5-.2.8-.9,1.5-.8.2-.7.6-.6,1-.5.7.3,1.3.3,2,.4.7,0,1.4.1,2,.4,1.2.6,2.4,1.4,3.2,2.5.1.2.6.2.5.6,0,.4.2.5.4.8.1.2.3.5.3.8-.3,1.2.2,2.1,0,3.2-.2,1-.6,2-1,2.9-.2.5-.3,1.2-.8,1.6-.2.1-.1.6-.7.3-.2,0,0,.4,0,.5-.2.3-.5.5-.7.7-.3.3-.7.6-1,.9-.2.2-.2.6-.3.8-.1.2-.3.4-.5.5-.2.2-.6.2-.8.4-.2.2-.1.5-.4.6-.7.2-.6.8-.7,1.2-.1.5-.2,1.1-.1,1.6,0,.3-.4.7-.4,1,0,.2-1.5.5-2,.4,0,0-.2,0-.2,0-.5-.3-1.2-.7-1.2-1.1,0-.7,0-1.4.1-2.1Z" fill="#aaca60"/>
  <path d="M282.9,196.1c0,0-.2,0-.3,0,0,0,0-.2,0,.3,0,.3,0-.4-.1-.3,0,0-.2,0-.2,0,0,0-.1.3-.2.4,0,0-.2-.2-.2.1,0,.3-.1-.2-.2,0,0,.1-.1.2-.2,0,0-.2,0-.4-.1-.3,0,0,0,.4,0,.4,0,0,0-.3,0,.3,0,0,0,0,0-.1,0-.4,0-.4,0-.1,0,.3,0,.2,0,.2,0,0-.1,0-.2,0,0,0,0-.3-.1-.4,0,0-.1.2-.2,0,0-.3,0-.3-.1-.3,0,0,0-.3-.1.3,0,0,0,0,0,0,0-.8-.2.2-.2,0,0-.2-.2,0-.2,0,0,0,0-.2-.1.3,0,.2,0,.2,0,0,0-.6,0-.3-.1-.4,0-.1-.2.1-.2-.3,0-.2,0-.3-.2.2,0,.3,0,0,0,0,0,0-.1.3-.1.3,0,0,0-.2,0-.3,0,0,0,0,0,0-.2.6-.2-.3-.3-.1-.1.2-.2,0-.3,0,0,0,0-.3.2-1.4.1-.5.3-1,.4-1.4,0-.2.1-.4.2-.5,0,0,.1-.2.1-.3,0-.2.3-.7.2-.4,0,0,0-.2,0,.3,0,0,0,.1,0,0,.2-.8.2-.2.3-.3,0,0,.2-.6.2-.4.1-.6.1-.5.1-.3,0,.7.2.2.2.3,0,.1.2,0,.3,0,0,0,0-.3,0,0,0,.3,0,0,0,0,0,0,0-.1,0,0,0,.7.2.3.2.3,0,0,.2.1.3,0,0,0,0-.4.1-.3,0,0,0-.3,0,.3,0,.2,0-.3,0-.3,0,0,0,0,.1,0,0,0,0,0,.1,0,0,0,0-.3,0-.3,0,0,0,0,0,0,0,0,0,.3.1.3,0,0,0-.2.1,0,.1.5.2.2.3.3,0,0,.2,0,.2,0,0,0,.2.4.2.4,0,0,0,.4.2.8,0,.4.2.9.2,1.2,0,0,0,.2,0,.2,0,.5.1,1.2,0,1.2-.1,0-.2,0-.3,0Z" fill="#aaca60"/>
  <path d="M226.5,227.7c-.4,0-.7,0-1.1.1-.1,0-.3-.2-.4.3,0,.3-.2-.3-.4-.3-.3.1-.7,0-1,.2-.3,0-.6.4-1,.4-.3,0-.7-.2-1,.2-.2.3-.5-.2-.8,0-.3.2-.5.3-.8,0-.2-.2-.4-.4-.6-.2-.1,0-.2.4-.3.4-.1,0-.3-.3-.3.4,0,0,0,0-.1-.1-.2-.4-.3-.4-.4,0,0,.3-.2.3-.3.3-.3,0-.6.1-.8,0-.2,0-.4-.2-.7-.3-.2,0-.4.3-.7,0-.2-.3-.4-.3-.6-.2-.1,0-.3-.3-.3.4,0,0,0,0,0,0-.4-.8-.6.3-1,.1-.4-.2-.7,0-1,0,0,0-.2-.2-.3.3,0,.2-.1.2-.2,0-.3-.6-.5-.2-.8-.3-.3-.1-.6.2-.9-.3-.1-.2-.3-.3-.4.3,0,.3-.2,0-.3,0,0,0-.2.3-.2.3,0,0-.2-.2-.2-.3,0,0,0,0,0,0-.4.7-.9-.2-1.3,0-.4.2-.9.1-1.3,0-.2,0-.5-.2-.7-1.4,0-.5-.1-1.1,0-1.4,0-.2.1-.5.2-.5.1-.1.3-.2.4-.3.3-.2.5-.7.8-.5,0,0,.2-.2.3.3,0,0,0,.1,0,0,.3-.8.8-.3,1.1-.4.3,0,.6-.7,1-.5.1-.6.4-.5.6-.4.7.6,1.3.1,2,.2.7,0,1.3,0,2,0,.1,0,.2-.4.3-.1.1.3.3,0,.4,0,.1,0,.3-.2.4,0,.6.6,1.1.2,1.6.2.5,0,1,0,1.5-.2.3-.1.6-.5.9-.4.1,0,.2-.3.4.3,0,.2.1-.3.2-.3.2,0,.4,0,.6,0,.3,0,.6,0,.9-.1.2,0,.3-.3.5-.4.2,0,.4-.1.6,0,.2,0,.5.2.8.3.3,0,.5-.3.8,0,.5.5.9.1,1.4.2.4,0,.9,0,1.3-.2.2-.1.5.4.8.3.1,0,.5,1.4.5,1.9,0,0,0,.2,0,.2-.2.5-.3,1.2-.6,1.2-.4,0-.8,0-1.2.1Z" fill="#fff"/>
  <path d="M220.7,239.3c-.2,0-.5,0-.7,0,0,0-.2-.2-.3.3,0,.3-.2-.4-.2-.3-.2,0-.5,0-.7,0-.2,0-.4.3-.6.4-.2,0-.5-.2-.7.1-.2.3-.4-.2-.5,0-.2.1-.4.2-.6,0-.1-.2-.3-.4-.4-.3,0,0-.1.4-.2.4,0,0-.2-.3-.2.4,0,0,0,0,0-.1-.1-.4-.2-.4-.3,0,0,.3-.1.2-.2.3-.2,0-.4,0-.6,0-.1,0-.3-.3-.4-.3-.2,0-.3.2-.4,0-.2-.3-.3-.3-.4-.3,0,0-.2-.3-.2.4,0,0,0,0,0,0-.3-.8-.4.3-.6.1-.2-.2-.5,0-.7,0,0,0-.1-.2-.2.3,0,.2,0,.2-.1,0-.2-.6-.4-.2-.6-.3-.2,0-.4.2-.6-.3-.1-.2-.2-.3-.3.3,0,.3-.1,0-.2,0,0,0,0,.3-.1.3,0,0-.1-.2-.2-.3,0,0,0,0,0,0-.2.7-.6-.2-.9,0-.3.2-.6.2-.9.1-.2,0-.4-.2-.6-1.3-.1-.5-.2-1.1-.2-1.4,0-.2,0-.5.1-.5,0-.1.2-.2.2-.4.2-.2.3-.8.5-.5,0,0,.1-.2.2.3,0,0,0,.1,0,0,.2-.8.5-.3.8-.4.2,0,.4-.7.6-.5,0-.6.2-.5.4-.4.5.6.9.1,1.4.2.5,0,.9,0,1.4,0,0,0,.1-.4.2,0,.1.3.2,0,.3,0,0,0,.2-.2.3,0,.4.6.7.2,1.1.2.4,0,.7,0,1.1-.1.2-.1.4-.5.6-.4,0,0,.2-.3.3.3,0,.2,0-.3.2-.3.1,0,.3,0,.5,0,.2,0,.4,0,.6,0,.1,0,.2-.3.4-.4.1,0,.3,0,.4,0,.2,0,.4.3.5.3.2,0,.3-.2.5,0,.3.5.6.2.9.3.3,0,.6,0,.9,0,.2,0,.4.4.5.4,0,0,.2,1.5.2,2,0,0,0,.2,0,.2-.1.5-.3,1.2-.5,1.2-.3,0-.6,0-.8,0Z" fill="#fff"/>
  <path d="M222.8,249.2c-.2,0-.4,0-.7,0,0,0-.2-.2-.2.3,0,.3-.1-.4-.2-.3-.2,0-.4,0-.6,0-.2,0-.4.3-.6.4-.2,0-.4-.2-.6.1-.2.3-.3-.2-.5,0-.2.1-.3.2-.5,0-.1-.2-.3-.4-.4-.3,0,0-.1.4-.2.4,0,0-.2-.3-.2.3,0,0,0,0,0-.1,0-.4-.2-.4-.3,0,0,.3-.1.2-.2.3-.2,0-.3,0-.5,0-.1,0-.3-.3-.4-.3-.1,0-.3.2-.4,0-.1-.3-.2-.3-.4-.3,0,0-.2-.3-.2.4,0,0,0,0,0,0-.2-.8-.4.3-.6,0-.2-.2-.4,0-.6,0,0,0-.1-.2-.2.3,0,.2,0,.2-.1,0-.2-.6-.3-.2-.5-.3-.2-.1-.3.2-.5-.3,0-.2-.2-.3-.3.3,0,.3-.1,0-.2,0,0,0,0,.3-.2.3,0,0,0-.2-.1-.3,0,0,0,0,0,0-.2.7-.5-.2-.8,0-.3.2-.5.1-.8,0-.1,0-.3-.2-.4-1.4,0-.5,0-1.1,0-1.4,0-.2,0-.5.1-.5,0-.1.2-.2.2-.3.2-.2.3-.7.5-.5,0,0,.1-.2.2.3,0,0,0,.1,0,0,.2-.8.5-.3.7-.4.2,0,.4-.7.6-.4,0-.6.2-.5.3-.3.4.7.8.2,1.2.3.4,0,.8,0,1.2,0,0,0,.1-.4.2,0,0,.3.2,0,.3,0,0,0,.2-.1.2,0,.3.6.6.2.9.3.3,0,.6.1.9,0,.2-.1.4-.5.5-.3,0,0,.2-.3.3.3,0,.2,0-.3.1-.3.1,0,.3,0,.4,0,.2,0,.4,0,.5,0,.1,0,.2-.3.3-.4.1,0,.2,0,.3,0,.1,0,.3.3.5.3.2,0,.3-.2.5,0,.3.5.5.2.8.3.3,0,.5,0,.8,0,.1,0,.3.4.5.4,0,0,.3,1.5.3,2,0,0,0,.2,0,.2-.1.5-.2,1.2-.4,1.2-.3,0-.5,0-.7,0Z" fill="#fff"/>
  <path d="M250.9,228.8c-.3.5-.6,1-.8,1.5,0,.2-.4.2,0,.7.2.2-.5,0-.6.2-.2.5-.6.9-.8,1.3-.2.4-.3,1-.5,1.4-.2.4-.7.7-.7,1.3,0,.5-.6.5-.7.9-.1.4-.3.8-.7,1-.3.1-.6.3-.7.6,0,.2.1.5,0,.6-.1.1-.4.2,0,.6,0,0,0,0-.2,0-.4,0-.6.2-.4.4.2.3,0,.4,0,.5-.2.4-.3.7-.6,1,0,.1-.2.2-.4.3,0,0-.2.2-.3.3-.1.1-.2.2-.3.4-.3.5-.4,1.4-.8,1.6-.4.2-.6.7-.8,1.2-.1.3-.4.2-.2,1.4,0,.1,0,.2,0,.2-.4-.2-.5.3-.6.9,0,.7-.2,1.6-.4,1.8,0,.1-.2.3-.3.5-.4-.7-.7-1.1-1.1-1.8-.1-.2-.3-.8-.5-.2,0,.2-.2,0-.3-.4-.2-.9-.3-1.3-.5-1.6-.2-.3-.4-.6-.6-.9-.4-.8-1-1.3-1.2-2.3,0-.2,0-.4-.2-.5-.1-.2-.3-.1-.6,0-.3,0-.2-.2-.3-.3-.1,0-.4,0-.5,0,0,0,0-.3,0-.5,0,0,0,0,0,0-.9,0-.6-1-1.2-1.3-.5-.3-.9-.8-1.3-1.2-.2-.3-.3-.6.2-1.6.3-.5.6-.9.9-1,.2-.1.5-.2.6-.2.2,0,.5.1.7.2.4.1,1.1,0,1.3.6,0,.2.4,0,0,.5,0,0,0,.1,0,.1,1-.1,1,.7,1.5,1.1.4.4,1.2.3,1.3.9.3,0,.5,0,.7,0,0,0,0,0,0,.1-.2.3-.1.5,0,.5,0,0,.1,0,.2.1,0,.1,0,.2.1.3,0-.1,0-.2.1-.3,0,0-.1-.5,0-.2.1.3,0,0,0,0,0,0,0-.2,0,0,.3.2.4,0,.4,0,.2-.3.3-.8.5-1.1.5-.7.9-1.3,1.2-2.1.2-.5.1-1.1.5-1.4.2-.1,0-.5.6-.4.2,0-.1-.4,0-.5.1-.3.3-.6.5-.8.2-.4.5-.7.7-1.1.1-.2,0-.6.2-.9.1-.3.3-.5.5-.7.3-.3.6-.4.9-.7.2-.3.2-.7.6-.9.8-.3.9-1,1.3-1.5.4-.5.7-1.1.9-1.7,0-.4.7-.4.8-.7,0-.1,1.5.3,1.9.5,0,0,.2.1.2.2.3.5.8,1.2.5,1.5-.4.5-.6,1.1-.9,1.7Z" fill="#fff"/>
  <g>
    <g>
      <g>
        <path d="M314.8,229.7c.2-.4.4-.7.6-1.1,0-.1.4-.2,0-.6-.2-.2.4,0,.5-.2.1-.4.4-.7.5-1,.1-.4.1-.8.3-1.1.1-.3.6-.5.5-1,0-.4.5-.4.6-.7,0-.3.2-.6.5-.8.3,0,.6-.2.6-.4,0-.2-.2-.4,0-.5,0-.1.4,0,0-.5,0,0,0,0,.2,0,.4.1.5,0,.3-.3-.2-.3,0-.3,0-.4.1-.3.3-.5.5-.8.2-.2.5-.2.7-.4.2-.2,0-.5.5-.5.4,0,.5-.2.6-.4,0-.1.4,0,0-.5,0,0,0,0,0,0,.9.2.2-.7.5-.9.4-.2.4-.6.6-.9,0,0,.3,0,0-.4-.1-.1,0-.2,0-.2.7,0,.5-.3.7-.5.3-.2.2-.6.7-.7.2,0,.4-.1,0-.5-.2-.2.1-.2.1-.3,0-.1-.2-.3-.2-.4,0,0,.3,0,.4,0,0,0,0,0,0,0-.4-.7.6-.7.7-1.2,0-.5.3-.9.6-1.3.2-.2.5-.4,1.6,0,.5.2,1,.4,1.2.7.2.2.3.4.3.5,0,.2,0,.4,0,.6,0,.4.4.9,0,1-.1,0,0,.3-.4.1,0,0-.1,0,0,0,.5.7-.2.9-.3,1.3-.1.3.2,1-.2,1.2.4.5.2.6,0,.7-.9.3-.9,1.2-1.4,1.8-.5.6-.8,1.3-1.2,1.9,0,.1.2.4-.1.4-.3,0-.2.2-.3.4,0,.1,0,.3-.3.4-.9.1-.9.8-1.2,1.3-.4.4-.7.9-.9,1.4-.1.3,0,.8-.3,1-.1,0,0,.4-.5.2-.2,0,.1.3.1.4,0,.2-.2.4-.4.6-.2.3-.4.5-.5.8,0,.2,0,.5,0,.7,0,.2-.2.4-.3.5-.2.2-.5.3-.7.5-.2.2,0,.6-.5.7-.7.2-.7.7-1,1.1-.3.4-.5.8-.7,1.3,0,.3-.6.3-.7.5,0,.1-1.4-.4-1.9-.7,0,0-.2-.1-.2-.2-.3-.4-.8-1-.6-1.3.3-.4.4-.8.7-1.2Z"/>
        <path d="M338.5,235.6c-.4,0-.8-.2-1.2-.2-.2,0-.3-.3-.5.2-.1.3-.2-.4-.3-.4-.4,0-.8-.2-1.2-.2-.4,0-.8.2-1.2.2-.4,0-.7-.3-1.1,0-.3.2-.6-.3-.9-.2-.3,0-.7.1-.9-.2-.2-.2-.4-.4-.6-.4-.1,0-.3.4-.5.3-.1,0-.3-.3-.5.3,0,0,0,0,0-.2-.1-.4-.3-.4-.5-.2-.2.3-.3.2-.4.2-.3,0-.6,0-1-.1-.2,0-.4-.3-.7-.4-.2,0-.5.2-.7-.1-.2-.3-.4-.3-.7-.3-.1,0-.3-.3-.4.3,0,0,0,0,0,0-.3-.9-.7.2-1.1,0-.4-.2-.8-.1-1.2-.1-.1,0-.2-.2-.3.3,0,.2-.2.2-.2,0-.3-.6-.6-.3-.9-.4-.3-.1-.7.1-1-.4-.1-.2-.3-.3-.5.3,0,.3-.2,0-.4,0-.1,0-.2.3-.3.3,0,0-.2-.2-.2-.3,0,0,0,0,0,0-.5.7-1-.2-1.5,0-.5.2-1,.1-1.5,0-.3,0-.6-.2-.8-1.4,0-.5-.1-1.1,0-1.4,0-.2.2-.5.3-.5.2,0,.3-.2.5-.3.3-.2.7-.7,1-.4.1,0,.2-.2.3.3,0,0,0,.1,0,0,.5-.8.9-.3,1.4-.3.4,0,.8-.7,1.2-.4.2-.6.5-.5.7-.3.8.7,1.6.3,2.3.4.8.1,1.6,0,2.4.2.1,0,.3-.3.4,0,.1.3.3,0,.5,0,.2,0,.3-.1.5,0,.6.7,1.2.4,1.8.5.6.1,1.2.3,1.8.2.4,0,.8-.4,1.2-.2.2,0,.4-.2.4.4,0,.2.2-.3.3-.3.3,0,.5,0,.8,0,.4,0,.7.1,1.1.1.2,0,.5-.2.7-.2.2,0,.5,0,.7.1.3.1.5.4.8.5.3.1.6-.1.9.2.4.6,1,.4,1.5.6.5.2,1,.3,1.6.3.3,0,.5.5.8.6.1,0,0,1.5-.1,2,0,0,0,.2-.1.2-.4.4-.8,1.1-1.1.9-.5-.2-.9-.2-1.4-.3Z"/>
      </g>
      <path d="M359.4,252.1c-.6-.2-1.3-.4-2-.5-.3,0-.5-.3-.8.1-.2.2-.3-.4-.5-.5-.6,0-1.3-.2-1.9-.2-.6,0-1.2.2-1.9.3-.6,0-1.2-.2-1.8.2-.5.3-1,0-1.4,0-.5.2-1,.4-1.5.3-.4,0-.8-.2-1.1,0-.2.1-.3.5-.6.6-.2,0-.6-.1-.5.5,0,0-.1,0-.2,0-.2-.2-.3-.2-.5-.1-.1,0-.2.1-.4.4-.3.4-.7.5-1,.8-1,.6-2.1,1.3-3.2,1.8-.8.4-1.3.5-2,.8-.1,0-.3.1-.4.2,0-.5-.2-1.1,0-2.1.3-1.1.3-1.7.3-2.5,0-.4.3-1-.4-1,0,0,0-.2,0-.3.4-.8.3-1.3.2-1.8v-.4c-.1,0-.2-.2-.2-.2h0c0-.3,0-.5,0-.6.2-.7,0-1.4,0-2.1,0-.2.2-.4-.3-.5-.2,0-.2-.3,0-.3.6-.5.2-1.1.3-1.6.1-.6-.2-1.2.3-1.8.2-.3.3-.6-.3-.9-.3-.1,0-.4,0-.7,0-.2-.3-.4-.3-.5,0-.2.2-.3.3-.5,0,0,0-.1,0-.1-.7-.9.2-1.8,0-2.7-.2-.9,0-1.8,0-2.7,0-.5.3-1,1.4-1.3.5-.1,1.1-.1,1.4.1.2.2.5.3.5.5,0,.3.2.6.3.8.2.6.7,1.1.4,1.7,0,.2.2.4-.3.5,0,0-.1,0,0,.1.8.8.3,1.6.3,2.4,0,.7.7,1.3.4,2,.6.4.5.8.3,1.2-.7,1.3-.2,2.7-.2,4,0,.7,0,1.4,0,2v.9c0,0,0,.1,0,.2,0,0,.4-.1,0,0-.3.2,0,.2,0,.2,0,0,.1,0,0,.2,0,.1-.2.3-.2.4,0,.1-.1.3,0,.2.1,0,.5-.3.6-.4.1,0,.3,0,.5-.1.5-.2,1.1-.4,1.6-.7.6-.3,1.2-.8,1.9-.9.3,0,.6-.4,1,.1.1.1.3-.4.5-.4.5-.2,1-.2,1.4-.2.7-.1,1.4,0,2-.2.4,0,.8-.3,1.2-.4.4,0,.9,0,1.3,0,.6.1,1.1.3,1.6.5.6.1,1.2,0,1.7.3.4.4.9.5,1.4.6.5.1,1,.2,1.4.4.9.4,1.8.7,2.8,1,.6.1.8.9,1.3,1.1.2.1-.2,1.6-.5,1.9,0,0-.1.1-.2.2-.7.2-1.4.6-1.8.4-.7-.4-1.4-.6-2.1-.9Z"/>
      <path d="M365.2,310.2c-.4-.9-.7-1.9-1.2-2.8-.2-.3,0-.8-.7-.9-.3,0,.1-.7,0-1-.4-.8-.7-1.7-1.1-2.6-.4-.8-.9-1.6-1.3-2.4-.4-.8-.5-1.8-1.1-2.5-.5-.6-.3-1.4-.7-2-.4-.7-.8-1.4-.8-2.1,0-.6,0-1.2-.3-1.6-.2-.3-.6-.5-.7-.8-.1-.3,0-.8-.7-.8,0,0,0-.2,0-.3.2-.5,0-.9-.3-1.1-.4-.2-.4-.4-.5-.7-.3-.7-.6-1.4-.9-2.1-.2-.6-.2-1.2-.3-1.7-.2-.6-.7-1.1-.6-1.7,0-.6-.1-1.1-.3-1.6-.1-.3,0-.7-.7-.7,0,0,0-.1,0-.2.4-1.1-.9-1.5-1-2.4-.2-.9-.6-1.8-1-2.6,0-.2,0-.5-.5-.6-.2,0-.3-.2-.2-.4.3-.9-.3-1.4-.5-2.1-.2-.8-.8-1.4-.6-2.4,0-.4,0-.9-.7-1-.3,0-.2-.5-.4-.8-.1-.2-.5-.3-.6-.5,0-.2,0-.5,0-.7,0,0,0-.1,0-.2-1.1-.8-.7-2.2-1.3-3.2-.3-.5-.6-1-.8-1.6-.2-.6-.4-1-.6-1.5-.1-.3-.2-.5-.1-.7,0-.2.3-.5.5-1,.2-.5.4-1,.9-1.1.3,0,.8,0,1,.2.4.3.7.6,1,.9.5.6,1.4,1.2,1.5,2,0,.3.4.4,0,.8,0,0,0,.2,0,.2,1.2.7,1.1,1.9,1.6,2.9.4.8,1.3,1.4,1.4,2.4.8.2.9.8.9,1.4,0,1.9,1.2,3.5,1.8,5.2.6,1.7,1.4,3.4,2,5.1.1.3.5.4.4.9-.1.4.2.8.4,1.1.1.3.4.6.4,1,0,1.6.8,2.8,1.3,4.2.5,1.4.9,2.7,1.6,4,.4.8,1.1,1.5,1.3,2.3,0,.4.6.6.1,1.2-.1.2.4.3.5.5.3.5.5,1.1.7,1.7.3.8.6,1.6,1,2.3.2.5.6.8.9,1.3.3.5.5,1,.6,1.5.2.7.2,1.4.4,2,.2.7.7,1.2.7,2,0,1.3.7,2.4,1.1,3.6.4,1.2.9,2.3,1.5,3.4.3.6.1,1.4.4,2,.1.3-1,1.3-1.5,1.4,0,0-.2,0-.3,0-.7-.4-1.7-.7-1.9-1.4-.4-1.1-.9-2.1-1.3-3.2Z"/>
      <path d="M354.8,213.3c.1.2.2.4.3.5,0,0-.1.3.4,0,.3,0-.3.3-.2.3.2.1.2.4.3.5.1.1.4.2.6.4.1.1,0,.5.3.5.3,0,0,.4.1.5.2,0,.3.2.2.5-.1.2-.3.4-.1.4,0,0,.4,0,.4,0,0,0-.2.3.4,0,0,0,0,0-.1.1-.3.2-.3.3,0,.3.3,0,.3,0,.3,0,0,.1.2.3.2.5,0,.1-.2.3-.2.5,0,.1.3.2,0,.4-.2.2-.2.3-.2.4,0,0-.2.2.4,0,0,0,0,0,0,0-.7.4.4.3.2.5-.1.3,0,.4.1.6,0,0-.1.2.3,0,.2,0,.2,0,0,0-.6.3-.1.4-.2.5,0,.2.3.3-.2.6-.2.1-.3.2.3.2.3,0,0,.1.1.2,0,0,.3,0,.4,0,0,0-.2.1-.3.2,0,0,0,0,0,0,.7,0,0,.5.1.8.2.2.2.5.2.8,0,.1-.2.3-1.3.6-.5.1-1,.2-1.4.2-.2,0-.5,0-.5,0-.1,0-.3,0-.4-.1-.2-.1-.8-.1-.5-.3,0,0-.2,0,.3-.2,0,0,.1,0,0,0-.8,0-.4-.3-.5-.5,0-.2-.7-.2-.5-.4-.6,0-.6,0-.4-.2.6-.5,0-.7,0-1.1,0-.4-.2-.7-.3-1,0,0-.4,0-.1-.1.2-.1,0-.2,0-.2,0,0-.2,0,0-.2.5-.5,0-.6,0-.9,0-.3,0-.6-.3-.7-.2-.1-.5-.1-.5-.3,0,0-.3,0,.2-.3.1,0-.3,0-.3,0,0,0-.1-.2-.2-.3,0-.1,0-.3-.2-.4,0,0-.3,0-.4,0,0,0-.1-.1-.1-.3,0-.1.1-.4.1-.5,0-.1-.3-.1-.1-.4.3-.5,0-.5,0-.8,0-.2-.1-.5-.4-.6-.1,0,.2-.4.2-.6,0,0,1.2-.9,1.6-1.2,0,0,.2,0,.2-.1.5-.1,1.1-.4,1.2-.2,0,.2.2.4.4.6Z"/>
      <path d="M343,216.7c.1.2.2.4.3.5,0,0-.1.3.4,0,.3,0-.3.3-.2.3.2.1.2.4.3.5.1.1.4.2.6.4.1.1,0,.5.3.5.3,0,0,.4.1.5.2,0,.3.2.2.5-.1.2-.3.4-.1.4,0,0,.4,0,.4,0,0,0-.2.3.4,0,0,0,0,0-.1.1-.3.2-.3.3,0,.3.3,0,.3,0,.3,0,0,.1.2.3.2.5,0,.1-.2.3-.2.5,0,.1.3.2,0,.4-.2.2-.2.3-.2.4,0,0-.2.2.4,0,0,0,0,0,0,0-.7.4.4.3.2.5-.1.3,0,.4.1.6,0,0-.1.2.3,0,.2,0,.2,0,0,0-.6.3-.1.4-.2.5,0,.2.3.3-.2.6-.2.1-.3.2.3.2.3,0,0,.1.1.2,0,0,.3,0,.4,0,0,0-.2.1-.3.2,0,0,0,0,0,0,.7,0,0,.5.1.8.2.2.2.5.2.8,0,.1-.2.3-1.3.6-.5.1-1,.2-1.4.2-.2,0-.5,0-.5,0-.1,0-.3,0-.4-.1-.2-.1-.8-.1-.5-.3,0,0-.2,0,.3-.2,0,0,.1,0,0,0-.8,0-.4-.3-.5-.5,0-.2-.7-.2-.5-.4-.6,0-.6,0-.4-.2.6-.5,0-.7,0-1.1,0-.4-.2-.7-.3-1,0,0-.4,0-.1-.1.2-.1,0-.2,0-.2,0,0-.2,0,0-.2.5-.5,0-.6,0-.9,0-.3,0-.6-.3-.7-.2-.1-.5-.1-.5-.3,0,0-.3,0,.2-.3.1,0-.3,0-.3,0,0,0-.1-.2-.2-.3,0-.1,0-.3-.2-.4,0,0-.3,0-.4,0,0,0-.1-.1-.1-.3,0-.1.1-.4.1-.5,0-.1-.3-.1-.1-.4.3-.5,0-.5,0-.8,0-.2-.1-.5-.4-.6-.1,0,.2-.4.2-.6,0,0,1.2-.9,1.6-1.2,0,0,.2,0,.2-.1.5-.1,1.1-.4,1.2-.2,0,.2.2.4.4.6Z"/>
    </g>
    <path d="M326.5,211.2c.6-.1,1.2-.2,1.7-.4.2,0,.5,0,.5-.5,0-.3.4.2.6.1.5-.3,1-.5,1.4-.8.4-.3.7-.8,1.1-1.2.4-.4,1-.6,1.1-1.1.1-.5.8-.5,1-.9.2-.4.4-.9.9-1.1.3-.2.7-.3.8-.7,0-.2,0-.6,0-.7.1-.2.5-.2,0-.7,0,0,.1,0,.2,0,.5,0,.6-.2.5-.6-.1-.3,0-.4,0-.6.2-.4.5-.9.8-1.3.2-.3.6-.5.9-.8.3-.3.2-.8.7-1,.5-.2.6-.5.8-.8.1-.2.5-.2,0-.7,0,0,0-.1,0-.1,1,0,.4-1.2,1-1.6.5-.4.8-1.1,1.2-1.6.1-.1.4-.2.1-.6,0-.1,0-.3.2-.3.8,0,.9-.7,1.3-1,.5-.4.8-1,1.5-1,.3,0,.7-.2.5-.8,0-.3.3-.3.5-.5.1-.2.1-.5.3-.6.1-.1.4,0,.6,0,0,0,.1,0,.1,0,.5-1.1,1.7-.7,2.5-1.3.8-.5,1.8-.7,2.8-.8.5,0,1.2.1,1.5,1.2.2.5.2,1.1,0,1.4-.1.2-.3.5-.4.5-.2.1-.4.3-.6.4-.4.3-.7.9-1.2.7-.2,0-.2.3-.5-.1,0,0-.1,0-.1,0-.3,1-1,.7-1.6,1.1-.4.3-.5,1.1-1.1,1.2.2.7-.2.8-.5.9-1.3.2-1.7,1.4-2.4,2.2-.8.8-1.4,1.9-2,2.9-.1.2.1.5-.3.6-.3,0-.3.4-.5.6-.1.2-.1.5-.4.6-1.1.5-1.2,1.6-1.8,2.4-.6.8-1.1,1.6-1.6,2.6-.3.6-.3,1.3-.8,1.7-.2.2-.1.6-.8.5-.2,0,0,.4,0,.6-.2.4-.6.7-.9,1-.4.5-.9.9-1.3,1.3-.3.3-.4.7-.7,1-.3.3-.6.6-1,.8-.5.3-1.1.4-1.5.6-.5.2-.9.7-1.5.7-1.1,0-1.9.4-2.9.5-.9.1-1.8.2-2.7.4-.5.1-1-.4-1.4-.3-.2,0-.6-1.4-.6-1.9,0,0,0-.2,0-.2.4-.5.8-1.2,1.3-1.2.7,0,1.5-.1,2.1-.2Z"/>
    <path d="M400.8,294.5l-3.7-5.6c-.5-.7-.7-1.6-1.6-2-.5-.2-.3-1.3-.8-1.9-1.2-1.7-2.1-3.6-3.3-5.4-1-1.8-2.3-3.4-3.2-5.2-1-1.8-1.7-3.8-2.8-5.4-1-1.4-1.1-3.1-1.9-4.5-.7-1.6-1.5-3.2-1.9-4.9-.2-1.2-.5-2.4-.9-3.6-.3-.7-.8-1.3-1-2.1-.2-.8-.2-1.7-1-2.2,0,0,0-.4,0-.6.2-.9,0-1.9-.5-2.5-.4-.6-.5-1.2-.6-1.9l-.6-2.6c-.2-.9-.3-1.7-.4-2.6-.1-1.3,0-2.6-.1-3.9,0-1.4-.5-2.8-.3-4,.2-1.3,0-2.4,0-3.7,0-.7.2-1.5-.5-2,0,0,0-.3,0-.4.6-2-.7-3.8-.7-5.8,0-2-.6-4-1-6-.1-.5,0-1.1-.6-1.5-.2-.1-.4-.7-.3-1,.2-1.6-.6-3-1-4.4-.5-1.6-1.5-3.1-1.9-4.8-.2-.7-.6-1.7-1.6-2-.4-.2-.7-1-1.1-1.4-.3-.4-.9-.6-1.2-.9-.3-.3-.4-.8-.6-1.2,0-.1-.2-.2-.3-.3-1.1-.6-1.9-1.4-2.8-2.3-.9-.8-1.8-1.6-2.9-2.1-2.2-.9-4.5-1.7-6.8-2-1.3-.2-2.6-.2-3.7-1.2-.5-.4-.7-1,0-1.4.4-.3,1-.6,1.5-.7.9-.2,1.8-.3,2.7-.3,1.8,0,3.8-.1,5.5.8.5.3,1.3.3,1.5,1,0,0,.2.2.4.2,2.7.4,4.6,2.4,6.5,4.1,1.6,1.4,3.5,2.6,4.6,4.6,1.2.6,1.9,1.9,2.3,3.1,1.5,4.1,3.2,7.9,4.1,12.1.9,4.2,1.5,8.3,1.8,12.4,0,.7.5,1.3.3,2.1-.2.8.1,1.8.2,2.7,0,.8.3,1.7.2,2.4-.4,3.2.4,6.4.9,9.5.3,1.5.5,3.1.9,4.6.4,1.5.7,3.1,1.3,4.5.3.9.7,1.8,1.1,2.7.4.9.8,1.8,1,2.7.2.8.8,1.5.6,2.4,0,.3.6.8.9,1.3.5,1.2,1,2.4,1.6,3.6.7,1.7,1.5,3.3,2.4,5,.5,1,1.3,1.8,1.8,2.8.6,1,1.2,2,1.7,3.1.6,1.3,1.2,2.7,1.9,4,.7,1.4,1.8,2.6,2.3,4,1,2.6,2.7,4.8,4.2,7.1,1.5,2.3,3,4.6,4.6,6.8.9,1.2,1.3,2.7,2.2,4,.4.6-.3,2.2-.8,2.3-.1,0-.3,0-.4-.1-1.2-1-2.6-1.7-3.5-3.1-1.4-2.1-2.8-4.2-4.3-6.3Z"/>
    <path d="M434.5,279.4c-1.5-1.9-3.1-3.8-4.7-5.7-.6-.7-1-1.6-2-2-.5-.2-.6-1.3-1.1-2-1.5-1.8-2.8-3.8-4.1-5.7-1.3-1.9-2.6-3.8-3.7-5.9-1.1-2-1.7-4.3-2.8-6.2-1-1.7-1.1-3.5-1.7-5.1-.7-1.8-1.4-3.6-1.7-5.5-.2-1.3-.4-2.7-.9-3.9-.3-.8-.8-1.4-1.1-2.3-.2-.8-.2-1.8-1-2.3,0,0,0-.4,0-.6.1-1-.2-2-.7-2.7-.5-.6-.6-1.3-.9-1.9-.6-1.8-1.2-3.5-1.8-5.3-.4-1.3-.7-2.7-1.1-4-.4-1.4-1.3-2.7-1.5-4-.3-1.3-.8-2.5-1.4-3.7-.3-.7-.5-1.6-1.3-1.8,0,0-.2-.3-.2-.4-.3-2.3-2.3-3.5-3.2-5.4-1.1-1.9-2.5-3.7-4-5.3-.4-.4-.7-1-1.4-1.1-.2,0-.7-.4-.8-.7-.7-1.5-2.2-2.3-3.5-3.1-1.5-1-3.3-1.4-4.9-2.4-.7-.4-1.8-.8-2.8-.5-.5.2-1.4-.3-2.1-.3-.6,0-1.2.1-1.7,0-.5,0-.9-.4-1.4-.5-.1,0-.3,0-.5,0-2.8.3-5.6-.7-8.4-.4-2.8.3-5.7.5-8.5.9-1.6.2-3.2.4-4.5-.5-.6-.4-.8-.9-.2-1.4.4-.4,1-.7,1.5-.9.9-.3,1.8-.6,2.7-.9,1.9-.5,3.7-1.3,5.8-1.1.6,0,1.3-.3,1.9.2,0,0,.3,0,.5,0,2.6-.9,5.5-.3,8.2-.1,2.3.2,4.6-.1,6.9.6,1.4-.4,2.9.1,4.2.7,2.2,1,4.4,2,6.5,3.4,2.1,1.4,3.9,3,5.5,4.7,3,3.6,5.8,7.5,8,11.6.4.7,1,1.1,1.2,2.1.1.9.8,1.8,1.2,2.7.4.8.9,1.7,1.1,2.5.8,3.6,2.4,6.8,3.5,10.3,1.1,3.4,2,6.9,3.2,10.2.7,2,1.6,4,2.1,6.1.2.9.8,1.7.5,2.8,0,.3.6,1,.8,1.5.5,1.4,1,2.8,1.4,4.1.7,1.9,1.4,3.8,2.3,5.6.5,1.1,1.3,2.1,1.9,3.1.6,1.1,1.2,2.2,1.8,3.3.8,1.4,1.4,2.9,2.3,4.2.9,1.4,2.2,2.6,3,4.1,1.5,2.7,3.6,4.9,5.5,7.3,1.9,2.4,3.8,4.9,5.7,7.3,1.1,1.4,1.6,3,2.5,4.5.4.7-.3,2.4-.9,2.3-.1,0-.3,0-.4-.2-1.2-1.2-2.6-2-3.7-3.5-1.5-2.3-3.2-4.4-5-6.6Z"/>
    <path d="M419.6,298c.5-.2,1-.3,1.4-.5.2,0,.4.1.4-.5,0-.3.4.3.5.2.4-.2.9-.3,1.3-.5.4-.2.7-.6,1.1-.8.4-.2.9,0,1.2-.5.2-.4.7,0,1-.3.3-.2.6-.5,1.1-.4.3,0,.6.2.8,0,.1-.1.2-.5.3-.5.2,0,.4.1.3-.5,0,0,.1,0,.2,0,.3.3.5.2.5-.1,0-.3.2-.3.3-.4.3-.2.7-.3,1-.4.3,0,.6,0,.9,0,.3,0,.5-.4.8-.3.4.2.6,0,.8,0,.1,0,.4.1.3-.5,0,0,0,0,0,0,.7.6.6-.6,1.1-.6.5,0,.8-.4,1.2-.6.1,0,.3,0,.2-.4,0-.2,0-.2.2-.2.6.4.7-.1,1.1-.2.4,0,.6-.5,1.2-.3.3,0,.5,0,.4-.5,0-.3.3-.1.4-.3,0-.1,0-.4.2-.5,0,0,.3.1.4.1,0,0,0,0,0,0,.3-.9,1.2-.4,1.8-.8.5-.4,1.2-.6,1.9-.7.4,0,.8,0,1.3,1.1.2.5.3,1,.2,1.4,0,.3-.1.5-.2.6-.1.1-.3.3-.4.4-.3.3-.4.9-.8.7-.1,0-.1.3-.4-.2,0,0,0,0-.1,0-.1.9-.8.6-1.2.9-.4.2-.4,1-.9,1,0,.7-.2.7-.5.7-1.1-.1-1.7.7-2.6,1.1-.9.4-1.7.9-2.5,1.2-.1,0-.1.4-.4.3-.3-.2-.4.1-.6.2-.2,0-.3.3-.5.2-.9-.3-1.4.4-2.1.6-.7.2-1.4.4-2,.9-.4.3-.7.7-1.1.8-.2,0-.3.4-.6,0-.1-.1-.1.3-.2.4-.3.2-.6.2-.8.3-.4.1-.8.2-1.2.4-.2.1-.4.4-.6.6-.2.1-.5.2-.8.3-.3,0-.7,0-1.1,0-.4,0-.6.4-1,.3-.8-.3-1.3.2-1.9.3-.6.1-1.2.3-1.7.6-.3.2-.8-.2-1.1,0-.1,0-.8-1.3-.9-1.8,0,0,0-.2,0-.2.2-.5.2-1.3.6-1.4.6-.1,1.1-.3,1.6-.5Z"/>
    <path d="M338.6,314.4l-1.6-4.2c-.2-.5-.2-1.2-.9-1.5-.4-.2,0-.9-.1-1.4-.5-1.3-.9-2.7-1.4-4-.5-1.3-1.1-2.5-1.6-3.8-.4-1.3-.6-2.7-1.2-3.9-.6-1-.3-2.1-.7-3.2-.4-1.1-.8-2.2-.8-3.4,0-.8,0-1.7-.3-2.5-.2-.5-.6-.9-.7-1.4-.1-.5,0-1.1-.7-1.4,0,0,0-.3,0-.4.3-.6.1-1.3-.2-1.7-.4-.4-.4-.8-.5-1.2-.3-1.1-.5-2.3-.6-3.4-.1-.9,0-1.8-.1-2.6,0-.9-.5-1.8-.3-2.7.2-.9,0-1.7,0-2.5,0-.5.1-1-.5-1.3,0,0,0-.2,0-.3.6-1.4-.5-2.6-.5-4,0-1.4-.3-2.8-.3-4.2,0-.4.1-.8-.4-1.1-.2-.1-.2-.5-.1-.7.6-1.1,0-2.2.2-3.2,0-1.2-.2-2.5.2-3.7.2-.5.3-1.2-.3-1.9-.3-.3,0-.9,0-1.3,0-.4-.3-.7-.3-1.1,0-.3.2-.6.4-.9,0,0,0-.2,0-.3-.7-1.8.3-3.6.3-5.4,0-.9,0-1.8,0-2.7.1-.9.2-1.8.4-2.7.2-1,.5-2,1.7-2.5.5-.2,1.1-.2,1.4.3.2.3.4.7.4,1.1,0,.6,0,1.1.1,1.7,0,1.1.4,2.3.1,3.4-.1.4.2.8-.4,1.1,0,0-.1.2,0,.3.7,1.6,0,3.2,0,4.8,0,1.4.6,2.7.3,4,.6.7.6,1.6.4,2.4-.3,1.3-.3,2.7-.3,4,.1,1.3.3,2.7.3,4,0,1.4.2,2.7.3,4.1l.4,4c0,.5.5.8.3,1.4-.2.5.1,1.2.2,1.7,0,.5.3,1.1.2,1.6-.3,2.2.4,4.3.7,6.4.4,2.1.7,4.2,1.3,6.2.4,1.2,1,2.4,1.2,3.7,0,.6.5,1,0,1.7-.1.2.5.6.6.9.3.8.5,1.7.7,2.6.3,1.2.6,2.4,1,3.6.3.7.7,1.4,1,2.1.3.7.5,1.5.7,2.3.2,1,.4,2,.6,2.9.3,1,.9,1.9.9,3,.2,1.9,1,3.6,1.6,5.3.6,1.7,1.2,3.5,2.1,5.1.5.9.4,2,.8,2.9.2.4-.9,1.6-1.4,1.7-.1,0-.2,0-.3,0-.8-.7-1.9-1.3-2.3-2.4l-1.9-4.8Z"/>
    <path d="M351.8,317.1c.3,0,.6-.1.9-.3.1,0,.3.2.2-.4,0-.3.3.3.4.2.3-.2.6-.2.8-.3.2-.1.4-.4.7-.6.2-.1.6,0,.8-.3.1-.3.5,0,.7-.1.2-.2.4-.3.7-.2.2.1.4.3.6.1,0,0,0-.4.2-.4.1,0,.3.2.2-.4,0,0,0,0,.1.1.2.3.4.3.4,0,0-.3,0-.3.2-.3.2-.1.4-.2.7-.2.2,0,.4.1.6.1.2,0,.3-.3.5-.1.3.2.4.2.6,0,0,0,.3.2.1-.4,0,0,0,0,0,0,.5.7.4-.4.7-.3.3,0,.6-.1.8-.3,0,0,.2.1.1-.3,0-.2,0-.2.1-.1.4.5.5,0,.7,0,.3,0,.4-.3.8,0,.2.2.3.2.3-.4,0-.3.2,0,.2-.2,0,0,0-.4,0-.4,0,0,.2.2.3.2,0,0,0,0,0,0,0-.8.8,0,1-.4.3-.3.6-.4,1-.4.2,0,.5,0,1,1.1.3.5.5,1,.5,1.3,0,.2,0,.5,0,.6,0,.1-.1.3-.2.4-.1.3-.2.9-.5.7-.1,0,0,.3-.3-.2,0,0,0,0,0,0,0,.9-.5.5-.8.7-.2.2-.3.8-.6.7,0,.6-.1.6-.4.5-.8-.4-1.1.2-1.7.3-.6.1-1.1.4-1.6.6,0,0,0,.4-.3.2-.2-.2-.3,0-.4,0-.1,0-.2.2-.3,0-.6-.5-.9,0-1.4.1-.4,0-.9.2-1.3.5-.2.2-.4.6-.7.6-.1,0-.1.3-.4-.2,0-.1,0,.3-.1.4-.2.1-.4.1-.5.2-.2,0-.5.1-.7.3-.1,0-.2.4-.3.5-.1.1-.3.2-.5.2-.2,0-.5-.1-.7-.1-.2,0-.4.3-.6.1-.5-.4-.8,0-1.2,0-.4,0-.8.1-1.1.4-.2.1-.5-.3-.7-.2,0,0-.6-1.3-.7-1.8,0,0,0-.2,0-.2,0-.5,0-1.3.3-1.3.4,0,.7-.2,1-.3Z"/>
    <path d="M319.8,207.9c0-1,0-1.9-.1-2.9,0-.4.2-.7-.3-1.1-.3-.2.4-.5.3-.9,0-.9,0-1.8,0-2.7,0-.9-.2-1.8-.2-2.7,0-.9.4-1.7.2-2.6-.2-.8.4-1.4.4-2.1,0-.8.2-1.6.6-2.3.3-.5.7-1,.9-1.5,0-.4,0-.8.2-1.2.2-.3.7-.6.3-1.2,0,0,.2-.1.3-.2.6-.1.9-.5.9-1,0-.5.3-.6.5-.9.6-.7,1.4-1.3,2.1-1.7.6-.3,1.3-.4,1.9-.6.6-.2,1.2-.7,1.9-.6.7.1,1.2,0,1.7-.2.3,0,.7.2.9-.5,0,0,.1,0,.2,0,1,.7,1.7-.5,2.7-.4.9.1,1.9,0,2.8,0,.2,0,.5.2.7-.3,0-.2.3-.2.5,0,.7.6,1.4.3,2.1.4.8.1,1.6-.1,2.4.4.3.2.8.4,1.2-.2.2-.3.6,0,.9,0,.2,0,.5-.3.8-.2.2,0,.4.3.6.4,0,0,.1,0,.2,0,1.3-.4,2.4.7,3.6,1,1.3.3,2.5.9,3.5,1.8.6.5,1.1,1.1.6,2.3-.2.5-.6.9-1,1-.3,0-.6,0-.8,0-.3-.1-.7-.2-1-.3-.7-.2-1.4,0-1.9-.5-.2-.2-.5,0-.5-.5,0,0,0-.1-.1-.1-1.1.4-1.8-.3-2.8-.5-.8-.1-1.6.4-2.4,0-.5.6-1,.4-1.5.2-1.6-.8-3.3-.4-4.9-.5-1.7,0-3.3,0-4.8.3-.3,0-.4.4-.8.2-.3-.2-.7,0-1,.2-.3,0-.5.3-.9.2-1.3-.3-2.3.6-3.1,1.3-.9.6-1.7,1.4-2.1,2.5-.2.7-.2,1.4-.5,2-.2.3,0,.7-.6.8-.2,0,.2.4.2.6,0,.5-.2,1-.3,1.5-.1.7-.2,1.5-.2,2.2,0,.5.2.9.2,1.4,0,.5,0,1,0,1.5-.1.6-.3,1.2-.4,1.8,0,.6.2,1.3,0,1.9-.5,1.1-.2,2.3-.2,3.4,0,1.1,0,2.3.3,3.4.1.6-.3,1.3-.2,1.9,0,.3-1.4.9-1.9.8,0,0-.2,0-.2,0-.5-.6-1.3-1.1-1.4-1.8,0-1.1-.2-2.2-.3-3.3Z"/>
  </g>
</svg>