<?xml version="1.0" encoding="UTF-8"?>
<svg id="ARTWORK" xmlns="http://www.w3.org/2000/svg" width="600" height="600" viewBox="0 0 600 600">
  <g>
    <path d="M177.6,342.5c-10.9-41.8-21.4-88.3-28.1-130.9-.3-2-.6-4.1.2-6,1.5-3.5,5.9-4.5,9.7-4.9,13.9-1.5,34.1-.2,46.4-.2-5.1,6.8-10.1,19-11.8,27.3-3.8,17.9-4.2,42.3-6,60.6-.7,7.1,1.1,12.9,3.6,19.6,3.2,8.5,6.4,9.9,15,12.9,8.6,3,18,3.2,27.1,2.9,9.1-.3,28.1,1.5,37.1.1,3.8-.6-1.6-3.6.8-.7,2,2.3,1.7,5.8,3.1,8.5,1.1,2.1,3,3.7,4.1,5.9s.5,5.5-1.8,5.9c-5.2-7.6-14.3-11.5-23.3-13.8-25-6.3-52.5-1.7-74.2,12.3" fill="#00b4e9"/>
    <path d="M224.4,325.2c4.4-.2,8.7-.3,13.1,0,2.2,0,4.3.4,6.5.6,1.1.1,2.2.3,3.2.5,1.1.2,2.2.3,3.2.6,3.2.7,6.3,1.7,9.7,2.3,1.7.3,4.5,2.1,7.2,3.5,1.9,1,3.7,2.2,5.4,3.5.9.7,1.7,1.4,2.5,2.2l.3.4c0,0,.1.1.2.2l.3.4.3.4c.1,0,.3,0,.4-.1.2-.2.3-.5.3-.8,0-.3,0-.6-.2-.8,0,0,0,0-.1-.2-.1-.2-.2-.3-.3-.5-.2-.3-.5-.7-.8-1-.6-.7-1.3-1.5-1.9-2.4-.6-.9-1.2-2.1-1.5-3.1-.3-1.1-.5-2-.8-2.9-.1-.4-.2-.9-.3-1.2v-.2c0,0-.1,0-.1,0h0c0-.3-.3-.5-.4-.6.1,0,.4.3.1.4,0,0,0,0-.1,0h-.5c0,0-.5.1-.5.1h-.3s-.4,0-.4,0c-1,0-2,.2-3,.2-7.9.3-15.8-.5-23.2-.4-3.2,0-6.2-.1-9.1,0-3.1,0-6.1,0-9.2,0-3.3,0-6.7-.3-10.1-.8-1.7-.3-3.4-.7-5-1.1-1.6-.5-3.3-1.1-4.7-1.6-2.2-.9-4.4-1.8-6.6-3.1-2.2-1.3-4.2-3.3-5.5-5.5-1.7-2.7-2.9-5.3-4-8.3-1-2.8-1.7-6.2-2.7-8.8,0-.2-.2-1.6-.2-2.4,0-1.7.1-3.6.3-5.4,0-.9.1-1.7.2-2.5,0-.8,0-1.5,0-2.2,0-2.6.2-4.8.3-7.2.4-6.5.8-13.1,1.4-19.6.4-4.9,1.1-9.8,1.7-14.7.6-5.1,1.1-10.7,2.4-15.3,1.3-4.8,2.8-9.1,4.6-13.5,1-2.5,2.6-5.2,3.1-7.5,0-.2.5-1.1.8-1.5l.9-1.3c.1-.2.3-.3.4-.5.2-.2.4-.5.6-.7-.3,0-.8,0-1.1,0h-.3s-.9,0-.9,0h-2c-2.7,0-5.4.1-8.1,0-7.8-.4-15.9-.4-23.8,0-2.1,0-4.3,0-6.2.7-.7.2-2.7.5-3.6.7-1.3.2-2.4.5-3.3,1.1-.9.6-1.3,1.3-1.5,2.3-.2,1,0,2.4.2,3.8.3,1.5.5,3,.7,4.5,1,6.8,2.4,13.6,3.2,20.5.3,2.9.9,6.9,2.2,10.2.6,1.5.9,4.9,1.5,7.4.5,2,1.1,3.9,1.5,5.9.4,1.7.5,3.5.7,5.2,0,.5.2,1.2.3,1.7,2.7,9.7,4,19.7,6.5,29.5,2.5,9.9,4.8,19.9,7.2,29.9,1.3,5.5,2.6,11.2,2.5,15.2,0,1.8-.6,2-1.5-.3-.7-1.6-1.4-3.6-2-5.5-.9-3.1-1.8-6.2-2.7-9.2-1.8-6.3-3.8-12.5-5.1-19.1-.4-2.1-1.3-4.4-1.2-6.2,0-.3-.1-1.1-.3-1.5-2.8-8.6-4.4-17.9-6.3-26.8-1.7-7.6-3.8-14.9-5.1-22.7-1.5-4.1-2.3-9.2-2.9-13.5-1-7.7-2.3-15.3-3.5-23-.2-1-.3-1.9-.5-3-.1-1.1-.2-2.2,0-3.5.2-1.2.7-2.6,1.4-3.6.8-1.1,1.8-1.9,2.8-2.5,2.1-1.2,4.3-1.7,6.3-2,1-.2,2-.2,3-.3,1,0,2-.2,2.9-.2,7.1-.4,14.2-.3,21.2-.2l10.5.2h5.3c0,.1,9.4.2,9.4.2-1.7,2.5-3.8,5.2-5.1,7.4v.2c-.1,0-.2.1-.2.1v.2c-.1,0-.3.4-.3.4-.1.3-.3.6-.4.8-.3.6-.5,1.1-.8,1.7-.5,1.2-1.1,2.3-1.8,3.7-1.4,2.5-2.6,6.1-3.6,9.2-.5,1.5-.9,3-1.2,4.4-.3,1.5-.6,3-1,4.4-1.4,5.9-2.2,12-2.8,18.1-.6,6.1-.9,12.3-1.4,18.4-.5,6.1-.9,12.2-1.4,18.4-.1,1.5-.3,3.1-.4,4.5,0,1.4,0,2.9.2,4.3.3,2.9,1.1,5.7,2.1,8.5.6,1.7,1.3,3.5,2,5.1.7,1.6,1.5,3.2,2.5,4.4,1,1.3,2.1,2.2,3.5,3,1.4.8,3.1,1.5,4.8,2.1,1.5.6,3,1,4.5,1.5,1.5.4,3,.9,4.4,1.5.8.3,3.8.4,5.7.5,5,.4,10,.4,15.1.2,3.7,0,7.2,0,10.8.2,3.6.1,7.1.3,10.7.3,4.3,0,8.6-.1,12.7-.5.7,0,1.5-.2,2.2-.2h.3s.4,0,.4,0c.3,0,.5,0,.7,0,.4,0,.9,0,1-.3.2-.3-.1-.6-.4-.9-.3-.3-.7-.5-1.1-.6-.1,0-.2,0-.3,0-.1,0-.2,0-.2.1,0,.1.1.3.3.4.3.3.6.5.9.8.6.6,1.5,1,2,2,.5.9,1,2.1,1.1,2.8.3,1.3.5,2.4.8,3.4.3,1.3.6,2,1.4,3,.7,1,1.7,2.1,2.6,3.7l.2.4c0,.1.1.3.2.5.1.3.3.6.4.9.2.6.3,1.3.4,1.9,0,1.2-.1,2.4-.5,3.4-.4,1-1.1,1.8-1.9,2.4-.8.6-2,.8-2.5.8-.2,0-.5,0-.7,0-.8-1.1-1.7-2.3-2.6-3.3-.2-.3-.5-.5-.7-.7l-.4-.4c-.2-.2-.5-.5-.7-.7-1-.9-2.1-1.7-3.2-2.4-2.2-1.5-4.6-2.7-7-3.8-4.6-2.2-9.7-3.4-14.8-4.3-5.1-.9-10.3-1.3-15.5-1.3-5.2,0-10.4.4-15.5,1.2-5.1.9-10.1,2.2-15,3.9-5.5,2-10.6,3.7-15.6,6.5-2.3,1.3-6.2,2-5.5,1,.1-.2.5-.5.8-.8,4.6-3.4,9.1-6.6,15.4-9,4.6-1.7,9.4-3.2,14.2-4.2,4.8-1,9.7-1.8,14.7-2.1Z" fill="#00b4e9"/>
  </g>
  <path d="M250.4,324.3c-3.9,0-7.8.2-11.8.3-1.5,0-3-.2-4.5.3-.8.3-2.2-.4-3.5-.4-3.7,0-7.4-.3-11.1-.5-3.6-.3-7.2-.5-10.8-1.3-3.6-.8-7.2-2.3-10.5-4.1-1.5-.7-2.6-1.8-3.7-3-1-1.2-1.9-2.4-2.8-3.8-1.8-2.8-2.9-6.1-3.2-9.2-.2-2.3-.1-4.5-.3-6.6,0-1.4-.4-2.6-.3-4.1,0-1.4.4-2.9-.2-4.1,0-.1,0-.7.2-1,.5-1.4.5-3.2.3-4.4-.2-1.2-.1-2.2,0-3.3.2-3,.4-6,.7-9,.3-2.2.7-4.5,1-6.7.3-2.3.3-4.9.9-7,.6-2.1.8-4.2,1.1-6.3.2-1.2.7-2.6.2-3.6,0-.1,0-.6.1-.7,1.3-3.3.8-6.8,1.6-10.2.8-3.5,1.4-7.2,2.1-10.8.2-1,.6-1.9.3-2.9,0-.3.1-1.4.3-1.8,1.2-2.5,1.4-5.4,2.2-8.1.8-3,1.4-6.4,3.4-9.4.8-1.2,2-2.8,2.7-4.6.3-.8,1.8-1.9,2.8-2.7.8-.7,1.5-1.5,2.4-2,.7-.5,1.6-.7,2.4-1,.2,0,.5-.2.7-.4,4.2-2.7,9.2-3.2,13.9-4,4.8-.8,9.9-.7,14.7.2,2.7.5,5.4,1.4,6.7,3.1.6.7.4,1.3-.7,1.2-.8,0-1.8,0-2.6-.2-1.4-.3-2.9-.4-4.2-.5-2.9-.3-5.8,0-8.7,0-.9,0-2,.3-2.8-.1-.1,0-.5,0-.7,0-1.9.6-3.9,1-5.9,1.5-2,.5-3.9,1-5.8,1.8-3.2,1.4-5.7,3.5-8.1,5.5-.8,1.7-1.9,3.1-2.9,4.7-1.7,2.7-2.5,6.1-3.3,9.5-.8,3.4-1.5,6.9-2.2,10.3-1.5,7-2.7,14-3.8,21-.2,1.2,0,2.3-.5,3.7-.5,1.3-.5,3-.7,4.6-.2,1.4-.2,2.9-.6,4.2-1.3,5.5-1.5,11.1-2,16.7-.5,5.5-.9,11.2-1,16.7,0,3.4.4,6.6.7,9.8.2,1.4.8,2.7.6,4.1,0,.2.2.6.4,1,.2.4.5.8.7,1.2.9,1.9,2,3.6,3.5,5.1,2.1,2,4.7,3.5,7.5,4.4,1.8.6,3.6.8,5.5,1.1,2,.3,4,.6,6,.9,2.6.4,5.1.8,7.7,1,2.7.2,5.5,0,8.1.3,4.8.6,9.7.2,14.5.2,4.8,0,9.6-.2,14.4-.5,2.7-.2,5.2.3,7.9.2,1.3,0,3,1.4,2.4,2,0,0-.3.2-.5.2-2.6.5-5,1.3-8,1.3-4.4,0-8.9.3-13.3.4Z"/>
  <path d="M282.8,289.7c-.9-.1-1.8-.3-2.8-.4-.3,0-.7-.3-1.1.2-.2.2-.5-.4-.8-.5-.9,0-1.7-.3-2.6-.3-.8,0-1.7,0-2.6,0-.8,0-1.7-.4-2.5-.2-.7.2-1.3-.4-2-.3-.7,0-1.5,0-2.1-.3-.5-.2-1-.5-1.5-.4-.3,0-.6.3-1,.3-.3,0-.6-.4-1,.2,0,0-.2,0-.2-.2-.3-.4-.7-.5-1-.2-.3.2-.5.2-.8.2-.7,0-1.4,0-2.1-.2-.5,0-1-.4-1.6-.5-.5-.1-1.2.1-1.7-.2-.5-.3-1-.4-1.5-.4-.3,0-.6-.3-.9.3,0,0-.1,0-.2,0-.7-.9-1.6.1-2.5-.1-.8-.3-1.7-.2-2.6-.2-.2,0-.5-.2-.7.2,0,.2-.3.2-.4,0-.6-.7-1.3-.3-1.9-.5-.7-.2-1.5,0-2.2-.5-.3-.2-.7-.4-1.2.2-.2.3-.5,0-.8,0-.2,0-.5.3-.7.3-.2,0-.4-.3-.6-.4,0,0-.1,0-.2,0-1.1.6-2.2-.3-3.3-.2-1.1.1-2.2,0-3.3-.2-.6,0-1.2-.3-1.6-1.5-.2-.5-.1-1.1.1-1.4.2-.2.4-.4.7-.5.4,0,.7-.2,1.1-.3.7-.2,1.5-.7,2.2-.3.2.1.5-.2.7.3,0,0,.1.1.2,0,1-.7,2-.2,3-.2.9,0,1.7-.6,2.6-.3.5-.6,1.1-.5,1.5-.2,1.6.8,3.4.4,5.1.7,1.7.2,3.4.3,5.1.5.3,0,.6-.3.9,0,.3.3.7.1,1.1.2.3,0,.7,0,1,.1,1.3.8,2.7.5,4,.7,1.3.2,2.7.4,4,.4.8,0,1.7-.3,2.5,0,.3,0,.7-.2,1,.4,0,.2.5-.2.7-.2.6,0,1.1.1,1.7.2.8,0,1.5.2,2.3.3.5,0,1-.2,1.5-.2.5,0,1,0,1.5.2.6.2,1.2.4,1.8.6.6.1,1.4,0,1.9.3,1.1.7,2.3.6,3.4.8,1.1.2,2.3.4,3.4.5.7,0,1.2.6,1.8.7.3,0,.5,1.6.3,2,0,0-.1.2-.2.2-.7.4-1.4,1-2.1.8-1-.2-2.1-.3-3.1-.5Z"/>
  <path d="M313.2,315.5c-.5-.4-1.1-.9-1.6-1.3-.2-.2-.2-.5-.8-.3-.3.1,0-.5-.2-.7-.5-.4-1-.9-1.5-1.3-.5-.4-1.1-.6-1.6-1-.5-.4-.8-1-1.4-1.2-.6-.2-.6-.8-1-1.1-.5-.3-.9-.6-1.1-1.1-.1-.4-.3-.8-.6-1-.2-.1-.6,0-.8-.3-.2-.2-.1-.6-.8-.3,0,0,0-.1,0-.2.1-.5,0-.7-.4-.6-.3,0-.4-.1-.6-.2-.4-.3-.7-.7-1-1.1-.2-.3-.3-.7-.5-1.1-.2-.3-.7-.4-.8-.9,0-.5-.3-.7-.6-1-.1-.1-.1-.5-.7-.2,0,0-.1,0,0,0,.1-1-1-.6-1.3-1.2-.3-.6-.9-.9-1.4-1.3-.1-.1-.1-.4-.6-.1-.1,0-.3,0-.3-.2,0-.8-.6-.8-.9-1.2-.3-.4-.9-.6-1.1-1.3,0-.3-.2-.6-.8-.3-.3.1-.3-.3-.5-.3-.2,0-.5,0-.6,0-.1,0,0-.4-.1-.5,0,0,0,0-.1,0-1,0-1.1-1.2-1.8-1.6-.7-.4-1.3-.9-1.9-1.5-.3-.3-.6-.8,0-1.8.2-.5.6-.9.9-1.1.3,0,.5-.2.7-.1.3,0,.5.2.8.2.5.2,1.3,0,1.5.7,0,.2.4,0,.2.5,0,0,0,.1,0,.1,1.1-.2,1.3.7,1.9,1.1.5.4,1.4.3,1.7.9.7-.3.9,0,1.1.5.5,1.3,1.8,1.8,2.7,2.7.9.9,1.9,1.7,2.8,2.6.2.2.5,0,.5.4,0,.4.4.4.6.6.2.2.5.3.5.6.2,1.2,1.2,1.6,1.9,2.4.6.8,1.3,1.6,2,2.1.5.3,1.1.5,1.4,1,.1.2.6.2.3.8,0,.2.4,0,.5.1.3.2.6.5.9.8.4.4.8.8,1.2,1.1.3.2.7.3,1,.4.3.2.6.4.8.7.3.4.5.8.8,1.2.3.4.9.5,1,1,.3.9,1.1,1.3,1.7,1.8.6.6,1.2,1.1,1.9,1.5.4.2.4.9.8,1.1.1,0-.3,1.5-.7,1.9,0,0-.1.1-.2.2-.7.2-1.5.5-1.9.1-.6-.5-1.3-1-1.9-1.5Z"/>
  <path d="M282.8,336.7c-.3-.3-.6-.6-1-.9-.1-.1,0-.4-.6-.2-.3.1.1-.4,0-.5-.3-.2-.5-.6-.8-.9-.3-.3-.7-.4-1-.7-.3-.3-.3-.8-.7-.9-.4-.1-.1-.6-.4-.8-.3-.2-.5-.4-.5-.8,0-.3.1-.6-.1-.7-.1,0-.5,0-.5-.2,0-.1,0-.4-.5-.2,0,0,0,0,0-.2.3-.3.2-.5-.1-.4-.3,0-.3,0-.4-.2-.2-.3-.4-.5-.5-.8,0-.2,0-.5,0-.8,0-.2-.4-.3-.3-.7.2-.3,0-.5,0-.7,0-.1.1-.4-.5-.1,0,0,0,0,0,0,.5-.7-.6-.5-.6-.9,0-.4-.3-.7-.5-1,0,0,0-.3-.4,0-.2,0-.2,0-.1-.1.4-.6,0-.6-.1-.9,0-.3-.5-.4-.2-.9.1-.2,0-.4-.5-.2-.3,0-.1-.2-.2-.2,0,0-.4,0-.4,0,0,0,.1-.3.1-.4,0,0,0,0,0,0-.8,0-.3-.8-.7-1.1-.4-.2-.6-.6-.8-1-.1-.2-.1-.5.6-1.4.3-.4.7-.8,1-.9.2-.1.5-.2.6-.2.2,0,.4,0,.6.1.4.1,1,0,1,.4,0,.1.3,0,0,.4,0,0,0,.1,0,.1.9-.1.8.5,1.1.9.3.3,1,.2,1,.7.7-.2.7,0,.6.4-.1,1,.6,1.4.9,2.1.3.7.8,1.3,1.1,2,0,.1.4,0,.3.3-.2.2.1.3.2.4,0,.1.3.2.2.4-.3.8.3,1.1.6,1.6.2.5.4,1,.9,1.4.3.2.7.3.8.7,0,.2.4,0,0,.5-.1.1.3,0,.4,0,.2.2.3.4.4.6.2.3.3.5.5.8.1.1.4.1.6.2.2.1.3.3.4.5,0,.2,0,.6.2.8.1.2.5.2.4.6,0,.7.4.8.7,1.2.3.3.6.7,1,.8.2,0,.1.6.3.8,0,0-.6,1.4-1,1.8,0,0-.1.1-.2.2-.5.2-1.1.6-1.4.4-.4-.4-.8-.6-1.1-1Z"/>
  <path d="M280.1,346c0-.2.1-.3,0-.5,0,0,.3,0-.3-.2-.3,0,.4,0,.4,0,0-.2,0-.3,0-.5,0-.2-.2-.4-.2-.5,0-.2.3-.3,0-.5-.2-.2.3-.2.2-.3,0-.2-.1-.3.1-.4.2,0,.4-.1.3-.2,0,0-.4-.2-.3-.2,0,0,.3,0-.3-.2,0,0,0,0,.2,0,.4,0,.4,0,.1-.2-.3-.1-.2-.1-.2-.2,0-.1,0-.3,0-.4s.3-.1.4-.2c0,0-.2-.3.1-.3.3,0,.3-.1.3-.2,0,0,.3,0-.3-.2,0,0,0,0,0,0,.8,0-.2-.3,0-.5.2-.1.1-.3.1-.5,0,0,.2,0-.2-.2-.2,0-.2,0,0,0,.6,0,.3-.2.4-.3.1-.1-.1-.3.4-.3.2,0,.3,0-.2-.3-.3,0,0,0,0-.2,0,0-.3-.1-.3-.2,0,0,.2,0,.4,0,0,0,0,0,0,0-.6-.3.3-.3.2-.6-.1-.2,0-.4.1-.6,0-.1.3-.2,1.4,0,.5,0,1,.2,1.4.3.2,0,.4.2.5.2,0,0,.2.2.3.3.2.2.7.4.4.5,0,0,.2.1-.3,0,0,0-.1,0,0,0,.7.3.2.4.2.6,0,.2.6.4.3.5.6.2.5.3.3.3-.7.2-.3.6-.5.8-.2.3-.1.6-.2.9,0,0,.3.2,0,.2-.3,0,0,.1,0,.2,0,0,.1.2,0,.2-.7.1-.4.4-.5.6-.1.2-.2.4-.1.7,0,.2.4.4.2.5,0,0,.3.2-.3.1-.2,0,.3.1.3.2,0,.1,0,.2,0,.3,0,.1,0,.3,0,.4,0,0,.2.2.3.3,0,0,0,.2,0,.3,0,0-.3.2-.4.3,0,.1.2.3-.1.3-.5.1-.3.4-.4.6,0,.2-.2.4-.1.6,0,.1-.5.1-.5.3,0,0-1.5-.1-2-.2,0,0-.2,0-.2,0-.4-.2-1.1-.4-1.1-.5.1-.2,0-.4.1-.6Z"/>
  <path d="M290.8,347.3c-.2,0-.3,0-.5,0,0,0-.2-.2-.1.3,0,.3-.1-.4-.2-.3-.1,0-.3,0-.4,0-.1,0-.3.3-.4.4-.1,0-.3-.2-.4.1,0,.3-.3-.2-.4,0-.1.1-.2.2-.4,0-.1-.2-.2-.4-.3-.3,0,0,0,.4-.1.4,0,0-.1-.3-.1.3,0,0,0,0,0-.1,0-.4-.2-.4-.2,0,0,.3,0,.2-.1.3-.1,0-.2,0-.4,0,0,0-.2-.3-.3-.3,0,0-.2.2-.3,0-.1-.3-.2-.3-.3-.3,0,0-.1-.3-.1.4,0,0,0,0,0,0-.2-.8-.3.3-.4,0-.2-.2-.3,0-.5,0,0,0,0-.2-.1.3,0,.2,0,.2,0,0-.1-.6-.2-.2-.3-.3-.1-.1-.3.2-.4-.3,0-.2-.1-.3-.2.3,0,.3,0,0-.1,0,0,0,0,.3-.1.3,0,0,0-.2,0-.3,0,0,0,0,0,0-.2.7-.4-.2-.6,0-.2.2-.4,0-.6,0-.1,0-.2-.2-.2-1.4,0-.5,0-1.1,0-1.4,0-.2,0-.5.1-.5,0-.1.1-.2.2-.3.1-.2.3-.7.4-.4,0,0,0-.2,0,.3,0,0,0,.1,0,0,.2-.8.3-.3.5-.3.1,0,.3-.7.4-.4,0-.6.2-.5.2-.3.3.7.5.2.8.3.3,0,.5,0,.8,0,0,0,0-.4.1,0,0,.3.1,0,.2,0,0,0,.1-.1.2,0,.2.6.4.2.7.3.2,0,.4.1.6,0,.1-.1.2-.5.4-.3,0,0,0-.3.2.3,0,.2,0-.3,0-.3,0,0,.2,0,.3,0,.1,0,.2,0,.4,0,0,0,.1-.3.2-.4,0,0,.1,0,.2,0,.1,0,.2.3.3.3.1,0,.2-.2.3,0,.3.5.4.2.6.2.2,0,.4,0,.5-.1,0,0,.3.4.4.4,0,0,.4,1.4.4,1.9,0,0,0,.2,0,.2,0,.5,0,1.2-.1,1.2-.2,0-.4,0-.5,0Z"/>
  <path d="M296.3,327.6c0,.4-.1.7-.1,1.1,0,.1-.3.2.2.4.3.1-.4.1-.4.3,0,.3-.1.6-.1,1,0,.3.2.7.2,1,0,.3-.3.6,0,1,.2.3-.3.5-.2.7,0,.3.1.6-.2.8-.2.2-.5.3-.4.5,0,.1.3.3.3.4,0,.1-.3.2.3.4,0,0,0,0-.2,0-.4,0-.4.2-.2.4.2.2.2.2.2.3,0,.3,0,.5-.2.8,0,.2-.4.3-.5.5-.1.2.1.5-.2.6-.3.1-.4.3-.4.5,0,.1-.3.2.3.4,0,0,0,0,0,0-.9.1.1.7-.2.9-.3.3-.2.6-.3,1,0,0-.2.1.2.3.2,0,.1.2,0,.2-.7,0-.4.4-.5.6-.2.2,0,.6-.5.8-.2,0-.4.2.2.5.2.1,0,.2,0,.3,0,0,.3.2.3.3,0,0-.3,0-.4.1,0,0,0,0,0,0,.5.6-.4.7-.4,1.2,0,.5-.1.8-.3,1.2-.1.2-.4.4-1.5.2-.5,0-1-.2-1.3-.4-.2-.1-.4-.3-.4-.4,0-.2-.2-.3-.2-.5-.1-.3-.6-.7-.2-.9.1,0-.2-.2.4-.2,0,0,.1,0,0,0-.7-.6,0-.8,0-1.2,0-.3-.5-.8-.2-1-.6-.3-.4-.5-.2-.6.8-.4.5-1.1.7-1.7.2-.6.3-1.2.5-1.8,0-.1-.3-.3,0-.3.3,0,.1-.3.1-.4,0-.1,0-.3.1-.4.7-.3.5-.9.6-1.4.2-.5.3-.9.3-1.4,0-.3-.3-.7-.1-.9,0-.1-.2-.3.4-.3.2,0-.3-.2-.3-.3,0-.2,0-.4,0-.6,0-.3.1-.6.1-.8,0-.2-.2-.4-.3-.6,0-.2,0-.4,0-.5.1-.2.4-.4.4-.6,0-.2-.1-.5.2-.7.6-.4.4-.8.5-1.2.1-.4.2-.8.1-1.3,0-.2.5-.4.5-.6,0-.1,1.5,0,2,0,0,0,.2,0,.2,0,.4.3,1.1.6,1.1.8-.1.4-.1.8-.2,1.2Z"/>
  <path d="M299.3,347.2c-.2,0-.3,0-.5,0,0,0-.1-.2-.2.3,0,.3,0-.4-.2-.3-.2,0-.3,0-.5,0-.2,0-.3.3-.5.3-.2,0-.3-.2-.5,0-.1.3-.2-.2-.4-.1-.1.1-.3.2-.4,0,0-.2-.2-.4-.3-.3,0,0-.1.4-.2.4,0,0-.1-.3-.2.3,0,0,0,0,0-.1,0-.4-.1-.4-.2-.1,0,.3-.1.2-.1.2-.1,0-.3,0-.4,0,0,0-.2-.3-.3-.3-.1,0-.2.2-.3,0,0-.3-.2-.3-.3-.3,0,0-.1-.3-.2.3,0,0,0,0,0,0-.1-.8-.3.3-.5,0-.2-.2-.3,0-.5,0,0,0,0-.2-.1.3,0,.2,0,.2,0,0-.1-.6-.2-.2-.4-.4-.1-.1-.3.2-.4-.3,0-.2-.1-.3-.2.3,0,.3-.1,0-.2,0,0,0,0,.3-.1.3,0,0,0-.2-.1-.3,0,0,0,0,0,0-.2.7-.4-.2-.6,0-.2.2-.4.1-.6,0-.1,0-.2-.2-.3-1.4,0-.5,0-1.1,0-1.4,0-.2,0-.5.1-.5,0,0,.1-.2.2-.3.1-.2.3-.7.4-.4,0,0,0-.2.1.3,0,0,0,.1,0,0,.2-.8.4-.3.6-.3.2,0,.3-.7.5-.4,0-.6.2-.5.3-.3.3.7.6.2.9.3.3,0,.6,0,.9,0,0,0,.1-.4.2,0,0,.3.1,0,.2,0,0,0,.1-.1.2,0,.2.7.5.3.7.3.2,0,.5.1.7,0,.2,0,.3-.4.5-.3,0,0,.1-.3.2.3,0,.2,0-.3.1-.3.1,0,.2,0,.3,0,.1,0,.3,0,.4,0,0,0,.2-.3.3-.3,0,0,.2,0,.3,0,.1,0,.2.3.3.4.1,0,.2-.2.4,0,.2.5.4.3.6.3.2,0,.4.1.6,0,.1,0,.2.4.3.4,0,0,.1,1.5,0,2,0,0,0,.2,0,.2-.1.5-.2,1.2-.4,1.1-.2,0-.4,0-.6,0Z"/>
  <path d="M305,329.5c0,.3,0,.6,0,1,0,.1-.3.2.3.4.3,0-.4.2-.4.3,0,.3,0,.6,0,.9,0,.3.2.6.3.9,0,.3-.3.6,0,.9.3.3-.3.4-.2.7,0,.3.1.5-.1.7-.2.1-.4.3-.4.5,0,.1.4.3.3.4,0,.1-.3.2.3.4,0,0,0,0-.2,0-.4,0-.4.2-.2.3.3.1.2.2.2.3,0,.2,0,.5-.1.7,0,.2-.4.3-.4.5-.1.2.1.4-.2.5-.3.1-.4.3-.4.4,0,0-.3.1.3.4,0,0,0,0,0,0-.9,0,.1.6-.1.8-.3.2-.2.6-.3.9,0,0-.2.1.2.3.1,0,.1.2,0,.2-.7,0-.4.4-.5.6-.2.2,0,.5-.5.7-.2,0-.4.2.1.5.2.1,0,.2,0,.3,0,0,.3.2.2.3,0,0-.3,0-.4,0,0,0,0,0,0,0,.5.6-.5.6-.4,1.1,0,.4-.2.8-.4,1.1-.1.2-.4.3-1.5,0-.5-.1-1-.3-1.3-.5-.2-.1-.4-.3-.4-.4,0-.1-.1-.3-.2-.4-.1-.3-.5-.7-.2-.8.1,0-.1-.2.4-.1,0,0,.1,0,0,0-.6-.6,0-.7,0-1,0-.3-.5-.7-.1-.9-.6-.3-.4-.5-.2-.5.8-.3.5-1,.7-1.4.2-.5.3-1,.4-1.6,0,0-.3-.2,0-.3.3,0,.1-.2.1-.3,0-.1,0-.2,0-.3.7-.3.4-.8.6-1.2.1-.4.3-.8.2-1.3,0-.3-.4-.6-.2-.8,0-.1-.2-.3.4-.3.2,0-.3-.2-.3-.2,0-.2,0-.4,0-.5,0-.2,0-.5,0-.7,0-.2-.2-.3-.3-.5,0-.2,0-.3,0-.5,0-.2.3-.4.4-.6,0-.2-.2-.4.1-.6.5-.3.3-.7.4-1.1,0-.4.1-.7,0-1.1,0-.2.4-.4.4-.6,0,0,1.5-.2,2-.2,0,0,.2,0,.2,0,.5.2,1.2.4,1.1.7,0,.4,0,.7,0,1.1Z"/>
  <path d="M310.4,345.6c-.1,0-.3,0-.4,0,0,0,0-.3-.2.3,0,.3,0-.4,0-.4-.1,0-.3,0-.4,0-.1,0-.3.3-.4.3-.1,0-.2-.3-.4,0-.1.3-.2-.2-.3-.1-.1.1-.2.2-.3,0,0-.2-.1-.4-.2-.3,0,0-.1.4-.1.4,0,0,0-.3-.1.3,0,0,0,0,0-.1,0-.4-.1-.4-.2-.1,0,.3,0,.2-.1.3-.1,0-.2,0-.3,0,0,0-.2-.3-.2-.3,0,0-.2.2-.2,0,0-.3-.2-.3-.2-.3,0,0-.1-.3-.1.4,0,0,0,0,0,0-.2-.8-.2.3-.4,0-.1-.2-.3,0-.4,0,0,0,0-.2,0,.3,0,.2,0,.2,0,0-.2-.6-.2-.2-.3-.3-.1-.1-.2.2-.4-.3,0-.2-.2-.3-.1.3,0,.3,0,0-.1,0,0,0,0,.3,0,.3,0,0,0-.2-.1-.3,0,0,0,0,0,0,0,.7-.3-.2-.5,0-.1.2-.3.2-.5.1,0,0-.2-.2-.5-1.3-.1-.5-.2-1-.3-1.4s0-.5,0-.5c0-.1,0-.2.1-.4,0-.2.1-.8.3-.5,0,0,0-.2.2.3,0,0,0,.1,0,0,0-.8.3-.3.5-.4.1,0,.2-.7.4-.5,0-.6.1-.5.2-.4.4.6.6.1.9.2.3,0,.6,0,.9,0,0,0,0-.4.2,0,0,.3.1,0,.2,0,0,0,.1-.1.2,0,.3.7.5.3.7.3.2,0,.5.1.7,0,.1,0,.3-.4.4-.3,0,0,.1-.3.2.3,0,.2,0-.3.1-.3.1,0,.2,0,.3,0,.1,0,.3,0,.4,0,0,0,.2-.3.3-.3,0,0,.2,0,.3,0,.1,0,.2.3.3.4.1,0,.3-.2.3.1.1.5.4.3.6.4.2,0,.4.2.6,0,.1,0,.1.5.2.5,0,0-.2,1.5-.3,2,0,0,0,.2,0,.2-.2.4-.4,1.1-.5,1.1-.1-.1-.3,0-.5,0Z"/>
  <path d="M305.4,313.5c.4.5.7,1,1.1,1.4.2.2,0,.5.7.4.3,0,0,.5,0,.6.4.4.7.9,1.1,1.3.4.4.9.7,1.3,1.1.4.4.5,1,1.1,1.2.5.2.4.8.7,1.1.4.3.7.6.8,1.1,0,.4,0,.8.4,1,.2.1.6,0,.7.3.1.2,0,.5.6.3,0,0,0,.1,0,.2-.2.4,0,.6.3.6.3,0,.4.1.5.3.3.4.7.8,1,1.4.2.5.2,1,.4,1.6.1.6.5,1.3.2,1.8-.3.5-.4.9-.5,1.3,0,.2-.4.4.2.7,0,0,0,0,0,.1-.9.3,0,1.1-.3,1.6-.3.5-.3,1.1-.4,1.6,0,.1-.2.3.2.5.1,0,.1.2,0,.3-.7.3-.4.8-.6,1.2-.2.4,0,1-.6,1.4-.2.2-.4.4,0,.8.2.2,0,.3,0,.5,0,.2.2.4.2.5,0,.1-.3.2-.4.3,0,0,0,0,0,.1.5.9-.5,1.3-.5,2.1,0,.7-.2,1.4-.5,2.1-.1.4-.4.7-1.6.7-.5,0-1.1-.1-1.3-.4-.2-.2-.4-.4-.4-.5,0-.2-.1-.5-.2-.7,0-.5-.5-1.1-.1-1.5.1-.1-.1-.4.4-.4,0,0,.1,0,0,0-.6-.8,0-1.3.1-2,0-.6-.4-1.2,0-1.7-.5-.4-.4-.8,0-1,.9-.9.7-2.1,1.1-3.1.3-1.1.5-2.2.8-3.2,0-.2-.3-.4,0-.6.3-.1.1-.4.2-.5,0-.1-.1-.3,0-.3.3-.1.4-.4.3-.6-.1-.2-.3-.5-.5-.8-.4-.6-.9-1.4-1.6-2-.4-.4-1-.6-1.2-1.1,0-.2-.5-.2-.2-.7,0-.2-.4,0-.5-.1-.3-.3-.5-.6-.7-.9-.3-.4-.6-.8-.9-1.2-.2-.2-.6-.3-.8-.5-.2-.2-.4-.5-.6-.8-.2-.4-.3-.8-.5-1.2-.2-.4-.7-.6-.7-1,0-.9-.7-1.4-1.1-2-.4-.6-.8-1.3-1.4-1.8-.3-.3-.2-.9-.4-1.2-.1-.2.9-1.3,1.3-1.5,0,0,.2,0,.2,0,.6,0,1.4-.1,1.7.3.4.6.8,1.1,1.2,1.7Z"/>
  <path d="M309.4,322.9c0-.1.2-.3.2-.4,0,0,.3,0-.2-.3-.2-.2.4.1.4,0,0-.2.2-.3.2-.4,0-.2,0-.4,0-.6,0-.2.4-.1.2-.4-.2-.3.3,0,.3-.2,0-.2,0-.3.2-.3.2,0,.4,0,.4,0,0,0-.3-.3-.2-.3,0,0,.3,0-.2-.3,0,0,0,0,.1,0,.4.2.4,0,.2-.1-.2-.2-.1-.2-.1-.3,0-.1,0-.2.2-.3,0,0,.3,0,.4,0,.1,0,0-.3.2-.2.3,0,.3,0,.4,0,0,0,.3,0-.2-.3,0,0,0,0,0,0,.8.3,0-.4.2-.4.3,0,.2-.2.3-.4,0,0,.2,0-.2-.3-.1-.1-.1-.2,0-.1.6.3.3,0,.5,0,.2,0,0-.3.5-.2.2,0,.3,0,0-.3-.2-.2,0,0,0-.2,0,0-.2-.3-.2-.3,0,0,.2,0,.3.1,0,0,0,0,0,0-.4-.6.4-.2.4-.5,0-.3.2-.4.4-.5.1,0,.3,0,1.3.6.4.3.9.6,1.1.8.2.2.3.3.4.4,0,.1.1.2.2.3,0,.2.4.6.1.6,0,0,.1.2-.3,0,0,0-.1,0,0,0,.5.6,0,.4,0,.6,0,.2.4.6,0,.6.5.4.3.4.1.4-.7-.2-.5.4-.8.5-.2.2-.3.5-.5.7,0,0,.2.3,0,.2-.2-.1-.1,0-.2.1,0,0,0,.2-.1.1-.7-.2-.5.2-.7.4-.2.2-.4.3-.4.6,0,.2.2.5,0,.5,0,0,.2.3-.4,0-.1,0,.2.2.2.3,0,.1,0,.2-.1.3,0,.1-.2.2-.2.3,0,0,.1.3.2.4,0,.1,0,.2-.1.2-.1,0-.4,0-.5,0-.1,0,0,.3-.2.3-.5-.1-.4.2-.6.3-.2.1-.3.3-.3.5,0,.1-.5,0-.5,0,0,0-1.3-.7-1.7-.9,0,0-.2-.1-.2-.1-.3-.3-.9-.8-.8-.9.2-.1.2-.3.3-.5Z"/>
  <path d="M288.2,364.5c-4-6.3-9-12-14.9-16.7-1.1-.9-2.1-1.8-3.3-2.7-1.2-.8-2.4-1.6-3.9-1.9-.8-.2-1.5-.9-2.4-1.7-.9-.8-1.9-1.8-3-2.3-3.1-1.6-6.3-3-9.6-4.2-3.3-1.2-6.7-2.1-10.1-2.8-6.7-1.2-13.5-1.2-20.2-.5-6.6.6-13.6,1.6-19.4,4.3-5,2.4-9.9,3.8-14.3,6.9-4.6,3.3-9,7.1-13.2,10.7-3,2.7-6,5.5-8.1,9-.7,1.1-1.1,2.2-1.7,3.3-.5,1.1-1,2.3-1.7,3.5-.6,1.1-1.4,2.2-1.9,3.4-.5,1.2-.9,2.4-.7,3.7,0,.2-.6,1.2-1,1.6-.9,1.1-1.5,2.5-2,3.9-.5,1.4-.7,2.8-.7,4,0,1.1-.1,2.2-.3,3.2-.2,1-.3,2-.5,3-.9,5.6-1.1,11.2-.8,16.8.2,4.2.3,8.4,1.3,12.6.9,4.4,3.1,8.6,4.2,12.6,1.2,4,3.1,7.5,5.4,10.9.7,1,1.3,2,2,3,.7.9,1.6,1.7,2.7,2.1.2,0,.7.7.9,1.1,1.5,3.1,3.9,5.3,6.5,7.3,2.6,2,5.5,3.6,8.1,5.7,2.7,2.1,5.7,3.9,8.8,5.4,3.1,1.5,6.4,2.8,9.7,3.8.9.3,1.8.6,2.7.9.9.2,1.8.4,2.8,0,.7-.2,2.5.2,3.4.6,4.8,2.2,10.3,1.9,15.5,1.9,3,0,6-.3,9-.7,3-.5,5.9-1,9-1.4,2.6-.2,6.1-1.3,8.4-3.5.5-.5,1.5-1,2.6-1.4,1.1-.4,2.3-1,3.2-1.5.8-.5,1.5-1.1,2.1-1.6.3-.3.7-.6,1-.8.3-.3.7-.6,1.1-.8.6-.4,1.3-.7,2-1,.7-.3,1.4-.6,2.1-1,.4-.2.9-.5,1.2-.9,3.1-3.2,6.3-6,9.5-9,3.1-3,6.1-6.3,8.3-10.1,4.4-7.7,7.9-16,9.8-24.7,1.1-4.8,1.9-9.7,4.1-13.2,1.1-1.5,2.2-1.6,2.8.7.2.8.4,1.7.6,2.7.1.9.2,1.9.2,2.8,0,1.5-.1,3.1-.2,4.6-.1,1.5-.3,3-.5,4.5-.9,6.1-1.9,12.5-5.2,18.2-1,1.7-1.6,4.2-3.3,5.1-.2.1-.7.8-.8,1.2-1.5,4.1-4,7.9-6.9,11.2-2.9,3.4-6.2,6.4-9.5,9.3-.7.6-1.4,1.3-2.1,1.9-.7.6-1.4,1.2-2.1,1.8-1.4,1.2-2.9,2.4-4.4,3.5-1.5,1.1-3.1,2.2-4.7,3.1-.8.5-1.7.9-2.5,1.3l-1.3.6-1.3.5c-3.3,2.9-8.2,4.5-12.4,5.2-3.7.7-7.5,1.2-11.2,1.6-3.7.4-7.5.6-11.3.6-3.8,0-7.5-.3-11.3-.8-3.7-.6-7.4-1.3-11-2.4-14.6-4.5-28-12.8-38.1-24.4-1.7-1.9-3.7-3.3-5-6.1-.6-1.3-1.6-2.7-2.5-4.1-1-1.4-1.9-2.9-2.8-4.3-.8-1.3-1.5-2.7-2.2-4.1-.7-1.4-1.3-2.8-1.7-4.2-1.7-5.8-3.2-11.5-4.2-17.3-1-5.8-1.6-11.8-1.2-17.8.7-11.8,4-23.4,9.2-34,1.6-3.2,3.3-6.4,5.3-9.5,1.9-3.1,4.2-5.9,6.8-8.5,1.1-1.1,2.1-2.4,3.3-3.4,1.1-1.1,2.4-2.1,4-2.6.4-.2,1-.9,1.8-1.7.7-.8,1.5-1.8,2.4-2.4,4-3,8.3-5.6,12.8-7.8,6.3-3,12.9-5.2,19.7-6.6,4.1-.9,8.3-1.8,12.5-2.1,4.5-.3,9,0,13.4.6,5.6.8,11,2.5,16.3,4.4,5.4,2,11.2,4.1,15.7,7.5,4.2,3.1,8.2,6.3,12,9.7,3.8,3.4,7.3,7.2,10.4,11.3,6.1,8.2,10.6,17.5,13.5,27.2,1.7,5.6,1.5,10.9,1.9,16.5.1,1.3-.6,2.9-1.4,3.9-.8,1.1-1.8,1.6-2.3,1.1-.2-.2-.4-.6-.5-1-1-5.2-3-9.6-4.1-15.2-.9-4.1-2.1-8.2-3.8-12.1-1.7-3.9-3.7-7.7-6-11.2Z"/>
  <path d="M313.8,460.5c.9.5,1.8,1.1,2.7,1.5l2.8,1.4,2.8,1.2c.9.4,1.9.7,2.9,1.1,1.4.5,2.8,1.4,4.6.9.9-.3,2,1.3,3.4,1.6,3.8.7,7.6,1.5,11.5,1.6,3.8,0,7.5-.4,11.2-.9,3.6-.5,7.5-.6,10.8-2.1,1.4-.7,2.8-1,4.2-1.3,1.4-.3,2.8-.6,4.1-1.3,2.8-1.4,5.6-2.9,8.5-4.1,1.1-.4,2.1-.8,3.1-1.3,1-.5,2-1.1,2.8-1.8,1.1-.9,1.7-2.2,2.9-3.1,1.1-.8,2.7-1.5,2.7-3.2,0-.1.6-.4,1-.5,1.7-.4,2.9-1.8,3.4-3.1.4-1.3,1.2-2,1.9-2.9,1.9-2.5,3.8-5,5.5-7.5,1.3-1.9,2.8-3.7,4-5.8.6-1.1,1-2.3,1.5-3.4.4-1.2.9-2.3,1.6-3.2.6-1,1.1-2,1.6-3,.4-1.1.7-2.1,1-3.2.3-1.2,1.2-2.6.2-3.9,0-.1,0-.6.1-.8.6-.8.9-1.7,1.1-2.6.1-.9.2-1.8.1-2.7,0-.9-.2-1.8-.2-2.7,0-.9,0-1.8,0-2.7.3-1.9.2-3.8.1-5.7,0-1.9-.4-3.8-.7-5.7,0-.5,0-1-.1-1.6-.1-.5-.4-1-.9-1.4-.4-.3-.6-1.3-.5-1.8.2-.7.2-1.5.2-2.2,0-.7-.3-1.4-.5-2.1s-.4-1.4-.7-2.1l-.3-1c-.1-.3-.2-.7-.3-1-.2-.8-.5-1.6-.8-2.3-.3-.8-.6-1.6-.9-2.3-.7-1.5-1.3-3.1-1.6-4.8-.3-1.4-1.1-3.3-3-4.1-.9-.4-1.3-2-2.1-2.9-.3-.4-.7-.7-1.1-1-.4-.3-.8-.6-1.1-1-.5-.6-.7-1.6-1-2.4-.1-.2-.3-.5-.5-.6-1-.7-2-1.5-2.8-2.3-.4-.4-.8-.9-1.2-1.4l-1.2-1.3c-.8-.9-1.6-1.8-2.4-2.7-.9-.8-1.8-1.6-2.8-2.3-.5-.3-1-.7-1.5-1l-1.6-1c-1-.6-2-1.4-3.1-2-2.1-1.2-4.2-2.6-6.4-3.7-2.4-1.4-4.8-2.6-5.8-5.5-.5-1.3-.1-2.3,1.3-2.5,1-.1,2.2-.2,3.2.1,1.7.4,3.3.9,4.9,1.5.8.3,1.7.5,2.5.8.8.3,1.6.6,2.5.9.8.3,1.6.7,2.4,1.1.8.4,1.5,1,2.2,1.6.8.8,2.3,1,2.4,2.4,0,.2.4.5.6.6,1.2.4,2.3,1,3.3,1.7.5.3,1,.7,1.5,1.1.5.4.9.8,1.4,1.3.9.9,1.7,1.8,2.6,2.7.8.9,1.6,1.9,2.5,2.8,1.5,1.5,3,2.9,4.5,4.4,1.5,1.4,2.8,3.1,3.8,5,.6.3,1.1.7,1.6,1.2.4.5.8,1,1.2,1.5.7,1.1,1.2,2.3,1.6,3.4.6,2.1,1.3,4,2.1,6,.6,2,1.4,4,2.1,5.9.6,2,1.3,4,1.8,6,.4,2,.9,4.1,1.2,6.2,1.1,8.4,1.2,17-.4,25.3-.1.7,0,1.4,0,2.1,0,.7-.2,1.4-.6,2.2-.8,1.4-1,3.5-1.5,5.3-.6,1.6-.8,3.4-1.7,4.8-.5.7-.9,1.4-1.3,2.2-.4.7-.8,1.4-1.2,2.2-.7,1.5-1.6,2.9-2.3,4.4-1.6,2.9-3.2,5.8-5.2,8.4-3.9,5.3-8.6,9.9-13.4,14.4-3,2.7-5.9,5.6-9.5,7.4-.8.4-1.5,1-2.2,1.4-.8.4-1.6.7-2.7.6-.3,0-.7.3-1.1.8-.5.4-1,.9-1.5,1.2-.6.3-1.2.6-1.9.9l-1.9.8c-1.3.5-2.6.9-3.9,1.4-3.7,1.2-7.4,2.1-11.2,2.8-1.1.3-2.3.5-3.4.8-.6.1-1.1.3-1.7.4-.6.1-1.2.2-1.8.3-1.2.2-2.5.3-3.7.3-1.2,0-2.5,0-3.7,0-1.6-.1-3.1-.3-4.7-.6-1.5-.3-3.1-.5-4.6-.8-.8-.1-1.6-.2-2.4-.3-.8-.1-1.6-.3-2.4-.4-1.6-.2-3.2-.7-4.6-1.3-5.3-2.5-10.7-4-15.7-6.8-5-2.7-9.6-6-14.1-9.4-1.2-1-2.3-2.2-3.2-3.4-.9-1.3-1.8-2.4-2.9-3.6-1-1.1,0-4.4,1.1-4.7.2,0,.5,0,.7.1,2.6,1.5,5.4,2.4,7.7,4.5,3.4,3.2,7.3,5.9,11.3,8.3Z"/>
  <g>
    <circle cx="226.4" cy="404.2" r="11.5" fill="#00b4e9"/>
    <path d="M234.5,399c-.5-.8-1.2-1.6-1.9-2.2-.3-.2-.4-.7-1.1-.4-.3.1-.2-.6-.6-.7-.8-.4-1.7-.7-2.6-.9-.9,0-1.8,0-2.6.2-.8.1-1.8,0-2.4.6-.5.5-1.3.3-1.8.8-.3.2-.5.5-.8.7-.3.3-.6.4-.9.6-.2.1-.5.3-.7.4-.2.2-.4.4-.5.6-.1.3,0,.7-.2,1-.2.3-.6.5-.1,1,0,0-.1.1-.2.2-.5.2-.6.6-.4,1,.2.3,0,.5,0,.8,0,.3,0,.7,0,1,0,.3,0,.7,0,1v.8c-.1.3-.1.5,0,.8,0,.6.5,1,.5,1.6,0,.6.2,1.1.5,1.5.2.2.2.7.8.5,0,0,.1,0,.1.1,0,.6.3.9.7,1,.4.2.9.2,1.1.6.6.6,1.5.9,2.3,1.2.2,0,.4.3.7,0,.1-.1.3,0,.4,0,.5.7,1.3.4,1.9.5.4,0,.8,0,1.1,0,.4,0,.8,0,1.2,0,.4.1.9,0,1-.6,0-.3.5-.2.7-.4.2-.2.2-.5.4-.6.2,0,.4,0,.7,0,0,0,.1,0,.1-.1.1-.3.3-.5.5-.7.2-.2.4-.3.6-.5.5-.3.9-.7,1.2-1.2.4-1,.9-2,1.2-3.1,0-.3.2-.6.4-.9.2-.3.6-.5,1.1-.8.5-.2,1.1-.2,1.4.1.2.3.4.6.5.9,0,.5,0,1,.1,1.5,0,1,.2,2.2-.6,3.1-.2.3-.1.8-.7.7,0,0-.2,0-.2.2,0,1.6-1.5,2.5-2.5,3.5-.9.8-1.6,2.1-2.9,2.3-.2.5-.5.7-.9.9-.4.2-.8.2-1.1.2-1.3,0-2.5,0-3.8.1-1.2,0-2.5,0-3.7-.5-2.4-.8-4.7-2.1-6.4-4.1-.3-.3-.8-.4-.9-1,0-.5-.6-.9-.9-1.4-.2-.4-.6-.9-.6-1.4,0-1.1-.3-2-.4-2.9-.2-1-.3-1.9-.2-2.9.2-1.9.7-3.8,1.5-5.6.5-1.1.9-2.3,1.8-3.1.4-.4.6-1,1.3-.9.2,0,.3-.6.6-.8.3-.3.7-.5,1-.7.4-.2.7-.4,1.1-.6,1-.5,2.2-.8,3.3-1.1.7-.2,1.4-.5,2.1-.6.4,0,.8,0,1.1,0,.4,0,.8,0,1.1.1,1,.2,1.8.6,2.7,1,.9.4,2,.6,2.6,1.3,1.2,1.3,2.6,2.2,3.6,3.6,1,1.4,1.7,2.9,2.2,4.5.3.9,0,1.8,0,2.7,0,.4-1.4,1-1.9.8,0,0-.2,0-.2-.1-.5-.7-1.3-1.2-1.4-2-.2-1.1-.7-2.1-1.3-3Z" fill="#00b4e9"/>
  </g>
  <path d="M332.1,400c.3-2.6.5-5.3.7-7.9,0-1,.4-2,0-3-.2-.5.5-1.4.5-2.3.1-2.5.4-4.9.5-7.4.1-2.4,0-4.8,0-7.2,0-2.4.5-4.8.3-7.1-.2-2,.4-3.8.3-5.7,0-2,0-4.1.2-6.1.2-1.4.5-2.9.4-4.3,0-.9-.4-1.7-.3-2.7,0-.9.3-1.9-.3-2.7,0,0,0-.5.2-.7.4-1,.4-2.2.1-3-.3-.8-.2-1.5-.2-2.2,0-2,0-4.1,0-6.1,0-1.5.3-3,.3-4.5,0-1.6-.3-3.2,0-4.7.2-1.5.1-2.8,0-4.3,0-.8,0-1.8-.6-2.3,0,0,0-.4,0-.5.5-2.4-.9-4.4-1.3-6.6-.4-2.3-1.2-4.6-2.2-6.7-.2-.6-.4-1.2-1-1.5-.2-.1-.5-.7-.6-1-.3-1.8-1.6-3.1-2.6-4.5-1.1-1.7-2.8-2.7-4.1-4.3-.6-.6-1.5-1.5-2.7-1.4-.5,0-1.2-.7-1.9-.9-.6-.2-1.2-.2-1.7-.4-.5-.2-.9-.6-1.3-.8-.1,0-.3-.2-.5-.2-.8,0-1.5-.2-2.2-.3-.7-.1-1.4-.3-2.1-.5l-2.1-.4c-.7,0-1.5-.1-2.2,0-2.9.2-5.9.6-8.7,1.5-.8.2-1.5.5-2.3.6-.8.2-1.5.2-2.3,0-.7-.2-1-.7-.5-1.3.4-.5.8-1,1.4-1.3.9-.5,1.8-1.1,2.8-1.5,1-.4,1.9-.9,3-1.3.5-.2,1-.4,1.6-.4.5,0,1.1-.1,1.7-.1.7,0,1.5-.3,2.1.1,0,0,.4,0,.5,0,2.9-.9,6.1,0,9,.7,2.5.5,5.1.9,7.3,2.4.8,0,1.6.3,2.2.8.7.4,1.3.9,1.9,1.5,1.9,1.9,3.7,3.8,5.3,5.8,1.6,2.1,3,4.2,4,6.6,1,2.4,1.9,4.8,2.5,7.3.6,2.5,1.1,4.9,1.5,7.4.1.8.5,1.5.4,2.6-.2,1,.1,2.1.2,3.2,0,1,.3,2,.2,3-.5,3.9,0,7.7-.1,11.6,0,3.8-.1,7.7,0,11.5,0,2.3.4,4.6.2,7,0,1,.2,2.1-.4,3-.2.3.2,1.2.2,1.9,0,1.6,0,3.2-.2,4.8,0,2.2-.2,4.4-.3,6.7,0,1.4.2,2.7.1,4.1,0,1.4-.1,2.8-.3,4.3-.2,1.8-.5,3.6-.7,5.3-.2,1.9,0,3.8-.5,5.6-.8,3.3-.8,6.6-1.2,9.9-.4,3.3-.8,6.5-1,9.8-.1,1.9-.8,3.5-1,5.3,0,.8-1.7,1.8-2.2,1.4,0,0-.2-.2-.2-.4-.3-1.8-.8-3.5-.5-5.5.4-3,.7-6,1-9Z"/>
  <path d="M306.3,429.7c1.3,0,2.6,0,3.9,0,.5,0,1,.2,1.5-.3.3-.3.7.4,1.2.3,1.2,0,2.4,0,3.6,0,1.2,0,2.3-.3,3.5-.3,1.2,0,2.4.3,3.5,0,1-.3,1.8.2,2.8.1,1-.1,2-.2,2.9,0,.7.2,1.4.4,2.1.3.4,0,.8-.4,1.3-.4.4,0,.9.3,1.3-.4,0,0,.2,0,.3.1.5.4,1.1.4,1.4,0,.4-.3.7-.3,1.1-.3,1,0,2-.1,2.9-.1.7,0,1.5.2,2.2.2.8,0,1.6-.3,2.2,0,.7.2,1.3.1,1.9,0,.3,0,.8.1.9-.6,0,0,.1,0,.2,0,.5.3,1,0,1.2-.3.2-.3.4-.7.7-.9.7-.4.9-1.2.8-1.7,0-.1.1-.3-.3-.3-.2,0-.2,0-.1-.2.2-.3.1-.5,0-.8-.2-.2-.5-.4-.7-.7-.6-.6-1.6-.9-2.2-1.8-.3-.4-.7-.8-1.4-.5-.3.1-.6-.3-1-.4-.3,0-.6,0-.9,0-.2,0-.4-.4-.6-.6,0,0-.1,0-.2,0-.8,0-1.4-.2-2-.5-.7-.3-1.4-.7-2.2-.9-1.6-.3-3.4-1.1-4.8-2.3-.8-.6-1.4-1.5-1-2.7.2-.6.6-.9,1.1-.9.4,0,.7,0,1,.2.4.2.8.4,1.2.6.8.3,1.8.2,2.5.8.2.2.6,0,.7.6,0,0,.1.2.2.1,1.5-.4,2.7.5,4.1.9,1.2.4,2.6.3,3.6,1.1.9-.3,1.6.2,2.1.8.9.9,1.9,1.6,3.1,2.6.5.5,1.1,1.1,1.6,1.8.5.7.8,1.6.9,2.6.1,1.9-.6,3.6-1.6,4.9-1,1.3-2.4,2.2-3.8,2.7-.5.2-.8.6-1.4.5-.6-.1-1.2.2-1.8.3-.5,0-1,.3-1.5.1-2-.5-3.8,0-5.7,0-1.9,0-3.7,0-5.6.2-1.1.1-2.3.5-3.4.3-.5,0-1,.3-1.5-.3-.1-.2-.6.3-.9.3-.8,0-1.6,0-2.3,0-1.1,0-2.2,0-3.2,0-.7,0-1.3.3-2,.3-.7,0-1.4,0-2.1,0-.9,0-1.7-.3-2.6-.4-.9,0-1.8.2-2.7,0-1.6-.5-3.2-.2-4.8-.3-1.6,0-3.2,0-4.7.1-.9,0-1.7-.4-2.6-.3-.4,0-1-1.4-.9-1.9,0,0,0-.2.2-.2.8-.5,1.6-1.3,2.6-1.2,1.5,0,3,0,4.4,0Z"/>
  <path d="M366.2,400c.3-2.6.5-5.3.7-7.9,0-1,.4-2,0-3-.2-.5.5-1.4.5-2.3.1-2.5.4-4.9.5-7.4.1-2.4,0-4.8,0-7.2,0-2.4.5-4.8.3-7.1-.2-2,.4-3.8.3-5.7,0-2,0-4.1.2-6.1.2-1.4.5-2.9.4-4.3,0-.9-.4-1.7-.3-2.7,0-.9.3-1.9-.3-2.7,0,0,0-.5.2-.7.4-1,.4-2.2.1-3-.3-.8-.2-1.5-.2-2.2,0-2,0-4.1,0-6.1,0-1.5.3-3,.3-4.5,0-1.6-.3-3.2,0-4.7.2-1.5.1-2.8,0-4.3,0-.8,0-1.8-.6-2.3,0,0,0-.4,0-.5.5-2.4-.9-4.4-1.3-6.6-.4-2.3-1.2-4.6-2.2-6.7-.2-.6-.4-1.2-1-1.5-.2-.1-.5-.7-.6-1-.3-1.8-1.6-3.1-2.6-4.5-1.1-1.7-2.8-2.7-4.1-4.3-.6-.6-1.5-1.5-2.7-1.4-.5,0-1.2-.7-1.9-.9-.6-.2-1.2-.2-1.7-.4-.5-.2-.9-.6-1.3-.8-.1,0-.3-.2-.5-.2-.8,0-1.5-.2-2.2-.3-.7-.1-1.4-.3-2.1-.5l-2.1-.4c-.7,0-1.5-.1-2.2,0-2.9.2-5.9.6-8.7,1.5-.8.2-1.5.5-2.3.6-.8.2-1.5.2-2.3,0-.7-.2-1-.7-.5-1.3.4-.5.8-1,1.4-1.3.9-.5,1.8-1.1,2.8-1.5,1-.4,1.9-.9,3-1.3.5-.2,1-.4,1.6-.4.5,0,1.1-.1,1.7-.1.7,0,1.5-.3,2.1.1,0,0,.4,0,.5,0,2.9-.9,6.1,0,9,.7,2.5.5,5.1.9,7.3,2.4.8,0,1.6.3,2.2.8.7.4,1.3.9,1.9,1.5,1.9,1.9,3.7,3.8,5.3,5.8,1.6,2.1,3,4.2,4,6.6,1,2.4,1.9,4.8,2.5,7.3.6,2.5,1.1,4.9,1.5,7.4.1.8.5,1.5.4,2.6-.2,1,.1,2.1.2,3.2,0,1,.3,2,.2,3-.5,3.9,0,7.7-.1,11.6,0,3.8-.1,7.7,0,11.5,0,2.3.4,4.6.2,7,0,1,.2,2.1-.4,3-.2.3.2,1.2.2,1.9,0,1.6,0,3.2-.2,4.8,0,2.2-.2,4.4-.3,6.7,0,1.4.2,2.7.1,4.1,0,1.4-.1,2.8-.3,4.3-.2,1.8-.5,3.6-.7,5.3-.2,1.9,0,3.8-.5,5.6-.8,3.3-.8,6.6-1.2,9.9-.4,3.3-.8,6.5-1,9.8-.1,1.9-.8,3.5-1,5.3,0,.8-1.7,1.8-2.2,1.4,0,0-.2-.2-.2-.4-.3-1.8-.8-3.5-.5-5.5.4-3,.7-6,1-9Z"/>
  <path d="M340.4,429.7c1.3,0,2.6,0,3.9,0,.5,0,1,.2,1.5-.3.3-.3.7.4,1.2.3,1.2,0,2.4,0,3.6,0,1.2,0,2.3-.3,3.5-.3,1.2,0,2.4.3,3.5,0,1-.3,1.8.2,2.8.1,1-.1,2-.2,2.9,0,.7.2,1.4.4,2.1.3.4,0,.8-.4,1.3-.4.4,0,.9.3,1.3-.4,0,0,.2,0,.3.1.5.4,1.1.4,1.4,0,.4-.3.7-.3,1.1-.3,1,0,2-.1,2.9-.1.7,0,1.5.2,2.2.2.8,0,1.6-.3,2.2,0,.7.2,1.3.1,1.9,0,.3,0,.8.1.9-.6,0,0,.1,0,.2,0,.5.3,1,0,1.2-.3.2-.3.4-.7.7-.9.7-.4.9-1.2.8-1.7,0-.1.1-.3-.3-.3-.2,0-.2,0-.1-.2.2-.3.1-.5,0-.8-.2-.2-.5-.4-.7-.7-.6-.6-1.6-.9-2.2-1.8-.3-.4-.7-.8-1.4-.5-.3.1-.6-.3-1-.4-.3,0-.6,0-.9,0-.2,0-.4-.4-.6-.6,0,0-.1,0-.2,0-.8,0-1.4-.2-2-.5-.7-.3-1.4-.7-2.2-.9-1.6-.3-3.4-1.1-4.8-2.3-.8-.6-1.4-1.5-1-2.7.2-.6.6-.9,1.1-.9.4,0,.7,0,1,.2.4.2.8.4,1.2.6.8.3,1.8.2,2.5.8.2.2.6,0,.7.6,0,0,.1.2.2.1,1.5-.4,2.7.5,4.1.9,1.2.4,2.6.3,3.6,1.1.9-.3,1.6.2,2.1.8.9.9,1.9,1.6,3.1,2.6.5.5,1.1,1.1,1.6,1.8.5.7.8,1.6.9,2.6.1,1.9-.6,3.6-1.6,4.9-1,1.3-2.4,2.2-3.8,2.7-.5.2-.8.6-1.4.5-.6-.1-1.2.2-1.8.3-.5,0-1,.3-1.5.1-2-.5-3.8,0-5.7,0-1.9,0-3.7,0-5.6.2-1.1.1-2.3.5-3.4.3-.5,0-1,.3-1.5-.3-.1-.2-.6.3-.9.3-.8,0-1.6,0-2.3,0-1.1,0-2.2,0-3.2,0-.7,0-1.3.3-2,.3-.7,0-1.4,0-2.1,0-.9,0-1.7-.3-2.6-.4-.9,0-1.8.2-2.7,0-1.6-.5-3.2-.2-4.8-.3-1.6,0-3.2,0-4.7.1-.9,0-1.7-.4-2.6-.3-.4,0-1-1.4-.9-1.9,0,0,0-.2.2-.2.8-.5,1.6-1.3,2.6-1.2,1.5,0,3,0,4.4,0Z"/>
  <g>
    <polygon points="386.6 445.2 292 445.2 299.1 431.8 386.6 431.8 386.6 445.2"/>
    <path d="M380.8,433.7c-3.4,0-6.8,0-10.2,0-1.3,0-2.6-.2-3.9.3-.7.3-1.9-.4-3.1-.3-3.2,0-6.4,0-9.6,0-3.1,0-6.2.3-9.3.3-3.1,0-6.2-.2-9.2,0-2.6.3-4.9-.2-7.3-.1-2.6.1-5.3.2-7.8,0-1.9-.2-3.7-.4-5.5-.3-1.2,0-2.2.4-3.5.4-1.2,0-2.5-.3-3.5.3,0,0-.6,0-.9-.1-1.3-.4-2.8-.4-3.8-.1-.5.1-1,.2-1.5.2h-.7s-.3,0-.3,0h0s0,0,0,0c0,0,0,0,0,0l-.8,1.5c-.5,1-1,2-1.6,2.9-.5.9-1,1.7-1.5,2.5l-.4.6-.2.3s0,0,0,0c0,0-.1.1-.2.2,0,.1-.1.2-.1.3.2,0,.3,0,.4.1-.2.2,1.2.2,2,.3.9,0,1.8,0,2.8,0,1.1,0,2.3.3,3.2-.3,0,0,.5,0,.7,0,3,.8,6-.3,9,0,3.1.2,6.4,0,9.6,0,.8,0,1.8.2,2.5-.3.3-.2,1.2-.2,1.6,0,2.4.6,4.8.2,7.3.4,2.8.1,5.5-.2,8.3.3,1.2.2,2.8.3,4.2-.3.6-.3,2,0,3,0,.8,0,1.6-.3,2.5-.3.7,0,1.4.2,2.1.3.2,0,.5,0,.7,0,4-.7,8,.2,12.1,0,4.1-.2,8.2-.1,12.3,0,2.3,0,4.6.2,6.1,1.4.7.5.7,1.1-.3,1.4-.7.2-1.5.5-2.3.5-1.3.1-2.6.2-3.8.3-2.6.2-5.2.7-7.9.4-.8,0-1.8.2-2.5-.3,0,0-.4-.1-.6,0-3.6.8-7.3.3-11,.3-3.1,0-6.1.7-9.3.4-1.7.6-3.8.5-5.5.3-6.2-.7-12.4-.2-18.5-.3-6.3,0-12.5,0-18.8,0-1.1,0-2,.4-3.2,0-1.2-.3-2.7,0-4.1,0-.7,0-1.4,0-2,0-1.2,0-2.3,0-3.3,0-1.4-.1-2.7-.2-4-.2.9-1.6,1.8-3.2,2.6-4.7l1.2-2.2.7-1.4c.9-1.8,1.8-3.7,2.8-5.5l1.9-3.5h7c2,0,4,0,5.9,0,3,0,5.9-.4,8.9-.3,1.3,0,2.6-.3,3.9.3.4.2,1.6-.3,2.4-.3,2,0,4.1,0,6.1,0s5.7,0,8.5,0c1.7,0,3.5-.3,5.2-.3,1.8,0,3.6,0,5.5,0,2.3,0,4.6.3,6.9.3,2.4,0,4.9-.2,7.2,0,4.2.5,8.5.3,12.7.3h4.2c2,0,4,0,6,0,0,1.2,0,2.4,0,3.6v1.4s0,1.1,0,1.1c0,2.4-.4,4.6-.4,6.9,0,1.1-1.5,2.6-2,2.1,0,0-.2-.3-.2-.4-.5-2.3-1.2-4.4-1.1-7v-4s-3.8,0-3.8,0Z"/>
  </g>
  <path d="M299.4,277.5c.2-1,.4-1.9.5-2.9,0-.4.4-.7,0-1.2-.2-.2.5-.5.5-.8.1-.9.4-1.8.5-2.7.1-.9,0-1.8.2-2.7.1-.9.6-1.7.4-2.6-.1-.8.5-1.3.5-2.1,0-.8,0-1.5.5-2.2.3-.5.6-1,.6-1.5,0-.3-.3-.7-.2-1.1,0-.3.4-.7-.1-1.1,0,0,0-.2.2-.2.5-.3.5-.7.3-1.1-.2-.3-.1-.6,0-.9.1-.8.2-1.5.4-2.2.2-.5.5-1.1.7-1.6.2-.6,0-1.2.4-1.7.4-.5.5-1,.6-1.5,0-.3.4-.6-.2-1,0,0,0-.1,0-.2,1-.7,0-1.7.4-2.6.4-.9.4-1.8.6-2.7,0-.2.3-.5-.1-.8-.1-.1-.1-.4,0-.5.7-.5.5-1.3.7-2,.3-.8.1-1.6.8-2.3.3-.3.5-.7,0-1.2-.2-.2.1-.6.1-.9,0-.2-.2-.5-.2-.8,0-.2.3-.4.5-.5,0,0,0-.1,0-.2-.4-1.3.7-2.2.7-3.4,0-1.2.3-2.4.7-3.5.2-.6.5-1.3,1.7-1.5.5,0,1.1,0,1.4.3.2.2.4.5.4.8,0,.4,0,.8.1,1.2,0,.8.4,1.6,0,2.3-.1.2.1.6-.4.7,0,0-.1.1-.1.2.6,1.2-.1,2.1-.3,3.2-.1.9.3,1.9-.1,2.7.5.6.3,1.2,0,1.6-1,1.6-.9,3.5-1.3,5.2-.4,1.8-.7,3.6-1.1,5.3,0,.3.2.6-.1.9-.3.3-.2.8-.3,1.1,0,.4,0,.8-.2,1.1-.9,1.3-.8,2.7-1.1,4.1-.3,1.4-.7,2.8-.8,4.2,0,.9.1,1.8-.2,2.6-.1.4.1.8-.5,1-.2,0,.2.5.2.7,0,.6-.2,1.2-.3,1.8-.2.8-.4,1.6-.5,2.4,0,.5,0,1,0,1.5,0,.5-.1,1-.3,1.6-.2.6-.5,1.3-.7,1.9-.2.7,0,1.4-.5,2-.7,1.1-.7,2.4-1,3.6-.3,1.2-.6,2.4-.7,3.6,0,.7-.7,1.2-.8,1.9,0,.3-1.6.4-2.1.2,0,0-.2-.1-.2-.2-.3-.7-.9-1.5-.7-2.2.3-1.1.4-2.2.7-3.3Z"/>
  <path d="M332.9,245.2c-.5-1.3-.9-2.6-1.4-3.8-.2-.5-.1-1-.8-1.4-.3-.2.1-.8,0-1.3-.5-1.2-.8-2.4-1.3-3.6-.4-1.1-1-2.2-1.5-3.4-.4-1.1-.6-2.4-1.2-3.4-.6-.9-.4-1.9-.8-2.8-.4-.9-.8-1.9-.9-2.9,0-.7,0-1.5-.4-2.2-.2-.4-.6-.7-.8-1.2-.1-.4,0-1-.7-1.2,0,0,0-.2,0-.4.2-.6,0-1.2-.3-1.5-.4-.3-.5-.7-.6-1-.3-1-.7-2-.9-3-.2-.8-.2-1.6-.3-2.3-.2-.8-.7-1.5-.6-2.3,0-.8-.1-1.5-.3-2.2-.1-.4,0-.9-.7-1,0,0-.1-.1,0-.2.4-1.3-1-1.9-1.3-2.8-.3-1-1.1-1.7-1.9-2.4-.2-.2-.3-.5-.8-.3-.2,0-.4,0-.5-.3-.3-1-1.2-1.1-1.9-1.6-.8-.6-1.8-.7-2.6-1.5-.3-.3-.9-.6-1.5-.2-.3.2-.7-.2-1.1-.2-.3,0-.6.2-.9.1-.2,0-.4-.3-.7-.5,0,0-.2,0-.2,0-1.5.4-2.9-.6-4.4-.5-1.5.2-3,.2-4.4.3-.8,0-1.7,0-2.5-.9-.4-.4-.5-1-.2-1.4.2-.3.5-.6.8-.7.5-.2,1-.4,1.5-.6,1-.4,2.1-1,3.2-.7.4,0,.8-.2,1.1.3,0,0,.2.1.3,0,1.5-.8,3.1-.1,4.6,0,1.3.1,2.7-.2,3.9.4.9-.4,1.7,0,2.3.4,2.2,1.5,4.8,2.3,6.9,4.3,1,1,2,2.1,2.8,3.3.8,1.2,1.3,2.5,1.7,3.8.1.4.6.7.5,1.3-.1.5.3,1.1.4,1.6.1.5.4.9.4,1.4,0,2,.8,3.8,1.3,5.6.5,1.9,1,3.7,1.7,5.5.4,1.1,1.1,2.1,1.3,3.2,0,.5.6.9.2,1.5-.1.2.5.5.6.8.3.7.5,1.5.8,2.3.3,1.1.6,2.1,1.1,3.2.2.6.7,1.2,1,1.8.3.7.5,1.3.7,2,.2.9.3,1.8.5,2.7.2.9.8,1.7.8,2.7,0,1.7.9,3.2,1.3,4.8.5,1.6,1,3.1,1.7,4.7.4.9.2,1.8.5,2.7.1.4-1,1.4-1.6,1.5-.1,0-.2,0-.3,0-.7-.7-1.7-1.2-2-2.2-.4-1.5-1-2.9-1.5-4.3Z"/>
  <path d="M377.5,230.5c-.7.5-1.5.9-2.2,1.4-.3.2-.7.1-.7.8,0,.3-.6,0-.9.1-.7.5-1.4.9-2.1,1.3-.6.5-1.2,1.1-1.9,1.6-.6.5-1.5.6-2,1.3-.4.6-1.2.5-1.7.9-.5.5-1.1.9-1.7,1-.5,0-1,.1-1.4.5-.2.2-.3.6-.6.8-.3.1-.7,0-.6.8,0,0-.2,0-.3,0-.5-.2-.8,0-.9.4,0,.4-.3.5-.5.6-.6.4-1.1.7-1.8,1-.5.2-1,.3-1.5.5-.5.2-.8.7-1.4.7-.6,0-1,.2-1.4.5-.2.1-.7,0-.5.7,0,0,0,.1-.1,0-1.1-.3-1.2,1-2,1.2-.8.2-1.5.8-2.2,1.2-.2.1-.5,0-.4.6,0,.2-.2.3-.3.3-.8-.3-1.2.4-1.8.6-.7.2-1.2.8-2,.7-.4,0-.8,0-.8.8,0,.3-.5.2-.7.4-.2.1-.2.5-.4.6-.2,0-.4,0-.6,0,0,0-.1,0-.2,0-.6,1.1-1.9.8-2.8,1.4-.8.7-1.8,1.1-2.8,1.5-.5.2-1.2.3-2-.5-.4-.4-.6-.9-.6-1.3,0-.3.1-.6.3-.7.2-.2.5-.5.7-.7.5-.5.8-1.3,1.6-1.3.2,0,.3-.4.7,0,0,0,.2,0,.2,0,.4-1.1,1.5-1.1,2.3-1.6.7-.4,1.1-1.3,1.9-1.5,0-.8.6-.9,1.1-1,1.7-.2,2.9-1.3,4.3-2,1.4-.7,2.8-1.6,4.2-2.3.2-.1.3-.6.7-.5.4,0,.6-.3.9-.5.3-.2.5-.4.8-.5,1.4,0,2.3-1,3.4-1.6,1.1-.6,2.2-1.1,3.2-1.9.6-.5,1.1-1.2,1.8-1.4.3-.1.4-.6,1-.2.2,0,.2-.5.4-.6.4-.3.9-.6,1.3-.8.6-.4,1.3-.7,1.9-1.2.4-.3.6-.7,1-1,.4-.3.8-.5,1.2-.7.5-.2,1.1-.4,1.7-.6.6-.3.9-.8,1.6-.9,1.2-.1,2-.9,2.9-1.5.9-.5,1.9-1.1,2.7-1.8.5-.4,1.2-.3,1.7-.6.2-.2,1.4.9,1.5,1.4,0,0,0,.2,0,.3-.2.7-.3,1.6-.9,1.9-.9.5-1.7,1.1-2.5,1.6Z"/>
  <path d="M399.7,210.1c-.4.3-.8.5-1.1.9-.1.1-.4,0-.2.6,0,.3-.4-.1-.5,0-.3.3-.7.5-1,.8-.3.3-.5.7-.8,1.1-.3.3-.8.4-.9.9,0,.4-.6.3-.8.6-.2.3-.4.6-.8.7-.3,0-.6,0-.7.3,0,.2,0,.5-.1.6-.1,0-.4,0-.1.6,0,0-.1,0-.2,0-.4-.2-.5,0-.4.3,0,.3,0,.4-.1.4-.2.3-.5.5-.8.7-.2.1-.6.2-.8.3-.2.1-.3.6-.7.5-.4,0-.6.1-.7.3-.1.1-.4,0,0,.5,0,0,0,0,0,0-.9-.3-.4.8-.8.9-.4.2-.6.6-.9.9,0,0-.3,0,0,.4,0,.1,0,.2-.1.2-.7-.2-.6.3-.9.5-.3.2-.4.7-1,.6-.3,0-.5,0-.2.6.1.2-.2.2-.2.3,0,.1,0,.4,0,.5,0,0-.3,0-.4,0,0,0,0,0,0,0,.1.8-.9.7-1.1,1.2-.2.5-.6.9-1.1,1.3-.2.2-.6.3-1.6-.2-.5-.3-.9-.6-1.1-.9-.1-.2-.2-.5-.2-.6,0-.2,0-.4,0-.6,0-.4,0-1,.4-1.1.1,0,0-.3.5,0,0,0,.1,0,.1,0-.3-.9.5-1,.8-1.4.3-.4,0-1.1.6-1.2-.3-.6,0-.7.3-.8,1.1-.2,1.3-1.1,2-1.7.7-.6,1.2-1.3,1.9-1.9.1-.1,0-.4.3-.4.3,0,.3-.2.4-.4.1-.1.2-.4.4-.4,1,0,1.2-.8,1.7-1.2.6-.4,1.1-.8,1.5-1.4.2-.4.3-.9.7-1.1.2,0,0-.5.6-.1.1,0,0-.4,0-.4.2-.2.4-.4.6-.6.3-.3.6-.5.9-.8.2-.2.2-.5.3-.7.2-.2.4-.4.6-.5.3-.1.7-.2,1-.3.3-.2.4-.6.8-.6.8,0,1.1-.5,1.6-.8.5-.3,1-.6,1.4-1.1.2-.3.8,0,1-.2.1,0,1.1,1,1.4,1.4,0,0,0,.2,0,.2,0,.6.2,1.3,0,1.5-.5.2-.9.6-1.3.9Z"/>
  <path d="M421,206.1c-.4,0-.8.1-1.1.3-.1,0-.3-.2-.4.4,0,.3-.3-.3-.4-.3-.3.2-.7.1-1.1.3-.3.1-.6.4-1,.6-.3.1-.7,0-1,.3-.2.3-.6-.1-.8,0-.3.2-.5.3-.9.2-.2-.1-.5-.3-.7-.1-.1,0-.2.4-.3.4-.1,0-.3-.2-.3.4,0,0,0,0-.1-.1-.2-.4-.4-.3-.5,0,0,.3-.2.3-.3.3-.3,0-.6.2-.9.2-.2,0-.5-.2-.7-.2-.2,0-.4.3-.7,0-.3-.3-.5-.2-.7-.2-.1,0-.3-.2-.3.4,0,0,0,0,0,0-.5-.7-.6.4-1,.2-.4-.1-.7,0-1.1.2,0,0-.2-.1-.2.3,0,.2,0,.2-.2,0-.4-.6-.6-.1-.9-.2-.3,0-.6.3-1-.1-.2-.2-.4-.3-.4.3,0,.3-.2,0-.3.1,0,0-.1.3-.2.4,0,0-.2-.2-.3-.3,0,0,0,0,0,0-.3.7-.9,0-1.4.2-.4.3-.9.3-1.4.2-.3,0-.6-.2-.9-1.3-.2-.5-.2-1-.2-1.4,0-.3,0-.5.2-.6.1-.1.2-.3.4-.4.3-.2.5-.8.8-.6.1,0,.2-.2.3.2,0,0,0,0,0,0,.3-.8.8-.4,1.2-.5.3-.1.6-.8,1-.6,0-.7.3-.6.6-.4.8.5,1.4,0,2.1,0,.7,0,1.4-.3,2.1-.3.1,0,.2-.4.3-.1.2.2.3,0,.5,0,.1,0,.3-.2.4,0,.7.5,1.1,0,1.7,0,.6,0,1.1,0,1.6-.4.3-.2.6-.6.9-.5.2,0,.2-.3.5.2,0,.2.1-.3.2-.4.2,0,.4-.1.7-.2.3,0,.6,0,.9-.2.2,0,.3-.4.5-.5.2-.1.4-.1.6-.1.3,0,.6.2.8.2.3,0,.5-.3.8-.1.6.4,1,0,1.5,0,.5,0,.9-.1,1.4-.3.2-.1.6.3.9.2.1,0,.6,1.4.7,1.9,0,0,0,.2,0,.2-.1.5-.2,1.3-.5,1.3-.4,0-.9.2-1.3.3Z"/>
  <path d="M419.7,212.6c0-.1,0-.3,0-.4,0,0,.2-.1-.3-.1-.3,0,.4-.1.3-.2,0-.1,0-.3,0-.4,0-.1-.3-.2-.4-.4,0-.1.2-.3-.1-.4-.3,0,.2-.2,0-.3-.1-.1-.2-.2,0-.3.2,0,.4-.2.3-.3,0,0-.4,0-.4-.1,0,0,.3-.1-.3-.1,0,0,0,0,.1,0,.4,0,.4-.1,0-.2-.3,0-.2,0-.3-.1,0-.1,0-.2,0-.3,0,0,.3-.2.3-.3,0,0-.2-.2,0-.3.3,0,.3-.2.3-.2,0,0,.3-.1-.4-.1,0,0,0,0,0,0,.8-.1-.3-.2,0-.4.2-.1,0-.3,0-.4,0,0,.2,0-.3-.1-.2,0-.2,0,0,0,.6-.1.2-.2.4-.3.1-.1-.2-.2.3-.4.2,0,.3-.1-.3-.2-.3,0,0,0,0-.1,0,0-.3,0-.3-.1,0,0,.2,0,.3,0,0,0,0,0,0,0-.7-.2.2-.3,0-.5-.2-.2,0-.4,0-.5,0,0,.2-.2,1.4-.2.5,0,1.1,0,1.4,0,.2,0,.5,0,.5.1.1,0,.2.1.3.2.2.1.7.2.4.3,0,0,.2,0-.3,0,0,0-.1,0,0,0,.8.2.3.3.3.4,0,.1.7.3.4.4.6,0,.5.2.3.2-.7.2-.2.5-.3.7,0,.2,0,.5,0,.7,0,0,.4,0,0,.1-.3,0,0,.1,0,.2,0,0,.1,0,0,.1-.7.2-.2.4-.3.6,0,.2-.1.4,0,.6.1.1.5.2.3.3,0,0,.3,0-.3.2-.2,0,.3,0,.3,0,0,0,0,.2,0,.2,0,.1,0,.2,0,.3,0,0,.3.1.4.2,0,0,0,.1,0,.2,0,0-.3.2-.3.3,0,0,.2.2,0,.3-.5.2-.2.4-.3.5,0,.2,0,.3,0,.5,0,0-.4.2-.4.3,0,0-1.5.3-2,.3,0,0-.2,0-.2,0-.5,0-1.2,0-1.2-.2,0-.2,0-.3,0-.5Z"/>
  <path d="M406.8,218.5c.2,0,.4,0,.5-.2,0,0,.3.2.1-.4,0-.3.3.3.3.2.2-.2.4-.2.6-.3.2-.2.3-.5.5-.6.2-.2.5,0,.6-.4,0-.3.4,0,.6-.2.1-.2.3-.4.6-.3.2,0,.4.2.5,0,0-.1,0-.4,0-.4,0,0,.3.2,0-.4,0,0,0,0,.1,0,.3.3.4.2.3,0,0-.3,0-.3,0-.3.2-.1.3-.2.6-.3.2,0,.4.1.6,0,.2,0,.2-.3.5-.1.3.2.4.1.5,0,0,0,.3.2,0-.4,0,0,0,0,0,0,.6.6.3-.4.6-.4.3,0,.5-.2.7-.3,0,0,.2,0,0-.3,0-.2,0-.2,0-.1.4.5.5,0,.7,0,.2,0,.3-.3.7,0,.2.1.3.2.2-.4,0-.3.1,0,.2-.2,0,0,0-.3,0-.4,0,0,.2.2.3.2,0,0,0,0,0,0,0-.7.7,0,.9-.4.2-.3.5-.4.9-.5.2,0,.4,0,1.1,1,.3.4.5.9.6,1.3,0,.2.1.5,0,.6,0,.1,0,.3-.1.4,0,.3,0,.8-.4.7,0,0,0,.3-.3-.2,0,0,0,0,0,0,.1.8-.4.5-.6.7-.2.2-.1.8-.5.7.2.6,0,.6-.2.5-.7-.4-1,.2-1.4.4-.5.1-.9.4-1.3.6,0,0,0,.4-.2.2-.2-.2-.2,0-.3,0,0,0-.1.2-.3.1-.6-.4-.8.1-1.2.2-.4.1-.8.2-1,.5-.2.2-.2.6-.5.6-.1,0,0,.3-.4-.1-.1-.1,0,.3,0,.4-.1.1-.3.2-.4.2-.2.1-.4.2-.6.3-.1,0-.1.4-.2.5,0,.1-.2.2-.4.2-.2,0-.5,0-.7,0-.2,0-.3.4-.6.2-.6-.3-.8,0-1.3.2-.4,0-.9.1-1.4.3-.3,0-.6-.4-.8-.4-.1,0-.1-1.5,0-2,0,0,0-.2,0-.2.2-.5.3-1.2.4-1.1.1,0,.3,0,.5,0Z"/>
  <path d="M415.5,230.1c-.2-.1-.3-.3-.5-.4,0,0,0-.3-.4,0-.2.2.2-.4,0-.4-.2,0-.3-.3-.5-.4-.2,0-.5,0-.7-.1-.2,0-.1-.4-.5-.3-.3.1,0-.4-.3-.4-.2,0-.4,0-.4-.4,0-.2,0-.5,0-.4-.1,0-.4.2-.4.1,0,0,0-.3-.4.1,0,0,0,0,0-.1.2-.4.1-.4-.1-.2-.2.2-.3,0-.3,0-.2,0-.3-.2-.4-.3,0-.1,0-.4,0-.5,0-.1-.4,0-.2-.3.1-.3,0-.4,0-.5,0,0,0-.3-.4.1,0,0,0,0,0,0,.4-.8-.5,0-.5-.3,0-.3-.3-.3-.4-.4,0,0,0-.2-.3.1-.1.1-.2,0-.1,0,.3-.6,0-.4-.1-.6,0-.2-.4-.1-.2-.6,0-.2,0-.4-.4,0-.2.2,0,0-.2,0,0,0-.3.2-.3.1,0,0,0-.2.1-.3,0,0,0,0,0,0-.6.3-.2-.5-.6-.5-.3,0-.5-.3-.6-.5,0-.1,0-.4.6-1.3.3-.4.7-.8.9-1,.2-.2.4-.3.5-.3.1,0,.3,0,.4,0,.3,0,.7-.3.7,0,0,.1.2,0,0,.3,0,0,0,.1,0,0,.7-.4.5.1.8.2.2,0,.7-.2.7,0,.5-.4.5-.2.5,0-.1.8.5.7.7,1,.2.3.6.5.9.8,0,0,.3-.2.2,0-.1.2,0,.2.2.2,0,0,.2,0,.2.2-.2.7.3.6.5.9.2.3.4.5.7.6.2,0,.6,0,.6.1,0,0,.3-.1,0,.4,0,.1.3-.1.3-.1.1,0,.2.2.3.3.1.1.2.3.4.4.1,0,.4,0,.5,0,.1,0,.2.1.3.2,0,.2,0,.4.1.6,0,.1.4,0,.3.4-.1.6.2.6.4.8.2.2.3.4.6.5.2,0,0,.5,0,.6,0,0-.9,1.2-1.2,1.6,0,0-.1.1-.2.2-.4.3-1,.7-1.1.6-.1-.2-.4-.3-.6-.5Z"/>
  <path d="M406.8,236.7c.2-.1.4-.3.5-.5,0,0,.3,0,0-.4-.1-.2.3.2.4.1.1-.2.3-.3.5-.5.1-.2.1-.5.2-.7.1-.2.5-.1.4-.5,0-.3.4,0,.4-.3,0-.2.1-.4.4-.3.2,0,.5,0,.5,0,0-.1-.2-.4,0-.4,0,0,.3,0,0-.4,0,0,0,0,.1,0,.4.2.4.1.3-.1-.1-.2,0-.3,0-.3,0-.2.2-.3.4-.4.1,0,.4,0,.5,0,.1,0,0-.4.3-.3.3.1.4,0,.5,0,0,0,.3,0-.1-.4,0,0,0,0,0,0,.8.4,0-.5.4-.5.3,0,.3-.3.4-.5,0,0,.2,0-.1-.3-.1-.1,0-.2,0-.1.6.3.4,0,.6-.2.2,0,0-.4.6-.2.2,0,.4,0,0-.4-.2-.2,0-.1,0-.2,0,0-.2-.3-.2-.3,0,0,.2,0,.4,0,0,0,0,0,0,0-.4-.6.5-.3.5-.6,0-.3.2-.5.5-.7.1,0,.4-.1,1.4.4.5.3.9.6,1.1.8.2.2.3.4.3.4,0,.1,0,.3.1.4,0,.3.4.7,0,.7-.1,0,0,.2-.3,0,0,0-.1,0,0,0,.5.7,0,.6-.2.8,0,.2.3.8,0,.8.4.5.2.5,0,.5-.8,0-.7.6-1.1.9-.4.3-.6.7-.9,1,0,0,.2.3-.1.2-.3-.1-.2.1-.2.2,0,0,0,.2-.2.2-.7-.2-.7.4-1,.6-.3.2-.6.4-.7.8,0,.2,0,.6-.2.7-.1,0,0,.3-.4,0-.1-.1.1.3,0,.3,0,.1-.2.2-.3.3-.1.1-.3.3-.4.4,0,.1,0,.4,0,.5,0,.1-.2.2-.3.3-.2,0-.4,0-.6,0-.2,0-.1.4-.4.3-.6-.2-.6.2-.9.4-.3.2-.5.3-.7.6,0,.2-.5-.1-.7,0,0,0-1.1-1-1.3-1.5,0,0-.1-.2-.1-.2-.2-.5-.5-1.1-.3-1.2.3-.1.4-.3.6-.5Z"/>
  <path d="M406.6,241.2c-.1,0-.2-.2-.4-.2,0,0,0-.3-.3.2-.2.2.1-.4,0-.4-.2,0-.2-.2-.4-.2-.1,0-.4.1-.5,0-.1,0-.1-.3-.4-.1-.2.2,0-.3-.2-.3-.2,0-.3,0-.3-.2,0-.2,0-.4,0-.4,0,0-.3.3-.3.2,0,0,0-.3-.3.2,0,0,0,0,0-.1.2-.4.1-.4,0-.2-.2.2-.2.1-.2.1-.1,0-.2,0-.3-.2,0,0,0-.3,0-.4,0-.1-.3,0-.2-.2.1-.3,0-.3,0-.4,0,0,0-.3-.3.2,0,0,0,0,0,0,.4-.7-.4,0-.3-.2,0-.3-.2-.2-.3-.3,0,0,0-.2-.3.1-.1.1-.2.1,0,0,.3-.5,0-.3,0-.5,0-.2-.3,0,0-.5,0-.2.1-.3-.3,0-.2.2,0,0-.1,0,0,0-.3.2-.3.2,0,0,.1-.2.2-.3,0,0,0,0,0,0-.6.4-.1-.4-.4-.4-.3,0-.3-.2-.4-.4,0-.1,0-.3.8-1.2.3-.4.7-.8,1-1,.2-.1.4-.3.4-.3.1,0,.2,0,.3-.1.2,0,.6-.4.5-.1,0,0,.2-.1-.1.3,0,0,0,0,0,0,.6-.5.4,0,.5,0,.1,0,.6-.3.5,0,.5-.4.4-.3.4-.1-.3.7.2.5.3.7.1.2.4.3.5.5,0,0,.3-.2.1,0-.1.2,0,.1,0,.1,0,0,.2,0,0,.1-.2.6.1.4.2.6.1.2.2.3.5.3.1,0,.4-.3.4,0,0,0,.2-.2,0,.3,0,.1.2-.2.2-.2,0,0,.1,0,.2.1,0,0,.2.1.3.1,0,0,.3-.2.3-.2,0,0,.1,0,.2,0,0,.1,0,.3,0,.4,0,0,.3,0,.2.2-.1.5.2.4.3.5.1.1.2.2.4.2.1,0,0,.5,0,.5,0,0-.5,1.4-.8,1.8,0,0,0,.2-.1.2-.3.4-.7,1-.8.9-.1-.1-.3-.2-.4-.2Z"/>
  <path d="M418.8,238.7c0,0,0-.2-.2-.3,0,0,.2-.2-.3,0-.2.1.3-.2.2-.3-.1,0,0-.2-.2-.2-.1,0-.3,0-.5,0-.1,0,0-.3-.2-.2-.3,0,.1-.3,0-.3-.2,0-.3,0-.1-.2.1-.1.3-.3.1-.3,0,0-.4.1-.4,0,0,0,.2-.2-.3,0,0,0,0,0,.1-.1.3-.3.3-.3,0-.2-.2.1-.2,0-.3,0,0,0-.1-.1-.1-.2,0,0,.2-.3.2-.3,0,0-.3,0,0-.2.2-.2.2-.3.1-.3,0,0,.2-.2-.3,0,0,0,0,0,0,0,.7-.5-.3,0-.2-.2.1-.2,0-.2-.1-.3s.1-.1-.3,0c-.1,0-.2,0,0,0,.5-.4.1-.3.2-.4,0-.1-.2,0,.1-.4.2-.1.2-.2-.3,0-.2.1,0,0-.1,0,0,0-.3.1-.3.1,0,0,.2-.2.3-.2,0,0,0,0,0,0-.6.2,0-.3-.2-.4-.2,0-.2-.2-.2-.3,0,0,.1-.3,1.1-.9.4-.3.9-.6,1.2-.7.2-.1.4-.2.5-.2.1,0,.2,0,.3,0,.2,0,.7-.2.5,0,0,0,.2,0-.2.2,0,0,0,0,0,0,.7-.3.4,0,.5.1,0,0,.7-.2.5,0,.6-.3.5-.2.4,0-.5.5,0,.5,0,.7,0,.2.2.3.3.5,0,0,.3-.1.1,0-.2.2,0,.1,0,.1,0,0,.2,0,0,.1-.5.5,0,.4,0,.6,0,.2,0,.3.3.4.1,0,.5,0,.4,0,0,0,.3,0-.2.3-.1,0,.3-.1.3,0,0,0,0,.1.1.2,0,0,0,.2.2.2,0,0,.3,0,.4,0,0,0,.1,0,0,.1,0,.1-.2.3-.2.4,0,0,.3,0,0,.2-.4.4,0,.4,0,.5,0,.1,0,.3.2.3.1,0-.3.4-.2.4,0,0-1.2.9-1.6,1.1,0,0-.2,0-.2.1-.4.2-1.1.5-1.1.4,0-.1-.1-.2-.2-.3Z"/>
  <path d="M410.1,248.2c.2-.1.5-.2.7-.4,0,0,.3,0,0-.4-.1-.2.3.2.4.2.2-.2.4-.3.6-.5.2-.2.2-.5.3-.7.1-.2.5-.1.5-.5,0-.3.4,0,.5-.3,0-.2.2-.4.5-.4.2,0,.5,0,.5-.1,0-.1-.2-.4,0-.4,0,0,.3,0,0-.4,0,0,0,0,.2,0,.4.2.4,0,.3-.1-.2-.2,0-.3,0-.3.1-.2.2-.3.4-.4.1,0,.4,0,.5-.1.1,0,0-.4.3-.3.3,0,.4,0,.5-.2,0,0,.3,0-.1-.4,0,0,0,0,0,0,.8.3,0-.5.3-.6.3,0,.3-.4.4-.6,0,0,.2,0-.1-.3-.1,0-.1-.2,0-.1.6.2.4-.2.6-.3.2-.1,0-.4.6-.4.2,0,.4,0,0-.4-.2-.2,0-.1,0-.2,0,0-.2-.2-.2-.3,0,0,.3,0,.4,0,0,0,0,0,0,0-.5-.5.4-.5.4-.8,0-.3.1-.6.3-.9.1-.1.3-.3,1.5,0,.5,0,1,.2,1.3.4.2.1.4.3.4.3,0,.1.2.3.2.4.1.3.6.7.2.8-.1,0,.1.2-.4.1,0,0-.1,0,0,0,.6.6,0,.7,0,1.1,0,.3.4.8,0,1,.5.4.3.5,0,.6-.9.2-.7.9-1.1,1.4-.4.5-.6,1-1,1.5,0,0,.2.4-.1.3-.3,0-.2.2-.3.3,0,0,0,.3-.2.3-.8,0-.8.6-1.1.9-.4.3-.7.6-.9,1-.1.3,0,.7-.4.8-.1,0,0,.4-.5,0-.1,0,0,.3,0,.4-.1.2-.3.3-.4.4-.2.2-.4.3-.6.5-.1.1,0,.4-.2.6,0,.2-.2.3-.4.3-.2,0-.5,0-.7.1-.2,0-.3.4-.6.3-.6-.2-.8.2-1.2.4-.4.1-.7.3-1,.6-.2.2-.6-.2-.8,0,0,0-.9-1.2-1-1.7,0,0,0-.2,0-.2,0-.5-.2-1.2,0-1.3.3,0,.5-.3.8-.4Z"/>
  <path d="M408.3,252.9c0-.1-.1-.3-.3-.4,0,0,.1-.2-.3,0-.2.1.3-.3.2-.3-.1,0-.1-.3-.3-.3-.1,0-.4,0-.5-.2-.1,0,0-.4-.3-.3-.3,0,0-.3,0-.3-.2,0-.3,0-.2-.3.1-.2.2-.3.1-.4,0,0-.4.1-.4,0,0,0,.2-.2-.4,0,0,0,0,0,.1-.1.3-.3.3-.3,0-.2-.3.1-.2,0-.3,0,0,0-.2-.2-.2-.3,0,0,.1-.3.2-.4,0-.1-.3,0,0-.3.2-.2.2-.3.1-.4,0,0,.2-.2-.4,0,0,0,0,0,0,0,.6-.6-.4,0-.3-.3.1-.2-.1-.3-.2-.4,0,0,.1-.2-.3,0-.1,0-.2,0,0,0,.5-.4,0-.3.1-.5,0-.2-.3-.1,0-.5.1-.2.2-.3-.3,0-.2.1,0,0-.1,0,0,0-.3.1-.3,0,0,0,.2-.2.2-.3,0,0,0,0,0,0-.7.2,0-.4-.3-.5-.3,0-.3-.3-.3-.5,0-.1,0-.3,1-1,.4-.3.9-.6,1.2-.7.2,0,.4-.2.5-.2.1,0,.3,0,.4,0,.2,0,.7-.2.6,0,0,0,.2,0-.2.3,0,0,0,0,0,0,.8-.3.4.1.5.2.1,0,.7-.1.6.1.6-.3.5-.1.4,0-.4.6.1.6.2.9,0,.3.3.5.4.7,0,0,.3-.1.1,0-.2.2,0,.1,0,.2,0,0,.2,0,0,.2-.4.5,0,.5,0,.7,0,.2.1.4.4.6.2,0,.5,0,.5.2,0,0,.3,0-.2.3-.1.1.3,0,.3,0,0,0,.1.1.2.2,0,.1,0,.2.2.3,0,0,.3,0,.4,0,0,0,.1.1.1.2,0,.1-.1.3-.1.4,0,.1.3,0,.1.3-.3.4,0,.5,0,.7,0,.2.1.4.3.5.1,0-.3.4-.2.5,0,0-1.2.9-1.6,1.1,0,0-.2,0-.2.1-.4.2-1.1.5-1.1.3,0-.2-.2-.3-.3-.5Z"/>
  <path d="M385.1,255.4c.4,0,.9,0,1.3,0,.2,0,.3.2.5-.3,0-.3.2.4.4.4.4,0,.8,0,1.2,0,.4,0,.8-.3,1.1-.4.4,0,.8.2,1.1-.1.3-.3.6.2.9,0,.3-.2.6-.3.9,0,.2.1.5.3.7.2.1,0,.2-.4.3-.4.1,0,.3.2.3-.4,0,0,0,0,.1.1.2.4.4.3.5,0,0-.3.2-.3.3-.3.3-.1.6-.2.8-.2.2,0,.5.1.7.1.2,0,.4-.4.7-.2.3.2.5.1.7,0,.1,0,.4.1.2-.5,0,0,0,0,0,0,.7.6.5-.5.8-.5.4,0,.6-.3.9-.5,0,0,.3,0,0-.4,0-.1,0-.2,0-.2.6.3.6-.1.8-.2.3-.1.4-.6.9-.4.2,0,.5,0,.2-.6-.1-.3.2-.2.2-.3,0-.1,0-.4,0-.5,0,0,.3,0,.4,0,0,0,0,0,0,0,0-.9,1-.6,1.3-1.1.4-.5.9-.8,1.5-1.1.3-.1.8-.2,1.5.8.3.4.5.9.6,1.3,0,.3,0,.5,0,.6,0,.1-.1.3-.2.5-.1.3,0,.9-.5.8-.1,0,0,.3-.4,0,0,0-.1,0,0,0,.2.9-.5.7-.8,1.1-.2.3,0,1-.6,1.1.3.6,0,.7-.3.7-1.1,0-1.4,1-2.2,1.5-.8.5-1.6,1-2.4,1.4-.1,0-.1.4-.4.3-.3-.2-.4.1-.6.2-.2,0-.3.3-.5.2-.9-.3-1.4.2-2.1.4-.7.1-1.4.2-2,.5-.4.2-.7.6-1.2.5-.2,0-.3.3-.6-.2,0-.2-.2.3-.3.3-.3,0-.6,0-.8.1-.4,0-.8,0-1.2,0-.2,0-.5.3-.7.4-.2,0-.5,0-.7,0-.3,0-.6-.3-.9-.3-.3,0-.7.2-1,0-.6-.5-1.1-.3-1.7-.4-.6,0-1.1-.2-1.7,0-.3,0-.6-.5-.9-.5-.1,0-.2-1.5-.1-2,0,0,0-.2,0-.2.3-.4.6-1.2,1-1.1.5.1,1,0,1.5,0Z"/>
  <path d="M357.9,278.4c.5-.2,1-.5,1.4-.8.2-.1.5,0,.4-.6,0-.3.4.1.6,0,.4-.3.9-.6,1.2-.9.4-.3.6-.8,1-1.2.3-.4.9-.5,1.1-1,.1-.5.8-.4,1-.7.2-.4.5-.7,1-.8.3,0,.7-.1.9-.4,0-.2,0-.5.2-.7.2-.1.5,0,.2-.6,0,0,.1,0,.2,0,.4.2.6,0,.5-.4,0-.3,0-.4.2-.5.3-.3.6-.6.9-.9.3-.2.7-.3.9-.4.3-.2.3-.7.8-.7.4,0,.6-.2.8-.5.1-.1.5,0,.1-.6,0,0,0,0,0,0,1,.2.5-.9,1-1.1.5-.2.8-.8,1.1-1.2,0-.1.3-.1,0-.5,0-.1,0-.3.1-.2.7.1.7-.4,1.1-.7.4-.3.5-.8,1.1-.9.3,0,.5-.2.2-.7-.1-.3.2-.3.3-.4,0-.1,0-.4,0-.5,0,0,.3,0,.5,0,0,0,0,0,0,0-.1-.9,1-.9,1.3-1.6.3-.7.7-1.2,1.2-1.7.3-.3.6-.5,1.7,0,.5.2.9.5,1.1.8.1.2.2.5.2.6,0,.2,0,.5-.1.7,0,.5,0,1.2-.4,1.4-.2,0,0,.4-.5.2,0,0-.1,0-.1,0,.3,1-.6,1.2-.9,1.7-.3.5-.1,1.3-.7,1.5.3.6,0,.8-.3,1-1.2.4-1.5,1.5-2.3,2.3-.8.8-1.5,1.6-2.2,2.4-.1.1,0,.5-.3.5-.3,0-.4.3-.5.5-.1.2-.2.4-.5.5-1.1.2-1.4,1-2,1.6-.7.5-1.3,1.1-1.8,1.8-.3.4-.5,1-.9,1.3-.2.1-.1.5-.7.2-.2,0,0,.4-.1.5-.2.3-.5.5-.8.7-.4.3-.8.6-1.1,1-.2.2-.3.6-.5.8-.2.3-.5.5-.8.6-.4.2-.8.3-1.2.5-.4.2-.6.7-1.1.7-.9,0-1.5.6-2.2.9-.7.3-1.5.6-2.2,1-.4.2-1-.1-1.4,0-.2,0-.8-1.3-.9-1.8,0,0,0-.2,0-.2.2-.6.3-1.3.7-1.4.6-.1,1.1-.4,1.6-.7Z"/>
  <path d="M403.4,229.4c0,0-.2-.1-.4-.1,0,0,0-.3-.2.2,0,.3,0-.4,0-.4-.2,0-.3,0-.5,0-.2,0-.4.2-.6.3-.2,0-.4-.3-.6,0-.2.3-.3-.3-.5-.2-.2.1-.4.2-.5,0-.1-.2-.2-.4-.3-.3,0,0-.2.4-.3.3,0,0-.1-.3-.3.3,0,0,0,0,0-.2,0-.4-.1-.4-.2-.1-.1.3-.2.2-.2.2-.2,0-.4,0-.5,0-.1,0-.2-.3-.4-.4-.1,0-.3.2-.4-.1,0-.3-.2-.3-.3-.3,0,0-.1-.3-.3.3,0,0,0,0,0,0-.1-.8-.4.2-.6,0-.2-.2-.4-.1-.6-.1,0,0,0-.2-.2.3,0,.2,0,.2-.1,0,0-.6-.3-.3-.5-.4-.2-.1-.4.1-.5-.4,0-.2-.2-.3-.3.2,0,.3-.1,0-.2,0,0,0-.1.3-.2.3,0,0,0-.2-.1-.4,0,0,0,0,0,0-.4.6-.5-.3-.8-.1-.3.1-.6,0-.8,0-.1,0-.3-.3-.3-1.4,0-.5,0-1.1.2-1.4,0-.2.2-.5.2-.5,0,0,.2-.2.3-.3.2-.2.4-.7.6-.4,0,0,.1-.2.1.3,0,0,0,.1,0,0,.3-.8.5-.2.8-.2.2,0,.5-.6.7-.3.2-.6.3-.5.4-.3.3.7.8.3,1.2.5.4.1.9,0,1.3.2,0,0,.2-.3.2,0,0,.3.2,0,.3,0,0,0,.2-.1.3,0,.3.7.6.3,1,.4.3.1.7.2,1,0,.2,0,.5-.4.6-.2,0,0,.2-.3.2.3,0,.2.1-.3.2-.3.1,0,.3,0,.4,0,.2,0,.4,0,.6,0,.1,0,.3-.3.4-.3.1,0,.3,0,.4,0,.2,0,.3.3.5.4.2,0,.5-.1.6.2.3.6.7.4,1.1.7.4.2.8.5,1.2.7.3.1.1.7.3.9,0,.1-1,1.1-1.5,1.3,0,0-.2.1-.2.1-.4.2-1,.7-1,.6,0,0,0,0-.2-.1Z"/>
  <path d="M391.4,237.8c.4-.2.8-.3,1.1-.5.1,0,.4.1.3-.4,0-.3.3.3.5.2.3-.2.7-.2,1.1-.3.3-.1.7-.4,1-.6.4-.1.8.1,1.1-.2.3-.3.6.2.9,0,.3-.2.6-.2.9,0,.2.2.4.4.7.3.1,0,.3-.4.4-.4,0,0,.1,0,.2,0,0,0,.2,0,.1-.4,0,0,0,0,0,.1,0,.4,0,.4,0,.1,0-.3,0-.2,0-.3,0,0,0,0,0,0h0c0,.1.2.3.2.3,0,0-.1-.2.1,0,.3.2.3,0,.3,0,0,0,.3,0-.3-.2,0,0,0,0,0,0,.9,0,0-.7.3-.9.3-.2.3-.6.3-.9,0,0,.2-.1-.2-.3-.1,0-.1-.2,0-.2.7,0,.4-.4.5-.6.2-.2,0-.6.5-.7.2,0,.4-.2-.2-.5-.2-.1,0-.2,0-.3,0,0-.3-.2-.3-.3,0,0,.3,0,.4-.1,0,0,0,0,0,0-.6-.5.4-.7.3-1.2-.1-.4,0-.8.2-1.2,0-.2.3-.4,1.5-.4.5,0,1.1,0,1.4.2.2.1.4.2.5.3,0,.2.2.3.3.5.2.3.6.7.3.9-.1,0,.2.2-.3.2,0,0-.1,0,0,0,.7.5.1.9,0,1.3,0,.4.5.8.2,1.1.6.3.4.5.2.7-.8.5-.6,1.3-.9,2-.3.6-.4,1.4-.7,2,0,0,0,.1,0,.2,0,.1,0,.2-.2.3-.3,0-.2.5-.3.7,0,.2,0,.5-.3.6-.6.3-.8.8-1,1.4-.3,0-.5,0-.8,0-.5,0-.9-.2-1.4-.2-.4,0-1,0-1.1,0-.3,0-.6.4-.8.3-.1,0-.2.3-.4-.3,0-.2-.1.3-.2.3-.2,0-.4,0-.6,0-.3,0-.5,0-.8.1-.2,0-.3.3-.4.4-.2,0-.3.1-.5.1-.2,0-.5-.2-.7-.2-.2,0-.4.3-.7.1-.5-.4-.8,0-1.2.1-.4,0-.8.2-1.1.5-.2.2-.6-.2-.8,0,0,0-.9-1.2-1.2-1.6,0,0,0-.2,0-.2,0-.5-.1-1.3.2-1.4.4-.1.8-.4,1.3-.6Z"/>
  <path d="M388.6,246.3c0,0,.2-.2.2-.3,0,0,.2,0-.1-.3-.2-.2.3.2.3.1,0-.1.2-.2.2-.3,0-.1,0-.3,0-.5,0-.1.3,0,.1-.3-.2-.2.3,0,.2-.2,0-.1,0-.3.2-.2.2,0,.4,0,.3,0,0,0-.3-.2-.3-.3,0,0,.3,0-.2-.3,0,0,0,0,.1,0,.4.1.4,0,.1,0-.2-.1-.2-.2-.2-.2,0,0,0-.2.1-.2,0,0,.3,0,.4,0,0,0-.2-.2.2-.2.3,0,.3,0,.3-.1,0,0,.3,0-.3-.2,0,0,0,0,0,0,.8.1-.2-.3,0-.3.2,0,.1-.2.1-.3,0,0,.2,0-.3-.1-.2,0-.2,0,0,0,.6,0,.3-.1.4-.2.1,0-.1-.2.4-.3.2,0,.3,0-.2-.2-.3,0,0,0,0-.1,0,0-.3,0-.3-.1,0,0,.2,0,.3,0,0,0,0,0,0,0-.7-.2.2-.3,0-.4-.2-.1-.1-.3,0-.4,0,0,.2-.2,1.4-.3.5,0,1.1-.1,1.4,0,.2,0,.5,0,.5,0,0,0,.2.1.3.2.2.1.7.2.5.4,0,0,.2,0-.3.1,0,0-.1,0,0,0,.8.2.3.4.3.6,0,.2.7.4.4.5.6.2.5.3.3.3-.7.3-.3.6-.5,1-.2.3-.2.7-.3,1,0,0,.3.2,0,.2-.3,0,0,.1-.1.2,0,0,0,.2,0,.2-.7,0-.4.4-.6.6-.2.2-.3.4-.3.7,0,.2.3.5,0,.6,0,0,.2.3-.4,0-.2,0,.2.2.2.3,0,.1,0,.2-.2.3,0,.1-.2.2-.2.4,0,0,.1.3.1.4,0,.1,0,.2-.2.3-.1,0-.4,0-.5,0-.1,0,0,.3-.3.3-.5-.2-.5.2-.7.3-.2.1-.4.3-.5.5,0,.1-.5-.2-.6,0,0,0-1.1-1-1.4-1.4,0,0-.1-.2-.1-.2-.2-.4-.7-1-.6-1,.2,0,.2-.2.3-.3Z"/>
  <path d="M190.3,221.1c-.4.3-.9.6-1.2.9-.1.1-.5,0-.3.6,0,.3-.5,0-.6,0-.3.4-.8.7-1.1,1.1-.3.4-.5.9-.9,1.3-.3.4-.9.6-1.1,1.1-.1.5-.8.4-1,.8-.2.4-.5.8-1,.9-.4,0-.7.1-.9.4-.1.2,0,.5-.2.7-.2.1-.5,0-.2.6,0,0-.1,0-.2,0-.4-.2-.6,0-.6.4,0,.3-.1.4-.2.5-.3.3-.7.6-1,.9-.3.2-.7.2-1,.4-.3.2-.4.6-.9.6-.4,0-.7.2-.9.4-.1.1-.5,0-.2.6,0,0,0,0,0,0-.9-.3-.7.8-1.2,1-.6.2-.9.6-1.3.9-.1,0-.3,0-.2.5,0,.2,0,.3-.2.2-.7-.3-.8.3-1.2.4-.5.2-.7.7-1.3.5-.3,0-.6,0-.4.6,0,.3-.3.2-.4.3,0,.1,0,.4-.2.5,0,0-.3,0-.5,0,0,0,0,0,0,0-.2.9-1.3.6-1.8,1.1-.5.5-1.1.8-1.8,1.1-.4.2-.8.2-1.6-.7-.4-.4-.6-.9-.7-1.2,0-.3,0-.5,0-.7.1-.2.2-.4.4-.6.3-.4.4-1.1.9-1.1.2,0,.1-.3.5,0,0,0,.1,0,.1,0,0-1,.9-.9,1.4-1.3.4-.3.5-1.1,1.1-1.2-.1-.7.2-.8.6-.8,1.2,0,1.8-1,2.7-1.5.9-.5,1.7-1.2,2.5-1.8.1-.1,0-.5.4-.4.3,0,.4-.2.6-.4.2-.1.2-.4.5-.4,1,0,1.4-.8,2.1-1.3.7-.5,1.3-.9,1.8-1.6.3-.4.4-1,.9-1.2.2,0,.1-.5.7-.2.2,0,0-.4,0-.5.2-.3.5-.5.7-.7.3-.3.7-.6,1-1,.2-.2.2-.6.4-.8.2-.3.4-.5.7-.6.3-.2.8-.3,1.1-.6.3-.2.5-.7,1-.8.9-.1,1.3-.8,2-1.2.7-.4,1.4-.8,2.1-1.2.4-.3,1,0,1.4-.1.2,0,.9,1.2,1,1.8,0,0,0,.2,0,.2-.2.6-.2,1.3-.5,1.4-.5.2-1,.5-1.5.8Z" fill="#fff"/>
  <path d="M188.6,243.9c-.3.3-.6.6-.9,1,0,.1-.4,0-.1.6.1.2-.4,0-.5,0-.2.3-.6.5-.8.9-.2.3-.4.8-.6,1.1-.3.3-.8.3-.8.8,0,.4-.6.2-.8.5-.2.3-.4.6-.8.6-.3,0-.6,0-.7.2,0,.1,0,.5-.1.6-.1,0-.4,0-.2.5,0,0,0,0-.2,0-.4-.2-.5-.1-.5.2,0,.3,0,.3-.2.4-.3.2-.5.4-.8.6-.2,0-.6,0-.8.1-.3,0-.3.5-.7.3-.4-.1-.6,0-.8.1-.1,0-.4-.1-.2.5,0,0,0,0,0,0-.7-.5-.5.6-1,.6-.5,0-.7.3-1.1.5,0,0-.3,0-.2.4,0,.2,0,.2-.2.1-.5-.4-.7,0-1,0-.4,0-.6.4-1.1.1-.2-.1-.4-.1-.4.5,0,.3-.2,0-.3.2,0,0,0,.4-.2.4,0,0-.3-.1-.4-.2,0,0,0,0,0,0-.2.8-1,.2-1.5.5-.4.4-1,.5-1.5.5-.3,0-.6,0-1.1-1.1-.2-.5-.4-1-.4-1.3,0-.3,0-.5.1-.6.1-.1.2-.3.3-.4.2-.3.4-.9.7-.7.1,0,.1-.3.4.2,0,0,0,0,0,0,.1-.9.7-.5,1.1-.8.3-.2.4-.9.8-.8,0-.7.2-.7.4-.6.9.3,1.4-.4,2.1-.6.7-.2,1.3-.7,1.9-1,.1,0,0-.4.3-.3.2.2.3-.1.4-.2.1,0,.2-.3.4-.2.8.3,1.1-.4,1.6-.6.5-.3,1-.5,1.4-1,.2-.3.3-.8.6-.9.2,0,0-.4.5,0,.1.1,0-.3,0-.4.2-.2.4-.3.5-.5.3-.2.5-.4.7-.7.1-.2.1-.5.2-.6.1-.2.3-.3.5-.4.2-.1.6-.2.8-.3.2-.1.2-.5.6-.5.7,0,.9-.5,1.2-.8.4-.3.7-.6,1-1.1.1-.3.7-.1.8-.3,0,0,1.3.7,1.7,1.1,0,0,.1.2.1.2.2.5.6,1.2.3,1.4-.4.3-.7.7-1,1.1Z" fill="#fff"/>
  <path d="M183.4,246.9c-.3-.5-.7-1-1.1-1.4-.1-.2,0-.5-.6-.3-.3,0,.1-.5,0-.6-.4-.4-.6-.9-1-1.3-.4-.4-.9-.7-1.2-1-.4-.4-.5-1-1-1.2-.5-.2-.3-.8-.7-1-.4-.3-.7-.6-.8-1.1,0-.4,0-.7-.4-.9-.2-.1-.5,0-.7-.2-.1-.2,0-.5-.6-.2,0,0,0-.1,0-.2.2-.4,0-.6-.3-.6-.3,0-.4,0-.5-.2-.3-.3-.6-.6-.9-1-.2-.3-.2-.7-.4-1-.2-.3-.6-.4-.6-.8,0-.4-.2-.7-.4-.9-.1-.1,0-.5-.6-.2,0,0,0,0,0,0,.3-.9-.9-.6-1.1-1.1-.2-.5-.7-.8-1.1-1.2-.1-.1,0-.3-.5-.1-.2,0-.3,0-.2-.2.2-.7-.4-.8-.6-1.1-.2-.4-.8-.6-.7-1.2,0-.3,0-.6-.7-.3-.3.1-.2-.2-.4-.3-.1,0-.4,0-.5,0,0,0,0-.3,0-.5,0,0,0,0,0,0-.9,0-.8-1.1-1.4-1.5-.6-.4-1.1-.9-1.5-1.5-.2-.3-.4-.7.2-1.7.3-.5.7-.8,1-1,.3,0,.5-.1.7,0,.2,0,.5.2.7.2.5.2,1.2.1,1.3.7,0,.2.4,0,0,.5,0,0,0,.1,0,.1,1-.1,1.1.7,1.6,1.1.4.4,1.2.3,1.4.9.7-.2.8.1.9.5.2,1.2,1.3,1.7,2,2.6.7.9,1.5,1.6,2.2,2.4.1.1.5,0,.4.4,0,.3.3.4.4.6.1.2.4.2.4.5,0,1.1.9,1.5,1.4,2.2.5.7,1,1.4,1.7,1.9.4.3,1,.5,1.2,1,0,.2.5.2.2.7,0,.2.4,0,.5.1.3.2.5.5.7.8.3.4.6.8.9,1.1.2.2.6.3.8.5.2.2.4.5.6.7.2.4.3.8.5,1.2.2.4.7.5.7,1,0,.9.7,1.3,1.1,1.9.4.6.8,1.2,1.3,1.8.3.3.1.9.4,1.2.1.2-.9,1.2-1.4,1.4,0,0-.2,0-.2,0-.6,0-1.4,0-1.6-.3-.3-.6-.8-1.1-1.2-1.6Z" fill="#fff"/>
  <path d="M184.6,224c-.2-.1-.4-.3-.6-.4,0,0,0-.3-.4.1-.2.2,0-.4,0-.4-.2,0-.3-.3-.6-.3-.2,0-.5,0-.7,0-.2,0-.2-.4-.6-.3-.3.1-.1-.4-.3-.4-.2,0-.4,0-.4-.3,0-.2,0-.5-.1-.5-.1,0-.4.2-.4.2,0,0,0-.3-.4.1,0,0,0,0,0-.2.2-.4,0-.4-.1-.2-.2.2-.2.1-.3,0-.2,0-.3-.2-.4-.3,0-.1,0-.4-.1-.5,0-.1-.4,0-.3-.3,0-.3,0-.4-.1-.5,0,0,0-.3-.4.1,0,0,0,0,0,0,.4-.8-.5,0-.5-.4,0-.3-.3-.3-.5-.5,0,0,0-.2-.3,0-.1.1-.2,0-.1,0,.3-.6,0-.4-.1-.6,0-.2-.4-.1-.2-.6,0-.2,0-.4-.4,0-.2.2,0,0-.2,0,0,0-.3.2-.3.1,0,0,0-.2.1-.3,0,0,0,0,0,0-.7.3-.2-.5-.6-.6-.3,0-.5-.3-.6-.6,0-.1,0-.4.7-1.3.3-.4.7-.8,1-1,.2-.1.4-.3.5-.3.1,0,.3,0,.4,0,.3,0,.7-.3.7,0,0,.1.2,0,0,.3,0,0,0,0,0,0,.7-.4.5.1.7.2.2,0,.7-.2.7.1.5-.4.5-.2.5,0-.2.8.4.7.7,1,.2.3.6.5.9.8,0,0,.3-.2.2,0-.1.2,0,.2.2.2,0,0,.2,0,.2.2-.2.7.3.6.5.8.2.2.4.5.8.5.2,0,.6-.1.6,0,0,0,.3-.1,0,.4,0,.1.2-.2.3-.2.1,0,.2.1.3.2.1.1.3.2.5.3.1,0,.3-.1.5,0,.1,0,.2,0,.3.2,0,.1,0,.4.2.5,0,.1.4,0,.3.3,0,.6.3.5.5.7.2.2.4.4.7.4.2,0,0,.5.2.6,0,0-.6,1.4-.9,1.8,0,0-.1.2-.1.2-.4.3-.9.9-1,.7-.2-.2-.4-.3-.7-.4Z" fill="#fff"/>
  <path d="M188.9,209s0,0-.1,0c0,0,0-.2,0,.3,0,.3,0-.4,0-.3,0,0,0,0-.1,0,0,0,0,.3,0,.4,0,0-.1-.2,0,.1,0,.3,0-.2,0,0,0,.1,0,.2,0,0,0-.2-.1-.4-.1-.3,0,0,0,.4,0,.4,0,0-.1-.3,0,.3,0,0,0,0,0-.1-.1-.4-.2-.4,0,0,0,.3,0,.2,0,.2,0,0,0,0,0,0,0,0-.1-.2-.2-.3,0,0,0,.2,0,0-.1-.3-.2-.2-.2-.2,0,0-.2-.2.1.3,0,0,0,0,0,0-.4-.7,0,.3,0,0-.1-.2,0,0-.1,0,0,0-.1-.1.1.2,0,.1,0,.2,0,0-.4-.5-.2-.2-.3-.3,0,0,0,.2-.3-.2-.1-.2-.2-.2.1.2.2.2,0,0,0,0,0,0,.2.2.2.3,0,0-.2-.2-.2-.2,0,0,0,0,0,0,.4.5-.2-.1-.1,0,0,.2,0,.1,0,0,0,0-.2-.1-1.1-.8-.4-.3-.8-.7-1.1-.9-.2-.2-.3-.3-.4-.4,0,0-.1-.2-.2-.3,0-.2-.4-.6-.2-.5,0,0-.1-.2.3.2,0,0,0,0,0,0-.5-.6,0-.4,0-.5,0,0-.3-.6,0-.5-.4-.5-.2-.5,0-.4.6.4.4,0,.7,0,.2,0,.3-.2.5-.3,0,0-.1-.3,0-.1.2.2.1,0,.1,0s0-.2.1,0c.4.5.4.1.5.1.2,0,.3,0,.4-.2,0-.1,0-.5.2-.4,0,0,0-.3.2.3,0,.2,0-.3,0-.3,0,0,.1,0,.2,0,0,0,.2,0,.3,0,0,0,0-.3.1-.4,0,0,.1,0,.2,0,0,0,.2.3.3.3,0,0,.1-.2.2,0,.1.5.3.2.4.3.1,0,.2.1.4,0,0,0,0,.4.2.4,0,0,0,0,0,.2,0,.1,0,.3,0,.6,0,.4-.1.9-.2,1.2,0,0,0,.2,0,.2-.1.5-.2,1.2-.2,1.1,0,0,0,0-.1,0Z" fill="#fff"/>
  <path d="M423.2,299.4c-1.6,2.1-3.5,4-5.7,5.6-.4.3-.8.5-1.3.8-.4.3-.8.6-1.2,1.1-.3.5-1.5.4-2.3.7-2.3,1-4.8,1.5-7.3,1.8-2.4.3-4.9.3-7.3-.1-2.4-.4-4.7-1.5-6.9-2.3-2-.7-3.2-2.1-4.8-3.3-.4-.3-.8-.6-1.2-1-.4-.3-.8-.7-1.2-1.1-.7-.8-1.3-1.8-1.8-2.8-.6-1.5-1-3-1.2-4.7-.2-1-.4-2.1,0-3.4.4-1.2,1.4-2.1,1.7-3.3,0-.1.5-.4.8-.5,1.2-.5,2.4-1,3.2-1.6.8-.6,1.5-.7,2.3-.9,2.2-.4,4.6-.5,7,.4,1.8.7,3.3,2,4.4,3.6,1.1,1.6,2,3.5,1.9,5.2-.1,1.7-.3,3.2-.7,4.7-.3.9-.9,1.7-.7,2.6,0,0-.1.4-.3.5-1,.9-1.6,1.9-2.2,2.9-.6,1-1.3,2-2.2,2.8-1.9,1.5-3.6,3.2-5.6,4.6-.5.4-1.2.6-1.4,1.3,0,.3-.6.6-1,.7-1.8.5-3.2,1.7-4.9,2.5-1.9.9-3.7,2-5.8,2.3-.9.1-2.1.4-2.9,1.3-.4.4-1.5.4-2.2.7-.6.2-1.1.6-1.8.7-.5.1-1.1,0-1.7,0-.2,0-.4,0-.5,0-3,1.1-6.3.2-9.4-.2-3.2-.4-6.4-1.7-9.1-3.6-1.5-1-2.8-2.5-2.7-4.2,0-.7.5-1.1,1.2-.8.5.2,1.1.4,1.5.7.7.5,1.5.9,2.3,1.3,1.6.8,3.3,1,5,1.8.5.3,1.2.1,1.6.7,0,0,.3.2.4.2,1.3-.1,2.5,0,3.7,0,1.2,0,2.5.2,3.7,0,2.1-.3,4-1.3,6.1-1.6.9-.9,2.3-1.3,3.5-1.6,4.2-1,7.9-3.5,11.4-5.9,1.8-1.2,3.5-2.6,5.1-4.1,1.6-1.5,3-3,4-4.7.3-.6.3-1.2.8-1.8.5-.6.5-1.5.6-2.2,0-.7-.1-1.5,0-2.1,0-1.4-.5-2.8-1.5-3.6-1-.8-2.4-1.2-3.9-1.3-2.9-.2-6.7.9-7.3,3.1-.5,1.3.2,2.9.9,4.5.3.7,1,1.2,1.1,2.2,0,.3.8.5,1.3.9,1,.9,2,1.7,3.1,2.5,1.6,1,3.3,1.9,5.1,2.4,1.1.3,2.3.3,3.4.5.6,0,1.2.1,1.8.2.6,0,1.2.1,1.8.1,1.5.1,3,.1,4.5-.1,1.6-.3,3-1.1,4.4-1.5,1.4-.4,2.6-1.1,3.7-2,1.1-.9,2.1-1.9,3.1-2.9,1.9-2.1,3.4-4.6,4.2-7.3.5-1.5,1.2-2.8,1.5-4.4,0-.7,1.6-1.7,2.1-1.3,0,0,.2.2.2.3.4,1.7.8,3.5.2,5.5-.9,2.9-2.2,5.6-4.1,8.1Z" fill="#00b4e9"/>
  <path d="M410.4,190.7c0-.2,0-.4,0-.6,0,0,.2-.1-.3-.2-.3,0,.4,0,.3-.2,0-.2,0-.3,0-.5,0-.2-.3-.3-.3-.5,0-.2.2-.3,0-.5-.3-.1.2-.3.1-.4-.1-.1-.2-.3,0-.4.2,0,.4-.2.3-.3,0,0-.4-.1-.4-.2,0,0,.3-.1-.3-.2,0,0,0,0,.1,0,.4,0,.4-.1.1-.2-.3,0-.2-.1-.2-.2,0-.1,0-.3,0-.4,0-.1.3-.2.4-.3,0-.1-.2-.2,0-.3.3,0,.3-.2.3-.3,0,0,.3-.1-.3-.2,0,0,0,0,0,0,.8-.1-.2-.3,0-.5.2-.2,0-.3,0-.5,0,0,.2,0-.3-.1-.2,0-.2,0,0,0,.6-.1.3-.3.4-.4.1-.1-.2-.3.3-.4.2,0,.3-.1-.3-.2-.3,0,0-.1,0-.2,0,0-.3,0-.3-.1,0,0,.2,0,.3-.1,0,0,0,0,0,0-.7-.2.2-.4,0-.7-.2-.2,0-.4,0-.7,0-.1.2-.2,1.4-.3.5,0,1.1,0,1.4,0,.2,0,.5,0,.5.1,0,0,.2.1.3.2.2.1.7.3.4.4,0,0,.2.1-.3.1,0,0-.1,0,0,0,.8.2.3.4.3.6,0,.2.7.4.4.5.6.1.5.2.3.3-.7.3-.2.7-.3,1-.1.3,0,.7,0,1,0,0,.3.1,0,.2-.3,0,0,.1,0,.2,0,0,.1.1,0,.2-.7.2-.3.5-.4.8,0,.3-.2.5,0,.8,0,.2.4.3.3.5,0,0,.3.2-.3.2-.2,0,.3,0,.3.1,0,.1,0,.2,0,.3,0,.2,0,.3,0,.5,0,0,.3.2.3.3,0,.1,0,.2,0,.3,0,.1-.3.2-.4.4,0,.1.2.3,0,.4-.5.2-.3.5-.3.7,0,.2-.1.5,0,.7,0,.1-.4.2-.4.4,0,0-1.5,0-2,0,0,0-.2,0-.2,0-.5-.1-1.2-.3-1.1-.4,0-.2,0-.4,0-.6Z" fill="#00b4e9"/>
  <path d="M424.2,193.3c.1-.2.3-.4.3-.7,0,0,.3,0-.1-.4-.2-.2.4,0,.4,0,0-.2.2-.4.3-.6,0-.2,0-.5,0-.8,0-.2.4-.3.2-.6-.2-.3.4-.2.3-.4,0-.2,0-.4.3-.5.2,0,.5,0,.4-.2,0-.1-.3-.3-.2-.4,0,0,.3,0-.2-.4,0,0,0,0,.2,0,.4.1.4,0,.2-.2-.2-.2-.1-.2-.1-.3,0-.2.1-.4.3-.5.1-.1.4-.1.5-.2.1-.1,0-.4.3-.4.3,0,.4-.1.4-.2,0,0,.3,0-.2-.4,0,0,0,0,0,0,.8.2,0-.5.3-.6.3-.1.3-.4.4-.6,0,0,.2,0-.2-.3-.1,0-.1-.2,0-.1.6.1.4-.2.6-.3.2-.1,0-.4.6-.4.2,0,.4,0,0-.4-.2-.2,0-.1,0-.2,0,0-.2-.3-.2-.3,0,0,.3,0,.4,0,0,0,0,0,0,0-.5-.6.5-.4.4-.8,0-.3.2-.6.4-.8.1-.1.4-.2,1.4.3.5.2,1,.5,1.2.7.2.2.4.3.4.4,0,.1.1.3.2.4,0,.3.5.7.1.7-.1,0,.1.2-.3,0,0,0-.1,0,0,0,.6.6,0,.6,0,.9,0,.2.4.7,0,.8.5.4.3.5.1.5-.8,0-.6.7-.9,1-.3.4-.4.8-.7,1.2,0,0,.2.3,0,.2-.3,0-.1.1-.2.2,0,0,0,.2-.1.2-.7,0-.6.5-.8.8-.2.3-.4.6-.5,1,0,.2.2.6,0,.7,0,0,.2.3-.4.1-.2,0,.2.2.2.3,0,.2-.1.3-.2.4,0,.2-.2.3-.3.6,0,.1.1.4.1.5,0,.1,0,.3-.2.4-.1.1-.4.2-.5.3-.1.1,0,.4-.3.4-.6,0-.5.4-.7.7-.2.2-.4.5-.4.8,0,.2-.5,0-.6.2,0,0-1.4-.5-1.8-.8,0,0-.2-.1-.2-.1-.3-.4-.9-.8-.8-1,.2-.2.3-.5.4-.7Z" fill="#00b4e9"/>
  <path d="M449.5,205.5c-.2,0-.5,0-.7,0,0,0-.2-.2-.3.3,0,.3-.1-.4-.2-.3-.2,0-.5,0-.7,0-.2,0-.4.3-.7.3-.2,0-.4-.2-.7,0-.2.3-.3-.2-.5-.1-.2.1-.4.2-.6,0-.1-.2-.3-.4-.4-.3,0,0-.2.4-.2.4,0,0-.2-.3-.2.3,0,0,0,0,0-.1,0-.4-.2-.4-.3-.1,0,.3-.1.2-.2.3-.2,0-.4,0-.6,0-.1,0-.3-.3-.4-.3-.1,0-.3.2-.4,0-.1-.3-.3-.3-.4-.3,0,0-.2-.3-.2.3,0,0,0,0,0,0-.2-.8-.4.3-.6,0-.2-.2-.5,0-.7,0,0,0-.1-.2-.2.3,0,.2,0,.2-.1,0-.2-.6-.3-.2-.5-.4-.2-.1-.4.2-.6-.3,0-.2-.2-.3-.3.3,0,.3-.1,0-.2,0,0,0-.1.3-.2.3,0,0-.1-.2-.2-.3,0,0,0,0,0,0-.3.7-.6-.2-.9,0-.3.2-.6.1-.9,0-.2,0-.3-.2-.4-1.4,0-.5,0-1.1,0-1.4,0-.2.1-.5.2-.5,0,0,.2-.2.3-.3.2-.2.4-.7.6-.4,0,0,.1-.2.2.3,0,0,0,.1,0,0,.3-.8.5-.3.8-.3.2,0,.4-.7.7-.4.1-.6.3-.5.4-.3.4.7.9.2,1.3.3.4,0,.9,0,1.3,0,0,0,.1-.4.2,0,0,.3.2,0,.3,0,0,0,.2-.1.3,0,.4.7.7.3,1.1.3.3,0,.7.1,1,0,.2,0,.4-.4.6-.3,0,0,.2-.3.3.3,0,.2.1-.3.2-.3.1,0,.3,0,.4,0,.2,0,.4,0,.6,0,.1,0,.2-.3.4-.3.1,0,.3,0,.4,0,.2,0,.3.3.5.3.2,0,.3-.2.5,0,.3.5.6.3.9.3.3,0,.6.1.9,0,.2,0,.3.4.5.4,0,0,.2,1.5.2,2,0,0,0,.2,0,.2-.2.5-.3,1.2-.5,1.1-.3,0-.6,0-.8,0Z" fill="#00b4e9"/>
  <path d="M446.5,224c-.2,0-.4,0-.7,0,0,0-.1-.3-.3.3,0,.3,0-.4-.2-.4-.2,0-.4,0-.6,0-.2,0-.4.2-.6.3-.2,0-.4-.3-.6,0-.2.2-.3-.3-.4-.2-.2,0-.4.1-.5-.1,0-.2-.1-.4-.3-.4,0,0-.2.3-.3.3,0,0,0-.3-.3.3,0,0,0,0,0-.2,0-.4,0-.4-.2-.2-.1.2-.2.2-.3.2-.2,0-.4,0-.5-.2-.1,0-.1-.4-.2-.5-.1-.1-.3.1-.3-.2,0-.3-.1-.4-.2-.4,0,0,0-.3-.3.2,0,0,0,0,0,0,.1-.8-.5,0-.6-.2,0-.3-.4-.2-.5-.3,0,0,0-.2-.3.2,0,.1-.2.1-.1,0,.2-.6-.2-.4-.3-.5,0-.2-.4,0-.3-.5,0-.2,0-.4-.4,0-.2.2-.1,0-.2,0,0,0-.3.2-.3.2,0,0,0-.2,0-.4,0,0,0,0,0,0-.6.4-.3-.5-.6-.5-.3,0-.5-.2-.6-.5,0-.1,0-.4.6-1.3.3-.4.6-.9.9-1.1.2-.2.4-.3.4-.3.1,0,.3,0,.4-.1.2,0,.6-.4.6-.1,0,0,.2-.1,0,.3,0,0,0,.1,0,0,.6-.5.5,0,.7,0,.2,0,.6-.4.6,0,.4-.5.4-.4.4-.1,0,.7.4.5.6.7.2.2.6.3.8.4,0,0,.2-.3.2,0,0,.3.1.1.2.1,0,0,.2,0,.2,0,0,.7.4.4.6.6.2.1.4.3.7.2.2,0,.4-.4.5-.2,0,0,.2-.2.1.3,0,.2.1-.3.2-.3.1,0,.2,0,.3,0,.1,0,.3,0,.4,0,0,0,.2-.3.3-.3,0,0,.2,0,.3,0,.1,0,.2.3.3.4.1,0,.3-.2.3,0,.2.5.4.3.6.3.2,0,.4.1.6,0,.1,0,.2.4.4.4,0,0,.2,1.5.2,2,0,0,0,.2,0,.2-.1.5-.2,1.2-.4,1.2-.2,0-.5,0-.7,0Z" fill="#00b4e9"/>
  <path d="M438.8,238.7c-.1,0-.2-.1-.4-.1,0,0,0-.3-.3.2-.1.2,0-.4,0-.4-.1,0-.2-.1-.4-.1-.1,0-.4.1-.5.1-.1,0-.1-.3-.4-.1-.2.2,0-.3-.2-.2-.2,0-.3,0-.3-.2,0-.2,0-.4,0-.4,0,0-.3.3-.3.2,0,0,0-.3-.3.2,0,0,0,0,0-.1.2-.4.1-.4,0-.2-.2.2-.2.1-.2.1-.1,0-.2,0-.3-.2,0,0,0-.3,0-.4,0,0-.3,0-.1-.2.1-.3,0-.3,0-.4,0,0,.1-.3-.3.2,0,0,0,0,0,0,.4-.7-.4,0-.3-.2,0-.2-.2-.2-.3-.3,0,0,0-.2-.3.1-.1.1-.2,0,0,0,.4-.5,0-.3,0-.5,0-.2-.3,0,0-.5.1-.2.2-.3-.3,0-.2.2,0,0-.1,0,0,0-.3.2-.3.1,0,0,.1-.2.2-.3,0,0,0,0,0,0-.6.3,0-.4-.3-.4-.2,0-.3-.2-.3-.4,0-.1,0-.3,1-1,.4-.3.9-.6,1.1-.8.2-.1.4-.2.5-.3.1,0,.2,0,.3-.1.2,0,.7-.3.5,0,0,0,.2,0-.2.2,0,0,0,0,0,0,.7-.4.3,0,.5,0,0,0,.6-.3.5,0,.5-.4.5-.3.3-.1-.4.6,0,.4.1.6,0,.2.3.2.4.4,0,0,.3-.2.1,0-.1.2,0,0,0,.1,0,0,.1,0,0,0-.3.6,0,.4.1.5,0,.1.2.3.4.2.1,0,.4-.3.4-.1,0,0,.2-.2,0,.3,0,.1.2-.2.2-.2,0,0,.1,0,.2,0,0,0,.1.1.2.1,0,0,.2-.2.3-.2,0,0,.1,0,.1,0,0,0,0,.3,0,.4,0,0,.2-.1.2.1-.1.5.1.3.2.4,0,.1.2.2.3.1,0,0,0,.5,0,.5,0,0,0,.4-.2.8-.1.4-.3.9-.4,1.1,0,0,0,.2,0,.2-.2.4-.6,1.1-.6,1-.1-.1-.3-.1-.4-.2Z" fill="#00b4e9"/>
  <path d="M395,202c-.2,0-.4-.2-.7-.2,0,0,0-.3-.4.1-.2.2,0-.4,0-.4-.2,0-.3-.2-.5-.3-.2,0-.5,0-.7,0-.2,0-.1-.4-.5-.3-.3,0,0-.4-.2-.4-.2,0-.3,0-.2-.3,0-.2.2-.4,0-.4,0,0-.4.2-.4,0,0,0,.2-.3-.4,0,0,0,0,0,0-.1.3-.3.2-.3,0-.2-.2.1-.2,0-.3,0-.1,0-.2-.2-.2-.3,0,0,.1-.3.1-.4,0-.1-.3,0,0-.3.2-.2.1-.3,0-.4,0,0,.2-.3-.4.1,0,0,0,0,0,0,.6-.6-.3,0-.3-.2,0-.2-.1-.2-.2-.3,0,0,0-.2-.3.1-.1,0-.2,0,0,0,.4-.5,0-.3.1-.4,0-.1-.2,0,0-.4.1-.2.2-.3-.3.1-.2.2,0,0-.1,0,0,0-.2.2-.3.2,0,0,.1-.2.2-.3,0,0,0,0,0,0-.5.5,0-.3-.2-.2-.2,0-.2,0-.2-.1,0,0,0-.2.4-1.3.2-.5.4-1,.5-1.3.1-.2.2-.4.3-.4.1,0,.2-.2.3-.2.2-.1.6-.5.6-.2,0,.1.2-.1,0,.3,0,0,0,.1,0,0,.6-.5.5,0,.7,0,.2,0,.7-.3.7,0,.5-.4.5-.2.5,0-.2.7.3.6.5.9.1.3.4.5.5.7,0,0,.3-.1.1,0-.2.2,0,.1,0,.2,0,0,.2,0,0,.1-.4.6,0,.5.1.7,0,.2.1.4.4.4.1,0,.5-.1.4,0,0,0,.3-.1-.1.3-.1.1.3-.1.3-.1,0,0,0,0,.1.1,0,0,0,.2.2.2,0,0,.3-.2.3-.2,0,0,0,0,0,0,0,0-.1.3-.1.3,0,0,.2-.1,0,.1-.2.5,0,.3,0,.4,0,0,0,.2.2,0,0,0,0,.4,0,.4,0,0,0,1.5,0,2,0,0,0,.2,0,.2-.1.5-.3,1.2-.5,1.1-.3,0-.5-.1-.8-.2Z" fill="#00b4e9"/>
  <g>
    <g>
      <path d="M310.8,147.7c-1.2-2-2.4-4.1-3.7-6.1-.5-.7-.7-1.6-1.7-2.1-.5-.2-.4-1.3-.8-2-1.2-1.8-2.3-3.8-3.5-5.6-.6-.8-1.2-1.5-1.9-2.1-.7-.5-1.3-.9-2.2-1.3-1.6-.7-3.6-1.4-5.6-1.6-1.7,0-3.2-.9-4.8-1-1.8-.1-3.6-.3-5.2-.6-1.2-.3-2.5-.6-3.7-.5-.8,0-1.5.3-2.4.3-.8,0-1.7-.3-2.4.4,0,0-.4,0-.6-.1-.9-.4-1.9-.3-2.6,0-.7.3-1.3.3-1.9.4-1.7.2-3.3.5-4.7.9-1,.3-2,.6-2.9,1.3-.9.7-1.3,1.8-2.1,2.7-.8.9-1.2,2-1.5,3.1-.2.7-.7,1.4-.2,2.1,0,0,0,.3-.1.4-1.3,1.8-.6,4-1.2,6-.6,2.1-.8,4.3-1.1,6.4,0,.6-.4,1.2,0,1.8.1.2,0,.8,0,1.1-.8,1.5-.6,3.3-.9,4.9-.3,1.9-.2,3.8-.9,5.7-.3.8-.5,1.9,0,2.9.2.5-.1,1.4,0,2.1,0,.6.2,1.1.2,1.7,0,.5-.3.9-.4,1.4,0,.1,0,.3,0,.5.5,2.8-.5,5.5-.5,8.3,0,2.8-.1,5.7-.3,8.5,0,1.6-.3,3.2-1.5,4.2-.5.5-1.1.5-1.4-.2-.2-.5-.5-1.1-.5-1.6,0-.9-.2-1.8-.3-2.7-.2-1.8-.6-3.6-.3-5.5.1-.6-.2-1.3.4-1.7,0,0,.1-.3,0-.4-.7-2.5,0-5.1,0-7.7,0-2.2-.4-4.3,0-6.5-.5-1.3-.3-2.7,0-3.9,1-4.2,1.1-8.6,1.8-12.9.7-4.3,1.4-8.7,2.4-13,.2-.7,0-1.5.5-2.3.5-.8.6-1.9,1-2.9.3-.9.7-1.9,1.3-2.6,1.3-1.5,2.7-3,4.4-4.1,1.7-1.1,3.6-1.8,5.4-2.1,1.8-.3,3.6-.4,5.3-.5,1.7,0,3.5-.2,5.2-.3,2.1,0,4.2-.4,6.4,0,.9.1,1.9-.1,2.7.6.2.2,1.1-.2,1.7,0,1.5.1,2.9.4,4.3.7,2,.4,3.9.8,6,1.4,1.3.3,2.6.6,4,1.3,1.4.7,2.7,1.9,3.6,3.1,1.1,1.5,1.7,3.1,2.5,4.4.8,1.4,1.9,2.8,2.5,4.3,1.1,2.8,2.9,5.1,4.3,7.7,1.5,2.5,3,5,4.6,7.5.9,1.4,1.3,2.9,2.1,4.3.4.6-.3,2.3-.9,2.3-.1,0-.3,0-.4-.1-1.2-1.1-2.6-2-3.5-3.5-1.3-2.3-2.8-4.6-4.2-6.9Z"/>
      <path d="M299.1,158.7c.4,0,.7-.2,1.1-.3.1,0,.3.2.3-.4,0-.3.3.3.4.2.3-.2.7-.1,1-.3.3-.1.6-.4.9-.6.3-.1.7,0,.9-.3.2-.3.6.1.8,0,.2-.2.5-.3.8-.1.2.1.5.3.6.2.1,0,.2-.4.3-.4.1,0,.3.2.3-.4,0,0,0,0,.1.1.2.4.4.3.4,0,0-.3.2-.3.3-.3.3,0,.5-.2.8-.2.2,0,.5.2.7.2.2,0,.4-.3.7,0,.3.3.4.2.6.2.1,0,.3.2.3-.4,0,0,0,0,0,0,.4.8.6-.4,1-.2.4.2.7,0,1-.1,0,0,.2.2.2-.3,0-.2.1-.2.2,0,.3.6.5.2.8.2.3,0,.6-.2.9.2.1.2.3.3.4-.3,0-.3.2,0,.3,0,0,0,.1-.3.2-.4,0,0,.2.2.3.3,0,0,0,0,0,0,.4-.7.9.1,1.3,0,.4-.2.9-.2,1.3-.1.2,0,.5.2.7,1.3.1.5.1,1.1,0,1.4,0,.2-.1.5-.2.5-.1.1-.3.3-.4.4-.3.2-.5.8-.8.5,0,0-.2.2-.3-.3,0,0,0-.1,0,0-.3.8-.7.3-1.1.4-.3,0-.6.7-.9.5-.1.6-.3.6-.5.4-.7-.6-1.3,0-1.9,0-.7,0-1.3.2-1.9.2-.1,0-.1.4-.3.1-.2-.2-.3,0-.4,0-.1,0-.2.2-.4,0-.6-.6-1,0-1.6,0-.5,0-1,0-1.5.3-.3.2-.5.6-.8.5-.1,0-.2.3-.5-.2,0-.2,0,.3-.2.4-.2,0-.4.1-.6.2-.3,0-.6,0-.9.2-.2,0-.3.4-.4.5-.2.1-.3.1-.5.1-.2,0-.5-.2-.8-.2-.3,0-.4.3-.7.1-.6-.4-.9,0-1.4,0-.4,0-.9.1-1.3.4-.2.1-.6-.3-.8-.2-.1,0-.7-1.3-.8-1.8,0,0,0-.2,0-.2.1-.5.1-1.3.4-1.3.4,0,.8-.2,1.2-.3Z"/>
      <path d="M286.4,150.2c0-.1.1-.2,0-.4,0,0,.3,0-.2-.2-.2,0,.4,0,.4,0,0-.1,0-.2,0-.4,0-.1-.2-.3-.2-.4,0-.1.3-.2,0-.4-.2-.2.3-.1.2-.2,0-.1-.1-.3.1-.3.2,0,.4,0,.3-.1,0,0-.3-.2-.3-.2,0,0,.3,0-.3-.2,0,0,0,0,.1,0,.4,0,.4,0,.1-.1-.2-.1-.2-.1-.2-.2,0-.1,0-.2,0-.3,0,0,.3,0,.4-.1,0,0-.2-.2.1-.2.3,0,.3,0,.3-.1,0,0,.3,0-.3-.2,0,0,0,0,0,0,.8.1-.2-.3,0-.3.2,0,.1-.2.1-.3,0,0,.2,0-.2-.2-.2,0-.2,0,0,0,.6.1.3,0,.4-.2.1,0-.1-.3.4-.2.2,0,.3,0-.2-.2-.2-.1,0,0,0-.1,0,0-.3-.2-.3-.2,0,0,.2,0,.3,0,0,0,0,0,0,0-.6-.4.3-.2.2-.4-.1-.2,0-.3.1-.4,0,0,.3,0,1.4.2.5.1,1,.3,1.3.5.2.1.4.2.5.3,0,0,.2.2.3.2.2.2.6.4.3.4,0,0,.2.1-.3,0,0,0-.1,0,0,0,.7.4.2.3.2.5,0,.1.6.4.3.5.6.3.5.3.3.3-.7,0-.3.4-.5.6-.2.2-.1.4-.2.6,0,0,.3.2,0,.1-.3,0,0,0,0,.1,0,0,.1.1,0,.1-.7,0-.4.3-.5.4-.1.2-.2.3-.1.5,0,.1.4.3.2.4,0,0,.2.2-.3,0-.2,0,.3.1.3.2,0,0,0,.1,0,.2,0,.1-.1.2,0,.3,0,0,.2.2.3.3,0,0,0,.1,0,.2,0,0-.3,0-.4.1,0,0,.2.2-.1.2-.5,0-.3.2-.4.4-.1.1-.2.3-.1.5,0,.1-.5,0-.5.1,0,0-1.4-.3-1.9-.5,0,0-.2,0-.2,0-.4-.2-1.1-.5-1-.6.1-.1.1-.3.1-.4Z"/>
      <path d="M296.4,152.2c0-.1.1-.2,0-.4,0,0,.3,0-.2-.2-.2,0,.4,0,.4,0,0-.1,0-.2,0-.4,0-.1-.2-.3-.2-.4,0-.1.3-.2,0-.4-.2-.2.3-.1.2-.2,0-.1-.1-.3.1-.3.2,0,.4,0,.3-.1,0,0-.3-.2-.3-.2,0,0,.3,0-.3-.2,0,0,0,0,.1,0,.4,0,.4,0,.1-.1-.2-.1-.2-.1-.2-.2,0-.1,0-.2,0-.3,0,0,.3,0,.4-.1,0,0-.2-.2.1-.2.3,0,.3,0,.3-.1,0,0,.3,0-.3-.2,0,0,0,0,0,0,.8.1-.2-.3,0-.3.2,0,.1-.2.1-.3,0,0,.2,0-.2-.2-.2,0-.2,0,0,0,.6.1.3,0,.4-.2.1,0-.1-.3.4-.2.2,0,.3,0-.2-.2-.2-.1,0,0,0-.1,0,0-.3-.2-.3-.2,0,0,.2,0,.3,0,0,0,0,0,0,0-.6-.4.3-.2.2-.4-.1-.2,0-.3.1-.4,0,0,.3,0,1.4.2.5.1,1,.3,1.3.5.2.1.4.2.5.3,0,0,.2.2.3.2.2.2.6.4.3.4,0,0,.2.1-.3,0,0,0-.1,0,0,0,.7.4.2.3.2.5,0,.1.6.4.3.5.6.3.5.3.3.3-.7,0-.3.4-.5.6-.2.2-.1.4-.2.6,0,0,.3.2,0,.1-.3,0,0,0,0,.1,0,0,.1.1,0,.1-.7,0-.4.3-.5.4-.1.2-.2.3-.1.5,0,.1.4.3.2.4,0,0,.2.2-.3,0-.2,0,.3.1.3.2,0,0,0,.1,0,.2,0,.1-.1.2,0,.3,0,0,.2.2.3.3,0,0,0,.1,0,.2,0,0-.3,0-.4.1,0,0,.2.2-.1.2-.5,0-.3.2-.4.4-.1.1-.2.3-.1.5,0,.1-.5,0-.5.1,0,0-1.4-.3-1.9-.5,0,0-.2,0-.2,0-.4-.2-1.1-.5-1-.6.1-.1.1-.3.1-.4Z"/>
    </g>
    <path d="M296.6,172.2c-.8.4-1.7.7-2.5,1-.3.1-.7,0-.9.5-.1.3-.5-.3-.8-.2-.8.2-1.6,0-2.4,0-.8,0-1.5.2-2.3,0-.7,0-1.4-.5-2.1-.3-.6.1-1-.5-1.6-.5-.3,0-.6,0-.9-.1-.2,0-.3,0-.4-.2-.2,0-.2-.1-.5-.3-.6-.4-1.1-.8-1.8-1-.4-.1-1.1,0-1.5-.3-.4-.2-.4-.6-1.5-.5,0,0-.1-.2,0-.2.1-.4-.3-.7-.9-.8-.6-.1-.8-.4-1-.6-.7-.6-1.4-1.2-2-1.8-.2-.2-.3-.4-.3-.6.4,0,.9-.2,1.2-.3.9-.2,1.3-.7,2.5-.8,1.2,0,1.8-.3,2.4-.6.4-.1,1,0,.9-.7,0,0,.1-.1.2,0,.9.1,1.3-.1,1.8-.5.2-.3.4-.6.8-.6.7,0,1.2-.5,1.8-.8.2,0,.4,0,.3-.5,0-.2.1-.3.3-.2.7.3,1-.3,1.4-.4.5-.2.8-.7,1.6-.7.3,0,.7,0,.6-.8,0-.3.4-.3.6-.5.2-.2.2-.5.4-.6.2-.1.5,0,.7,0,0,0,.1,0,.2,0,.4-.6,1.1-.7,1.8-.7.7,0,1.4.2,2.2.2.8,0,1.6.4,2.1.8.5.3.8.7,1,.9.1.1.2.2.1.4,0,.2,0,.5,0,1.1,0,.5,0,1.1-.3,1.4-.2.2-.5.4-.8.3-.4,0-.8-.1-1.1-.2-.7-.2-1.4-.2-1.5-.5,0-.1-.2.1-.1-.4,0,0,0-.1,0,0-.3.3-.4.4-.6.4-.2,0-.5,0-.7,0-.4.2-.5,1-1.2,1.1,0,.7-.3.9-.8.9-1.6.3-2.6,1.4-3.9,2l-2,.9-1,.4h-.2c0,0,0,.1,0,.1,0,0,.2.3,0,.1-.3-.2-.2,0-.2,0,0,0,.1.1-.2,0-.6-.1-1,0-1.1,0,0,0-.1,0-.1.1.1,0,.2.1.2.2,0,.2.4.5.9.5.3,0,.6-.2.7,0,0,0,0,0,0,0,0,0,.1,0,.2,0,.1,0,.2.1.3.5,0,.2.4-.2.6-.2.4,0,.8.2,1.2.3.6.1,1.1.3,1.7.4.3,0,.7-.2,1.1-.2.4,0,.7,0,1,.1.4.1.8.3,1.3.4.4,0,.9-.2,1.3,0,.8.4,1.5,0,2.2-.3.7-.2,1.4-.6,1.8-1.2.2-.3.8-.2,1.1-.6,0-.1,1.5.4,1.9.7,0,0,.1.2.1.2.1.7.3,1.6-.2,2.2-.8.7-1.6,1.4-2.5,1.9Z"/>
    <path d="M308.6,177c-.3,0-.6-.1-.9-.1-.1,0-.2-.3-.4.2-.1.2,0-.4-.2-.4-.3,0-.5-.2-.8-.2-.3,0-.6.1-.9,0-.3,0-.4-.4-.8-.2-.3.2-.3-.4-.5-.3-.2,0-.5,0-.6-.3,0-.2,0-.5-.3-.5-.1,0-.3.3-.4.2,0,0,0-.4-.4.2,0,0,0,0,0-.2.1-.4,0-.4-.2-.2-.2.2-.3.1-.3,0-.2,0-.4-.2-.5-.3-.1-.1-.1-.4-.2-.5-.1-.1-.4,0-.4-.3,0-.3,0-.4-.2-.5,0,0,0-.3-.4.1,0,0,0,0,0,0,.3-.8-.5,0-.6-.4,0-.3-.4-.4-.6-.5,0,0,0-.2-.3,0-.1.1-.2,0-.1,0,.3-.6-.1-.4-.2-.6,0-.2-.4-.2-.3-.7,0-.2,0-.4-.4,0-.2.2-.1-.1-.2-.1,0,0-.3.1-.4,0,0,0,0-.2.1-.4,0,0,0,0,0,0-.7.2-.3-.6-.6-.7-.2,0-.3-.2-.4-.3-.1-.1-.3-.4-.4-.7-.1-.3-.1-.7.9-1.3.5-.3,1-.5,1.3-.6.2,0,.4-.1.5-.1,0,0,.2,0,.3,0,.2,0,.6-.4.6,0,0,.1.2,0-.1.3,0,0,0,0,0,0,.7-.4.5.2.8.3.2.1.8-.2.7.1.5-.4.5-.2.5,0-.2.8.5.7.7,1,.3.3.6.5,1,.8,0,0,.3-.2.2,0,0,.3.1.1.2.2,0,0,.2,0,.2.2-.1.7.4.6.6.8.2.2.5.5.9.5.2,0,.6-.2.7,0,0,0,.3-.2,0,.4,0,.2.2-.2.3-.2.1,0,.2,0,.4.1.2,0,.3.2.5.2.1,0,.3-.2.4-.2.1,0,.2,0,.3.1,0,.1.2.4.3.4.1,0,.3-.1.4.2.1.6.4.3.7.4.2,0,.5.1.7,0,.1,0,.3.4.4.4,0,0,.3,1.5.3,2,0,0,0,.2,0,.2-.1.5-.3,1.2-.5,1.2-.4,0-.7,0-1.1,0Z"/>
    <path d="M308.8,175.1c-.2-.3-.4-.7-.6-1,0-.1.1-.3-.4-.3-.3,0,.3-.3.2-.4-.2-.3-.2-.6-.3-.8-.1-.2-.4-.4-.6-.7-.1-.2,0-.6-.3-.7-.3-.1,0-.5-.1-.6-.2-.2-.3-.4-.2-.7.1-.2.3-.4.1-.6,0,0-.4,0-.4-.2,0-.1.2-.3-.4-.2,0,0,0,0,.1-.1.4-.2.3-.3,0-.4-.3,0-.3,0-.3-.2-.1-.2-.2-.4-.2-.7,0-.2.2-.4.2-.6,0-.2-.3-.3,0-.5.2-.2.2-.4.1-.5,0,0,.2-.3-.4-.1,0,0,0,0,0,0,.7-.5-.4-.4-.3-.6.1-.3,0-.4-.2-.6,0,0,.1-.2-.3,0-.2,0-.2,0,0,0,.5-.4,0-.4.1-.5,0-.2-.3-.1,0-.5.1-.2.1-.3-.3,0-.2.2,0,0-.1,0,0,0-.3.2-.3.2,0,0,.1-.2.1-.3,0,0,0,0,0,0-.2.2-.3.2-.3,0,0-.1,0-.3,0-.3-.2.1-.2,0-.2,0,0,0,0-.2-.4-1.3-.2-.5-.3-1-.3-1.4,0-.2,0-.5.1-.6.1-.1.3-.3.4-.4.3-.2.8-.7,1.1-.4,0,.1.3-.1.3.4,0,0,0,.1,0,0,.7-.6,1,0,1.4.3.3.2,1.1-.1,1.2.4.6-.3.7,0,.8.3,0,.6.2.9.4,1.2.2.3.5.6.6.9.2.7.5,1.2.6,1.8,0,0,.4,0,.2.3-.2.2,0,.3,0,.4,0,.1.2.2,0,.3-.5.6,0,.9,0,1.3,0,.4.1.8.4,1.2.2.2.6.3.5.6,0,.1.3.1-.2.4-.2,0,.3,0,.4,0,.1.1.1.3.2.5,0,.2.1.5.2.7,0,.1.4.2.5.3.1.1.2.3.1.4,0,.2-.2.5-.1.7,0,.2.3.3.1.5-.4.5,0,.6,0,.9,0,.2.2.4.4.5,0,0-.2.4,0,.5,0,0-.2.3-.3.7-.2.4-.4.8-.5,1.1,0,0-.1.2-.2.2-.4.3-1.1.7-1.4.4-.4-.4-.7-.8-1-1.2Z"/>
    <path d="M295.8,194.7c-1.5-.3-3-.5-4.5-.7-.6,0-1.1-.4-1.8,0-.3.2-.8-.5-1.3-.6-1.4-.2-2.8-.5-4.2-.7-1.4-.2-2.8-.3-4.2-.5-1.4-.2-2.7-.8-4.1-.9-.6,0-1.2-.2-1.7-.5-.6-.3-1.1-.6-1.7-.8-.7-.2-1.5-.6-2.2-1.3-.8-.7-1.1-1.6-1.3-2.3-.2-1.1-.2-1.8-.5-2.6-.2-.5-.6-.9-.8-1.5-.1-.5,0-1.2-.7-1.5,0,0,0-.3,0-.4.3-.7.1-1.3-.2-1.8-.4-.4-.4-.8-.5-1.3-.2-1.2-.4-2.4-.5-3.6,0-.9.1-1.8.1-2.7,0-.9-.3-2,0-2.8.3-.9.3-1.7.3-2.5,0-.5.3-1-.3-1.4,0,0,0-.2,0-.3.9-1.3-.2-2.6,0-3.9.2-1.3,0-2.7-.3-4,0-.3,0-.7-.5-1-.2,0-.3-.4-.2-.6.2-.5.1-.9,0-1.2-.1-.3-.4-.5-.4-.6-.2-.4-.8-.3-1.8-.7-.4-.2-1.1-.2-1.4.5-.2.3-.7.2-.9.4-.2.1-.3.5-.4.6-.1,0-.4,0-.5,0,0,0,0,0,0,0,0,.4,0,.5,0,.9,0,.4,0,1.2.3,1.8.4.7.8,1.4,1.2,2.1.4.6.7,1.1,1.1,1.3.2.2.4.3.5.5.2.2.3.6.7,1.1.3.4.6.9.2,1.4-.3.3-.8.6-1.3.5-.8,0-1.5-.2-2.2-.5-1.4-.7-2.7-1.7-3-3-.1-.4-.6-.7-.3-1.2,0,0,0-.2,0-.3-.7-.6-1.2-1.5-1.4-2.6-.2-1.1,0-2.3.4-3.5.8-2,2.5-3.6,4.2-3.8.7-.9,1.9-1,2.9-.8.9.1,1.9.3,2.9.7,1,.4,2,1.1,2.6,2,.7.8,1,1.7,1.3,2.5.3.8.4,1.6.5,2.3.4,3,.5,6,.4,8.8,0,.5.3.9,0,1.4-.3.5,0,1.2,0,1.8,0,.5.1,1.1,0,1.6-.6,2.1,0,4.3.2,6.4.2,2.1.5,4.2,1.2,6.2.2.6.5,1.2.7,1.8.3.6.5,1.2.6,1.8,0,.2.2.4.3.5,0,.1,0,.3,0,.5,0,.2.4,0,.6,0,.2.1.5.3.9.4.4.2.7.3,1.1.4,1.1.3,2.3.7,3.5.9.7.1,1.5,0,2.3.1.8.1,1.6.3,2.4.5,1,.3,1.9.7,2.9.9,1,.3,2.2.2,3.1.6,1.8.8,3.7.9,5.5,1.3,1.8.4,3.7.7,5.6.9,1.1.1,1.9.8,3,.9.5,0,.9,1.6.6,2.1,0,0-.1.2-.2.2-1.1.3-2.1.9-3.3.6-1.7-.3-3.4-.6-5.1-.9Z"/>
    <path d="M302.1,191.6c0-.3,0-.6,0-.9,0-.1.2-.3-.3-.3-.3,0,.3-.2.3-.3-.1-.3,0-.6-.1-.9-.1-.3-.4-.5-.5-.8,0-.3.1-.6-.2-.9-.3-.2.1-.5,0-.7-.2-.2-.3-.5-.1-.8.1-.2.3-.4.2-.6,0,0-.4-.1-.4-.3,0-.1.2-.3-.4-.3,0,0,0,0,.1-.1.4-.2.3-.3,0-.4-.3,0-.3-.1-.3-.2,0-.2-.2-.5-.1-.8,0-.2.2-.4.2-.6,0-.2-.3-.4,0-.6.3-.2.2-.4.2-.6,0-.1.2-.3-.4-.2,0,0,0,0,0,0,.8-.5-.4-.5-.2-.9.1-.3,0-.6-.1-.9,0,0,.1-.2-.3-.2-.2,0-.2,0,0-.1.6-.4.1-.5.2-.8,0-.3-.3-.5.2-.9.2-.2.3-.3-.3-.4-.3,0,0-.2-.1-.3,0,0-.3-.1-.4-.2,0,0,.2-.2.3-.3,0,0,0,0,0,0-.7-.3,0-.9-.2-1.2-.2-.4-.2-.9-.2-1.3,0-.3.2-.6,1.3-.8.5,0,1.1,0,1.4,0,.2,0,.5.1.5.2.1.1.2.2.3.3.2.2.8.4.5.7,0,0,.2.1-.3.3,0,0-.1,0,0,0,.8.2.4.6.5,1,0,.3.8.5.6.8.7,0,.6.3.4.5-.5.7,0,1.2,0,1.8,0,.6.2,1.2.3,1.8,0,.1.4.1.1.3-.2.2,0,.3,0,.4,0,.1.2.2,0,.4-.6.6,0,1,0,1.5,0,.5,0,1,.3,1.4.2.3.5.5.5.8,0,.1.3.2-.2.4-.2,0,.3.1.3.2,0,.2,0,.4.1.6,0,.3,0,.6.2.9,0,.2.3.3.4.5,0,.2.1.4,0,.6,0,.2-.2.5-.2.8,0,.3.3.5,0,.8-.5.5-.2.9-.2,1.4,0,.4,0,1,0,1.4,0,.3-.5.6-.5.8,0,.2-1.5,0-2-.2,0,0-.2,0-.2,0-.4-.3-1.1-.5-1.1-.7,0-.3,0-.6,0-.9Z"/>
    <path d="M308.5,124c-.3,1-.8,1.8-1.2,2.7-.2.3-.6.5-.3,1.1.1.3-.6.3-.8.5-.5.8-1.2,1.5-1.8,2.1-.6.7-1.1,1.4-1.8,2-.7.6-1.6.8-2.2,1.5-.5.6-1.4.5-2,.8-.6.4-1.4.8-2.1.8-.6,0-1.1,0-1.6.1-.3.1-.5.5-.9.6-.3,0-.8-.2-1,.5,0,0-.2,0-.3-.1-.4-.4-.9-.3-1.1,0-.3.3-.6.3-.8.3-.8,0-1.6,0-2.4-.1-.6-.1-1.1-.4-1.7-.6-.6-.2-1.3,0-1.8-.6-.1-.1-.2-.2-.3-.3,0,0,0,0,0-.1,0,0-.1,0-.2-.1,0,0-.2-.4-.1.3,0,0,0,0,0,0-.2-.5-.3-.6-.3-.5,0,.1.1.4.1.4,0,0,0,0,0,0-.2-.2,0,.2,0,.3,0,0-.2,0,.3.3.1.1.2.1,0,0-.1,0-.2,0-.3,0,0,0,0,0-.1.2,0,.4,0,.7-.2,1.1-.3.8-.4,1.7-1.2,2.3-.3.2-.7.6-.3,1.3.1.3-.3.5-.4.8,0,.2,0,.6-.2.8-.1.2-.4.2-.7.3,0,0-.1,0-.1.2-.1.7-.6,1.1-1.2,1.5-.5.3-1.1.6-1.6,1-.5.5-1,.8-1.6,1.1-.6.3-1.3.5-2.2.7-.5,0-1,0-1.5-.2-.5-.2-.8-.7-.8-1.3,0-.6.3-1.1.6-1.3.2-.2.4-.4.5-.4.2,0,.4-.2.6-.4.4-.3.6-.9,1.3-1,.2,0,.2-.4.6,0,0,0,.1,0,.2,0,.2-1.1,1.1-1.2,1.6-1.9.4-.6.3-1.4.9-1.9-.4-.6,0-.9.3-1.2.6-.5.9-1.1,1-1.7,0-.2,0-.3,0-.5h0c0-.1,0-.4,0-.4,0-.2,0-.4,0-.6,0-.4,0-.8,0-1.2v-.6c0-.2,0-.4,0-.7-.1-1.2-.3-2.3-.5-3.5l-.3-1.7v-.8c-.2-.3-.2-.5-.2-.7l3.6,3.4c.5.5.9.4,1.6,1.3.3.4.6.7.9.9.3.2.6.3.9.5.1,0,.3.1.4.2h.2c0,0,0,0,0,0,.1,0,.2,0,.3.2.8,1,2.1.8,3.2.9,1.1.1,2.3,0,3.4-.3.7-.2,1.3-.7,2-.8.3,0,.5-.5,1,0,.1.1.2-.4.4-.5.4-.2.9-.4,1.3-.6.6-.3,1.2-.6,1.7-1,.3-.2.5-.7.8-1,.3-.3.6-.5.9-.8.4-.3.9-.5,1.3-.8.4-.4.5-1,1-1.2,1-.5,1.2-1.5,1.6-2.4.4-.9.7-1.8.7-2.8,0-.5.5-1,.5-1.5,0-.2,1.5-.7,2-.6,0,0,.2,0,.2.1.5.6,1.2,1.3,1.1,2.1-.2,1.1-.4,2.3-.8,3.3Z"/>
  </g>
</svg>