<?xml version="1.0" encoding="UTF-8"?>
<svg id="ARTWORK" xmlns="http://www.w3.org/2000/svg" width="600" height="600" viewBox="0 0 600 600">
  <g>
    <g>
      <path d="M211.2,330.8c-6.4,2.7-13.7,3-20.3,1-2.1-.6-4.2-1.6-5.2-3.5-1.3-2.6,0-5.9,2.3-7.7s5.2-2.5,8-3.1c-2.4-.7-3.9-3.2-3.8-5.7s1.9-4.7,4-5.8,4.8-1.4,7.2-1c-1.9-1.7-3.9-3.8-3.5-6.3.4-2.7,3.3-4.1,5.9-5s5.6-1.8,6.6-4.3c.8-1.9,0-4.4-1.9-5.5,3.6,1.8,6.9,4.5,8.5,8.1s1.2,8.4-1.8,11.1c3,0,6.2,1.1,7.8,3.7s.5,6.6-2.3,7.5c2.2.5,4.3,1.4,5.8,3s2.3,3.9,1.8,6.1c-.5,1.9-2.1,3.4-3.8,4.3s-3.7,1.3-5.6,1.7c-4.5.9-9,1.9-13.5,2.8" fill="#00b4e9"/>
      <path d="M222.8,327c1.3-.3,2.5-.7,3.5-1.4,1-.6,1.8-1.4,2.1-2.3.1-.3.3-.6.3-1,0-.4,0-.7-.4-1.1-.2-.2-.1-.4-.1-.8,0-.3,0-.7-.2-1.1-.5-.8-1.3-1.5-2.3-2.1h-.2c0-.1-.2-.2-.2-.2h-.2c-.3-.2-.5-.3-.8-.4-.6-.2-1.2-.4-1.8-.5-1.3-.3-2.7-.6-3.9-.9-.3,0-.2-.1-.5-.2l-.6-.2h-.3c0,0-.5-.2-.5-.2l3.4-1.5,1.4-.6c.4-.2.9-.4,1.1-.6l.7-.6c.1-.2.1-.2.1-.3h0c0-.3,0-.4.1-.6.1-.7,0-1.4-.2-2-.2-.6-.7-1.4-1.5-2-.4-.3-.8-.5-1.2-.7-.1,0-.2,0-.3-.1-.2,0-.5-.2-.8-.2h-.9c0-.1-1.1,0-1.1,0-2.1,0-4.5.1-6,0,1-1,2.4-2.2,3.5-3.3.6-.6,1-1.1,1.5-1.6.2-.3.3-.5.4-.7l.2-.4v-.2c.1,0,.1,0,.1,0,.5-1.6.4-3.4.2-5.1-.2-1.2-.6-2.5-1.5-3.5-.8-.9-.9-.4-1-.6,0,0-.1-.2-.2-.3,0,0-.1,0,0,.6,0,0,0,0,0,0,0,0-.1-.2-.1-.3-.2-.4-.4-.7-.6-.8-.2-.1.1.2.3.5.4.7.3.6.4.6h0s0,0,0,0h0s-.3.6-.3.6c-.3.5-.6,1-1,1.4-.7.8-1.6,1.4-2.4,1.9-1.8,1-3.7,1.3-5.2,1.7-.7.2-1.4.6-2,.9-.6.4-1,.7-1.5,1-.8.5-1,1.3-.7,2.3,0,0,0,.1,0,.2h0c0,.1,0,.3.1.3,0,.2.2.3.3.5l.4.5c.6.7,1.3,1.3,2.5,1.9.2.1.8.7,1,.9.4.6.9,1.1,1.4,1.6.2.3.5.5.8.8.2.2.6.5.8.7-1.7-.2-3.7-.3-5.8-.4-1,0-2-.1-2.8,0-.4,0-.8.1-1.3.2h-.6c-1,.3-1.9.8-2.6,1.5-.7.7-1.2,1.5-1.5,2.4-.1.4-.4.9.1,1.3.2.1.2.5.2.7,0,.2,0,.3,0,.5h0c0,.2.1.3.2.4l.2.3c0,0,0,.1.1.2h.2c0,.1.5.4.5.4.2,0,.3.2.6.3l1.7.6c1.8.6,3.7,1.3,5.5,1.9-2.1.5-2.7.8-3,.9.3,0-1.1.3-1.9.4-2.3.5-4.5.9-6.6,1.6l-.9.3-.7.3-1.4.5c-.4.1-.8.4-1.1.7-.3.3-.5.8-.5,1.3,0,.5-.5,1.1-.6,1.6,0,.5.3.8.3,1.1,0,.2,0,.6,0,.9,0,0,0,.2.2.3.8.5,1.9,1.1,3.3,1.7,1.4.6,2.9,1.1,4.5,1.2,3.2.2,6.4.2,9.5-.4,1.7-.3,3.5-.7,5.1,0,.7.3,1,.8.3,1.4-.5.5-1.1.9-1.7,1.2-1,.4-2.1.9-3.2,1.2-2.2.6-4.5,1.4-6.9,1.1-.7,0-1.6.1-2.2-.4,0,0-.4-.1-.5-.1-1.6.2-3.3,0-4.9-.5-1.6-.4-3.2-1.1-4.8-2.1-1.3-.9-2.7-2.2-3.3-4-.6-1.8-.3-3.7.5-5.3,0-1,.6-2,1.2-2.8.3-.4.7-.8,1.2-1.1.4-.3.8-.6,1.2-.8.9-.5,1.8-.8,2.6-1.1l.6-.2h.1s.2,0,.2,0c.2,0,.3,0,.5,0,0,0,.1,0,0,0,0,0,0,0-.1,0,0,0-.2,0-.2-.1,0,0-.2-.1-.2-.2,0,0,0,0,0-.1-.2-.3-.3-.6-.4-.9-.5-1.3-.7-2.8-.4-4.1.6-3.2,2.8-5.6,5.4-6.9.6-.3,1.3-.6,2-.8.2,0,.3-.1.5-.1h.2s.2,0,.2,0c.2,0,.4,0,.6,0,0,0-.1-.1-.2-.2,0,0-.2-.1-.3-.2-.1,0-.1,0,0-.2,0,0,0,0,0-.1,0,0,0,0,0,0h0c0-.1,0-.4,0-.4-.1-.4-.3-.7-.4-1.2-.2-.8-.3-1.8-.1-2.7.3-1.6,1.3-3.1,2.4-3.9,1.1-.7,2.3-1.2,3.4-1.6.5-.2,1.1-.4,1.6-.5.5-.2,1-.3,1.5-.5,1.9-.6,3.4-1.5,4-2.6v-.2c0,0,.1,0,.1,0,0,0,0,0,0,0h0c0-.1,0-.7,0-.7,0-.3-.3-.6-.5-1,.5-.9.8-1.6.9-2.1.3-1,0-1.2-.5-1.1,0,0-.1,0-.2,0,0,0,.1,0,.2,0,.1,0,.3-.1.4-.2.3-.2.7-.4,1.1-.8,1,.6,2.1,1.2,3.2,2,.8.5,1.6,1.2,2.4,1.9.2.2.4.4.6.6.2.2.3.3.4.4.2.3.5.5.7.8.9,1.1,1.7,2.4,2.1,3.9.3,1.2.9,2.6.3,3.9-.1.3.3,1.6.1,2.4,0,.5-.2,1-.4,1.5l-.2.7h0c0,.3-.2.4-.3.5h0c.1,0,.4,0,.6.1h0c.2,0,.3.1.5.2.3.1.7.3,1,.4.7.3,1.3.7,1.9,1.2.7.6,1.5,1.3,2,2.1.6.9,1,1.9,1.2,3,.2,1.1,0,2.2-.2,3.3,0,.3-.2.5-.3.8,0,.1-.1.3-.2.4v.2c0,0-.1,0-.1,0h0c0,0,0,0,0,0h0s-.2.1-.2.1c0,0,0,0,0,0,0,0,0,.1.2.2l.7.4c.3.2.5.3.8.5.5.4,1,.8,1.5,1.3.9,1,1.6,2.1,1.9,3.4.3,1.2.3,2.4.2,3.6-.2,1.2-.7,2.3-1.3,3.3-1.3,1.9-3.2,3.2-5.1,3.8-1.9.7-3.7,1-5.5,1.4-1.7.4-3.5.7-5.2,1.2-2,.5-3.9.4-5.8.8-.9.2-2.4-1-2.1-1.6,0-.1.2-.2.3-.3,1.8-.8,3.4-1.9,5.5-2.3,1.6-.3,3.2-.6,4.8-1,1.6-.3,3.2-.7,4.7-1Z" fill="#00b4e9"/>
    </g>
    <path d="M297.6,306.5c-1.2-1.5-2.3-2.9-3.5-4.4-.4-.5-.7-1.3-1.5-1.5-.4-.1-.3-1.1-.7-1.6-1.1-1.4-1.9-2.9-3-4.3-.9-1.4-2.1-2.7-3-4.1-.5-.7-.8-1.5-1.3-2.2-.4-.8-.8-1.5-1.3-2.1-.9-1.1-1.1-2.5-1.8-3.6-.8-1.2-1.5-2.5-1.9-3.8-.3-1-.5-2-1.1-2.9-.3-.5-.9-.9-1.1-1.6-.3-.6-.3-1.4-1.1-1.6,0,0,0-.3,0-.5.1-.8-.3-1.6-.7-2-.5-.4-.6-.9-.8-1.4-.6-1.3-1.1-2.6-1.6-4-.3-1-.5-2.1-.8-3.1-.3-1.1-1-2.2-1-3.3,0-1.1-.3-2.1-.5-3.1-.2-.6,0-1.3-.7-1.7,0,0-.1-.3,0-.4.2-.9,0-1.7-.2-2.6-.3-.8-.5-1.7-.5-2.6,0-.9,0-1.8,0-2.8,0-.9,0-1.9,0-2.8,0-.5.3-1,0-1.5-.1-.2,0-.7,0-1,.5-.6.7-1.3.9-2,.2-.7.4-1.4.7-2.1l1-2.2c.4-.7.9-1.4,1.5-2,.5-.5,1.2-1.1,1.2-2.2,0-.5.8-.9,1.1-1.4.3-.4.4-.9.7-1.3.3-.3.8-.4,1.1-.6.1,0,.2-.2.3-.3.6-1.1,1.7-1.8,2.6-2.3,1-.6,2.1-1,3-1.7,1.9-1.3,4-2.4,6.4-3.1.7-.2,1.4-.3,2.1-.3.7,0,1.4.3,1.9.9.4.5.3,1.1-.1,1.4-.3.2-.7.5-1.1.6-.6.2-1.2.5-1.7.8-1.2.6-2.1,1.6-3.5,2-.4.1-.7.6-1.3.4,0,0-.3,0-.3,0-1.2,1.6-3.1,2.3-4.5,3.5-.6.5-1,1.2-1.5,1.8-.4.6-.9,1.3-1.5,1.8,0,.5-.2,1-.4,1.4-.2.4-.6.7-.9,1-.5.6-1,1.1-1.4,1.8-.2.3-.4.7-.5,1-.2.3-.3.7-.4,1.1-.1.4-.2.7-.3,1.1l-.2,1.1c-.2.7-.3,1.5-.4,2.2-.5,3.1-.2,6.3.3,9.4.1.5.5.9.4,1.6-.1.6.3,1.4.4,2,.2.6.5,1.2.5,1.9.1,2.6,1.4,5,2.3,7.5.9,2.5,1.9,4.9,3.1,7.2.8,1.4,1.7,2.7,2.3,4.2.3.6.9,1.1.6,2,0,.2.6.6.8,1,.6.9,1,1.9,1.5,2.9.7,1.3,1.4,2.7,2.2,4,.5.8,1.2,1.4,1.7,2.2.5.8,1.1,1.6,1.5,2.5.6,1.1,1.1,2.2,1.7,3.3.6,1.1,1.6,2,2.1,3.2.4,1.1,1.1,2,1.7,2.9.7.9,1.4,1.8,2.1,2.7.7.9,1.4,1.8,2.1,2.6.7.9,1.5,1.7,2.3,2.5.9.9,1.3,2.1,2.2,2.9.4.4,0,2-.6,2.2,0,0-.2,0-.3,0-1.2-.6-2.6-.9-3.5-2-1.4-1.6-2.8-3.2-4.2-4.8Z"/>
    <path d="M379.4,293.3c-1.1,1.1-2.2,2.1-3.3,3.2-.4.4-1,.6-1.1,1.4,0,.4-.9.3-1.2.7-1,1-2.1,1.9-3.2,2.9-1,1-1.9,2-2.9,3-1,.9-2.3,1.6-3.1,2.7-.7.9-1.8,1.2-2.7,2-.9.8-1.8,1.6-2.8,2.1-.8.3-1.6.7-2.2,1.2-.4.4-.6.9-1.1,1.2-.5.3-1.1.4-1.1,1.2,0,0-.3.1-.4,0-.7,0-1.3.4-1.5.9-.2.5-.6.7-1,.9l-1.5,1c-.5.3-1,.6-1.6.9-.8.4-1.7.7-2.5,1-.9.4-1.6,1.1-2.5,1.2-.9.1-1.6.5-2.4.8-.4.2-1.1.2-1.2.9,0,0-.2.1-.3.1-1.6-.2-2.4,1.3-3.8,1.6-1.5.3-2.9.9-4.4,1.2-.4,0-.9,0-1.2.5-.1.2-.6.3-.8.2-1.2-.5-2.5-.1-3.7-.4-1.4-.3-2.8-.3-3.9-1.1-.5-.4-1.2-.7-2-.4-.4.1-.9-.3-1.3-.5-.4-.1-.8,0-1.2-.1-.3-.1-.5-.5-.8-.7,0,0-.2-.1-.3-.1-2-.2-3.2-1.9-4.9-2.7-1.7-.8-3.3-2.1-4.7-3.4-.8-.7-1.5-1.6-1.2-2.9.1-.6.5-1,1.1-.9.4,0,.8.1,1.1.3.5.3,1,.6,1.4.8,1,.6,2.2.8,2.9,1.7.2.3.8.3.7.8,0,0,0,.2.2.2,1.7.2,2.8,1.4,4.3,2,1.2.5,2.7.5,3.8,1.2.9-.3,1.6,0,2.2.4,1.1.7,2.3,1,3.5,1,1.2,0,2.4-.1,3.6-.3,1.2-.2,2.4-.5,3.7-1,1.2-.4,2.5-1,3.7-1.5.4-.2.6-.7,1.2-.7.6,0,1.1-.4,1.6-.7.5-.2.9-.6,1.5-.7,1.1-.2,2.1-.6,3-1.2.9-.5,1.8-1.1,2.8-1.7,1.9-1.1,3.7-2.1,5.4-3.5,1-.8,1.9-1.9,3-2.5.5-.3.8-.9,1.6-.8.2,0,.4-.6.6-.9.7-.6,1.4-1.1,2.1-1.6,1-.8,2-1.5,2.9-2.4.6-.5,1-1.2,1.5-1.7.6-.6,1.2-1.1,1.8-1.6.8-.6,1.7-1.1,2.5-1.7.8-.7,1.4-1.6,2.4-2.1,1.7-.9,2.9-2.4,4.3-3.6,1.4-1.2,2.7-2.5,3.9-3.9.7-.8,1.7-1.1,2.4-1.9.3-.3,1.9.2,2.1.7,0,0,0,.2,0,.3-.4,1.1-.5,2.2-1.4,3-1.3,1.2-2.4,2.5-3.7,3.7Z"/>
    <path d="M364.1,274.4c-.7.4-1.4.9-2.1,1.3-.3.2-.7.1-.7.7,0,.3-.6,0-.8,0-.6.5-1.3.7-2,1.2-.6.4-1.2,1-1.8,1.4-.6.4-1.4.5-1.9,1.1-.4.5-1.1.3-1.6.7-.5.4-1,.7-1.7.8-.5,0-1,0-1.3.3-.2.2-.3.6-.6.7-.3,0-.7,0-.6.7,0,0-.2,0-.2,0-.4-.2-.8,0-.9.3-.1.3-.3.4-.5.5-.5.3-1.1.6-1.7.8-.4.1-1,.1-1.4.3-.5.1-.8.6-1.3.5-.5,0-.9,0-1.3.3-.2.1-.6,0-.5.6,0,0,0,0-.1,0-1-.5-1.2.8-1.9.9-.8.1-1.4.6-2,.9-.2,0-.4,0-.4.5,0,.2-.2.3-.3.2-.8-.3-1.1.3-1.7.4-.6.2-1.1.7-1.9.6-.3,0-.7,0-.7.7,0,.3-.4.2-.6.4-.1.1-.2.5-.3.6-.1,0-.4,0-.6,0,0,0-.1,0-.1,0-.5,1-1.7.7-2.5,1.3-.7.6-1.6,1-2.4,1.4-.5.2-1,.3-1.9-.4-.4-.4-.7-.8-.7-1.2,0-.3,0-.6.2-.7.2-.3.4-.5.6-.8.4-.5.7-1.3,1.4-1.4.2,0,.3-.4.7,0,0,0,.1,0,.2,0,.4-1.1,1.4-1.1,2.1-1.6.6-.4,1-1.3,1.8-1.4,0-.8.6-.9,1-.9,1.6,0,2.7-1.1,4.1-1.6,1.4-.6,2.7-1.2,4.1-1.8.2,0,.3-.5.7-.4.4.1.6-.2.9-.3.3-.1.5-.4.8-.3,1.3.1,2.2-.7,3.3-1.1,1.1-.4,2.2-.8,3.1-1.5.6-.4,1.1-1,1.8-1.2.3,0,.4-.5.9-.1.1.1.2-.4.4-.5.4-.3.8-.4,1.3-.6.6-.3,1.2-.6,1.8-.9.3-.2.6-.6.9-.9.3-.2.7-.5,1.1-.6.5-.2,1.1-.3,1.6-.5.5-.2.9-.7,1.5-.8,1.1,0,1.8-.8,2.7-1.2.8-.5,1.7-.9,2.4-1.6.4-.4,1.1-.2,1.5-.6.2-.1,1.4.8,1.6,1.3,0,0,0,.2,0,.2-.2.7-.2,1.6-.7,1.9-.8.5-1.5,1.1-2.3,1.5Z"/>
    <path d="M383.5,253.4c-.4.2-.9.3-1.3.6-.1,0-.4,0-.3.5,0,.3-.4-.2-.5-.1-.4.3-.8.4-1.1.6-.3.3-.6.6-.9.9-.3.3-.8.2-1,.7-.1.4-.7.2-.9.5-.2.3-.4.6-.9.6-.3,0-.6,0-.8.2,0,.1,0,.5-.1.6-.1,0-.4,0-.1.5,0,0,0,0-.2,0-.4-.2-.5,0-.4.3,0,.3,0,.3-.1.4-.2.3-.5.5-.7.7-.2.1-.6.2-.8.3-.2.2-.2.5-.6.5-.4,0-.5.2-.7.4,0,.1-.4,0,0,.5,0,0,0,0,0,0-.9-.2-.3.8-.7,1-.4.2-.5.6-.7,1,0,0-.3.1,0,.4.1.1,0,.2,0,.2-.7,0-.5.4-.8.6-.3.3-.2.7-.7.8-.2,0-.4.2,0,.6.2.2,0,.2,0,.4,0,.1.2.3.2.4,0,0-.3,0-.4.1,0,0,0,0,0,0,.5.7-.5.9-.5,1.4,0,.5-.1,1-.3,1.5,0,.3-.3.5-1.5.6-.5,0-1.1,0-1.4-.2-.2-.1-.4-.3-.5-.4,0-.2-.2-.4-.2-.6-.1-.4-.6-.9-.2-1.3.1-.1-.1-.3.4-.3,0,0,.1,0,0,0-.6-.7,0-1.2.2-1.7.1-.5-.3-1.1.1-1.5-.5-.5-.2-.8,0-.9,1-.6,1.1-1.6,1.6-2.4.6-.8,1.1-1.6,1.7-2.4.1-.1,0-.5.3-.4.3,0,.3-.3.4-.4.1-.1.2-.4.4-.4,1-.1,1.2-.9,1.8-1.4.6-.5,1.2-.9,1.6-1.5.3-.4.4-.9.9-1.1.2,0,.2-.5.7-.1.1.1,0-.4.1-.5.2-.2.5-.4.8-.5.4-.2.8-.4,1.1-.7.2-.2.3-.5.5-.7.2-.2.5-.3.7-.4.3-.1.8,0,1.1-.2.3-.1.6-.5,1-.4.8.2,1.3-.3,1.9-.5.6-.2,1.2-.4,1.7-.7.3-.2.8.2,1.1,0,.2,0,.8,1.3.9,1.8,0,0,0,.2,0,.2-.1.5-.2,1.3-.5,1.4-.5.1-1,.4-1.5.6Z"/>
    <path d="M401.4,259.1c-.3,0-.6.1-1,.2-.1,0-.3-.2-.3.4,0,.3-.3-.3-.4-.3-.3.1-.6,0-.9.2-.3.1-.5.4-.8.5-.3.1-.6-.1-.8.2-.2.3-.5-.1-.7,0-.2.2-.5.3-.7,0-.2-.1-.4-.3-.6-.2,0,0-.1.4-.3.4-.1,0-.3-.2-.3.4,0,0,0,0-.1-.1-.2-.4-.3-.3-.4,0,0,.3-.1.3-.2.3-.2,0-.5.1-.7.1-.2,0-.4-.2-.6-.3-.2,0-.4.3-.6,0-.2-.3-.4-.2-.6-.2,0,0-.3-.3-.3.4,0,0,0,0,0,0-.4-.8-.5.3-.8.2-.3-.2-.6,0-.9,0,0,0-.2-.2-.2.3,0,.2,0,.2-.1,0-.3-.6-.5-.2-.7-.3-.3,0-.5.2-.8-.2-.1-.2-.3-.3-.4.3,0,.3-.2,0-.3,0,0,0-.1.3-.2.4,0,0-.2-.2-.2-.3,0,0,0,0,0,0-.3.7-.8-.2-1.2,0-.4.2-.8.2-1.2,0-.2,0-.5-.2-.7-1.3,0-.5-.1-1.1,0-1.4,0-.2.1-.5.2-.5.1-.1.2-.2.3-.4.2-.2.4-.8.7-.5,0,0,.2-.2.3.3,0,0,0,.1,0,0,.3-.8.7-.3,1-.4.3,0,.5-.7.8-.5.1-.6.3-.6.5-.4.6.6,1.2.1,1.7.1.6,0,1.1-.1,1.7-.2,0,0,.1-.4.3-.1.1.2.3,0,.4,0,.1,0,.2-.2.3,0,.5.6.9.1,1.4.1.5,0,.9,0,1.3-.2.3-.1.5-.5.8-.4.1,0,.2-.3.4.2,0,.2,0-.3.2-.3.2,0,.4,0,.6-.1.3,0,.5,0,.8-.2.2,0,.3-.3.4-.4.2,0,.3-.1.5,0,.2,0,.5.2.7.2.2,0,.4-.3.7,0,.5.4.8,0,1.2,0,.4,0,.8,0,1.1-.3.2-.1.5.3.7.3,0,0,.6,1.4.6,1.9,0,0,0,.2,0,.2-.1.5-.1,1.3-.4,1.3-.4,0-.7.1-1.1.2Z"/>
    <path d="M404.7,266.5c-.3.1-.5.2-.7.4,0,0-.3-.1-.2.4,0,.3-.3-.3-.4-.2-.2.2-.5.2-.7.4-.2.2-.3.5-.6.6-.2.2-.6,0-.7.4,0,.3-.5,0-.6.1-.2.2-.3.4-.6.2-.2-.1-.4-.3-.5-.1,0,0,0,.4-.2.4,0,0-.3-.2-.2.4,0,0,0,0-.1-.1-.2-.4-.3-.3-.3,0,0,.3,0,.3-.2.3-.2.1-.4.2-.6.2-.2,0-.4-.2-.6-.2-.2,0-.3.3-.5,0-.2-.3-.4-.2-.5-.2,0,0-.3-.2-.2.4,0,0,0,0,0,0-.4-.7-.4.4-.7.2-.3-.2-.5,0-.8.1,0,0-.2-.1-.2.3,0,.2,0,.2-.1,0-.3-.6-.4-.2-.7-.2-.2,0-.4.2-.7-.2-.1-.2-.3-.3-.3.3,0,.3-.2,0-.2,0,0,0,0,.3-.2.4,0,0-.1-.2-.2-.3,0,0,0,0,0,0-.3.7-.7-.1-1,0-.3.2-.7.2-1,0-.2,0-.4-.2-.6-1.3,0-.5-.1-1.1,0-1.4,0-.2,0-.5.1-.5,0-.1.2-.2.3-.3.2-.2.3-.7.6-.5,0,0,.1-.2.2.3,0,0,0,.1,0,0,.2-.8.5-.3.8-.4.2,0,.4-.7.6-.5,0-.6.2-.6.3-.4.6.6.9,0,1.4,0,.5,0,.9-.2,1.4-.3,0,0,0-.4.2-.1.1.2.2,0,.3,0,0,0,.1-.2.3,0,.5.5.8,0,1.1,0,.4,0,.7,0,1-.4.2-.2.3-.6.5-.5.1,0,0-.3.4.2,0,.1,0-.3,0-.3.1-.1.3-.1.4-.2.2,0,.4-.1.6-.3.1,0,.1-.4.2-.5,0-.1.2-.2.4-.2.2,0,.4.1.6.1.2,0,.2-.3.5-.2.5.3.7,0,1-.2.3,0,.6-.2.8-.5.1-.1.5.2.7.1,0,0,.9,1.2,1.2,1.6,0,0,0,.2,0,.2,0,.5.3,1.2,0,1.3-.3.1-.6.3-.9.5Z"/>
    <path d="M402.3,264.7c0-.2,0-.3,0-.5,0,0,.2-.1-.3-.2-.3,0,.4-.1.3-.2,0-.2,0-.3,0-.5,0-.1-.3-.3-.4-.4,0-.1.2-.3-.1-.5-.3-.1.2-.3,0-.4-.1-.1-.2-.3,0-.4.2-.1.4-.2.3-.3,0,0-.4,0-.4-.2,0,0,.3-.1-.3-.2,0,0,0,0,.1,0,.4,0,.4-.2,0-.2-.3,0-.2,0-.3-.1,0-.1,0-.3,0-.4,0-.1.3-.2.3-.3,0-.1-.2-.2,0-.3.3-.1.3-.2.3-.3,0,0,.3-.1-.4-.1,0,0,0,0,0,0,.8-.2-.3-.3,0-.4.2-.2,0-.3,0-.5,0,0,.2,0-.3-.1-.2,0-.2,0,0,0,.6-.1.2-.2.3-.4.1-.1-.2-.3.3-.4.2,0,.3-.1-.3-.2-.3,0,0,0,0-.1,0,0-.3,0-.3-.1,0,0,.2,0,.3-.1,0,0,0,0,0,0-.7-.2.2-.4,0-.6-.2-.2-.1-.4,0-.6,0-.1.2-.2,1.4-.3.5,0,1.1,0,1.4,0,.2,0,.5,0,.5.1.1,0,.2.1.3.2.2.1.7.3.4.4,0,0,.2,0-.3.1,0,0-.1,0,0,0,.8.2.3.3.3.5,0,.1.7.3.4.4.6,0,.5.2.3.3-.7.3-.2.6-.3.9,0,.3,0,.6,0,.9,0,0,.4,0,0,.2-.3,0,0,.1,0,.2,0,0,.1.1,0,.2-.7.3-.2.5-.3.7,0,.2-.1.5,0,.7.1.1.5.3.3.4,0,0,.3.1-.3.2-.2,0,.3,0,.3,0,0,0,0,.2,0,.3,0,.1,0,.3,0,.4,0,0,.3.1.4.2,0,0,0,.2,0,.3,0,.1-.3.2-.3.4,0,.1.2.2,0,.3-.5.2-.2.4-.3.6,0,.2,0,.4,0,.6,0,.1-.4.3-.4.4,0,0-1.5.3-2,.3,0,0-.2,0-.2,0-.5,0-1.2,0-1.2-.2,0-.2,0-.4,0-.6Z"/>
    <path d="M401.3,276.3c-.2.1-.4.2-.6.4,0,0-.3-.1,0,.4,0,.3-.3-.3-.3-.2-.1.2-.4.2-.5.3-.2.1-.2.4-.4.6-.2.1-.5,0-.5.3,0,.3-.4,0-.5,0-.1.2-.3.3-.5.2-.2-.1-.4-.3-.4-.1,0,0,0,.4-.1.4,0,0-.2-.2-.1.4,0,0,0,0-.1-.1-.2-.4-.3-.3-.3,0,0,.3,0,.3-.1.3-.2,0-.3.2-.5.1-.1,0-.3-.2-.5-.2-.1,0-.2.3-.4,0-.2-.3-.3-.2-.4-.2,0,0-.2-.3-.1.4,0,0,0,0,0,0-.3-.8-.4.3-.6.1-.2-.2-.4,0-.6,0,0,0-.1-.2-.1.3,0,.2,0,.2-.1,0-.2-.6-.3-.2-.5-.3-.2-.1-.4.2-.6-.3,0-.2-.2-.3-.3.3,0,.3-.1,0-.2,0,0,0-.1.3-.2.3,0,0,0-.2-.1-.3,0,0,0,0,0,0-.3.7-.5-.2-.8,0-.3.2-.6,0-.8,0-.1,0-.3-.3-.2-1.4,0-.5.1-1.1.2-1.4,0-.2.2-.5.2-.5,0,0,.2-.2.3-.3.2-.2.4-.7.5-.4,0,0,.1-.2.1.3,0,0,0,.1,0,0,.3-.8.4-.2.6-.3.2,0,.3-.7.5-.4,0-.6.2-.5.3-.3.3.7.6.2.9.3.3,0,.6,0,1,0,0,0,0-.4.1-.1.1.2.1,0,.2,0,0,0,.1-.2.2,0,.4.6.6.1.8.1.3,0,.5,0,.7-.2.1-.1.1-.5.3-.4,0,0,0-.3.3.2,0,.1,0-.3,0-.3,0,0,.2,0,.3-.1.1,0,.3,0,.4-.2,0,0,0-.3,0-.4,0,0,.1-.1.2-.1.1,0,.3.1.5.1.1,0,.1-.3.3-.1.4.3.5,0,.7,0,.2,0,.4-.2.5-.4,0-.1.4.2.5.1,0,0,1,1.1,1.3,1.5,0,0,.1.2.1.2.2.5.5,1.1.3,1.2-.2,0-.4.3-.6.4Z"/>
    <path d="M398.5,274.8c0-.2.1-.3.1-.5,0,0,.3,0-.2-.3-.2-.1.4,0,.4,0,0-.2.1-.3.1-.5,0-.2-.2-.4-.2-.5,0-.2.3-.2,0-.4-.2-.2.3-.2.2-.3,0-.2-.1-.3.1-.3.2,0,.4,0,.3-.2,0,0-.3-.2-.3-.3,0,0,.3,0-.3-.2,0,0,0,0,.2,0,.4,0,.4,0,.1-.1-.3-.1-.2-.1-.2-.2,0-.1,0-.2,0-.3,0,0,.3-.1.4-.2,0,0-.2-.2.1-.3.3,0,.3-.1.3-.2,0,0,.3,0-.3-.2,0,0,0,0,0,0,.8,0-.2-.3,0-.4.2,0,.1-.3.1-.4,0,0,.2,0-.3-.2-.2,0-.2,0,0,0,.6,0,.3-.2.4-.3.1-.1-.1-.3.4-.3.2,0,.3,0-.2-.2-.3,0,0,0,0-.1,0,0-.3,0-.3-.1,0,0,.2,0,.3,0,0,0,0,0,0,0-.6-.2.2-.3,0-.5-.2-.2,0-.3,0-.5,0,0,.2-.2,1.4-.3.5,0,1.1,0,1.4,0,.2,0,.5,0,.5.1.1,0,.2.1.3.2.2.1.7.3.4.4,0,0,.2.1-.3.1,0,0-.1,0,0,0,.8.2.3.4.3.6,0,.2.7.4.4.5.6.2.5.3.3.3-.7.3-.3.7-.4,1-.1.3-.1.7-.2,1,0,0,.3.2,0,.2-.3,0,0,.1-.1.2,0,0,.1.2,0,.2-.7.1-.4.5-.5.7-.1.2-.3.5-.2.8,0,.2.3.4.2.5,0,0,.2.2-.4.1-.2,0,.3.2.3.2,0,.1,0,.2,0,.3,0,.1-.1.3-.1.4,0,0,.2.3.2.4,0,.1,0,.2,0,.3-.1,0-.3.1-.4.2,0,0,.1.3-.2.3-.6,0-.4.3-.5.5-.1.2-.2.4-.2.6,0,.1-.5,0-.5.2,0,0-1.4-.4-1.9-.6,0,0-.2,0-.2,0-.4-.3-1.1-.6-1-.7.1-.2.1-.4.2-.5Z"/>
    <path d="M397.2,286.2c-.2.1-.5.3-.7.4,0,0-.3-.1-.1.4,0,.3-.3-.3-.4-.2-.2.2-.5.2-.7.4-.2.2-.3.5-.5.6-.2.2-.6,0-.7.4,0,.3-.5,0-.6.1-.2.2-.3.4-.6.2-.2-.1-.4-.3-.5-.1,0,0,0,.4-.2.4,0,0-.3-.2-.2.4,0,0,0,0-.1-.1-.2-.4-.3-.3-.3,0,0,.3,0,.3-.2.3-.2,0-.4.2-.6.2-.2,0-.4-.2-.6-.2-.2,0-.3.3-.5,0-.2-.3-.4-.2-.5-.2,0,0-.2-.2-.2.4,0,0,0,0,0,0-.4-.8-.4.3-.7.2-.3-.2-.5,0-.8,0,0,0-.2-.2-.2.3,0,.2,0,.2-.1,0-.3-.6-.4-.2-.6-.3-.2-.1-.4.2-.7-.3-.1-.2-.2-.3-.3.3,0,.3-.2,0-.2,0,0,0-.1.3-.2.3,0,0-.1-.2-.2-.3,0,0,0,0,0,0-.3.7-.7-.2-1,0-.3.2-.7,0-1,0-.2,0-.4-.3-.4-1.4,0-.5,0-1.1.1-1.4,0-.2.1-.5.2-.5,0,0,.2-.2.3-.3.2-.2.4-.7.6-.4,0,0,.1-.2.2.3,0,0,0,.1,0,0,.3-.8.5-.3.8-.3.2,0,.4-.7.6-.4,0-.6.2-.5.3-.4.5.6.8.1,1.3.2.4,0,.8-.1,1.3-.2,0,0,0-.4.2-.1.1.2.2,0,.3,0,0,0,.1-.2.3,0,.5.6.7,0,1.1,0,.3,0,.7,0,1-.3.2-.2.2-.6.5-.5.1,0,0-.3.4.2,0,.1,0-.3,0-.3.1,0,.3-.1.4-.2.2,0,.4-.1.5-.2,0,0,0-.4.2-.5,0-.1.2-.2.3-.2.2,0,.4.1.6.1.2,0,.2-.3.5-.2.5.3.6,0,.9-.2.3,0,.6-.2.7-.5,0-.1.5.2.6,0,0,0,1,1.1,1.2,1.5,0,0,0,.2.1.2.1.5.4,1.2.2,1.3-.3.1-.5.3-.8.5Z"/>
    <path d="M394.8,284.2c0-.1.1-.2,0-.3,0,0,.3,0-.2-.2-.2-.1.4,0,.4,0,0-.1,0-.2,0-.3,0-.1-.2-.3-.2-.4,0-.1.3-.1,0-.3-.2-.2.3,0,.2-.2-.1-.1-.2-.2,0-.2.2,0,.4,0,.3-.1,0,0-.4-.2-.3-.2,0,0,.3,0-.3-.2,0,0,0,0,.1,0,.4,0,.4,0,.1,0-.3,0-.2-.1-.2-.1,0,0,0-.2,0-.2,0,0,.3,0,.4-.1,0,0-.2-.2.1-.2.3,0,.3,0,.3-.1,0,0,.3,0-.3-.2,0,0,0,0,0,0,.8,0-.2-.2,0-.3.2,0,0-.2,0-.3,0,0,.2,0-.3-.1-.2,0-.2,0,0,0,.6,0,.3-.1.4-.2.1,0-.1-.2.3-.2.2,0,.3,0-.2-.2-.3,0,0,0,0-.1,0,0-.3,0-.3-.1,0,0,.2,0,.3,0,0,0,0,0,0,0-.6-.2.3-.2,0-.4-.2-.1,0-.3,0-.4,0,0,.2-.1,1.4-.1.5,0,1.1,0,1.4,0,.2,0,.5,0,.5.1,0,0,.2.1.3.2.2.1.7.3.4.3,0,0,.2,0-.3,0,0,0-.1,0,0,0,.8.2.2.3.3.4,0,.1.7.3.4.4.6.1.5.2.3.3-.7.2-.3.4-.4.7-.1.2,0,.5-.2.7,0,0,.3.1,0,.1-.3,0,0,0,0,.1,0,0,.1.1,0,.1-.7,0-.3.3-.4.5-.1.2-.2.3,0,.6,0,.1.4.3.2.4,0,0,.3.2-.3,0-.2,0,.3.1.3.2,0,0,0,.2,0,.2,0,.1-.1.2,0,.3,0,0,.2.2.3.3,0,0,0,.2,0,.2,0,0-.3,0-.4.2,0,0,.1.2-.1.2-.5,0-.3.2-.4.4-.1.1-.2.3-.1.5,0,.1-.5,0-.5.1,0,0-1.4-.4-1.9-.6,0,0-.2,0-.2,0-.4-.2-1.1-.5-1-.6.1,0,.1-.2.1-.4Z"/>
    <g>
      <path d="M384.8,258.5c-.2-9.7-.3-19.5-.5-29.2,0-1,0-2.1.4-3,.6-1.5,2.2-2.5,3.7-3.1,5.3-2.2,11.2-2.4,16.9-2.5,3.3,0,6.5-.1,9.8-.2,1.1,0,2.2,0,3,.7,1,.8,1.1,2.3,1.1,3.6-.1,8.1,0,20.7-.8,28.8-.2,2.2-.4,4.4-.7,6.7-.5,5-1.4,8.4-1.9,13.4-.3,2.7-.7,5.7-2.8,7.4-1.3,1.1-13.4,2-15.1,2.3-2.2.4,5.3-2.9,3.1-2.6-1.2.1-2.7,0-3.2-1-.5-1.1.5-2.2,1.2-3,1.4-1.7,2.3-3.7,2.5-5.9,0-.7.1-1.5.5-2.1.3-.5.8-.9,1.3-1.3,3-2.8,2.4-7.6,1.6-11.7-6.4.7-12.8,1.4-19.1,2.1"/>
      <path d="M404.5,253.7c.7,0,1.4-.1,2-.2l.4,2c.1.7.2,1.3.3,2v.8c.1.2.1.4.2.6.2,1.7.2,3.6-.3,5.5-.4,1.4-1.3,2.7-2.1,4.2-.1.3-.5.6-.8.7-.1,0-.3.1-.4.2,0,0-.1,0-.2,0,0,0-.1,0-.2.2,0,.2,0,.5-.1.9,0,.4-.1.9-.2,1.3-.2.9-.4,1.7-.8,2.5-.3.8-.8,1.6-1.2,2.3-.7,1-.6.8-.8,1.1-.1.2-.2.4,0,.6,0,.2.3.2.5.2,0,0,.2,0,.3,0h.1s0,0,.1,0h0s0,0,0,0h.2c.1,0,.3.1.4.1h.2c0,.1,0,0,.2.3l.6.9.2.2c0,0,0,0,0,0h0s0,0,0,0h0c0,0-.2.1-.2.2h-.2c0,.1,0,.2-.1.2,0,0,0,0,0,0,.1,0,.3,0,.5,0,.2,0,.3,0,.6-.2h.1c0,0,.3-.1.4-.1.3,0,.6,0,.9-.1.6,0,1.1,0,1.7-.1,1.1,0,2.2-.1,3.3-.4.3,0,.6-.1.8-.2.2,0,.5-.2.6-.2,0,0,.1,0,0,0,0,0,.2-.2.3-.4.4-.6.8-1.4,1.2-2.4.3-.7.5-1.5.6-2.3.1-.8.3-1.7.3-2.6,0-1.1,0-2.2.1-3.4.2-1.1.7-2.3.2-3.3,0,0,.1-.5.3-.8.6-1.1.7-2.5.6-3.5-.2-1,0-1.8,0-2.7.2-2.4.4-4.9.7-7.3.2-1.8.5-3.6.6-5.4.1-1.9-.1-4,.2-5.7.3-1.8.3-3.5.3-5.2,0-1,.3-2.2-.3-3,0,0,0-.4,0-.6.4-1.4.4-2.8.2-4.2,0-.7-.1-1.5-.2-2,0-.5-.2-1.1-.2-1.1,0-.1,0-.2-.2-.3-.2,0-.8-.1-1.6,0-1.5,0-3,.1-4.5.2-.8,0-1.7-.1-2.4.3-.3.2-1.1.2-1.5,0-2.2-.6-4.5-.2-6.7-.1-2.5,0-4.9.6-7.4.8-1,0-2.5.4-3.3,1.4-.4.4-1.4.7-1.7,1.1-.3.4-.2.7-.3,1,0,.2-.3.7-.5,1.3,0,.2,0,.4,0,.6.7,3.8-.1,7.6.1,11.4.2,3.8.2,7.7.2,11.6,0,2.1-.2,4.3-1.3,5.8-.5.7-1.1.7-1.4-.2-.3-.7-.5-1.4-.6-2.2-.1-1.2-.3-2.4-.4-3.6-.2-2.5-.8-4.9-.6-7.4,0-.8-.2-1.7.3-2.4,0,0,.1-.4,0-.6-.8-3.4-.4-6.9-.5-10.4,0-.7,0-1.5-.2-2.2,0-.8-.2-1.6,0-2.7.2-1.1.7-2.2,1.4-2.9.7-.8,1.5-1.3,2.4-1.7.7-.8,1.6-1.2,2.5-1.6.9-.4,1.9-.6,2.8-.7,6.3-.8,12.2-1,17.9-1.1h4.4c.7,0,1.4,0,2.4,0,.9,0,2.4.4,3.4,1.3.5.5.9,1,1.1,1.6.3.6.4,1.1.4,1.6.1,1,0,1.8,0,2.5v4.4c0,1,.3,1.9,0,3-.3,1.1,0,2.5,0,3.8,0,1.2.1,2.4,0,3.5-.8,4.6-.5,9.3-1,14-.3,2.3-.5,4.6-.8,6.9-.3,2.4-.6,4.7-.9,6.9-.2,1.4-.3,2.8-.4,4.1,0,1.3-.1,2.8-.5,4.3-.2.7-.3,1.4-.5,2.1-.2.7-.7,1.4-1.3,1.9-.2.1-.4.6-.7,1.1-.2.3-.3.5-.6.8-.3.3-.6.5-.9.6-.8.3-1.2.4-1.8.5-.5.1-1,.2-1.5.3-1,.2-2,.3-3,.4l-3.2.4c-1.6.2-3.4.3-5.2.6h-.5c-.2,0-.3,0-.4,0h-.7c-.3-.1-.4-.2-.6-.3-.2,0-.4-.1-.5-.2l-.4-.2c0,0-.2-.1-.3-.2,0,0,0,0,0,0,0,0,0-.1,0-.1h0c0-.1,0-.1,0-.1,0,0-.2,0-.2-.3,0,0,0-.1-.2-.2,0,0,0-.1-.1-.2,0,0,0-.1,0-.2,0,0,0-.1,0-.2h0c0-.1,3.9,0,3.9,0h1s.3,0,.3,0c2.5-4.3.7-1.2,1.2-2.2h0s0,0,0,0c0,0,0,0,0,0,0,0,0,.1,0,.2h0s0,0,0,0c-.1,1,.3-2.1-.3,2.2h0s0,0,0,0h0s0,0,0,0c0,0-.1,0-.2,0-.2,0-.4,0-.6,0-.4,0-.8,0-1.2,0-1.5-.3-2.7-1-3.3-2.3-.8-1.7-.3-3.4,1-5,.2-.2.3-.4.5-.6l.4-.5c.1-.2.3-.3.4-.5.3-.3.5-.7.7-1.1.4-.7.6-1.5.7-2.2,0-.4,0-.7.1-1.3,0-.3,0-.6.2-1,.1-.4.3-.8.5-1.2.3-.5.8-.9,1.1-1.2.3-.2.5-.3.6-.4.2-.1.3-.2.4-.3.3-.2.5-.5.7-.8.4-.6.6-1.4.7-2.2.1-.8.1-1.7,0-2.6,0-.5,0-.9-.1-1.4v-.5c0,0-.1-.2-.1-.2,0,0,0-.2-.1-.2h-.5s-1,.1-1,.1l-1.5.2c-2,.2-3.9.4-5.9.7-2.2.3-4.3,0-6.5.3-1,.1-2.6-1.2-2.2-1.8,0-.1.2-.2.4-.3,2.1-.7,4-1.6,6.4-1.8,1.8-.2,3.6-.3,5.4-.5l6.4-.7Z"/>
    </g>
    <path d="M351.6,275.1c.3-.7.6-1.3.8-2.1,0-.3.4-.4,0-.9-.2-.2.5-.3.6-.5.2-.7.5-1.3.6-2,.1-.7.2-1.4.3-2,.1-.7.6-1.2.5-1.9-.1-.6.5-1,.5-1.5,0-.6,0-1.2.4-1.6.3-.4.6-.7.5-1.1,0-.3-.3-.6-.2-.8,0-.2.4-.5-.2-.8,0,0,0-.1.2-.2.4-.2.5-.5.2-.8-.2-.3-.2-.5-.1-.7,0-.6.2-1.1.3-1.7.1-.4.4-.8.5-1.2.1-.4,0-.9.3-1.3.3-.4.4-.8.4-1.2,0-.2.3-.5-.3-.7,0,0,0-.1,0-.1.9-.6-.2-1.3,0-1.9.2-.7.2-1.4.2-2.1,0-.2.2-.4-.3-.6-.2,0-.2-.3,0-.3.6-.5.3-1,.4-1.6.1-.6-.2-1.2.3-1.8.2-.3.3-.6-.3-.9-.3-.1,0-.4,0-.6,0-.2-.3-.3-.4-.5,0-.1.2-.3.3-.5,0,0,0-.1,0-.1-.7-.8.1-1.7-.1-2.6-.2-.9-.3-1.8-.3-2.6,0-.5.1-1,1.2-1.5.5-.2,1-.3,1.4-.1.3.1.5.3.6.4.1.3.3.6.4.8.3.6.9,1.1.6,1.7,0,.2.2.4-.2.6,0,0,0,.1,0,.1.8.7.4,1.6.5,2.5,0,.7.7,1.4.5,2.1.7.4.5.9.4,1.3-.3.7-.4,1.4-.4,2.1,0,.7,0,1.4,0,2.1-.1,1.4-.2,2.9-.3,4.3,0,.2.3.5,0,.7-.3.2-.1.6-.2.9,0,.3,0,.6-.1.9-.8,1-.6,2.2-.8,3.3-.3,1.1-.5,2.2-.6,3.3,0,.7.2,1.4-.1,2.1-.1.3.1.7-.5.8-.2,0,.2.4.2.6,0,.5-.2.9-.3,1.4-.2.6-.4,1.2-.5,1.9,0,.4,0,.8,0,1.2,0,.4-.2.8-.4,1.2-.2.5-.6.9-.8,1.4-.2.5-.2,1.1-.6,1.5-.8.7-.9,1.7-1.4,2.6-.4.9-.8,1.7-1.1,2.7-.2.5-.8.8-1.1,1.2-.1.2-1.6-.1-2-.4,0,0-.2-.1-.2-.2-.2-.7-.7-1.4-.4-1.9.4-.7.7-1.5,1-2.3Z"/>
    <path d="M387.9,205.1c-1-.3-2-.6-3-.8-.4,0-.7-.4-1.2,0-.3.2-.5-.5-.8-.6-.9-.2-1.8-.5-2.8-.7-.9-.2-1.9-.2-2.8-.3-.9-.1-1.8-.6-2.7-.5-.8.1-1.4-.5-2.1-.5-.8,0-1.6,0-2.3-.5-.5-.3-1-.6-1.6-.6-.3,0-.7.3-1.1.2-.3,0-.7-.4-1.1.2,0,0-.2,0-.2-.2-.3-.5-.8-.5-1.1-.3-.3.2-.6.2-.9.1-.8,0-1.5-.1-2.3-.3-.6,0-1.1-.4-1.7-.5-.6-.1-1.3.1-1.8-.2-.5-.3-1.1-.3-1.6-.4-.3,0-.7-.3-.9.3,0,0-.1,0-.2,0-.9-.9-1.8.2-2.6,0-.9-.2-1.9,0-2.8,0-.2,0-.5-.2-.7.3,0,.2-.3.2-.5,0-.7-.6-1.4-.1-2.1-.2-.8,0-1.6.3-2.4,0-.4-.2-.9-.2-1.2.4-.1.3-.6,0-.8.2-.2,0-.4.4-.6.4-.2,0-.4-.2-.7-.2,0,0-.1,0-.2,0-1,.9-2.3.3-3.4.8-1.1.5-2.2.8-3.4,1.1-.6.2-1.3.2-2.2-.7-.4-.4-.6-.9-.4-1.3.1-.3.3-.6.5-.7.3-.2.7-.5,1-.7.7-.4,1.3-1.2,2.2-1.2.3,0,.5-.4.8,0,0,0,.2,0,.2,0,.9-1.1,2.1-.9,3.2-1.1.9-.3,1.7-1,2.8-.9.4-.7,1.1-.7,1.7-.6,2,.4,3.9-.2,5.8-.2,1.9,0,3.9-.1,5.8,0,.3,0,.6-.3,1,0,.4.3.8,0,1.3.1.4,0,.8,0,1.2,0,1.5.8,3,.5,4.5.7,1.5.2,3,.5,4.5.6.9,0,1.9-.2,2.8.1.4.1.8-.1,1.1.5,0,.2.5-.2.8-.2.6,0,1.2.2,1.8.3.9.2,1.7.4,2.6.5.5,0,1.1,0,1.6,0,.6,0,1.1.2,1.6.4.7.2,1.3.6,2,.8.7.2,1.5.2,2.1.6,1.1.8,2.4.9,3.6,1.3,1.2.4,2.4.8,3.7,1,.7.1,1.2.8,1.9,1,.3,0,.4,1.6,0,2.1,0,0-.1.2-.2.2-.8.3-1.6.8-2.3.5-1.1-.4-2.2-.6-3.4-.9Z"/>
    <path d="M395.1,208.1c-.1-.4-.3-.9-.5-1.3,0-.2.1-.4-.5-.4-.3,0,.3-.4.2-.5-.2-.4-.3-.8-.5-1.2-.2-.4-.5-.7-.8-1-.2-.4,0-.9-.5-1.1-.4-.2,0-.7-.3-.9-.2-.3-.4-.6-.4-1,0-.3.2-.6,0-.8-.1-.1-.5-.1-.5-.3,0-.2.1-.4-.5-.3,0,0,0,0,0-.2.3-.3.2-.5-.1-.5-.3,0-.3-.1-.4-.3-.2-.3-.3-.6-.4-1,0-.3,0-.6,0-.9,0-.3-.4-.4-.3-.8.2-.4,0-.6,0-.8,0-.1.1-.4-.5-.2,0,0,0,0,0,0,.6-.7-.6-.6-.5-1.1,0-.5-.3-.8-.5-1.2,0,0,0-.3-.4-.2-.2,0-.2,0-.1-.2.4-.6,0-.7,0-1,0-.4-.5-.6-.2-1.1.1-.2.1-.5-.5-.4-.3,0-.1-.2-.2-.3,0,0-.4,0-.4-.1,0,0,.1-.3.2-.4,0,0,0,0,0,0-.8-.2-.3-1.1-.7-1.5-.4-.4-.6-.9-.8-1.4,0-.3,0-.7.8-1.4.4-.3.9-.6,1.2-.6.3,0,.5,0,.6,0,.2.1.4.2.5.3.3.2,1,.3.9.7,0,.1.3.1-.1.4,0,0,0,.1,0,.1.9,0,.7.8,1,1.2.2.4,1,.4.9,1,.7,0,.7.2.6.5-.2,1.1.5,1.6.8,2.4.3.8.7,1.6,1,2.4,0,.1.4.1.2.4-.2.3,0,.4.2.5,0,.2.3.3.2.5-.3.9.3,1.3.5,2,.2.6.4,1.3.8,1.8.2.3.7.6.7,1,0,.2.4.2,0,.6-.1.1.3,0,.4.2.1.2.2.5.3.8.1.4.2.7.4,1.1.1.2.4.3.6.5.1.2.2.5.3.7,0,.3,0,.7,0,1,0,.3.4.6.3.9-.3.7.1,1.2.3,1.7.1.6.3,1.1.6,1.6.2.3-.2.7-.1,1,0,.1-1.3.8-1.8.9,0,0-.2,0-.2,0-.5-.2-1.3-.2-1.4-.5,0-.5-.3-1-.5-1.5Z"/>
    <path d="M378.5,155.6c0,.7,0,1.4,0,2.1,0,.3-.3.5.2.8.3.2-.4.3-.4.6,0,.6-.1,1.3-.1,1.9,0,.6.1,1.2.1,1.8,0,.6-.4,1.2,0,1.8.2.5-.3.9-.2,1.4,0,.5.1,1-.1,1.4-.2.3-.4.7-.3,1,0,.2.4.4.4.6,0,.2-.3.5.3.6,0,0,0,.1-.1.2-.4.2-.4.5,0,.7.3.2.3.3.3.5,0,.4.1.9.1,1.3,0,.3-.2.7-.2,1,0,.4.4.6.2,1-.2.4,0,.7,0,1,0,.2-.1.5.5.4,0,0,0,0,0,0-.3.4-.1.6.1.7.2.1.5.2.6.5,0,.5.6.9.9,1.3,0,.1,0,.3.5.2.2,0,.3,0,.2.2-.2.7.4.8.6,1.2.3.4.8.6.8,1.2,0,.3.2.6.7.3.3-.1.3.2.4.3.1,0,.4,0,.5,0,0,0,0,.3,0,.5,0,0,0,0,0,0,.9-.1,1,.9,1.7,1.1.7.1,1.2.5,1.7.7.3.1.4.3.7,1.5,0,.5.1,1.1,0,1.4-.2.2-.4.4-.6.5-.3,0-.6.1-.9.1-.3,0-.7.1-1,.1-.3,0-.7,0-.9-.3-.1-.2-.5,0-.4-.5,0,0,0-.1,0-.1-.5.2-.9,0-1.2-.2-.3-.2-.6-.6-.9-.7-.6-.3-1.5-.2-1.8-.9-.7.3-1-.1-1.1-.5-.5-1.4-1.7-2-2.5-3.1-.8-1.1-1.6-2.1-2.2-3.5,0-.2-.5-.3-.4-.7.2-.3-.2-.6-.2-.9,0-.3-.3-.5-.2-.8.4-1.2-.2-2.1-.3-3.2,0-1,0-2-.2-3-.1-.6-.4-1.2-.3-1.8,0-.3-.3-.5.3-.8.2,0-.3-.3-.3-.5,0-.4,0-.8,0-1.2,0-.6.2-1.1.2-1.7,0-.3-.2-.7-.2-1,0-.4,0-.7.1-1,.1-.4.4-.8.5-1.3.1-.4-.1-.9.2-1.3.6-.8.4-1.6.4-2.3,0-.8.1-1.5,0-2.3,0-.4.4-.8.3-1.3,0-.2,1.4-.7,1.9-.6,0,0,.2,0,.2,0,.5.4,1.3.8,1.3,1.3,0,.8,0,1.6,0,2.4Z"/>
    <path d="M384.7,155.4c-.1,0-.3-.1-.4,0,0,0,0-.3-.2.3,0,.3,0-.4,0-.4-.1,0-.3,0-.4,0-.1,0-.3.2-.5.3-.1,0-.2-.3-.4,0-.1.3-.2-.2-.3-.1-.1.1-.3.2-.3,0,0-.2-.1-.4-.2-.3,0,0-.1.4-.2.3,0,0,0-.3-.2.3,0,0,0,0,0-.1,0-.4,0-.4-.2-.1,0,.3-.1.2-.1.2-.1,0-.2,0-.3,0,0,0-.1-.3-.2-.4,0,0-.2.2-.3-.1,0-.3-.1-.3-.2-.3,0,0,0-.3-.2.3,0,0,0,0,0,0,0-.8-.3.2-.4,0-.1-.2-.3,0-.4,0,0,0,0-.2-.1.3,0,.2,0,.2,0,0,0-.6-.2-.3-.3-.4-.1-.1-.2.2-.4-.3,0-.2-.1-.3-.2.3,0,.3,0,0-.1,0,0,0,0,.3-.1.3,0,0,0-.2,0-.3,0,0,0,0,0,0-.2.7-.3-.2-.5,0-.2.2-.3.1-.5,0,0,0-.2-.2-.3-1.4,0-.5,0-1.1,0-1.4,0-.2,0-.5,0-.5,0-.1.1-.2.2-.3.1-.2.2-.7.4-.5,0,0,0-.2.1.3,0,0,0,.1,0,0,.2-.8.4-.3.5-.3.1,0,.3-.7.5-.4,0-.6.2-.5.3-.3.3.7.6.2.9.3.3.1.6,0,.9,0,0,0,.1-.3.2,0,0,.3.1,0,.2,0,0,0,.1-.1.2,0,.2.7.5.3.7.4.2,0,.5.2.7,0,.2,0,.3-.4.5-.3,0,0,.2-.3.1.3,0,.2.1-.3.2-.3.1,0,.2,0,.3,0,.1,0,.3,0,.4,0,0,0,.2-.3.3-.3,0,0,.2,0,.3,0,0,0,.2.3.3.4.1,0,.3-.2.3.1.1.5.4.3.5.4.2.1.4.2.6.1.1,0,.1.5.2.5,0,0-.2,1.5-.4,1.9,0,0,0,.2,0,.2-.2.4-.5,1.1-.6,1-.1-.1-.3,0-.5-.1Z"/>
    <path d="M385.1,163.3c0-.2,0-.3,0-.5,0,0,.2-.2-.3-.1-.3,0,.4-.1.3-.2,0-.1,0-.3-.1-.4,0-.1-.3-.2-.4-.4,0-.1.2-.3-.2-.4-.3,0,.2-.3,0-.4-.1-.1-.2-.2,0-.4.2-.1.4-.2.2-.3,0,0-.4,0-.4-.1,0,0,.3-.2-.4-.1,0,0,0,0,.1,0,.4-.1.4-.2,0-.2-.3,0-.2,0-.3,0,0-.1,0-.2,0-.4,0,0,.3-.2.3-.3,0-.1-.3-.2,0-.3.3-.1.3-.2.2-.3,0,0,.3-.2-.4,0,0,0,0,0,0,0,.8-.3-.3-.2-.1-.4.2-.2,0-.3,0-.5,0,0,.2-.1-.3,0-.2,0-.2,0,0,0,.6-.2.2-.3.3-.4.1-.1-.2-.2.3-.4.2,0,.3-.2-.3-.2-.3,0,0,0,0-.1,0,0-.3,0-.3,0,0,0,.2-.1.3-.2,0,0,0,0,0,0-.7,0,.2-.4,0-.6-.2-.2-.2-.4-.1-.6,0-.1.2-.3,1.3-.5.5-.1,1.1-.2,1.4-.2.2,0,.5,0,.5,0,.1,0,.2,0,.4.1.2,0,.8.1.5.3,0,0,.2,0-.3.2,0,0-.1,0,0,0,.8,0,.3.3.4.5,0,.1.7.2.5.4.6,0,.5,0,.4.2-.6.4-.1.6-.2.9,0,.3,0,.6,0,.9,0,0,.4,0,0,.1-.2,0,0,.1,0,.2,0,0,.2.1,0,.2-.6.3-.2.5-.2.7,0,.2,0,.5.1.7.1.1.5.2.4.4,0,0,.3,0-.3.2-.2,0,.3,0,.3,0,0,0,0,.2,0,.3,0,.1,0,.3,0,.4,0,0,.3.1.4.2,0,0,0,.2,0,.3,0,.1-.3.3-.3.4,0,.1.2.2,0,.3-.5.3-.2.4-.2.6,0,.2,0,.4.1.6,0,.1-.4.3-.4.4,0,0-1.4.3-1.9.4,0,0-.2,0-.2,0-.5,0-1.2,0-1.2-.2,0-.2,0-.4,0-.6Z"/>
    <path d="M396.3,169.6c-.1-.2-.3-.3-.5-.5,0,0,0-.3-.4,0-.2.2.2-.3.1-.4-.2,0-.3-.3-.4-.4-.2,0-.5,0-.6-.1-.2,0-.1-.4-.5-.3-.3.1,0-.4-.2-.4-.2,0-.4,0-.3-.3,0-.2,0-.4,0-.4,0,0-.3.2-.4.2,0,0,0-.3-.4.1,0,0,0,0,0-.1.2-.4.1-.4-.1-.2-.2.2-.2.1-.3.1-.1,0-.3-.1-.3-.2,0,0,0-.4,0-.5,0-.1-.3,0-.2-.2,0-.3,0-.3-.1-.4,0,0,0-.3-.3.2,0,0,0,0,0,0,.2-.8-.4,0-.4-.2,0-.3-.3-.2-.4-.2,0,0,0-.2-.2.2,0,.1-.1.2,0,0,0-.6-.2-.3-.2-.4-.1-.1-.3,0-.3-.4,0-.2,0-.3-.3.2,0,.3,0,0-.2,0,0,0-.1.3-.2.3,0,0,0-.2,0-.4,0,0,0,0,0,0-.3.6-.3-.3-.6,0-.2.2-.4.1-.6,0-.1,0-.2-.2-.5-1.3-.1-.5-.2-1.1-.2-1.4,0-.2,0-.5,0-.5,0-.1.2-.3.3-.4.2-.2.4-.8.6-.5,0,0,.2-.2.2.3,0,0,0,.1,0,0,.3-.8.6-.3.9-.3.2,0,.6-.6.8-.3.3-.6.4-.4.5-.2.3.8.9.5,1.4.7.4.3.9.4,1.3.6,0,0,.3-.2.3,0,0,.3.2.1.3.2,0,0,.2,0,.2.2,0,.8.5.6.8.9.3.3.5.5.9.6.2,0,.6,0,.7.2,0,.1.3,0,0,.4,0,.1.3-.1.3-.1.1,0,.2.2.3.3.2.1.3.3.5.4.1,0,.4,0,.5,0,.1,0,.2.1.3.3,0,.2,0,.4,0,.6,0,.2.4,0,.3.4-.2.6.2.6.4.8.1.2.3.5.6.6.2,0-.1.5,0,.6,0,0-1,1.1-1.4,1.4,0,0-.2.1-.2.1-.4.2-1.1.6-1.2.4-.1-.2-.3-.4-.5-.6Z"/>
    <path d="M391,137.2c0,.5,0,.9,0,1.4,0,.2-.2.4.3.5.3,0-.4.3-.3.4,0,.4,0,.9,0,1.3,0,.4.3.9.4,1.3,0,.4-.2.9.1,1.3.3.3-.2.7,0,1,.1.4.2.7,0,1.1-.2.3-.4.5-.3.8,0,.2.4.3.4.5,0,.2-.3.4.4.5,0,0,0,0-.1.1-.4.2-.4.4,0,.6.3.1.2.3.3.4,0,.4,0,.8,0,1.1,0,.3-.3.6-.3.9,0,.3.2.6,0,.9-.3.3-.3.5-.3.8,0,.2-.3.3.3.5,0,0,0,0,0,0-.8.4.2.9,0,1.3-.2.5,0,.9-.1,1.4,0,.1-.2.2.2.4.2,0,.2.2,0,.2-.7.3-.3.7-.4,1.1-.2.4,0,.9-.5,1.2-.2.1-.4.4.2.7.3.1,0,.3,0,.5,0,.1.3.3.3.4,0,.1-.3.2-.4.3,0,0,0,0,0,.1.5.8-.5,1.2-.5,1.8,0,.7-.2,1.3-.6,1.8-.2.3-.5.6-1.6.4-.5,0-1-.3-1.3-.5-.2-.2-.4-.4-.4-.5,0-.2-.1-.4-.1-.6,0-.4-.4-.9,0-1.1.1,0-.1-.3.4-.2,0,0,.1,0,0,0-.7-.7,0-1,0-1.5,0-.4-.5-.9-.2-1.3-.6-.3-.4-.6-.2-.8.8-.7.4-1.6.6-2.4.2-.8,0-1.7.2-2.6,0-.1-.3-.3,0-.4.3-.2,0-.4,0-.6,0-.2-.1-.4,0-.5.6-.7.2-1.4.3-2.1,0-.7,0-1.4,0-2.1-.1-.4-.5-.8-.4-1.3,0-.2-.3-.4.3-.6.2,0-.3-.2-.3-.3,0-.3,0-.6,0-.9,0-.4,0-.8,0-1.2,0-.2-.3-.5-.4-.7,0-.3,0-.5,0-.8,0-.3.3-.7.3-1,0-.3-.2-.7,0-1.1.5-.6.3-1.2.4-1.9,0-.6.1-1.2,0-1.9,0-.4.5-.6.5-1,0-.2,1.5-.2,2-.1,0,0,.2,0,.2,0,.4.4,1.1.7,1.1,1.1-.1.5-.1,1.1-.1,1.6Z"/>
    <path d="M396.4,139.4c-.1,0-.3-.1-.4-.1,0,0,0-.3-.3.2-.1.2,0-.4,0-.4-.2,0-.3-.1-.4,0-.2,0-.4.2-.5.2-.2,0-.2-.3-.4,0-.2.2-.1-.3-.3-.2-.2,0-.3.1-.3-.1,0-.2,0-.4-.2-.3,0,0-.2.3-.3.3,0,0,0-.3-.3.3,0,0,0,0,0-.2,0-.4,0-.4-.1-.2-.1.2-.2.2-.2.2-.1,0-.2,0-.3-.1,0,0,0-.3-.1-.4,0,0-.3.2-.2-.2,0-.3,0-.3-.2-.4,0,0,0-.3-.2.3,0,0,0,0,0,0,.1-.8-.3.2-.4,0,0-.2-.3-.1-.4-.2,0,0,0-.2-.2.2,0,.2-.1.2,0,0,0-.6-.1-.3-.2-.4,0-.2-.3,0-.3-.4,0-.2,0-.3-.3.2-.1.2,0,0-.1,0,0,0-.2.3-.2.3,0,0,0-.2,0-.4,0,0,0,0,0,0-.4.6-.3-.3-.5-.2-.2.1-.4,0-.5-.2,0,0-.1-.3.2-1.4.1-.5.3-1,.4-1.3.1-.2.2-.4.3-.5,0,0,.2-.2.3-.3.2-.1.4-.6.5-.3,0,0,.1-.2,0,.3,0,0,0,.1,0,0,.4-.7.4-.2.6-.2.1,0,.5-.6.5-.3.3-.6.3-.4.3-.2,0,.7.5.4.7.6.2.2.5.2.8.3,0,0,.2-.3.2,0,0,.3,0,0,.2.1,0,0,.2,0,.2,0,0,.7.3.4.5.5.2.1.4.3.6.2.2,0,.4-.3.5-.2,0,0,.2-.2,0,.3,0,.2.2-.3.2-.3.1,0,.2,0,.3,0,.1,0,.2.1.4.1,0,0,.2-.2.3-.3,0,0,.2,0,.2,0,0,.1.1.3.2.4,0,0,.3-.1.3.2,0,.5.3.4.5.5.2.1.3.2.6.2.1,0,0,.5.2.5,0,0-.3,1.4-.5,1.9,0,0,0,.2,0,.2-.2.4-.6,1.1-.7,1-.1-.1-.3-.1-.5-.2Z"/>
    <path d="M395.3,151.4c0-.2,0-.5,0-.7,0,0,.2-.2-.3-.3-.3,0,.4-.1.3-.2,0-.2,0-.5,0-.7,0-.2-.3-.4-.3-.7,0-.2.2-.4,0-.7-.3-.2.2-.4,0-.5-.1-.2-.2-.4,0-.6.2-.1.4-.3.3-.4,0,0-.4-.1-.4-.2,0,0,.3-.2-.3-.2,0,0,0,0,.1,0,.4-.1.4-.2,0-.3-.3,0-.2-.1-.3-.2,0-.2,0-.4,0-.6,0-.1.3-.3.3-.4,0-.2-.2-.3,0-.4.3-.2.3-.3.2-.4,0,0,.3-.2-.4-.2,0,0,0,0,0,0,.8-.3-.3-.4-.1-.6.2-.2,0-.5,0-.7,0,0,.2-.1-.3-.1-.2,0-.2,0,0-.1.6-.3.2-.4.3-.6,0-.2-.2-.4.2-.6.2-.1.3-.2-.3-.3-.3,0,0-.1,0-.2,0,0-.3,0-.4-.1,0,0,.2-.1.3-.2,0,0,0,0,0,0-.7-.2.1-.6-.1-.9-.2-.3-.2-.6-.2-.9,0-.2.2-.4,1.3-.7.5-.2,1-.3,1.4-.3.2,0,.5,0,.6,0,.1,0,.3.1.4.2.2.2.8.2.6.5,0,0,.2,0-.3.2,0,0-.1,0,0,0,.8.1.4.5.5.8,0,.2.8.4.5.6.6,0,.6.2.4.4-.6.6,0,1-.1,1.5,0,.5.1,1,.1,1.5,0,0,.4.1,0,.2-.3.1,0,.2,0,.3,0,0,.2.2,0,.3-.6.4-.2.8-.2,1.2,0,.4,0,.8,0,1.1.1.2.5.4.3.7,0,.1.3.2-.3.3-.2,0,.3.1.3.2,0,.2,0,.3,0,.5,0,.2,0,.4,0,.7,0,.1.3.3.3.4,0,.1,0,.3,0,.4,0,.2-.3.4-.4.5,0,.2.2.4,0,.6-.5.3-.3.6-.3,1,0,.3-.1.6,0,1,0,.2-.5.3-.5.5,0,0-1.5,0-2,0,0,0-.2,0-.2,0-.5-.2-1.2-.4-1.1-.6,0-.3,0-.6,0-.8Z"/>
    <path d="M406,141.7c-.2,0-.3,0-.5,0,0,0,0-.3-.2.3,0,.3,0-.4-.1-.4-.2,0-.3,0-.5,0-.2,0-.3.2-.5.3-.2,0-.3-.3-.5,0-.2.3-.2-.2-.4-.1-.1.1-.3.2-.4,0,0-.2-.2-.4-.3-.3,0,0-.1.4-.2.4,0,0-.1-.3-.2.3,0,0,0,0,0-.1,0-.4-.1-.4-.2-.1,0,.3-.1.2-.2.2-.1,0-.3,0-.4,0,0,0-.2-.3-.3-.4,0,0-.2.2-.3,0,0-.3-.2-.3-.3-.3,0,0-.1-.3-.2.3,0,0,0,0,0,0-.1-.8-.3.2-.5,0-.2-.2-.3,0-.5,0,0,0,0-.2-.1.3,0,.2,0,.2,0,0-.1-.6-.2-.3-.4-.4-.1-.1-.3.2-.4-.3,0-.2-.1-.3-.2.3,0,.3,0,0-.2,0,0,0,0,.3-.1.3,0,0,0-.2-.1-.3,0,0,0,0,0,0-.2.7-.4-.2-.6,0-.2.2-.4.1-.6,0-.1,0-.2-.2-.4-1.4,0-.5,0-1.1,0-1.4,0-.2,0-.5.1-.5,0-.1.1-.2.2-.3.1-.2.3-.7.4-.5,0,0,0-.2.1.3,0,0,0,.1,0,0,.2-.8.4-.3.6-.3.2,0,.3-.7.5-.4,0-.6.2-.5.3-.3.3.7.7.2,1,.3.3,0,.7,0,1,0,0,0,.1-.3.2,0,0,.3.1,0,.2,0,0,0,.1-.1.2,0,.2.7.5.3.8.4.3,0,.5.2.8,0,.2,0,.4-.4.5-.3,0,0,.2-.3.2.3,0,.2.1-.3.2-.3.1,0,.2,0,.3,0,.2,0,.3,0,.5,0,0,0,.2-.3.3-.3.1,0,.2,0,.3,0,.1,0,.2.3.3.4.1,0,.3-.2.4.1.2.5.4.3.6.4.2,0,.4.2.7,0,.1,0,.2.5.3.5,0,0,0,1.5-.2,2,0,0,0,.2,0,.2-.2.4-.4,1.1-.5,1.1-.2-.1-.4,0-.6-.1Z"/>
    <path d="M403.4,156.4c0-.3.1-.6.1-.9,0-.1.3-.2-.2-.4-.3,0,.4-.1.4-.2,0-.3,0-.6,0-.8,0-.3-.2-.6-.2-.8,0-.3.3-.5,0-.8-.3-.3.3-.4.2-.6-.1-.2-.2-.5,0-.7.2-.1.4-.3.3-.5,0-.1-.4-.2-.3-.3,0,0,.3-.2-.3-.3,0,0,0,0,.2,0,.4,0,.4-.2.1-.3-.3-.1-.2-.2-.2-.3,0-.2,0-.4,0-.7,0-.2.3-.3.4-.5,0-.2-.2-.4,0-.5.3-.2.3-.3.3-.5,0,0,.3-.2-.3-.3,0,0,0,0,0,0,.8-.3-.3-.5,0-.8.2-.3,0-.5,0-.8,0,0,.2-.2-.3-.2-.2,0-.2,0,0-.1.6-.2.2-.4.3-.6,0-.2-.2-.4.2-.7.2-.1.3-.3-.3-.3-.3,0,0-.2,0-.2,0,0-.3,0-.4-.2,0,0,.2-.1.3-.2,0,0,0,0,0,0-.7-.2.1-.7-.1-1-.2-.3-.2-.6-.2-1,0-.2.1-.4,1.2-.8.5-.2,1-.3,1.4-.3.2,0,.5,0,.6,0,.1,0,.3.2.4.3.2.2.8.3.6.6,0,0,.2.1-.2.3,0,0,0,0,0,0,.8.2.4.6.5,1,0,.3.8.5.5.8.7,0,.6.3.4.5-.6.7-.1,1.2-.2,1.8,0,.6,0,1.2,0,1.8,0,0,.4.2,0,.3-.3.1,0,.3,0,.4,0,.1.1.2,0,.4-.7.4-.3.9-.4,1.4,0,.4-.2.9,0,1.4,0,.3.4.6.2.8,0,.1.3.3-.3.3-.2,0,.3.2.3.2,0,.2,0,.4,0,.6,0,.3-.1.5,0,.8,0,.2.2.3.3.5,0,.2,0,.3,0,.5-.1.2-.3.4-.4.6,0,.2.2.5-.1.6-.6.3-.4.7-.5,1.1-.1.4-.2.7-.1,1.1,0,.2-.5.3-.5.5,0,0-1.5,0-2-.1,0,0-.2,0-.2,0-.4-.3-1.1-.6-1-.8.1-.3.1-.7.2-1Z"/>
    <path d="M414.5,150.3c-.1,0-.2-.2-.4-.2,0,0,0-.3-.3.2-.2.2.1-.4,0-.4-.1,0-.2-.1-.4-.1-.1,0-.4.1-.5.1-.1,0-.1-.3-.4,0-.2.2,0-.3-.2-.2-.1,0-.3.1-.3-.2,0-.2,0-.4-.1-.3,0,0-.2.3-.3.3,0,0,0-.3-.3.3,0,0,0,0,0-.1,0-.4,0-.4-.1-.1-.1.2-.2.2-.2.2-.1,0-.2,0-.3-.1,0,0,0-.3-.1-.4,0,0-.2.2-.2-.2,0-.3,0-.3-.1-.3,0,0,0-.3-.2.3,0,0,0,0,0,0,.1-.8-.3.2-.4,0,0-.2-.2-.1-.4-.1,0,0,0-.2-.2.2,0,.2,0,.2,0,0,0-.6-.1-.3-.2-.4,0-.1-.3.1-.3-.4,0-.2,0-.3-.2.2,0,.3,0,0-.1,0,0,0-.1.3-.2.3,0,0,0-.2,0-.4,0,0,0,0,0,0-.3.6-.3-.3-.5-.1-.2.2-.3,0-.5,0,0,0-.2-.3,0-1.4,0-.5,0-1.1.2-1.4,0-.2.1-.5.2-.5,0,0,.2-.2.2-.3.1-.2.3-.7.4-.4,0,0,.1-.2,0,.3,0,0,0,.1,0,0,.3-.8.4-.2.6-.2.2,0,.4-.6.5-.3.2-.6.3-.5.3-.3.2.7.6.3.8.5.3.2.6.2.9.3,0,0,.2-.3.2,0,0,.3.1,0,.2.1,0,0,.2,0,.2,0,0,.7.4.4.6.6.2.2.4.3.7.2.2,0,.4-.3.5-.1,0,0,.2-.2,0,.4,0,.2.2-.2.2-.2.1,0,.2,0,.3.1.1,0,.2.2.4.2,0,0,.3-.2.4-.2.1,0,.2,0,.2.1,0,.1,0,.4.2.5,0,.1.3,0,.3.2,0,.6.2.4.4.6.1.2.3.3.5.3.1,0,0,.5,0,.5,0,0-.7,1.3-1,1.7,0,0-.1.2-.1.2-.3.3-.8.9-.9.8,0-.1-.3-.2-.4-.3Z"/>
    <path d="M409.2,172c0-.4.2-.9.3-1.3,0-.2.3-.3-.2-.6-.2-.1.4-.2.4-.3,0-.4.2-.8.2-1.3,0-.4-.1-.9,0-1.3,0-.4.4-.8.2-1.2-.2-.4.4-.6.3-.9,0-.4,0-.7.3-1,.2-.2.5-.4.4-.7,0-.2-.3-.4-.3-.5,0-.1.4-.3-.2-.5,0,0,0,0,.2,0,.4,0,.5-.3.2-.5-.2-.2-.2-.3-.2-.4,0-.3,0-.7.2-1,0-.2.4-.4.5-.7.1-.3-.1-.6.2-.8.3-.2.4-.4.4-.7,0-.1.3-.2-.3-.5,0,0,0,0,0,0,.9-.2-.1-.8.1-1.2.3-.4.2-.8.2-1.2,0-.1.2-.2-.2-.4-.2,0-.2-.2,0-.2.7-.2.3-.6.5-.9.2-.3-.1-.7.4-1,.2-.1.4-.3-.2-.6-.3,0,0-.3,0-.4,0-.1-.3-.2-.3-.3,0,0,.2-.2.4-.2,0,0,0,0,0,0-.6-.5.3-1,0-1.5-.2-.5-.1-1,0-1.5,0-.3.2-.6,1.3-.9.5-.1,1.1-.2,1.4,0,.2,0,.5.2.5.3.1.2.3.3.4.5.2.4.8.7.5,1.1,0,.1.2.3-.3.4,0,0-.1,0,0,0,.8.5.3,1,.3,1.5,0,.4.6.9.3,1.3.6.3.5.6.3.8-.7.8-.4,1.7-.6,2.5-.2.8-.2,1.7-.4,2.6,0,.1.3.3,0,.4-.3.1-.1.4-.2.5,0,.2,0,.4-.1.5-.8.5-.5,1.3-.7,1.9-.2.6-.4,1.3-.4,1.9,0,.4.3.9,0,1.2,0,.2.2.4-.4.4-.2,0,.2.3.2.4,0,.3,0,.5-.2.8,0,.4-.2.7-.2,1.1,0,.2.2.5.2.7,0,.2,0,.5-.2.7-.1.3-.4.5-.5.8-.1.3,0,.7-.3.9-.6.4-.5,1.1-.7,1.6-.2.5-.3,1.1-.3,1.7,0,.3-.6.5-.6.8,0,.1-1.5,0-2-.1,0,0-.2,0-.2-.1-.4-.4-1-.8-.9-1.2.2-.5.2-1,.3-1.5Z"/>
    <path d="M425.4,210.1c-.2-.7-.3-1.3-.5-2,0-.2,0-.6-.5-.7-.3,0,.3-.5.2-.7-.2-.6-.3-1.2-.6-1.8-.2-.6-.6-1.1-.9-1.6-.3-.6-.2-1.2-.7-1.7-.4-.4-.1-1-.4-1.4-.3-.4-.6-.9-.5-1.5,0-.4,0-.8-.2-1.1-.2-.2-.5-.3-.6-.5,0-.2,0-.6-.6-.5,0,0,0-.1,0-.2.3-.4.1-.7-.2-.7-.3,0-.4-.3-.5-.4-.2-.5-.5-.9-.6-1.4-.1-.4,0-.8-.2-1.2-.1-.4-.6-.7-.5-1.1.1-.5,0-.8-.2-1.1,0-.2,0-.5-.6-.4,0,0,0,0,0-.1.5-.9-.8-1-.9-1.6-.1-.7-.5-1.2-.9-1.7,0-.1,0-.4-.5-.3-.2,0-.3-.1-.2-.3.3-.7-.2-1-.4-1.5-.2-.5-.7-.9-.5-1.6,0-.3,0-.6-.6-.6-.3,0-.2-.4-.4-.5-.1-.1-.4-.1-.5-.3,0-.1,0-.4,0-.5,0,0,0-.1,0-.1-1-.4-.6-1.5-1.2-2.2-.6-.6-.9-1.4-1.3-2.2-.2-.4-.3-.9.6-1.8.4-.4.9-.7,1.2-.7.3,0,.6,0,.7.1.2.2.5.3.7.5.4.4,1.2.6,1.2,1.2,0,.2.4.2,0,.6,0,0,0,.1,0,.1,1.1.2,1,1.2,1.4,1.8.4.5,1.2.8,1.3,1.5.7,0,.8.4.8.8,0,1.4,1,2.3,1.6,3.5.5,1.2,1.2,2.3,1.8,3.5,0,.2.5.2.4.6-.1.3.2.5.3.8.1.2.4.4.3.7-.2,1.2.6,2,1,2.9.3,1,.7,1.9,1.3,2.8.3.5.9,1,1,1.6,0,.3.5.4,0,.9-.1.1.4.2.5.4.2.4.3.8.5,1.2.2.6.4,1.1.6,1.7.2.3.5.6.7.9.2.3.3.7.4,1.1,0,.5,0,1,.1,1.5,0,.5.5.9.4,1.5-.3,1,.2,1.8.4,2.7.1.9.3,1.7.6,2.6.2.5-.2,1-.2,1.5,0,.2-1.4.8-1.9.8,0,0-.2,0-.2,0-.5-.4-1.3-.7-1.4-1.2,0-.8-.3-1.5-.5-2.3Z"/>
    <path d="M272.7,313c.2-.6.5-1.2.6-1.8,0-.2.4-.4,0-.8-.2-.2.5-.2.5-.4.1-.6.4-1.1.5-1.7.1-.6,0-1.2.2-1.8.1-.6.6-1.1.4-1.7-.1-.5.5-.8.5-1.3,0-.5,0-1,.4-1.4.3-.3.6-.6.5-.9,0-.2-.3-.5-.2-.7,0-.2.4-.4-.2-.7,0,0,0,0,.2-.1.5-.1.5-.4.3-.7-.2-.3-.1-.4-.1-.6,0-.5.2-1,.4-1.4.1-.3.4-.7.6-1,.1-.4,0-.8.3-1.1.4-.3.4-.6.5-1,0-.2.4-.4-.2-.7,0,0,0,0,0-.1.9-.4,0-1.2.3-1.7.3-.5.3-1.2.4-1.8,0-.2.2-.3-.2-.5-.1,0-.1-.2,0-.3.7-.3.4-.8.6-1.3.2-.5,0-1.1.6-1.5.2-.2.4-.5-.1-.8-.2-.2,0-.4,0-.6,0-.2-.3-.4-.3-.5,0-.1.3-.2.4-.3,0,0,0,0,0-.1-.5-.8.5-1.5.4-2.2,0-.8.1-1.5.3-2.3.1-.4.3-.8,1.5-1,.5,0,1.1,0,1.4.2.2.2.4.3.5.5,0,.3.2.5.2.8.1.5.6,1.1.2,1.6-.1.1.2.4-.4.4,0,0-.1,0,0,.1.7.8,0,1.4,0,2.1,0,.6.5,1.3.1,1.8.6.4.4.8.1,1.1-.9,1.1-.6,2.3-.9,3.5-.3,1.2-.5,2.4-.8,3.6,0,.2.3.4,0,.6-.3.2-.2.5-.2.8,0,.2,0,.5-.2.7-.9.8-.7,1.8-1,2.7-.3.9-.6,1.8-.7,2.8,0,.6.1,1.2-.1,1.8-.1.2.1.6-.5.6-.2,0,.2.4.2.5,0,.4-.2.8-.3,1.1-.1.5-.4,1-.4,1.6,0,.3,0,.7,0,1.1,0,.4-.1.7-.3,1-.2.4-.5.8-.7,1.2-.2.4,0,1-.5,1.3-.7.6-.7,1.5-1.1,2.2-.3.7-.6,1.5-.8,2.3,0,.5-.7.7-.9,1.1,0,.2-1.5,0-2-.3,0,0-.2-.1-.2-.2-.3-.6-.8-1.2-.6-1.6.3-.7.5-1.4.7-2.1Z"/>
    <path d="M247.7,363.6c.4-.9.9-1.8,1.3-2.7.2-.3.6-.5.3-1.1-.1-.3.6-.3.7-.6.4-.8,1-1.6,1.4-2.4.4-.8.7-1.7,1.1-2.4.4-.8,1.1-1.4,1.3-2.3.1-.8.9-1.1,1.2-1.7.3-.7.6-1.4,1.1-1.9.4-.4.8-.7,1-1.2,0-.3,0-.7.1-1,.2-.3.6-.5.2-1,0,0,.1-.1.2-.1.5-.1.7-.5.6-.9-.1-.4,0-.6.2-.8.3-.7.6-1.4,1-2,.3-.5.8-.9,1.1-1.3.3-.5.3-1.2.8-1.5.5-.3.7-.8,1-1.3.1-.3.5-.5,0-1,0,0,0-.1,0-.2,1.1-.4.5-1.6,1.1-2.3.6-.7.8-1.6,1.2-2.4,0-.2.4-.4,0-.8-.1-.1,0-.4.1-.4.9-.3.8-1.1,1.2-1.7.4-.7.5-1.5,1.2-2,.3-.2.6-.6.2-1.2-.2-.3.2-.5.3-.8,0-.2-.1-.6,0-.8,0-.2.4-.3.5-.4,0,0,0-.1,0-.2-.2-1.3,1.1-2,1.3-3.1.3-1.1.7-2.2,1.2-3.2.3-.6.6-1.1,1.9-1.2.6,0,1.1.1,1.3.5.2.3.3.6.3.8,0,.4,0,.8,0,1.2,0,.8.2,1.7-.4,2.3-.2.2,0,.6-.5.6,0,0-.1,0-.1.1.4,1.3-.5,2.1-.9,3.1-.3.8,0,1.9-.7,2.6.4.7,0,1.2-.3,1.6-1.3,1.4-1.7,3.2-2.5,4.7-.8,1.6-1.5,3.3-2.3,4.9-.1.3,0,.7-.3.9-.4.2-.4.7-.6,1-.2.3-.2.7-.5,1-1.2,1-1.5,2.4-2.2,3.6-.7,1.2-1.4,2.4-1.9,3.8-.3.8-.4,1.7-1,2.4-.2.3-.1.8-.8.8-.2,0,0,.5,0,.8-.3.5-.6,1-.9,1.5-.4.7-.9,1.4-1.3,2.1-.2.4-.3,1-.5,1.4-.2.5-.5.9-.8,1.3-.4.5-.9.9-1.3,1.5-.4.5-.5,1.3-1.1,1.7-1,.8-1.3,1.9-1.9,3-.6,1-1.1,2.1-1.4,3.2-.2.6-.9,1-1.1,1.6-.1.3-1.6.1-2.1-.2,0,0-.2-.1-.2-.2-.2-.8-.6-1.6-.3-2.3.5-1,.9-2.1,1.4-3.1Z"/>
    <path d="M218.7,366.2c1.1,2.5,2.2,5,3.4,7.5.5.9.7,2,1.6,2.7.5.4.3,1.5.8,2.4,1.2,2.3,2.3,4.6,3.6,6.8,1.2,2.2,2.6,4.3,3.8,6.4,1.2,2.2,2.2,4.6,3.6,6.4,1.2,1.6,1.8,3.4,3,4.9,1.3,1.5,2.6,3,3.8,4.5.9,1.1,1.8,2.2,3,3,.7.5,1.6.7,2.4,1.2.7.5,1.5,1.2,2.4,1,0,0,.4.3.5.4.7.8,1.8,1.1,2.5,1.1.8,0,1.4.1,2,.2,1.7.2,3.4,0,5.3-.3,1.4-.3,2.8-.6,4.3-1.1,1.5-.5,2.9-1.5,4.3-1.9.7-.2,1.4-.5,2-.8.6-.3,1.2-.7,1.9-1.1.7-.5,1.7-.7,1.9-1.7,0,0,.3-.3.4-.3,2.4-.7,3.6-3,5.5-4.4,2-1.5,3.7-3.4,5.4-5.2.4-.5,1.1-.9,1.1-1.7,0-.3.5-.8.8-1,1.7-1,2.6-2.8,3.8-4.3,1.4-1.7,2.4-3.6,4-5.2.7-.7,1.5-1.7,1.5-3,0-.6.8-1.4,1.2-2.1.3-.6.4-1.3.7-1.9.3-.5.7-.9,1.1-1.3.1-.1.2-.3.3-.5.9-3.1,3.2-5.6,4.4-8.6,1.3-3,2.7-6,4.1-9,.8-1.6,1.7-3.3,3.3-3.9.7-.3,1.2,0,1.2.8,0,.6,0,1.3-.3,1.9-.3,1-.7,2-1,3-.7,2-1.1,4.1-2.3,6-.4.6-.4,1.4-1.1,1.7,0,0-.3.3-.3.4-.5,3-2.4,5.5-3.7,8.2-1.1,2.3-1.8,4.7-3.4,6.8-.2,1.5-1.2,2.9-2.1,4-3.3,3.9-6,8.3-9.5,12-1.8,1.9-3.6,3.8-5.5,5.5-1.9,1.8-3.9,3.4-6.1,4.9-.7.5-1.2,1.3-2.2,1.6-1,.3-1.9,1.2-2.9,1.7-.9.5-1.8,1.2-2.8,1.5-2,.6-3.9,1.4-5.8,2.1-2,.7-4.1,1.4-6.3,1.5-2.2.1-4.5-.2-6.5-.9-2.1-.7-4-1.6-5.8-2.6-2.2-1.2-4.5-2.5-6.3-4.4-.8-.8-1.8-1.4-2.1-2.6,0-.3-1.1-.8-1.5-1.4-1.1-1.3-2.1-2.8-3-4.3-1.3-2-2.3-4.1-3.5-6.1-.7-1.2-1.6-2.3-2.3-3.5-.8-1.3-1.5-2.6-2.1-3.9-.8-1.7-1.5-3.4-2.3-5.1-.8-1.8-2-3.4-2.6-5.2-1.1-3.3-2.8-6.3-4.2-9.5-1.3-3.2-2.6-6.4-3.9-9.6-.8-1.8-.9-3.7-1.5-5.5-.3-.9.8-2.4,1.4-2.2.1,0,.3.1.3.3,1,1.6,2.2,3,2.9,5,1,2.9,2.2,5.8,3.4,8.6Z"/>
    <path d="M217.2,335.6l-1.3-1.4c-.5-.5-.9-.9-1.2-1.1-.2,0-.2-.2-.3-.2,0,0-.1.1-.2.3,0,.3-.2-.4-.6-.3-.4.1-1.1.3-1.7.4-.6.1-1.2.3-1.8.5-1.1.3-2.2.9-3.4,1.2-1.1.3-2.4.4-3.4.9-.9.5-1.9.2-2.7.6-.9.4-1.9.7-2.9.7-.7,0-1.5,0-2.1.2-.4.2-.7.6-1.2.7-.4,0-1,0-1.2.7,0,0-.2,0-.4,0-.6-.3-1.1-.1-1.4.3-.3.4-.6.4-1,.5-.9.3-1.8.6-2.6.8-.6.2-1.3.2-1.9.5-.2,0-.3.1-.4.2h-.2c0,.1,0,.2,0,.2h0c0,0,0,0-.2,0-.4,0-.6.1-.7.2,0,0-.1,0-.1,0,0,0,0,.2.7,0,0,0,0,0,0,0-.4.2-.1.3,0,.3,0,0,.1,0,.2,0,0,0,0,0,0,0h.2c.2.2.5.3.7.4.8.7,1.9,1.1,2.9,1.5.3.1.5.4.9,0,.1-.1.4,0,.6.1.6.9,1.6.8,2.4,1.1.9.4,2,.3,2.9,1,.4.3,1,.5,1.6,0,.3-.2.7.1,1.1.1.3,0,.7-.2,1-.2.3,0,.5.3.7.5,0,0,.2,0,.3,0,1.6-.4,3,.7,4.6.8,1.6,0,3.2.5,4.7,1,.9.3,1.7.7,2,2,.1.6,0,1.1-.5,1.3-.3.2-.7.3-1,.3-.5,0-1,0-1.5,0-1,0-2,.3-3-.2-.3-.1-.7,0-.9-.5,0,0-.1-.1-.2-.1-1.5.5-2.8-.2-4.2-.4-1.2-.1-2.4.3-3.6-.2-.8.5-1.6.2-2.2-.1-2.2-1.2-4.7-1.4-7.1-2.5-1.2-.5-2.3-1.1-3.5-1.7l-.8-.5c-.3-.2-.5-.3-1-.7-.9-.7-1.7-1.3-2.4-2-.5-.5-1.4-.8-1.7-1.5,0,0,0,0,0-.1.7-.5,1.1-1.2,1.7-1.8.5-.6,1.1-1.3,1.8-1.6.8-.4,1.6-.8,2-.9.5-.2,1-.4,1.4-.6.9-.4,1.9-.8,2.8-1.1,1.9-.5,3.8-.9,5.5-1.5,1.1-.4,2.1-1,3.2-1.1.5,0,.9-.5,1.5,0,.2.1.5-.4.8-.5.7-.2,1.5-.4,2.3-.6,1.1-.3,2.1-.5,3.2-.8.6-.2,1.2-.6,1.8-.8.7-.2,1.3-.4,2-.5.9-.1,1.8-.2,2.6-.3.5,0,.9-.2,1.3-.4.5-.1,1.1-.3,1.8-.2.5,0,1.1.2,1.6.4.5.2,1,.5,1.4.8.4.3.7.6,1,.8.5.5,1,.9,1.4,1.4,1.1,1.2,2.2,2.4,3.4,3.5.7.6.9,1.6,1.5,2.2.3.3-.4,1.7-.9,1.9,0,0-.2,0-.3,0-.9-.3-2-.4-2.7-1.1-1-1.1-2-2.1-3-3.2Z"/>
    <path d="M236.8,328.4c-.2,0-.5,0-.7.2,0,0-.2-.2-.2.3,0,.3-.2-.3-.3-.3-.2.1-.4,0-.6.2-.2.1-.4.4-.6.5-.2.1-.5-.1-.6.2-.1.3-.4-.2-.5,0-.1.2-.3.3-.5,0-.2-.1-.3-.3-.4-.2,0,0,0,.4-.2.4,0,0-.2-.3-.2.4,0,0,0,0,0-.1-.2-.4-.3-.3-.3,0,0,.3,0,.3-.1.3-.2,0-.3.1-.5.1-.1,0-.3-.2-.5-.3-.1,0-.2.3-.4,0-.2-.3-.3-.2-.4-.2,0,0-.2-.3-.1.4,0,0,0,0,0,0-.4-.8-.3.3-.6.2-.2-.2-.4,0-.6,0,0,0-.2-.2-.1.3,0,.2,0,.2,0,0-.3-.6-.4-.2-.6-.2-.2,0-.3.2-.6-.2-.1-.2-.2-.3-.2.3,0,.3-.1,0-.2,0,0,0,0,.3,0,.4,0,0-.1-.2-.2-.3,0,0,0,0,0,0-.1.7-.6-.1-.8.1-.2.2-.5.2-.8.2-.2,0-.4-.2-.7-1.3-.1-.5-.3-1-.3-1.4,0-.2,0-.5,0-.5,0-.1.1-.3.2-.4.1-.2.2-.8.4-.5,0,0,0-.2.2.3,0,0,0,.1,0,0,0-.8.4-.4.7-.5.2,0,.3-.7.5-.5,0-.6.1-.6.3-.4.5.6.9,0,1.3,0,.4,0,.8-.2,1.3-.2,0,0,0-.4.2-.1.1.2.2,0,.3,0,0,0,.1-.2.3,0,.5.6.7.1,1,.1.3,0,.7,0,1-.2.2-.1.3-.5.5-.4,0,0,.1-.3.3.3,0,.2,0-.3,0-.3.1,0,.3,0,.4,0,.2,0,.4,0,.6-.1.1,0,.2-.3.3-.4.1,0,.2-.1.4,0,.2,0,.4.2.5.3.2,0,.3-.3.5,0,.4.4.6.1.9.1.3,0,.6,0,.8-.2.1-.1.4.4.5.3,0,0,.5,1.4.5,1.9,0,0,0,.2,0,.2,0,.5,0,1.2-.2,1.2-.3,0-.5,0-.8.1Z"/>
    <path d="M248.6,357.7c-.3-.6-.4-1.2-.7-1.8,0-.2,0-.5-.5-.5-.3,0,.2-.4.2-.6-.2-.5-.3-1-.6-1.5-.2-.5-.6-.9-.9-1.4-.2-.5-.2-1.1-.7-1.4-.4-.3-.1-.9-.4-1.2-.3-.4-.5-.7-.5-1.2,0-.4.1-.7-.1-1-.1-.2-.5-.2-.6-.4,0-.2,0-.5-.6-.4,0,0,0-.1,0-.2.3-.4.1-.6-.2-.6-.3,0-.4-.2-.4-.3-.2-.4-.4-.8-.6-1.2-.1-.3,0-.7-.1-1,0-.3-.5-.5-.4-1,.1-.4,0-.7-.2-1,0-.2,0-.5-.6-.3,0,0,0,0,0,0,.5-.8-.7-.8-.8-1.3,0-.6-.5-1-.8-1.4,0-.1,0-.4-.5-.2-.2,0-.3,0-.2-.2.3-.7-.2-.9-.3-1.3-.1-.5-.6-.8-.4-1.5,0-.3,0-.6-.6-.5-.3,0-.2-.3-.3-.5-.1-.1-.4-.1-.5-.3,0-.1,0-.3.1-.5,0,0,0,0,0-.1-.9-.4-.4-1.5-.8-2.2-.4-.7-.6-1.5-.7-2.3,0-.4,0-1,1.2-1.4.5-.2,1-.3,1.4-.1.3,0,.5.2.6.3.1.2.3.4.4.5.3.4.9.6.7,1.1,0,.2.3.2-.2.5,0,0,0,.1,0,.1.9.3.7,1,1,1.5.3.4,1,.6,1,1.2.7,0,.7.3.7.6,0,1.2.8,1.9,1.3,2.9.5,1,1.1,1.9,1.6,2.9,0,.2.5.1.3.5-.1.3.2.4.3.7.1.2.3.3.3.6-.2,1.1.6,1.7.9,2.5.3.8.6,1.6,1.1,2.3.3.4.8.8.9,1.3,0,.2.4.3,0,.8-.1.1.4.1.4.3.2.3.3.7.4,1,.2.5.3,1,.6,1.4.1.3.5.5.7.7.2.3.3.6.3.9,0,.4,0,.9,0,1.3,0,.4.5.7.4,1.2-.2.9.2,1.5.4,2.1.2.6.4,1.2.8,1.6.2.2,0,.7.2,1,0,0-.7,1.3-1.1,1.7,0,0-.2.1-.2.1-.6,0-1.5.1-1.8-.4-.4-.7-.9-1.4-1.1-2.1Z"/>
    <path d="M175.8,260.8c0,0-.2.1-.3.2,0,0-.2-.1,0,.3.2.2-.3-.3-.3-.2,0,.1-.2.1-.2.2,0,.1,0,.3,0,.5,0,.1-.3,0-.2.3.1.3-.3,0-.3,0,0,.2,0,.3-.2.1-.2,0-.3-.2-.3-.1,0,0,.2.3.1.4,0,0-.2-.2.1.3,0,0,0,0-.1,0-.3-.3-.3-.2-.2,0,.1.2,0,.2,0,.3,0,0,0,.2-.2.2,0,0-.3-.1-.4-.1,0,0,0,.3-.2,0-.2-.2-.3-.2-.3-.1,0,0-.2-.2.1.3,0,0,0,0,0,0-.6-.6,0,.3-.2.2-.2-.1-.2,0-.3.2,0,0-.2-.1.1.3,0,.1,0,.2,0,0-.5-.4-.3,0-.4-.1-.1,0,0,.2-.4,0-.2-.1-.3-.2,0,.3.2.2,0,0,0,.1,0,0,.2.3.1.3,0,0-.2-.2-.3-.2,0,0,0,0,0,0,.3.6-.3,0-.3.2,0,.2-.1.3-.3.3,0,0-.3,0-1-1-.3-.4-.7-.8-.9-1.1-.1-.2-.3-.4-.3-.5,0-.1,0-.2-.1-.3,0-.2-.3-.7,0-.5,0,0,0-.2.2.2,0,0,0,0,0,0-.4-.7,0-.4,0-.5,0-.1-.3-.7,0-.5-.3-.5-.2-.5,0-.4.6.4.5,0,.7-.1.2,0,.3-.3.5-.4,0,0-.2-.3,0-.1.2.2.1,0,.1,0,0,0,0-.2.1,0,.5.4.4,0,.6,0,.2,0,.3,0,.4-.3,0-.1-.1-.5,0-.4,0,0-.1-.3.3.2.1.1-.1-.3-.1-.3,0,0,0,0,.1-.1,0,0,.2,0,.2-.2,0,0,0-.3,0-.4,0,0,0-.1.1-.1.1,0,.3.1.4.1.1,0,0-.3.2,0,.4.3.4,0,.5,0,.1,0,.3,0,.3-.3,0-.1.4.2.4.2,0,0,1,1.1,1.3,1.5,0,0,.1.2.1.2.2.4.6,1,.5,1-.1,0-.2.1-.3.2Z"/>
    <path d="M169.5,255.7c0,0,0,.2.2.2,0,0-.1.2.3-.1.2-.2-.2.3-.2.3.1,0,0,.1.2.2.1,0,.3,0,.4,0,.1,0,0,.3.2.1.2-.2,0,.2,0,.2.1,0,.2,0,.1.2,0,.2-.2.4,0,.3,0,0,.3-.2.3-.2,0,0-.2.3.3-.2,0,0,0,0,0,.1-.3.3-.2.3,0,.1.2-.2.2-.1.2-.1,0,0,.1,0,.1.1,0,0-.1.3-.1.4,0,0,.2,0,0,.2-.2.3-.1.3,0,.3,0,0-.1.3.3-.2,0,0,0,0,0,0-.5.7.3,0,.2.1,0,.2,0,.2.2.2,0,0,0,.2.2-.2.1-.1.1-.1,0,0-.3.5,0,.3,0,.4,0,.1.2,0,0,.4-.1.2-.1.3.3-.1.2-.2,0,0,0,0,0,0,.2-.2.3-.2,0,0-.1.2-.2.3,0,0,0,0,0,0,.5-.5,0,.3.2.2.2,0,.2,0,.3.2,0,0,0,.3-.7,1.2-.3.4-.6.9-.8,1.1-.2.2-.3.4-.4.4,0,0-.2.1-.3.2-.2.1-.6.5-.5.2,0,0-.2.1.1-.3,0,0,0,0,0,0-.6.6-.3,0-.5,0-.1,0-.6.4-.5.2-.4.5-.4.3-.3.2.3-.7-.2-.4-.3-.6,0-.2-.3-.3-.4-.4,0,0-.3.2-.1,0,.1-.2,0,0,0-.1,0,0-.2,0,0,0,.3-.6,0-.4-.1-.6,0-.2-.1-.3-.4-.3-.1,0-.4.2-.4,0,0,0-.3.1.1-.3.1-.1-.2.2-.3.2,0,0-.1,0-.2-.1,0,0,0-.2-.2-.2,0,0-.3.1-.4.1,0,0-.1,0-.1-.1,0-.1.1-.3,0-.4,0,0-.3,0-.1-.2.3-.4,0-.4,0-.5,0-.1,0-.3-.3-.3-.1,0,.2-.4.2-.4,0,0,.3-.3.6-.6.3-.3.7-.6.9-.8,0,0,.2-.1.2-.1.4-.3,1-.7,1-.6,0,.1.1.2.2.2Z"/>
    <path d="M178.4,254.8c0,0-.2.1-.2.3,0,0-.2,0,.2.3.2.2-.3-.2-.3-.1,0,.1-.1.1-.1.3,0,.1.1.3.1.4,0,.1-.3,0,0,.3.2.2-.3,0-.2.1,0,.1,0,.2-.2.2-.2,0-.4,0-.3,0,0,0,.3.3.3.3,0,0-.3,0,.2.3,0,0,0,0-.1,0-.4-.2-.4-.1-.1,0,.2.2.2.2.2.2,0,0,0,.2-.1.2,0,0-.3,0-.4,0,0,0,.1.2-.2.1-.3,0-.3,0-.3,0,0,0-.3,0,.3.2,0,0,0,0,0,0-.8-.3.2.3,0,.3-.2,0-.1.2-.1.3,0,0-.2,0,.2.2.1,0,.2,0,0,0-.6-.2-.3,0-.4,0-.1,0,.1.2-.4.1-.2,0-.3,0,.2.2.2.1,0,0,0,.1,0,0,.3.2.3.2,0,0-.2,0-.3,0,0,0,0,0,0,0,.6.3-.3.2-.2.3.1.2,0,.3,0,.4,0,0-.3,0-1.4-.2-.5-.1-1-.2-1.4-.4-.2,0-.4-.2-.5-.2,0,0-.2-.2-.3-.2-.2-.1-.6-.4-.3-.4,0,0-.2-.1.3,0,0,0,.1,0,0,0-.7-.4-.2-.4-.2-.5,0-.1-.6-.4-.3-.5-.6-.3-.4-.3-.2-.3.7,0,.4-.4.6-.6.2-.2.2-.5.3-.7,0,0-.3-.2,0-.1.3,0,0,0,.1-.1,0,0,0-.2,0-.1.7.1.4-.2.6-.4.2-.1.3-.3.2-.5,0-.1-.3-.4,0-.5,0,0-.2-.2.3,0,.2,0-.2-.2-.2-.2,0,0,0-.1.1-.2,0,0,.2-.2.2-.3,0,0-.2-.3-.2-.4,0,0,0-.2.1-.2.1,0,.3,0,.4,0,.1,0,0-.3.2-.2.5.2.4-.1.6-.2.1,0,.3-.2.3-.4,0-.1.4.1.5,0,0,0,1.2.9,1.6,1.2,0,0,.1.1.2.2.3.4.8.9.7.9-.1,0-.2.2-.2.3Z"/>
    <path d="M230.3,275.3c-.1,0-.2-.2-.3-.2,0,0,0-.3-.3.2-.2.2.1-.4,0-.4-.1,0-.2-.1-.3-.1-.1,0-.3.1-.5.1-.1,0,0-.3-.3,0-.2.2,0-.3-.2-.2-.1,0-.3,0-.2-.2,0-.2,0-.4,0-.3,0,0-.3.3-.3.3,0,0,0-.3-.3.2,0,0,0,0,0-.1.2-.4,0-.4,0-.2-.2.2-.2.2-.2.2,0,0-.2,0-.2-.1,0,0,0-.3,0-.4,0,0-.2.1-.2-.2,0-.3,0-.3,0-.3,0,0,0-.3-.3.3,0,0,0,0,0,0,.3-.8-.3.1-.3,0,0-.2-.2-.2-.3-.2,0,0,0-.2-.2.2,0,.1-.1.1,0,0,.2-.6,0-.3,0-.4,0-.2-.3,0-.1-.4,0-.2,0-.3-.3.2-.1.2,0,0-.1,0,0,0-.2.3-.2.3,0,0,0-.2,0-.3,0,0,0,0,0,0-.4.5-.2-.3-.4-.2-.2.1-.3,0-.4-.2,0,0,0-.3.4-1.4.2-.5.4-1,.6-1.3.1-.2.2-.4.3-.4,0,0,.2-.2.3-.2.2-.1.5-.6.5-.3,0,0,.2-.2,0,.3,0,0,0,.1,0,0,.5-.7.4-.1.5-.1.1,0,.5-.5.5-.2.3-.5.4-.4.3-.2,0,.7.3.4.5.6.2.2.4.2.6.4,0,0,.2-.3.1,0,0,.3,0,0,.1.1,0,0,.2,0,.1,0-.1.7.2.4.3.6.1.2.3.3.5.2.1,0,.4-.3.5-.1,0,0,.2-.2,0,.3,0,.2.2-.2.2-.2,0,0,.1,0,.2.1,0,0,.2.1.3.1,0,0,.3-.2.3-.2,0,0,.2,0,.2.1,0,.1,0,.3,0,.4,0,0,.3,0,.2.2-.1.5.1.4.3.5.1.1.2.3.4.2.1,0,0,.5,0,.5,0,0-.7,1.3-1,1.7,0,0-.1.2-.1.2-.3.4-.8.9-.8.8,0-.1-.2-.2-.3-.2Z"/>
    <path d="M231,266.2c0,0,0,.2,0,.3,0,0-.2,0,.3.1.3,0-.4,0-.4,0,0,.1,0,.2,0,.3,0,0,.3.2.3.3,0,0-.2.2,0,.3.3,0-.2.1-.1.2.1,0,.2.2,0,.2-.2,0-.4,0-.3.2,0,0,.4,0,.4.1,0,0-.3,0,.3.1,0,0,0,0-.1,0-.4,0-.4,0-.1.1.3,0,.2,0,.2,0,0,0,0,.1,0,.2,0,0-.3.1-.3.2,0,0,.2.1,0,.2-.3,0-.3.1-.3.2,0,0-.3,0,.3,0,0,0,0,0,0,0-.8.1.3.2,0,.3-.2.1,0,.2,0,.3,0,0-.2,0,.3,0,.2,0,.2,0,0,0-.6.1-.2.2-.3.2-.1,0,.2.1-.3.3-.2,0-.3.1.3,0,.3,0,0,0,0,0,0,0,.3,0,.3,0,0,0-.2,0-.3,0,0,0,0,0,0,0,.7,0-.2.3,0,.4.2,0,.1.2,0,.3,0,0-.2.2-1.3.4-.5.1-1.1.2-1.4.2-.2,0-.5,0-.5,0-.1,0-.2,0-.3,0-.2,0-.7,0-.5-.2,0,0-.2,0,.3-.1,0,0,.1,0,0,0-.8,0-.3-.2-.4-.3,0-.1-.7-.1-.4-.3-.6,0-.5,0-.3-.2.6-.3.2-.5.3-.7,0-.2,0-.4,0-.7,0,0-.4,0,0-.1.3,0,0,0,0-.1,0,0-.1,0,0-.1.7-.2.3-.4.3-.5,0-.2.1-.3,0-.5,0-.1-.4-.2-.3-.3,0,0-.3-.1.3-.1.2,0-.3,0-.3,0,0,0,0-.1,0-.2,0-.1,0-.2,0-.3,0,0-.3-.1-.3-.2,0,0,0-.1,0-.2,0,0,.3-.1.4-.2,0,0-.2-.2,0-.2.5,0,.3-.3.4-.4,0-.1.1-.3,0-.4,0,0,.5,0,.5-.2,0,0,.4,0,.8,0,.4,0,.9.1,1.2.2,0,0,.2,0,.2,0,.4.1,1.2.3,1.1.4,0,.1,0,.2,0,.3Z"/>
    <path d="M237.3,271.6c0,0-.2,0-.3.2,0,0-.2-.2,0,.3.1.2-.2-.3-.2-.3,0,.1-.2,0-.2.2,0,0,0,.3-.1.4,0,0-.3-.1-.2.2,0,.3-.2-.1-.3,0,0,.1,0,.3-.2,0-.1-.1-.3-.3-.3-.2,0,0,0,.4,0,.4,0,0-.2-.2,0,.4,0,0,0,0,0-.1-.2-.4-.2-.3-.2,0,0,.3,0,.2,0,.3,0,0-.1.1-.2,0,0,0-.2-.2-.3-.3,0,0,0,.3-.2,0-.2-.3-.2-.2-.3-.2,0,0-.2-.2,0,.4,0,0,0,0,0,0-.4-.7,0,.3-.2.1-.2-.2-.2,0-.3,0,0,0-.1-.2,0,.3,0,.2,0,.2,0,0-.3-.6-.2-.2-.3-.3-.1,0-.1.2-.3-.2,0-.2-.2-.3,0,.3,0,.3,0,0,0,0,0,0,0,.3,0,.3,0,0-.1-.2-.2-.3,0,0,0,0,0,0,0,.7-.3-.1-.4,0,0,.2-.2.2-.4.1,0,0-.2-.2-.5-1.3-.1-.5-.3-1-.3-1.4,0-.2,0-.5,0-.5,0-.1,0-.2,0-.3,0-.2,0-.7,0-.5,0,0,0-.2.1.3,0,0,0,.1,0,0-.1-.8.1-.3.2-.4,0,0,0-.7.1-.5-.1-.6,0-.5,0-.4.3.6.4.1.5.2.2,0,.3-.1.5-.1,0,0,0-.3,0,0,.1.2,0,0,.1,0,0,0,0-.1,0,0,.4.6.3.2.5.2.1,0,.3,0,.3-.2,0-.1,0-.5,0-.4,0,0,0-.3.2.2,0,.1,0-.3,0-.3,0,0,0,0,.1,0,0,0,.1,0,.2-.1,0,0,0-.3,0-.4,0,0,0,0,.1,0,0,0,.2.2.3.2,0,0,0-.2.2,0,.3.4.3.1.4.1.1,0,.2,0,.3-.2,0,0,.3.3.4.3,0,0,0,0,.1.2,0,.1.2.3.3.5.2.4.5.8.6,1,0,0,0,.2.1.2.2.4.5,1.1.4,1.1-.1,0-.2.1-.3.2Z"/>
    <path d="M157.5,318.8c-.1,0-.2,0-.3.1,0,0-.2-.2,0,.3,0,.3-.2-.3-.2-.3,0,.1-.2,0-.3.2,0,0,0,.3-.2.4,0,0-.3-.1-.3.2,0,.3-.2-.1-.3,0,0,.2,0,.3-.3,0-.1-.1-.3-.3-.3-.2,0,0,0,.4,0,.4,0,0-.2-.2,0,.4,0,0,0,0,0-.1-.2-.4-.2-.3-.2,0,0,.3,0,.2,0,.3,0,0-.1.1-.3.1,0,0-.2-.2-.3-.2,0,0,0,.3-.2,0-.2-.3-.2-.2-.3-.2,0,0-.2-.2,0,.4,0,0,0,0,0,0-.4-.7,0,.3-.3.2-.2-.1-.2,0-.3.1,0,0-.1-.1,0,.3,0,.2,0,.2,0,0-.3-.5-.3-.2-.4-.2-.1,0,0,.2-.4-.2-.1-.2-.2-.2,0,.3,0,.3,0,0,0,.1,0,0,0,.3,0,.3,0,0-.1-.2-.2-.3,0,0,0,0,0,0,.2.7-.3,0-.4.1,0,.2-.2.2-.4.2,0,0-.2-.1-.8-1.1-.3-.4-.5-.9-.6-1.2,0-.2-.2-.4-.2-.5,0-.1,0-.2,0-.4,0-.2-.2-.7,0-.5,0,0,0-.2.2.2,0,0,0,0,0,0-.2-.8.1-.4.2-.5,0,0,0-.7.1-.5-.2-.6,0-.5,0-.4.5.5.5,0,.8,0,.3,0,.4-.2.7-.3,0,0,0-.4,0-.1.1.2.1,0,.2,0,0,0,0-.2.1,0,.4.5.4,0,.6,0,.2,0,.4,0,.5-.2,0-.1,0-.5.2-.4,0,0,0-.3.3.2,0,.2,0-.3,0-.3,0,0,.1,0,.2-.1,0,0,.2,0,.3-.1,0,0,0-.3,0-.4,0,0,.1-.1.2,0,.1,0,.3.2.4.2.1,0,0-.3.3,0,.3.4.4.1.6.1.2,0,.3,0,.4-.2,0,0,.3.3.4.3,0,0,.6,1.4.7,1.8,0,0,0,.2,0,.2,0,.5.3,1.2.2,1.2-.2,0-.3,0-.4.1Z"/>
    <path d="M155.5,317.2c0-.1,0-.2-.2-.3,0,0,.2-.2-.3,0-.3,0,.3-.2.3-.2-.1,0,0-.2-.2-.3,0,0-.3-.1-.4-.2,0,0,.1-.3-.2-.3-.3,0,.1-.2,0-.3-.2,0-.3-.1,0-.3.1-.1.3-.3.2-.3,0,0-.4,0-.4,0,0,0,.2-.2-.4,0,0,0,0,0,.1,0,.4-.2.3-.2,0-.2-.3,0-.2,0-.3,0,0,0-.1-.2,0-.3,0,0,.2-.2.3-.3,0,0-.3,0,0-.2.3-.2.2-.2.2-.3,0,0,.2-.2-.4,0,0,0,0,0,0,0,.8-.4-.3-.1-.2-.3.2-.2,0-.2,0-.3,0,0,.2-.1-.3,0-.2,0-.2,0,0,0,.6-.3.2-.2.3-.4,0-.1-.2-.1.2-.4.2-.1.3-.2-.3,0-.3,0,0,0,0,0,0,0-.3,0-.3,0,0,0,.2-.1.3-.2,0,0,0,0,0,0-.7,0,.1-.3,0-.4-.2,0-.2-.3-.1-.4,0,0,.2-.2,1.3-.6.5-.2,1-.3,1.4-.4.2,0,.5,0,.5,0,.1,0,.2,0,.4,0,.2,0,.7,0,.5.1,0,0,.2,0-.3.2,0,0-.1,0,0,0,.8-.1.3.2.4.3,0,0,.7,0,.5.2.6-.1.5,0,.4,0-.6.4,0,.5-.1.7,0,.2.1.4.2.6,0,0,.4,0,.1,0-.2.1,0,.1,0,.1,0,0,.2,0,0,.1-.6.4-.1.4-.2.6,0,.2,0,.4.2.5.1,0,.5,0,.4.2,0,0,.3,0-.2.2-.2,0,.3,0,.3,0,0,0,0,.1,0,.2,0,0,0,.2.1.3,0,0,.3,0,.4,0,0,0,.1,0,0,.2,0,0-.2.2-.2.3,0,0,.3,0,0,.2-.4.3-.1.4-.1.5,0,.2,0,.3.2.4,0,0-.3.3-.3.4,0,0-.3.2-.7.4-.4.2-.8.4-1.1.5,0,0-.2,0-.2,0-.5.1-1.2.3-1.2.2,0-.2,0-.3-.1-.4Z"/>
    <path d="M162.2,316c0,0-.2.1-.2.3,0,0-.2,0,.1.3.2.2-.3-.2-.3-.2,0,.1-.2.2-.2.3,0,.1,0,.3,0,.5,0,.1-.3,0-.1.3.2.2-.3,0-.2.1,0,.1,0,.3-.2.2-.2,0-.4-.1-.3,0,0,0,.3.3.2.3,0,0-.3,0,.2.3,0,0,0,0-.1,0-.4-.2-.4-.1-.2,0,.2.2.2.2.2.2,0,0,0,.2-.1.2,0,0-.3,0-.4,0,0,0,.1.2-.2.1-.3,0-.3,0-.3,0,0,0-.3,0,.2.3,0,0,0,0,0,0-.8-.3.1.3-.1.3-.2,0-.2.2-.2.3,0,0-.2,0,.2.2.1,0,.1.1,0,0-.6-.2-.3,0-.4,0-.1,0,0,.2-.4.1-.2,0-.3,0,.2.2.2.1,0,0,0,.1,0,0,.3.2.3.2,0,0-.2,0-.3,0,0,0,0,0,0,0,.6.4-.3.2-.2.4.1.2,0,.3-.1.4,0,0-.3,0-1.4-.2-.5-.1-1-.3-1.3-.4-.2-.1-.4-.2-.5-.3,0,0-.2-.2-.3-.3-.1-.2-.6-.5-.3-.5,0,0-.2-.2.3,0,0,0,.1,0,0,0-.7-.4-.1-.4-.1-.6,0-.1-.5-.5-.2-.5-.6-.3-.4-.4-.2-.4.7,0,.4-.4.6-.6.2-.2.3-.5.4-.7,0,0-.3-.3,0-.2.3,0,.1,0,.1-.1,0,0,0-.2.1-.1.7.2.5-.2.6-.4.2-.1.3-.3.3-.6,0-.2-.2-.5,0-.5,0,0-.2-.3.4,0,.1,0-.2-.2-.2-.3,0-.1,0-.2.2-.2,0-.1.2-.2.2-.3,0,0-.1-.3-.1-.4,0-.1,0-.2.2-.2.1,0,.4,0,.5,0,.1,0,0-.3.3-.2.5.2.4-.1.6-.2.2,0,.3-.2.4-.4,0-.1.4.2.5.1,0,0,1.1,1,1.4,1.4,0,0,.1.2.1.2.3.4.7,1,.6,1-.1,0-.2.2-.3.3Z"/>
    <path d="M254.6,301.6c0,0-.1-.1-.2-.1,0,0,0-.2-.3.2-.2.2.2-.3.1-.3-.1,0-.1-.1-.2-.1,0,0-.3.1-.4.1,0,0,0-.3-.2,0-.2.2,0-.2,0-.2-.1,0-.2,0-.1-.2,0-.2.2-.4,0-.3,0,0-.3.2-.3.2,0,0,.2-.3-.3.2,0,0,0,0,0-.1.3-.3.2-.3,0-.1-.2.2-.2.1-.2.1,0,0-.1,0-.1-.1,0,0,.1-.3.1-.3,0,0-.2,0,0-.2.2-.2.1-.3.1-.3,0,0,.2-.2-.3.2,0,0,0,0,0,0,.6-.6-.3,0-.2-.1.1-.2,0-.2-.1-.2,0,0,.1-.2-.3.1-.1.1-.2,0,0,0,.4-.5.1-.3.1-.4,0-.1-.2,0,.1-.4.1-.2.2-.3-.3,0-.2.2,0,0,0,0,0,0-.3.2-.3.2,0,0,.2-.2.2-.3,0,0,0,0,0,0-.6.3,0-.3-.2-.3-.2,0-.2-.1-.2-.2,0,0,.1-.2,1-.9.4-.3.9-.6,1.1-.8.2-.1.4-.2.5-.3,0,0,.2,0,.3-.1.2,0,.6-.4.4-.1,0,0,.2-.1-.2.2,0,0,0,0,0,0,.7-.4.3,0,.4,0,0,0,.6-.3.4-.1.5-.4.4-.3.3-.1-.4.5,0,.3,0,.4,0,.1.1.2.2.3,0,0,.3-.2,0,0-.2.2,0,0,0,0,0,0,.1,0,0,0-.4.5,0,.3,0,.4,0,.1,0,.2.2.2.1,0,.4-.3.3-.1,0,0,.2-.2-.2.3-.1.1.2-.2.2-.2,0,0,0,0,0,0,0,0,0,0,.1,0,0,0,.2-.2.3-.2,0,0,0,0,0,0,0,0-.1.3-.1.3,0,0,.2-.1,0,.1-.2.5,0,.3,0,.4,0,0,0,.2.2.1,0,0-.2.4-.1.4,0,0-.2.3-.4.7-.2.4-.5.8-.6,1,0,0-.1.2-.1.2-.3.4-.8.9-.8.9,0-.1-.1-.1-.2-.2Z"/>
    <path d="M255.5,293c0,0,0,.2,0,.2,0,0-.2,0,.3,0,.3,0-.4,0-.3,0,0,0,0,.2,0,.2,0,0,.3.1.3.2,0,0-.2.2,0,.2.3,0-.2.1,0,.2.1,0,.2.1,0,.2-.2,0-.4.1-.3.2,0,0,.4,0,.4,0,0,0-.3,0,.3,0,0,0,0,0-.1,0-.4,0-.4.1,0,0,.3,0,.2,0,.3,0,0,0,0,.1,0,.2,0,0-.3.1-.3.2,0,0,.2,0,0,.2-.3,0-.3.1-.3.2,0,0-.3,0,.4,0,0,0,0,0,0,0-.8.2.3,0,0,.2-.2.1,0,.2,0,.2,0,0-.2,0,.3,0,.2,0,.2,0,0,0-.6.2-.2.2-.3.2-.1,0,.2,0-.3.3-.2,0-.3.1.3,0,.3,0,0,0,0,0,0,0,.3,0,.3,0,0,0-.2,0-.3.1,0,0,0,0,0,0,.7,0-.2.2,0,.3.2,0,.2.2,0,.3,0,0-.2.2-1.3.6-.5.2-1,.3-1.3.4-.2,0-.5,0-.5,0-.1,0-.2,0-.3,0-.2,0-.7,0-.5-.1,0,0-.2,0,.3-.2,0,0,.1,0,0,0-.8.1-.3-.1-.4-.2,0,0-.7,0-.5-.2-.6,0-.5,0-.4,0,.6-.3.1-.4.2-.6,0-.2,0-.4,0-.6,0,0-.4,0,0,0,.3,0,0,0,0-.1,0,0-.1,0,0-.1.6-.2.2-.3.3-.5,0-.2,0-.3,0-.4-.1,0-.5-.1-.3-.2,0,0-.3,0,.3-.1.2,0-.3,0-.3,0,0,0,0-.1,0-.2,0,0,0-.2,0-.3,0,0-.3,0-.3-.2,0,0,0-.1,0-.2,0,0,.3-.1.3-.2,0,0-.2-.2,0-.2.5-.1.3-.3.3-.4,0-.1.1-.3,0-.4,0,0,.4-.1.4-.2,0,0,.4,0,.8,0,.4,0,.9,0,1.2,0,0,0,.2,0,.2,0,.5,0,1.2.2,1.1.2,0,0,0,.2,0,.3Z"/>
    <path d="M260,299.1c0,0-.1,0-.2,0,0,0-.1-.2,0,.3,0,.3-.1-.3-.1-.3,0,0-.1,0-.2,0,0,0,0,.3,0,.4,0,0-.2-.2-.1.1,0,.3-.2-.2-.2,0,0,.1,0,.2-.1,0,0-.1-.2-.3-.2-.2,0,0,.1.4,0,.4,0,0-.2-.2,0,.3,0,0,0,0,0-.1-.2-.4-.2-.3-.1,0,.1.3,0,.2,0,.2,0,0,0,0-.1,0,0,0-.2-.2-.3-.3,0,0,0,.2-.1,0-.2-.2-.2-.2-.2-.2,0,0-.2-.2.1.3,0,0,0,0,0,0-.5-.7,0,.3-.1.1-.2-.1-.1,0-.2,0,0,0-.1-.1.1.3,0,.1,0,.2,0,0-.4-.5-.2-.1-.3-.2-.1,0,0,.2-.3-.2-.1-.1-.2-.2.1.3.2.2,0,0,0,0,0,0,.2.3.2.3,0,0-.2-.2-.3-.2,0,0,0,0,0,0,.4.5-.3,0-.2.1,0,.2,0,.2-.2.2,0,0-.2-.1-1.1-.9-.4-.3-.8-.7-1-1-.2-.2-.3-.4-.3-.4,0,0-.1-.2-.2-.3,0-.2-.4-.6-.1-.5,0,0-.1-.2.3.2,0,0,0,0,0,0-.5-.7,0-.4,0-.5,0-.1-.3-.6,0-.5-.4-.5-.2-.5,0-.4.6.4.5,0,.7-.1.2,0,.3-.2.5-.3,0,0-.1-.3,0-.1.2.2.1,0,.1,0,0,0,0-.2.1,0,.5.5.4,0,.6,0,.2,0,.3,0,.4-.2,0-.1,0-.5.1-.4,0,0,0-.3.2.2,0,.2,0-.3,0-.3,0,0,.1,0,.2,0,0,0,.2,0,.3-.1,0,0,0-.3,0-.4,0,0,.1,0,.2,0,0,0,.2.2.3.3,0,0,.1-.2.2,0,.3.5.3.2.5.2.1,0,.3,0,.4,0,0,0,.2.4.3.4,0,0,0,.4.2.8,0,.4.1.9.2,1.2,0,0,0,.2,0,.2,0,.5,0,1.2,0,1.2,0,0-.2,0-.2,0Z"/>
    <path d="M362.8,391.5c-.2-1.3-.4-2.6-.7-3.9-.1-.5,0-1-.6-1.4-.3-.2.2-.8.1-1.2-.3-1.2-.4-2.5-.7-3.7-.3-1.2-.7-2.3-1-3.5-.3-1.2-.2-2.4-.7-3.5-.4-.9-.1-1.9-.4-2.8-.3-1-.6-2-.5-3,0-.7.1-1.5,0-2.2-.1-.4-.5-.8-.6-1.3,0-.5.1-1-.6-1.3,0,0,0-.2,0-.4.3-.6.2-1.1-.2-1.5-.3-.3-.4-.7-.4-1.1-.2-1-.4-2-.5-3,0-.8,0-1.6,0-2.3,0-.8-.5-1.6-.3-2.4.2-.8,0-1.5,0-2.2,0-.4.1-.9-.6-1.2,0,0,0-.2,0-.3.6-1.3-.7-2.3-.7-3.5,0-1.2-.4-2.5-.6-3.7,0-.3,0-.7-.4-.9-.2,0-.3-.4-.2-.6.5-1,0-1.9-.1-2.9,0-1.1-.5-2.1-.3-3.2.1-.5.1-1.1-.6-1.6-.3-.2-.1-.8-.3-1.1-.1-.3-.4-.6-.5-.9,0-.3.1-.6.2-.9,0,0,0-.2,0-.3-.9-1.4-.3-3.1-.8-4.7-.5-1.5-.7-3.1-.9-4.7-.1-.9,0-1.8.9-2.6.5-.3,1-.4,1.4-.1.3.2.6.5.7.8.2.5.4,1,.6,1.4.4,1,1.1,1.9,1,3,0,.3.3.7-.1,1,0,0,0,.2,0,.2,1,1.3.8,2.8,1.1,4.2.3,1.2,1.1,2.2,1,3.5.7.6.8,1.4.7,2.1-.2,2.5.6,4.8,1,7.2.3,2.4.9,4.8,1.2,7.2,0,.4.5.7.3,1.2-.2.5.1,1,.2,1.6,0,.5.3,1,.2,1.4-.3,2,.4,3.8.7,5.7.3,1.9.5,3.8,1,5.6.3,1.1.8,2.2.9,3.4,0,.5.5,1,0,1.6-.1.2.4.5.5.9.2.8.3,1.6.4,2.4.2,1.1.3,2.2.6,3.3.2.7.5,1.3.7,1.9.2.7.3,1.4.4,2.1,0,.9,0,1.8.1,2.7.1.9.5,1.8.4,2.8-.2,1.7.3,3.3.6,5,.2,1.6.5,3.3.9,4.9.2.9-.1,1.8,0,2.7,0,.4-1.3,1.3-1.8,1.2-.1,0-.2,0-.3-.1-.6-.8-1.5-1.5-1.6-2.5-.2-1.5-.5-3-.8-4.5Z"/>
    <path d="M321.8,424.9c-.3-.8-.5-1.7-.9-2.5-.1-.3,0-.7-.6-.9-.3,0,.2-.6,0-.9-.3-.8-.5-1.6-.9-2.3-.3-.7-.8-1.4-1.1-2.2-.3-.7-.3-1.6-.9-2.2-.5-.5-.2-1.3-.6-1.8-.4-.6-.7-1.2-.7-1.9,0-.5,0-1-.3-1.4-.2-.3-.6-.4-.7-.7,0-.3,0-.7-.6-.7,0,0,0-.2,0-.3.3-.5,0-.8-.3-1-.4-.1-.4-.4-.5-.6-.3-.6-.6-1.2-.8-1.9-.2-.5-.1-1-.3-1.5-.2-.5-.6-.9-.6-1.5,0-.6-.1-1-.3-1.4-.1-.3,0-.7-.6-.6,0,0,0,0,0-.2.4-1.1-.9-1.3-1-2.1-.1-.8-.6-1.5-1-2.3,0-.2,0-.5-.5-.5-.2,0-.3-.2-.2-.4.3-.8-.3-1.2-.5-1.9-.2-.7-.8-1.2-.6-2.1,0-.4,0-.8-.7-.9-.3,0-.2-.5-.4-.7-.1-.2-.5-.2-.6-.4,0-.2,0-.4,0-.6,0,0,0-.1,0-.2-1.1-.6-.7-2-1.4-2.8-.6-.9-1.1-1.9-1.5-2.8-.2-.5-.3-1.2.5-2.1.4-.4.9-.7,1.3-.6.3,0,.6.1.7.3.3.2.5.5.8.7.5.5,1.3.9,1.4,1.6,0,.2.4.3,0,.7,0,0,0,.2,0,.2,1.1.5,1.1,1.6,1.6,2.4.4.7,1.3,1.2,1.4,2,.8.1.9.7.9,1.2.1,1.8,1.2,3,1.8,4.6.6,1.5,1.4,3,2,4.5.1.3.5.3.4.8-.1.4.2.7.4,1,.1.3.4.6.4.9-.1,1.5.8,2.5,1.2,3.7.4,1.2.9,2.4,1.5,3.6.4.7,1,1.3,1.2,2.1,0,.3.5.5,0,1.1-.1.1.4.3.5.5.2.5.4,1,.6,1.5.3.7.5,1.4.8,2.1.2.4.6.8.8,1.2.2.4.4.9.5,1.4.1.6.1,1.2.3,1.8.2.6.6,1.1.6,1.8-.1,1.2.5,2.2.8,3.3.3,1.1.6,2.1,1.1,3.2.3.6,0,1.3.1,1.9,0,.3-1.2,1.1-1.7,1.1,0,0-.2,0-.3,0-.6-.4-1.5-.7-1.6-1.4-.2-1-.6-1.9-.9-2.9Z"/>
    <path d="M331.5,491.9c-.3-1.1-.6-2.2-.9-3.3-.1-.4,0-.9-.6-1.2-.3-.2.2-.7,0-1.1-.3-1-.5-2.1-.8-3.1-.3-1-.8-2-1-3-.3-1-.2-2.1-.7-3-.5-.8-.1-1.6-.4-2.4-.3-.8-.5-1.7-.5-2.6,0-.6.2-1.3,0-1.9-.1-.4-.5-.7-.6-1.1,0-.4.1-.9-.5-1.1,0,0,0-.2,0-.3.3-.5.2-1-.1-1.3-.3-.3-.3-.6-.4-.9-.2-.9-.3-1.7-.4-2.6,0-.7,0-1.3,0-2,0-.7-.4-1.4-.2-2,.2-.7.1-1.3,0-1.9,0-.3.2-.8-.5-1,0,0,0-.2,0-.2.7-1.1-.5-2-.4-3,0-1.1-.2-2.1-.3-3.2,0-.3.1-.6-.4-.8-.2,0-.2-.4-.1-.5.6-.8,0-1.6.1-2.5,0-.9-.3-1.8,0-2.8.2-.4.2-.9-.4-1.4-.3-.2,0-.7-.1-1,0-.3-.4-.5-.4-.8,0-.2.2-.5.3-.7,0,0,0-.2,0-.2-.8-1.3,0-2.7-.2-4-.3-1.4-.2-2.7-.2-4.1,0-.8.2-1.5,1.3-2.1.5-.2,1.1-.3,1.4,0,.2.2.5.5.5.8.1.4.2.8.4,1.3.2.9.8,1.7.5,2.6,0,.3.2.6-.3.8,0,0-.1.2,0,.2.9,1.1.4,2.4.5,3.6.1,1,.8,2,.6,3,.7.5.6,1.2.5,1.8-.5,2.1.1,4.1.2,6.1.1,2.1.4,4.1.6,6.2,0,.3.4.6.2,1-.2.4,0,.9.1,1.3,0,.4.2.8.1,1.2-.4,1.7.2,3.2.4,4.9.2,1.6.4,3.2.8,4.8.3.9.8,1.8.8,2.8,0,.4.4.8,0,1.3-.1.1.4.4.5.7.2.7.3,1.3.4,2,.2.9.3,1.8.6,2.7.2.6.5,1.1.7,1.6.2.6.3,1.2.4,1.8,0,.8,0,1.5.2,2.3.1.8.6,1.5.5,2.3-.2,1.5.4,2.8.7,4.1.3,1.4.6,2.7,1.1,4,.3.7,0,1.6.2,2.3,0,.3-1.2,1.2-1.7,1.2,0,0-.2,0-.3,0-.7-.6-1.5-1.1-1.7-1.9-.3-1.3-.7-2.5-1-3.8Z"/>
    <path d="M355.5,498.9c-.4,0-.8,0-1.1,0-.1,0-.3-.2-.4.3,0,.3-.2-.4-.3-.3-.4,0-.7,0-1.1,0-.3,0-.7.3-1,.3-.3,0-.7-.2-1,0-.3.3-.5-.2-.8-.1-.3.1-.6.2-.9,0-.2-.2-.4-.4-.6-.3-.1,0-.2.4-.4.4-.1,0-.3-.3-.4.3,0,0,0,0,0-.1-.1-.4-.3-.4-.4-.1-.1.3-.2.2-.3.3-.3,0-.6,0-.9,0-.2,0-.4-.3-.7-.3-.2,0-.5.2-.7,0-.2-.3-.4-.3-.6-.3-.1,0-.3-.3-.4.3,0,0,0,0,0,0-.3-.8-.7.3-1,0-.4-.2-.7,0-1.1,0,0,0-.2-.2-.3.3,0,.2-.1.2-.2,0-.3-.6-.5-.2-.8-.4-.3-.1-.6.2-.9-.3-.1-.2-.3-.3-.5.3,0,.3-.2,0-.3,0,0,0-.2.3-.3.3,0,0-.2-.2-.2-.3,0,0,0,0,0,0-.5.7-.9-.2-1.4,0-.5.2-.9.1-1.4,0-.3,0-.5-.2-.7-1.4,0-.5,0-1.1,0-1.4,0-.2.2-.5.3-.5.1,0,.3-.2.4-.3.3-.2.6-.7.9-.4,0,0,.2-.2.3.3,0,0,0,.1,0,0,.4-.8.8-.3,1.2-.3.3,0,.7-.7,1-.4.2-.6.4-.5.6-.3.7.7,1.4.2,2.1.3.7,0,1.4,0,2.1,0,.1,0,.2-.4.4,0,.1.3.3,0,.5,0s.3-.1.4,0c.5.7,1.1.3,1.7.3.5,0,1.1.1,1.6,0,.3,0,.7-.4,1-.3.1,0,.3-.3.4.3,0,.2.2-.3.3-.3.2,0,.5,0,.7,0s.6,0,1,0c.2,0,.4-.3.6-.3.2,0,.4,0,.6,0,.3,0,.5.3.8.3.3,0,.5-.2.8,0,.5.5.9.3,1.4.3.5,0,.9.1,1.4,0,.3,0,.5.4.8.4.1,0,.3,1.5.2,2,0,0,0,.2,0,.2-.3.5-.5,1.2-.8,1.1-.4,0-.9,0-1.3,0Z"/>
    <path d="M359.6,483.9c0,.2-.2.4-.3.6,0,0-.3,0,.2.4.2.1-.4,0-.4,0,0,.2-.2.4-.2.6,0,.2.1.5,0,.7,0,.2-.4.3-.1.6.2.3-.3.2-.3.4,0,.2,0,.4-.2.5-.2,0-.4.1-.4.3,0,0,.3.3.3.3,0,0-.3,0,.3.3,0,0,0,0-.2,0-.4,0-.4,0-.2.2.2.1.2.2.2.3,0,.2,0,.4-.1.5,0,.1-.3.2-.4.3,0,.1.1.3-.2.4-.3,0-.3.2-.4.3,0,0-.3,0,.3.3,0,0,0,0,0,0-.9,0,.2.4,0,.6-.2.2-.1.4-.1.6,0,0-.2,0,.3.2.2,0,.2.1,0,.1-.6,0-.3.3-.4.4-.1.2.1.4-.4.5-.2,0-.3.2.2.3.3,0,0,.1,0,.2,0,0,.3.1.3.2,0,0-.2,0-.4.1,0,0,0,0,0,0,.6.3-.3.5-.1.8.2.3,0,.6,0,.8,0,.2-.3.3-1.4.4-.5,0-1.1,0-1.4,0-.2,0-.5-.1-.5-.2-.1,0-.2-.2-.3-.3-.2-.2-.7-.4-.4-.6,0,0-.2-.2.3-.2,0,0,.1,0,0,0-.8-.3-.2-.6-.3-.9,0-.2-.6-.5-.3-.7-.6-.2-.5-.3-.3-.5.7-.4.3-.9.5-1.4.2-.5.2-1,.3-1.4,0,0-.3-.2,0-.3.3,0,0-.2.1-.3,0,0,0-.2,0-.3.7-.2.4-.7.6-1,.2-.3.3-.7.3-1.1,0-.2-.3-.6-.1-.7,0,0-.2-.3.4-.2.2,0-.2-.2-.2-.3,0-.2,0-.3.1-.5,0-.2.2-.4.2-.6,0-.1-.2-.3-.2-.5,0-.2,0-.3.2-.4.1-.1.4-.2.5-.4.1-.1,0-.4.3-.5.6-.1.5-.5.7-.8.2-.3.4-.5.4-.9,0-.2.5-.1.6-.3,0,0,1.4.5,1.8.8,0,0,.2.1.2.1.3.4.9.8.8.9-.2.2-.2.5-.4.7Z"/>
    <path d="M365.3,496.4c-.1-.2-.3-.5-.5-.7,0,0,0-.3-.4-.1-.3.1.2-.3.2-.4-.2-.2-.3-.4-.5-.6-.2-.2-.5-.3-.7-.4-.2-.2,0-.5-.5-.6-.3,0,0-.4-.2-.5-.2-.1-.4-.2-.3-.5,0-.2.2-.5,0-.5-.1,0-.4,0-.5,0,0,0,.1-.3-.4,0,0,0,0,0,0-.1.3-.3.2-.4,0-.3-.3,0-.3,0-.3,0-.1-.2-.3-.3-.4-.5,0-.2,0-.4,0-.6,0-.2-.4-.1-.2-.4.2-.3,0-.4,0-.5,0,0,.1-.3-.4,0,0,0,0,0,0,0,.5-.7-.5-.2-.5-.6,0-.3-.2-.5-.4-.6,0,0,0-.2-.3,0-.1,0-.2,0-.1,0,.4-.5,0-.5,0-.7,0-.2-.4-.3-.1-.7.1-.2.1-.4-.4-.1-.2.1,0-.1-.2-.2,0,0-.3,0-.4,0,0,0,.1-.2.2-.3,0,0,0,0,0,0-.7.1-.2-.7-.5-.8-.3-.2-.5-.5-.6-.8,0-.2,0-.4.8-1.2.4-.4.8-.7,1.1-.8.2-.1.4-.2.5-.2.1,0,.3,0,.5,0,.3,0,.8-.1.7.2,0,.1.3,0-.1.3,0,0,0,0,0,0,.8-.2.6.3.8.5.2.2.8,0,.8.4.6-.3.6,0,.5.2-.2.8.4,1,.7,1.4.2.5.6.8.9,1.3,0,0,.4,0,.2.2-.2.2,0,.2.1.3,0,0,.2,0,.2.3-.3.7.3.8.4,1.2.2.4.4.7.7,1,.2.1.6.2.7.4,0,.1.4,0,0,.4-.1.1.3,0,.4,0,.1.1.2.3.3.4.1.2.2.4.4.6.1,0,.4,0,.5.2.1,0,.2.2.3.4,0,.2,0,.5,0,.7,0,.2.4.2.3.5-.2.6.2.7.3,1,.1.3.3.6.6.9.2.1-.2.5,0,.7,0,0-1.1,1-1.6,1.2,0,0-.2,0-.2,0-.5,0-1.2.3-1.3.1-.1-.3-.3-.5-.5-.8Z"/>
    <path d="M411.1,486.3c-.7.5-1.5.9-2.2,1.4-.3.2-.7,0-.7.7,0,.3-.6-.1-.8,0-.7.4-1.4.6-2.1,1-.7.4-1.3.8-1.9,1.2-.7.3-1.5.3-2,.9-.5.5-1.2.2-1.7.5-.6.3-1.1.6-1.8.6-.5,0-1-.1-1.4.1-.2.1-.4.5-.7.6-.3,0-.7-.1-.7.6,0,0-.2,0-.2,0-.4-.3-.7-.2-.9.1-.2.3-.4.4-.6.4-.6.2-1.2.4-1.8.5-.5,0-1,0-1.4,0-.5,0-.9.4-1.4.3-.5-.2-.9,0-1.4,0-.2,0-.6-.2-.7.5,0,0-.1,0-.2,0-.9-.7-1.3.5-2.1.5-.8,0-1.5.2-2.2.4-.2,0-.4-.1-.5.4,0,.2-.2.2-.4.1-.7-.5-1.2,0-1.8,0-.7,0-1.3.4-2,0-.3-.2-.7-.2-.9.4-.1.3-.5,0-.7.2-.2,0-.3.4-.5.4-.2,0-.4-.2-.5-.3,0,0-.1,0-.2,0-.8.8-1.9,0-2.8.4-.9.3-1.9.4-2.9.4-.5,0-1.1,0-1.6-1.2-.2-.5-.3-1-.1-1.4.1-.3.3-.5.5-.6.3-.1.6-.3.8-.4.6-.3,1.1-.9,1.8-.7.2,0,.4-.3.6.2,0,0,.1,0,.2,0,.7-.9,1.7-.5,2.5-.7.7-.2,1.3-.9,2.1-.7.3-.7.8-.6,1.2-.5,1.5.4,2.9-.2,4.3-.4,1.4-.2,2.8-.5,4.3-.8.2,0,.4-.4.7-.2.3.2.6,0,.9-.1.3,0,.5-.3.8-.2,1.2.4,2.3-.3,3.4-.5,1.1-.2,2.2-.5,3.3-.9.6-.3,1.2-.8,1.9-.9.3,0,.5-.5.9,0,.1.1.2-.4.4-.5.4-.2.9-.3,1.3-.5.6-.2,1.2-.4,1.8-.7.4-.2.6-.6,1-.8.4-.2.7-.4,1.1-.5.5-.1,1.1-.1,1.6-.3.5-.2.9-.6,1.5-.6,1.1,0,1.8-.7,2.6-1.1.8-.4,1.5-1,2.1-1.6.3-.4,1-.3,1.3-.7.1-.2,1.5.6,1.8,1,0,0,.1.2.1.2,0,.7.1,1.6-.4,2.1-.8.6-1.5,1.3-2.3,1.8Z"/>
    <path d="M409.3,480.6c-.3-.2-.5-.4-.8-.5-.3-.2-.6-.3-.9-.4-.2,0-.3-.4-.8,0-.2.2-.2-.5-.4-.5-.6-.1-1.2-.4-1.8-.5-.6-.1-1.3,0-1.9,0-.6,0-1.2-.4-1.8-.2-.5.2-1-.3-1.5-.3-.5,0-1.1.1-1.6-.2-.4-.2-.7-.4-1.1-.4-.2,0-.5.4-.8.3-.2,0-.5-.3-.8.3,0,0-.1,0-.2-.2-.2-.4-.6-.4-.8-.1-.2.3-.4.2-.6.2-.6,0-1.1,0-1.7,0-.4,0-.8-.3-1.2-.4-.4,0-.9.2-1.3-.1-.4-.3-.8-.3-1.2-.3-.2,0-.5-.3-.7.3,0,0-.1,0-.1,0-.6-.9-1.3.2-1.9,0-.7-.2-1.4-.1-2-.1-.2,0-.4-.2-.6.3,0,.2-.3.2-.3,0-.5-.7-1-.3-1.5-.4-.6-.1-1.2.1-1.8-.4-.2-.2-.6-.3-.9.2-.2.3-.4,0-.6,0-.2,0-.4.3-.5.3-.2,0-.3-.2-.4-.4,0,0,0,0-.1,0-.9.6-1.7-.3-2.6-.2-.9.1-1.8,0-2.6-.1-.5,0-1-.3-1.2-1.4-.1-.5,0-1.1.1-1.4.2-.2.3-.5.5-.5.3,0,.6-.2.8-.3.6-.2,1.1-.7,1.7-.4.2,0,.4-.2.5.3,0,0,0,.1.1,0,.8-.8,1.6-.2,2.4-.2.7,0,1.3-.6,2-.3.4-.6.8-.5,1.2-.3,1.3.7,2.6.3,4,.5,1.3.2,2.7.1,4,.2.2,0,.4-.3.7,0,.2.3.6,0,.9,0,.3,0,.6-.1.8,0,1,.7,2.1.4,3.1.5,1,.1,2.1.2,3.2.1.7,0,1.3-.4,2-.2.3,0,.6-.2.8.4,0,.2.4-.3.6-.3.5,0,.9,0,1.4.1.6,0,1.3.2,1.9.2.4,0,.8-.2,1.2-.1.4,0,.8.1,1.3.3.5.2,1,.5,1.5.8.5.2,1.2.2,1.6.6.8.8,1.8,1.1,2.6,1.6.8.6,1.6,1.2,2.5,1.9.2.2.4.5.5.7,0,.3.2.6.4.8.2.2-.8,1.4-1.3,1.6,0,0-.2,0-.2,0-.7,0-1.4,0-1.7-.3-.2-.3-.5-.5-.7-.7-.3-.2-.6-.4-.9-.6Z"/>
    <path d="M369,467.5c0-1.2-.1-2.5-.2-3.7,0-.5.2-.9-.4-1.4-.3-.2.3-.7.3-1.1-.1-1.1-.1-2.3-.2-3.4-.1-1.1-.4-2.2-.5-3.3-.1-1.1,0-2.3-.3-3.3-.3-.9.1-1.8,0-2.6-.2-.9-.3-1.9-.1-2.8.1-.7.3-1.4.2-2,0-.4-.4-.8-.4-1.2,0-.4.2-.9-.4-1.2,0,0,0-.2.1-.3.4-.5.3-1,0-1.4-.3-.4-.3-.7-.3-1,0-.9-.2-1.9-.2-2.8,0-.7.2-1.4.2-2.1,0-.7-.3-1.5,0-2.2.3-.7.2-1.4.2-2,0-.4.2-.8-.4-1.1,0,0,0-.2,0-.2.8-1.1-.4-2.1-.2-3.2.1-1.1,0-2.3-.2-3.4,0-.3.1-.6-.3-.9-.2,0-.2-.4,0-.6.6-.9.1-1.8.2-2.6,0-1-.3-2,.1-3,.2-.4.3-1-.4-1.5-.3-.2,0-.7-.1-1.1,0-.3-.4-.6-.4-.9,0-.3.2-.5.3-.8,0,0,0-.2,0-.2-.8-1.4,0-2.9-.2-4.4-.3-1.5-.3-2.9-.3-4.4,0-.8.1-1.7,1.2-2.3.5-.3,1.1-.3,1.4,0,.3.2.5.5.6.8.1.5.3.9.4,1.4.3.9.8,1.8.6,2.8,0,.3.3.6-.2.9,0,0,0,.2,0,.2.9,1.2.4,2.6.6,3.9.1,1.1.8,2.2.6,3.3.7.6.6,1.3.4,2-.5,2.3,0,4.5,0,6.7,0,2.3.3,4.5.4,6.8,0,.4.4.7.1,1.2-.2.4,0,1,0,1.5,0,.5.2.9,0,1.4-.6,1.8,0,3.6,0,5.3,0,1.8,0,3.5.3,5.3.2,1.1.6,2.1.5,3.2,0,.5.3.9-.2,1.4-.2.1.3.5.4.8,0,.7.1,1.5.1,2.2,0,1,0,2.1.2,3.1,0,.6.4,1.2.5,1.8.1.6.1,1.3.1,2,0,.8-.2,1.7-.2,2.5,0,.9.3,1.7,0,2.6-.4,1.6,0,3.1,0,4.6,0,1.5,0,3,.3,4.5.1.9-.3,1.7-.3,2.5,0,.4-1.4,1-1.9.9,0,0-.2,0-.2-.1-.5-.8-1.3-1.5-1.3-2.5,0-1.4-.1-2.8-.2-4.2Z"/>
    <path d="M212.4,306.5c-.1,0-.3,0-.4,0,0,0-.1-.2-.2.3,0,.3,0-.4-.1-.3-.1,0-.3,0-.4,0-.1,0-.3.3-.4.3-.1,0-.3-.2-.4,0-.1.3-.2-.2-.3-.1-.1.1-.2.2-.3,0,0-.2-.2-.4-.2-.3,0,0,0,.4-.1.4,0,0-.1-.3-.1.3,0,0,0,0,0-.1,0-.4-.1-.4-.2-.1,0,.3,0,.2-.1.3-.1,0-.2,0-.3,0,0,0-.2-.3-.2-.3,0,0-.2.2-.3,0,0-.3-.2-.3-.2-.3,0,0,0-.3-.1.3,0,0,0,0,0,0-.1-.8-.3.3-.4,0-.1-.2-.3,0-.4,0,0,0,0-.2-.1.3,0,.2,0,.2,0,0-.1-.6-.2-.2-.3-.4-.1-.1-.2.2-.4-.3,0-.2-.1-.3-.2.3,0,.3,0,0-.1,0,0,0,0,.3-.1.3,0,0,0-.2,0-.3,0,0,0,0,0,0-.2.7-.3-.2-.5,0-.2.2-.3.1-.5,0,0,0-.2-.2-.3-1.4,0-.5,0-1.1,0-1.4,0-.2,0-.5,0-.5,0,0,.1-.2.2-.3.1-.2.2-.7.3-.4,0,0,0-.2.1.3,0,0,0,.1,0,0,.2-.8.3-.3.5-.3.1,0,.3-.7.4-.4,0-.6.2-.5.2-.3.3.7.5.2.8.3.3,0,.5,0,.8,0,0,0,0-.4.1,0,0,.3.1,0,.2,0s.1-.1.2,0c.2.7.4.3.6.3.2,0,.4.1.6,0,.1,0,.3-.4.4-.3,0,0,.1-.3.2.3,0,.2,0-.3.1-.3,0,0,.2,0,.3,0s.2,0,.4,0c0,0,.1-.3.2-.3,0,0,.2,0,.2,0,0,0,.2.3.3.3.1,0,.2-.2.3,0,.2.5.4.3.5.3.2,0,.4.1.5,0,.1,0,.2.4.3.4,0,0,.1,1.5,0,2,0,0,0,.2,0,.2,0,.5-.2,1.2-.3,1.1-.2,0-.3,0-.5,0Z" fill="#fff"/>
    <path d="M209.6,321.1c-.2,0-.4,0-.6,0,0,0-.2-.2-.2.3,0,.3-.1-.4-.2-.3-.2,0-.4,0-.5,0-.2,0-.3.3-.5.4-.2,0-.3-.2-.5,0-.2.3-.3-.2-.4-.1-.2.1-.3.2-.4,0,0-.2-.2-.4-.3-.3,0,0-.2.4-.2.3,0,0-.1-.3-.2.3,0,0,0,0,0-.2,0-.4-.1-.4-.2-.1,0,.3-.1.2-.2.2-.2,0-.3,0-.4,0-.1,0-.2-.3-.3-.4-.1,0-.3.2-.3-.1,0-.3-.2-.3-.3-.3,0,0,0-.3-.2.3,0,0,0,0,0,0,0-.8-.4.2-.5,0-.1-.2-.3-.1-.5-.2,0,0,0-.2-.2.2,0,.2-.1.2-.1,0,0-.6-.2-.3-.3-.5,0,0-.1,0-.2,0,0,0-.2-.1-.2-.4,0-.2,0-.4-.4.1-.2.2-.2,0-.3,0,0,0-.3.2-.4.2,0,0,0-.3,0-.4,0,0,0,0,0,0-.3.2-.5,0-.6-.2,0-.2,0-.5-.3-.5-.4-.2-.6-.5-.6-.9,0-.2,0-.5,1.2-1.1.3-.1.5-.3.8-.4.2-.1.4-.2.5-.2.2,0,.4-.1.4-.1,0,0,.2,0,.3,0,.2,0,.6-.3.4,0,0,0,.2-.1-.2.2,0,0,0,0,0,0,.6-.5.3-.1.4-.1,0,0,.4-.5.3-.3.3-.6.2-.5.2-.3-.1.3,0,.4.2.4.1,0,.3,0,.4,0,.2.2.5.1.8.2,0,0,.2-.3.2,0,0,.3.1,0,.2,0,0,0,.1-.1.2,0,0,.7.4.3.6.4.2,0,.4.2.7,0,.1,0,.3-.4.4-.3,0,0,.1-.3.2.3,0,.2,0-.3.1-.3,0,0,.2,0,.3,0,.1,0,.2,0,.4,0,0,0,.1-.3.2-.3,0,0,.2,0,.2,0,0,0,.2.3.3.3.1,0,.2-.2.3,0,.2.5.4.2.6.3.2,0,.4,0,.6,0,0,0,.3.4.4.4,0,0,.4,1.4.4,1.9,0,0,0,.2,0,.2,0,.5,0,1.2-.2,1.2-.2,0-.4,0-.6,0Z" fill="#fff"/>
    <path d="M219.2,319.6s0,0-.1,0c0,0-.1-.2,0,.3,0,.3-.2-.3-.2-.3,0,0,0,0-.1,0,0,0,0,.3,0,.4,0,0-.1-.2,0,.1,0,.3-.1-.2-.1,0,0,.1,0,.2-.1,0,0-.2-.1-.4-.1-.3,0,0,0,.4,0,.4,0,0,0-.3,0,.3,0,0,0,0,0-.1,0-.4-.1-.4,0,0,0,.3,0,.2,0,.3,0,0,0,0-.1,0,0,0-.1-.3-.1-.3,0,0,0,.2,0,0,0-.3,0-.3-.1-.3,0,0,0-.3,0,.3,0,0,0,0,0,0-.1-.8,0,.3-.1,0,0-.2,0,0-.1,0,0,0,0-.2,0,.3,0,.2,0,.2,0,0,0-.6,0-.2-.1-.4,0-.1,0,.2-.1-.3,0-.2,0-.3,0,.3,0,.3,0,0,0,0,0,0,0,.3,0,.3,0,0,0-.2,0-.3,0,0,0,0,0,0,0,.7-.1-.2-.2,0,0,.2-.1,0-.2,0,0,0,0-.2.1-1.4,0-.5.1-1.1.2-1.4,0-.2,0-.4,0-.5,0,0,0-.2,0-.3,0-.2,0-.7,0-.4,0,0,0-.2,0,.3,0,0,0,.1,0,0,0-.8,0-.3,0-.3,0,0,0-.7,0-.4,0-.6,0-.5,0-.3,0,.7,0,.2,0,.3,0,0,0,0,0,0,0,0,0-.3,0,0,0,.3,0,0,0,0,0,0,0-.1,0,0,0,.6,0,.3,0,.3,0,0,0,.1,0,0,0,0,0-.4,0-.3,0,0,0-.3,0,.3,0,.2,0-.3,0-.3,0,0,0,0,0,0,0,0,0,0,0,0,0,0,0-.3,0-.3,0,0,0,0,0,0,0,0,0,.3.1.3,0,0,0-.2,0,0,.2.5.1.2.1.3,0,0,0,0,0,0,0,0,.2.4.2.4,0,0,.7,1.3.9,1.8,0,0,0,.2.1.2.2.4.5,1.1.4,1.1,0,0-.1,0-.2,0Z" fill="#fff"/>
    <path d="M222.1,312.6s0,0,0,0c0,0,0-.2,0,.3,0,.3,0-.4,0-.3,0,0,0,0,0,0,0,0,0,.3,0,.4,0,0,0-.2,0,0,0,.3,0-.2,0,0,0,.1,0,.2,0,0,0-.2,0-.4,0-.3,0,0,0,.4,0,.4,0,0,0-.3,0,.3,0,0,0,0,0-.1,0-.4,0-.4,0,0,0,.3,0,.2,0,.3,0,0,0,0,0,0,0,0,0-.3,0-.3,0,0,0,.2,0,0,0-.3,0-.3,0-.3,0,0,0-.3,0,.3,0,0,0,0,0,0-.1-.8,0,.3,0,0,0-.2,0,0,0,0,0,0,0-.2,0,.3,0,.2,0,.2,0,0,0-.6,0-.2-.1-.3,0-.1,0,.2-.1-.3,0-.2,0-.3,0,.3,0,.3,0,0,0,0,0,0,0,.3,0,.3,0,0,0-.2,0-.3,0,0,0,0,0,0,0,.7,0-.2-.1,0,0,.2,0,.1-.1,0,0,0,0-.2-.2-1.4,0-.5-.1-1.1-.2-1.4,0-.2,0-.5,0-.5,0,0,0-.2,0-.3,0-.2,0-.7,0-.4,0,0,0-.2,0,.3,0,0,0,.1,0,0,0-.8,0-.3,0-.3,0,0,0-.7,0-.4,0-.6,0-.5,0-.3.1.7.1.2.2.3,0,0,.1,0,.2,0,0,0,0-.4,0,0,0,.3,0,0,0,0,0,0,0-.1,0,0,.1.6.1.3.2.3,0,0,.1.1.1,0,0-.1,0-.4,0-.3,0,0,0-.3,0,.3,0,.2,0-.3,0-.3,0,0,0,0,0,0,0,0,0,0,0,0,0,0,0-.3,0-.3,0,0,0,0,0,0,0,0,0,.3.1.3,0,0,0-.2,0,0,.1.5.1.2.1.3,0,0,0,0,.1,0,0,0,0,.4.1.4,0,0,.2,1.5.3,2,0,0,0,.2,0,.2,0,.5.1,1.2,0,1.1,0,0,0,0-.1,0Z" fill="#fff"/>
    <path d="M216.9,300.1s0,0,0,0c0,0-.1-.2.1.3.1.2-.2-.3-.2-.3,0,0,0,0,0,0,0,0,0,.3.1.3,0,0-.1-.2,0,0,.1.3-.1-.2,0,0,0,.1,0,.2,0,0,0-.2-.2-.3-.1-.2,0,0,.2.4.1.3,0,0-.1-.3.1.3,0,0,0,0,0-.1-.2-.4-.2-.3,0,0,.1.2,0,.2,0,.2,0,0,0,0,0,0,0,0-.1-.2-.2-.3,0,0,0,.2,0,0-.1-.3-.1-.3-.2-.2,0,0-.1-.3.1.3,0,0,0,0,0,0-.4-.7,0,.2,0,0-.1-.2,0,0,0,0,0,0,0-.2.1.3,0,.1,0,.2,0,0-.3-.6-.1-.2-.2-.3,0-.1,0,.2-.2-.3,0-.2-.2-.3.1.2.1.2,0,0,0,0,0,0,.1.3.1.3,0,0-.1-.2-.2-.3,0,0,0,0,0,0,.3.6-.1-.2,0,0,0,.2,0,.1,0,0,0,0-.1-.2-.6-1.2-.2-.5-.5-1-.6-1.3-.1-.2-.2-.4-.2-.5,0,0,0-.2-.1-.3,0-.2-.3-.7-.2-.4,0,0,0-.2.1.3,0,0,0,0,0,0-.3-.7,0-.3,0-.3,0,0-.3-.6-.1-.4-.3-.6-.2-.5-.1-.3.3.6.1.2.2.2,0,0,0,0,0,0,0,0-.1-.3,0,0,.1.2,0,0,0,0,0,0,0-.1,0,0,.3.6.2.2.2.3,0,0,.1,0,0,0,0,0-.2-.4-.1-.3,0,0-.1-.3.2.3,0,.1-.1-.3-.1-.3,0,0,0,0,0,0,0,0,0,0,0,0,0,0-.1-.3-.1-.3,0,0,0,0,0,0,0,0,.1.2.2.3,0,0,0-.2,0,0,.2.5.1.2.2.3,0,0,0,0,0,0,0,0,.2.4.2.4,0,0,.7,1.3.9,1.8,0,0,0,.2.1.2.2.4.5,1.1.5,1,0,0,0,0,0,0Z" fill="#fff"/>
    <path d="M218.8,225.2c-1.7,1.1-3.3,2.4-4.7,3.9-.5.6-1.2,1-1.3,2,0,.5-1,.7-1.3,1.3-1,1.6-1.8,3.3-2.4,5.1-.2.9-.4,1.8-.4,2.7-.1.9,0,1.8,0,2.7,0,1.7,0,3.6.8,5.1.7,1.2.8,2.6,1.7,3.6.9,1.1,2,1.9,3,2.8.7.6,1.5,1.1,2.1.9.4-.1.6-.5,1-.7.3-.2,1-.5.7-1.2,0,0,.2-.2.3-.2.6-.3.8-1,.6-1.4-.2-.4-.2-.8-.3-1.2-.2-1.1-.8-2.2-1.5-3.2-.6-.8-1.2-1.6-2.1-2.2-.9-.6-2.1-.8-3-1.3-1-.6-2-.7-3.1-.8-.6,0-1.4-.4-1.9.2,0,0-.3,0-.4,0-1.8-.8-3.8.3-5.5.3-1.8,0-3.5.7-4.7,1.6-.3.3-.8.4-.8,1.1,0,.2-.3.6-.5.7-1.3.6-1.7,2.1-2.3,3.3-.8,1.4-1,3-1.7,4.5-.3.6-.6,1.6,0,2.5.2.4,0,1.2,0,1.8,0,.5.3.9.4,1.4,0,.4-.2.8-.2,1.2,0,.1,0,.3,0,.4.5,1.1.7,2.2,1,3.4.2,1.2.5,2.4,1.1,3.5,1.2,2.2,2.3,4.5,3.6,6.7.7,1.2,1.3,2.6.9,4.1-.2.7-.7,1-1.3.6-.4-.3-.9-.6-1.2-1-.5-.7-1.1-1.3-1.6-2-1-1.4-2.4-2.6-2.9-4.3-.2-.5-.7-1-.5-1.6,0,0,0-.3-.1-.4-1.7-1.9-2.1-4.5-2.7-7-.5-2.1-1.3-4.2-.9-6.4-.6-1.3-.3-2.7.1-3.9.8-2.1,1.5-4.1,2.4-6.1.9-2,2.1-4,4-5.5,1-.8,2.1-1.4,3.2-1.9,1.1-.5,2.3-.7,3.4-.9,2.3-.4,4.3-.4,6.4-.4.7,0,1.4-.3,2.2,0,.8.3,1.9.2,2.8.4.9.2,1.8.2,2.6.7,3.2,1.6,6.5,3.6,8.2,7.1.8,1.7,1.2,3.7.9,5.7-.4,2-1.3,3.8-2.9,5.2-1,.8-2.3,1.5-3.8,1.6-1.4.1-2.8-.3-3.8-.9-.5-.3-.9-.5-1.3-.8-.4-.3-.8-.6-1-1.2-.1-.3-1.1-.6-1.5-1-1.1-1.1-1.9-2.5-2.6-3.8-.9-1.9-1.4-3.9-1.7-6-.2-1.2-.5-2.5-.5-3.7,0-1.3.2-2.7.6-3.9.3-.8.5-1.6.9-2.3.4-.7.7-1.5,1.1-2.2.8-1.5,1.4-3.2,2.6-4.3,2.1-2.1,4-4.3,6.5-6,2.4-1.6,5.1-2.9,7.9-3.8,1.6-.5,3.2-.3,4.8-.4.8,0,1.8,1.4,1.5,1.9,0,0-.2.2-.3.2-1.4.5-2.6,1.4-4.1,1.7-2.2.5-4.4,1.4-6.3,2.6Z" fill="#00b4e9"/>
    <g>
      <path d="M394.2,228.6c-.5.1-1,.6-1.1,1.1s.1,1.1.5,1.5c.4.3,1,.4,1.5.3.2,0,.3,0,.5-.1.2-.2.3-.5.3-.8,0-.3,0-.6,0-.9s-.4-.5-.7-.5" fill="#00b4e9"/>
      <path d="M397.4,228.5c.2.4.3.7.4,1,0,.1-.2.3.3.3.3,0-.4.2-.3.3,0,.2,0,.4,0,.6,0,.2.2.4.2.8,0,.3-.4.5-.5,1.1,0,.5-.8.5-1.1.8-.3.3-.7.5-1,.3-.2-.1-.3-.4-.4-.2,0,0-.1.4-.2.4,0,0-.2-.3-.2.3,0,0,0,0,0-.1,0-.4-.2-.4-.3-.1-.1.3-.2.2-.2.2-.2,0-.4,0-.6-.1-.1,0-.2-.4-.3-.5-.1-.1-.4,0-.4-.2,0-.3,0-.4-.2-.4,0,0,0-.3-.3.2,0,0,0,0,0,0,.3-.8-.5,0-.5-.4,0-.3-.2-.4-.4-.6,0,0,0-.2-.3,0-.1,0-.2,0-.1,0,.4-.6,0-.5,0-.7,0-.2-.3-.3.1-.7.2-.2.3-.3-.3-.1-.3,0,0-.1,0-.2,0,0-.3,0-.4,0,0,0,.2-.2.4-.3,0,0,0,0,0,0-.7-.1.3-.6.2-.9-.1-.3,0-.6.4-.9.1-.2.5-.3,1.9,0,.3,0,.6.2.9.3h.1s0,0,0,0c0,0,0,0,0,0,0,0,0,0,0,0,0,0,0,0,0,0,0,0,.2,0,0,0,0,0,0,0-.2,0,0,0,0,0,0,0,.3,0,0,0,0,0,0,0,.4,0,.2,0,.4-.2.3-.1.2,0-.4.3-.1.2-.2.2,0,0,0,0,0,.1,0,0,.2-.3,0,0-.1.2,0,0,0,0,0,0,0-.1,0,0-.2.6,0,.3,0,.4,0,0,0,.2.2,0,0,0,0-.2,0-.2,0,0,0,0,0,0,0,0,0,0,0,0,0,.1,0,.3,0,.4,0,.4,0,.6.1.8,0,0,0,.2,0,.2,0,.2.1.2,0,.2,0,0-.1-.1-.3-.2-.1,0-.3-.1-.5-.2-.2,0-.5-.1-1-.2,0,0,.3,0,.3,0,0,0,0,0,0,0h0s0,0,0,0c.2,0,.4,0,.5,0,.2,0,.4,0,.5,0,0,0,.1,0,.1,0h0s.2,0,.2,0h0s0,0,0,0c0,0,0,0,0-.1,0,0,0-.1,0-.1,0,0,0,0,0,0,0-.2,0-.4,0-.5,0-.2,0-.4,0-.5,0,0,0-.2,0-.2.2-.5.7-1.1,1.1-.9.5.3.9.6,1.1,1Z" fill="#00b4e9"/>
    </g>
    <g>
      <path d="M395,239.9c-.5.1-1,.6-1.1,1.1s.1,1.1.5,1.5c.4.3,1,.4,1.5.3.2,0,.3,0,.5-.1.2-.2.3-.5.3-.8,0-.3,0-.6,0-.9s-.4-.5-.7-.5" fill="#00b4e9"/>
      <path d="M398.2,239.9c.2.4.3.7.4,1,0,.1-.2.3.3.3.3,0-.4.2-.3.3,0,.2,0,.4,0,.6,0,.2.2.4.2.8,0,.3-.4.5-.5,1.1,0,.5-.8.5-1.1.8-.3.3-.7.5-1,.3-.2-.1-.3-.4-.4-.2,0,0-.1.4-.2.4,0,0-.2-.3-.2.3,0,0,0,0,0-.1,0-.4-.2-.4-.3-.1-.1.3-.2.2-.2.2-.2,0-.4,0-.6-.1-.1,0-.2-.4-.3-.5-.1-.1-.4,0-.4-.2,0-.3,0-.4-.2-.4,0,0,0-.3-.3.2,0,0,0,0,0,0,.3-.8-.5,0-.5-.4,0-.3-.2-.4-.4-.6,0,0,0-.2-.3,0-.1,0-.2,0-.1,0,.4-.6,0-.5,0-.7,0-.2-.3-.3.1-.7.2-.2.3-.3-.3-.2-.3,0,0-.1,0-.2,0,0-.3,0-.4,0,0,0,.2-.2.4-.3,0,0,0,0,0,0-.7-.1.3-.6.2-.9-.1-.3,0-.6.4-.9.1-.2.5-.3,1.9,0,.3,0,.6.2.9.3h.1s0,0,0,0c0,0,0,0,0,0,0,0,0,0,0,0,0,0,0,0,0,0,0,0,.2,0,0,0,0,0,0,0-.2,0,0,0,0,0,0,0,.3,0,0,0,0,0,0,0,.4,0,.2,0,.4-.2.3-.1.2,0-.4.3-.1.2-.2.2,0,0,0,0,0,.1,0,0,.2-.3,0,0-.1.2,0,0,0,0,0,0,0-.1,0,0-.2.6,0,.3,0,.4,0,0,0,.2.2,0,0,0,0-.2,0-.2,0,0,0,0,0,0,0,0,0,0,0,0,0,.1,0,.3,0,.4,0,.4,0,.6.1.8,0,0,0,.2,0,.2,0,.2.1.2,0,.2,0,0-.1-.1-.3-.2-.1,0-.3-.1-.5-.2-.2,0-.5-.1-1-.2,0,0,.3,0,.3,0,0,0,0,0,0,0h0s0,0,0,0c.2,0,.4,0,.5,0,.2,0,.4,0,.5,0,0,0,.1,0,.1,0h0s.2,0,.2,0h0s0,0,0,0c0,0,0,0,0-.1,0,0,0-.1,0-.1,0,0,0,0,0,0,0-.2,0-.4,0-.5,0-.2,0-.4,0-.5,0,0,0-.2,0-.2.2-.5.7-1.1,1.1-.9.5.3.9.6,1.1,1Z" fill="#00b4e9"/>
    </g>
    <g>
      <path d="M404.8,233.1c-.5.1-1,.6-1.1,1.1s.1,1.1.5,1.5c.4.3,1,.4,1.5.3.2,0,.3,0,.5-.1.2-.2.3-.5.3-.8,0-.3,0-.6,0-.9s-.4-.5-.7-.5" fill="#00b4e9"/>
      <path d="M408,233.1c.2.4.3.7.4,1,0,.1-.2.3.3.3.3,0-.4.2-.3.3,0,.2,0,.4,0,.6,0,.2.2.4.2.8,0,.3-.4.5-.5,1.1,0,.5-.8.5-1.1.8-.3.3-.7.5-1,.3-.2-.1-.3-.4-.4-.2,0,0-.1.4-.2.4,0,0-.2-.3-.2.3,0,0,0,0,0-.1,0-.4-.2-.4-.3-.1-.1.3-.2.2-.2.2-.2,0-.4,0-.6-.1-.1,0-.2-.4-.3-.5-.1-.1-.4,0-.4-.2,0-.3,0-.4-.2-.4,0,0,0-.3-.3.2,0,0,0,0,0,0,.3-.8-.5,0-.5-.4,0-.3-.2-.4-.4-.6,0,0,0-.2-.3,0-.1,0-.2,0-.1,0,.4-.6,0-.5,0-.7,0-.2-.3-.3.1-.7.2-.2.3-.3-.3-.1-.3,0,0-.1,0-.2,0,0-.3,0-.4,0,0,0,.2-.2.4-.3,0,0,0,0,0,0-.7-.1.3-.6.2-.9-.1-.3,0-.6.4-.9.1-.2.5-.3,1.9,0,.3,0,.6.2.9.3h.1s0,0,0,0c0,0,0,0,0,0,0,0,0,0,0,0,0,0,0,0,0,0,0,0,.2,0,0,0,0,0,0,0-.2,0,0,0,0,0,0,0,.3,0,0,0,0,0,0,0,.4,0,.2,0,.4-.2.3-.1.2,0-.4.3-.1.2-.2.2,0,0,0,0,0,.1,0,0,.2-.3,0,0-.1.2,0,0,0,0,0,0,0-.1,0,0-.2.6,0,.3,0,.4,0,0,0,.2.2,0,0,0,0-.2,0-.2,0,0,0,0,0,0,0,0,0,0,0,0,0,.1,0,.3,0,.4,0,.4,0,.6.1.8,0,0,0,.2,0,.2,0,.2.1.2,0,.2,0,0-.1-.1-.3-.2-.1,0-.3-.1-.5-.2-.2,0-.5-.1-1-.2,0,0,.3,0,.3,0,0,0,0,0,0,0h0s0,0,0,0c.2,0,.4,0,.5,0,.2,0,.4,0,.5,0,0,0,.1,0,.1,0h0s.2,0,.2,0h0s0,0,0,0c0,0,0,0,0-.1,0,0,0-.1,0-.1,0,0,0,0,0,0,0-.2,0-.4,0-.5,0-.2,0-.4,0-.5,0,0,0-.2,0-.2.2-.5.7-1.1,1.1-.9.5.3.9.6,1.1,1Z" fill="#00b4e9"/>
    </g>
    <g>
      <path d="M298.3,115.4c0-.2,0-.5,0-.7,0,0,.2-.2-.3-.3-.3,0,.4-.1.4-.2,0-.2,0-.4,0-.6,0-.2-.3-.4-.3-.6,0-.2.2-.4,0-.6-.3-.2.2-.3.1-.5-.1-.2-.2-.4,0-.5.2-.1.4-.2.3-.4,0,0-.4-.2-.4-.2,0,0,.3-.2-.3-.2,0,0,0,0,.1,0,.4,0,.4-.2.1-.3-.3,0-.2-.1-.3-.2,0-.2,0-.3,0-.5,0-.1.3-.3.3-.4,0-.1-.2-.3,0-.4.3-.1.3-.3.3-.4,0,0,.3-.2-.4-.2,0,0,0,0,0,0,.8-.2-.3-.4,0-.6.2-.2,0-.4,0-.6,0,0,.2-.1-.3-.2-.2,0-.2,0,0-.1.6-.2.2-.3.3-.5.1-.2-.2-.4.3-.6.2,0,.3-.2-.3-.3-.3,0,0-.1,0-.2,0,0-.3,0-.3-.1,0,0,.2-.1.3-.2,0,0,0,0,0,0-.7-.2.2-.5,0-.8-.2-.3-.1-.5,0-.8,0-.2.2-.3,1.3-.5.5,0,1.1-.1,1.4-.1.2,0,.5,0,.5.1.1,0,.2.2.3.2.2.2.8.3.5.5,0,0,.2.1-.3.2,0,0-.1,0,0,0,.8.2.3.5.4.7,0,.2.7.4.4.6.6,0,.5.2.4.4-.6.5-.2.9-.2,1.3,0,.4,0,.9,0,1.3,0,0,.4.1,0,.2-.3,0,0,.2,0,.3,0,0,.1.2,0,.3-.7.4-.3.7-.3,1,0,.3-.1.7,0,1,0,.2.4.4.3.6,0,0,.3.2-.3.3-.2,0,.3.1.3.2,0,.1,0,.3,0,.4,0,.2,0,.4,0,.6,0,.1.3.3.3.4,0,.1,0,.3,0,.4,0,.2-.3.3-.4.5,0,.2.2.4,0,.5-.5.3-.3.6-.4.9,0,.3-.1.6,0,.9,0,.2-.5.3-.5.4,0,0-1.5,0-2,0,0,0-.2,0-.2,0-.5-.2-1.2-.4-1.1-.6,0-.3,0-.5,0-.8Z" fill="#00b4e9"/>
      <path d="M333.1,106.7c-.2.2-.5.5-.7.7,0,.1-.4,0,0,.5.1.2-.4-.1-.5,0-.2.3-.4.4-.6.7-.2.3-.2.6-.4.9-.2.3-.6.3-.5.7,0,.4-.5.2-.5.5,0,.3-.2.5-.5.6-.2,0-.5,0-.6.2,0,.1.2.4,0,.5,0,0-.4,0,0,.5,0,0,0,0-.2,0-.4-.2-.5,0-.3.2.2.2,0,.3,0,.4-.1.2-.3.4-.5.6-.2.1-.5.1-.6.3-.2.1,0,.5-.4.4-.4,0-.4.1-.6.3,0,0-.4,0,.1.5,0,0,0,0,0,0-.9-.2-.1.6-.5.8-.3.1-.4.5-.6.8,0,0-.2,0,0,.4.1.1,0,.2,0,.2-.7-.1-.5.3-.7.4-.2.2-.1.6-.7.5-.2,0-.4,0,0,.5.2.2-.1.2-.1.3,0,0,.2.3.2.4,0,0-.3,0-.4,0,0,0,0,0,0,0,.4.7-.6.6-.6,1,0,.4-.3.8-.6,1.1-.2.2-.4.3-1.5-.1-.5-.2-1-.4-1.2-.7-.2-.2-.3-.4-.4-.5,0-.2,0-.3,0-.5,0-.3-.4-.8,0-.9.1,0,0-.3.4,0,0,0,.1,0,0,0-.5-.7.1-.8.3-1.2.1-.3-.3-.9.2-1-.4-.5-.2-.6,0-.7.9-.2.9-1,1.3-1.5.4-.5.7-1.1,1.1-1.6,0,0-.2-.4.1-.3.3,0,.2-.2.3-.3,0-.1,0-.3.2-.3.8,0,.8-.7,1.2-1,.4-.4.7-.7.9-1.2.1-.3,0-.8.3-.9.1,0,0-.4.5-.1.2,0-.1-.3,0-.4,0-.2.3-.3.4-.5.2-.2.4-.4.6-.7,0-.2,0-.5.1-.6,0-.2.2-.3.4-.4.2-.1.5-.2.7-.3.2-.1.2-.5.6-.5.7,0,.8-.5,1.2-.7.4-.3.7-.6.9-1,.1-.2.6,0,.8-.2,0,0,1.2.9,1.5,1.3,0,0,.1.2.1.2.2.5.5,1.2.3,1.3-.3.2-.6.5-.8.8Z" fill="#00b4e9"/>
      <path d="M352.5,128.2c-.3,0-.7.1-1,.3-.1,0-.3-.2-.3.4,0,.3-.3-.3-.4-.2-.3.2-.6.2-.9.3-.3.2-.5.5-.8.6-.3.2-.7,0-.9.4-.2.3-.5,0-.7.2-.2.2-.4.4-.8.2-.2,0-.5-.2-.6,0,0,.1,0,.4-.2.5-.1,0-.3-.2-.2.4,0,0,0,0-.1-.1-.3-.3-.4-.2-.4,0,0,.3,0,.3-.2.3-.2.1-.5.3-.7.3-.2,0-.5-.1-.7,0-.2,0-.3.4-.6.2-.3-.2-.5-.1-.6,0,0,0-.3-.2-.1.4,0,0,0,0,0,0-.6-.6-.4.5-.8.4-.4,0-.6.2-.9.4,0,0-.2,0-.1.4,0,.2,0,.2-.1.1-.5-.5-.6,0-.8,0-.3,0-.4.4-.9.1-.2-.1-.4-.1-.3.4,0,.3-.2,0-.2.2,0,0,0,.4,0,.4,0,0-.2-.1-.4-.2,0,0,0,0,0,0,0,.8-.8.2-1.1.6-.3.4-.7.5-1.1.6-.2,0-.5,0-1.3-.9-.3-.4-.6-.9-.7-1.2,0-.2-.1-.5,0-.6,0-.2.1-.3.2-.5.1-.3.1-.9.5-.8.1,0,0-.3.4.1,0,0,0,0,0,0,0-.9.5-.6.9-.9.3-.2.2-.9.7-.8-.1-.6.1-.7.4-.6.9.3,1.3-.4,1.9-.6.6-.2,1.2-.6,1.8-.8.1,0,0-.4.3-.2.2.2.3,0,.4-.1.1,0,.2-.2.4-.1.8.4,1.1-.2,1.6-.3.5-.1,1-.3,1.5-.6.3-.2.4-.6.8-.6.1,0,.2-.4.5.1,0,.1,0-.3.1-.4.2-.1.4-.2.6-.2.3-.1.6-.2.9-.3.2,0,.3-.4.4-.5.2-.1.4-.2.6-.2.3,0,.6.1.8,0,.3,0,.4-.4.8-.2.6.4.9,0,1.4,0,.5,0,.9-.2,1.3-.4.2-.1.6.3.8.2.1,0,.6,1.4.7,1.9,0,0,0,.2,0,.2-.1.5-.1,1.3-.4,1.3-.4,0-.8.2-1.1.3Z" fill="#00b4e9"/>
      <path d="M357.2,150c-.2,0-.4.1-.6.3,0,0-.2-.2,0,.4,0,.3-.3-.3-.3-.2-.1.1-.4.1-.5.3-.1.1-.2.4-.4.5-.1.1-.4,0-.5.3,0,.3-.4,0-.4,0,0,.2-.2.3-.4.2-.2-.1-.4-.3-.4-.1,0,0,0,.4,0,.4,0,0-.3-.2,0,.4,0,0,0,0-.1-.1-.2-.3-.3-.3-.3,0,0,.3,0,.3,0,.3-.1,0-.3.2-.4.2-.1,0-.3-.2-.5-.2-.1,0-.1.3-.4,0-.2-.2-.3-.2-.4-.1,0,0-.2-.2,0,.4,0,0,0,0,0,0-.5-.7-.2.4-.5.3-.3-.1-.4,0-.5.2,0,0-.2-.1,0,.3,0,.2,0,.2,0,0-.4-.5-.4-.1-.5-.2-.2,0-.2.3-.6-.1-.1-.2-.3-.2-.1.3,0,.3-.1,0-.1.1,0,0,0,.3,0,.4,0,0-.2-.2-.2-.3,0,0,0,0,0,0,0,.7-.5,0-.7.2-.2.3-.4.3-.7.3-.1,0-.3-.1-.8-1.2-.2-.5-.4-1-.5-1.3,0-.2,0-.5,0-.5,0-.1,0-.3,0-.4,0-.2,0-.8.3-.6,0,0,0-.2.2.2,0,0,0,0,0,0,0-.8.3-.4.5-.5.2-.1,0-.8.4-.6-.1-.6,0-.6.2-.4.6.5.8,0,1.1-.1.4,0,.7-.3,1-.4,0,0,0-.4.1-.1.2.2.2,0,.2,0,0,0,0-.2.2,0,.5.5.6,0,.9,0,.3,0,.6-.1.8-.4.1-.2.1-.5.4-.5,0,0,0-.3.3.2,0,.1,0-.3,0-.3,0,0,.2-.1.3-.2.2,0,.3,0,.5-.2,0,0,0-.3.1-.4,0-.1.2-.1.3-.1.2,0,.4.1.5.1.2,0,.2-.3.4-.1.4.4.6,0,.8,0,.2,0,.5-.1.7-.3,0-.1.4.3.5.2,0,0,.8,1.3,1,1.7,0,0,0,.2,0,.2,0,.5.3,1.2.1,1.2-.2,0-.4.2-.6.3Z" fill="#00b4e9"/>
    </g>
    <path d="M395.5,432.9c0-1.6.2-3.2.2-4.7,0-.6.3-1.2-.3-1.8-.3-.3.4-.9.4-1.4,0-1.5,0-3,0-4.4,0-1.4-.3-2.9-.5-4.3-.1-1.4,0-2.9-.3-4.2-.3-1.2,0-2.3-.2-3.4-.2-1.2-.4-2.4-.3-3.6,0-.9.2-1.7,0-2.6-.1-.5-.5-1-.6-1.6,0-.5.2-1.2-.5-1.6,0,0,0-.3,0-.4.3-.6.2-1.3-.2-1.8-.3-.4-.4-.8-.4-1.3-.2-1.2-.4-2.4-.6-3.6-.1-.9,0-1.8-.2-2.7-.1-.9-.6-1.9-.5-2.8.1-.9,0-1.7-.3-2.6-.1-.5,0-1.1-.7-1.3,0,0,0-.2,0-.3.5-1.6-.9-2.6-1.1-4-.2-1.5-.6-2.9-1.1-4.3-.1-.4,0-.8-.6-1-.2,0-.3-.5-.3-.7.3-1.2-.4-2.2-.6-3.3-.3-1.2-1-2.4-.9-3.7,0-.6-.1-1.3-.9-1.7-.4-.2-.3-.9-.5-1.3-.2-.3-.6-.6-.7-.9-.1-.3,0-.7,0-1,0-.1,0-.2-.1-.3-1.2-1.5-1.1-3.5-2-5.2-.4-.8-.8-1.7-1.2-2.6-.4-.9-.7-1.7-1.1-2.6-.4-1-.7-2,0-3.2.3-.5.8-.8,1.3-.5.4.2.7.4.9.8.3.5.7,1,1,1.5.7,1,1.7,1.9,1.9,3.2,0,.4.5.7.2,1.2,0,0,0,.2,0,.3,1.4,1.3,1.6,3.1,2.2,4.7.6,1.4,1.6,2.5,1.9,4,.9.6,1.1,1.5,1.2,2.4.1,1.5.6,2.9,1,4.3.4,1.4.9,2.8,1.3,4.2l1.1,4.3c.4,1.4.8,2.9,1.1,4.3.1.5.5.8.4,1.5-.1.6.2,1.3.4,1.9.1.6.4,1.2.4,1.7-.2,2.4.6,4.6.9,6.9.3,2.3.6,4.6,1,6.9.3,1.4.8,2.7.8,4.2,0,.6.4,1.2-.1,1.9-.2.2.3.7.4,1.1.1,1,.2,1.9.3,2.9.1,1.3.1,2.7.3,4,0,.8.4,1.6.5,2.4.1.9.1,1.7,0,2.6,0,1.1-.3,2.2-.3,3.3,0,1.1.2,2.3,0,3.4-.5,2-.3,4-.5,6-.2,2-.3,4-.4,6,0,1.1-.6,2.1-.7,3.2,0,.5-1.6,1-2.1.8,0,0-.2-.1-.2-.2-.4-1.1-1-2.1-.9-3.3.1-.9.2-1.8.3-2.7v-2.7Z" fill="#00b4e9"/>
    <path d="M413.6,405.9c0-.7,0-1.4,0-2.2,0-.3.2-.5-.3-.8-.3-.1.4-.4.3-.7,0-.7,0-1.3-.1-2,0-.7-.3-1.3-.4-1.9-.1-.6.1-1.3-.2-1.9-.3-.5.1-1,0-1.5-.2-.5-.3-1.1-.1-1.6.1-.4.3-.8.1-1.2,0-.2-.4-.4-.4-.7,0-.2.2-.6-.4-.7,0,0,0-.1.1-.2.4-.3.3-.6,0-.8-.3-.2-.3-.4-.3-.6-.1-.5-.2-1.1-.2-1.6,0-.4.1-.9.1-1.3,0-.4-.4-.8-.1-1.3.2-.4.1-.8,0-1.2,0-.2.2-.5-.5-.6,0,0,0,0,0-.1.7-.8-.5-1.2-.4-1.8,0-.7-.2-1.3-.4-2,0-.2,0-.4-.4-.5-.2,0-.2-.2-.1-.3.5-.6,0-1,0-1.6,0-.6-.5-1.1-.2-1.8.1-.3.2-.7-.5-.8-.3,0-.1-.4-.2-.6,0-.2-.4-.2-.5-.4,0-.1.1-.3.2-.5,0,0,0-.1,0-.1-.9-.6-.3-1.7-.7-2.4-.4-.8-.6-1.6-.9-2.4-.1-.5,0-1,.9-1.7.4-.3,1-.5,1.3-.4.3,0,.5.1.7.3.2.2.4.5.6.7.4.5,1.1.8,1,1.5,0,.2.3.3-.1.6,0,0,0,.1,0,.1,1,.5.8,1.4,1,2.2.2.6,1,1.1,1,1.8.7.2.7.7.6,1.1-.3,1.5.5,2.7.7,4,.2,1.3.6,2.7.9,4,0,.2.4.4.2.7-.2.3,0,.6.1.9,0,.3.2.5.1.8-.5,1.2.1,2.2.2,3.2,0,1.1.2,2.1.5,3.2.2.6.6,1.2.5,1.9,0,.3.3.5-.2.9-.2,0,.3.3.4.5,0,.4,0,.9.1,1.3,0,.6,0,1.2.2,1.9,0,.4.3.7.4,1.1,0,.4,0,.8,0,1.2,0,.5-.2,1-.3,1.5,0,.5.2,1.1,0,1.6-.5.9-.2,1.9-.3,2.8,0,.9-.1,1.8,0,2.8,0,.5-.5,1-.5,1.5,0,.2-1.5.5-2,.4,0,0-.2,0-.2-.1-.4-.5-1.2-1-1.1-1.5.1-.8,0-1.6,0-2.4Z" fill="#00b4e9"/>
  </g>
  <g>
    <g>
      <path d="M272.2,186.3c.7-1.8,1.4-3.5,2.1-5.3.2-.7.8-1.2.5-2.1-.1-.4.7-.8.9-1.4.6-1.7,1.3-3.3,1.9-4.9.3-.8.6-1.7,1-2.6.4-.9,1-1.9,1.8-2.7,1.6-1.6,3.6-2.1,5-3.1,1.2-.8,2.7-.8,3.9-1.4,1.4-.6,2.8-1.2,4.3-1.3,1.1-.1,2.1-.2,3.1-.5.6-.2,1.2-.7,1.9-.8.7-.1,1.4,0,1.9-.7,0,0,.4,0,.5,0,.8.3,1.6.1,2.2-.2.5-.4,1.1-.4,1.6-.5,1.5-.2,3-.4,4.7-.3,1.2,0,2.5.4,3.8.8,1.3.4,2.9.9,3.8,2,.8,1,1.6,1.9,2.3,2.9.4.5.5,1.3,1.3,1.5,0,0,.2.2.2.4.1,2,1.7,3.1,2.2,4.8.5,1.7,1.2,3.4,1.8,5.1.2.5.2,1,.7,1.3.2,0,.4.6.3.8-.2,1.5.6,2.7.9,4,.3,1.5,1,2.9.9,4.6,0,.7,0,1.6.8,2.2.4.3.3,1.1.4,1.6.2.4.5.8.6,1.3,0,.4,0,.8,0,1.2,0,.1,0,.3,0,.4,1.1,2.1.7,4.4,1.3,6.6.6,2.2,1,4.5,1.3,6.7.2,1.2.2,2.5-.7,3.6-.4.5-1,.6-1.4.1-.3-.3-.6-.7-.7-1.2-.2-.7-.5-1.4-.7-2-.5-1.4-1.2-2.7-1.2-4.2,0-.5-.4-.9,0-1.4,0,0,0-.3,0-.3-1.2-1.8-1.1-3.9-1.5-5.9-.4-1.7-1.4-3.1-1.5-4.9-.8-.8-1-1.9-1-2.8-.2-3.4-1.6-6.6-2.5-9.8-.5-1.6-1.1-3.2-1.7-4.8-.6-1.6-1.3-3.2-2-4.6-.2-.5-.8-.7-.9-1.3,0-.6-.7-1.1-1.1-1.5-.4-.4-.9-.7-1.2-1.1-.6-.9-1.7-1.3-2.8-1.5-1.2-.2-2.4,0-3.7,0-2.6.1-5.3.4-7.8,1.1-1.6.4-3,1.1-4.6,1.4-.7.1-1.3.7-2.1.3-.2-.1-.7.5-1.1.7-1,.4-2.1.7-3.1,1.1-1.4.6-2.9,1.1-4,1.8-.7.4-1.1,1.1-1.5,1.6-.4.5-.8,1.2-1.2,1.9-.5,1-1.2,2.1-1.7,3.3-.6,1.2-.8,2.6-1.5,3.7-1.4,2-2,4.3-2.9,6.4-.9,2.1-1.8,4.3-2.6,6.5-.4,1.3-1.3,2.2-1.8,3.4-.2.6-1.9.8-2.3.3,0,0-.1-.2-.1-.3,0-1.3-.2-2.7.4-4,.9-2,1.6-4,2.4-6Z"/>
      <path d="M286.3,198.1c-.3,0-.6,0-.9,0-.1,0-.2-.3-.4.3,0,.3-.1-.4-.2-.4-.3,0-.5,0-.8,0-.3,0-.5.2-.8.3-.3,0-.5-.3-.8,0-.2.3-.4-.2-.6-.1-.2.1-.5.2-.7,0-.2-.2-.3-.4-.5-.3-.1,0-.2.4-.3.4,0,0-.2-.3-.3.3,0,0,0,0,0-.1,0-.4-.2-.4-.3-.1,0,.3-.2.2-.2.2-.2,0-.4,0-.7,0-.2,0-.3-.3-.5-.3-.2,0-.4.2-.5,0-.2-.3-.3-.3-.5-.3,0,0-.2-.3-.3.3,0,0,0,0,0,0-.3-.8-.5.3-.8,0-.3-.2-.5,0-.8,0,0,0-.2-.2-.2.3,0,.2,0,.2-.1,0-.2-.6-.4-.2-.6-.3-.2-.1-.5.2-.7-.3-.1-.2-.3-.3-.3.3,0,.3-.2,0-.3,0,0,0-.1.3-.2.3,0,0-.1-.2-.2-.3,0,0,0,0,0,0-.3.7-.7-.2-1,0-.3.2-.7.2-1,.1-.2,0-.4-.2-.7-1.3-.1-.5-.2-1.1-.1-1.4,0-.2,0-.5.2-.5.1-.1.2-.2.3-.4.2-.2.4-.8.7-.5,0,0,.1-.2.2.3,0,0,0,.1,0,0,.3-.8.6-.3,1-.4.3,0,.5-.7.8-.5.1-.6.3-.5.5-.4.6.6,1.1.2,1.7.2.6,0,1.1,0,1.7,0,0,0,.2-.4.3,0,.1.3.2,0,.4,0,.1,0,.2-.1.3,0,.4.7.9.3,1.3.3.4,0,.9.1,1.3,0,.3,0,.5-.4.8-.3.1,0,.2-.3.3.3,0,.2.2-.3.2-.3.2,0,.4,0,.6,0,.3,0,.5,0,.8,0,.2,0,.3-.3.5-.3.2,0,.3,0,.5,0,.2,0,.4.3.6.4.2,0,.5-.2.6.1.3.5.7.3,1.1.4.4,0,.7.2,1.1,0,.2,0,.4.5.6.5,0,0,0,1.5,0,2,0,0,0,.2,0,.2-.3.4-.5,1.1-.7,1.1-.3-.1-.7,0-1-.1Z"/>
      <path d="M292.8,187.3c0,0,0-.2-.2-.3,0,0,.2-.2-.3,0-.3,0,.3-.2.3-.2-.1,0,0-.2-.2-.2,0,0-.3,0-.4-.1,0,0,.1-.3-.2-.2-.3,0,.1-.2,0-.2-.1,0-.3,0,0-.2.1-.1.3-.3.2-.3,0,0-.4.1-.4,0,0,0,.2-.2-.3,0,0,0,0,0,.1,0,.3-.2.3-.2,0-.2-.3,0-.2,0-.3,0,0,0-.1-.1-.1-.2,0,0,.2-.2.2-.3,0,0-.3,0,0-.2.2-.2.2-.2.2-.3,0,0,.2-.2-.4,0,0,0,0,0,0,0,.7-.5-.3,0-.2-.2.1-.2,0-.2,0-.3,0,0,.1-.1-.3,0-.1,0-.2,0,0,0,.5-.4.2-.2.2-.4,0-.1-.2,0,.2-.4.2-.1.2-.2-.3,0-.2.1,0,0,0,0,0,0-.3.1-.3,0,0,0,.2-.1.3-.2,0,0,0,0,0,0-.6.2,0-.3-.1-.3-.2,0-.2-.2-.2-.3,0,0,.1-.2,1.1-.8.4-.3.9-.5,1.2-.7.2,0,.4-.2.5-.2.1,0,.2,0,.3,0,.2,0,.7-.2.5,0,0,0,.2,0-.2.2,0,0,0,0,0,0,.8-.3.3,0,.4.2,0,0,.7-.1.5,0,.6-.2.5-.1.4,0-.5.5,0,.4,0,.7,0,.2.2.4.2.5,0,0,.3-.1.1,0-.2.2,0,.1,0,.1,0,0,.2,0,0,.1-.5.4,0,.4,0,.6,0,.2,0,.3.2.4.1,0,.5,0,.4.1,0,0,.3,0-.2.2-.1,0,.3,0,.3,0,0,0,0,.1.1.2,0,0,0,.2.1.2,0,0,.3,0,.4,0,0,0,.1,0,0,.2,0,0-.2.3-.2.3,0,0,.3,0,0,.2-.4.3-.1.3,0,.5,0,.1,0,.3.2.3,0,0-.3.3-.3.4,0,0-.3.2-.7.4-.4.2-.8.4-1.1.5,0,0-.2,0-.2,0-.5.1-1.1.4-1.1.3,0-.1,0-.2-.1-.3Z"/>
      <path d="M284.9,190.4c0,0,0-.2-.2-.3,0,0,.2-.2-.3,0-.3,0,.3-.2.3-.2-.1,0,0-.2-.2-.2,0,0-.3,0-.4-.1,0,0,.1-.3-.2-.2-.3,0,.1-.2,0-.2-.1,0-.3,0,0-.2.1-.1.3-.3.2-.3,0,0-.4.1-.4,0,0,0,.2-.2-.3,0,0,0,0,0,.1,0,.3-.2.3-.2,0-.2-.3,0-.2,0-.3,0,0,0-.1-.1-.1-.2,0,0,.2-.2.2-.3,0,0-.3,0,0-.2.2-.2.2-.2.2-.3,0,0,.2-.2-.4,0,0,0,0,0,0,0,.7-.5-.3,0-.2-.2.1-.2,0-.2,0-.3,0,0,.1-.1-.3,0-.1,0-.2,0,0,0,.5-.4.2-.2.2-.4,0-.1-.2,0,.2-.4.2-.1.2-.2-.3,0-.2.1,0,0,0,0,0,0-.3.1-.3,0,0,0,.2-.1.3-.2,0,0,0,0,0,0-.6.2,0-.3-.1-.4-.2,0-.2-.2-.2-.3,0,0,.1-.2,1.1-.8.4-.3.9-.5,1.2-.7.2,0,.4-.2.5-.2.1,0,.2,0,.3,0,.2,0,.7-.2.5,0,0,0,.2,0-.2.2,0,0,0,0,0,0,.8-.3.3,0,.4.2,0,0,.7-.1.5,0,.6-.2.5-.1.4,0-.5.5,0,.4,0,.7,0,.2.2.4.2.5,0,0,.3-.1.1,0-.2.2,0,.1,0,.1,0,0,.2,0,0,.1-.5.4,0,.4,0,.6,0,.2,0,.3.2.4.1,0,.5,0,.4.1,0,0,.3,0-.2.2-.1,0,.3,0,.3,0,0,0,0,.1.1.2,0,0,0,.2.1.2,0,0,.3,0,.4,0,0,0,.1,0,0,.2,0,0-.2.3-.2.3,0,0,.3,0,0,.2-.4.3-.1.3,0,.5,0,.1,0,.3.2.3,0,0-.3.3-.3.4,0,0-.3.2-.7.4-.4.2-.8.4-1.1.5,0,0-.2,0-.2,0-.5.1-1.1.4-1.1.3,0-.1,0-.2-.1-.3Z"/>
    </g>
    <path d="M286.4,202.3l-.4,1.1-.2.6c0,.1,0,.1,0,.2h0c0,.1-.3.3.3.3.3,0-.4.2-.4.3,0,.2-.2.5-.1.6,0,0,.1,0,.3,0,.1,0,.2-.2.3-.3h.2c0-.2,0-.1.1-.1,0,0,.1,0,.2-.2,0-.2,0-.1.1,0,0,0,.2,0,.3,0,.1,0,.3,0,.4-.1.5-.3,1-.6,1.7-.6.5,0,.9,0,1.3-.2.2-.2.3-.6.6-.7.2,0,.6,0,.6-.6,0,0,.2,0,.2,0,.4.2.7,0,.8-.3,0-.3.3-.4.5-.5.5-.3,1-.6,1.6-.8.4-.2.9-.2,1.3-.3.4-.2.7-.7,1.3-.6.2.2.4.1.5,0,0,0,.5,0-.2-.3,0,0,0,0,0,0,.6.2.6,0,.5,0-.1,0-.5-.1-.3-.1.5,0,.4-.2.2-.2,0,0,.3,0-.6,0-.3,0-.3,0-.1,0,.5-.1.6-.2.5-.2,0,0-.2,0-.2,0,0,0,0,0-.1,0,0,0,0,0,0-.3.1-.2-.3-.4-.8,0-.2.2-.4-.2-.7-.2-.2,0-.5.2-.7.1-.2,0-.2-.3-.4-.5,0,0,0,0-.2,0-.6.2-1,0-1.3-.3-.4-.2-.7-.5-1.1-.5-.8,0-1.4,0-1.8,0-.2,0-.3-.1-1.3-.8-.4-.3-.9-.7-.9-1.1,0-.3,0-.6.2-.8.3-.3.6-.6,1-.8.7-.4,1.6-1,2.4-.6.2.1.6-.1.7.4,0,0,0,.1.1.1,1.1-.6,2,.2,2.8.4.7.2,1.6-.2,2.2.3.6-.4.8-.3,1.7.2,1.2.8,2.3,1.2,3.5,1.6,1.2.4,2.5.8,3.6,1.3l.8.3.4.2c0,0,.2,0,.2,0h-.2c0,.1-1.6,1.2-1.6,1.2-1.1.7-2.1,1.4-3.2,2.1-.4.2-.3.6-1.1.8-.7.1-1,.5-1.5.8-.2.1-.4.3-.7.4-.1,0-.2.1-.3.2,0,0-.1,0-.2,0-1.3,0-2.2.9-3.3,1.4-1.1.5-2.2.9-3.2,1.5-.6.4-1.1,1-1.8,1.2-.3,0-.5.5-1,0-.1-.1-.2.4-.4.5-.2.1-.4.2-.7.3l-.9.3-1.7.6c-.6.2-1.1.3-1.7.5-.3.1-.7.3-1.1.4-.3,0-.6.1-.9.1h-.3c-.4-.1-.6-.2-.9-.6-.6-.6-.6-1.2-.6-1.8,0-.3-.1-.7-.1-1.1,0-.4.1-.9.4-1.4.5-.9.8-1.7,1.1-2.5v-.5c.1,0,.2-.4.2-.4,0-.2.1-.5.2-.7.3-.9.7-1.9.8-2.8,0-.6.7-.9.9-1.4,0-.2,1.6-.1,2,0,0,0,.2.1.2.2.3.6.8,1.3.6,1.9-.3.8-.5,1.7-.8,2.6Z"/>
    <path d="M298.2,220.1c-.2-.2-.3-.4-.5-.6,0,0,0-.3-.4,0-.2.1.2-.3.1-.4-.2-.2-.3-.4-.5-.6-.2-.2-.5-.2-.7-.4-.2-.2-.1-.5-.5-.5-.3,0,0-.4-.3-.5-.2,0-.4-.2-.4-.5,0-.2.1-.5,0-.5-.1,0-.4,0-.5,0,0,0,.1-.3-.4,0,0,0,0,0,0-.1.3-.3.2-.4,0-.3-.3,0-.3,0-.3,0-.2-.2-.3-.3-.4-.5,0-.2,0-.4,0-.6,0-.2-.4-.2-.2-.5.2-.3,0-.4,0-.5,0,0,.1-.3-.4,0,0,0,0,0,0,0,.6-.6-.5-.3-.4-.6,0-.3-.2-.5-.4-.7,0,0,0-.2-.3,0-.2,0-.2,0-.1,0,.5-.5,0-.5,0-.7,0-.3-.4-.3,0-.8.1-.2.2-.3-.4-.2-.3,0,0-.2-.2-.2,0,0-.4,0-.4,0,0,0,.2-.2.2-.3,0,0,0,0,0,0-.8,0,0-.7-.4-1-.3-.2-.4-.6-.4-1,0-.2,0-.5,1.1-1,.5-.2,1-.4,1.3-.4.2,0,.5,0,.6,0,.1,0,.3,0,.4.2.3.1.8,0,.6.4,0,0,.3,0-.2.3,0,0,0,0,0,0,.8,0,.5.4.6.6.1.2.8.1.7.4.6-.2.6,0,.5.2-.4.7.2.9.4,1.3.1.4.5.8.7,1.2,0,0,.4,0,.2.2-.2.2,0,.2.1.3,0,0,.2,0,.1.2-.3.7.2.8.3,1.1.2.3.3.7.7.9.2.1.6,0,.7.4,0,.1.3,0,0,.4-.1.1.3,0,.4,0,.1,0,.2.2.3.4.1.2.2.4.4.5.1,0,.4,0,.5.1.1,0,.2.2.3.3,0,.2,0,.5,0,.6,0,.2.4.2.3.5-.2.6.2.7.4,1,.2.3.3.6.6.7.2,0-.1.6,0,.7,0,0-1,1.1-1.4,1.4,0,0-.2.1-.2.1-.5.2-1.1.5-1.2.3-.1-.3-.4-.5-.6-.7Z"/>
    <path d="M308.2,184.1c.2-.5.5-1,.7-1.6,0-.2.4-.3,0-.7-.2-.2.5-.1.6-.3.2-.5.6-.9.9-1.4.3-.5.5-1,.9-1.5.4-.5,1-.6,1.4-1.2.3-.5,1-.3,1.4-.6.4-.3,1-.6,1.6-.5.4,0,.8.3,1.2.1.2,0,.4-.4.7-.4.3,0,.5.3.8-.3,0,0,.1,0,.2.2.2.4.5.5.8.3.3-.2.5-.1.7,0,.6.2,1.1.3,1.8.9.4.4.7.9.9,1.4h0c.1.3.3.5.5.8,0,.1.1.3.2.4,0,.1,0,.2,0,.3-.2.5,0,.7,0,1,0,.2-.2.4.5.4,0,0,0,0,0,.1-.7.7.5.9.4,1.5,0,.6.1,1.1.2,1.8,0,.2-.2.3.3.5.2,0,.2.2,0,.3-.6.5-.3,1-.5,1.5-.2.5-.1,1.1-.8,1.4-.3.1-.5.3,0,.8.2.2-.2.3-.2.5,0,.2.1.4,0,.5,0,.1-.3,0-.5.1,0,0,0,0,0,0,.2.9-.9,1-1.1,1.6-.2.6-.6,1.1-.9,1.5-.2.2-.5.4-1.6,0-.5-.1-1-.4-1.2-.7-.2-.2-.3-.4-.3-.6,0-.2,0-.5,0-.7,0-.5-.2-1.1.3-1.3.1,0,0-.4.5-.2,0,0,.1,0,.1,0-.4-.9.4-1.1.6-1.5.2-.4-.2-1.1.3-1.3-.5-.5-.3-.6,0-.7.4-.2.6-.5.6-.8,0-.3,0-.6,0-.9,0-.7-.2-1.4-.4-2.3,0-.1-.4-.2-.2-.4.2-.2,0-.4-.1-.6,0-.2-.2-.3-.1-.4.2-.2.3-.3.2-.4,0,0,0-.1-.2-.2,0,0-.1,0-.3-.1-.4-.3-.9-.5-1.4-.3-.3,0-.6.5-.8.4-.1,0-.2.3-.4-.2,0-.1,0,.3-.1.4-.2.1-.4.2-.5.3-.3.1-.5.3-.7.5-.1.1-.1.5-.2.6,0,.2-.2.3-.4.4-.2.1-.6.2-.8.4-.2.2-.1.6-.5.7-.7.2-.7.9-1,1.4-.3.5-.5,1.1-.6,1.7,0,.3-.6.5-.7.8,0,.2-1.5-.1-2-.3,0,0-.2-.1-.2-.1-.3-.5-.9-1-.7-1.4.3-.5.4-1.1.7-1.7Z"/>
    <path d="M301.1,164.4c0,.4,0,.8,0,1.2,0,.1-.2.3.3.4.3,0-.4.2-.3.4.1.4,0,.7.2,1.1.1.3.4.7.5,1,.1.3,0,.8.3,1,.3.2,0,.6.1.9.2.3.4.5.2.9,0,.3-.2.5,0,.7.1.1.5.1.5.3,0,.1-.2.4.5.3,0,0,0,0,0,.2-.3.3-.2.5,0,.5.3,0,.3.1.4.2.2.3.3.6.4.9,0,.2,0,.6,0,.8,0,.3.4.4.2.7-.2.3,0,.5,0,.8,0,.1-.1.4.5.2,0,0,0,0,0,0-.6.7.5.5.5,1,0,.4.3.7.5,1,0,0,0,.3.4.1.2,0,.2,0,.1.1-.4.6,0,.6.1.9,0,.3.5.4.3,1,0,.2,0,.4.5.2.3-.1.1.2.3.2,0,0,.4,0,.4,0,0,0,0,.3-.1.4,0,0,0,0,0,0,.8-.1.4.8.9.9.4.1.7.4,1,.7.2.2.3.4-.1,1.5-.2.5-.4,1-.7,1.2-.2.2-.4.3-.5.3-.2,0-.4,0-.6,0-.4,0-1.1.2-1.2-.3,0-.1-.4,0-.1-.5,0,0,0-.1,0-.1-.9.3-1-.5-1.4-.9-.3-.3-1.1-.2-1.2-.8-.6.2-.8-.1-.8-.5,0-1.1-.8-1.6-1.1-2.4-.3-.8-.8-1.5-1.1-2.3,0-.1-.4,0-.3-.4.2-.3,0-.3-.2-.5,0-.2-.3-.3-.2-.5.3-.9-.3-1.3-.5-1.9-.2-.6-.4-1.3-.7-1.8-.2-.3-.7-.6-.7-1,0-.2-.4-.3.1-.6.1,0-.3-.1-.4-.2-.1-.3-.2-.5-.3-.8,0-.4-.2-.8-.3-1.1,0-.2-.4-.4-.5-.6-.1-.2-.2-.5-.1-.8,0-.3.2-.7.2-1,0-.3-.3-.7,0-1,.5-.6.2-1.2.3-1.8,0-.6.2-1.2.1-1.8,0-.4.5-.6.6-.9,0-.2,1.5,0,2,.1,0,0,.2,0,.2.1.4.4,1.1.7,1,1-.1.4-.1.9-.1,1.3Z"/>
    <path d="M276.8,164.7c0-1.2.1-2.3.2-3.4,0-.4.3-.8-.1-1.3-.2-.3.5-.6.5-1,.1-1.1.4-2.1.6-3.2.2-1,.3-2.1.7-3.2.4-1.1,1.1-2,1.5-3.1.3-1,1.3-1.4,1.8-2.1.6-.8,1.3-1.5,2.1-1.9.7-.3,1.3-.5,1.8-.9.3-.3.5-.8.9-1,.4-.2.9-.2,1-.9,0,0,.2,0,.4,0,.6.2,1.1,0,1.3-.5.2-.4.6-.5.9-.6.9-.3,1.8-.6,2.8-.7.7,0,1.4,0,2.1,0,.7,0,1.5-.4,2.2,0,.7.3,1.3.3,2,.3.4,0,.8.4,1.1-.2,0,0,.2,0,.2,0,.9,1,2.1.1,3.2.6.5.3,1.1.4,1.6.7.5.2,1.1.4,1.6.6.3.1.5.4,1,.2.2,0,.5,0,.5.2.2.5.6.8.9,1,.4.2.8.4,1.1.7.7.7,1.7,1.1,2,2.2.2.4.5.9,1.2.9.4,0,.5.5.7.8.2.2.6.3.8.5.2.2.1.5.2.8,0,0,0,.2.1.2,1.4.8,1.3,2.6,2,3.8.8,1.3,1.1,2.7,1.3,4.2.1.8,0,1.7-1,2.3-.5.3-1,.3-1.4,0-.3-.2-.5-.4-.6-.6-.1-.4-.4-.7-.5-1.1-.4-.7-1.1-1.3-1.1-2.1,0-.3-.4-.4,0-.8,0,0,0-.2,0-.2-1.1-.7-1.2-1.8-1.8-2.7-.6-.7-1.6-1.1-1.9-1.9-.8,0-1.1-.4-1.3-.9-.8-1.7-2.6-2.5-4.1-3.3-1.5-.9-3.3-1.3-5.1-1.6-.3,0-.6.3-.9,0-.3-.3-.8-.1-1.2-.1-.4,0-.7.1-1.1,0-1.5-.6-2.9,0-4.3.3-1.4.3-2.8.8-3.9,1.6-.7.5-1.2,1.3-2,1.7-.3.2-.4.7-1.1.5-.2,0-.1.5-.3.7-.4.4-.8.8-1.1,1.3-.5.6-.9,1.2-1.2,1.9-.2.4-.1,1-.3,1.4-.1.5-.3,1-.5,1.5-.3.6-.6,1.2-.8,1.9-.2.7,0,1.5-.4,2.1-.7,1.2-.6,2.5-.7,3.8-.1,1.3-.2,2.6,0,3.9.1.7-.3,1.4-.3,2.2,0,.3-1.4,1-1.9.9,0,0-.2,0-.2-.1-.6-.7-1.4-1.3-1.4-2.2,0-1.3,0-2.6,0-3.9Z"/>
    <path d="M250.2,179.2c.5-.2,1.1-.4,1.6-.7.2-.1.5,0,.5-.5,0-.3.4.2.6.1.5-.3,1-.4,1.5-.7.5-.3.9-.7,1.3-.9.5-.3,1.1-.2,1.4-.7.3-.4.8,0,1.2-.4.4-.3.8-.5,1.2-.5.4,0,.7.1,1,0,.2-.1.2-.5.4-.6.2,0,.5.1.4-.5,0,0,.1,0,.2,0,.3.3.6.2.6-.1,0-.3.2-.3.4-.4.4-.2.8-.4,1.2-.5.3,0,.7,0,1.1,0,.3,0,.6-.5,1-.3.4.2.7,0,1,0,.2,0,.5.1.4-.5,0,0,0,0,.1,0,.8.6.9-.6,1.4-.6.6,0,1-.3,1.5-.5.1,0,.3,0,.3-.4,0-.2.1-.2.2-.1.6.5.9,0,1.3,0,.5,0,.8-.5,1.4-.1.3.1.5.2.6-.5,0-.3.3-.1.5-.2.1,0,.2-.4.3-.4.1,0,.3.1.4.2,0,0,0,0,.1,0,.4-.8,1.4-.2,2-.6.6-.4,1.3-.5,2-.6.4,0,.8,0,1.4,1,.3.5.4,1,.4,1.4,0,.3-.1.5-.2.6-.2.2-.3.3-.5.5-.4.3-.6.9-1.1.8-.2,0-.2.3-.5-.2,0,0-.1,0-.1,0-.3.9-1.1.6-1.7.9-.5.2-.8,1-1.3.9,0,.7-.4.7-.8.6-1.2-.3-2,.4-3,.7-1,.2-2,.7-3,1-.2,0-.2.4-.5.3-.3-.2-.4,0-.7.2-.2,0-.4.3-.6.2-1-.3-1.6.3-2.4.5-.8.2-1.6.4-2.3.9-.4.3-.8.8-1.3.8-.2,0-.3.4-.7,0-.1-.1-.1.4-.3.4-.3.2-.6.3-.9.4-.4.2-.9.3-1.3.5-.3.1-.4.5-.7.6-.3.2-.5.3-.8.4-.4,0-.8,0-1.2.1-.4,0-.7.5-1.1.4-.9-.2-1.4.3-2.1.6-.7.2-1.3.5-1.9.9-.3.2-.9,0-1.2,0-.2,0-1-1.2-1.1-1.7,0,0,0-.2,0-.2.2-.6.2-1.4.6-1.5.6-.2,1.2-.5,1.8-.8Z"/>
  </g>
</svg>