<?xml version="1.0" encoding="UTF-8"?>
<svg id="ARTWORK" xmlns="http://www.w3.org/2000/svg" width="600" height="600" viewBox="0 0 600 600">
  <g>
    <path d="M381.2,477.7c.4.8-1.2-3.6-.8-2.8-3.9-14.5-5.6-28.1-5-43.2,15-.2,30,.5,44.9,2-.5,15.3-5,30.2-9.5,44.9" fill="#aaca60"/>
    <path d="M412.6,466c.6-2.1,1.2-4.3,1.7-6.4.2-.8.6-1.6.3-2.5-.2-.5.7-1.1.8-1.9.4-2,.9-4,1.2-6.1.3-2,.4-4,.6-6,.2-2,.7-4,.5-5.9,0-.2,0-.4,0-.6v-.4c0,0,0-.2.1-.3,0,0,0-.2.1-.3,0,0,0,0,0,0,0,0-.1,0-.2,0h-.3s0,0,0,0c0,0,0,0-.2,0h-.6c-.9-.1-1.7-.2-2.5-.4-1.2-.3-2.4-.6-3.6-.6-.8,0-1.5.3-2.3.2-.8,0-1.6-.4-2.3.2,0,0-.4,0-.6-.2-.8-.5-1.8-.5-2.5-.3-.7.2-1.3.2-1.9.1-1.7,0-3.4-.1-5.1-.2-1.3-.1-2.5-.4-3.8-.5-1.3,0-2.8.1-4-.2-1.2-.3-2.4-.3-3.6-.3-.7,0-1.5-.3-2.1.3,0,0-.3,0-.4,0-1-.4-2-.4-2.9-.2h-.7c0,.2-.1.2-.2.2,0,0-.2,0-.3,0,0,0-.2,0-.2,0,0,0,0,0,0,.1,0,.1,0,.2,0,.4,0,1,0,1.9,0,2.9,0,.5-.2,1.1.3,1.6.2.2.2.7,0,1-.6,1.5-.2,3.1-.2,4.7,0,1.8.4,3.5,0,5.4-.1.8-.1,1.8.5,2.7.3.4.2,1.3.3,1.9.1.5.4,1,.5,1.5,0,.4,0,.9-.1,1.4,0,.1,0,.3,0,.4,1.1,2.5.6,5.1,1.4,7.7.7,2.5,1.3,5.1,1.8,7.7,0,.3.1.6.2.9l-4.1,1.5s0,0,.2,0l.3-.2.6-.3.3-.2c0,0,.1,0,.2,0,.1,0,.2-.2.3-.2,0,0,0,0,0,0,0,0,0,0,0,0,0,0,0,0,.1,0,.2,0,.3,0,.5,0l1.3-.3c0,0,0,0,0,0h0s0,0,0,0h0s0,0,0,0h0c0,0,0,.5,0,.5,0,.3,0,.6,0,.8,0,.6-.2,1.1-.5,1.7,0,0,0,.2-.1.2,0,0,0,.1,0,.1,0,0,0,0-.1,0-.2,0-.3,0-.4,0-.1,0-.2.1-.3.1-.1,0-.2,0-.4-.2-.4-.4-.8-.8-1-1.3l-.3-.6-.2-.3c0,0,0-.1,0-.3h0c0,0,0-.1,0-.1,0,0,0-.3,0-.4,0-.1,0-.3.1-.4,0,0,.2-.4.7-.6.3,0,.6,0,.8,0,.2,0,.3.2.4.3h0c0,0,0,.1,0,.1h0c0,0,.1.3.1.3l-2.3.9c-.1-.4-.3-.7-.4-1.1-.6-1.6-1.6-3.2-1.7-5,0-.6-.5-1.1,0-1.7,0,0,0-.3,0-.4-1.3-2.2-1.2-4.7-1.7-7.1-.4-2-1.3-3.9-1.3-6.1-.8-1.1-.8-2.4-.7-3.6.3-4.1-.3-8.2-.3-12.3v-3.1c0,0,.2-5.2.2-5.2,0-.2.1-.1.2-.1h.3s.7,0,.7,0h1.3s2.5,0,2.5,0h3.1c.7,0,1.3-.3,2.1,0,.8.3,1.8,0,2.7,0,.8,0,1.7-.1,2.5,0,3.2.7,6.5.4,9.7.7,3.2.2,6.4.5,9.7.5,2,0,3.9-.2,5.9.1.8.1,1.8-.1,2.5.5.1,0,.4,0,.7,0,.2,0,.3,0,.5-.1.2,0,.5,0,.8,0,1.2,0,2.4.2,3.5.3h.4c0,0,.2,0,.2,0v.2s0,.9,0,.9v1.8c0,0-.2,2.3-.2,2.3v1.4c-.1,0-.4,2.8-.4,2.8,0,1.2,0,2.3,0,3.5,0,1.2-.3,2.4-.6,3.6-.3,1.5-.8,3-1.2,4.5-.4,1.5-.5,3.2-1.1,4.6-1.1,2.6-1.6,5.4-2.4,8.1-.8,2.7-1.6,5.3-2.3,8-.4,1.5-1.3,2.7-1.7,4.2-.2.7-1.9,1.2-2.3.7,0,0-.1-.2-.1-.3,0-1.6-.3-3.1.2-4.7.8-2.4,1.5-4.8,2.1-7.3Z" fill="#aaca60"/>
  </g>
  <g>
    <path d="M233.1,337.7c.6-12.3.7-24.7.4-37,15.4,3.6,30.2,9.4,44,17.1.8.4,1.6.9,1.9,1.7.4.8.2,1.7,0,2.5-2.1,10.7-4.1,21.5-6.2,32.2-5.7-3.2-11.8-5.7-18.1-7.4-.1-1.6-.2-3.2-.3-4.8,0-.7-.1-1.4-.6-1.9-.7-.7-1.8-.6-2.8-.4-3.5.7-7,1.4-10.6,2.1-1.9.4-4,.7-5.7-.1-1.7-.9-2.7-3.5-1.2-4.8" fill="#aaca60"/>
    <path d="M244.8,339l4.2-.8,2.1-.4c.3,0,1-.2,1.6-.2.6,0,1.2,0,1.7.2.8.3,1.5.9,1.9,1.7.2.4.4.8.5,1.2l.2.7c0,.2.1.5.2.6.3.5-.3,1.6-.2,2.5v.7c.2,0,.4.1.6.2,1.3.4,2.6.8,3.9,1.2,2.5.8,5,1.6,7.4,2.7.5.2.9.4,1.4.7l.7.4c.2,0,.1,0,.2,0h0c.2.2.4.3.5.3,0-.1,0-.3,0-.4,0-.1,0-.2,0-.2h0s0,0,0,0v-.2s.2-.7.2-.7c.3-1,.5-1.9.7-2.9.3-2.1.6-4.3,1.2-6.4.5-1.5,1-2.9,1.1-4.4.1-.9,0-1.9.2-2.9.2-.9.7-2,.2-2.9,0,0,.2-.5.3-.7.6-.9.8-2.2.7-3.1-.1-.9,0-1.6.2-2.4l.3-1.6c.1-.6.2-1,.2-1.3,0-.2,0,0,0-.1h0s.1,0-.2-.2l-1.9-1.2c-.7-.4-1.3-.9-2-1.3-1.4-.8-3.2-1.4-4.4-2.3-1.3-.9-2.6-1.6-4-2.2-.8-.4-1.6-1-2.5-.7,0,0-.4-.1-.5-.2-1.9-1.7-4.6-1.7-6.8-2.7-2.3-1.1-4.9-1.9-7.3-2.7-.7-.2-1.3-.6-2.1-.4-.3,0-1-.1-1.3-.3-1.6-1.2-3.7-1.4-5.6-2-.5-.2-1.1-.3-1.6-.5h-.5c0-.1-.1-.2-.1-.2,0,0-.2,0-.3-.1-.2-.1-.2,0-.3,0-.1,0-.2.2-.2.4,0,0,0,.1,0,.2,0,0,0,0,0,.3,0,.3.2.6.3.9.3.5,0,1.7.1,2.5,0,.7.3,1.4.4,2,0,.6-.2,1.2-.3,1.8,0,.2,0,.4,0,.6.7,3.3-.2,6.7,0,10,.1,3.4,0,6.8-.3,10.2-.1,1.9-.4,3.8-1.6,5-.5.5-1.1.5-1.4-.3-.2-.6-.4-1.3-.4-1.9,0-1.1-.1-2.1-.2-3.2-.1-2.2-.6-4.3-.2-6.5.1-.7-.2-1.5.3-2.1,0,0,.1-.4,0-.5-.7-3-.2-6-.3-9.1,0-2.6-.7-5-.5-7.6-.2-.4-.3-.7-.4-1.1,0-.2,0-.4-.1-.6h0c0-.1,0-.2,0-.2h0c0-.1,0-.7,0-.7,0-1.6,0-3.1,0-4.4v-.9s0-.4,0-.4c0-.1,0-.4.2-.2l1.8.5,3.5,1,4.2,1.2c2.5.7,5,1.4,7.4,2.2,5,1.7,9.9,3.5,14.7,5.6.8.4,1.7.3,2.5,1,.8.6,2,1,3.1,1.5.9.5,2,.8,2.8,1.4,1.7,1.2,3.5,2.2,5.3,3.2l1.4.7c.5.2.9.5,1.5.8.5.3,1.3,1,1.7,1.7.4.7.6,1.7.5,2.5,0,.7-.2,1.3-.3,1.8l-.3,1.5-.6,3c-.4,2-.7,4-1,6-.4,2.4-.5,4.9-1.1,7.3-.3,1-.1,2.2-.9,3.1-.2.3,0,1.3,0,2-.3,1.7-.6,3.3-.9,5-.5,2.4-.9,4.8-1.4,7.1-1.5-.8-3-1.7-4.5-2.4l-.9-.4-.4-.2c-.2,0-.2,0-.3-.1l-1-.4c-.7-.2-1.3-.5-2-.7-1.3-.5-2.7-1.1-4-1.7-1.7-.7-3.4-1.5-5.1-2.1l-1-.3-1.3-.4-1.3-.4c0,0,0,0,0-.1v-.2s0-.3,0-.3v-.7c0-.5-.1-.9-.2-1.4,0-.4,0-.7,0-1.1,0-.5,0-1,0-1.4v-.7c0-.2,0-.5,0-.5,0-.1,0-.3,0-.4,0-.3-.4-.4-.6-.4,0,0-.1,0-.2,0h-.6c0,.1-1.3.4-1.3.4-.9.2-1.7.3-2.6.5l-5.1.9c-1.7.3-3.5.8-5.7.7-.6,0-1.3-.2-1.9-.5l-.4-.2c-.2,0-.3-.2-.5-.3-.3-.2-.6-.5-.8-.7-.9-1.1-1.3-2.3-1.3-3.8,0-.7.7-1.5,1.3-1.6.7-.1,1.1.2,1.2.5,0,.1,0,.2,0,.3-.1.6.2,1.2.7,1.6.2.2.5.4.7.5.2.1.3.2.7.3.9.4,2.3.3,3.8,0l4.7-.9Z" fill="#aaca60"/>
  </g>
  <path d="M359.9,410.1c0-.3,0-.6,0-.9,0-.1.3-.2-.3-.4-.3,0,.4-.1.4-.2,0-.3,0-.6,0-.8,0-.3-.2-.6-.2-.9,0-.3.3-.5,0-.8-.2-.3.3-.4.2-.6,0-.2-.1-.5.1-.7.2-.1.4-.3.4-.4,0-.1-.3-.3-.3-.4,0,0,.3-.2-.3-.4,0,0,0,0,.2,0,.4,0,.4-.2.2-.3-.2-.1-.2-.2-.2-.3,0-.2,0-.5.1-.7,0-.2.3-.3.4-.4.1-.2-.1-.4.2-.5.3,0,.4-.3.4-.4,0,0,.3-.1-.3-.4,0,0,0,0,0,0,.9,0-.1-.6.1-.8.3-.2.2-.5.2-.8,0,0,.2-.1-.2-.3-.1,0-.1-.1,0-.2.7,0,.4-.4.5-.5.2-.2,0-.5.5-.6.2,0,.4-.1-.2-.4-.2-.1,0-.2,0-.3,0,0-.3-.2-.3-.3,0,0,.3,0,.4,0,0,0,0,0,0,0-.5-.5.4-.6.4-1,0-.2,0-.4,0-.6h0c0-.1,0-.4.2-.5.1-.3.3-.5.5-.7.2-.2.5-.5,1.2-.6.3,0,.7,0,1,.2.3.2.5.5.4.9,0,.3-.2.5-.4.7,0,0-.2.2-.2.3,0,0,0,0,0,0,0,0,0,0,0,0,0,.2.3.4.4.5,0,0,.1,0,0,0h0s0,0,0,0h0s0,0,0,0h0s0,0,0,0h0l.9.3h0s0,0,0,0h0c0,.1.1.3,0,.3-.1,0,.2.2-.3.1,0,0-.1,0,0,0,.7.5,0,.7,0,1,0,.3.5.7.2.9.6.3.4.4.2.5-.8.3-.5.9-.7,1.4-.2.5-.3,1-.4,1.5,0,0,.3.2,0,.3-.3,0-.1.2-.1.3,0,.1,0,.2,0,.3-.7.3-.4.7-.6,1.1-.2.4-.3.8-.2,1.2,0,.3.4.6.2.8,0,0,.2.3-.4.3-.2,0,.3.2.3.2,0,.2,0,.3,0,.5,0,.2-.1.5,0,.7,0,.1.2.3.3.5,0,.2,0,.3,0,.4,0,.2-.3.3-.4.5,0,.2.2.4-.1.6-.5.3-.3.7-.4,1,0,.3-.2.7,0,1.1,0,.2-.5.3-.5.5,0,0-1.5,0-2,0,0,0-.2,0-.2,0-.4-.2-1.2-.5-1.1-.7,0-.3,0-.7.1-1Z" fill="#aaca60"/>
  <path d="M217.1,344.6c-.5.6-1.1,1.1-1.5,1.7-.2.2-.6.3-.3.9.1.3-.6,0-.7.3-.4.6-.9,1.1-1.4,1.7-.4.6-.7,1.2-1.1,1.8-.4.6-1.1.9-1.2,1.7-.1.6-.8.7-1.1,1.2-.3.5-.6,1.1-1.1,1.4-.4.2-.8.4-1,.8-.1.2,0,.6-.2.8-.2.2-.6.3-.2.8,0,0-.1,0-.2,0-.5,0-.7.3-.6.6,0,.3,0,.5-.2.7-.3.5-.6,1-1,1.4-.3.3-.7.6-1,.9-.3.3-.4.9-.8,1.1-.5.2-.7.5-.9.9-.1.2-.5.3-.1.8,0,0,0,.1,0,.1-1.1,0-.5,1.3-1.1,1.7-.6.5-.8,1.2-1.2,1.8,0,.2-.4.2,0,.6.1.1,0,.3-.1.3-.8.1-.8.8-1.2,1.2-.4.5-.5,1.1-1.2,1.4-.3.1-.6.4-.3.9.2.3-.2.4-.3.6,0,.2,0,.5,0,.6,0,.1-.4.2-.5.2,0,0,0,0,0,.1.1,1.1-1.1,1.4-1.4,2.3-.3.9-.8,1.7-1.3,2.4-.3.4-.7.8-1.9.6-.5-.1-1-.4-1.2-.7-.1-.3-.2-.5-.2-.7,0-.3,0-.6.1-.9.1-.6,0-1.4.5-1.8.2-.1,0-.5.5-.4,0,0,.1,0,.1,0-.3-1.1.6-1.6,1-2.4.3-.6.1-1.6.7-2-.3-.7,0-1,.4-1.3,1.3-.9,1.7-2.3,2.5-3.5.8-1.2,1.6-2.4,2.4-3.6.1-.2,0-.6.4-.7.4,0,.4-.5.6-.7.2-.2.2-.6.5-.7,1.2-.5,1.5-1.7,2.2-2.6.7-.9,1.4-1.7,2-2.7.3-.6.5-1.4,1-1.8.2-.2.1-.7.8-.5.2,0,0-.5,0-.6.2-.4.6-.8.9-1.1.4-.5.9-1,1.2-1.5.2-.3.3-.8.5-1.1.2-.4.5-.7.8-1,.4-.4.9-.6,1.3-1,.4-.4.6-1,1.1-1.2,1-.4,1.5-1.3,2.2-2,.7-.7,1.4-1.4,1.9-2.2.3-.5,1-.5,1.4-.9.2-.2,1.5.6,1.8,1,0,0,.1.2.1.2,0,.7.2,1.5-.2,1.9-.6.6-1.2,1.3-1.8,1.9Z"/>
  <path d="M252.3,343.4c-.6,0-1.2.1-1.8.3-.2,0-.5-.2-.6.4,0,.3-.4-.3-.6-.2-.5.2-1.1.2-1.7.4-.5.2-1,.5-1.5.7-.5.2-1.1,0-1.6.5-.4.4-.9,0-1.3.2-.4.2-.8.4-1.3.3-.4,0-.7-.2-1,0-.2.1-.3.5-.5.5-.2,0-.5-.2-.5.5,0,0-.1,0-.2,0-.3-.3-.6-.2-.7.1,0,.3-.2.3-.4.4-.4.2-.9.3-1.3.5-.3,0-.7,0-1.1,0-.4,0-.6.5-1,.3-.4-.2-.7,0-1,.1-.2,0-.5-.1-.4.5,0,0,0,0-.1,0-.8-.6-.9.7-1.4.7-.6,0-1.1.4-1.5.7-.1,0-.4,0-.3.4,0,.2-.1.3-.2.2-.6-.4-.9.1-1.3.2-.5.1-.8.6-1.4.4-.3,0-.6,0-.5.6,0,.3-.3.2-.4.3-.1.1,0,.4-.2.5-.1,0-.3,0-.5-.1,0,0,0,0-.1,0-.3.9-1.3.5-1.8,1.1-.5.5-1.2.9-1.8,1.2-.4.2-.8.2-1.7-.5-.4-.4-.7-.8-.7-1.2,0-.3,0-.5,0-.7.1-.2.3-.4.4-.7.3-.4.4-1.1,1-1.2.2,0,.2-.4.6,0,0,0,.1,0,.1,0,.2-1,1-1,1.6-1.3.5-.3.7-1.2,1.3-1.2,0-.7.4-.8.8-.8,1.3,0,2.1-.9,3.2-1.3,1.1-.4,2.1-1,3.2-1.4.2,0,.2-.5.5-.3.3.2.5-.1.7-.2.2,0,.4-.3.7-.2,1.1.3,1.8-.4,2.7-.6.9-.2,1.8-.5,2.6-.9.5-.3.9-.8,1.5-.8.2,0,.4-.4.8.1.1.1.2-.4.3-.4.4-.1.7-.2,1.1-.3.5-.1,1-.2,1.5-.4.3-.1.6-.4.9-.6.3-.1.7-.2,1-.2.4,0,.9.1,1.3,0,.4,0,.9-.4,1.3-.2.9.4,1.6,0,2.4,0,.8,0,1.6-.1,2.3-.3.4-.1.9.3,1.3.3.2,0,.6,1.4.6,1.9,0,0,0,.2,0,.2-.4.5-.7,1.3-1.1,1.3-.7,0-1.4.1-2,.2Z"/>
  <path d="M253.4,355.2c-.4.2-.8.3-1.2.5-.1,0-.4-.1-.4.5,0,.3-.4-.3-.5-.2-.4.2-.8.3-1.1.5-.3.2-.6.5-1,.7-.3.2-.8,0-1.1.5-.2.4-.7,0-.9.2-.3.2-.6.4-.9.3-.3,0-.6-.2-.8,0-.1.1-.1.5-.3.5-.1,0-.4-.2-.3.5,0,0,0,0-.2,0-.3-.3-.5-.2-.5,0,0,.3-.1.3-.2.4-.3.2-.6.3-.9.4-.2,0-.6,0-.8,0-.3,0-.4.4-.7.2-.3-.2-.5,0-.8,0-.1,0-.4-.2-.2.5,0,0,0,0,0,0-.7-.6-.6.5-1,.5-.5,0-.8.3-1.1.5,0,0-.3,0-.2.4,0,.2,0,.2-.2.1-.5-.5-.7,0-1,0-.4,0-.6.4-1.1.1-.2-.1-.5-.1-.4.5,0,.3-.2.1-.3.2,0,0,0,.4-.1.4,0,0-.3-.1-.4-.2,0,0,0,0,0,0-.2.8-1,.2-1.4.6-.4.4-.9.5-1.4.7-.3,0-.6,0-1.3-.9-.3-.4-.5-.9-.6-1.3,0-.3,0-.5,0-.6.1-.2.2-.4.3-.5.2-.3.3-.9.7-.8.1,0,.1-.3.4.1,0,0,0,0,.1,0,0-.9.7-.7,1.1-.9.3-.2.4-1,.9-.9,0-.7.2-.7.5-.6,1,.3,1.6-.5,2.3-.7.8-.2,1.5-.7,2.2-.9.1,0,0-.4.4-.2.2.2.3,0,.5-.2.1,0,.3-.3.5-.2.8.4,1.3-.3,1.9-.4.6-.2,1.2-.4,1.7-.8.3-.2.5-.7,1-.7.2,0,.2-.4.6,0,.1.1,0-.3.2-.4.2-.1.5-.2.7-.3.3-.1.7-.2,1-.4.2-.1.3-.4.5-.6.2-.1.4-.2.7-.3.3,0,.7,0,1,0,.3,0,.5-.4.9-.3.7.3,1.1-.1,1.7-.3.5-.1,1.1-.3,1.5-.6.3-.2.7.2,1,.1.1,0,.8,1.3.9,1.8,0,0,0,.2,0,.2-.1.5-.1,1.3-.5,1.4-.5,0-.9.3-1.4.5Z"/>
  <path d="M252.4,351.2c0-.2.1-.4,0-.6,0,0,.3-.1-.3-.3-.3,0,.4,0,.4-.1,0-.2,0-.4,0-.5,0-.2-.2-.4-.2-.6,0-.2.3-.3,0-.5-.2-.2.3-.2.2-.4,0-.2-.1-.3.1-.4.2,0,.4-.1.3-.3,0,0-.4-.2-.3-.3,0,0,.3,0-.3-.3,0,0,0,0,.2,0,.4,0,.4,0,.1-.2-.3-.1-.2-.2-.2-.2,0-.2,0-.3,0-.4,0-.1.3-.2.4-.3,0-.1-.2-.3.1-.3.3,0,.3-.2.3-.3,0,0,.3,0-.3-.2,0,0,0,0,0,0,.8,0-.2-.4,0-.5.2-.1.1-.4.1-.5,0,0,.2,0-.3-.2-.2,0-.2,0,0-.1.6,0,.3-.2.4-.4.1-.1-.1-.3.4-.4.2,0,.3-.1-.2-.3-.3,0,0-.1,0-.2,0,0-.3-.1-.3-.2s.2,0,.4,0c0,0,0,0,0,0-.6-.3.3-.4.2-.7-.1-.3,0-.5.1-.7,0-.1.3-.2,1.4-.1.5,0,1.1.1,1.4.3.2,0,.4.2.5.2,0,0,.2.2.3.3.2.2.7.4.4.5,0,0,.2.1-.3,0,0,0-.1,0,0,0,.7.3.2.5.2.7,0,.2.6.5.3.6.6.2.5.3.3.4-.7.2-.3.7-.5,1-.2.3-.1.7-.2,1.1,0,0,.3.2,0,.2-.3,0,0,.1,0,.2,0,0,.1.2,0,.2-.7.2-.4.5-.5.8-.1.3-.2.5-.1.8,0,.2.4.4.2.6,0,0,.3.2-.3.2-.2,0,.3.1.3.2,0,.1,0,.2,0,.4,0,.2-.1.3,0,.5,0,.1.2.2.3.4,0,.1,0,.2,0,.3,0,.1-.3.2-.4.3,0,.1.2.3-.1.4-.5.2-.3.4-.4.7-.1.2-.2.5-.1.7,0,.1-.5.2-.5.3,0,0-1.5-.1-2-.2,0,0-.2,0-.2,0-.4-.2-1.1-.5-1.1-.6.1-.2,0-.4.1-.7Z"/>
  <path d="M256.2,361.5c-.5,0-.9,0-1.4,0-.2,0-.4-.2-.5.3,0,.3-.3-.4-.4-.3-.4,0-.9,0-1.3,0-.4,0-.8.3-1.3.4-.4,0-.9-.2-1.3.1-.3.3-.7-.2-1,0-.3.2-.7.3-1.1,0-.3-.1-.5-.3-.8-.2-.2,0-.3.4-.4.4-.2,0-.4-.3-.4.4,0,0,0,0-.1-.1-.2-.4-.4-.3-.5,0-.1.3-.2.3-.4.3-.4,0-.7.1-1.1.1-.3,0-.6-.2-.8-.2-.3,0-.5.3-.8,0-.3-.3-.6-.2-.8-.2-.1,0-.4-.2-.4.4,0,0,0,0,0,0-.6-.8-.8.4-1.2.3-.5-.1-.9,0-1.3.2-.1,0-.3-.1-.3.3,0,.2-.1.2-.2.1-.4-.5-.7-.1-1.1-.1-.4,0-.7.3-1.2,0-.2-.2-.5-.2-.5.4,0,.3-.3,0-.4.2,0,0-.1.4-.2.4,0,0-.2-.2-.4-.3,0,0,0,0,0,0-.4.8-1.1,0-1.6.4-.5.3-1.1.4-1.6.5-.3,0-.7,0-1.2-1.1-.3-.5-.4-1-.4-1.3,0-.3,0-.5.2-.6.1-.2.3-.3.4-.5.3-.3.5-.9,1-.8.1,0,.2-.3.4.2,0,0,0,0,.1,0,.3-.9.9-.6,1.4-.8.4-.2.7-.9,1.2-.7,0-.7.4-.6.7-.5,1,.4,1.8-.2,2.7-.3.9-.1,1.8-.4,2.7-.5.2,0,.2-.4.5-.2.2.2.4,0,.6,0,.2,0,.3-.2.5,0,.8.6,1.5,0,2.2,0,.7,0,1.4,0,2.1-.3.4-.1.8-.5,1.3-.4.2,0,.4-.3.6.3,0,.2.2-.3.3-.3.3,0,.6,0,.9,0,.4,0,.8,0,1.2,0,.3,0,.5-.3.7-.4.3,0,.5,0,.8,0,.3,0,.7.3,1,.3.3,0,.7-.2,1,0,.6.5,1.2.2,1.8.3.6,0,1.2.1,1.8,0,.4,0,.6.5,1,.5.2,0,.3,1.5.2,2,0,0,0,.2,0,.2-.3.4-.7,1.2-1,1.1-.5-.1-1.1,0-1.6,0Z"/>
  <path d="M255.4,372.1c0-.2,0-.4,0-.7,0,0,.3-.1-.3-.3-.3,0,.4,0,.4-.1,0-.2,0-.4,0-.6,0-.2-.2-.4-.3-.6,0-.2.3-.4,0-.6-.3-.2.3-.3.2-.5-.1-.2-.2-.4,0-.5.2,0,.4-.2.3-.3,0,0-.4-.2-.3-.3,0,0,.3-.1-.3-.3,0,0,0,0,.2,0,.4,0,.4-.1.1-.2-.3-.1-.2-.2-.2-.2,0-.2,0-.3,0-.5,0-.1.3-.2.4-.3,0-.1-.2-.3.1-.4.3,0,.3-.2.3-.3,0,0,.3-.1-.3-.2,0,0,0,0,0,0,.8,0-.2-.4,0-.6.2-.2.1-.4.1-.6,0,0,.2,0-.3-.2-.2,0-.2,0,0-.1.6,0,.3-.3.4-.4.1-.2-.1-.4.4-.5.2,0,.3-.1-.2-.3-.3,0,0-.1,0-.2,0,0-.3-.1-.3-.2,0,0,.2,0,.4,0,0,0,0,0,0,0-.6-.3.3-.5.1-.8-.1-.3,0-.5,0-.8,0-.1.3-.3,1.4-.2.5,0,1.1.1,1.4.2.2,0,.4.2.5.2,0,0,.2.2.3.3.2.2.7.4.4.6,0,0,.2.1-.3.1,0,0-.1,0,0,0,.8.3.2.5.2.8,0,.2.6.5.3.7.6.2.5.3.3.4-.7.3-.3.8-.5,1.1-.1.4-.1.8-.2,1.2,0,0,.3.2,0,.2-.3,0,0,.2,0,.3,0,0,.1.2,0,.2-.7.2-.3.6-.5.9-.1.3-.2.6-.1.9,0,.2.4.4.2.6,0,0,.3.2-.3.2-.2,0,.3.1.3.2,0,.1,0,.3,0,.4,0,.2,0,.4,0,.5,0,.1.3.3.3.4,0,.1,0,.2,0,.4,0,.1-.3.3-.4.4,0,.1.2.3-.1.5-.5.2-.3.5-.4.8,0,.3-.2.5,0,.8,0,.2-.5.2-.5.4,0,0-1.5,0-2-.1,0,0-.2,0-.2,0-.4-.2-1.1-.4-1.1-.6.1-.2,0-.5.1-.7Z"/>
  <path d="M255.5,373.6c-.4,0-.8,0-1.2.2-.1,0-.3-.2-.4.4,0,.3-.3-.3-.4-.3-.4.1-.7,0-1.1.2-.4.1-.7.4-1,.5-.3.1-.8-.1-1.1.2-.3.3-.6-.1-.9,0-.3.2-.6.3-.9,0-.2-.1-.5-.3-.7-.2-.1,0-.2.4-.4.4-.1,0-.3-.2-.4.4,0,0,0,0-.1-.1-.2-.4-.4-.3-.5,0,0,.3-.2.3-.3.3-.3,0-.6.1-.9.1-.2,0-.5-.2-.7-.2-.2,0-.5.3-.7,0-.3-.3-.5-.2-.7-.2-.1,0-.3-.2-.3.4,0,0,0,0,0,0-.5-.8-.7.4-1,.2-.4-.2-.7,0-1.1.1,0,0-.2-.1-.3.3,0,.2-.1.2-.2,0-.4-.6-.6-.2-.9-.2-.3,0-.6.3-1-.2-.2-.2-.4-.3-.4.3,0,.3-.2,0-.3.1,0,0-.1.3-.2.4,0,0-.2-.2-.3-.3s0,0,0,0c-.4.7-1,0-1.4.2-.4.2-.9.2-1.4.2-.3,0-.6-.2-.9-1.3-.2-.5-.2-1-.2-1.4,0-.2.1-.5.2-.6.1-.1.3-.3.4-.4.3-.2.5-.8.9-.6.1,0,.2-.2.3.3,0,0,0,.1,0,0,.3-.8.8-.4,1.2-.5.4-.1.6-.8,1-.6.1-.7.4-.6.6-.4.8.6,1.5,0,2.2,0,.7,0,1.5-.2,2.2-.3.1,0,.2-.4.4-.1.2.2.3,0,.5,0,.1,0,.3-.2.4,0,.7.6,1.2,0,1.8,0,.6,0,1.2,0,1.7-.3.3-.1.6-.5,1-.5.2,0,.3-.3.5.2,0,.2.1-.3.2-.3.2,0,.5,0,.7-.1.3,0,.7,0,1-.2.2,0,.4-.3.6-.4.2,0,.4-.1.6,0,.3,0,.6.2.8.2.3,0,.5-.3.8,0,.6.4,1,.1,1.5,0,.5,0,1,0,1.5-.2.3-.1.6.4.9.3.1,0,.5,1.4.5,1.9,0,0,0,.2,0,.2-.2.5-.3,1.3-.7,1.2-.5,0-.9.1-1.4.2Z"/>
  <path d="M254.4,386.5c-.4,0-.7.1-1.1.2-.1,0-.3-.2-.3.4,0,.3-.3-.3-.4-.3-.3.1-.7.1-1,.2-.3.1-.6.4-.9.5-.3.1-.7,0-.9.3-.2.3-.6-.1-.8,0-.2.2-.5.3-.8.1-.2-.1-.5-.3-.6-.2-.1,0-.2.4-.3.4-.1,0-.3-.2-.3.4,0,0,0,0-.1-.1-.2-.4-.4-.3-.4,0,0,.3-.2.3-.3.3-.3,0-.5.2-.8.2-.2,0-.5-.2-.7-.2-.2,0-.4.3-.7,0-.3-.3-.4-.2-.6-.2-.1,0-.3-.2-.3.4,0,0,0,0,0,0-.5-.7-.6.4-.9.2-.4-.1-.7,0-1,.2,0,0-.2-.1-.2.3,0,.2,0,.2-.2,0-.4-.6-.6-.1-.8-.2-.3,0-.5.3-.9-.1-.2-.2-.4-.3-.4.4,0,.3-.2,0-.3.1,0,0-.1.4-.2.4,0,0-.2-.2-.3-.3,0,0,0,0,0,0-.3.7-.9,0-1.3.2-.4.3-.8.3-1.3.3-.2,0-.5-.1-.9-1.2-.2-.5-.3-1-.3-1.4,0-.3,0-.5.1-.6.1-.1.2-.3.3-.4.2-.2.4-.8.7-.6.1,0,.1-.2.3.2,0,0,0,0,0,0,.2-.9.7-.4,1.1-.6.3-.1.5-.8.9-.6,0-.7.3-.6.5-.4.8.5,1.3,0,2,0,.7,0,1.3-.3,2-.4.1,0,.1-.4.3-.1.2.2.3,0,.4,0,.1,0,.2-.2.4,0,.6.5,1.1,0,1.6,0,.5,0,1.1,0,1.5-.3.3-.2.5-.6.9-.5.1,0,.2-.3.5.2,0,.2.1-.3.2-.4.2,0,.4-.1.6-.1.3,0,.6,0,.9-.2.2,0,.3-.4.5-.4.2-.1.4-.1.6-.1.3,0,.5.2.8.2.3,0,.5-.3.8,0,.5.4.9,0,1.4,0,.5,0,.9,0,1.3-.3.2-.1.6.3.8.3.1,0,.6,1.4.6,1.9,0,0,0,.2,0,.2-.1.5-.2,1.3-.5,1.3-.4,0-.8.1-1.2.2Z"/>
  <path d="M253.2,382.7c0-.2,0-.3,0-.5,0,0,.2-.1-.3-.2-.3,0,.4-.1.3-.2,0-.1,0-.3,0-.5,0-.1-.3-.3-.4-.4,0-.1.2-.3-.1-.4-.3-.1.2-.2,0-.4-.1-.1-.2-.2,0-.4.2,0,.4-.2.3-.3,0,0-.4,0-.4-.1,0,0,.3-.1-.3-.1,0,0,0,0,.1,0,.4,0,.4-.2,0-.2-.3,0-.2,0-.3-.1,0-.1,0-.2,0-.4,0,0,.3-.2.3-.3,0-.1-.2-.2,0-.3.3-.1.3-.2.3-.3,0,0,.3-.1-.4-.1,0,0,0,0,0,0,.8-.2-.3-.3,0-.4.2-.2,0-.3,0-.5,0,0,.2,0-.3-.1-.2,0-.2,0,0,0,.6-.1.2-.2.3-.4.1-.1-.2-.3.3-.4.2,0,.3-.1-.3-.2-.3,0,0,0,0-.1,0,0-.3,0-.3,0,0,0,.2,0,.3-.1,0,0,0,0,0,0-.7-.2.2-.4,0-.6-.2-.2-.1-.4,0-.6,0-.1.2-.2,1.4-.4.5,0,1.1,0,1.4,0,.2,0,.5,0,.5,0,0,0,.2.1.3.2.2.1.7.2.5.3,0,0,.2,0-.3.1,0,0-.1,0,0,0,.8.1.3.3.4.5,0,.1.7.3.4.4.6,0,.5.1.3.2-.7.3-.2.6-.3.9,0,.3,0,.6,0,.9,0,0,.4,0,0,.1-.3,0,0,.1,0,.2,0,0,.1.1,0,.2-.6.3-.2.5-.3.7,0,.2-.1.5,0,.7.1.1.5.3.3.4,0,0,.3.1-.3.2-.2,0,.3,0,.3,0,0,0,0,.2,0,.3,0,.1,0,.3,0,.4,0,0,.3.1.4.2,0,0,0,.2,0,.3,0,.1-.3.2-.3.3,0,.1.2.2,0,.3-.5.2-.2.4-.3.6,0,.2,0,.4,0,.6,0,.1-.4.2-.4.4,0,0-1.5.2-2,.2,0,0-.2,0-.2,0-.5,0-1.2-.1-1.2-.3,0-.2,0-.4,0-.6Z"/>
  <path d="M212.9,402.9c.5-.1.9-.2,1.4-.4.2,0,.4.1.4-.4,0-.3.4.3.5.2.4-.2.9-.2,1.3-.4.4-.2.7-.5,1.1-.8.4-.2.9,0,1.2-.5.2-.4.7,0,1-.3.3-.3.6-.5,1-.4.3,0,.6.1.8,0,.1-.1.1-.5.3-.5.2,0,.4.1.3-.5,0,0,.1,0,.2,0,.3.3.5.1.5-.2,0-.3.1-.3.2-.4.3-.2.6-.4.9-.5.3-.1.6,0,.9-.1.3,0,.4-.5.8-.4.4.1.6,0,.8-.2.1,0,.4,0,.2-.5,0,0,0,0,0,0,.8.4.5-.7,1-.8.5,0,.8-.5,1.1-.8,0,0,.3,0,0-.4,0-.1,0-.2.1-.2.7.3.7-.2,1-.4.4-.2.5-.6,1.1-.5.3,0,.5,0,.2-.6-.1-.3.2-.2.3-.3,0-.1,0-.4,0-.5,0,0,.3,0,.4,0,0,0,0,0,0,0,0-.8.9-.6,1.2-1.2.3-.5.7-.9,1.1-1.3.2-.2.6-.3,1.6.2.5.2.9.6,1.1.9.1.2.2.5.2.6,0,.2,0,.4-.1.7-.1.4,0,1.1-.4,1.2-.2,0,0,.3-.5,0,0,0-.1,0-.1,0,.2.9-.5,1-.9,1.4-.3.4-.2,1.1-.7,1.3.2.6,0,.8-.4.8-1.2.2-1.6,1.1-2.4,1.6-.8.5-1.5,1.2-2.3,1.7-.1,0,0,.5-.4.3-.3-.1-.4.2-.5.3-.2.1-.3.3-.5.3-1-.2-1.4.6-2.1.9-.7.3-1.4.6-2,1.1-.4.3-.6.8-1.1.9-.2,0-.2.4-.7,0-.1-.1,0,.4-.2.4-.3.2-.6.3-.9.4-.4.2-.8.3-1.2.5-.2.1-.4.5-.6.6-.2.2-.5.2-.8.3-.4,0-.8,0-1.1,0-.4,0-.7.4-1.1.3-.8-.3-1.3.1-2,.2-.6,0-1.3.2-1.9.4-.3.1-.8-.3-1.1-.2-.2,0-.6-1.4-.6-1.9,0,0,0-.2,0-.2.3-.5.4-1.3.8-1.3.5,0,1.1-.2,1.6-.3Z"/>
  <path d="M343.3,347c.7,0,1.4,0,2,0,.3,0,.5.3.8-.3.1-.3.4.4.6.4.6,0,1.3,0,1.9,0,.6,0,1.2-.2,1.9-.2.6,0,1.2.4,1.8,0,.5-.2.9.3,1.4.3.5,0,1.1,0,1.5.2.3.2.7.5,1,.5.2,0,.5-.3.7-.2.2,0,.4.4.7-.2,0,0,.1,0,.1.2.2.4.5.5.7.2.3-.2.4-.2.6-.1.5,0,1,.1,1.5.3.4.1.7.4,1.1.6.4.2.9,0,1.2.4.3.4.6.5,1,.6.2,0,.4.4.7-.2,0,0,.1,0,.1,0,.4.9,1.2,0,1.7.4.5.4,1.2.4,1.8.6.2,0,.3.3.6-.1.1-.1.3-.1.3,0,.3.7.8.5,1.3.8.5.3,1.1.2,1.4.8.1.3.4.5.9,0,.2-.2.4.1.6.2.2,0,.4-.2.6-.1.1,0,.2.3.3.5,0,0,0,0,.1,0,1-.3,1.4.8,2.2,1,.8.1,1.5.5,2.2,1,.4.2.7.6.5,1.8,0,.5-.3,1-.6,1.2-.2.2-.5.3-.6.3-.3,0-.5,0-.8,0-.5,0-1.2.2-1.5-.2-.1-.1-.4,0-.3-.5,0,0,0-.1,0-.1-.9.5-1.4-.3-2.1-.5-.6-.2-1.3.2-1.8-.3-.5.5-.8.2-1.1,0-.9-1-2.1-1-3.2-1.4-1.1-.5-2.3-.7-3.4-1-.2,0-.5.2-.6,0-.1-.3-.5-.2-.7-.2-.2,0-.5,0-.7-.2-.8-.8-1.8-.7-2.7-.9-.9-.2-1.8-.5-2.7-.5-.6,0-1.2.3-1.7,0-.2,0-.5.2-.7-.4,0-.2-.3.2-.5.2-.4,0-.8,0-1.2-.1-.5,0-1.1-.2-1.6-.2-.3,0-.7.2-1,.2-.3,0-.7,0-1,0-.4-.1-.8-.3-1.3-.4-.4-.1-.9.2-1.3-.1-.8-.5-1.6-.3-2.4-.4-.8,0-1.6-.1-2.4,0-.4,0-.9-.4-1.3-.4-.2,0-.5-1.5-.5-2,0,0,0-.2,0-.2.4-.5.8-1.2,1.3-1.2.8,0,1.5,0,2.3,0Z"/>
  <path d="M340.9,359.8c0-.2,0-.4,0-.6,0,0,.2-.2-.3-.2-.3,0,.4-.2.3-.2,0-.2,0-.4-.1-.6,0-.2-.3-.3-.4-.5,0-.2.2-.4-.2-.5-.3,0,.2-.3,0-.4-.2-.1-.3-.3,0-.5.1-.1.3-.3.2-.4,0,0-.4,0-.4-.1,0,0,.2-.2-.4-.1,0,0,0,0,.1,0,.4-.2.3-.3,0-.2-.3,0-.3,0-.3,0,0-.1-.1-.3-.1-.4,0-.1.2-.3.2-.4,0-.1-.3-.2,0-.4.3-.2.2-.3.2-.4,0,0,.2-.2-.4,0,0,0,0,0,0,0,.7-.5-.4-.2-.2-.5.1-.2,0-.4-.2-.5,0,0,.1-.2-.3,0-.2,0-.2,0,0,0,.5-.4.1-.4.2-.5,0-.2-.3-.2,0-.6.2-.2.2-.3-.3-.1-.3,0,0-.1-.1-.1,0,0-.3,0-.4,0,0,0,.2-.2.2-.3,0,0,0,0,0,0-.7,0,0-.5-.3-.6-.3-.1-.3-.4-.4-.6,0-.1,0-.4,1-1,.4-.3.9-.6,1.2-.7.2,0,.5-.2.5-.1.1,0,.3,0,.4,0,.3,0,.8,0,.7.2,0,0,.2,0-.2.3,0,0,0,0,0,0,.8-.2.5.3.6.5.1.2.8,0,.7.4.6-.2.6,0,.5.2-.4.7.2.9.2,1.3,0,.4.3.8.4,1.2,0,0,.4,0,.1.2-.2.2,0,.2,0,.3,0,0,.2.1,0,.3-.5.5,0,.7,0,1.1,0,.3,0,.7.3,1,.1.2.5.3.5.5,0,0,.3.1-.2.3-.2,0,.3,0,.3,0,0,.1,0,.3.1.4,0,.2,0,.4.1.6,0,.1.3.2.4.3,0,.1,0,.2,0,.4,0,.2-.2.4-.3.5,0,.2.3.3,0,.5-.5.4-.2.6-.2.9,0,.3,0,.6,0,.9,0,.2-.4.3-.4.5,0,0-1.5.2-2,.2,0,0-.2,0-.2,0-.5-.1-1.2-.2-1.2-.4,0-.2,0-.5,0-.7Z"/>
  <path d="M363.1,367.7c-.3-.2-.6-.4-1-.5-.1,0-.1-.3-.5,0-.2.2,0-.4-.1-.5-.3,0-.6-.3-.9-.4-.3,0-.7,0-1,0-.3,0-.5-.5-.9-.3-.4.2-.4-.4-.7-.4-.3,0-.6,0-.8-.3-.1-.2-.2-.5-.5-.5-.1,0-.4.3-.5.2-.1,0-.2-.4-.5.2,0,0,0,0,0-.2,0-.4-.2-.5-.4-.2-.2.2-.3.2-.4.1-.3,0-.5-.1-.8-.3-.2-.1-.3-.4-.5-.5-.2-.1-.5,0-.6-.3-.1-.3-.3-.4-.5-.4-.1,0-.2-.3-.4.2,0,0,0,0,0,0,0-.9-.7,0-.9-.2-.3-.3-.6-.2-1-.3,0,0-.1-.2-.3.2,0,.2-.2.1-.2,0-.1-.7-.4-.4-.7-.5-.3-.2-.6,0-.8-.5,0-.2-.2-.4-.5.2-.1.3-.2,0-.3,0,0,0-.2.3-.3.3,0,0-.1-.3-.2-.4,0,0,0,0,0,0-.5.6-.8-.4-1.3-.3-.5.1-.9,0-1.3-.2-.2,0-.5-.3-.5-1.5,0-.5,0-1.1.2-1.4.1-.2.2-.4.3-.5.2,0,.3-.2.5-.3.3-.2.7-.6,1-.3,0,.1.2-.2.2.3,0,0,0,.1,0,0,.5-.7.9-.1,1.3-.1.4,0,.8-.5,1.1-.2.3-.6.5-.4.7-.2.6.8,1.3.5,2,.8.7.3,1.4.4,2.1.6.1,0,.3-.3.4,0,0,.3.3.1.4.2.1,0,.3,0,.4.1.3.8,1,.6,1.5.8.5.3,1,.5,1.6.5.4,0,.8-.2,1.1,0,.1.1.4-.2.3.4,0,.2.3-.2.4-.2.2,0,.4.2.7.2.3.1.6.3.9.4.2,0,.5-.1.7,0,.2,0,.4.1.6.3.2.2.4.5.6.6.2.2.6,0,.7.4.2.7.8.6,1.2.9.4.3.8.5,1.3.7.3,0,.3.6.5.8.1,0-.5,1.4-.8,1.8,0,0-.1.2-.2.2-.4.3-1,.8-1.2.6-.3-.3-.7-.4-1.1-.6Z"/>
  <path d="M345.7,363.8c.4,0,.8-.1,1.2-.2.1,0,.3.2.4-.3,0-.3.3.4.4.3.4,0,.7,0,1.1,0,.3,0,.7-.3,1-.3.3,0,.6.3,1,0,.3-.3.5.3.7.2.3,0,.5-.2.8.1.2.2.3.4.5.3.1,0,.3-.4.4-.3.1,0,.2.3.4-.3,0,0,0,0,0,.2,0,.4.2.4.4.1.1-.3.2-.2.3-.2.3,0,.5,0,.8,0,.2,0,.4.3.5.4.2,0,.4-.2.6.1.2.3.3.3.5.3.1,0,.2.3.3-.3,0,0,0,0,0,0,.2.9.6-.2.9,0,.3.2.6.1.9.1,0,0,.2.2.3-.3,0-.2.1-.2.2,0,.2.6.5.3.7.4.3.1.6-.1.8.4,0,.2.2.3.4-.2,0-.3.2,0,.3,0,0,0,.2-.3.3-.3s.1.2.2.4c0,0,0,0,0,0,.5-.6.8.3,1.2.2.4-.1.8,0,1.2.1.2,0,.4.3.5,1.4,0,.5,0,1.1-.2,1.4,0,.2-.2.4-.3.5-.1,0-.3.2-.4.3-.3.2-.6.7-.8.4,0,0-.2.2-.2-.3,0,0,0-.1,0,0-.4.8-.8.2-1.1.2-.3,0-.7.6-1,.3-.2.6-.4.5-.6.3-.5-.7-1.2-.3-1.8-.5-.6-.2-1.2-.1-1.8-.2-.1,0-.2.3-.3,0,0-.3-.3,0-.4,0-.1,0-.3.1-.4,0-.4-.7-.9-.4-1.4-.5-.5-.1-1-.2-1.4-.1-.3,0-.6.4-.9.2-.1,0-.3.3-.4-.3,0-.2-.2.3-.3.3-.2,0-.4,0-.6,0-.3,0-.5,0-.8,0-.2,0-.3.3-.5.3-.2,0-.3,0-.5,0-.2,0-.4-.3-.6-.4-.2,0-.4.2-.6,0-.4-.5-.7-.2-1-.2-.3,0-.6,0-.9.3-.1.1-.5-.3-.6-.2,0,0-.9-1.2-1.1-1.6,0,0,0-.2,0-.2,0-.5,0-1.3.2-1.4.5-.1.9-.3,1.4-.4Z"/>
  <path d="M342.8,375.8c0-.2,0-.4,0-.6,0,0,.2-.1-.3-.2-.3,0,.4-.1.3-.2,0-.2,0-.4,0-.5,0-.2-.3-.3-.3-.5,0-.2.2-.3,0-.5-.3-.2.2-.3.1-.4-.1-.1-.2-.3,0-.4.2,0,.4-.2.3-.3,0,0-.4-.1-.4-.2,0,0,.3-.1-.3-.2,0,0,0,0,.1,0,.4,0,.4-.1.1-.2-.3,0-.2-.1-.2-.2,0-.1,0-.3,0-.4,0-.1.3-.2.4-.3,0-.1-.2-.3.1-.3.3,0,.3-.2.3-.3,0,0,.3,0-.3-.2,0,0,0,0,0,0,.8,0-.2-.4,0-.5.2-.2,0-.3,0-.5,0,0,.2,0-.3-.2-.2,0-.2,0,0,0,.6,0,.3-.2.4-.4.1-.1-.1-.3.4-.4.2,0,.3-.1-.2-.3-.3,0,0-.1,0-.2,0,0-.3-.1-.3-.2,0,0,.2,0,.4,0,0,0,0,0,0,0-.6-.3.3-.4.1-.7-.1-.3,0-.5.1-.7,0-.1.3-.2,1.4,0,.5,0,1.1.2,1.4.3.2,0,.4.2.5.2,0,0,.2.2.3.3.2.2.7.4.4.5,0,0,.2.1-.3,0,0,0-.1,0,0,0,.8.3.2.4.2.6,0,.2.6.4.3.5.6.2.5.3.3.3-.7.2-.3.6-.4.9-.1.3,0,.6-.1.9,0,0,.3.1,0,.2-.3,0,0,.1,0,.2,0,0,.1.1,0,.2-.7.2-.3.5-.4.7,0,.2-.2.5,0,.8,0,.2.4.3.3.5,0,0,.3.1-.3.2-.2,0,.3,0,.3.1,0,.1,0,.2,0,.3,0,.1,0,.3,0,.4,0,0,.3.2.3.3,0,0,0,.2,0,.3,0,.1-.3.2-.3.3,0,.1.2.2,0,.4-.5.2-.2.4-.3.7,0,.2,0,.4,0,.6,0,.1-.4.3-.4.4,0,0-1.5.2-2,.2,0,0-.2,0-.2,0-.5-.1-1.2-.2-1.2-.3,0-.2,0-.4,0-.6Z"/>
  <path d="M365.7,381.3c-.4,0-.7-.2-1.1-.3-.1,0-.2-.3-.5.2-.1.2-.1-.4-.3-.4-.4,0-.7-.2-1.1-.2-.4,0-.7.1-1.1.1-.3,0-.6-.4-1-.1-.3.2-.5-.3-.8-.3-.3,0-.6,0-.9-.2-.2-.2-.3-.5-.6-.4-.1,0-.3.3-.4.3-.1,0-.2-.3-.4.3,0,0,0,0,0-.2,0-.4-.2-.4-.4-.2-.2.3-.3.2-.4.2-.3,0-.6,0-.9-.1-.2,0-.4-.3-.6-.4-.2,0-.5.2-.7-.2-.2-.3-.4-.3-.6-.4-.1,0-.2-.3-.4.3,0,0,0,0,0,0-.2-.9-.7.2-1,0-.3-.2-.7-.1-1.1-.2,0,0-.2-.2-.3.3,0,.2-.1.2-.2,0-.2-.7-.5-.3-.8-.4-.3-.1-.6.1-.9-.4-.1-.2-.3-.3-.5.2,0,.3-.2,0-.3,0,0,0-.2.3-.3.3,0,0-.1-.2-.2-.4,0,0,0,0,0,0-.5.6-.9-.3-1.3-.1-.5.2-.9,0-1.4,0-.3,0-.5-.3-.6-1.4,0-.5,0-1.1,0-1.4,0-.2.2-.5.3-.5.2,0,.3-.2.5-.3.3-.2.6-.7.9-.4,0,0,.2-.2.3.3,0,0,0,.1,0,0,.5-.8.9-.2,1.3-.3.4,0,.8-.6,1.1-.3.2-.6.5-.5.7-.3.7.7,1.4.3,2.1.5.7.2,1.5.2,2.2.3.1,0,.3-.3.4,0,.1.3.3,0,.5.1.1,0,.3,0,.4,0,.5.7,1.1.4,1.7.6.6.2,1.1.3,1.7.2.4,0,.8-.3,1.1-.1.1,0,.4-.2.4.4,0,.2.2-.2.3-.2.2,0,.5,0,.7.1.3,0,.6.2,1,.2.2,0,.5-.2.7-.2.2,0,.4,0,.6.1.2.1.5.4.7.5.3.1.6,0,.8.3.4.6.9.5,1.4.7.5.2.9.3,1.4.4.3,0,.4.6.7.6.1,0-.1,1.5-.3,2,0,0,0,.2-.1.2-.4.4-.8,1-1.1.9-.4-.2-.8-.2-1.3-.4Z"/>
  <path d="M348.2,388.9c0-.2,0-.4-.1-.6,0,0,.2-.2-.3-.2-.3,0,.4-.2.3-.2,0-.2,0-.4,0-.6,0-.2-.3-.4-.4-.6,0-.2.2-.4-.1-.6-.3-.1.2-.3,0-.5-.1-.2-.2-.3,0-.5.2-.1.4-.2.3-.4,0,0-.4-.1-.4-.2,0,0,.3-.2-.3-.2,0,0,0,0,.1,0,.4,0,.4-.2.1-.2-.3,0-.2-.1-.3-.2,0-.2,0-.3,0-.5,0-.1.3-.2.4-.4,0-.1-.2-.3,0-.4.3-.1.3-.2.3-.3,0,0,.3-.1-.3-.2,0,0,0,0,0,0,.8-.1-.2-.4,0-.6.2-.2,0-.4,0-.6,0,0,.2,0-.3-.2-.2,0-.2,0,0-.1.6,0,.3-.3.4-.4.1-.2-.1-.4.4-.5.2,0,.3-.1-.2-.3-.3,0,0-.1,0-.2,0,0-.3-.1-.3-.2,0,0,.2,0,.4,0,0,0,0,0,0,0-.6-.4.3-.5.2-.8-.1-.3,0-.5.1-.8,0-.1.3-.2,1.4-.1.5,0,1.1.2,1.4.3.2,0,.4.2.5.2,0,0,.2.2.3.3.2.2.7.4.4.5,0,0,.2.1-.3,0,0,0-.1,0,0,0,.8.3.2.5.2.7,0,.2.6.4.3.6.6.2.5.3.3.3-.7.3-.3.7-.4,1-.1.3,0,.7-.1,1,0,0,.3.1,0,.2-.3,0,0,.1,0,.2,0,0,.1.1,0,.2-.7.3-.3.5-.3.8,0,.3-.1.6,0,.8.1.2.5.3.3.5,0,0,.3.1-.3.2-.2,0,.3,0,.3.1,0,.1,0,.2,0,.3,0,.2,0,.3,0,.5,0,0,.3.2.4.3,0,0,0,.2,0,.3,0,.1-.3.3-.3.4,0,.1.2.2,0,.4-.5.3-.2.5-.2.7,0,.2,0,.5.1.7,0,.1-.4.3-.4.5,0,0-1.4.4-1.9.5,0,0-.2,0-.2,0-.5,0-1.2,0-1.2-.2,0-.3,0-.5,0-.7Z"/>
  <path d="M367.4,395.1c-.3,0-.7-.1-1-.1-.1,0-.2-.3-.4.2-.1.3-.1-.4-.2-.4-.3,0-.6-.1-.9-.1-.3,0-.6.2-1,.2-.3,0-.6-.3-.9,0-.3.2-.4-.3-.7-.2-.3,0-.6.1-.8-.2-.1-.2-.3-.5-.5-.4-.1,0-.3.3-.4.3-.1,0-.2-.3-.4.3,0,0,0,0,0-.2,0-.4-.2-.4-.4-.2-.2.2-.2.2-.3.2-.3,0-.5,0-.8-.2-.2,0-.3-.4-.5-.5-.2-.1-.5.1-.6-.2-.1-.3-.3-.4-.5-.4-.1,0-.2-.3-.4.3,0,0,0,0,0,0-.1-.9-.6.1-.9-.1-.3-.3-.6-.2-.9-.2,0,0-.1-.2-.3.2,0,.2-.2.1-.2,0,0-.7-.4-.3-.6-.5-.2-.2-.6,0-.7-.5,0-.2-.2-.4-.5.2-.1.2-.2,0-.3,0,0,0-.2.3-.3.3,0,0,0-.3-.1-.4,0,0,0,0,0,0-.5.6-.7-.4-1.1-.3-.4,0-.8,0-1.2-.3-.2-.1-.4-.3-.2-1.5,0-.5.2-1.1.4-1.3.1-.2.3-.4.3-.5.1,0,.3-.2.4-.2.3-.1.7-.6.8-.2,0,.1.2-.2.2.3,0,0,0,.1,0,0,.5-.7.8,0,1.1,0,.3,0,.7-.5,1-.2.3-.6.5-.4.6-.2.4.8,1.1.5,1.7.7.6.2,1.2.3,1.8.4,0,0,.3-.3.3,0,0,.3.2.1.4.1.1,0,.3,0,.3,0,.3.7.9.4,1.3.6.4.2.9.3,1.4.2.3,0,.6-.3.9-.1.1,0,.3-.2.3.4,0,.2.2-.3.3-.3.2,0,.4,0,.6,0,.3,0,.5.1.8.1.2,0,.4-.2.5-.3.2,0,.4,0,.5,0,.2.1.4.4.6.5.2.1.5-.1.7.2.3.6.8.4,1.2.5.4.1.8.2,1.2.2.2,0,.4.5.6.5.1,0,0,1.5,0,2,0,0,0,.2,0,.2-.3.4-.6,1.1-.8,1-.4-.1-.7-.1-1.1-.2Z"/>
  <path d="M399.9,367.4c-.2-.5-.3-1.1-.6-1.5-.1-.2,0-.5-.5-.5-.3,0,.2-.4.1-.6-.3-.4-.4-1-.7-1.4-.3-.4-.7-.8-1-1.2-.3-.4-.3-1-.8-1.2-.4-.2-.2-.8-.5-1-.3-.3-.6-.6-.7-1.1,0-.3,0-.7-.3-.9-.2-.1-.5,0-.6-.2,0-.2,0-.5-.6-.2,0,0,0-.1,0-.2.2-.4,0-.6-.3-.5-.3,0-.4,0-.5-.2-.3-.3-.6-.6-.8-.9-.2-.3-.2-.6-.4-.9-.2-.3-.6-.3-.6-.8,0-.4-.2-.6-.4-.8-.1-.1,0-.5-.6,0,0,0,0,0,0,0,.2-.9-.9-.5-1.1-.9-.3-.5-.8-.7-1.2-1-.1,0-.1-.3-.5,0-.1.1-.3,0-.2,0,0-.7-.5-.6-.7-.9-.3-.4-.8-.3-1-1,0-.3-.2-.5-.7-.1-.2.2-.3-.2-.4-.2-.1,0-.4.2-.5.1,0,0,0-.3-.1-.5,0,0,0,0,0,0-.4.2-.7,0-.9-.3-.2-.2-.5-.5-.8-.6-.3,0-.6-.1-.9-.3-.3-.1-.6-.3-.9-.4-.3-.2-.6-.5-.5-1.6,0-.5.2-1.1.5-1.3.2-.2.4-.4.5-.4.2,0,.5,0,.7,0,.5,0,1.1-.4,1.5,0,.1.1.4,0,.3.5,0,0,0,.1,0,.1.9-.5,1.3.3,1.9.5.5.2,1.3,0,1.7.4.6-.4.9,0,1,.2.6,1.1,1.8,1.4,2.6,2.1.8.8,1.8,1.4,2.6,2.2.1.1.5,0,.5.3,0,.3.3.4.5.5.2.2.4.2.5.5.1,1.1,1.1,1.4,1.6,2.2.5.7,1,1.4,1.7,2,.4.4,1,.6,1.2,1.1,0,.2.5.2.1.8-.1.1.4,0,.5.2.2.3.4.6.6.9.3.4.5.9.8,1.3.2.3.6.4.8.6.2.3.4.6.5.9.1.4.1.9.3,1.3.1.4.6.7.5,1.2-.1.9.4,1.5.6,2.2.2.7.4,1.4.8,2.1.2.4-.2.9,0,1.3,0,.2-1.3.8-1.8.9,0,0-.2,0-.2,0-.6-.2-1.4-.3-1.4-.8-.1-.6-.4-1.2-.6-1.8Z"/>
  <path d="M387.8,410.8c-.5-.2-1-.3-1.5-.4-.2,0-.3-.4-.7,0-.2.2-.1-.4-.3-.5-.5,0-.9-.4-1.4-.5-.5-.1-1,0-1.4-.2-.4-.1-.8-.6-1.3-.5-.5,0-.6-.5-.9-.6-.4,0-.8-.2-1-.6-.2-.3-.3-.6-.6-.7-.2,0-.5.2-.6,0-.1-.1-.2-.4-.6,0,0,0,0-.1,0-.2,0-.5-.2-.6-.4-.4-.3.1-.4,0-.5,0-.4-.2-.7-.4-1-.7-.2-.2-.3-.6-.5-.8-.2-.2-.7-.2-.7-.6,0-.4-.3-.6-.5-.7-.1,0,0-.4-.6,0,0,0,0,0,0,0,.2-.9-.9-.4-1.1-.8-.2-.5-.7-.7-1.1-1,0,0,0-.3-.5,0-.1,0-.3,0-.2-.1.2-.7-.4-.7-.5-1-.2-.4-.7-.5-.6-1.1,0-.3,0-.5-.6-.3-.3.1-.2-.2-.3-.3-.1,0-.4,0-.5,0,0,0,0-.3,0-.5,0,0,0,0,0,0-.9,0-.6-1.1-1.1-1.5-.5-.4-.8-.9-1.1-1.5-.2-.3-.2-.7.6-1.5.4-.4.8-.7,1.2-.7.3,0,.5,0,.6,0,.2,0,.4.2.6.2.4.2,1,.2,1,.6,0,.1.3,0,0,.5,0,0,0,.1,0,.1.9-.1.8.6,1.2,1,.3.3,1.1.2,1.1.7.6-.2.7,0,.7.3,0,1.1,1,1.4,1.5,2,.5.7,1.3,1.1,1.9,1.7.1,0,.4-.1.4.2,0,.3.3.3.4.4.1.1.4.1.4.3.1.9.9,1,1.4,1.4.5.4,1,.9,1.7,1.1.4.1.9,0,1.2.3.1.1.4,0,.3.5,0,.2.3-.2.4-.1.3,0,.5.2.7.4.3.2.7.4,1,.5.2,0,.5,0,.8,0,.2,0,.5.1.7.3.3.2.5.5.7.7.3.2.7,0,.9.4.4.7,1,.6,1.5.8.5.2,1.1.4,1.7.4.3,0,.5.6.8.6.1,0,0,1.5-.1,2,0,0,0,.2-.1.2-.4.4-.9,1-1.3.9-.5-.2-1.1-.3-1.7-.5Z"/>
  <path d="M297,309.9c-2.4-1.7-4.9-3.3-7.4-4.9-.9-.6-1.8-1.4-3-1.5-.6,0-1.2-1.2-2.1-1.7-2.4-1.4-4.8-2.8-7.2-4.2-2.4-1.2-4.8-2.4-7.2-3.6-2.4-1.2-4.7-2.7-7.1-3.6-2.1-.7-3.7-2.1-5.7-2.9-2.1-.8-4.2-1.8-6.2-2.8-1.4-.8-2.8-1.7-4.3-2.2-1-.3-1.9-.4-2.9-.8-.9-.4-1.9-1.1-2.9-.8,0,0-.5-.2-.7-.4-.9-.8-2.1-1.2-3.1-1.3-.9,0-1.6-.4-2.4-.7-2.1-.7-4.3-1.5-6.4-2.3-1.6-.6-3.1-1.3-4.7-1.9-.8-.3-1.7-.5-2.6-.8-.4-.1-.9-.2-1.3-.4-.2,0-.1,0-.2-.2-.2-.2-.5-.4-.8-.5,0,.2,0,.5,0,.8,0,.2,0,.3,0,.6,0,.2.1.4.5.5,0,0,0,.4,0,.5-.6,2.7.8,5.2.8,7.9,0,2.8.4,5.6.6,8.4,0,.7,0,1.6.4,2.2.2.2.2,1,.2,1.4-.5,2.1,0,4.3,0,6.4,0,2.4.4,4.8,0,7.3-.2,1-.2,2.4.4,3.7.3.6,0,1.8.1,2.6,0,.7.4,1.4.4,2.1,0,.6-.2,1.2-.3,1.9,0,.2,0,.4,0,.6.7,3.5,0,7.1,0,10.6.2,3.6.1,7.2,0,10.8,0,2-.3,4-1.5,5.3-.5.6-1.1.6-1.4-.3-.2-.6-.4-1.3-.5-2,0-1.1-.2-2.3-.3-3.3-.2-2.3-.7-4.5-.4-6.9,0-.7-.2-1.6.3-2.2,0,0,.1-.4,0-.5-.8-3.1-.3-6.4-.4-9.6-.1-2.7-.8-5.3-.6-8.1-.7-1.5-.6-3.3-.5-4.8.4-5.4-.3-10.8-.6-16.1-.3-5.4-.9-10.9-1.4-16.3,0-.2,0-.5-.1-.7,0-.2-.1-.4-.2-.8-.1-.8-.3-1.6-.2-2.5,0-1.4-.2-3.3-.5-5.1.3,0,.6.2.8.2,1.9.6,3.9,1.1,5.7,1.8h.3c.1.2.2.2.3.2l.4.2.7.3,1.5.6c1,.4,2,.7,3.1,1.1l3.1,1c1,.3,2.1.7,3.1,1.1,4,1.5,8.1,3.1,12.1,4.6,1.2.5,2.5.8,3.7,1.3,1.2.4,2.5.9,3.6,1.5,1,.5,2.2.7,3,1.7.2.3,1.4.3,2,.6,1.7.7,3.3,1.5,4.9,2.3,2.2,1.1,4.5,2.2,6.7,3.4,1.4.7,2.8,1.2,4.2,1.8,1.4.7,2.8,1.5,4.2,2.3,1.8,1,3.4,2.2,5.1,3.3,1.8,1.1,3.8,2,5.4,3.3,2.9,2.4,6.2,4.2,9.3,6.3l4.6,3.2c1.5,1.1,3,2.1,4.6,3.2,1.8,1.2,3,2.7,4.6,4,.8.6.9,2.5.3,2.7-.1,0-.3,0-.5,0-1.9-.8-3.8-1.3-5.6-2.7-2.7-2-5.4-4-8.2-5.8Z" fill="#aaca60"/>
  <path d="M397,288.8c-1.6.4-3.2.6-4.8,1.1-.6.2-1.2,0-1.7.7-.2.3-1-.1-1.5,0-1.5.4-3,.7-4.4,1.2-1.4.4-2.8,1-4.2,1.5-1.4.5-2.9.6-4.2,1.3-1.1.6-2.3.5-3.4.9-1.1.5-2.4.9-3.6,1.1-.9.1-1.8.2-2.6.5-.5.2-.9.7-1.5.9-.5.1-1.2,0-1.5.8,0,0-.3,0-.4,0-.7-.2-1.4,0-1.8.5-.4.4-.8.5-1.2.7-1.2.4-2.3.9-3.5,1.2-.9.3-1.8.4-2.7.6-.9.3-1.8.9-2.8.9-1,0-1.7.4-2.6.7-.5.2-1.1.1-1.3.9,0,0-.2.1-.3.1-1.6-.3-2.5,1.3-4,1.7-1.5.4-2.8,1.1-4.2,1.7-.4.2-.8.2-1,.7,0,.2-.4.4-.7.4-1.3-.1-2.2.7-3.3,1.1-1.2.4-2.3,1.2-3.7,1.4-.6,0-1.3.3-1.7,1.1-.2.4-.9.4-1.3.7-.3.2-.6.6-.9.8-.3.2-.7,0-1.1.1-.1,0-.2,0-.3.1-1.4,1.4-3.5,1.5-5.2,2.5-1.7,1-3.4,1.9-5.2,2.7-1,.5-2,.8-3.2.1-.5-.3-.8-.8-.6-1.3.2-.4.4-.8.7-1,.5-.4,1-.8,1.5-1.2,1-.8,1.9-1.8,3.2-2.2.4-.1.7-.6,1.2-.3,0,0,.2,0,.3,0,1.2-1.5,3-1.9,4.6-2.7,1.3-.7,2.4-1.9,3.9-2.3.5-.9,1.4-1.2,2.3-1.4,1.5-.3,2.9-.9,4.2-1.5,1.4-.6,2.7-1.3,4.1-1.8,2.8-1.1,5.6-2.3,8.4-3.4.5-.2.8-.7,1.4-.6.6,0,1.2-.4,1.8-.7.6-.2,1.1-.6,1.7-.6,2.5-.2,4.5-1.4,6.8-2.1,2.3-.7,4.5-1.4,6.7-2.3,1.3-.5,2.6-1.3,4-1.6.6-.1,1.1-.6,1.9-.3.2.1.6-.5,1-.6.9-.3,1.9-.6,2.8-.9,1.3-.4,2.7-.7,4-1.2.8-.3,1.5-.7,2.3-1,.8-.3,1.7-.5,2.6-.7,1.1-.2,2.2-.3,3.3-.5,1.1-.2,2.2-.8,3.4-.8,2.1,0,4-.7,6-1.1,2-.4,4-.8,6-1.3,1.1-.3,2.2,0,3.3-.2.5-.1,1.5,1.2,1.4,1.7,0,.1,0,.2-.2.3-1,.7-1.8,1.6-3.1,1.8-1.8.3-3.6.7-5.4,1.1Z" fill="#aaca60"/>
  <path d="M378.7,346.6c.4-1.1.9-2.3,1.3-3.4.1-.4.6-.8.2-1.4-.2-.3.6-.5.7-.9.4-1.1.9-2.1,1.2-3.2.4-1,.6-2.2.9-3.2.3-1,1-2,1.1-3.1,0-1,.8-1.5,1.1-2.4.2-.9.5-1.8,1.1-2.6.4-.6.9-1.1,1-1.7,0-.4,0-.9.1-1.3.2-.4.6-.7.1-1.3,0,0,.1-.2.3-.2.5-.3.7-.8.6-1.2-.1-.4,0-.7.1-1,.3-.9.6-1.8,1-2.6.3-.6.8-1.2,1.1-1.8.3-.7.3-1.5.9-2,.5-.5.8-1.1,1-1.7.1-.3.6-.7,0-1.2,0,0,0-.2,0-.2,1.2-.7.5-2.1,1.1-3,.6-1,.9-2.1,1.3-3.2.1-.3.4-.5,0-.9-.1-.2,0-.5.2-.6.9-.5.9-1.5,1.3-2.3.5-.9.6-1.9,1.4-2.6.3-.3.7-.8.3-1.5-.2-.3.3-.7.3-1,0-.3,0-.7,0-.9,0-.2.4-.4.6-.6,0,0,0-.1,0-.2,0-1.6,1.3-2.6,1.6-4,.4-1.4,1-2.8,1.6-4.1.3-.7.8-1.4,2.1-1.5.6,0,1.1.2,1.3.6.1.3.2.7.2,1,0,.5-.1.9-.2,1.4-.2.9,0,2-.6,2.8-.2.2,0,.7-.6.7,0,0-.2.1-.1.2.3,1.5-.7,2.5-1.1,3.8-.4,1.1-.2,2.3-.8,3.2.4.8,0,1.4-.4,1.9-1.4,1.8-1.8,4-2.7,6-.9,2-1.6,4.2-2.5,6.2-.1.4,0,.8-.4,1.1-.4.3-.4.9-.6,1.3-.2.4-.2.9-.5,1.2-1.3,1.4-1.5,3.2-2.3,4.8-.7,1.6-1.4,3.2-1.9,4.9-.3,1-.4,2.1-.9,3.1-.2.4,0,1-.8,1.2-.2,0,0,.6,0,.9-.2.7-.5,1.4-.8,2-.4.9-.8,1.9-1.1,2.8-.2.6-.2,1.2-.4,1.8-.2.6-.4,1.2-.7,1.8-.4.7-.9,1.4-1.2,2.2-.4.8-.4,1.7-1,2.3-1,1.2-1.4,2.7-2,4.1-.6,1.4-1.2,2.8-1.6,4.2-.2.8-1,1.4-1.3,2.1-.1.4-1.7.3-2.1,0,0,0-.1-.2-.2-.2-.1-.9-.5-1.9-.1-2.7.6-1.3,1-2.6,1.5-3.8Z" fill="#aaca60"/>
  <path d="M289.5,460c-1.4-1.1-2.8-2.1-4.2-3.1-.5-.4-.9-1-1.8-.9-.4,0-.6-.8-1.1-1.2-1.4-.9-2.7-1.9-4.1-2.7-1.4-.8-2.8-1.5-4.2-2.3-1.4-.8-2.6-1.9-4.1-2.4-1.3-.5-2-1.5-3.2-2-1.2-.6-2.5-1.2-3.5-2.1-.7-.6-1.5-1.3-2.3-1.7-.6-.2-1.2-.2-1.7-.6-.5-.3-1-.9-1.7-.6,0,0-.2-.2-.3-.3-.4-.7-1.1-1-1.7-1.1-.6,0-1-.3-1.4-.5-1.2-.6-2.4-1.3-3.6-2-.9-.5-1.6-1.2-2.5-1.8-.9-.6-2-.8-2.7-1.6-.7-.7-1.5-1.2-2.4-1.6-.5-.3-.9-.8-1.6-.5,0,0-.2,0-.3-.2-1-1.5-2.8-1.3-4.1-2.2-1.3-1-2.9-1.6-4.3-2.4-.4-.2-.7-.6-1.3-.4-.2,0-.6-.1-.8-.4-.8-1.2-2.1-1.5-3.1-2.2-1.2-.8-2.6-1.3-3.6-2.4-.4-.5-1.1-1-2-.9-.4,0-.9-.5-1.4-.8-.4-.2-.9-.2-1.3-.4,0,0-.2-.1-.2-.2,0,0,0-.1-.3-.3-.3-.2-.5-.5-.7-.7-.1-.1-.4-.3-.5-.3-.5-.2-.9-.4-1.4-.7l-.3-.2c-.2,0-.1-.2,0-.3v-.7c.3-.9.7-1.9,1-2.9.4-1,.9-1.9,1.1-3,.5-2.1,1.2-4.1,1.9-6.1.4-1.1.9-2.2,2.2-2.6.6-.2,1.1-.1,1.3.5.1.4.2.9.2,1.3,0,.7-.2,1.4-.3,2-.2,1.4-.1,2.8-.8,4-.2.4,0,1-.7,1.2,0,0-.2.2-.2.3,0,1-.1,1.9-.4,2.8l-.2.7c0,.1,0,.2-.1.2,0,.1-.1.3-.2.5.1,0,.3.1.4.1,0,0,.1,0,.2,0,0,0,0,0,.1,0h.3c.7.4,1.5.7,2.1,1.3,1.1,0,1.9.5,2.6,1.1,2.4,2.2,5.4,3.4,8.1,5,2.8,1.6,5.7,3.1,8.5,4.7.5.3,1.1.2,1.5.7.4.5,1.2.7,1.8,1.1.6.3,1.2.5,1.7.9,1.9,1.8,4.4,2.7,6.6,4,2.2,1.3,4.4,2.6,6.7,3.7,1.4.7,2.9,1.1,4.2,2,.6.4,1.3.4,1.6,1.3,0,.2.8.2,1.2.4.9.5,1.9,1.1,2.8,1.6,1.3.7,2.5,1.6,3.8,2.3.8.4,1.7.7,2.5,1.1.8.5,1.6,1,2.4,1.5,1,.7,1.9,1.5,2.8,2.2,1,.8,2.2,1.3,3.1,2.2,1.6,1.6,3.5,2.8,5.2,4.1,1.7,1.4,3.4,2.8,5.2,4.1,1,.8,1.5,1.9,2.4,2.7.4.4,0,2-.5,2.2,0,0-.2,0-.3,0-1.2-.4-2.5-.6-3.4-1.5-.7-.7-1.5-1.3-2.2-1.9l-2.3-1.8Z" fill="#aaca60"/>
  <path d="M355.7,417.7c-1,.8-2,1.6-2.9,2.6-.3.3-.9.5-.9,1.2,0,.4-.8.2-1.1.6-.8.9-1.7,1.7-2.5,2.6-.8.9-1.4,1.9-2.2,2.8-.8.9-1.8,1.6-2.4,2.6-.5.9-1.5,1.2-2.1,2-.6.8-1.3,1.6-2.2,2.1-.6.4-1.3.7-1.8,1.3-.3.4-.4.9-.7,1.2-.4.3-.9.4-.8,1.2,0,0-.2.1-.4.1-.6,0-1.1.4-1.2.9-.1.5-.4.7-.7.9-.7.7-1.5,1.4-2.3,2-.6.5-1.4.8-2,1.2-.7.5-1.1,1.2-1.9,1.4-.8.2-1.3.7-1.9,1.1-.3.3-.9.3-.8,1,0,0-.1.2-.2.2-1.4,0-1.7,1.6-2.8,2.2-1.1.6-2,1.4-3,2.2-.3.2-.7.3-.6.8,0,.2-.3.4-.5.4-1.1,0-1.7.9-2.5,1.3-.9.5-1.7,1.3-2.8,1.5-.5,0-1.1.3-1.2,1.1,0,.4-.6.4-.9.7-.2.2-.3.6-.6.8-.2.2-.6.1-.8.2,0,0-.2,0-.2.1-.8,1.4-2.6,1.6-3.7,2.7-1.1,1.1-2.3,2-3.5,3-.7.5-1.4,1-2.6.6-.6-.2-1-.6-.9-1.1,0-.4,0-.7.3-1,.3-.4.6-.9.9-1.3.6-.8,1.1-1.9,2.1-2.4.3-.1.4-.6,1-.4,0,0,.2,0,.2,0,.6-1.5,2.1-2,3.2-2.9,1-.8,1.6-2,2.7-2.4.2-.9.9-1.3,1.6-1.5,2.4-.8,4.1-2.5,6-3.8,2-1.3,3.9-2.8,5.8-4.2.3-.2.4-.7.9-.8.5,0,.8-.6,1.2-.9.4-.3.7-.7,1.1-.9,1.9-.7,3.1-2.2,4.5-3.4,1.5-1.2,2.9-2.4,4.2-3.8.8-.8,1.4-1.9,2.3-2.6.4-.3.5-.9,1.3-.8.2,0,.2-.6.4-.9.5-.6,1.1-1.1,1.6-1.7.8-.8,1.6-1.5,2.3-2.4.4-.5.7-1.2,1.1-1.7.4-.5.9-1.1,1.5-1.5.7-.6,1.4-1.1,2.1-1.7.7-.6,1.2-1.5,2-1.9,1.6-.8,2.6-2.1,3.9-3.2,1.3-1,2.6-2.1,3.9-3.1.7-.6,1.7-.7,2.5-1.2.4-.2,1.6.7,1.7,1.2,0,0,0,.2,0,.3-.5.9-.7,1.9-1.6,2.4-1.2.8-2.3,1.7-3.4,2.6Z" fill="#aaca60"/>
  <path d="M202.7,418.1c-2.7,2.2-5.5,4.2-8.6,6-.6.3-1.2.6-1.8.9-.6.3-1.2.7-1.7,1.2-.3.3-.8.4-1.3.5-.6,0-1.2.1-1.8.4-3.1,1.2-6.5,1.7-9.8,1.8-3.2.2-6.5,0-9.7-.7-3.2-.8-6.2-2.4-9-4-2.5-1.4-4-3.5-5.6-5.6-1.8-2.2-3.1-4.9-3.7-7.6-.4-2-.5-3.9-.8-5.8-.2-1.2-.6-2.3-.6-3.6,0-1.2.3-2.5-.3-3.6,0,0,0-.6.2-.9.5-1.3.6-2.8.4-3.9-.2-1.1,0-2,0-2.9.3-2.6.7-5.3,1.3-7.8.4-1.9,1.1-3.8,1.7-5.7.6-2,.9-4.2,1.8-5.9.9-1.7,1.4-3.4,2.1-5.2.4-1,1.1-2,.8-3.1,0,0,.1-.5.3-.6,1.9-2.5,2.2-5.6,3.8-8.2,1.6-2.7,3.1-5.6,4.8-8.3.4-.7,1.1-1.4,1.1-2.3,0-.3.5-1.1.8-1.4.9-.8,1.6-1.8,2.4-2.8.7-1,1.3-2,2.1-3,.9-1.1,1.7-2.2,2.5-3.3.9-1.1,1.8-2.1,2.8-3,.9-.8,2-1.9,2.5-3.4.2-.7,1.3-1.5,1.9-2.3.5-.7.8-1.4,1.4-2.1.5-.5,1.1-.9,1.7-1.3.2-.1.3-.3.5-.5,2.2-3.4,5.6-5.6,8.3-8.6,2.7-3,5.7-5.8,8.6-8.5,1.6-1.5,3.4-3,5.3-3.2.8-.1,1.2.3.8,1.2-.3.7-.7,1.4-1.3,2-.8,1-1.7,1.9-2.5,2.9-1.7,1.9-3.1,4.1-5.2,5.7-.6.5-1.1,1.4-2,1.5-.1,0-.4.2-.5.4-1.9,3.1-4.8,5.3-7.3,8-1,1.1-1.9,2.4-2.8,3.6-.9,1.2-1.8,2.4-2.9,3.5-.6,1.7-2,3.1-3.2,4.3-4.3,4.2-7.6,9.3-10.8,14.3-3.3,5.1-6.1,10.5-8.5,16-.4,1-.4,1.9-1.1,2.9-.7,1-1,2.4-1.4,3.7-.4,1.1-.7,2.4-1.1,3.4-2,4.3-2.7,9.1-3.6,13.8-.4,2.3-.8,4.7-1,7-.2,2.4-.3,4.7-.2,7,.1,2.8.8,5.5,1.4,8.2.2,1.2,1,2.1.9,3.4,0,.2.2.5.5.8.3.3.6.6.8,1l.8,1.1.4.6.4.5.9,1,1,.9c1.8,1.7,4,3.1,6.4,4.1.4.1.7.3,1.1.4l1.1.3c.8.2,1.5.3,2.3.4.8.2,1.6.2,2.4.4.8,0,1.6.2,2.5.3,2.1.2,4.2.2,6.3,0,2.2-.3,4.2-1.2,6.3-1.8,1.9-.5,3.8-1.3,5.5-2.3,1.7-1,3.4-2.2,5-3.4,3.2-2.4,6.2-5.2,8.8-8.3,1.5-1.8,3.2-3.1,4.6-4.9.6-.8,2.7-1.1,2.8-.4,0,.1,0,.3,0,.5-1,2.1-1.8,4.2-3.5,6.1-2.6,2.9-5.3,5.7-8.3,8.3Z"/>
  <path d="M414.9,315.2l1.6,1.9,1.5,1.9c1,1.3,2.1,2.6,3.1,3.9.7,1,1.3,2.1,2.5,2.8.6.4.8,1.7,1.4,2.6.9,1.2,1.8,2.5,2.6,3.8.9,1.3,1.7,2.6,2.5,3.8,1.7,2.5,3.4,4.9,4.9,7.4.8,1.3,1.4,2.6,2.2,3.9.7,1.3,1.4,2.6,2.2,3.8,1.4,2.1,1.9,4.3,3.1,6.3,1.2,2.2,2.4,4.5,3.1,6.9.6,1.7,1,3.4,1.8,5,.5,1,1.2,1.8,1.6,3,.4,1.1.6,2.3,1.5,3.1,0,0,.1.6.2.8,0,1.3.5,2.7,1.1,3.6.5.9.8,1.7,1,2.6.7,2.5,1.3,5,1.7,7.6.3,1.9.3,3.9.4,5.8,0,2,.4,4.2,0,6.1-.4,1.9-.6,3.7-1,5.5-.1,1.1-.8,2.1-.4,3.2,0,0,0,.5-.2.6-.9,1.3-1.3,2.8-1.8,4.2-.4,1.4-1,2.9-2,4.2-1.9,2.6-4.1,5.2-6.8,7.2-.7.6-1.6.9-2,1.7-.1.3-1,.8-1.4.9-1.2.3-2.4.7-3.5,1.2-.6.2-1.2.4-1.8.6-.6.2-1.2.4-1.8.5-2.7.6-5.6,1.2-8.4.6-.6,0-1.3-.2-2-.3-.7,0-1.5,0-2.3.2-.7.2-2-.3-3-.6-.8-.2-1.7-.1-2.5-.4-.7-.2-1.3-.7-1.9-1.1-.2-.1-.4-.2-.6-.3-2-.5-3.8-1.4-5.5-2.6-1.7-1.1-3.2-2.4-4.9-3.5-3.3-2.2-6.3-5-9.1-7.8-1.5-1.6-3-3.3-3.1-5.2,0-.8.3-1.2,1.2-.8.6.3,1.3.7,1.9,1.2.9.8,1.9,1.6,2.8,2.3,1.9,1.6,4,2.8,5.8,4.6.5.6,1.4.9,1.6,1.7,0,.1.3.3.4.4,3.1,1.4,5.7,3.7,8.8,5,2.6,1.2,5.4,1.5,8,2.2.8-.2,1.6-.1,2.4-.1.8,0,1.6.2,2.4.3,2.7.4,5.5,0,8.1-.7,2.6-.8,5-2,7.3-3.5,2.3-1.5,4.2-3.5,5.8-5.7l.6-.8.5-.9c.3-.6.7-1.2,1-1.8l.9-1.9.7-2c.3-.9.1-1.8.7-2.8.3-.5.4-1.1.5-1.7,0-.6.2-1.3.2-1.9,0-.6,0-1.1.1-1.7,0-.6,0-1.1.1-1.7.4-2.2.3-4.5.1-6.7-.3-2.3-.7-4.5-1.2-6.7-.9-4.4-2.3-8.8-4.1-13.1-.5-1.3-1.2-2.5-1.8-3.8-.6-1.3-1.2-2.5-1.7-3.9-.4-1.1-1.3-2.1-1.2-3.5,0-.4-.9-1.2-1.2-1.9-.4-.9-.9-1.7-1.3-2.6l-1.3-2.6c-1.2-2.4-2.4-4.8-3.8-7.1-.8-1.4-1.8-2.7-2.7-4.1-.9-1.4-1.8-2.9-2.7-4.4-1.1-1.9-2-3.8-3.2-5.6-.6-.9-1.3-1.9-1.9-2.8-.7-.9-1.3-1.8-1.8-2.8-1.9-3.6-4.6-6.6-7-9.7-2.5-3.1-5.1-6.1-7.9-8.9-.8-.8-1.5-1.6-2.1-2.5-.7-.8-1.3-1.7-2.1-2.5-.7-.7-.7-2.8,0-2.8.1,0,.3,0,.5.1,1.9,1.2,3.9,2.1,5.5,4,1.3,1.4,2.5,2.7,3.8,4.1l1.9,2.1,1.8,2.1Z"/>
  <path d="M376.8,286c-.7-.5-1.3-1.1-2.1-1.6-.3-.2-.4-.6-1-.4-.3.1-.2-.6-.4-.7-.7-.4-1.3-1-2-1.4-.7-.4-1.5-.7-2.2-1.1-.7-.4-1.2-1.1-2-1.2-.7-.1-1-.8-1.6-1.1-.6-.2-1.3-.5-1.7-1.1-.3-.4-.6-.8-1.1-.9-.3,0-.7,0-1-.1-.2-.2-.4-.6-.9-.1,0,0-.1-.1-.1-.2,0-.5-.5-.7-.8-.5-.4.1-.5,0-.8-.1-.6-.3-1.2-.6-1.8-.9-.4-.3-.8-.7-1.2-1-.5-.3-1.1-.3-1.4-.7-.3-.5-.8-.6-1.2-.8-.2-.1-.4-.5-.9,0,0,0-.1,0-.2,0-.4-1.1-1.5-.3-2.2-.8-.7-.5-1.5-.7-2.3-.9-.2,0-.4-.3-.7,0-.1.1-.3,0-.4,0-.4-.8-1.1-.7-1.6-.9-.6-.3-1.4-.3-1.9-.9-.2-.3-.6-.5-1.1,0-.2.2-.5-.1-.8-.1-.2,0-.5.2-.7.1-.2,0-.3-.3-.4-.5,0,0-.1,0-.2,0-1.2.4-1.9-.7-3-.8-1.1,0-2.1-.4-3.1-.7-.6-.2-1.1-.5-1.3-1.7,0-.5,0-1.1.3-1.4.2-.2.5-.4.7-.4.4,0,.7,0,1.1-.1.7,0,1.5-.4,2.2,0,.2.1.5,0,.6.4,0,0,0,.1.1.1,1.1-.5,2,.2,2.9.4.8.2,1.8-.2,2.5.3.6-.5,1.1-.2,1.5.1.7.6,1.5.9,2.3,1.1.8.3,1.6.4,2.4.8,1.5.6,3.1,1.2,4.7,1.9.3.1.6-.1.8.3.2.4.6.3,1,.5.3.1.7.1.9.4.9,1.2,2.3,1.3,3.4,2,1.1.7,2.3,1.3,3.5,1.8.7.3,1.6.4,2.2.9.3.2.8.1.7.8,0,.2.5,0,.7,0,.5.2,1,.6,1.4.8.7.4,1.3.9,1.9,1.2.4.2.9.3,1.4.5.4.2.8.5,1.2.8.5.4.9.9,1.3,1.3.5.4,1.2.6,1.5,1.2.6,1.1,1.7,1.5,2.5,2.3.8.8,1.7,1.5,2.6,2.1.5.4.6,1.1,1.1,1.5.2.2-.5,1.5-.9,1.8,0,0-.2.1-.2.1-.8,0-1.6.2-2.1-.3-.7-.7-1.5-1.3-2.3-1.9Z"/>
  <path d="M296.9,449.9c.2-2.4.5-4.7.7-7.1,0-.9.4-1.8,0-2.7-.2-.5.5-1.3.6-2.1.1-2.2.5-4.4.6-6.7.2-2.2.1-4.3.3-6.5.2-2.1.7-4.3.5-6.4-.1-1.8.6-3.4.6-5.1,0-1.8.2-3.7.6-5.4.3-1.3.6-2.5.7-3.8,0-.8-.2-1.6-.1-2.5.1-.8.5-1.7,0-2.5,0,0,.1-.4.2-.6.5-.8.6-1.9.4-2.7-.2-.7-.1-1.4,0-2,.1-1.8.3-3.6.5-5.5.2-1.4.6-2.7.7-4,.2-1.4,0-3,.5-4.2.4-1.3.5-2.5.7-3.8,0-.7.4-1.6-.1-2.2,0,0,0-.3,0-.5,1-2,.2-4.2.6-6.3.4-2.2.5-4.4.7-6.6,0-.6.3-1.2-.1-1.8-.1-.2,0-.8,0-1.1.8-1.6.6-3.3.9-5,.3-1.9.2-3.9.9-5.7.3-.8.5-1.9,0-2.9-.2-.5.1-1.4.1-2.1,0-.6-.2-1.2-.2-1.7,0-.5.3-1,.5-1.4,0-.1,0-.3,0-.5-.4-2.9.8-5.6.9-8.4.1-2.8.5-5.7.8-8.5.2-1.6.6-3.2,1.8-4.1.6-.4,1.1-.4,1.4.3.2.5.4,1.1.4,1.7,0,.9,0,1.8,0,2.7,0,1.8.4,3.7-.1,5.5-.1.6,0,1.3-.5,1.7,0,0-.1.3-.1.4.5,2.6-.2,5.1-.4,7.7-.2,2.2.3,4.3-.2,6.5.5,1.3.3,2.7,0,3.9-1.1,4.2-1.1,8.6-1.6,12.8-.5,4.3-.9,8.7-1.3,13.1,0,.7.2,1.4-.1,2.3-.3.8-.2,1.9-.3,2.8,0,.9,0,1.8-.3,2.6-1,3.3-.9,6.8-1.4,10.2-.4,3.4-.8,6.8-1,10.2-.1,2.1,0,4.2-.3,6.2-.1.9.1,1.9-.6,2.7-.2.2.2,1.1.1,1.7,0,1.4-.3,2.9-.4,4.3-.2,2-.4,4-.6,5.9,0,1.2,0,2.4,0,3.6,0,1.3-.2,2.5-.4,3.8-.2,1.6-.6,3.2-.8,4.8-.2,1.7-.1,3.4-.6,5-.8,2.9-.8,5.9-1.2,8.8-.3,2.9-.7,5.9-.9,8.8,0,1.7-.7,3.1-.9,4.8,0,.8-1.6,1.6-2.1,1.3,0,0-.2-.2-.2-.3-.3-1.6-.9-3.2-.7-5,.3-2.7.6-5.4.8-8.1Z" fill="#aaca60"/>
  <path d="M331.8,137.1c.1-.2.3-.4.4-.7,0,0,.3,0-.1-.4-.2-.2.4,0,.4,0,0-.2.2-.4.3-.7,0-.2,0-.5,0-.8,0-.2.4-.3.2-.7-.2-.3.4-.3.3-.5,0-.2,0-.5.3-.6.2,0,.5-.1.4-.3,0-.1-.3-.3-.2-.4,0,0,.3,0-.2-.4,0,0,0,0,.2,0,.4,0,.4,0,.2-.2-.2-.2-.2-.2-.1-.3,0-.2,0-.4.2-.6.1-.1.4-.2.5-.3.1-.1,0-.4.3-.4.3,0,.4-.2.4-.3,0,0,.3,0-.2-.4,0,0,0,0,0,0,.9,0,0-.6.3-.7.3-.2.3-.5.4-.7,0,0,.2,0-.2-.3-.1,0-.1-.2,0-.2.7,0,.4-.3.6-.4.2-.2,0-.5.6-.5.2,0,.4,0,0-.5-.2-.2,0-.2,0-.3,0,0-.2-.3-.2-.4,0,0,.3,0,.4,0,0,0,0,0,0,0-.4-.7.6-.5.6-.9,0-.4.3-.7.6-.9.2-.1.4-.2,1.4.4.4.3.9.6,1.1.9.2.2.3.4.3.5,0,.1,0,.3,0,.4,0,.3.4.7,0,.7-.1,0,.1.2-.3,0,0,0-.1,0,0,0,.5.7,0,.6-.2.9,0,.2.4.7,0,.8.5.4.3.5.1.5-.8,0-.6.7-.9,1.1-.3.4-.4.9-.6,1.3,0,0,.3.3,0,.3-.3,0-.1.2-.2.3,0,0,0,.2-.1.3-.8.1-.5.6-.7,1-.2.3-.4.7-.4,1.1,0,.3.2.6,0,.8,0,0,.2.3-.4.2-.2,0,.2.2.2.3,0,.2-.1.3-.2.5,0,.2-.2.4-.3.7,0,.1.1.4.1.5,0,.2,0,.3-.2.4-.2.1-.4.2-.6.4-.1.2,0,.5-.3.5-.6,0-.6.5-.8.8-.2.3-.4.6-.6,1,0,.2-.6.1-.7.3,0,0-1.3-.7-1.7-1,0,0-.2-.1-.2-.2-.3-.4-.8-.9-.7-1.1.2-.2.3-.5.5-.7Z" fill="#aaca60"/>
  <path d="M312.7,134.2c0-.3,0-.5-.1-.8,0,0,.2-.2-.3-.2-.3,0,.3-.2.3-.3-.1-.2,0-.5-.1-.7,0-.2-.3-.4-.4-.6,0-.2.2-.5-.2-.7-.3-.1.2-.4,0-.6-.2-.2-.3-.4,0-.6.1-.2.3-.3.2-.5,0,0-.4-.1-.4-.2,0,0,.3-.2-.4-.2,0,0,0,0,.1,0,.4-.2.3-.3,0-.3-.3,0-.3-.1-.3-.2,0-.2-.1-.4,0-.6,0-.2.2-.3.3-.5,0-.2-.3-.3,0-.5.3-.2.2-.3.2-.5,0,0,.3-.2-.4-.2,0,0,0,0,0,0,.8-.3-.3-.4-.2-.7.2-.3,0-.5,0-.7,0,0,.2-.2-.3-.1-.2,0-.2,0,0-.1.6-.3.2-.4.3-.6,0-.2-.2-.4.2-.7.2-.1.3-.3-.3-.3-.3,0,0-.1,0-.2,0,0-.3,0-.4-.1,0,0,.2-.1.3-.2,0,0,0,0,0,0-.7-.2.1-.6,0-.9-.2-.3-.2-.6-.2-.9,0-.2.2-.4,1.3-.6.5-.1,1.1-.2,1.4-.2.2,0,.5,0,.5.1.1,0,.3.2.4.2.2.2.8.3.5.5,0,0,.2.1-.3.2,0,0-.1,0,0,0,.8.2.4.5.5.8,0,.2.7.4.5.6.6,0,.6.2.4.4-.6.5,0,.9,0,1.4,0,.5.1.9.2,1.4,0,0,.4,0,.1.2-.2.1,0,.2,0,.3,0,0,.2.2,0,.3-.6.5-.1.8-.2,1.1,0,.4,0,.7.2,1.1.1.2.5.4.4.6,0,.1.3.1-.3.3-.2,0,.3,0,.3.1,0,.1,0,.3,0,.5,0,.2,0,.4.1.6,0,.1.3.2.4.3,0,.1.1.3,0,.4,0,.2-.2.4-.3.6,0,.2.3.3,0,.5-.5.4-.2.7-.2,1,0,.3,0,.6.2.9,0,.2-.4.4-.3.6,0,0-1.4.4-1.9.5,0,0-.2,0-.2,0-.5,0-1.2-.1-1.2-.3,0-.3,0-.6-.1-.9Z" fill="#aaca60"/>
  <path d="M301,143.4c-.2-.3-.4-.6-.7-.9-.1,0,0-.4-.5-.2-.3.1.2-.4,0-.5-.3-.2-.4-.6-.7-.8-.3-.2-.6-.4-.9-.6-.3-.2-.3-.7-.7-.7-.4,0-.2-.6-.4-.7-.3-.1-.5-.3-.5-.7,0-.3,0-.6-.2-.7-.1,0-.5,0-.5,0,0-.1,0-.4-.5,0,0,0,0,0,0-.2.2-.4,0-.5-.2-.4-.3,0-.3,0-.4,0-.2-.2-.4-.4-.6-.7-.1-.2,0-.5-.2-.7-.1-.2-.5-.2-.4-.6,0-.4,0-.5-.2-.7,0,0,0-.4-.5,0,0,0,0,0,0,0,.4-.8-.6-.4-.7-.8,0-.4-.4-.6-.7-.9,0,0,0-.3-.4,0-.1,0-.2,0-.2-.1.3-.6-.1-.6-.2-.9,0-.3-.5-.5-.3-1,0-.2,0-.4-.5-.3-.3,0-.1-.2-.2-.3,0,0-.4,0-.4,0,0,0,.1-.3.2-.4,0,0,0,0,0,0-.8,0-.3-1-.7-1.3-.4-.3-.6-.8-.7-1.3,0-.3,0-.6.9-1.2.4-.3.9-.5,1.3-.5.3,0,.5,0,.6,0,.1,0,.3.2.5.2.3.2.9.2.8.5,0,.1.3,0-.1.4,0,0,0,0,0,0,.9,0,.6.6.9.9.2.3.9.2.9.6.6-.2.7,0,.6.3-.2.9.6,1.2.9,1.8.3.6.8,1.1,1.2,1.6,0,0,.4,0,.3.2-.1.3.1.3.2.4,0,.1.3.1.2.3-.2.8.5,1,.8,1.5.3.5.6.9,1.1,1.2.3.2.8.2.9.6,0,.1.4,0,0,.5-.1.1.3,0,.4,0,.2.1.3.3.5.5.2.2.4.5.6.8.2.1.5.1.6.2.2.1.3.3.4.5.1.3.1.6.2.9.1.3.5.3.5.7-.1.7.4.9.6,1.4.2.4.5.9.9,1.2.2.2,0,.7,0,.9,0,.1-1.1,1-1.6,1.2,0,0-.2,0-.2,0-.5,0-1.3.2-1.4,0-.2-.4-.4-.7-.7-1Z" fill="#aaca60"/>
  <path d="M282.1,155.9c-.2-.2-.4-.4-.7-.6,0,0,0-.3-.4,0-.2.2.1-.4,0-.4-.3-.1-.4-.4-.7-.5-.2-.1-.6-.1-.8-.2-.2-.1-.3-.5-.7-.4-.3,0-.2-.4-.4-.5-.3,0-.5-.1-.5-.5,0-.2,0-.5-.2-.5-.1,0-.4.2-.5,0,0,0,0-.4-.4,0,0,0,0,0,0-.2.2-.4,0-.4-.2-.3-.2.2-.3,0-.3,0-.2-.1-.4-.2-.5-.4-.1-.1,0-.4-.2-.6,0-.2-.4,0-.4-.4,0-.3,0-.4-.2-.5,0,0,0-.4-.4.1,0,0,0,0,0,0,.3-.8-.6-.1-.6-.4,0-.3-.4-.4-.6-.5,0,0,0-.2-.3,0-.1.1-.2,0-.1,0,.2-.6-.2-.4-.3-.7-.1-.2-.5-.1-.4-.7,0-.2,0-.4-.4,0-.2.2-.1-.1-.2-.1,0,0-.3.2-.4.1,0,0,0-.3,0-.4,0,0,0,0,0,0-.7.3-.4-.6-.8-.6-.4,0-.6-.3-.9-.6-.1-.2-.2-.4.4-1.4.2-.5.6-.9.8-1.1.2-.2.4-.3.5-.3.2,0,.3,0,.5,0,.3,0,.8-.3.8,0,0,.1.3,0,0,.4,0,0,0,.1,0,0,.7-.5.7.2,1,.3.3.1.8-.2.9.2.5-.4.6-.2.6,0,0,.9.7.8,1.1,1.2.4.4.9.7,1.3,1,0,0,.4-.2.3.1,0,.3.2.2.2.3,0,0,.3,0,.2.2,0,.8.5.7.8,1.1.3.3.6.6,1,.8.3,0,.7,0,.8.3,0,.1.4,0,0,.5,0,.1.3-.1.4-.1.2,0,.3.2.4.3.2.2.4.4.6.5.1,0,.4,0,.6,0,.2,0,.3.2.4.3.1.2.1.5.2.7.1.2.5.1.4.5,0,.6.4.7.6,1,.2.3.5.6.9.7.2,0,0,.6.2.7,0,0-.8,1.2-1.2,1.6,0,0-.1.1-.2.1-.5.2-1.1.6-1.2.5-.2-.3-.5-.5-.7-.7Z" fill="#aaca60"/>
  <path d="M268.1,165.2c0,0,.2,0,.2,0,0,0,0,.2.1-.3,0-.3,0,.4,0,.3,0,0,.1,0,.2,0,0,0,.1-.3.2-.3,0,0,.1.2.2,0,0-.3.1.2.2,0,0-.1.1-.2.2,0,0,.2.1.4.1.3,0,0,0-.4,0-.4,0,0,0,.3,0-.3,0,0,0,0,0,.1,0,.4,0,.4,0,0,0-.3,0-.2,0-.3,0,0,.1,0,.2,0,0,0,.1.3.2.3,0,0,0-.2.1,0,0,.3.1.3.2.3,0,0,0,.3,0-.4,0,0,0,0,0,0,.2.8.1-.3.2,0,0,.2.2,0,.2,0,0,0,0,.2,0-.3,0-.2,0-.2,0,0,.1.6.1.2.2.3,0,.1,0-.2.2.3,0,.2.1.3,0-.3,0-.3,0,0,0,0,0,0,0-.3,0-.3,0,0,0,.2.1.3,0,0,0,0,0,0,0-.7.2.2.3,0,0-.2.2-.1.3,0,0,0,.2.2.4,1.3.1.5.3,1,.3,1.4,0,.2,0,.5,0,.5,0,.1,0,.2,0,.3,0,.2,0,.7-.1.5,0,0,0,.2-.1-.3,0,0,0-.1,0,0,0,.8-.2.3-.2.4,0,0,0,.7-.2.4,0,.6,0,.5-.1.4-.3-.6-.4-.2-.6-.2-.2,0-.4,0-.6,0,0,0,0,.4,0,0,0-.3,0,0-.1,0,0,0,0,.1-.1,0-.2-.6-.3-.2-.5-.3-.1,0-.3-.1-.4,0,0,.1-.2.5-.2.3,0,0,0,.3-.1-.3,0-.2,0,.3,0,.3,0,0-.1,0-.2,0,0,0-.2,0-.2,0,0,0-.1.3-.2.3,0,0-.1,0-.2,0,0,0-.1-.3-.2-.3,0,0-.1.2-.2,0-.1-.5-.2-.3-.4-.3-.1,0-.2-.1-.4,0,0,0-.1-.4-.2-.4,0,0,0,0,0-.2,0-.1,0-.3,0-.6,0-.4,0-.9,0-1.2,0,0,0-.2,0-.2,0-.5.2-1.2.3-1.1,0,0,.2,0,.3,0Z" fill="#aaca60"/>
  <g>
    <path d="M344.1,374.4c-6.7,2.4-14.8,5.2-20.7,9.1-2.7,12.3-3,25.2-4.5,37.7,9.8-8.4,20.5-15.6,32-21.5.6-.3,1.3-.7,1.7-1.2,1.6-2-.3-5.6,1.7-7.3-2.3.4-4.4-1.8-5-4.1-.6-2.3-.2-4.7-.4-7.1,0-.6-.2-1.4-.7-1.7-.5-.4-1.2-.3-1.9-.5s-1.3-.8-1-1.4"/>
    <path d="M351,385.7c.1.9.3,1.5.7,2.1.2.3.4.6.6.8.1.1.2.2.4.3h.2c0,.1.2.3.5.3l.2.3.4.6c.1.2.2.3.3.4.1.1.2.2.3.3,0,0,.2,0,.2.1,0,0,0,0,0,.1,0,.1,0,.3.1.7,0,.4,0,.9.3,1.5,0,0,0,0,0,0v.2s0,0,0,0h0c0,.2,0,.3,0,.4v.6c0,.4,0,.9,0,1.4,0,.5,0,1.1-.2,1.7-.2.6-.5,1.3-.9,2-.2.2-.3.4-.5.5-.6.5-1.1.8-1.6,1.1l-1.2.7c-.8.5-1.6,1-2.4,1.5-1.6.9-3.4,1.6-4.8,2.8-1.2,1-2.6,1.3-3.8,2.2-1.3.9-2.6,1.9-4,2.5-1,.5-2.1.9-2.9,1.7-.5.5-.9,1.1-1.5,1.5-.6.4-1.4.6-1.5,1.5,0,0-.3.2-.5.2-.9.1-1.6.7-1.9,1.3-.3.6-.8.9-1.2,1.3-2.3,1.9-4.5,3.7-6.8,5.6-1.3,1-2.4,1.8-3.5,2.6.1-.8.2-1.5.3-2.3.2-1.2.2-2.3.3-3.5,0-1.1.2-2.4.5-3.5.5-2,.7-3.9.8-4.8,0-.6.4-1.4-.2-2,0,0,0-.3,0-.4,1-1.8,0-3.7.4-5.5.4-1.9.4-3.9.6-5.9,0-.5.3-1.1-.1-1.6-.1-.2,0-.7,0-1,.8-1.4.6-3,.9-4.4.4-1.7.3-3.4,1.1-5,.3-.7.6-1.6.2-2.6-.1-.1,0-.8.2-1.4,0-.3.2-.6.2-.9.3-.2.5-.3.7-.5.4-.3.7-.6,1-.9.2-.2.2-.2.3-.3,0,0,.2-.2.3-.2.4-.2.9-.3,1.4-.4.1,0,.3-.1.4-.2,2-1.8,4.7-2.1,6.9-3.2,2.3-1.1,4.7-2,7.1-2.7,1.3-.4,2.7-.7,4,0,.6.3.8.9.3,1.4-.3.4-.7.8-1.2,1-.7.4-1.4.7-2.1,1.1-1.4.7-2.7,1.8-4.3,2.1-.5.1-.9.6-1.5.3,0,0-.3,0-.4,0-1.7,1.6-4,2-5.9,3-.8.4-1.5,1-2.2,1.6l-.5.4c-.1.1-.1.1-.2.2,0,0,0,0-.2.1,0,0,0,0,0,0,0,0,.1,0,.2.1,0,.1,0,.3,0,.4,0,.3,0,.6,0,.8,0,.6-.3,1.1-.4,1.6-1.3,3.5-1.4,7.3-1.8,11-.5,3.8-.7,7.6-1.1,11.4,0,.7.2,1.2-.1,2-.2.3-.2.8-.2,1.2,0,.2,0,.4,0,.7,0,.1,0,.2,0,.3,0,.1,0,.3,0,.4,0,0,0,.1,0,.2,0,0,0,0,0,.2-.4.5-.5,1.3-.6,1.7.4-.4.9-.8,1.2-1.1l.3-.2h.2c0-.1.5-.5.5-.5l1.8-1.4c1.2-.9,2.4-1.8,3.6-2.8,1.4-1.2,2.8-2.5,4.4-3.4.7-.4,1.2-1.1,2.2-1.1.3,0,.7-.8,1.1-1.1,1-.7,2.2-1.4,3.2-2,1.5-.9,3.1-1.8,4.6-2.7.9-.6,1.7-1.3,2.7-1.9,1-.6,2-1.1,3-1.6.6-.3.9-.4.9-.4,0,0,.3-.2.4-.7,0-.4,0-.9,0-1.4,0-.3,0-.6,0-.9,0-.2,0-.3,0-.5,0-.2,0-.4,0-.3,0,0,0-.1.2-.2.1,0,.2-.2.3-.3,0,0-.3,0-.4-.2h-.1c-.1-.1-.2-.2-.3-.3-.2-.1-.4-.3-.6-.5-.4-.3-.7-.7-1-1.1-.6-.8-1.1-1.6-1.4-2.6-.5-1.6-.5-3-.5-4.4,0-.7,0-1.3,0-1.9,0-.3,0-.6,0-.9,0-.1,0-.3,0-.4,0,0,0,0,0-.1,0-.2,0-.5-.2-.7,0,0-.2-.2-.4-.2,0,0-.1,0-.2,0-.1,0-.2,0-.4-.1-.4-.1-.6-.3-.9-.5-.3-.2-.5-.5-.5-.9,0-.4,0-.8.2-1.1.2-.3.5-.3.7-.3.2,0,.4.2.5.2.1,0,0,0,0,0,0,0,.1,0,.2,0,0,0,0,0,.1,0,0,0,.2,0,.2,0,.2,0,0-.2.6-.3.6,0,1.2,0,1.7.2.6.2,1.1.6,1.4,1.2.2.4.4.9.5,1.4,0,.2,0,.5.1.7v.6c0,.7,0,1.3,0,1.9,0,1.2,0,2.3.1,3.3Z"/>
  </g>
  <path d="M286,407.7c-.5-.3-1-.5-1.5-.7-.2,0-.3-.4-.7,0-.2.2-.1-.5-.3-.5-.5-.2-.9-.5-1.4-.7-.5-.2-1-.2-1.5-.4-.5-.2-.8-.7-1.4-.6-.5,0-.6-.5-1-.6-.4,0-.9-.2-1.1-.6-.2-.3-.4-.6-.7-.6-.2,0-.5.2-.7,0-.2,0-.2-.4-.7,0,0,0,0,0,0-.2,0-.5-.3-.5-.5-.3-.3.2-.4,0-.5,0-.4-.1-.8-.3-1.2-.5-.3-.2-.5-.5-.7-.7-.3-.2-.7,0-.9-.5-.2-.4-.4-.5-.7-.6-.2,0-.2-.4-.6.1,0,0,0,0,0,0-.1-1-1-.1-1.4-.5-.4-.4-.9-.5-1.4-.6-.1,0-.2-.3-.5.1-.1.1-.2,0-.3,0-.1-.7-.6-.5-1-.8-.4-.3-.9-.2-1.1-.8-.1-.3-.3-.5-.7,0-.2.2-.3-.1-.5-.1s-.4.2-.5.2c-.1,0-.1-.3-.2-.4,0,0,0,0-.1,0-.8.4-1.1-.7-1.8-.7-.7,0-1.3-.4-1.9-.7-.3-.2-.6-.5-.5-1.6,0-.5.2-1,.5-1.3.2-.2.4-.4.5-.4.2,0,.5,0,.7,0,.5,0,1.1-.4,1.4,0,.1.1.4,0,.3.4,0,0,0,.1,0,.1.8-.5,1.2.2,1.8.3.5.1,1.2-.3,1.6.2.5-.5.8-.3,1,0,.7,1,1.8,1,2.8,1.4.9.5,1.9.8,2.9,1.2.2,0,.4-.2.5.1,0,.3.4.2.6.3.2,0,.4,0,.6.3.5.9,1.4.9,2.1,1.3.7.4,1.4.8,2.2,1,.5.1,1.1,0,1.5.3.2.1.5,0,.5.6,0,.2.4-.1.5-.1.3,0,.6.3.9.4.4.2.8.4,1.3.6.3,0,.6,0,.9,0,.3,0,.6.2.8.4.3.2.6.6.9.8.3.2.8.2,1,.6.4.8,1.1.9,1.7,1.2.6.4,1.2.7,1.9.9.4.1.5.7.8.9.2,0-.3,1.5-.6,1.9,0,0-.1.2-.2.2-.6.2-1.2.7-1.5.5-.5-.4-1.1-.6-1.7-.9Z" fill="#aaca60"/>
  <path d="M281,422.2c-.5-.3-1-.6-1.5-.8-.2,0-.3-.4-.7,0-.2.2-.1-.5-.3-.5-.5-.2-.9-.5-1.4-.7-.5-.2-1-.2-1.5-.4-.5-.2-.8-.7-1.4-.6-.5,0-.6-.6-1-.6-.4,0-.9-.2-1.1-.6-.2-.3-.4-.6-.7-.7-.2,0-.5.2-.7,0-.2-.1-.2-.4-.7,0,0,0,0,0,0-.2,0-.5-.2-.5-.5-.4-.3.2-.4,0-.5,0-.4-.2-.8-.3-1.2-.6-.3-.2-.5-.5-.7-.7-.3-.2-.7-.1-.9-.5-.1-.4-.4-.5-.7-.7-.2,0-.2-.4-.6,0,0,0,0,0,0,0,0-1-1-.2-1.4-.6-.4-.4-.9-.5-1.4-.7-.1,0-.2-.3-.5,0-.1.1-.3,0-.3,0,0-.7-.6-.6-.9-.8-.4-.3-.9-.2-1.1-.9,0-.3-.3-.5-.7,0-.2.2-.3-.1-.5-.2-.1,0-.4.2-.5.1-.1,0-.1-.3-.2-.5,0,0,0,0-.1,0-.9.3-1.1-.8-1.8-.9-.7-.1-1.3-.5-1.8-.9-.3-.2-.6-.5-.3-1.7.1-.5.4-1,.6-1.2.2-.2.4-.3.6-.3.2,0,.5,0,.7,0,.5,0,1.1-.3,1.4.2,0,.1.4,0,.3.4,0,0,0,.1,0,.1.9-.5,1.2.3,1.8.5.5.2,1.2-.2,1.6.3.5-.4.8-.2,1,.1.6,1.1,1.8,1.1,2.6,1.6.9.5,1.9.9,2.8,1.4.2,0,.5-.2.5.2,0,.3.4.3.6.4.2,0,.4,0,.5.3.4,1,1.4,1,2.1,1.4.7.4,1.4.9,2.2,1.1.5.1,1.1,0,1.5.4.2.1.5,0,.4.6,0,.2.4-.1.5,0,.3.1.6.3.9.5.4.2.8.5,1.3.6.3.1.6,0,.9,0,.3,0,.6.2.8.4.3.2.5.6.9.8.3.2.8.2,1,.6.4.8,1.1.9,1.7,1.3.6.4,1.2.7,1.9,1,.4.1.5.7.8.9.2,0-.3,1.5-.6,1.9,0,0-.1.2-.2.2-.6.2-1.2.7-1.6.5-.5-.4-1.1-.6-1.7-.9Z" fill="#aaca60"/>
  <path d="M271.1,430.4c0,0-.1,0-.2,0,0,0,0-.2-.1.3,0,.3,0-.4,0-.3,0,0,0,0-.2,0,0,0-.2.3-.2.3,0,0,0-.3-.2,0-.1.3,0-.2,0-.1,0,.1-.1.2-.1,0,0-.2,0-.4,0-.3,0,0-.1.4-.1.3,0,0,0-.3-.1.3,0,0,0,0,0-.1,0-.4,0-.4,0-.1,0,.3,0,.2-.1.2,0,0,0,0-.1,0,0,0,0-.3,0-.4,0,0-.1.2,0-.1,0-.3,0-.3,0-.3,0,0,0-.3-.1.3,0,0,0,0,0,0,.1-.8-.2.2-.2,0,0-.2,0,0-.1,0,0,0,0-.2-.1.3,0,.2,0,.2,0,0,.1-.6,0-.3,0-.4,0-.1-.1.1,0-.3,0-.2,0-.3-.1.2,0,.3,0,0,0,0,0,0-.1.3-.1.3,0,0,0-.2,0-.3,0,0,0,0,0,0-.2.6,0-.2-.2,0-.1.2-.2,0-.2,0,0,0,0-.2.2-1.4.1-.5.2-1,.3-1.4,0-.2.1-.4.2-.5,0,0,0-.2.1-.3,0-.2.3-.7.2-.4,0,0,0-.2,0,.3,0,0,0,.1,0,0,.2-.8.2-.2.3-.3,0,0,.3-.6.2-.4.2-.6.2-.5.2-.3,0,.7.2.3.2.4,0,.1.2,0,.3.1,0,0,.1-.3,0,0,0,.3,0,0,0,0,0,0,0-.1,0,0,0,.7.1.3.2.4,0,0,.1.2.2,0,0,0,.2-.4.2-.3,0,0,.1-.3,0,.3,0,.2,0-.3.1-.3,0,0,0,0,.1,0,0,0,0,0,.1,0,0,0,.1-.3.2-.3,0,0,0,0,0,0,0,0,0,.3,0,.4,0,0,.1-.2.1,0,0,.5,0,.3.1.4,0,0,.1.1.2,0,0,0,0,.4,0,.4,0,0-.3,1.4-.4,1.9,0,0,0,.2,0,.2-.1.4-.3,1.1-.4,1.1,0,0-.1,0-.2,0Z" fill="#aaca60"/>
  <path d="M373.4,315.4c-.8.5-1.7.9-2.5,1.4-.3.2-.7.1-.8.8,0,.3-.6,0-.9.1-.7.5-1.5.8-2.3,1.3-.7.5-1.4,1.1-2.1,1.5-.7.5-1.6.6-2.2,1.3-.5.6-1.3.4-1.8.9-.6.5-1.2.9-1.9,1-.5,0-1.1.1-1.5.5-.2.2-.3.6-.7.8-.3.1-.7,0-.7.8,0,0-.2,0-.3,0-.5-.2-.9,0-1,.4-.1.4-.4.5-.6.6-.6.4-1.2.7-1.9,1-.5.2-1.1.3-1.6.5-.3.1-.5.3-.7.5,0,0-.4.2-.6.3-.2.1-.5.2-.7.2-.9.1-1.6.5-2.4,1-.5.3-.8,0-1.5,1.2,0,.1-.2.2-.3.2-.1,0-.3,0-.4,0,0-1-.6-.4-.6-1.2,0-1-.3-1.5-.4-2.1,0,0,0-.3-.2.6,0,.3,0,.3,0,.1,0-.5,0-.5,0-.5,0,0,0,.2-.1.1,0,0,0,0-.1.1,0,0,0,0,0,0h0s-.1,0-.1,0c-.2,0-.4.2-.6.2-.4,0-.8.3-.7,1,0,.3-.4.4-.6.6-.1.2-.1.5-.3.7-.1.1-.4,0-.7.1,0,0-.1,0-.1.1,0,.2-.1.3-.2.4,0,0,0,.1-.1.2,0,0,0,0-.2.2-.4.4-.8.7-1.2,1-.9.5-1.6.7-2.5.8-.9,0-1.8-.3-2.4-1-.3-.3-.6-.8-.9-1.2-.3-.4-.6-1-.7-1.2-.3-.6-.5-1.3.3-2.2.4-.4.9-.7,1.3-.6.3,0,.6.1.8.3.2.3.5.5.8.7.5.4.8,0,.8.5,0,.2.2-.2.1.5,0,0,0,.2,0,.1.3-.5.3-.7.5-.7,0,0,.1,0,.2,0,0,0,0,0,.1,0h0s.1-.2.1-.2c.6-.6.8-1.6,1.6-2,0-.8.4-1.1.9-1.3.2,0,.4-.2.6-.3.3-.2.6-.5.9-.7.6-.5,1.2-1,1.7-1.5,1.1-1,2.3-2.2,3.4-3.2l.3-.3c.3,2,.8,3.7,1.1,5.5h0c0,0,.2-.5.2-.2,0,.3.1,0,.2,0,0,0,0-.2.2,0,0,0,0,0,0,0,0,0,0,0,.2,0,.2,0,.3,0,.5-.1.3-.1.6-.3.9-.4.6-.3,1.1-.7,1.8-1,1.2-.6,2.4-1.2,3.5-2,.7-.5,1.2-1.2,2-1.5.3-.1.5-.6,1.1-.2.2,0,.2-.5.4-.6.5-.3,1-.6,1.5-.8.7-.4,1.4-.7,2-1.1.4-.3.7-.7,1.1-1,.4-.3.8-.5,1.3-.7.6-.2,1.2-.4,1.8-.6.6-.3,1.1-.8,1.8-.9,1.3-.1,2.2-.9,3.2-1.4,1-.5,2.1-1,3-1.7.5-.4,1.3-.2,1.9-.5.3-.1,1.3,1,1.5,1.5,0,0,0,.2,0,.3-.3.7-.5,1.6-1.1,1.9-1,.4-1.9,1-2.8,1.5Z" fill="#aaca60"/>
  <path d="M378.7,456.8c-.8.1-1.6.1-2.4.2-.3,0-.6-.2-.9.3-.2.3-.4-.4-.7-.4-.7,0-1.5-.1-2.2-.1-.7,0-1.5,0-2.2,0-.7,0-1.4-.6-2.1-.5-.7,0-1-.6-1.6-.7-.6,0-1.2-.3-1.7-.8-.3-.4-.6-.7-1.1-.9-.3,0-.7,0-.9-.2-.2-.2-.4-.6-1-.3,0,0,0-.2,0-.3,0-.5-.3-.8-.7-.8-.4,0-.6-.3-.8-.5-.5-.6-1-1.4-1.2-2.2-.2-.6,0-1.2,0-1.8,0-.6-.3-1.2,0-1.8.4-.5.4-1,.6-1.5,0-.3.4-.5,0-.9,0,0,0-.1,0-.2.5-.2.6-.6.7-1.1,0-.4.1-.9.5-1.2.7-.6,1.2-1.3,1.9-1.8.2-.1.5-.1.4-.6,0-.2.2-.3.3-.3.9.2,1.3-.4,1.9-.6.7-.2,1.3-.7,2.1-.4.3.1.7.2,1-.5.1-.3.5,0,.8-.2.2,0,.4-.4.6-.4.2,0,.4.2.5.3,0,0,.1,0,.2,0,1-.7,2,.3,3,.3,1,0,2,.3,2.8.6.5.2,1,.5.9,1.7,0,.5-.2,1.1-.5,1.3-.2.2-.4.3-.6.4-.3,0-.6,0-.8,0-.6,0-1.2.4-1.6,0-.1-.1-.4.1-.4-.4,0,0,0-.1-.1,0-.8.7-1.4,0-2.2.1-.6,0-1.1.7-1.7.5-.2.7-.5.6-.9.5-1.2-.4-2.1.5-2.9,1-.4.3-.8.6-1.1,1-.3.4-.5.8-.7,1.2,0,.1.2.4,0,.5-.3,0-.2.4-.2.6,0,.2,0,.4,0,.5-.4.3-.4.8-.3,1.1,0,.4.3.7.4,1,.2.6.8,1.3,1.6,1.6.5.2,1.1.2,1.6.5.2.2.6,0,.6.6,0,.2.4-.1.5,0,.4,0,.7.3,1.1.4.5.2,1,.4,1.6.5.3,0,.7-.1,1-.1.4,0,.7,0,1,.2.4.1.8.4,1.3.5.5.1,1-.2,1.4.1.8.5,1.7.2,2.5.2.8,0,1.7-.1,2.5-.4.4-.2,1,.2,1.4,0,.2,0,1,1.2,1,1.8,0,0,0,.2,0,.3-.3.6-.6,1.4-1.2,1.5-.9.2-1.8.4-2.7.5Z" fill="#aaca60"/>
  <path d="M410.2,383.5c-.1.8-.4,1.6-.6,2.4,0,.3-.4.5,0,1,.2.2-.5.3-.6.6-.2.8-.6,1.4-.8,2.2-.3.7-.4,1.5-.7,2.2-.3.7-1,1.2-1.1,2-.1.7-.9.9-1.1,1.4-.3.6-.7,1.1-1.2,1.5-.4.2-.9.4-1.1.8-.1.2-.1.7-.4.9-.2.2-.6.2-.4.8,0,0-.2,0-.3,0-.5,0-.8.2-.8.5,0,.4-.2.5-.4.6-.5.4-.9.8-1.4,1.1-.4.2-.9.3-1.2.6-.4.2-.6.8-1.1.8-.5,0-.8.3-1.1.6-.2.1-.5.1-.2.7,0,0,0,.1,0,0-1-.1-.6,1-1.1,1.4-.5.4-.7.9-1,1.5,0,.1-.3.2,0,.5.1.1,0,.3,0,.3-.8.2-.5.8-.8,1.2-.3.5,0,1.1-.6,1.5-.2.2-.4.5.2.9.3.2,0,.4,0,.6,0,.2.3.3.3.5,0,.1-.2.3-.3.4,0,0,0,0,0,.1.7.8-.2,1.6.1,2.5.3.8.3,1.7.4,2.5,0,.5,0,1-1.1,1.6-.5.3-1,.4-1.4.3-.3-.1-.5-.2-.6-.4-.2-.3-.4-.5-.5-.8-.3-.6-.9-1.1-.8-1.8,0-.2-.3-.4.2-.6,0,0,0-.1,0-.2-.9-.8-.5-1.7-.5-2.6,0-.7-.7-1.5-.3-2.3-.6-.5-.4-1-.2-1.4.9-1.5.9-3.1,1.7-4.6.8-1.5,1.7-2.9,2.9-4,.2-.2.1-.6.5-.6.4,0,.5-.4.8-.6.2-.2.4-.5.7-.6,1.3-.3,1.9-1.3,2.9-1.9.9-.6,1.8-1.3,2.4-2.1.4-.5.5-1.2,1.1-1.6.2-.2.1-.6.8-.4.2,0,0-.4,0-.6.2-.4.5-.7.7-1,.3-.5.7-1,.9-1.5.2-.3.1-.8.2-1.1.1-.4.3-.7.5-1,.3-.4.7-.7.9-1.2.3-.4.1-1,.6-1.4.8-.7.8-1.6,1-2.5.2-.9.4-1.7.4-2.6,0-.5.5-.9.5-1.4,0-.2,1.5-.5,2-.4,0,0,.2,0,.2.1.4.5,1.2,1.1,1.1,1.7-.1.9-.2,1.9-.4,2.8Z" fill="#aaca60"/>
  <path d="M421.2,393c-.2.7-.5,1.3-.7,2,0,.2-.4.4,0,.8.2.2-.5.2-.6.4-.2.6-.6,1.1-.9,1.7-.3.6-.4,1.2-.7,1.8-.3.6-.9.9-1,1.6-.1.6-.8.7-1,1.1-.3.5-.6,1-1.1,1.2-.4.2-.8.3-1,.6-.1.2,0,.6-.3.8-.2.1-.6.1-.3.7,0,0-.1,0-.2,0-.5-.1-.7,0-.7.4,0,.3-.2.4-.3.6-.4.3-.8.7-1.2.9-.3.2-.8.2-1.1.4-.3.2-.5.6-.9.6-.5,0-.7.2-.9.4-.1.1-.5,0-.2.6,0,0,0,0,0,0-.9-.3-.5.9-1,1.1-.5.2-.7.7-1,1.2,0,.1-.3.1,0,.5.1.1,0,.2,0,.2-.7,0-.6.5-.9.8-.3.4-.2.9-.8,1.1-.3.1-.4.3,0,.7.2.2,0,.3,0,.5,0,.1.2.3.2.5,0,.1-.3.2-.4.3,0,0,0,0,0,.1.5.7-.4,1.2-.3,1.9.2.7,0,1.3,0,2,0,.4-.1.7-1.2,1.2-.5.2-1,.3-1.4.2-.3,0-.5-.2-.6-.4-.1-.2-.3-.5-.4-.7-.3-.5-.8-1-.5-1.6,0-.2-.2-.4.3-.5,0,0,.1,0,0-.1-.8-.8-.2-1.6,0-2.3,0-.6-.4-1.4,0-2-.5-.5-.2-1,0-1.2,1.1-1,1.3-2.4,2.1-3.5.8-1.1,1.7-2.2,2.7-3,.2-.1,0-.5.5-.5.4,0,.5-.3.7-.5.2-.2.3-.4.6-.4,1.2,0,1.7-.9,2.5-1.4.8-.5,1.5-1,2-1.6.3-.4.5-1,.9-1.3.2-.1.1-.5.7-.3.2,0,0-.4,0-.5.2-.3.5-.5.7-.8.3-.4.6-.7.9-1.2.1-.3,0-.7.2-.9.1-.3.3-.6.5-.8.3-.3.6-.5.9-.9.2-.3.2-.8.6-1.1.8-.5.8-1.3,1.1-1.9.3-.7.5-1.4.6-2.1,0-.4.6-.7.7-1.1,0-.2,1.5-.2,2,0,0,0,.2,0,.2.1.4.5,1,1.1.9,1.6-.2.8-.4,1.5-.6,2.3Z" fill="#aaca60"/>
  <path d="M430.6,404.5c-.2.5-.4.9-.6,1.4,0,.2-.4.2,0,.7.2.2-.5,0-.5.3-.2.5-.5.8-.7,1.3-.2.4-.3,1-.5,1.4-.2.4-.8.7-.8,1.2,0,.5-.7.5-.9.8-.2.4-.5.7-.9.8-.3,0-.7,0-.8.3,0,.2,0,.5-.2.6-.2,0-.5,0-.2.6,0,0-.1,0-.2,0-.4-.2-.6,0-.5.2,0,.3,0,.4-.2.4-.3.2-.6.5-.9.6-.3.1-.6,0-.9.2-.3.1-.4.5-.7.4-.4-.1-.6,0-.8.2-.1,0-.4,0-.1.5,0,0,0,0,0,0-.8-.4-.5.7-.9.7-.4,0-.6.4-.9.7,0,0-.3,0,0,.4,0,.1,0,.2,0,.2-.6-.2-.5.2-.8.4-.3.2-.2.6-.8.6-.2,0-.4.1,0,.5.2.2,0,.2,0,.3,0,.1.2.3.2.4,0,0-.3,0-.4,0,0,0,0,0,0,0,.5.6-.5.7-.4,1.1.1.4,0,.7,0,1,0,.2-.2.4-1.2.9-.5.2-1,.4-1.3.4-.3,0-.5-.1-.6-.2-.2-.2-.3-.4-.4-.6-.3-.4-.8-.9-.5-1.4,0-.1-.2-.4.3-.4,0,0,.1,0,0,0-.7-.7,0-1.3.1-1.9.1-.5-.2-1.3.3-1.6-.4-.6-.1-.8.2-1,1.1-.5,1.4-1.5,2.2-2.2.8-.7,1.5-1.3,2.3-1.8.1,0,0-.5.3-.3.3.1.4-.2.5-.3.1-.1.2-.3.5-.3.9.2,1.3-.5,1.9-.8.6-.3,1.2-.6,1.6-1.1.2-.3.3-.8.7-.9.2,0,0-.4.6,0,.1,0,0-.3,0-.4.1-.2.3-.3.5-.5.2-.2.5-.5.6-.8,0-.2,0-.5,0-.7,0-.2.2-.4.4-.5.2-.2.5-.3.7-.5.2-.2,0-.6.5-.8.7-.3.7-.9,1-1.4.3-.5.5-1,.6-1.6,0-.3.6-.4.7-.7,0-.1,1.5.2,2,.4,0,0,.2.1.2.1.3.5.9,1,.7,1.3-.3.5-.4,1-.6,1.6Z" fill="#aaca60"/>
  <path d="M279.2,322.1c-.8.4-1.5.7-2.3,1.1-.3.2-.7,0-.7.7,0,.3-.6-.1-.8,0-.7.4-1.4.7-2.1,1.1-.7.4-1.3.9-1.9,1.3-.7.4-1.5.5-2,1.1-.5.5-1.2.3-1.7.7-.5.4-1.1.7-1.8.8-.5,0-1,0-1.4.3-.2.2-.3.6-.6.7-.3.1-.7,0-.6.7,0,0-.2,0-.3,0-.5-.2-.8,0-.9.3-.1.4-.3.4-.5.5-.6.3-1.2.6-1.8.8-.5.2-1,.1-1.5.3-.5.2-.9.6-1.4.6-.6,0-1,.1-1.4.3-.2.1-.6,0-.6.6,0,0,0,0-.1,0-1-.4-1.2.9-2,1-.8.1-1.5.6-2.2.9-.2,0-.5,0-.5.5,0,.2-.2.3-.3.2-.8-.3-1.2.3-1.8.4-.7.2-1.2.7-2,.6-.4,0-.8,0-.8.7,0,.3-.5.2-.7.4-.2.1-.2.5-.4.6-.2,0-.4,0-.6,0,0,0-.1,0-.2,0-.6,1-1.9.6-2.8,1.2-.9.6-1.8.9-2.8,1.2-.5.2-1.1.2-1.9-.7-.4-.4-.6-.9-.5-1.3,0-.3.2-.6.3-.7.2-.2.5-.5.7-.7.5-.4.9-1.2,1.6-1.2.2,0,.3-.4.7,0,0,0,.1,0,.2,0,.5-1.1,1.6-1,2.4-1.4.7-.4,1.1-1.2,1.9-1.3.1-.8.6-.9,1.1-.9,1.7,0,2.9-1.1,4.3-1.6,1.5-.6,2.8-1.3,4.3-1.9.2-.1.3-.5.7-.4.4.1.6-.2.9-.4.3-.1.5-.4.9-.4,1.4,0,2.3-.8,3.5-1.2,1.1-.4,2.3-.9,3.3-1.6.6-.4,1.1-1,1.9-1.2.3,0,.5-.5,1-.1.2.1.2-.4.4-.5.4-.3.9-.4,1.4-.7.6-.3,1.3-.6,1.9-.9.4-.2.7-.6,1-.9.4-.2.8-.4,1.2-.6.5-.2,1.2-.2,1.7-.4.6-.2,1-.7,1.6-.7,1.2,0,2-.7,3-1.1,1-.4,1.9-.8,2.8-1.4.5-.3,1.2-.1,1.7-.4.2-.1,1.2,1,1.3,1.5,0,0,0,.2,0,.3-.3.7-.5,1.5-1.1,1.8-.9.4-1.7.8-2.6,1.2Z" fill="#fff"/>
  <path d="M267.7,348.4c-.6-.8-1.2-1.6-1.9-2.4-.2-.3-.3-.8-.9-.7-.3,0,0-.7-.3-.9-.6-.7-1.1-1.5-1.8-2.2-.6-.7-1.3-1.3-2-2-.6-.7-.9-1.6-1.7-2.1-.7-.4-.7-1.3-1.2-1.8-.6-.5-1.1-1.1-1.4-1.9-.2-.5-.4-1.1-.8-1.5-.3-.2-.7-.3-.9-.6-.2-.3-.2-.8-.9-.6,0,0,0-.2,0-.3,0-.5-.2-.9-.6-1-.4,0-.5-.3-.7-.5-.5-.6-1-1.2-1.4-1.9-.3-.5-.5-1.1-.8-1.6-.3-.5-.9-.9-1-1.5-.1-.6-.4-1.1-.8-1.5-.2-.3-.2-.7-.8-.5,0,0-.1,0-.1-.2.1-1.2-1.3-1.3-1.7-2.1-.4-.9-1.1-1.6-1.7-2.3-.2-.2-.2-.5-.7-.4-.2,0-.4-.2-.3-.3,0-.9-.7-1.3-1-2-.4-.7-1.1-1.2-1.2-2.2,0-.4-.2-.9-1-.8-.3,0-.4-.5-.6-.7-.2-.2-.5-.2-.7-.4-.1-.2,0-.5-.1-.7,0,0,0-.1-.1-.2-1.3-.6-1.2-2.1-2.1-2.9-.9-.9-1.5-1.9-2.2-3-.4-.6-.6-1.2,0-2.3.3-.5.7-.8,1.2-.8.3,0,.6,0,.8.2.3.2.6.5.9.7.6.5,1.5.8,1.8,1.6,0,.3.5.3.2.8,0,0,0,.2,0,.2,1.3.4,1.5,1.6,2.2,2.4.6.7,1.6,1.1,2,2,.8,0,1.1.6,1.2,1.1.6,1.9,2,3.1,3,4.6,1.1,1.5,2.3,3,3.4,4.5.2.3.6.3.6.7,0,.4.4.7.7,1,.2.3.6.5.7.9.4,1.6,1.6,2.5,2.4,3.7.8,1.2,1.7,2.4,2.7,3.5.6.6,1.4,1.1,1.9,1.9.2.3.7.5.5,1.1,0,.2.5.2.7.4.4.5.8,1,1.1,1.4.5.7,1,1.4,1.6,2,.3.4.9.6,1.2,1,.4.4.7.8,1,1.3.4.6.6,1.3,1,1.8.4.6,1.1,1,1.2,1.7.4,1.3,1.3,2.2,2.1,3.2.7,1,1.4,2.1,2.3,3,.5.5.5,1.3.9,1.9.2.3-.7,1.5-1.2,1.7,0,0-.2,0-.3,0-.8-.3-1.7-.3-2.2-1-.6-1-1.4-1.8-2.1-2.8Z" fill="#fff"/>
  <path d="M385.7,440.4c0,0-.1,0-.2,0,0,0-.1-.2,0,.3,0,.3-.1-.4-.1-.3,0,0-.1,0-.2,0,0,0,0,.3-.1.4,0,0-.2-.2-.2.1,0,.3-.1-.2-.2,0,0,.1,0,.2-.2,0,0-.2-.2-.4-.2-.3,0,0,0,.4,0,.4,0,0-.1-.3,0,.3,0,0,0,0,0-.1-.1-.4-.1-.4,0,0,0,.3,0,.2,0,.3,0,0,0,0-.2,0,0,0-.1-.3-.2-.3,0,0,0,.2-.1,0-.1-.3-.1-.3-.2-.3,0,0-.1-.3,0,.4,0,0,0,0,0,0-.2-.8,0,.3-.2,0-.1-.2-.1,0-.2,0,0,0,0-.2,0,.3,0,.2,0,.2,0,0-.2-.6-.1-.2-.2-.3,0-.1,0,.2-.2-.3,0-.2-.1-.3,0,.3,0,.3,0,0,0,0,0,0,0,.3,0,.3,0,0,0-.2-.1-.3,0,0,0,0,0,0,0,.7-.2-.2-.2,0,0,.2-.1.1-.2,0,0,0-.1-.2-.4-1.3-.1-.5-.3-1-.3-1.4,0-.2,0-.5,0-.5,0,0,0-.2,0-.3,0-.2,0-.7,0-.5,0,0,0-.2.1.3,0,0,0,.1,0,0-.1-.8,0-.3.1-.4,0,0,0-.7,0-.4-.1-.6,0-.5,0-.3.3.6.3.2.4.2.1,0,.2,0,.4,0,0,0,0-.4,0,0,0,.2,0,0,0,0,0,0,0-.1,0,0,.2.6.2.2.4.3.1,0,.2,0,.3,0,0-.1,0-.5.1-.3,0,0,0-.3.1.3,0,.2,0-.3,0-.3,0,0,0,0,.1,0,0,0,.1,0,.2,0,0,0,0-.3,0-.4,0,0,0,0,.1,0,0,0,.2.3.2.3,0,0,0-.2.2,0,.2.5.2.2.3.2,0,0,.2,0,.2,0,0,0,.2.4.2.4,0,0,.4,1.4.5,1.9,0,0,0,.2,0,.2,0,.5.2,1.2.1,1.1,0,0-.2,0-.2,0Z" fill="#fff"/>
  <path d="M391.9,439.8s0,0-.1,0c0,0,0-.2-.1.3,0,.3,0-.4,0-.3,0,0,0,0-.1,0,0,0-.1.3-.2.3,0,0,0-.2-.1,0,0,.3,0-.2,0-.1,0,.1,0,.2,0,0,0-.2,0-.4,0-.3,0,0-.1.4-.1.4,0,0,0-.3-.1.3,0,0,0,0,0-.1,0-.4,0-.4,0-.1,0,.3,0,.2,0,.2,0,0,0,0,0,0,0,0,0-.3,0-.3,0,0,0,.2,0,0,0-.3,0-.3,0-.3,0,0,0-.3-.1.3,0,0,0,0,0,0,.1-.8-.1.2-.1,0,0-.2,0,0,0,0,0,0,0-.2,0,.3,0,.2,0,.2,0,0,.1-.6,0-.3,0-.4,0-.1,0,.2,0-.3,0-.2,0-.3,0,.3,0,.3,0,0,0,0,0,0,0,.3,0,.3,0,0,0-.2,0-.3,0,0,0,0,0,0-.2.6,0-.2-.1,0,0,.2-.1,0-.1,0,0,0,0-.2.2-1.4,0-.5.2-1,.3-1.4,0-.2.1-.5.1-.5,0,0,0-.2.1-.3,0-.2.2-.7.2-.4,0,0,0-.2,0,.3,0,0,0,.1,0,0,.2-.8.1-.2.2-.3,0,0,.2-.7.2-.4.1-.6.1-.5.1-.3,0,.7,0,.2.1.3,0,.1.1,0,.2,0,0,0,0-.3,0,0,0,.3,0,0,0,0,0,0,0-.1,0,0,0,.7,0,.3,0,.4,0,0,0,.2.2,0,0,0,.2-.4.2-.3,0,0,0-.3,0,.3,0,.2,0-.3,0-.3,0,0,0,0,0,0s0,0,0,0c0,0,0-.3.1-.3,0,0,0,0,0,0,0,0,0,.3,0,.4,0,0,0-.2,0,0,0,.5,0,.3,0,.3,0,0,0,.1.1,0,0,0,0,.4,0,.4,0,0-.3,1.4-.4,1.9,0,0,0,.2,0,.2-.1.5-.3,1.2-.3,1.1,0,0,0,0-.1,0Z" fill="#fff"/>
  <path d="M392.9,447.2c0,0-.1,0-.2,0,0,0-.1-.2,0,.3,0,.3-.1-.3-.2-.3,0,0-.1,0-.2,0,0,0,0,.3,0,.4,0,0-.2-.2-.1.1,0,.3-.2-.2-.2,0,0,.1,0,.2-.2,0,0-.2-.2-.4-.2-.2,0,0,0,.4,0,.4,0,0-.1-.3,0,.3,0,0,0,0,0-.1-.1-.4-.2-.4,0,0,0,.3,0,.2,0,.3,0,0,0,0-.1,0,0,0-.2-.3-.2-.3,0,0,0,.2-.1,0-.1-.3-.1-.3-.2-.2,0,0-.1-.3,0,.3,0,0,0,0,0,0-.3-.8,0,.3-.1,0-.1-.2-.1,0-.2,0,0,0,0-.2,0,.3,0,.2,0,.2,0,0-.2-.6-.2-.2-.2-.3,0-.1,0,.2-.2-.3,0-.2-.1-.3,0,.3,0,.3,0,0,0,0,0,0,0,.3,0,.3,0,0,0-.2-.1-.3,0,0,0,0,0,0,.1.7-.2-.2-.2,0,0,.2-.1.1-.2,0,0,0-.2-.2-.5-1.3-.2-.5-.3-1-.4-1.3,0-.2-.1-.5-.1-.5,0,0,0-.2,0-.3,0-.2-.1-.7,0-.5,0,0,0-.2.1.3,0,0,0,.1,0,0-.2-.8,0-.3.1-.4,0,0,0-.7,0-.4-.1-.6,0-.5,0-.3.3.6.3.1.4.2.1,0,.2,0,.4,0,0,0,0-.3,0,0,0,.2,0,0,0,0,0,0,0-.1,0,0,.3.6.3.2.4.2.1,0,.2,0,.3-.1,0-.1,0-.5,0-.3,0,0,0-.3.2.3,0,.2,0-.3,0-.3,0,0,0,0,.1,0,0,0,.1,0,.2,0,0,0,0-.3,0-.4,0,0,0,0,0,0,0,0,.2.3.2.3,0,0,0-.2.1,0,.2.5.2.2.3.2,0,0,.2,0,.2,0,0,0,.2.4.2.4,0,0,.5,1.4.6,1.9,0,0,0,.2,0,.2,0,.5.3,1.2.2,1.1,0,0-.1,0-.2,0Z" fill="#fff"/>
  <path d="M399.9,444.9s0,0,0,0c0,0,0-.2,0,.3,0,.3,0-.4,0-.3,0,0,0,0,0,0,0,0,0,.3,0,.3,0,0,0-.2,0,0,0,.3,0-.2,0,0,0,.1,0,.2,0,0,0-.2,0-.4,0-.3,0,0,0,.4,0,.4,0,0,0-.3,0,.3,0,0,0,0,0-.1,0-.4,0-.4,0,0,0,.3,0,.2,0,.2,0,0,0,0,0,0,0,0,0-.3,0-.3,0,0,0,.2,0,0,0-.3,0-.3,0-.3,0,0,0-.3,0,.3,0,0,0,0,0,0-.2-.8,0,.3,0,0,0-.2,0,0,0,0,0,0,0-.2,0,.3,0,.2,0,.2,0,0-.1-.6,0-.2-.1-.3,0-.1,0,.2-.1-.3,0-.2,0-.3,0,.3,0,.3,0,0,0,0,0,0,0,.3,0,.3,0,0,0-.2,0-.3,0,0,0,0,0,0,.1.7,0-.2,0,0,0,.2,0,.1,0,0,0,0,0-.2-.3-1.4-.1-.5-.2-1-.3-1.4,0-.2,0-.5,0-.5,0,0,0-.2,0-.3,0-.2-.1-.7,0-.4,0,0,0-.2,0,.3,0,0,0,.1,0,0-.1-.8,0-.3,0-.3,0,0,0-.7,0-.4-.1-.6,0-.5,0-.3.2.7.1.2.2.3,0,0,0,0,.1,0,0,0,0-.3,0,0,0,.3,0,0,0,0,0,0,0-.1,0,0,.2.6.1.2.1.3s0,.1,0,0c0-.1,0-.4,0-.3,0,0,0-.3,0,.3,0,.2,0-.3,0-.3,0,0,0,0,0,0,0,0,0,0,0,0,0,0,0-.3,0-.3,0,0,0,0,0,0,0,0,0,.3.1.3,0,0,0-.2,0,0,.1.5,0,.2.1.3,0,0,0,0,0,0,0,0,.1.4.1.4,0,0,.3,1.4.4,1.9,0,0,0,.2,0,.2,0,.5.2,1.2.2,1.1,0,0,0,0,0,0Z" fill="#fff"/>
  <path d="M432,274.4c-1.3-2.7-2.9-5.3-4.8-7.5-.7-.8-1.2-1.9-2.4-2.3-.6-.2-.9-1.4-1.6-2.1-2.1-1.8-4.3-3.4-6.8-4.6-2.4-1.2-5-1.8-7.6-2.4-2.5-.5-5.2-1-7.7-.6-2.1.4-4.1.2-6,.9-1,.3-2,.8-3,1.2-.9.5-2,.9-2.8,1.4-1.2.6-2.3,1.6-2.3,2.5,0,.3,0,.5.2.7.1.2.3.3.4.5.3.4.9,1.1,1.8.7,0,0,.4.2.5.3.4.3.9.5,1.4.6.5,0,1.1,0,1.5-.1.8-.3,1.5-.3,2.3-.4,2.1-.2,4.1-.8,6.1-1.6,1.5-.6,3-1.2,4.3-2.1,1.4-1,2.5-2.4,3.7-3.4,1.2-1,2-2.3,2.6-3.7.3-.7.9-1.6.4-2.4,0,0,0-.3,0-.5.6-1,.4-2.3,0-3.4-.4-1.1-.9-2.2-1.4-3.4-.9-2.4-2.6-4.6-4.5-6.4-.5-.5-.9-1.2-1.8-1.2-.3,0-.8-.5-1.1-.8-1.2-1.7-3.3-2.4-5.1-3.3-2.1-1-4.4-1.4-6.7-2.3-.5-.2-1.1-.3-1.7-.4-.6,0-1.3,0-1.9.3-.6.2-1.7,0-2.5,0-.7.1-1.4.4-2.1.5-.6,0-1.2,0-1.8-.1-.2,0-.4,0-.6.1-1.6.6-3.3,1-5,1.4-1.7.4-3.4.9-4.9,1.7-3.1,1.6-6.3,3.4-9.3,5.5-1.6,1.1-3.3,2.3-5.1,2.3-.8,0-1.2-.4-.7-1.2.3-.6.8-1.3,1.3-1.8.9-.8,1.7-1.6,2.6-2.4,1.9-1.6,3.6-3.3,6-4.3.7-.3,1.4-1,2.2-.8.1,0,.4,0,.5-.2,2.7-2.2,6.3-2.9,9.7-3.8,2.9-.7,5.7-1.7,8.8-1.4.8-.3,1.8-.4,2.7-.3.9,0,1.9.3,2.7.5,2.9.9,5.8,1.8,8.5,3.1,2.7,1.3,5.4,2.9,7.6,5,2.2,2.1,4.2,4.6,5.6,7.5,1.4,2.8,2.4,6,2.1,9.4,0,1.1,0,2.3-.6,3.4-.6,1.1-1.1,2.6-1.9,3.8-.3.5-.7,1.1-1.1,1.6-.4.5-.8,1-1.2,1.4-1.9,1.6-3.8,3.1-5.8,4.4-2.1,1.3-4.3,2.3-6.6,2.9-2.3.6-4.8.9-7.2.8-1.2,0-2.5-.2-3.8-.5-1.3-.4-2.5-.9-3.7-2-.7-.7-1.3-1.5-1.6-2.5-.3-1-.3-2.1-.1-3.1.5-2,1.8-3.4,3.1-4.4.6-.4,1.1-.9,1.7-1.2.6-.3,1.2-.6,1.9-.6.4,0,1.3-.9,2-1.2.9-.4,1.9-.7,2.9-1,1-.2,2-.5,3-.6,2.8-.4,5.6-.5,8.3-.2.8,0,1.7.1,2.5.2.8,0,1.7.2,2.5.4.9.2,1.7.5,2.6.7.8.3,1.7.6,2.5,1,2.1.9,3.9,2.2,5.8,3.5,1.9,1.4,3.9,2.7,5.3,4.5,2.5,3.2,5.1,6.3,7,9.9,1.9,3.5,3.4,7.2,4.6,11,.7,2.1.6,4.3,1,6.4.2,1-1.1,2.6-1.7,2.2-.1,0-.2-.2-.3-.4-.7-2-1.8-3.6-2.3-5.9-.8-3.3-2-6.5-3.5-9.6Z" fill="#aaca60"/>
  <path d="M189.3,288.5c-.9.6-1.8,1.1-2.6,1.8-.3.2-.8.3-.8.9,0,.3-.7,0-1,.3-.8.6-1.6,1.2-2.3,1.8-.7.6-1.4,1.4-2.1,2-.7.6-1.6,1-2.1,1.8-.4.7-1.3.8-1.8,1.4-.5.6-1.1,1.2-1.8,1.6-.5.3-1.1.5-1.4.9-.2.3-.2.8-.5,1-.3.2-.8.3-.6,1,0,0-.2,0-.3,0-.6,0-.9.3-.9.8,0,.4-.3.6-.5.8-.5.6-1.1,1.2-1.7,1.7-.5.4-1,.7-1.5,1.1-.5.4-.7,1.1-1.4,1.3-.6.2-1,.6-1.4,1.1-.2.2-.7.3-.4,1,0,0,0,.1-.1.2-1.3.1-1,1.6-1.8,2.1-.8.6-1.3,1.4-1.9,2.2-.2.2-.5.3-.3.8,0,.2,0,.4-.3.4-.9.2-1.1,1-1.7,1.5-.6.6-.9,1.5-1.8,1.9-.4.2-.8.5-.6,1.2.1.3-.4.5-.5.8-.1.2,0,.6-.2.8-.1.2-.4.2-.7.3,0,0-.1,0-.1.2-.2,1.4-1.6,1.9-2.1,3.1-.6,1.1-1.3,2.2-2,3.2-.4.6-.9,1.1-2.2.9-.6,0-1-.4-1.2-.8,0-.3-.2-.6,0-.9.1-.4.2-.8.4-1.2.3-.8.2-1.8,1-2.4.2-.2.1-.6.7-.5,0,0,.2,0,.2-.1,0-1.4,1-2.1,1.7-3.1.5-.8.6-2,1.4-2.6-.2-.8.3-1.3.8-1.6.9-.6,1.5-1.3,2.1-2.1.6-.8,1.1-1.6,1.8-2.3,1.3-1.5,2.6-3.1,3.9-4.5.2-.2.2-.7.6-.8.4-.1.6-.6.9-.9.3-.3.5-.7.8-.9,1.6-.7,2.4-2.1,3.5-3.1,1.2-1,2.3-2.1,3.3-3.3.6-.7,1.1-1.6,1.9-2.2.3-.2.4-.8,1.1-.6.2,0,.2-.5.4-.7.5-.5,1-.9,1.5-1.3.7-.6,1.4-1.1,2.1-1.7.4-.4.7-.9,1.1-1.3.4-.4.9-.8,1.4-1.1.6-.4,1.3-.7,2-1.1.6-.4,1.1-1.1,1.9-1.3,1.4-.4,2.3-1.4,3.5-2,1.1-.7,2.3-1.4,3.4-2.2.6-.5,1.5-.4,2.1-.8.3-.2,1.4.8,1.6,1.3,0,0,0,.2,0,.3-.4.8-.5,1.7-1.2,2.1-1.1.6-2,1.3-3,1.9Z" fill="#aaca60"/>
  <path d="M173.1,275.9c-.4.3-.9.6-1.3,1-.1.1-.5,0-.3.6,0,.3-.5-.1-.6,0-.4.4-.8.6-1.2,1-.4.4-.6.9-1,1.2-.3.4-.9.5-1.1,1-.1.5-.8.3-1,.7-.2.4-.5.7-1,.8-.3,0-.7,0-.9.4,0,.2,0,.5-.2.6-.2.1-.5,0-.2.6,0,0-.1,0-.2,0-.4-.2-.6,0-.5.3,0,.3,0,.4-.2.5-.3.3-.6.6-1,.8-.3.2-.7.2-.9.4-.3.2-.4.6-.8.6-.4,0-.6.2-.9.4-.1.1-.5,0-.1.6,0,0,0,0,0,0-.9-.3-.5.9-1,1-.5.2-.8.7-1.2,1,0,.1-.3,0-.1.5,0,.1,0,.3-.1.2-.7-.2-.7.4-1.1.6-.4.2-.5.8-1.2.7-.3,0-.5,0-.3.7.1.3-.2.2-.3.4,0,.1,0,.4,0,.5,0,0-.3,0-.5,0,0,0,0,0,0,0,0,.9-1.1.8-1.4,1.4-.3.6-.8,1-1.4,1.5-.3.2-.7.4-1.7-.2-.5-.3-.9-.6-1-1,0-.2-.2-.5-.1-.6,0-.2.1-.5.2-.7.2-.4,0-1.1.6-1.3.2,0,0-.4.5-.1,0,0,.1,0,.1,0-.2-1,.6-1.1,1-1.5.3-.4.2-1.2.8-1.4-.2-.7,0-.8.4-.9,1.2-.3,1.6-1.3,2.4-2,.8-.7,1.5-1.4,2.3-2.1.1-.1,0-.5.3-.4.3,0,.4-.3.5-.4.2-.1.2-.4.5-.4,1.1,0,1.4-.9,2.1-1.4.7-.5,1.3-1,1.8-1.6.3-.4.5-1,.9-1.2.2,0,.2-.5.7-.2.2,0,0-.4.1-.5.2-.3.5-.5.8-.7.4-.3.8-.6,1.1-.9.2-.2.3-.6.5-.8.2-.2.4-.4.7-.6.3-.2.8-.3,1.1-.5.3-.2.5-.7,1-.7.9,0,1.3-.7,1.9-1.1.6-.4,1.2-.8,1.7-1.3.3-.3.9-.1,1.2-.3.1-.1,1.2.9,1.5,1.4,0,0,0,.2,0,.2,0,.6.1,1.4-.2,1.6-.6.3-1,.7-1.5,1.1Z" fill="#aaca60"/>
  <g>
    <path d="M357.5,206.6c-.4-.4-.7-.8-1.1-1.2-.2-.1-.1-.5-.6-.2-.3.1,0-.5,0-.6-.4-.3-.7-.7-1.1-1.1-.4-.3-.9-.5-1.3-.8-.4-.3-.5-.9-1.1-1-.5,0-.4-.7-.8-.9-.4-.2-.7-.4-.9-.9,0-.3-.1-.7-.4-.8-.2,0-.5,0-.7-.1-.1-.1,0-.5-.6-.1,0,0,0-.1,0-.2.1-.4,0-.6-.4-.5-.3,0-.4,0-.5-.1-.3-.3-.6-.5-.9-.9-.2-.3-.3-.6-.4-.9-.2-.3-.6-.3-.6-.7,0-.4-.2-.6-.4-.8-.1-.1,0-.5-.6-.1,0,0,0,0,0,0,.2-.9-.9-.5-1.1-1-.2-.5-.7-.8-1.1-1.1-.1,0,0-.3-.5,0-.1,0-.3,0-.2-.1.2-.7-.4-.7-.6-1.1-.2-.4-.7-.5-.7-1.2,0-.3,0-.5-.7-.3-.3.1-.2-.2-.4-.3-.1,0-.4,0-.5,0,0,0,0-.3,0-.5,0,0,0,0,0,0-.9,0-.7-1.1-1.3-1.4-.6-.3-1-.9-1.4-1.4-.2-.3-.3-.7.3-1.7.3-.4.7-.8,1.1-.9.3,0,.5-.1.6,0,.2,0,.5.1.7.2.4.2,1.1.1,1.2.6,0,.2.4,0,0,.5,0,0,0,.1,0,.1,1-.1,1,.7,1.4,1,.4.3,1.2.2,1.3.8.6-.2.8,0,.8.4.2,1.2,1.2,1.5,1.9,2.3.6.8,1.4,1.4,2.1,2.1.1.1.5,0,.4.3,0,.3.3.3.4.5.1.1.4.2.4.4,0,1,.9,1.3,1.5,1.9.5.6,1,1.2,1.7,1.6.4.3,1,.3,1.2.8.1.2.5,0,.2.7,0,.2.4,0,.5,0,.3.2.5.4.7.7.3.3.6.7,1,1,.2.2.6.2.8.3.3.2.5.4.6.6.2.3.3.7.5,1,.2.3.7.4.8.9.1.8.8,1.2,1.2,1.7.4.5.9,1.1,1.4,1.5.3.2.2.8.4,1.1.1.1-.8,1.3-1.2,1.6,0,0-.2.1-.2.1-.6,0-1.3.3-1.6,0-.4-.5-.8-.9-1.3-1.3Z"/>
    <path d="M302.2,172.2c-1,.3-2.1.6-3.1,1-.4.1-.8,0-1.1.7-.1.3-.7-.2-1,0-.9.4-1.9.7-2.9,1.1-.9.4-1.8.9-2.7,1.3-.9.4-2,.4-2.8,1.1-.7.5-1.5.3-2.2.7-.7.4-1.4.8-2.3.9-.6,0-1.2,0-1.6.4-.3.2-.4.6-.8.8-.3.1-.8.1-.7.8,0,0-.2,0-.3,0-.5-.2-.9.1-1,.5,0,.4-.3.5-.5.7-.5.5-1,1-1.5,1.4-.4.4-.9.6-1.2,1-.4.4-.4,1.1-.9,1.4-.5.3-.7.8-.9,1.3-.1.3-.5.5,0,1,0,0,0,.1,0,.2-1.1.6-.2,1.8-.6,2.6-.4.9-.4,1.9-.5,2.9,0,.3-.2.5.2.8.2.1.1.4,0,.5-.7.7-.4,1.5-.6,2.3-.2.9,0,1.8-.6,2.7-.3.4-.4.9,0,1.4.2.2,0,.6,0,1,0,.3.2.6.2.8,0,.2-.3.4-.4.6,0,0,0,.1,0,.2.5,1.4-.6,2.5-.5,3.8,0,1.3-.2,2.6-.3,3.8,0,.7-.3,1.4-1.5,1.9-.5.2-1.1.2-1.4-.1-.2-.2-.4-.5-.5-.8,0-.4-.2-.9-.3-1.3-.1-.9-.6-1.8-.2-2.6.1-.3-.2-.6.4-.8,0,0,.1-.1,0-.2-.7-1.3,0-2.4.1-3.6,0-1-.4-2.1,0-3-.6-.6-.4-1.3-.1-1.8.9-1.9.6-3.8,1-5.9.4-2.1.6-4.2,1.3-6.3.1-.4-.1-.8.3-1.1.4-.3.4-.9.6-1.3.2-.4.3-.9.6-1.2,1.4-1.2,2.1-2.9,3.5-4.1.7-.6,1.4-1.1,2.1-1.6l2.1-1.4c.8-.6,1.6-1.3,2.6-1.6.4-.1.7-.6,1.3-.2.2.1.4-.5.6-.6.6-.3,1.3-.5,1.9-.7.9-.3,1.8-.6,2.6-.9.5-.2.9-.6,1.4-.9.5-.3,1.1-.4,1.6-.6.7-.2,1.5-.2,2.2-.4.7-.2,1.4-.7,2.2-.7,1.5,0,2.7-.6,4.1-1,1.3-.3,2.7-.7,4-1.1.8-.2,1.6.1,2.3,0,.4,0,1.1,1.3,1,1.8,0,0,0,.2-.1.3-.6.6-1.1,1.4-1.9,1.5-1.2.2-2.3.5-3.5.9Z"/>
    <path d="M335.4,214.3c.4-.2.9-.4,1.3-.7.2,0,.4,0,.4-.5,0-.3.4.2.5.1.4-.3.8-.4,1.2-.6.4-.2.7-.6,1-.9.4-.2.9-.2,1.1-.6.2-.4.7,0,1-.3.3-.3.6-.5,1-.4.3,0,.6.2.8,0,.1-.1.1-.5.3-.5.2,0,.4.1.3-.5,0,0,.1,0,.2,0,.3.3.5.2.5-.1,0-.3.2-.3.3-.4.3-.2.7-.3,1-.4.3,0,.6,0,.9,0,.3,0,.5-.4.8-.2.4.2.6,0,.8,0,.1,0,.4.2.3-.5,0,0,0,0,0,0,.7.6.7-.5,1.2-.5.5,0,.9-.3,1.3-.4.1,0,.3,0,.2-.4,0-.2,0-.2.2-.1.5.5.7,0,1.1,0,.4,0,.7-.4,1.2,0,.2.1.5.2.5-.4,0-.3.3,0,.4-.2,0,0,.1-.4.2-.4,0,0,.3.2.4.2,0,0,0,0,0,0,.3-.8,1.1-.1,1.6-.5.5-.3,1.1-.4,1.7-.5.3,0,.7,0,1.2,1.1.2.5.4,1,.3,1.4,0,.3,0,.5-.2.6-.1.1-.3.3-.4.5-.3.3-.5.9-.9.7-.1,0-.2.3-.4-.2,0,0,0,0-.1,0-.2.9-.9.5-1.3.8-.4.2-.6.9-1.1.8,0,.7-.3.7-.6.5-1-.4-1.7.3-2.5.5-.8.2-1.6.6-2.4.8-.1,0-.1.4-.4.2-.2-.2-.4,0-.5.1-.2,0-.3.2-.5.2-.9-.4-1.3.2-2,.4-.6.2-1.3.4-1.8.8-.3.3-.6.7-1,.8-.2,0-.2.4-.6,0-.1-.1,0,.3-.2.4-.2.2-.5.2-.8.4-.4.2-.7.3-1.1.5-.2.1-.3.5-.5.6-.2.2-.4.3-.7.3-.3,0-.7,0-1,0-.3,0-.5.5-.9.4-.7-.2-1.2.3-1.7.5-.5.2-1.1.4-1.5.8-.3.2-.8,0-1,0-.1,0-1-1.1-1.2-1.6,0,0,0-.2,0-.2,0-.6,0-1.3.3-1.5.5-.2,1-.5,1.5-.7Z"/>
    <path d="M321.5,224.3c.4.8.9,1.6,1.5,2.3.2.3.3.7.9.6.3,0,0,.6.3.8.7.6,1.3,1.3,2,1.7.7.5,1.6.8,2.3,1.1.8.4,1.4,1,2.3,1,.7,0,1.2.7,1.9.7.7,0,1.4.1,2.1.5.5.2,1,.5,1.5.4.3,0,.6-.4,1-.3.3,0,.7.3.9-.4,0,0,.2,0,.2.1.4.4.8.3,1,0,.2-.3.5-.3.7-.4.7-.2,1.4-.3,2-.5.5-.1,1.1,0,1.6-.2.5-.2,1-.6,1.5-.6.3,0,.6,0,.8-.1.2,0,.5-.3.6-.3,0,0,.4,0,0-.4,0,0,0,0,0,0,.5.2.6,0,.5,0,0-.1-.4-.2-.2-.2,0,0,.1,0,.1,0,0,0,0,0,0,0,0,0-.3-.1-.4-.1,0,0,0-.2-.3.1-.1.1-.1.1,0,0,0,0,0-.1,0-.2,0,0-.1-.2-.2-.3-.1-.2-.3-.3-.5-.4-.3-.2-.7-.4-1-.7-.7-.6-1.6-.9-2-1.9-.2-.4-.5-.8-1.2-.7-.3,0-.5-.4-.8-.6-.2-.1-.6-.2-.8-.3-.2-.2-.2-.5-.2-.7,0,0,0-.1-.2-.2-1.4-.5-1.6-2.1-2.5-3.1-.9-1-1.6-2.2-2.2-3.4-.3-.7-.5-1.5.3-2.4.4-.4.9-.6,1.3-.5.3,0,.6.2.8.4.2.3.6.6.8.8.5.6,1.4.9,1.6,1.7,0,.3.5.3.2.8,0,0,0,.2,0,.2,1.3.4,1.5,1.5,2.3,2.3.6.6,1.7.8,2.2,1.6.8-.1,1.1.3,1.4.8.5.8,1.1,1.4,1.9,1.9.4.2.8.4,1.1.7,0,0,.3.1.5.2l.6.3,1.1.6c1.4.7,2.9,1.4,4.3,2-.2.3-.5.6-.9.9l-1,.9-1,.9-1.1.9c-.4.4-.6.9-1.4,1.1-.4,0-.7.3-1,.5-.2.2-.4.3-.6.4-.4.2-.7.5-1.1.6-1.8.1-3.1,1.1-4.8,1.4-1.6.3-3.2.5-4.9.6-1,.1-2,.4-3,.1-.4-.1-.9.1-1.3-.5,0-.2-.6.2-.9.1-.7-.1-1.4-.3-2-.6-.9-.3-1.8-.7-2.7-1.1-.5-.2-1.2-.3-1.7-.5-.6-.3-1.1-.6-1.6-1-.6-.5-1.1-1.2-1.6-1.7-.6-.6-1.4-1-1.7-1.8-.6-1.4-1.6-2.4-2.3-3.7-.7-1.3-1.2-2.7-1.6-4.2-.2-.9.2-1.7.3-2.6,0-.4,1.6-.7,2-.5,0,0,.2.1.2.2.4.7,1.1,1.2,1.1,1.8,0,.9.4,1.9.9,2.8Z"/>
    <path d="M341.3,247.8c-.7,0-1.5-.2-2.2-.2-.3,0-.5-.3-.9.2-.2.2-.4-.4-.6-.4-.7,0-1.4-.2-2.1-.3-.7,0-1.4,0-2.1,0-.7,0-1.3-.6-2-.5-.6.1-1-.6-1.6-.6-.6,0-1.2-.3-1.7-.7-.3-.3-.6-.7-1-.8-.3,0-.6,0-.9,0-.2-.2-.3-.6-.9-.2,0,0,0-.1,0-.2,0-.5-.3-.7-.7-.6-.4,0-.5,0-.7-.2-.5-.4-1.1-.8-1.4-1.4-.3-.4-.5-.9-.7-1.3-.2-.4-.8-.7-.8-1.3,0-.6-.2-.9-.4-1.3-.1-.2,0-.6-.6-.5,0,0,0,0,0-.1.5-1-.8-1.2-.9-1.9,0-.8-.4-1.4-.6-2.1,0-.2,0-.4-.4-.5-.2,0-.2-.2-.1-.3.5-.7,0-1.1,0-1.7,0-.6-.4-1.2,0-1.9.2-.3.2-.6-.4-.9-.3-.1,0-.4-.1-.6,0-.2-.4-.3-.4-.5,0-.2.2-.3.3-.5,0,0,0-.1,0-.1-.8-.8,0-1.8-.2-2.6-.2-.9-.2-1.8-.2-2.6,0-.5.2-1,1.3-1.4.5-.2,1.1-.2,1.4,0,.2.1.5.3.5.5.1.3.3.5.4.8.2.5.8,1,.5,1.6,0,.2.2.4-.3.5,0,0-.1,0,0,.1.8.7.4,1.5.5,2.2.1.6.8,1.2.6,1.8.7.3.6.7.5,1-.5,1.3.2,2.4.4,3.6.2,1.2.7,2.3,1.2,3.4,0,.2.5.2.3.5-.1.3.2.5.3.7.1.2.4.3.3.6,0,.5.2.9.5,1.3l.9.9c.3.3.6.7,1,.9.2.1.4.3.6.4.2.1.4.2.6.3.5.2,1.2.1,1.6.5.2.1.6,0,.6.6,0,.2.4-.1.5-.1.4,0,.7.2,1.1.4.5.2,1,.4,1.6.4.3,0,.7-.1,1.1,0,.4,0,.7,0,1,.2.4.2.8.4,1.3.6.5.1,1,0,1.4.3.8.6,1.7.5,2.5.6.9.1,1.7.2,2.6.2.5,0,.9.5,1.4.5.2,0,.5,1.5.3,2,0,0,0,.2-.1.2-.5.4-1,1.1-1.5,1.1-.8-.1-1.6-.1-2.5-.2Z"/>
    <path d="M327.9,258.9c.3-.2.5-.3.8-.5,0,0,.3,0,.1-.4-.1-.2.4.2.4,0,.2-.2.5-.4.7-.6.2-.2.2-.6.4-.9.2-.2.6-.3.6-.7,0-.4.5-.2.6-.5,0-.3.2-.5.6-.6.3,0,.5,0,.6-.2,0-.1-.1-.4,0-.5,0,0,.4,0,0-.5,0,0,0,0,.2,0,.4.2.5,0,.3-.2-.1-.3,0-.3,0-.4.2-.2.3-.5.6-.6.2-.1.5-.1.7-.2.2-.1.1-.5.5-.4.4,0,.5-.1.6-.3,0,0,.4,0,0-.5,0,0,0,0,0,0,.8.3.2-.6.6-.8.4-.1.5-.5.7-.7,0,0,.3,0,0-.4-.1-.1,0-.2,0-.2.6.2.5-.2.8-.3.3-.1.3-.6.8-.4.2,0,.4,0,0-.5-.2-.2.1-.2.2-.3,0-.1-.1-.3,0-.4,0,0,.3,0,.4,0,0,0,0,0,0,0-.2-.8.7-.5.9-.9.1-.4.5-.7.8-1,.2-.1.5-.2,1.5.4.4.3.9.7,1,.9.1.2.2.4.2.5,0,.2,0,.4,0,.5,0,.3.2.9-.2.9-.1,0,0,.3-.4,0,0,0-.1,0,0,0,.3.8-.3.8-.5,1.1-.2.3,0,.9-.3,1,.4.6.1.6-.1.7-.9,0-1,.8-1.5,1.3-.5.4-.9,1-1.3,1.5,0,0,.1.4-.2.3-.3,0-.2.2-.3.3,0,0,0,.3-.3.3-.8,0-.9.6-1.3,1-.4.3-.8.7-1,1.2-.1.3,0,.8-.4.9-.1,0,0,.4-.5.1-.2,0,0,.3,0,.4-.1.2-.3.3-.5.5-.2.2-.5.4-.7.7-.1.2,0,.5-.2.7-.1.2-.3.3-.5.4-.3.1-.6.1-.8.3-.2.1-.3.5-.7.5-.7,0-1,.4-1.4.6-.5.2-.9.4-1.3.8-.2.2-.7-.2-.9,0-.1,0-.8-1.3-.9-1.8,0,0,0-.2,0-.2,0-.5,0-1.2.2-1.3.3,0,.6-.3.9-.5Z"/>
    <path d="M317.1,206.1c0-.2,0-.3,0-.5,0,0,.3-.1-.3-.2-.3,0,.4,0,.4-.1,0-.2,0-.3,0-.5,0-.2-.3-.3-.3-.5,0-.2.3-.3,0-.5-.3-.2.2-.2.1-.4-.1-.1-.2-.3,0-.4.2,0,.4-.1.3-.2,0,0-.4-.1-.3-.2,0,0,.3,0-.3-.2,0,0,0,0,.2,0,.4,0,.4-.1.1-.2-.3,0-.2-.1-.2-.2,0-.1,0-.3,0-.4,0,0,.3-.2.4-.3,0,0-.2-.2.1-.3.3,0,.3-.2.3-.2,0,0,.3,0-.3-.2,0,0,0,0,0,0,.8,0-.2-.3,0-.5.2-.1,0-.3,0-.5,0,0,.2,0-.3-.2-.2,0-.2,0,0,0,.6,0,.3-.2.4-.3.1-.1-.1-.3.4-.4.2,0,.3-.1-.2-.2-.3,0,0,0,0-.2s-.3-.1-.3-.2c0,0,.2,0,.3,0,0,0,0,0,0,0-.6-.3.3-.4.1-.6-.2-.2,0-.4,0-.6,0-.1.3-.2,1.4-.1.5,0,1.1,0,1.4.2.2,0,.5.1.5.2,0,0,.2.2.3.2.2.2.7.3.4.4,0,0,.2.1-.3,0,0,0-.1,0,0,0,.8.3.2.4.3.6,0,.2.6.4.4.5.6.2.5.2.3.3-.7.2-.3.6-.4.9-.1.3,0,.6-.1.9,0,0,.3.1,0,.2-.3,0,0,.1,0,.2,0,0,.1.1,0,.2-.7.2-.3.5-.4.7,0,.2-.2.5,0,.7,0,.2.4.3.3.5,0,0,.3.2-.3.2-.2,0,.3.1.3.1,0,.1,0,.2,0,.3,0,.1,0,.3,0,.4,0,0,.3.2.3.3,0,0,0,.2,0,.3,0,.1-.3.2-.4.3,0,.1.2.3,0,.3-.5.2-.3.4-.4.6,0,.2-.1.4,0,.6,0,.1-.5.2-.5.3,0,0-1.5,0-2,0,0,0-.2,0-.2,0-.5-.1-1.2-.3-1.1-.4,0-.2,0-.4,0-.6Z"/>
    <path d="M330.5,206.1c0-.2,0-.3,0-.5,0,0,.3-.1-.3-.2-.3,0,.4,0,.4-.1,0-.2,0-.3,0-.5,0-.2-.3-.3-.3-.5,0-.2.3-.3,0-.5-.3-.2.2-.2.1-.4-.1-.1-.2-.3,0-.4.2,0,.4-.1.3-.2,0,0-.4-.1-.3-.2,0,0,.3,0-.3-.2,0,0,0,0,.2,0,.4,0,.4-.1.1-.2-.3,0-.2-.1-.2-.2,0-.1,0-.3,0-.4,0,0,.3-.2.4-.3,0,0-.2-.2.1-.3.3,0,.3-.2.3-.2,0,0,.3,0-.3-.2,0,0,0,0,0,0,.8,0-.2-.3,0-.5.2-.1,0-.3,0-.5,0,0,.2,0-.3-.2-.2,0-.2,0,0,0,.6,0,.3-.2.4-.3.1-.1-.1-.3.4-.4.2,0,.3-.1-.2-.2-.3,0,0,0,0-.2s-.3-.1-.3-.2c0,0,.2,0,.3,0,0,0,0,0,0,0-.6-.3.3-.4.1-.6-.2-.2,0-.4,0-.6,0-.1.3-.2,1.4-.1.5,0,1.1,0,1.4.2.2,0,.5.1.5.2,0,0,.2.2.3.2.2.2.7.3.4.4,0,0,.2.1-.3,0,0,0-.1,0,0,0,.8.3.2.4.3.6,0,.2.6.4.4.5.6.2.5.2.3.3-.7.2-.3.6-.4.9-.1.3,0,.6-.1.9,0,0,.3.1,0,.2-.3,0,0,.1,0,.2,0,0,.1.1,0,.2-.7.2-.3.5-.4.7,0,.2-.2.5,0,.7,0,.2.4.3.3.5,0,0,.3.2-.3.2-.2,0,.3.1.3.1,0,.1,0,.2,0,.3,0,.1,0,.3,0,.4,0,0,.3.2.3.3,0,0,0,.2,0,.3,0,.1-.3.2-.4.3,0,.1.2.3,0,.3-.5.2-.3.4-.4.6,0,.2-.1.4,0,.6,0,.1-.5.2-.5.3,0,0-1.5,0-2,0,0,0-.2,0-.2,0-.5-.1-1.2-.3-1.1-.4,0-.2,0-.4,0-.6Z"/>
  </g>
  <path d="M287.4,232.7c-.9-.4-1.8-.8-2.7-1.2-.4-.1-.6-.6-1.2-.3-.3.1-.3-.6-.6-.8-.9-.4-1.6-1-2.4-1.6-.8-.5-1.7-1-2.4-1.6-.7-.6-1.1-1.6-1.9-2.1-.7-.5-.7-1.4-1.2-2-.5-.7-1-1.4-1-2.3,0-.6,0-1.2-.2-1.8-.1-.3-.5-.6-.6-1.1,0-.4.2-.8-.4-1.1,0,0,0-.2.1-.3.4-.4.4-.9.1-1.3-.2-.4-.2-.7-.1-1,.1-.9.3-1.9.8-2.7.3-.6.8-1.1,1.2-1.7.4-.6.6-1.3,1.3-1.6.3-.2.6-.3.8-.5.2-.2.5-.4.7-.6.3-.2.8-.2.7-.9,0,0,.1-.1.2-.1.7,0,1.1-.2,1.5-.6.4-.3.9-.7,1.4-.8,1.2,0,2.3-.3,3.5-.2.3,0,.6.3.9-.1.1-.1.5,0,.6,0,.6.8,1.5.7,2.2,1.2.8.5,1.7.7,2.1,1.6.2.4.5.7,1.2.5.3,0,.5.4.8.5.2.1.6,0,.8.2.2.1.2.4.3.7,0,0,0,.1.2.1,1.4.3,1.6,1.9,2.6,2.8.9,1,1.6,2.3,1.9,3.8.2.8,0,1.8-1.1,2.3-.5.2-1.1.2-1.4,0-.2-.2-.5-.4-.6-.5-.1-.3-.3-.5-.5-.8-.4-.5-1-.8-1.1-1.4,0-.2-.4-.2,0-.7,0,0,0-.1,0-.2-1.1-.2-1.3-1.2-2.1-1.8-.6-.5-1.6-.5-2.1-1.2-.7.2-1.1-.1-1.3-.5-.9-1.4-2.4-1.6-3.6-1.9-1.3-.3-2.4,0-3.5.7-.2.1-.1.5-.5.4-.3,0-.5.3-.7.5-.2.2-.3.5-.6.6-1.2.4-1.4,1.7-1.8,2.7-.2.5-.3,1.1-.4,1.6,0,.6,0,1.1.2,1.7.2.7.7,1.3.8,1.9,0,.3.5.5,0,1-.1.2.4.2.5.4.3.4.5.8.7,1.3.4.6.7,1.2,1.3,1.6.3.3.8.4,1.1.7.4.3.7.5,1,.9.4.4.7.9,1.2,1.3.5.4,1.1.5,1.5,1,.7,1,1.8,1.2,2.8,1.7,1,.5,2.1.9,3.2,1.2.6.1,1,.8,1.7,1,.3,0,.2,1.6,0,2.1,0,0-.1.2-.2.2-.7.3-1.5.8-2.2.5-1-.4-2.1-.7-3.1-1.2Z"/>
  <path d="M298.7,240c.5,1.4.5,3,0,4.4-.5,1.4-1.3,2.5-2.3,3.4-.7.7-1.7,1-2.4,1.9-.4.5-1.5.2-2.2.4-1.7.5-3.4.6-5,.7v-3.8c0,0,1.2,0,1.2,0,1.9,0,3.9,0,6,.2,2,.2,4.1,1,6.1,1.5.9.2,1.7.6,2.4,1.2.7.5,1.4,1.1,2.1,1.6,1.5,1.1,2.9,2.6,3.7,4.4.5,1.3.8,2.7,1.1,4,.2.8.6,1.7.4,2.7-.1.9-.6,1.8-.3,2.8,0,0-.2.4-.4.6-.8.7-1.3,1.7-1.5,2.5-.2.8-.7,1.3-1.2,1.8-1.3,1.4-2.9,2.6-4.7,3.4-1.3.6-2.7.8-4,1.1-1.4.3-2.8.8-4.1.6-1.3-.2-2.4-.1-3.6,0-.7,0-1.5-.3-2,.4,0,0-.3,0-.4,0-.6-.3-1.2-.3-1.8-.3v-3.9c1.3-.1,2.6-.6,4-.4,2,.3,4.2.4,6.2.8.6,0,1.1.4,1.7,0,.2-.1.8,0,1,.2,1.4,1,2.9,1,4.6,1.9.9.5,1.9,1,2.8,1.8.4.4.9.9,1.2,1.5.3.6.5,1.3.5,1.9,0,1.1,0,2.4.1,3.7,0,.7-.7,1.6-1.1,2.3-.3.6-.5,1.2-1,1.7-.4.4-.9.6-1.4.8-.1,0-.3.2-.4.3-.9,1.1-2.1,1.9-3.4,2.4-1.2.6-2.5,1-3.7,1.6-2.3,1.2-4.9,2.1-7.4,2.8-1.4.4-2.9.6-4.1-.2-.6-.4-.7-.9-.2-1.4.4-.3.8-.7,1.2-.9.7-.3,1.4-.7,2.2-1,1.5-.7,2.8-1.7,4.4-2,.5-.1.9-.6,1.5-.3,0,0,.3,0,.4,0,1.7-1.6,3.9-2.1,5.6-3.4.7-.5,1.3-1.2,1.8-1.8.5-.7.8-1.3,1.2-1.7-.3-.9-.2-1.1-.1-1.7,0-.3,0-.4,0-.6,0-.2-.2-.4-.5-.6-.5-.4-1.1-.8-1.9-1.1-1.6-.6-3.5-1-5.2-1.4-3.2-.7-6.5-.9-9.7-.8v-4.4c0,0,1.3,0,1.3,0,.7,0,1.2-.3,2,0,.7.3,1.6,0,2.4,0,.7,0,1.5-.2,2.2-.2,1.4.2,2.9,0,4.2-.5,1.3-.5,2.5-1.1,3.6-1.9,2.2-1.5,3.9-3.8,4.1-6.2,0-1.5-.5-2.8-1.1-4.1-.2-.6-.9-1-.8-1.8,0-.3-.8-.4-1.1-.7-.8-.7-1.7-1.4-2.6-1.9-1.3-.7-2.8-1.3-4.4-1.6-1-.2-2-.1-3-.2-1.1,0-2.1-.2-3.2-.3-.9-.1-1.8-.3-2.8-.4v-4.6c.4,0,.9,0,1.3,0,1.4,0,2.7-.5,3.8-.7,1.1-.1,2-.6,2.6-1.3.7-.7,1-1.6,1-2.4,0-.8-.3-1.6-1-2.3-.7-.8-1.6-1.4-2.7-1.9-1.2-.6-2.3-1.6-3.6-2.5-.3-.2-.5-.8-.4-1.3,0-.5.3-1,.5-1.1.1,0,.2,0,.3,0,1.3.5,2.7.3,4.1,1.1,2.1,1.2,4.9,2.7,6.1,5.8Z"/>
  <path d="M245.1,275.6c-2.1.1-4.2,0-6.4-.1-.8,0-1.6-.5-2.5-.1-.5.2-1.1-.6-1.9-.9-2-.6-4.1-1.8-5.6-3.7-.7-.9-1.4-2-1.7-3.1-.2-.6-.3-1.2-.4-1.8,0-.6,0-1.2,0-1.8.2-2.3,1.4-4.2,2.2-6,.6-1.6,2-2.5,2.9-3.8,1-1.3,2.2-2.6,3.6-3.5,1-.6,2.1-1.2,3.1-1.9.6-.5,1.1-1,1.8-1.4.7-.3,1.6-.4,1.9-1.2,0,0,.4,0,.6,0,.9,0,1.8-.2,2.4-.7.6-.4,1.1-.6,1.7-.7,1.6-.4,3.3-.7,4.9-.9,1.2,0,2.5,0,3.7.1,1.3,0,2.7-.2,3.8.2.4.1.7.2,1.1.3l-.3,4c-.8-.2-1.6-.3-2.4-.4-.7-.1-1.4-.6-2.1,0,0,0-.3,0-.4-.1-.8-.6-1.7-.9-2.7-1.1-.9-.2-1.9-.4-2.8-.9-.9-.5-1.7-1.1-2.6-1.6-.8-.6-1.8-1.1-2.7-2.1-.5-.6-.8-1.4-1.5-2-.3-.2-.5-1.1-.4-1.6.2-1.1.5-2.1.8-2.9.3-.9.5-1.6.9-2.3.9-1.6,1.7-3.3,3.2-4.4.3-.2.7-.5,1-.9.3-.3.6-.8.7-1.3.1-.5,1-.9,1.4-1.3.4-.4.6-.9,1-1.2.4-.3.9-.3,1.3-.5.1,0,.3-.1.4-.2,1.8-2,4.4-2.4,6.6-3.6,1.1-.6,2.3-1.1,3.4-1.6,1-.4,2-.9,2.7-1.4.4-.3.7-.5,1-.7.3-.2.7-.3,1.3-.6.5-.3,1.1-.4,1.4.3.2.5.2,1.2,0,1.8-.4.9-1,1.6-1.6,2.2-.7.6-1.3,1.2-2.1,1.7-.7.5-1.5.8-2.2,1-.5,0-.9.6-1.5.3,0,0-.3,0-.4,0-1.6,1.6-3.7,2.1-5.4,3.2-1.5,1-2.4,2.5-3.9,3.4-.3,1.1-1.1,1.8-1.8,2.3-1.3,1-2.2,2.4-2.9,3.9-.3.7-.5,1.4-.6,2,0,.3,0,.5,0,.7,0,.2,0,.3.2.5.2.4.8.8,1.5,1.3.7.5,1.4.9,2.2,1.3,1.5.8,3.1,1.4,4.7,1.9.6.2,1.1,0,1.7.3.6.4,1.4.3,2.2.4.2,0,.3,0,.5,0l-.4,4.4c-.5,0-1.1,0-1.6-.1-2.7-.8-5.6-.2-8.3.1-2.7.4-5.4,1.1-7.8,2.4-1.5.8-2.5,1.9-3.9,2.8-.6.4-.9,1.1-1.8,1.2-.3,0-.4.8-.7,1.1-.7.8-1.5,1.7-2.1,2.6-.9,1.2-1.7,2.5-2.1,3.9-.2.8-.2,1.7-.1,2.3,0,.4,0,.7.1,1,0,.3.2.7.3,1,.3.8.7,1.6,1.6,2.3.9.7,2.1.9,3.2,1.4,2.1,1.1,4.5.9,6.9,1,2.4,0,4.8-.2,7.2-.8,1.3-.3,2.7,0,3.9-.4.6-.2,1.8,1,1.7,1.6,0,.1,0,.2-.2.3-1.2.8-2.3,1.9-3.9,2.1-2.4.4-4.7.7-7.1.9Z"/>
  <path d="M304.6,187.9c.2.5.3,1.1.5,1.6,0,.2-.1.5.5.5.3,0-.3.4-.2.6.2.5.3,1,.4,1.5.2.5.5.9.7,1.4.2.5,0,1.1.4,1.5.3.4,0,.9,0,1.3.2.4.3.9.1,1.3-.1.3-.3.7-.2,1,0,.2.4.4.4.6,0,.2-.3.4.3.6,0,0,0,.1-.1.2-.4.2-.4.5-.1.7.3.2.2.4.2.5,0,.5,0,.9-.1,1.4,0,.3-.4.7-.5,1-.1.3,0,.8-.3,1-.4.3-.4.6-.5.9,0,.2-.4.3.2.6,0,0,0,0,0,.1-1,.3,0,1.1-.5,1.5-.4.4-.5,1-.7,1.5,0,.1-.3.2,0,.5.1.1,0,.3,0,.3-.8,0-.6.7-.9,1-.3.4-.3.9-1,1.1-.3,0-.5.2-.2.8.2.2-.2.3-.3.5,0,.1,0,.4,0,.5,0,.1-.3,0-.5,0,0,0,0,0,0,0,0,1-1.1,1-1.4,1.6-.4.6-1,1.1-1.6,1.5-.3.2-.8.3-1.7-.4-.4-.3-.7-.8-.8-1.1,0-.3-.1-.5,0-.6,0-.2.1-.4.2-.6.2-.4,0-1,.5-1.1.1,0,0-.3.5,0,0,0,.1,0,.1,0-.2-.9.5-1,.8-1.4.3-.4,0-1.1.5-1.3-.4-.6-.1-.7.2-.8,1-.4,1.1-1.4,1.5-2.1.5-.8.7-1.6,1-2.5,0-.1-.3-.4,0-.5.3,0,.2-.4.2-.5,0-.2,0-.4.1-.5.8-.6.5-1.3.6-2,.1-.7.2-1.4,0-2.1-.1-.4-.5-.8-.4-1.3,0-.2-.3-.4.3-.6.2,0-.3-.2-.3-.3,0-.3,0-.6-.1-.9,0-.4,0-.8-.2-1.2,0-.2-.4-.4-.5-.7-.1-.2-.2-.5-.2-.8,0-.4.1-.7,0-1.1,0-.4-.4-.7-.2-1.1.3-.8-.1-1.3-.3-2-.1-.6-.3-1.3-.6-1.9-.2-.3.2-.8,0-1.2,0-.2,1.3-.9,1.8-1,0,0,.2,0,.2,0,.6.2,1.4.3,1.4.7.1.6.4,1.2.6,1.8Z"/>
  <path d="M315.9,186.1c1.9-.8,3.6-2.1,4.8-3.9.4-.6.9-1.1.9-1.9l3.4,2.2c0,0,0,.2,0,.2,0,.2-.1.2-.3.4-.2.1-.4.3-.5.6-.2,1.4.5,3.3,1.8,4.2,1.4,1,3.2,1.2,5.1,1.2,1.9,0,4,0,5.8-.8,1.5-.7,3.1-.8,4.5-1.6,1.4-.9,2.8-1.9,4.2-2.8,1-.6,2-1.4,2.6-2.4.4-.6.5-1.4,1-2,.4-.6,1-1.3.7-2.1,0,0,.2-.3.3-.4.7-.6,1-1.6.9-2.3-.1-.7,0-1.2.1-1.8.2-1.6.2-3.2,0-4.7-.2-1.1-.3-2.3-.8-3.3-.5-1-1.5-1.7-2.2-2.5-.7-.9-1.7-1.3-2.8-1.6-.6-.2-1.3-.6-1.9,0,0,0-.3,0-.4,0-.9-.5-1.8-.3-2.6,0-.9.3-1.6.8-2.5,1.1-.4.2-.9.4-1.3.6-.2.1-.4.3-.6.4l-.3.2-.2.2c-.1,0-.2.2-.3.3-.8.7-1.5,1.5-2.3,2.6-.8,1.2-1.7,2.4-2.5,3.7-.4.5-.8,1.1-1.2,1.7-.2.3-.4.6-.6.9-.2.3-.4.7-.7,1.2,0,0-.1,0-.2,0,0,0-.1-.2-.1-.7,0-.5,0-1.1.1-1.6.4-2.7.5-4.6.5-6.5,0-.5,0-.9,0-1.3,0-.5,0-.9,0-1.3,0-.4,0-.8-.1-1.2v-.6c0,0-.1-.3-.1-.3h0c-.1-.9-.4-1.7-.8-2.3-.3-.6-.7-1.1-1.1-1.8-.3-.5-1.2-1.1-2.1-.7-.4.2-1.1-.2-1.7-.2-.5,0-1,.3-1.5.3-.4,0-.9-.2-1.3-.2-.1,0-.3,0-.4,0-1.2.5-2.3.8-3.4,1.2-1.1.4-2.3.9-3.1,1.8-1.6,1.7-2.8,3.9-3.1,6.2-.2,1.3-.2,2.5-.9,3.8-.3.6-.8.8-1.4.3-.4-.4-.8-1-.9-1.6-.2-1-.4-2-.4-3,0-2.1.3-4.4,1.8-6.1.4-.5.7-1.4,1.5-1.4.1,0,.3-.2.4-.3.7-1.3,1.9-2.3,3.2-3,1.3-.7,2.7-1.1,4.1-1.5,1.2-.3,2.4-.7,3.6-.9,1.2-.2,2.5-.2,3.8.2,1.6-.4,3.5.5,4.7,1.7,1,1,1.8,2.1,2.3,3.3.3.6.5,1.2.7,1.8,0,.3.2.6.2.9l.2.7v.6c.1,0,.1.1.1.2,0,0,0,.2,0,.1,0,0,0,0,0-.1.1-.1.2-.2.4-.4h.1c0,0,.6-.6.6-.6.5-.4,1.1-.7,1.6-1,2.2-1.2,4.8-2,7.5-2,.9,0,1.7-.3,2.7.2.9.4,2.2.6,3.2,1.1,1,.4,2,1,2.7,1.7,2.9,3.2,4.4,7.2,4.4,11,0,3.9-1.1,7.6-2.9,11-1.1,2-2.3,4.1-4.2,5.6-.8.6-1.4,1.6-2.6,1.6-.3,0-.8.9-1.4,1.3-1.3.9-2.8,1.5-4.3,2.1-2.1.8-4.3,1.2-6.4,1.5-1.3.2-2.7.5-4.2.4-1.5,0-3.1-.4-4.6-1.2-1-.5-1.8-1.1-2.6-2-.8-.8-1.3-1.8-1.8-2.8-.4-1-.8-2.1-.9-3.3,0-1.2.1-2.5.8-3.5l.5-.7.6-.6,3.3,2.1c-1.5,2.7-3.4,5.1-6.1,6.6-1.5.9-3.1,1.4-4.9,1.7-1.7.3-3.4.3-5.1,0-2-.3-3.4-1.5-5-2.5-.4-.2-.6-.8-.5-1.4,0-.5.2-1,.5-1.1.1,0,.3,0,.4,0,1.5.6,3,.5,4.4,1,2.2.7,4.7.6,6.9-.3Z"/>
</svg>