<?xml version="1.0" encoding="UTF-8"?>
<svg id="ARTWORK" xmlns="http://www.w3.org/2000/svg" width="600" height="600" viewBox="0 0 600 600">
  <g>
    <path d="M299.8,364.1c-21.3-4.7-43.2-9.6-62.3-20.7-17.3-10.1-45.7-43.2-68.1-25.4-9.3,7.4-13.5,20.4-10.6,31.9,2.9,11.2,11.8,19.9,21.1,26.8,27.6,20.4,61.3,30.4,94.2,39.9,14.1,4.1,28.2,8.2,42.7,10.2,11.6,1.6,23.5,1.9,35.1.7,11.4-1.1,22.8-4.1,32.5-10.3,8.5-5.4,19.3-16,19.6-26.8.2-5.8-2.5-10.9-7.6-13.8-8.6-4.7-17.5-.9-26.2.9-6.7,1.4-24.3-.6-30.9-2.2-3.9-1,2.2-.1-1.4,1.7-1.9,1-2.4,1.7-3.6,3.4-3.9,5.3-8.3,10.2-13.1,14.6-1.5,1.3-3.4,2.7-5.3,2-1.6-.6-2.4-2.5-4-3-2.2-.7-1.7,1.3-4,1.6-3.4.3-7.9-3.6-7.4-7,.6-3.4,5.6-8.9,5.6-12.4-4,6.8-14.7,12.7-20.3,7.2,2.7-4.6,9.3-12.7,13.5-18.2" fill="#00b4e9"/>
    <path d="M302.7,388.4c0,.1,0,.2,0,.3,0,0,0,.2,0,.3,0,0,0,.2,0,.2v.3c0,.4.2.8.5,1.2.5.8,1.3,1.6,2.1,2.2.9.6,1.9.9,2.6.9.4,0,.4,0,.7-.3l.2-.2c0-.1.2-.2.3-.3.2-.2.4-.4.7-.5.5-.3,1-.4,1.6-.4,1.1,0,2.2.4,3.1,1.1.5.4.7.6,1,.9l.7.7c.4.4.7.6.9.7.2,0,.5,0,.8,0,.8-.2,1.7-.9,2.6-1.8,1-.9,1.9-1.8,2.8-2.7,2.7-2.7,5.6-5.6,7.7-9.1.5-.9,1.4-1.9,2.5-3.2.6-.6,1.3-1.5,2.3-2.2.5-.3,1-.6,1.4-.8.3-.1.4-.2.5-.2,0,0,0,0,.1,0h0c0,0,0,0,.1.1l.2.2c.3.3.6.4.7.4.1,0,0,0-.2.1-.1,0-.2.2-.4.4,0,0-.1.2-.2.2h0c0,.1,0,.2,0,.2,0,0,0,0,0,0,0,0,0,0,0,0h0s.1-.5.1-.5c0-.2.1-.5.2-.7,0-.3.1-.6.1-.6,0-.1.2-.5.4-.8l.4-.9h0s.3.1.3.1c.3,0,.6.1.8.2,1.2.3,2.3.5,3.5.7,2.4.4,4.8.7,7.3,1,4.9.5,9.8.9,14.6.8h1.7c.6-.1,1.1-.2,1.7-.3,1-.2,2.2-.4,3.3-.7,2.3-.6,4.6-1.2,7.1-1.8,2.4-.6,4.9-1,7.6-1.1,2.6,0,5.4.3,7.9,1.2.6.2,1.3.5,1.9.8.6.3,1.2.6,1.8,1,1.2.7,2.3,1.6,3.2,2.6,2,2,3.3,4.6,4.1,7.2.8,2.7.8,5.4.4,8.1-.4,2.6-1.3,5.1-2.3,7.3-1.8,3.9-4.4,7.1-7.1,9.9-2.8,2.8-5.8,5.2-9,7.6-6.9,5-15.1,8.3-23.1,9.9-5.8,1.2-11.7,1.7-17.5,2.1-3.6.3-7,.7-11,.7-3.7,0-7.9-.5-11.1-.2-.3,0-1.9-.2-2.7-.4-3.9-.8-8.7-1.5-12.1-1.8-3.2-.3-6-.9-9-1.6-8.1-1.8-16-4-23.8-6.3-5.9-1.7-11.6-3.7-17.5-5.5-6.1-1.9-12.7-3.7-18.2-5.8-5.5-2.2-10.9-4-16.3-6.1-3.1-1.2-6.6-2.9-9.3-3.4-.3,0-1.4-.5-1.9-.8-8.3-4.6-17.1-7.8-25.2-13.1-4.1-2.8-8.3-5.6-12.3-8.7-4-3.1-7.9-6.5-11.3-10.5-1.8-2.1-3.4-4.6-5-6.7-.3-.3-.8-1.2-1.3-2.1-.5-.9-.9-2-1.1-2.7-1.2-3.8-2-7.8-2.1-11.9,0-4.1.5-8.2,1.9-12,1.6-4.3,3.9-8.4,7.1-11.8,1.6-1.7,3.4-3.2,5.4-4.5,2-1.2,4.1-2.3,6.5-2.8,1.9-.5,4.3-.9,6.7-.9,2.4-.1,4.9.1,7.3.3.5,0,1.2.2,2,.4.7.2,1.6.5,2.4.8.8.3,1.7.7,2.5,1,.8.4,1.6.7,2.4,1.1,2.5,1.1,4.8,2.1,7.1,3.5,1.9,1.2,3.7,2.6,5.4,4,.5.4,1.2.9,1.8,1.2,5.4,3.4,10.3,7.5,15.1,11.3,2.4,1.9,4.9,3.8,7.4,5.5.6.4,1.3.8,1.9,1.2l2,1.1c1.3.8,2.7,1.5,4.1,2.2,11.2,5.5,23.4,9.3,35.6,12.6,6.8,1.8,13.8,3.5,18.2,5.7,2,1,1.9,1.5-1.1,1.2-2.2-.2-4.7-.6-7.2-1.1-3.9-.8-7.9-1.6-11.7-2.5-7.9-1.8-15.9-3.7-23.8-7-2.4-1-5.4-2-7.2-3.3-.2-.2-1.2-.7-1.7-.9-1.3-.5-2.6-1.1-3.9-1.7-1.3-.6-2.6-1.3-3.9-1.9-2.6-1.3-5.1-3-7.4-4.7-4.7-3.5-9.1-7.2-13.6-10.6-3.9-2.9-7.8-5.6-11.9-7.9-2-1.2-4.1-2.3-6.2-3.3-2.1-1-4.2-1.9-6.4-2.7-2.5-.5-5.2-.9-7.8-1-2.6,0-5.2.3-7.5,1-4,1.3-7.7,4.1-10.6,7.5-2.8,3.5-4.8,7.6-5.7,12-1,4.4-.9,9,.2,13.3,1.2,4.3,3.3,8.4,6.1,12,5.6,7.5,13.5,13.3,21.5,18.5,8.1,5.3,16.6,9.8,25.5,13.8,3,1.3,5.8,2.1,9.2,3.8.8.4,1.7.8,2.6,1.2.9.4,1.9.8,3,1.1,2,.8,4.1,1.5,6.1,2.2,1.8.7,3.7,1.3,5.6,1.9,1.9.6,3.7,1.2,5.4,1.9,7.1,2.7,14.4,4.9,21.8,7.1,7.4,2.1,14.8,4.2,22.1,6.3,7.3,2,14.7,3.8,22.2,5.1,7.4,1.3,15,2,22.5,2,4.6,0,9.2-.2,13.7-.6,4.6-.4,9.1-1,13.5-1.9,3.8-.8,7.6-2.2,11.4-3.1,1.1-.2,4.2-2,6.4-3.3,5.4-2.9,10.3-6.7,14.4-11.3,1.4-1.6,2.7-3.2,3.9-5,1.1-1.8,2.1-3.6,2.8-5.5.7-1.9,1-3.8,1.1-5.8,0-1.9-.4-3.8-1.1-5.6-.9-2.1-2.5-3.8-4.4-5-2-1.2-4.2-2-6.5-2.2-2.4-.3-5,0-7.7.4-2.7.5-5.4,1.2-8.2,1.8-.9.2-1.8.4-2.7.6-.9.2-2,.4-3,.4-1.9.2-3.8.1-5.6,0-3.7-.1-7.3-.5-10.9-.9-3.8-.4-7.6-.9-11.4-1.6l-1.5-.3c-.5-.1-.9-.2-1.6-.4h-.2c0,0-.1-.2-.1-.2h-.2c0-.1-.1-.2-.2-.2-.2-.2.2.3-.5-.5-.6-1-.4-2.1.1-2.7.7-.9,1.9-.9,1.6-.8.1,0,.4,0,.4,0h.2c.3,0,.4.1.5.2.2,0,.4.2.6.3.4.2.9.4,1.4,1.2.3.4.5,1,.5,1.6,0,.6-.2,1.2-.4,1.5-.4.7-.8.9-1.1,1.1-.3.2-.6.4-.9.5l-.5.3c-.3.2-.6.3-.8.5-.4.3-.9.9-1.5,1.6-4.2,5.3-8.7,10.3-13.7,14.9-.7.6-1.4,1.2-2.3,1.7-.9.5-1.9,1-3.3,1-.7,0-1.3-.1-2-.4-.6-.3-1.1-.6-1.5-1-.4-.3-.7-.7-1-1-.3-.3-.6-.6-.6-.6-.2-.2-.5-.3-.7-.2-.1,0-.2.1-.3.2l-.2.2c0,0-.3.2-.4.3-.3.2-.6.4-.9.5-1.4.5-2.5.3-3.6.1-1-.3-2-.7-2.8-1.2-1.7-1.2-3.2-2.7-4-4.9l-.2-.9c0-.3,0-.6,0-.9,0-.3,0-.7,0-1l.2-.8c.3-1,.8-1.9,1.2-2.7.9-1.6,1.8-3.1,2.6-4.5.4-.7.8-1.4,1.1-2.1.3-.7.5-1.4.5-1.8l3.3.9c-.9,1.5-2,2.8-3.2,4-1.2,1.2-2.5,2.2-3.9,3.2-2.8,1.8-6.1,3.2-9.8,3.1-.6,0-1.2-.1-1.8-.2-.3,0-.6-.2-.9-.3-.3-.1-.7-.2-1.1-.4-.7-.4-1.3-.8-1.9-1.3-.6-.5-1.2-1-1.7-1.5,1.1-1.9,2.5-4,3.1-4.8.8-1.1,1.6-2.1,2.4-3.1,1.6-2,3.3-4.1,4.9-6.2,2.1-2.7,6.1-5.4,5.6-4,0,.3-.3.8-.7,1.2-1.9,2.9-3.7,5.6-5.6,8.4-.9,1.4-1.9,2.8-2.9,4.3-.5.7-1,1.5-1.5,2.2l-.2.3v.2c-.1,0-.3.4-.3.4,0,0,.1.1.2.2.1.1.2.2.3.2,0,0,.1,0,.2,0h.1s.3.1.3.1c.7.2,1.5.3,2.3.3,1.6,0,3.3-.6,4.9-1.4,3.1-1.6,6-4.1,7.8-7l3.7-6.1-.2,7.1c0,1.6-.6,2.8-1,3.9-.5,1.1-1.1,2-1.6,3-1.1,1.8-2.3,3.7-2.8,5.3Z" fill="#00b4e9"/>
  </g>
  <path d="M353.1,348.4c1.1-2.3,2.3-4.5,3.4-6.8.4-.9,1.1-1.6,1-2.7,0-.6.9-1.1,1.3-1.9,1-2.2,2.1-4.3,3.1-6.4,1-2.1,1.8-4.3,2.7-6.4.9-2.1,2.2-4.1,2.9-6.2.6-1.8,1.8-3.2,2.5-4.9.8-1.8,1.6-3.6,2.7-5.2.8-1.2,1.6-2.3,2.1-3.6.3-.8.4-1.7.8-2.5.4-.8,1.1-1.5.8-2.5,0,0,.2-.4.4-.5.8-.7,1.2-1.7,1.3-2.5,0-.8.4-1.4.7-2,.7-1.8,1.5-3.6,2.3-5.3.6-1.3,1.4-2.6,2-3.9.6-1.4.9-3,1.7-4.2.8-1.2,1.2-2.5,1.6-3.8.2-.7.8-1.5.4-2.3,0,0,0-.3.1-.5,1.4-1.9,1-4.3,1.8-6.4.8-2.2,1.2-4.5,1.6-6.8.1-.6.4-1.2,0-1.9-.1-.2,0-.9.1-1.2.9-1.6.8-3.5,1-5.1.3-1.9,0-3.7,0-5.6,0-.4,0-.9-.2-1.3-.2-.4-.5-.8-.9-1-.2-.1-.4-.4-.5-.7,0-.1-.1-.3-.2-.5,0-.1-.2-.3-.3-.4-.4-.4-.9-.6-1.3-1-.3-.3-.4-.8-.7-1.2,0-.1-.2-.2-.3-.3-2.4-1.4-4.3-3.7-6.9-5.1-2.6-1.4-5.3-2.8-7.9-4.2-1.5-.8-2.9-1.7-3.5-3.2-.3-.7,0-1.2.8-1.2.6,0,1.2,0,1.8.2.9.3,1.8.6,2.7.9,1.8.7,3.8,1.1,5.5,2.4.5.4,1.3.5,1.5,1.2,0,0,.2.3.4.3,2.8.7,4.9,2.8,7.1,4.6.5.4,1,.8,1.5,1.1.5.4,1,.8,1.5,1.2l.7.6c.2.2.4.5.6.7.2.3.4.5.6.8.2.3.3.6.5.9.3.3.6.5.9.9.2.4.4.8.6,1.2.4.8.4,1.6.5,2.4.2,2.7,0,5.2-.2,7.6-.1,1.2-.2,2.4-.4,3.5-.2,1.2-.3,2.3-.6,3.5-1,4.7-2.1,9.3-3.5,13.8-.3.8-.1,1.5-.7,2.4-.5.8-.7,1.9-1,2.9-.3.9-.5,1.9-1,2.7-1.9,3.2-3,6.8-4.5,10.2-1.5,3.3-3.2,6.7-4.6,10-.9,2.1-1.5,4.2-2.7,6.2-.5.8-.6,1.9-1.6,2.5-.3.2-.3,1.2-.5,1.7-.6,1.4-1.4,2.7-2,4.1-.9,1.9-1.9,3.8-2.8,5.7-.5,1.2-.9,2.4-1.4,3.6-.5,1.2-1.1,2.5-1.8,3.7-.8,1.5-1.7,3-2.6,4.5-.8,1.6-1.4,3.4-2.4,4.8-1.8,2.6-3,5.6-4.5,8.4-1.5,2.8-2.9,5.6-4.2,8.5-.8,1.6-2,2.8-2.8,4.4-.4.7-2.2,1-2.5.5,0-.1,0-.3,0-.4.4-1.7.5-3.4,1.4-5.1,1.4-2.5,2.6-5.1,3.9-7.7Z"/>
  <path d="M312.6,339.5c.7-1.6,1.5-3.2,2.1-4.9.2-.6.8-1.1.5-2-.1-.4.7-.7,1-1.3.6-1.5,1.4-3,2-4.6.6-1.5,1-3.1,1.6-4.6.6-1.5,1.5-2.9,1.9-4.4.3-1.3,1.2-2.2,1.6-3.4.4-1.3.9-2.6,1.7-3.7.6-.8,1.1-1.6,1.4-2.5.2-.6.1-1.2.4-1.8.3-.5.8-1.1.4-1.8,0,0,.2-.3.3-.4.6-.4.9-1.2.9-1.8,0-.6.2-1,.4-1.5.5-1.3,1.1-2.5,1.7-3.7.5-.9,1.1-1.7,1.6-2.7.5-.9.7-2.1,1.4-2.9.7-.8,1-1.6,1.4-2.5.2-.5.7-1,.3-1.6,0,0,0-.2.1-.3,1.4-1.1,1-2.9,1.9-4.3.9-1.4,1.4-3,2.1-4.5.2-.4.5-.8.3-1.3,0-.2,0-.6.3-.8,1.1-.9,1.2-2.2,1.9-3.3.7-1.3,1-2.7,2-3.8.4-.5.9-1.2.6-2.1-.1-.4.4-1,.6-1.5.1-.4,0-.9.2-1.3.1-.3.5-.6.8-.9,0,0,.1-.2.1-.3.2-2.2,1.9-3.7,2.6-5.7.7-2,1.6-4,2.6-5.9.5-1.1,1.2-2.1,2.6-2.4.6-.1,1.1.1,1.2.7,0,.4.1.9,0,1.3-.2.7-.3,1.3-.5,2-.4,1.3-.4,2.8-1.3,3.9-.3.4-.2,1-.8,1.1,0,0-.2.2-.2.3,0,2-1.3,3.6-2,5.4-.6,1.5-.7,3.2-1.6,4.6.2,1.1-.3,2-.9,2.8-1.9,2.7-2.8,5.8-4.2,8.7-1.4,2.9-2.6,6-4,8.9-.2.5,0,1.1-.6,1.6-.5.5-.6,1.3-.9,1.9-.3.6-.4,1.3-.8,1.8-1.6,2.1-2.3,4.6-3.4,6.9-1.1,2.3-2.2,4.6-3.1,7-.5,1.5-.8,3-1.6,4.4-.3.6-.3,1.4-1.1,1.7-.2.1,0,.9-.2,1.3-.4,1-.9,2-1.3,2.9-.6,1.4-1.2,2.7-1.8,4.1-.3.8-.5,1.8-.8,2.6-.3.9-.7,1.8-1.2,2.6-.6,1.1-1.2,2.1-1.8,3.1-.6,1.1-.8,2.4-1.6,3.4-1.4,1.8-2,3.9-3,5.9-.9,2-1.9,4-2.6,6-.4,1.2-1.4,2-1.8,3.1-.2.5-1.9.6-2.3.2,0,0-.1-.2-.1-.3,0-1.3-.2-2.6.4-3.8.9-1.8,1.7-3.7,2.5-5.5Z"/>
  <path d="M288.3,355.6c.4-.2.7-.4,1.1-.7.1-.1.4,0,.3-.5,0-.3.4.2.5,0,.3-.3.7-.4,1-.6.3-.2.5-.6.8-.9.3-.2.8-.2,1-.7.1-.4.6-.1.9-.4.2-.3.5-.5.9-.5.3,0,.6.1.7,0,0-.1,0-.5.2-.5.1,0,.4.1.2-.5,0,0,0,0,.2,0,.3.3.5.2.5-.1,0-.3.1-.3.2-.4.3-.2.6-.4.9-.5.2,0,.6,0,.8,0,.3,0,.4-.4.7-.3.3.2.5,0,.8,0,.1,0,.4.1.2-.5,0,0,0,0,0,0,.7.6.6-.6,1-.5.4,0,.7-.3,1.1-.5,0,0,.3,0,.2-.4,0-.2,0-.2.2-.1.5.4.7,0,1,0,.4,0,.6-.4,1.1-.1.2.1.4.2.4-.5,0-.3.2,0,.3-.2,0,0,0-.4.2-.4,0,0,.3.1.4.2,0,0,0,0,0,0,.2-.8,1-.2,1.4-.5.4-.4.9-.5,1.4-.6.3,0,.6,0,1.2,1,.3.4.5,1,.5,1.3,0,.3,0,.5,0,.6-.1.1-.2.3-.3.5-.2.3-.3.9-.7.8-.1,0-.1.3-.4-.2,0,0,0,0,0,0,0,.9-.7.6-1.1.8-.3.2-.4.9-.9.8,0,.7-.2.7-.5.6-1-.3-1.5.4-2.2.6-.7.2-1.4.6-2.1.9-.1,0,0,.4-.3.2-.2-.2-.3,0-.5.2-.1,0-.2.3-.4.2-.8-.3-1.2.3-1.7.5-.6.2-1.1.4-1.6.9-.3.3-.4.7-.8.8-.2,0-.1.4-.6,0-.1-.1,0,.3-.1.4-.2.2-.4.3-.6.4-.3.2-.6.3-.9.5-.2.1-.2.5-.4.6-.2.2-.3.3-.6.3-.3,0-.6,0-.9.1-.3,0-.4.5-.8.4-.7-.2-1,.3-1.5.5-.5.2-.9.5-1.3.8-.2.2-.7,0-.9,0-.1,0-1.1-1.1-1.3-1.5,0,0,0-.2,0-.2,0-.5-.2-1.3.1-1.4.4-.2.8-.5,1.2-.8Z"/>
  <path d="M286.9,378.6c.3-.2.6-.5.8-.8,0-.1.4,0,0-.5-.1-.2.4.1.5,0,.2-.3.5-.5.7-.7.2-.3.3-.7.4-.9.2-.3.6-.3.6-.8,0-.4.5-.2.6-.5,0-.3.2-.5.6-.6.3,0,.6,0,.6-.3,0-.1-.1-.4,0-.5,0,0,.4,0,0-.5,0,0,0,0,.2,0,.4.2.5,0,.3-.2-.1-.3,0-.3,0-.4.1-.2.3-.5.5-.6.2-.1.5-.1.7-.3.2-.1.1-.5.5-.5.4,0,.5-.1.6-.3,0,0,.4,0,0-.5,0,0,0,0,0,0,.9.3.2-.7.5-.8.4-.1.5-.5.6-.8,0,0,.3,0,0-.4-.1-.1,0-.2,0-.2.7.2.5-.3.7-.4.3-.2.2-.6.8-.5.2,0,.4,0,0-.5-.2-.2.1-.2.1-.3,0-.1-.2-.3-.1-.4,0,0,.3,0,.4,0,0,0,0,0,0,0-.3-.7.6-.6.7-1,0-.5.4-.8.7-1.1.2-.2.5-.3,1.5.2.5.2,1,.5,1.2.7.2.2.3.4.3.5,0,.2,0,.4,0,.5,0,.3.3.9,0,1-.1,0,0,.3-.4,0,0,0-.1,0,0,0,.5.8-.2.8-.4,1.2-.1.3.2.9-.2,1.1.4.5.2.6,0,.7-.9.2-1,1-1.5,1.5-.5.5-.8,1.1-1.3,1.7,0,0,.1.4-.2.3-.3,0-.2.2-.3.3,0,.1,0,.3-.3.3-.9,0-.9.7-1.3,1.1-.4.4-.8.8-1,1.3-.1.3-.1.8-.4,1-.1,0,0,.4-.5.1-.2,0,0,.3,0,.4-.1.2-.3.3-.5.5-.2.2-.5.4-.6.7-.1.2,0,.5-.2.7,0,.2-.2.3-.4.4-.2.1-.6.2-.8.3-.2.1-.2.5-.6.5-.7,0-.9.5-1.2.8-.4.3-.8.6-1,1-.2.2-.7,0-.9.2,0,0-1.2-.9-1.5-1.3,0,0-.1-.2-.1-.2-.1-.5-.4-1.2-.2-1.4.4-.2.6-.5.9-.8Z"/>
  <path d="M293.3,387.5c-.2,0-.3-.2-.5-.2,0,0,0-.3-.3.2-.2.2,0-.4,0-.4-.2,0-.3-.2-.5-.2-.2,0-.4,0-.6,0-.2,0-.2-.4-.5-.2-.3.2-.1-.3-.3-.3-.2,0-.3,0-.3-.2,0-.2,0-.4-.1-.4,0,0-.3.3-.3.2,0,0,0-.3-.3.2,0,0,0,0,0-.1.2-.4,0-.4-.1-.2-.2.2-.2.2-.3.1-.1,0-.3,0-.4-.2,0,0,0-.4,0-.5,0-.1-.3,0-.2-.2,0-.3,0-.3,0-.4,0,0,0-.3-.3.2,0,0,0,0,0,0,.3-.8-.4,0-.4-.2,0-.3-.2-.2-.4-.3,0,0,0-.2-.3.2-.1.1-.2.1-.1,0,.2-.6,0-.3-.1-.5,0-.2-.3,0-.2-.5,0-.2,0-.3-.3,0-.2.2,0,0-.2,0,0,0-.3.2-.3.2,0,0,0-.2.1-.3,0,0,0,0,0,0-.6.4-.2-.4-.5-.4-.3,0-.4-.2-.5-.4,0-.1,0-.3.6-1.3.3-.4.6-.9.8-1.1.2-.2.3-.3.4-.4.1,0,.2-.1.3-.2.2,0,.6-.4.6-.1,0,0,.2-.1,0,.3,0,0,0,.1,0,0,.6-.5.4,0,.6,0,.2,0,.6-.4.6,0,.4-.5.4-.3.4-.1-.1.7.4.5.6.8.2.2.5.3.7.5,0,0,.3-.2.2,0,0,.3,0,.1.1.2,0,0,.2,0,.1.1-.1.7.3.5.4.7.2.2.3.4.6.3.2,0,.5-.2.5,0,0,0,.3-.2,0,.4,0,.2.2-.2.3-.2.1,0,.2,0,.3.1.1,0,.2.2.4.2,0,0,.3-.2.4-.2.1,0,.2,0,.2.1,0,.1,0,.4.1.5,0,.1.3,0,.3.2,0,.5.3.4.4.6.2.1.3.3.6.3.1,0,0,.5.1.5,0,0-.5,1.4-.8,1.8,0,0,0,.2-.1.2-.3.4-.7,1-.8.9-.1-.2-.4-.2-.5-.3Z"/>
  <path d="M309.4,373.7c-.2.3-.5.5-.7.8,0,.1-.4,0,0,.5.2.2-.4-.1-.5,0-.2.3-.5.5-.6.8-.2.3-.2.7-.4,1-.2.3-.6.3-.6.8,0,.4-.5.3-.6.5,0,.3-.2.6-.6.6-.3,0-.6,0-.6.3,0,.1.1.4,0,.5,0,0-.4,0,0,.5,0,0,0,0-.2,0-.4-.2-.5,0-.4.2.1.3,0,.3,0,.4-.2.2-.3.5-.6.6-.2.1-.5.1-.7.2-.2.1-.2.5-.5.4-.4,0-.5,0-.6.2,0,0-.4,0,0,.5,0,0,0,0,0,0-.8-.4-.3.7-.7.7-.4,0-.6.5-.8.7,0,0-.3,0,0,.4,0,.1,0,.2,0,.2-.6-.3-.6.2-.9.3-.3.1-.4.5-1,.3-.2,0-.4,0-.2.5,0,.3-.2.1-.3.3,0,0,0,.4,0,.4,0,0-.3,0-.4-.1,0,0,0,0,0,0,0,.8-.9.3-1.2.7-.3.4-.8.6-1.3.7-.3,0-.6,0-1.2-1-.3-.4-.5-1-.5-1.3,0-.3,0-.5,0-.6,0-.1.1-.3.2-.5.1-.3.1-.9.5-.7.1,0,0-.3.4.1,0,0,0,0,0,0,0-.9.5-.6.7-.8.2-.2.1-.9.5-.8-.2-.6,0-.6.2-.6.9.2,1.1-.6,1.6-.9.5-.3.9-.8,1.4-1.2,0,0-.1-.4.2-.3.3.1.2-.2.3-.3,0,0,0-.3.3-.3.8,0,.9-.6,1.3-.9.4-.3.8-.7,1-1.2.1-.3,0-.8.4-.9.1,0,0-.4.5-.1.2,0-.1-.3,0-.4.1-.2.3-.3.4-.5.2-.2.4-.4.6-.7,0-.2,0-.5.1-.6,0-.2.2-.3.4-.5.2-.1.5-.2.8-.3.2-.2.2-.5.6-.5.7,0,.8-.5,1.2-.8.4-.3.7-.6,1-1,.1-.2.7,0,.9-.2,0,0,1.2.9,1.5,1.3,0,0,.1.2.1.2.1.5.5,1.2.3,1.3-.3.2-.6.5-.8.8Z"/>
  <path d="M298.9,388.8c.2-.3.4-.6.5-.9,0-.1.3-.1,0-.5-.2-.2.4,0,.5-.1.1-.3.4-.6.5-.9.1-.3,0-.7.2-1,.1-.3.5-.4.4-.9,0-.4.5-.3.5-.6,0-.3.1-.6.4-.7.2,0,.5-.1.5-.3,0-.1-.2-.4-.1-.5,0,0,.4,0-.1-.5,0,0,0,0,.2,0,.4.1.5,0,.3-.3-.2-.2-.1-.3,0-.4.1-.2.2-.5.4-.7.1-.1.4-.2.6-.3.2-.1,0-.5.4-.5.4,0,.4-.2.5-.3,0,0,.4,0-.2-.4,0,0,0,0,0,0,.9.1,0-.6.4-.8.3-.2.3-.5.5-.8,0,0,.2,0-.1-.3-.1,0-.1-.2,0-.2.7,0,.4-.3.6-.5.2-.2,0-.6.6-.6.2,0,.4-.1,0-.5-.2-.2,0-.2,0-.3,0,0-.2-.3-.2-.3,0,0,.3,0,.4,0,0,0,0,0,0,0-.5-.6.5-.6.4-1.1,0-.4.1-.8.3-1.1.1-.2.3-.4,1.5-.2.5,0,1.1.2,1.4.4.2.1.4.3.4.4,0,.2.2.3.2.5.1.3.6.8.2,1-.1,0,.1.3-.4.2,0,0-.1,0,0,0,.6.6,0,.9,0,1.2,0,.3.4.9,0,1.1.5.4.3.6,0,.7-.9.4-.7,1.2-1.1,1.7-.4.6-.6,1.2-1,1.8,0,0,.2.4-.1.3-.3,0-.2.2-.3.4,0,.1,0,.3-.2.3-.8.1-.7.8-1.1,1.2-.3.4-.6.8-.8,1.3,0,.3,0,.8-.2,1-.1,0,0,.4-.5.2-.2,0,.2.3.1.4,0,.2-.2.4-.3.6-.2.3-.3.5-.5.8,0,.2,0,.5,0,.6,0,.2-.1.4-.3.5-.2.2-.5.3-.7.4-.2.2,0,.5-.4.6-.7.1-.7.6-.9,1-.3.3-.5.7-.6,1.1,0,.2-.6.2-.7.4,0,0-1.4-.5-1.8-.8,0,0-.2-.1-.2-.2-.3-.4-.8-1-.6-1.2.3-.3.4-.7.6-1.1Z"/>
  <path d="M305.2,397.3c-.1,0-.2-.2-.4-.2,0,0,0-.3-.3.2-.1.2,0-.4,0-.4-.1,0-.2-.1-.4-.1-.1,0-.3.1-.5.2-.1,0-.1-.3-.4,0-.2.2,0-.3-.2-.2-.1,0-.3,0-.3-.2,0-.2,0-.4,0-.3,0,0-.2.3-.3.3,0,0,0-.3-.3.2,0,0,0,0,0-.1.1-.4,0-.4,0-.2-.2.2-.2.2-.2.2-.1,0-.2,0-.3-.1,0,0,0-.3,0-.4,0,0-.2.1-.2-.2,0-.3,0-.3,0-.4,0,0,0-.3-.3.3,0,0,0,0,0,0,.2-.8-.3.1-.3-.1,0-.2-.2-.2-.3-.2,0,0,0-.2-.2.2,0,.1-.1.1,0,0,.2-.6,0-.3-.1-.4,0-.2-.3,0-.2-.4,0-.2,0-.3-.3.2-.1.2,0,0-.1,0,0,0-.2.3-.2.3,0,0,0-.2,0-.3,0,0,0,0,0,0-.4.5-.2-.3-.4-.2-.2,0-.3,0-.4-.2,0,0,0-.3.3-1.4.2-.5.4-1,.6-1.3.1-.2.2-.4.3-.4,0,0,.2-.2.3-.2.2-.1.5-.6.5-.3,0,0,.2-.2,0,.3,0,0,0,.1,0,0,.5-.7.4-.1.5-.1.1,0,.5-.5.5-.2.3-.5.4-.4.3-.2,0,.7.4.4.6.6.2.2.5.2.7.4,0,0,.2-.3.2,0,0,.3,0,0,.1.1,0,0,.2,0,.1,0,0,.7.3.4.4.6.2.1.3.3.6.2.2,0,.4-.3.5-.1,0,0,.2-.2,0,.3,0,.2.2-.2.2-.2,0,0,.2,0,.2,0,.1,0,.2.1.3.1,0,0,.3-.2.3-.2,0,0,.2,0,.2,0,0,.1,0,.3.1.4,0,0,.3-.1.2.2,0,.5.2.4.3.5.1.1.3.2.5.2.1,0,0,.5,0,.5,0,0-.6,1.4-.8,1.8,0,0-.1.2-.1.2-.3.4-.7,1-.8.9-.1-.1-.3-.1-.4-.2Z"/>
  <path d="M321.3,377.4c-.2.4-.4.8-.6,1.2,0,.2-.4.2,0,.6.2.2-.4,0-.5.2-.1.4-.4.7-.5,1.1-.1.4-.1.8-.3,1.2-.1.4-.6.6-.5,1.1,0,.4-.5.4-.6.7,0,.3-.2.7-.5.8-.3.1-.6.2-.6.4,0,.2.2.4,0,.6,0,.1-.4.1,0,.6,0,0,0,0-.2,0-.4,0-.5,0-.4.4.2.3,0,.3,0,.4-.2.3-.3.6-.6.8-.2.2-.5.3-.7.4-.2.2-.1.6-.5.6-.4,0-.5.2-.6.4,0,.1-.4,0,0,.5,0,0,0,0,0,0-.9-.2-.2.8-.6,1-.4.2-.5.6-.8,1,0,0-.3,0,0,.4.1.1,0,.2,0,.2-.7-.1-.6.3-.8.5-.3.2-.3.7-.9.6-.3,0-.5,0-.1.6.2.2-.2.2-.2.3,0,.1.1.4,0,.5,0,0-.3,0-.4,0,0,0,0,0,0,0,.2.8-.8.6-1,1.2-.2.5-.6.9-1,1.2-.2.2-.6.3-1.5-.3-.4-.3-.9-.6-1-1-.1-.2-.2-.5-.2-.6,0-.2,0-.4,0-.6,0-.4-.1-.9.3-1,.1,0,0-.3.4,0,0,0,.1,0,.1,0-.3-.8.4-.9.6-1.2.2-.3,0-1,.4-1.1-.4-.6-.1-.7.2-.7,1-.2,1.1-1,1.6-1.6.5-.6.9-1.2,1.4-1.8,0-.1-.2-.4.2-.4.3,0,.2-.2.3-.4,0-.1,0-.3.3-.4.9-.1.9-.8,1.3-1.3.4-.5.8-.9.9-1.5.1-.4,0-.8.3-1.1.1-.1,0-.4.5-.2.2,0-.1-.3-.1-.4,0-.2.2-.4.4-.6.2-.3.4-.6.5-.9,0-.2,0-.5,0-.7,0-.2.2-.4.3-.6.2-.2.5-.3.7-.6.2-.2,0-.6.5-.7.7-.2.7-.8,1-1.2.3-.4.6-.9.7-1.4,0-.3.6-.3.8-.6,0-.1,1.5.3,1.9.6,0,0,.2.1.2.2.3.5.8,1,.6,1.3-.3.4-.4.9-.7,1.3Z"/>
  <path d="M320.2,396.5c-.2,0-.4,0-.5,0,0,0-.1-.3-.2.3,0,.3,0-.4-.1-.4-.2,0-.3,0-.5,0-.2,0-.4.2-.6.3-.2,0-.3-.3-.5,0-.2.2-.2-.3-.4-.2-.2,0-.3.1-.4-.1,0-.2,0-.4-.2-.3,0,0-.2.3-.3.3,0,0,0-.3-.3.3,0,0,0,0,0-.2,0-.4,0-.4-.2-.2-.1.2-.2.2-.2.2-.1,0-.3,0-.4-.1,0,0-.1-.3-.2-.4,0,0-.3.1-.3-.2,0-.3,0-.3-.2-.4,0,0,0-.3-.3.3,0,0,0,0,0,0,.1-.8-.4.1-.5-.1,0-.3-.3-.2-.5-.2,0,0,0-.2-.2.2,0,.1-.1.1-.1,0,.1-.6-.2-.3-.2-.5,0-.2-.3,0-.3-.5,0-.2,0-.3-.3.2-.1.2,0,0-.2,0,0,0-.2.3-.3.2,0,0,0-.2,0-.4,0,0,0,0,0,0-.5.5-.3-.4-.6-.3-.3,0-.4-.1-.6-.3,0-.1-.1-.3.4-1.4.2-.5.5-1,.7-1.2.1-.2.3-.4.3-.4.1,0,.2-.1.3-.2.2-.1.5-.5.5-.2,0,0,.2-.2,0,.3,0,0,0,.1,0,0,.5-.6.4,0,.6,0,.2,0,.5-.5.6-.2.3-.5.4-.4.4-.2,0,.7.4.4.6.6.2.2.5.2.8.3,0,0,.2-.3.2,0,0,.3,0,0,.2.1,0,0,.2,0,.2,0,0,.7.3.4.5.5.2.1.4.3.7.2.2,0,.4-.4.5-.2,0,0,.2-.2,0,.3,0,.2.1-.3.2-.3.1,0,.2,0,.3,0,.1,0,.2,0,.4,0,0,0,.2-.2.3-.3,0,0,.2,0,.2,0,0,0,.2.3.2.4,0,0,.2-.2.3.1.1.5.3.3.5.4.2,0,.4.2.6,0,.1,0,.2.5.3.5,0,0,0,1.5,0,2,0,0,0,.2,0,.2-.2.5-.3,1.2-.5,1.1-.2,0-.4,0-.6,0Z"/>
  <path d="M348.6,364c-.4.6-.9,1.2-1.3,1.9-.2.2-.5.3-.3.9.1.3-.5.1-.7.3-.4.6-.9,1.1-1.2,1.7-.4.6-.6,1.3-1,1.9-.4.6-1,1-1.2,1.7-.1.6-.9.7-1.1,1.2-.3.5-.6,1.1-1.1,1.4-.4.2-.8.4-1,.8-.1.2,0,.6-.2.8-.2.2-.6.2-.2.8,0,0-.1,0-.2,0-.5,0-.7.2-.6.6,0,.4,0,.5-.2.7-.4.5-.7.9-1.1,1.3-.3.3-.8.5-1.1.8-.3.3-.4.9-1,1-.5.1-.8.4-1,.7-.2.2-.6.2-.2.8,0,0,0,.1,0,.1-1.1,0-.7,1.2-1.3,1.5-.6.4-1,1-1.5,1.6-.1.1-.4.2-.2.6,0,.2,0,.3-.2.3-.8,0-.9.6-1.4.9-.5.4-.7,1-1.5,1.1-.3,0-.7.2-.5.9,0,.3-.3.3-.4.5,0,.2,0,.5-.1.6-.1.1-.4,0-.6.1,0,0,0,0-.1.1-.2,1.1-1.4,1.1-1.9,1.9-.5.8-1.2,1.4-1.9,1.9-.4.3-.9.5-1.9,0-.5-.3-.9-.7-.9-1,0-.3,0-.6,0-.7.1-.3.3-.6.4-.8.3-.5.3-1.3.9-1.5.2,0,.1-.4.6-.2,0,0,.1,0,.1,0,0-1.1,1-1.3,1.5-1.9.4-.5.5-1.4,1.1-1.7-.2-.7.2-1,.6-1.1,1.4-.5,2-1.8,3-2.8,1-.9,1.9-2,2.8-3,.2-.2,0-.6.4-.6.4,0,.4-.4.6-.6.2-.2.3-.5.6-.6,1.2-.4,1.6-1.5,2.4-2.2.7-.8,1.5-1.6,2-2.5.3-.6.5-1.3,1-1.7.2-.2.1-.6.8-.5.2,0,0-.4,0-.6.2-.4.5-.7.8-1.1.4-.5.8-1,1.1-1.5.2-.3.2-.8.4-1.1.2-.4.4-.7.7-1,.4-.4.8-.6,1.2-1,.4-.4.5-1,1-1.2,1-.4,1.3-1.4,1.9-2.1.6-.7,1.2-1.4,1.6-2.3.2-.5.9-.6,1.2-1,.1-.2,1.5.4,1.9.7,0,0,.1.2.1.2,0,.7.4,1.5,0,1.9-.6.7-1,1.4-1.5,2.1Z"/>
  <path d="M405.8,350.7c.9-1.3,1.8-2.6,2.6-4,.3-.5.8-.9.7-1.7,0-.4.8-.5,1-1,.7-1.3,1.6-2.5,2.3-3.8.7-1.3,1.1-2.6,1.7-3.9.6-1.3,1.5-2.5,1.7-3.8.2-1.2,1-2,1.3-3,.3-1.1.5-2.3,1-3.3.4-.8.7-1.5.8-2.4,0-.5-.2-1-.2-1.6,0-.5.4-1.1-.2-1.5,0,0,0-.3.2-.4.4-.5.4-1.2.1-1.7-.3-.4-.3-.8-.3-1.2-.1-1.1-.3-2.2-.5-3.3v-1.2c-.2-.4-.2-.8-.3-1.2-.1-.4-.3-.8-.5-1.2-.2-.4-.3-.8-.4-1.2,0-.9-.5-1.5-.9-2.2-.3-.4-.3-1-1-.9,0,0-.2-.1-.2-.2,0-.8-.5-1.2-1.1-1.5-.6-.3-1.1-.6-1.6-1.1-.9-1-2.1-1.6-3.4-2.2-.3-.1-.6-.5-1.1-.2-.2.1-.5,0-.7-.2-.7-1-1.9-.9-2.9-1.3-1.1-.4-2.4-.4-3.6-1.1-.5-.3-1.2-.5-1.9,0-.3.2-.9-.1-1.4-.1-.4,0-.8.2-1.1.2-.3,0-.6-.3-.9-.4,0,0-.2,0-.3,0-1.8.5-3.6-.4-5.4-.1-1.8.3-3.7.4-5.5.6-1,.1-2.1.1-3-.8-.4-.4-.6-1-.2-1.4.3-.3.6-.6,1-.7.6-.2,1.2-.5,1.8-.6,1.2-.4,2.4-1.1,3.8-.9.4,0,.9-.3,1.2.2,0,0,.2,0,.3,0,1.7-.9,3.6-.4,5.3-.3,1.5,0,3.1-.5,4.6,0,.9-.5,1.9-.2,2.7.1,2.8,1.2,5.9,1.6,8.8,3,2.9,1.4,5.7,3.4,7.7,6,.3.4.9.6,1.1,1.3,0,.3.3.6.5.9.2.3.4.6.6.9.3.6.7,1.1.9,1.7.4,2.5,1.4,4.8,1.7,7.3.3,2.5.3,4.9.2,7.4,0,1.5,0,3-.4,4.5-.2.6,0,1.4-.8,1.8-.2.1,0,.8,0,1.2-.3,1-.6,1.9-1,2.9-.5,1.3-1.1,2.6-1.6,3.8-.3.8-.5,1.6-.8,2.4-.4.8-.8,1.6-1.3,2.3-.6.9-1.3,1.8-2,2.7-.6.9-1,2.1-1.8,2.9-1.5,1.4-2.4,3.3-3.5,4.9-1.2,1.6-2.3,3.3-3.4,5-.6,1-1.6,1.5-2.3,2.4-.3.4-1.9.1-2.2-.4,0,0,0-.2,0-.3.3-1.1.2-2.4,1-3.3,1.1-1.4,2.1-3,3.1-4.5Z"/>
  <path d="M371.2,335.7c-1.1,2.6-2.2,5.1-3.1,7.7-.3,1-1,1.9-.8,3.1,0,.6-.9,1.3-1.2,2.2-.8,2.5-1.7,4.9-2.4,7.4-.7,2.4-1.2,4.9-1.8,7.3-.3,1.2-.7,2.4-1,3.6-.2.6-.3,1.2-.5,1.8-.1.6-.3,1.3-.3,1.7,0,.3,0,.2,0,.3,0,0,0,0,0,0,0,0,0,.1,0,.2,0,0,0,.1.2.2.3,0,.7.1,1.3.2,2.1.1,4.3.3,6.4.8,1.5.3,3,.7,4.5.8.2,0,.5,0,.7,0,.1,0,.1,0,.2-.1,0,0,.1-.1.2-.1,0,0,0,0,0,0,0,0,.2-.3-.3-.5,0,0,0,0,0,0,0,0,0-.1,0-.2,0-.1.1-.3.2-.4.6-1,.8-2.2.6-3.1,0-.3,0-1.3.1-2,0-.8.2-1.5.3-2.3.5-3,1-6.1,1.5-9.1.7,1,1.4,2,2.1,3,1.9,2.7,3.6,5.6,5.2,7.9.9,1.4,2.2,2.7,2.8,4.1.3.7.6,1.2.9,1.5.3.3.5.4,1.1.5.6,0,1.7.4,2.4-.2,0,0,.4,0,.5,0,2.4.9,4.9,0,7.3.2,2.6.3,5.2.1,7.8,0,.7,0,1.4.2,2.1-.3.2-.2.9-.2,1.3,0,1.9.6,3.9.2,5.9.2,2.2,0,4.5-.3,6.8,0,.1,0,.2,0,.4,0,.1,0,.2,0,.3,0,.2,0,.5,0,.7,0,.5-.1.9-.4,1.2-.8.4-.5.5-.2.6-.4,0-.1-.3-.2-.3-.2,0,0,.2-.1.2-.3,0,0,0,0,0,0,0,0-.1,0-.2,0-.6-.2-1.4-.5-2.1-.9-.7-.4-1.4-.8-2.1-1.2-1.4-.8-2.8-1.7-4.3-2.2-3.1-1.1-6.1-2.3-9.2-3.3-1.7-.6-3.5-1.2-4.4-2.6-.4-.6-.3-1.2.5-1.3.6-.1,1.3-.2,2,0,1.1.2,2.1.3,3.2.5,2.1.4,4.4.6,6.4,1.7.6.3,1.5.4,1.9,1,0,0,.3.2.4.3,3.1.4,5.7,2.2,8.4,3.7.6.3,1.2.5,1.9.9.9.5,1.8,1.3,2.2,2.3.4,1,.6,2.2.1,3.2-.4,1.1-1.2,1.9-2.3,2.5-.5.5-.8.7-1.3,1-.4.2-.9.4-1.4.6-.5.1-1,.2-1.5.2-.2,0-.5,0-.7,0-.2,0-.4,0-.6,0-5.1-.4-10.2.2-15.3.2-5.2,0-10.3,0-15.5-.3-.9,0-1.6.3-2.7,0-.5-.2-1.2-.2-2-.4-.8-.2-1.8-.6-2.4-1.2-1.1-1-1.8-2-2.3-2.8-.4-.8-.8-1.6-1.3-2.4-.2-.4-.5-.8-.7-1.1l-.3-.5c-.3-.5-.7-.9-1-1.3,0,.1,0,.3,0,.4l-.2.9v.5c0,0-.3,1-.3,1l-.5,3c-.2,1.6-.5,3.2-.7,4.7h0s-3.1-.2-3.1-.2h-.8c0,0-.4,0-.4,0h-.2s-.9,0-.9,0c-1.2,0-2.4-.1-3.7-.3-1-.2-2.2,0-3.1-.7-.3-.2-1.3.1-2,0-.9,0-1.6-.2-2.5-.3-.2,0-.5,0-.8-.1-.3,0-.7-.2-1.1-.3-.7-.3-1.4-.7-1.9-1.2-.7-.8-1.1-1.8-1.1-2.9,0-.3,0-.5,0-.8v-.4c0,0,.1-.3.1-.3,0-.4.2-.7.2-1l.8-3.4c.3-1.4.5-2.8.8-4.2.3-1.5.8-2.9,1.3-4.3.6-1.8,1.4-3.5,2.1-5.3.7-1.9,1.1-3.9,2-5.6,1.7-3.1,2.7-6.5,4.1-9.7,1.4-3.2,2.8-6.4,4.2-9.6.8-1.8,2-3.2,2.9-4.9.4-.8,2.3-1.2,2.5-.7,0,.1,0,.3,0,.4-.4,1.9-.5,3.7-1.5,5.6-1.4,2.8-2.7,5.7-3.9,8.6Z"/>
  <path d="M196.4,291.4c1.7-1.6,3.4-3.2,5-4.9.6-.6,1.4-1,1.7-2,.1-.5,1.2-.6,1.8-1.2,1.5-1.5,3.2-2.9,4.8-4.5,1.5-1.5,3-3,4.5-4.5,1.6-1.4,3.4-2.6,4.9-4.1,1.2-1.3,2.8-1.9,4.2-2.9,1.4-1.1,3-2.2,4.7-2.9.6-.2,1.2-.5,1.8-.7.6-.2,1.2-.5,1.8-.8.7-.4,1.3-1,2.1-1.4.8-.2,1.8-.3,2.3-1.1,0,0,.4,0,.6,0,1,0,2-.1,2.7-.6.7-.4,1.3-.5,2-.7.9-.2,1.9-.2,2.8-.4h1.4c0-.1,1.4-.1,1.4-.1,1.4,0,2.8.2,4.2.4.7,0,1.5,0,2.2,0,.7,0,1.4.2,2.1.4,1.3.5,2.5.6,3.8.9.7.1,1.5.6,2.2,0,0,0,.3,0,.4,0,1.8,1.3,4.1.8,6.1,1.6,1,.4,2.1.8,3.1,1.1,1,.4,2.1.6,3.2,1,.6.2,1.1.6,1.7.4.2,0,.8.1,1.1.3,1.3,1.2,3,1.5,4.5,2.2,1.7.8,3.6,1.3,5.1,2.5.7.5,1.6,1,2.7.9.5,0,1.2.5,1.9.7.5.2,1.1.1,1.6.3.4.2.8.6,1.2.8.1,0,.3.2.4.2,2.8.4,5,2.2,7.7,3.1,2.7.9,5.3,2.2,7.8,3.6,1.4.8,2.7,1.9,2.9,3.5.1.7-.2,1.1-1,1-.5,0-1.1-.2-1.6-.4-.8-.4-1.6-.7-2.3-1-1.6-.7-3.4-.9-4.9-1.9-.5-.3-1.2-.3-1.4-.9,0,0-.2-.2-.3-.2-2.5-.2-4.7-1.6-7-2.4-2-.7-4.2-.9-6-2-1.3.1-2.6-.5-3.6-1.2-3.6-2.2-7.6-3.5-11.5-5-3.9-1.5-7.9-2.8-11.9-3.7-.7-.2-1.4,0-2.1-.4-.7-.4-1.7-.4-2.6-.6-.8-.1-1.7,0-2.4-.4-.8-.3-1.6-.4-2.4-.5-.8-.1-1.6-.2-2.4-.2h-2.4c0,0-1.2.1-1.2.1h-1.2c0,.1-2.4.3-2.4.3-.8.1-1.6.3-2.3.5-1.6.2-3,.9-4.5,1.4-.9.3-1.7.9-2.5,1.4-.4.2-.8.5-1.3.7-.4.2-.9.5-1.3.7-.8.4-1.3,1.1-2.4,1-.3,0-.7.8-1.2,1.1-1.1.8-2.2,1.5-3.3,2.3-1.5,1.1-3,2.3-4.4,3.5-.9.8-1.6,1.7-2.4,2.5-.9.8-1.8,1.7-2.8,2.4-1.2,1-2.5,1.9-3.7,2.9-1.2,1-2.3,2.4-3.6,3.2-2.4,1.6-4.3,3.8-6.4,5.7-2.1,2-4.1,3.9-6,6.1-1.1,1.2-2.5,1.9-3.6,3.1-.5.5-2.3.2-2.4-.3,0-.1,0-.3,0-.4.7-1.4,1.2-3,2.5-4.2,1.9-1.8,3.7-3.8,5.6-5.6Z"/>
  <path d="M176.4,312.6c-.6-.6-1.2-1.2-1.9-1.8-.2-.2-.3-.6-.9-.5-.3,0,0-.6-.3-.8-.6-.5-1.1-1.2-1.7-1.8-.6-.5-1.3-1-1.8-1.5-.6-.6-.9-1.4-1.6-1.7-.6-.3-.6-1.1-1.1-1.5-.5-.4-1-.9-1.2-1.6-.2-.5-.3-1-.7-1.3-.2-.2-.7-.3-.9-.6-.2-.3-.2-.8-.9-.8,0,0,0-.2,0-.3.2-.6,0-1.1-.4-1.4-.4-.4-.4-.8-.4-1.3,0-1.3.5-2.6,1.5-3.5.7-.7,1.5-.9,2.3-1.1.8-.3,1.6-.7,2.3-.4.7.3,1.2.3,1.8.4.3,0,.6.4,1-.2,0,0,.1,0,.2,0,.6,1,1.6,0,2.3.5.8.4,1.6.5,2.4.7.2,0,.4.3.7,0,.1-.1.4,0,.4,0,.4.8,1.1.7,1.7,1,.6.4,1.4.4,1.9,1.2.2.3.5.6,1.1.2.3-.2.5.2.7.3.2,0,.5,0,.7,0,.2,0,.2.4.3.6,0,0,0,0,.2,0,1.3,0,1.7,1.3,2.7,1.7,1,.4,1.9,1.1,2.7,1.9.5.4.8.9.4,2.1-.2.5-.5.9-.9,1-.3,0-.6.1-.8,0-.3-.1-.6-.2-.9-.3-.6-.2-1.4-.2-1.8-.8-.1-.2-.5,0-.3-.6,0,0,0-.1,0-.1-1.2.2-1.6-.7-2.4-1.1-.7-.3-1.6-.1-2.2-.7-.6.4-1,0-1.3-.3-1.1-1.2-2.6-1.3-4-1.9-1.4-.6-2.9-.9-4.3-1.2-.2,0-.5.3-.7,0-.2-.3-.5-.1-.8-.1-.2,0-.4.1-.6,0-.4-.3-.8-.3-1,0-.3.2-.3.4-.4.5,0,.2-.2.3,0,.6,0,.3.3.7.6,1.1.2.2.5.4.8.6.3.2.6.5.7.8.1.3.6.3.4.9,0,.2.5.1.6.3.4.4.6.8,1,1.2.4.5.9,1.1,1.4,1.6.3.3.8.5,1.1.7.3.3.6.6.9,1,.3.5.6,1,.9,1.5.4.5,1,.7,1.2,1.3.4,1.1,1.3,1.7,2,2.4.7.8,1.4,1.5,2.3,2.1.5.3.5,1.1,1,1.5.2.2-.5,1.5-.9,1.8,0,0-.2.1-.2.1-.7,0-1.6.2-2.1-.3-.7-.7-1.4-1.4-2.2-2Z"/>
  <path d="M252.9,303.3c-.5.5-1,1-1.5,1.6-.2.2-.5.2-.4.8,0,.3-.5,0-.7.2-.4.5-.9.9-1.4,1.5-.4.5-.7,1.1-1.1,1.6-.4.5-1.1.8-1.3,1.4-.2.6-.9.6-1.2,1-.3.5-.6.9-1.2,1.1-.4.2-.8.3-1,.6-.1.2,0,.6-.3.8-.2.2-.6.2-.3.8,0,0-.1,0-.2,0-.5-.1-.7.1-.6.5,0,.3-.1.5-.3.6-.4.4-.7.8-1.2,1.2-.3.3-.8.4-1.1.6-.3.3-.5.8-1,.8-.5,0-.8.3-1,.6-.2.2-.5.1-.2.7,0,0,0,.1,0,0-1-.2-.7,1.1-1.3,1.4-.6.3-1,.9-1.5,1.4-.1.1-.4.1-.2.6,0,.2,0,.3-.2.3-.8-.1-.9.5-1.3.8-.5.3-.7.9-1.5,1-.3,0-.6.2-.4.8,0,.3-.3.3-.4.5,0,.2,0,.5-.1.6-.1.1-.4,0-.6,0,0,0,0,0-.1,0-.2,1.1-1.4,1-1.9,1.7-.5.7-1.2,1.3-1.9,1.8-.4.3-.9.5-1.9-.1-.5-.3-.8-.7-.9-1.1,0-.3,0-.6,0-.7.1-.3.2-.5.4-.8.3-.5.3-1.3.9-1.5.2,0,.1-.4.6-.1,0,0,.1,0,.1,0,0-1.1.9-1.2,1.4-1.8.4-.5.5-1.4,1.1-1.6-.2-.7.2-.9.6-1,1.4-.4,2-1.6,3-2.5,1-.8,1.9-1.8,2.8-2.7.2-.2,0-.5.4-.5.4,0,.4-.4.6-.6.2-.2.3-.5.6-.5,1.2-.2,1.6-1.3,2.4-1.9.8-.7,1.5-1.3,2.1-2.2.4-.5.6-1.2,1.1-1.5.2-.1.2-.6.8-.4.2,0,0-.4.1-.6.3-.3.6-.6.9-.9.4-.4.9-.8,1.2-1.3.2-.3.3-.7.5-1,.2-.3.5-.6.8-.8.4-.3.9-.5,1.3-.8.4-.3.6-.9,1.1-1,1-.3,1.4-1.1,2.1-1.7.7-.6,1.3-1.2,1.8-1.9.3-.4,1-.4,1.3-.7.2-.2,1.4.6,1.7,1,0,0,.1.2.1.2,0,.7.2,1.5-.2,1.9-.6.5-1.1,1.2-1.7,1.7Z"/>
  <path d="M308,324.8c-1-.4-2-.8-3.1-1.1-.4-.1-.7-.5-1.3-.1-.3.2-.4-.6-.8-.7-1-.3-1.9-.7-2.9-1-1-.3-2-.4-2.9-.6-1-.2-1.8-.8-2.8-.8-.9,0-1.4-.7-2.2-.8-.8-.1-1.7-.3-2.4-.8-.5-.3-1-.7-1.6-.8-.4,0-.8.2-1.2,0-.4-.1-.7-.5-1.2,0,0,0-.2-.1-.2-.2-.3-.5-.8-.6-1.2-.4-.4.2-.7,0-1,0-.8-.2-1.6-.4-2.4-.7-.6-.2-1.1-.6-1.7-.8-.6-.2-1.4-.2-1.9-.6-.5-.5-1.1-.6-1.6-.8-.3,0-.6-.5-1.1,0,0,0-.2,0-.2,0-.7-1.1-1.9-.3-2.8-.7-.9-.5-2-.6-3-.9-.3,0-.5-.3-.9,0-.1.1-.4,0-.5,0-.6-.8-1.4-.7-2.2-1-.8-.4-1.8-.4-2.5-1.1-.3-.3-.8-.6-1.4-.1-.3.2-.6-.2-.9-.2-.3,0-.6.1-.9,0-.2,0-.4-.4-.6-.5,0,0-.1,0-.2,0-1.5.3-2.4-1-3.7-1.3-1.3-.2-2.6-.7-3.8-1.3-.7-.3-1.3-.7-1.4-2,0-.6.2-1.1.6-1.3.3-.2.6-.3.9-.3.4,0,.9,0,1.3,0,.9,0,1.8-.1,2.5.4.2.2.6,0,.7.5,0,0,.1.1.2.1,1.3-.4,2.3.5,3.5.8,1,.3,2.1,0,3,.5.7-.4,1.3-.1,1.8.2,1.7,1.2,3.7,1.4,5.6,2,1.9.7,3.9,1.1,5.8,1.7.3.1.7-.2,1,.2.3.4.8.3,1.2.4.4.1.8,0,1.2.4,1.3,1.1,3,1.1,4.5,1.6,1.5.5,3,1,4.6,1.3,1,.2,2,.1,2.9.5.4.2.9,0,1.1.7,0,.2.6-.1.8,0,.6.1,1.3.4,1.9.6.9.3,1.7.6,2.6.8.5.1,1.2,0,1.7.2.6.1,1.1.3,1.7.6.7.3,1.3.8,2,1.1.7.3,1.6.3,2.2.8,1.1,1,2.5,1.2,3.8,1.7,1.3.6,2.5,1.1,3.8,1.5.7.2,1.2,1,1.9,1.3.3.1.2,1.7-.2,2.1,0,0-.2.1-.2.2-.9.1-1.8.6-2.5.2-1.1-.6-2.3-1-3.4-1.4Z"/>
  <path d="M310.6,279.1c0-.8,0-1.6,0-2.5,0-.3.2-.6-.3-.9-.3-.2.4-.5.3-.7,0-.8,0-1.5,0-2.3,0-.7-.3-1.5-.4-2.2,0-.7.2-1.5-.1-2.2-.3-.6.2-1.2,0-1.8-.1-.6-.2-1.3,0-1.9.2-.4.4-.9.3-1.3,0-.3-.4-.5-.4-.8,0-.3.3-.6-.3-.8,0,0,0-.1.1-.2.4-.3.4-.7.1-.9-.3-.2-.2-.5-.3-.7,0-.6,0-1.3,0-1.9,0-.5.3-.9.3-1.4,0-.5-.2-1,0-1.5.3-.5.3-.9.3-1.3,0-.3.3-.5-.3-.8,0,0,0-.1,0-.2.8-.7-.2-1.4,0-2.2.2-.8,0-1.5,0-2.3,0-.2.2-.4-.3-.6-.2,0-.2-.3,0-.4.6-.6.3-1.2.4-1.7.1-.7-.1-1.3.4-2,.2-.3.3-.7-.2-1-.3-.2,0-.5,0-.7,0-.2-.3-.4-.3-.6,0-.2.2-.3.4-.5,0,0,0-.1,0-.2-.6-1,.3-1.9.1-2.9-.2-1,0-2,0-3,0-.5.3-1.1,1.4-1.4.5-.1,1.1-.1,1.4.1.2.2.5.4.5.6,0,.3.2.6.3.9.2.6.7,1.3.4,1.9,0,.2.2.4-.3.6,0,0-.1.1,0,.1.8.9.2,1.8.2,2.6,0,.7.6,1.5.3,2.2.6.4.5.9.3,1.3-.7,1.5-.3,3-.4,4.4-.1,1.5,0,3,0,4.5,0,.3.3.5,0,.8-.3.3,0,.6,0,1,0,.3.1.6,0,.9-.7,1.2-.3,2.4-.3,3.5,0,1.2-.1,2.3,0,3.5.1.7.5,1.4.3,2.1,0,.3.3.6-.3.9-.2,0,.3.4.3.6,0,.5,0,1,0,1.5,0,.7,0,1.4,0,2,0,.4.3.8.4,1.2,0,.4,0,.9,0,1.3,0,.6-.3,1.1-.3,1.7,0,.6.2,1.2,0,1.7-.5,1-.2,2-.2,3.1,0,1,0,2,.1,3,0,.6-.4,1.1-.4,1.7,0,.3-1.4.7-2,.6,0,0-.2,0-.2,0-.5-.5-1.2-1-1.2-1.6,0-.9,0-1.9,0-2.8Z"/>
  <path d="M298.8,146.1c-.5,1.7-1,3.5-1.4,5.3-.1.7-.6,1.3-.2,2.1.2.4-.6.9-.7,1.5-.3,1.7-.7,3.3-1,5-.2,1.6-.3,3.3-.4,4.9,0,.8-.2,1.6-.3,2.4-.1.8-.2,1.6,0,2.4.2,1.4-.4,2.5-.3,3.8,0,1.4.1,2.8,0,4.1-.2,1-.3,2-.2,2.9,0,.6.4,1.1.5,1.8,0,.6-.2,1.3.5,1.8,0,0,0,.3,0,.5-.3.7-.2,1.5.1,2,.3.5.4,1,.5,1.5.2,1.4.5,2.7.7,4.1.2,1,.1,2.1.3,3.1.2,1.1.7,2.1.7,3.2,0,1.1.2,2,.4,2.9.1.5,0,1.3.8,1.5,0,0,.1.2,0,.3-.4,1.8,1.1,3,1.4,4.6.1.8.4,1.7.6,2.5.3.8.6,1.6.9,2.3.2.4.1.9.7,1.1.2,0,.4.5.4.8-.1,1.4.7,2.5,1.1,3.7.5,1.4,1.3,2.6,1.5,4.2,0,.7.3,1.5,1.2,1.9.4.2.4,1,.7,1.4.2.4.7.7.9,1.1.2.3.1.8.2,1.2,0,.1,0,.2.2.3,1.5,1.7,1.6,4,2.7,6,1.1,1.9,1.9,4,2.7,6.1.4,1.2.7,2.4,0,3.6-.3.5-.9.7-1.4.4-.4-.3-.7-.6-.9-1-.3-.6-.7-1.2-1.1-1.8-.7-1.2-1.8-2.3-2.1-3.7-.1-.4-.6-.8-.3-1.4,0,0,0-.3,0-.3-1.5-1.4-1.9-3.5-2.8-5.2-.8-1.5-2-2.7-2.5-4.4-1-.6-1.3-1.6-1.5-2.6-.8-3.3-2.5-6.3-3.6-9.5-1.1-3.4-2.1-6.6-3-9.9-.2-.6-.6-1-.5-1.7,0-.7-.3-1.4-.5-2.2-.2-.7-.5-1.3-.5-2,0-2.8-.9-5.3-1.3-8-.3-2.7-.7-5.4-1-8l-.4-2.5c-.1-.8-.2-1.6-.2-2.5,0-.7-.3-1.5.3-2.2.2-.2-.3-.9-.3-1.3,0-1.1,0-2.3.1-3.4,0-1.6.3-3.1.4-4.7,0-1,0-1.9,0-2.9,0-1,.2-2,.5-3,.3-1.2.7-2.4,1-3.7.3-1.3.3-2.7.9-3.8,1-2.2,1.4-4.4,2-6.7.7-2.2,1.4-4.4,2-6.6.3-1.3,1.2-2.2,1.6-3.4.2-.6,1.8-.8,2.2-.4,0,0,.1.2.1.3,0,1.3.3,2.6-.1,3.9-.7,1.9-1.3,3.9-1.9,5.9Z"/>
  <path d="M303.3,103.7c-.2.6-.4,1.2-.4,1.8,0,.2-.3.4.1.8.2.2-.4.3-.5.5,0,.6-.3,1.1-.3,1.7,0,.6,0,1.2,0,1.7,0,.6-.4,1.1-.2,1.7.2.5-.3.8-.3,1.3,0,.5,0,1-.2,1.4-.2.3-.5.6-.4,1,0,.2.3.4.3.7,0,.2-.3.4.3.7,0,0,0,.1-.2.1-.4.2-.4.5-.1.7.3.2.2.4.2.5,0,.5,0,.9,0,1.4,0,.4-.3.7-.4,1,0,.4.2.8-.1,1.1-.3.3-.3.7-.3,1s-.3.4.3.6c0,0,0,0,0,.1-.8.6.3,1.1,0,1.6-.2.6,0,1.2,0,1.7,0,.2-.2.3.3.4.2,0,.2.2,0,.3-.6.5-.2.9-.3,1.3,0,.5.3,1-.2,1.5-.2.2-.3.5.3.7.3,0,0,.4.1.5,0,.1.4.3.4.4,0,.1-.2.3-.3.4,0,0,0,0,0,.1.7.6,0,1.5.3,2.2.3.7.4,1.4.4,2.2,0,.4,0,.9-1.1,1.4-.5.2-1,.4-1.4.2-.3,0-.5-.2-.6-.3-.2-.2-.3-.4-.5-.6-.3-.4-.9-.8-.7-1.4,0-.2-.3-.3.2-.5,0,0,0-.1,0-.1-.9-.6-.5-1.3-.6-2-.1-.6-.8-1.1-.6-1.7-.7-.3-.6-.7-.4-1,.5-1.2,0-2.4,0-3.6,0-1.2,0-2.4,0-3.6,0-.2-.4-.4,0-.6.3-.2,0-.5,0-.8,0-.2-.1-.5,0-.7.7-.9.3-1.9.4-2.8.1-.9.2-1.9.2-2.8,0-.6-.3-1.2-.1-1.7,0-.2-.2-.5.4-.7.2,0-.2-.3-.2-.5,0-.4,0-.8.1-1.2,0-.5.2-1.1.2-1.6,0-.3-.2-.7-.2-1,0-.4,0-.7.2-1,.2-.4.5-.8.6-1.2.1-.4,0-1,.4-1.3.7-.7.6-1.5.9-2.3.3-.8.5-1.5.6-2.3,0-.5.7-.7.8-1.1,0-.2,1.5,0,2,.2,0,0,.2.1.2.2.3.5.9,1.1.7,1.6-.3.7-.4,1.3-.6,2Z"/>
  <path d="M309.4,102.9c-.1,0-.2,0-.4,0,0,0,0-.3-.2.3,0,.3,0-.4,0-.4-.1,0-.2,0-.4,0-.1,0-.3.2-.4.3-.1,0-.2-.3-.4,0-.1.3-.1-.3-.3-.1-.1.1-.2.2-.3,0,0-.2,0-.4-.2-.3,0,0-.1.4-.2.3,0,0,0-.3-.2.3,0,0,0,0,0-.1,0-.4,0-.4-.1-.1,0,.3-.1.2-.1.2-.1,0-.2,0-.3,0,0,0-.1-.3-.2-.4,0,0-.2.2-.2-.1,0-.3,0-.3-.2-.3,0,0,0-.3-.2.3,0,0,0,0,0,0,0-.8-.3.2-.3,0,0-.2-.2,0-.4,0,0,0,0-.2-.1.3,0,.2,0,.2,0,0,0-.6-.1-.3-.2-.4,0-.1-.2.1-.3-.4,0-.2,0-.3-.2.2,0,.3,0,0-.1,0,0,0-.1.3-.1.3,0,0,0-.2,0-.3,0,0,0,0,0,0-.2.6-.3-.3-.5,0-.2.2-.3,0-.5,0,0,0-.1-.3,0-1.4,0-.5,0-1.1.2-1.4,0-.2.1-.5.1-.5,0,0,.1-.2.2-.3.1-.2.3-.7.4-.4,0,0,0-.2,0,.3,0,0,0,.1,0,0,.2-.8.3-.2.5-.3.1,0,.3-.6.4-.4.1-.6.2-.5.3-.3.2.7.5.3.7.4.2.1.5,0,.7.1,0,0,.1-.3.1,0,0,.3,0,0,.2,0,0,0,.1-.1.1,0,0,.7.4.3.5.4.2.1.4.2.6,0,.1,0,.3-.4.4-.3,0,0,.2-.3.1.3,0,.2.1-.3.1-.3,0,0,.2,0,.2,0,.1,0,.2,0,.3,0,0,0,.2-.3.3-.3,0,0,.2,0,.2,0,0,0,.1.3.2.4,0,0,.2-.2.3.1,0,.5.3.3.4.4.2,0,.3.2.5,0,.1,0,0,.5.2.5,0,0-.2,1.5-.3,2,0,0,0,.2,0,.2-.2.4-.4,1.1-.5,1.1-.1-.1-.3,0-.4-.1Z"/>
  <path d="M307.3,117.1c0-.3,0-.6-.2-.9,0-.1.2-.3-.3-.3-.3,0,.3-.2.3-.3-.1-.3,0-.6-.1-.8,0-.3-.3-.5-.4-.8,0-.3.2-.6-.1-.8-.3-.2.2-.4,0-.7-.1-.2-.2-.5,0-.7.2-.2.4-.3.3-.5,0-.1-.4-.2-.4-.3,0-.1.3-.2-.3-.3,0,0,0,0,.1,0,.4-.1.4-.2.1-.3-.3,0-.2-.2-.2-.3,0-.2,0-.5,0-.7,0-.2.3-.3.4-.5,0-.2-.2-.4.1-.5.3-.1.3-.3.3-.5,0,0,.3-.2-.3-.3,0,0,0,0,0,0,.8-.2-.2-.6,0-.8.3-.2.1-.5.2-.8,0,0,.2-.1-.2-.3-.2,0-.2-.1,0-.2.7,0,.3-.4.5-.6.2-.2,0-.5.5-.6.2,0,.4-.2-.2-.4-.2-.1,0-.2,0-.3,0,0-.3-.2-.3-.3,0,0,.3,0,.4,0,0,0,0,0,0,0-.6-.5.4-.6.3-1,0-.4.1-.7.3-1,.1-.2.4-.3,1.5,0,.5.1,1,.3,1.3.5.2.1.4.3.4.3,0,.1.2.3.2.4.1.3.6.6.2.7-.1,0,.2.2-.3.1,0,0-.1,0,0,0,.7.5,0,.6,0,.9,0,.2.5.6.2.8.6.3.4.4.2.5-.8.3-.4.9-.6,1.3-.2.5-.1.9-.2,1.4,0,0,.3.2,0,.3-.3,0,0,.2,0,.3,0,0,.1.2,0,.3-.7.3-.3.7-.4,1.1,0,.4-.2.8,0,1.1,0,.2.4.5.3.7,0,0,.3.2-.3.3-.2,0,.3.1.3.2,0,.2,0,.3,0,.5,0,.2,0,.4,0,.7,0,.1.3.2.4.4,0,.1,0,.3,0,.4,0,.2-.2.4-.3.6,0,.2.3.3,0,.6-.5.4-.2.7-.2,1,0,.3,0,.7.2,1,.1.2-.3.4-.3.6,0,0-1.4.5-1.9.6,0,0-.2,0-.2,0-.5,0-1.2-.1-1.2-.3,0-.3-.1-.7-.2-1Z"/>
  <path d="M318.3,101.2c-.2.2-.4.5-.6.8,0,.1-.3,0,0,.5.2.2-.4,0-.4,0-.1.3-.4.5-.5.7-.1.3,0,.6-.2.9,0,.3-.5.4-.4.8.1.3-.4.3-.4.5,0,.3,0,.5-.4.6-.2,0-.5.1-.5.3,0,.1.2.4.2.5,0,0-.4,0,.2.4,0,0,0,0-.2,0-.4,0-.5,0-.2.3.2.2.1.3.1.3,0,.2-.2.4-.3.6-.1.1-.4.2-.5.3-.1.1,0,.4-.3.5-.3,0-.4.2-.5.4,0,0-.3,0,.2.4,0,0,0,0,0,0-.9,0,0,.6-.2.8-.3.2-.3.5-.3.8,0,0-.2,0,.2.3.1,0,.1.2,0,.2-.7,0-.4.3-.5.5-.2.2,0,.5-.5.6-.2,0-.4.2.2.4.2.1,0,.2,0,.3,0,0,.3.2.3.3,0,0-.3,0-.4.1,0,0,0,0,0,0,.6.5-.4.7-.3,1.1,0,.4,0,.7-.2,1.1,0,.2-.3.4-1.5.3-.5,0-1.1,0-1.4-.2-.2-.1-.4-.2-.5-.3,0-.1-.2-.3-.3-.4-.1-.3-.6-.7-.3-.9.1,0-.2-.2.3-.2,0,0,.1,0,0,0-.7-.5-.1-.8,0-1.2,0-.3-.5-.8-.2-1-.6-.3-.4-.5-.2-.6.8-.4.6-1.2.9-1.7.3-.6.4-1.2.7-1.8,0,0-.3-.3,0-.3.3,0,.2-.2.2-.4,0-.1,0-.3.2-.3.8-.2.6-.8.9-1.2.3-.4.5-.8.6-1.4,0-.3-.1-.7.1-1,.1,0-.1-.4.5-.2.2,0-.2-.3-.1-.4,0-.2.2-.4.3-.6.1-.3.3-.5.4-.8,0-.2,0-.5,0-.6,0-.2.2-.3.3-.5.2-.2.5-.2.7-.4.2-.2.1-.5.5-.6.7,0,.7-.6,1-.9.3-.3.6-.6.8-1,.1-.2.6,0,.8-.3,0,0,1.3.8,1.6,1.1,0,0,.1.1.1.2.2.5.6,1.1.5,1.2-.3.2-.5.5-.7.8Z"/>
  <path d="M323.5,102.7c-.1,0-.2-.1-.3,0,0,0,0-.3-.2.2,0,.3,0-.4,0-.4-.1,0-.2,0-.3,0-.1,0-.3.2-.4.2-.1,0-.1-.3-.3,0-.2.2,0-.3-.2-.2-.1,0-.2.2-.2,0,0-.2,0-.4-.1-.3,0,0-.2.4-.2.3,0,0,0-.3-.2.3,0,0,0,0,0-.1,0-.4,0-.4,0-.1-.1.3-.1.2-.2.2,0,0-.2,0-.3,0,0,0,0-.3-.1-.4,0,0-.2.2-.2-.1,0-.3,0-.3-.1-.3,0,0,0-.3-.2.3,0,0,0,0,0,0,0-.8-.3.2-.3,0,0-.2-.2-.1-.3-.1,0,0,0-.2-.1.3,0,.2,0,.2,0,0,0-.6-.1-.3-.2-.4,0-.1-.2.1-.2-.4,0-.2,0-.3-.2.2,0,.3,0,0-.1,0,0,0-.1.3-.2.3,0,0,0-.2,0-.3,0,0,0,0,0,0-.3.6-.2-.3-.4-.1-.2.1-.3,0-.4,0,0,0-.1-.3,0-1.4,0-.5.2-1.1.3-1.4,0-.2.1-.4.2-.5,0,0,.1-.2.2-.3.1-.2.3-.7.4-.4,0,0,.1-.2,0,.3,0,0,0,.1,0,0,.3-.7.3-.2.5-.2.1,0,.4-.6.4-.3.2-.6.2-.5.3-.3,0,.7.4.3.6.4.2.1.4.1.6.2,0,0,.2-.3.1,0,0,.3,0,0,.1,0,0,0,.1-.1.1,0,0,.7.3.3.4.5.2.1.3.2.5.1.1,0,.3-.4.4-.2,0,0,.2-.3,0,.3,0,.2.1-.3.2-.3,0,0,.1,0,.2,0,0,0,.2,0,.3,0,0,0,.2-.2.3-.3,0,0,.1,0,.2,0,0,0,0,.3.1.4,0,0,.2-.2.2.1,0,.5.2.3.3.4.1,0,.3.2.4.1.1,0,0,.5.1.5,0,0,0,.4-.2.8-.1.4-.2.9-.3,1.1,0,0,0,.2,0,.2-.2.4-.5,1.1-.6,1-.1-.1-.2,0-.4-.1Z"/>
  <path d="M317.4,114.5c0-.3.1-.5.1-.8,0-.1.3-.2-.2-.4-.3-.1.4,0,.4-.2,0-.3.1-.5.1-.8,0-.3-.2-.6-.2-.8,0-.3.4-.4,0-.8-.2-.3.3-.3.3-.6,0-.2,0-.5.2-.6.2,0,.5-.2.4-.4,0-.1-.3-.3-.3-.4,0,0,.3-.1-.2-.4,0,0,0,0,.2,0,.4,0,.4-.1.2-.3-.2-.2-.2-.2-.2-.3,0-.2,0-.4.2-.6,0-.1.4-.2.5-.3.1-.1,0-.4.2-.4.3,0,.4-.2.4-.3,0,0,.3,0-.2-.4,0,0,0,0,0,0,.9,0,0-.6.2-.7.3-.2.2-.5.3-.7,0,0,.2,0-.2-.3-.1,0-.1-.2,0-.1.7,0,.4-.3.6-.4.2-.2,0-.5.6-.5.2,0,.4,0-.1-.4-.2-.2,0-.1,0-.2,0,0-.2-.3-.2-.3,0,0,.3,0,.4,0,0,0,0,0,0,0-.5-.6.5-.5.5-.9,0-.4.2-.7.5-.9.1-.1.4-.2,1.4.2.5.2,1,.5,1.2.7.2.2.4.3.4.4,0,.1.1.3.1.4,0,.3.5.7.1.7-.1,0,.1.2-.3,0,0,0-.1,0,0,0,.6.6,0,.6,0,.9,0,.2.4.7,0,.8.5.4.4.5.1.5-.8.1-.6.7-.8,1.1-.3.4-.4.9-.6,1.3,0,0,.3.3,0,.3-.3,0-.1.2-.2.3,0,0,0,.2-.1.3-.7.1-.5.6-.7.9-.2.3-.4.7-.3,1.1,0,.2.3.6.1.7,0,0,.2.3-.4.2-.2,0,.2.2.2.3,0,.2,0,.3-.1.4,0,.2-.1.4-.1.6,0,.1.2.3.2.5,0,.1,0,.3,0,.4-.1.1-.4.3-.5.4-.1.2.1.4-.2.5-.6.2-.4.6-.5.9-.1.3-.2.6-.1.9,0,.2-.5.3-.5.5,0,0-1.5,0-2-.1,0,0-.2,0-.2,0-.4-.2-1.1-.5-1-.7.1-.3.1-.6.2-.9Z"/>
  <path d="M333.2,110.3c-.3-.3-.7-.6-1-.8-.1,0-.1-.4-.6,0-.2.2,0-.4,0-.5-.4-.2-.6-.5-.9-.7-.3-.2-.8-.3-1.1-.5-.2-.1-.3-.3-.4-.4-.1-.1-.3-.3-.4-.2-.2.2,0-.2,0-.2,0,0-.1.2-.1,0,0-.2-.1-.4-.2-.3,0,0,0,.4,0,.4,0,0-.2-.2.1.4,0,0,0,0,0-.1-.2-.4-.3-.3,0,0,.2.2.1.2.2.2,0,0,0,.2-.2.3-.1.1-.2.2-.3.3-.2.1-.5.2-.7.3-.2.1-.2.5-.5.5-.4,0-.5.2-.6.3,0,0-.4,0,0,.5,0,0,0,0,0,0-.9-.2-.2.7-.6.9-.4.2-.5.5-.7.9,0,0-.3,0,0,.4.1.1,0,.2,0,.2-.7-.1-.5.3-.7.5-.3.2-.2.6-.8.6-.2,0-.4.1,0,.5.2.2-.1.2-.1.3,0,.1.2.3.2.4,0,0-.3,0-.4,0,0,0,0,0,0,0,.4.7-.6.7-.6,1.2,0,.5-.2.8-.4,1.2-.1.2-.3.4-1.5.3-.5,0-1.1-.2-1.4-.3-.2-.1-.4-.3-.4-.4,0-.2-.1-.4-.2-.6,0-.4-.5-.9,0-1.2.1,0-.1-.3.4-.2,0,0,.1,0,0,0-.6-.7.1-1,.3-1.5.1-.4-.2-1.1.2-1.3-.4-.5-.2-.7,0-.8,1-.4,1.1-1.3,1.6-1.9.5-.6,1-1.3,1.5-1.9,0-.1-.1-.4.2-.4.3,0,.3-.2.4-.4.1-.1.1-.3.3-.3.9,0,1-.8,1.4-1.2.1-.1.2-.2.4-.4l.5-.5c.4-.3.7-.7,1.1-.9.5-.4,1.1-.9,1.7-.7.3,0,.6-.2.8.4,0,.2.4-.2.5-.1.4.1.8.4,1.1.6.2.2.5.4.7.6l.2.2c0,0,.1.1.2.1.2.1.5,0,.7.1.2,0,.4.2.5.4.2.2.2.6.4.8.2.2.6.2.6.6,0,.7.6.8,1,1.2.4.3.7.7,1.2.9.3.1.2.7.4.8.1,0-.6,1.4-.9,1.8,0,0-.1.1-.2.2-.5.2-1.1.7-1.4.4-.4-.3-.8-.6-1.2-.9Z"/>
  <path d="M333.2,117.3c0-.1.1-.2,0-.3,0,0,.3,0-.2-.2-.2-.1.4,0,.4,0,0-.1,0-.2,0-.3,0-.1-.2-.3-.2-.4,0-.1.3-.1,0-.3-.2-.2.3,0,.2-.2,0-.1-.1-.2.1-.2.2,0,.4,0,.3,0,0,0-.4-.2-.3-.2,0,0,.3,0-.3-.2,0,0,0,0,.1,0,.4,0,.4,0,.1,0-.3-.1-.2-.1-.2-.2,0,0,0-.2,0-.3,0,0,.3,0,.4,0,0,0-.2-.2.1-.2.3,0,.3,0,.3-.1,0,0,.3,0-.3-.2,0,0,0,0,0,0,.8.1-.2-.3,0-.3.2,0,.1-.2.1-.3,0,0,.2,0-.2-.2-.2,0-.2,0,0,0,.6,0,.3,0,.4-.1.1,0-.1-.2.4-.2.2,0,.3,0-.2-.2-.3,0,0,0,0-.1,0,0-.3-.1-.3-.2,0,0,.2,0,.3,0,0,0,0,0,0,0-.6-.3.3-.2.2-.4-.1-.2,0-.3.1-.4,0,0,.3,0,1.4.1.5.1,1,.2,1.4.3.2,0,.4.2.5.2,0,0,.2.1.3.2.2.1.7.4.4.4,0,0,.2.1-.3,0,0,0-.1,0,0,0,.7.3.2.3.2.5,0,.1.6.4.3.4.6.2.5.3.3.3-.7,0-.3.4-.5.6-.2.2-.1.4-.2.6,0,0,.3.2,0,.1-.3,0,0,0,0,.1,0,0,.1.1,0,.1-.7,0-.4.3-.5.4-.1.1-.2.3-.1.5,0,.1.4.3.2.4,0,0,.2.2-.3,0-.2,0,.3.1.3.2,0,0,0,.1,0,.2,0,0,0,.2,0,.3,0,0,.2.2.3.3,0,0,0,.1,0,.2,0,0-.3,0-.4.1,0,0,.2.2-.1.2-.5,0-.3.2-.4.3,0,.1-.2.3-.1.4,0,.1-.5,0-.5,0,0,0-.4,0-.8-.2s-.9-.3-1.1-.4c0,0-.2,0-.2,0-.4-.2-1.1-.5-1-.6.1-.1,0-.2.1-.4Z"/>
  <path d="M328.4,112.4c.1,0,.2.2.3.2,0,0,0,.3.3-.2.2-.2-.2.3-.1.3.1,0,.2.2.3.2.1,0,.4,0,.5,0,.1,0,0,.3.3.1.2-.2,0,.3.2.2.2,0,.3,0,.2.2,0,.2-.1.4,0,.4,0,0,.3-.3.3-.2,0,0,0,.3.3-.2,0,0,0,0,0,.1-.2.4-.1.4,0,.2.2-.2.2-.2.2-.1.1,0,.2,0,.2.2,0,0,0,.3,0,.4,0,0,.2-.1.1.2-.1.3,0,.3,0,.3,0,0,0,.3.3-.2,0,0,0,0,0,0-.4.8.3-.1.3.1,0,.2.1.2.2.2,0,0,0,.2.2-.2,0-.1.1-.1,0,0-.2.6,0,.3,0,.4,0,.1.2,0,0,.4,0,.2,0,.3.2-.2.1-.2,0,0,0,0,0,0,.2-.3.2-.3,0,0,0,.2,0,.3,0,0,0,0,0,0,.3-.6.1.3.3.1.1-.1.2,0,.3,0,0,0,0,.2,0,1.4,0,.5-.1,1.1-.2,1.4,0,.2-.1.5-.2.5,0,0-.2.2-.2.3-.2.2-.4.7-.5.3,0,0-.1.2,0-.3,0,0,0-.1,0,0-.4.7-.4.1-.6.1-.2,0-.5.5-.6.2-.3.5-.4.4-.4.2,0-.7-.5-.5-.7-.7-.2-.2-.5-.3-.7-.5,0,0-.3.2-.2,0,0-.2,0-.1-.1-.1,0,0-.2,0-.1-.1.2-.7-.2-.4-.3-.6-.1-.2-.2-.3-.5-.3-.2,0-.4.2-.5,0,0,0-.2.2,0-.3,0-.1-.2.2-.3.2,0,0-.1,0-.2-.1,0,0-.2-.2-.3-.2,0,0-.3.2-.4.2,0,0-.2,0-.2-.1,0-.1,0-.3,0-.4,0-.1-.3,0-.2-.2.2-.5-.1-.4-.2-.5,0-.1-.2-.3-.4-.3-.1,0,.1-.5,0-.5,0,0,.8-1.3,1.1-1.7,0,0,.1-.2.1-.2.3-.3.8-.9.9-.8,0,.1.2.2.4.3Z"/>
  <path d="M324.9,126.6c0-.2.2-.4.2-.6,0,0,.3,0-.2-.3-.2-.1.4,0,.4,0,0-.2.2-.3.2-.5,0-.2-.1-.4-.1-.6,0-.2.4-.3.1-.5-.2-.2.3-.2.3-.4,0-.2,0-.4.2-.4.2,0,.4,0,.4-.2,0,0-.3-.3-.3-.3,0,0,.3,0-.2-.3,0,0,0,0,.2,0,.4,0,.4,0,.2-.2-.2-.2-.2-.2-.2-.2,0-.2,0-.3.2-.4,0,0,.3-.1.4-.2.1,0-.1-.3.2-.3.3,0,.3-.1.4-.2,0,0,.3,0-.3-.3,0,0,0,0,0,0,.8.1-.1-.4.1-.5.3-.1.2-.3.2-.5,0,0,.2,0-.2-.2-.1,0-.1-.1,0-.1.6,0,.3-.2.5-.3.2-.1,0-.4.5-.4.2,0,.4,0-.2-.3-.2-.1,0-.1,0-.2,0,0-.3-.2-.3-.2,0,0,.2,0,.4,0,0,0,0,0,0,0-.6-.4.4-.4.3-.7,0-.3,0-.5.2-.7,0-.1.3-.2,1.4,0,.5.1,1,.3,1.3.4.2.1.4.2.5.3,0,.1.2.2.2.3.1.2.6.5.3.6,0,0,.2.2-.3,0,0,0-.1,0,0,0,.7.5.1.5.1.7,0,.2.5.6.2.7.6.3.4.4.2.4-.8.1-.5.7-.7,1-.2.3-.3.7-.4,1.1,0,0,.3.2,0,.2-.3,0-.1.1-.1.2,0,0,0,.2-.1.2-.7,0-.5.5-.6.7-.2.3-.3.5-.3.9,0,.2.3.5,0,.6,0,0,.2.3-.4.1-.2,0,.2.2.2.2,0,.1,0,.2-.1.4,0,.2-.2.3-.2.5,0,.1.2.3.2.4,0,.1,0,.2-.1.3-.1.1-.4.2-.5.3-.1.1,0,.4-.2.4-.6,0-.4.4-.6.6-.2.2-.3.4-.3.7,0,.2-.5,0-.6.2,0,0-1.4-.4-1.9-.6,0,0-.2,0-.2-.1-.4-.3-1-.7-.9-.8.2-.2.2-.4.3-.6Z"/>
  <path d="M329.5,128.8c-.1,0-.2,0-.3.2,0,0-.2-.2,0,.3,0,.3-.2-.3-.2-.3,0,.1-.2,0-.3.2,0,0,0,.3-.2.4,0,.1-.3-.1-.3.2,0,.3-.2-.1-.3,0,0,.2,0,.3-.3,0-.1-.1-.3-.3-.3-.2,0,0,0,.4,0,.4,0,0-.2-.2,0,.4,0,0,0,0,0-.1-.2-.4-.2-.3-.2,0,0,.3,0,.2,0,.3,0,0-.1.1-.3.1,0,0-.2-.2-.3-.2,0,0,0,.3-.2,0-.2-.3-.2-.2-.3-.2,0,0-.2-.2,0,.4,0,0,0,0,0,0-.4-.7,0,.3-.3.2-.2-.1-.2,0-.3.1,0,0-.1-.1,0,.3,0,.2,0,.2,0,0-.3-.5-.3-.2-.4-.2-.1,0-.1.2-.4-.2-.1-.2-.2-.3,0,.3,0,.3,0,0,0,0,0,0,0,.3,0,.3,0,0-.1-.2-.2-.3,0,0,0,0,0,0,.1.7-.4,0-.4.1,0,.2-.2.2-.4.2,0,0-.2-.2-.8-1.2-.2-.5-.4-1-.5-1.3,0-.2-.1-.4-.1-.5,0-.1,0-.3,0-.4,0-.2-.1-.7,0-.5,0,0,0-.2.2.2,0,0,0,0,0,0-.2-.8.1-.4.2-.5,0,0,0-.7.1-.5-.2-.6,0-.5,0-.4.5.5.5,0,.7,0,.2,0,.4-.2.6-.2,0,0,0-.4,0-.1.1.2.1,0,.2,0,0,0,0-.2.1,0,.4.5.4.1.6,0,.2,0,.4,0,.5-.2,0-.1,0-.5.2-.4,0,0,0-.3.3.2,0,.1,0-.3,0-.3,0,0,.1,0,.2-.1,0,0,.2,0,.3-.1,0,0,0-.3,0-.4,0,0,0-.1.2,0,.1,0,.3.2.4.2.1,0,0-.3.3,0,.3.4.4.1.5.1.2,0,.3,0,.4-.2,0,0,.3.3.4.3,0,0,.7,1.3.9,1.8,0,0,0,.2,0,.2.1.5.3,1.2.2,1.1-.2,0-.3,0-.4.1Z"/>
  <path d="M335.9,119.3c0,.2-.2.3-.2.5,0,0-.3,0,.2.3.2.2-.4,0-.4,0,0,.2-.2.3-.2.5,0,.2,0,.4,0,.6,0,.2-.4.2-.2.5.2.3-.3.2-.3.3,0,.2,0,.4-.2.4-.2,0-.4,0-.4.2,0,0,.3.3.2.3,0,0-.3,0,.2.3s0,0-.2,0c-.4-.1-.4,0-.2.1.2.2.2.2.1.3,0,.2,0,.3-.2.4,0,0-.4,0-.5.1-.1,0,0,.3-.2.3-.3,0-.4,0-.4.1,0,0-.3,0,.2.3,0,0,0,0,0,0-.8-.3,0,.4-.2.5-.3,0-.2.3-.3.5,0,0-.2,0,.2.3.1,0,.1.1,0,.1-.6-.2-.4.1-.5.2-.2,0,0,.4-.5.3-.2,0-.4,0,.1.3.2.2,0,0,0,.2,0,0,.2.2.2.3,0,0-.2,0-.4,0,0,0,0,0,0,0,.5.5-.4.3-.4.6,0,.2,0,.3-.1.4l-1.3,1.6-1.2-.5c0,0-.2,0-.3-.2-.1,0-.2-.3,0-1.4,0-.5.2-1,.4-1.4,0-.2.2-.4.3-.5,0,0,.2-.2.3-.3.1,0,.3-.3.4-.4l-2,.8c0,0,0-.1.1-.1,0,0-.1-.2.3,0,0,0,.1,0,0,0-.6-.6,0-.5,0-.7,0-.2-.4-.6,0-.7-.5-.4-.3-.4-.1-.4.8,0,.5-.5.8-.7.3-.3.3-.6.5-.9,0,0-.3-.3,0-.2.3,0,.1-.1.2-.2,0,0,0-.2.1-.2.7,0,.5-.4.7-.6.2-.2.4-.4.4-.7,0-.2-.2-.5,0-.6,0,0-.2-.3.4,0,.2,0-.2-.2-.2-.3,0-.1,0-.2.1-.3,0-.1.2-.3.2-.4,0-.1-.2-.3-.2-.4,0-.1,0-.2.1-.3.1,0,.4-.1.5-.2.1,0,0-.3.2-.3.6,0,.4-.3.6-.5.2-.2.3-.4.3-.6,0-.1.5,0,.5-.2,0,0,1.4.5,1.8.7,0,0,.2,0,.2.1.4.3,1,.7.9.8-.2.2-.2.4-.3.6Z"/>
  <path d="M337.8,124c0-.1,0-.2-.2-.3,0,0,.2-.2-.3,0-.2.1.3-.2.2-.3-.1,0,0-.2-.2-.3-.1,0-.3,0-.5,0-.1,0,0-.3-.2-.2-.3,0,0-.3,0-.3-.2,0-.3,0-.1-.2.1-.2.2-.3.1-.3,0,0-.4.2-.4.1,0,0,.2-.2-.3.1,0,0,0,0,0-.1.3-.3.2-.3,0-.2-.2.1-.2,0-.3,0,0,0-.2-.1-.2-.2,0,0,.1-.3.1-.4,0,0-.3,0,0-.2.2-.2.1-.3,0-.3,0,0,.2-.3-.3.1,0,0,0,0,0,0,.6-.6-.3,0-.2-.2,0-.2,0-.2-.2-.3,0,0,0-.2-.3.1-.1.1-.2,0,0,0,.4-.5,0-.3,0-.4,0-.2-.3,0,0-.4.1-.2.2-.3-.3,0-.2.2,0,0-.1,0,0,0-.3.2-.3.2,0,0,.1-.2.2-.3,0,0,0,0,0,0-.5.4,0-.3-.3-.3-.2,0-.3-.1-.3-.3,0,0,0-.3.7-1.2.3-.4.7-.8.9-1.1.2-.2.3-.3.4-.3.1,0,.2-.1.3-.2.2,0,.6-.4.5-.1,0,0,.2-.1-.1.3,0,0,0,0,0,0,.6-.5.4,0,.6,0,.1,0,.7-.3.6,0,.5-.4.5-.3.4,0-.3.7.2.5.3.8.1.3.4.4.5.6,0,0,.3-.2.1,0-.2.2,0,.1,0,.2,0,0,.2,0,0,.1-.4.6,0,.5.1.7,0,.2.1.4.4.5.2,0,.5,0,.5.1,0,0,.3,0-.2.3-.1.1.3-.1.3,0,0,0,.1.1.2.2,0,0,0,.2.2.3,0,0,.3,0,.4,0,0,0,.1.1.1.2,0,.1-.1.3-.1.4,0,.1.3,0,.1.3-.4.4,0,.4,0,.6,0,.2,0,.4.3.5.1,0-.3.4-.2.5,0,0-1.3.8-1.7,1,0,0-.2,0-.2,0-.5.1-1.1.4-1.1.3,0-.2-.1-.2-.2-.4Z"/>
  <path d="M340.1,121.9s0,0,0,0c0,0,0,.2,0-.3,0-.3-.1.4,0,.3,0,0,0,0,0,0,0,0,0-.3.1-.3,0,0,0,.2,0,0,0-.3,0,.2,0,.1,0-.1,0-.2,0,0,0,.2-.1.4,0,.3,0,0,.1-.4.1-.3,0,0,0,.3.1-.3,0,0,0,0,0,.1-.1.4-.1.4,0,0,0-.3,0-.2,0-.2,0,0,0,0,0,0,0,0,0,.3,0,.3,0,0,0-.2,0,0,0,.3,0,.3,0,.3,0,0,0,.3.1-.3,0,0,0,0,0,0-.2.8,0-.2,0,0,0,.2,0,0,0,0,0,0,0,.2,0-.3,0-.2,0-.2,0,0-.2.6,0,.2,0,.3,0,.1,0-.2,0,.3,0,.2,0,.3,0-.3,0-.3,0,0,0,0,0,0,0-.3,0-.3,0,0,0,.2,0,.3,0,0,0,0,0,0,.2-.6,0,.2,0,0,0-.2,0,0,0,0,0,0,0,.2-.4,1.3-.1.5-.3,1-.4,1.3,0,.2-.1.4-.2.5,0,0,0,.2,0,.3,0,.2-.2.7-.1.4,0,0,0,.2,0-.3,0,0,0-.1,0,0-.2.8,0,.3-.1.3,0,0-.2.6-.1.4-.2.6-.2.5-.1.3.2-.6,0-.2,0-.3,0,0,0,0,0,0,0,0-.1.3,0,0,0-.2,0,0,0,0,0,0,0,.1,0,0,.2-.6,0-.3,0-.3,0,0,0-.1,0,0,0,0-.1.4,0,.3,0,0,0,.3,0-.3,0-.2,0,.3,0,.3,0,0,0,0,0,0,0,0,0,0,0,0,0,0,0,.3-.1.3,0,0,0,0,0,0,0,0,0-.3,0-.3,0,0,0,.2,0,0,.1-.5,0-.2,0-.3,0,0,0-.1,0,0,0,0,.1-.4.1-.4,0,0,.4-1.4.6-1.9,0,0,0-.2,0-.2.1-.4.3-1.1.3-1.1,0,0,0,0,0,0Z"/>
  <path d="M333.8,136c0-.2.2-.4.3-.6,0,0,.3,0-.2-.4-.2-.1.4,0,.4,0,0-.2.2-.4.2-.6,0-.2-.1-.5,0-.7,0-.2.4-.3.1-.6-.2-.3.3-.2.3-.4,0-.2,0-.4.2-.5.2,0,.5,0,.4-.2,0,0-.3-.3-.3-.3,0,0,.3,0-.2-.3,0,0,0,0,.2,0,.4,0,.4,0,.2-.2-.2-.2-.2-.2-.2-.3,0-.2,0-.3.2-.5,0-.1.4-.2.4-.3.1-.1-.1-.3.2-.4.3,0,.4-.1.4-.3,0,0,.3,0-.3-.3,0,0,0,0,0,0,.9,0-.1-.5.1-.6.3-.1.2-.4.2-.6,0,0,.2,0-.2-.2-.1,0-.2-.1,0-.1.6,0,.3-.2.5-.4.2-.1,0-.4.5-.4.2,0,.4,0-.2-.3-.2-.1,0-.1,0-.2,0,0-.3-.2-.3-.2,0,0,.2,0,.4,0,0,0,0,0,0,0-.6-.4.4-.5.2-.8-.1-.3,0-.6.2-.8,0-.1.3-.2,1.4,0,.5,0,1.1.2,1.4.3.2.1.4.2.5.3,0,.1.2.2.3.3.1.2.6.5.3.6,0,0,.2.2-.3.1,0,0-.1,0,0,0,.7.4.1.6.1.8,0,.2.5.6.2.7.6.3.4.4.2.5-.8.2-.4.8-.7,1.2-.2.4-.3.8-.4,1.3,0,0,.3.2,0,.2-.3,0-.1.2-.1.3,0,0,0,.2-.1.2-.7.1-.5.6-.7.9-.2.3-.4.6-.3,1,0,.2.3.5,0,.7,0,0,.2.3-.4.1-.2,0,.2.2.2.3,0,.2,0,.3-.1.4,0,.2-.2.4-.2.6,0,.1.2.3.2.5,0,.1,0,.3-.1.4-.1.1-.4.2-.5.3-.1.1,0,.4-.3.4-.6,0-.5.4-.6.7-.2.2-.3.5-.3.8,0,.2-.5.1-.6.3,0,0-1.4-.5-1.9-.7,0,0-.2-.1-.2-.1-.4-.3-1-.8-.8-.9.2-.2.2-.5.3-.7Z"/>
  <path d="M322.7,145.3c.2-.2.4-.3.6-.6,0,0,.3,0,0-.4-.1-.2.4.2.4,0,.1-.2.4-.3.5-.5.1-.2.2-.5.3-.7.1-.2.5-.1.5-.5,0-.3.4,0,.5-.3,0-.2.2-.4.5-.4.2,0,.5.1.5,0,0-.1-.1-.4,0-.5,0,0,.3,0,0-.4,0,0,0,0,.1,0,.3.2.4.2.3-.1-.1-.3,0-.3,0-.3.1-.2.3-.3.5-.4.1,0,.4,0,.6,0,.2,0,.1-.4.4-.2.3.1.4,0,.5,0,0,0,.3.1,0-.4,0,0,0,0,0,0,.7.5.2-.5.5-.5.3,0,.4-.3.6-.4,0,0,.2,0,0-.3,0-.1,0-.2,0-.1.5.4.4,0,.7,0,.2,0,.2-.4.7-.1.2.1.4.1,0-.4-.1-.2.1,0,.1-.2,0,0,0-.3,0-.4,0,0,.2.1.3.2,0,0,0,0,0,0-.2-.7.6-.2.8-.5.1-.3.4-.5.8-.6.2,0,.4,0,1.2.8.3.4.7.8.8,1.1,0,.2.2.4.2.5,0,.1,0,.3,0,.4,0,.3.1.8-.2.7-.1,0,0,.3-.3-.1,0,0,0,0,0,0,.3.8-.3.5-.5.8-.2.2,0,.8-.3.8.3.6,0,.6-.1.5-.8-.2-.9.4-1.3.6-.4.2-.7.6-1.1.9,0,0,.1.4-.1.2-.2-.1-.2,0-.3.1,0,0,0,.2-.2.2-.7-.3-.7.3-1.1.5-.3.2-.7.4-.8.7-.1.2,0,.6-.3.7-.1,0,0,.3-.4,0-.1-.1,0,.3,0,.3,0,.1-.2.2-.3.3-.2.1-.4.2-.5.4,0,.1,0,.4,0,.5,0,.1-.2.2-.3.3-.2,0-.4,0-.6,0-.2,0-.1.4-.4.3-.6-.2-.6.2-.9.4-.3.2-.5.4-.7.7,0,.2-.5,0-.7,0,0,0-1.1-.9-1.5-1.3,0,0-.1-.2-.1-.2-.2-.5-.6-1.1-.4-1.2.3-.2.5-.4.7-.6Z"/>
  <path d="M320.8,166.8c0-.4,0-.8-.2-1.2,0-.1.2-.3-.4-.4-.3,0,.3-.3.3-.4-.1-.4,0-.7-.1-1.1,0-.4-.3-.7-.4-1.1,0-.4.2-.7-.1-1.1-.3-.3.2-.6,0-.9-.1-.3-.2-.6,0-.9.2-.2.4-.4.3-.6,0-.1-.4-.3-.3-.4,0-.1.3-.3-.3-.4,0,0,0,0,.2,0,.4-.1.4-.3.1-.4-.3-.1-.2-.2-.2-.4,0-.3,0-.6,0-.9,0-.2.3-.4.4-.7,0-.2-.2-.5.2-.7.3-.2.4-.4.4-.6,0-.1.3-.2-.3-.4,0,0,0,0,0,0,.9-.2-.1-.7.2-1.1.3-.3.2-.7.3-1.1,0,0,.2-.2-.2-.4-.1,0-.1-.2,0-.2.7-.1.4-.5.6-.7.2-.3,0-.7.6-.9.2,0,.4-.2-.1-.6-.2-.2,0-.2,0-.4,0-.1-.2-.3-.2-.4,0,0,.3,0,.4-.1,0,0,0,0,0,0-.5-.7.5-.8.5-1.3,0-.5.3-.9.5-1.4.2-.2.4-.4,1.5,0,.5.1,1,.4,1.3.6.2.2.4.3.4.4,0,.2.1.3.1.5,0,.3.4.8,0,.9-.1,0,.1.3-.4.1,0,0-.1,0,0,0,.6.6,0,.8-.1,1.2,0,.3.4.8,0,1.1.5.4.4.5.1.6-.8.4-.6,1.2-.8,1.8-.2.6-.3,1.3-.4,1.9,0,.1.3.3,0,.3-.3,0-.1.3-.1.4,0,.1,0,.3,0,.4-.7.4-.4,1-.5,1.5-.1.5-.2,1,0,1.6,0,.3.4.6.3,1,0,.1.3.3-.3.4-.2,0,.3.2.3.3,0,.2,0,.4,0,.6,0,.3,0,.6,0,.9,0,.2.3.3.4.5,0,.2,0,.4,0,.6,0,.2-.2.5-.3.7,0,.3.3.5,0,.8-.5.5-.1.9-.1,1.4,0,.4,0,.9.3,1.3.1.2-.3.6-.3.8,0,.1-1.4.6-1.9.7,0,0-.2,0-.2,0-.5-.2-1.3-.2-1.3-.6,0-.5-.2-.9-.2-1.3Z"/>
  <g>
    <path d="M241.7,343.8c-4.4-4.4-12.2-5-17.1-1-4.1,3.3-3.9,8.2-.8,12.2,4.9,6.2,16.5,9.9,22.5,3.3,2.1-2.4,2.9-5.9,1.8-8.9-1.1-3-3.9-5.3-7-5.8"/>
    <path d="M248.4,346c.9,1.2,1.5,2.7,1.9,4.1.1.6,0,1.1.5,1.7.3.3-.4.9-.4,1.4,0,1.4-.5,2.8-1.1,4-.3.6-.6,1.2-1,1.9-.4.6-.8,1.1-1.3,1.6-1,1-2.3,1.5-3.4,2.3-.5.4-1,.4-1.5.6-.5.1-1.1,0-1.6.2-.3,0-.5.2-.8.2-.3,0-.6,0-.8,0-.6,0-1.1,0-1.7-.1-.4-.1-.8-.2-1.1-.3-.4-.1-.7-.2-1.1-.2-.5,0-1,.2-1.5,0-.5-.2-.9-.5-1.5,0,0,0-.2-.1-.3-.3-.4-.6-.9-.7-1.4-.6-.5,0-.8-.1-1.2-.3-1-.4-2-.9-2.8-1.6-.7-.5-1.1-1.2-1.7-1.7-.6-.6-1.5-1-1.8-1.8-.3-.8-.8-1.4-1.2-2-.2-.4-.3-1-1-1,0,0-.1-.2-.1-.3,0-.8-.2-1.3-.6-1.9-.3-.6-.7-1.2-.7-2,0-1.5,0-3,.6-4.5.2-.4.5-.7.3-1.2,0-.2.1-.6.3-.7,1.1-.6,1.6-1.7,2.5-2.3.5-.4,1-.7,1.5-1.1.5-.3,1.1-.6,1.7-.6.3,0,.6,0,.8-.2.3-.1.5-.3.7-.7.2-.4.8-.2,1.2-.4.3-.1.6-.5,1-.5.3,0,.6.1.9.2,0,0,.2,0,.3,0,.8-.4,1.7-.3,2.6-.2.9.2,1.7.5,2.5.6,1.7.2,3.4,1,4.8,2,.4.3.8.6,1,1.1.2.4.3,1,.1,1.6-.2.6-.6.9-1,.9-.3,0-.7,0-.9-.1-.4-.2-.8-.3-1.2-.5-.8-.3-1.8-.2-2.5-.7-.2-.2-.6,0-.7-.5,0,0-.1-.1-.2-.1-1.3.5-2.4-.2-3.6-.1-1,0-1.8.9-2.8.8-.3.8-.9.8-1.4.9-.9,0-1.8.5-2.4,1.2-.6.6-1.1,1.3-1.4,2-.7,1.4-.5,3.2.2,4.8.2.3.6.3.5.8,0,.4.4.7.6,1,.2.3.6.5.8.9.6,1.6,2.2,2.3,3.6,3.2,1.4.9,2.9,1.6,4.5,1.8.2,0,.5,0,.7,0h.7c.2,0,.5,0,.7,0,.2,0,.5,0,.7,0,.2,0,.4,0,.6,0,.2,0,.4,0,.6.3.1.2.5-.3.7-.3.6-.2,1.2-.2,1.8-.4l.6-.2c.2,0,.4-.2.6-.3l.6-.3c.2,0,.3-.2.5-.4.2-.2.4-.3.5-.5.1-.2.2-.5.4-.6.4-.4.6-.7.9-1.1.4-.5.8-.9,1.1-1.5.3-.6,0-1.3.4-2,.3-.6.3-1.2.1-1.8-.1-.6-.4-1.1-.7-1.7-.6-1.1-1.5-2-2.6-2.6-.6-.3-1-1-1.7-1.2-.3,0-.5-1.6-.3-2.1,0,0,.1-.2.2-.2,1-.3,2.1-.7,3.2-.1,1.5.8,2.8,1.9,3.9,3.3Z"/>
  </g>
  <g>
    <path d="M206,382.7c-4.3-4.2-11.9-4.8-16.6-1-4,3.2-3.8,8-.8,11.8,4.8,6,16,9.6,21.9,3.2,2.1-2.3,2.8-5.8,1.7-8.7-1-2.9-3.8-5.2-6.8-5.6"/>
    <path d="M212.6,384.8c.9,1.2,1.5,2.6,1.8,4,.1.6,0,1.1.5,1.7.3.3-.4.8-.4,1.3,0,1.4-.5,2.7-1.1,3.9-.3.6-.6,1.2-.9,1.8-.4.6-.8,1.1-1.3,1.6-1,1-2.3,1.4-3.3,2.2-.4.4-1,.4-1.5.5-.5.1-1,0-1.5.2-.3,0-.5.2-.8.2-.3,0-.5,0-.8,0-.5,0-1.1,0-1.6-.1-.4-.1-.7-.2-1.1-.3-.4-.1-.7-.2-1.1-.2-.5,0-1,.2-1.4,0-.4-.1-.9-.5-1.4,0,0,0-.2-.1-.3-.3-.3-.6-.9-.7-1.4-.6-.5,0-.8,0-1.2-.2-1-.4-1.9-.9-2.7-1.6-.7-.4-1.1-1.2-1.7-1.7-.6-.6-1.4-1-1.7-1.8-.3-.8-.8-1.3-1.2-2-.2-.4-.2-.9-1-1,0,0-.1-.2-.1-.3,0-.8-.2-1.3-.5-1.9-.3-.6-.7-1.2-.7-1.9,0-1.4,0-3,.6-4.4.2-.4.5-.7.3-1.2,0-.2.1-.6.3-.7,1.1-.6,1.5-1.6,2.4-2.2.5-.3,1-.7,1.4-1,.5-.3,1-.6,1.7-.6.3,0,.6,0,.8-.2.3-.1.5-.3.7-.7.2-.4.8-.2,1.2-.4.3-.1.6-.5,1-.5.3,0,.6.1.9.2,0,0,.2,0,.3,0,.8-.4,1.7-.3,2.5-.2.8.2,1.6.5,2.4.6,1.7.2,3.3,1,4.7,2,.4.3.7.6,1,1,.2.4.3,1,.1,1.6-.2.5-.6.9-1,.9-.3,0-.7,0-.9-.1-.4-.2-.8-.3-1.2-.4-.8-.3-1.7-.1-2.4-.7-.2-.2-.6,0-.7-.5,0,0-.1-.1-.2-.1-1.3.5-2.3-.2-3.4,0-1,0-1.8.8-2.7.8-.3.8-.8.8-1.3.9-.9,0-1.7.5-2.3,1.1-.6.6-1,1.3-1.4,2-.7,1.4-.5,3,.2,4.6.1.3.5.3.5.8,0,.4.4.7.6,1,.2.3.6.5.7.9.6,1.6,2.2,2.3,3.5,3.1,1.3.9,2.8,1.5,4.4,1.7.2,0,.5,0,.7,0h.7c.2,0,.5,0,.7,0,.2,0,.5,0,.7,0,.2,0,.4,0,.6,0,.2,0,.4,0,.6.3.1.2.5-.3.7-.3.6-.2,1.2-.2,1.7-.4.4-.1.8-.2,1.1-.4l.5-.3c.2,0,.3-.2.5-.3.2-.2.3-.3.5-.5.1-.2.2-.4.4-.6.3-.4.6-.7.9-1,.4-.4.8-.9,1.1-1.5.2-.6,0-1.3.4-1.9.3-.6.3-1.2.1-1.8-.1-.6-.4-1.1-.7-1.6-.5-1-1.4-2-2.5-2.5-.6-.3-1-1-1.7-1.1-.3,0-.5-1.6-.3-2.1,0,0,.1-.2.2-.2.9-.3,2.1-.7,3.1-.1,1.4.8,2.8,1.9,3.8,3.2Z"/>
  </g>
  <path d="M240,353c-.1,0-.3.2-.5.3,0,0-.3-.1-.1.4,0,.3-.3-.3-.4-.2-.2.2-.5.2-.8.3-.2.1-.5.4-.8.5-.3,0-.5-.2-.8,0-.2.3-.4-.3-.6-.2-.2,0-.4.1-.6-.2,0-.2-.1-.4-.3-.4,0,0-.3.3-.3.3,0,0,0-.3-.3.2,0,0,0,0,0-.2,0-.4,0-.4-.2-.2-.2.2-.2.2-.3.2-.2,0-.3,0-.5-.2,0,0-.1-.4-.2-.5,0-.1-.3,0-.3-.2,0-.3,0-.3-.2-.4,0,0,0-.3-.3.2,0,0,0,0,0,0,.2-.8-.5,0-.6-.3-.1-.3-.4-.4-.7-.6,0,0,0-.3-.4,0-.1,0-.2,0-.2-.1.3-.6-.2-.7-.2-1.1,0-.4-.4-.7,0-1.1.2-.2.3-.3-.3-.5-.3-.1,0-.2,0-.4,0,0-.3-.2-.3-.4,0,0,.3,0,.4-.1,0,0,0,0,0,0-.5-.6.5-.6.5-1,0-.4.2-.6.5-.8.1,0,.4,0,1.3.5.4.3.9.6,1.1.9.2.2.3.3.3.4,0,.1.1.2.2.3,0,.2.5.6.2.5,0,0,.2.2-.3,0,0,0-.1,0,0,0,.6.5.1.3.2.4,0,0,0,0,.1,0h0s0,0,0,0c-.1,0-.3,0-.4,0,0,0-.1,0-.2,0,0,0,0,0-.1,0-.1,0-.1.1.3-.3l.2-.2h0c0-.1,0-.1,0-.1,0,0,0,0,0,0,0,0,.1,0,.2.1,0,0,.2-.3.1,0,0,.3,0,.1.1.1,0,0,.2,0,.2.1,0,.7.3.4.5.6.2.2.3.3.6.2.1,0,.3-.4.4-.2,0,0,.1-.3,0,.3,0,.2.1-.3.1-.3,0,0,.1,0,.2,0,0,0,.1,0,.2,0,0,0,0-.3,0-.3,0,0,0,0,0,0,0,0,0,.3.1.3,0,0,0-.2,0,0,.3.4.3.1.5,0,.2,0,.5-.2.7-.4.2-.2.5.2.7.2.1,0,.6,1.4.7,1.9,0,0,0,.2,0,.2,0,.5.3,1.2.2,1.1,0,0-.2,0-.3.2Z" fill="#00b4e9"/>
  <path d="M206,391.5c-.1,0-.3.2-.5.3,0,0-.3-.1-.1.4,0,.3-.3-.3-.4-.2-.2.2-.5.2-.8.3-.2.1-.5.4-.8.5-.3,0-.5-.2-.8,0-.2.3-.4-.3-.6-.2-.2,0-.4.1-.6-.2,0-.2-.1-.4-.3-.4,0,0-.3.3-.3.3,0,0,0-.3-.3.2,0,0,0,0,0-.2,0-.4,0-.4-.2-.2-.2.2-.2.2-.3.2-.2,0-.3,0-.5-.2,0,0-.1-.4-.2-.5,0-.1-.3,0-.3-.2,0-.3,0-.3-.2-.4,0,0,0-.3-.3.2,0,0,0,0,0,0,.2-.8-.5,0-.6-.3-.1-.3-.4-.4-.7-.6,0,0,0-.3-.4,0-.1,0-.2,0-.2-.1.3-.6-.2-.7-.2-1.1,0-.4-.4-.7,0-1.1.2-.2.3-.3-.3-.5-.3-.1,0-.2,0-.4,0,0-.3-.2-.3-.4,0,0,.3,0,.4-.1,0,0,0,0,0,0-.5-.6.5-.6.5-1,0-.4.2-.6.5-.8.1,0,.4,0,1.3.5.4.3.9.6,1.1.9.2.2.3.3.3.4,0,.1.1.2.2.3,0,.2.5.6.2.5,0,0,.2.2-.3,0,0,0-.1,0,0,0,.6.5.1.3.2.4,0,0,0,0,.1,0h0s0,0,0,0c-.1,0-.3,0-.4,0,0,0-.1,0-.2,0,0,0,0,0-.1,0-.1,0-.1.1.3-.3l.2-.2h0c0-.1,0-.1,0-.1,0,0,0,0,0,0,0,0,.1,0,.2.1,0,0,.2-.3.1,0,0,.3,0,.1.1.1,0,0,.2,0,.2.1,0,.7.3.4.5.6.2.2.3.3.6.2.1,0,.3-.4.4-.2,0,0,.1-.3,0,.3,0,.2.1-.3.1-.3,0,0,.1,0,.2,0,0,0,.1,0,.2,0,0,0,0-.3,0-.3,0,0,0,0,0,0,0,0,0,.3.1.3,0,0,0-.2,0,0,.3.4.3.1.5,0,.2,0,.5-.2.7-.4.2-.2.5.2.7.2.1,0,.6,1.4.7,1.9,0,0,0,.2,0,.2,0,.5.3,1.2.2,1.1,0,0-.2,0-.3.2Z" fill="#00b4e9"/>
  <path d="M227.1,362.5c-.4.4-.9.9-1.3,1.4-.1.2-.5.2-.3.7.1.3-.5,0-.6.2-.4.5-.8.8-1.2,1.3-.4.4-.6,1-1,1.5-.4.4-1,.7-1.1,1.3-.1.5-.8.5-1,.9-.2.4-.5.8-1,1-.4.1-.8.2-.9.5-.1.2,0,.6-.2.7-.2.1-.5.1-.2.7,0,0-.1,0-.2,0-.5-.1-.6,0-.6.4,0,.3,0,.4-.2.6-.3.4-.6.7-1,1-.3.2-.7.3-1,.5-.3.2-.4.7-.9.7-.5,0-.7.3-.9.5-.1.1-.5,0-.2.7,0,0,0,0,0,0-1-.2-.6,1-1.1,1.2-.6.3-.9.8-1.3,1.2-.1.1-.4.1-.1.5,0,.2,0,.3-.2.3-.8-.1-.8.5-1.2.7-.4.3-.6.8-1.3.9-.3,0-.6.1-.4.7.1.3-.3.3-.3.4,0,.1,0,.4,0,.6,0,0-.3,0-.5,0,0,0,0,0,0,0,0,1-1.2.9-1.6,1.6-.4.7-1,1.1-1.6,1.6-.3.3-.8.4-1.8-.2-.5-.3-.8-.7-1-1,0-.3-.1-.5,0-.7,0-.2.2-.5.3-.7.2-.5.2-1.2.7-1.3.2,0,0-.4.5-.1,0,0,.1,0,.1,0,0-1,.8-1.2,1.2-1.7.4-.4.3-1.3.9-1.5-.2-.7.1-.9.5-1,1.3-.3,1.8-1.5,2.6-2.2.9-.8,1.6-1.6,2.5-2.4.1-.1,0-.5.4-.5.3,0,.4-.3.6-.5.2-.2.2-.4.5-.5,1.1-.2,1.5-1.1,2.2-1.7.7-.6,1.4-1.2,1.9-1.9.3-.5.5-1.1.9-1.4.2-.1.1-.5.7-.3.2,0,0-.4,0-.5.2-.3.5-.5.8-.8.4-.4.8-.7,1.1-1.1.2-.3.2-.7.4-.9.2-.3.4-.5.7-.7.4-.2.8-.4,1.1-.7.4-.3.5-.8,1-.9.9-.2,1.3-.9,1.9-1.4.6-.5,1.2-1,1.6-1.7.3-.4.9-.3,1.2-.6.1-.1,1.4.7,1.7,1.1,0,0,.1.2.1.2,0,.6.3,1.4,0,1.7-.6.5-1,1-1.5,1.5Z" fill="#fff"/>
  <g>
    <path d="M371.7,379.6c-4.4-4.4-12.2-5-17.1-1-4.1,3.3-3.9,8.2-.8,12.2,4.9,6.2,16.5,9.9,22.5,3.3,2.1-2.4,2.9-5.9,1.8-8.9s-3.9-5.3-7-5.8"/>
    <path d="M378.4,381.8c.9,1.2,1.5,2.7,1.9,4.1.1.6,0,1.1.5,1.7.3.3-.4.9-.4,1.4,0,1.4-.5,2.8-1.1,4-.3.6-.6,1.2-1,1.9-.4.6-.8,1.1-1.3,1.6-1,1-2.3,1.5-3.4,2.3-.5.4-1,.4-1.5.6-.5.1-1.1,0-1.6.2-.3,0-.5.2-.8.2-.3,0-.6,0-.8,0-.6,0-1.1,0-1.7-.1-.4-.1-.8-.2-1.1-.3-.4-.1-.7-.2-1.1-.2-.5,0-1,.2-1.5,0-.5-.2-.9-.5-1.5,0,0,0-.2-.1-.3-.3-.4-.6-.9-.7-1.4-.6-.5,0-.8-.1-1.2-.3-1-.4-2-.9-2.8-1.6-.7-.5-1.1-1.2-1.7-1.7-.6-.6-1.5-1-1.8-1.8-.3-.8-.8-1.4-1.2-2-.2-.4-.3-1-1-1,0,0-.1-.2-.1-.3,0-.8-.2-1.3-.6-1.9-.3-.6-.7-1.2-.7-2,0-1.5,0-3,.6-4.5.2-.4.5-.7.3-1.2,0-.2.1-.6.3-.7,1.1-.6,1.6-1.7,2.5-2.3.5-.4,1-.7,1.5-1.1.5-.3,1.1-.6,1.7-.6.3,0,.6,0,.8-.2.3-.1.5-.3.7-.7.2-.4.8-.2,1.2-.4.3-.1.6-.5,1-.5.3,0,.6.1.9.2,0,0,.2,0,.3,0,.8-.4,1.7-.3,2.6-.2.9.2,1.7.5,2.5.6,1.7.2,3.4,1,4.8,2,.4.3.8.6,1,1.1.2.4.3,1,.1,1.6-.2.6-.6.9-1,.9-.3,0-.7,0-.9-.1-.4-.2-.8-.3-1.2-.5-.8-.3-1.8-.2-2.5-.7-.2-.2-.6,0-.7-.5,0,0-.1-.1-.2-.1-1.3.5-2.4-.2-3.6-.1-1,0-1.8.9-2.8.8-.3.8-.9.8-1.4.9-.9,0-1.8.5-2.4,1.2-.6.6-1.1,1.3-1.4,2-.7,1.4-.5,3.2.2,4.8.2.3.6.3.5.8,0,.4.4.7.6,1,.2.3.6.5.8.9.6,1.6,2.2,2.3,3.6,3.2,1.4.9,2.9,1.6,4.5,1.8.2,0,.5,0,.7,0h.7c.2,0,.5,0,.7,0,.2,0,.5,0,.7,0,.2,0,.4,0,.6,0,.2,0,.4,0,.6.3.1.2.5-.3.7-.3.6-.2,1.2-.2,1.8-.4l.6-.2c.2,0,.4-.2.6-.3l.6-.3c.2,0,.3-.2.5-.4.2-.2.4-.3.5-.5.1-.2.2-.5.4-.6.4-.4.6-.7.9-1.1.4-.5.8-.9,1.1-1.5.3-.6,0-1.3.4-2,.3-.6.3-1.2.1-1.8-.1-.6-.4-1.1-.7-1.7-.6-1.1-1.5-2-2.6-2.6-.6-.3-1-1-1.7-1.2-.3,0-.5-1.6-.3-2.1,0,0,.1-.2.2-.2,1-.3,2.1-.7,3.2-.1,1.5.8,2.8,1.9,3.9,3.3Z"/>
  </g>
  <g>
    <path d="M336.1,418.5c-4.3-4.2-11.9-4.8-16.6-1-4,3.2-3.8,8-.8,11.8,4.8,6,16,9.6,21.9,3.2,2.1-2.3,2.8-5.8,1.7-8.7s-3.8-5.2-6.8-5.6"/>
    <path d="M342.6,420.6c.9,1.2,1.5,2.6,1.8,4,.1.6,0,1.1.5,1.7.3.3-.4.8-.4,1.3,0,1.4-.5,2.7-1.1,3.9-.3.6-.6,1.2-.9,1.8-.4.6-.8,1.1-1.3,1.6-1,1-2.3,1.4-3.3,2.2-.4.4-1,.4-1.5.5-.5.1-1,0-1.5.2-.3,0-.5.2-.8.2-.3,0-.5,0-.8,0-.5,0-1.1,0-1.6-.1-.4-.1-.7-.2-1.1-.3-.4-.1-.7-.2-1.1-.2-.5,0-1,.2-1.4,0-.4-.1-.9-.5-1.4,0,0,0-.2-.1-.3-.3-.3-.6-.9-.7-1.4-.6-.5,0-.8,0-1.2-.2-1-.4-1.9-.9-2.7-1.6-.7-.4-1.1-1.2-1.7-1.7-.6-.6-1.4-1-1.7-1.8-.3-.8-.8-1.3-1.2-2-.2-.4-.2-.9-1-1,0,0-.1-.2-.1-.3,0-.8-.2-1.3-.5-1.9-.3-.6-.7-1.2-.7-1.9,0-1.4,0-3,.6-4.4.2-.4.5-.7.3-1.2,0-.2.1-.6.3-.7,1.1-.6,1.5-1.6,2.4-2.2.5-.3,1-.7,1.4-1,.5-.3,1-.6,1.7-.6.3,0,.6,0,.8-.2.3-.1.5-.3.7-.7.2-.4.8-.2,1.2-.4.3-.1.6-.5,1-.5.3,0,.6.1.9.2,0,0,.2,0,.3,0,.8-.4,1.7-.3,2.5-.2.8.2,1.6.5,2.4.6,1.7.2,3.3,1,4.7,2,.4.3.7.6,1,1,.2.4.3,1,.1,1.6-.2.5-.6.9-1,.9-.3,0-.7,0-.9-.1-.4-.2-.8-.3-1.2-.4-.8-.3-1.7-.1-2.4-.7-.2-.2-.6,0-.7-.5,0,0-.1-.1-.2-.1-1.3.5-2.3-.2-3.4,0-1,0-1.8.8-2.7.8-.3.8-.8.8-1.3.9-.9,0-1.7.5-2.3,1.1-.6.6-1,1.3-1.4,2-.7,1.4-.5,3,.2,4.6.1.3.5.3.5.8,0,.4.4.7.6,1,.2.3.6.5.7.9.6,1.6,2.2,2.3,3.5,3.1,1.3.9,2.8,1.5,4.4,1.7.2,0,.5,0,.7,0h.7c.2,0,.5,0,.7,0,.2,0,.5,0,.7,0,.2,0,.4,0,.6,0,.2,0,.4,0,.6.3.1.2.5-.3.7-.3.6-.2,1.2-.2,1.7-.4.4-.1.8-.2,1.1-.4l.5-.3c.2,0,.3-.2.5-.3.2-.2.3-.3.5-.5.1-.2.2-.4.4-.6.3-.4.6-.7.9-1,.4-.4.8-.9,1.1-1.5.2-.6,0-1.3.4-1.9.3-.6.3-1.2.1-1.8-.1-.6-.4-1.1-.7-1.6-.5-1-1.4-2-2.5-2.5-.6-.3-1-1-1.7-1.1-.3,0-.5-1.6-.3-2.1,0,0,.1-.2.2-.2.9-.3,2.1-.7,3.1-.1,1.4.8,2.8,1.9,3.8,3.2Z"/>
  </g>
  <path d="M370.1,388.8c-.1,0-.3.2-.5.3,0,0-.3-.1-.1.4,0,.3-.3-.3-.4-.2-.2.2-.5.2-.8.3-.2.1-.5.4-.8.5-.3,0-.5-.2-.8,0-.2.3-.4-.3-.6-.2-.2,0-.4.1-.6-.2,0-.2-.1-.4-.3-.4,0,0-.3.3-.3.3,0,0,0-.3-.3.2,0,0,0,0,0-.2,0-.4,0-.4-.2-.2-.2.2-.2.2-.3.2-.2,0-.3,0-.5-.2,0,0-.1-.4-.2-.5,0-.1-.3,0-.3-.2,0-.3,0-.3-.2-.4,0,0,0-.3-.3.2,0,0,0,0,0,0,.2-.8-.5,0-.6-.3-.1-.3-.4-.4-.7-.6,0,0,0-.3-.4,0-.1,0-.2,0-.2-.1.3-.6-.2-.7-.2-1.1,0-.4-.4-.7,0-1.1.2-.2.3-.3-.3-.5-.3-.1,0-.2,0-.4,0,0-.3-.2-.3-.4,0,0,.3,0,.4-.1,0,0,0,0,0,0-.5-.6.5-.6.5-1,0-.4.2-.6.5-.8.1,0,.4,0,1.3.5.4.3.9.6,1.1.9.2.2.3.3.3.4,0,.1.1.2.2.3,0,.2.5.6.2.5,0,0,.2.2-.3,0,0,0-.1,0,0,0,.6.5.1.3.2.4,0,0,0,0,.1,0h0s0,0,0,0c-.1,0-.3,0-.4,0,0,0-.1,0-.2,0,0,0,0,0-.1,0-.1,0-.1.1.3-.3l.2-.2h0c0-.1,0-.1,0-.1,0,0,0,0,0,0,0,0,.1,0,.2.1,0,0,.2-.3.1,0,0,.3,0,.1.1.1,0,0,.2,0,.2.1,0,.7.3.4.5.6.2.2.3.3.6.2.1,0,.3-.4.4-.2,0,0,.1-.3,0,.3,0,.2.1-.3.1-.3,0,0,.1,0,.2,0,0,0,.1,0,.2,0,0,0,0-.3,0-.3,0,0,0,0,0,0,0,0,0,.3.1.3,0,0,0-.2,0,0,.3.4.3.1.5,0,.2,0,.5-.2.7-.4.2-.2.5.2.7.2.1,0,.6,1.4.7,1.9,0,0,0,.2,0,.2,0,.5.3,1.2.2,1.1,0,0-.2,0-.3.2Z" fill="#00b4e9"/>
  <path d="M336,427.3c-.1,0-.3.2-.5.3,0,0-.3-.1-.1.4,0,.3-.3-.3-.4-.2-.2.2-.5.2-.8.3-.2.1-.5.4-.8.5-.3,0-.5-.2-.8,0-.2.3-.4-.3-.6-.2-.2,0-.4.1-.6-.2,0-.2-.1-.4-.3-.4,0,0-.3.3-.3.3,0,0,0-.3-.3.2,0,0,0,0,0-.2,0-.4,0-.4-.2-.2-.2.2-.2.2-.3.2-.2,0-.3,0-.5-.2,0,0-.1-.4-.2-.5,0-.1-.3,0-.3-.2,0-.3,0-.3-.2-.4,0,0,0-.3-.3.2,0,0,0,0,0,0,.2-.8-.5,0-.6-.3-.1-.3-.4-.4-.7-.6,0,0,0-.3-.4,0-.1,0-.2,0-.2-.1.3-.6-.2-.7-.2-1.1,0-.4-.4-.7,0-1.1.2-.2.3-.3-.3-.5-.3-.1,0-.2,0-.4,0,0-.3-.2-.3-.4,0,0,.3,0,.4-.1,0,0,0,0,0,0-.5-.6.5-.6.5-1,0-.4.2-.6.5-.8.1,0,.4,0,1.3.5.4.3.9.6,1.1.9.2.2.3.3.3.4,0,.1.1.2.2.3,0,.2.5.6.2.5,0,0,.2.2-.3,0,0,0-.1,0,0,0,.6.5.1.3.2.4,0,0,0,0,.1,0h0s0,0,0,0c-.1,0-.3,0-.4,0,0,0-.1,0-.2,0,0,0,0,0-.1,0-.1,0-.1.1.3-.3l.2-.2h0c0-.1,0-.1,0-.1,0,0,0,0,0,0,0,0,.1,0,.2.1,0,0,.2-.3.1,0,0,.3,0,.1.1.1,0,0,.2,0,.2.1,0,.7.3.4.5.6.2.2.3.3.6.2.1,0,.3-.4.4-.2,0,0,.1-.3,0,.3,0,.2.1-.3.1-.3,0,0,.1,0,.2,0,0,0,.1,0,.2,0,0,0,0-.3,0-.3,0,0,0,0,0,0,0,0,0,.3.1.3,0,0,0-.2,0,0,.3.4.3.1.5,0,.2,0,.5-.2.7-.4.2-.2.5.2.7.2.1,0,.6,1.4.7,1.9,0,0,0,.2,0,.2,0,.5.3,1.2.2,1.1,0,0-.2,0-.3.2Z" fill="#00b4e9"/>
  <path d="M357.1,398.3c-.4.4-.9.9-1.3,1.4-.1.2-.5.2-.3.7.1.3-.5,0-.6.2-.4.5-.8.8-1.2,1.3-.4.4-.6,1-1,1.5-.4.4-1,.7-1.1,1.3-.1.5-.8.5-1,.9-.2.4-.5.8-1,1-.4.1-.8.2-.9.5-.1.2,0,.6-.2.7-.2.1-.5.1-.2.7,0,0-.1,0-.2,0-.5-.1-.6,0-.6.4,0,.3,0,.4-.2.6-.3.4-.6.7-1,1-.3.2-.7.3-1,.5-.3.2-.4.7-.9.7-.5,0-.7.3-.9.5-.1.1-.5,0-.2.7,0,0,0,0,0,0-1-.2-.6,1-1.1,1.2-.6.3-.9.8-1.3,1.2-.1.1-.4.1-.1.5,0,.2,0,.3-.2.3-.8-.1-.8.5-1.2.7-.4.3-.6.8-1.3.9-.3,0-.6.1-.4.7.1.3-.3.3-.3.4,0,.1,0,.4,0,.6,0,0-.3,0-.5,0,0,0,0,0,0,0,0,1-1.2.9-1.6,1.6-.4.7-1,1.1-1.6,1.6-.3.3-.8.4-1.8-.2-.5-.3-.8-.7-1-1,0-.3-.1-.5,0-.7,0-.2.2-.5.3-.7.2-.5.2-1.2.7-1.3.2,0,0-.4.5-.1,0,0,.1,0,.1,0,0-1,.8-1.2,1.2-1.7.4-.4.3-1.3.9-1.5-.2-.7.1-.9.5-1,1.3-.3,1.8-1.5,2.6-2.2.9-.8,1.6-1.6,2.5-2.4.1-.1,0-.5.4-.5.3,0,.4-.3.6-.5.2-.2.2-.4.5-.5,1.1-.2,1.5-1.1,2.2-1.7.7-.6,1.4-1.2,1.9-1.9.3-.5.5-1.1.9-1.4.2-.1.1-.5.7-.3.2,0,0-.4,0-.5.2-.3.5-.5.8-.8.4-.4.8-.7,1.1-1.1.2-.3.2-.7.4-.9.2-.3.4-.5.7-.7.4-.2.8-.4,1.1-.7.4-.3.5-.8,1-.9.9-.2,1.3-.9,1.9-1.4.6-.5,1.2-1,1.6-1.7.3-.4.9-.3,1.2-.6.1-.1,1.4.7,1.7,1.1,0,0,.1.2.1.2,0,.6.3,1.4,0,1.7-.6.5-1,1-1.5,1.5Z" fill="#fff"/>
  <path d="M252.1,399.6c0-.5-.2-1.1-.3-1.6,0-.2.2-.4-.4-.5-.3,0,.3-.4.3-.5-.2-.5-.2-1-.3-1.5-.1-.5-.4-.9-.6-1.4-.1-.5,0-1-.3-1.4-.3-.4,0-.8,0-1.2-.2-.4-.3-.8-.2-1.2.1-.3.3-.6.1-.9,0-.2-.4-.3-.4-.5,0-.2.2-.4-.4-.5,0,0,0-.1.1-.2.4-.3.3-.5,0-.6-.3-.1-.3-.3-.3-.4,0-.4-.2-.8-.2-1.2,0-.3.2-.7.2-1,0-.3-.3-.6,0-1,.3-.3.2-.6.2-.9,0-.2.2-.4-.4-.4,0,0,0,0,0-.1.8-.6-.4-.9-.2-1.4.1-.5,0-1-.1-1.5,0-.1.1-.3-.3-.4-.2,0-.2-.2,0-.2.6-.4.2-.8.2-1.2,0-.4-.3-.8.2-1.3.2-.2.3-.5-.3-.6-.3,0,0-.3-.1-.5,0-.1-.3-.2-.4-.3,0-.1.2-.2.3-.4,0,0,0,0,0-.1-.7-.6,0-1.3-.2-1.9-.2-.6-.2-1.3-.2-1.9,0-.4.2-.7,1.3-1.1.5-.2,1.1-.2,1.4,0,.2,0,.5.2.6.3.1.2.3.4.4.6.2.4.8.7.6,1.2,0,.1.2.3-.3.4,0,0-.1,0,0,.1.8.5.4,1.1.5,1.7.1.5.8.9.6,1.4.7.2.6.5.4.8-.6,1,0,1.9,0,2.9,0,1,.2,1.9.3,2.9,0,.2.4.3.1.5-.2.2,0,.4,0,.6,0,.2.2.4,0,.6-.5.8,0,1.6,0,2.3,0,.8,0,1.5.4,2.3.2.4.6.8.5,1.3,0,.2.3.4-.2.6-.2,0,.3.2.4.3.1.3.1.6.2.9,0,.4.1.9.2,1.3,0,.3.4.5.5.7.1.3.2.5.1.8,0,.4-.2.8-.2,1.1,0,.4.3.7.1,1.1-.4.7,0,1.3,0,2,0,.7.1,1.3.4,1.9.1.4-.3.8-.2,1.1,0,.2-1.4.7-1.9.7,0,0-.2,0-.2,0-.5-.3-1.3-.4-1.3-.9,0-.6-.2-1.2-.3-1.8Z" fill="#fff"/>
  <path d="M272.7,413.4c-.2-.9-.3-1.8-.6-2.7,0-.3.1-.7-.5-1-.3-.1.3-.6.2-.9-.2-.8-.3-1.7-.5-2.5-.2-.8-.6-1.6-.8-2.4-.2-.8,0-1.7-.5-2.4-.4-.6,0-1.3-.3-1.9-.3-.7-.5-1.3-.4-2.1,0-.5.2-1,0-1.5-.1-.3-.5-.5-.5-.8,0-.3.2-.7-.5-.9,0,0,0-.2.1-.3.3-.4.2-.8,0-1-.3-.2-.3-.5-.4-.7-.2-.7-.3-1.4-.4-2.1,0-.5.1-1.1,0-1.6,0-.5-.4-1.1-.2-1.6.2-.5.1-1,0-1.5,0-.3.2-.6-.5-.8,0,0,0-.1,0-.2.7-.9-.5-1.5-.4-2.4,0-.9-.2-1.7-.4-2.5,0-.2.1-.5-.4-.6-.2,0-.2-.3-.1-.4.5-.7,0-1.3,0-2,0-.7-.4-1.4,0-2.2.2-.3.2-.8-.4-1.1-.3-.1,0-.5-.2-.8,0-.2-.4-.4-.4-.6,0-.2.2-.4.3-.6,0,0,0-.1,0-.2-.8-1,0-2.1-.4-3.2-.3-1-.4-2.1-.5-3.2,0-.6,0-1.2,1.2-1.8.5-.2,1-.3,1.4-.1.3.2.5.3.6.5.2.3.3.6.5,1,.3.7.9,1.3.7,2,0,.2.3.4-.2.7,0,0,0,.1,0,.2.9.8.5,1.9.7,2.8.2.8.9,1.5.8,2.4.7.4.7.9.5,1.4-.4,1.7.3,3.3.4,4.9.2,1.6.5,3.3.7,4.9,0,.3.4.5.2.8-.2.3,0,.7.1,1.1,0,.3.2.6.1,1-.4,1.4.2,2.6.3,3.9.2,1.3.3,2.6.7,3.8.2.8.7,1.5.7,2.3,0,.3.4.6-.1,1.1-.1.1.4.4.4.6.1.5.2,1.1.3,1.6.1.7.2,1.5.4,2.2.1.4.4.8.6,1.3.2.5.2.9.3,1.4,0,.6,0,1.2,0,1.9,0,.6.5,1.2.3,1.9-.3,1.2.2,2.2.4,3.4.2,1.1.4,2.2.7,3.3.2.6-.2,1.3,0,1.9,0,.3-1.3,1-1.8,1,0,0-.2,0-.3,0-.6-.5-1.4-.9-1.5-1.6-.1-1-.4-2-.6-3Z" fill="#fff"/>
  <path d="M277.9,388.5c-.5,0-1,0-1.5.2-.2,0-.4-.2-.5.4,0,.3-.3-.3-.5-.3-.5.1-1,.1-1.4.2-.5.1-.9.4-1.3.5-.5.1-1,0-1.4.3-.3.3-.8-.1-1.1,0-.4.2-.8.3-1.2.2-.3-.1-.6-.3-.9-.1-.2,0-.3.4-.5.4-.2,0-.4-.2-.5.4,0,0-.1,0-.2-.1-.3-.4-.5-.3-.6,0-.1.3-.2.3-.4.3-.4.1-.8.2-1.2.2-.3,0-.6-.2-.9-.2-.3,0-.6.3-.9,0-.3-.2-.6-.2-.9-.1-.2,0-.4-.2-.4.4,0,0,0,0,0,0-.6-.7-.8.4-1.3.3-.5-.1-1,.1-1.4.2-.1,0-.3-.1-.3.4,0,.2-.1.2-.2.1-.5-.5-.8,0-1.1-.1-.4,0-.8.3-1.3,0-.2-.2-.5-.2-.6.4,0,.3-.3,0-.4.2-.1,0-.2.4-.3.4-.1,0-.3-.2-.4-.3,0,0,0,0-.1,0-.5.8-1.2,0-1.8.4-.6.3-1.2.4-1.8.4-.3,0-.7,0-1.2-1.1-.2-.5-.4-1-.3-1.4,0-.3.1-.5.2-.6.2-.1.3-.3.5-.5.3-.3.6-.9,1.1-.7.1,0,.2-.3.4.2,0,0,0,0,.1,0,.4-.9,1-.5,1.6-.7.5-.2.8-.9,1.3-.7.1-.7.5-.6.8-.5,1.1.5,1.9-.2,2.9-.3,1-.1,1.9-.4,2.8-.5.2,0,.2-.4.5-.2.2.2.4,0,.6,0,.2,0,.4-.2.6,0,.9.5,1.5,0,2.3,0,.8,0,1.5-.1,2.2-.4.4-.2.8-.6,1.3-.5.2,0,.4-.3.6.2,0,.2.2-.3.3-.4.3,0,.6-.1.9-.2.4,0,.9,0,1.3-.2.3,0,.5-.4.7-.5.3-.1.5-.1.8-.1.4,0,.7.2,1.1.2.4,0,.7-.3,1.1,0,.7.4,1.3,0,2,0,.7,0,1.3,0,1.9-.3.4-.1.7.3,1.1.3.2,0,.6,1.4.5,1.9,0,0,0,.2,0,.2-.3.5-.5,1.3-.9,1.3-.6,0-1.2.1-1.8.2Z" fill="#fff"/>
  <path d="M289.7,402.6c-.6.1-1.1.2-1.7.4-.2,0-.5-.1-.6.4,0,.3-.4-.3-.6-.2-.5.2-1.1.2-1.6.4-.5.2-1,.5-1.5.7-.5.2-1.1,0-1.5.4-.4.4-.9,0-1.2.2-.4.2-.8.4-1.3.3-.3,0-.7-.2-1,0-.2.1-.3.5-.5.5-.2,0-.5-.2-.5.5,0,0-.1,0-.2-.1-.3-.4-.5-.3-.7,0-.1.3-.3.3-.4.4-.4.1-.9.2-1.3.3-.3,0-.7-.1-1.1-.1-.4,0-.7.4-1,.1-.4-.2-.7-.2-1,0-.2,0-.4-.2-.5.4,0,0,0,0-.1,0-.7-.7-.9.5-1.5.4-.6-.1-1.1.2-1.6.3-.1,0-.3-.1-.4.4,0,.2-.2.2-.3.1-.5-.5-.9,0-1.3-.1-.5,0-.9.3-1.5,0-.2-.2-.5-.2-.7.4,0,.3-.3,0-.5.2-.1,0-.2.4-.4.4-.1,0-.3-.2-.4-.3,0,0,0,0-.1,0-.6.8-1.4,0-2,.3-.7.3-1.4.4-2.1.4-.4,0-.8,0-1.3-1.2-.2-.5-.3-1-.2-1.4,0-.3.2-.5.3-.6.2-.1.4-.3.6-.4.4-.3.7-.9,1.2-.7.2,0,.3-.3.5.2,0,0,0,0,.1,0,.5-.9,1.2-.5,1.8-.7.5-.1.9-.9,1.5-.7.2-.7.5-.6.9-.5,1.2.5,2.1-.2,3.1-.3,1.1-.1,2.1-.4,3.1-.6.2,0,.3-.4.5-.2.2.2.5,0,.7,0,.2,0,.4-.2.6-.1.9.5,1.7,0,2.5-.2.8-.1,1.7-.2,2.4-.6.5-.2.9-.7,1.4-.6.2,0,.4-.4.7.2,0,.2.2-.3.3-.4.3-.1.7-.2,1-.2.5-.1,1-.2,1.4-.3.3-.1.5-.4.8-.5.3-.1.6-.2.9-.2.4,0,.8.1,1.2,0,.4,0,.8-.4,1.2-.2.8.3,1.5,0,2.2-.2.7-.1,1.4-.2,2.1-.5.4-.2.9.2,1.2.1.2,0,.8,1.3.8,1.8,0,0,0,.2,0,.2-.3.5-.4,1.3-.9,1.4-.7,0-1.3.3-1.9.5Z" fill="#fff"/>
  <path d="M298.8,413.3c0,0-.2,0-.3.2,0,0-.2-.2,0,.3,0,.3-.2-.3-.2-.3,0,.1-.2,0-.3.1,0,0,0,.3-.2.4,0,0-.3-.2-.3.2,0,.3-.2-.2-.3,0,0,.1-.1.2-.3,0,0-.2-.2-.4-.2-.2,0,0,0,.4,0,.4,0,0-.1-.3,0,.4,0,0,0,0,0-.1-.1-.4-.2-.4-.1,0,0,.3,0,.2,0,.3,0,0-.2,0-.3,0,0,0-.2-.3-.2-.3,0,0-.1.2-.2,0,0-.3-.1-.3-.2-.3,0,0,0-.3,0,.4,0,0,0,0,0,0-.1-.8-.2.3-.3,0-.1-.2-.2,0-.3,0,0,0,0-.2,0,.3,0,.2,0,.2,0,0,0-.6-.1-.3-.2-.4,0-.1-.2.2-.2-.3,0-.2,0-.3-.2.3,0,.3,0,0-.1,0,0,0-.1.3-.1.3,0,0,0-.2,0-.3,0,0,0,0,0,0-.3.6-.2-.3-.4-.1-.2.1-.3,0-.4,0,0,0,0-.3.2-1.4.1-.5.3-1,.4-1.3,0-.2.2-.4.2-.5,0,0,.1-.2.2-.3,0-.2.3-.7.2-.4,0,0,0-.2,0,.3,0,0,0,.1,0,0,.2-.8.2-.2.2-.3,0,0,.2-.7.2-.4.1-.6.1-.5.1-.3,0,.7.1.2.2.3,0,0,.2,0,.3,0,0,0,0-.4,0,0,0,.3,0,0,0,0,0,0,0-.1,0,0,.1.6.2.2.3.3,0,0,.2.1.2,0,0-.1,0-.5,0-.3,0,0,0-.3.1.3,0,.2,0-.3,0-.3,0,0,0,0,0,0,0,0,0,0,.1,0,0,0,0-.3,0-.3,0,0,0,0,0,0,0,0,.2.2.2.3,0,0,0-.2.1,0,.3.4.2.2.3.2,0,0,.2,0,.2-.1,0,0,.3.3.3.3,0,0,.2.3.5.7.2.4.5.8.7,1,0,0,0,.2.1.2.2.4.5,1.1.4,1.1-.1,0-.2.1-.3.2Z" fill="#fff"/>
  <path d="M435.5,282.9c.7-2.4,1.2-5,1.2-7.5,0-.9.2-1.9-.4-2.9-.3-.5.2-1.4,0-2.3-.5-2.3-1-4.7-2-6.8-1-2.1-2.3-4-3.8-5.8-1.4-1.7-2.9-3.7-4.7-4.7-1.6-.9-2.7-2-4.3-2.3-.8-.2-1.6-.2-2.4-.1-.8,0-1.5.2-2.2.4-1,.3-2.1.9-2.4,1.8-.2.6,0,1.2,0,1.8,0,.5-.1,1.4.7,1.7,0,0,0,.3,0,.5,0,.8.6,1.6,1.3,1.8.6.2,1,.6,1.5.8,1.2.7,2.9,1,4.6,1,1.3,0,2.7,0,4.1-.4,1.5-.4,2.9-1.2,4.3-1.5,1.4-.3,2.7-.9,3.8-1.6.6-.4,1.6-.7,1.6-1.6,0,0,.2-.2.3-.3,1-.4,1.7-1.2,2.1-2.1.4-.9.5-1.8.8-2.7.6-1.9.2-4.2-.6-6.4-.2-.6-.2-1.3-.9-1.6-.2-.1-.5-.7-.5-1.1-.1-1.8-1.4-3.4-2.2-5-1-1.9-2.4-3.5-3.2-5.5-.4-.8-1.1-1.9-2.2-2.3-.5-.2-1-1.1-1.6-1.6-.5-.4-1.1-.6-1.5-1-.4-.4-.6-.9-1-1.3,0-.1-.2-.3-.4-.3-1.4-.7-2.5-1.6-3.7-2.4-1.2-.8-2.5-1.7-3.9-2.1-2.9-.9-5.8-1.5-8.7-1.6-1.6,0-3.2,0-4.6-.8-.6-.4-.8-.9-.1-1.4.5-.4,1.1-.7,1.8-.9,1.1-.3,2.1-.5,3.2-.6,2.2-.2,4.5-.5,6.7.4.7.2,1.6.2,2,.9,0,0,.3.2.5.2,3.1.3,5.8,2.3,8.3,4,2.1,1.5,4.4,2.8,6,4.9,1.4.7,2.5,2.1,3.2,3.4,1.3,2.3,2.6,4.4,3.9,6.6,1.2,2.2,2.5,4.5,3.4,7,.8,2.6,1.4,5.4,1.1,8.3-.2,1.5-.6,3-1.3,4.3-.7,1.4-1.7,2.5-2.7,3.5-.7.7-1.2,1.5-2.2,1.9-1,.4-2,1.2-3.1,1.7-1,.5-1.9,1.1-2.9,1.3-2,.5-4,1.1-6.1,1.5-2.1.4-4.3.7-6.6.2-1.1-.2-2.2-.6-3.3-1.2-1-.6-1.9-1.3-2.7-2.1-1.6-1.6-2.8-3.8-3-6.3-.1-1.5.2-3.2,1-4.6.8-1.4,2-2.5,3.4-3.2,1.1-.6,2.4-1.3,3.7-.9.3,0,1.5-.4,2.3-.4,2,.1,3.9.8,5.5,1.7,2.3,1.3,4.1,3,5.8,4.7,1,1.1,2.2,2,3.1,3.2.9,1.2,1.8,2.6,2.4,4,.8,1.8,1.4,3.7,1.9,5.6.5,2,1.2,4,1.2,6-.1,3.6,0,7.2-.9,10.7-.9,3.5-2.3,6.7-4,9.8-1,1.8-2.5,2.9-3.8,4.4-.6.7-2.5.5-2.6-.1,0-.1,0-.3,0-.4.9-1.6,1.4-3.3,2.5-4.8.8-1.2,1.5-2.4,2.2-3.8.6-1.3,1.1-2.7,1.5-4.1Z" fill="#00b4e9"/>
  <path d="M255.4,247.6c-.8-.2-1.6-.3-2.4-.4-.3,0-.6-.3-1,.1-.2.2-.4-.4-.7-.5-.7,0-1.5-.3-2.2-.3-.7,0-1.5,0-2.2,0-.7,0-1.4-.4-2.1-.1-.6.2-1.1-.3-1.7-.2-.6,0-1.2.2-1.8-.1-.4-.2-.8-.4-1.3-.3-.3,0-.5.4-.8.4-.3,0-.6-.3-.8.3,0,0-.1,0-.2-.1-.3-.4-.7-.3-.9,0-.2.3-.4.3-.6.3-.6,0-1.2.1-1.8.2-.4,0-.9-.2-1.3-.2-.5,0-.9.4-1.4.1-.5-.2-.9-.1-1.3,0-.2,0-.6-.2-.6.5,0,0,0,0-.1,0-.9-.7-1.2.6-1.9.6-.7,0-1.4.4-2,.7-.2,0-.4,0-.4.5,0,.2-.2.3-.3.2-.7-.4-1.1.2-1.6.3-.6.2-1,.7-1.8.6-.3,0-.7,0-.7.7,0,.3-.4.2-.5.4-.1.1-.1.5-.3.6-.1,0-.4,0-.6,0,0,0-.1,0-.1,0-.3,1-1.5.9-2.1,1.6-.3.4-.6.7-.9,1-.3.3-.6.6-1,.9-.4.3-.8.6-1.9.2-.5-.2-.9-.5-1.1-.9,0-.3-.1-.6,0-.8.1-.3.2-.6.4-.9.3-.6.4-1.5,1.1-1.7.2,0,.2-.5.7-.2,0,0,.2,0,.2,0,0-.6.4-1,.8-1.2.4-.3.8-.5,1.2-.8.6-.5.9-1.5,1.7-1.7,0-.8.6-.9,1.1-1,1.7-.2,2.9-1.3,4.4-1.7,1.5-.5,3-1.1,4.5-1.4.3,0,.4-.5.8-.3.3.2.7,0,1-.2.3,0,.6-.3.9-.2,1.3.4,2.5-.1,3.7-.2,1.2,0,2.4,0,3.6-.2.7-.1,1.5-.5,2.2-.3.3,0,.7-.3,1,.3,0,.2.4-.3.6-.3.5,0,1,0,1.5,0,.7,0,1.4.2,2.1.2.4,0,.9-.2,1.3-.2.5,0,.9,0,1.3.2.6.1,1.1.4,1.6.6.6.1,1.2,0,1.7.3.9.7,2,.6,3,.9,1,.2,2,.5,3,.6.6,0,1,.7,1.5.8.3,0,.3,1.6,0,2,0,0-.1.2-.2.2-.6.3-1.3.9-1.9.8-.9-.3-1.8-.4-2.7-.6Z" fill="#00b4e9"/>
  <path d="M245.6,234.7c-.5,0-1-.2-1.5-.3-.2,0-.3-.3-.6.2-.1.2-.2-.4-.4-.4-.5,0-.9-.2-1.4-.2-.5,0-.9.1-1.4.2-.4,0-.9-.3-1.3,0-.4.2-.7-.3-1-.2-.4,0-.8.1-1.1-.1-.2-.2-.5-.4-.8-.3-.2,0-.3.4-.5.3-.2,0-.3-.3-.5.3,0,0,0,0-.1-.1-.2-.4-.4-.4-.5-.1-.1.3-.3.2-.4.3-.4,0-.7,0-1.1,0-.3,0-.5-.3-.8-.3-.3,0-.6.3-.8,0-.3-.3-.5-.2-.8-.2-.1,0-.4-.2-.4.4,0,0,0,0,0,0-.5-.8-.8.4-1.2.3-.5-.1-.9.1-1.3.2-.1,0-.3-.1-.3.4,0,.2-.1.2-.2.1-.5-.5-.7,0-1,0-.4,0-.6.4-1.2,0-.2-.1-.5-.2-.4.5,0,.3-.2.1-.3.2,0,0,0,.4-.2.4,0,0-.3-.1-.4-.2,0,0,0,0,0,0-.2.8-1,.3-1.4.7-.4.4-.8.7-1.3.9-.3.1-.6.2-1.5-.6-.4-.3-.8-.7-.9-1.1,0-.3-.1-.5,0-.6,0-.2.2-.4.3-.6.2-.4.3-1.1.8-1.1.2,0,.1-.3.5,0,0,0,.1,0,.1,0,0-1,.9-.9,1.4-1.2.4-.3.6-1.1,1.2-1,0-.7.4-.7.7-.6,1.2.3,2-.5,3-.6,1-.2,2-.5,3-.6.2,0,.3-.4.5-.1.2.2.4,0,.7,0,.2,0,.4-.2.6,0,.8.6,1.6.1,2.3.2.8,0,1.5.1,2.3,0,.5,0,.9-.4,1.4-.2.2,0,.4-.3.6.4,0,.2.3-.3.4-.3.3,0,.6,0,1,0,.4,0,.9.1,1.3.1.3,0,.6-.2.8-.2.3,0,.6,0,.8.1.3.1.7.4,1,.5.3.1.8,0,1.1.2.5.6,1.2.5,1.8.6.6.2,1.2.3,1.9.3.4,0,.6.6.9.6.2,0,0,1.5,0,2,0,0,0,.2-.1.2-.4.4-.9,1-1.2.9-.5-.2-1.1-.2-1.7-.3Z" fill="#00b4e9"/>
  <g>
    <g>
      <path d="M380.8,187.7c-1.3-1.4-2.5-2.8-3.9-4.1-.5-.5-.8-1.2-1.7-1.4-.4,0-.4-1-.9-1.5-1.3-1.2-2.4-2.6-3.6-3.8-1.2-1.2-2.4-2-3.5-2.3-1.1-.4-2.6-.8-4.2-.6-1.4.2-2.6-.3-3.9-.1-1.4.2-2.8.3-4.2.2-1,0-2-.2-3,0-.6.2-1.1.6-1.8.6-.6,0-1.4,0-1.8.7,0,0-.3,0-.5,0-.7-.3-1.5,0-2,.3-.5.4-.9.5-1.4.6-1.3.4-2.7.8-3.8,1.2-.9.3-1.8.5-2.5.9-.8.5-1.1,1.3-1.7,1.8-.7.5-1,1.3-1.2,2.2-.1.5-.5,1,0,1.6,0,0,0,.2,0,.3-1,1.4,0,3.1-.2,4.7-.2,1.7,0,3.4,0,5.2,0,.5-.1,1,.3,1.4.2.1.2.6.1.9-.6,1.3,0,2.6,0,3.9,0,1.5.5,3,.2,4.5-.1.7-.1,1.5.6,2.2.3.3.1,1.1.3,1.6.1.4.4.8.5,1.3,0,.4-.1.8-.2,1.2,0,.1,0,.3,0,.4,1,2.1.5,4.4,1,6.5.6,2.2.9,4.4,1.2,6.6.2,1.2.2,2.5-.7,3.6-.4.5-1,.6-1.4.1-.3-.3-.6-.7-.8-1.2-.2-.7-.5-1.4-.7-2-.5-1.4-1.2-2.7-1.2-4.2,0-.5-.4-1,0-1.4,0,0,0-.3,0-.3-1.1-1.8-1-4-1.3-6-.3-1.7-1.2-3.3-1.2-5.1-.7-.9-.8-2-.7-3,.3-3.5-.5-6.9-.6-10.4v-5.3c0-1.8,0-3.5.1-5.4,0-.6-.2-1.3.2-2,.4-.7.4-1.7.8-2.5.3-.8.6-1.7,1.2-2.3,2.5-2.5,5.3-4,8-4.8,2.7-.7,5.4-1.3,8.1-1.9,1.6-.4,3.3-1,5-1,.7,0,1.5-.4,2.2.1.2.2.9-.3,1.3-.4,1.2,0,2.3,0,3.5,0,1.6,0,3.2,0,5.1.3,1.1.1,2.3.2,3.5.8,1.2.6,2.2,1.4,3,2.2,1,1.1,1.6,2.1,2.5,3.1.9,1,2,1.8,2.7,2.9,1.2,2.1,3,3.6,4.6,5.3,1.5,1.7,3.1,3.5,4.8,5.1,1,.9,1.4,2.1,2.3,3.1.4.4-.1,2-.7,2.2-.1,0-.2,0-.3,0-1.2-.6-2.5-1-3.5-2-1.4-1.6-2.9-3.1-4.4-4.7Z"/>
      <path d="M373,197.8c.3-.1.6-.2.8-.4,0,0,.3.1.2-.4,0-.3.3.3.4.2.2-.2.5-.2.8-.4.2-.2.4-.5.6-.7.2-.2.6,0,.7-.4,0-.4.5,0,.6-.2.2-.2.4-.4.7-.3.2,0,.5.2.6,0,0-.1,0-.4.1-.5.1,0,.3.2.2-.4,0,0,0,0,.1.1.3.3.4.3.4,0,0-.3,0-.3.1-.3.2-.1.4-.2.7-.3.2,0,.4.1.6.1.2,0,.3-.3.5-.1.3.2.4.2.6,0,0,0,.3.2.1-.4,0,0,0,0,0,0,.5.7.4-.4.7-.3.3.1.6-.1.8-.3,0,0,.2.1.1-.3,0-.2,0-.2.1-.1.4.5.5,0,.7.1.3,0,.4-.3.8,0,.2.2.3.2.3-.4,0-.3.2,0,.2-.1,0,0,0-.4.1-.4,0,0,.2.2.3.3,0,0,0,0,0,0,.1-.7.8,0,1.1-.3.3-.3.7-.3,1.1-.3.2,0,.5.1.9,1.2.2.5.3,1,.3,1.4,0,.2,0,.5,0,.6,0,.1-.2.3-.2.4-.2.2-.2.8-.5.6,0,0,0,.2-.3-.2,0,0,0,0,0,0,0,.8-.5.4-.8.6-.2.1-.3.8-.6.6,0,.6-.1.6-.3.5-.7-.5-1.1.1-1.6.2-.5,0-1,.4-1.5.5,0,0,0,.4-.2.2-.2-.2-.2,0-.3,0,0,0-.2.2-.3,0-.6-.5-.9,0-1.3.2-.4,0-.8.2-1.1.5-.2.2-.3.6-.6.6-.1,0,0,.4-.4-.1,0-.1,0,.3,0,.4-.1.1-.3.2-.5.2-.2,0-.5.2-.7.3-.1,0-.1.4-.3.5-.1.1-.3.2-.4.2-.2,0-.5,0-.7,0-.2,0-.3.4-.6.2-.6-.3-.8,0-1.1.2-.3.1-.7.2-1,.5-.1.2-.5-.2-.7-.1,0,0-.9-1.2-1.1-1.7,0,0,0-.2,0-.2,0-.5-.2-1.2,0-1.3.3,0,.6-.3.9-.5Z"/>
      <path d="M365.2,204.4c.2.5.5.9.9,1.3.1.1,0,.5.6.3.3-.1,0,.5,0,.6.4.3.7.7,1.2,1,.4.3,1,.4,1.4.5.4.2.8.7,1.4.5.5-.1.6.5,1.1.5.4,0,.8,0,1.2.3.3.2.5.5.9.4.2,0,.4-.4.6-.4.2,0,.4.3.5-.4,0,0,0,0,.1.1.2.4.5.3.6,0,.1-.3.3-.3.4-.3.4-.1.8-.2,1.2-.3.3,0,.7,0,1,0,.1,0,0-.2.2,0,.3.2.4.1.5,0,0,0,.5,0-.3-.2,0,0,0,0,0,0,.6.1.6,0,.4,0-.2,0-.5-.1-.3-.1.3,0,.2,0,.1,0h-.3c0,0,.2-.2-.4,0-.2,0-.2,0,0,0,.3-.2.3-.2.3-.2,0,0,0,0,0,0,0,0,0,0-.1,0s0,0-.1-.1h0s0,0,0,0h-.2c-.2-.3-.4-.5-.5-.9,0-.3-.2-.6-.9-.4-.3.1-.3-.3-.5-.4-.2,0-.5,0-.6-.1-.1-.1,0-.4,0-.6,0,0,0,0-.1-.1-1.1-.2-1-1.5-1.6-2-.7-.6-1.1-1.4-1.4-2.2-.2-.4-.2-1,.7-1.8.4-.3.9-.6,1.3-.5.3,0,.5,0,.7.2.2.2.4.3.6.5.4.3,1.1.4,1.1,1,0,.2.4.1,0,.5,0,0,0,.1,0,.1,1,0,1,.9,1.5,1.3.4.4,1.2.3,1.4.9.6-.3.8,0,.9.4,0,.3.2.5.4.7,0,0,.3.2.5.4.2.1.4.3.6.4.4.3,1,.5,1.5.8.6.3,1.2.5,1.7.8.7.3,1.4.7,2.1,1l-.4.6-.7.7c-.5.5-1,.9-1.5,1.3-.2.2,0,.5-.7.7-.5.1-.7.5-1.1.8-.3.2-.6.6-1.1.6-.9.1-1.8.4-2.2.6-.5.2-1,.4-1.5.5-1.1.2-2.1.3-3.2.4-.7.1-1.4.4-2,.2-.3,0-.6.2-.8-.4,0-.2-.4.2-.6.2-.5,0-.9-.2-1.3-.4-.6-.2-1.2-.5-1.8-.7-.4-.1-.8-.1-1.2-.3-.4-.2-.8-.4-1.1-.7-.4-.4-.7-.9-1-1.3-.4-.4-1-.6-1.1-1.2-.3-1.1-1-1.6-1.5-2.5-.4-.9-.8-1.8-1.1-2.8-.2-.6.3-1.2.3-1.8,0-.3,1.5-.4,2-.2,0,0,.2,0,.2.1.4.4,1.1.7,1.1,1,0,.5.2,1,.5,1.5Z"/>
      <path d="M377,220.2c-.5,0-.9-.1-1.4-.1-.2,0-.3-.3-.6.2-.1.3-.2-.4-.4-.4-.4,0-.9-.2-1.3-.2-.4,0-.9.1-1.4,0-.5,0-.8-.4-1.3-.3-.5.2-.6-.4-1-.4-.4,0-.8-.1-1.1-.5-.2-.3-.3-.6-.6-.6-.2,0-.5.2-.7,0-.2-.1-.2-.5-.7,0,0,0,0-.1,0-.2,0-.5-.1-.6-.5-.5-.3.1-.4,0-.5-.1-.4-.3-.7-.6-1-1-.2-.3-.2-.7-.4-1-.1-.3-.6-.4-.5-.9.1-.4,0-.6-.2-.9,0-.1.1-.4-.5-.3,0,0,0,0,0,0,.6-.8-.6-.7-.6-1.3,0-.5-.3-.9-.4-1.4,0-.1.1-.3-.4-.3-.2,0-.2-.1-.1-.2.5-.5,0-.8.1-1.1,0-.4-.3-.8.1-1.2.2-.2.3-.4-.4-.5-.3,0,0-.3-.1-.4,0-.1-.3-.2-.4-.3,0,0,.2-.2.3-.3,0,0,0,0,0,0-.7-.5.1-1.1-.1-1.7-.2-.5-.2-1.1-.1-1.7,0-.3.2-.6,1.3-.9.5-.1,1.1-.1,1.4,0,.2,0,.5.2.5.3.1.2.2.3.3.5.2.3.8.6.5,1,0,.1.2.2-.3.3,0,0-.1,0,0,0,.8.4.3.9.4,1.4,0,.4.8.7.5,1.1.6.1.6.4.4.6-.5.9,0,1.5.1,2.2,0,.7.4,1.4.7,2,0,.1.4,0,.2.3-.2.2,0,.3.2.4,0,.1.3.2.2.3-.1.4,0,.6.1.8.2.2.4.3.6.5.3.4.7.8,1.2.9.3,0,.8,0,1,.2.1.1.4-.2.3.5,0,.2.3-.2.4-.2.2,0,.4.1.7.2.3,0,.6.2,1,.3.2,0,.5-.2.7-.2.2,0,.4,0,.6.1.2.1.5.4.8.5.3.1.6-.1.9.2.5.6,1,.4,1.6.5.5.1,1.1.2,1.6,0,.3,0,.6.5.9.5.1,0,.3,1.5.2,2,0,0,0,.2,0,.2-.3.4-.6,1.2-1,1.1-.5-.1-1,0-1.6-.1Z"/>
      <path d="M368.2,225.9c.1,0,.3-.2.4-.3,0,0,.3.1,0-.4-.1-.2.3.2.3.2,0-.2.3-.2.4-.4,0-.2,0-.4.2-.6,0-.2.4,0,.3-.4,0-.3.4,0,.4-.3,0-.2,0-.4.4-.3.2,0,.4,0,.4,0,0-.1-.2-.4-.1-.4,0,0,.3,0,0-.4,0,0,0,0,.1,0,.4.2.4.1.2-.1-.2-.2,0-.3,0-.3,0-.2.2-.3.3-.4.1,0,.4,0,.5,0,.1,0,0-.4.3-.3.3.1.4,0,.5,0,0,0,.3,0-.1-.4,0,0,0,0,0,0,.8.4,0-.5.4-.5.3,0,.3-.3.4-.5,0,0,.2,0,0-.3-.1-.1,0-.2,0-.1.6.3.4,0,.6-.1.2,0,.1-.4.6-.2.2,0,.4,0,0-.4-.2-.2,0,0,0-.2,0,0-.2-.3-.1-.3,0,0,.2,0,.3.1,0,0,0,0,0,0-.3-.6.5-.3.6-.6,0-.3.3-.5.5-.6.1,0,.4,0,1.3.6.4.3.8.7,1,.9.1.2.3.4.3.5,0,.1,0,.3,0,.4,0,.3.3.7,0,.7-.1,0,0,.2-.3,0,0,0-.1,0,0,0,.4.7-.1.5-.2.8,0,.2.2.8-.1.7.4.5.2.5,0,.5-.8-.1-.7.5-1,.7-.3.3-.6.6-.9.9,0,0,.2.3,0,.2-.2-.1-.2,0-.2.2,0,0,0,.2-.2.2-.7-.2-.6.3-.9.5-.3.2-.5.4-.6.8,0,.2,0,.6-.2.7-.1,0,0,.3-.4,0-.1,0,.1.3.1.3,0,.1-.2.2-.3.3-.1.2-.3.3-.4.5,0,.1,0,.4,0,.5,0,.1-.2.2-.3.3-.2,0-.5,0-.6.1-.2,0-.2.4-.5.3-.6-.2-.7.2-1,.3-.3.1-.6.3-.9.5-.2.2-.5-.2-.7-.2,0,0-.7-1.3-.8-1.8,0,0,0-.2,0-.2,0-.5-.2-1.2,0-1.2.2,0,.3-.1.5-.2Z"/>
      <path d="M361.1,193.2c0-.1,0-.2,0-.3,0,0,.2,0-.3-.1-.3,0,.4,0,.4,0,0-.1,0-.2,0-.3,0-.1-.3-.2-.3-.3,0-.1.3-.2,0-.3-.3-.1.2-.1.1-.2-.1,0-.2-.2,0-.2.2,0,.4,0,.3-.1,0,0-.4-.1-.4-.1,0,0,.3,0-.3-.1,0,0,0,0,.1,0,.4,0,.4,0,.1-.1-.3,0-.2,0-.2-.1,0,0,0-.2,0-.2,0,0,.3,0,.4-.1,0,0-.2-.2,0-.2.3,0,.3,0,.3-.1,0,0,.3,0-.3-.1,0,0,0,0,0,0,.8,0-.2-.2,0-.3.2,0,0-.2,0-.3,0,0,.2,0-.3-.1-.2,0-.2,0,0,0,.6,0,.3-.1.4-.2.1,0-.2-.2.3-.2.2,0,.3,0-.3-.2-.3,0,0,0,0-.1,0,0-.3,0-.3-.1,0,0,.2,0,.3,0,0,0,0,0,0,0-.6-.2.2-.2,0-.4-.2-.1,0-.3,0-.4,0,0,.3-.1,1.4,0,.5,0,1.1.1,1.4.2.2,0,.5.1.5.1l.3.2c.2.1.7.2.4.3,0,0,.2,0-.3,0,0,0-.1,0,0,0,.8.2.2.3.3.4,0,.1.7.3.4.3.6.1.5.2.3.2-.7.1-.3.3-.4.5-.1.2,0,.4,0,.6,0,0,.3,0,0,.1-.3,0,0,0,0,.1,0,0,.1,0,0,.1-.7,0-.3.3-.4.4,0,.1-.2.3,0,.4,0,0,.4.2.3.3,0,0,.3.1-.3,0-.2,0,.3,0,.3.1,0,0,0,.1,0,.2,0,0,0,.2,0,.3,0,0,.3.1.3.2,0,0,0,.1,0,.2,0,0-.3.1-.4.2,0,0,.2.2,0,.2-.5,0-.3.2-.3.4,0,.1-.1.2,0,.4,0,0-.4.1-.4.2,0,0-.4,0-.8,0-.4,0-.9,0-1.2,0,0,0-.2,0-.2,0-.5-.1-1.2-.2-1.1-.3,0-.1,0-.2,0-.4Z"/>
      <path d="M369.5,193.2c0-.1,0-.2,0-.3,0,0,.2,0-.3-.1-.3,0,.4,0,.4,0,0-.1,0-.2,0-.3,0-.1-.3-.2-.3-.3,0-.1.3-.2,0-.3-.3-.1.2-.1.1-.2-.1,0-.2-.2,0-.2.2,0,.4,0,.3-.1,0,0-.4-.1-.4-.1,0,0,.3,0-.3-.1,0,0,0,0,.1,0,.4,0,.4,0,.1-.1-.3,0-.2,0-.2-.1,0,0,0-.2,0-.2,0,0,.3,0,.4-.1,0,0-.2-.2,0-.2.3,0,.3,0,.3-.1,0,0,.3,0-.3-.1,0,0,0,0,0,0,.8,0-.2-.2,0-.3.2,0,0-.2,0-.3,0,0,.2,0-.3-.1-.2,0-.2,0,0,0,.6,0,.3-.1.4-.2.1,0-.2-.2.3-.2.2,0,.3,0-.3-.2-.3,0,0,0,0-.1,0,0-.3,0-.3-.1,0,0,.2,0,.3,0,0,0,0,0,0,0-.6-.2.2-.2,0-.4-.2-.1,0-.3,0-.4,0,0,.3-.1,1.4,0,.5,0,1.1.1,1.4.2.2,0,.5.1.5.1,0,0,.2.1.3.2.2.1.7.2.4.3,0,0,.2,0-.3,0,0,0-.1,0,0,0,.8.2.2.3.3.4,0,.1.7.3.4.3.6.1.5.2.3.2-.7.1-.3.3-.4.5-.1.2,0,.4,0,.6,0,0,.3,0,0,.1-.3,0,0,0,0,.1,0,0,.1,0,0,.1-.7,0-.3.3-.4.4,0,.1-.2.3,0,.4,0,0,.4.2.3.3,0,0,.3.1-.3,0-.2,0,.3,0,.3.1,0,0,0,.1,0,.2,0,0,0,.2,0,.3,0,0,.3.1.3.2,0,0,0,.1,0,.2,0,0-.3.1-.4.2,0,0,.2.2,0,.2-.5,0-.3.2-.3.4,0,.1-.1.2,0,.4,0,0-.4.1-.4.2,0,0-.4,0-.8,0s-.9,0-1.2,0c0,0-.2,0-.2,0-.5-.1-1.2-.2-1.1-.3,0-.1,0-.2,0-.4Z"/>
    </g>
    <path d="M381.5,173.8c.6-.7,1.3-1.3,1.8-2.1.2-.3.6-.4.4-1,0-.3.6-.2.8-.4.5-.7,1-1.4,1.4-2.2.4-.7.6-1.6,1-2.3.3-.7.9-1.3.9-2.1,0-.6.6-1,.5-1.5,0-.6-.1-1,0-1.5.1-.4.2-.8,0-1.1-.2-.2-.5-.2-.6-.3,0-.1,0-.5-.6-.1,0,0,0,0,0-.2.1-.4,0-.5-.4-.3-.2.2-.3.1-.5,0-.4,0-1-.2-1.6-.3-.5,0-.9-.3-1.4-.4-.5,0-1,.3-1.5,0-.5-.2-1-.1-1.4,0-.3,0-.6-.1-.7.5,0,0-.1,0-.2,0-1-.6-1.4.7-2.1.8-.8.1-1.5.6-2.2,1.1-.2.1-.5,0-.4.6,0,.2-.2.3-.3.3-.9-.2-1.2.5-1.8.8-.7.3-1,1-1.9,1.1-.4,0-.8.3-.6.9,0,.3-.4.4-.5.6-.1.2,0,.5-.2.7-.1.1-.4.1-.6.2,0,0-.1,0-.1.1-.2,1.2-1.6,1.5-2.1,2.4-.5,1-1.3,1.8-2,2.7-.4.5-.9.9-2.1.7-.5-.1-1-.4-1.1-.8,0-.3-.2-.6,0-.8.1-.4.2-.8.3-1.1.3-.7.3-1.7,1-2.2.2-.1.2-.6.7-.4,0,0,.2,0,.2,0,0-1.3,1.1-1.9,1.8-2.7.6-.7.8-1.8,1.7-2.3,0-.8.5-1.2,1-1.4,1.9-.7,3.1-2.2,4.8-3.1,1.7-.9,3.5-1.8,5.4-2.3.3,0,.5-.5,1-.3.4.2.8-.1,1.3-.2.4,0,.8-.3,1.2-.2,1.6.5,3.1.1,4.7.4.8.2,1.7.4,2.5.8.9.4,1.7,1.1,2.3,1.8.8.9,1.5,1.9,1.6,3,0,.5.4,1-.2,1.5-.2.1.3.6.3.9,0,.8-.2,1.5-.4,2.1-.3.9-.7,1.8-1,2.6-.2.5-.2,1.1-.4,1.6-.2.5-.5,1-.8,1.4-.4.6-1,1-1.4,1.6-.5.6-.7,1.3-1.3,1.7-1.2.7-1.8,1.8-2.7,2.7-.9.9-1.8,1.7-2.7,2.7-.5.5-1.3.6-1.8,1-.3.2-1.5-.7-1.7-1.2,0,0,0-.2,0-.3.2-.8.2-1.7.8-2.1.8-.6,1.6-1.4,2.3-2.1Z"/>
    <path d="M334.8,195.8c.5-.4,1.1-.7,1.5-1.1.2-.2.5,0,.4-.7,0-.3.5,0,.7,0,.4-.4,1-.7,1.4-1.1.4-.4.7-.9,1.1-1.4.4-.4,1-.6,1.3-1.2.2-.5.8-.4,1.1-.8.3-.4.6-.8,1.1-.9.4-.1.8-.2.9-.5.1-.2,0-.6.2-.7.2-.1.5-.1.2-.7,0,0,.1,0,.2,0,.5.1.6,0,.6-.4,0-.3,0-.4.2-.6.3-.4.6-.7,1-1,.3-.2.7-.3,1-.6.3-.2.4-.7.8-.8.5,0,.7-.3.9-.6.1-.1.5-.1.1-.7,0,0,0,0,0,0,1,.1.5-1,1-1.3.5-.3.8-.9,1.1-1.4,0-.1.3-.1,0-.5,0-.1,0-.3.1-.3.8,0,.7-.6,1.1-.9.4-.3.5-.9,1.2-1.1.3,0,.6-.2.2-.8-.2-.3.2-.3.3-.5,0-.2,0-.4,0-.6,0-.1.3,0,.5-.1,0,0,0,0,0-.1-.1-1,1-1.1,1.3-1.9.3-.7.7-1.3,1.2-2,.3-.3.6-.6,1.8-.3.5.1,1,.4,1.2.7.1.2.3.5.2.6,0,.3,0,.5,0,.8,0,.5.1,1.3-.4,1.5-.2,0,0,.4-.5.3,0,0-.1,0-.1,0,.3,1-.5,1.4-.9,2-.3.5-.1,1.4-.7,1.7.3.6,0,.9-.4,1.1-1.2.6-1.6,1.8-2.4,2.7-.8.9-1.5,1.9-2.4,2.8-.1.2,0,.5-.4.5-.3,0-.4.4-.6.6-.2.2-.2.5-.5.5-1.1.3-1.5,1.2-2.2,1.9-.7.6-1.4,1.3-2,2-.4.5-.5,1.1-1.1,1.4-.2.1-.2.6-.8.3-.2,0,0,.4-.1.5-.3.3-.6.5-.9.8-.4.4-.9.7-1.3,1.1-.2.2-.3.7-.6.9-.2.3-.5.5-.8.7-.4.2-.9.3-1.3.6-.4.2-.6.7-1.2.8-1,0-1.5.8-2.2,1.2-.7.4-1.4.9-2,1.4-.4.3-1,.1-1.4.4-.2.1-1.2-1-1.4-1.5,0,0,0-.2,0-.2.1-.6,0-1.5.5-1.7.6-.3,1.2-.8,1.8-1.2Z"/>
    <path d="M342.8,210.9l-2.2-1.5c-.3-.2-.4-.6-1-.4-.3,0-.2-.6-.4-.8-.7-.5-1.3-1.3-1.9-2-.3-.4-.6-.7-.9-1.1-.3-.4-.6-.9-.8-1.3-.4-1-.3-2-.6-3-.3-.9.3-1.6.4-2.5.1-.9.5-1.9,1.3-2.5.6-.4,1.2-.7,1.7-1.1.3-.3.5-.7,1-.9.4-.1.9,0,1.1-.7,0,0,.2,0,.3,0,.5.3.9.3,1.3,0,.3-.3.6-.2.9-.3.8,0,1.5,0,2.2.2.5.1,1,.5,1.6.6.5.2,1.2,0,1.7.5.2.2.4.4.7.5h.2c0,.1,0,.1,0,.1h0c0,0,.2.4.2-.3,0,0,0,0,0,0,0,.1,0,.2,0,.3.1.2.2.2.2,0,0-.1-.1-.4,0-.2.2.3.2.3.3.3,0,0,0,0,0,0,0,0,.2.3-.4-.7-.2-.3-.2-.4,0-.1.4.6.5.6.5.6,0,0-.1-.2,0-.2,0,0,0,0,0,0,0-.1,0-.1.3,0,.2,0,.3-.2-.3-.3-.3,0,0,0,0-.2,0-.2-.4-.4-.4-.6,0-.2.2-.4.3-.6,0,0,0-.1,0-.2-.8-1,0-2.1-.2-3.1-.3-1-.2-2.1-.2-3.2,0-.6.2-1.2,1.4-1.6.5-.2,1.1-.2,1.4,0,.2.2.5.4.5.6,0,.3.2.6.3.9.2.6.8,1.2.5,1.9,0,.2.2.4-.3.6,0,0-.1.1,0,.2.8.8.4,1.8.5,2.7,0,.4.3.7.4,1.1.2.4.3.6.3,1.5.8.8.8,2,.8,2.7,0,.8,0,1.5.1,2.3-.6.3-.9.5-1.2.8l-.6.6c0,0,0,0-.1,0,0,0,0,0-.1,0-.3-.1-.8,0-2.5.4l-.3-.4h-.1c0-.1,0-.2,0-.2,0,0-.1,0-.2,0l-.3-.2c-.1,0-.2-.1-.4-.3-.1-.1-.3-.3-.4-.4-.2-.3-.5-.4-.8-.6-.2,0-.3-.1-.5-.2-.1,0-.2,0-.3,0-.2,0-.6,0-.8-.3-.9-.9-2.1-.8-3.2-.9-1.1-.2-2.2-.2-2.9.2-.2.1-.4.3-.5.5-.1.2-.2.3-.4.4-.2,0,0,.4-.6.3-.2,0,.1.3.1.4,0,.3-.2.6-.2.9,0,.5,0,1,0,1.4,0,.3.4.5.6.7,0,.1.2.2.2.4,0,.1.1.3.2.4.2.4.3.9.5,1.3.3.4.9.6,1.1,1.1.4,1,1.4,1.4,2.2,2,.8.6,1.7,1.2,2.6,1.7.5.3.7,1,1.2,1.3.2.1-.3,1.6-.6,1.9,0,0-.2.1-.2.1-.7,0-1.6.4-2.1,0-.8-.6-1.6-1.1-2.4-1.6Z"/>
  </g>
</svg>