<?xml version="1.0" encoding="UTF-8"?>
<svg id="ARTWORK" xmlns="http://www.w3.org/2000/svg" width="600" height="600" viewBox="0 0 600 600">
  <path d="M164.3,260.2c.3-.8.6-1.5.8-2.3.1-.3.5-.5.1-1-.2-.3.5-.3.7-.6.3-.8.8-1.5,1.3-2.2.5-.7.9-1.5,1.5-2.2.7-.7,1.6-.9,2.3-1.6.7-.6,1.5-.3,2.3-.5.8-.2,1.7-.3,2.4,0,.2.1.6.3.9.4.3.1.5.2.8.3.3,0,.7-.1,1,0,.2.1.4.5.8,0,0,0,0,0,0,.2,0,.5.3.5.4.2,0-.3.4-.2.6-.2.7,0,1.3,0,1.9.2.5.1.9.4,1.4.6.5.1,1.1,0,1.5.4.4.4.8.5,1.3.6.3,0,.5.4.8-.2,0,0,.1,0,.2,0,.5,1,1.5.1,2.2.5.7.4,1.5.5,2.2.7.2,0,.3.3.7,0,.1-.1.3,0,.4,0,.3.8,1,.6,1.5.9.6.3,1.3.3,1.7,1,.2.3.5.5,1,0,.2-.2.4.1.7.2.2,0,.4-.2.6-.1.1,0,.2.3.3.5,0,0,0,0,.1,0,1-.4,1.6.7,2.5.7.4,0,.9,0,1.3.1.4,0,.9.1,1.3.2.5,0,.9.3,1.3,1.4.2.5.2,1.1,0,1.4-.2.2-.4.5-.6.5-.3,0-.6.2-1,.3-.7.1-1.4.6-2,.2-.2-.1-.5.1-.6-.4,0,0,0-.1-.1,0-1,.6-1.9-.1-2.7-.3-.8-.2-1.7.2-2.3-.3-.6.5-1,.2-1.4-.1-1.2-1.1-2.7-1.2-4-1.8-1.3-.6-2.7-.9-4.1-1.3-.2,0-.5.2-.7-.1-.2-.3-.6-.2-.9-.3-.3,0-.6,0-.8-.2-.5-.4-1-.6-1.6-.7-.6,0-1.1,0-1.7-.2h-.8c0-.1-1-.3-1-.3-.8-.1-1.5-.4-2.1-.6-.7-.2-1.3,0-1.6-.2-.2,0-.4.2-.6-.4,0-.2-.3.3-.4.3-.3,0-.6,0-.9.2-.4.1-.8.3-1.2.6-.2.2-.3.6-.5.8-.2.2-.4.5-.6.7-.3.3-.7.5-1,.8-.3.4-.3.9-.7,1.2-.8.6-.9,1.6-1.3,2.5-.4.9-.8,1.9-1.1,2.9-.2.6-.9.9-1.1,1.4-.1.3-1.6-.2-2-.5,0,0-.1-.2-.2-.2-.1-.7-.6-1.4-.3-1.9.4-.7.7-1.6,1-2.4Z"/>
  <g>
    <path d="M187.2,263.3c-3.7-1.3-8.1.5-10.4,3.7-.7,1.1-1.2,2.3-1.3,3.5,0,1,.2,1.9.6,2.9.4,1.1,1,2.1,1.8,3,1.6,1.9,3.8,3.4,6.2,3.8,2.5.4,5.1-.3,6.9-2,1.8-1.7,2.6-4.2,3.2-6.6.2-.7.4-1.3.2-2-.1-.5-.5-1-.8-1.4-1.5-1.7-4.4-4.2-6.5-4.9"/>
    <path d="M192.7,264.6c.7.6,1.4,1.3,2.2,2,.3.3.3.7,1.1.8.4.1.2,1,.3,1.4.3.7.3,1.4.1,2.1-.1.6-.3,1-.4,1.4-.2.8-.2,1.7-.5,2.6-.3.9-.9,1.7-1.2,2.6-.2.9-1.1,1.2-1.6,1.9-.5.7-1.3,1.4-2.2,1.6-.7.2-1.3.2-1.8.5-.3.2-.6.6-1,.7-.4,0-.9-.1-1.1.5,0,0-.2,0-.3-.1-.5-.4-.9-.4-1.3,0-.4.2-.7.2-1,.1-.9-.1-1.8-.3-2.6-.7-.6-.3-1.1-.8-1.6-1.2-.5-.4-1.3-.6-1.6-1.2-.3-.6-.7-1-1.1-1.4-.2-.2-.2-.7-.9-.5,0,0-.1,0-.1-.2,0-1.2-1.3-1.4-1.6-2.4-.3-1-.8-1.9-1-3,0-.3,0-.6-.4-.9-.2,0-.2-.5,0-.6.6-.9.4-1.9.8-2.7.4-.9.7-1.9,1.6-2.3.4-.2.8-.5.7-1.2,0-.4.5-.5.7-.8.2-.2.2-.6.4-.8.2-.2.5-.1.8-.2,0,0,.1,0,.2-.1.4-.7,1-1,1.6-1.1.7-.2,1.3-.2,2-.5,1.3-.5,2.7-.6,4.1-.4.8.1,1.6.5,1.6,1.8,0,.5-.2,1.1-.5,1.3-.2.2-.5.3-.7.4-.3,0-.6.1-.9.2-.6.1-1.1.7-1.7.5-.2,0-.3.3-.6-.2,0,0-.1,0-.1,0-.6,1-1.4.8-2.1,1.2-.6.4-.7,1.3-1.3,1.5.2.7,0,.9-.4,1.1-.6.3-1,.9-1.1,1.4-.1.5,0,.9,0,1.5,0,.5.3,1.2.6,1.8.3.6.7,1.2,1.1,1.8.1.2.5.1.5.5,0,.4.4.5.6.7.2.2.5.3.6.5.5,1.2,1.7,1.4,2.6,1.7,1,.4,2.1.5,3.1.1.6-.2,1-.7,1.6-.9.3,0,.3-.5.8-.1.2,0,0-.4.2-.5.2-.3.5-.5.8-.9.3-.4.7-1,.9-1.6.1-.4,0-.8.1-1.2,0-.4.2-.8.4-1.3.2-.5.6-1.2.8-1.5.1-.3-.2-.2,0-.4.2-.2-.1-.7-.5-1.1-.4-.4-.8-.7-1.1-1.1-.7-.7-1.5-1.4-2.4-1.9-.5-.2-.7-.9-1.2-1.1-.1,0,0-.4,0-.9,0-.4,0-.9.2-1.2,0,0,.1-.2.2-.2.8-.2,1.8-.6,2.4,0,1,.7,1.9,1.3,2.7,2Z"/>
  </g>
  <path d="M172.5,283.2c-.3.2-.7.3-1.1.5-.1,0-.4,0-.4.5,0,.3-.4-.3-.5-.2-.4.2-1,.2-1.6.3-.6,0-1.2.2-1.8,0-.6-.2-1-.8-1.6-.9-.5-.1-.4-.8-.7-1-.3-.2-.6-.6-.6-1,0-.3.1-.6,0-.8-.1,0-.5,0-.5-.2,0-.1.1-.4-.5-.2,0,0,0,0,0-.2.3-.3.2-.5,0-.5-.3,0-.3-.1-.4-.2-.2-.3-.3-.6-.4-.9,0-.2,0-.5,0-.8,0-.2-.4-.4-.2-.7.2-.3.1-.5,0-.7,0-.1.2-.3-.4-.2,0,0,0,0,0,0,.7-.6-.5-.6-.4-1,0-.4-.1-.7-.3-1.1,0,0,.1-.2-.3-.2-.2,0-.2,0-.1-.2.5-.4.1-.6.1-.9,0-.3-.3-.6.1-1,.2-.2.3-.4-.4-.4-.3,0,0-.2-.1-.3,0,0-.3-.1-.4-.2,0,0,.2-.2.3-.3,0,0,0,0,0,0-.7-.4,0-1-.1-1.4-.2-.5-.2-1-.1-1.5,0-.3.2-.6,1.4-.8.5,0,1.1-.1,1.4,0,.2,0,.5.2.5.2.1.1.2.3.3.4.2.3.8.5.5.8,0,0,.2.2-.3.3,0,0-.1,0,0,0,.8.3.3.7.5,1.1,0,.3.8.5.5.9.6,0,.6.3.4.5-.5.7,0,1.3.1,1.9,0,.6.3,1.2.5,1.9,0,.1.4,0,.2.3-.2.2,0,.3,0,.4,0,.1.2.2.1.4-.4.7.1,1.1.3,1.5.1.5.3,1,.7,1.4.2.2.7.4.7.6,0,.1.4,0,0,.4-.1.1.3,0,.4,0,.1,0,.2.2.3.3.1.1.2.2.2.2,0,0,.2-.2.2-.3,0,0,0,0,0,0,0,0,0,.3.1.3.1,0,.2-.3.4,0,.5.4.8,0,1.2-.2.4-.1.9-.3,1.4-.7.3-.2.7.2,1.1.1.2,0,.6,1.4.7,1.9,0,0,0,.2,0,.2-.1.5,0,1.2-.2,1.3-.3,0-.6.2-1,.4Z"/>
  <path d="M187.8,290.7c-.5,0-1,0-1.5.2-.2,0-.4-.2-.5.4,0,.3-.3-.3-.5-.3-.5.1-.9,0-1.4.1-.5,0-.9.3-1.4.4-.5,0-1-.3-1.4,0-.4.3-.7-.3-1.1-.2-.4,0-.9,0-1.2-.2-.3-.2-.5-.5-.8-.5-.2,0-.4.3-.6.2-.2,0-.3-.4-.6.2,0,0,0,0,0-.2,0-.4-.3-.5-.6-.3-.3.2-.4.1-.5,0-.2,0-.4-.1-.6-.2l-.4-.2c-.2,0-.3-.2-.5-.3-.5-.3-.7-.8-1-1.2-.3-.4-.8-.8-.6-1.4,0-.3,0-.5.1-.8,0-.1,0-.2,0-.3v-.3c0-.2.2-.4-.4-.4,0,0,0,0,0,0,.8-.5-.4-.8-.2-1.2.2-.4,0-.8-.2-1.1,0-.2,0-.5-.5-.6-.1,0-.2-.1-.2-.2,0,0-.1-.2,0-.2.1-.3,0-.6-.2-.9-.2-.3-.6-.7-.7-1,0-.2-.2-.4-.4-.6.2-.1.3-.2.6-.3.3,0,.6-.2,1-.1.5,0,.9,0,.7-.6,0-.3.5-.2.7-.4.2-.1.2-.4.4-.5.2,0,.5,0,.7,0,0,0,.1,0,.2,0,.1-.2.4-.4.6-.5.1,0,.3,0,.4,0,.3,0,.6,0,.9-.2.5-.4,1-.6,1.6-.7.3,0,.7,0,1.4.9.3.4.5.9.5,1.3,0,.3,0,.5,0,.6-.1.2-.2.4-.4.5-.3.3-.4,1-.8.9-.1,0-.2.3-.4-.1,0,0-.1,0-.1,0,0,.5-.3.6-.5.7-.1,0-.3,0-.4,0-.1,0-.3,0-.3,0,0,0,0,.2,0,.3,0,.1.1.2,0,.1.5.5.5.3.3.2-.3-.1-.5-.1-.4-.1,0,0,.2.2.2.3,0,0,0,.2,0,.3v.4c0,0,.2.8.2.8,0,.5.1,1,.2,1.4,0,.1.4.2.1.4-.1,0-.1.2,0,.3,0,0,0,0,0,0,0,0,.1,0,0,.1-.3.2-.3.4-.2.4,0,0,.1,0,.2,0,0,0,0,0,.2,0,.5.3,1.1.6,1.7.6.4,0,.8-.3,1.1,0,.1,0,.4-.2.4.4,0,.2.2-.2.3-.3.3,0,.5,0,.8,0,.4,0,.7.1,1.1,0,.2,0,.4-.3.7-.3.2,0,.5,0,.7,0,.3,0,.6.3.9.3.3,0,.6-.3,1,0,.6.5,1.2.1,1.8.1.6,0,1.2,0,1.7-.2.3-.1.7.3,1,.3.2,0,.6,1.4.6,1.9,0,0,0,.2,0,.2-.3.5-.4,1.3-.8,1.3-.6,0-1.1.1-1.7.2Z"/>
  <path d="M244.1,264.7c-.7,0-1.5-.2-2.2-.2-.3,0-.5-.3-.9.2-.2.3-.4-.4-.6-.4-.7,0-1.4-.1-2.1-.1-.7,0-1.4.2-2.1.2-.7,0-1.3-.3-2,0-.6.2-1.1-.3-1.6-.2-.6,0-1.2.1-1.7-.2-.4-.2-.8-.5-1.2-.4-.3,0-.5.4-.8.3-.3,0-.5-.3-.8.3,0,0-.1,0-.2-.2-.2-.4-.6-.4-.8-.2-.2.3-.4.2-.7.2-.6,0-1.2,0-1.7-.1-.4,0-.8-.4-1.3-.4-.4,0-.9.1-1.3-.2-.4-.3-.8-.4-1.2-.4-.2,0-.5-.3-.7.3,0,0-.1,0-.1,0-.6-.9-1.3.1-2-.1-.7-.3-1.4-.2-2.1-.2-.2,0-.4-.2-.6.2,0,.2-.3.2-.4,0-.5-.7-1-.3-1.6-.5-.6-.2-1.2,0-1.8-.5-.2-.2-.6-.4-1,.2-.2.3-.4,0-.7,0-.2,0-.4.3-.6.3-.2,0-.3-.3-.4-.4,0,0,0,0-.1,0-1,.6-1.7-.4-2.7-.4-.9,0-1.8-.1-2.7-.4-.5-.1-1-.4-1.1-1.6,0-.5,0-1.1.3-1.4.2-.2.4-.4.6-.4.3,0,.6-.1.9-.2.6-.1,1.2-.5,1.8-.2.2.1.4-.2.5.4,0,0,0,.1.1,0,.9-.7,1.6,0,2.4,0,.7,0,1.4-.5,2.1-.2.4-.6.9-.4,1.2-.2,1.3.8,2.7.5,4,.7,1.3.2,2.7.3,4.1.4.2,0,.5-.3.7,0,.2.3.6.1.9.1.3,0,.6,0,.8,0,1,.7,2.1.4,3.2.6,1.1.2,2.1.3,3.2.2.7,0,1.3-.4,2-.2.3,0,.6-.2.8.4,0,.2.4-.3.5-.3.5,0,.9,0,1.3,0,.6,0,1.2.1,1.9.1.4,0,.8-.2,1.2-.3.4,0,.8,0,1.2,0,.5.1,1,.4,1.5.5.5.1,1.1-.1,1.6.2.9.6,1.8.4,2.8.5.9.1,1.8.2,2.8.2.5,0,1,.5,1.5.6.2,0,.4,1.5.3,2,0,0,0,.2-.1.2-.5.4-1.1,1.1-1.6,1-.8-.1-1.7-.2-2.5-.2Z"/>
  <path d="M304.4,251.5l-4,5.7c-.5.7-1.2,1.3-1.4,2.3,0,.5-1.1.8-1.5,1.4-1.3,1.7-2.7,3.4-4.1,5-.7.8-1.3,1.7-1.9,2.5-.7.8-1.3,1.7-2,2.5-1.4,1.6-3.1,2.9-4.2,4.6-1,1.4-2.5,2.2-3.6,3.4-.6.7-1.2,1.3-1.9,1.9-.7.6-1.3,1.2-2.1,1.7-1,.7-2.1,1.4-3,2.3-.5.6-.9,1.3-1.6,1.8-.6.5-1.5.8-1.6,1.8,0,0-.4.2-.6.3-.9.2-1.7.9-2.1,1.6-.4.6-.9,1-1.4,1.4-1.4,1.1-2.8,2.3-4.5,3.2-1.3.7-2.7,1.2-4.2,1.6-1.5.5-3,1.1-4.4.9-1.4-.1-2.7,0-3.9,0-.7,0-1.6-.3-2.2.4,0,0-.3,0-.5,0-2-.8-4.1.2-6.2-.1-2.1-.3-4.3-.3-6.5-.5-.6,0-1.2-.3-1.7.1-.2.1-.8,0-1.1,0-1.5-.8-3.2-.6-4.8-.9-1.8-.4-3.7-.3-5.5-1.1-.8-.3-1.8-.6-2.8-.1-.5.2-1.3-.2-2-.2-.6,0-1.1.2-1.7,0-.5,0-.9-.4-1.3-.6-.1,0-.3,0-.4,0-2.8.3-5.3-1-8-1.3-2.7-.2-5.5-.7-8.2-1.2-1.5-.3-3-.7-3.8-2-.4-.6-.3-1.1.4-1.4.5-.2,1.1-.3,1.6-.3.9,0,1.7,0,2.6,0,1.8,0,3.6-.2,5.3.4.5.2,1.2,0,1.6.5,0,0,.3.2.4.1,2.5-.4,4.9.5,7.3.8,2.1.3,4.2,0,6.2.5,1.2-.5,2.6-.1,3.7.2,4,1.3,8.1,1.4,12.2,1.8,4.1.5,8.3.7,12.4.7.7,0,1.3-.3,2.1,0,.8.3,1.7,0,2.6,0,.8,0,1.6-.3,2.3-.2,1.5,0,3-.2,4.3-.8,1.3-.6,2.6-1.5,3.9-2.4,2.6-1.8,5.2-3.9,7.6-6,1.4-1.4,2.7-2.9,4.3-4.1.7-.5,1.1-1.4,2.1-1.5.3,0,.6-.9.9-1.3.9-1,2-1.9,2.9-2.8,1.3-1.3,2.7-2.6,3.9-4.1.8-.9,1.4-1.9,2.1-2.8.8-.9,1.6-1.8,2.4-2.7,1-1.1,2.2-2.1,3.2-3.3,1.1-1.2,1.9-2.6,3-3.7,1.1-.9,2-2,2.8-3.2.9-1.1,1.6-2.3,2.5-3.4.8-1.1,1.6-2.3,2.4-3.4.8-1.2,1.5-2.3,2.2-3.6.8-1.4,2-2.3,2.8-3.7.4-.6,2.1-.7,2.4-.2,0,0,0,.3,0,.4-.4,1.5-.5,3.2-1.5,4.6-1.4,2.2-2.8,4.4-4.3,6.6Z"/>
  <path d="M279.1,218.1c-.5.9-1,1.8-1.4,2.7-.2.3-.6.5-.3,1.1.1.3-.6.3-.8.6-.4.8-1,1.6-1.4,2.5-.4.8-.7,1.7-1.1,2.5-.4.8-1.2,1.4-1.4,2.4-.2.8-1,1.1-1.3,1.8-.3.7-.7,1.4-1.3,1.9-.5.4-.9.7-1.1,1.2-.1.3,0,.8-.3,1.1-.2.3-.7.4-.3,1,0,0-.2.1-.3.1-.5,0-.8.5-.7.9,0,.4-.1.6-.3.8-.4.6-.9,1.3-1.4,1.9-.4.4-.9.8-1.3,1.2-.4.4-.6,1.1-1.1,1.4-.6.3-.9.7-1.2,1.1-.2.2-.6.4-.3.9,0,0,0,.1-.1.2-1.2.2-.8,1.6-1.6,2.1-.7.6-1.2,1.4-1.7,2.2-.1.2-.5.3-.2.8,0,.2,0,.4-.2.4-.9.2-1.1,1-1.6,1.5-.6.6-.8,1.4-1.7,1.7-.4.1-.7.5-.5,1.1,0,.3-.4.5-.5.7-.1.2,0,.6-.2.8-.1.2-.4.2-.6.3,0,0-.1,0-.1.2-.2,1.3-1.6,1.7-2.2,2.8-.6,1.1-1.3,2-2.1,2.9-.4.5-1,.9-2.2.6-.5-.1-1-.5-1.1-.9,0-.3-.1-.6,0-.9.1-.4.3-.7.4-1.1.3-.7.3-1.7,1-2.1.2-.1.1-.6.7-.4,0,0,.2,0,.2,0,0-1.3,1.1-1.9,1.7-2.8.5-.8.5-1.8,1.3-2.4-.2-.8.3-1.2.7-1.5,1.6-1,2.4-2.7,3.5-4.1,1.2-1.4,2.2-2.9,3.4-4.3.2-.2,0-.7.5-.8.4-.1.5-.6.8-.9.2-.3.3-.7.7-.9,1.4-.8,1.9-2.1,2.8-3.3.9-1.1,1.8-2.2,2.4-3.5.4-.8.6-1.7,1.2-2.3.3-.3.2-.8.9-.8.2,0,0-.5.1-.7.3-.5.6-1,1-1.5.4-.7.9-1.4,1.3-2.1.2-.4.3-1,.5-1.5.2-.5.5-.9.8-1.3.4-.5.9-1,1.3-1.5.4-.6.5-1.3,1.1-1.8,1.1-.8,1.4-2,2.1-3.1.6-1,1.3-2.1,1.7-3.2.3-.6,1-1,1.3-1.6.1-.3,1.7,0,2.1.3,0,0,.1.2.2.2.1.8.5,1.7,0,2.4-.6,1-1.1,2-1.6,3Z"/>
  <path d="M364.6,293.4c-1-1.7-2-3.3-3.1-5-.4-.6-.6-1.4-1.4-1.7-.4-.2-.3-1.1-.6-1.7-1-1.5-1.9-3.1-3-4.6-1-1.5-2.1-2.8-3.1-4.3-1-1.4-1.7-3.1-2.9-4.3-1-1.1-1.3-2.4-2.2-3.5-.9-1.2-1.8-2.4-2.4-3.7-.4-1-.8-2-1.5-2.8-.4-.5-1-.8-1.4-1.4-.4-.6-.5-1.3-1.4-1.5,0,0-.1-.3-.2-.5,0-.8-.6-1.5-1.1-1.9-.6-.3-.8-.8-1.1-1.2-.9-1.2-1.7-2.4-2.5-3.7-.6-.9-1-2-1.6-2.9-.6-1-1.5-1.9-1.9-2.9-.4-1.1-1-1.9-1.6-2.8-.3-.5-.5-1.2-1.3-1.3,0,0-.2-.2-.2-.3-.3-1.9-2.2-2.6-3-4.2-.9-1.6-2-3-3.1-4.5-.3-.4-.4-.9-1.1-1-.2,0-.5-.4-.6-.7-.3-1.5-1.4-2.4-2.1-3.6-.8-1.3-2-2.5-2.5-4-.2-.7-.7-1.5-1.6-1.8-.4-.1-.7-.9-1.1-1.4-.3-.4-.8-.6-1.1-.9-.2-.3-.3-.8-.4-1.2,0-.1-.1-.2-.2-.3-1.9-1.5-2.5-3.8-4-5.6-1.5-1.8-2.8-3.7-4.2-5.6-.7-1.1-1.4-2.2-1-3.6.2-.6.6-1,1.2-.7.4.2.9.4,1.2.7.5.5,1.1,1.1,1.6,1.6,1,1.1,2.4,2,3,3.4.2.4.8.7.6,1.3,0,0,0,.3.1.3,1.9,1.2,2.7,3.2,4,4.9,1.1,1.4,2.6,2.4,3.4,4.1,1.1.4,1.7,1.4,2.1,2.4,1.5,3.2,3.9,5.9,5.9,8.8,2,3,4.1,5.8,6.1,8.8.3.5.9.7,1.1,1.5.2.7.8,1.3,1.3,1.9.4.6,1,1.1,1.2,1.8,1,2.7,3,4.8,4.5,7.1,1.5,2.4,3,4.7,4.7,6.9,1,1.4,2.3,2.6,3.1,4.1.4.6,1.1,1.1,1,2,0,.3.7.6,1,1,.7.9,1.3,1.9,2,2.9.9,1.4,1.8,2.7,2.7,4.1.6.8,1.3,1.5,1.9,2.3.6.8,1.2,1.7,1.7,2.6.6,1.2,1.2,2.4,1.8,3.5.7,1.2,1.7,2.2,2.1,3.5.8,2.3,2.4,4.2,3.6,6.3,1.2,2.1,2.4,4.2,3.8,6.2.8,1.1,1,2.5,1.6,3.6.3.5-.5,2-1.1,2-.1,0-.2,0-.3,0-1.1-.9-2.3-1.5-3-2.9-1-1.9-2.2-3.8-3.4-5.7Z"/>
  <path d="M305,306.1c-.3-.6-.6-1.3-.9-1.9-.1-.2,0-.6-.6-.6-.3,0,.2-.5,0-.7-.3-.6-.5-1.2-.9-1.8-.3-.6-.8-1-1.1-1.6-.3-.6-.3-1.3-.9-1.7-.5-.4-.2-1-.6-1.4-.3-.4-.7-.9-.7-1.5,0-.4,0-.9-.2-1.2-.2-.2-.5-.3-.6-.5,0-.2,0-.6-.6-.5,0,0,0-.1,0-.2.3-.4,0-.7-.2-.8-.3,0-.4-.3-.5-.4-.3-.5-.5-1-.7-1.5-.1-.4,0-.9-.2-1.3-.1-.4-.6-.7-.5-1.2.1-.5,0-.8-.2-1.2,0-.2,0-.6-.6-.4,0,0,0,0,0-.1.5-.9-.8-1-.8-1.7,0-.7-.5-1.2-.8-1.8,0-.2,0-.4-.5-.4-.2,0-.3-.1-.2-.3.4-.7-.2-1-.3-1.5-.1-.6-.6-1-.4-1.7,0-.3,0-.7-.6-.7-.3,0-.2-.4-.3-.5-.1-.1-.4-.2-.5-.3,0-.1,0-.4.1-.5,0,0,0-.1,0-.1-1-.5-.5-1.6-1-2.3-.5-.7-.9-1.6-1.1-2.6-.1-.5-.1-1.2.9-1.8.5-.3,1-.3,1.4-.2.3,0,.5.2.6.3.2.2.4.4.5.6.3.4,1,.6,1,1.2,0,.2.3.2,0,.6,0,0,0,.1,0,.1,1,.3.9,1.3,1.3,1.9.3.6,1.2.9,1.2,1.6.7,0,.8.5.8.9,0,1.4.9,2.4,1.3,3.6.5,1.2,1.1,2.4,1.6,3.6,0,.2.5.2.4.6-.1.3.2.5.3.8.1.2.3.4.3.7-.2,1.2.6,2,1,2.9.4,1,.7,1.9,1.3,2.8.4.5.9.9,1.1,1.6,0,.3.5.4,0,.9-.1.1.4.2.5.3.2.4.4.8.6,1.2.3.5.5,1.1.8,1.6.2.3.6.5.8.8.2.3.4.7.5,1,.1.5.1,1,.3,1.4.2.5.6.8.6,1.4,0,1,.5,1.7.8,2.5.3.8.6,1.6,1.1,2.4.3.4,0,1,.2,1.5,0,.2-1.1,1.1-1.6,1.2,0,0-.2,0-.3,0-.6-.2-1.5-.3-1.7-.8-.3-.8-.7-1.5-1-2.2Z"/>
  <path d="M374.1,354.7c0-1-.2-2-.3-2.9,0-.4.2-.8-.4-1.1-.3-.2.3-.6.3-.9-.2-.9-.1-1.8-.3-2.7-.1-.9-.4-1.7-.6-2.6-.1-.9,0-1.8-.3-2.6-.3-.7.1-1.4,0-2.1-.2-.7-.3-1.5-.2-2.2.1-.5.3-1.1.2-1.6,0-.3-.4-.6-.4-1,0-.3.2-.7-.4-1,0,0,0-.2.1-.3.4-.4.3-.8,0-1.1-.3-.3-.3-.5-.3-.8,0-.7-.2-1.5-.2-2.3,0-.6.2-1.1.2-1.7,0-.6-.3-1.2,0-1.8.3-.6.2-1.1.2-1.6,0-.3.2-.7-.4-.9,0,0,0-.1,0-.2.8-.9-.4-1.7-.2-2.6.1-.9,0-1.8-.2-2.7,0-.2.1-.5-.3-.7-.2,0-.2-.3,0-.5.6-.7.2-1.4.2-2.1,0-.8-.3-1.6.2-2.4.2-.3.3-.8-.3-1.2-.3-.2,0-.6-.1-.9,0-.2-.4-.4-.4-.7,0-.2.2-.4.3-.6,0,0,0-.1,0-.2-.7-1.1,0-2.3-.2-3.5-.3-1.2-.3-2.3-.2-3.5,0-.6.2-1.3,1.3-1.8.5-.2,1.1-.3,1.4,0,.3.2.5.4.6.6.1.4.3.7.4,1.1.2.7.8,1.4.6,2.2,0,.2.2.5-.2.7,0,0-.1.1,0,.2.9,1,.4,2.1.5,3.1.1.9.8,1.7.6,2.6.7.5.6,1,.4,1.6-.6,1.8,0,3.5,0,5.3,0,1.8.2,3.6.3,5.4,0,.3.4.5.1.9-.2.4,0,.8,0,1.2,0,.4.2.7,0,1.1-.6,1.4,0,2.8,0,4.2,0,1.4,0,2.8.3,4.2.2.8.6,1.7.5,2.5,0,.4.3.7-.2,1.1-.2.1.3.4.4.7,0,.6.1,1.2.2,1.8,0,.8,0,1.6.2,2.4,0,.5.4,1,.5,1.4.1.5.1,1,.1,1.6,0,.7-.2,1.3-.2,2,0,.7.3,1.4.1,2-.4,1.3,0,2.4,0,3.6,0,1.2.1,2.4.4,3.6.1.7-.3,1.3-.2,2,0,.3-1.4.9-1.9.8,0,0-.2,0-.2-.1-.5-.6-1.3-1.1-1.4-1.9,0-1.1-.2-2.2-.3-3.3Z"/>
  <path d="M412,384c-1.2.8-2.5,1.5-3.7,2.3-.4.3-1.1.3-1.3,1.1-.1.4-.9,0-1.3.3-1.1.7-2.4,1.2-3.5,1.9-1.1.6-2.2,1.4-3.3,2-1.1.6-2.4.9-3.4,1.7-.9.7-1.9.6-2.8,1.1-.9.5-2,1.1-3,1.2-.8.1-1.6.2-2.3.6-.4.2-.7.7-1.2.8-.5.1-1.1,0-1.3.8,0,0-.3,0-.4,0-.6-.2-1.2,0-1.6.4-.3.4-.7.5-1.1.6-1.1.3-2.1.7-3.2.9-.8.2-1.7.1-2.5.2-.9.1-1.8.5-2.6.4-.8-.2-1.6-.1-2.4,0-.5,0-1-.2-1.3.4,0,0-.2,0-.3,0-1.3-.8-2.6.3-3.9,0-1.4-.2-2.8-.2-4.2-.5-.4,0-.7-.3-1.2,0-.2.1-.6,0-.7,0-.9-.8-2-.8-3-1.3-1.1-.5-2.4-.8-3.3-1.9-.4-.4-.9-.9-1.8-.8-.4,0-.8-.5-1.1-.8-.3-.2-.8-.2-1.1-.5-.3-.2-.3-.6-.5-.9,0,0-.1-.2-.2-.2-1.8-1-2.1-3-3.2-4.4-1.1-1.4-1.8-3-2.5-4.5-.4-.8-.7-1.7,0-2.8.3-.5.8-.8,1.3-.6.4.1.7.3.9.6.3.4.7.8,1.1,1.2.7.9,1.7,1.5,1.9,2.6,0,.3.5.5.2,1,0,0,0,.2,0,.2,1.4.8,1.7,2.3,2.7,3.3.8.9,2,1.1,2.7,2,.9-.1,1.4.3,1.8.8,1.6,1.7,4.1,2,6.3,2.5,2.3.5,4.7.5,7.2.5.4,0,.7-.4,1.2-.2.5.2,1.1,0,1.6-.1.5,0,1-.3,1.5-.2,2,.4,3.9-.4,5.8-.9,1.9-.4,3.8-1,5.6-1.8,1.1-.5,2.1-1.2,3.3-1.6.5-.1.9-.7,1.6-.3.2,0,.5-.5.8-.7.7-.4,1.5-.7,2.3-1,1.1-.5,2.1-.9,3.2-1.4.6-.3,1.2-.8,1.8-1.2.6-.4,1.3-.7,2-1,.9-.3,1.8-.6,2.6-.9.9-.4,1.6-1.1,2.6-1.3,1.7-.4,3.1-1.5,4.5-2.3,1.5-.8,2.9-1.8,4.1-2.9.7-.6,1.7-.8,2.4-1.4.3-.3,1.7.5,1.9,1,0,0,0,.2,0,.3-.4,1-.7,2.1-1.6,2.7-1.3.9-2.7,1.9-4,2.8Z"/>
  <path d="M412.5,342.8c-.7.4-1.5.7-2.2,1.1-.3.2-.7,0-.7.7,0,.3-.6-.1-.8,0-.7.4-1.4.7-2,1.1-.6.4-1.2,1-1.8,1.4-.6.4-1.5.5-1.9,1.1-.4.5-1.2.4-1.6.8-.5.4-1,.8-1.7.9-.5,0-1,0-1.3.4-.2.2-.3.6-.6.7-.3.1-.7,0-.6.7,0,0-.2,0-.3,0-.5-.2-.8,0-.9.4,0,.4-.3.4-.5.6-.6.3-1.1.7-1.7.9-.5.2-1,.2-1.5.4-.5.2-.8.7-1.4.6-.6,0-1,.2-1.4.4-.2.1-.6,0-.5.7,0,0,0,0-.1,0-1-.4-1.2.9-2,1-.8.1-1.5.6-2.2,1-.2,0-.5,0-.5.5,0,.2-.2.3-.3.2-.8-.3-1.2.3-1.8.4-.7.2-1.2.7-2,.5-.4,0-.8,0-.9.6,0,.3-.5.2-.7.3-.2.1-.3.4-.5.5-.2,0-.4,0-.6-.1,0,0-.1,0-.2,0-.7,1-2,.5-2.9,1-.9.5-2,.7-3,.9-.6,0-1.2,0-1.8-.9-.3-.5-.4-1-.3-1.4.1-.3.2-.5.4-.7.3-.2.5-.4.8-.6.6-.4,1-1,1.7-.9.2,0,.4-.3.7,0,0,0,.1,0,.2,0,.6-1,1.6-.8,2.4-1.2.7-.3,1.1-1.1,1.9-1.2.2-.7.6-.8,1.1-.8,1.6,0,2.8-1,4.2-1.5,1.4-.6,2.7-1.3,4.1-1.9.2-.1.3-.5.7-.4.4.1.6-.2.9-.4.3-.1.5-.4.8-.4,1.4,0,2.3-.9,3.3-1.4,1.1-.5,2.2-1,3.2-1.7.6-.4,1.1-1.1,1.8-1.3.3,0,.4-.6,1-.2.2.1.2-.4.4-.5.4-.3.9-.5,1.3-.7.6-.3,1.3-.6,1.8-1,.4-.2.6-.7,1-.9.4-.3.8-.5,1.2-.6.5-.2,1.1-.3,1.7-.5.5-.2,1-.8,1.6-.8,1.2,0,2-.7,3-1.2,1-.4,1.9-.8,2.8-1.4.5-.3,1.2,0,1.7-.3.2-.1,1.2,1.1,1.3,1.6,0,0,0,.2,0,.3-.3.7-.5,1.5-1.1,1.8-.9.3-1.7.8-2.5,1.2Z"/>
  <path d="M425.3,357.7c.7,0,1.3-.1,2-.2h.6c.3,0,.5,0,.8,0,.5,0,1.1.2,1.5.4.7.4,1.1,1.1,1.9,1.5.2,0,.3.5.3.8,0,.3,0,.5,0,.7.5,1.1.9,2.2,1.3,3.4.4,1.1,1,2.1,1.5,3.2.4,1.1.5,2.3,1.1,3.3.5.9.3,1.8.6,2.7.4.9.7,1.9.7,2.9,0,.7,0,1.4.2,2.1.2.4.5.7.6,1.2,0,.4-.1,1,.6,1.2,0,0,0,.2,0,.4-.3.5-.2,1.1.1,1.5.3.3.4.7.4,1,.2,1,.3,2,.4,3,0,.7-.1,1.5-.1,2.3,0,.8.4,1.6.1,2.3-.1.3-.2.8-.2,1.2v.6c0,.2,0,.4-.1.7-.1.7-.6,1.2-.3,2.1,0,0-.1.3-.2.4-.7.4-1.2.8-1.8,1.2-.9.6-2.2,1-3.4.5-.2-.1-.5-.2-.7-.4-.2-.1-.5-.3-.6-.4-.3-.2-.6-.4-.9-.6-.5-.4-1.1-.7-1.6-1.1-.3-.2-.4-.6-1-.5-.2,0-.5-.2-.5-.4-.3-1.1-1.2-1.5-1.8-2.3-.6-.9-1.6-1.5-1.9-2.6-.1-.5-.4-1-1.2-1-.4,0-.5-.6-.8-.8-.2-.2-.6-.3-.8-.5-.2-.2-.2-.5-.2-.8,0,0,0-.2-.2-.2-1.5-.7-1.7-2.4-2.8-3.3-1.1-.9-2.1-2-3.1-2.9-.6-.5-1.1-1.1-.9-2.4,0-.6.4-1,.9-1.1.4,0,.7,0,1,0,.5.2.9.4,1.4.7.5.2,1,.4,1.4.7.5.2.9.6,1.2,1,.2.3.7.3.5.9,0,0,0,.2.1.2,1.5.5,2.1,1.9,3,2.9.8.9,2,1.3,2.5,2.4.9,0,1.3.7,1.5,1.3.9,2.1,2.8,3.4,4.3,4.9.3.3.7.6,1,.9l.5.4c.2.1.3.2.5.3h.1c0,0,0,.1,0,.1,0,0,0,0,.1,0,0,0,.2,0,.3,0,0,0,.1,0,.2-.1,0,0-.3-.3,0-.2.1,0,.1,0,.1-.1,0-.2,0-.4,0-.6,0-.3-.2-.8,0-1.2.5-1.8,0-3.6-.2-5.4-.2-1.8-.4-3.5-.9-5.3-.3-1-.9-2-1-3.1,0-.5-.5-.9,0-1.4.1-.2-.4-.5-.5-.8-.2-.7-.4-1.4-.6-2.1-.3-1-.5-2-.9-3-.2-.6-.6-1.1-.9-1.7-.3-.6-.5-1.2-.6-1.9-.2-.8-.3-1.7-.5-2.5-.2-.8-.9-1.6-.9-2.4.1-.3,0-.6-.2-.7,0,0-.1,0-.2,0h-.3s-1.1.1-1.1.1c-1.5,0-2.9.3-4.3.8-.8.3-1.6,0-2.4.3-.3.1-1.4-1.1-1.4-1.6,0-.1,0-.2,0-.3.6-.7,1.2-1.7,2.2-1.9,1.5-.3,3-.7,4.5-.9Z"/>
  <path d="M424.8,351.7c-.1-.4-.2-.8-.4-1.1,0-.1.1-.4-.4-.3-.3,0,.3-.3.2-.4-.2-.3-.2-.7-.4-1-.2-.3-.5-.6-.7-.9-.2-.3,0-.8-.4-1-.4-.2,0-.6-.2-.8-.2-.2-.4-.5-.3-.9,0-.3.2-.5,0-.7-.1-.1-.5-.1-.5-.3,0-.1.2-.4-.4-.3,0,0,0,0,.1-.1.3-.3.3-.4,0-.5-.3,0-.3-.1-.3-.2-.1-.3-.2-.6-.3-.9,0-.2.1-.5.1-.7,0-.2-.3-.3-.1-.5.2-.2.1-.4,0-.5,0,0,.2-.3-.3.1,0,0,0,0,0,0,.3-.3.2-.3,0-.2-.1,0-.3.3-.2.2,0,0,0-.1,0-.1,0,0,0,0-.1,0,0,0,0-.2,0,.3,0,.2,0,.2,0,0-.2-.6-.5-.2-.7-.2-.3,0-.6.3-1-.1-.2-.2-.4-.2-.4.4,0,.3-.2,0-.3.1,0,0-.1.4-.2.4,0,0-.2-.2-.3-.3,0,0,0,0,0,0-.3.8-.9,0-1.3.3-.4.3-.8.3-1.3.4-.3,0-.6,0-1.1-1.1-.2-.5-.4-1-.4-1.3,0-.3,0-.5.1-.6.1-.1.2-.3.3-.4.2-.3.4-.9.8-.7.1,0,.2-.3.4.2,0,0,0,0,0,0,.2-.9.8-.5,1.2-.6.4-.1.6-.8,1-.6,0-.7.3-.6.6-.5.4.3.8.2,1.2.2l.6-.2c0,0,.3,0,.4,0,.2,0,.3,0,.5,0,.5,0,.9,0,1.3.2.8.2,1.6.7,2.1,1.4.1.2.5.1.5.5,0,.2,0,.3.1.4,0,0,.2.2.2.3,0,.2.3.3.2.5-.3.9.2,1.4.3,1.9.1.6.2,1.1.6,1.6.2.3.6.5.6.9,0,.2.4.2-.2.5-.1,0,.3,0,.4.2.1.2.2.4.2.7.1.3.2.6.3.9,0,.2.4.3.5.5.1.2.2.4.2.6,0,.3-.1.6,0,.9,0,.3.4.5.2.8-.3.6,0,1,.2,1.5,0,.5.2,1,.5,1.4.2.2-.2.6-.2.9,0,.1-1.3.7-1.8.8,0,0-.2,0-.2,0-.5-.1-1.3-.1-1.3-.4,0-.5-.3-.9-.4-1.3Z"/>
  <path d="M192.1,451.5c-.6-3-1.1-6-1.9-9-.3-1.1,0-2.3-1.3-3.3-.6-.5.4-1.8.1-2.8-.7-2.8-1.1-5.6-1.8-8.4-.7-2.7-1.7-5.3-2.4-8-.7-2.7-.7-5.6-1.9-8-1-2.1-.5-4.4-1.2-6.5-.7-2.2-1.4-4.5-1.4-6.9,0-1.7,0-3.4-.5-5-.3-1-1.2-1.8-1.4-2.9-.2-1,.1-2.3-1.3-2.9-.1,0,0-.6.1-.8.6-1.3.2-2.6-.5-3.4-.7-.8-.8-1.6-1-2.4-.5-2.3-1.1-4.6-1.4-6.9-.3-1.7-.2-3.5-.4-5.3-.2-1.8-1.2-3.6-.9-5.4.3-1.8,0-3.4-.4-5-.2-.9.2-2.1-1.2-2.6-.1,0-.2-.4-.1-.6,1.1-3-1.6-5.1-1.7-7.9-.1-2.8-1-5.6-1.6-8.4-.2-.7,0-1.6-1-2.1-.4-.2-.5-1-.4-1.4.8-2.3-.3-4.4-.5-6.5-.2-2.5-1.2-4.8-.7-7.4.2-1.1.2-2.6-1.2-3.6-.6-.5-.3-1.8-.6-2.6-.2-.7-.9-1.3-1-2.1-.1-.6.2-1.3.3-2,0-.2,0-.4-.1-.6-.9-1.7-1.1-3.5-1.2-5.3,0-.9,0-1.8,0-2.7,0-.5,0-.9-.1-1.4v-.8c-.2-.3-.2-.6-.3-.8-.8-4.5.2-9.2,2.7-13.3,1.3-2.3,4-4.2,6.6-3.1,1.2.5,1.6,1.5,1.4,2.5,0,.3-.2.7-.3,1.1-.1.3-.2.6-.4.9-.5.8-.9,1.7-1.1,2.6-.3.9-.3,1.9-.3,2.9,0,1,0,1.9-.5,2.8-.2.6.3,1.3-.7,1.8-.1,0-.2.3-.1.5.2.3.4.6.6,1,0,.2.2.3.2.5,0,.2.1.4.2.6.3.8.4,1.6.5,2.4.2,1.6.2,3.3.6,4.9.5,2.7,2.3,5.2,2.2,8,1.5,1.3,1.6,3.1,1.5,4.7-.3,5.6,1.5,10.9,2.4,16.4.9,5.5,2.1,11,3.1,16.5.2.9,1,1.6.7,2.8-.3,1.1.4,2.4.6,3.6.2,1.1.7,2.2.6,3.3-.4,4.5,1.3,8.7,2,13.1.8,4.3,1.5,8.6,2.7,12.8.7,2.6,2,5,2.3,7.7.1,1.1,1,2.2.1,3.5-.3.4.8,1.2,1,2,.5,1.8.8,3.6,1.2,5.4.5,2.5,1,5,1.6,7.5.4,1.5,1.2,2.9,1.6,4.4.5,1.6.8,3.2,1,4.8.3,2,.3,4.1.6,6.2.3,2.1,1.3,4.2,1.2,6.3-.2,3.9,1,7.5,1.7,11.3.6,3.7,1.3,7.5,2.3,11.1.5,2.1,0,4.2.3,6.2.2,1-2.5,2.8-3.5,2.6-.2,0-.4-.2-.5-.3-1.3-1.8-3.1-3.4-3.4-5.7-.5-3.4-1.3-6.8-2-10.2Z"/>
  <path d="M238.4,249.8c.5-.7,1-1.3,1.4-2,.2-.3.5-.4.3-.9-.1-.3.6-.1.7-.4.4-.7.9-1.2,1.3-1.9.4-.6.6-1.4,1-2,.4-.6,1-1.1,1.2-1.8.1-.7.8-.8,1.1-1.3.3-.6.6-1.1,1.1-1.5.4-.3.8-.5,1-.9.1-.3,0-.7.2-.9.2-.2.6-.3.2-.9,0,0,.1,0,.2,0,.5,0,.7-.3.6-.7,0-.4,0-.5.2-.7.3-.5.7-1,1.1-1.5.3-.3.8-.6,1.1-.9.3-.4.4-.9.9-1.1.5-.2.7-.5,1-.9.1-.2.6-.3.2-.8,0,0,0-.1,0-.1,1.1,0,.6-1.3,1.2-1.8.6-.5.9-1.2,1.3-1.8.1-.2.4-.2.1-.6,0-.1,0-.3.2-.3.8,0,.9-.8,1.3-1.2.5-.5.6-1.2,1.4-1.4.3-.1.6-.4.4-1-.1-.3.3-.4.4-.6,0-.2,0-.5,0-.7,0-.1.4-.1.6-.2,0,0,0,0,0-.1,0-1.2,1.3-1.4,1.7-2.3.4-.9,1-1.6,1.7-2.4.4-.4.8-.7,2-.4.5.2,1,.5,1.1.8.1.3.2.6.1.7,0,.3-.2.6-.3.9-.2.6-.1,1.4-.7,1.8-.2.1,0,.5-.6.3,0,0-.2,0-.1,0,.2,1.1-.8,1.6-1.2,2.3-.4.6-.3,1.6-.9,2,.3.7,0,1-.5,1.3-1.4.8-1.9,2.3-2.8,3.4-.9,1.2-1.7,2.4-2.6,3.6-.2.2,0,.6-.4.7-.4,0-.4.5-.6.7-.2.2-.2.6-.5.7-1.2.6-1.6,1.7-2.3,2.6-.7.9-1.5,1.8-2,2.8-.3.6-.5,1.4-1,1.9-.2.2-.1.7-.8.6-.2,0,0,.5,0,.6-.2.4-.6.8-.8,1.2-.4.5-.8,1.1-1.2,1.7-.2.4-.2.8-.4,1.2-.2.4-.5.7-.8,1.1-.4.4-.9.7-1.2,1.1-.4.4-.5,1.1-1,1.3-1,.5-1.4,1.5-2,2.3-.6.8-1.2,1.6-1.7,2.4-.3.5-1,.6-1.3,1.1-.1.2-1.5-.4-1.9-.8,0,0-.1-.2-.1-.2,0-.7-.4-1.6,0-2,.6-.7,1.1-1.5,1.6-2.2Z"/>
  <path d="M233.8,254.7c-.8,0-1.4-.3-2.1-.3-.3,0-.5-.3-.8.2-.2.2-.3-.4-.6-.4-.7,0-1.3-.2-2-.3-.6,0-1.3,0-2,0-.6,0-1.2-.4-1.9-.2-.6.2-1-.4-1.5-.3-.6,0-1.1,0-1.6-.3-.4-.2-.7-.5-1.1-.5-.2,0-.5.3-.8.2-.2,0-.5-.4-.8.2,0,0-.1,0-.2-.2-.2-.4-.5-.5-.8-.2-.3.2-.4.2-.6.2-.5,0-1.1-.1-1.6-.3-.4-.1-.8-.4-1.1-.5-.4-.1-.9,0-1.2-.3-.3-.4-.7-.4-1.1-.5-.2,0-.4-.4-.7.2,0,0-.1,0-.1,0-.5-.9-1.3,0-1.9-.2-.6-.3-1.3-.3-2-.3-.2,0-.3-.2-.6.2,0,.2-.3.1-.3,0-.4-.7-1-.4-1.4-.6-.5-.2-1.2,0-1.6-.6-.2-.2-.5-.4-.9.1-.2.2-.4,0-.6,0-.2,0-.4.3-.6.2-.1,0-.2-.3-.4-.4,0,0,0,0-.1,0-.9.5-1.6-.5-2.5-.4-.9,0-1.7-.2-2.5-.4-.5-.1-.9-.4-1-1.6,0-.5,0-1.1.3-1.4.2-.2.4-.4.6-.4.3,0,.6-.1.8-.2.6-.1,1.2-.5,1.7-.2.2.1.4-.2.5.4,0,0,0,.1.1,0,.9-.7,1.5,0,2.3,0,.6,0,1.4-.5,2-.1.5-.6.9-.4,1.2-.1,1.2.9,2.5.6,3.7.9,1.3.3,2.6.4,3.8.6.2,0,.5-.3.7,0,.2.3.5.1.8.2.3,0,.5,0,.8.1.9.8,2,.6,3,.8,1,.2,2,.5,3,.4.6,0,1.3-.2,1.9,0,.3,0,.6-.2.7.4,0,.2.4-.2.5-.2.4,0,.8.1,1.3.2.6,0,1.2.2,1.7.3.4,0,.7-.2,1.1-.2.4,0,.8,0,1.1.2.5.1.9.4,1.4.6.5.1,1,0,1.5.3.8.6,1.7.5,2.5.7.8.2,1.6.3,2.3.2.4,0,.8.4,1.1.3.1,0,.8,1.3.9,1.8,0,0,0,.2,0,.3-.4.6-.8,1.4-1.5,1.4-1,0-1.9,0-2.8-.2Z"/>
  <g>
    <path d="M371.8,481.6l-172.1-1.7c-2.8,0-5.1-2.3-5.1-5.1v-1.9c0-2.8,2.3-5.1,5.1-5.1h166.5c2.8,0,5.1,2.3,5.1,5.1v1.9c0,2.8,3.3,6.9.4,6.9Z" fill="#00b4e9"/>
    <path d="M350,469.5c-6.1,0-12.2,0-18.2,0-2.3,0-4.6-.2-6.9.3-1.2.3-3.4-.4-5.4-.3-5.7,0-11.3,0-17,0-5.5.1-11,.2-16.5.3-5.5,0-11.1-.2-16.4,0-4.6.3-8.7-.2-13-.1-4.6.1-9.4.2-13.9,0-3.3-.2-6.6-.4-9.8-.3-2,0-4,.4-6.2.4-2.1,0-4.4-.3-6.2.3-.2,0-1.1,0-1.6-.1-2.2-.4-5-.4-6.8-.1-1.8.3-3.4.2-5.1.3h-7c-1.2,0-2.2.8-2.5,1.9,0,.1,0,.2,0,.3v.2s0,0,0,.2v1.3s0,.3,0,.3v.2s0,0,0,0c0,.1,0,.2,0,.3,0,.2,0,.4.1.7.3.9,1.1,1.6,2,1.8.1,0,.3,0,.4,0h.7c.5,0,.9,0,1.4,0,.9,0,1.9,0,2.8,0,1.8,0,3.7,0,5.3.2,3.4.3,6.6.4,9.9.4,1.9,0,4.1.3,5.6-.3.1,0,.8,0,1.2,0,5.3.9,10.6-.2,16,.1,5.6.3,11.3.2,17,.2,1.5,0,3.1.2,4.5-.2.5-.2,2.1-.2,2.8,0,4.2.7,8.6.3,12.9.5,4.9.2,9.8,0,14.7.5,2.1.2,4.9.4,7.5-.2,1.2-.3,3.5,0,5.4,0,1.5,0,2.9-.3,4.4-.3,1.2,0,2.5.3,3.8.4.4,0,.8,0,1.2,0,7.2-.6,14.3.4,21.5.3,7.2-.1,14.6,0,21.9.2,4,0,8.1.3,10.9,1.5,1.2.5,1.2,1.1-.5,1.4-1.3.2-2.7.4-4.1.5-2.3,0-4.6.2-6.8.3-4.6.1-9.2.6-14.1.3-1.5-.1-3.2.2-4.5-.3-.2,0-.8-.1-1.1,0-6.4.7-13.1.1-19.6.1-5.5,0-10.9.6-16.5.2-3.1.6-6.7.5-9.8.2-11-.8-22-.4-32.9-.6-11.1-.2-22.3-.2-33.4-.4-1.9,0-3.5.3-5.8,0-2.1-.3-4.8-.1-7.2-.1-2.2,0-4.6,0-6.7,0-2.2-.2-4.4-.3-6.5-.4h-1.6c-.6,0-1.4-.2-2.1-.4-1.4-.5-2.7-1.3-3.6-2.5-.9-1.2-1.4-2.7-1.4-4.1v-1.6c0-.2,0-.7,0-1,0-.4.1-.7.2-1.1.4-1.4,1.2-2.7,2.4-3.7,1.2-.9,2.7-1.5,4.1-1.5,8.8,0,17.5.1,26.2,0,5.3,0,10.6-.4,15.9-.3,2.3,0,4.7-.3,6.9.3.6.2,2.8-.3,4.2-.3,3.6,0,7.3,0,10.9,0s10.1,0,15.2,0c3.1,0,6.1-.3,9.2-.3,3.2,0,6.5,0,9.7,0,4.1,0,8.2.3,12.3.3,4.2,0,8.7-.2,12.7,0,7.6.5,15.1.3,22.6.3,3.7,0,7.5,0,11.2,0h5.6s2.8,0,2.8,0h.7s.4,0,.4,0h.5c.6,0,1.3.2,1.9.4,2.8.9,4.6,3.7,4.5,6.4,0,.6,0,1,0,1.6,0,.2,0,.6,0,.7,0,.2,0,.3,0,.5,0,.8.4,1.7.8,2.7.2.5.3,1,.3,1.7,0,.2,0,.3,0,.5,0,.2,0,.3-.1.5,0,.3-.3.8-.7,1-.7.4-1.1,0-1.3-.2-.2-.2-.2-.4,0-.5,0,0,.1-.1.2-.2,0,0,.1-.1,0-.1,0,0,0,0,0,0,0,0,0,0,0,0,0,0,0,0,0-.1,0-.1,0-.3-.2-.5-.2-.4-.4-.8-.6-1.2-.5-.9-1-1.8-1.4-3,0-.3-.2-.6-.2-1v-.5c0,0,0-.4,0-.4,0-.3,0-.5,0-.8,0-.2,0-.6,0-.7,0-.7-.4-1.3-.8-1.9-.3-.4-.8-.8-1.3-1-.3-.1-.5-.2-.8-.2-.1,0-.3,0-.4,0h-.6s-5.2,0-5.2,0h-10.3Z" fill="#00b4e9"/>
  </g>
  <g>
    <g>
      <path d="M384.4,455c-13.9,0-25.2,11.3-25.2,25.2h50.5c0-13.9-11.3-25.2-25.2-25.2Z" fill="#00b4e9"/>
      <path d="M396.6,456c.3.1.5.2.8.4l.7.4,1.4.9,1.4,1c.5.3.9.7,1.3,1.1.6.6,1.1,1.3,2.1,1.6.5.2.6,1.2,1.1,1.7,1.3,1.6,2.5,3.4,3.4,5.3.2.5.5.9.7,1.4l.6,1.4c.5.9.7,1.9,1,2.9.2.5.2,1,.3,1.5l.2,1.7c0,.9,0,1.7.1,2.6,0,.4,0,.9.1,1.3v.7c0,0,.1.3.1.3v.2s0,0,0,0h0c-1.3.2-2.8.1-4.2,0h-1c0,0-.6-.1-.6-.1-.4,0-.7,0-1.1,0-1.6.1-3.3.2-4.8,0-1.1-.2-2.3-.4-3.4-.3-.7,0-1.4.4-2.1.4-.7,0-1.5-.3-2.2.3,0,0-.4,0-.5-.1-.8-.4-1.7-.4-2.4-.1-.6.3-1.2.2-1.8.3-1.6,0-3.2,0-4.8,0-1.2,0-2.4-.3-3.6-.3-1.3,0-2.6.2-3.8,0-1.2-.3-2.3-.3-3.4-.3-.6,0-1.4-.3-1.9.3,0,0-.3,0-.4,0-1.9-.8-3.7.3-5.6,0-.5,0-1,0-1.5,0h-.7s-1.3,0-1.3,0h-2.7c-.4,0-.9,0-1.3,0v-1.3c0-1,.3-2,0-2.8,0-.2-.1-.5,0-.9,0-.2,0-.3,0-.5,0-.2,0-.2.1-.3.4-.7.6-1.5.8-2.3.2-.8.3-1.6.6-2.4.4-.8.6-1.7,1-2.6.4-.8.8-1.7,1.5-2.3.6-.6,1.2-1.4,1.3-2.5,0-.5.8-1.1,1.2-1.7.3-.5.5-1,.9-1.5.3-.3.8-.6,1.2-.8.1,0,.3-.2.3-.3.4-.6.8-1.1,1.4-1.5.5-.4,1.1-.8,1.7-1.2.6-.4,1.2-.6,1.8-.9.3-.2.6-.3.9-.5.3-.2.6-.3.9-.5,2.3-1.4,5.1-2.2,7.8-2.5,1.5-.2,3.1,0,4.1,1,.4.5.4,1-.1,1.4-.4.3-.9.5-1.4.6-.8,0-1.5.4-2.2.6-.7.2-1.4.6-2.1.9-.7.3-1.4.6-2.2.7-.5,0-.9.5-1.5.3,0,0-.3,0-.3,0-1.5,1.5-3.5,2.3-5.1,3.7-.6.6-1.2,1.3-1.7,2.1-.2.4-.5.7-.8,1.1-.3.3-.5.7-.8,1-.1,1.1-.7,2-1.4,2.7-.5.7-1,1.4-1.4,2.2-.2.4-.3.8-.5,1.2-.2.4-.3.8-.4,1.2-.2.8-.4,1.7-.5,2.6v1.1c-.2,0-.2.2-.2.2,0,0,0,.2,0,.2h.3s1.9,0,1.9,0h5.8c.7,0,1.2-.4,2,0,.7.3,1.7,0,2.5,0s1.6-.1,2.3,0c3,.7,6.1.3,9.1.3,3,0,6,.1,9,0,1.8,0,3.7-.4,5.5-.3.8,0,1.6-.3,2.4.3.2.2,1-.3,1.5-.3.6,0,1.3,0,1.9,0h1.2s.2,0,.2,0h.1s0,0,0,0v-.2c0-.1,0,0,0-.4,0-.5-.2-.9-.4-1.4-.1-.5-.4-.9-.5-1.4-.3-1-.7-1.9-.9-2.9-.4-1.2-.8-2.4-1.4-3.6-.2-.3-.3-.6-.5-.9l-.6-.8c-.2-.3-.4-.5-.6-.8-.2-.3-.4-.5-.6-.8-.6-1.1-1.5-1.9-2.4-2.7l-1.5-1.1c-.5-.4-1-.6-1.5-1-2-1.2-4.3-2.3-6.7-2.6-.7-.2-1.3-.3-1.9-.5-.6-.2-1.3-.4-1.9-.4-.6,0-1.5-1.6-1.2-2,0,0,.2-.2.3-.2.7-.2,1.4-.5,2.2-.7.8-.2,1.6-.2,2.4,0,2.5.6,5,1.3,7.3,2.5Z" fill="#00b4e9"/>
    </g>
    <g>
      <path d="M197.7,455c-13.9,0-25.2,11.3-25.2,25.2h50.5c0-13.9-11.3-25.2-25.2-25.2Z" fill="#00b4e9"/>
      <path d="M210,456c.3.1.5.2.8.4l.7.4,1.4.9,1.4,1c.5.3.9.7,1.3,1.1.6.6,1.1,1.3,2.1,1.6.5.2.6,1.2,1.1,1.7,1.3,1.6,2.5,3.4,3.4,5.3.2.5.5.9.7,1.4l.6,1.4c.5.9.7,1.9,1,2.9.2.5.2,1,.3,1.5l.2,1.7c0,.9,0,1.7.1,2.6,0,.4,0,.9.1,1.3v.7c0,0,.1.3.1.3v.2s0,0,0,0h0c-1.3.2-2.8.1-4.2,0h-1c0,0-.6-.1-.6-.1-.4,0-.7,0-1.1,0-1.6.1-3.3.2-4.8,0-1.1-.2-2.3-.4-3.4-.3-.7,0-1.4.4-2.1.4-.7,0-1.5-.3-2.2.3,0,0-.4,0-.5-.1-.8-.4-1.7-.4-2.4-.1-.6.3-1.2.2-1.8.3-1.6,0-3.2,0-4.8,0-1.2,0-2.4-.3-3.6-.3-1.3,0-2.6.2-3.8,0-1.2-.3-2.3-.3-3.4-.3-.6,0-1.4-.3-1.9.3,0,0-.3,0-.4,0-1.9-.8-3.7.3-5.6,0-.5,0-1,0-1.5,0h-.7s-1.3,0-1.3,0h-2.7c-.4,0-.9,0-1.3,0v-1.3c0-1,.3-2,0-2.8,0-.2-.1-.5,0-.9,0-.2,0-.3,0-.5,0-.2,0-.2.1-.3.4-.7.6-1.5.8-2.3.2-.8.3-1.6.6-2.4.4-.8.6-1.7,1-2.6.4-.8.8-1.7,1.5-2.3.6-.6,1.2-1.4,1.3-2.5,0-.5.8-1.1,1.2-1.7.3-.5.5-1,.9-1.5.3-.3.8-.6,1.2-.8.1,0,.3-.2.3-.3.4-.6.8-1.1,1.4-1.5.5-.4,1.1-.8,1.7-1.2.6-.4,1.2-.6,1.8-.9.3-.2.6-.3.9-.5.3-.2.6-.3.9-.5,2.3-1.4,5.1-2.2,7.8-2.5,1.5-.2,3.1,0,4.1,1,.4.5.4,1-.1,1.4-.4.3-.9.5-1.4.6-.8,0-1.5.4-2.2.6-.7.2-1.4.6-2.1.9-.7.3-1.4.6-2.2.7-.5,0-.9.5-1.5.3,0,0-.3,0-.3,0-1.5,1.5-3.5,2.3-5.1,3.7-.6.6-1.2,1.3-1.7,2.1-.2.4-.5.7-.8,1.1-.3.3-.5.7-.8,1-.1,1.1-.7,2-1.4,2.7-.5.7-1,1.4-1.4,2.2-.2.4-.3.8-.5,1.2-.2.4-.3.8-.4,1.2-.2.8-.4,1.7-.5,2.6v1.1c-.2,0-.2.2-.2.2,0,0,0,.2,0,.2h.3s1.9,0,1.9,0h5.8c.7,0,1.2-.4,2,0,.7.3,1.7,0,2.5,0s1.6-.1,2.3,0c3,.7,6.1.3,9.1.3,3,0,6,.1,9,0,1.8,0,3.7-.4,5.5-.3.8,0,1.6-.3,2.4.3.2.2,1-.3,1.5-.3.6,0,1.3,0,1.9,0h1.2s.2,0,.2,0h.1s0,0,0,0v-.2c0-.1,0,0,0-.4,0-.5-.2-.9-.4-1.4-.1-.5-.4-.9-.5-1.4-.3-1-.7-1.9-.9-2.9-.4-1.2-.8-2.4-1.4-3.6-.2-.3-.3-.6-.5-.9l-.6-.8c-.2-.3-.4-.5-.6-.8-.2-.3-.4-.5-.6-.8-.6-1.1-1.5-1.9-2.4-2.7l-1.5-1.1c-.5-.4-1-.6-1.5-1-2-1.2-4.3-2.3-6.7-2.6-.7-.2-1.3-.3-1.9-.5-.6-.2-1.3-.4-1.9-.4-.6,0-1.5-1.6-1.2-2,0,0,.2-.2.3-.2.7-.2,1.4-.5,2.2-.7.8-.2,1.6-.2,2.4,0,2.5.6,5,1.3,7.3,2.5Z" fill="#00b4e9"/>
    </g>
  </g>
  <path d="M279.4,437c0-2.5,0-4.9,0-7.4,0-.9.3-1.8-.2-2.8-.3-.5.4-1.3.4-2.2,0-2.3.2-4.5.3-6.8v-3.3c.1-1.1.2-2.2.3-3.3.2-2.2.8-4.4.8-6.6,0-1.9.8-3.4.9-5.2.2-1.8.4-3.8,1-5.5.4-1.3.9-2.5,1-3.8,0-.8,0-1.6.1-2.5.2-.8.6-1.7.2-2.5,0,0,.2-.4.3-.6.6-.8.8-1.9.7-2.7-.1-.8,0-1.4.2-2.1.4-1.8.8-3.7,1.3-5.4.4-1.3.9-2.6,1.3-4,.4-1.4.5-3,1.1-4.2.6-1.2.9-2.5,1.2-3.8.2-.7.7-1.5.2-2.3,0,0,0-.3.1-.5,1.3-1.9.8-4.2,1.5-6.2.8-2.1,1.2-4.4,1.7-6.6.1-.6.5-1.2.2-1.8-.1-.2,0-.8.2-1.1,1-1.5,1.1-3.3,1.6-4.9.6-1.9.8-3.9,1.8-5.6.4-.8.8-1.8.6-3-.1-.5.4-1.4.6-2.1.1-.6,0-1.2.2-1.8.1-.5.5-.9.8-1.3,0-.1.1-.3.2-.5.3-3,2.1-5.4,3.1-8.2,1-2.8,2.3-5.5,3.7-8.1.7-1.4,1.7-2.8,3.2-3.3.7-.2,1.2,0,1.1.8,0,.6,0,1.2-.3,1.7-.3.8-.6,1.7-.9,2.5-.6,1.7-.9,3.6-1.9,5.2-.3.5-.3,1.3-1,1.5,0,0-.2.2-.2.4-.2,2.6-1.7,4.9-2.4,7.3-.7,2.1-.7,4.3-1.6,6.3.3,1.3-.2,2.7-.7,3.8-1.8,4-2.4,8.4-3.5,12.6-1.2,4.3-2.2,8.6-3.3,12.9-.2.7,0,1.4-.5,2.2-.5.7-.5,1.8-.8,2.8-.2.9-.3,1.8-.7,2.6-1.5,3.2-1.9,6.7-2.8,10.1-.9,3.4-1.7,6.7-2.2,10.1-.3,2.1-.4,4.2-.9,6.2-.2.9,0,1.9-.8,2.6-.2.2,0,1.1,0,1.7-.2,1.4-.5,2.8-.7,4.3-.3,2-.6,3.9-.9,5.9-.1,1.2,0,2.4,0,3.6,0,1.3-.2,2.5-.4,3.8-.2,1.6-.5,3.2-.7,4.8-.1,1.7,0,3.5-.3,5-.6,3-.4,6-.4,8.9,0,2.9,0,5.9.6,8.8.3,1.6,0,3.2.3,4.8.2.7-1.1,2-1.6,1.9-.1,0-.2-.1-.3-.3-.8-1.5-1.8-2.9-2-4.8-.3-2.8-.5-5.6-.6-8.4Z"/>
  <path d="M302.3,463.9c-.4.5-.8.9-1.2,1.4l-1.3,1.4c-.4.4-1,.5-1.2,1.3-.2.4-1,.1-1.5.3-1.3.6-2.6.6-3.7.8-1.1.2-2.2.5-3.4.6-1.1.1-2.3-.2-3.3.2-.9.3-1.7-.2-2.6-.1-.9.1-1.9.2-2.8-.1-.6-.2-1.3-.5-1.9-.4-.4,0-.8.3-1.2.3-.4,0-.9-.3-1.2.3,0,0-.2,0-.3-.2-.4-.4-1-.4-1.3-.2-.4.3-.7.2-1,.2-.9,0-1.8,0-2.8-.1-.7,0-1.4-.4-2-.5-.7,0-1.5.1-2.1-.2-.3-.2-.6-.3-1-.3-.3,0-.5,0-1.2-.1-.7,0-1.2-.4-2,0,0,0-.3,0-.4-.1-.4-.5-.8-.7-1.3-1.1-.5-.3-.9-.7-1.3-1.1-.2-.4-.4-.9-.4-1.3,0-.9.4-1.6.8-2.4.5-.7,1.2-1.5,2-2.1.2-.2.5-.3.7-.4.1,0,.2-.2.2-.5,0-.2.2-.4.4-.4,1,0,1.5-.8,2.3-1.2.9-.5,1.5-1.2,2.6-1.4.5,0,1-.3,1.1-1.1,0-.4.6-.4.9-.6.2-.2.3-.6.5-.8.2-.1.5,0,.8-.1,0,0,.2,0,.2-.1.9-1.3,2.6-1.3,3.7-2.2,1.2-.9,2.5-1.5,3.9-2.1.7-.3,1.6-.5,2.6.3.4.4.7.9.5,1.3-.1.3-.3.6-.5.8-.4.3-.7.6-1,.9-.7.6-1.3,1.4-2.2,1.6-.3,0-.4.5-.9.2,0,0-.2,0-.2,0-.7,1.3-2,1.5-3.1,2.2-.9.6-1.4,1.7-2.4,2.1-.1.9-.8,1.2-1.4,1.3-1.1.3-2,.9-2.9,1.5l-1.3,1-.7.5-.3.2c-.1,0-.3.2-.2.2-.2,0-.6.3-.4.6,0,.1.2.2.3.2,0,0,.3-.3.2,0,0,.1,0,.2.1.1.1,0,.5,0,.7,0,.4,0,.9,0,1.3,0,1.7.7,3.4.4,5.1.6,1.7.2,3.4.3,5.1.2,1,0,2.1-.3,3.1-.2.4,0,.9-.2,1.3.4.1.2.5-.3.8-.3.7,0,1.4,0,2.1,0,1,0,1.9,0,2.9,0,.6,0,1.2-.3,1.7-.4.6,0,1.2-.1,1.8-.1.7,0,1.6.1,2.2,0,.7,0,1.3-.5,1.8-.5,1,.1,1.9-1.3,2.9-2.3,1-1,1.9-2.1,2.6-3.3.4-.7,1.2-1,1.6-1.7.2-.3,1.7,0,2.1.4,0,0,.1.2.1.3,0,.9.2,2-.4,2.7-.9,1.1-1.7,2.3-2.6,3.3Z"/>
  <path d="M350,340.6c-1,2.1-2.1,4.2-3,6.3-.4.8-1,1.5-.9,2.5,0,.5-.9,1-1.2,1.7-.8,2-1.9,3.9-2.7,5.9-.8,2-1.4,4-2.2,5.9-.7,1.9-1.8,3.8-2.2,5.8-.4,1.7-1.3,3-1.8,4.6-.2.8-.5,1.7-.8,2.5-.3.8-.5,1.7-.9,2.5-.5,1.1-1.1,2.3-1.3,3.5-.1.8,0,1.6-.2,2.4-.2.7-.7,1.5-.2,2.4,0,0-.2.4-.3.5-.6.7-.8,1.7-.7,2.5.1.7,0,1.3-.1,1.9l-.5,2.6c-.1.9-.3,1.7-.4,2.6-.2,1.3-.7,2.5-1,3.8-.2,1.4-.1,2.9-.6,4.1-.5,1.2-.6,2.4-.7,3.7,0,.7-.4,1.5.1,2.2,0,0,0,.3,0,.4-1,1.9-.2,4-.5,6.1-.4,2.1-.4,4.3-.6,6.5,0,.6-.3,1.2.1,1.7.1.2.1.8,0,1.1-.8,1.5-.5,3.3-.7,4.9-.3,1.9-.1,3.8-.8,5.6-.3.8-.5,1.9,0,2.9.2.5-.1,1.4,0,2,0,.6.2,1.1.2,1.7,0,.5-.3.9-.5,1.4,0,.1,0,.3,0,.5.4,2.8-.7,5.4-.7,8.2,0,.7,0,1.3,0,1.9v2c0,1.4.1,2.8,0,4.3,0,.8-.2,1.7-.5,2.5-.3.8-.9,1.5-1.7,1.8-.7.3-1.1,0-1.2-.7,0-.5-.2-1-.1-1.5,0-.8,0-1.6-.1-2.4-.1-1.7-.8-3.4-.5-5.3,0-.6-.2-1.3.3-1.8,0,0,.1-.3.1-.4-.6-2.5.1-5,.3-7.5.1-2.1-.3-4.2,0-6.3-.5-1.2-.3-2.6,0-3.8,1-4.1.9-8.4,1.3-12.6.5-4.3.7-8.5,1.2-12.8,0-.7-.2-1.4.1-2.2.3-.8.2-1.8.4-2.8.1-.9,0-1.8.3-2.6,1-3.3,1.2-6.7,1.8-10,.7-3.3,1.4-6.6,2.1-9.9.2-1,.3-2,.5-3.1.2-1,.5-2,.8-3,.3-.8.3-1.8,1.1-2.5.2-.2,0-1.1.2-1.6.4-1.4.9-2.7,1.4-4,.6-1.9,1.5-3.6,2.1-5.5.4-1.1.6-2.3,1-3.4.4-1.2.9-2.3,1.5-3.4.7-1.4,1.5-2.8,2.2-4.2.7-1.5,1.2-3.1,2.1-4.4,1.7-2.4,2.7-5.1,4-7.7,1.3-2.6,2.6-5.1,3.8-7.8.7-1.5,1.8-2.6,2.5-4,.3-.7,2.1-.9,2.4-.4,0,0,0,.2,0,.4-.3,1.6-.3,3.2-1.1,4.8-1.2,2.3-2.4,4.7-3.5,7.1Z"/>
  <path d="M321.7,467.6c-.3,0-.6,0-.9.2-.1,0-.3-.2-.3.3,0,.3-.2-.3-.3-.3-.3.1-.6,0-.8.1-.3,0-.5.4-.8.4-.3,0-.6-.2-.8.2-.2.3-.5-.2-.7,0-.2.1-.5.3-.7,0-.2-.2-.4-.4-.5-.2,0,0-.2.4-.3.4-.1,0-.2-.3-.3.4,0,0,0,0,0-.1-.1-.4-.3-.4-.4,0,0,.3-.2.2-.2.3-.2,0-.5,0-.7,0-.2,0-.4-.3-.5-.3-.2,0-.4.2-.5,0-.2-.3-.3-.3-.5-.3,0,0-.2-.3-.3.4,0,0,0,0,0,0-.3-.8-.5.3-.8,0-.3-.2-.6,0-.9,0,0,0-.2-.2-.2.3,0,.2,0,.2-.1,0-.2-.6-.4-.2-.7-.3-.2-.1-.5.2-.7-.3-.1-.2-.2-.3-.4.3,0,.3-.2,0-.3,0,0,0-.1.3-.2.3,0,0-.1-.2-.2-.3,0,0,0,0,0,0-.4.7-.7-.2-1.1,0-.4.2-.7,0-1.1,0-.2,0-.4-.2-.5-1.4,0-.5,0-1.1,0-1.4,0-.2.1-.5.2-.5.1,0,.2-.2.3-.3.2-.2.5-.7.7-.4,0,0,.2-.2.2.3,0,0,0,.1,0,0,.3-.8.6-.3.9-.3.3,0,.5-.7.8-.4.1-.6.3-.5.5-.3.5.7,1.1.2,1.6.3.5,0,1.1,0,1.6,0,0,0,.2-.4.3,0,.1.3.2,0,.3,0,.1,0,.2-.1.3,0,.5.6.9.2,1.3.3.4,0,.8,0,1.2-.1.2-.1.5-.5.7-.4.1,0,.2-.3.4.3,0,.2.1-.3.2-.3.2,0,.3,0,.5,0,.2,0,.5,0,.7,0,.1,0,.3-.3.4-.4.1,0,.3,0,.5,0,.2,0,.4.2.6.3.2,0,.4-.3.6,0,.4.5.8.2,1.1.2.4,0,.7,0,1.1-.2.2-.1.5.4.7.3,0,0,.5,1.4.5,1.9,0,0,0,.2,0,.2-.1.5-.2,1.2-.4,1.2-.4,0-.7,0-1,.1Z"/>
  <g>
    <g>
      <ellipse cx="199.5" cy="484.4" rx="17.4" ry="19.2" transform="translate(-174 117) rotate(-23.1)"/>
      <path d="M208,470.9c-1.3-1-2.8-1.9-4.4-2.5-.6-.2-1.1-.6-1.9-.3-.4.2-.8-.5-1.4-.6-1.5-.1-3.1-.2-4.6,0-1.5.4-2.8,1-4,1.8-1.2.7-2.7,1.4-3.4,2.7-.3.5-.7.9-1.1,1.3-.4.4-.8.8-1.1,1.4-.5,1.2-1,2.3-1.5,3.4-.4.8-.8,1.7-.9,2.6,0,.6.2,1.1.2,1.7,0,.6-.3,1.2.4,1.7,0,0,0,.3-.1.4-.2.3-.3.7-.2,1,0,.3.2.6.4.9.3.4.4.9.5,1.3l.3.9.3.9c.2.6.5,1.2.7,1.7.2.4.3.9.5,1.3.2.4.3.9.6,1.3.5.9,1.4,1.5,1.8,2.3.2.4.5.8.8,1.1.3.3.7.6,1,.9.4.3.8.9,1.5.6,0,0,.2,0,.3.2.2.4.5.6.8.8.3.2.7.3,1,.4.4,0,.7.1,1.1.2.4,0,.7.1,1.1.3,1.4.6,3,.7,4.5.5.4,0,.8.1,1.1-.4.1-.2.5-.2.7-.2.6.2,1.2.1,1.7,0,.5-.2,1.1-.4,1.6-.6.3-.1.6-.3.9-.4.3-.2.5-.4.8-.5.6-.3,1.1-.7,1.8-.9.5-.2,1.2-.7,1.2-1.6,0-.4.6-.7.8-1.2.2-.4.2-.8.4-1.1.2-.3.5-.5.8-.7,0,0,.1-.2.2-.3.1-1,.5-1.8.9-2.7.2-.4.4-.9.5-1.4.2-.5.2-1,.2-1.4,0-2,0-4-.4-5.9-.1-.5-.2-1.1-.2-1.7,0-.6.1-1.1.5-1.7.4-.5.9-.8,1.3-.4.4.3.7.6,1,1,.3.7.6,1.4.9,2,.2.7.6,1.4.8,2.2.2.8.4,1.6.2,2.4,0,.5.2,1.1-.3,1.5,0,0-.1.3-.1.4.7,2.2-.4,4.4-1.2,6.4-.3.9-.6,1.8-.9,2.7-.4.9-.8,1.7-1.6,2.4,0,.6-.4,1.2-.8,1.6-.4.4-.9.8-1.4,1.1-1.7,1-3.4,1.9-5.1,2.7-1.8.7-3.6,1.3-5.6,1.4-1.9,0-3.9,0-5.8-.5-1.9-.5-3.7-1.2-5.3-2.1-.6-.3-1.2-.3-1.7-1-.4-.6-1.3-1-1.9-1.6-.5-.5-1.3-.9-1.6-1.6-1.5-2.6-3.4-4.9-4.3-7.7-1-2.7-1.4-5.7-1.5-8.6,0-.9,0-1.8,0-2.7.1-.9.2-1.8.5-2.7.1-.4.2-.8.3-1.2.1-.4.4-.7.8-1,.2-.1,0-1,.3-1.4.5-1.2,1.2-2.2,2-3.2,1-1.4,2.4-2.6,3.8-3.7.9-.6,1.6-1.4,2.6-1.9.3-.1.5-.3.8-.4l.8-.3c.5-.2,1.1-.4,1.7-.5.7-.1,1.4-.3,2.2-.3.7,0,1.4,0,2.2,0,.4,0,.7,0,1.1,0h1.1c.8,0,1.5.2,2.1.5,2.4,1,4.8,1.8,6.9,3.3,2.1,1.4,3.9,3.2,5.5,5.2.5.5.8,1.2,1,1.8.3.6.5,1.3.8,1.9.3.6-.7,1.9-1.3,1.9-.1,0-.2,0-.3-.1-.5-.4-1-.8-1.5-1.2-.5-.4-.9-.8-1.3-1.4-1-1.6-2.4-3-3.9-4.2Z"/>
    </g>
    <path d="M199.7,490.7c-.3,0-.6-.2-.9-.2-.1,0-.1-.3-.5.1-.2.2,0-.4-.1-.4-.3,0-.5-.3-.8-.4-.3-.1-.6-.1-.9-.3-.3-.1-.2-.6-.7-.5-.4,0-.1-.5-.3-.6-.2-.1-.4-.3-.4-.6,0-.2.2-.5,0-.5-.1,0-.4,0-.5,0,0,0,.2-.3-.4-.1,0,0,0,0,0-.1.3-.3.3-.4,0-.3-.3,0-.3,0-.3-.1-.1-.2-.2-.4-.2-.6,0-.2.2-.4.2-.6,0-.2-.3-.3,0-.5.3-.2.2-.4.2-.5,0,0,.3-.2-.4-.2,0,0,0,0,0,0,.8-.3-.3-.5,0-.8.2-.3.1-.6.1-.9,0,0,.2-.1-.2-.3-.2,0-.1-.2,0-.2.7,0,.4-.4.6-.6.2-.2,0-.6.7-.6.2,0,.4,0,0-.5-.2-.2.1-.2.1-.3,0-.1-.1-.3,0-.4,0,0,.3,0,.4,0,0,0,0,0,0,0-.2-.8.8-.4,1.1-.8.3-.4.8-.5,1.3-.6.3,0,.6.1.9,1.2.1.5.2,1.1.2,1.4,0,.2,0,.5,0,.5,0,.1,0,.2,0,.3,0,.2.1.7,0,.5,0,0,0,.2-.2-.2,0,0,0,0,0,0,.3.7,0,.3,0,.5,0,.1.4.6.2.4.5.4.4.3.2.3-.3-.1-.4,0-.4,0,0,0,0,.2,0,.2-.1.2,0,.4,0,.6,0,0,.4,0,0,.1-.3,0,0,.1,0,.2,0,0,.2,0,0,.1-.6.3-.1.5-.1.7,0,.2,0,.5.3.6.2,0,.5,0,.5.2,0,0,.3,0-.2.3-.1.1.3-.1.3,0,0,0,.1.1.2.2,0,0,.1.2.2.2,0,0,.3-.1.4-.1,0,0,.1,0,.1,0,0,0,0,.3,0,.4,0,0,.2-.1.2.2,0,.5.2.3.3.4.1,0,.3.1.4,0,0,0,.2.4.2.4,0,0,0,.4.2.8,0,.4.2.9.2,1.2,0,0,0,.2,0,.2,0,.5-.2,1.2-.5,1.2-.4,0-.8,0-1.1,0Z" fill="#00b4e9"/>
  </g>
  <g>
    <g>
      <ellipse cx="386.9" cy="484.4" rx="17.4" ry="19.2" transform="translate(-159 190.5) rotate(-23.1)"/>
      <path d="M395.4,470.9c-1.3-1-2.8-1.9-4.4-2.5-.6-.2-1.1-.6-1.9-.3-.4.2-.8-.5-1.4-.6-1.5-.1-3.1-.2-4.6,0-1.5.4-2.8,1-4,1.8-1.2.7-2.7,1.4-3.4,2.7-.3.5-.7.9-1.1,1.3-.4.4-.8.8-1.1,1.4-.5,1.2-1,2.3-1.5,3.4-.4.8-.8,1.7-.9,2.6,0,.6.2,1.1.2,1.7,0,.6-.3,1.2.4,1.7,0,0,0,.3-.1.4-.2.3-.3.7-.2,1,0,.3.2.6.4.9.3.4.4.9.5,1.3l.3.9.3.9c.2.6.5,1.2.7,1.7.2.4.3.9.5,1.3.2.4.3.9.6,1.3.5.9,1.4,1.5,1.8,2.3.2.4.5.8.8,1.1.3.3.7.6,1,.9.4.3.8.9,1.5.6,0,0,.2,0,.3.2.2.4.5.6.8.8.3.2.7.3,1,.4.4,0,.7.1,1.1.2.4,0,.7.1,1.1.3,1.4.6,3,.7,4.5.5.4,0,.8.1,1.1-.4.1-.2.5-.2.7-.2.6.2,1.2.1,1.7,0,.5-.2,1.1-.4,1.6-.6.3-.1.6-.3.9-.4.3-.2.5-.4.8-.5.6-.3,1.1-.7,1.8-.9.5-.2,1.2-.7,1.2-1.6,0-.4.6-.7.8-1.2.2-.4.2-.8.4-1.1.2-.3.5-.5.8-.7,0,0,.1-.2.2-.3.1-1,.5-1.8.9-2.7.2-.4.4-.9.5-1.4.2-.5.2-1,.2-1.4,0-2,0-4-.4-5.9-.1-.5-.2-1.1-.2-1.7,0-.6.1-1.1.5-1.7.4-.5.9-.8,1.3-.4.4.3.7.6,1,1,.3.7.6,1.4.9,2,.2.7.6,1.4.8,2.2.2.8.4,1.6.2,2.4,0,.5.2,1.1-.3,1.5,0,0-.1.3-.1.4.7,2.2-.4,4.4-1.2,6.4-.3.9-.6,1.8-.9,2.7-.4.9-.8,1.7-1.6,2.4,0,.6-.4,1.2-.8,1.6-.4.4-.9.8-1.4,1.1-1.7,1-3.4,1.9-5.1,2.7-1.8.7-3.6,1.3-5.6,1.4-1.9,0-3.9,0-5.8-.5-1.9-.5-3.7-1.2-5.3-2.1-.6-.3-1.2-.3-1.7-1-.4-.6-1.3-1-1.9-1.6-.5-.5-1.3-.9-1.6-1.6-1.5-2.6-3.4-4.9-4.3-7.7-1-2.7-1.4-5.7-1.5-8.6,0-.9,0-1.8,0-2.7.1-.9.2-1.8.5-2.7.1-.4.2-.8.3-1.2.1-.4.4-.7.8-1,.2-.1,0-1,.3-1.4.5-1.2,1.2-2.2,2-3.2,1-1.4,2.4-2.6,3.8-3.7.9-.6,1.6-1.4,2.6-1.9.3-.1.5-.3.8-.4l.8-.3c.5-.2,1.1-.4,1.7-.5.7-.1,1.4-.3,2.2-.3.7,0,1.4,0,2.2,0,.4,0,.7,0,1.1,0h1.1c.8,0,1.5.2,2.1.5,2.4,1,4.8,1.8,6.9,3.3,2.1,1.4,3.9,3.2,5.5,5.2.5.5.8,1.2,1,1.8.3.6.5,1.3.8,1.9.3.6-.7,1.9-1.3,1.9-.1,0-.2,0-.3-.1-.5-.4-1-.8-1.5-1.2-.5-.4-.9-.8-1.3-1.4-1-1.6-2.4-3-3.9-4.2Z"/>
    </g>
    <path d="M387.1,490.7c-.3,0-.6-.2-.9-.2-.1,0-.1-.3-.5.1-.2.2,0-.4-.1-.4-.3,0-.5-.3-.8-.4-.3-.1-.6-.1-.9-.3-.3-.1-.2-.6-.7-.5-.4,0-.1-.5-.3-.6-.2-.1-.4-.3-.4-.6,0-.2.2-.5,0-.5-.1,0-.4,0-.5,0,0,0,.2-.3-.4-.1,0,0,0,0,0-.1.3-.3.3-.4,0-.3-.3,0-.3,0-.3-.1-.1-.2-.2-.4-.2-.6,0-.2.2-.4.2-.6,0-.2-.3-.3,0-.5.3-.2.2-.4.2-.5,0,0,.3-.2-.4-.2,0,0,0,0,0,0,.8-.3-.3-.5,0-.8.2-.3.1-.6.1-.9,0,0,.2-.1-.2-.3-.2,0-.1-.2,0-.2.7,0,.4-.4.6-.6.2-.2,0-.6.7-.6.2,0,.4,0,0-.5-.2-.2.1-.2.1-.3,0-.1-.1-.3,0-.4,0,0,.3,0,.4,0,0,0,0,0,0,0-.2-.8.8-.4,1.1-.8.3-.4.8-.5,1.3-.6.3,0,.6.1.9,1.2.1.5.2,1.1.2,1.4,0,.2,0,.5,0,.5,0,.1,0,.2,0,.3,0,.2.1.7,0,.5,0,0,0,.2-.2-.2,0,0,0,0,0,0,.3.7,0,.3,0,.5,0,.1.4.6.2.4.5.4.4.3.2.3-.3-.1-.4,0-.4,0,0,0,0,.2,0,.2-.1.2,0,.4,0,.6,0,0,.4,0,0,.1-.3,0,0,.1,0,.2,0,0,.2,0,0,.1-.6.3-.1.5-.1.7,0,.2,0,.5.3.6.2,0,.5,0,.5.2,0,0,.3,0-.2.3-.1.1.3-.1.3,0,0,0,.1.1.2.2,0,0,.1.2.2.2,0,0,.3-.1.4-.1,0,0,.1,0,.1,0,0,0,0,.3,0,.4,0,0,.2-.1.2.2,0,.5.2.3.3.4.1,0,.3.1.4,0,0,0,.2.4.2.4,0,0,0,.4.2.8,0,.4.2.9.2,1.2,0,0,0,.2,0,.2,0,.5-.2,1.2-.5,1.2-.4,0-.8,0-1.1,0Z" fill="#00b4e9"/>
  </g>
  <path d="M234.3,481.3c-.2-.2-.4-.5-.6-.7,0,0,0-.3-.4-.1-.3,0,.2-.3.2-.4-.2-.2-.2-.5-.4-.7-.2-.2-.5-.3-.6-.5-.2-.2,0-.5-.3-.5-.3,0,0-.4-.1-.5-.2-.1-.3-.2-.2-.5.1-.2.3-.4.1-.5,0,0-.4,0-.4,0,0,0,.2-.3-.4,0,0,0,0,0,.1-.1.3-.2.3-.3,0-.3-.3,0-.3,0-.3,0-.1-.1-.2-.3-.2-.5,0-.1.1-.4.1-.5,0-.2-.3-.2,0-.4.2-.2.2-.3.1-.5,0,0,.2-.3-.4,0,0,0,0,0,0,0,.7-.5-.4-.3-.3-.5.1-.3-.1-.4-.2-.6,0,0,.1-.2-.3,0-.2,0-.2,0-.1,0,.5-.4,0-.4.1-.6,0-.2-.3-.3,0-.6.2-.2.2-.3-.4-.1-.3,0,0-.1-.1-.2,0,0-.3,0-.4,0,0,0,.2-.2.2-.3,0,0,0,0,0,0-.7,0,0-.6-.3-.8-.3-.2-.3-.5-.4-.7,0-.2,0-.4,1.1-1,.4-.3,1-.5,1.3-.6.2,0,.5-.1.5,0,.1,0,.3,0,.4,0,.3,0,.8,0,.6.3,0,0,.2,0-.2.3,0,0,0,0,0,0,.8-.1.5.3.6.5.1.2.8,0,.6.4.6-.2.6,0,.5.2-.4.7.1.8.2,1.3,0,.4.4.8.5,1.2,0,0,.4,0,.2.2-.2.2,0,.2,0,.3,0,0,.2,0,0,.2-.5.6,0,.7.1,1,0,.3.2.7.4.9.2.1.6.2.5.4,0,.1.3,0-.2.4-.1,0,.3,0,.3,0,.1.1.1.2.2.4,0,.2.1.4.3.5,0,0,.3,0,.4.2.1,0,.1.2.1.3,0,.1-.1.4-.1.5,0,.1.3.1.1.3-.3.4,0,.5,0,.6,0,.2.1.3.3.2,0,0-.1.4,0,.5,0,0,0,0,0,.2,0,.1-.1.3-.2.5-.1.4-.3.9-.4,1.1,0,0,0,.2-.1.2-.3.4-.9.9-1.1.7-.3-.3-.7-.5-.9-.8Z" fill="#fff"/>
  <path d="M250.1,482c-.2-.2-.3-.4-.5-.6,0,0,0-.3-.4,0-.2.1.2-.4.1-.4-.2-.1-.3-.4-.5-.5-.2-.1-.5-.2-.7-.3-.2-.1-.1-.5-.5-.5-.3,0,0-.4-.3-.5-.2,0-.4-.2-.3-.5,0-.2.1-.5,0-.5-.1,0-.4.1-.4,0,0,0,.1-.3-.4,0,0,0,0,0,0-.1.3-.3.2-.4,0-.3-.3.1-.3,0-.3,0-.1-.1-.3-.3-.4-.5,0-.1,0-.4,0-.6,0-.2-.4-.1-.2-.4.2-.3,0-.4,0-.5,0,0,.1-.3-.4,0,0,0,0,0,0,0,.5-.7-.5-.2-.4-.5,0-.3-.2-.4-.4-.6,0,0,0-.2-.3,0-.1,0-.2,0-.1,0,.4-.5,0-.4,0-.6,0-.2-.4-.2,0-.7.1-.2.1-.3-.4-.1-.3.1,0-.1-.2-.2,0,0-.3,0-.4,0,0,0,.1-.2.2-.3,0,0,0,0,0,0-.7.1-.1-.6-.5-.8-.3-.2-.4-.5-.5-.8,0-.2,0-.4.9-1.1.4-.3.9-.6,1.2-.7.2,0,.5-.2.5-.1.1,0,.3,0,.4,0,.3,0,.8,0,.7.2,0,0,.3,0-.2.3,0,0,0,0,0,0,.8-.2.5.3.7.5.2.2.8,0,.7.3.6-.3.6,0,.5.1-.3.7.3.8.5,1.2.2.4.5.7.7,1.1,0,0,.4,0,.2.1-.2.2,0,.2.1.3,0,0,.2,0,.1.2-.3.7.2.7.4,1,.2.3.3.6.7.8.2.1.6,0,.6.3,0,.1.3,0,0,.4-.1.1.3,0,.3,0,.1,0,.2.2.3.3.1.2.2.3.4.5.1,0,.4,0,.5,0,.1,0,.2.2.3.3,0,.2,0,.4,0,.6,0,.2.4.1.3.4-.2.6.2.6.4.9.2.3.3.5.6.6.2,0,0,.5,0,.7,0,0-.9,1.1-1.3,1.5,0,0-.2.1-.2.1-.5.2-1.1.6-1.2.4-.1-.3-.4-.4-.6-.6Z" fill="#fff"/>
  <path d="M263.7,477.8c0,0-.1,0-.2,0,0,0,0-.2-.1.3,0,.3,0-.4,0-.3,0,0-.1,0-.2,0,0,0-.2.3-.2.3,0,0,0-.2-.2,0,0,.3,0-.2-.1-.1,0,.1-.1.2-.2,0,0-.2,0-.4,0-.3,0,0,0,.4-.1.4,0,0,0-.3-.1.3,0,0,0,0,0-.1,0-.4,0-.4,0-.1,0,.3,0,.2,0,.2,0,0-.1,0-.2,0,0,0,0-.3,0-.4,0,0-.1.2-.1,0,0-.3,0-.3,0-.3,0,0,0-.3-.1.3,0,0,0,0,0,0,0-.8-.2.2-.2,0,0-.2-.1,0-.2,0,0,0,0-.2,0,.3,0,.2,0,.2,0,0,0-.6,0-.3-.1-.4,0-.1-.1.2-.1-.3,0-.2,0-.3-.1.3,0,.3,0,0,0,0,0,0,0,.3,0,.3,0,0,0-.2,0-.3,0,0,0,0,0,0-.2.7-.1-.2-.2,0-.1.2-.2,0-.3,0,0,0,0-.2,0-1.4,0-.5.1-1.1.2-1.4,0-.2,0-.5.1-.5,0,0,0-.2.1-.3,0-.2.2-.7.2-.4,0,0,0-.2,0,.3,0,0,0,.1,0,0,.2-.8.2-.2.3-.3,0,0,.2-.7.2-.4.1-.6.1-.5.2-.3,0,.7.2.3.3.4.1.1.3,0,.4,0,0,0,0-.3,0,0,0,.3,0,0,0,0,0,0,0-.1,0,0,0,.7.2.3.3.4,0,0,.2.2.3,0,0,0,.2-.4.2-.3,0,0,0-.3,0,.3,0,.2,0-.3,0-.3,0,0,0,0,.1,0,0,0,.1,0,.2,0,0,0,.1-.3.2-.3,0,0,0,0,.1,0,0,0,0,.3,0,.4,0,0,.1-.2.1,0,0,.5.1.3.2.3,0,0,.2.1.3,0,0,0,0,.4,0,.4,0,0-.1,1.5-.2,2,0,0,0,.2,0,.2-.1.5-.2,1.2-.3,1.1,0,0-.2,0-.2,0Z" fill="#fff"/>
  <path d="M280.2,477.9s0,0-.1,0c0,0,0-.2,0,.3,0,.3,0-.4,0-.3,0,0,0,0-.1,0,0,0,0,.3-.1.3,0,0,0-.2-.1,0,0,.3,0-.2,0-.1,0,.1,0,.2,0,0,0-.2,0-.4,0-.3,0,0,0,.4,0,.4,0,0,0-.3,0,.3,0,0,0,0,0-.1,0-.4,0-.4,0-.1,0,.3,0,.2,0,.3,0,0,0,0,0,0,0,0,0-.3,0-.3,0,0,0,.2,0,0,0-.3,0-.3,0-.3,0,0,0-.3,0,.3,0,0,0,0,0,0,0-.8,0,.3-.1,0,0-.2,0,0-.1,0,0,0,0-.2,0,.3,0,.2,0,.2,0,0,0-.6,0-.2,0-.4,0-.1,0,.2,0-.3,0-.2,0-.3,0,.3,0,.3,0,0,0,0,0,0,0,.3,0,.3,0,0,0-.2,0-.3,0,0,0,0,0,0,0,.7,0-.2-.1,0,0,.2,0,.1-.1,0,0,0,0-.2,0-1.4,0-.5,0-1.1,0-1.4,0-.2,0-.5,0-.5,0,0,0-.2,0-.3,0-.2,0-.7,0-.4,0,0,0-.2,0,.3,0,0,0,.1,0,0,0-.8,0-.3.1-.3,0,0,0-.7.1-.4,0-.6,0-.5,0-.3,0,.7.1.2.2.3,0,0,.1,0,.2,0,0,0,0-.4,0,0,0,.3,0,0,0,0s0-.1,0,0c0,.7.1.3.2.3,0,0,.1.1.2,0,0,0,0-.4.1-.3,0,0,0-.3,0,.3,0,.2,0-.3,0-.3,0,0,0,0,0,0s0,0,.1,0c0,0,0-.3,0-.3,0,0,0,0,0,0,0,0,0,.3,0,.3,0,0,0-.2,0,0,0,.5,0,.3.1.3,0,0,0,.1.1,0,0,0,0,.4,0,.4,0,0,0,1.5,0,2,0,0,0,.2,0,.2,0,.5,0,1.2,0,1.1,0,0,0,0-.1,0Z" fill="#fff"/>
  <path d="M403.5,297.8c-4.4,2.2-8.8,4.1-13.3,6-1.7.7-3.5,1.1-5.1,2.2-.8.6-2.7.5-4.2,1.1-4.3,1.5-8.7,2.7-13.2,3.8-4.3,1-8.8,1.9-13.3,2-2.3,0-4.6,0-6.8-.4-1.1-.1-2.3-.4-3.4-.5-1.1-.2-2.2-.4-3.3-.7-3.8-.9-6.9-2.9-9.9-5.4-.8-.7-1.5-1.4-2.2-2.3-.7-.8-1.3-1.8-1.7-2.8-.9-2-1.4-4.2-1.3-6.3.1-3.1,1.4-6.2,3.7-8.4,1.3-1.4,2.8-2.6,4.8-3.3,1.8-.6,3.9-.6,5.5-1.3.1,0,1,0,1.4.1,2,.4,4.2.7,5.9.8,1.6.1,3.1.6,4.5,1.4,2,1,3.8,2.6,5,4.6,1.3,2,1.8,4.3,1.9,6.5.1,3.3-.8,6.3-1.9,9.1-1.2,2.9-2.7,5.9-4.6,8-1.9,2.1-3.7,4.1-5.6,6-1.1,1.1-2.7,2-3.2,3.3,0,.1-.5.5-.8.6-3.9,2-7,5.2-11,7.1-2.1.9-4.1,1.9-6.2,2.9-2.1.9-4.2,1.8-6.4,2.6-1.2.4-2.5.6-3.4,1.4-.3.3-1.5.7-2.2.8-1.7.1-3.4.5-5.1,1-1.7.5-3.4.8-5.1,1.1-1.9.4-3.9.7-5.9,1-1,.1-2,.3-3,.4-1,0-2,0-3,0-.8,0-1.8,0-2.9.1-1,.1-2.1.3-3.1.6-.9.3-2.9.2-4.3.3-1.2,0-2.3.3-3.5.4-1,0-2-.2-3-.3-.3,0-.7,0-1,0-1.4.1-2.9.1-4.3.1-1.4,0-2.9-.2-4.3-.4-2.9-.3-5.7-.8-8.6-1-5.8-.6-11.6-1.5-17.3-2.8-3.1-.6-6.3-1.6-8.2-3.2-.8-.7-.7-1.3.7-1.3,1,0,2.2,0,3.3.2,1.8.3,3.6.5,5.3.8,1.8.3,3.6.5,5.5.6,1.8.2,3.7.5,5.5.9,1.2.3,2.6.1,3.5.8.1,0,.6.2.8.2,2.5-.1,5.1.1,7.7.4l3.8.3,1.9.2h1.9c2.2,0,4.3,0,6.5-.1,2.1-.2,4.3-.2,6.5-.2,1.2-.4,2.5-.6,3.8-.7,1.3-.1,2.6-.2,3.8-.2,8.6-.2,17-2.4,25-5.1,4.1-1.4,8.1-3.1,11.9-5,3.9-1.9,7.5-4.2,10.9-6.7,1.2-.9,1.9-1.9,3.3-2.8,1.4-.9,2.7-2.5,3.9-3.8,1.1-1.3,2.1-2.7,3.1-3.9,2.1-2.5,3.7-5.4,4.4-8.5.7-3.1.6-6.3-.9-8.8-1.3-2.5-4.1-4-7.2-4.6-3.1-.6-6.5-.7-9.4.2-1.8.5-3.2,1.5-4.2,2.8-1,1.2-1.5,2.8-1.7,4.5,0,.7,0,1.5.2,2.2.1.8.3,1.5.3,2.3,0,.5,1,1.6,1.6,2.3,1.5,1.9,3.6,3.5,5.9,4.7,3.3,1.6,7.1,2.5,10.8,2.9,2.3.2,4.6,0,7-.2,2.4-.2,4.9-.5,7.3-.8,3.1-.4,6.2-1,9.3-1.8,3.2-.8,6.4-2.2,9.5-3,5.8-1.5,11.1-4,16.5-6.4,5.3-2.5,10.6-5.2,15.5-8.4,2.8-1.8,5.6-3,8.3-4.9,1.2-.9,3.8-.8,3.6,0,0,.1-.2.4-.4.5-2.4,2.2-4.5,4.5-7.7,6.5-4.7,2.8-9.5,5.6-14.5,8.1Z" fill="#00b4e9"/>
  <path d="M254,130.2c-.1-.1-.3-.3-.5-.3,0,0,0-.3-.3.1-.2.2.1-.4,0-.4-.2,0-.3-.2-.4-.3-.2,0-.4,0-.6,0-.2,0-.1-.4-.5-.2-.3.1,0-.3-.3-.3-.2,0-.4,0-.3-.3,0-.2,0-.4,0-.4,0,0-.3.2-.4.2,0,0,0-.3-.4.2,0,0,0,0,0-.1.2-.4.1-.4-.1-.2-.2.2-.2.1-.3.1-.1,0-.3-.1-.3-.3,0-.1,0-.4,0-.5,0-.1-.3,0-.2-.3.1-.3,0-.4,0-.4,0,0,0-.3-.3.2,0,0,0,0,0,0,.4-.8-.4,0-.4-.3,0-.3-.2-.3-.4-.3,0,0,0-.2-.3.1-.1.1-.2.1-.1,0,.3-.6,0-.4,0-.5,0-.2-.3,0-.2-.5,0-.2,0-.3-.3,0-.2.2,0,0-.2,0,0,0-.3.2-.3.2,0,0,0-.2.1-.3,0,0,0,0,0,0-.5.4-.2-.4-.4-.3-.2,0-.4,0-.5-.3,0,0,0-.3.4-1.4.2-.5.4-1,.6-1.2.1-.2.3-.4.4-.4.1,0,.2-.1.4-.2.2,0,.6-.5.7-.1,0,.1.2-.1,0,.3,0,0,0,.1,0,0,.6-.6.5,0,.7,0,.2,0,.7-.3.7,0,.5-.5.5-.3.5,0-.1.8.4.6.6.9.2.3.5.4.8.6,0,0,.3-.2.2,0-.1.2,0,.1.1.2,0,0,.2,0,.1.1-.2.7.3.5.4.7.2.2.3.4.7.5.2,0,.5-.2.6,0,0,0,.3-.1,0,.4,0,.1.2-.2.3-.2.1,0,.2.1.3.2.1,0,.2.2.4.3,0,0,.3-.1.4-.1.1,0,.2,0,.2.2,0,.1,0,.4,0,.5,0,.1.3,0,.3.3-.1.5.2.5.4.7.1.2.3.4.6.4.1,0,0,.5,0,.6,0,0-.8,1.3-1.1,1.6,0,0-.1.1-.2.2-.4.3-.9.8-1,.7-.1-.2-.3-.3-.5-.4Z" fill="#00b4e9"/>
  <path d="M268.4,115.7c-.1-.2-.2-.4-.4-.6,0,0,.1-.3-.4,0-.3,0,.2-.3.2-.4-.2-.2-.2-.4-.4-.6-.2-.2-.5-.2-.6-.4-.1-.2,0-.5-.4-.5-.3,0,0-.4-.1-.5-.2-.1-.3-.2-.2-.5.1-.2.3-.4.1-.4,0,0-.4,0-.4,0,0,0,.2-.3-.4,0,0,0,0,0,.1-.1.3-.2.3-.3,0-.3-.3,0-.3,0-.3,0,0-.1-.2-.3-.2-.4,0-.1.2-.3.2-.5,0-.1-.3-.1,0-.4.2-.2.2-.3.1-.4,0,0,.2-.2-.4,0,0,0,0,0,0,0,.7-.5-.4-.2-.3-.4.1-.3-.1-.4-.2-.5,0,0,.1-.2-.3,0-.1,0-.2,0,0,0,.5-.4,0-.4.1-.5,0-.2-.3-.2,0-.5.1-.2.2-.3-.3,0-.2.1,0,0-.1,0,0,0-.3.1-.3,0s.1-.2.2-.3c0,0,0,0,0,0-.6.2,0-.5-.3-.5-.3,0-.3-.2-.4-.4,0-.1,0-.3.7-1.2.3-.4.7-.8,1-1,.2-.1.4-.3.5-.3.1,0,.3,0,.4,0,.3,0,.8-.2.7.1,0,.1.2,0-.1.3,0,0,0,0,0,0,.8-.3.6.2.8.4.2.1.8,0,.7.3.6-.2.6,0,.5.2-.3.7.3.9.4,1.3.1.4.4.8.5,1.2,0,0,.4,0,.2.2-.2.2,0,.2,0,.3,0,0,.2.1,0,.2-.5.6,0,.7,0,1,0,.3.1.6.4.8.2.1.6.2.5.4,0,0,.3,0-.2.3-.1,0,.3,0,.3,0,0,0,.1.2.2.3,0,.2.1.3.2.4,0,0,.3,0,.4.1.1,0,.1.1.1.3,0,.1-.1.4-.1.5,0,.2.3.1.1.4-.3.5,0,.5.1.7,0,.2.2.4.4.5.1,0-.2.5-.1.6,0,0-1,1.1-1.4,1.4,0,0-.2.1-.2.1-.4.2-1.1.5-1.2.3-.1-.3-.3-.5-.5-.7Z" fill="#00b4e9"/>
  <path d="M285.6,108.4c0-.2,0-.4,0-.7,0,0,.3-.1-.3-.3-.3,0,.4,0,.4-.2,0-.2,0-.4,0-.6,0-.2-.2-.4-.3-.6,0-.2.3-.4,0-.6-.3-.2.2-.3.1-.5-.1-.2-.2-.4,0-.5.2-.1.4-.2.3-.3,0,0-.4-.2-.4-.3,0,0,.3-.1-.3-.2,0,0,0,0,.1,0,.4,0,.4-.2.1-.2-.3,0-.2-.1-.2-.2,0-.2,0-.3,0-.5,0-.1.3-.2.4-.4,0-.1-.2-.3,0-.4.3-.1.3-.2.3-.4,0,0,.3-.1-.3-.2,0,0,0,0,0,0,.8-.2-.3-.4,0-.6.2-.2,0-.4,0-.6,0,0,.2-.1-.3-.2-.2,0-.2,0,0-.1.6-.2.2-.3.4-.5.1-.2-.2-.3.3-.5.2,0,.3-.2-.3-.1-.3,0,0,0,0,0,0,0-.3,0-.3,0,0,0,.2,0,.3,0,0,0,0,0,0,0-.3,0-.3,0-.2,0,.1,0,.2-.2.1-.1-.2,0-.1,0-.1,0,0,0,0-.2.4-.9,0-.2.2-.3.3-.5.1-.2.3-.4.4-.6.2-.2.4-.4.5-.5.2,0,.4-.2.5-.2.4,0,1-.3,1,.1,0,.1.3,0,0,.4,0,0,0,0,0,0,.9-.2.7.5.9.9.2.3.9.6.6,1,.7.1.6.4.4.5-.7.6-.2.9-.3,1.4,0,.4,0,.9,0,1.3,0,0,.3.1,0,.2-.3,0,0,.2,0,.3,0,0,.1.2,0,.3-.7.3-.3.7-.4,1,0,.3-.2.7,0,1,0,.2.4.4.3.6,0,0,.3.2-.3.3-.2,0,.3.1.3.2,0,.1,0,.3,0,.4,0,.2,0,.4,0,.6,0,.1.3.3.3.4,0,.1,0,.3,0,.4,0,.2-.3.3-.4.4,0,.2.2.4-.1.5-.5.2-.3.6-.4.9,0,.3-.2.6,0,.9,0,.2-.5.3-.5.4,0,0-1.5,0-2-.1,0,0-.2,0-.2,0-.4-.2-1.1-.4-1.1-.6.1-.2,0-.5.1-.8Z" fill="#00b4e9"/>
  <path d="M316.9,104.7c-.1,0-.3.1-.4.3,0,0-.2-.1,0,.4.1.2-.3-.3-.3-.2,0,.1-.3.2-.4.3,0,.1,0,.4-.2.6,0,.2-.4,0-.3.4,0,.3-.3,0-.4.2,0,.2,0,.3-.3.3-.2,0-.4-.1-.4,0,0,0,.2.4.1.4,0,0-.3-.1,0,.4,0,0,0,0-.1,0-.3-.2-.4-.2-.2,0,.1.2,0,.2,0,.3,0,.1-.2.3-.3.3-.1,0-.4,0-.5,0-.1,0,0,.3-.3.2-.3-.1-.4,0-.5,0,0,0-.3-.1,0,.4,0,0,0,0,0,0-.7-.5,0,.4-.4.4-.3,0-.3.2-.5.4,0,0-.2,0,0,.3,0,.1,0,.2,0,.1-.5-.4-.4,0-.6,0-.2,0-.2.4-.6.1-.2-.1-.3-.1,0,.4.1.2-.1,0-.1.2,0,0,.1.3,0,.4,0,0-.2-.1-.3-.2,0,0,0,0,0,0,.2.7-.6.1-.7.4-.1.3-.5.4-.8.5-.2,0-.4,0-1-1-.3-.4-.5-.9-.6-1.3,0-.2-.1-.5-.1-.5,0-.1,0-.3,0-.4,0-.2-.1-.7.1-.6,0,0,0-.2.3.2,0,0,0,0,0,0-.3-.8.2-.4.3-.6.1-.1-.1-.7.1-.6-.3-.5-.2-.5,0-.4.7.3.6-.3,1-.4.3-.2.5-.5.8-.7,0,0-.2-.3,0-.2.2.1.2,0,.2-.1,0,0,0-.2.2-.1.7.3.6-.2.9-.4.3-.2.5-.3.6-.7,0-.2,0-.6.2-.6,0,0,0-.3.4,0,.1.1-.1-.3,0-.3,0-.1.2-.2.3-.3.1-.1.3-.2.4-.4,0-.1,0-.4,0-.5,0-.1.2-.2.3-.2.2,0,.4,0,.6,0,.2,0,.2-.4.5-.2.5.3.6-.1.9-.2.3,0,.6-.2.8-.4.1-.1.5.3.6.2,0,0,.7,1.3.9,1.8,0,0,0,.2,0,.2,0,.5.3,1.2.1,1.2-.2,0-.3.1-.5.2Z" fill="#00b4e9"/>
  <path d="M333.8,128.1c-.2,0-.3.1-.5.3,0,0-.2-.1,0,.4,0,.3-.3-.3-.3-.2-.1.1-.3.1-.4.3-.1.1-.2.4-.3.5-.1.1-.4,0-.4.3,0,.3-.3,0-.4,0,0,.2-.2.3-.4.2-.2-.1-.3-.3-.4-.1,0,0,0,.4,0,.4,0,0-.2-.2,0,.4,0,0,0,0-.1-.1-.2-.3-.3-.3-.2,0,0,.3,0,.3,0,.3-.1,0-.2.2-.4.2-.1,0-.3-.2-.4-.2-.1,0-.1.3-.3,0-.2-.2-.3-.2-.4-.2,0,0-.2-.2,0,.4,0,0,0,0,0,0-.5-.7-.2.4-.4.2-.2-.1-.3,0-.5.2,0,0-.2-.1,0,.3,0,.2,0,.2,0,0-.3-.5-.3-.1-.5-.2-.2,0-.2.3-.5-.1-.1-.2-.2-.3-.1.3,0,.3-.1,0-.1.1,0,0,0,.3,0,.4,0,0-.1-.2-.2-.3,0,0,0,0,0,0,0,.7-.5,0-.6.2-.2.2-.4.2-.6.2-.1,0-.3-.2-.7-1.2-.2-.5-.3-1-.4-1.3,0-.2,0-.5,0-.5,0-.1,0-.3,0-.4,0-.2,0-.8.2-.5,0,0,0-.2.2.2,0,0,0,0,0,0,0-.8.3-.4.4-.5.1,0,0-.7.3-.5-.1-.6,0-.6.1-.4.5.5.6,0,1,0,.3,0,.6-.2.9-.3,0,0,0-.4.1-.1.2.2.1,0,.2,0,0,0,0-.2.2,0,.5.5.6,0,.8,0,.3,0,.5,0,.7-.3,0-.2,0-.5.3-.5,0,0,0-.3.3.2,0,.1,0-.3,0-.3,0,0,.2-.1.3-.1.1,0,.3,0,.4-.2,0,0,0-.3,0-.4,0,0,.1-.1.2-.1.1,0,.3.2.5.2.1,0,.1-.3.3-.1.4.3.5,0,.7,0,.2,0,.4-.1.5-.3,0-.1.4.3.5.2,0,0,.9,1.2,1.1,1.6,0,0,0,.2,0,.2.1.5.4,1.1.3,1.2-.2,0-.4.2-.6.3Z" fill="#00b4e9"/>
  <g>
    <g>
      <g>
        <g>
          <path d="M267.1,148c.3-.1.6-.2.8-.4,0,0,.3.1.2-.4,0-.3.3.3.4.2.2-.2.5-.2.8-.4.2-.2.4-.5.6-.7.2-.2.6,0,.7-.4,0-.3.5,0,.6-.2.2-.2.3-.4.6-.3.2,0,.5.2.6,0,0-.1,0-.4.1-.5.1,0,.3.2.1-.4,0,0,0,0,.1.1.3.3.4.2.4,0,0-.3,0-.3.1-.3.2-.1.4-.2.6-.3.2,0,.4.1.6,0,.2,0,.2-.4.5-.2.3.2.4.1.6,0,0,0,.3.2.1-.4,0,0,0,0,0,0,.6.6.4-.5.7-.4.3,0,.5-.2.8-.3,0,0,.2,0,0-.3,0-.2,0-.2.1-.1.5.5.5,0,.7,0,.3,0,.4-.4.8,0,.2.1.4.2.2-.4,0-.3.2,0,.2-.2,0,0,0-.4,0-.4,0,0,.2.2.3.2,0,0,0,0,0,0,0-.8.7,0,1-.4.3-.3.6-.4,1-.5.2,0,.5,0,1.1,1,.3.4.5.9.6,1.3,0,.2,0,.5,0,.6,0,.1-.1.3-.2.4-.1.3-.1.9-.5.7-.1,0,0,.3-.3-.2,0,0,0,0,0,0,0,.9-.5.5-.8.7-.2.2-.2.8-.6.7.1.6,0,.6-.3.5-.8-.4-1.1.3-1.6.4-.5.1-1,.5-1.5.7,0,0,0,.4-.2.2-.2-.2-.2,0-.4,0-.1,0-.2.2-.3.1-.7-.4-.9.1-1.3.2-.4.1-.8.2-1.2.6-.2.2-.3.6-.6.6-.1,0,0,.4-.4-.1,0-.1,0,.3,0,.4-.1.1-.3.2-.5.2-.2.1-.5.2-.7.3-.1,0-.2.4-.3.5-.1.1-.3.2-.4.2-.2,0-.5,0-.7,0-.2,0-.3.4-.6.2-.6-.3-.8,0-1.2.2-.4.1-.7.2-1,.5-.2.2-.5-.2-.7-.1,0,0-.8-1.2-1-1.7,0,0,0-.2,0-.2,0-.5-.1-1.2,0-1.3.3,0,.6-.3.9-.4Z"/>
          <path d="M318.1,143.2c1.3.8,2.4,1.7,3.5,2.5.4.3.6.8,1.4.7.4,0,.3.8.7,1,1,.7,2,1.6,3,2.4,1,.8,2.1,1.6,3,2.8.9,1.1,1.4,2.6,2,3.9.6,1.2.2,2.4.3,3.5.1,1.2,0,2.5-.5,3.5-.3.8-.8,1.4-.9,2.2,0,.5,0,1-.1,1.5-.2.4-.6.9-.2,1.5,0,0-.1.2-.3.3-.6.3-.8.9-.7,1.4,0,.5,0,.8-.2,1.2-.4,1-.8,2-1.3,2.9-.4.7-.9,1.3-1.3,2-.4.7-.5,1.6-1.1,2.2-.6.6-.9,1.2-1.3,1.9-.2.4-.7.7-.3,1.3,0,0,0,.2-.1.2-1.3.7-.9,2.2-1.7,3.2-.8,1-1.3,2.2-1.9,3.3-.2.3-.5.5-.3,1,0,.2,0,.5-.3.6-1,.5-1.2,1.5-1.8,2.3-.7.9-1,2-2,2.7-.4.3-.9.8-.6,1.6,0,.4-.4.7-.6,1-.1.3,0,.7-.2,1-.1.2-.5.3-.7.5,0,0-.1.1-.1.2-.3,1.7-1.9,2.6-2.6,4-.7,1.5-1.7,2.8-2.6,4.1-.5.7-1.2,1.4-2.5,1.3-.6,0-1-.4-1.1-.9,0-.4,0-.8,0-1.1.2-.5.4-1,.6-1.4.4-1,.5-2.1,1.3-2.9.3-.2.2-.7.8-.7,0,0,.2,0,.2-.2.1-1.6,1.3-2.6,2.1-3.8.6-1.1.7-2.4,1.6-3.3-.2-.9.3-1.5.9-2,1.8-1.7,2.7-4,4-6.1,1.3-2.1,2.4-4.3,3.6-6.4.2-.4,0-.8.5-1.2.4-.3.5-.9.8-1.4.2-.4.3-1,.7-1.3,1.4-1.4,1.9-3.4,2.7-5.1.8-1.7,1.6-3.5,2.1-5.3.3-1.1.3-2.2.7-3.2.2-.4,0-.9.6-1.3.2-.1-.2-.6-.2-.8,0-.7,0-1.3,0-2-.1-.9-.3-1.7-.8-2.4-.3-.5-.8-.8-1.2-1.2-.4-.4-.8-.9-1.2-1.3-.5-.6-1-1.3-1.7-1.9-.7-.6-1.6-1-2.2-1.8-1-1.5-2.4-2.3-3.7-3.2-1.2-.9-2.6-1.6-4.1-2.1-.9-.3-1.5-1.1-2.3-1.4-.4-.1-.4-1.7,0-2.1,0,0,.2-.1.2-.2,1-.1,2.1-.5,3,0,1.4.7,2.9,1.3,4.4,2.2Z"/>
          <path d="M278.8,163.9c-.2-.2-.4-.5-.7-.7,0,0,0-.3-.5,0-.2.1.2-.4,0-.4-.3-.2-.4-.5-.6-.7-.2-.2-.6-.3-.9-.4-.2-.2-.2-.6-.7-.6-.4,0-.2-.5-.4-.6-.3,0-.5-.2-.5-.6,0-.2,0-.5-.2-.6-.1,0-.4.1-.5,0,0,0,0-.4-.5,0,0,0,0,0,0-.2.2-.4,0-.5-.2-.3-.3.1-.3,0-.4,0-.2-.1-.4-.3-.5-.5-.1-.2,0-.5-.2-.6,0-.2-.4-.1-.4-.5,0-.3,0-.5-.2-.6,0,0,0-.4-.5,0,0,0,0,0,0,0,.4-.8-.6-.2-.7-.5,0-.4-.4-.5-.7-.6,0,0,0-.2-.4,0-.1.1-.2,0-.2,0,.2-.6-.2-.5-.3-.7-.1-.3-.5-.2-.4-.8,0-.2,0-.4-.5,0-.2.2-.1-.1-.3-.1,0,0-.3.1-.4.1,0,0,0-.3,0-.4,0,0,0,0,0,0-.7.3-.4-.7-.9-.8-.4-.1-.7-.4-.9-.7-.1-.2-.2-.5.4-1.5.3-.4.6-.9.9-1.1.2-.1.4-.3.5-.3.2,0,.3,0,.5,0,.3,0,.9-.3.9.1,0,.1.3,0,0,.4,0,0,0,.1,0,0,.8-.4.7.2,1.1.4.3.2.9-.1,1,.3.5-.4.6-.2.6.1,0,.9.8,1,1.2,1.5.4.5.9.8,1.4,1.3,0,0,.4-.1.3.2,0,.3.2.2.3.3,0,0,.3,0,.3.3-.1.8.5.9.8,1.3.3.4.6.8,1.1,1,.3.1.7.1.9.4,0,.1.4,0,0,.5,0,.1.3,0,.4,0,.2.1.3.3.4.4.2.2.4.4.6.6.1.1.4,0,.6.1.2,0,.3.2.4.4.1.2,0,.5.2.7.1.2.5.2.4.6-.1.7.4.8.6,1.2.2.4.5.7.8.9.2.1,0,.6.1.8,0,0-1,1.1-1.4,1.4,0,0-.2.1-.2.1-.5.1-1.2.4-1.3.2-.2-.3-.5-.6-.7-.9Z"/>
        </g>
        <path d="M269.8,213.1c.1-.9.3-1.8.4-2.7,0-.3.3-.6-.1-1.1-.2-.2.4-.4.4-.8,0-.8.3-1.7.3-2.5,0-.8,0-1.7,0-2.5,0-.8.4-1.6.2-2.4-.2-.7.4-1.2.3-1.9,0-.7,0-1.4.3-2.1.2-.5.5-.9.5-1.4,0-.3-.3-.6-.2-1,0-.3.4-.6-.2-1,0,0,0-.2.2-.2.4-.3.5-.7.2-1-.2-.3-.2-.5-.1-.8,0-.7.1-1.4.3-2.1.1-.5.4-1,.6-1.5.1-.5,0-1.1.3-1.6.4-.5.4-.9.5-1.4,0-.3.4-.6-.2-.9,0,0,0-.1,0-.2.9-.7,0-1.6.3-2.4.3-.8.3-1.7.4-2.5,0-.2.3-.4-.2-.7-.1,0-.1-.3,0-.4.7-.5.5-1.2.7-1.9.3-.7,0-1.5.7-2.1.3-.3.5-.7,0-1.2-.2-.2.1-.5.1-.8,0-.2-.2-.5-.2-.7,0-.2.3-.3.4-.5,0,0,0-.1,0-.2-.4-1.2.7-2.1.8-3.2.2-1.1.5-2.2,1-3.3.3-.6.7-1.2,1.9-1.1.5,0,1,.3,1.2.7.1.3.3.6.3.8,0,.3,0,.7,0,1,0,.7.3,1.5-.2,2-.1.2,0,.5-.5.5,0,0-.1,0-.1.1.5,1.1-.2,1.9-.4,2.8-.2.8.3,1.7-.1,2.4.5.6.3,1.1,0,1.5-.9,1.5-.8,3.1-1.2,4.7-.4,1.6-.5,3.2-.8,4.9,0,.3.3.6,0,.9-.3.3-.2.7-.2,1,0,.3,0,.7-.2,1-.8,1.2-.6,2.5-.9,3.8-.2,1.3-.5,2.5-.5,3.8,0,.8.2,1.6,0,2.4,0,.3.2.7-.4,1-.2,0,.2.4.2.7,0,.5-.1,1.1-.2,1.6,0,.7-.2,1.5-.3,2.2,0,.5.2.9.2,1.4,0,.5,0,1-.2,1.4-.2.6-.4,1.2-.6,1.8-.1.6,0,1.3-.3,1.9-.7,1-.6,2.2-.8,3.3-.2,1.1-.5,2.2-.5,3.4,0,.7-.7,1.1-.8,1.8,0,.3-1.6.3-2,.1,0,0-.2-.1-.2-.2-.3-.7-.9-1.4-.8-2,.3-1,.4-2,.5-3Z"/>
        <path d="M297,159.7c0,.2-.2.3-.2.5,0,0-.3,0,.2.3.3,0-.4,0-.4,0,0,.2,0,.3,0,.4,0,.1.3.3.3.4,0,0-.2.2.1.3.3,0-.2.2,0,.2.2,0,.2,0,0,.2-.1.1-.3.3-.1.3,0,0,.3-.2.3-.2,0,0-.2.3.3-.2,0,0,0,0,0,.1-.3.3-.2.3,0,.1.2-.2.2-.2.2-.2,0,0,0,0,0,0,0,0,0,.3,0,.3,0,0,0-.2,0,0,0,.3.1.3.2.3,0,0,.1.3,0-.4,0,0,0,0,0,0,.3.8.2-.3.3-.1.2.2.3,0,.4-.1,0,0,.2.1,0-.3,0-.2,0-.2,0,0,.4.5.3.1.5.1.2,0,.1-.3.5,0,.2.1.3.2,0-.3-.1-.2,0,0,0-.1,0,0-.2-.3-.1-.3,0,0,.2.1.3.2,0,0,0,0,0,0-.3-.6.4-.1.4-.4,0-.3.2-.4.3-.5.1,0,.3,0,1.4.3.5.2,1,.4,1.2.6.2.2.4.3.4.4,0,.1,0,.3.1.5,0,.3.4.8,0,.9-.1,0,0,.3-.4,0,0,0-.1,0,0,0,.4.8-.2.7-.4,1-.2.2,0,.9-.4.9.3.6,0,.7-.2.6-.9-.2-1.2.5-1.8.7-.6.2-1.2.5-1.9.5-.1,0-.2.4-.4.1-.2-.2-.3,0-.5,0-.2,0-.3.1-.5,0-.5-.7-1.2-.5-1.7-.8-.5-.3-.9-.7-1.4-1-.3-.2-.8-.3-.9-.6,0-.2-.4-.1,0-.5.1-.1-.3,0-.4-.1-.2-.2-.2-.4-.3-.7-.1-.3-.1-.7-.2-1,0-.2-.3-.4-.4-.6,0-.2,0-.4,0-.7,0-.3.3-.5.4-.7.1-.2-.1-.6.2-.7.6-.3.5-.7.7-1.1.2-.3.5-.7.6-1.1,0-.2.6-.1.7-.3,0,0,1.3.7,1.7,1.1,0,0,.1.1.2.2.3.4.8.9.7,1-.2.1-.2.4-.3.5Z"/>
        <path d="M284.4,152.7c0,.2-.2.3-.2.5,0,0-.3,0,.2.3.3,0-.4,0-.4,0,0,.2,0,.3,0,.4,0,.1.3.3.3.4,0,0-.2.2.1.3.3,0-.2.2,0,.2.2,0,.2,0,0,.2-.1.1-.3.3-.1.3,0,0,.3-.2.3-.2,0,0-.2.3.3-.2,0,0,0,0,0,.1-.3.3-.2.3,0,.1.2-.2.2-.2.2-.2,0,0,0,0,0,0,0,0,0,.3,0,.3,0,0,0-.2,0,0,0,.3.1.3.2.3,0,0,.1.3,0-.4,0,0,0,0,0,0,.3.8.2-.3.3-.1.2.2.3,0,.4-.1,0,0,.2.1,0-.3,0-.2,0-.2,0,0,.4.5.3.1.5.1.2,0,.1-.3.5,0,.2.1.3.2,0-.3-.1-.2,0,0,0-.1,0,0-.2-.3-.1-.3,0,0,.2.1.3.2,0,0,0,0,0,0-.3-.6.4-.1.4-.4,0-.3.2-.4.3-.5.1,0,.3,0,1.4.3.5.2,1,.4,1.2.6.2.2.4.3.4.4,0,.1,0,.3.1.5,0,.3.4.8,0,.9-.1,0,0,.3-.4,0,0,0-.1,0,0,0,.4.8-.2.7-.4,1-.2.2,0,.9-.4.9.3.6,0,.7-.2.6-.9-.2-1.2.5-1.8.7-.6.2-1.2.5-1.9.5-.1,0-.2.4-.4.1-.2-.2-.3,0-.5,0-.2,0-.3.1-.5,0-.5-.7-1.2-.5-1.7-.8-.5-.3-.9-.7-1.4-1-.3-.2-.8-.3-.9-.6,0-.2-.4-.1,0-.5.1-.1-.3,0-.4-.1-.2-.2-.2-.4-.3-.7-.1-.3-.1-.7-.2-1,0-.2-.3-.4-.4-.6,0-.2,0-.4,0-.7,0-.3.3-.5.4-.7.1-.2-.1-.6.2-.7.6-.3.5-.7.7-1.1.2-.3.5-.7.6-1.1,0-.2.6-.1.7-.3,0,0,1.3.7,1.7,1.1,0,0,.1.1.2.2.3.4.8.9.7,1-.2.1-.2.4-.3.5Z"/>
        <path d="M285.1,177.1c.1.1.2.3.4.3,0,0,0,.3.3-.1.2-.2-.1.3,0,.4.2,0,.2.2.4.2.2,0,.4,0,.5,0,.1,0,.1.3.4,0,.2-.2.1.3.2.2.1,0,.3-.1.3.1,0,.2,0,.4.2.3,0,0,.2-.4.2-.3,0,0,0,.3.2-.3,0,0,0,0,0,.1,0,.4,0,.4.1.1,0-.3,0-.2.1-.2,0,0,.2,0,.2,0,0,0,.1.3.2.3,0,0,0-.2.2,0,.1.3.2.2.3.2,0,0,.2.2,0-.4,0,0,0,0,0,0,.4.7,0-.3.3-.2.2.1.2,0,.3-.1,0,0,.1.1,0-.3,0-.1,0-.2,0,0,.4.5.3.1.4.1.1,0,0-.2.4,0,.2.1.3.1-.1-.3-.2-.2,0,0,0-.1,0,0-.2-.2-.2-.2,0,0,.2.1.3.1,0,0,0,0,0,0-.5-.4.3,0,.2-.2-.1-.1,0-.2,0-.2,0,0,.2,0,1.4-.1.5,0,1.1,0,1.4,0,.2,0,.5.1.5.2,0,.1.2.2.3.4.2.2.7.6.3.8-.1,0,.2.2-.3.1,0,0-.1,0,0,0,.6.6,0,.7-.1,1,0,.3.3.9-.1.9.4.5.2.6,0,.6-.9,0-1,.6-1.5.9-.5.2-1,.6-1.5.7,0,0,0,.4-.3.2-.2-.2-.2,0-.4,0-.1,0-.2.2-.3,0-.5-.6-.9-.1-1.3-.2-.4,0-.8-.2-1.2,0-.3,0-.6.3-.8.2,0,0-.3.2-.2-.4,0-.2-.2.2-.3.2-.2,0-.3,0-.5-.2-.2,0-.4-.2-.6-.3-.1,0-.4.1-.5.1-.2,0-.3,0-.4-.2-.1-.2-.2-.4-.3-.6-.1-.1-.4,0-.4-.4,0-.6-.3-.6-.5-.8-.2-.2-.4-.5-.7-.6-.2,0,0-.5,0-.6,0,0,1-1.1,1.4-1.4,0,0,.2-.1.2-.1.4-.2,1-.6,1.1-.5,0,.2.3.3.4.4Z"/>
      </g>
      <path d="M239.1,198.3c.5-2.7,1.9-5,3.7-7,.7-.7,1.6-1.2,2.2-2.2.3-.5,1.5-.5,2.3-.9,1.1-.5,2.4-.9,3.5-1.1,1.1-.2,2.1-.4,3-.7,1.6-.5,2.6-1.7,3.3-3.2.7-1.4,1.4-3.2,1.1-5-.2-1.5.1-3-.2-4.6-.3-1.7-.7-3.5-.7-5.3,0-1.3.1-2.6-.1-3.8-.1-.8-.5-1.5-.6-2.3,0-.8.1-1.7-.5-2.4,0,0,0-.4,0-.6.3-.9.2-1.9-.1-2.6-.3-.7-.3-1.3-.4-1.9-.2-1.7-.4-3.6-.2-5.6.1-1.5.6-3.1,1.3-4.6.7-1.5,1.4-3.2,2.7-4.1,1.2-.9,2.3-1.8,3.5-2.5.7-.4,1.7-.6,2-1.4,0,0,.3-.2.5-.2,1.2,0,2.3-.4,3.5-.7,1.2-.3,2.3-.5,3.4-.4,2.2.2,4.3.2,5.8-.2.4-.1.9,0,1-.7,0-.2.3-.4.5-.4.6,0,1.1-.5,1.5-1.1.5-.6.9-1.4,1.6-2,1.6-1.7,3.7-3.1,5.9-3.2.9,0,2.1-.2,3.1-.8.5-.3,1.5,0,2.3-.1.6,0,1.3-.2,1.9-.2.5,0,1,.4,1.5.6.2,0,.3.1.5,0,1.6,0,3,.6,4.4,1.4,1.4.7,2.5,1.7,3.8,2.5,2.6,1.7,4.7,4.1,6.2,6.8.8,1.5,1.3,3.3.5,4.7-.3.6-.9.7-1.4.2-.4-.4-.7-.8-1-1.2-.2-.4-.4-.7-.7-1-.2-.3-.5-.7-.7-1-1-1.3-2.4-2.2-3.4-3.6-.3-.4-1-.6-1-1.3,0,0-.2-.3-.3-.3-1.1-.4-2.1-.9-3.1-1.5-.5-.3-1-.5-1.5-.8-.5-.2-1-.5-1.6-.6-1.9-.5-3.7-.1-5.6-.3-1,.7-2.1.7-3,.8-.8,0-1.7.3-2.3.7-.7.4-1.2.9-1.8,1.6-.6.7-1.2,1.7-2.1,2.6-.9,1-2.2,1.8-3.5,2.2-2.6.8-5,.6-7.1.6-1,0-2,0-2.9,0-.9,0-1.8.3-2.6.6-.3,0-.5.3-.8.4-.3.2-.5.3-.9.4-.7,0-1.4.7-1.9,1.2-.6.4-1,1.1-1.5,1.5-1.1.9-1.9,2.1-2.1,3.5-.3,1.4-.2,2.9-.2,4.5.2,3.2.4,6.6.8,9.9.3,2,.8,3.9.9,6,0,.9.5,1.7,0,2.6-.1.3.4,1,.5,1.5.2,1.4.4,2.8.5,4.3.1,2.1,0,4.3-.5,6.5-.3,1.3-.7,2.7-1.5,4-.8,1.3-2,2.5-3.5,3.3-2,1-3.9,1-5.3,1.3-1.6.2-2.6.8-3.9,1.3-1.2.4-2.2,1.1-3,2.1-.8.9-1.4,2-1.8,3.1-.9,2.2-.9,4.9,0,7.1.5,1.2.8,2.6,1.7,3.7.2.2.2.8.1,1.3,0,.5-.3,1-.6,1.1-.1,0-.3,0-.4,0-1.5-.8-3.1-1.7-4-3.6-1.2-2.8-1.7-5.9-1.1-8.9Z"/>
      <path d="M305.4,196.1c-.6-1.3-1.1-2.6-1.6-4-.2-.5,0-1.1-.8-1.5-.3-.2.1-.9,0-1.3-.3-.9-.7-3.5-1-5.5l-.3-1.8-.2-1v-.7c.9.3,2,.7,3.1,1.1l.9.3c.3.1.6.1.9.2.3,0,.5.1.9.2h.4c.5,0,1,0,1.4-.2.7-.4,1.5-.1,2.2-.5.7-.5,1.3-.9,2-1.3.5-.3,1.1-.6,1.4-1.1.2-.4,0-.8.3-1.1.2-.3.6-.6.2-1.1,0,0,.1-.1.2-.2.5-.2.7-.7.5-1.1-.2-.4-.1-.6,0-.9,0-.8,0-1.6,0-2.3,0-.6,0-1.1-.1-1.6-.2-.5-.7-.8-.9-1.4-.2-.6-.6-.9-1.1-1.1-.3-.1-.5-.5-.9,0,0,0-.1,0-.2,0-.3-.5-.8-.5-1.2-.4-.4.1-.8.4-1.2.4,0,0,0,0-.1,0,0,0-.2,0-.3,0-.2,0-.4.2-.6.3-.2,0-.4.3-.7.5l-.3.3-.4.4c-1,1-2.2,2.4-3.5,3.9v-.7c-.1,0-.2-.5-.2-.5,0-.2,0-.3,0-.5,0-.3-.1-.5-.3-.4-.2,0-.2-.6-.1-1.1.3-1.3.3-2.1.2-3,0-.8-.1-1.7,0-2.6v-2.4c.1-.6.2-1.1.5-1.7.2-.5.4-1.1,0-1.7-.2-.3.1-.8.1-1.2,0-.3-.2-.7-.2-1.1,0-.3.3-.5.5-.8,0,0,0-.2,0-.3-.3-1.8,1-3.2,1.3-4.8.3-1.7,1-3.3,1.7-4.8.4-.8,1-1.7,2.3-1.7.6,0,1.1.2,1.2.7.1.4.2.7,0,1-.1.5-.2,1-.3,1.5-.2,1,0,2.1-.7,3-.2.3,0,.7-.6.8,0,0-.2.1-.1.2.3,1.5-.5,2.8-.7,4.1-.2,1.2.2,2.4-.2,3.5.5.7.3,1.5.1,2.1-.2.6-.4,1.1-.4,1.7v.4c0,0,0,.1,0,.1,0,0,0,.1,0,.2,0,.2,0,.4,0,.5h.1c0-.1.2-.2.2-.2h.1c0,0,0,0,0,0,0,0,.3,0,.4-.1,1.3-.3,2.8-.4,4.1,0,.5.1,1.1,0,1.6.4.5.5,1.2.7,1.8,1.1.5.4,1.1.7,1.4,1.3,1.2,2.3,2.2,4.5,2.2,6.8,0,2.3-.7,4.5-1.6,6.5-.6,1.2-1.2,2.6-2.3,3.5-.5.4-.8,1.1-1.6.9-.2,0-.5.6-.8.9-.8.5-1.8.9-2.7,1.1-1.3.4-2.7.5-4,.5,0,0-.3,0-.2,0,0,0,0,0,0,0,0,0,0,0,0,0,0,0,0,.1,0,.2,0,0,0,0,0,0,0,0,0,0,0,0,0,0-.3,0-.3,0,0,0,0,0,0,.1,0,0,0,.2,0,.2v.3c.2.4.3.9.3,1.3,0,1.7.7,3.1,1.3,4.6.6,1.5,1.2,2.9,2.2,4.2.5.7.5,1.7,1.1,2.4.2.3-.6,1.7-1.1,1.8,0,0-.2,0-.3,0-.9-.5-2-.8-2.6-1.7-.8-1.4-1.6-2.8-2.3-4.3Z"/>
      <path d="M303.4,191.5c-.4,0-.8.1-1.2.2-.1,0-.3-.2-.4.3,0,.3-.2-.4-.4-.3-.4,0-.7,0-1.1,0-.4,0-.8.2-1.1.1-.4,0-.6-.4-1.1-.3-.4.1-.4-.4-.8-.5-.4-.1-.9-.3-1.1-.7-.1-.3-.1-.6-.4-.8-.2,0-.5,0-.6-.2,0-.2,0-.4-.4-.4,0,0,0,0-.1,0,0,0,0-.1,0-.2.3-.3.2-.5,0-.6-.3,0-.3-.3-.3-.4,0-.4-.1-.9,0-1.4,0-.3.4-.6.6-.9.2-.3,0-.8.4-.8.4,0,.5-.3.6-.5,0-.1.4,0,0-.5,0,0,0,0,0,0,.9.2.3-.8.7-1,.4-.1.7-.5,1-.8,0,0,.3,0,.1-.4,0-.2,0-.2.2-.2.6.4.7,0,1.1-.1.4,0,.7-.4,1.1,0,.2.2.4.3.5-.4,0-.3.3,0,.4,0,.1,0,.2-.3.3-.3,0,0,.2.2.3.3,0,0,0,0,0,0,.6-.6,1,.3,1.6.3.6,0,1.1.3,1.5.6.2.2.4.5-.1,1.6-.2.5-.6.9-.8,1.1-.2.2-.4.3-.4.3-.1,0-.3.1-.4.2-.2,0-.6.5-.6.2,0-.1-.2.2,0-.3,0,0,0-.1,0,0-.4.7-.5.2-.7.2-.2,0-.3.7-.5.4,0,.6,0,.5-.2.4-.4-.6-.6,0-.8,0-.3,0-.5.4-.7.6,0,0,.2.3,0,.2-.3,0-.1,0-.1.1,0,0,0,.2,0,.1-.7,0-.3.2-.4.3,0,.1-.1.3,0,.3,0,0,0,0,.1,0,.1,0,.5-.2.4,0,0,0,.2-.2-.1.3,0,.1.2-.2.2-.2,0,0,0,0,.2,0,.1,0,.3.2.5.2.1,0,.3-.2.4-.3.1,0,.2,0,.3,0,.1,0,.2.3.4.4.1,0,.3-.2.4,0,.3.5.6.2.8.2.3,0,.6,0,.8-.3,0-.1.4.3.6.2,0,0,.9,1.2,1.1,1.6,0,0,0,.2,0,.2,0,.5.1,1.3-.2,1.4-.4.1-.9.3-1.3.4Z"/>
      <path d="M278.3,143.3c.6-.3,1.2-.5,1.9-.8.2-.1.6,0,.7-.5,0-.3.5.2.7.2.6-.2,1.3-.2,2-.3.7,0,1.3-.3,2-.3.7,0,1.3.4,1.9.3.6-.1.9.5,1.4.5.5,0,1,.1,1.4.5.3.3.5.6.8.6.2,0,.5-.2.7-.1.2,0,.3.4.7-.1,0,0,0,0,0,.2,0,.5.3.5.6.3.2-.2.4-.1.5-.1.4,0,.8.1,1.2.3.3.1.5.4.8.5.3.1.7-.1,1,.2.3.3.6.3.9.4.2,0,.4.3.5-.3,0,0,0,0,.1,0,.5.8,1-.3,1.4,0,.5.2,1,0,1.5,0,.1,0,.3.1.4-.3,0-.2.2-.2.2-.1.5.6.8.1,1.2.1.5,0,.8-.4,1.4,0,.2.2.5.2.6-.5,0-.3.3,0,.4-.2.1,0,.1-.4.2-.4,0,0,.3.1.4.2,0,0,0,0,.1,0,.3-.8,1.3-.3,1.8-.8.5-.5,1-.7,1.5-.9.3-.1.5-.1,1.5.4.5.3.9.6,1,.9,0,.3.1.5,0,.7-.1.3-.2.5-.4.8-.3.5-.5,1.2-1.1,1.3-.2,0-.2.4-.6,0,0,0-.1,0-.1,0-.2,1-1.1.9-1.8,1.2-.5.3-.9,1.1-1.5,1-.1.7-.6.7-.9.6-1.3-.3-2.4.3-3.6.4-1.2,0-2.4.2-3.6.2-.2,0-.4.4-.6,0-.2-.3-.5,0-.8-.1-.2,0-.5,0-.7,0-.9-.7-1.8-.5-2.8-.8-.9-.3-1.8-.6-2.7-.8-.5,0-1.2,0-1.6-.2-.2-.1-.5.1-.5-.5,0-.2-.3.2-.5.2-.3,0-.6-.2-1-.3-.4-.1-.8-.3-1.3-.3-.3,0-.5.2-.8.2-.2,0-.5,0-.7,0-.3,0-.6-.3-.9-.3-.3,0-.6.3-1,.1-.7-.3-1.3.2-1.9.4-.6.2-1.2.5-1.8,1-.3.3-.9,0-1.2.3-.2.1-1.2-1-1.4-1.4,0,0,0-.2,0-.2,0-.6,0-1.4.5-1.7.7-.3,1.3-.7,1.9-1.1Z"/>
    </g>
    <path d="M253.6,208.4c.3.1.6.3,1,.4.1,0,.2.3.5-.1.2-.2,0,.4.2.4.3,0,.6.3.9.3.3,0,.7,0,1,0,.3,0,.5.5.9.3.4-.2.4.4.7.4.3,0,.6,0,.7.3.1.2.2.5.4.5.1,0,.4-.3.5-.2.1,0,.1.4.5-.2,0,0,0,0,0,.2,0,.4.1.5.3.2.2-.2.3-.1.4-.1.3,0,.5.2.7.3.2.1.3.4.4.5.2.1.5,0,.6.3,0,.4.2.4.4.5.1,0,.1.4.4-.2,0,0,0,0,0,0,0,.9.7,0,.9.3.2.3.6.3.9.4,0,0,0,.2.3-.2,0-.1.2-.1.2,0,0,.7.4.4.6.6.2.2.6,0,.7.6,0,.2.1.4.5,0,.2-.2.2,0,.3,0,0,0,.3-.2.4-.2,0,0,0,.3,0,.4,0,0,0,0,0,0,.6-.5.7.5,1.1.5.5,0,.8.2,1.2.5.2.1.3.4,0,1.5-.1.5-.3,1-.6,1.3-.2.2-.3.4-.4.4-.2,0-.3.1-.5.2-.3,0-.8.5-.9,0,0-.1-.3.1-.1-.4,0,0,0-.1,0,0-.6.6-.8,0-1.2-.1-.3,0-.8.4-1,0-.4.5-.6.3-.7,0-.3-.9-1.1-.7-1.6-1-.6-.3-1.2-.5-1.8-.8,0,0-.3.2-.3,0,0-.3-.2-.2-.4-.2-.1,0-.3,0-.3-.2-.2-.8-.8-.6-1.3-.9-.4-.3-.9-.5-1.4-.6-.3,0-.7.2-1,0-.1-.1-.4.2-.3-.4,0-.2-.3.2-.3.2-.2,0-.4-.1-.6-.2-.3-.1-.5-.3-.8-.3-.2,0-.4.1-.6.1-.2,0-.4,0-.5-.2-.2-.2-.3-.4-.5-.6-.2-.2-.5,0-.7-.3-.2-.6-.7-.6-1.1-.8-.4-.2-.8-.4-1.2-.5-.3,0-.3-.6-.5-.7-.1,0,.3-1.5.6-1.9,0,0,.1-.2.1-.2.4-.3.9-.9,1.1-.8.3.2.7.3,1.1.5Z"/>
    <path d="M251.3,211.7c0-.3,0-.5,0-.8,0,0,.3-.2-.3-.3-.3,0,.4-.1.4-.2,0-.2,0-.5,0-.7,0-.2-.2-.5-.2-.8,0-.2.3-.4,0-.7-.2-.3.3-.3.2-.5,0-.2-.1-.4.2-.6.2,0,.5-.2.4-.3,0-.1-.3-.3-.3-.4,0,0,.3-.1-.3-.4,0,0,0,0,.2,0,.4,0,.4,0,.2-.3-.2-.2-.2-.2-.2-.3,0-.2,0-.4.2-.6,0-.1.4-.2.5-.3.1-.1-.1-.4.2-.4.3,0,.4-.2.4-.3,0,0,.3,0-.2-.4,0,0,0,0,0,0,.8,0,0-.5.2-.7.3-.1.2-.4.3-.7,0,0,.2,0-.2-.3-.1,0-.1-.2,0-.1.6.1.4-.2.6-.3.2-.1,0-.5.6-.4.2,0,.4,0,0-.4-.2-.2,0-.1,0-.2,0,0-.2-.3-.2-.3,0,0,.3,0,.4,0,0,0,0,0,0,0-.4-.6.5-.4.5-.8,0-.4.2-.6.5-.8.1-.1.4-.2,1.4.4.5.3.9.6,1.1.8.2.2.3.4.3.4,0,.1,0,.3.1.4,0,.3.4.7,0,.7-.1,0,.1.2-.3,0,0,0-.1,0,0,0,.6.6,0,.5,0,.8,0,.2.4.7,0,.7.5.4.3.5.1.5-.8,0-.6.6-.8.9-.3.3-.3.7-.5,1.1,0,0,.3.2,0,.2-.3,0-.1.1-.1.2,0,0,0,.2-.1.2-.7,0-.5.5-.6.8-.2.3-.3.6-.2.9,0,.2.3.5.2.6,0,0,.2.2-.4.2-.2,0,.3.2.3.2,0,.1,0,.3,0,.4,0,.2-.1.4,0,.5,0,.1.2.3.3.4,0,.1,0,.2,0,.3,0,.1-.3.2-.4.4,0,.1.2.3-.1.4-.5.2-.3.5-.4.8,0,.3-.1.5,0,.8,0,.2-.4.3-.4.4,0,0-1.5.1-2,.1,0,0-.2,0-.2,0-.5-.2-1.2-.4-1.1-.6,0-.3,0-.6,0-.9Z"/>
  </g>
</svg>