<?xml version="1.0" encoding="UTF-8"?>
<svg id="ARTWORK" xmlns="http://www.w3.org/2000/svg" width="600" height="600" viewBox="0 0 600 600">
  <g>
    <path d="M317.8,307.4c1.6,20.2,1.3,40.5-1.1,60.6-.4,3.3-.8,6.6-.4,9.9,0,.7.2,1.4.7,1.9.5.6,1.4.7,2.2.8,13.4,2,26.5,5.3,39.3,9.9.7-3.8.6-7.7.5-11.6-.6-19.7-1.7-39.4.2-59,.2-2.3.5-4.6,0-6.8-.5-2.2-2.1-4.4-4.3-4.9-1.7-.4-3.4,0-5.1.5-5.3,1.3-28.1-2.7-33.6-3" fill="#aaca60"/>
    <path d="M337.9,306.5c1.9.2,3.8.4,5.7.5.9,0,1.9,0,2.8,0,.5,0,.9,0,1.3,0,.2,0,.4,0,.6,0h.5c.2-.1.6-.2,1-.3.4,0,.8-.2,1.1-.2.9-.2,1.8-.4,2.7-.6.5-.1,1.3,0,2.1.4.8.4,1.6,1,2.2,1.6,1.8,1.5,2.8,3.7,3.1,5.8.3,2.1.1,4.1,0,5.9-.3,3.5-.3,7-.4,10.4-.1,3.4-.5,7-.2,10.4.2,2.9-.3,5.5-.1,8.3.2,2.9.3,6,.1,8.9-.1,2.1-.3,4.2-.1,6.3.1,1.3.5,2.5.5,3.9,0,1.3-.2,2.8.5,4,0,0,0,.7-.1,1-.4,1.4-.3,3.2,0,4.4.3,1.2.3,2.2.3,3.3,0,1.5,0,3,0,4.6,0,.8,0,1.6-.1,2.4v1c0,0-.2,1.1-.2,1.1,0,.7-.2,1.4-.4,2.1l-.3,1.5-.2.8h0c0,.1,0,0,0,0h-.2c0,0-.4-.2-.4-.2l-3-1.1c-.5-.2-1-.4-1.5-.6l-.7-.3-.4-.2c-.5-.2-1-.4-1.5-.6-2.2-.8-4.6-1.2-6.5-2.1-2-.9-3.9-1.4-5.9-2-1.1-.3-2.4-.9-3.5-.5-.1,0-.5,0-.7-.2-3.1-1.6-6.6-1.2-9.9-2.1-1.5-.4-3.1-.7-4.7-.9l-2.4-.3c-.4,0-.9,0-1.7-.4-.7-.2-1.4-.6-1.9-1.2-.4-.5-.8-1-1-1.7,0-.2-.1-.4-.2-.6v-.3c0,0,0-.2,0-.2v-.8c-.1-.5-.2-1.1-.5-1.5-.2-.3-.2-1.5,0-2,.7-2.8.8-5.7,1.2-8.4.5-3.1.5-6.2,1.2-9.3.3-1.3.6-3.1,0-4.7-.2-.7.1-2.2.1-3.4,0-.9-.2-1.9-.2-2.8,0-.8.3-1.6.4-2.4,0-.2,0-.5,0-.8-.5-4.6.4-9,.2-13.6-.2-4.6-.3-9.2-.5-13.8,0-2.5,0-5.2.9-7,.5-.8,1-.9,1.4.2.3.8.6,1.7.7,2.6.2,1.5.4,2.9.6,4.3.3,3,1,5.9.8,9,0,1,.3,2.1-.2,2.9,0,.1-.1.5,0,.7.9,4.1.3,8.4.3,12.6,0,3.6.4,7,0,10.6.5,2,.2,4.3-.1,6.3-.6,3.5-1,7-1.4,10.5-.4,3.5-.8,6.9-.4,10v.3s0,0,0,0c0,0,0,.1,0,.2,0,0,.1,0,.2.1,0,0,0,0,.2,0h.5c0,0,2.4.5,2.4.5,1.6.3,3.2.5,4.8.8,3.2.6,6.4,1.3,9.5,2,1.2.3,2.3.2,3.6.8,1.2.6,3,.8,4.5,1.3,1.4.4,2.9.7,4.1,1.2,1.3.6,2.6,1.1,3.9,1.6l2,.7,1.7.6.6.2c.3.2.2-.2.3-.4v-.7c0,0,.2-2,.2-2,.1-2.7,0-5.4,0-8.2,0-2.8-.2-5.6-.4-8.3-.2-3.4-.7-6.7-.6-10.2,0-1.5-.4-3,.2-4.4.2-.4-.3-1.8-.4-2.7,0-2.3,0-4.7,0-7,0-3.3.1-6.5.1-9.8,0-2-.1-4,0-6,0-2.1.2-4.2.4-6.3.2-1.3.3-2.7.5-3.9.2-1.2.3-2.4.2-3.5-.1-2.2-1.6-3.9-2.8-4.4-.6-.3-1.5-.3-2.6-.1-.5,0-1.1.2-1.7.4-.7.1-1.5.2-2.1.2-2.6.1-5,0-7.5-.3-4.8-.5-9.6-1.2-14.3-1.7-2.7-.3-5.1-1.1-7.7-1.5-1.2-.2-2.7-1.8-2.2-2.2.1,0,.3-.2.5-.2,2.7-.2,5.1-.6,8.1-.1,4.3.7,8.7,1.2,13,1.7Z" fill="#aaca60"/>
  </g>
  <g>
    <path d="M317.6,111c0,49.5.2,99,.5,148.6,0,1.5,0,3.1.7,4.4.5,1,1.4,1.7,2.3,2.4,10.7,8.7,24.1,13.1,37.1,17.4.8-38.5,1.7-77,2.5-115.4,20.9-7.6,41.4-16.1,61.6-25.6-7.4-3.9-15.7-5.8-23.8-7.7-25.2-5.9-50.1-13.3-74.4-22" fill="#aaca60"/>
    <path d="M366.3,124.7c7.5,2.2,15,4.2,22.6,6.1,2.8.7,5.6,1.6,8.7,1.8,1.5,0,4.1,1.3,6.8,2,3.6.8,7.2,1.8,10.7,3,.4.2.9.3,1.3.5.5.2.8.3,1.6.6,1.3.5,2.7,1.2,4,1.8l4,2h.3c0,.2.3.2,0,.3l-.5.2-1,.5-2,1c-1.3.6-2.5,1.3-3.9,1.9l-2.9,1.4-4.8,2.3c-3.2,1.5-6.4,3-9.7,4.5-6.5,2.9-13.3,5.4-19.5,8.2-5.4,2.4-10.5,3.9-15.8,5.9-.8.3-1.6.6-2.4.9l-.6.2c-.1,0,0,0-.1,0h0s-.2,0-.2,0v.2s0,1.4,0,1.4c0,1.1,0,2.2,0,3.2,0,2.2-.2,4.3-.3,6.4-.3,4.3-.6,8.5-.6,12.7,0,2.6.3,5.1.2,8,0,2.7-.4,5.7.2,8,0,.2,0,1.4-.2,2-.5,2.9-.5,6.4-.3,8.8.2,2.4.1,4.4.1,6.6,0,6-.2,12-.4,18-.1,4.5-.5,8.9-.6,13.4-.2,4.7,0,9.7-.4,14-.2,2.2-.3,4.3-.4,6.4,0,1.6,0,3.2-.1,4.7v1.3s0,.7,0,.7v.3s0,0,0,0h0s-.2,0-.2,0c-.9-.3-1.7-.6-2.6-.8-1-.3-2-.7-3-1-.6-.2-1.2-.4-1.8-.6-1.2-.4-2.4-.7-3.4-.7-.2,0-1.1-.3-1.4-.5-6.2-3.1-13.1-4.7-19.3-8.5-3.2-2-6.2-4.1-9.2-6.5-.8-.7-1.7-1.5-2.3-2.8-.6-1.2-.8-2.4-.9-3.5,0-1.1,0-2,0-2.9v-2.7c0-1.9.1-4-.3-5.8-.2-.6-.2-2.7,0-3.7.6-5.4.2-11.1.3-16.6.1-6.3-.2-12.6.3-19,.2-2.7.3-6.4-.3-9.6-.3-1.5,0-4.6,0-6.9,0-1.9-.3-3.7-.3-5.6,0-1.6.2-3.2.3-4.8,0-.5,0-1.1,0-1.6-.7-9.2.2-18.4,0-27.7-.2-9.3-.2-18.8-.1-28.2,0-5.2.2-10.5,1.3-14,.5-1.6,1.1-1.6,1.4.6.2,1.6.5,3.5.5,5.3.1,3,.2,5.9.4,8.8.2,6,.8,11.9.5,18.1,0,1.9.2,4.2-.3,5.8,0,.2-.1,1,0,1.4.8,8.2.3,16.8.4,25.2,0,7.1.7,14.1.5,21.3.6,4,.5,8.6.4,12.6-.6,14.1-.1,28.3-.2,42.5v5.4c0,1.8,0,3.3.6,4,.3.4.8.9,1.4,1.4l2,1.6,2.1,1.5,2.2,1.4c5.9,3.7,12.4,6.4,19.1,8.9,2.3.8,4.4,1.2,7,2.3.2,0,.3.1.5.2.1,0,.4.2.4.2,0,0,.1,0,.2.1.1,0,.3.1.5.2,0-.1,0-.3,0-.5v-.2c0-.4,0-.8,0-1.1,0-2.9,0-5.9.2-8.6.9-11.2.7-22.5,1.1-33.8.3-11.2.6-22.5.7-33.7,0-6.8-.2-13.6.1-20.5.1-2.9-.2-6,.5-8.9,0-.4,0-1.2,0-2.2,0-.2,0-.5,0-.7v-.4s0-.7,0-.7c0-.9,0-1.9,0-2.7.2,0,.3-.1.4-.2,2.6-1,5.2-1.9,7.8-2.9l6.6-2.5c6.1-2.3,12.1-4.7,18.1-7.3,3.6-1.6,7.2-3.3,10.8-5,3.8-1.7,7.6-3.4,11.4-5.1l1.8-.8.5-.2c.1,0,0,0,0,0h0c.1,0,.3,0,.5-.1,0,0,0,0,0,0h0s0,0,0,0c0,0-.1,0-.2-.1,0,0-.1,0-.4-.2h-.1c0,0,0,0-.3-.2l-.9-.3c-4.9-1.9-10.5-2.9-15.5-4.4-9.4-2.7-18.9-4.9-28.2-7.5-9.3-2.7-18.6-5.5-27.8-8.3-5.2-1.6-9.8-3.7-14.9-5.5-2.4-.8-5-3.3-3.9-3.5.2,0,.6,0,1,.1,5.1,1.3,9.9,2.2,15.5,4.1,8.4,2.8,16.9,5.4,25.4,7.8Z" fill="#aaca60"/>
  </g>
  <path d="M358.4,451c0-2.4,0-4.9,0-7.3,0-.9.2-1.8-.3-2.8-.3-.5.4-1.3.3-2.2,0-2.3,0-4.6,0-6.8,0-2.2-.3-4.4-.3-6.6,0-2.2.2-4.5,0-6.6-.3-1.8.2-3.5.1-5.2-.1-1.9-.2-3.8,0-5.6.2-1.3.4-2.6.3-4,0-.8-.4-1.6-.4-2.5,0-.8.3-1.8-.3-2.5,0,0,0-.4.1-.6.4-.9.4-2,.1-2.8-.3-.7-.2-1.4-.3-2.1,0-1.9,0-3.8,0-5.6,0-1.4.3-2.8.3-4.2,0-1.5-.2-3,0-4.4.3-1.4.3-2.7.3-4,0-.8.3-1.6-.3-2.3,0,0,0-.3,0-.5.8-2.2-.3-4.3,0-6.5.2-2.2,0-4.6,0-6.8,0-.6.2-1.3-.3-1.8-.2-.2-.2-.8,0-1.1.6-1.7.2-3.5.4-5.2.1-2-.2-3.9.3-5.9.2-.8.3-2-.3-3-.3-.5,0-1.4,0-2.2,0-.6-.3-1.2-.3-1.8,0-.5.2-1,.3-1.5,0-.2,0-.3,0-.5-.7-2.9.2-5.7,0-8.6-.2-2.9-.1-5.9,0-8.8,0-1.6.2-3.3,1.4-4.4.5-.5,1.1-.5,1.4.2.2.5.5,1.1.5,1.7,0,.9.2,1.8.3,2.7.2,1.9.7,3.7.4,5.7,0,.6.2,1.3-.3,1.8,0,0-.1.3,0,.4.8,2.6.3,5.3.3,7.9,0,2.2.7,4.4.4,6.6.6,1.2.5,2.7.3,3.9-.7,4.4-.2,8.8-.3,13.3,0,4.5,0,9,0,13.4,0,.8.4,1.4,0,2.3-.3.8,0,1.9,0,2.9s.1,1.8,0,2.7c-.7,3.5-.3,7-.3,10.6,0,3.5-.1,7,0,10.5,0,2.1.4,4.3.3,6.4,0,.9.3,1.9-.3,2.8-.2.3.3,1.1.3,1.7,0,1.5,0,2.9,0,4.4s0,4.1,0,6.1c0,1.2.3,2.5.3,3.7,0,1.3,0,2.6,0,3.9,0,1.6-.3,3.3-.3,4.9,0,1.7.2,3.5,0,5.1-.5,3-.3,6.1-.3,9.1,0,3-.1,6,0,9,0,1.7-.4,3.3-.4,4.9,0,.8-1.5,1.8-2,1.5,0,0-.2-.2-.2-.3-.5-1.6-1.2-3.1-1.1-5,0-2.8,0-5.5,0-8.3Z" fill="#aaca60"/>
  <path d="M362.7,178.4c0,1.9,0,3.8,0,5.7,0,.7-.2,1.4.3,2.2.3.4-.4,1.1-.3,1.7,0,1.8,0,3.6,0,5.4,0,1.7.3,3.5.3,5.2,0,1.7-.2,3.5,0,5.2.3,1.4-.2,2.7-.1,4.1.1,1.5.2,3,0,4.4-.2,1-.4,2.1-.3,3.1,0,.6.4,1.2.4,2,0,.7-.3,1.4.3,2,0,0,0,.3-.1.5-.4.7-.4,1.6-.1,2.2.3.6.2,1.1.3,1.6,0,1.5,0,2.9,0,4.4,0,1.1-.3,2.2-.3,3.3,0,1.1.2,2.4,0,3.4-.3,1.1-.3,2.1-.3,3.1,0,.6-.3,1.3.3,1.8,0,0,0,.3,0,.4-.8,1.7.3,3.3,0,5.1-.2,1.8,0,3.6,0,5.4,0,.5-.2,1,.3,1.4.2.2.2.7,0,.9-.6,1.3-.2,2.7-.4,4.1-.1,1.5.2,3.1-.3,4.7-.2.7-.3,1.6.3,2.3.3.4,0,1.1,0,1.7,0,.5.3.9.3,1.4,0,.4-.2.8-.3,1.2,0,.1,0,.3,0,.4.7,2.3-.2,4.5,0,6.8.2,2.3.1,4.6,0,6.9,0,1.3-.2,2.6-1.4,3.4-.5.4-1.1.4-1.4-.1-.2-.4-.5-.8-.5-1.3,0-.7-.2-1.4-.3-2.1-.2-1.5-.7-2.9-.4-4.4,0-.5-.2-1,.3-1.4,0,0,.1-.2,0-.3-.8-2-.3-4.1-.3-6.2,0-1.7-.7-3.4-.4-5.2-.6-1-.5-2.1-.3-3.1.7-3.5.2-6.9.3-10.4,0-3.5,0-7,0-10.5,0-.6-.4-1.1,0-1.8.3-.7,0-1.5,0-2.3s-.1-1.4,0-2.1c.7-2.7.3-5.5.3-8.3,0-2.7.1-5.5,0-8.2,0-1.7-.4-3.3-.3-5,0-.7-.3-1.5.3-2.2.2-.2-.3-.9-.3-1.3,0-1.1,0-2.3,0-3.4s0-3.2,0-4.8c0-1-.3-1.9-.3-2.9,0-1,0-2,0-3.1,0-1.3.3-2.6.3-3.9,0-1.3-.2-2.7,0-4,.5-2.4.3-4.8.3-7.1,0-2.4.1-4.7,0-7.1,0-1.3.4-2.6.4-3.9,0-.6,1.5-1.4,2-1.2,0,0,.2.1.2.2.5,1.3,1.2,2.5,1.1,3.9,0,2.2,0,4.3,0,6.5Z" fill="#aaca60"/>
  <path d="M317.1,122.6c0,2.5,0,5,0,7.5,0,.9-.2,1.9.3,2.9.3.5-.4,1.4-.3,2.2,0,2.3,0,4.7,0,7,0,2.3.3,4.5.3,6.8,0,2.2-.2,4.6,0,6.7.3,1.9-.2,3.6-.1,5.4.1,1.9.2,3.9,0,5.7-.2,1.4-.4,2.7-.3,4.1,0,.8.4,1.6.4,2.6,0,.9-.3,1.8.3,2.6,0,0,0,.4-.1.6-.4.9-.4,2-.1,2.8.3.8.2,1.4.3,2.1,0,1.9,0,3.8,0,5.8,0,1.4-.3,2.9-.3,4.3,0,1.5.2,3.1,0,4.5-.3,1.4-.3,2.7-.3,4.1,0,.8-.3,1.7.3,2.3,0,0,0,.3,0,.5-.8,2.2.3,4.4,0,6.6-.2,2.3,0,4.7,0,7,0,.6-.2,1.3.3,1.9.2.2.2.9,0,1.2-.6,1.7-.2,3.5-.4,5.3-.1,2,.2,4-.3,6.1-.2.9-.3,2,.3,3.1.3.5,0,1.5,0,2.2,0,.6.3,1.2.3,1.8,0,.5-.2,1-.3,1.5,0,.2,0,.3,0,.5.7,3-.2,5.9,0,8.9.2,3,.1,6,0,9,0,1.7-.2,3.4-1.4,4.5-.5.5-1.1.5-1.4-.2-.2-.5-.5-1.1-.5-1.7,0-.9-.2-1.9-.3-2.8-.2-1.9-.7-3.8-.4-5.8,0-.6-.2-1.3.3-1.8,0,0,.1-.3,0-.4-.8-2.6-.3-5.4-.3-8.1,0-2.3-.7-4.5-.4-6.8-.6-1.3-.5-2.8-.3-4,.7-4.5.2-9.1.3-13.6,0-4.6,0-9.2,0-13.8,0-.8-.4-1.5,0-2.4.3-.9,0-2,0-3s-.1-1.9,0-2.7c.7-3.6.3-7.2.3-10.8,0-3.6.1-7.2,0-10.8,0-2.2-.4-4.4-.3-6.6,0-.9-.3-1.9.3-2.9.2-.3-.3-1.1-.3-1.7,0-1.5,0-3,0-4.5s0-4.2,0-6.3c0-1.3-.3-2.5-.3-3.8,0-1.3,0-2.7,0-4,0-1.7.3-3.4.3-5.1,0-1.7-.2-3.6,0-5.2.5-3.1.3-6.2.3-9.3,0-3.1.1-6.2,0-9.3,0-1.7.4-3.3.4-5.1,0-.8,1.5-1.9,2-1.5,0,0,.2.2.2.3.5,1.7,1.2,3.2,1.1,5.1,0,2.8,0,5.7,0,8.5Z" fill="#aaca60"/>
  <path d="M317.1,309.5c0,1.3,0,2.6,0,3.8,0,.5-.2,1,.3,1.5.3.2-.4.7-.3,1.1,0,1.2,0,2.4,0,3.6,0,1.2.3,2.3.3,3.5,0,1.1-.2,2.3,0,3.4.3,1-.2,1.8-.1,2.7.1,1,.2,2,0,2.9-.2.7-.4,1.4-.3,2.1,0,.4.4.8.4,1.3,0,.4-.3.9.3,1.3,0,0,0,.2-.1.3-.4.5-.4,1-.1,1.4.3.4.2.7.3,1.1,0,1,0,2,0,2.9,0,.7-.3,1.5-.3,2.2,0,.8.2,1.6,0,2.3-.3.7-.3,1.4-.3,2.1,0,.4-.3.9.3,1.2,0,0,0,.2,0,.2-.8,1.1.3,2.2,0,3.4-.2,1.2,0,2.4,0,3.6,0,.3-.2.7.3.9.2.1.2.4,0,.6-.6.9-.2,1.8-.4,2.7-.1,1,.2,2.1-.3,3.1-.2.4-.3,1,.3,1.6.3.2,0,.7,0,1.1,0,.3.3.6.3.9,0,.3-.2.5-.3.8,0,0,0,.2,0,.3.7,1.5-.2,3,0,4.5.2,1.5.1,3.1,0,4.6,0,.8-.2,1.7-1.4,2.3s-1.1.3-1.4,0c-.2-.3-.5-.6-.5-.9,0-.5-.2-1-.3-1.4-.2-1-.7-1.9-.4-2.9,0-.3-.2-.7.3-.9,0,0,.1-.2,0-.2-.8-1.3-.3-2.7-.3-4.1,0-1.2-.7-2.3-.4-3.5-.6-.6-.5-1.4-.3-2.1.7-2.3.2-4.6.3-6.9,0-2.3,0-4.7,0-7,0-.4-.4-.7,0-1.2.3-.4,0-1,0-1.5s-.1-1,0-1.4c.7-1.8.3-3.7.3-5.5,0-1.8.1-3.7,0-5.5,0-1.1-.4-2.2-.3-3.3,0-.5-.3-1,.3-1.5.2-.1-.3-.6-.3-.9,0-.8,0-1.5,0-2.3s0-2.1,0-3.2c0-.6-.3-1.3-.3-1.9,0-.7,0-1.4,0-2,0-.9.3-1.7.3-2.6,0-.9-.2-1.8,0-2.7.5-1.6.3-3.2.3-4.7,0-1.6.1-3.1,0-4.7,0-.9.4-1.7.4-2.6,0-.4,1.5-1,2-.8,0,0,.2,0,.2.2.5.9,1.2,1.6,1.1,2.6,0,1.4,0,2.9,0,4.3Z" fill="#aaca60"/>
  <path d="M418.3,141c-1.8-.6-3.6-1.2-5.5-1.7-.7-.2-1.3-.7-2.2-.4-.4.1-.9-.7-1.5-.8-1.7-.5-3.4-1.1-5.1-1.6-1.7-.5-3.4-.8-5.1-1.2-1.7-.4-3.3-1.3-5-1.4-1.5-.2-2.6-1-3.9-1.3-1.4-.3-2.9-.7-4.2-1.3-1-.5-1.9-1-2.9-1.2-.6-.1-1.3,0-2-.2-.6-.2-1.3-.7-2-.2,0,0-.3-.2-.4-.3-.6-.6-1.4-.8-2-.7-.6,0-1.1,0-1.6-.2-1.4-.4-2.8-.8-4.2-1.2-1-.4-2-.9-3.1-1.2-1.1-.4-2.3-.4-3.3-1-.9-.6-1.9-.8-2.9-1.1-.6-.2-1.2-.6-1.8-.2,0,0-.3,0-.4,0-1.4-1.3-3.3-.7-4.9-1.3-1.6-.7-3.4-1-5.2-1.5-.5-.1-.9-.4-1.5-.1-.2.1-.7,0-.9-.2-1.1-1-2.6-1-3.8-1.4-1.5-.5-3-.6-4.4-1.5-.6-.4-1.4-.7-2.3-.4-.4.2-1.1-.3-1.7-.4-.5,0-1,0-1.4,0-.4,0-.7-.4-1.1-.6-.1,0-.2-.1-.4,0-2.4,0-4.3-1.4-6.6-1.8-2.3-.4-4.5-1.1-6.7-1.7-1.2-.4-2.4-.9-3-2.2-.2-.6-.1-1.1.5-1.3.4-.1.9-.2,1.4-.2.7,0,1.5.1,2.2.2,1.5.2,3,0,4.4.7.4.2,1,0,1.3.6,0,0,.2.2.3.2,2.2-.3,4.1.8,6.1,1.3,1.7.4,3.5.2,5.2,1,1.1-.4,2.2,0,3.1.5,3.2,1.6,6.7,2,10,3.1,3.4,1,6.8,1.9,10.2,2.9.6.2,1.2,0,1.8.4.6.4,1.4.5,2.2.7.7.2,1.4.3,2,.6,2.5,1.4,5.3,1.8,7.9,2.6,2.6.8,5.3,1.7,8,2.3,1.6.4,3.3.5,4.9,1.1.7.3,1.5.2,2,.9.1.2.9,0,1.4,0,1.1.3,2.2.7,3.3,1,1.5.5,3.1,1,4.6,1.4.9.3,1.9.3,2.9.5,1,.2,2,.6,2.9.9,1.2.5,2.4,1,3.6,1.5,1.3.5,2.7.6,3.8,1.3,2.1,1.2,4.5,1.7,6.7,2.5,2.2.8,4.5,1.5,6.8,2.2,1.3.3,2.3,1.2,3.6,1.6.6.2.9,1.8.5,2.2,0,0-.2.1-.3.1-1.4,0-2.7.4-4.1-.1-2-.7-4.1-1.4-6.2-2Z" fill="#aaca60"/>
  <path d="M354,394c-.7-.2-1.4-.5-2.1-.6-.3,0-.4-.4-.9,0-.2.2-.3-.5-.5-.5-.7-.1-1.3-.4-2-.6-.6-.1-1.3-.1-2-.3-.6-.1-1.2-.6-1.9-.5-.6.1-.9-.5-1.5-.6-.6,0-1.1-.1-1.6-.5-.3-.3-.6-.6-1-.6-.3,0-.6.2-.8.1-.2,0-.4-.4-.8.1,0,0-.1,0-.1-.2-.1-.5-.5-.5-.8-.3-.3.2-.5.1-.7,0-.5-.1-1.1-.3-1.6-.5-.4-.2-.7-.5-1.1-.7-.4-.2-.9,0-1.2-.4-.3-.4-.7-.5-1.1-.6-.2,0-.4-.4-.7.2,0,0-.1,0-.1,0-.4-1-1.3,0-1.9-.5-.6-.4-1.3-.4-2-.6-.2,0-.3-.3-.6.1,0,.1-.3.1-.3,0-.3-.7-.9-.5-1.4-.7-.5-.3-1.2-.1-1.6-.8-.2-.3-.5-.5-.9,0-.2.2-.4-.1-.6-.1-.2,0-.4.2-.6.2-.1,0-.2-.3-.3-.4,0,0,0,0-.1,0-1,.4-1.6-.7-2.5-.7-.9,0-1.7-.3-2.5-.6-.5-.2-.9-.5-.9-1.7,0-.5.1-1.1.4-1.3.2-.2.4-.4.6-.4.3,0,.6,0,.9-.1.6,0,1.3-.4,1.7,0,.2.1.4-.1.4.4,0,0,0,.1.1.1.9-.6,1.6.1,2.4.3.7.1,1.4-.3,2,.1.5-.5.9-.3,1.2,0,1.1,1,2.5.9,3.8,1.3,1.3.4,2.6.7,3.9,1.1.2,0,.5-.2.7.1.2.3.5.2.8.3.3,0,.6,0,.8.2.8.9,2,.8,2.9,1.2,1,.4,2,.7,3,.9.6,0,1.3,0,1.9.2.2.1.6-.1.7.5,0,.2.4-.2.6-.1.4,0,.8.2,1.3.4.6.2,1.2.4,1.8.5.4,0,.8,0,1.2,0,.4,0,.8.2,1.1.3.4.2.9.6,1.3.8.5.2,1.1.1,1.4.5.7.8,1.7.8,2.5,1.1.8.3,1.7.6,2.6.8.5,0,.8.7,1.3.9.2,0,0,1.6-.2,2,0,0-.1.2-.2.2-.6.3-1.3.8-1.8.6-.8-.3-1.6-.5-2.3-.8Z" fill="#aaca60"/>
  <path d="M324.5,273.6c-1.2-.9-2.3-1.8-3.4-2.7-.4-.3-.7-.9-1.5-.8-.4,0-.4-.8-.8-1.1-1.1-.8-2.1-1.7-3.2-2.6-1.1-.8-2.2-1.5-3.3-2.3-1-.8-1.9-1.9-3.1-2.4-1-.5-1.4-1.5-2.3-2.1-.9-.6-1.9-1.3-2.5-2.2-.5-.6-1-1.3-1.6-1.7-.4-.3-1-.3-1.4-.7-.4-.3-.6-.9-1.4-.7,0,0-.2-.2-.2-.4-.1-.7-.7-1.1-1.2-1.1-.5,0-.8-.3-1.1-.6-.9-.7-1.7-1.4-2.6-2.1-.6-.6-1.1-1.3-1.7-1.8-.6-.6-1.5-1-2-1.7-.4-.7-1-1.2-1.7-1.7-.3-.3-.6-.8-1.3-.6,0,0-.2,0-.2-.2-.5-1.4-2.1-1.4-3-2.3-.9-1-2.1-1.7-3.2-2.5-.3-.2-.5-.6-1-.4-.2,0-.5-.2-.6-.4-.4-1.1-1.5-1.4-2.2-2.1-.9-.8-2-1.2-2.7-2.3-.3-.5-.8-.9-1.6-.8-.4,0-.7-.5-1.1-.6-.3-.1-.7,0-1-.3-.2-.2-.4-.5-.6-.8,0,0-.1-.1-.2-.1-1.8-.3-2.7-1.9-4.3-2.5-1.5-.6-3-1.3-4.3-1.6-.4,0-.7-.2-1-.4-.1,0-.3-.2-.4-.4-.2-.2-.3-.4-.5-.6-.4-.4-.7-.9-.3-1.4.3-.3.7-.6,1.1-.7.7-.1,1.3-.2,1.9-.1,1.3,0,2.6,0,3.6.8.3.2.9.1.9.7,0,0,.1.2.2.2,1.8,0,3,1.3,4.4,2.1,1.2.7,2.6.8,3.6,1.8,1-.1,1.6.5,2.2,1.1,1.8,2.1,4.2,3.3,6.3,5,2.1,1.7,4.2,3.3,6.3,5,.4.3.9.3,1.1.8.2.5.9.8,1.3,1.1.4.3.9.6,1.2,1,1.2,1.8,3.1,2.9,4.7,4.2,1.6,1.4,3.1,2.8,4.8,4,1,.7,2.2,1.3,3.1,2.2.4.4,1,.5,1.1,1.3,0,.2.7.2,1,.4.7.5,1.3,1.1,2,1.7.9.8,1.8,1.6,2.8,2.3.6.4,1.3.7,1.9,1.1.6.4,1.2.9,1.8,1.5.7.7,1.3,1.5,2,2.1.7.7,1.7,1.1,2.3,2,1.1,1.5,2.6,2.5,4,3.6,1.4,1.1,2.7,2.3,4.2,3.2.8.5,1.3,1.5,2.1,2,.4.3,0,1.8-.4,2.1,0,0-.2,0-.3,0-1.1-.2-2.2-.1-3.1-.8-1.3-1-2.7-2-4-3Z"/>
  <path d="M353.9,288.9c-.4-.1-.9-.3-1.4-.4-.2,0-.3-.3-.6.1-.2.2-.1-.4-.3-.5-.4,0-.8-.3-1.3-.4-.4-.1-.9,0-1.4-.2-.4-.1-.7-.6-1.2-.4-.4,0-.5-.5-.9-.5-.4,0-.8-.1-1-.5-.2-.3-.3-.6-.6-.6-.2,0-.4.2-.6.1-.1,0-.2-.4-.6,0,0,0,0,0,0-.2,0-.4-.2-.5-.4-.3-.2.2-.3,0-.5,0-.3-.1-.6-.3-.9-.5-.2-.2-.3-.5-.5-.7-.2-.2-.6,0-.7-.4,0-.4-.3-.5-.5-.6-.1,0-.2-.4-.5.1,0,0,0,0,0,0,0-.9-.8,0-1.1-.5-.3-.4-.7-.4-1.1-.6-.1,0-.1-.3-.4.1,0,.1-.2.1-.2,0,0-.7-.6-.5-.8-.8-.3-.3-.8-.2-.9-.8,0-.3-.2-.5-.6,0-.2.2-.2-.1-.4-.1-.1,0-.3.2-.4.1,0,0,0-.3,0-.4,0,0,0,0,0,0-.7.4-.7-.6-1.2-.6-.5,0-.8-.2-1.1-.3-.2,0-.4-.3-.5-1.4,0-.5,0-1.1.1-1.4.1-.2.3-.4.4-.5.2,0,.4-.2.6-.2.4-.1,1-.5,1.4-.1.1.1.4-.1.3.4,0,0,0,.1,0,.1.8-.5,1.2.2,1.7.4.4.2,1.1-.2,1.4.3.5-.4.7-.2.8,0,.2.5.5.7.8.8.3.1.7.2,1.1.4.8.4,1.6.7,2.3,1.1.1,0,.4-.2.4.1,0,.3.3.2.5.3.2,0,.4,0,.5.2.3.9,1.1.8,1.7,1.2.6.4,1.1.7,1.8.9.4,0,.9,0,1.2.3.1.1.4,0,.3.5,0,.2.3-.2.4-.1.3,0,.5.2.7.3.3.2.6.3,1,.4.2,0,.5,0,.7,0,.2,0,.5.1.6.3.2.2.4.5.7.6.3.2.7,0,.9.4.4.7,1,.6,1.5.8.5.2,1,.4,1.6.5.3,0,.5.6.8.7.1,0,0,1.5-.3,2,0,0,0,.2-.1.2-.4.4-.9,1-1.3.8-.5-.2-1-.3-1.5-.5Z"/>
  <path d="M310.3,302.9c-.8-.4-1.6-.9-2.5-1.3-.3-.1-.5-.5-1.1-.2-.3.1-.3-.6-.6-.7-.8-.3-1.5-.9-2.3-1.2-.8-.4-1.6-.6-2.4-1-.8-.4-1.4-1.1-2.2-1.2-.8-.1-1-.9-1.7-1.1-.7-.3-1.4-.6-1.8-1.1-.3-.4-.7-.9-1.1-1-.3-.1-.7,0-1-.2-.3-.2-.4-.6-1-.2,0,0-.1-.1-.1-.3,0-.5-.4-.7-.8-.7-.4,0-.6,0-.8-.2-.6-.4-1.2-.7-1.8-1.2-.4-.3-.7-.8-1.2-1.2-.4-.4-1.1-.5-1.4-1-.3-.5-.7-.8-1.1-1.1-.2-.2-.4-.6-.9-.2,0,0-.1,0-.1-.1-.2-1.1-1.5-.7-2.1-1.4-.6-.7-1.4-1.1-2.1-1.6-.2-.1-.3-.4-.7-.2-.2,0-.4,0-.4-.2-.2-.9-.9-1-1.4-1.5-.5-.6-1.3-.8-1.6-1.6-.1-.4-.4-.7-1.1-.5-.3.1-.4-.3-.7-.5-.2-.1-.6,0-.7-.2-.2-.1-.2-.4-.2-.6,0,0,0-.1-.1-.1-1.3-.2-1.6-1.5-2.6-2.1-1-.6-1.8-1.3-2.6-2.1-.4-.4-.8-1-.4-2.1.2-.5.6-.9,1-1,.3,0,.6,0,.8,0,.3.1.7.3,1,.4.7.3,1.5.3,1.9,1,.1.2.5.1.3.7,0,0,0,.2,0,.2,1.3,0,1.7,1,2.5,1.6.7.5,1.7.5,2.2,1.2.8-.2,1.1.2,1.4.6.9,1.5,2.5,2.2,3.8,3.2,1.3,1.1,2.7,2,4.1,3,.2.2.6,0,.8.4.1.4.6.5.9.7.3.2.6.3.8.6.7,1.3,2.1,1.7,3.1,2.5,1.1.8,2.2,1.6,3.4,2.1.7.3,1.6.5,2.2,1,.3.2.8.1.7.8,0,.2.5,0,.7,0,.5.2,1,.6,1.4.8.7.4,1.3.8,2,1.2.4.2.9.2,1.4.4.5.2.9.4,1.3.7.5.4.9.9,1.4,1.2.5.4,1.3.5,1.7,1,.8,1,1.9,1.3,2.9,1.9,1,.6,2,1.2,3,1.5.6.2.9.9,1.5,1.2.3.1,0,1.6-.4,2,0,0-.2.1-.2.2-.8.1-1.6.5-2.2.2-.9-.5-1.9-1-2.8-1.5Z"/>
  <path d="M354.9,309.7c-.7,0-1.5-.1-2.2,0-.3,0-.5-.3-.9.3-.2.3-.4-.4-.7-.4-.7,0-1.4,0-2.1,0-.7,0-1.4.2-2,.3-.7,0-1.4-.3-2,0-.6.3-1.1-.3-1.6-.2-.6.1-1.2.2-1.7-.1-.4-.2-.8-.4-1.2-.3-.3,0-.5.4-.8.3-.3,0-.5-.3-.8.3,0,0-.1,0-.2-.2-.3-.4-.6-.4-.8-.2-.2.3-.4.2-.7.2-.6,0-1.2,0-1.8-.1-.4,0-.8-.4-1.3-.5-.4-.1-1,.1-1.4-.2-.4-.4-.8-.4-1.2-.4-.2,0-.5-.3-.7.3,0,0-.1,0-.1,0-.6-.9-1.4,0-2-.2-.7-.3-1.4-.3-2.1-.4-.2,0-.4-.2-.6.2,0,.1-.3.1-.4,0-.4-.7-1-.5-1.5-.7-.6-.2-1.3,0-1.8-.7-.2-.3-.5-.5-1,0-.2.2-.4-.1-.7-.1-.2,0-.4.2-.6.2-.2,0-.2-.3-.4-.4,0,0,0,0-.1,0-1,.4-1.7-.7-2.6-.8-.9,0-1.8-.4-2.6-.8-.5-.2-.9-.5-.9-1.7,0-.5.2-1.1.5-1.3.2-.2.5-.3.6-.4.3,0,.6,0,.9,0,.6,0,1.3-.4,1.8,0,.1.1.4,0,.4.4,0,0,0,.1.1.1,1-.6,1.6.2,2.4.3.7.1,1.4-.3,2,0,.5-.5.9-.3,1.2,0,1.1.9,2.5.8,3.8,1.1,1.3.3,2.6.4,4,.7.2,0,.5-.3.7,0,.2.3.6.1.9.2.3,0,.6,0,.8.1,1,.8,2.1.5,3.1.6,1.1.1,2.1.3,3.2.2.7,0,1.3-.4,2-.2.3,0,.6-.3.8.3,0,.2.4-.3.5-.3.4,0,.9,0,1.3,0,.6,0,1.2,0,1.9,0,.4,0,.8-.3,1.1-.3.4,0,.8,0,1.2,0,.5,0,1,.3,1.5.4.5,0,1.1-.2,1.6.1.9.5,1.9.3,2.8.4.9.1,1.9.2,2.8.1.5,0,1,.5,1.5.5.2,0,.5,1.5.3,2,0,0,0,.2-.1.2-.5.4-1,1.1-1.6,1-.8-.1-1.7-.1-2.5-.2Z"/>
  <path d="M372.6,287.6c-.3,0-.7,0-1,0-.1,0-.2-.2-.4.3,0,.3-.2-.4-.3-.3-.3,0-.6,0-.9,0-.3,0-.6.3-.9.4-.3,0-.6-.2-.9.1-.2.3-.5-.2-.7,0-.2.1-.5.2-.8,0-.2-.2-.4-.4-.5-.3-.1,0-.2.4-.3.4-.1,0-.2-.3-.3.3,0,0,0,0,0-.1-.1-.4-.3-.4-.4,0,0,.3-.2.2-.3.3-.3,0-.5,0-.8,0-.2,0-.4-.3-.6-.3-.2,0-.4.2-.6,0-.2-.3-.4-.3-.5-.3-.1,0-.2-.3-.3.4,0,0,0,0,0,0-.3-.8-.6.3-.9,0-.3-.2-.6,0-.9,0,0,0-.2-.2-.2.3,0,.2-.1.2-.2,0-.3-.6-.5-.2-.7-.3-.3-.1-.5.2-.8-.3-.1-.2-.3-.3-.4.3,0,.3-.2,0-.3,0,0,0-.1.3-.2.3,0,0-.1-.2-.2-.3,0,0,0,0,0,0-.3.7-.8-.2-1.2,0-.4.2-.8.2-1.2,0-.2,0-.5-.2-.7-1.3-.1-.5-.1-1.1,0-1.4,0-.2.1-.5.2-.5.1-.1.2-.2.4-.4.2-.2.5-.8.7-.5,0,0,.2-.2.3.3,0,0,0,.1,0,0,.3-.8.7-.3,1.1-.4.3,0,.6-.7.9-.5.1-.6.3-.5.5-.4.6.6,1.2.2,1.8.2.6,0,1.2,0,1.8,0,.1,0,.2-.4.3,0,.1.3.3,0,.4,0,.1,0,.2-.1.4,0,.5.6,1,.2,1.5.3.5,0,1,.1,1.4,0,.3-.1.6-.5.9-.3.1,0,.3-.3.4.3,0,.2.1-.3.2-.3.2,0,.4,0,.6,0,.3,0,.6,0,.8,0,.2,0,.3-.3.5-.3.2,0,.4,0,.5,0,.2,0,.5.3.7.3.2,0,.5-.2.7,0,.4.5.8.2,1.3.3.4,0,.8.1,1.2,0,.2,0,.4.4.7.4.1,0,.2,1.5.2,2,0,0,0,.2,0,.2-.2.5-.4,1.2-.7,1.1-.4,0-.7,0-1.1,0Z"/>
  <path d="M386.3,305.1c-.2-.2-.4-.5-.6-.7,0,0,0-.3-.5,0-.2.1.2-.4,0-.4-.2-.2-.4-.4-.6-.6-.2-.2-.6-.2-.8-.4-.2-.2-.2-.6-.6-.5-.4,0-.2-.5-.4-.5-.3,0-.5-.2-.5-.5,0-.2,0-.5-.2-.6-.1,0-.4.1-.5,0,0,0,0-.4-.5,0,0,0,0,0,0-.2.2-.4,0-.5-.2-.3-.3.1-.3,0-.4,0-.2-.1-.4-.3-.5-.5,0-.2,0-.4-.2-.6,0-.2-.4,0-.4-.4,0-.3,0-.4-.2-.6,0,0,0-.4-.4,0,0,0,0,0,0,0,.3-.8-.6-.2-.7-.5,0-.3-.4-.4-.6-.6,0,0,0-.2-.4,0-.1.1-.2,0-.2,0,.2-.6-.2-.5-.3-.7-.1-.3-.5-.2-.4-.7,0-.2,0-.4-.5,0-.2.2-.1-.1-.3-.1,0,0-.3.2-.4.1,0,0,0-.3,0-.4,0,0,0,0,0,0-.7.3-.4-.6-.8-.7-.4,0-.7-.4-.9-.7-.1-.2-.2-.4.4-1.5.3-.5.6-.9.8-1.1.2-.2.4-.3.5-.3.2,0,.3,0,.5,0,.3,0,.8-.3.9,0,0,.1.3,0,0,.4,0,0,0,.1,0,0,.8-.4.7.2,1,.4.3.1.9-.2,1,.2.5-.4.6-.2.6,0,0,.9.8.9,1.2,1.4.4.5.9.8,1.3,1.2,0,0,.4-.1.3.2,0,.3.2.2.3.3,0,0,.3,0,.3.3,0,.8.5.8.8,1.2.3.4.6.7,1,1,.3.1.7,0,.8.4,0,.1.4,0,0,.5,0,.1.3,0,.4,0,.2.1.3.3.4.4.2.2.4.4.6.6.1,0,.4,0,.6.1.2,0,.3.2.4.4,0,.2,0,.5.2.7.1.2.5.2.4.5-.1.6.4.8.6,1.1.2.3.5.7.8.9.2.1,0,.6.1.8,0,0-1,1.1-1.4,1.4,0,0-.2.1-.2.1-.5.1-1.2.5-1.3.3-.2-.3-.4-.6-.7-.8Z"/>
  <path d="M362.6,319c-.1-.2-.3-.3-.4-.5,0,0,0-.3-.4,0-.2.1.2-.3.1-.4-.2,0-.2-.3-.4-.4-.2-.1-.5-.1-.6-.2-.2-.1,0-.4-.4-.4-.3,0,0-.4-.2-.4-.2,0-.4-.1-.3-.4,0-.2.2-.4,0-.4,0,0-.4.1-.4,0,0,0,.2-.3-.4,0,0,0,0,0,0-.1.3-.3.2-.4,0-.3-.3,0-.3,0-.3,0-.1-.1-.2-.2-.3-.4,0-.1.1-.4.1-.5,0-.1-.3-.1-.1-.4.2-.3.1-.3,0-.4,0,0,.2-.3-.4,0,0,0,0,0,0,0,.6-.6-.4-.2-.3-.5,0-.3-.1-.4-.2-.5,0,0,.1-.2-.3,0-.2,0-.2,0-.1,0,.5-.4,0-.4.1-.6,0-.2-.3-.2,0-.6.2-.2.2-.3-.4-.1-.3,0,0-.1-.1-.1,0,0-.3,0-.4,0,0,0,.2-.2.3-.3,0,0,0,0,0,0-.7,0,0-.5-.2-.7-.3-.2-.3-.4-.3-.7,0-.1.1-.3,1.2-.8.5-.2,1-.4,1.3-.5.2,0,.5,0,.5,0,.1,0,.3,0,.4,0,.2,0,.8,0,.6.2,0,0,.2,0-.2.2,0,0,0,0,0,0,.8-.1.4.3.5.4.1.1.8,0,.6.3.6-.2.6,0,.4.1-.5.6,0,.7.1,1,0,.3.3.6.4.9,0,0,.4,0,.1.1-.2.2,0,.1,0,.2,0,0,.2,0,0,.2-.4.6,0,.6.1.8,0,.3.2.5.4.6.2,0,.5,0,.5.2,0,0,.3,0-.1.3-.1.1.3-.1.3,0,.1,0,.1.2.2.2,0,.1.1.3.3.3,0,0,.3,0,.4,0,.1,0,.2.1.2.2,0,.1,0,.4,0,.5,0,.1.3,0,.2.3-.2.5.1.5.2.7.1.2.2.4.5.5.1,0-.1.5,0,.6,0,0-1,1.1-1.3,1.5,0,0-.2.1-.2.1-.4.2-1,.6-1.1.5-.1-.2-.3-.4-.5-.5Z"/>
  <path d="M369.8,317.5c0,0-.2,0-.2.1,0,0-.1-.2,0,.3,0,.3-.2-.3-.2-.3,0,0-.1,0-.2.1,0,0,0,.3,0,.4,0,0-.2-.2-.2.2,0,.3-.2-.2-.2,0,0,.1,0,.2-.2,0-.1-.1-.2-.3-.2-.2,0,0,0,.4,0,.4,0,0-.2-.2,0,.3,0,0,0,0,0-.1-.2-.4-.2-.3-.1,0,0,.3,0,.2,0,.3,0,0,0,.1-.2,0,0,0-.2-.2-.3-.3,0,0,0,.2-.2,0-.2-.3-.2-.2-.2-.2,0,0-.2-.2,0,.3,0,0,0,0,0,0-.4-.7,0,.3-.2.1-.1-.2-.2,0-.2,0,0,0-.1-.1,0,.3,0,.2,0,.2,0,0-.3-.6-.2-.2-.3-.3-.1,0,0,.2-.3-.2-.1-.2-.2-.3,0,.3,0,.3,0,0,0,0,0,0,0,.3,0,.3,0,0-.1-.2-.2-.3,0,0,0,0,0,0,.2.7-.3-.1-.3,0,0,.2-.1.2-.3.1,0,0-.2-.2-.6-1.2-.2-.5-.4-1-.5-1.3,0-.2-.1-.4-.1-.5,0,0,0-.2,0-.3,0-.2-.2-.7,0-.5,0,0,0-.2.2.3,0,0,0,0,0,0-.2-.8,0-.3.1-.4,0,0-.1-.7,0-.5-.2-.6-.1-.5,0-.4.4.6.4,0,.5.1.2,0,.3-.1.4-.1,0,0,0-.3,0,0,.1.2,0,0,.1,0,0,0,0-.1,0,0,.4.6.3.2.4.2.1,0,.3,0,.3-.2,0-.1,0-.5,0-.4,0,0,0-.3.2.3,0,.2,0-.3,0-.3,0,0,0,0,.1,0,0,0,.1,0,.2,0,0,0,0-.3,0-.4,0,0,0,0,.1,0,0,0,.2.2.3.3,0,0,0-.2.2,0,.3.4.3.2.4.2.1,0,.2,0,.3-.1,0,0,.3.4.3.3,0,0,.6,1.3.8,1.8,0,0,0,.2,0,.2.1.5.3,1.1.3,1.1-.1,0-.2,0-.3,0Z"/>
  <path d="M370,316.6c-.1-.2-.2-.4-.4-.5,0,0,.1-.3-.4,0-.3.1.3-.3.2-.3-.2-.1-.2-.4-.3-.5-.1-.1-.4-.2-.6-.3-.1-.1,0-.5-.4-.5-.3,0,0-.4-.1-.5-.2,0-.3-.2-.2-.5.1-.2.2-.4,0-.4,0,0-.4,0-.4,0,0,0,.2-.3-.4,0,0,0,0,0,.1-.1.3-.3.3-.3,0-.3-.3,0-.3,0-.3,0-.1-.1-.2-.3-.2-.5,0-.1.2-.3.2-.5,0-.1-.3-.2,0-.4.2-.2.2-.3.1-.4,0,0,.2-.2-.4,0,0,0,0,0,0,0,.7-.5-.4-.3-.3-.5.1-.3,0-.4-.2-.6,0,0,.1-.2-.3,0-.2,0-.2,0,0,0,.5-.4.1-.4.2-.6,0-.2-.3-.3.1-.6.2-.1.2-.3-.3-.2-.3,0,0-.1-.1-.2,0,0-.3,0-.4,0,0,0,.2-.2.3-.2,0,0,0,0,0,0-.7,0,0-.6-.2-.7-.2-.2-.2-.5-.2-.7,0-.2.2-.3,1.2-.7.5-.2,1-.3,1.4-.3.2,0,.5,0,.5,0,.1,0,.3,0,.4.1.2,0,.8,0,.5.3,0,0,.2,0-.2.2,0,0,0,0,0,0,.8,0,.4.3.5.5.1.2.8.1.5.4.6-.1.6,0,.4.2-.5.5,0,.7,0,1.1,0,.4.3.7.3,1,0,0,.4,0,.1.1-.2.2,0,.2,0,.2,0,0,.2,0,0,.2-.5.5,0,.6,0,.9,0,.3.1.6.4.7.2.1.5,0,.5.3,0,0,.3,0-.2.3-.1,0,.3,0,.3,0,0,0,.1.2.2.3,0,.1.1.3.2.4,0,0,.3,0,.4,0,.1,0,.2.1.2.3,0,.1-.1.4-.1.5,0,.1.3.1.2.4-.3.5,0,.5.1.8,0,.2.2.5.4.6.1,0-.2.5-.1.6,0,0-1.1,1-1.6,1.2,0,0-.2,0-.2.1-.5.2-1.1.5-1.2.3,0-.2-.3-.4-.4-.6Z"/>
  <path d="M376.1,311c0-.2-.1-.4-.3-.5,0,0,.2-.2-.4,0-.3,0,.3-.2.2-.3-.1-.1-.1-.4-.3-.5-.1-.1-.4-.2-.5-.4-.1-.1,0-.4-.3-.4-.3,0,0-.4,0-.4-.2,0-.3-.2-.2-.4.1-.2.3-.4.1-.4,0,0-.4,0-.4,0,0,0,.2-.3-.4,0,0,0,0,0,.1-.1.3-.2.3-.3,0-.2-.3,0-.3,0-.3,0-.1-.1-.2-.2-.2-.4,0-.1.1-.3.1-.5,0-.1-.3-.1,0-.4.2-.2.2-.3.1-.4,0,0,.2-.3-.4,0,0,0,0,0,0,0,.6-.6-.4-.2-.3-.4,0-.3-.1-.4-.2-.5,0,0,.1-.2-.3,0-.1,0-.2,0-.1,0,.5-.4,0-.4,0-.5,0-.2-.3-.2,0-.6.1-.2.2-.3-.4,0-.3.1,0-.1-.1-.1,0,0-.3,0-.4,0,0,0,.2-.2.2-.3,0,0,0,0,0,0-.7.1,0-.5-.3-.6-.3-.1-.3-.3-.4-.6,0-.1,0-.4,1-1,.4-.3.9-.6,1.2-.7.2,0,.4-.2.5-.2.1,0,.3,0,.4,0,.2,0,.8-.1.6.2,0,0,.2,0-.2.3,0,0,0,0,0,0,.8-.2.5.2.6.4.1.1.8,0,.6.3.6-.2.6,0,.5.1-.4.7.2.8.3,1.2.1.4.4.7.5,1,0,0,.4,0,.2.1-.2.2,0,.2,0,.2,0,0,.2,0,0,.2-.4.6,0,.7.1,1,0,.3.2.6.4.8.2.1.6.1.5.4,0,0,.3,0-.2.4-.1,0,.3,0,.3,0,.1,0,.1.2.2.3,0,.2.1.3.2.5,0,0,.3,0,.4.2.1,0,.1.2.1.3,0,.2-.1.4-.1.5,0,.2.3.2.1.4-.4.4,0,.6,0,.9,0,.3.1.5.3.7.1.1-.3.4-.2.6,0,0-1.3.7-1.8.8,0,0-.2,0-.2,0-.5,0-1.2.2-1.2,0,0-.2-.2-.4-.2-.6Z"/>
  <path d="M380.9,312.5c-.2,0-.3,0-.5.2,0,0-.2-.2,0,.3,0,.3-.2-.3-.3-.3-.1.1-.3,0-.4.2-.1.1-.2.4-.3.5-.1.1-.4-.1-.4.3,0,.3-.3-.1-.4,0,0,.2-.2.3-.4.1-.2-.1-.3-.3-.4-.2,0,0,0,.4,0,.4,0,0-.2-.2,0,.4,0,0,0,0,0-.1-.2-.3-.3-.3-.2,0,0,.3,0,.3,0,.3-.1,0-.2.2-.4.2-.1,0-.3-.2-.4-.2-.1,0,0,.3-.3,0-.2-.2-.3-.2-.4-.1,0,0-.2-.2,0,.4,0,0,0,0,0,0-.5-.7-.1.4-.4.2-.2-.1-.3,0-.4.2,0,0-.2-.1,0,.3,0,.1,0,.2,0,0-.4-.5-.3,0-.5-.1-.2,0-.1.3-.5,0-.2-.1-.3-.2,0,.3.1.2,0,0,0,.1,0,0,0,.3,0,.3,0,0-.2-.2-.3-.2,0,0,0,0,0,0,.2.7-.5,0-.5.3,0,.3-.3.3-.5.3-.1,0-.3,0-1-1-.3-.4-.6-.9-.8-1.2-.1-.2-.2-.4-.2-.5,0-.1,0-.3,0-.4,0-.2-.2-.8.1-.6,0,0,0-.2.3.2,0,0,0,0,0,0-.3-.8.2-.5.3-.6.1-.1,0-.8.2-.6-.2-.6,0-.6.1-.4.6.4.7-.2,1.1-.2.4,0,.6-.3,1-.5,0,0,0-.4.1-.1.2.2.2,0,.2,0,0,0,0-.2.2,0,.5.5.6,0,.9,0,.3,0,.5-.1.7-.4.1-.2.1-.5.3-.5,0,0,0-.3.3.2,0,.1,0-.3,0-.3,0,0,.2-.1.3-.1.1,0,.3,0,.4-.2,0,0,0-.3.1-.4,0,0,.2-.1.3-.1.1,0,.3.2.5.2.1,0,.2-.3.4,0,.4.4.5,0,.8,0,.2,0,.5,0,.7-.2.1-.1.4.3.5.3,0,0,.6,1.4.7,1.9,0,0,0,.2,0,.2,0,.5.1,1.2,0,1.2-.2,0-.4.1-.6.2Z"/>
  <path d="M389.5,306.5c-.1.1-.3.2-.4.3,0,0-.2-.1,0,.4.1.2-.3-.2-.3-.2,0,.2-.3.2-.4.3,0,.1,0,.4-.2.6,0,.1-.4,0-.3.3,0,.3-.3,0-.4.1,0,.2-.1.3-.3.2-.2,0-.4-.2-.4,0,0,0,.1.4,0,.4,0,0-.3-.2,0,.4,0,0,0,0-.1,0-.3-.3-.3-.2-.2,0,.1.3,0,.3,0,.3,0,.1-.2.2-.3.2-.1,0-.3-.1-.4-.1-.1,0,0,.3-.3.1-.3-.2-.3-.1-.4,0,0,0-.3-.2,0,.4,0,0,0,0,0,0-.6-.6,0,.4-.3.3-.3,0-.3.1-.4.3,0,0-.2,0,0,.3,0,.1,0,.2,0,.1-.5-.4-.3,0-.5,0-.2,0-.1.3-.5,0-.2-.1-.3-.2,0,.3.1.2,0,0,0,.1,0,0,.1.3,0,.3,0,0-.2-.1-.3-.2,0,0,0,0,0,0,.2.7-.5,0-.5.3,0,.3-.3.3-.5.4-.1,0-.3,0-1.1-.9-.3-.4-.7-.8-.8-1.1-.1-.2-.2-.4-.2-.5,0-.1,0-.3,0-.4,0-.2-.2-.7,0-.6,0,0,0-.2.3.2,0,0,0,0,0,0-.3-.8.1-.4.3-.6.1-.1-.1-.7.1-.6-.3-.6-.1-.5,0-.4.7.4.6-.2,1-.3.3-.1.5-.4.8-.5,0,0-.1-.3,0-.2s.1,0,.2,0c0,0,0-.2.2,0,.6.4.6,0,.8-.2.2,0,.5-.2.6-.5,0-.2,0-.5.2-.5,0,0,0-.3.3.1.1.1-.1-.3,0-.3,0-.1.2-.1.2-.2.1,0,.3-.1.3-.3,0,0,0-.3,0-.4,0-.1.1-.2.2-.2.1,0,.4,0,.5,0,.1,0,0-.3.3-.2.5.3.5,0,.7-.1.2,0,.4-.2.5-.4,0-.1.4.2.5.1,0,0,1,1.1,1.2,1.5,0,0,.1.2.1.2.2.4.5,1.1.4,1.1-.2,0-.3.2-.5.3Z"/>
  <path d="M388.8,288.3c-.2,0-.4-.2-.7-.2,0,0-.1-.3-.3.2-.1.2,0-.4-.1-.4-.2,0-.4-.1-.7-.1-.2,0-.5.2-.7.2-.2,0-.4-.3-.7,0-.2.3-.3-.3-.5-.2-.2,0-.4.2-.6,0-.1-.2-.2-.4-.4-.3,0,0-.2.4-.3.3,0,0-.2-.3-.3.3,0,0,0,0,0-.2,0-.4-.2-.4-.3-.1,0,.3-.2.2-.2.2-.2,0-.4,0-.6,0-.1,0-.3-.3-.4-.4-.2,0-.3.2-.5,0-.1-.3-.3-.3-.4-.3,0,0-.2-.3-.2.3,0,0,0,0,0,0-.2-.8-.4.3-.7,0-.2-.2-.5,0-.7,0,0,0-.1-.2-.2.3,0,.2,0,.2-.1,0-.2-.6-.4-.2-.6-.3-.2-.1-.4.2-.6-.3,0-.2-.2-.3-.3.3,0,.3-.1,0-.2,0,0,0,0,.3-.2.3,0,0-.1-.2-.2-.3,0,0,0,0,0,0-.2.7-.6-.2-.9,0-.3.2-.6.2-.9.1-.2,0-.4-.2-.6-1.3-.1-.5-.2-1.1-.2-1.4,0-.2,0-.5.1-.5,0-.1.2-.3.3-.4.2-.2.3-.8.6-.5,0,0,.1-.2.2.3,0,0,0,.1,0,0,.2-.8.6-.3.9-.4.2,0,.5-.7.7-.5.1-.6.3-.5.4-.4.5.6,1,.2,1.5.3.5,0,1,0,1.5,0,0,0,.2-.4.3,0,0,.3.2,0,.3,0,.1,0,.2-.1.3,0,.4.7.8.3,1.2.4.4,0,.8.2,1.2,0,.3,0,.5-.4.8-.2,0,0,.3-.3.3.3,0,.2.2-.3.2-.3.2,0,.3,0,.5,0,.2,0,.5.1.7,0,.2,0,.3-.2.5-.3.2,0,.3,0,.5,0,.2.1.3.4.5.5.2.1.5-.1.6.2.2.6.6.4,1,.6.3.2.7.3,1.1.4.2,0,.2.6.4.6,0,0-.4,1.4-.7,1.9,0,0-.1.2-.1.2-.4.4-.8,1-.9.9-.2-.2-.5-.2-.7-.3Z"/>
  <path d="M380.5,296.7c.1-.2.3-.4.4-.6,0,0,.3,0,0-.4-.2-.2.4.1.4,0,0-.2.3-.3.4-.5,0-.2,0-.5.1-.7,0-.2.4-.2.3-.6-.1-.3.4-.1.4-.3,0-.2,0-.4.3-.4.2,0,.5,0,.5-.1,0-.1-.2-.4-.1-.4,0,0,.3,0-.1-.4,0,0,0,0,.2,0,.4.2.4,0,.2-.1-.2-.2-.1-.2,0-.3,0-.2.2-.3.3-.4.1,0,.4,0,.5-.1.1,0,0-.4.3-.3.3,0,.4,0,.5-.1,0,0,.3,0-.1-.4,0,0,0,0,0,0,.8.3,0-.5.3-.5.3,0,.3-.3.4-.5,0,0,.2,0-.1-.3-.1-.1,0-.2,0-.1.6.2.4-.1.6-.2.2,0,0-.4.6-.3.2,0,.4,0,0-.4-.2-.2,0,0,0-.2,0,0-.2-.2-.2-.3,0,0,.2,0,.3.1,0,0,0,0,0,0-.5-.5.4-.2.2-.4-.1-.2,0,0,0-.2,0,0,.2,0,1.4-.2.5,0,1-.1,1.4,0,.2,0,.5.1.5.2,0,.1.2.3.3.4.2.3.6.7.3.9-.1,0,.1.3-.4.2,0,0-.1,0,0,0,.6.6,0,.8-.2,1.1,0,.3.3.8,0,.9.4.5.2.6,0,.5-.8,0-.7.5-1,.8-.3.3-.5.7-.8,1,0,0,.2.3,0,.2-.3,0-.2.1-.2.2,0,0,0,.2-.2.2-.7-.1-.6.4-.9.6-.3.2-.5.5-.6.8,0,.2.1.6-.1.7,0,0,.1.3-.4,0-.1,0,.2.3.1.3,0,.1-.2.2-.2.3-.1.2-.3.3-.3.5,0,.1,0,.4,0,.5,0,.1-.1.2-.2.3-.2,0-.4,0-.6.2-.1,0,0,.4-.3.4-.6,0-.6.3-.8.5-.2.2-.4.4-.5.7,0,.2-.5,0-.6.1,0,0-1.3-.7-1.7-1.1,0,0-.1-.1-.2-.2-.3-.4-.8-1-.6-1.1.2-.2.3-.4.5-.6Z"/>
  <path d="M423.5,146.5c-1.1.4-2.2.8-3.3,1.2-.4.2-.9,0-1.2.7-.1.3-.7-.1-1.1,0-1,.4-2.1.7-3.1,1.1-1,.4-1.9,1-2.9,1.4-1,.4-2.1.5-3,1.2-.7.6-1.7.4-2.4.8-.8.4-1.7.8-2.6.9-.7,0-1.3,0-1.9.4-.4.2-.6.6-1,.7-.4.1-.9,0-1,.7,0,0-.2,0-.3,0-.5-.2-1,0-1.3.3-.2.4-.6.4-.9.6-.8.3-1.7.7-2.6.9-.7.2-1.4.2-2,.4-.7.2-1.3.7-2,.6-.7,0-1.3.2-1.9.4-.3.1-.8,0-.9.7,0,0-.1.1-.2,0-1.3-.4-1.9.9-2.9,1.1-1.1.2-2.1.7-3.1,1.1-.3.1-.6,0-.7.6,0,.2-.3.3-.5.2-1-.3-1.7.3-2.5.5-.9.2-1.7.8-2.8.7-.5,0-1,0-1.3.7-.1.3-.7.2-1,.4-.3.1-.4.5-.7.6-.2,0-.5,0-.8,0,0,0-.2,0-.2,0-1.1,1.1-2.7.7-4,1.4-1.3.6-2.6,1.1-4,1.4-.8.2-1.6.3-2.5-.6-.4-.4-.6-.9-.4-1.3.1-.3.3-.6.6-.8.4-.2.8-.5,1.1-.8.8-.5,1.5-1.3,2.4-1.3.3,0,.5-.4.9,0,0,0,.2,0,.2,0,.9-1.2,2.3-1.1,3.5-1.6,1-.4,1.8-1.4,2.9-1.5.4-.8,1.1-.9,1.7-1,2.2,0,4.1-1.2,6.2-1.9,2.1-.6,4.1-1.5,6.2-2.1.4-.1.5-.6,1-.4.5.1.9-.3,1.3-.4.4-.1.8-.4,1.2-.4,1.8,0,3.3-.9,4.9-1.4,1.6-.5,3.3-1,4.8-1.7.9-.4,1.8-1.1,2.8-1.3.4,0,.8-.6,1.4-.2.2.1.4-.4.7-.6.7-.3,1.3-.5,2-.7.9-.3,1.9-.6,2.8-1,.6-.2,1-.7,1.6-.9.6-.3,1.2-.5,1.8-.6.8-.2,1.6-.3,2.4-.5.8-.2,1.5-.8,2.4-.8,1.6,0,2.9-.7,4.3-1.2,1.4-.4,2.8-.9,4.1-1.5.8-.3,1.6-.1,2.4-.4.4-.1,1.3,1.1,1.4,1.6,0,.1,0,.2,0,.3-.6.7-1,1.6-1.9,1.9-1.3.4-2.5.9-3.8,1.3Z" fill="#aaca60"/>
  <path d="M423.9,420.4c-1.1.8-2.3,1.5-3.3,2.3-.4.3-1,.4-1.1,1.1,0,.4-.8.1-1.2.4-1,.8-2.1,1.4-3.1,2.2-1,.7-1.9,1.6-2.8,2.4-1,.7-2.2,1.2-3,2.1-.7.8-1.7.9-2.5,1.6-.8.7-1.6,1.4-2.6,1.7-.7.3-1.4.5-2,1-.3.3-.5.8-.9,1.1-.4.2-1,.3-1,1.1,0,0-.2,0-.4,0-.6,0-1.1.3-1.3.8-.2.5-.5.6-.8.9-.8.6-1.7,1.2-2.6,1.8-.7.4-1.4.6-2.1,1-.7.4-1.3,1.1-2,1.3-.8.2-1.4.6-2,1-.3.2-.9.3-.8,1,0,0-.1.1-.2.1-1.5,0-1.8,1.6-2.9,2.1-1.1.5-2.1,1.4-3.1,2.1-.3.2-.7.2-.7.8,0,.2-.3.4-.5.4-1.1,0-1.7.9-2.6,1.3-1,.5-1.7,1.4-2.9,1.6-.5,0-1.1.4-1.2,1.2,0,.4-.7.4-.9.7-.2.2-.4.6-.6.8-.2.2-.6.1-.9.2,0,0-.2,0-.2.2-.9,1.5-2.8,1.6-4,2.7-1.2,1.1-2.6,1.9-4,2.8-.8.5-1.6.8-2.8.2-.5-.3-.8-.7-.7-1.2,0-.4.2-.7.5-1,.4-.4.7-.8,1.1-1.1.7-.7,1.3-1.8,2.3-2.1.3-.1.5-.6,1-.3,0,0,.2,0,.2,0,.7-1.5,2.2-1.9,3.4-2.7,1-.7,1.6-1.9,2.8-2.4.2-.9.9-1.3,1.6-1.5,2.4-.8,4.2-2.6,6.2-3.9,2.1-1.3,4.1-2.8,6.2-4.2.4-.2.4-.7,1-.8.5,0,.9-.6,1.4-.9.4-.3.8-.7,1.2-.8,2-.6,3.4-2,5-3,1.6-1,3.3-2.1,4.8-3.3.9-.8,1.7-1.7,2.7-2.3.5-.2.7-.8,1.4-.6.2,0,.3-.6.6-.8.6-.5,1.3-.9,2-1.4.9-.6,1.9-1.2,2.8-1.9.5-.4,1-1,1.5-1.4.6-.5,1.2-.9,1.8-1.2.8-.5,1.7-.8,2.5-1.3.8-.5,1.5-1.3,2.4-1.6,1.7-.5,2.9-1.7,4.3-2.6,1.4-.9,2.8-1.8,4.1-2.9.7-.6,1.7-.7,2.5-1.2.4-.2,1.7.6,1.8,1.2,0,0,0,.2,0,.3-.5.9-.8,2-1.6,2.5-1.3.8-2.5,1.7-3.8,2.6Z" fill="#aaca60"/>
  <path d="M427.2,389.8c0-4.4,0-8.8,0-13.2,0-1.6.2-3.3-.3-5-.3-.9.4-2.4.3-4,0-4.1,0-8.2,0-12.4,0-4-.3-8-.3-12,0-4,.2-8.1,0-11.9-.3-3.3.2-6.3.1-9.5-.1-3.4-.2-6.8,0-10.1.2-2.4.4-4.8.3-7.2,0-1.5-.4-2.9-.4-4.5,0-1.5.3-3.2-.3-4.5,0-.1,0-.8.1-1.1.4-1.6.4-3.6.1-5-.3-1.3-.2-2.5-.3-3.7,0-3.4,0-6.8,0-10.1,0-2.5.3-5,.3-7.6,0-2.6-.2-5.5,0-7.9.3-2.4.3-4.8.3-7.2,0-1.4.3-3-.3-4.1,0-.1,0-.6,0-.8.8-3.9-.3-7.7,0-11.6.2-4.1,0-8.2,0-12.3,0-1.1.2-2.3-.3-3.3-.2-.4-.2-1.5,0-2.1.6-3,.2-6.2.4-9.4.1-3.6-.2-7.1.3-10.7.2-1.5.3-3.6-.3-5.4-.3-.8,0-2.6,0-3.9,0-1.1-.3-2.1-.3-3.2,0-.9.2-1.8.3-2.7,0-.3,0-.6,0-.9-.7-5.2.2-10.4,0-15.6-.2-5.3-.1-10.6,0-15.9,0-2.9.2-5.9,1.4-7.9.5-.9,1.1-.9,1.4.3.2.9.5,2,.5,3,0,1.7.2,3.3.3,4.9.2,3.4.7,6.7.4,10.2,0,1.1.2,2.4-.3,3.3,0,.1-.1.6,0,.8.8,4.6.3,9.5.3,14.2,0,4,.7,7.9.4,12,.6,2.2.5,4.9.3,7.1-.7,8-.2,16-.3,23.9,0,8.1,0,16.2,0,24.3,0,1.4.4,2.6,0,4.2-.3,1.5,0,3.5,0,5.2s.1,3.3,0,4.8c-.7,6.3-.3,12.7-.3,19.1,0,6.3-.1,12.7,0,19,0,3.8.4,7.7.3,11.6,0,1.7.3,3.4-.3,5-.2.5.3,2,.3,3.1,0,2.6,0,5.3,0,7.9s0,7.4,0,11c0,2.2.3,4.5.3,6.7,0,2.3,0,4.7,0,7.1,0,3-.3,5.9-.3,8.9,0,3.1.2,6.3,0,9.2-.5,5.5-.3,11-.3,16.4,0,5.4-.1,10.9,0,16.3,0,3.1-.4,5.9-.4,8.9,0,1.4-1.5,3.3-2,2.7,0-.1-.2-.3-.2-.6-.5-3-1.2-5.7-1.1-9.1,0-5,0-10,0-15Z" fill="#aaca60"/>
  <path d="M248.7,324.2c.3-1,.7-1.9,1-2.8.1-.4.5-.6.1-1.2-.2-.3.5-.4.6-.7.3-.9.7-1.7,1-2.6.3-.9.5-1.8.8-2.6.3-.8,1-1.6,1-2.5,0-.8.8-1.2,1-1.9.2-.7.5-1.5,1-2,.4-.4.8-.8,1-1.3,0-.3,0-.8.1-1.1.2-.3.6-.5.1-1.1,0,0,.1-.1.2-.2.5-.1.7-.6.6-1-.1-.4,0-.6.1-.9.3-.7.6-1.4,1-2,.3-.5.8-.9,1.1-1.4.3-.5.3-1.2.9-1.5.5-.4.7-.8,1-1.3.1-.3.6-.5,0-1,0,0,0-.1,0-.2,1.1-.4.5-1.7,1.1-2.3.6-.7.9-1.6,1.3-2.4.1-.2.4-.4,0-.8-.1-.1,0-.4.1-.4.9-.3.8-1.1,1.2-1.7.5-.7.5-1.5,1.3-2,.3-.2.6-.6.3-1.2-.2-.3.2-.5.3-.8,0-.2,0-.6,0-.8,0-.2.4-.3.6-.4,0,0,0-.1,0-.2-.1-1.3,1.2-2,1.5-3.1.3-1.1.8-2.2,1.4-3.2.3-.6.7-1.1,2-1.1.6,0,1.1.2,1.3.6.1.3.3.6.2.8,0,.4,0,.8-.1,1.2-.1.8,0,1.7-.5,2.3-.2.2,0,.6-.6.6,0,0-.2,0-.1.1.3,1.3-.6,2.1-1,3.1-.3.8-.1,1.9-.8,2.6.4.7,0,1.2-.4,1.6-1.4,1.3-1.8,3.1-2.6,4.7-.9,1.6-1.6,3.2-2.5,4.9-.1.3,0,.7-.4.9-.4.2-.4.7-.6,1-.2.3-.2.7-.5,1-1.2,1-1.5,2.4-2.2,3.7-.7,1.2-1.4,2.5-1.9,3.8-.3.8-.3,1.7-.8,2.5-.2.3,0,.8-.8.9-.2,0,0,.5,0,.7-.2.6-.5,1.1-.7,1.6-.3.7-.7,1.5-1,2.2-.2.5-.1,1-.3,1.5-.2.5-.4,1-.6,1.4-.3.6-.8,1.1-1.1,1.7-.3.6-.3,1.4-.8,1.9-.9.9-1.1,2.2-1.6,3.3-.4,1.1-.9,2.2-1.1,3.4-.1.7-.8,1.1-1,1.7,0,.3-1.6.3-2.1,0,0,0-.2-.1-.2-.2-.3-.8-.8-1.6-.5-2.3l1.1-3.3Z"/>
  <g>
    <path d="M286.6,398.5c-.6-1.3-1.3-2.6-2-3.9-.3-.5-.3-1.1-1-1.3-.4-.1,0-.9-.3-1.3-.7-1.2-1.2-2.4-1.9-3.6-.7-1.1-1.5-2.2-2.1-3.3-.7-1.1-1-2.5-1.9-3.4-.8-.8-.8-1.9-1.4-2.8-.6-.9-1.2-1.9-1.5-3-.2-.8-.4-1.6-.9-2.2-.3-.4-.8-.6-1-1.1-.2-.4-.2-1.1-1-1.2,0,0,0-.3,0-.4.1-.7-.2-1.2-.7-1.5-.4-.3-.6-.6-.8-1-.6-1-1.1-1.9-1.6-2.9-.4-.8-.5-1.6-.9-2.4-.4-.8-1.1-1.5-1.2-2.3-.1-.9-.5-1.5-.9-2.2-.2-.4-.2-1-.9-1,0,0-.1-.2-.1-.2.1-1.5-1.4-2.1-1.9-3.3-.5-1.3-1.3-2.4-1.9-3.6-.2-.3-.2-.7-.8-.8-.2,0-.4-.3-.4-.6,0-1.2-.8-1.9-1.2-2.9-.5-1.1-1.3-2-1.4-3.2,0-.5-.3-1.2-1.1-1.4-.4-.1-.4-.7-.7-1.1-.2-.3-.6-.5-.8-.8-.1-.3,0-.6-.1-1,0,0,0-.2-.1-.3-1.4-1.2-1.4-3.1-2.4-4.5-1-1.4-1.8-3-2.5-4.6-.4-.9-.7-1.8,0-3,.3-.5.8-.8,1.3-.6.4.2.7.3.9.6.4.4.7.9,1.1,1.3.7.9,1.7,1.6,2,2.7,0,.4.6.6.3,1.1,0,0,0,.2,0,.3,1.4,1,1.7,2.6,2.5,4,.7,1.1,1.8,2,2.3,3.3.9.3,1.2,1.2,1.4,1.9.7,2.6,2.3,4.7,3.5,7.1,1.2,2.4,2.6,4.7,3.8,7,.2.4.7.6.7,1.2,0,.6.5,1,.8,1.5.3.5.6.9.7,1.4.4,2.1,1.8,3.8,2.7,5.7.9,1.9,1.9,3.7,3,5.5.7,1.1,1.6,2,2.1,3.2.2.5.8.9.5,1.6,0,.2.6.4.7.8.5.7.8,1.5,1.2,2.3.6,1.1,1.1,2.2,1.7,3.2.4.6.9,1.2,1.3,1.8.4.7.8,1.4,1.1,2.1.4.9.6,1.9,1,2.8.4.9,1.1,1.8,1.3,2.7.4,1.9,1.4,3.3,2.2,5,.7,1.6,1.5,3.3,2.4,4.8.5.9.5,2,.9,2.9.2.4-.9,1.6-1.4,1.7-.1,0-.2,0-.3,0-.8-.7-1.9-1.2-2.3-2.2-.6-1.5-1.4-3-2.1-4.4Z"/>
    <path d="M294.3,462.9c0-1.1,0-2.1,0-3.2,0-.4.2-.8-.3-1.2-.3-.2.4-.6.3-1,0-1,0-2,0-3,0-1-.3-1.9-.4-2.9,0-1,.2-2-.2-2.9-.3-.8.2-1.5,0-2.3-.2-.8-.3-1.6,0-2.4.1-.6.3-1.2.2-1.7,0-.4-.4-.7-.4-1.1,0-.4.2-.8-.4-1.1,0,0,0-.2.1-.3.4-.4.3-.9,0-1.2-.3-.3-.3-.6-.3-.9,0-.8-.2-1.6-.2-2.4,0-.6.2-1.2.2-1.9,0-.6-.3-1.3,0-1.9.2-.6.2-1.2.1-1.8,0-.3.2-.7-.4-1,0,0,0-.1,0-.2.7-1-.4-1.8-.3-2.8.1-1-.1-2-.3-3,0-.3.1-.6-.4-.8-.2,0-.2-.3-.1-.5.5-.8,0-1.5,0-2.3,0-.9-.4-1.7,0-2.6.2-.4.2-.9-.4-1.3-.3-.2,0-.6-.2-.9,0-.3-.4-.5-.4-.7,0-.2.2-.5.2-.7,0,0,0-.2,0-.2-.8-1.2-.1-2.5-.5-3.7-.4-1.2-.5-2.5-.6-3.8,0-.7,0-1.5,1.1-2.1.5-.3,1-.4,1.4-.1.3.2.5.4.6.6.2.4.3.8.5,1.1.3.8,1,1.5.8,2.4,0,.3.3.5-.2.8,0,0,0,.2,0,.2.9,1,.6,2.3.8,3.4.2,1,.9,1.8.8,2.9.7.5.7,1.1.6,1.7-.4,2,.3,3.9.4,5.9.1,2,.4,3.9.6,5.9,0,.3.4.6.2,1-.2.4,0,.9,0,1.3,0,.4.2.8,0,1.2-.5,1.6,0,3.1,0,4.7,0,1.6,0,3.1.3,4.6.2.9.6,1.9.5,2.8,0,.4.3.8-.2,1.2-.2.1.3.5.3.7,0,.6,0,1.3.1,1.9,0,.9,0,1.8.1,2.7,0,.5.3,1.1.4,1.6,0,.6,0,1.2,0,1.7,0,.7-.3,1.5-.3,2.2,0,.8.2,1.5,0,2.3-.5,1.3-.2,2.7-.3,4,0,1.3,0,2.7,0,4,0,.8-.5,1.4-.5,2.2,0,.3-1.5.8-2,.6,0,0-.2,0-.2-.1-.5-.7-1.2-1.4-1.1-2.2,0-1.2,0-2.4,0-3.6Z"/>
    <path d="M323.8,466.8c-.5,0-1,0-1.5.1-.2,0-.4-.2-.6.3,0,.3-.3-.3-.5-.3-.5.1-1,0-1.4.1-.5,0-.9.3-1.4.4-.5,0-.9-.2-1.4.2-.4.3-.7-.2-1.1,0-.4.2-.8.3-1.2,0-.3-.2-.6-.4-.8-.2-.2,0-.3.4-.5.4-.2,0-.4-.3-.5.4,0,0,0,0-.1-.1-.2-.4-.4-.4-.6,0-.1.3-.3.3-.4.3-.4,0-.8.1-1.2,0-.3,0-.6-.2-.9-.3-.3,0-.6.3-.9,0-.3-.3-.6-.2-.8-.2-.2,0-.4-.3-.4.4,0,0,0,0,0,0-.5-.8-.9.3-1.3.1-.5-.2-1,0-1.4,0-.1,0-.3-.2-.4.3,0,.2-.2.2-.2,0-.4-.6-.7-.2-1.1-.3-.4,0-.8.2-1.3-.2-.2-.2-.4-.3-.6.3,0,.3-.3,0-.4,0-.1,0-.2.3-.3.4-.1,0-.2-.2-.3-.3,0,0,0,0-.1,0-.5.7-1.2-.1-1.8,0-.6.2-1.2.2-1.8.1-.3,0-.7-.2-1-1.3-.1-.5-.2-1.1,0-1.4,0-.2.2-.5.3-.5.2-.1.4-.3.5-.4.4-.2.7-.8,1.1-.5.1,0,.3-.2.4.3,0,0,0,.1,0,0,.5-.8,1.1-.3,1.6-.4.5,0,.9-.7,1.4-.5.2-.6.5-.6.8-.4,1,.6,1.9,0,2.8.1.9,0,1.9-.1,2.8-.2.2,0,.3-.4.5-.1.2.2.4,0,.6,0,.2,0,.4-.2.6,0,.8.6,1.5.2,2.2.2.7,0,1.5,0,2.2-.2.4-.1.9-.5,1.3-.4.2,0,.4-.3.6.3,0,.2.2-.3.3-.3.3,0,.6,0,.9,0,.4,0,.9,0,1.3-.1.3,0,.5-.3.8-.4.3,0,.5-.1.8,0,.3,0,.7.2,1.1.3.4,0,.7-.3,1.1,0,.7.5,1.3.2,1.9.2.6,0,1.3,0,1.9-.2.4,0,.7.4,1.1.4.2,0,.5,1.4.4,2,0,0,0,.2,0,.2-.3.5-.6,1.2-1,1.2-.6,0-1.2,0-1.7.1Z"/>
    <path d="M292.2,484c.7.5,1.4,1,2.2,1.5.3.2.4.6,1,.3.3-.1.2.6.5.7l.8.5c.1,0,.2.1.4,0,.1,0,.2-.1.3-.3.2-.2.6-.4.9-.6.7-.4,1.5-.5,2-1.1.4-.5,1.2-.4,1.7-.8.5-.4,1.1-.8,1.8-.9.5,0,1-.1,1.4-.4.2-.2.3-.6.6-.8.3-.1.7,0,.6-.7,0,0,.2,0,.3,0,.5.2.8,0,.9-.4,0-.4.3-.5.5-.6.5-.4,1.1-.7,1.7-1,.4-.2,1-.3,1.4-.5.5-.2.8-.8,1.3-.8.6,0,.9-.3,1.3-.5.2-.2.6,0,.5-.7,0,0,0-.1.1,0,1.1.3,1.1-1.1,1.8-1.4.8-.3,1.3-.9,2-1.4.2-.1.5-.1.3-.6,0-.2.1-.3.3-.3.9.1,1.1-.5,1.7-.8.6-.3,1-1,1.8-1.1.4,0,.7-.2.7-.9,0-.3.4-.3.5-.5.1-.2.1-.5.3-.7.1-.1.4,0,.6,0,0,0,.1,0,.1-.1.2-.6.5-.8.8-1,.3-.2.7-.4.6-.5-.1-.2,0-.3,0-.5,0-.1,0-.3.1-1.5,0-.5,0-1.1.4-1.3.3-.2.6-.3.9-.2.5.1.9.3,1.3.6.4.3.9.7,1.2,1.2.3.5.5,1.1.3,1.7-.1.3.1.8-.5,1,0,0-.2.1-.1.2.1.9-.2,1.5-.6,2-.4.5-.9.8-1.3,1.1-.6.6-.8,1.6-1.6,1.9,0,.8-.4,1-.9,1.2-1.7.5-2.7,1.8-4,2.7-1.4.9-2.6,1.9-4,2.8-.2.2-.2.6-.7.5-.4,0-.6.4-.9.5-.3.2-.5.5-.8.5-1.4.1-2.3,1.2-3.4,1.8-1.1.6-2.3,1.2-3.3,2-.6.5-1.1,1.2-1.9,1.4-.3.1-.5.6-1,.2-.2-.1-.2.4-.4.6-.4.3-.9.5-1.4.8-.7.3-1.3.6-2,1-.4.2-.7.7-1.1.9-.2.1-.4.2-.7.4-.2.1-.7.3-1.2.4-1.2.2-2.3-.1-3.2-.7-.9-.5-1.5-.7-1.9-1.2-.6-1-1.6-1.5-2.5-2.1-.9-.7-1.7-1.3-2.7-1.8-.5-.3-.7-1-1.2-1.4-.2-.2.3-1.6.7-1.9,0,0,.2-.1.2-.1.7,0,1.6-.3,2.1,0,.8.6,1.6,1.2,2.4,1.7Z"/>
    <path d="M285.3,490.7c0-.1,0-.3,0-.4,0,0,.3,0-.3-.2-.3,0,.4,0,.4,0,0-.1,0-.3,0-.4,0-.1-.2-.3-.3-.5,0-.1.3-.2,0-.4-.3-.2.3-.2.2-.3-.1-.1-.2-.3,0-.3.2,0,.4,0,.3-.2,0,0-.4-.2-.3-.2,0,0,.3,0-.3-.2,0,0,0,0,.2,0,.4,0,.4,0,.1-.1-.3,0-.2-.1-.2-.2,0-.1,0-.2,0-.3,0,0,.3-.1.4-.2,0,0-.2-.2.1-.2.3,0,.3,0,.3-.2,0,0,.3,0-.3-.2,0,0,0,0,0,0,.8,0-.2-.3,0-.4.2,0,.1-.3.1-.4,0,0,.2,0-.3-.2-.2,0-.2,0,0,0,.6,0,.3-.2.4-.2.1,0,0-.4.4-.5.2,0,.4,0-.1-.4-.2-.1,0-.1,0-.2,0,0-.2-.3-.2-.3,0,0,.3,0,.4,0,0,0,0,0,0,0-.2-.3,0-.5.2-.6.2,0,.5-.1.6-.4.1-.2.4-.5.7-.6.4-.2.8-.2,1.3-.2.3,0,.5.2.7.4.1.2.1.6,0,1.2-.2.5-.5.9-.7,1.2,0,.2,0,0,0,0,0,0,0,0,0,0,0,0,0,0,0,0,0,0,0,.1.1.3,0,0,0,0,.1.2,0,0,0,0,0,0,0,.1.2.2.4.4,0,0,.1.1.2.2,0,0,0,0,0,0,0,0,.6.3.3.2.1,0,.2,0,.3.1,0,0,0,0,0,0,0,0,0,0,0,0,0,0-.2,0-.3,0h0s0,0,0,0h0s0,0,0,0h.2s0,0,0,0h0s0,0,0,0h0s0,0,0,0c0,0,0,0,0,0,0,.1,0,.3,0,.4-.1.2-.1.5-.2.8,0,0,.3.1,0,.1-.3,0,0,.1,0,.2,0,0,.1.1,0,.2-.7,0-.3.4-.4.6-.1.2-.2.4,0,.6,0,.1.4.3.2.4,0,0,.3.2-.3.1-.2,0,.3.1.3.2,0,0,0,.2,0,.3,0,.1,0,.2,0,.4,0,0,.3.2.3.3,0,0,0,.2,0,.2,0,0-.3.1-.4.2,0,0,.2.2-.1.3-.5,0-.3.3-.4.5,0,.2-.2.3,0,.5,0,.1-.5.1-.5.2,0,0-1.5-.2-2-.3,0,0-.2,0-.2,0-.4-.2-1.1-.4-1.1-.5.1-.1,0-.3.1-.5Z"/>
    <path d="M274.1,491.7c.2,0,.5,0,.7-.1,0,0,.2.2.2-.3,0-.3.2.3.3.3.2-.1.5,0,.7-.1.2,0,.4-.3.6-.4.2,0,.5.2.7-.2.1-.3.4.2.5,0,.2-.2.4-.3.6,0,.2.2.3.3.4.2,0,0,.1-.4.2-.4,0,0,.2.3.2-.4,0,0,0,0,0,.1.2.4.3.3.3,0,0-.3.1-.3.2-.3.2,0,.4-.1.6,0,.1,0,.3.2.5.3.2,0,.3-.3.5,0,.2.3.3.2.4.2,0,0,.2.3.2-.4,0,0,0,0,0,0,.3.8.4-.3.6-.2.3.2.5,0,.7,0,0,0,.2.2.1-.3,0-.2,0-.2.1,0,.3.6.4.2.6.3.2,0,.4-.2.6.2.1.2.2.3.3-.3,0-.3.1,0,.2,0,0,0,0-.3.1-.4,0,0,.1.2.2.3,0,0,0,0,0,0,.2-.7.6.1.9,0,.3-.2.6-.2.9-.1.2,0,.4.2.6,1.3.1.5.2,1.1.2,1.4,0,.2,0,.5,0,.5,0,.1-.2.3-.2.4-.2.2-.3.8-.5.5,0,0-.1.2-.2-.3,0,0,0-.1,0,0-.1.8-.5.3-.8.4-.2,0-.3.7-.6.5,0,.6-.2.6-.4.4-.5-.6-.9,0-1.4-.1-.5,0-.9.1-1.4.2,0,0,0,.4-.2.1-.1-.2-.2,0-.3,0,0,0-.2.2-.3,0-.5-.6-.8-.2-1.1-.2-.4,0-.7,0-1.1.2-.2.1-.4.5-.6.4-.1,0-.1.3-.3-.3,0-.2,0,.3-.1.3-.1,0-.3,0-.4,0-.2,0-.4,0-.6.1-.1,0-.2.3-.3.4-.1,0-.3.1-.4,0-.2,0-.4-.2-.6-.3-.2,0-.3.3-.5,0-.4-.5-.7-.2-1-.2-.3,0-.6,0-.9.2-.2,0-.4-.4-.6-.3,0,0-.4-1.4-.4-1.9,0,0,0-.2,0-.2,0-.5.1-1.2.3-1.2.3,0,.6,0,.8-.1Z"/>
    <path d="M270.9,487c-.3-1.2-.5-2.5-.8-3.7-.1-.5,0-1-.6-1.3-.3-.2.2-.8,0-1.2-.3-1.1-.5-2.3-.8-3.4-.3-1.1-.8-2.2-1.1-3.3-.3-1.1-.3-2.3-.8-3.3-.5-.9-.2-1.8-.5-2.7-.3-.9-.6-1.9-.6-2.8,0-.7,0-1.4-.2-2.1-.2-.4-.6-.7-.6-1.2,0-.4,0-1-.6-1.2,0,0,0-.2,0-.3.3-.5.2-1.1-.2-1.4-.3-.3-.4-.6-.5-1-.2-.9-.5-1.9-.6-2.8-.1-.7,0-1.5-.1-2.2-.1-.8-.6-1.5-.4-2.2.1-.8,0-1.4-.2-2.1,0-.4.1-.9-.6-1.1,0,0,0-.2,0-.2.6-1.3-.7-2.1-.8-3.2,0-1.2-.4-2.3-.7-3.5,0-.3,0-.7-.5-.9-.2,0-.3-.4-.2-.6.4-1-.1-1.8-.2-2.7-.1-1-.6-2-.3-3.1.1-.5,0-1.1-.6-1.5-.3-.2-.2-.7-.3-1.1-.1-.3-.4-.5-.5-.8,0-.3.1-.6.2-.8,0,0,0-.2,0-.2-1-1.4-.4-3-.8-4.5-.4-1.5-.6-3.1-.7-4.6,0-.9,0-1.8,1.2-2.4.5-.3,1-.3,1.4,0,.3.2.5.5.6.8.1.5.3.9.5,1.4.3.9,1,1.8.8,2.8,0,.3.3.6-.2,1,0,0,0,.2,0,.2,1,1.2.7,2.6,1,3.9.3,1.1,1.1,2.1,1.1,3.2.8.5.8,1.2.8,1.9-.2,2.4.8,4.5,1.2,6.8.4,2.3,1,4.5,1.5,6.8,0,.4.5.6.3,1.2-.2.5.2,1,.3,1.5,0,.5.3.9.3,1.4-.3,1.9.5,3.6.8,5.4.3,1.8.6,3.6,1.2,5.3.3,1.1.9,2.1,1,3.2,0,.5.5.9,0,1.5-.1.2.4.5.5.8.2.7.3,1.5.5,2.2.2,1,.4,2.1.7,3.1.2.6.6,1.2.7,1.8.2.6.3,1.3.4,2,.1.8,0,1.7.2,2.6.1.9.6,1.7.5,2.6-.2,1.6.4,3.1.7,4.7.3,1.5.6,3.1,1,4.6.3.8,0,1.7.1,2.6,0,.4-1.2,1.2-1.8,1.2-.1,0-.2,0-.3-.1-.6-.7-1.5-1.3-1.7-2.3-.2-1.4-.6-2.8-.9-4.2Z"/>
    <path d="M249.6,411.8c-.8-1.1-1.5-2.2-2.3-3.2-.3-.4-.4-1-1.1-1.1-.4,0-.1-.8-.4-1.2-.8-1-1.4-2-2.1-3-.7-.9-1.6-1.8-2.3-2.8-.7-.9-1.2-2.1-2.1-2.9-.8-.7-.9-1.7-1.5-2.4-.7-.8-1.3-1.6-1.7-2.5-.3-.7-.5-1.4-1-1.9-.3-.3-.8-.5-1.1-.9-.2-.4-.3-1-1-.9,0,0,0-.2,0-.4,0-.6-.3-1.1-.8-1.3-.4-.2-.6-.5-.8-.8-.6-.8-1.2-1.6-1.7-2.5-.4-.6-.6-1.4-1-2.1-.4-.7-1.1-1.2-1.3-2-.2-.8-.6-1.3-1-1.9-.2-.3-.3-.9-1-.8,0,0-.1-.1-.1-.2,0-1.4-1.5-1.7-2-2.8-.5-1.1-1.4-2-2.1-3-.2-.3-.2-.7-.8-.6-.2,0-.4-.3-.4-.5,0-1.1-.9-1.7-1.3-2.5-.5-.9-1.4-1.6-1.6-2.8,0-.5-.4-1.1-1.2-1.2-.4,0-.4-.6-.7-.9-.2-.2-.6-.3-.8-.6-.2-.2-.1-.6-.2-.9,0,0,0-.2-.2-.2-1.5-.9-1.6-2.6-2.7-3.8-1.1-1.2-1.9-2.5-2.8-3.8-.5-.7-.8-1.6-.3-2.7.3-.5.7-.8,1.2-.7.4,0,.7.2,1,.4.4.3.8.7,1.1,1,.8.7,1.8,1.2,2.2,2.2.1.3.6.4.3,1,0,0,0,.2,0,.2,1.5.7,1.9,2.1,2.8,3.3.7.9,1.9,1.5,2.4,2.7.9.2,1.3.9,1.5,1.5.8,2.3,2.6,4,3.9,6,1.3,2,2.8,4,4.2,6,.2.3.7.4.8,1,0,.5.6.9.9,1.3.3.4.7.7.8,1.2.5,1.9,2,3.3,3,4.9,1,1.6,2.1,3.2,3.3,4.6.7.9,1.7,1.6,2.2,2.7.2.4.8.7.6,1.4,0,.2.6.3.8.6.5.6.9,1.3,1.4,1.9.6.9,1.2,1.8,1.9,2.7.4.5,1,.9,1.4,1.5.5.5.9,1.1,1.2,1.7.4.8.8,1.6,1.2,2.4.5.8,1.2,1.4,1.5,2.3.5,1.6,1.7,2.8,2.6,4.2.9,1.4,1.8,2.7,2.8,4,.6.7.7,1.7,1.2,2.4.2.3-.6,1.7-1.1,1.8,0,0-.2,0-.3,0-.9-.4-2-.7-2.5-1.5-.8-1.3-1.7-2.5-2.6-3.7Z"/>
  </g>
  <path d="M197.5,412.2c-.3-1.4-.6-2.8-1-4.1-.1-.5,0-1.1-.7-1.5-.3-.2.2-.8,0-1.3-.4-1.3-.6-2.6-1-3.8-.4-1.2-.9-2.4-1.3-3.6-.4-1.2-.5-2.6-1.1-3.7-.6-.9-.3-2-.7-3-.4-1-.8-2.1-.9-3.1,0-.8,0-1.6-.4-2.3-.2-.4-.6-.8-.8-1.3-.1-.5,0-1.1-.7-1.3,0,0,0-.3,0-.4.2-.6,0-1.2-.4-1.6-.4-.3-.5-.7-.6-1.1-.4-1-.7-2.1-1-3.2-.2-.8-.2-1.6-.4-2.5-.2-.8-.7-1.6-.7-2.5,0-.9-.2-1.6-.4-2.3-.1-.4,0-1-.7-1.2,0,0-.1-.2,0-.3.5-1.4-1-2.3-1.1-3.6-.1-1.3-.6-2.6-1-3.9-.1-.3,0-.8-.5-1-.2,0-.3-.4-.2-.6.4-1.1-.3-2-.4-3.1-.2-1.2-.7-2.2-.5-3.5,0-.5,0-1.2-.6-1.7-.3-.2-.2-.8-.3-1.2-.1-.3-.4-.6-.5-1,0-.3.1-.6.2-.9,0,0,0-.2,0-.3-1-1.6-.4-3.4-.8-5.1-.2-.8-.4-1.7-.5-2.6,0-.9-.1-1.7-.2-2.6,0-1,0-2,1.1-2.7.5-.3,1-.4,1.4,0,.3.3.5.6.6.9.2.5.3,1,.5,1.5.3,1.1.9,2,.8,3.2,0,.4.3.7-.1,1.1,0,0,0,.2,0,.3,1,1.4.7,3,1.1,4.4.3,1.3,1.1,2.4,1.1,3.7.8.6.8,1.4.8,2.2-.1,2.6.9,5,1.5,7.5.6,2.5,1.3,5,2,7.5.1.4.6.7.4,1.3-.1.5.3,1.1.4,1.6.1.5.4,1,.4,1.5,0,2.1.9,4,1.5,6,.5,2,1.1,4,1.8,5.9.5,1.2,1.1,2.3,1.4,3.5,0,.5.6,1,.2,1.7-.1.2.5.5.6.9.3.8.5,1.7.7,2.5.3,1.2.6,2.3,1,3.5.2.7.7,1.3.9,2,.3.7.5,1.5.6,2.2.2,1,.2,1.9.4,2.9.2,1,.7,1.9.7,2.9,0,1.9.6,3.5.9,5.3.4,1.7.7,3.5,1.2,5.2.3,1,0,2,.2,2.9,0,.4-1.2,1.3-1.8,1.3-.1,0-.2,0-.3-.1-.7-.8-1.5-1.6-1.7-2.6-.3-1.6-.6-3.2-1-4.7Z"/>
  <path d="M186.5,475.4c.2-1.1.5-2.1.6-3.2,0-.4.4-.7,0-1.3-.2-.3.5-.5.5-.9.1-1,.4-2,.6-3,.1-1,.1-2,.2-2.9.1-1,.6-1.9.5-2.9-.1-.8.5-1.5.6-2.2,0-.8.1-1.7.5-2.4.3-.5.6-1.1.6-1.7,0-.4-.2-.8-.1-1.1,0-.4.4-.7-.1-1.1,0,0,0-.2.2-.2.5-.3.6-.8.3-1.2-.2-.4-.1-.6,0-.9.1-.8.3-1.6.5-2.4.2-.6.5-1.1.7-1.7.2-.6,0-1.3.5-1.9.4-.5.5-1.1.6-1.7,0-.3.4-.6-.1-1,0,0,0-.2,0-.2,1-.8.1-1.9.5-2.8.4-.9.5-2,.6-2.9,0-.3.3-.5-.1-.8-.1-.1-.1-.4,0-.5.8-.6.5-1.4.8-2.2.3-.8.2-1.7.8-2.5.3-.3.5-.8,0-1.3-.2-.3.1-.6.1-.9,0-.3-.2-.6-.2-.8,0-.2.3-.4.5-.6,0,0,0-.1,0-.2-.4-1.4.7-2.4.8-3.7,0-1.3.4-2.5.8-3.8.2-.7.5-1.4,1.7-1.6.5-.1,1.1,0,1.4.4.2.3.4.6.4.8,0,.4,0,.8,0,1.2,0,.8.4,1.7,0,2.5-.1.2,0,.6-.4.7,0,0-.1.1-.1.2.6,1.3-.2,2.3-.4,3.5-.1,1,.3,2-.2,2.9.5.7.3,1.3,0,1.8-1,1.8-1,3.8-1.5,5.6-.5,1.9-.8,3.9-1.2,5.8,0,.3.2.7-.1,1-.3.3-.2.8-.3,1.2,0,.4,0,.8-.3,1.2-1,1.4-.9,3-1.3,4.5-.4,1.5-.8,3-.9,4.5,0,.9,0,1.9-.3,2.8-.1.4.1.9-.5,1.1-.2,0,.2.5.1.8,0,.6-.2,1.3-.4,1.9-.2.9-.4,1.7-.5,2.6,0,.5,0,1.1,0,1.7,0,.6-.2,1.1-.3,1.7-.2.7-.6,1.4-.8,2.1-.2.7-.1,1.5-.5,2.2-.8,1.2-.8,2.6-1.1,3.9-.3,1.3-.6,2.6-.8,3.9,0,.8-.7,1.3-.9,2,0,.3-1.6.5-2.1.3,0,0-.2-.1-.2-.2-.3-.8-.9-1.6-.7-2.4.3-1.2.5-2.4.8-3.6Z"/>
  <path d="M188.7,493.6c-.1-.1-.3-.3-.4-.4,0,0,0-.3-.4,0-.2.2.2-.3.1-.4-.2,0-.2-.3-.4-.3-.2,0-.4,0-.6-.2-.2,0,0-.4-.4-.4-.3,0,0-.4-.2-.4-.2,0-.4-.1-.2-.4,0-.2.2-.4,0-.4,0,0-.4,0-.4,0,0,0,.2-.3-.4,0,0,0,0,0,.1-.1.3-.3.3-.3,0-.3-.3,0-.3,0-.3,0-.1-.1-.2-.3-.2-.4,0-.1.2-.3.2-.5,0-.1-.3-.1,0-.4.2-.2.2-.3.2-.4,0,0,.2-.2-.4,0,0,0,0,0,0,0,.7-.4-.4-.3-.2-.5.2-.2,0-.4,0-.6,0,0,.2-.1-.3-.1-.2,0-.2,0,0,0,.6-.2.2-.3.3-.5.1-.2-.2-.3.3-.5.2,0,.3-.2-.3-.2-.3,0,0-.1,0-.2,0,0-.3-.1-.3-.2,0,0,.2,0,.3-.1,0,0,0,0,0,0-.6-.3.3-.5.1-.8-.1-.3,0-.6.2-.8,0-.1.3-.3,1.4,0,.5.1,1,.3,1.3.5.2.1.4.2.5.2,0,0,.2.1.3.2.2.1.7.3.4.3,0,0,.2,0-.3,0,0,0-.1,0,0,0,.8.2.3.3.3.4,0,.1.7.2.4.3.6,0,.5,0,.3.1-.7.2-.2.4-.2.6,0,.2,0,.4.1.6,0,0,.4,0,.1,0-.2.1,0,.1,0,.1,0,0,.2,0,0,.1-.5.4-.1.4,0,.6,0,.2,0,.4.3.4.1,0,.5,0,.4.1,0,0,.3,0-.2.3-.1.1.3-.1.3-.1,0,0,0,.1.1.2,0,0,0,.2.2.2,0,0,.3,0,.4,0,0,0,.1,0,.1.1,0,.1,0,.3,0,.4,0,.1.3,0,.1.2-.2.5,0,.4.1.5,0,.1.2.3.4.3.1,0-.1.5,0,.5,0,0-.2.3-.4.7-.2.4-.5.8-.6,1,0,0-.1.2-.1.2-.3.3-.9.9-.9.7-.1-.2-.3-.3-.5-.4Z"/>
  <path d="M207,494.1c-.3,0-.7,0-1,.1-.1,0-.3-.2-.3.3,0,.3-.2-.3-.3-.3-.3.1-.6,0-.9.1-.3,0-.6.3-.9.4-.3,0-.6-.2-.9.1-.2.3-.5-.2-.7,0-.2.1-.5.2-.8,0-.2-.2-.4-.4-.5-.3-.1,0-.2.4-.3.4-.1,0-.2-.3-.3.3,0,0,0,0,0-.1-.1-.4-.3-.4-.4-.1-.1.3-.2.2-.3.2-.3,0-.5,0-.8,0-.2,0-.4-.3-.6-.4-.2,0-.4.2-.6-.1-.2-.3-.3-.3-.5-.3-.1,0-.2-.3-.3.3,0,0,0,0,0,0-.2-.8-.6.2-.9,0-.3-.2-.6-.1-.9-.1,0,0-.2-.2-.3.3,0,.2-.1.2-.2,0-.2-.7-.4-.3-.7-.4-.2-.2-.6,0-.8-.4,0-.2-.2-.4-.4.2-.1.3-.2,0-.3,0,0,0-.2.3-.3.3,0,0,0-.2-.1-.4,0,0,0,0,0,0-.5.6-.7-.4-1.1-.2-.4.1-.8,0-1.2-.2-.2,0-.4-.3-.3-1.5,0-.5.2-1.1.3-1.4.1-.2.2-.4.3-.5.1,0,.3-.2.4-.2.3-.1.6-.6.8-.3,0,.1.2-.2.2.3,0,0,0,.1,0,0,.5-.7.7-.1,1-.1.3,0,.6-.6.9-.3.2-.6.4-.5.5-.3.4.7,1.1.4,1.6.5.5.2,1.1.1,1.7.2,0,0,.2-.3.3,0,0,.3.2,0,.4,0,.1,0,.2-.1.3,0,.4.7.9.3,1.3.4.4,0,.9.2,1.3,0,.3-.1.5-.5.8-.3.1,0,.2-.3.4.3,0,.2.1-.3.2-.3.2,0,.4,0,.5,0,.3,0,.5,0,.8,0,.2,0,.3-.3.4-.4.2,0,.3,0,.5,0,.2,0,.4.3.6.3.2,0,.4-.3.6,0,.4.5.8.2,1.2.2.4,0,.8,0,1.1-.2.2-.1.5.4.7.3,0,0,.5,1.4.5,1.9,0,0,0,.2,0,.2-.1.5-.2,1.2-.5,1.2-.4,0-.7,0-1.1.1Z"/>
  <path d="M210,484.4c0,.1-.1.3-.1.5,0,0-.3,0,.2.3.2.1-.4,0-.4,0,0,.2-.1.3-.1.4,0,.2.2.4.2.5,0,.2-.3.2,0,.4.2.2-.3.1-.2.3,0,.2.1.3-.2.3-.2,0-.4,0-.4.1s.3.2.3.3c0,0-.3,0,.3.3,0,0,0,0-.2,0-.4,0-.4,0-.2.1.2.1.2.2.2.2,0,.1,0,.2-.1.3,0,0-.3,0-.4.1,0,0,.1.3-.2.2-.3,0-.3,0-.4.1,0,0-.3,0,.3.3,0,0,0,0,0,0-.8-.2.1.4,0,.4-.2,0-.2.3-.2.4,0,0-.2,0,.2.2.1,0,.1.1,0,0-.6-.1-.3.1-.4.2-.2,0,0,.3-.4.2-.2,0-.3,0,.2.3.2.1,0,0,0,.2,0,0,.3.2.3.2,0,0-.2,0-.4,0,0,0,0,0,0,0,.6.4-.3.3-.2.5.1.2,0,.4-.2.5,0,0-.3.1-1.4-.2-.5-.2-1-.3-1.3-.5-.2-.1-.4-.2-.5-.3,0,0-.2-.2-.2-.3-.1-.2-.6-.5-.3-.5,0,0-.2-.2.3,0,0,0,.1,0,0,0-.7-.4-.1-.4-.1-.6,0-.2-.5-.5-.2-.5-.6-.3-.4-.3-.2-.4.7,0,.4-.5.6-.7.2-.2.2-.5.3-.8,0,0-.3-.2,0-.2.3,0,0,0,.1-.2,0,0,0-.2,0-.2.7,0,.4-.3.6-.5.1-.2.3-.4.2-.6,0-.2-.3-.4-.1-.5,0,0-.2-.2.4,0,.2,0-.2-.2-.2-.2,0-.1,0-.2,0-.3,0-.1.1-.2.1-.4,0,0-.2-.3-.2-.3,0-.1,0-.2,0-.2.1,0,.3,0,.4-.2,0,0-.1-.3.2-.3.5,0,.4-.3.5-.4.1-.2.2-.3.2-.6,0-.1.5,0,.5-.1,0,0,1.4.4,1.9.6,0,0,.2,0,.2.1.4.3,1,.6,1,.7-.1.1-.1.3-.2.5Z"/>
  <path d="M215.6,492.7c-.1-.1-.2-.3-.4-.4,0,0,0-.3-.4,0-.2.2.2-.3.1-.4-.2,0-.2-.3-.4-.3-.2,0-.4,0-.6-.1-.2,0,0-.4-.4-.3-.3.1,0-.3-.2-.3-.2,0-.3,0-.3-.3,0-.2.1-.4,0-.4,0,0-.4.2-.4.1,0,0,.1-.3-.4.1,0,0,0,0,0-.1.2-.3.1-.4,0-.2-.2.2-.2.1-.3,0-.1,0-.2-.1-.3-.3,0-.1,0-.3,0-.5,0-.1-.3,0-.2-.3.1-.3,0-.3,0-.4,0,0,0-.3-.4.2,0,0,0,0,0,0,.4-.7-.4,0-.4-.3,0-.3-.2-.3-.4-.3,0,0,0-.2-.3.1-.1.1-.2.1-.1,0,.3-.6,0-.4,0-.5,0-.2-.3,0-.1-.5,0-.2,0-.3-.3,0-.2.2,0,0-.2,0,0,0-.3.2-.3.2,0,0,0-.2.1-.3,0,0,0,0,0,0-.6.4-.2-.4-.5-.4-.3,0-.4-.2-.5-.4,0-.1,0-.3.6-1.3.3-.4.6-.9.8-1.1.2-.2.3-.3.4-.4.1,0,.3,0,.4-.1.2,0,.7-.4.6,0,0,0,.2-.1,0,.3,0,0,0,.1,0,0,.6-.5.5,0,.7.1.2,0,.7-.3.7,0,.5-.4.5-.3.5,0-.1.7.4.6.6.9.2.3.5.5.8.7,0,0,.3-.2.2,0-.1.2,0,.1.1.2,0,0,.2,0,.1.2-.2.7.2.6.4.8.2.2.3.5.6.5.2,0,.6,0,.6.1,0,0,.3-.1,0,.4-.1.1.3-.1.3-.1.1,0,.2.1.3.2.1.1.2.3.4.3,0,0,.3,0,.5,0,.1,0,.2.1.2.2,0,.1,0,.4,0,.5,0,.1.3,0,.2.3-.2.5.2.5.3.7.1.2.3.4.5.5.1,0-.1.5,0,.6,0,0-1,1.1-1.4,1.4,0,0-.2.1-.2.1-.4.2-1,.6-1.1.5,0-.2-.3-.3-.4-.5Z"/>
  <path d="M225.3,467.5c1.2.5,2.3.9,3.5,1.4.4.2.8.6,1.4.3.3-.2.5.6.9.8,1.1.4,2.1,1,3.2,1.4,1,.4,2.2.7,3.2,1.1,1,.4,1.9,1.2,3,1.4,1,.2,1.5,1,2.3,1.3.9.3,1.8.7,2.5,1.3.5.5,1,1,1.6,1.2.4.1.9,0,1.3.2.4.2.7.7,1.3.3,0,0,.2.2.2.3.1.3.3.5.5.6.1,0,.2,0,.3.1h0s.1,0,.1,0c0,0,.2,0,.3,0,.8.1,1.3.5,1.8.9,1.4,1.1,2,2.8,1.6,4.4-.3,1.2-1.3,2.1-2.3,2.7-.6.3-1.1.7-1.8.9-.2,0-.3.1-.5.2-.1,0-.2,0-.3,0-.2,0-.4,0-.6,0-.8-.1-1.4,0-2,.3-.4,0-.9,0-1,.6,0,0-.2,0-.2,0-1.3-.5-2.1.8-3.2.8-1.2,0-2.3.4-3.4.7-.3,0-.7,0-.9.5,0,.2-.4.3-.6.2-1-.5-1.8,0-2.7.1-1,0-1.9.5-3,.2-.5-.1-1-.2-1.5.5-.2.3-.7.1-1.1.2-.3,0-.5.4-.8.5-.2,0-.5-.2-.8-.2,0,0-.2,0-.2,0-1.4.9-2.9.2-4.3.5-1.4.4-2.9.5-4.4.5-.8,0-1.7,0-2.3-1.1-.3-.5-.4-1,0-1.4.2-.3.5-.5.8-.6.4-.2.9-.3,1.3-.5.9-.3,1.8-.9,2.7-.8.3,0,.6-.3.9.2,0,0,.2,0,.2,0,1.2-.9,2.6-.6,3.8-.8,1.1-.2,2.1-1,3.2-.9.5-.7,1.2-.7,1.9-.6,2.3.3,4.4-.5,6.5-.9,2.2-.3,4.3-.9,6.5-1.4.4,0,.6-.5,1.1-.4.5.1.9-.2,1.4-.3.4-.1.8-.4,1.3-.3.2,0,.5,0,.5,0,0,0,.2,0,.2,0,.2,0,.3,0,.4-.2.2-.2.2-.5.1-.8,0-.2-.3-.4-.6-.6-.7-.4-1.6-.8-2.4-1.1-1-.4-2.1-.6-3-1.2-.4-.3-1-.2-1.1-.9,0-.2-.6,0-.9-.1-.7-.3-1.3-.7-2-1-.9-.5-1.8-1-2.7-1.4-.6-.2-1.2-.3-1.8-.5-.6-.2-1.2-.5-1.7-.8-.7-.4-1.3-.9-2.1-1.3-.7-.4-1.7-.5-2.3-1.1-1.2-1.1-2.7-1.4-4-2-1.4-.6-2.8-1.2-4.2-1.5-.8-.2-1.4-.9-2.2-1.2-.4-.1-.4-1.7,0-2.1,0,0,.2-.2.2-.2.9-.2,1.9-.6,2.8-.3,1.3.5,2.6,1,4,1.5Z"/>
  <path d="M230.6,431.7c.1-.8.3-1.7.4-2.5,0-.3.3-.6-.2-1-.2-.2.4-.4.4-.7,0-.8.2-1.6.2-2.4,0-.8-.1-1.6-.1-2.3,0-.8.3-1.5,0-2.3-.2-.7.3-1.2.2-1.8-.1-.7-.1-1.3.1-2,.2-.5.4-.9.3-1.4,0-.3-.4-.6-.3-.9,0-.3.3-.6-.3-.9,0,0,0-.2.1-.2.4-.3.4-.7,0-1-.3-.3-.2-.5-.3-.7,0-.7,0-1.3,0-2,0-.5.3-1,.3-1.5,0-.5-.2-1.1,0-1.5.3-.5.2-.9.2-1.4,0-.3.3-.6-.4-.8,0,0,0-.1,0-.2.8-.8-.3-1.5-.2-2.3.2-.8,0-1.6-.1-2.4,0-.2.1-.5-.3-.6-.2,0-.2-.3,0-.4.6-.6.2-1.2.2-1.9,0-.7-.3-1.4.1-2.1.2-.3.3-.7-.4-1-.3-.1,0-.5-.1-.8,0-.2-.4-.4-.4-.6,0-.2.2-.4.3-.6,0,0,0-.1,0-.2-.8-1,0-2-.2-3.1-.3-1-.3-2.1-.3-3.1,0-.6.1-1.2,1.2-1.7.5-.2,1-.3,1.4,0,.3.2.5.3.6.5.1.3.3.6.4.9.3.6.9,1.2.6,2,0,.2.3.4-.2.7,0,0,0,.1,0,.2.9.8.4,1.8.6,2.8.1.8.8,1.5.6,2.3.7.4.6.9.4,1.4-.5,1.6,0,3.2,0,4.8,0,1.6.2,3.2.2,4.8,0,.3.4.5.1.8-.2.3,0,.7,0,1,0,.3.2.7,0,1-.6,1.3-.2,2.5-.2,3.8,0,1.3-.1,2.5,0,3.8,0,.8.4,1.5.3,2.3,0,.3.3.7-.3,1-.2,0,.3.4.3.6,0,.5,0,1.1,0,1.6,0,.7-.1,1.5-.1,2.2,0,.5.2.9.2,1.4,0,.5,0,1-.1,1.4-.1.6-.4,1.2-.5,1.7-.1.6,0,1.3-.3,1.8-.7,1-.5,2.1-.8,3.2-.3,1.1-.5,2.1-.6,3.2,0,.6-.7,1.1-.8,1.7,0,.3-1.6.3-2,0,0,0-.2-.1-.2-.2-.3-.7-.9-1.3-.8-2,.3-.9.4-1.9.6-2.8Z"/>
  <path d="M217.4,465c.3-.6.6-1.1.8-1.7,0-.2.4-.3,0-.8-.2-.2.5-.2.5-.4.2-.6.5-1,.7-1.6.2-.5.2-1.1.4-1.7.2-.5.7-.9.6-1.6,0-.5.6-.7.6-1.2,0-.5.2-1,.6-1.3.3-.2.6-.5.7-.8,0-.2-.2-.5,0-.7.1-.2.4-.3,0-.7,0,0,0,0,.2,0,.5,0,.6-.3.4-.6-.2-.3,0-.4,0-.6.2-.5.3-.9.6-1.3.2-.3.5-.5.7-.8.2-.3,0-.8.5-1,.4-.2.5-.5.7-.8,0-.2.4-.3,0-.7,0,0,0,0,0-.1,1-.2.2-1.1.6-1.5.4-.4.5-1,.7-1.6,0-.1.3-.2,0-.5-.1-.1,0-.3,0-.3.7-.2.6-.7.8-1.1.3-.4.2-1,.9-1.3.3-.1.5-.4,0-.8-.2-.2.1-.3.1-.5,0-.2-.2-.4-.1-.5,0-.1.3-.2.5-.2,0,0,0,0,0-.1-.4-.9.7-1.3.8-2,0-.8.4-1.4.8-2.1.2-.4.5-.7,1.7-.6.5,0,1,.3,1.3.5.2.2.3.4.3.6,0,.3,0,.5,0,.8,0,.5.3,1.2-.1,1.5-.1.1,0,.4-.4.3,0,0-.1,0-.1,0,.5.9-.2,1.4-.4,2-.2.6.2,1.3-.2,1.7.5.5.2.8,0,1.1-1,.8-1,2-1.6,3-.5,1-.9,2.1-1.3,3.2,0,.2.2.5-.2.6-.3,0-.2.4-.3.7,0,.2,0,.5-.3.6-1,.6-.9,1.6-1.4,2.4-.4.8-.8,1.6-1,2.5-.1.5,0,1.2-.4,1.6-.1.2,0,.6-.6.5-.2,0,.1.4.1.5-.1.4-.3.7-.4,1-.2.5-.5.9-.6,1.4,0,.3,0,.7,0,1,0,.3-.2.6-.4.9-.2.4-.6.6-.8,1-.2.4-.2.9-.6,1.2-.8.5-.9,1.3-1.3,2-.4.7-.7,1.4-1,2.1-.1.4-.8.6-.9,1,0,.2-1.5-.2-1.9-.5,0,0-.2-.1-.2-.2-.2-.6-.7-1.2-.5-1.6.4-.6.6-1.3.9-1.9Z"/>
  <path d="M220.7,263.7l-2.1,4c-.3.5-.8.9-.6,1.6,0,.4-.7.5-1,1-.7,1.2-1.5,2.4-2.2,3.6-.7,1.2-1.2,2.4-1.9,3.6-.7,1.2-1.7,2.2-2.1,3.4-.4,1.1-1.3,1.7-1.8,2.6-.5,1-1.1,2-1.8,2.8-.6.6-1.2,1.1-1.5,1.9-.2.5-.2,1-.5,1.5-.3.4-.8.8-.5,1.5,0,0-.2.2-.3.2-.6.3-1,.8-.9,1.4,0,.5-.2.8-.4,1.2-.5,1-1.1,2-1.7,2.9-.5.7-1.1,1.3-1.5,2-.5.7-.7,1.7-1.3,2.3-.7.6-1,1.3-1.4,2-.2.4-.7.7-.3,1.4,0,0,0,.2-.1.3-1.3.8-1,2.4-1.8,3.5-.8,1.1-1.3,2.4-1.9,3.7-.2.3-.5.6-.2,1.1,0,.2,0,.5-.3.6-1,.6-1.1,1.8-1.7,2.7-.6,1-.9,2.2-1.9,3.1-.4.4-.8.9-.5,1.8.1.4-.4.8-.5,1.2-.1.3,0,.8-.2,1.1-.1.3-.5.4-.7.7,0,0-.1.2-.1.3-.1,1.9-1.7,3.1-2.3,4.7-.6,1.7-1.4,3.3-2.3,4.8-.5.9-1.1,1.7-2.4,1.8-.6,0-1.1-.2-1.2-.7,0-.4-.1-.8,0-1.1.1-.6.3-1.1.4-1.6.3-1.1.3-2.4,1.1-3.3.2-.3.1-.8.7-.9,0,0,.2-.1.2-.2,0-1.8,1.1-3,1.7-4.5.5-1.3.5-2.7,1.4-3.8-.2-1,.2-1.7.7-2.3,1.8-2.1,2.6-4.8,3.9-7.1,1.3-2.4,2.5-4.9,3.8-7.3.2-.4,0-.9.6-1.3.5-.3.6-1,.9-1.5.3-.5.4-1.1.8-1.4,1.6-1.6,2.3-3.6,3.4-5.5,1.1-1.8,2.3-3.6,3.2-5.6.6-1.2,1-2.5,1.8-3.5.3-.4.4-1.1,1.2-1.3.2,0,.1-.7.3-1,.4-.8,1-1.5,1.4-2.3.7-1,1.4-2.1,2-3.1.4-.7.6-1.4.9-2.1.4-.7.8-1.4,1.3-2,.6-.8,1.3-1.5,1.9-2.3.6-.8.9-1.9,1.6-2.6,1.3-1.3,2-3,2.9-4.6.9-1.6,1.7-3.2,2.2-4.9.3-1,1.1-1.6,1.5-2.6.2-.4,1.8-.5,2.2-.2,0,0,.1.2.2.3,0,1.1.5,2.2,0,3.3-.7,1.6-1.4,3.2-2.1,4.7Z"/>
  <path d="M188,298.3c-.7-2-1.4-4.1-2.1-6.2-.2-.8-.2-1.6-1-2.3-.4-.3,0-1.3-.2-2-.6-1.9-.9-3.9-1.3-5.9-.4-1.9-1-3.7-1.5-5.6-.5-1.9-.6-3.9-1.1-5.8-.5-1.7,0-3.2-.2-4.9,0-1.8,0-3.7.8-5.4l.4-.9c.1-.3.4-.7.6-1,.4-.6.8-1.2,1.2-1.7.4-.7.7-1.4,1.3-2,.6-.5,1.4-.9,1.5-1.9,0,0,.3-.2.5-.3.9-.2,1.6-.9,2-1.5.3-.6.8-1,1.3-1.4,1.3-1.1,2.6-2.1,4-3,1-.7,2.2-1.2,3.3-1.8,1.1-.7,2.1-1.7,3.3-2,1.2-.4,2.1-1,3.1-1.6.6-.3,1.4-.5,1.5-1.3,0,0,.2-.2.4-.2,1-.1,1.8-.6,2.6-1.2.4-.3.8-.6,1.2-.9.4-.3.8-.5,1.2-.7,1.8-.7,3.5-1.7,5.3-2.6.5-.3,1-.4,1.2-1,0-.2.5-.5.8-.5,1.6-.1,2.7-1.2,4.1-1.9,1.5-.7,2.9-1.8,4.7-2.3.7-.2,1.7-.6,2.2-1.5.2-.4,1.1-.6,1.7-.9.4-.3.8-.8,1.2-1,.4-.2.9-.2,1.4-.3.1,0,.3-.1.4-.2,2.1-1.7,4.8-1.9,7.2-2.9,2.5-1,5.1-1.6,7.7-2,1.4-.2,3-.2,4.1.8.5.5.5,1,0,1.4-.4.3-.9.6-1.3.7-.8.2-1.5.4-2.3.7-1.5.5-2.9,1.3-4.6,1.5-.5,0-1,.5-1.5.1,0,0-.3,0-.4,0-1.8,1.4-4.1,1.7-6.1,2.7-1.7.8-3,2.2-4.9,2.9-.6,1.1-1.8,1.6-2.8,1.9-3.7,1.3-6.8,3.6-10.3,5.4l-5.3,2.7-2.6,1.3c-.8.4-1.7.9-2.5,1.4-.6.3-.9.9-1.7,1.1-.8.1-1.4.8-2.2,1.2-.7.4-1.3,1-2,1.2-2.9,1.1-5.2,3.1-7.7,4.8-2.4,1.7-4.9,3.6-6.8,5.7-.6.7-1.1,1.4-1.5,2-.2.3-.4.7-.5.9,0,.1,0,.2-.2.3l-.2.6c-.1.3-.2.7-.2,1,0,.4-.2.7-.5,1-.2.2.1.9.1,1.4,0,1.1,0,2.3,0,3.5.1,1.6.3,3.3.7,5,.2,1,.7,2,1,3.1.3,1.1.5,2.2.7,3.4.2,1.5.2,2.8.5,4.2.3,1.4.9,2.8,1,4.3.2,2.6,1.2,5.1,2,7.5.8,2.5,1.7,4.9,2.8,7.2.6,1.3.7,2.7,1.4,4,.3.6-.6,2.1-1.2,2-.1,0-.2,0-.3-.1-1-1.1-2.3-2-2.9-3.5-.9-2.3-1.9-4.5-2.7-6.9Z"/>
  <path d="M295.6,110.1c-3.4,0-6.8.2-10.2.5-3.4.4-6.6,1-9.3,2.2-1,.4-2.1.8-3,1.4-.9.6-1.8,1.4-2.3,2.6-.2.6-.9,1-1.7,1.5-.8.5-1.7,1.2-2.3,2.1-1.6,2.4-2.9,5.1-3.9,7.9-1,2.8-1.4,5.6-1,8,.2,1.2.6,2.3,1.2,3.2.6.9,1.4,1.7,2.3,2.4.9.6,1.9,1.1,2.9,1.4,1,.3,2,.3,3,.2,2-.2,4.2-1.1,5.6-2.5,1.4-1.5,2.3-3.6,2-5.9-.2-1.9-.4-3.8-.9-5.6-.5-1.9-1.4-3.6-2.8-5.1-3.1-3.2-7.4-5.7-11.7-8.3-3.2-1.9-6.4-3.8-9.8-4.6-2.2-.5-4.2-.3-6.4-.6-2-.3-4.5-.8-6.2.7-.1,0-1.1,0-1.6,0-2.4-.5-5.2.4-6.8,1.6-1.6,1.2-3.1,1.8-4.6,2.7-4.2,2.4-7.8,5.5-11.2,9.1-2.5,2.7-5,5.5-7,8.7-2.1,3.4-3.3,7.5-5.1,10.7-1.8,3.2-2.7,6.6-2.9,10,0,1-.2,2-.2,2.9,0,.5.1.9.3,1.4.2.4.4.8.8,1.1.2.1.3.7.2,1.1-.2,2.6,1.2,5,3,7.1.9,1,2,2,3,3,1,1,2.2,2.1,3.1,3.2,1.9,2.2,3.9,3.6,5.6,3.6,1.8.1,3.9-.8,5.5-2.4.9-.8,2-1.8,1.6-3.1-.2-.5.2-1.4.5-1.9.2-.3.4-.7.5-1.1,0-.4.2-.8.2-1.3,0-.9-.1-1.8-.4-2.7-.3-.9-.7-1.8-1.2-2.6-.5-.8-1.1-1.7-1.7-2.5-.7-.9-1.5-1.8-2.4-2.5-.9-.7-1.9-1.4-2.9-1.9-2.1-1.2-4.3-2.1-6.6-3.1-2-.8-5.1-1.3-7.5.1-1.1.6-3.5.5-5.3,1.1-1.4.5-2.6,1.5-3.8,2.1-.3.1-.6.2-.9.3-.3.1-.6.2-.9.3l-.9.2c-.3.1-.6.2-.9.3-.4.2-.8.4-1,.7-2.6,2.6-5.1,5.1-7.5,7.9-2.3,2.8-4.4,6.1-5.4,9.8-2.1,7.3-2.5,15.2-1.4,23,.6,4.3,1.5,8.7.5,12.4-.5,1.7-1.5,2.1-2.8.4-1-1.2-1.9-2.7-2.5-4.4-.9-2.6-1.8-5.2-2.4-7.9-.6-2.8-1.3-5.6-1.6-8.5-.3-2.9-.3-5.9.4-8.8.2-.9.3-1.9.5-2.9.2-1,.5-1.9,1.2-2.5.2-.2.5-.9.5-1.3.3-4,1.9-8,4.1-11.5,1.1-1.8,2.4-3.4,3.7-5.1,1.4-1.6,2.8-3.1,4.4-4.5,2.6-2.4,5.3-4.7,8.5-6.5,3.1-1.8,6.7-3.1,10.4-3.4,3.9-1.9,9.1-1.6,13.1-.2,3.6,1.1,7,2.7,10.2,4.9,3.2,2.2,5.9,4.9,8,8.1,2.1,3.2,3.6,7.1,3.7,11.3,0,1,0,2.1-.1,3.1l-.3,1.6c-.1.5-.3,1-.5,1.6-.7,2-1.8,3.9-3.2,5.5-2.7,3.2-6.6,5.7-11.2,6.2-2.3.3-4.8,0-6.9-.9-2.1-.9-3.9-2.1-5.3-3.4-1.5-1.3-2.7-2.5-3.8-3.8-1.2-1.2-2.3-2.6-3.4-4-2.2-2.8-4.3-6.1-5.5-9.8-.4-1.3-.9-2.5-1.2-3.7-.3-1.3-.5-2.6-.2-4.2.4-2.8.5-6.4,1.3-9.5.7-2.8,1.4-5.7,2.6-8,2.6-4.7,5.1-9.4,8.1-13.9,3-4.5,6.5-8.8,10.8-12.3,4.3-3.5,9.1-6.2,14.3-8.1,5.2-1.8,10.8-2.8,16.5-2.5,6.9.3,13.5,2.2,19.2,5.2,2.4,1.3,5.5,2.1,7.3,4.7.5.7,3.3,1.5,4.8,2.8,1.9,1.5,3.6,3.3,5.1,5.4,1.5,2.1,2.7,4.5,3.5,6.9,1.1,3.4,1.5,7.2.8,10.9-.7,3.7-2.6,7.5-5.7,10.1-1.8,1.6-3.9,2.9-6.2,3.7-2.3.8-4.8,1.2-7.4.9-2.7-.3-5.3-1.3-7.5-2.8-2.2-1.5-4.1-3.4-5.4-5.7-1.7-3-2.4-6.4-2.3-9.4,0-3.1.8-5.9,1.6-8.4.9-2.7,1.9-5.3,3.2-7.8,1.3-2.5,3-4.9,5-6.7,1.9-1.7,4-3.3,6.2-4.5,2.3-1.3,4.7-2.2,7-2.9,2.4-.7,4.7-1.1,7-1.4,1.1-.2,2.3-.3,3.4-.4,1.1-.1,2.3-.2,3.4-.2,9.1-.4,18.3.4,27.3,3.1,1.3.4,2.5.9,3.6,1.4,1.1.6,2.3,1.2,3.3,1.9,1.1.7,2.1,1.4,3.1,2.2.5.4,1,.7,1.6,1.1.5.4,1,.8,1.5,1.2.5.4.9.9,1.2,1.5.3.6.5,1.3.5,2,.1,1.3-.2,2.3-.8,2.4-.3,0-.7,0-1-.2-.5-.3-1-.6-1.5-.8-.5-.3-1-.5-1.6-.7-.5-.2-1-.5-1.5-.6-.5-.2-1.1-.4-1.6-.6-2.1-.8-4.2-1.5-6.5-2.5-6.8-2.9-14.5-4-22.2-4Z"/>
  <path d="M354.4,359.3c-.6.3-1.2.6-1.7,1-.2.1-.5,0-.5.6,0,.3-.5-.1-.7,0-.5.4-1.1.6-1.6,1-.5.4-.9.8-1.4,1.2-.5.4-1.2.4-1.5,1-.3.5-.9.3-1.3.6-.4.4-.8.7-1.3.7-.4,0-.8,0-1.1.3-.2.2-.2.6-.4.7-.2,0-.6,0-.4.6,0,0-.1,0-.2,0-.4-.2-.7,0-.7.3,0,.3-.2.4-.3.5-.4.3-.8.6-1.3.8-.3.2-.8.1-1.1.3-.4.1-.6.6-1,.5-.5,0-.8.1-1.1.3-.2.1-.5,0-.3.6,0,0,0,0-.1,0-.9-.4-.8.8-1.5.9-.6.1-1.1.6-1.6.9-.1,0-.4,0-.3.5,0,.2,0,.3-.2.2-.7-.3-.9.3-1.4.4-.5.2-.8.7-1.5.6-.3,0-.6,0-.5.6,0,.3-.3.2-.5.4-.1.1,0,.4-.2.5-.1,0-.3,0-.5,0,0,0,0,0-.1,0-.3,1-1.4.6-2,1.2-.6.6-1.3.9-2,1.3-.4.2-.9.3-1.7-.6-.4-.4-.7-.8-.7-1.2,0-.3,0-.6,0-.7.2-.2.3-.4.5-.7.3-.4.5-1.1,1.1-1.2.2,0,.2-.4.6,0,0,0,.1,0,.1,0,.2-1,1.1-1,1.6-1.4.5-.4.6-1.2,1.3-1.3,0-.7.3-.8.7-.8,1.4,0,2.1-1.1,3.2-1.6,1.1-.5,2.1-1.3,3.1-1.8.2-.1.1-.5.5-.4.3.1.5-.2.7-.4.2-.1.4-.4.6-.4,1.1,0,1.8-.7,2.6-1.2.8-.4,1.7-.9,2.4-1.5.4-.4.8-1,1.3-1.1.2,0,.3-.5.8-.1.1.1.1-.4.2-.5.3-.2.7-.4,1-.6.5-.3,1-.5,1.4-.8.3-.2.4-.6.7-.8.3-.2.6-.4.9-.5.4-.2.9-.2,1.3-.4.4-.2.7-.7,1.2-.6,1,0,1.5-.6,2.3-1,.7-.4,1.5-.7,2.1-1.2.4-.3,1,0,1.4-.3.2-.1,1.2,1,1.3,1.5,0,0,0,.2,0,.2-.2.6-.1,1.5-.6,1.7-.7.3-1.3.7-1.9,1.1Z" fill="#fff"/>
  <path d="M330.9,180.3c0-.5,0-1.1,0-1.6,0-.2.2-.4-.3-.6-.3-.1.4-.3.3-.5,0-.5,0-1,0-1.5,0-.5-.3-1-.3-1.5,0-.5.2-1,0-1.4-.3-.4.2-.8.1-1.1-.1-.4-.2-.8,0-1.2.2-.3.4-.6.3-.9,0-.2-.4-.3-.4-.5,0-.2.3-.4-.3-.5,0,0,0,0,.1-.1.4-.2.4-.4.1-.6-.3-.2-.2-.3-.3-.5,0-.4,0-.8,0-1.2,0-.3.3-.6.3-.9,0-.3-.2-.7,0-1,.3-.3.3-.6.3-.9,0-.2.3-.4-.3-.5,0,0,0,0,0-.1.8-.5-.3-.9,0-1.4.2-.5,0-1,0-1.5,0-.1.2-.3-.3-.4-.2,0-.2-.2,0-.3.6-.4.2-.8.4-1.1.1-.4-.2-.9.3-1.3.2-.2.3-.4-.3-.7-.3-.1,0-.3,0-.5,0-.1-.3-.3-.3-.4,0-.1.2-.2.3-.3,0,0,0,0,0-.1-.7-.6.2-1.3,0-1.9-.2-.6-.1-1.3,0-1.9,0-.4.2-.7,1.4-1,.5-.1,1.1-.1,1.4,0,.2.1.5.2.5.4,0,.2.2.4.3.6.2.4.7.8.4,1.2,0,.1.2.3-.3.4,0,0-.1,0,0,0,.8.6.3,1.1.3,1.7,0,.5.7,1,.4,1.5.6.3.5.6.3.9-.7,1-.2,1.9-.3,2.9,0,1,0,2,0,2.9,0,.2.4.3,0,.5-.3.2,0,.4,0,.6s.1.4,0,.6c-.7.8-.3,1.5-.3,2.3,0,.8-.1,1.5,0,2.3,0,.5.4.9.3,1.4,0,.2.3.4-.3.6-.2,0,.3.2.3.4,0,.3,0,.6,0,1s0,.9,0,1.3c0,.3.3.5.3.8,0,.3,0,.6,0,.9,0,.4-.3.7-.3,1.1,0,.4.2.8,0,1.1-.5.7-.3,1.3-.3,2,0,.7-.1,1.3,0,2,0,.4-.4.7-.4,1.1,0,.2-1.5.4-2,.3,0,0-.2,0-.2,0-.5-.4-1.2-.7-1.1-1.1,0-.6,0-1.2,0-1.8Z" fill="#fff"/>
  <path d="M347.9,149.2c-.2,0-.5.1-.7.3,0,0-.3-.2-.2.4,0,.3-.3-.3-.3-.3-.2.1-.5.1-.7.3-.2.1-.3.4-.5.6-.2.1-.5,0-.6.3,0,.3-.4,0-.6,0-.1.2-.3.3-.6.2-.2-.1-.4-.3-.5-.1,0,0,0,.4-.1.4,0,0-.3-.2-.1.4,0,0,0,0-.1-.1-.2-.3-.3-.3-.3,0,0,.3,0,.3-.1.3-.2.1-.3.2-.5.2-.2,0-.4-.2-.5-.2-.2,0-.2.3-.5,0-.2-.2-.4-.2-.5-.1,0,0-.3-.2,0,.4,0,0,0,0,0,0-.5-.7-.3.4-.6.3-.3-.1-.5.1-.7.2,0,0-.2-.1,0,.3,0,.2,0,.2,0,.1-.4-.5-.4,0-.6-.1-.2,0-.3.3-.7,0-.2-.2-.3-.2-.2.4,0,.3-.1,0-.2.2,0,0,0,.3,0,.4,0,0-.2-.2-.3-.2,0,0,0,0,0,0,0,.7-.6,0-.8.3-.2.3-.5.4-.8.4-.2,0-.4,0-1-1-.3-.4-.5-.9-.6-1.3,0-.2-.1-.5,0-.6,0-.1,0-.3.1-.4,0-.3,0-.8.4-.7,0,0,0-.3.3.2,0,0,0,0,0,0,0-.8.4-.5.6-.7.2-.1.1-.8.5-.7-.1-.6,0-.6.3-.5.7.4,1-.2,1.5-.3.5-.1.9-.4,1.4-.5,0,0,0-.4.2-.2.2.2.2,0,.3,0,0,0,.1-.2.3,0,.6.5.8,0,1.2-.1.4,0,.8-.2,1.1-.4.2-.2.3-.6.5-.5.1,0,0-.3.4.2,0,.1,0-.3,0-.4.1-.1.3-.1.4-.2.2,0,.4-.1.6-.2.1,0,.2-.4.3-.5.1-.1.3-.2.4-.1.2,0,.4.2.6.1.2,0,.3-.3.6-.1.5.4.7,0,1,0,.3,0,.7-.1.9-.3.2-.1.5.3.6.2,0,0,.6,1.3.7,1.8,0,0,0,.2,0,.2,0,.5,0,1.2-.2,1.3-.3,0-.6.2-.8.2Z" fill="#fff"/>
  <path d="M363.6,141.8c-.2,0-.5.1-.7.3,0,0-.3-.2-.2.4,0,.3-.3-.3-.3-.3-.2.1-.5.1-.7.3-.2.1-.3.4-.5.6-.2.1-.5,0-.6.3,0,.3-.4,0-.6,0-.1.2-.3.3-.6.2-.2-.1-.4-.3-.5-.1,0,0,0,.4-.1.4,0,0-.3-.2-.1.4,0,0,0,0-.1-.1-.2-.3-.3-.3-.3,0,0,.3,0,.3-.1.3-.2.1-.3.2-.5.2-.2,0-.4-.2-.5-.2-.2,0-.2.3-.5,0-.2-.2-.4-.2-.5-.1,0,0-.3-.2,0,.4,0,0,0,0,0,0-.5-.7-.3.4-.6.3-.3-.1-.5.1-.7.2,0,0-.2-.1,0,.3,0,.2,0,.2,0,.1-.4-.5-.4,0-.6-.1-.2,0-.3.3-.7,0-.2-.2-.3-.2-.2.4,0,.3-.1,0-.2.2,0,0,0,.3,0,.4,0,0-.2-.2-.3-.2,0,0,0,0,0,0,0,.7-.6,0-.8.3-.2.3-.5.4-.8.4-.2,0-.4,0-1-1-.3-.4-.5-.9-.6-1.3,0-.2-.1-.5,0-.6,0-.1,0-.3.1-.4,0-.3,0-.8.4-.7,0,0,0-.3.3.2,0,0,0,0,0,0,0-.8.4-.5.6-.7.2-.1.1-.8.5-.7-.1-.6,0-.6.3-.5.7.4,1-.2,1.5-.3.5-.1.9-.4,1.4-.5,0,0,0-.4.2-.2.2.2.2,0,.3,0,0,0,.1-.2.3,0,.6.5.8,0,1.2-.1.4,0,.8-.2,1.1-.4.2-.2.3-.6.5-.5.1,0,0-.3.4.2,0,.1,0-.3,0-.4.1-.1.3-.1.4-.2.2,0,.4-.1.6-.2.1,0,.2-.4.3-.5.1-.1.3-.2.4-.1.2,0,.4.2.6.1.2,0,.3-.3.6-.1.5.4.7,0,1,0,.3,0,.7-.1.9-.3.2-.1.5.3.6.2,0,0,.6,1.3.7,1.8,0,0,0,.2,0,.2,0,.5,0,1.2-.2,1.3-.3,0-.6.2-.8.2Z" fill="#fff"/>
  <path d="M346.4,174.2c0-.5,0-.9,0-1.4,0-.2.2-.4-.3-.5-.3,0,.4-.3.3-.4,0-.4,0-.9,0-1.3,0-.4-.3-.9-.3-1.3,0-.4.2-.9,0-1.3-.3-.4.2-.7.1-1-.1-.4-.2-.7,0-1.1.2-.3.4-.5.3-.8,0-.2-.4-.3-.4-.5,0-.2.3-.3-.3-.5,0,0,0,0,.1-.1.4-.2.4-.4.1-.5-.3-.1-.2-.3-.3-.4,0-.4,0-.7,0-1.1,0-.3.3-.5.3-.8,0-.3-.2-.6,0-.8.3-.3.3-.5.3-.8,0-.1.3-.3-.3-.4,0,0,0,0,0,0,.8-.4-.3-.8,0-1.2.2-.4,0-.9,0-1.3,0-.1.2-.2-.3-.3-.2,0-.2-.2,0-.2.6-.3.2-.7.4-1,.1-.4-.2-.8.3-1.1.2-.2.3-.4-.3-.6-.3,0,0-.3,0-.4,0-.1-.3-.2-.3-.3,0,0,.2-.2.3-.3,0,0,0,0,0,0-.7-.6.2-1.1,0-1.7-.2-.6-.1-1.1,0-1.7,0-.3.2-.6,1.4-.8.5,0,1.1,0,1.4,0,.2,0,.5.2.5.3,0,.2.2.4.3.5.2.4.7.7.4,1.1,0,.1.2.3-.3.3,0,0-.1,0,0,0,.8.5.3,1,.3,1.5,0,.4.7.8.4,1.3.6.2.5.5.3.8-.7.8-.2,1.7-.3,2.5,0,.9,0,1.7,0,2.6,0,.1.4.3,0,.4-.3.2,0,.4,0,.6s.1.4,0,.5c-.7.7-.3,1.4-.3,2,0,.7-.1,1.3,0,2,0,.4.4.8.3,1.2,0,.2.3.4-.3.5-.2,0,.3.2.3.3,0,.3,0,.6,0,.8s0,.8,0,1.2c0,.2.3.5.3.7,0,.2,0,.5,0,.8,0,.3-.3.6-.3.9,0,.3.2.7,0,1-.5.6-.3,1.2-.3,1.7,0,.6-.1,1.2,0,1.7,0,.3-.4.6-.4.9,0,.1-1.5.4-2,.3,0,0-.2,0-.2,0-.5-.3-1.2-.6-1.1-1,0-.5,0-1.1,0-1.6Z" fill="#fff"/>
  <path d="M361.3,165.4c0-.5,0-.9,0-1.4,0-.2.2-.4-.3-.5-.3,0,.4-.3.3-.4,0-.4,0-.9,0-1.3,0-.4-.3-.9-.3-1.3,0-.4.2-.9,0-1.3-.3-.4.2-.7.1-1-.1-.4-.2-.7,0-1.1.2-.3.4-.5.3-.8,0-.2-.4-.3-.4-.5,0-.2.3-.3-.3-.5,0,0,0,0,.1-.1.4-.2.4-.4.1-.5-.3-.1-.2-.3-.3-.4,0-.4,0-.7,0-1.1,0-.3.3-.5.3-.8,0-.3-.2-.6,0-.8.3-.3.3-.5.3-.8,0-.1.3-.3-.3-.4,0,0,0,0,0,0,.8-.4-.3-.8,0-1.2.2-.4,0-.9,0-1.3,0-.1.2-.2-.3-.3-.2,0-.2-.2,0-.2.6-.3.2-.7.4-1,.1-.4-.2-.8.3-1.1.2-.2.3-.4-.3-.6-.3,0,0-.3,0-.4,0-.1-.3-.2-.3-.3,0,0,.2-.2.3-.3,0,0,0,0,0,0-.7-.6.2-1.1,0-1.7-.2-.6-.1-1.1,0-1.7,0-.3.2-.6,1.4-.8.5,0,1.1,0,1.4,0,.2,0,.5.2.5.3,0,.2.2.4.3.5.2.4.7.7.4,1.1,0,.1.2.3-.3.3,0,0-.1,0,0,0,.8.5.3,1,.3,1.5,0,.4.7.8.4,1.3.6.2.5.5.3.8-.7.8-.2,1.7-.3,2.5,0,.9,0,1.7,0,2.6,0,.1.4.3,0,.4-.3.2,0,.4,0,.6s.1.4,0,.5c-.7.7-.3,1.4-.3,2,0,.7-.1,1.3,0,2,0,.4.4.8.3,1.2,0,.2.3.4-.3.5-.2,0,.3.2.3.3,0,.3,0,.6,0,.8s0,.8,0,1.2c0,.2.3.5.3.7,0,.2,0,.5,0,.8,0,.3-.3.6-.3.9,0,.3.2.7,0,1-.5.6-.3,1.2-.3,1.7,0,.6-.1,1.2,0,1.7,0,.3-.4.6-.4.9,0,.1-1.5.4-2,.3,0,0-.2,0-.2,0-.5-.3-1.2-.6-1.1-1,0-.5,0-1.1,0-1.6Z" fill="#fff"/>
  <path d="M349,176.7c-.3.1-.5.2-.8.4,0,0-.3-.1-.2.4,0,.3-.3-.3-.4-.2-.2.2-.5.2-.7.4-.2.2-.4.5-.6.6-.2.2-.6,0-.7.4,0,.3-.5,0-.6.2-.1.2-.3.4-.6.2-.2,0-.4-.2-.5,0,0,.1,0,.4-.1.5,0,0-.3-.2-.1.4,0,0,0,0-.1-.1-.3-.3-.4-.2-.3,0,0,.3,0,.3-.1.3-.2.1-.4.2-.6.3-.2,0-.4-.1-.6,0-.2,0-.2.4-.5.2-.3-.2-.4-.1-.5,0,0,0-.3-.2,0,.4,0,0,0,0,0,0-.6-.6-.3.5-.6.4-.3,0-.5.2-.7.3,0,0-.2,0,0,.3,0,.2,0,.2,0,.1-.5-.5-.5,0-.7,0-.3,0-.3.4-.8,0-.2-.1-.4-.2-.2.4,0,.3-.1,0-.2.2,0,0,0,.3,0,.4,0,0-.2-.1-.3-.2,0,0,0,0,0,0,0,.7-.7.1-.9.5-.2.3-.5.4-.9.5-.2,0-.4,0-1.1-.9-.3-.4-.6-.9-.7-1.2,0-.2-.1-.5,0-.6,0-.1,0-.3.1-.4,0-.3,0-.9.4-.7.1,0,0-.3.3.1,0,0,0,0,0,0-.1-.8.4-.5.7-.8.2-.2.1-.9.5-.7-.2-.6,0-.6.3-.5.8.3,1-.3,1.6-.5.5-.2,1-.5,1.5-.7,0,0,0-.4.2-.2.2.2.2,0,.3-.1,0,0,.1-.2.3-.1.7.4.9-.1,1.3-.3.4-.1.8-.2,1.1-.6.2-.2.3-.6.6-.6.1,0,0-.4.4.1,0,.1,0-.3,0-.4.1-.1.3-.2.5-.2.2-.1.5-.2.7-.3.1,0,.2-.4.3-.5.1-.1.3-.2.4-.2.2,0,.5.1.7,0,.2,0,.3-.4.6-.2.5.3.8,0,1.1-.1.4,0,.7-.2,1-.4.2-.1.5.3.7.2,0,0,.8,1.3.9,1.8,0,0,0,.2,0,.2,0,.5.1,1.2-.1,1.3-.3,0-.6.2-.9.4Z" fill="#fff"/>
  <path d="M360,171.4c-.3.1-.5.2-.8.4,0,0-.3-.1-.2.4,0,.3-.3-.3-.4-.2-.2.2-.5.2-.7.4-.2.2-.4.5-.6.6-.2.2-.6,0-.7.4,0,.3-.5,0-.6.2-.1.2-.3.4-.6.2-.2,0-.4-.2-.5,0,0,.1,0,.4-.1.5,0,0-.3-.2-.1.4,0,0,0,0-.1-.1-.3-.3-.4-.2-.3,0,0,.3,0,.3-.1.3-.2.1-.4.2-.6.3-.2,0-.4-.1-.6,0-.2,0-.2.4-.5.2-.3-.2-.4-.1-.5,0,0,0-.3-.2,0,.4,0,0,0,0,0,0-.6-.6-.3.5-.6.4-.3,0-.5.2-.7.3,0,0-.2,0,0,.3,0,.2,0,.2,0,.1-.5-.5-.5,0-.7,0-.3,0-.3.4-.8,0-.2-.1-.4-.2-.2.4,0,.3-.1,0-.2.2,0,0,0,.3,0,.4,0,0-.2-.1-.3-.2,0,0,0,0,0,0,0,.7-.7.1-.9.5-.2.3-.5.4-.9.5-.2,0-.4,0-1.1-.9-.3-.4-.6-.9-.7-1.2,0-.2-.1-.5,0-.6,0-.1,0-.3.1-.4,0-.3,0-.9.4-.7.1,0,0-.3.3.1,0,0,0,0,0,0-.1-.8.4-.5.7-.8.2-.2.1-.9.5-.7-.2-.6,0-.6.3-.5.8.3,1-.3,1.6-.5.5-.2,1-.5,1.5-.7,0,0,0-.4.2-.2.2.2.2,0,.3-.1,0,0,.1-.2.3-.1.7.4.9-.1,1.3-.3.4-.1.8-.2,1.1-.6.2-.2.3-.6.6-.6.1,0,0-.4.4.1,0,.1,0-.3,0-.4.1-.1.3-.2.5-.2.2-.1.5-.2.7-.3.1,0,.2-.4.3-.5.1-.1.3-.2.4-.2.2,0,.5.1.7,0,.2,0,.3-.4.6-.2.5.3.8,0,1.1-.1.4,0,.7-.2,1-.4.2-.1.5.3.7.2,0,0,.8,1.3.9,1.8,0,0,0,.2,0,.2,0,.5.1,1.2-.1,1.3-.3,0-.6.2-.9.4Z" fill="#fff"/>
  <path d="M359.4,275.2c0-1.9,0-3.8,0-5.6,0-.7.2-1.4-.3-2.1-.3-.4.4-1,.3-1.7,0-1.8,0-3.5,0-5.3,0-1.7-.3-3.4-.3-5.1,0-1.7.2-3.4,0-5.1-.3-1.4.2-2.7.1-4-.1-1.4-.2-2.9,0-4.3.2-1,.4-2,.3-3,0-.6-.4-1.2-.4-1.9,0-.6.3-1.4-.3-1.9,0,0,0-.3.1-.5.4-.7.4-1.5.1-2.1-.3-.6-.2-1.1-.3-1.6,0-1.4,0-2.9,0-4.3,0-1.1.3-2.2.3-3.2,0-1.1-.2-2.3,0-3.4.3-1,.3-2,.3-3.1,0-.6.3-1.3-.3-1.7,0,0,0-.3,0-.4.8-1.7-.3-3.3,0-5,.2-1.7,0-3.5,0-5.3,0-.5.2-1-.3-1.4-.2-.2-.2-.6,0-.9.6-1.3.2-2.7.4-4,.1-1.5-.2-3,.3-4.6.2-.6.3-1.5-.3-2.3-.3-.4,0-1.1,0-1.7,0-.5-.3-.9-.3-1.4,0-.4.2-.8.3-1.2,0-.1,0-.3,0-.4-.7-2.2.2-4.4,0-6.7-.2-2.2-.1-4.5,0-6.8,0-1.2.2-2.5,1.4-3.4.5-.4,1.1-.4,1.4.1.2.4.5.8.5,1.3,0,.7.2,1.4.3,2.1.2,1.4.7,2.9.4,4.4,0,.5.2,1-.3,1.4,0,0-.1.2,0,.3.8,2,.3,4,.3,6.1,0,1.7.7,3.4.4,5.1.6,1,.5,2.1.3,3-.7,3.4-.2,6.8-.3,10.2,0,3.4,0,6.9,0,10.3,0,.6.4,1.1,0,1.8-.3.6,0,1.5,0,2.2s.1,1.4,0,2.1c-.7,2.7-.3,5.4-.3,8.1,0,2.7-.1,5.4,0,8.1,0,1.6.4,3.3.3,4.9,0,.7.3,1.4-.3,2.1-.2.2.3.9.3,1.3,0,1.1,0,2.3,0,3.4s0,3.1,0,4.7c0,1,.3,1.9.3,2.9,0,1,0,2,0,3,0,1.3-.3,2.5-.3,3.8,0,1.3.2,2.7,0,3.9-.5,2.3-.3,4.7-.3,7,0,2.3-.1,4.6,0,7,0,1.3-.4,2.5-.4,3.8,0,.6-1.5,1.4-2,1.2,0,0-.2-.1-.2-.2-.5-1.3-1.2-2.4-1.1-3.9,0-2.1,0-4.3,0-6.4Z"/>
  <path d="M424.8,147.9c-1.1.5-2.2,1-3.3,1.6-.4.2-.9.2-1.1.8-.1.3-.8,0-1.1.1-1,.5-2.1.9-3.1,1.4-1,.5-1.9,1.2-2.9,1.6-1,.5-2.1.7-3,1.4-.7.6-1.7.5-2.4.9-.8.5-1.6.9-2.6,1-.7,0-1.4.1-1.9.5-.4.2-.6.7-1,.8-.4.1-.9,0-1,.8,0,0-.2,0-.3,0-.6-.2-1.1,0-1.3.4-.2.4-.5.5-.9.6-.8.4-1.7.8-2.6,1-.7.2-1.4.2-2.1.4-.7.2-1.3.8-2,.7-.7,0-1.3.2-1.9.4-.3.1-.9,0-.9.7,0,0-.1.1-.2,0-1.3-.4-1.9,1-3,1.2-1.1.2-2.1.7-3.2,1.2-.3.1-.6,0-.7.6,0,.2-.3.3-.5.3-1-.3-1.7.4-2.5.6-1,.2-1.8.8-2.9.7-.5,0-1,0-1.3.8-.1.3-.7.2-1,.4-.3.1-.4.5-.7.6-.2,0-.5,0-.8,0,0,0-.2,0-.2,0-1.1,1.1-2.7.8-4,1.4-1.3.7-2.7,1.1-4.1,1.5-.8.2-1.6.3-2.5-.6-.4-.4-.6-.9-.4-1.3.2-.3.3-.6.6-.8.4-.3.8-.5,1.2-.8.8-.5,1.5-1.3,2.5-1.4.3,0,.5-.4.9,0,0,0,.2,0,.2,0,.9-1.2,2.3-1.1,3.5-1.6,1-.4,1.8-1.4,2.9-1.5.4-.8,1.1-.9,1.7-1,2.3-.1,4.2-1.3,6.2-2,2.1-.7,4.1-1.6,6.2-2.3.4-.1.5-.6,1-.5.5,0,.9-.3,1.4-.5.4-.2.8-.5,1.2-.5,1.8,0,3.3-1,5-1.6,1.6-.6,3.3-1.2,4.8-2,.9-.5,1.8-1.2,2.8-1.5.4-.1.7-.6,1.4-.2.2.1.4-.5.7-.6.6-.3,1.3-.6,2-.9.9-.4,1.9-.8,2.7-1.2.5-.3,1-.7,1.5-1,.6-.3,1.1-.6,1.8-.8.8-.3,1.6-.4,2.4-.7.8-.3,1.5-.9,2.3-1,1.6-.2,2.8-1,4.2-1.6,1.4-.6,2.7-1.2,4-1.9.7-.4,1.6-.3,2.4-.7.3-.2,1.5.9,1.5,1.4,0,0,0,.2,0,.3-.5.8-.9,1.8-1.7,2.1-1.3.5-2.5,1.2-3.7,1.8Z"/>
  <path d="M359.4,448.5c0-2.4,0-4.8,0-7.2,0-.9.2-1.8-.3-2.7-.3-.5.4-1.3.3-2.2,0-2.2,0-4.5,0-6.7,0-2.2-.3-4.3-.3-6.5,0-2.2.2-4.4,0-6.5-.3-1.8.2-3.4.1-5.1-.1-1.8-.2-3.7,0-5.5.2-1.3.4-2.6.3-3.9,0-.8-.4-1.6-.4-2.4,0-.8.3-1.7-.3-2.5,0,0,0-.4.1-.6.4-.9.4-2,.1-2.7-.3-.7-.2-1.4-.3-2,0-1.8,0-3.7,0-5.5,0-1.4.3-2.7.3-4.1,0-1.4-.2-3,0-4.3.3-1.3.3-2.6.3-3.9,0-.7.3-1.6-.3-2.2,0,0,0-.3,0-.5.8-2.1-.3-4.2,0-6.3.2-2.2,0-4.5,0-6.7,0-.6.2-1.2-.3-1.8-.2-.2-.2-.8,0-1.1.6-1.7.2-3.4.4-5.1.1-1.9-.2-3.9.3-5.8.2-.8.3-2-.3-2.9-.3-.5,0-1.4,0-2.1,0-.6-.3-1.1-.3-1.7,0-.5.2-1,.3-1.5,0-.1,0-.3,0-.5-.7-2.8.2-5.6,0-8.5-.2-2.9-.1-5.8,0-8.6,0-1.6.2-3.2,1.4-4.3.5-.5,1.1-.5,1.4.2.2.5.5,1.1.5,1.6,0,.9.2,1.8.3,2.7.2,1.8.7,3.6.4,5.5,0,.6.2,1.3-.3,1.8,0,0-.1.3,0,.4.8,2.5.3,5.2.3,7.7,0,2.2.7,4.3.4,6.5.6,1.2.5,2.6.3,3.9-.7,4.3-.2,8.7-.3,13,0,4.4,0,8.8,0,13.2,0,.7.4,1.4,0,2.3-.3.8,0,1.9,0,2.9s.1,1.8,0,2.6c-.7,3.4-.3,6.9-.3,10.4,0,3.4-.1,6.9,0,10.3,0,2.1.4,4.2.3,6.3,0,.9.3,1.8-.3,2.7-.2.3.3,1.1.3,1.7,0,1.4,0,2.9,0,4.3s0,4,0,6c0,1.2.3,2.4.3,3.6,0,1.3,0,2.6,0,3.8,0,1.6-.3,3.2-.3,4.8,0,1.7.2,3.4,0,5-.5,3-.3,6-.3,8.9,0,3-.1,5.9,0,8.9,0,1.7-.4,3.2-.4,4.8,0,.8-1.5,1.8-2,1.5,0,0-.2-.2-.2-.3-.5-1.6-1.2-3.1-1.1-4.9,0-2.7,0-5.4,0-8.2Z"/>
  <path d="M378.8,310.2c0,0-.1-.2-.2-.3,0,0,.1-.2-.3,0-.2.1.2-.3.2-.3-.1,0-.1-.2-.2-.2-.1,0-.4,0-.5,0-.1,0,0-.3-.3-.2-.3.1,0-.3,0-.3-.2,0-.3,0-.2-.2,0-.2.2-.4,0-.3,0,0-.4.2-.4.1,0,0,.2-.3-.3.1,0,0,0,0,0-.1.3-.3.2-.3,0-.2-.2.1-.2.1-.3,0,0,0-.2-.1-.2-.2,0,0,.1-.3.1-.4,0,0-.3,0,0-.2.2-.3.1-.3,0-.3,0,0,.2-.3-.3.1,0,0,0,0,0,0,.6-.6-.3,0-.3-.2,0-.2-.1-.2-.2-.3,0,0,0-.2-.3.1-.1,0-.2,0,0,0,.4-.5,0-.3,0-.4,0-.2-.3,0,0-.4.1-.2.2-.3-.3,0-.2.2,0,0-.1,0,0,0-.3.2-.3.2,0,0,.1-.2.2-.3,0,0,0,0,0,0-.6.3,0-.4-.3-.4-.2,0-.3-.1-.3-.3,0,0,0-.3.9-1.1.4-.4.8-.7,1-.9.2-.1.4-.3.4-.3.1,0,.2,0,.3-.1.2,0,.7-.3.5,0,0,0,.2,0-.2.3,0,0,0,0,0,0,.7-.4.4,0,.5,0,.1,0,.7-.3.5,0,.5-.4.5-.2.4,0-.3.6.2.5.2.7,0,.2.3.4.4.6,0,0,.3-.2.1,0-.2.2,0,.1,0,.2,0,0,.2,0,0,.1-.4.6,0,.5.1.6,0,.2.1.4.4.4.1,0,.5-.1.5,0,0,0,.3-.1-.1.3-.1.1.3-.1.3-.1,0,0,.1.1.2.2,0,0,.1.2.2.2,0,0,.3,0,.4,0,0,0,.1,0,.1.2,0,.1-.1.3-.1.4,0,.1.3,0,.1.3-.3.4,0,.4,0,.6,0,.2.1.3.3.4.1,0-.2.4-.2.5,0,0-1.1,1-1.5,1.3,0,0-.2.1-.2.1-.4.2-1,.6-1.1.5,0-.2-.2-.2-.2-.3Z"/>
  <path d="M394.1,404.3c-1.4,2.8-2.9,5.6-4.8,8.2-.7,1-1.6,1.8-2,3.1-.2.7-1.4,1.1-2.2,1.9-2,2.2-4.5,4-7,5.6-2.5,1.6-5.2,2.9-8.1,3.7-2.9.8-6,.6-8.9.7-2.5,0-4.6-.8-6.8-1.3-2.4-.5-4.8-1.3-6.9-2.5-1.5-.9-2.9-1.8-4.5-2.6-1-.5-2-.8-2.9-1.4-.9-.7-1.7-1.5-2.9-1.8,0,0-.4-.5-.6-.7-.7-1.2-1.7-2.3-2.5-3.1-.8-.8-1.3-1.7-1.7-2.8-.5-1.5-.7-3.4,0-5.1.3-.8.7-1.7,1.4-2.4.6-.7,1.3-1.2,2.1-1.7,2.3-1.2,4.8-1.1,7-.5,2.2.6,4.4,1.8,5.6,3.2.6.7,1.2,1.4,1.8,2.1.6.7,1.2,1.4,1.7,2.4.6,1,.7,2.5,1.4,3.5,0,0,0,.6,0,.8-.5,1.7-.8,3.1-1.1,4.5-.3,1.4-.6,2.9-1.3,4.2-.8,1.4-1.6,2.7-2.6,4-.5.6-1.1,1.2-1.6,1.8-.6.5-1.2,1.1-1.9,1.6-.7.5-1.6.9-2.1,1.6-.2.3-1,.7-1.5.8-2.4.4-4.7,1.2-7.1,1.3-2.7,0-5.4.1-8-.9-.5-.2-1.1-.5-1.8-.6-.3,0-.7-.2-1-.2-.4,0-.7,0-1.1,0-.7,0-1.8-.7-2.7-1.1-.7-.3-1.6-.5-2.3-.9-.6-.4-1-.9-1.5-1.4-.1-.1-.3-.3-.5-.4-1.8-.9-3.2-2.2-4.5-3.6-1.3-1.4-2.4-2.9-3.7-4.3-2.5-2.8-4.6-6-6.5-9.2-1-1.8-2-3.7-1.7-5.4.1-.8.6-1.1,1.3-.5.5.4,1.1.9,1.5,1.5.7.9,1.4,1.8,2.1,2.7,1.4,1.9,3.1,3.5,4.2,5.5.4.6,1.1,1.1,1.1,1.9,0,.1.2.4.3.5,2.6,1.9,4.3,4.6,6.8,6.6,1,.8,2.2,1.4,3.3,2,.6.3,1.2.5,1.7.8.6.3,1.1.5,1.7.9,1.6,0,3,.6,4.4,1,2.4.9,5,1.1,7.4.8,2.5-.3,4.8-1.2,6.8-2.4,2.1-1.3,3.7-3.1,4.9-5.3.6-1.1,1.1-2.3,1.5-3.5.4-1.2.8-2.5.9-3.6,0-.4,0-.7-.1-1,0-.3-.2-.5-.1-.9,0-.7-.7-1.5-1.5-2.3-.7-.7-1.6-1.4-2.2-2-1.3-1.4-3-2.3-4.6-2.3-.8,0-1.6.3-2.3.7-.6.4-1,.9-1.3,1.5-.5,1.2,0,2.9,1.1,4.5.5.8,1.2,1.5,1.9,2.1.4.3.7.6,1.2.9.4.3.9.6,1.3.9,2.2,1.4,4.5,2.3,6.8,3.5,1,.5,2.1.6,2.9,1.6.2.3,1.3.2,2,.4,1.7.5,3.3.9,5,1.2,2.3.4,4.7.6,7,.3,1.4-.2,2.7-.7,4-1.1,1.4-.5,2.8-1,4.1-1.6,1.7-.8,3.4-1.6,5-2.7,1.6-1.2,3-2.8,4.4-4,2.8-2.3,4.6-5.5,6.4-8.8,1.7-3.2,3.2-6.6,4.2-10.1.6-2,1.7-3.7,2.2-5.7.3-.9,2-1.8,2.4-1.3,0,0,.1.3.1.4-.1,2.1,0,4.1-.7,6.4-1.2,3.3-2.4,6.7-3.9,9.9Z" fill="#aaca60"/>
  <g>
    <path d="M386.1,294.9c1.6-2.3,5.5-2.2,7,0,1.1,1.7,1,3.8,1,5.8.1,3,.8,6.2-.2,9-.8,2.3-2.7,4-4.7,5.2-2.1,1.2-4.3,2-6.6,2.9-1.8.7-3.6,1.5-5.5,1.1-1.9-.3-3.5-2.4-2.6-4.1.6-1.1,1.8-1.5,3-1.9,4.1-1.3,8.1-3.1,11.1-6.1.8-.8,1.5-1.8,1.2-2.9-.2-.5-.5-.8-.9-1.2-1.5-1.5-3.1-3-4.6-4.5"/>
    <path d="M390.9,302.3c.7.8,1,1.8.9,2.9-.1,1-.7,2-1.3,2.7-.4.5-.9.6-1,1.4,0,.4-.8.2-1.2.5-1,.8-2.1,1.5-3.1,2.1-1,.6-2,1.4-3.1,1.9-1.1.5-2.3.7-3.3,1.3-.4.3-.9.4-1.2.4-.2,0-.3,0-.5,0,0,0-.1,0-.2,0,0,0,0,0,0,0,0,0,0,.2,0,.2,0,0,0,0-.2.2-.2.1-.3.4,0,.5.2.1.5,0,.7,0,.1.1.2.4.5-.2,0,0,0,0,.1.2.2.4.6.4.8,0,.2-.3.4-.3.7-.4.7-.2,1.5-.6,2.4-.9.7-.2,1.4-.3,2.1-.5.7-.2,1.3-.8,2-.7.7,0,1.3-.3,1.8-.6.3-.2.8-.1.7-.8,0,0,0-.1.2-.1.6,0,1-.3,1.2-.7.3-.4.4-.9.8-1.1.7-.5,1.1-1.4,1.3-2.2,0-.2.3-.4-.1-.7-.1-.1-.1-.3,0-.4.7-.6.4-1.4.4-2.2,0-.9-.3-1.9.1-2.9.2-.5.2-1.1-.4-1.6-.3-.2,0-.8,0-1.1,0-.3-.3-.6-.4-.8,0-.2.2-.5.3-.7,0,0,0-.1,0-.2-.4-.6-.4-1-.5-1.4,0-.4,0-.7-.4-.9-.6-.2-1.5-.4-2.2-.2-.4.1-.7,0-1.9-.3-.5-.2-1-.4-1-.9,0-.4.1-.8.4-1.1.4-.4.9-.8,1.4-1.1.6-.3,1.1-.6,1.8-.7.6-.1,1.3-.1,2,.2.4.2,1,.1,1.1.7,0,0,.1.2.2.2,1,0,1.8.9,2.3,1.7.4.8.6,1.7.7,2.5.3,1.3.9,2.5.6,3.6.6.6.6,1.2.4,1.8-.2,1.1-.2,2.3-.1,3.5,0,1.2,0,2.6-.4,4-.9,2.8-2.8,5.1-5,6.5-.4.2-.5.8-1.1.8-.5,0-1,.5-1.5.7-.4.2-.9.6-1.3.6-1,0-1.9.3-2.7.7-.8.3-1.6.7-2.5,1-.9.3-1.9.6-3,.8-1.1.1-2.3.2-3.7-.3-.8-.3-1.5-.7-2.1-1.3-.7-.7-1.2-1.6-1.3-2.6,0-.4-.1-.8,0-1.3,0-.4.2-.8.7-1.1,0,0,0-.1.1-.2,0-.3.2-.9.4-1.2.4-.5,1-.9,1.6-1.2.5-.2.9-.4,1.3-.5l1.5-.5c.5-.2.9-.3,1.4-.5.5-.3,1-.7,1.5-1,.5-.3,1.1-.6,1.6-.8.7-.3,1.5-.5,2.1-.8.7-.4,1.2-1.1,1.9-1.3.3-.1.7-.3.9-.5.3-.2.5-.4.5-.5.2-.2.2-.4.1-.7,0-.3,0-.3-.8-1-.5-.5-1.1-1.1-1.7-1.6-.7-.6-.9-1.5-1.5-2.1-.3-.3.4-1.7.8-1.9,0,0,.2,0,.3,0,.9.3,2,.3,2.6,1,.5.5,1,1,1.5,1.5l.8.7.4.4c.2.2.4.4.6.7Z"/>
  </g>
  <g>
    <g>
      <g>
        <path d="M294.9,190c-1.1-1.2-2.1-2.5-3.3-3.6-.4-.4-.6-1.1-1.5-1.2-.4,0-.3-.9-.7-1.3-1.1-1.1-2-2.3-3.1-3.4-1-1.1-2.1-2-3-2.6-.4-.3-.8-.6-1.3-.8-.5-.2-1.1-.3-1.7-.2-1,.2-2.1-.3-3.2-.2-1.2.1-2.4.2-3.6,0-.9-.1-1.7-.3-2.6,0-.5.1-1,.5-1.5.6-.5,0-1.2-.1-1.5.6,0,0-.3,0-.4,0-.6-.3-1.3-.1-1.7.2-.4.4-.8.4-1.2.5l-3.4.9c-.9.2-1.7.2-2.5.5-.8.3-1.4.9-2.1,1.1-.7.2-1.2.7-1.5,1.2-.2.3-.7.6-.2,1.2,0,0,0,.2,0,.2-.6.4-.7,1-.7,1.6,0,.6.2,1.3,0,1.9-.2.7-.2,1.4-.2,2.1,0,.8,0,1.5,0,2.3,0,.4-.2.8.2,1.2.2.1.2.6,0,.8-.7,1.1-.3,2.3-.4,3.4-.1,1.3.1,2.6-.4,3.9-.2.6-.3,1.3.3,2,.3.3,0,.9,0,1.4,0,.4.3.8.4,1.1,0,.3-.2.7-.3,1,0,0,0,.2,0,.3.8,1.8,0,3.7.4,5.6.4,1.9.6,3.8.8,5.7.1,1.1.1,2.2-.9,3.1-.5.4-1,.5-1.4.1-.3-.3-.6-.6-.7-1-.2-.6-.4-1.2-.6-1.8-.4-1.2-1.1-2.4-1-3.7,0-.4-.3-.9.1-1.2,0,0,0-.2,0-.3-1-1.6-.6-3.5-.8-5.3-.1-1.5-.8-2.9-.6-4.5-.6-.8-.5-1.8-.3-2.7.7-3,.3-5.9.5-8.9,0-1.5,0-2.9.2-4.5.1-1.6.3-3.3.9-5,.2-.6,0-1.2.7-1.8.5-.5.9-1.4,1.5-2,.5-.6,1.1-1.2,1.7-1.5,2.7-1,4.9-1.9,7.3-2.5,2.3-.5,4.7-1,7.1-1.4,1.4-.3,2.9-.8,4.3-.8.6,0,1.3-.4,1.9.2.2.2.8-.3,1.2-.3,1,0,2,0,3,0,1.4,0,3,.2,4.7.8,1,.4,2.1.8,2.9,1.4.9.7,1.5,1.4,2.1,2.1.7.9,1.2,1.8,1.9,2.7.7.9,1.7,1.6,2.2,2.6,1,1.8,2.5,3.2,3.8,4.7,1.3,1.5,2.6,3.1,4,4.5.8.8,1.1,1.9,1.9,2.7.3.4-.3,1.9-.8,2.1,0,0-.2,0-.3,0-1.1-.5-2.3-.8-3.1-1.7-1.2-1.4-2.4-2.8-3.7-4.1Z"/>
        <path d="M287.6,198.9c.2-.1.5-.2.7-.4,0,0,.3.1.1-.4,0-.3.3.3.4.2.2-.2.5-.2.7-.4.2-.2.3-.5.5-.6.2-.2.6,0,.6-.4,0-.3.5,0,.6-.2.1-.2.3-.4.6-.2.2,0,.4.2.5,0,0-.1,0-.4.1-.4,0,0,.3.2.1-.4,0,0,0,0,.1.1.3.3.4.3.3,0,0-.3,0-.3.1-.3.2-.1.4-.2.6-.2.2,0,.4.1.6.1.2,0,.2-.3.5-.1.3.2.4.2.5.1,0,0,.3.2.1-.4,0,0,0,0,0,0,.5.7.4-.4.7-.3.3.1.5-.1.7-.2,0,0,.2.1,0-.3,0-.2,0-.2.1-.1.4.5.5,0,.7.1.3,0,.4-.3.7,0,.2.2.3.2.2-.4,0-.3.2,0,.2-.1,0,0,0-.3,0-.4,0,0,.2.2.3.3,0,0,0,0,0,0,.1-.7.7,0,.9-.3.3-.3.6-.3,1-.3.2,0,.4.1.9,1.2.2.5.3,1,.4,1.3,0,.2,0,.5,0,.6,0,.1-.1.3-.2.4-.1.2-.2.8-.5.6,0,0,0,.2-.3-.2,0,0,0,0,0,0,0,.8-.5.4-.7.6-.2.1-.2.8-.5.6,0,.6-.1.6-.3.4-.7-.5-1,.1-1.4.2-.5,0-.9.3-1.4.5,0,0,0,.4-.2.2-.2-.2-.2,0-.3,0,0,0-.1.2-.3,0-.6-.5-.8,0-1.2.1-.4,0-.7.2-1,.5-.2.2-.2.6-.5.6-.1,0,0,.3-.4-.2,0-.1,0,.3,0,.4-.1.1-.3.1-.4.2-.2,0-.4.1-.6.3-.1,0-.1.4-.2.5,0,.1-.2.2-.4.2-.2,0-.4-.1-.6,0-.2,0-.2.4-.5.2-.5-.3-.7,0-1,.2-.3,0-.6.2-.8.5-.1.1-.5-.2-.7-.1,0,0-.9-1.2-1.1-1.7,0,0,0-.2,0-.2,0-.5-.3-1.2,0-1.3.3,0,.6-.3.8-.4Z"/>
      </g>
      <path d="M285.2,225.4c0-.4.2-.8.1-1.3,0-.2.3-.3-.2-.5-.3-.1.4-.2.4-.3,0-.4.1-.8,0-1.2,0-.4-.2-.8-.2-1.2,0-.4.3-.8,0-1.2-.2-.3.3-.6.2-.9,0-.3-.2-.7.1-1,.2-.2.4-.4.3-.7,0-.1-.4-.3-.3-.5,0-.1.3-.3-.3-.5,0,0,0,0,.2,0,.4-.1.4-.3.1-.5-.3-.1-.2-.3-.2-.4,0-.3,0-.7,0-1,0-.2.3-.5.4-.7,0-.3-.2-.5.1-.8.3-.2.3-.5.3-.7,0-.1.3-.3-.3-.4,0,0,0,0,0,0,.8-.4-.2-.8,0-1.1.2-.4,0-.8,0-1.2,0-.1.2-.2-.3-.3-.2,0-.2-.1,0-.2.6-.3.2-.6.4-.9.1-.3-.2-.7.3-1,.2-.1.3-.4-.3-.5-.3,0,0-.3,0-.4,0-.1-.3-.2-.3-.3,0,0,.2-.2.3-.3,0,0,0,0,0,0-.7-.5.2-1,0-1.5-.2-.5-.1-1,0-1.5,0-.3.2-.6,1.3-.8.5-.1,1.1-.1,1.4,0,.2,0,.5.2.5.3.1.2.2.3.4.5.2.3.8.6.5,1,0,.1.2.2-.3.3,0,0-.1,0,0,0,.8.4.3.9.4,1.4,0,.4.7.8.4,1.2.6.2.5.5.3.7-.7.8-.2,1.6-.3,2.4,0,.8,0,1.6,0,2.4,0,.1.3.3,0,.4-.3.1,0,.3,0,.5,0,.2.1.3,0,.5-.7.6-.3,1.3-.4,1.9-.1.6-.2,1.3,0,1.9,0,.4.4.8.2,1.2,0,.2.3.4-.3.5-.2,0,.3.2.3.3,0,.3,0,.5,0,.8,0,.4-.1.7,0,1.1,0,.2.2.5.3.7,0,.2,0,.5,0,.7-.1.3-.3.6-.4.9,0,.3.1.7-.2.9-.6.5-.4,1.1-.5,1.6-.1.5-.2,1.1-.2,1.6,0,.3-.5.5-.6.8,0,.1-1.5.1-2,0,0,0-.2,0-.2,0-.4-.4-1.1-.7-1-1,.1-.5.2-1,.2-1.4Z"/>
      <path d="M280.4,192.6c0,.3,0,.6,0,.9,0,.1-.3.2.3.4.3,0-.4.1-.4.2,0,.3-.1.5-.1.8,0,.3,0,.6,0,1,0,.3-.5.4-.4.9,0,.4-.5.3-.6.6-.1.3-.3.6-.7.6-.3,0-.5-.1-.6,0,0,.1,0,.5-.2.5-.1,0-.3-.2-.3.5,0,0,0,0-.1-.1-.3-.3-.4-.3-.5,0,0,.3-.2.3-.3.3-.3,0-.6.1-.9,0-.2,0-.4-.3-.6-.4,0,0-.1,0-.2,0-.2,0-.4,0-.4-.2-.1-.4-.3-.4-.5-.5-.1,0,0-.4-.4.2,0,0,0,0,0,0,0-.5,0-.5-.3-.4-.2,0-.5,0-.6-.1-.2-.4-.4-.5-.6-.7,0,0,0-.2-.4,0-.1,0-.2,0-.1,0,.4-.6,0-.5-.1-.7,0-.3-.4-.3-.1-.8.1-.2.2-.3-.4-.2-.3,0,0-.2-.2-.2,0,0-.4,0-.4,0,0,0,.2-.2.2-.3,0,0,0,0,0,0-.8,0,0-.7-.3-1-.3-.3-.3-.7-.2-1,0-.2.2-.4,1.3-.6.5,0,1.1-.1,1.4,0,.2,0,.5,0,.5,0,0,0,.2.1.3.1.2.1.7.1.5.3,0,0,.2,0-.3.2,0,0,0,0,0,0,.8,0,.3.2.5.4,0,.1.7,0,.5.2.6-.2.5-.1.4,0-.5.5,0,.5.1.7,0,.1.1.2.2.2,0,0,0,0,0,0,0,0,.2-.3,0,0,0,.2,0,0,0,0,0,0,0-.1,0,0,0,.2,0,.3,0,.3,0,.2.1,0,.2,0,0,0,.2,0,.3-.1,0-.1-.1-.4,0-.4,0,0-.2-.2.2.2.1.1-.2-.2-.2-.3,0,0,0,0,0,0,0,0,0,0,0,0,0,0-.2-.2-.3-.2,0,0,0,0,0-.1,0,0,.3,0,.4,0,0,0-.2-.2,0-.2.5,0,.3-.3.3-.5,0-.2,0-.4,0-.5,0,0,.4-.3.4-.4,0,0,1.4-.5,1.9-.6,0,0,.2,0,.2,0,.5,0,1.2,0,1.2.2,0,.3,0,.6.1.9Z"/>
      <path d="M291.8,191.3c0,.3,0,.6,0,.9,0,.1-.3.2.3.4.3,0-.4.1-.4.2,0,.3-.1.5-.1.8,0,.3,0,.6,0,1,0,.3-.5.4-.4.9,0,.4-.5.3-.6.6-.1.3-.3.6-.7.6-.3,0-.5-.1-.6,0,0,.1,0,.5-.2.5-.1,0-.3-.2-.3.5,0,0,0,0-.1-.1-.3-.3-.4-.3-.5,0,0,.3-.2.3-.3.3-.3,0-.6.1-.9,0-.2,0-.4-.3-.6-.4,0,0-.1,0-.2,0-.2,0-.4,0-.4-.2-.1-.4-.3-.4-.5-.5-.1,0,0-.4-.4.2,0,0,0,0,0,0,0-.5,0-.5-.3-.4-.2,0-.5,0-.6-.1-.2-.4-.4-.5-.6-.7,0,0,0-.2-.4,0-.1,0-.2,0-.1,0,.4-.6,0-.5-.1-.7,0-.3-.4-.3-.1-.8.1-.2.2-.3-.4-.2-.3,0,0-.2-.2-.2,0,0-.4,0-.4,0,0,0,.2-.2.2-.3,0,0,0,0,0,0-.8,0,0-.7-.3-1-.3-.3-.3-.7-.2-1,0-.2.2-.4,1.3-.6.5,0,1.1-.1,1.4,0,.2,0,.5,0,.5,0,0,0,.2.1.3.1.2.1.7.1.5.3,0,0,.2,0-.3.2,0,0,0,0,0,0,.8,0,.3.2.5.4,0,.1.7,0,.5.2.6-.2.5-.1.4,0-.5.5,0,.5.1.7,0,.1.1.2.2.2,0,0,0,0,0,0,0,0,.2-.3,0,0,0,.2,0,0,0,0,0,0,0-.1,0,0,0,.2,0,.3,0,.3,0,.2.1,0,.2,0,0,0,.2,0,.3-.1,0-.1-.1-.4,0-.4,0,0-.2-.2.2.2.1.1-.2-.2-.2-.3,0,0,0,0,0,0,0,0,0,0,0,0,0,0-.2-.2-.3-.2,0,0,0,0,0-.1,0,0,.3,0,.4,0,0,0-.2-.2,0-.2.5,0,.3-.3.3-.5,0-.2,0-.4,0-.5,0,0,.4-.3.4-.4,0,0,1.4-.5,1.9-.6,0,0,.2,0,.2,0,.5,0,1.2,0,1.2.2,0,.3,0,.6.1.9Z"/>
    </g>
    <path d="M260.6,200.9c-.2-.2-.5-.4-.8-.5-.1,0-.1-.3-.4.1-.2.2,0-.4-.1-.4-.3,0-.6-.2-.9-.2-.3,0-.6.2-.9.3-.3,0-.6-.2-.8.2-.1.3-.5,0-.7.1-.2.2-.3.4-.6.3-.2,0-.5-.1-.5,0,0,.1.1.4,0,.4,0,0-.3,0,.1.4,0,0,0,0-.1,0-.4-.2-.4,0-.2.1.2.2.2.2.2.2,0,.1,0,.3,0,.4,0,.1-.3.2-.4.4,0,.2.3.3,0,.5-.3.2-.2.4-.1.5,0,0-.2.3.4.1,0,0,0,0,0,0-.6.6.5.4.5.7,0,.4.3.6.6.8,0,0,0,.3.4,0,.1,0,.2,0,.2,0-.3.6.2.6.4.8.2.3.6.3.5.9,0,.2,0,.5.6,0,.2-.2.2.1.3.1.1,0,.3-.2.4-.1,0,0,0,.3,0,.4,0,0,0,0,0,0,.7-.4.7.6,1.2.7.5,0,.9.2,1.3.5.2.1.4.4.4,1.5,0,.5-.1,1.1-.3,1.4-.2.2-.3.4-.5.4-.2,0-.4.1-.6.2-.4,0-1,.4-1.3,0,0-.1-.3,0-.3-.4,0,0,0-.1,0-.1-.8.5-1.1-.2-1.7-.4-.4-.2-1.2,0-1.5-.4-.6.4-.8,0-.9-.2-.4-1.1-1.4-1.4-2-2.2-.6-.8-1.3-1.6-1.8-2.7,0-.2-.5-.2-.3-.5.2-.3-.1-.5-.2-.7,0-.2-.3-.5-.1-.7.5-1,0-1.9.4-2.8.3-.9.8-1.8,1.3-2.6.3-.5.6-1.2,1.1-1.4.2,0,.3-.5.8-.1.1.1.1-.4.3-.5.3-.2.7-.3,1-.4.5-.2,1-.2,1.5-.4.3,0,.6-.4.9-.4.3,0,.7,0,1,0,.4.1.8.4,1.2.5.4.2,1,0,1.3.5.5.8,1.3.9,1.8,1.5.5.5,1,1.1,1.5,1.7.3.3,0,.9.2,1.3,0,.2-1.2.9-1.7,1,0,0-.2,0-.2,0-.5,0-1.3,0-1.3-.2-.1-.3-.4-.6-.7-.8Z"/>
    <path d="M283.3,206.2c-.1.2-.2.5-.3.7,0,0-.3,0,.1.4.2.2-.4,0-.4,0,0,.3-.3.4-.3.6,0,.2,0,.6-.1.8,0,.2-.5.3-.4.6.1.3-.4.2-.4.4,0,.2-.1.5-.4.4-.2,0-.5,0-.5.1,0,.1.2.4,0,.4,0,0-.3,0,0,.4,0,0,0,0-.2,0-.4-.2-.4-.1-.3.1.1.3,0,.3,0,.3-.1.2-.3.3-.5.4-.2,0-.4,0-.6,0-.2,0-.1.4-.4.2-.3-.2-.4,0-.5,0,0,0-.3-.1,0,.4,0,0,0,0,0,0-.6-.6-.2.5-.6.4-.3,0-.5.2-.7.3,0,0-.2,0,0,.3,0,.2,0,.2,0,.1-.5-.5-.5,0-.7,0-.2,0-.3.3-.7,0-.2-.2-.3-.2-.2.4,0,.3-.2,0-.2.1,0,0,0,.3,0,.4,0,0-.2-.2-.3-.3,0,0,0,0,0,0-.1.7-.7,0-.9.2-.3.3-.6.3-1,.2-.2,0-.4-.2-.7-1.3-.1-.5-.2-1.1-.2-1.4,0-.2,0-.5,0-.5,0-.1.1-.3.2-.4.1-.2.1-.8.4-.5,0,0,0-.2.2.2,0,0,0,0,0,0,0-.8.3-.4.5-.5.2-.1.1-.8.4-.6-.1-.6,0-.6.2-.4.6.5.7,0,1-.2.4,0,.6-.3.9-.5,0,0-.1-.4.1-.2.2.2.2,0,.2,0,0,0,0-.2.2-.1.6.3.6-.1.9-.3.3-.1.5-.3.6-.6,0-.2,0-.6.1-.6,0,0-.1-.3.4,0,.1,0-.2-.3-.1-.3,0-.1.1-.2.2-.3.1-.1.2-.2.3-.4,0-.1-.1-.3-.1-.4,0-.1,0-.2.2-.3.1,0,.4,0,.5-.1.1,0,0-.3.3-.3.6,0,.5-.3.6-.5.2-.2.3-.4.3-.7,0-.2.5,0,.5-.2,0,0,1.4.3,1.9.5,0,0,.2,0,.2.1.4.3,1,.7.9.9-.2.3-.2.6-.4.8Z"/>
    <path d="M294.2,213c-.3,0-.7,0-1,0-.1,0-.2-.3-.4.2-.1.3-.1-.4-.2-.4-.3,0-.5-.1-.8-.1-.3,0-.6.1-.8.1-.3,0-.4-.4-.7-.2-.3.2-.3-.3-.5-.3-.2,0-.5,0-.6-.3,0-.2-.1-.5-.3-.4-.1,0-.3.3-.4.2,0,0,0-.3-.4.2,0,0,0,0,0-.2,0-.4,0-.4-.2-.2-.2.2-.2.1-.3.1-.2,0-.4-.1-.6-.3-.1-.1-.2-.4-.3-.5-.1-.1-.4,0-.4-.3,0-.3-.1-.4-.2-.5,0,0,0-.3-.4.2,0,0,0,0,0,0,.2-.8-.5,0-.6-.3-.1-.3-.4-.3-.6-.4,0,0,0-.2-.3.1-.1.1-.2,0-.1,0,.2-.6-.2-.4-.3-.6-.1-.2-.5-.1-.4-.6,0-.2,0-.4-.4,0-.2.2-.1,0-.2,0,0,0-.3.2-.4.1,0,0,0-.3,0-.4,0,0,0,0,0,0-.7.3-.4-.6-.7-.6-.4,0-.6-.3-.7-.6,0-.2-.1-.4.6-1.3.3-.4.7-.8,1-1,.2-.1.4-.3.5-.3.1,0,.3,0,.4,0,.3,0,.8-.3.7,0,0,.1.2,0,0,.3,0,0,0,.1,0,0,.7-.4.6.1.8.2.2,0,.7-.3.7,0,.5-.4.5-.3.5,0,0,.8.5.7.8,1,.3.3.7.5,1.1.7,0,0,.3-.2.2,0,0,.3.1.1.2.2,0,0,.2,0,.2.1,0,.7.5.5.7.8.3.2.6.4.9.4.2,0,.5-.3.7,0,0,0,.3-.2.1.4,0,.2.2-.2.3-.2.1,0,.3,0,.4.1.2,0,.3.2.5.2.1,0,.3-.2.4-.2.1,0,.2,0,.3,0,.1.1.2.3.3.4.1,0,.3-.1.4.1.2.5.4.3.6.4.2,0,.4,0,.6,0,0,0,.3.4.4.4,0,0,.2.3.3.7.1.4.3.9.4,1.1,0,0,0,.2,0,.2,0,.5-.1,1.3-.4,1.3-.4,0-.8,0-1.2,0Z"/>
    <path d="M262.9,184.3c0,.2.1.5.3.7,0,0-.1.3.4.2.3,0-.3.3-.2.4.2.2.2.5.4.7.2.2.5.3.7.6.2.2,0,.6.5.7.4,0,0,.5.2.7.2.2.4.4.3.7,0,.2-.2.5,0,.6.1,0,.4,0,.5.2,0,.1-.2.3.4.2,0,0,0,0-.1.1-.3.3-.3.4,0,.4.3,0,.3.1.3.2.1.3.2.5.2.8,0,.2-.2.5-.2.7,0,.2.3.4,0,.7-.3.2-.3.4-.2.6,0,.1-.3.3.4.3,0,0,0,0,0,0-.8.3.3.7,0,1-.2.3-.1.7-.1,1.1,0,0-.2.2.2.3.2,0,.1.2,0,.2-.7.1-.4.5-.5.7-.2.3,0,.7-.6.8-.2,0-.4.2,0,.5.2.2,0,.2,0,.3,0,.1.2.3.2.4,0,0-.3,0-.4,0,0,0,0,0,0,0,.3.8-.7.7-.8,1.2-.2.5-.6.8-1,1.1-.2.2-.6.2-1.4-.6-.4-.4-.7-.8-.8-1.1-.1-.2-.2-.4-.2-.5,0-.1,0-.3,0-.4,0-.3-.3-.7,0-.7.1,0,0-.2.3,0,0,0,.1,0,0,0-.5-.7,0-.6.2-.8,0-.2-.4-.7,0-.7-.5-.4-.4-.4-.2-.4.8-.1.5-.7.6-1.1.2-.4,0-.8.1-1.3,0,0-.4-.1,0-.2.3,0,0-.2,0-.3,0,0-.2-.2,0-.3.6-.4.1-.8.1-1.1,0-.4,0-.8-.4-1.1-.2-.2-.6-.3-.5-.5,0-.1-.3,0,.2-.4.1,0-.3,0-.4,0-.1-.1-.2-.3-.2-.4-.1-.2-.2-.4-.3-.6-.1-.1-.4-.1-.5-.2-.1-.1-.2-.3-.2-.4,0-.2,0-.5,0-.7,0-.2-.4-.3-.3-.7.3-.6-.1-.9-.2-1.3-.1-.4-.2-.9-.4-1.3-.1-.3.3-.6.3-.8,0-.1,1.4-.5,1.9-.5,0,0,.2,0,.2,0,.5.1,1.2.1,1.2.3,0,.3.1.5.2.8Z"/>
    <path d="M278.5,177.7c-.2.4-.4.9-.6,1.3,0,.2-.4.1,0,.6.2.2-.5,0-.5.1-.2.4-.6.6-.8.9-.2.3-.4.8-.7,1-.3.3-.8.2-.9.7-.1.4-.6,0-.8.3-.2.3-.4.5-.8.4-.3,0-.5-.2-.7,0,0,.1,0,.5-.2.5-.1,0-.4-.2-.2.5,0,0,0,0-.1,0-.3-.3-.4-.2-.4,0,0,.3,0,.3-.1.3-.2.1-.4.3-.6.3-.2,0-.4,0-.6,0-.2,0-.2.4-.6.2-.3-.2-.5,0-.6,0,0,0-.3-.1-.1.5,0,0,0,0,0,0-.7-.6-.4.5-.8.5-.4,0-.6.3-.9.5,0,0-.3,0-.1.4,0,.2,0,.2-.1.1-.5-.4-.6,0-.9,0-.3,0-.5.4-1,0-.2-.1-.4-.2-.4.4,0,.3-.2,0-.3.2,0,0-.1.4-.2.4,0,0-.2-.2-.3-.3,0,0,0,0,0,0-.4.8-1.1,0-1.5.2-.5.2-1.1.2-1.7,0-.3,0-.6-.3-.6-1.5,0-.5.2-1.1.3-1.4.1-.2.2-.4.3-.5.1,0,.2-.2.3-.3.2-.2.4-.7.6-.4,0,0,.1-.2.2.3,0,0,0,.1,0,0,.2-.8.5-.3.8-.5.2-.1.3-.8.6-.6,0-.6.1-.6.3-.5.7.5,1-.2,1.6-.4.6-.2,1-.6,1.6-.8,0,0,0-.4.3-.2.2.2.3,0,.4-.2.1,0,.2-.2.4-.2.8.3,1.1-.3,1.6-.4.5-.2,1-.3,1.4-.7.2-.2.3-.6.7-.6.1,0,0-.4.5.1.1.1,0-.3,0-.4.1-.1.3-.2.5-.3.2-.1.4-.2.6-.4,0-.1,0-.4.1-.5,0-.1.1-.2.3-.2.2,0,.4,0,.6,0,.2,0,0-.4.4-.3.6,0,.5-.4.7-.6.2-.2.3-.5.2-.7,0-.1.5-.2.4-.4,0,0,1.5-.3,2-.3,0,0,.2,0,.2,0,.5.2,1.2.5,1.1.9-.1.6-.2,1.1-.4,1.6Z"/>
    <path d="M296,182.7c.3-.3.5-.6.6-.9,0,0,.3-.2-.2-.4-.3,0,.4-.1.4-.3,0-.3,0-.8-.3-1.2-.2-.4-.7-.8-1-1.3-.3-.5-.3-1.1-.9-1.5-.5-.3-.2-.9-.6-1.2-.3-.3-.7-.7-.7-1.2,0-.4,0-.8-.3-1-.2-.1-.5,0-.7-.3-.1-.2,0-.5-.6-.3,0,0,0-.1,0-.2.2-.4,0-.6-.4-.6-.3,0-.4,0-.5-.2-.3-.3-.6-.6-.9-.9-.2-.2-.3-.6-.5-.9-.2-.2-.7-.2-.8-.6,0-.4-.4-.5-.6-.7-.2,0-.2-.4-.6.1,0,0,0,0,0,0-.2-.9-1,0-1.3-.4-.4-.3-.9-.2-1.4-.3-.1,0-.3-.2-.4.3,0,.2-.2.2-.2,0-.4-.6-.7-.2-1-.3-.4,0-.7.3-1.2,0-.2-.1-.5-.1-.4.5,0,.3-.2.1-.3.2,0,.1,0,.4,0,.5,0,0-.3,0-.4-.1,0,0,0,0,0,0,0,.4-.2.6-.5.7-.3.1-.6.2-.7.5-.2.6-.5,1-.8,1.6-.2.3-.4.5-1.6.5-.5,0-1.1,0-1.4-.4-.2-.2-.4-.4-.4-.6,0-.3,0-.6,0-.9,0-.6-.2-1.4.4-1.8.2-.1,0-.5.6-.3,0,0,.1,0,.1,0-.2-1.1.8-1.5,1.4-2.1.5-.5.8-1.5,1.6-1.6,0-.7.6-.9,1.1-.9.8,0,1.6,0,2.3-.2.7-.1,1.5-.3,2.2-.2,1.5.2,2.9.4,4.2,1,.2,0,.6-.1.7.2.1.3.5.3.8.5.3.1.6.2.7.4.6,1.1,1.6,1.5,2.4,2.2.7.8,1.4,1.6,2.1,2.3.5.4,1.1.7,1.4,1.3,0,.3.5.3.2.8-.1.2.4.1.5.3.3.3.4.7.7,1.1.3.5.5,1,.8,1.5.2.3.6.5.8.8.2.3.4.7.5,1.1.1.5.1,1.1.2,1.7,0,.6.5,1.3.1,2-.3.6-.5,1.2-.7,1.8-.2.6-.5,1.1-.9,1.5-.8.8-1.6,1.4-2.3,2-.4.3-1.1.1-1.5.3-.2.1-1.1-1.1-1.2-1.6,0,0,0-.2,0-.2.2-.6.2-1.4.6-1.6.6-.3,1.1-.6,1.4-1Z"/>
  </g>
</svg>