<?xml version="1.0" encoding="UTF-8"?>
<svg id="ARTWORK" xmlns="http://www.w3.org/2000/svg" width="600" height="600" viewBox="0 0 600 600">
  <g>
    <path d="M318.6,285.9c.2-4.2-1.4-8.2-3-12-1.4-3.3-3-6.9-6.4-8.2-3-1.2-6.3-.2-9.3.9-4.7,1.6-9.4,3.2-14.1,4.8-1.1.4-2.2.8-3.1,1.6-1.1,1.1-1.4,2.8-1.3,4.3.2,1.5.8,3,1.4,4.4,2.9,6.7,5.5,13.5,8,20.3,1.3,3.4,2.7,6.8,3.9,10.2s1.9,6.4,3.6,9.3c.4.7.9,1.5,1.6,2,.6.4,1.3.6,2,.7,2.7.5,4.9-1.8,7.5-2.4-2.6-2.5-3-4.3-1.9-7.7-5,1-10.5-2.3-12-7.2-.3-.9-.4-1.9-.2-2.8.5-1.9,2.3-3,3.9-4,2.7-1.5,5.3-3,8-4.6,1.7-1,3.5-2,5.5-2.2.4,0,.7,0,1-.3.3-.2.4-.5.6-.9,1.1-2.6,2.2-5.3,3.2-7.9"/>
    <path d="M308.8,296.7c-2.4,1.4-4.9,2.8-7.3,4.2-.9.5-2,.8-2.5,1.8-.2.5-1.2.4-1.6,1-.2.3-.3.6-.3,1,0,.3,0,.8.1,1.3.3,1,.8,2,1.5,2.8,1.4,1.6,3.4,2.6,5.4,2.9.3,0,.5,0,.8.1.6,0,1.3,0,1.9,0,.7,0,1.4-.2,2-.2l1.9-.3c-.4,1.1-.7,2.3-1.1,3.5-.2.6-.3,1.2-.4,1.7,0,.4,0,.3,0,.5,0,.1,0,.2,0,.3,0,.2.1.4.2.6,0,0,0,.2.1.3,0,0,0,0,0,.2,0,.1.1.2.2.3l.4.5c1.1,1.3,2.3,2.5,3.3,3.6-.7.2-1.4.4-2.2.7-1.1.4-2.1.7-3,1.2-1.1.6-1.4.7-2,1-1.1.5-2.6,1-4.3.8-.6-.1-1-.2-1.5-.4-.5-.2-1-.4-1.5-.7-1.1-.7-1.7-1.6-2.2-2.4-.6-.9-1.3-1.6-1.8-2.6-.4-1-.6-2.1-1.4-2.8,0,0-.1-.5-.1-.8,0-1.1-.4-2.3-.9-3.1-.5-.7-.8-1.4-1-2.1-.8-2-1.6-4-2.3-6-.5-1.5-.9-3.1-1.4-4.6-.6-1.6-1.5-3.2-1.8-4.7-.3-1.6-.9-2.9-1.4-4.4-.3-.8-.4-1.9-1.3-2.3,0,0-.2-.3-.2-.5-.2-2.6-2-4.5-2.8-6.9-.4-1.3-1-2.6-1.3-4.3-.3-1.7-.2-3.6.8-5.3.3-.5.7-.9,1-1.3.4-.4.8-.8,1.1-1.2.2-.3,1.1-.8,1.6-.8,1.2-.1,2.1-.3,3-.7,1-.3,1.9-.7,2.8-1,2.2-.6,4.3-1.6,6.6-1.9,1-.1,2.3-.4,3.2-1.4.4-.4,1.6-.5,2.5-.8.7-.2,1.4-.7,2.2-.8.7-.1,1.4,0,2.1.2.2,0,.5,0,.7,0,1.1-.1,2.2,0,3.2.5,1.1.4,2,1.1,2.7,1.8,1.5,1.5,2.4,3.3,3.3,4.8.9,1.6,1.6,3.2,2.2,4.8.6,1.6,1.2,3.3,1.6,5.1.5,2,.5,4.3-.7,5.6-.5.6-1.1.5-1.4-.2-.2-.6-.5-1.2-.6-1.8-.2-1-.5-1.9-.9-2.9-.7-1.9-2-3.6-2.6-5.8-.2-.7-.8-1.3-.5-2,0-.1,0-.4-.1-.5-1-1.1-1.7-2.3-2.5-3.2-.8-1-1.7-1.7-2.8-2-.9-.2-2,0-3,.2-1,.3-2.1.7-3.3.9-1.1,1-2.8,1.5-4.2,1.8-2.5.5-5,1.3-7.4,2.1l-3.6,1.3c-1.2.4-2,.8-2.3,1.2-.4.4-.6,1.2-.6,2.1,0,.9.4,1.9.8,3,1,2.3,1.9,4.8,2.9,7.2.3.8.9,1.4,1.1,2.5.1,1,.8,2.1,1.2,3.2.4,1,.9,1.9,1.1,2.9.4,2,1.1,3.9,1.9,5.8.7,1.9,1.5,3.8,2.2,5.7.7,1.9,1.4,3.8,2,5.8.6,2,1.2,3.8,2,5.5.5,1,1.1,2,1.7,2.8.3.4.5.5.6.5.2,0,.6.2,1.1.3.5.1,1-.3,2,0,.1,0,.4-.1.6-.4.1-.1.3-.2.4-.4.1,0,0,0,.1-.1,0,0,0,0,0,0,.1-.1.3-.2.4-.2,0,0-.2-.2-.2-.3,0,0,0,0,0-.1-.2-.3-.3-.7-.5-1-.2-.7-.4-1.5-.4-2.2v-.2s0-.1,0-.1h0s0,0,0,0h0c0-.1,0-.4,0-.4h-.1c-.1,0-.3.1-.4.2,0,0,.1,0,0,0h0s-.2,0-.2,0h-.3c-.2,0-.4,0-.7,0-.4,0-.9-.1-1.3-.3-1.8-.5-3.5-1.4-4.8-2.7-.9-.8-1.6-1.7-2.2-2.7-.6-1-1.1-2.1-1.4-3.2-.3-1.1-.7-2.6-.3-4.2.4-1.6,1.5-2.8,2.4-3.4.9-.6,1.8-1.1,2.6-1.5.8-.4,1.6-.8,2.3-1.3,1.5-.9,3-1.8,4.6-2.6,1.5-.8,3-1.8,4.9-2.5.5-.2,1-.3,1.5-.4.7-.1.7-.1.9-.1.1,0,.3-.1.3-.3v-.2c0,0,0,0,0,0h0c0-.1.1-.4.1-.4.7-1.9,1.8-3.3,2.6-5.1.3-.8,2.2-1.4,2.5-.9,0,.1,0,.3,0,.4-.3,1.9-.3,3.8-1.2,5.8l-.5,1.1-.2.6c-.1.3-.3.6-.4.9-.3.6-.8,1.1-1.3,1.4-.6.3-1.3.3-1.9.4-1.2.2-2.5.8-3.8,1.6Z"/>
  </g>
  <path d="M220.5,312.2c-2.6-1.9-5.2-3.9-7.6-6-.9-.8-1.6-1.8-2.9-2.3-.7-.2-1-1.5-1.8-2.3-2.2-2.1-4.1-4.4-6.1-6.7-1.9-2.2-3.8-4.5-5.6-6.9-1.7-2.4-3.1-5.4-4.1-8.4-.9-2.6-.5-5-.6-7.3,0-2.5.1-5.2.9-7.6.6-1.8,1.3-3.4,1.8-5.2.4-1.1.5-2.2,1.1-3.3.6-1,1.5-2,1.5-3.2,0-.1.4-.5.6-.6,1-.8,2-2,2.4-2.9.4-.9,1.1-1.6,1.7-2.3,1.7-1.9,3.6-3.6,5.4-5.2,1.4-1.2,2.9-2.2,4.3-3.4,1.5-1.2,2.8-2.8,4.3-3.7,1.5-.9,2.8-2,4.1-3.2.7-.6,1.8-1.2,2-2.2,0,0,.3-.3.5-.4,2.7-1.2,4.1-3.8,6.5-5.4,2.4-1.7,4.7-3.7,7.1-5.5.6-.5,1.4-.9,1.7-1.7.1-.3.8-.8,1.2-.9,2.2-.8,3.8-2.5,5.8-3.7,2.2-1.3,4.2-3,6.8-4,1.1-.4,2.5-1,3.4-2.2.4-.5,1.8-.9,2.7-1.3.7-.4,1.4-.9,2.2-1.2.7-.2,1.4-.2,2.1-.3.2,0,.5,0,.7-.2,1.9-.8,4-1,6.1-.8,2.1.1,4.1.6,6.1,1,4,.8,7.7,2.7,11,4.7,1.8,1.1,3.6,2.4,4.2,4.1.3.8,0,1.2-.9,1.1-.7-.1-1.4-.3-2.1-.7-1.1-.5-2.2-1-3.2-1.5-2.2-1-4.5-1.6-6.6-2.7-.7-.3-1.6-.3-2-1,0,0-.3-.2-.5-.2-1.6,0-3.2-.3-4.7-.4-1.6-.2-3.1-.2-4.7,0-2.7.5-4.9,1.9-7.5,2.8-1.1,1.2-2.7,2-4.2,2.6-2.5,1.1-4.9,2.7-7.3,4.3-2.3,1.6-4.6,3.4-6.9,5-4.7,3.4-9.1,7.1-13.5,10.8-.8.6-1.2,1.5-2.2,2-1,.5-1.9,1.6-2.9,2.4-.9.8-1.7,1.7-2.6,2.3-3.8,2.5-7.1,5.8-10.4,8.8-3.3,3-6.3,6.3-8.2,10.1-1.1,2.3-1.7,4.9-2.4,7.4-.3,1.1-.2,2.3-.9,3.3-.2.3.1,1.4,0,2.1,0,1.8-.1,3.6,0,5.3.2,2.4.8,4.6,2,6.7.7,1.3,1.8,2.4,2.7,3.7.5.7,1,1.3,1.5,2,.5.7,1,1.3,1.5,2,1.2,1.7,2.4,3.4,3.7,5,1.4,1.7,3.2,3.1,4.4,4.7,2.4,3.1,5.5,5.4,8.6,7.8,3,2.4,6.2,4.5,9.6,6.3,1.9,1,3.4,2.4,5.4,3.3.9.4,1.5,2.4.9,2.6-.1,0-.3,0-.5,0-2.1-.5-4.2-.7-6.4-2-3.2-1.8-6.3-3.8-9.3-5.9Z"/>
  <path d="M261.3,291.2c-.5-.2-1-.5-1.6-.7-.2,0-.3-.4-.7,0-.2.2-.1-.5-.3-.5-.5-.2-.9-.5-1.4-.7-.5-.2-1-.2-1.5-.5-.5-.2-.8-.7-1.4-.7-.5,0-.6-.6-1-.7-.4-.1-.8-.3-1.1-.7-.2-.3-.3-.7-.6-.8-.2,0-.5.1-.7,0-.1-.1-.2-.5-.7,0,0,0,0-.1,0-.2,0-.5-.1-.6-.4-.5-.3.1-.4,0-.5,0-.4-.2-.7-.5-1-.8-.2-.2-.3-.6-.5-.9-.2-.3-.7-.3-.7-.7,0-.4-.3-.6-.5-.8-.1-.1,0-.5-.6,0,0,0,0,0,0,0,.2-.9-.9-.4-1.1-.9-.2-.5-.7-.7-1.1-1.1-.1,0,0-.3-.5,0-.1,0-.3,0-.2-.1.1-.7-.4-.7-.6-1.1-.2-.4-.8-.5-.8-1.1,0-.3-.1-.5-.7-.3-.3.1-.2-.2-.4-.3-.1,0-.4,0-.5,0,0,0,0-.3,0-.5,0,0,0,0,0,0-.9,0-.8-1.1-1.4-1.4-.6-.3-1-.8-1.4-1.4-.2-.3-.4-.7.3-1.7.3-.4.7-.8,1-1,.2,0,.5-.2.6-.1.2,0,.5.1.7.2.4.2,1.1,0,1.2.6,0,.2.4,0,0,.5,0,0,0,.1,0,.1,1-.2,1,.6,1.5,1,.4.3,1.2.2,1.3.7.6-.3.8,0,.9.4.2,1.2,1.3,1.5,1.9,2.2.7.7,1.5,1.3,2.2,2,.1.1.5,0,.4.3,0,.3.3.3.4.4.1.1.4.2.4.4.2,1,1,1.2,1.6,1.7.6.5,1.1,1,1.8,1.3.4.2,1,.2,1.3.5.1.2.5,0,.3.6,0,.2.4-.1.5,0,.3.1.5.3.8.5.4.2.7.5,1.1.7.2.1.6,0,.8.1.3,0,.5.2.7.4.3.2.5.6.7.8.3.2.7.1.9.5.4.7,1,.8,1.6,1.1.6.3,1.1.6,1.8.7.4,0,.5.6.8.8.2,0-.1,1.5-.3,2,0,0-.1.2-.1.2-.5.3-1.1.9-1.5.7-.6-.3-1.2-.5-1.8-.7Z"/>
  <g>
    <path d="M208,306.6c2.1-16.7,18.6-32.2,35.3-34.8,1.4-.2,2.8-.4,4.1-.1,1.8.3,3.4,1.3,5,2.3,7.6,5.3,13.7,13.3,22.5,16.1,2.9.9,6,1.2,8.9,2.3s5.5,3.4,5.8,6.5c.3,3-2.9,6.2-5.7,5,8.6,3.9,20,9.9,16.5,18.8-3.5,9.1-19.1,20.4-28.6,20.9-7.6.4-15.1-3.2-21.9-6.1-9.1-3.9-18.7-8.5-26.3-14.9-5.4-4.6-11.5-10-15.6-15.9" fill="#00b4e9"/>
    <path d="M225.6,321.8c3.1,2.6,6.5,4.8,10.1,6.8,1.3.7,2.6,1.7,4.3,1.9.8.1,1.9,1.3,3.2,1.9,3.5,1.6,7,3.2,10.6,4.7,3.5,1.4,7,2.6,10.5,3.4,1.7.4,3.5.7,5.2.9.9,0,1.7,0,2.5,0,.4,0,.8-.1,1.2-.2.4,0,.8-.2,1.2-.4,2.6-.9,5.3-1.6,7.7-3.1,2.6-1.6,5.1-3.4,7.6-5.2,1.8-1.2,3.5-2.6,4.9-4.3.4-.5.7-1.1,1.1-1.6.3-.6.6-1.1,1.1-1.7.3-.5.8-1.1,1.1-1.7.2-.6.5-1.2.3-1.7,0,0,.2-.5.4-.7.7-1,.6-2.5,0-3.3-.3-.4-.6-.7-.7-1.1-.3-.4-.5-.7-.8-1.1-1.7-2-4.1-3.8-6.7-5.4-.4-.2-.7-.5-1.1-.7l-1.2-.7c-1.5-.8-3-1.6-4.5-2.4.1-.3.2-.6.3-.9v-.4c.1,0,.2-.2.2-.2,0-.2,0-.5,0-.7,0,.3,0,.4.3,0,.2-.4.6-1.1,1.2-2.3.3-.1.6-.2,1-.4.1,0,.2-.2.3-.3h0c.1-.2.2-.3.3-.4.2-.3.4-.6.5-.9,0-.3,0-.6,0-1-.1-.7-.5-1.5-1.1-2.1-.6-.7-1.6-1.8-2.6-1.6,0,0-.4-.2-.6-.3-1.2-1-3-1.4-4.8-1.6-1.8-.2-3.8-.4-5.7-1.3-3.9-1.7-7.4-4-10.5-6.6-.8-.7-1.6-1.6-2.6-1.8-.4-.1-1.2-.8-1.5-1.2-1.7-2.4-4.2-4-6.4-5.8-1.3-1-2.6-1.8-3.8-2.2-.6-.2-1.2-.3-1.8-.4-.7,0-1.4,0-2.2,0-.7,0-1.5.1-2.3.3-.8.2-1.6.5-2.3,1.1-.3.2-.9.4-1.5.6-.6.2-1.2.4-1.8.6-.9.4-1.6,1-2.4,1.4-.7.4-1.6.5-2.3.8-.2,0-.5.2-.7.4-.9.7-1.9,1.4-2.8,2.1-1,.6-1.9,1.4-2.8,2-1,.6-1.8,1.4-2.8,2.2-.9.8-1.7,1.6-2.5,2.5-3.1,3.6-5.7,7.6-7.5,12-1.1,2.4-1.8,4.9-3.2,6.5-.7.7-1.2.7-1.3-.5,0-.9-.2-2,0-3,.2-.8.3-1.6.5-2.4.2-.8.5-1.5.7-2.3l.4-1.2.5-1.2c.3-.8.6-1.6,1-2.3.4-.7.8-1.5,1.2-2.2.4-.7,1-1.4,1.5-2.1.4-.4.6-.9,1-1.4.4-.4.7-.8,1.2-1,.1,0,.4-.4.5-.5,2.4-4,6.4-6.8,10.2-9.4,3.3-2.2,6.5-4.5,10.4-5.6,1-.6,2.1-1.1,3.3-1.4,1.2-.3,2.4-.5,3.6-.5,1,0,2.2,0,3.4,0,1.2.2,2.4.6,3.4,1,2.1,1,3.6,2.2,5.2,3.4,3.1,2.4,6,4.9,8.7,7.4,2.8,2.4,5.7,4.7,8.9,6.1,1.6.7,3.2,1.2,5.1,1.6,1.8.4,3.8.8,5.9,1.6,1.4.5,2.8.9,4.1,2.3.6.7,1.3,1.4,1.9,2.3.6.9,1.2,2,1.4,3.1,0,.3,0,.5.1.8,0,.3,0,.6,0,.9,0,.6-.1,1.2-.3,1.7-.2.5-.4,1-.7,1.5-.1.2-.3.4-.5.7l-.3.3c0,0,0,0,0,0h0s0,0,0,0c-.2,0-.4.2-.6.2-.3,0-.6,0-.9,0,.2.1.5.3.8.4l.7.4.9.5c.4.2.8.4,1.1.6,1.5.8,3,1.8,4.4,2.9,1.2,1,2.5,2.1,3.5,3.4.6.6,1,1.4,1.5,2.1.4.8.8,1.6,1,2.5.3.9.3,1.8.4,2.7-.1.9,0,1.8-.4,2.7-.1.4-.2.9-.4,1.3l-.5,1.1c-.3.8-.8,1.5-1.1,2.2-.5.9-1.1,1.6-1.6,2.5-.6.8-1.1,1.6-1.8,2.3-1.2,1.5-2.6,2.8-4.1,4-1.3,1-2.4,2.3-4.1,2.8-.5.1-1.4,1.4-2.3,1.9-2.2,1.4-4.5,2.7-7,3.7-1.7.7-3.5,1.2-5.4,1.6-2,.3-3.9.3-5.8.2-2.3-.2-4.5-.4-6.7-.9-2.3-.6-4.5-1.4-6.6-2.3-2.7-1.2-5.1-2.5-7.7-3.6-2.7-1.2-5.6-2.3-8-3.8-4.5-2.8-9.2-5.2-13.5-8.4-1.1-.8-2.1-1.6-3.1-2.5l-2.9-2.6c-2-1.7-3.9-3.5-5.8-5.2-2.2-2-3.7-4.4-5.5-6.7-.9-1.1-.7-3.4,0-3.3.1,0,.3.1.5.3,2,2,4.1,3.4,6.3,5.6,3.2,3.3,6.8,6.4,10.3,9.4Z" fill="#00b4e9"/>
  </g>
  <g>
    <path d="M234.3,277.7c16.2-12.4,32.5-24.7,48.7-37.1,16.7-12.7,33.5-25.5,49.4-39.2-3.4,7.1-8.6,13.1-13.8,19.1-6.7,7.6-13.4,15.3-20.5,22.5-12.3,12.5-25.9,23.7-37.9,36.5-2.7,2.8-5.3,5.7-8.7,7.6" fill="#00b4e9"/>
    <path d="M266.3,270.7c2.8-2.8,5.7-5.5,8.6-8.2,1.1-1,2.3-1.8,3.1-3.3.4-.7,1.8-1.2,2.8-2.1,2.6-2.5,5.4-5,8-7.5,2.5-2.5,4.9-5.1,7.4-7.7,2.4-2.5,5.1-5,7.2-7.7,1.8-2.3,3.9-4,5.7-6.2,1.9-2.3,3.9-4.7,6-6.7,1.5-1.5,3.1-2.9,4.4-4.6.8-1,1.4-2.2,2.3-3.3.9-1,2-2,2.2-3.3,0-.1.5-.5.7-.7,1.2-.9,2.1-2.3,2.5-3.4.4-1.1.9-1.9,1.4-2.8.5-.9,1-1.9,1.5-2.9l4.1,3.1c-1.4,1.2-2.9,2.5-4.3,3.6-1.8,1.4-3.6,2.7-5.4,4.1-1.9,1.5-3.6,3.3-5.5,4.4-1.9,1.1-3.5,2.5-5.2,3.8-1,.8-2.2,1.4-2.6,2.5,0,.1-.4.4-.6.5-3.2,1.5-5.3,4.5-8.2,6.4-3,2.1-5.9,4.4-8.8,6.7-.8.6-1.7,1.1-2.2,2-.2.3-1,1-1.4,1.2-2.5,1.1-4.6,3.2-6.9,4.8-2.6,1.8-5,4-7.8,5.5-1.2.7-2.7,1.7-3.7,3.1-.4.7-1.8,1.4-2.7,2.1-.7.6-1.3,1.4-2.1,2-.6.5-1.4.8-2.1,1.2-.2.1-.5.3-.6.5-3.3,3.3-7.5,5.4-11.1,8.4-3.6,3-7.5,5.8-11.3,8.6-2.1,1.5-4.3,3-6.4,3.2-.9,0-1.3-.4-.6-1.3.5-.7,1.1-1.4,1.8-2,1.1-1,2.2-2,3.3-2.9,2.3-2,4.3-4.2,7-5.9.8-.5,1.5-1.4,2.5-1.5.1,0,.5-.2.6-.4,2.8-3.1,6.6-5.3,9.9-7.9,2.8-2.2,5.2-4.8,8.3-6.8,1.2-1.7,3.1-3,4.9-4.1,6.1-3.8,11.5-8.4,17.2-12.7,5.8-4.3,11.4-8.8,17.1-13.2,1-.8,1.6-1.7,2.9-2.4,1.2-.6,2.5-1.9,3.7-2.9,1.1-.9,2.2-2,3.4-2.7,4.8-3,8.9-7,13.2-10.6l1-.8,2.9,2.2c-2.4,4.9-5.6,9.3-8.8,13.4-2.1,2.8-4.1,5.6-6.5,8.1-1,1.1-1.8,2.5-3.2,3.2-.4.2-1,1.5-1.6,2.3-1.5,1.8-3.1,3.6-4.7,5.3-2.2,2.4-4.5,4.8-6.7,7.3-1.4,1.5-2.6,3.1-4,4.5-1.4,1.5-3,3-4.5,4.4-2,1.8-4,3.5-6,5.2-2.1,1.8-4,4-6.1,5.6-3.9,2.9-7.3,6.4-10.9,9.8-3.5,3.3-7,6.7-10.2,10.3-1.9,2.1-4,3.6-6.3,5.3-.5.4-1.4.5-2.1.4-.7-.1-1.2-.4-1.1-.8,0-.1.2-.3.3-.4,2-1.7,3.1-3.7,5.2-5.8,3.1-3.2,6.2-6.5,9.4-9.6Z" fill="#00b4e9"/>
  </g>
  <path d="M356.8,328.9c3.1-.5,6.1-1.3,9-2.3,1.1-.4,2.3-.6,3.2-1.5.4-.5,1.7-.3,2.6-.9,2.5-1.3,5-2.8,7.2-4.6,2.2-1.8,4-3.8,5.7-6,1.7-2.1,3.5-4.3,4.4-6.8.8-2.1,1.9-3.8,2.4-5.9.5-2.2.8-4.5,1.1-6.7.2-1.6.4-3.3.2-5-.1-1-.5-2-.6-3.2,0-1.1,0-2.3-.7-3.2,0,0,0-.6,0-.8.3-1.2,0-2.6-.4-3.5-.4-.9-.5-1.7-.7-2.6l-.7-3.5c-.2-1.2-.5-2.4-.7-3.5-.4-1.8-.5-3.6-1-5.3-.4-1.8-1.2-3.7-1.5-5.4-.2-1.8-.8-3.3-1.3-5-.3-.9-.4-2.1-1.3-2.6,0,0-.2-.4-.2-.6-.1-1.4-.7-2.7-1.3-3.9-.7-1.2-1.4-2.4-1.9-3.7-1-2.7-2.4-5.3-3.8-7.9-.4-.7-.6-1.5-1.4-1.9-.3-.1-.7-.8-.8-1.2-.3-1.1-.8-2.1-1.3-3.1-.6-1-1.3-1.9-1.8-2.8-.6-1.1-1.4-2.1-2.1-3.2-.7-1.1-1.4-2.1-1.9-3.3-.5-1-1.3-2.2-2.5-2.7-.6-.2-1.2-1.2-1.9-1.8-.6-.4-1.2-.6-1.8-1-.5-.3-.8-.8-1.3-1.2-.1-.1-.3-.2-.5-.3-1.6-.4-3.2-1-4.8-1.4-1.6-.4-3.4-.7-5.1-.5-3.4.4-6.9,1.3-10.2,2.8-1.8.8-3.7,1.7-5.5,1.5-.8,0-1.1-.5-.6-1.3.4-.6,1-1.2,1.6-1.6,1-.7,2.1-1.4,3.1-2,2.2-1.2,4.5-2.6,7.2-2.9.8,0,1.8-.5,2.5-.1.1,0,.4,0,.6,0,1.7-.6,3.6-.6,5.5-.4,1.9.3,3.7.8,5.4,1.4,1.5.5,3,1.1,4.4,1.9,1.4.8,2.7,1.8,3.7,3,1.7.8,2.9,2.5,3.8,4,2.9,5.2,6.4,9.9,9.1,15.2,2.7,5.3,5.3,10.7,7.4,16.3.3,1,1,1.6,1.2,2.9.1,1.1.8,2.4,1.2,3.7.4,1.1.9,2.3,1,3.4.7,4.6,2.2,9.1,3.1,13.7.8,4.6,1.4,9.2,2,13.8.4,2.8.9,5.7.7,8.6,0,1.2.1,2.6-.6,3.8-.2.3,0,1.6-.1,2.4-.2,1-.5,2-.7,3-.3,1-.6,2-1,2.9-1.1,2.6-2.5,5.1-4,7.5-.5.7-.9,1.4-1.4,2.2-.5.7-1,1.4-1.5,2.1-1.2,1.4-2.5,2.7-3.9,3.8-1.8,1.5-3.7,2.6-5.6,3.8-2,1.2-4,2.6-6.2,3.3-4,1.3-7.8,2.7-11.8,3.5-4,.8-8,1.2-12,1.5-2.3.2-4.4-.3-6.6-.4-1,0-2.4-1.6-1.9-2.1,0,0,.3-.2.4-.2,2.1-.4,4.1-1.1,6.5-1.1,3.5,0,7.1-.4,10.5-1Z"/>
  <path d="M340.6,291c.4,0,.8,0,1.2-.1.2,0,.3.2.4-.3,0-.3.3.3.4.3.4-.1.8,0,1.2-.1.4,0,.7-.3,1.1-.4.4,0,.8.2,1.1-.2.3-.3.6.2.9,0,.3-.2.6-.3.9,0,.2.1.5.3.7.2.1,0,.2-.4.4-.4.1,0,.3.3.4-.4,0,0,0,0,.1.1.2.4.4.3.5,0,0-.3.2-.3.3-.3.3,0,.6-.1.9,0,.2,0,.5.2.7.3.3,0,.5-.3.7,0,.3.3.5.2.7.2.1,0,.3.3.3-.4,0,0,0,0,0,0,.5.8.7-.3,1.1-.2.4.2.8,0,1.2,0,.1,0,.2.2.3-.3,0-.2.1-.2.2,0,.4.6.6.2.9.2.3,0,.6-.2,1,.2.2.2.4.3.5-.3,0-.3.2,0,.4-.1,0,0,.2-.3.3-.4,0,0,.2.2.3.3,0,0,0,0,0,0,.4-.7,1,.1,1.5-.1.5-.2,1-.2,1.5-.2.3,0,.6.2.9,1.3.1.5.2,1.1.1,1.4,0,.2-.1.5-.2.6-.1.1-.3.3-.4.4-.3.2-.5.8-.9.6-.1,0-.2.2-.3-.3,0,0,0-.1,0,0-.3.8-.9.4-1.3.5-.4,0-.7.8-1.1.5-.1.7-.4.6-.6.4-.8-.6-1.5,0-2.3,0-.8,0-1.5.2-2.3.2-.1,0-.2.4-.4.1-.2-.2-.3,0-.5,0-.2,0-.3.2-.5,0-.7-.6-1.2-.1-1.8-.1-.6,0-1.2,0-1.8.2-.4.1-.7.5-1.1.4-.2,0-.3.3-.5-.3,0-.2-.2.3-.3.3-.2,0-.5,0-.7,0-.3,0-.7,0-1,.1-.2,0-.4.3-.6.4-.2,0-.4.1-.7,0-.3,0-.6-.2-.9-.3-.3,0-.6.3-.9,0-.6-.5-1.1-.2-1.6-.2-.5,0-1,0-1.5.1-.3,0-.6-.4-.9-.4-.1,0-.4-1.4-.4-2,0,0,0-.2,0-.2.2-.5.4-1.2.8-1.2.5,0,.9,0,1.4,0Z"/>
  <path d="M313.1,291.7c.2,0,.5.2.7.2,0,0,.1.3.4-.2.1-.2,0,.4.1.4.2,0,.4.2.7.2.2,0,.5-.1.8-.1.2,0,.4.4.7.1.3-.2.3.3.5.3.2,0,.4,0,.5.2,0,.2.1.5.3.4.1,0,.3-.3.4-.3,0,0,0,.3.4-.2,0,0,0,0,0,.2,0,.4,0,.4.2.2.2-.2.2-.2.3-.2.2,0,.4,0,.5.2.1,0,.2.4.3.5.1.1.4-.1.4.2,0,.3.2.4.3.4,0,0,0,.3.3-.2,0,0,0,0,0,0,0,.9.5,0,.6.2.1.3.4.2.6.3,0,0,0,.2.3-.2,0-.1.1-.1.1,0,0,.6.2.4.4.5.1.2.4,0,.4.5,0,.2,0,.4.4-.1.2-.2.1,0,.2,0,0,0,.2-.2.3-.2,0,0,0,.3,0,.4,0,0,0,0,0,0,.5-.5.5.4.8.4.4,0,.6.2.8.4.1.1.2.4-.2,1.4-.2.5-.4,1-.6,1.3-.1.2-.3.4-.4.4-.1,0-.3.1-.4.2-.3,0-.6.5-.7.2,0-.1-.2.1,0-.3,0,0,0-.1,0,0-.6.6-.6,0-.8,0-.2,0-.7.4-.8.1-.4.5-.4.4-.5.2-.1-.8-.7-.5-1.1-.8-.4-.3-.8-.3-1.2-.5,0,0-.3.3-.2,0,0-.3-.2-.1-.2-.2,0,0-.2,0-.2-.1,0-.7-.6-.5-.9-.7-.3-.2-.6-.4-1-.3-.2,0-.5.3-.7,0,0,0-.3.2-.2-.4,0-.2-.2.2-.3.2-.2,0-.3,0-.4-.1-.2,0-.4-.2-.6-.2-.1,0-.3.2-.4.2-.1,0-.3,0-.4-.1-.1-.1-.2-.4-.4-.5-.1-.1-.4.1-.5-.2-.1-.6-.5-.4-.8-.5-.3-.1-.5-.3-.9-.2-.2,0-.2-.5-.4-.5,0,0,.2-1.5.3-2,0,0,0-.2,0-.2.3-.4.6-1.1.8-1,.3.1.5.2.8.2Z"/>
  <path d="M296.7,301.5c.2-.2.5-.4.7-.6,0,0,.3,0,0-.5-.1-.2.4.2.4,0,.2-.2.5-.4.6-.6.2-.2.3-.6.4-.8.2-.2.6-.2.6-.6,0-.4.5,0,.6-.3.1-.2.3-.5.6-.4.2,0,.5.1.6,0,0-.1,0-.4,0-.5,0,0,.4.1,0-.5,0,0,0,0,.2,0,.3.3.4.2.4-.1,0-.3,0-.3,0-.4.2-.2.4-.3.6-.4.2,0,.5,0,.6,0,.2,0,.2-.4.5-.2.3.2.4,0,.6,0,0,0,.3.1,0-.4,0,0,0,0,0,0,.7.6.3-.5.7-.5.4,0,.5-.3.8-.4,0,0,.2,0,0-.4,0-.2,0-.2,0-.1.5.4.5,0,.8,0,.3,0,.4-.4.8,0,.2.1.4.2.2-.4,0-.3.2,0,.2-.2,0,0,0-.4,0-.4,0,0,.2.1.3.2,0,0,0,0,0,0,0-.8.8-.1,1-.5.3-.3.6-.4,1-.5.2,0,.5,0,1.1,1,.3.4.5.9.6,1.3,0,.2,0,.5,0,.6,0,.1-.1.3-.2.4-.1.3,0,.8-.4.7-.1,0,0,.3-.3-.2,0,0,0,0,0,0,0,.9-.4.5-.7.7-.2.2-.1.8-.5.7.2.6,0,.6-.3.5-.8-.3-1,.3-1.5.5-.5.2-.9.5-1.4.8,0,0,0,.4-.2.2-.2-.2-.2,0-.3.1,0,0-.1.2-.3.2-.7-.3-.8.2-1.2.4-.4.2-.8.4-1,.7-.1.2-.1.7-.4.7-.1,0,0,.4-.4,0-.1-.1,0,.3,0,.4-.1.1-.3.2-.4.3-.2.1-.4.3-.6.5,0,.1,0,.4-.1.5,0,.1-.2.2-.4.3-.2,0-.5,0-.7.1-.2,0-.2.4-.5.3-.6-.2-.7.3-1,.5-.3.2-.6.4-.8.7,0,.2-.6,0-.7,0,0,0-1.2-.9-1.5-1.3,0,0-.1-.2-.1-.2-.2-.5-.5-1.1-.3-1.3.3-.2.5-.5.8-.7Z"/>
  <path d="M299.6,312.6c-.1-.1-.2-.3-.3-.4,0,0,.1-.3-.4,0-.2.1.2-.3.2-.3-.2,0-.2-.3-.3-.4-.1-.1-.4-.1-.6-.2-.1-.1,0-.4-.3-.4-.3,0,0-.3-.1-.4-.2,0-.3-.1-.2-.4.1-.2.3-.4.1-.4,0,0-.4,0-.4,0,0,0,.2-.2-.4,0,0,0,0,0,.1-.1.3-.2.3-.3,0-.2-.3,0-.3,0-.3,0,0-.1-.2-.2-.2-.4,0-.1.2-.3.2-.4,0-.1-.3-.1,0-.3.2-.2.2-.3.2-.4,0,0,.2-.2-.4,0,0,0,0,0,0,0,.7-.4-.4-.2-.2-.4.1-.2,0-.3-.1-.5,0,0,.1-.1-.3,0-.2,0-.2,0,0,0,.6-.3.2-.3.2-.5,0-.2-.2-.2.2-.5.2-.1.3-.2-.3-.1-.3,0,0-.1,0-.1,0,0-.3,0-.4,0,0,0,.2-.1.3-.2,0,0,0,0,0,0-.7,0,.1-.5,0-.6-.2-.2-.2-.4-.1-.6,0-.1.2-.3,1.3-.5.5-.1,1.1-.2,1.4-.2.2,0,.5,0,.5,0,.1,0,.2,0,.3.1.2,0,.7.1.5.3,0,0,.2,0-.3.2,0,0-.1,0,0,0,.8,0,.3.3.4.4,0,.1.7,0,.5.3.6,0,.5,0,.4.1-.6.4,0,.5,0,.8,0,.3.2.5.2.7,0,0,.4,0,.1,0-.2.1,0,.1,0,.2,0,0,.2,0,0,.2-.5.4,0,.5,0,.7,0,.2,0,.4.3.5.1,0,.5,0,.4.2,0,0,.3,0-.2.3-.1,0,.3,0,.3,0,0,0,0,.1.1.2,0,.1,0,.2.2.3,0,0,.3,0,.4,0,0,0,.1,0,.1.2,0,.1-.1.3-.1.4,0,.1.3,0,.1.3-.3.4,0,.4,0,.6,0,.2.1.3.3.4.1,0-.2.4-.1.5,0,0-1,1.1-1.4,1.4,0,0-.2.1-.2.1-.4.2-1,.6-1.1.5,0-.2-.2-.3-.4-.5Z"/>
  <path d="M312.6,309.4c-.2,0-.4.1-.6.3,0,0-.2-.2,0,.4,0,.3-.3-.3-.3-.2-.1.1-.4.1-.5.3-.1.1-.2.4-.4.5-.1.1-.4,0-.5.3,0,.3-.4,0-.4,0,0,.2-.2.3-.4.2-.2-.1-.4-.3-.4-.1,0,0,0,.4,0,.4,0,0-.3-.2,0,.4,0,0,0,0-.1-.1-.2-.3-.3-.3-.3,0,0,.3,0,.3,0,.3-.1,0-.3.2-.4.2-.1,0-.3-.2-.5-.2-.1,0-.1.3-.4,0-.2-.2-.3-.2-.4-.1,0,0-.2-.2,0,.4,0,0,0,0,0,0-.5-.7-.2.4-.5.3-.3-.1-.4,0-.5.2,0,0-.2-.1,0,.3,0,.2,0,.2,0,0-.4-.5-.4-.1-.5-.1-.2,0-.2.3-.6,0-.1-.2-.3-.2-.1.3,0,.3-.1,0-.1.1,0,0,0,.3,0,.4,0,0-.2-.2-.3-.3,0,0,0,0,0,0,0,.7-.5,0-.7.2-.2.3-.4.3-.7.3-.1,0-.3-.1-.9-1.1-.2-.5-.5-1-.5-1.3,0-.2-.1-.5,0-.5,0-.1,0-.3,0-.4,0-.2,0-.8.3-.6,0,0,0-.2.3.2,0,0,0,0,0,0-.1-.8.3-.4.5-.6.2-.1,0-.8.4-.6-.2-.6,0-.6.2-.4.6.5.8,0,1.2-.2.4,0,.7-.3,1.1-.4,0,0,0-.4.2-.1.2.2.2,0,.2,0,0,0,0-.2.2,0,.5.5.7,0,1,0,.3,0,.6-.1.8-.4.1-.2.2-.6.4-.5,0,0,0-.3.3.2,0,.1,0-.3,0-.3,0,0,.2-.1.3-.2.2,0,.3,0,.5-.2,0,0,0-.3.2-.4,0-.1.2-.1.3-.1.2,0,.4.2.5.2.2,0,.2-.3.4-.1.4.4.6,0,.8,0,.3,0,.5-.1.7-.3.1-.1.4.3.6.2,0,0,.7,1.3.9,1.8,0,0,0,.2,0,.2,0,.5.2,1.2,0,1.2-.2,0-.4.2-.7.3Z"/>
  <path d="M321.1,312.3c-.2,0-.4-.1-.6-.1,0,0,0-.3-.3.2-.1.2,0-.4,0-.4-.2,0-.3-.1-.5-.1-.2,0-.4.2-.6.2-.2,0-.3-.3-.5,0-.2.2-.2-.3-.4-.2-.2,0-.3.1-.4-.1,0-.2,0-.4-.2-.4,0,0-.2.3-.3.3,0,0,0-.3-.3.3,0,0,0,0,0-.2,0-.4,0-.4-.2-.2-.1.2-.2.2-.2.2-.2,0-.3,0-.4-.1,0,0-.1-.3-.2-.4,0,0-.3.2-.3-.2,0-.3-.1-.3-.2-.4,0,0,0-.3-.3.3,0,0,0,0,0,0,0-.8-.4.2-.5,0-.1-.3-.3-.2-.5-.2,0,0,0-.2-.2.2,0,.2-.1.2-.1,0,0-.6-.2-.3-.3-.4-.1-.2-.3,0-.4-.4,0-.2,0-.3-.3.2-.1.2-.1,0-.2,0,0,0-.2.3-.2.3,0,0,0-.2,0-.4,0,0,0,0,0,0-.4.6-.4-.3-.6-.2-.3.1-.5,0-.7-.2-.1,0-.2-.3,0-1.4.1-.5.3-1,.4-1.3.1-.2.2-.4.3-.5,0,0,.2-.2.3-.3.2-.1.5-.6.5-.3,0,0,.2-.2,0,.3,0,0,0,.1,0,0,.4-.7.5-.1.7-.2.2,0,.5-.6.6-.3.3-.6.3-.4.4-.2.2.7.6.4.9.6.3.2.7.2,1,.3,0,0,.2-.3.2,0,0,.3.1,0,.2.1,0,0,.2,0,.2,0,0,.7.5.4.7.5.2.1.5.3.8.2.2,0,.4-.3.6-.2,0,0,.2-.2.1.4,0,.2.2-.3.2-.3.1,0,.2,0,.3,0,.2,0,.3.1.5.1.1,0,.3-.2.4-.3.1,0,.2,0,.3,0,.1.1.2.3.3.4.1,0,.3-.1.4.2,0,.6.4.4.6.5.2.1.4.2.7.2.1,0,.1.5.3.5,0,0-.3,1.5-.4,1.9,0,0,0,.2,0,.2-.2.4-.6,1.1-.7,1-.2-.1-.4-.1-.6-.2Z"/>
  <path d="M319.1,324.2c-.5,0-1,0-1.4,0-.2,0-.4-.2-.5.3,0,.3-.3-.4-.4-.3-.4,0-.9,0-1.3,0-.4,0-.9.3-1.3.3-.4,0-.9-.2-1.4,0-.4.3-.8-.3-1.3-.2-.5,0-1.1,0-1.6-.4-.4-.3-.7-.7-1.1-.9-.3-.1-.7,0-.9-.3-.1-.2-.2-.4-.4-.5,0,0-.2,0-.4,0,0,0,0-.2,0-.3.2-.5,0-.8-.3-1-.3-.2-.4-.5-.4-.7-.1-.6-.2-1.1-.1-1.5,0-.3.3-.6.3-.9,0-.3-.2-.6,0-.9.3-.3.3-.5.3-.8,0-.2.3-.3-.3-.5,0,0,0,0,0,0,.8-.4-.3-.9,0-1.3,0-.1,0-.2,0-.4,0-.2,0-.4,0-.6,0-.4,0-.8,0-1.2,0-.2.3-.3,0-.7-.1-.1,0-.4.1-.4.8-.2.9-.8,1.5-1.1.6-.3,1.2-.7,2-.4.2,0,.3.1.5,0,0,0,.2,0,.2-.1,0,0,0-.2.1-.3,0-.3.3,0,.4-.1.1,0,.2-.3.3-.4,0,0,.2.2.3.3,0,0,0,0,0,0,.5-.7,1.2,0,1.7-.2.5-.3,1.1-.3,1.7-.2.3,0,.7.2,1,1.3.2.5.2,1,.1,1.4,0,.3-.2.5-.3.6-.2.1-.3.3-.5.4-.3.2-.6.8-1,.6-.1,0-.2.2-.4-.2,0,0,0,0,0,0-.4.9-1,.4-1.5.5-.4.1-.8.8-1.2.6,0,.2,0,.3-.1.4,0,0,0,0,0,0h0c0,0,0,0,0,0-.1-.3-.3-.4-.4-.3,0,0,0,.2,0,.2,0,0,0,0,0,.4,0,.4,0,.9,0,1.3,0,.1.4.3,0,.4-.3.2,0,.4,0,.6,0,.2.1.3,0,.5-.6.7-.3,1.4-.3,2,0,.5,0,.6.2.8,0,0,0,0,.1,0,.2,0,.4-.2.4,0,0,0,.2-.2.1.4,0,.2.2-.2.3-.3.2,0,.4,0,.6,0,.3,0,.6,0,1.1,0,.2,0,.5-.3.7-.3.3,0,.5,0,.8,0,.3,0,.6.3,1,.4.3,0,.7-.2,1,0,.6.5,1.2.3,1.8.3.6,0,1.2.1,1.8,0,.3,0,.6.4,1,.4.2,0,.4,1.5.3,2,0,0,0,.2,0,.2-.3.5-.6,1.2-1,1.1-.5,0-1.1,0-1.6,0Z"/>
  <path d="M319.5,341.1c-.4-.1-.7-.3-1.1-.4-.1,0-.2-.3-.5,0-.2.2,0-.4-.2-.5-.4,0-.7-.3-1.1-.4-.4,0-.8,0-1.2-.1-.4,0-.6-.5-1-.4-.4.1-.4-.5-.7-.5-.3,0-.7,0-.8-.4-.1-.3-.2-.5-.5-.6-.2,0-.4.2-.5.1-.1,0-.1-.4-.5,0,0,0,0,0,0-.2,0-.4-.1-.5-.4-.3-.2.2-.3,0-.4,0-.3-.1-.6-.3-.8-.5-.2-.2-.3-.5-.5-.7-.2-.2-.9-.3-1-.8,0-.5-.3-.7-.5-1.1-.1-.2,0-.5-.6-.4,0,0,0,0,0-.1.6-.8-.6-1.2-.4-1.6.2-.4,0-.8,0-1.2,0-.1.2-.2-.3-.3-.2,0-.2-.1,0-.2.6-.3.2-.6.3-1,.1-.4-.2-.7.4-1.1.2-.1.3-.3-.2-.6-.3-.1,0-.3,0-.4,0-.1-.3-.2-.3-.4,0,0,.2-.2.4-.2,0,0,0,0,0,0-.6-.6.4-1,.3-1.5,0-.6.1-1.1.4-1.6.1-.3.4-.5,1.5-.3.5,0,1,.2,1.3.4.2.1.4.3.4.4,0,.2.1.3.2.5.1.3.6.7.2.9-.1,0,.2.2-.3.2,0,0-.1,0,0,0,.7.5.1.8.1,1.2,0,.3.6.7.3,1,.6.2.5.4.3.6-.7.6-.3,1.3-.3,1.9,0,.3,0,.7,0,1,0,.2,0,.3,0,.4,0,0,0,0,0,.1,0,0,.3-.1,0,0-.2.2,0,0,0,0,0,0,.1,0,0,0,0,.1-.1.2-.1.3,0,0,.1.2.3.2.2.1.5.2.8.4.5.3.9.7,1.5.8.3,0,.8,0,1,.2.1.1.4-.1.3.5,0,.2.3-.2.4-.2.2,0,.4.2.6.3.3.1.6.3.9.4.2,0,.5,0,.7,0,.2,0,.4.1.6.3.2.2.4.5.6.6.2.2.6,0,.7.4.2.7.8.6,1.2.8.4.2.9.4,1.4.5.3,0,.3.6.6.7.1,0-.2,1.5-.4,1.9,0,0,0,.2-.1.2-.4.3-.9.9-1.2.8-.4-.2-.9-.3-1.3-.5Z"/>
  <path d="M328.6,338.7c-.1,0-.2,0-.3.2,0,0-.2-.2,0,.3,0,.3-.2-.3-.3-.3,0,.1-.2,0-.3.2,0,.1,0,.4-.2.5,0,.1-.3-.1-.3.2,0,.3-.3-.1-.3,0,0,.2,0,.3-.3,0-.1-.1-.3-.3-.3-.2,0,0,0,.4,0,.4,0,0-.2-.2,0,.4,0,0,0,0,0-.1-.2-.4-.2-.3-.2,0,0,.3,0,.2,0,.3,0,0-.2.1-.3.1,0,0-.2-.2-.3-.2,0,0,0,.3-.2,0-.2-.3-.2-.2-.3-.2,0,0-.2-.2,0,.4,0,0,0,0,0,0-.4-.7-.1.3-.3.2-.2-.2-.2,0-.3,0,0,0-.1-.1,0,.3,0,.2,0,.2,0,0-.3-.6-.3-.2-.4-.2-.1,0-.1.2-.4-.2-.1-.2-.2-.3,0,.3,0,.3,0,0,0,0,0,0,0,.3,0,.3,0,0-.1-.2-.2-.3,0,0,0,0,0,0,0,.7-.4-.1-.4.1,0,.2-.3.2-.4.2,0,0-.2-.2-.6-1.3-.2-.5-.3-1-.4-1.3,0-.2,0-.5,0-.5,0-.1,0-.2,0-.4,0-.2,0-.7.1-.5,0,0,0-.2.2.3,0,0,0,0,0,0-.1-.8.1-.3.2-.4,0,0,0-.7.2-.5-.2-.6,0-.5,0-.4.4.6.5,0,.7,0,.2,0,.4-.1.6-.2,0,0,0-.4,0-.1.1.2.1,0,.1,0,0,0,0-.2.1,0,.4.6.4.1.6.1.2,0,.4,0,.4-.2,0-.1,0-.5.1-.4,0,0,0-.3.2.2,0,.1,0-.3,0-.3,0,0,.1,0,.2,0,0,0,.2,0,.3-.1,0,0,0-.3,0-.4,0,0,0-.1.2,0,.1,0,.3.2.4.2,0,0,0-.3.2,0,.4.4.4.1.5,0,.2,0,.3,0,.4-.2,0,0,.3.3.4.3,0,0,.2.3.4.7.2.4.5.8.6,1,0,0,0,.2,0,.2.1.4.4,1.1.3,1.1-.2,0-.3.1-.4.2Z"/>
  <path d="M338.9,333.4c-.3,0-.7,0-1,.1-.1,0-.3-.2-.4.3,0,.3-.2-.3-.3-.3-.3.1-.6,0-1,.1-.3,0-.6.3-.9.4-.3,0-.6-.2-.9.1-.3.3-.5-.2-.7,0-.3.1-.5.2-.8,0-.2-.2-.4-.4-.5-.3-.1,0-.2.4-.4.4-.1,0-.2-.3-.4.3,0,0,0,0,0-.2-.1-.4-.3-.4-.4-.1-.1.3-.2.2-.3.2-.3,0-.5,0-.8,0-.2,0-.4-.3-.6-.4-.2,0-.4.2-.6-.1-.2-.3-.3-.3-.5-.3-.1,0-.2-.3-.3.3,0,0,0,0,0,0-.2-.8-.6.2-.9,0-.3-.2-.6-.1-.9-.1,0,0-.2-.2-.3.3,0,.2-.1.2-.2,0-.2-.7-.4-.3-.7-.4-.3-.2-.6.1-.8-.4,0-.2-.2-.3-.4.2,0,.3-.2,0-.3,0,0,0-.2.3-.3.3,0,0-.1-.2-.2-.4,0,0,0,0,0,0-.5.6-.7-.3-1.2-.2-.4.1-.8,0-1.2-.1-.2,0-.4-.3-.4-1.5,0-.5,0-1.1.2-1.4.1-.2.2-.4.3-.5.1,0,.3-.2.4-.3.3-.2.6-.7.8-.3,0,0,.2-.2.2.3,0,0,0,.1,0,0,.4-.7.7-.2,1.1-.2.3,0,.7-.6.9-.3.2-.6.4-.5.6-.3.5.7,1.1.4,1.7.5.6.2,1.2.1,1.8.2,0,0,.2-.3.3,0,0,.3.2,0,.4,0,.1,0,.2-.1.3,0,.4.7.9.3,1.4.4.5,0,.9.2,1.4,0,.3,0,.6-.4.8-.3.1,0,.2-.3.4.3,0,.2.1-.3.2-.3.2,0,.4,0,.6,0,.3,0,.5,0,.8,0,.2,0,.3-.3.5-.4.2,0,.3,0,.5,0,.2,0,.4.3.6.3.2,0,.4-.2.6,0,.4.5.8.2,1.2.2.4,0,.8,0,1.1-.2.2-.1.5.4.7.3,0,0,.5,1.4.6,1.9,0,0,0,.2,0,.2-.1.5-.2,1.2-.5,1.2-.4,0-.8.1-1.2.2Z"/>
  <path d="M321.9,285c-.1.1-.3.2-.4.4,0,0-.3,0,0,.4.2.2-.3-.2-.4,0,0,.2-.2.3-.3.4,0,.2,0,.4,0,.6,0,.2-.4.1-.2.4.2.3-.3,0-.3.3,0,.2,0,.3-.3.3-.2,0-.4,0-.4.1,0,0,.3.3.2.3,0,0-.3,0,.2.3,0,0,0,0-.1,0-.4-.1-.4,0-.2.1.2.2.2.2.1.3,0,.1,0,.3-.2.4,0,0-.3,0-.4.1-.1,0,0,.3-.2.3-.3,0-.3,0-.4.1,0,0-.3,0,.2.3,0,0,0,0,0,0-.8-.2.1.4-.1.5-.3,0-.2.3-.2.5,0,0-.2,0,.2.2.1,0,.1.1,0,0-.6,0-.3.2-.5.2-.2.1,0,.3-.4.3-.2,0-.4,0,.2.3.2.1,0,.1,0,.2,0,0,.3.2.3.2,0,0-.2,0-.4,0,0,0,0,0,0,0,.6.4-.3.4-.2.6.1.2,0,.4-.1.6,0,.1-.3.2-1.4,0-.5,0-1.1-.1-1.4-.2-.2,0-.4-.2-.5-.2,0,0-.2-.2-.3-.3-.2-.2-.7-.5-.3-.6,0,0-.2-.2.3,0,0,0,.1,0,0,0-.7-.4-.2-.5-.2-.8,0-.2-.6-.6-.2-.7-.6-.3-.4-.4-.2-.4.8-.2.5-.7.7-1.1.2-.4.3-.8.5-1.1,0,0-.3-.3,0-.2.3,0,.1-.1.2-.2,0,0,0-.2.1-.2.7,0,.5-.5.7-.7.2-.2.4-.5.4-.8,0-.2-.2-.6,0-.7,0,0-.1-.3.4,0,.2,0-.2-.2-.2-.3,0-.1.1-.2.2-.3.1-.2.3-.3.3-.5,0-.1,0-.4,0-.5,0-.1.1-.2.2-.3.2,0,.4,0,.6-.1.1,0,0-.4.3-.3.6.1.5-.3.8-.4.2-.2.4-.3.5-.6,0-.2.5,0,.6,0,0,0,1.1.9,1.5,1.3,0,0,.1.2.1.2.2.4.7,1,.5,1.1-.2,0-.3.3-.4.4Z"/>
  <path d="M336.5,293.6c-.3-.2-.6-.4-.9-.5-.1,0-.1-.3-.5,0-.2.2,0-.4-.1-.4-.3,0-.6-.3-.9-.4-.3,0-.7,0-1-.1-.3,0-.5-.5-.9-.3-.4.1-.3-.4-.6-.4-.3,0-.6,0-.7-.4,0-.2-.2-.5-.4-.5-.1,0-.4.3-.5.2,0,0-.1-.4-.5.2,0,0,0,0,0-.2,0-.4,0-.5-.3-.3-.2.2-.3.1-.4.1-.3,0-.5-.2-.7-.3-.2-.1-.2-.4-.4-.6-.2-.1-.5,0-.5-.3,0-.4-.2-.4-.4-.5,0,0,0-.4-.4.2,0,0,0,0,0,0,0-.9-.7,0-.9-.3-.2-.3-.6-.3-.9-.4,0,0,0-.2-.3.2,0,.1-.2.1-.2,0,0-.7-.4-.4-.5-.6-.2-.2-.6,0-.6-.6,0-.2-.1-.4-.5,0-.2.2-.2,0-.3,0,0,0-.3.2-.4.2,0,0,0-.3,0-.4,0,0,0,0,0,0-.6.5-.7-.5-1.1-.5-.4,0-.8-.2-1.2-.4-.2-.1-.3-.4,0-1.5.1-.5.3-1,.5-1.3.2-.2.3-.4.4-.4.2,0,.3-.1.5-.2.3,0,.8-.5.9-.1,0,.1.3-.1.1.4,0,0,0,.1,0,0,.6-.6.8,0,1.2.1.3,0,.8-.4,1,0,.4-.5.6-.3.7,0,.3.9,1.1.7,1.6,1,.6.3,1.2.5,1.8.8,0,0,.3-.2.3,0,0,.3.2.2.4.2.1,0,.3,0,.3.2.2.8.8.7,1.2.9.4.3.9.5,1.4.6.3,0,.7-.1,1,.1,0,.1.4-.1.2.5,0,.2.3-.2.4-.2.2,0,.4.2.6.3.3.1.5.3.8.4.2,0,.4,0,.6,0,.2,0,.4.1.5.2.2.2.3.5.5.6.2.2.5,0,.6.4.2.7.7.6,1,.9.4.3.7.5,1.2.6.3,0,.2.6.4.7.1,0-.5,1.4-.7,1.8,0,0-.1.2-.1.2-.4.3-.9.8-1.2.7-.3-.2-.7-.4-1-.6Z"/>
  <path d="M259.8,281c-.2-.2-.4-.4-.7-.5,0,0,0-.3-.4,0-.2.2,0-.4,0-.4-.3,0-.4-.3-.7-.4-.2-.1-.6,0-.8-.2-.2,0-.3-.5-.7-.4-.3.1-.2-.4-.4-.4-.2,0-.5,0-.5-.4,0-.2,0-.5-.2-.5-.1,0-.4.2-.4.1,0,0,0-.4-.4.1,0,0,0,0,0-.2.2-.4,0-.4-.2-.3-.2.2-.3.1-.3,0-.2,0-.4-.2-.5-.4-.1-.1-.1-.4-.2-.6-.1-.1-.4,0-.4-.4,0-.3,0-.4-.2-.5,0,0,0-.3-.4.1,0,0,0,0,0,0,.3-.8-.6,0-.6-.4,0-.3-.4-.3-.6-.5,0,0,0-.2-.3.1-.1.1-.2,0-.1,0,.2-.6-.2-.4-.3-.6-.1-.2-.5-.1-.4-.6,0-.2,0-.4-.4,0-.2.2-.1,0-.2,0,0,0-.3.2-.4.2,0,0,0-.3,0-.4,0,0,0,0,0,0-.6.4-.4-.5-.8-.6-.4,0-.6-.3-.9-.5-.1-.1-.2-.4.3-1.4.2-.5.5-.9.8-1.2.2-.2.4-.3.4-.3.1,0,.3,0,.4-.1.3,0,.8-.4.8,0,0,.1.2,0,0,.4,0,0,0,.1,0,0,.7-.5.7.1,1,.2.2.1.8-.3.9,0,.5-.4.6-.3.6,0,0,.8.7.8,1.1,1.1.4.4.9.6,1.3.9,0,0,.3-.2.3,0,0,.3.2.2.3.2,0,0,.3,0,.2.2,0,.8.5.7.8,1,.3.3.6.6,1,.7.3,0,.7,0,.8.2,0,.1.3-.1,0,.4,0,.2.3-.2.3-.1.2,0,.3.2.4.3.2.1.4.3.6.4.1,0,.4,0,.6,0,.2,0,.3.1.4.3.1.2.1.5.3.6.1.2.5,0,.4.4,0,.6.4.6.7.9.2.3.5.5.9.6.2,0,0,.6.2.7,0,0-.7,1.3-1.1,1.7,0,0-.1.1-.2.2-.4.3-1,.7-1.2.6-.2-.3-.5-.4-.8-.6Z" fill="#fff"/>
  <path d="M253.4,288.1c-.7.2-1.5.4-2.2.8-.3.1-.6,0-.7.6,0,.3-.5-.2-.8,0-.7.3-1.4.5-2,.8-.6.3-1.2.7-1.8,1.1-.6.3-1.4.3-1.9.8-.4.5-1.1.2-1.6.5-.5.3-1,.6-1.6.7-.4,0-.9,0-1.3.3-.2.2-.3.6-.6.7-.2,0-.6,0-.6.6,0,0-.1,0-.2,0-.4-.3-.7,0-.8.3,0,.3-.3.4-.5.5-.5.3-1,.5-1.6.8-.4.2-.9.1-1.3.3-.4.2-.8.6-1.3.5-.5,0-.9.1-1.2.3-.2.1-.6,0-.5.6,0,0,0,0-.1,0-1-.4-1.1.9-1.8,1-.7.2-1.3.6-1.9,1-.2,0-.4,0-.4.5,0,.2-.1.3-.3.2-.8-.3-1.1.3-1.6.5-.6.2-1,.8-1.8.7-.3,0-.7,0-.7.7,0,.3-.4.2-.5.4-.1.1-.1.5-.3.6-.1,0-.4,0-.6,0,0,0-.1,0-.1,0-.4,1-1.6.8-2.3,1.4-.7.6-1.5,1.1-2.3,1.5-.4.2-1,.4-1.9-.4-.4-.3-.7-.8-.8-1.2,0-.3,0-.6.1-.7.2-.3.4-.5.5-.8.4-.5.6-1.3,1.3-1.4.2,0,.2-.4.6,0,0,0,.1,0,.2,0,.3-1.1,1.3-1.2,1.9-1.7.6-.4.8-1.3,1.6-1.5,0-.8.5-.9.9-.9,1.6-.2,2.6-1.3,3.9-1.9,1.3-.6,2.5-1.4,3.8-2.1.2-.1.2-.5.6-.4.4.1.6-.2.9-.4.3-.1.5-.4.8-.4,1.3,0,2.2-.8,3.2-1.2,1.1-.4,2.1-.9,3.1-1.5.6-.4,1.1-1,1.8-1.1.3,0,.4-.5.9,0,.1.1.2-.4.4-.5.4-.2.9-.4,1.3-.6.6-.3,1.2-.5,1.8-.8.4-.2.6-.6,1-.8.4-.2.8-.4,1.2-.5.5-.1,1.1-.1,1.6-.2.5-.1,1-.6,1.6-.5,1.1.2,1.9-.4,2.9-.7.9-.2,1.9-.5,2.8-.9.5-.2,1.1.1,1.6,0,.2,0,1,1.2,1,1.8,0,0,0,.2,0,.3-.4.6-.6,1.4-1.2,1.6-.9.2-1.7.5-2.5.8Z" fill="#fff"/>
  <path d="M273.3,302.5c-.8.3-1.6.6-2.3.9-.3.1-.7,0-.8.6,0,.3-.6-.2-.8,0-.7.3-1.4.6-2.1.9-.7.3-1.3.8-2,1.2-.7.3-1.5.4-2,.9-.5.5-1.2.3-1.7.6-.5.4-1.1.7-1.8.7-.5,0-1,0-1.3.3-.2.2-.3.6-.6.7-.3,0-.7,0-.6.6,0,0-.2,0-.3,0-.4-.2-.8,0-.9.3-.1.4-.3.4-.5.5-.6.3-1.1.6-1.7.8-.5.2-1,.1-1.4.3-.5.2-.8.6-1.4.5-.5,0-.9.1-1.3.3-.2.1-.6,0-.5.6,0,0,0,0-.1,0-1-.4-1.2.9-2,1-.8.1-1.4.6-2.1,1-.2,0-.5,0-.4.5,0,.2-.2.3-.3.2-.8-.3-1.2.3-1.7.5-.7.2-1.1.7-1.9.6-.3,0-.7,0-.8.7,0,.3-.4.2-.6.4-.2.1-.2.5-.4.6-.1,0-.4,0-.6,0,0,0-.1,0-.1,0-.6,1-1.8.7-2.6,1.3-.8.6-1.7,1-2.6,1.4-.5.2-1.1.3-2-.5-.4-.4-.7-.9-.6-1.3,0-.3.1-.6.3-.7.2-.2.5-.5.7-.7.5-.5.8-1.2,1.5-1.3.2,0,.3-.4.7,0,0,0,.1,0,.2,0,.4-1.1,1.5-1.1,2.3-1.5.7-.4,1-1.3,1.9-1.4,0-.8.6-.9,1.1-.9,1.7,0,2.8-1.2,4.2-1.7,1.4-.6,2.8-1.3,4.2-2,.2-.1.3-.5.7-.4.4.1.6-.2.9-.4.3-.1.5-.4.8-.4,1.4.1,2.3-.8,3.4-1.2,1.1-.4,2.3-.9,3.3-1.5.6-.4,1.2-1,1.9-1.2.3,0,.5-.5,1,0,.1.1.2-.4.4-.5.4-.2.9-.4,1.4-.6.6-.3,1.3-.5,1.9-.8.4-.2.7-.6,1-.8.4-.2.8-.4,1.2-.5.6-.1,1.2-.2,1.7-.3.6-.2,1-.6,1.7-.6,1.2,0,2-.5,3-.9,1-.3,2-.7,2.9-1.1.5-.3,1.2,0,1.7-.2.2,0,1.1,1.2,1.2,1.7,0,0,0,.2,0,.3-.4.6-.6,1.5-1.2,1.7-.9.3-1.8.7-2.6,1Z" fill="#fff"/>
  <path d="M229,295.4c0-.3,0-.5,0-.8,0,0,.2-.2-.3-.3-.3,0,.4-.2.3-.3,0-.2,0-.5-.1-.8,0-.2-.3-.5-.4-.7,0-.2.2-.5-.1-.7-.3-.2.2-.4,0-.6-.1-.2-.2-.4,0-.6.2-.2.4-.3.3-.5,0,0-.4-.2-.4-.3,0,0,.3-.2-.4-.3,0,0,0,0,.1,0,.4-.1.4-.2,0-.3-.3,0-.2-.1-.3-.2,0-.2,0-.4,0-.6,0-.2.3-.3.3-.5,0-.2-.2-.3,0-.5.3-.2.3-.3.3-.5,0,0,.3-.2-.4-.2,0,0,0,0,0,0,.8-.3-.3-.5,0-.7.2-.3,0-.5,0-.8,0,0,.2-.1-.3-.2-.2,0-.2,0,0-.1.6-.2.2-.4.3-.6.1-.2-.2-.4.3-.7.2,0,.3-.2-.3-.3-.3,0,0-.2,0-.2,0,0-.3-.1-.3-.2,0,0,.2-.1.3-.2,0,0,0,0,0,0-.7-.3.2-.6,0-1-.2-.3-.1-.7,0-1,0-.2.2-.4,1.4-.5.5,0,1.1,0,1.4,0,.2,0,.5.1.5.2,0,.1.2.2.3.3.2.2.7.4.4.6,0,0,.2.1-.3.2,0,0-.1,0,0,0,.8.3.3.6.3.9,0,.2.7.5.4.7.6.1.5.3.3.4-.7.5-.2,1-.3,1.4,0,.5,0,1,0,1.5,0,0,.4.1,0,.2-.3.1,0,.2,0,.3,0,0,.1.2,0,.3-.6.4-.2.8-.3,1.2,0,.4,0,.8,0,1.1.1.2.5.4.4.7,0,.1.3.2-.3.3-.2,0,.3.1.3.2,0,.2,0,.3,0,.5,0,.2,0,.4,0,.7,0,.1.3.2.4.4,0,.1,0,.3,0,.4,0,.2-.3.4-.3.6,0,.2.2.4,0,.6-.5.4-.2.7-.2,1,0,.3,0,.7.1,1,0,.2-.4.4-.4.6,0,0-1.4.4-2,.4,0,0-.2,0-.2,0-.5-.1-1.2-.2-1.2-.4,0-.3,0-.6,0-.9Z" fill="#fff"/>
  <path d="M239,334.6c0-.3-.1-.6-.3-.8,0,0,.2-.3-.4-.2-.3,0,.3-.3.3-.3-.1-.2-.1-.5-.3-.8-.1-.2-.4-.4-.5-.6-.1-.2,0-.6-.3-.7-.3-.1.1-.5,0-.6-.2-.2-.3-.4-.2-.6.1-.2.3-.4.1-.5,0,0-.4,0-.4-.2,0,0,.2-.3-.4-.2,0,0,0,0,.1-.1.4-.2.3-.3,0-.3-.3,0-.3,0-.3-.2,0-.2-.2-.4-.2-.6,0-.2.2-.4.2-.6,0-.2-.3-.3,0-.5.2-.2.2-.4.1-.5,0,0,.2-.3-.4-.2,0,0,0,0,0,0,.7-.5-.4-.4-.3-.7.1-.3,0-.5-.2-.8,0,0,.1-.2-.3-.1-.2,0-.2,0,0-.1.6-.4.1-.5.2-.7,0-.3-.3-.4.1-.8.2-.2.2-.3-.4-.3-.3,0,0-.2-.1-.2,0,0-.3,0-.4-.1,0,0,.2-.2.3-.3,0,0,0,0,0,0-.7-.1,0-.7-.2-1-.3-.3-.3-.6-.3-1,0-.2.1-.4,1.2-.9.5-.2,1-.4,1.3-.4.2,0,.5,0,.6,0,.1,0,.3.1.4.2.2.2.8.2.6.5,0,0,.2,0-.2.3,0,0,0,0,0,0,.8,0,.4.5.6.8.1.2.8.3.6.6.6,0,.6.2.4.3-.5.7,0,1,.1,1.6,0,.5.3,1,.4,1.5,0,0,.4,0,.1.2-.2.2,0,.2,0,.3,0,.1.2.2,0,.3-.5.6,0,.9,0,1.3,0,.4,0,.8.4,1.2.2.2.6.4.5.6,0,.1.3.1-.2.4-.2,0,.3,0,.3.1,0,.1.1.3.2.5,0,.2,0,.5.2.7,0,.1.4.2.4.3.1.1.1.3.1.4,0,.2-.2.4-.2.6,0,.2.3.3.1.6-.4.5,0,.7,0,1.1,0,.4,0,.7.3,1,.1.2-.3.5-.3.7,0,0-1.4.6-1.9.7,0,0-.2,0-.2,0-.5,0-1.2,0-1.3-.2,0-.3-.2-.6-.2-.9Z" fill="#fff"/>
  <path d="M257.3,337c0-.4-.1-.8-.3-1.3,0-.2.2-.4-.4-.4-.3,0,.3-.3.3-.4-.1-.4-.1-.8-.3-1.2-.1-.4-.4-.7-.6-1.1-.1-.4,0-.8-.3-1.1-.3-.3.1-.6,0-.9-.2-.3-.3-.6-.2-1,.1-.3.3-.5.1-.7,0-.1-.4-.2-.4-.4,0-.1.2-.4-.4-.4,0,0,0,0,.1-.1.4-.2.3-.4,0-.5-.3,0-.3-.2-.3-.3,0-.3-.2-.6-.2-1,0-.3.2-.5.2-.8,0-.3-.3-.5,0-.8.3-.3.2-.5.2-.7,0-.1.2-.3-.4-.3,0,0,0,0,0,0,.7-.5-.4-.7-.3-1.1.1-.4,0-.8-.2-1.2,0-.1.1-.3-.3-.3-.2,0-.2-.1,0-.2.6-.4.1-.7.2-1,0-.4-.3-.7.2-1.1.2-.2.3-.4-.3-.5-.3,0,0-.3-.1-.4,0-.1-.3-.2-.4-.3,0,0,.2-.2.3-.3,0,0,0,0,0,0-.7-.4.1-1.1-.1-1.6-.2-.5-.2-1.1-.1-1.6,0-.3.2-.6,1.3-.9.5-.1,1.1-.1,1.4,0,.2,0,.5.2.5.3.1.2.3.3.4.4.2.3.8.6.5.9,0,.1.2.2-.3.3,0,0-.1,0,0,0,.8.4.4.9.5,1.3,0,.4.8.7.5,1.1.7.1.6.4.4.6-.6.8,0,1.5,0,2.3,0,.8.3,1.5.4,2.3,0,.1.4.2.1.4-.2.2,0,.3,0,.5,0,.2.2.3,0,.5-.5.7,0,1.3,0,1.9,0,.6.1,1.2.4,1.8.2.3.6.6.5,1,0,.2.3.3-.2.5-.2,0,.3.1.4.2,0,.2.1.5.2.8,0,.4,0,.7.2,1,0,.2.4.4.5.6.1.2.1.4.1.7,0,.3-.2.6-.2.9,0,.3.3.6.1.9-.4.6,0,1.1,0,1.6,0,.5,0,1.1.3,1.6.1.3-.3.6-.3.9,0,.1-1.4.6-1.9.6,0,0-.2,0-.2,0-.5-.2-1.3-.3-1.3-.6,0-.5-.2-1-.3-1.4Z" fill="#fff"/>
  <path d="M276.8,337c-.2-.5-.3-1.1-.6-1.6,0-.2,0-.5-.5-.5-.3,0,.2-.4.2-.6-.2-.5-.3-1-.6-1.5-.2-.5-.6-.9-.8-1.4-.2-.5-.1-1.1-.6-1.5-.4-.3,0-.9-.3-1.2-.3-.4-.5-.8-.4-1.3,0-.4.2-.7,0-1-.1-.2-.5-.2-.5-.5,0-.2.1-.5-.5-.5,0,0,0-.1,0-.2.3-.3.2-.6-.1-.7-.3,0-.3-.2-.4-.4-.2-.4-.3-.8-.4-1.3,0-.3,0-.7,0-1.1,0-.4-.4-.6-.2-1,.2-.4,0-.7,0-1,0-.2.2-.5-.5-.4,0,0,0,0,0-.1.6-.7-.5-.9-.5-1.4,0-.6-.3-1.1-.4-1.6,0-.1,0-.3-.4-.3-.2,0-.2-.1-.1-.2.5-.6,0-.9,0-1.3,0-.5-.4-.8-.1-1.4.1-.3.2-.5-.5-.6-.3,0,0-.3-.2-.5,0-.1-.4-.2-.4-.3,0-.1.2-.3.2-.4,0,0,0,0,0-.1-.8-.5-.2-1.4-.5-2-.4-.6-.5-1.3-.6-2,0-.4,0-.8,1-1.4.5-.3,1-.4,1.4-.3.3,0,.5.1.6.2.2.2.3.4.5.5.3.4.9.6.8,1.2,0,.2.3.2-.2.5,0,0,0,.1,0,.1.9.4.6,1.1.8,1.7.2.5.9.8.8,1.4.7,0,.7.5.6.8-.3,1.2.4,2.1.6,3.1.2,1,.6,2,.9,3,0,.2.4.2.2.5-.2.3,0,.5.2.7,0,.2.3.4.2.6-.4,1,.2,1.7.4,2.5.2.8.4,1.6.8,2.4.2.4.7.8.8,1.3,0,.2.4.3,0,.7-.1.1.4.2.4.3.2.3.2.7.3,1,.1.5.3.9.5,1.4.1.3.5.5.6.7.2.3.3.6.3.9,0,.4,0,.8,0,1.2,0,.4.5.7.3,1.2-.3.8.2,1.4.4,2.1.2.7.4,1.4.7,2,.2.4-.2.9,0,1.2,0,.2-1.2.9-1.8,1,0,0-.2,0-.2,0-.6-.2-1.4-.3-1.5-.7-.1-.6-.4-1.3-.6-1.9Z" fill="#fff"/>
  <path d="M292.2,313c-.3.2-.7.3-.9.6-.1,0-.4,0-.2.5,0,.3-.4-.2-.5-.1-.3.2-.6.4-.8.6-.2.2-.4.6-.6.8-.2.2-.7.2-.8.6,0,.4-.6.1-.7.4-.2.3-.3.5-.7.5-.3,0-.6,0-.6.1,0,.1,0,.5,0,.5-.1,0-.4,0,0,.5,0,0,0,0-.2,0-.4-.2-.5-.1-.4.2,0,.3,0,.3,0,.4-.2.2-.4.4-.7.5-.2,0-.5,0-.7.1-.2,0-.2.5-.6.4-.4,0-.5,0-.6.2,0,0-.4,0,0,.5,0,0,0,0,0,0-.8-.4-.3.6-.7.7-.4,0-.5.4-.8.7,0,0-.3,0,0,.4,0,.1,0,.2,0,.2-.6-.3-.5.2-.8.3-.3.1-.3.5-.9.4-.2,0-.4,0-.1.5.1.2-.1.2-.2.3,0,.1.1.3,0,.4,0,0-.3,0-.4,0,0,0,0,0,0,0,.2.8-.7.5-.9.9-.2.4-.5.7-.9,1-.2.2-.5.2-1.5-.4-.4-.3-.9-.6-1.1-.9-.1-.2-.2-.4-.2-.5,0-.2,0-.4,0-.5,0-.4-.2-.9.3-1,.1,0,0-.3.4,0,0,0,.1,0,.1,0-.3-.8.4-.8.6-1.2.2-.3,0-1,.4-1.1-.3-.6,0-.7.2-.7,1,0,1.2-.9,1.7-1.3.6-.4,1.1-1,1.6-1.5,0,0,0-.4.2-.3.3.1.3-.2.4-.3.1,0,.1-.3.3-.3.9.1,1-.5,1.5-.8.5-.3,1-.6,1.3-1.1.2-.3.3-.8.6-.9.1,0,0-.4.5,0,.1.1,0-.3,0-.4.2-.2.4-.3.6-.4.3-.2.6-.3.8-.6.1-.1.2-.5.3-.6.1-.2.3-.3.5-.4.3,0,.6,0,.9-.2.3-.1.4-.5.7-.4.7.2,1-.3,1.4-.5.4-.2.9-.4,1.2-.8.2-.2.7.1.9,0,.1,0,1,1.2,1.2,1.6,0,0,0,.2,0,.2,0,.5.2,1.3-.1,1.4-.4.1-.7.4-1.1.6Z" fill="#fff"/>
  <path d="M269.2,262s0,0,0,.1c0,0-.2-.1.2.2.2.2-.3-.2-.3-.2,0,0,0,0,0,.1,0,0,.1.3.1.4,0,0-.2,0,0,.2.2.2-.2-.1-.2,0,0,.1,0,.2-.1,0-.1-.1-.3-.3-.2-.2,0,0,.2.3.2.3,0,0-.2-.2.2.3,0,0,0,0-.1-.1-.3-.3-.3-.3-.1,0,.1.2.1.2.1.2,0,0,0,.1-.1,0,0,0-.2-.2-.3-.2,0,0,0,.2-.1,0-.2-.2-.2-.2-.2-.2,0,0-.2-.2.1.3,0,0,0,0,0,0-.5-.7,0,.3-.1.1-.1-.2-.1,0-.2,0,0,0-.1-.1,0,.3,0,.1,0,.2,0,0-.3-.5-.2-.2-.3-.3,0,0,0,.2-.3-.2,0-.2-.2-.3,0,.3,0,.3,0,0,0,0,0,0,0,.3,0,.3,0,0-.1-.2-.2-.3,0,0,0,0,0,0,.2.7-.2-.2-.2,0,0,.2-.1.1-.2,0,0,0-.1-.2-.4-1.3-.1-.5-.3-1-.3-1.4,0-.2-.1-.5-.1-.5,0,0,0-.2,0-.3,0-.2-.2-.7,0-.4,0,0,0-.2,0,.3,0,0,0,.1,0,0-.2-.8,0-.3,0-.3,0,0-.2-.6-.1-.4-.2-.6-.2-.5-.1-.3.3.6.1.2.2.3,0,0,0,0,0,0,0,0-.2-.3,0,0,.1.2,0,0,0,0,0,0,0-.1,0,0,.4.5.2.2.2.3,0,0,.1,0,0,0,0,0-.3-.4-.2-.3,0,0-.2-.2.2.2.1.1-.2-.2-.2-.2,0,0,0,0,0,0,0,0,0,0,0,0,0,0-.2-.2-.2-.3,0,0,0,0,0,0,0,0,.2.2.3.2,0,0-.2-.1,0,0,.4.3.2.1.3.2,0,0,0,0,0,0,0,0,.4.2.4.2,0,0,1.2.8,1.6,1.1,0,0,.2.1.2.1.4.3.9.7.9.7,0,0,0,0-.1.1Z" fill="#fff"/>
  <path d="M273.1,255.7s0,0,0,0c0,0,.2-.2-.2.2-.2.2.3-.2.3-.2,0,0,0,0,0,0,0,0-.2.2-.3.2,0,0,.2-.2,0,0-.2.2.1-.2,0,0,0,0-.1.2,0,0,.1-.1.2-.3.2-.2,0,0-.2.3-.2.3,0,0,.2-.2-.2.3,0,0,0,0,0-.1.2-.3.2-.3,0,0-.2.2-.1.2-.2.2,0,0,0,0,0,0,0,0,.1-.2.2-.3,0,0-.1.2,0,0,.2-.3.1-.3.1-.3,0,0,.1-.3-.2.3,0,0,0,0,0,0,.4-.7-.1.2,0,0,0-.2,0,0,0,0,0,0,0-.2-.1.3,0,.1,0,.2,0,0,.3-.6,0-.2.1-.3,0-.1,0,.2.1-.3,0-.2.1-.3-.1.2-.1.2,0,0,0,0,0,0-.1.3-.1.3,0,0,0-.2.1-.3,0,0,0,0,0,0-.2.6,0-.2,0,0,0,.2,0,0,0,0,0,0,0-.2.3-1.3.1-.5.3-1,.3-1.4,0-.2.1-.4.2-.5,0,0,0-.2.1-.3,0-.2.3-.7.2-.4,0,0,0-.2,0,.3,0,0,0,.1,0,0,.3-.7.2-.2.3-.3,0,0,.3-.6.3-.3.3-.6.3-.5.2-.3-.2.7.1.3.2.4,0,.1.2,0,.3.2,0,0,.2-.3,0,0-.1.2,0,0,0,0,0,0,.1,0,0,0-.3.6,0,.3,0,.4,0,.1,0,.2.2.1,0,0,.4-.3.3-.2,0,0,.2-.2-.1.3-.1.1.2-.2.2-.2,0,0,0,0,0,0,0,0,0,0,.1,0,0,0,.2-.2.3-.2,0,0,0,0,0,0,0,0-.1.3-.2.3,0,0,.2,0,0,.1-.3.4,0,.3-.1.4,0,0,0,.2.1.1,0,0-.3.3-.3.3,0,0-.3.2-.6.5-.4.2-.8.5-1,.7,0,0-.2.1-.2.1-.4.3-.9.6-.9.6,0,0,0,0,0,0Z" fill="#fff"/>
  <path d="M278.2,261s0,0,0,0c0,0-.2-.1.3.1.2.1-.3-.2-.3-.1,0,0,0,0,0,0,0,0,.2.1.3.2,0,0-.2,0,0,0,.2.1-.2,0-.1,0,.1,0,.2.1,0,0-.2,0-.4-.2-.3-.1,0,0,.3.2.3.2,0,0-.3-.1.3.2,0,0,0,0-.1,0-.4-.2-.3-.2,0,0,.2.1.2.1.2.1,0,0,0,0,0,0,0,0-.3-.1-.3-.1,0,0,.2.1,0,0-.3-.1-.3-.1-.3-.1,0,0-.3-.1.3.2,0,0,0,0,0,0-.7-.4.2.1,0,0-.2,0,0,0,0,0,0,0-.2,0,.2.1.1,0,.2,0,0,0-.6-.3-.2,0-.3-.1-.1,0,.1,0-.3-.1-.2,0-.3-.1.2.1.2.1,0,0,0,0,0,0,.3.2.3.2,0,0-.2-.1-.3-.1,0,0,0,0,0,0,.6.3-.2,0,0,0,.2,0,0,0,0,0,0,0-.2,0-1.2-.6-.5-.2-1-.5-1.2-.6-.2-.1-.4-.2-.5-.2,0,0-.2-.1-.3-.2-.2,0-.6-.3-.4-.2,0,0-.2-.1.3.1,0,0,0,0,0,0-.7-.4-.2-.1-.3-.2,0,0-.6-.3-.4-.2-.6-.3-.5-.2-.3-.2.6.3.2,0,.3,0,0,0,0,0,0,0,0,0-.3-.2,0,0,.2.1,0,0,0,0,0,0-.1,0,0,0,.6.3.2,0,.3.1,0,0,.1,0,0,0,0,0-.4-.2-.3-.2,0,0-.2-.1.3.1.2,0-.3-.1-.3-.1,0,0,0,0,0,0,0,0,0,0,0,0,0,0-.2-.1-.3-.2,0,0,0,0,0,0,0,0,.3.1.3.1,0,0-.2-.1,0,0,.5.2.2,0,.3.1s.1,0,0,0c0,0,.4.2.4.2,0,0,1.3.7,1.8.9,0,0,.2,0,.2.1.4.2,1.1.6,1,.5,0,0,0,0,0,0Z" fill="#fff"/>
  <path d="M283.8,251.3s-.1,0-.1.1c0,0-.2-.1.2.3.2.2-.3-.2-.3-.2,0,0,0,0-.1.1,0,0,0,.3,0,.4,0,0-.2-.1,0,.2.1.3-.2-.1-.2,0,0,.1,0,.2-.1,0-.1-.1-.3-.3-.2-.2,0,0,.2.4.1.3,0,0-.2-.2.1.3,0,0,0,0,0-.1-.2-.3-.2-.3-.1,0,.1.2,0,.2,0,.2,0,0,0,.1-.1,0,0,0-.2-.2-.3-.3,0,0,0,.2-.1,0-.2-.3-.2-.2-.2-.2,0,0-.1-.3,0,.3,0,0,0,0,0,0-.4-.8,0,.3-.1.1-.1-.2-.1,0-.2,0,0,0,0-.2,0,.3,0,.2,0,.2,0,0-.2-.6-.2-.2-.2-.3,0-.1,0,.2-.2-.3,0-.2-.1-.3,0,.3,0,.3,0,0,0,0,0,0,0,.3,0,.3,0,0,0-.2-.1-.3,0,0,0,0,0,0,0,.7-.2-.2-.2,0,0,.2-.1.1-.2,0,0,0-.1-.2-.2-1.4,0-.5,0-1.1,0-1.4,0-.2,0-.4,0-.5,0,0,0-.2,0-.3,0-.2,0-.7,0-.4,0,0,0-.2,0,.3,0,0,0,.1,0,0,0-.8,0-.3,0-.3,0,0-.1-.6,0-.4-.1-.6-.1-.5,0-.3.2.6,0,.2.1.3,0,0,0,0,0,0,0,0-.1-.3,0,0,.1.2,0,0,0,0,0,0,0-.1,0,0,.3.6.1.2.2.3,0,0,0,.1,0,0,0,0-.2-.4-.1-.3,0,0-.2-.2.2.3,0,.1-.2-.2-.2-.3,0,0,0,0,0,0,0,0,0,0,0,0,0,0-.2-.2-.2-.3,0,0,0,0,0,0,0,0,.2.2.2.3,0,0-.1-.2,0,0,.4.4.2.2.2.2,0,0,0,0,0,0,0,0,.3.3.3.3,0,0,1.1.9,1.5,1.2,0,0,.1.1.2.2.3.3.9.8.8.8-.1,0-.1,0-.2.1Z" fill="#fff"/>
  <path d="M338.4,289.9c.1-.8.3-1.6.4-2.4,0-.3.3-.6-.1-1-.2-.2.4-.4.5-.7,0-.8.3-1.5.4-2.2,0-.7,0-1.5,0-2.2,0-.7.5-1.4.3-2.2-.2-.6.4-1.1.4-1.7,0-.6,0-1.3.3-1.8.2-.4.5-.8.5-1.3,0-.3-.3-.6-.2-.9,0-.3.4-.5-.2-.9,0,0,0-.1.2-.2.4-.2.5-.6.2-.9-.2-.3-.2-.5-.2-.7,0-.6.1-1.2.3-1.8.1-.5.4-.9.5-1.3.1-.5,0-1,.3-1.4.4-.4.4-.8.4-1.3,0-.2.4-.5-.3-.8,0,0,0-.1,0-.2.9-.6,0-1.4.2-2.1.3-.7.2-1.5.3-2.3,0-.2.2-.4-.2-.6-.2,0-.1-.3,0-.4.7-.5.4-1.1.5-1.7.2-.6,0-1.3.5-1.9.2-.3.4-.6-.2-1-.3-.2,0-.5,0-.7,0-.2-.3-.4-.3-.6,0-.2.3-.3.4-.5,0,0,0-.1,0-.2-.6-1,.4-1.9.3-2.9,0-1,0-2,.2-2.9,0-.5.3-1.1,1.5-1.3.5-.1,1.1,0,1.4.2.2.2.4.4.5.6,0,.3.2.6.3.9.1.6.6,1.3.3,1.9-.1.2.2.5-.3.6,0,0-.1,0,0,.1.7.9.1,1.8,0,2.7,0,.7.5,1.5.2,2.3.6.5.4,1,.2,1.4-.8,1.4-.5,2.9-.8,4.4-.3,1.5-.3,3-.6,4.5,0,.3.3.5,0,.8-.3.2-.1.6-.2,1,0,.3,0,.6-.1.9-.8,1.1-.6,2.3-.8,3.5-.2,1.2-.5,2.3-.5,3.5,0,.7.2,1.5,0,2.2,0,.3.2.7-.4.9-.2,0,.2.4.2.6,0,.5-.1,1-.2,1.5-.1.7-.3,1.3-.3,2,0,.4.1.9.1,1.3,0,.4,0,.9-.2,1.3-.2.5-.5,1-.6,1.6-.2.6,0,1.2-.4,1.7-.7.9-.6,2-.9,3-.2,1-.5,2-.5,3,0,.6-.6,1-.7,1.5,0,.3-1.6.3-2,.1,0,0-.2-.1-.2-.1-.4-.6-1-1.3-.8-1.9.2-.9.4-1.8.5-2.7Z"/>
  <path d="M351.8,289.7c-.2-.5-.3-1-.5-1.5,0-.2.1-.5-.5-.5-.3,0,.3-.4.2-.6-.2-.5-.3-1-.5-1.4-.2-.4-.6-.8-.8-1.3-.2-.4,0-1-.5-1.4-.4-.3,0-.8-.3-1.1-.2-.4-.5-.7-.4-1.2,0-.3.2-.7,0-.9-.1-.2-.5-.2-.5-.4,0-.2.2-.5-.5-.4,0,0,0-.1,0-.2.3-.3.2-.5,0-.6-.3,0-.3-.2-.4-.4-.2-.4-.3-.8-.4-1.2,0-.3,0-.7,0-1,0-.3-.4-.6-.2-.9.2-.4,0-.6,0-.9,0-.2.2-.4-.5-.4,0,0,0,0,0,0,.6-.7-.5-.8-.5-1.3,0-.5-.3-1-.4-1.4,0-.1,0-.3-.4-.3-.2,0-.2-.1-.1-.2.5-.6,0-.8,0-1.2,0-.5-.4-.8-.1-1.3.1-.2.2-.5-.5-.5-.3,0,0-.3-.2-.4,0-.1-.4-.1-.4-.3,0-.1.1-.3.2-.4,0,0,0,0,0-.1-.8-.4-.2-1.3-.6-1.8-.4-.6-.5-1.2-.6-1.7,0-.3,0-.6.9-1.3.4-.3.9-.6,1.3-.6.3,0,.5,0,.7.1.2.2.4.3.6.5.3.4,1,.6.8,1.1,0,.2.3.2-.2.5,0,0,0,.1,0,.1.9.3.6,1,.9,1.6.2.5.9.7.8,1.3.7,0,.7.4.6.7-.3,1.1.4,1.9.6,2.9.2,1,.6,1.9.9,2.8,0,.2.4.2.2.5-.2.3,0,.4.1.6,0,.2.3.3.2.6-.4.9.2,1.6.4,2.3.2.8.4,1.5.8,2.2.2.4.7.8.7,1.2,0,.2.4.3-.1.7-.1.1.3.1.4.3.1.3.2.6.3.9.1.4.2.9.4,1.3.1.2.4.4.6.7.1.3.2.5.3.8,0,.4,0,.8,0,1.1,0,.4.4.7.3,1.1-.3.8.2,1.4.3,2,.2.7.3,1.3.6,1.9.2.3-.2.8,0,1.2,0,.2-1.3.8-1.8.9,0,0-.2,0-.2,0-.6-.2-1.3-.3-1.4-.7-.1-.6-.4-1.2-.6-1.8Z"/>
  <path d="M264.4,131.5c-.2,0-.4-.1-.6-.1,0,0,0-.3-.3.2-.1.2,0-.4,0-.4-.2,0-.4-.1-.6-.1-.2,0-.5.2-.7.2-.2,0-.3-.3-.6-.1-.2.2-.2-.3-.4-.3-.2,0-.4,0-.5-.2,0-.2,0-.5-.2-.4,0,0-.3.3-.3.3,0,0,0-.3-.3.2,0,0,0,0,0-.2,0-.4,0-.4-.2-.2-.2.2-.2.2-.3.2-.2,0-.3,0-.5-.2,0,0-.1-.4-.2-.5,0-.1-.3,0-.3-.2,0-.3,0-.4-.2-.4,0,0,0-.3-.3.2,0,0,0,0,0,0,.2-.8-.5,0-.5-.2,0-.3-.3-.2-.5-.3,0,0,0-.2-.3.2,0,.1-.2.1-.1,0,.2-.6-.1-.4-.2-.5,0-.2-.4,0-.3-.5,0-.2,0-.4-.4,0-.2.2-.1,0-.2,0,0,0-.3.2-.3.2,0,0,0-.2,0-.4,0,0,0,0,0,0-.6.4-.3-.5-.6-.5-.3,0-.5-.2-.7-.4,0-.1,0-.4.5-1.3.3-.4.6-.9.8-1.1.2-.2.3-.3.4-.3.1,0,.3-.1.4-.1.2,0,.7-.4.6-.1,0,0,.2-.1,0,.3,0,0,0,.1,0,0,.6-.5.5,0,.7,0,.2,0,.7-.4.7,0,.4-.5.4-.3.4-.1,0,.8.5.5.7.8.3.2.6.3.9.5,0,0,.3-.3.2,0,0,.3.1.1.2.1,0,0,.2,0,.2.1,0,.7.4.5.6.6.2.2.4.3.8.3.2,0,.5-.3.6-.1,0,0,.2-.2,0,.4,0,.2.2-.2.2-.2.1,0,.2,0,.3.1.1,0,.3.1.4.1.1,0,.3-.2.4-.2.1,0,.2,0,.3,0,0,.1.2.3.3.4.1.1.3-.1.4.2,0,.6.4.4.6.5.2.1.4.2.7.1.1,0,.2.5.3.5,0,0-.2,1.5-.3,2,0,0,0,.2,0,.2-.2.4-.5,1.1-.7,1-.2-.1-.5-.1-.7-.2Z" fill="#00b4e9"/>
  <path d="M274.8,115.6c-.2-.2-.3-.3-.5-.5,0,0,0-.3-.4,0-.2.2.2-.4,0-.4-.2,0-.3-.3-.5-.4-.2-.1-.5,0-.7-.2-.2-.1-.1-.5-.5-.4-.3,0,0-.4-.3-.4-.2,0-.4-.1-.3-.4,0-.2.1-.4,0-.5-.1,0-.4.2-.4,0,0,0,0-.3-.4,0,0,0,0,0,0-.1.2-.3.2-.4,0-.3-.2.1-.3,0-.3,0-.1-.1-.3-.2-.4-.4,0-.1,0-.4,0-.5,0-.1-.4,0-.2-.4.1-.3,0-.4,0-.5,0,0,.1-.3-.4,0,0,0,0,0,0,0,.5-.7-.5-.1-.4-.4,0-.3-.2-.4-.4-.5,0,0,0-.2-.3,0-.1,0-.2,0-.1,0,.4-.5,0-.4,0-.6,0-.2-.4-.2-.1-.6.1-.2.1-.3-.4,0-.2.1,0-.1-.2-.1,0,0-.3.1-.4,0,0,0,.1-.2.2-.3,0,0,0,0,0,0-.7.2-.2-.6-.5-.7-.3-.1-.4-.4-.5-.6,0-.2,0-.4.8-1.2.4-.4.8-.7,1.1-.8.2-.1.4-.2.5-.2.1,0,.3,0,.4,0,.3,0,.8-.2.7.1,0,0,.2,0-.1.3,0,0,0,0,0,0,.8-.3.5.2.7.3.2.1.8-.1.7.2.6-.3.6-.1.5,0-.3.7.3.7.5,1.1.2.4.5.6.8.9,0,0,.3-.1.2.1-.1.2,0,.2.1.2,0,0,.2,0,.1.2-.3.7.2.6.4.9.2.3.3.6.7.7.2,0,.6,0,.6.2,0,0,.3,0,0,.4-.1.1.3-.1.3-.1.1,0,.2.2.3.3.1.1.2.3.4.4.1,0,.4,0,.5,0,.1,0,.2.1.2.2,0,.2,0,.4,0,.6,0,.2.4,0,.3.4-.2.6.2.6.4.8.2.2.3.5.6.5.2,0,0,.5,0,.6,0,0-.9,1.2-1.3,1.5,0,0-.1.1-.2.2-.4.2-1,.7-1.1.5-.1-.2-.4-.4-.6-.6Z" fill="#00b4e9"/>
  <path d="M290.6,105.3c0-.2,0-.4-.2-.6,0,0,.2-.2-.3-.2-.3,0,.3-.2.3-.3-.1-.2,0-.4-.2-.6-.1-.2-.4-.3-.5-.5-.1-.2.1-.4-.2-.5-.3,0,.1-.3,0-.5-.2-.1-.3-.3,0-.5.1-.2.3-.3.2-.4,0,0-.4,0-.4-.1,0,0,.2-.2-.4-.1,0,0,0,0,.1,0,.4-.2.3-.3,0-.3-.3,0-.3,0-.3,0,0-.1-.1-.3-.1-.5,0-.1.2-.3.2-.4,0-.1-.3-.2,0-.4.3-.2.2-.3.2-.4,0,0,.2-.2-.4,0,0,0,0,0,0,0,.7-.4-.4-.3-.2-.5.1-.3,0-.4-.2-.6,0,0,.1-.2-.3,0-.2,0-.2,0,0,0,.5-.3.1-.4.2-.5,0-.2-.3-.3.1-.6.2-.1.2-.3-.3-.2-.3,0,0-.1-.1-.2,0,0-.3,0-.4,0,0,0,.2-.2.3-.2,0,0,0,0,0,0-.7,0,0-.5-.2-.7-.3-.2-.3-.4-.3-.7,0-.1.1-.4,1.1-.9.5-.2,1-.4,1.3-.5.2,0,.5,0,.5,0,.1,0,.3,0,.4.1.2,0,.8,0,.6.3,0,0,.2,0-.2.3,0,0,0,0,0,0,.8,0,.4.3.6.6.1.2.8.1.6.4.6-.1.6,0,.4.2-.5.6,0,.8.1,1.3,0,.4.3.8.4,1.2,0,0,.4,0,.1.2-.2.2,0,.2,0,.3,0,0,.2.1,0,.2-.5.5,0,.7,0,1,0,.3,0,.7.3.9.1.2.5.3.5.5,0,0,.3,0-.2.3-.2,0,.3,0,.3,0,0,.1,0,.3.1.4,0,.2,0,.4.2.5,0,.1.3.1.4.2,0,.1.1.2,0,.3,0,.2-.2.4-.2.5,0,.2.3.3,0,.5-.4.4-.1.6-.1.9,0,.3,0,.6.2.8.1.1-.4.4-.3.5,0,0-1.4.5-1.9.5,0,0-.2,0-.2,0-.5,0-1.2,0-1.2-.2,0-.3,0-.5-.1-.7Z" fill="#00b4e9"/>
  <path d="M309.5,103.7c0-.2.1-.4.1-.6,0,0,.3,0-.2-.3-.2-.1.4,0,.4,0,0-.2.1-.3,0-.5,0-.2-.2-.4-.2-.6,0-.2.3-.3,0-.5-.2-.2.3-.2.2-.4,0-.2-.1-.3.1-.4.2,0,.4-.1.4-.2,0,0-.3-.2-.3-.3,0,0,.3,0-.3-.3,0,0,0,0,.2,0,.4,0,.4,0,.2-.2-.2-.1-.2-.2-.2-.2,0-.2,0-.3.1-.4,0,0,.3-.1.4-.2,0,0-.2-.3.2-.3.3,0,.3-.1.4-.2,0,0,.3,0-.3-.3,0,0,0,0,0,0,.8,0-.2-.4,0-.5.2-.1.1-.3.2-.5,0,0,.2,0-.2-.2-.2,0-.2-.1,0-.1.6,0,.3-.2.4-.3.2-.1,0-.3.4-.4.2,0,.3,0-.2-.3-.3,0,0-.1,0-.2,0,0-.3-.2-.3-.2,0,0,.2,0,.4,0,0,0,0,0,0,0-.6-.4.3-.4.2-.6-.1-.3,0-.5.2-.7,0-.1.3-.2,1.4,0,.5,0,1.1.2,1.4.3.2,0,.4.2.5.2,0,0,.2.2.3.3.2.2.6.5.3.5,0,0,.2.1-.3,0,0,0-.1,0,0,0,.7.4.2.5.2.7,0,.2.6.5.3.6.6.2.5.3.2.4-.7.2-.4.6-.6,1-.2.3-.2.7-.3,1,0,0,.3.2,0,.2-.3,0,0,.1-.1.2,0,0,0,.2,0,.2-.7.1-.4.5-.5.7-.1.3-.3.5-.2.8,0,.2.3.4.2.6,0,0,.2.2-.4.1-.2,0,.3.2.3.2,0,.1,0,.2,0,.3,0,.2-.1.3-.1.5,0,.1.2.3.3.4,0,.1,0,.2,0,.3-.1.1-.3.2-.4.3,0,.1.1.3-.2.4-.6,0-.4.4-.5.6-.1.2-.2.4-.2.7,0,.2-.5.1-.5.3,0,0-1.5-.3-1.9-.4,0,0-.2,0-.2,0-.4-.3-1.1-.6-1-.7.1-.2.1-.4.2-.6Z" fill="#00b4e9"/>
  <path d="M335.1,110.3c-.2.1-.3.2-.5.4,0,0-.3-.1,0,.4.1.2-.3-.2-.3-.2-.1.2-.3.2-.4.4-.1.2-.1.4-.2.6-.1.2-.4,0-.4.4,0,.3-.4,0-.4.2,0,.2-.1.3-.4.2-.2,0-.4-.2-.4,0,0,0,.1.4,0,.4,0,0-.3-.2,0,.4,0,0,0,0-.1,0-.3-.3-.3-.2-.2,0,0,.3,0,.3,0,.3-.1.1-.2.2-.4.2-.1,0-.3-.1-.5-.1-.1,0,0,.3-.3.1-.3-.2-.3-.1-.4,0,0,0-.3-.2,0,.4,0,0,0,0,0,0-.6-.6-.2.4-.4.3-.3,0-.4.1-.5.2,0,0-.2-.1,0,.3,0,.1,0,.2,0,.1-.4-.5-.4,0-.5,0-.2,0-.2.3-.6,0-.2-.1-.3-.2,0,.4,0,.3-.1,0-.1.1,0,0,0,.3,0,.4,0,0-.2-.2-.3-.2,0,0,0,0,0,0,.1.7-.5,0-.6.3-.1.3-.4.3-.6.3-.1,0-.3,0-.9-1.1-.3-.4-.5-.9-.6-1.3,0-.2-.1-.5-.1-.5,0-.1,0-.3,0-.4,0-.2,0-.8.2-.6,0,0,0-.2.3.2,0,0,0,0,0,0-.2-.8.2-.4.4-.6.1-.1,0-.8.3-.6-.2-.6,0-.6.1-.4.6.4.7-.1,1-.2.3,0,.6-.3.9-.5,0,0,0-.4.1-.2.2.2.2,0,.2,0,0,0,0-.2.2,0,.6.4.6,0,.9-.1.3,0,.5-.2.7-.5,0-.2,0-.6.2-.5,0,0,0-.3.3.1.1.1,0-.3,0-.3,0-.1.2-.1.3-.2.1,0,.3-.1.4-.3,0,0,0-.3,0-.4,0-.1.1-.2.2-.2.1,0,.4,0,.5,0,.1,0,0-.3.4-.2.5.3.5,0,.7-.2.2,0,.4-.2.5-.4,0-.1.5.2.6.1,0,0,1,1.1,1.3,1.5,0,0,.1.2.1.2.2.4.5,1.1.4,1.2-.2,0-.4.3-.6.4Z" fill="#00b4e9"/>
  <path d="M341.9,131.9c-.1,0-.3,0-.4.1,0,0-.2-.2,0,.3,0,.3-.2-.3-.2-.3-.1,0-.3,0-.4.1-.1,0-.2.3-.3.4-.1,0-.3-.2-.4.2,0,.3-.3-.2-.3,0,0,.2-.2.3-.3,0-.1-.1-.3-.3-.3-.2,0,0,0,.4,0,.4,0,0-.2-.3,0,.4,0,0,0,0,0-.1-.2-.4-.2-.3-.2,0,0,.3,0,.3,0,.3,0,0-.2.1-.3,0,0,0-.2-.2-.3-.3-.1,0-.1.3-.3,0-.2-.3-.2-.2-.3-.2,0,0-.2-.2,0,.4,0,0,0,0,0,0-.4-.7-.2.3-.3.2-.2-.2-.3,0-.4,0,0,0-.1-.1,0,.3,0,.2,0,.2,0,0-.3-.6-.3-.2-.4-.2-.2,0-.2.2-.4-.2-.1-.2-.2-.3,0,.3,0,.3,0,0,0,.1,0,0,0,.3,0,.3,0,0-.1-.2-.2-.3,0,0,0,0,0,0,0,.7-.4,0-.5.2,0,.2-.3.2-.5.2-.1,0-.3-.1-.8-1.2-.2-.5-.5-1-.6-1.3,0-.2-.1-.5-.1-.5,0-.1,0-.3,0-.4,0-.2,0-.8.2-.6,0,0,0-.2.2.2,0,0,0,0,0,0-.2-.8.2-.4.3-.5.1-.1,0-.7.3-.5-.2-.6,0-.5.1-.4.5.5.6,0,.9,0,.3,0,.6-.2.8-.3,0,0,0-.4.1-.1.1.2.1,0,.2,0,0,0,0-.2.2,0,.4.6.5.1.8.1.2,0,.5,0,.6-.2.1-.1.1-.5.3-.4,0,0,0-.3.3.2,0,.2,0-.3,0-.3,0,0,.2,0,.3,0,.1,0,.3,0,.4-.1,0,0,0-.3.2-.4,0,0,.2-.1.3,0,.1,0,.3.2.4.3.1,0,.2-.3.3,0,.3.5.4.2.6.2.2,0,.4,0,.6-.1,0,0,.3.4.4.4,0,0,.4,1.4.5,1.9,0,0,0,.2,0,.2,0,.5,0,1.2,0,1.2-.2,0-.3,0-.5,0Z" fill="#00b4e9"/>
  <path d="M261.6,424.3c-.4-1.5-.7-3-1.1-4.5-.2-.6,0-1.2-.7-1.6-.3-.2.2-.9,0-1.4-.4-1.4-.6-2.8-1-4.2-.4-1.3-.9-2.6-1.2-4-.4-1.3-.4-2.8-1-4-.5-1.1-.2-2.2-.6-3.2-.4-1.1-.7-2.3-.7-3.5,0-.9,0-1.7-.2-2.5-.2-.5-.6-.9-.7-1.5,0-.5,0-1.2-.6-1.5,0,0,0-.3,0-.4.3-.6.1-1.3-.2-1.7-.4-.4-.4-.8-.5-1.2-.3-1.1-.5-2.3-.7-3.5-.1-.9,0-1.8-.2-2.7-.1-.9-.6-1.8-.4-2.7.1-.9,0-1.7-.2-2.5,0-.5,0-1.1-.6-1.3,0,0,0-.2,0-.3.6-1.5-.7-2.6-.8-4,0-1.4-.4-2.8-.7-4.2,0-.4,0-.8-.5-1.1-.2,0-.3-.5-.2-.7.4-1.1-.1-2.2-.2-3.3,0-1.2-.6-2.4-.3-3.7.1-.6.1-1.3-.6-1.8-.3-.2-.1-.9-.3-1.3-.1-.4-.4-.7-.5-1,0-.3.1-.7.2-1,0,0,0-.2,0-.3-.9-1.7-.3-3.6-.7-5.4-.4-1.8-.6-3.7-.7-5.5,0-1,0-2.1,1.1-2.9.5-.4,1-.4,1.4,0,.3.3.5.6.6,1,.2.6.4,1.1.5,1.7.3,1.1,1,2.2.9,3.4,0,.4.3.8-.1,1.2,0,0,0,.2,0,.3,1,1.5.7,3.2,1,4.8.3,1.4,1.1,2.6,1,4,.7.7.8,1.6.7,2.4-.2,2.8.7,5.5,1,8.2.4,2.8,1,5.5,1.4,8.3,0,.5.5.8.3,1.4-.2.6.2,1.2.3,1.8.1.6.3,1.1.3,1.7-.2,2.3.6,4.4.9,6.5.4,2.2.7,4.3,1.3,6.4.4,1.3,1,2.5,1.1,3.9,0,.6.5,1.1,0,1.8-.1.2.4.6.5,1,.2.9.4,1.8.6,2.7.3,1.2.5,2.5.8,3.7.2.8.6,1.4.8,2.2.2.8.4,1.6.5,2.4.2,1,.2,2.1.3,3.1.2,1.1.7,2.1.6,3.1,0,2,.6,3.8,1,5.6.4,1.8.8,3.7,1.3,5.5.3,1,0,2.1.3,3.1.1.5-1.2,1.5-1.7,1.4-.1,0-.2,0-.3-.1-.7-.9-1.6-1.6-1.9-2.8-.3-1.7-.8-3.4-1.2-5.1Z"/>
  <path d="M263.7,499.8c0-1.3-.2-2.6-.3-3.9,0-.5.2-1-.4-1.4-.3-.2.3-.7.3-1.2-.2-1.2-.1-2.4-.3-3.6-.1-1.2-.4-2.3-.5-3.5-.1-1.2.1-2.4-.3-3.5-.3-1,.1-1.8,0-2.8-.2-1-.3-2,0-3,.1-.7.3-1.4.2-2.1,0-.4-.4-.8-.4-1.3,0-.4.3-.9-.4-1.3,0,0,0-.2.1-.3.4-.5.4-1.1,0-1.5-.3-.4-.3-.7-.3-1.1,0-1-.1-2,0-3,0-.7.3-1.5.3-2.2,0-.8-.3-1.6,0-2.3.3-.7.3-1.4.3-2.1,0-.4.3-.9-.4-1.2,0,0,0-.2,0-.2.8-1.1-.3-2.3,0-3.4.2-1.2,0-2.4,0-3.6,0-.3.2-.7-.3-1-.2-.1-.2-.4,0-.6.6-.9.3-1.8.4-2.7.1-1-.1-2.1.4-3.1.2-.4.3-1-.2-1.6-.3-.3,0-.8,0-1.1,0-.3-.3-.6-.3-.9,0-.3.2-.5.4-.8,0,0,0-.2,0-.3-.6-1.5.3-3,.2-4.6-.1-1.5,0-3.1.2-4.6,0-.8.3-1.7,1.5-2.2.5-.2,1.1-.2,1.4.2.2.3.4.6.5.9,0,.5.2,1,.3,1.5.2,1,.6,2,.3,3,0,.3.2.7-.3.9,0,0-.1.2,0,.2.7,1.4.2,2.8.2,4.1,0,1.2.6,2.3.3,3.5.6.7.5,1.4.3,2.1-.7,2.3-.3,4.6-.4,6.9-.1,2.3,0,4.7,0,7,0,.4.4.7,0,1.2-.3.4,0,1,0,1.5,0,.5.1,1,0,1.4-.6,1.8-.2,3.7-.2,5.5,0,1.8,0,3.7.2,5.5.1,1.1.5,2.2.4,3.3,0,.5.3,1-.2,1.5-.2.1.3.6.3.9,0,.8,0,1.5.1,2.3,0,1.1,0,2.1.2,3.2,0,.6.3,1.3.4,1.9,0,.7.1,1.4.1,2,0,.9-.2,1.7-.2,2.6,0,.9.3,1.8.1,2.7-.4,1.6,0,3.2,0,4.8,0,1.6.1,3.2.4,4.7.1.9-.3,1.7-.2,2.6,0,.4-1.4,1.1-1.9,1,0,0-.2,0-.2-.1-.5-.8-1.3-1.5-1.4-2.5,0-1.5-.2-2.9-.3-4.4Z"/>
  <path d="M289.1,507c-.4,0-.9,0-1.3.2-.2,0-.3-.2-.5.3,0,.3-.3-.3-.4-.3-.4.1-.8,0-1.2.2-.4,0-.7.4-1.1.4-.4,0-.8-.2-1.1.2-.3.3-.6-.2-.9,0-.3.2-.6.3-1,0-.2-.2-.5-.4-.7-.2-.1,0-.3.4-.4.4-.1,0-.3-.3-.4.4,0,0,0,0-.1-.1-.2-.4-.4-.4-.5,0-.1.3-.2.3-.3.3-.3,0-.7.1-1,0-.2,0-.5-.3-.8-.3-.3,0-.5.3-.8,0-.3-.3-.5-.3-.7-.3-.1,0-.3-.3-.4.4,0,0,0,0,0,0-.4-.8-.7.3-1.1.1-.4-.2-.8,0-1.2,0-.1,0-.2-.2-.3.3,0,.2-.1.2-.2,0-.3-.6-.6-.2-.9-.3-.3-.1-.7.2-1-.3-.2-.2-.4-.3-.5.3,0,.3-.3,0-.4,0-.1,0-.2.3-.3.3,0,0-.2-.2-.3-.3,0,0,0,0,0,0-.5.7-1-.2-1.5,0-.5.2-1,.1-1.5,0-.3,0-.6-.2-.8-1.4,0-.5,0-1.1,0-1.4,0-.2.2-.5.3-.5.2,0,.3-.2.5-.3.3-.2.6-.7,1-.4.1,0,.2-.2.3.3,0,0,0,.1,0,0,.4-.8.9-.3,1.4-.3.4,0,.7-.7,1.1-.4.2-.6.5-.5.7-.3.8.7,1.5.2,2.3.2.8,0,1.5,0,2.3,0,.1,0,.2-.4.4,0,.2.3.3,0,.5,0,.2,0,.3-.2.5,0,.6.6,1.2.2,1.8.2.6,0,1.2,0,1.8-.1.4-.1.7-.5,1.1-.4.2,0,.3-.3.5.3,0,.2.2-.3.3-.3.2,0,.5,0,.8,0,.3,0,.7,0,1-.1.2,0,.4-.3.6-.4.2,0,.4-.1.7,0,.3,0,.6.2.9.3.3,0,.6-.3.9,0,.6.5,1.1.1,1.6.1.5,0,1,0,1.5-.2.3-.1.6.4.9.3.1,0,.5,1.4.5,1.9,0,0,0,.2,0,.2-.2.5-.4,1.2-.7,1.2-.5,0-1,0-1.4.1Z"/>
  <path d="M296.6,494c-.1.2-.3.4-.3.6,0,0-.3,0,.1.4.2.2-.4,0-.4,0,0,.2-.2.4-.3.6,0,.2,0,.5,0,.7,0,.2-.4.3-.2.6.2.3-.4.2-.3.4,0,.2,0,.4-.3.4-.2,0-.5,0-.4.2,0,.1.3.3.2.4,0,0-.3,0,.2.4,0,0,0,0-.2,0-.4-.1-.4,0-.2.2.2.2.1.2.1.3,0,.2-.1.3-.3.5-.1,0-.4,0-.5.2-.1,0,0,.4-.3.3-.3,0-.4,0-.4.2,0,0-.3,0,.2.4,0,0,0,0,0,0-.8-.2,0,.5-.2.6-.3,0-.3.4-.3.6,0,0-.2,0,.2.3.1,0,.1.2,0,.1-.6-.2-.4.2-.5.3-.2.1,0,.4-.5.4-.2,0-.4,0,.1.4.2.2,0,.1,0,.2,0,0,.2.2.2.3,0,0-.2,0-.4,0,0,0,0,0,0,0,.5.5-.4.4-.4.7,0,.3-.2.5-.4.8-.1.1-.4.2-1.4-.2-.5-.2-1-.4-1.2-.6-.2-.2-.4-.3-.4-.4,0-.1-.1-.3-.2-.4,0-.2-.5-.7-.1-.7.1,0-.1-.2.3,0,0,0,.1,0,0,0-.6-.6,0-.6,0-.8,0-.2-.4-.7,0-.8-.5-.4-.3-.5-.1-.5.8,0,.6-.7.9-1,.3-.3.4-.8.7-1.1,0,0-.2-.3,0-.2.3,0,.1-.1.2-.2,0,0,0-.2.1-.2.7,0,.6-.5.8-.7.2-.3.4-.5.5-.9,0-.2-.2-.6,0-.7,0,0-.2-.3.4,0,.2,0-.2-.2-.2-.3,0-.1.1-.3.2-.4,0-.2.2-.3.3-.5,0-.1-.1-.4-.1-.5,0-.1,0-.3.2-.3.1-.1.4-.1.5-.2.1-.1,0-.4.3-.4.6,0,.5-.4.7-.6.2-.2.4-.5.4-.8,0-.2.5,0,.6-.2,0,0,1.4.6,1.8.9,0,0,.2.1.2.1.3.4.9.9.7,1-.2.2-.3.4-.4.7Z"/>
  <path d="M332,474.5c1.9.4,3.7.9,5.6,1.2.7.1,1.4.5,2.2.1.4-.2,1,.6,1.6.6,1.8.2,3.4.6,5.2.7,1.1.1,2,.3,2.9.4.9.2,1.8.4,2.7.7,1.8.6,3.4,1.6,5.1,2.2,1.5.5,2.5,1.8,3.8,2.9.7.6,1.4,1.4,1.9,2.5.5,1.1.6,2.6,0,3.7-.8,1.7-2,2.4-2.8,3.2-.6.6-1.1,1.2-2,1.6-.8.3-1.6.3-2.1,1.1,0,0-.4,0-.6,0-.8-.2-1.6,0-2.2.4-.5.4-1,.5-1.5.6-1.4.4-2.9.7-4.3,1-1.1.2-2.2.2-3.3.4-1.1.2-2.3.7-3.4.7-1.1,0-2.1.2-3.1.4-.6.1-1.3,0-1.7.7,0,0-.3.1-.4,0-1.8-.5-3.2.9-5,1.1-1.8.1-3.5.7-5.3,1-.5,0-1,0-1.4.6-.1.2-.6.3-.9.2-1.4-.4-2.7.3-4.1.4-1.5.2-3,.7-4.6.6-.7,0-1.6,0-2.3.7-.3.3-1.1.2-1.7.4-.5.1-.8.5-1.3.6-.4,0-.8,0-1.2-.1-.1,0-.3,0-.4,0-.7.3-1.4.5-2.1.6h-.6c-.3.1-.7.1-1,.1-.7,0-1.4-.2-2-.5-.6-.3-1.2-.8-1.6-1.4l-.3-.4-.2-.3c-.1-.2-.2-.3-.4-.5-1.4-1.8-2.7-3.7-3.9-5.7-.7-1.1-1.3-2.3-.8-3.6.2-.6.7-.9,1.2-.7.4.2.9.4,1.2.8.5.5,1,1.1,1.5,1.6,1,1.1,2.3,2,2.9,3.4.2.4.8.7.6,1.3,0,0,0,.3.1.3.4.3.8.7,1.1,1,.1,0,.2.2.4.2.1,0,.3,0,.5,0,.5,0,1.1-.1,1.6-.2,1.7-.4,3.3-1.3,5.1-1.3.8-.8,2-.9,3-.9,3.5,0,6.9-1.1,10.3-1.7,3.5-.6,6.9-1.4,10.3-2.1.6-.1,1-.6,1.8-.4.7.1,1.5-.3,2.2-.4.7-.1,1.4-.4,2.1-.4,2.8,0,5.4-.9,8.1-1.5,1.3-.3,2.7-.6,4-.9,1.4-.3,2.7-.6,3.7-1.1.6-.3,1.1-.7,1.5-1.2.5-.5.8-.9.9-1.2,0,0,0-.1,0-.2,0,0,0,0,0-.1,0,0,0,0,0-.1,0,0,.1-.1.2-.3,0,0,0-.2-.2-.2-.2,0-.3-.1-.4-.3-.5-.5-1.2-1.2-2-1.8-1.2-.8-2.5-1.5-3.9-2-.9-.3-1.8-.4-2.7-.7-.9-.2-1.8-.5-2.7-.8l-.8-.2h-.3c0-.1-.3-.2-.5-.2l-2-.4c-1.4-.2-2.8-.2-4.1-.7-2.3-.9-4.7-1.2-7-1.8-2.3-.6-4.6-1.1-6.9-1.5-1.3-.2-2.4-.9-3.7-1.1-.6,0-1.2-1.7-.8-2.1,0,0,.2-.2.3-.2,1.3-.3,2.7-.8,4.1-.4,2.1.5,4.3.9,6.4,1.4Z"/>
  <path d="M319.2,463.5c0-1.9,0-3.8-.1-5.7,0-.7.2-1.4-.4-2.2-.3-.4.3-1.1.3-1.7-.1-1.8,0-3.6-.3-5.3-.1-1.7-.5-3.4-.6-5.1-.2-1.7,0-3.5-.4-5.1-.4-1.4,0-2.7-.2-4.1-.2-1.4-.5-2.9-.4-4.4,0-1,.2-2.1,0-3.1-.1-.6-.5-1.2-.6-1.9,0-.6.1-1.4-.5-1.9,0,0,0-.3,0-.5.3-.7.2-1.6-.1-2.1-.3-.5-.4-1-.4-1.6-.2-1.4-.4-2.9-.5-4.3,0-1.1,0-2.2-.1-3.3,0-1.1-.5-2.3-.4-3.4.1-1.1,0-2.1-.2-3.1,0-.6,0-1.3-.6-1.7,0,0,0-.3,0-.4.5-1.8-.8-3.2-.9-4.9,0-1.8-.6-3.5-.9-5.2,0-.5,0-1-.5-1.3-.2-.1-.3-.6-.2-.9.4-1.4-.3-2.7-.4-4-.2-1.5-.8-3-.6-4.6,0-.7,0-1.6-.7-2.3-.3-.3-.2-1.1-.4-1.7-.1-.5-.5-.9-.6-1.3,0-.4,0-.8.1-1.2,0-.1,0-.3,0-.4-1-2.1-.6-4.4-1.2-6.5-.7-2.1-1.2-4.2-1.9-6.2-.4-1.1-.7-2.2-.1-3.5.3-.6.7-.9,1.3-.5.4.2.8.5,1.1.9.4.6.8,1.3,1.2,1.9.7,1.3,1.7,2.6,1.9,4.2,0,.5.5,1,0,1.5,0,0,0,.3,0,.4,1.3,1.8,1.1,4.1,1.6,6.1.4,1.7,1.3,3.3,1.3,5,.8.8.9,1.9.9,2.9,0,3.5,1.2,6.9,1.8,10.3.6,3.5,1.3,6.9,1.8,10.4,0,.6.5,1,.4,1.8-.2.7.2,1.5.3,2.3.1.7.4,1.4.3,2.1-.3,2.8.5,5.5.8,8.3.3,2.7.5,5.5,1,8.2.3,1.7.8,3.3.8,5,0,.7.4,1.4-.1,2.2-.1.2.4.8.4,1.3.2,1.1.2,2.3.3,3.5.1,1.6.2,3.2.4,4.8.1,1,.4,1.9.5,2.9.1,1,.2,2.1.2,3.1,0,1.3-.2,2.6-.2,3.9,0,1.3.3,2.7,0,4-.4,2.4-.1,4.8-.2,7.2,0,2.4,0,4.7,0,7.1,0,1.3-.5,2.6-.5,3.9,0,.6-1.5,1.4-2,1.1,0,0-.2-.2-.2-.3-.4-1.3-1.1-2.5-1.1-3.9,0-2.2,0-4.3,0-6.5Z"/>
  <path d="M325.2,427.2c1.5-1,3-2.1,4.4-3.2.5-.4,1.2-.6,1.4-1.5.1-.4,1-.3,1.5-.7,1.2-1.1,2.6-2.2,3.7-3.4,1.1-1.2,2.1-2.5,3.1-3.7.5-.6,1-1.2,1.6-1.8.5-.6,1-1.3,1.3-2,.5-1.2,1.6-1.9,2-3.1.6-1.2,1-2.5,1.8-3.5.5-.8,1.1-1.6,1.3-2.5.1-.6,0-1.2.2-1.8.2-.6.6-1.2.1-1.8,0,0,.1-.3.2-.4.5-.5.7-1.3.5-1.9-.2-.6,0-1,0-1.5.1-1.3.3-2.7.4-4,.1-1,.4-2,.5-3,0-1.1-.2-2.2,0-3.2.3-1,.2-2,.2-2.9,0-.6.2-1.2-.5-1.6,0,0,0-.2,0-.3.7-1.7-.6-3.1-.6-4.7,0-.8-.1-1.7-.3-2.5-.2-.8-.4-1.6-.5-2.5,0-.4,0-.9-.6-1.2-.2-.1-.3-.6-.2-.8.4-1.3-.4-2.5-.6-3.8-.3-1.4-1-2.7-1-4.3,0-.6-.2-1.5-1-2-.4-.2-.4-1-.6-1.5-.2-.4-.6-.7-.8-1.1-.1-.3,0-.8-.1-1.1,0-.1,0-.2-.1-.3-.7-.8-1.1-1.8-1.4-2.8-.3-1-.6-2-1.2-2.9-1.1-1.8-2.1-3.7-3.2-5.6-.6-1-1.1-2.1-.6-3.5.2-.6.7-.9,1.2-.7.4.2.8.4,1.1.8.5.5,1,1,1.4,1.6.9,1.1,2.1,2.1,2.5,3.5.1.4.7.8.4,1.4,0,0,0,.3,0,.3,1.6,1.4,2,3.5,2.9,5.3.4.8.8,1.5,1.3,2.2.4.7.8,1.5,1,2.4.9.7,1.2,1.8,1.3,2.8.4,3.4,1.7,6.6,2.4,10,.6,3.4,1.2,6.8,1.5,10.3,0,.6.4,1.1.2,1.8-.2.7,0,1.5,0,2.2,0,.7.2,1.4,0,2.1-.6,2.7-.3,5.4-.6,8.2-.3,2.7-.9,5.4-1.4,8.1-.3,1.6-.6,3.4-1.3,4.9-.3.7-.4,1.5-1.2,1.9-.2.1-.1.9-.3,1.3-.5,1-1.1,2.1-1.7,3-.9,1.4-1.9,2.6-2.8,3.9-.6.8-1,1.7-1.6,2.5-.7.8-1.3,1.6-2.1,2.2-.5.4-1,.8-1.5,1.2-.5.4-1,.8-1.5,1.2-1,.9-1.9,1.9-3,2.5-2.1,1.1-3.8,2.7-5.7,3.9-1.9,1.3-3.8,2.5-5.7,3.9-1,.8-2.3,1-3.4,1.7-.5.3-2-.5-2-1.1,0-.1,0-.2,0-.3.8-1.1,1.3-2.3,2.5-3,1.8-1.1,3.5-2.3,5.2-3.4Z"/>
  <path d="M237.9,432.5c-.4-.6-.8-1.3-1.2-2-.2-.2,0-.6-.7-.6-.3,0,.1-.6,0-.8-.4-.6-.6-1.3-.9-2-.3-.6-.8-1.2-1-1.9-.3-.7-.2-1.5-.6-2.1-.4-.6,0-1.2-.1-1.8,0-.3-.2-.6-.2-1,0-.1,0-.5,0-.7,0-.3.1-.5.2-.7.3-.7.8-1.1,1.1-1.7.2-.3.3-.8.8-1.1.4-.2,1-.2.9-.8,0,0,.1,0,.2,0,.4.3.7.1.8-.2,0-.3.3-.4.5-.5.5-.2,1-.5,1.5-.6.4-.1.9,0,1.3-.2.4-.1.7-.6,1.2-.4.5.1.8,0,1.2-.2.2,0,.6,0,.5-.6,0,0,0,0,.1,0,.9.5,1.1-.7,1.7-.8.7,0,1.3-.5,1.9-.8.2,0,.4,0,.4-.5,0-.2.2-.3.3-.2.7.4,1-.2,1.6-.3.6-.1,1-.6,1.7-.4.3,0,.7,0,.7-.6,0-.3.4-.2.6-.3.1-.1.2-.4.3-.5.1,0,.4,0,.5.1,0,0,.1,0,.1,0,.5-.9,1.7-.5,2.4-1,.7-.5,1.6-.8,2.4-1,.5-.1,1-.2,1.7.8.3.4.6.9.5,1.3,0,.3-.1.6-.2.7-.2.2-.4.4-.6.6-.4.4-.7,1.1-1.4,1.1-.2,0-.3.3-.6,0,0,0-.1,0-.1,0-.4,1-1.3.9-2,1.2-.6.3-.9,1.1-1.7,1.1,0,.7-.5.8-.9.8-1.5-.1-2.5.8-3.7,1.2-1.3.4-2.4,1-3.7,1.5-.2,0-.2.5-.6.3-.3-.1-.5.2-.8.3-.2.1-.4.3-.7.3-1.2-.2-2,.6-3,.9-.5.2-1,.3-1.5.5-.2,0-.5.2-.7.3-.1,0-.2.1-.3.2,0,0,0,0,0,0-.1.2,0,.5,0,.5,0,0,.3.1-.3.1-.2,0,.3.3.3.4,0,.4,0,.7.1,1.1,0,.5.1,1,.3,1.5.1.3.4.5.6.8.2.3.3.6.3,1,0,.4,0,.9.2,1.4.1.4.6.8.5,1.3,0,1,.6,1.6,1,2.3.4.7.9,1.4,1.5,2,.3.3.2,1,.6,1.3.1.1-.7,1.4-1.1,1.7,0,0-.2,0-.2,0-.7,0-1.6,0-1.9-.4-.5-.7-1.1-1.4-1.6-2.1Z"/>
  <path d="M246.5,437.7c-.1,0-.2-.1-.4-.1,0,0,0-.3-.3.2-.1.2,0-.4,0-.4-.1,0-.2-.1-.4-.1-.1,0-.3.2-.5.2-.1,0-.1-.3-.4,0-.2.2,0-.3-.2-.2-.1,0-.3.1-.3-.1,0-.2,0-.4,0-.3,0,0-.2.3-.3.3,0,0,0-.3-.3.3,0,0,0,0,0-.1.1-.4,0-.4,0-.2-.1.2-.2.2-.2.2-.1,0-.2,0-.3-.1,0,0,0-.3,0-.4,0,0-.2.1-.2-.2,0-.3,0-.3,0-.3,0,0,0-.3-.2.3,0,0,0,0,0,0,.2-.8-.3.2-.3,0,0-.2-.2-.1-.3-.2,0,0,0-.2-.2.2,0,.1-.1.1,0,0,.2-.6,0-.3-.1-.4,0-.2-.3,0-.2-.4,0-.2,0-.3-.3.2-.1.2,0,0-.1,0,0,0-.2.3-.2.3,0,0,0-.2,0-.3,0,0,0,0,0,0-.4.6-.2-.3-.4-.2-.2.1-.3,0-.4-.2,0,0,0-.3.3-1.4.2-.5.4-1,.5-1.3.1-.2.2-.4.3-.5,0,0,.2-.2.3-.2.2-.1.5-.6.5-.3,0,0,.1-.2,0,.3,0,0,0,.1,0,0,.4-.7.4-.1.5-.1.1,0,.5-.5.5-.2.3-.6.3-.4.3-.2,0,.7.4.4.5.6.2.2.4.2.7.3,0,0,.2-.3.1,0,0,.3,0,0,.1.1,0,0,.1,0,.1,0,0,.7.3.4.4.5.1.1.3.3.5.2.1,0,.4-.3.4-.2,0,0,.2-.2,0,.3,0,.2.2-.2.2-.2,0,0,.2,0,.2,0,.1,0,.2.1.3.1,0,0,.2-.2.3-.2,0,0,.2,0,.2,0,0,.1,0,.3.1.4,0,0,.3-.1.2.2,0,.5.2.4.3.5.1.1.3.2.5.2.1,0,0,.5,0,.5,0,0-.5,1.4-.7,1.9,0,0,0,.2-.1.2-.3.4-.6,1-.7,1-.1-.1-.3-.1-.4-.2Z"/>
  <path d="M260.8,477.7c-.6-.7-1.2-1.4-1.7-2-.2-.2-.2-.6-.8-.6-.3,0,0-.6-.1-.8-.5-.6-.8-1.3-1.3-1.8-.5-.6-1-1.1-1.5-1.6-.4-.6-.6-1.4-1.2-1.8-.6-.4-.4-1.1-.8-1.5-.4-.5-.8-1-.9-1.6,0-.5,0-.9-.4-1.3-.2-.2-.6-.3-.7-.5-.1-.3,0-.7-.7-.6,0,0,0-.2,0-.3.2-.5,0-.8-.3-.9-.4,0-.4-.3-.5-.5-.3-.5-.6-1.1-.8-1.7-.2-.4-.1-1-.3-1.4-.2-.5-.6-.8-.5-1.3,0-.5,0-.9-.3-1.3-.1-.2,0-.6-.6-.5,0,0,0,0,0-.1.5-1-.8-1.2-.9-1.9,0-.8-.5-1.4-.8-2.1,0-.2,0-.5-.5-.5-.2,0-.3-.2-.2-.3.4-.7-.2-1.2-.3-1.8,0-.7-.6-1.3-.3-2.1.1-.3.2-.8-.5-1-.3-.1,0-.5-.2-.8,0-.2-.4-.4-.4-.7,0-.2.2-.4.3-.6,0,0,0-.1,0-.2-.3-.6-.2-1.3,0-1.8.2-.6.6-1.1.7-1.7.3-1.2,1.2-2.3,2.3-3.1.6-.4,1.5-.7,2.3.2.4.4.5.9.5,1.3,0,.3,0,.5-.2.7-.2.2-.3.4-.4.6-.2.4,0,1.1-.5,1.3-.1,0,0,.4-.5.2,0,0-.1,0-.1,0,.2.5.2.8,0,1.1,0,.3-.3.6-.3.9,0,.6.7,1.1.5,1.7.7.2.6.6.5,1-.4,1.4.5,2.5,1,3.9.4,1.4,1,2.6,1.6,4,0,.2.5.3.4.6-.1.3.2.6.3.9.1.3.4.5.3.8-.1,1.3.7,2.1,1.2,3.2.4,1,.9,2.1,1.6,2.9.4.5,1,1,1.3,1.6,0,.3.5.4.2.9-.1.2.4.2.5.3.3.4.5.8.7,1.2.3.5.6,1.1,1,1.6.2.3.7.5.9.8.3.3.5.7.7,1,.2.5.3,1,.6,1.5.3.5.8.8.9,1.4.1,1.1.9,1.7,1.4,2.3.5.7,1.1,1.2,1.7,1.4.3,0,.5.7.8.7,0,0,.1.4.2.8,0,.4.1.9,0,1.2,0,0,0,.2-.1.2-.6.4-1.5,1-2.3.6-1.1-.6-2-1.2-2.8-2Z"/>
  <path d="M288.9,281.5c-.1,0-.2-.1-.3-.1,0,0,0-.2-.3.2-.2.2.1-.3.1-.3-.1,0-.2-.1-.3-.2-.1,0-.3,0-.5,0-.1,0,0-.3-.3-.2-.3.1,0-.3,0-.3-.2,0-.3,0-.1-.2,0-.2.2-.3.1-.3,0,0-.4.2-.4.1,0,0,.2-.2-.3,0,0,0,0,0,.1-.1.3-.3.3-.3,0-.2-.3.1-.2,0-.3,0,0,0-.1-.1-.1-.2,0,0,.2-.3.2-.3,0,0-.3,0,0-.2.3-.2.2-.2.2-.3,0,0,.2-.2-.4,0,0,0,0,0,0,0,.8-.4-.3-.1-.1-.3.2-.2,0-.2,0-.3,0,0,.2,0-.3,0-.2,0-.2,0,0,0,.6-.2.2-.2.3-.3.1-.1-.2-.2.3-.3.2,0,.3,0-.3-.1-.3,0,0,0,0-.1,0,0-.3,0-.3,0,0,0,.2,0,.3,0,0,0,0,0,0,0-.7-.2.2-.3,0-.4-.2-.2,0-.3,0-.4,0,0,.3-.1,1.4.1.5.1,1,.2,1.4.3.2,0,.4.1.5.1,0,0,.2,0,.3.1.2,0,.7.2.4.1,0,0,.2,0-.3,0,0,0-.1,0,0,0,.8.1.3,0,.3.1,0,0,.7,0,.4,0,.6,0,.5,0,.3,0-.7,0-.2,0-.3,0,0,0,0,0,0,0,0,0,.3-.1,0,0-.2,0,0,0,0,0,0,0,.1,0,0,0-.6.3-.2.2-.3.2,0,0,0,.1,0,0,0,0,.4-.2.3-.1,0,0,.2-.2-.2.2-.1.1.2-.2.2-.2,0,0,0,0,0,0,0,0,0,0,0,0,0,0,.2-.2.2-.2,0,0,0,0,0,0,0,0-.2.2-.2.2,0,0,.1-.2,0,0-.3.4-.1.2-.1.3,0,0,0,.1,0,0,0,0-.1.4-.1.4,0,0-.4,1.4-.6,1.9,0,0,0,.2,0,.2-.2.4-.5,1.1-.6,1-.1-.1-.2-.1-.4-.2Z" fill="#00b4e9"/>
  <path d="M298.2,282.4c-.1,0-.2-.1-.3-.1,0,0,0-.2-.3.2-.2.2.1-.3.1-.3-.1,0-.2-.1-.3-.2-.1,0-.3,0-.5,0-.1,0,0-.3-.3-.2-.3.1,0-.3,0-.3-.2,0-.3,0-.1-.2,0-.2.2-.3.1-.3,0,0-.4.2-.4.1,0,0,.2-.2-.3,0,0,0,0,0,.1-.1.3-.3.3-.3,0-.2-.3.1-.2,0-.3,0,0,0-.1-.1-.1-.2,0,0,.2-.3.2-.3,0,0-.3,0,0-.2.3-.2.2-.2.2-.3,0,0,.2-.2-.4,0,0,0,0,0,0,0,.8-.4-.3-.1-.1-.3.2-.2,0-.2,0-.3,0,0,.2,0-.3,0-.2,0-.2,0,0,0,.6-.2.2-.2.3-.3.1-.1-.2-.2.3-.3.2,0,.3,0-.3-.1-.3,0,0,0,0-.1,0,0-.3,0-.3,0,0,0,.2,0,.3,0,0,0,0,0,0,0-.7-.2.2-.3,0-.4-.2-.2,0-.3,0-.4,0,0,.3-.1,1.4.1.5.1,1,.2,1.4.3.2,0,.4.1.5.1,0,0,.2,0,.3.1.2,0,.7.2.4.1,0,0,.2,0-.3,0,0,0-.1,0,0,0,.8.1.3,0,.3.1,0,0,.7,0,.4,0,.6,0,.5,0,.3,0-.7,0-.2,0-.3,0,0,0,0,0,0,0,0,0,.3-.1,0,0-.2,0,0,0,0,0,0,0,.1,0,0,0-.6.3-.2.2-.3.2,0,0,0,.1,0,0,0,0,.4-.2.3-.1,0,0,.2-.2-.2.2-.1.1.2-.2.2-.2,0,0,0,0,0,0,0,0,0,0,0,0,0,0,.2-.2.2-.2,0,0,0,0,0,0,0,0-.2.2-.2.2,0,0,.1-.2,0,0-.3.4-.1.2-.1.3,0,0,0,.1,0,0,0,0-.1.4-.1.4,0,0-.4,1.4-.6,1.9,0,0,0,.2,0,.2-.2.4-.5,1.1-.6,1-.1-.1-.2-.1-.4-.2Z" fill="#00b4e9"/>
  <path d="M293.7,290.2c-.1,0-.2-.1-.3-.1,0,0,0-.2-.3.2-.2.2.1-.3.1-.3-.1,0-.2-.1-.3-.2-.1,0-.3,0-.5,0-.1,0,0-.3-.3-.2-.3.1,0-.3,0-.3-.2,0-.3,0-.1-.2,0-.2.2-.3.1-.3,0,0-.4.2-.4.1,0,0,.2-.2-.3,0,0,0,0,0,.1-.1.3-.3.3-.3,0-.2-.3.1-.2,0-.3,0,0,0-.1-.1-.1-.2,0,0,.2-.3.2-.3,0,0-.3,0,0-.2.3-.2.2-.2.2-.3,0,0,.2-.2-.4,0,0,0,0,0,0,0,.8-.4-.3-.1-.1-.3.2-.2,0-.2,0-.3,0,0,.2,0-.3,0-.2,0-.2,0,0,0,.6-.2.2-.2.3-.3.1-.1-.2-.2.3-.3.2,0,.3,0-.3-.1-.3,0,0,0,0-.1,0,0-.3,0-.3,0,0,0,.2,0,.3,0,0,0,0,0,0,0-.7-.2.2-.3,0-.4-.2-.2,0-.3,0-.4,0,0,.3-.1,1.4.1.5.1,1,.2,1.4.3.2,0,.4.1.5.1,0,0,.2,0,.3.1.2,0,.7.2.4.1,0,0,.2,0-.3,0,0,0-.1,0,0,0,.8.1.3,0,.3.1,0,0,.7,0,.4,0,.6,0,.5,0,.3,0-.7,0-.2,0-.3,0,0,0,0,0,0,0,0,0,.3-.1,0,0-.2,0,0,0,0,0,0,0,.1,0,0,0-.6.3-.2.2-.3.2,0,0,0,.1,0,0,0,0,.4-.2.3-.1,0,0,.2-.2-.2.2-.1.1.2-.2.2-.2,0,0,0,0,0,0,0,0,0,0,0,0,0,0,.2-.2.2-.2,0,0,0,0,0,0,0,0-.2.2-.2.2,0,0,.1-.2,0,0-.3.4-.1.2-.1.3,0,0,0,.1,0,0,0,0-.1.4-.1.4,0,0-.4,1.4-.6,1.9,0,0,0,.2,0,.2-.2.4-.5,1.1-.6,1-.1-.1-.2-.1-.4-.2Z" fill="#00b4e9"/>
  <path d="M366.4,451.2c3.4-1.5,6.8-3,9.8-5,1.1-.7,2.4-1.3,3.1-2.6.3-.6,1.7-.9,2.5-1.9,1.1-1.2,2.1-2.5,2.9-3.8.8-1.4,1.4-2.8,1.7-4.3.6-3,0-6.1-1.1-8.8-1.1-2.7-2.8-5.5-5.3-6.8-1.1-.6-2-1.1-3-1.6-1-.4-2.1-.8-3.3-.8-2.5-.1-5,.4-7.4,1.1-1.7.5-3.4,1.3-4.6,2.6-.4.4-.7.9-.9,1.3-.1.2-.3.5-.4.7-.1.2-.2.5-.4.7-.5.8-1.2,2-.7,3,0,0-.1.5-.3.7-.6,1.1-.4,2.5.1,3.2.5.7.8,1.2,1.2,1.7.6.6,1.3,1,2.3,1.1,1,.2,2.2,0,3.4,0,1-.1,2-.4,3-.5.5,0,1-.1,1.5-.3l1.5-.4c.5-.2,1-.3,1.5-.5.5-.2,1-.5,1.5-.7,1-.5,2-.8,2.9-1.2.9-.3,1.9-.7,2.7-1.2.8-.5,1.7-1,2.5-1.5.9-.6,2.1-1.2,2.5-2.2,0,0,.4-.3.6-.4.7-.4,1.4-.8,2-1.3.3-.3.6-.5.9-.8.3-.3.5-.6.8-.9.5-.6,1-1.2,1.5-1.8.5-.6,1-1.3,1.5-1.8l.9-.9c.3-.3.5-.6.8-1,.5-.7,1-1.3,1.5-2l1.3-2.2c.2-.4.4-.7.6-1.1l.6-1.1c.4-.8,1.1-1.5.9-2.5,0-.3.3-1.2.6-1.6.8-1,1.3-2.2,1.6-3.4.4-1.2.6-2.5,1-3.7.7-2.8.9-5.7,1.3-8.6.2-1.2.3-3-.5-4.4-.3-.6-.2-2.1-.5-3.1-.2-.8-.7-1.6-.9-2.4-.2-.7-.2-1.4-.3-2.2,0-.2-.1-.5-.2-.7-1-1.8-1.9-3.6-2.9-5.4-1-1.8-2.2-3.4-3.8-4.7-3.1-2.6-6.9-4.6-10.8-5.4-2.2-.5-4.4-.6-6.2-1.5-.8-.4-1-.9,0-1.4.7-.4,1.7-.6,2.6-.7,1.5,0,3-.1,4.5.1,3,.4,6.1,1.1,8.7,3,.4.3.9.6,1.3.9.4.3.8.7.9,1.1,0,.1.3.4.5.5,1.9,1,3.5,2.6,4.7,4.3,1.3,1.8,2.3,3.7,3.2,5.6,1.5,3.3,3.1,6.6,3.3,10.2.9,1.9.9,4.4.7,6.4-.2,1.8-.4,3.6-.8,5.3l-.5,2.6-.6,2.6-.3,1.3-.4,1.3-.8,2.5-1,2.5c-.2.4-.3.8-.5,1.2l-.6,1.2c-1.6,3.2-3.7,6.2-5.9,9-1.2,1.4-2.3,2.8-3.6,4-.6.6-1.2,1.3-1.9,1.9l-2,1.8c-.9.8-1.6,1.7-2.9,2.3-.3.1-.6.3-.9.5-.3.2-.7.4-1,.6-.7.4-1.3.9-2,1.3-1.3.7-2.5,1.5-3.8,2-1.4.4-2.7.9-4,1.3-1.4.4-2.7.9-4.1,1.2-1.4.3-2.7.7-4.1,1-1.4.2-3,.4-4.6.1-1.6-.3-3.3-1-4.6-2.2-1.3-1.2-2-2.8-2.4-4.4-.7-3.1-.3-6.3,1-9.1.8-1.8,2-3.2,3.3-4.6,1.3-1.3,2.9-2.4,4.6-3.1,1.4-.6,3-1.4,4.6-1.1.2,0,.7-.1,1.2-.3.5-.1,1.1-.3,1.7-.4,2.5-.1,5.1.3,7.5,1.2.8.3,1.6.7,2.4,1.2.8.5,1.5,1,2.2,1.6,1.4,1.1,2.6,2.4,3.6,3.9,1.2,1.7,2.4,3.6,3.1,5.7.7,2.2,1,4.5.9,6.8,0,1.5-.4,2.9-.8,4.3-.5,1.4-1.1,2.7-1.8,3.9-1.4,2.6-3.2,5.1-5.4,6.6-4.1,2.9-8.2,5.4-12.6,7.3-4.3,1.9-8.6,3.5-12.4,5.9-2.1,1.3-4.3,2.2-6.1,3.8-.4.4-1.1.6-1.8.6-.6,0-1.2,0-1.2-.4,0-.1,0-.3.2-.5,1.4-2.2,3-4.3,5.6-5.9,3.8-2.3,7.8-4,11.7-5.8Z" fill="#00b4e9"/>
  <g>
    <g>
      <path d="M266.4,181.9c.2-.4.5-.8.6-1.2,0-.2.4-.2,0-.6-.2-.2.4,0,.5-.2.1-.4.4-.7.6-1.1.1-.4.1-.8.3-1.2.1-.4.6-.6.5-1.1,0-.4.5-.5.5-.8,0-.4.1-.7.5-.9.3-.1.6-.2.6-.5,0-.2-.2-.4-.1-.6,0-.1.4-.1,0-.6,0,0,0,0,.2,0,.4,0,.5-.1.3-.4-.2-.2,0-.3,0-.4.1-.3.3-.6.5-.9.2-.2.5-.3.7-.5.2-.2,0-.6.4-.7s.5-.3.6-.5c0-.1.4-.1-.1-.5,0,0,0,0,0,0,.9,0,.1-.8.5-1.1.4-.3.4-.7.6-1.1,0,0,.3-.1,0-.4-.1-.1,0-.2,0-.2.7,0,.5-.4.8-.7.3-.3.2-.7.8-.8.3,0,.5-.2,0-.6-.2-.2.1-.2.1-.4,0-.1-.2-.3-.1-.4,0,0,.3,0,.4,0,0,0,0,0,0,0-.3-.8.7-.8.8-1.4,0-.6.4-1,.7-1.4.2-.2.5-.4,1.6,0,.5.2,1,.4,1.2.7.2.2.3.4.3.5,0,.2,0,.4,0,.6,0,.4.3.9,0,1.1-.1,0,0,.3-.4.1,0,0-.1,0-.1,0,.5.8-.2,1-.4,1.4-.1.4.2,1-.2,1.3.5.5.2.7,0,.8-1,.4-.9,1.3-1.4,2-.5.7-.8,1.4-1.2,2.1,0,.1.2.4-.1.4-.3,0-.2.3-.3.4,0,.1,0,.4-.3.4-.9.2-.8,1-1.2,1.5-.4.5-.7,1.1-.9,1.7,0,.4,0,.9-.3,1.2-.1.1,0,.4-.5.3-.2,0,.2.3.1.4,0,.3-.2.5-.4.7-.2.3-.4.6-.5,1,0,.2,0,.5,0,.8,0,.2-.2.4-.3.6-.2.2-.5.4-.7.6-.2.2-.1.7-.5.8-.7.2-.7.8-1.1,1.3-.3.5-.6.9-.8,1.5,0,.3-.7.3-.8.6,0,.1-1.5-.4-1.9-.7,0,0-.2-.1-.2-.2-.3-.5-.8-1.1-.6-1.3.3-.4.5-.9.7-1.3Z"/>
      <path d="M327.7,165.5c.2.7.3,1.5.6,2.2,0,.3-.1.6.5.8.3,0-.3.5-.2.7.2.7.3,1.4.5,2.1.2.7.6,1.3.7,2,.2.7,0,1.4.5,2,.4.5,0,1.1.2,1.6.2.5.4,1.1.2,1.7-.1.4-.3.9-.1,1.3.1.2.5.4.5.7,0,.3-.2.6.4.7,0,0,0,.1-.1.2-.4.3-.3.7,0,.9.3.2.3.4.3.6.1.6.2,1.1.2,1.7,0,.4-.2.9-.2,1.3,0,.5.3.9,0,1.3-.3.4-.2.8-.2,1.2,0,.2-.2.5.4.7,0,0,0,0,0,.1-.8.7.4,1.3.2,2-.1.7,0,1.4.2,2.1,0,.2-.1.4.3.5.2,0,.2.2,0,.3-.6.6-.2,1.1-.2,1.6,0,.6.3,1.2-.2,1.8-.2.3-.3.6.3.9.3.1,0,.4.1.7,0,.2.3.3.4.5,0,.2-.2.3-.3.5,0,0,0,.1,0,.1.7.8,0,1.8.1,2.6.2.9.2,1.8.2,2.7,0,.5-.2,1-1.3,1.4-.5.2-1.1.2-1.4,0-.3-.1-.5-.3-.6-.5-.1-.3-.3-.5-.4-.8-.2-.6-.8-1.1-.6-1.7,0-.2-.2-.4.3-.6,0,0,.1-.1,0-.1-.8-.7-.4-1.6-.5-2.4-.1-.7-.8-1.3-.6-2-.7-.3-.6-.8-.4-1.2.6-1.4,0-2.7,0-4,0-1.4-.2-2.7-.3-4.1,0-.2-.4-.4-.1-.7.2-.3,0-.6,0-.9,0-.3-.2-.5,0-.8.5-1.1,0-2.1,0-3.2,0-1.1-.1-2.1-.5-3.1-.2-.6-.6-1.2-.6-1.9,0-.3-.4-.5.2-.9.2-.1-.3-.3-.4-.5-.1-.4-.2-.9-.2-1.3,0-.6-.2-1.2-.3-1.8-.1-.4-.4-.7-.5-1-.1-.4-.2-.8-.2-1.1,0-.5,0-1,0-1.5,0-.5-.4-1-.3-1.5.3-1-.1-1.8-.3-2.7-.2-.9-.3-1.8-.7-2.6-.2-.5.2-1.1,0-1.5,0-.2,1.3-.9,1.8-1,0,0,.2,0,.3,0,.6.4,1.4.6,1.5,1.2.2.8.4,1.7.6,2.5Z"/>
      <path d="M284.4,188.2c-.3,0-.6-.2-.9-.2-.1,0-.2-.3-.4.2-.1.3-.1-.4-.2-.4-.3,0-.6-.1-.9-.1-.3,0-.6.2-.9.2-.3,0-.5-.3-.9,0-.3.2-.4-.3-.7-.2-.3,0-.5.1-.7-.1-.1-.2-.3-.4-.5-.4-.1,0-.3.4-.4.3-.1,0-.2-.3-.4.3,0,0,0,0,0-.2,0-.4-.2-.4-.3-.1-.1.3-.2.2-.3.2-.2,0-.5,0-.7,0-.2,0-.3-.3-.5-.4-.2,0-.4.2-.6-.1-.1-.3-.3-.3-.5-.3,0,0-.2-.3-.3.3,0,0,0,0,0,0-.2-.9-.6.2-.8,0-.3-.2-.6-.1-.9-.1,0,0-.1-.2-.3.3,0,.2-.1.2-.2,0-.2-.6-.4-.3-.6-.4-.2-.1-.5.1-.8-.4,0-.2-.2-.3-.4.2,0,.3-.2,0-.3,0,0,0-.2.3-.2.3,0,0-.1-.2-.2-.3,0,0,0,0,0,0-.4.6-.7-.3-1.1,0-.4.2-.8,0-1.1,0-.2,0-.4-.2-.6-1.4,0-.5,0-1.1,0-1.4,0-.2.2-.5.2-.5.1-.1.3-.2.4-.3.3-.2.5-.7.8-.4,0,0,.2-.2.2.3,0,0,0,.1,0,0,.4-.8.7-.3,1.1-.3.3,0,.6-.7.9-.4.2-.6.4-.5.6-.3.6.7,1.2.3,1.8.4.6.1,1.2,0,1.8.2.1,0,.2-.3.3,0,0,.3.3,0,.4,0,.1,0,.3-.1.4,0,.4.7.9.4,1.4.5.5.1.9.3,1.4.2.3,0,.6-.4.9-.2.1,0,.3-.2.3.4,0,.2.2-.3.3-.3.2,0,.4,0,.6,0,.3,0,.5.1.8.1.2,0,.4-.2.6-.3.2,0,.4,0,.5,0,.2.1.4.4.6.5.2.1.5-.1.7.2.3.6.8.4,1.2.6.4.1.8.3,1.2.2.2,0,.3.5.6.6.1,0,0,1.5-.2,2,0,0,0,.2,0,.2-.3.4-.7,1.1-.9,1-.3-.2-.7-.2-1.1-.3Z"/>
      <path d="M299.3,189.9c-.2.8-.5,1.6-.7,2.4,0,.3-.5.5-.1,1,.2.3-.5.2-.7.5-.3.7-.8,1.3-1.2,1.9-.4.6-.7,1.3-1.2,1.9-.5.6-1.3.8-1.7,1.5-.4.6-1.1.5-1.6.9-.5.4-1.1.8-1.7.8-.5,0-1,0-1.4.2-.2.2-.4.5-.7.6-.3,0-.7-.1-.8.5,0,0-.2,0-.2,0-.4-.3-.7-.3-1,0-.2.3-.5.3-.7.3-.7,0-1.3.1-2,0-.5,0-1-.3-1.4-.5-.3,0-.5,0-.8,0-.4,0-.8-.2-1.1-.4-.6-.4-1.1-.6-1.7-.8-.3-.1-.4-.5-1.3-.2,0,0-.2,0-.2,0,0-.5-.5-.6-1.1-.8-.6-.2-1.4-.3-1.7-.6-.3-.3-.5-.4-.7-.6.6-.5,1.2-1,1.8-1.5.3-.2.8-.4.5-.8-.1-.1.2-.4.5-.5.8-.3,1.1-.6,1.5-.9.2-.2.3-.4.5-.5.1-.2.4-.4.4-.4.4-.3.5-.9,1.2-1,.3,0,.6-.3.2-.8-.2-.2.2-.3.3-.5,0-.2-.1-.4,0-.6,0-.1.3-.1.5-.2,0,0,0,0,0-.1-.2-1,.9-1.2,1-2.1.1-.8.4-1.5.7-2.2.2-.4.4-.8,1.6-.9.5,0,1.1,0,1.4.3.2.2.4.4.4.6,0,.3.1.6.1.9,0,.6.4,1.3,0,1.9-.1.2,0,.5-.5.4,0,0-.1,0-.1.1.4,1.1-.4,1.7-.7,2.4-.3.7,0,1.6-.7,2.1.3.7,0,1-.5,1.3-.3.2-.7.4-.9.7l-.4.4-.2.2h0c0,.1,0,0,0,.1,0,.1,0,.2-.2.3-.1,0-.2.1-.3.2,0,0,0,0,0,0h.1c0,0,.1.1.2.2,0,0,.4-.2.2,0-.2.2,0,0,0,0,0,0,.1-.1.1,0,0,0,0,.2,0,.2,0,0,.2.1.3.2.2,0,.4.1.7.1.5,0,.9,0,1.4,0,.9,0,1.8,0,2.6-.4.5-.2.9-.7,1.4-.8.2,0,.3-.4.8,0,.1.1.1-.4.2-.5.3-.2.6-.4.9-.6.4-.3.9-.6,1.2-.9.2-.2.3-.6.4-.9.2-.3.4-.5.6-.7.3-.3.7-.5,1-.8.3-.3.3-.8.7-1.1.8-.4.9-1.3,1.1-2,.2-.7.4-1.4.2-2,0-.3.3-.7.2-1.1,0-.1,1.2-1,1.7-1.1,0,0,.2,0,.3,0,.6.3,1.5.7,1.6,1.5,0,1.1,0,2.1-.2,3.1Z"/>
      <path d="M286,205.4c.4-.2.9-.3,1.3-.5.2,0,.4,0,.4-.5,0-.3.4.2.5.2.4-.2.8-.3,1.2-.6.4-.2.6-.6,1-.9.3-.2.8-.2,1-.7.1-.4.6-.1.8-.4.2-.3.4-.6.8-.6.3,0,.6,0,.7-.2,0-.1,0-.5,0-.5.1,0,.4,0,0-.5,0,0,0,0,.2,0,.4.2.5,0,.3-.3-.2-.3,0-.3,0-.4.1-.2.3-.5.4-.7.1-.2.4-.2.6-.4.1-.2,0-.5.3-.6.3-.1.4-.3.5-.6,0-.1.3-.2-.3-.4,0,0,0,0,0,0,.9-.2-.1-.8,0-1.1.2-.4.1-.8,0-1.2,0-.1.2-.2-.3-.3-.2,0-.2-.1,0-.2.6-.3.2-.6.3-1,0-.4-.2-.7.2-1.1.2-.2.3-.4-.3-.5-.3,0,0-.3-.1-.4,0-.1-.3-.2-.4-.3,0,0,.2-.2.3-.3,0,0,0,0,0,0-.7-.4,0-1.1-.2-1.6-.3-.5-.3-1.1-.4-1.7,0-.3,0-.7,1.2-1.2.5-.2,1-.3,1.4-.3.3,0,.5.1.6.2.1.2.3.3.4.5.3.3.9.6.7,1.1,0,.1.3.2-.2.4,0,0,0,0,0,.1.9.4.5,1,.6,1.6.1.5.8.8.6,1.3.7.2.6.5.4.8-.6,1,0,1.9-.2,2.9,0,1,0,2-.3,3.1,0,.2.3.4,0,.6-.3.1-.1.4-.2.7,0,.2,0,.5-.2.6-.4.3-.7.7-.8,1.1-.2.4-.3.8-.6,1.2-.5.7-1.1,1.3-1.5,2-.3.4-.4,1-.9,1.3-.2,0-.2.5-.7.2-.1,0,0,.4-.1.5-.2.2-.5.4-.8.6-.4.2-.8.5-1.2.7-.2.2-.3.5-.6.7-.2.2-.5.3-.8.4-.4.1-.8,0-1.1.1-.4,0-.6.5-1,.4-.8-.2-1.3.2-1.9.4-.6.2-1.2.3-1.8.6-.3.2-.8-.2-1.1,0-.2,0-.8-1.3-.9-1.8,0,0,0-.2,0-.2.2-.5.2-1.3.6-1.4.5,0,1-.3,1.6-.5Z"/>
      <path d="M297.1,216.5c-.3,0-.6-.2-.9-.3-.1,0-.1-.3-.4.2-.2.2,0-.4-.1-.4-.3,0-.5-.2-.7-.3-.3,0-.6,0-.8,0-.3,0-.3-.5-.7-.3-.3.1-.2-.4-.4-.4-.2,0-.5,0-.5-.4,0-.2,0-.5-.2-.5-.1,0-.4.2-.4.2,0,0,0-.3-.4.1,0,0,0,0,0-.2.2-.4,0-.4-.2-.2-.2.2-.2.1-.3,0-.2,0-.4-.2-.5-.3,0-.1,0-.4-.2-.5,0-.1-.4,0-.3-.3,0-.3,0-.4-.2-.5,0,0,0-.3-.4.2,0,0,0,0,0,0,.3-.8-.5,0-.6-.3,0-.3-.4-.3-.6-.4,0,0,0-.2-.3.1-.1.1-.2.1-.1,0,.2-.6-.2-.4-.2-.6,0-.2-.4,0-.3-.6,0-.2,0-.4-.4,0-.2.2-.1,0-.2,0,0,0-.3.2-.3.2,0,0,0-.2,0-.4,0,0,0,0,0,0-.6.4-.4-.5-.7-.5-.3,0-.6-.2-.8-.5-.1-.1-.1-.4.4-1.4.2-.5.6-.9.8-1.2.2-.2.4-.3.4-.3.1,0,.3,0,.4-.1.3,0,.7-.4.7,0,0,.1.2-.1,0,.3,0,0,0,.1,0,0,.7-.5.6,0,.9.2.2,0,.8-.3.8,0,.5-.5.5-.3.5,0,0,.8.6.7,1,1,.3.3.8.5,1.1.8,0,0,.3-.2.2,0,0,.3.1.2.2.2,0,0,.2,0,.2.2,0,.7.5.6.7.9.3.3.5.5.9.6.2,0,.6-.1.7,0,0,0,.3-.1,0,.4,0,.2.2-.2.3-.2.1,0,.2.1.4.2.2,0,.3.2.5.3.1,0,.3-.1.5-.1.1,0,.2,0,.3.2,0,.1.1.4.2.5.1.1.3,0,.4.2,0,.6.4.4.6.5.2.1.4.2.7.1.1,0,.2.5.3.5,0,0,0,1.5,0,2,0,0,0,.2,0,.2-.2.4-.5,1.1-.8,1-.3-.1-.7-.2-1-.3Z"/>
      <path d="M292.9,177.4c0-.1,0-.2-.1-.3,0,0,.2-.2-.3,0-.3,0,.3-.2.3-.2-.1,0,0-.2-.1-.3,0,0-.3,0-.4-.2,0,0,.1-.3-.2-.3-.3,0,.2-.2,0-.3-.1,0-.3,0,0-.3.1-.1.3-.3.2-.3,0,0-.4,0-.4,0,0,0,.2-.2-.4,0,0,0,0,0,.1,0,.4-.2.3-.2,0-.2-.3,0-.2,0-.3,0,0,0-.1-.1,0-.2,0,0,.2-.2.3-.3,0,0-.3,0,0-.2.3-.2.2-.2.2-.3,0,0,.2-.2-.4,0,0,0,0,0,0,0,.7-.4-.3,0-.2-.3.2-.2,0-.2,0-.3,0,0,.1-.1-.3,0-.2,0-.2,0,0,0,.6-.3.2-.2.2-.4,0-.1-.2-.1.2-.4.2-.1.3-.2-.3,0-.3,0,0,0,0,0,0,0-.3,0-.3,0,0,0,.2-.1.3-.2,0,0,0,0,0,0-.7.1.1-.3-.1-.4-.2,0-.2-.2-.2-.4,0,0,.2-.2,1.2-.7.5-.2,1-.4,1.3-.5.2,0,.5-.1.5-.1.1,0,.2,0,.3,0,.2,0,.7-.1.5,0,0,0,.2,0-.2.2,0,0,0,0,0,0,.8-.2.3.1.4.2,0,0,.7,0,.5.1.6-.2.5,0,.4,0-.6.4,0,.5,0,.7,0,.2.2.4.2.6,0,0,.4,0,.1,0-.2.1,0,.1,0,.2,0,0,.2,0,0,.1-.6.4-.1.4-.1.6,0,.2,0,.4.2.5.1,0,.5,0,.4.2,0,0,.3,0-.2.2-.2,0,.3,0,.3,0,0,0,0,.1,0,.2,0,0,0,.2.1.3,0,0,.3,0,.4,0,0,0,.1,0,0,.2,0,0-.2.2-.2.3,0,0,.3,0,0,.3-.4.3-.1.4-.1.5,0,.2,0,.3.2.4,0,0-.4.3-.3.4,0,0-.3.2-.7.3-.4.2-.9.3-1.1.4,0,0-.2,0-.2,0-.5,0-1.2.3-1.2.2,0-.1,0-.2-.1-.4Z"/>
      <path d="M283.9,179.8c0-.1,0-.2-.1-.3,0,0,.2-.2-.3,0-.3,0,.3-.2.3-.2-.1,0,0-.2-.1-.3,0,0-.3,0-.4-.2,0,0,.1-.3-.2-.3-.3,0,.2-.2,0-.3-.1,0-.3,0,0-.3.1-.1.3-.3.2-.3,0,0-.4,0-.4,0,0,0,.2-.2-.4,0,0,0,0,0,.1,0,.4-.2.3-.2,0-.2-.3,0-.2,0-.3,0,0,0-.1-.1,0-.2,0,0,.2-.2.3-.3,0,0-.3,0,0-.2.3-.2.2-.2.2-.3,0,0,.2-.2-.4,0,0,0,0,0,0,0,.7-.4-.3,0-.2-.3.2-.2,0-.2,0-.3,0,0,.1-.1-.3,0-.2,0-.2,0,0,0,.6-.3.2-.2.2-.4,0-.1-.2-.1.2-.4.2-.1.3-.2-.3,0-.3,0,0,0,0,0,0,0-.3,0-.3,0,0,0,.2-.1.3-.2,0,0,0,0,0,0-.7.1.1-.3-.1-.4-.2,0-.2-.2-.2-.4,0,0,.2-.2,1.2-.7.5-.2,1-.4,1.3-.5.2,0,.5-.1.5-.1.1,0,.2,0,.3,0,.2,0,.7-.1.5,0,0,0,.2,0-.2.2,0,0,0,0,0,0,.8-.2.3.1.4.2,0,0,.7,0,.5.1.6-.2.5,0,.4,0-.6.4,0,.5,0,.7,0,.2.2.4.2.6,0,0,.4,0,.1,0-.2.1,0,.1,0,.2,0,0,.2,0,0,.1-.6.4-.1.4-.1.6,0,.2,0,.4.2.5.1,0,.5,0,.4.2,0,0,.3,0-.2.2-.2,0,.3,0,.3,0,0,0,0,.1,0,.2,0,0,0,.2.1.3,0,0,.3,0,.4,0,0,0,.1,0,0,.2,0,0-.2.2-.2.3,0,0,.3,0,0,.3-.4.3-.1.4-.1.5,0,.2,0,.3.2.4,0,0-.4.3-.3.4,0,0-.3.2-.7.3s-.9.3-1.1.4c0,0-.2,0-.2,0-.5,0-1.2.3-1.2.2,0-.1,0-.2-.1-.4Z"/>
    </g>
    <path d="M305.8,165.3c.3,1,.6,2,1,3,.2.4,0,.8.7,1,.3,0-.1.7,0,1,.5.9.8,1.8,1.3,2.7.2.4.6.8.8,1.2.1.2.3.4.4.5,0,0,0,0,.1,0,0,0,0,.2.1.3,0,.1.1.2.2,0,0-.1,0-.1,0,0v.2c0,0,0,0,0,0,0,0,0,0,0,0,0-.4,0-.5.2-.4,0,0,.2,0,.3,0,0,0,0,0,.2-.2,0-.1.2-.3.2-.4.1-.4,0-.9.4-1.3.3-.4.8-.6.5-1.3,0,0,.2-.1.3-.2.6-.1,1-.5,1.1-1,.1-.5.4-.7.7-1,.8-.7,1.8-1.3,2.9-1.7.8-.3,1.7-.2,2.5-.3.8,0,1.8-.3,2.5,0,.7.4,1.5.5,2.2.8.4.1.7.7,1.4.3,0,0,.2,0,.3.2.2.4.4.6.6.9.2.2.5.4.8.6.6.4,1.1.9,1.4,1.6.4,1.4.8,2.8.7,4.2,0,.4-.3.7.2,1.1.1.1,0,.5,0,.7-.8.8-.8,1.8-1.2,2.6-.5.9-.8,1.9-1.7,2.5-.4.2-.8.6-.6,1.4,0,.3-.4.6-.6.9-.1.3-.1.6-.3.9-.1.2-.5.2-.7.3,0,0-.1.1-.2.2-.4,1.5-2,1.9-2.9,3-.9,1.1-2.1,2-3.3,2.7-.7.4-1.4.7-2.5,0-.5-.3-.8-.8-.7-1.2,0-.3.1-.7.3-.8.3-.3.5-.7.8-1,.5-.7.8-1.6,1.6-1.9.3-.1.3-.5.8-.3,0,0,.2,0,.2,0,.3-1.3,1.4-1.8,2.2-2.7.6-.8.7-1.9,1.5-2.5-.2-.8.2-1.2.7-1.5,1.5-1.1,1.9-3,2.1-4.4.2-1.5-.3-2.7-1.3-3.4-.2-.1-.5,0-.6-.3-.1-.3-.5-.3-.8-.3-.3,0-.6,0-.9-.2-.6-.4-1.2-.4-1.8-.3-.6.1-1.2.4-1.7.7-1.1.5-2.2,1.5-2.8,2.7-.2.4-.3.8-.5,1.2v.3c-.1,0-.3.5-.3.5-.2.4-.4.8-.5,1.2-.3.6-.4,1.9-1,1.9-.2,0-.1,1.3-.3,1.9-.3.9-.5,1.8-.8,2.6-.2-.2-.4-.4-.7-.8-1-1.3-2-2.6-2.9-3.8-.6-.8-1.3-1.3-2-2.3l-.5-.7c0-.1-.2-.3-.3-.4-.2-.3-.3-.6-.4-.8-.3-.7-.5-1.5-.8-2.3-.3-.8-.9-1.4-1-2.3,0-1.5-.8-2.8-1.2-4.2-.3-1.4-.7-2.8-1-4.2-.2-.8.2-1.6,0-2.4,0-.4,1.4-1,1.9-.9,0,0,.2,0,.3.1.6.7,1.4,1.2,1.5,2,.1,1.2.5,2.4.8,3.5Z"/>
    <path d="M273.9,165.6c-1.1,0-2.2,0-3.4,0-.4,0-.9-.3-1.4.2-.3.2-.6-.5-1-.5-1.2-.2-2.3-.7-3.4-1.3-1-.6-2.2-1.3-2.9-2.5-.4-.6-.6-1.3-.7-2-.1-.7-.2-1.4-.3-2-.2-1.2.5-2,.8-2.9.3-1,.7-2,1.5-2.6.6-.5,1.2-.8,1.6-1.4.3-.3.4-.9.8-1.1.4-.3.9-.3,1-1,0,0,.2,0,.4,0,.6.1,1.1-.1,1.5-.5.3-.4.7-.5,1.1-.5.3,0,.5-.1.8-.1h.2s0,0,0,0c0,0,0,0,0,0h0s0,0,0,0c0,0,.2.2.4.4,0,0,0,0,0,0,0,0,0-.1-.1-.2,0,0,0,0,.1,0,.1,0,.2,0,.3-.1,0,0,0,0,0,0v-.2c0-.2,0-.4.1-.6,0-.4.5-.8,0-1.4,0,0,0-.2.1-.3.6-.4.9-1,1.1-1.6.3-.6.6-1.3,1.2-1.6,1.2-.7,2.3-1.3,3.4-1.7.3,0,.6,0,.8-.5,0-.2.4-.3.5-.2.9.4,1.7-.1,2.5-.1.9,0,1.9-.4,2.9,0,.4.2.9.3,1.5-.2.3-.3.7,0,1.1,0,.3,0,.6-.2,1-.2.3,0,.5.3.7.5,0,0,.2,0,.2,0,.8-.1,1.6.2,2.2.7.7.4,1.2,1,1.9,1.4,1.4.8,2.5,2.1,3.1,3.6.4.8.5,1.9-.5,2.6-.4.3-1,.4-1.4.2-.3-.1-.6-.3-.7-.5-.2-.3-.5-.5-.7-.8-.5-.5-1.3-.6-1.6-1.3,0-.2-.5-.1-.3-.6,0,0,0-.2,0-.2-.6,0-1-.2-1.4-.4-.4-.2-.8-.5-1.2-.7-.8-.2-1.7.3-2.4-.1-.5.6-1,.5-1.5.3-1.7-.6-3.5.1-5.1.5-.8.2-1.5.5-2,.9-.5.4-.8.8-1.1,1.3,0,.2.2.5-.1.6-.2,0-.2.2-.2.4,0,.2,0,.5,0,.7,0,.3.2.8.4,1.2.2.5.4,1,.5,1.4.3,1.4.9,3,1.4,4-.5-.3-.8-.5-1.3-.7l-1.6-.8-1.6-.8c-.5-.2-1.1-.6-1.4-.6h-.5c0-.1-.2-.2-.2-.2h-.1c-.1,0-.3,0-.4,0-.3,0-.6.1-.8.2-.6.2-1.1.5-1.5.9-.6.5-.8,1.2-1.4,1.7-.2.2-.1.7-.8.6-.2,0,0,.5,0,.7-.2.5-.4.9-.4,1.3-.1.6-.2,1.1,0,1.6.1.3.5.4.7.6.2.2.4.4.6.7.3.3.6.8,1.1,1,.5.3,1.1.1,1.6.5,1,.7,2.3.4,3.5.4h1c.3,0,.6,0,.9,0,.5,0,1.1-.2,1.4-.4.4-.2.9,0,1-.2,0,0,.4,0,.8,0,.4,0,1,0,1.2,0,0,0,.2.1.2.2.1.5.2,1.2,0,1.8-.2.6-.6,1.1-1.1,1.4-1.6.7-3,.9-4.3,1Z"/>
    <path d="M332,161.3c.5-.3,1-.7,1.2-1,.3-.3.3-.4.3-.7,0-.2.2-.5-.4-.6-.3,0,.2-.5,0-.8-.2-.2-.4-.5-.6-.7,0,0,0-.1-.2-.2,0,0-.2-.2-.4-.3-.4-.2-.6-.5-1.1-.6-.3-.6-.6-1-.9-1.3-.2-.3-.4-.5-.6-.6-.2-.2-.4-.3-.5-.3-.1,0,0,.2-.4.4h-.2c0,.1,0,.2,0,.2h0s0,0,0,0c.5,0-4.3.5-2.2.2h0s0,0,0,0h0s0,0,0,0h.1c.2,0,.2-.1.5-.2l1.7-.3h.4c.1,0,0,0,0,0h0s0,0,0,0c0-.2,0-.4-.3-1-.1-.2-.2-.2-.3-.5-.1-.2-.2-.4-.3-.6,2-.6,3.4-1.1,4.1-1.9.4-.6.7-1.1,1.1-1.6.3-.3.6-.8.4-1.3,0-.3-.5-.5-.5-.8,0-.3,0-.8-.6-.7,0,0,0-.2,0-.3.2-.5-.1-.8-.5-.9-.4,0-.5-.2-.7-.3-.6-.4-1.2-.7-1.9-1-.5-.2-1-.6-1.7-.7-.6-.1-1.3.1-1.9-.1-.6-.2-1.2-.1-1.8,0-.3,0-.8,0-.9.7,0,0-.1.1-.2,0-.6-.2-1.1,0-1.4.5-.4.4-.6.8-1.1,1-.9.5-1.5,1.4-2.1,2.2-.1.2-.4.4-.2.7l-4-2.9h0c-.1-.2-.1-.2,0-.1.3.1.4,0,.4-.2,0-.2,0-.4-.1-.6,0-.3-.2-.5-.4-.8-.2-.2-.3-.4-.4-.8-.1-.3-.6-.6-1.1-.2-.2.2-.5-.1-.8,0-.2,0-.5.3-.7.3-.2,0-.4-.2-.7-.3,0,0-.2,0-.2,0-1.2.8-2.8.3-4,.9-1.2.7-2.4,1.2-3.3,2-.5.4-1,.8-2.2.7-.6,0-1.1-.2-1.2-.7,0-.4,0-.8,0-1.1.3-.5.5-1.1.9-1.5.7-1,1.4-2.1,2.7-2.4.4,0,.7-.5,1.1-.2,0,0,.2,0,.3,0,.6-.7,1.3-1,2.1-1.2.8-.2,1.6-.2,2.3-.4.7-.1,1.3-.4,2.1-.5.7-.1,1.5-.2,2.3.1,1-.4,2.2,0,2.9.9,1.3,1.3,2.1,2.7,2.6,4.3.2.8.3,1.7.1,2.6-.2.9-.6,1.9-1.3,2.6l-3.6-2.6.4-.6c1.6-2.5,3.9-4.5,6.5-5.6.4-.2.7-.7,1.4-.6.6,0,1.2-.3,1.8-.4.6,0,1.2-.3,1.7-.2,1.2.3,2.3.4,3.4.6,1.1.2,2.2.5,3.2,1.1,2,1.1,3.7,3,4.6,5.3.5,1.4,1,3,.4,4.6-.2.6-.2,1.5-1.1,1.8-.2,0-.2.8-.5,1.2-.2.2-.3.4-.5.6l-.3.3s0,0,0,0c0,0-.1,0-.2.1h0c-.2.1-.4.2-.4.3,0,0,.1,0,.3,0,.1,0,.4,0,.5,0,.2,0,.2,0,0,0h0c0,0-.2,0-.2.2,0,0,0,0,0,0,0,0,0,0,0,0,0,0,.2.2.3.3.2.2.4.5.6.7.4.5.7,1,.9,1.6.2,1.1.5,2.4.1,3.8-.2.7-.5,1.3-.9,1.8-.4.5-.8.9-1.2,1.2-1.5,1.1-3.2,1.9-4.8,2.7-1,.4-2,.2-3,.4-.5,0-1.3-1.3-1.1-1.8,0,0,0-.2.1-.3.8-.6,1.3-1.4,2.2-1.7,1.3-.3,2.5-1,3.6-1.7Z"/>
    <path d="M292.3,147.8c0-.2-.1-.4-.3-.7,0,0,.2-.3-.4-.2-.3,0,.3-.3.3-.4-.1-.3-.1-.7-.2-1,0-.3-.3-.7-.3-1,0-.3.4-.5.1-.9-.2-.3.3-.3.3-.5,0-.2,0-.4.2-.5.2,0,.5,0,.4-.2,0,0-.3-.3-.2-.4,0,0,.3,0-.2-.4,0,0,0,0,.2,0,.4,0,.4,0,.2-.2-.2-.2-.2-.2-.1-.3,0-.2.1-.4.3-.5.1-.1.4-.1.5-.2.1-.1,0-.4.3-.4.3,0,.4,0,.5-.2,0,0,.3,0-.1-.4,0,0,0,0,0,0,.8.3,0-.6.4-.6.3,0,.4-.4.6-.6,0,0,.2,0,0-.4,0-.1,0-.2,0-.1.6.3.5,0,.7-.1.3,0,.3-.4.7-.1.2.1.4.1.1-.4,0-.3.1,0,.2-.2,0,0,0-.3,0-.4,0,0,.2.1.3.2,0,0,0,0,0,0,0-.8.7,0,.9-.4.3-.3.6-.3,1-.3.2,0,.4.1.8,1.2.1.5.2,1,.3,1.4,0,.2,0,.5,0,.5,0,.1,0,.3-.1.4,0,.2,0,.8-.2.5,0,0,0,.2-.2-.2,0,0,0,0,0,0,.1.8-.2.4-.4.5-.1.1,0,.7-.2.6.3.6.2.5,0,.4-.6-.4-.6.1-.8.2-.3.1-.4.4-.6.6,0,0,.2.3,0,.2-.2-.1-.1,0-.1.1,0,0,0,.2-.1.1-.7-.1-.5.3-.7.5-.2.2-.4.4-.3.8,0,.2.3.5,0,.6,0,0,.2.2-.4,0-.2,0,.2.2.2.2,0,.1,0,.2,0,.3,0,.1-.1.2,0,.3,0,0,.3.1.3.2,0,0,0,0,0,0,0,0-.3,0-.3,0,0,0,.2,0,0,.1-.5.3-.1.4,0,.7,0,.3.1.6.4.9.1.2-.3.5-.3.7,0,.1-1.4.4-1.9.4,0,0-.2,0-.2,0-.5,0-1.2,0-1.2,0,0-.1,0-.3-.2-.5Z"/>
    <path d="M286,156.8c0,.3,0,.7.2,1,0,.1-.1.3.4.3.3,0-.3.3-.2.4.2.3.3.6.5.8.2.2.6.3.8.4.3.1.3.6.8.5.3-.1.3.4.6.4.3,0,.6,0,.7.3.1.2.3.5.5.4.1,0,.3-.3.4-.3.1,0,.2.3.4-.3,0,0,0,0,0,.2,0,.4.3.4.4.1.1-.3.2-.2.3-.3.3,0,.5,0,.8,0,.2,0,.4.2.7.2.2,0,.4-.3.7-.1.3.2.5.1.7,0,.1,0,.4.2.2-.5,0,0,0,0,0,0,.7.6.5-.5.9-.5.4,0,.7-.3,1-.6,0,0,.3,0,0-.4,0-.2,0-.2.1-.2.6.3.6-.2.9-.3.3-.1.4-.6,1-.5.2,0,.5,0,.2-.6-.1-.2.2-.2.2-.3,0-.1-.1-.4,0-.4,0,0,.3,0,.4,0,0,0,0,0,0,0-.2-.8.8-.6,1-1.2.1-.5.5-.9.8-1.3.2-.2.5-.4,1.6,0,.5.2,1,.4,1.2.7.2.2.3.4.3.5,0,.2,0,.5,0,.7,0,.4.2,1.1-.3,1.3-.1,0,0,.4-.5.2,0,0-.1,0-.1,0,.3.9-.4,1.1-.7,1.6-.3.4-.1,1.2-.6,1.4.3.6,0,.8-.4.9-1.2.2-1.6,1.2-2.5,1.7-.9.5-1.7,1.1-2.7,1.5-.2,0-.2.5-.5.3-.3-.2-.4.1-.7.2-.2,0-.4.3-.6.2-1-.4-1.7.1-2.5.1-.8,0-1.6,0-2.5,0-.5,0-1.1.3-1.6,0-.2-.1-.5.1-.6-.5,0-.2-.4.2-.5.1-.4,0-.7-.3-1-.5-.5-.2-.9-.6-1.3-.8-.3-.2-.7-.2-1-.4-.3-.2-.5-.5-.7-.8-.2-.4-.3-.9-.5-1.3-.2-.4-.6-.7-.5-1.2.2-.9-.3-1.5-.3-2.3,0-.8,0-1.5,0-2.3,0-.5.6-.7.7-1.1,0-.2,1.5.2,1.9.4,0,0,.2.1.2.1.3.4,1,.8.9,1.1-.2.3-.1.7,0,1.1Z"/>
  </g>
</svg>