<?xml version="1.0" encoding="UTF-8"?>
<svg id="ARTWORK" xmlns="http://www.w3.org/2000/svg" width="600" height="600" viewBox="0 0 600 600">
  <g>
    <path d="M259.6,216.6c17.8-6.7,35.3-14.1,52.4-22.4.4-.2.9-.4,1.3-.3.6.2.9.8,1.1,1.4,1.2,3.7,2.5,7.4,3.7,11.1-21.4,5.1-40.9,16.3-62.3,21.3-.3-4.8-.7-9.6-1-14.3"/>
    <path d="M257.5,225.2h0c0,.2.1.1.2.1h.4c0,0,.8-.3.8-.3h.4c0-.1.9-.4.9-.4l1.7-.5c.9-.3,1.8-.3,2.6-1.1.4-.4,1.4,0,2.2-.3,2.1-.8,4.3-1.4,6.5-2.3,2.1-.8,4.1-1.8,6.1-2.7,2-.9,4.3-1.4,6.1-2.5,1.6-.9,3.4-1.1,5-1.9,1.7-.8,3.5-1.6,5.3-2,1.3-.3,2.6-.6,3.9-1.1.8-.4,1.4-.9,2.3-1.2.8-.3,1.8-.3,2.3-1.2,0,0,.4,0,.7,0,1,0,2.1-.3,2.7-.8.6-.5,1.3-.7,1.9-.9l2.8-.8c.5-.1.9-.3,1.4-.4l.7-.2h.4c0,0,0,0,0,0,0,0,.5.2.4,0,0,0,0-.1,0-.2-.1-.3-.3-.7-.4-1-.3-.7-.5-1.4-.6-2.1-.1-1.4-.6-2.6-1-3.9,0-.2-.1-.4-.2-.6,0,0,0-.1,0-.2,0-.1-.2-.2-.4,0,0,0,0,0,0,0,0-.1,0-.3,0-.3,0-.1-.2,0-.3,0-.2.1,0,.1-.6.5-.8.5-1.6,1.1-2.5,1.4-2.2.8-4.2,1.9-6.3,2.9-.6.3-1.2.4-1.6,1-.1.2-.7.5-1,.5-1.8.1-3.3,1.2-4.9,1.8-1.9.7-3.6,1.8-5.6,2.1-.9.1-2,.5-2.7,1.4-.3.4-1.3.6-2,.9-.5.3-1,.8-1.5,1-.5.2-1,.2-1.5.3-.2,0-.3,0-.5.2-2.4,1.7-5.5,2-8.1,3.3-2.7,1.3-5.5,2.3-8.3,3.3-1.5.5-3.2,1-4.6.3-.6-.3-.8-.8-.3-1.4.4-.4.9-.8,1.4-1.1.8-.4,1.7-.9,2.5-1.3,1.7-.9,3.2-2,5.2-2.5.6-.1,1.1-.7,1.8-.4,0,0,.3,0,.4,0,2.1-1.7,4.8-2.2,7.2-3.3,2.1-.9,3.8-2.3,6-3,.9-1.1,2.3-1.5,3.5-1.9,4.3-1.1,8.2-3.4,12.3-5.1,2-.9,4-1.8,6-2.7l3-1.4,2-1c.9-.4,1.8-.6,2.7-.3.2,0,.4.1.5.2.6.3,1,.6,1.4,1.1.4.5.7,1.2.8,2,0,.2,0,.4.1.5,0,.1,0,.2,0,.3,0,.2.1.5.2.7.2.5.4,1,.5,1.4.3.9.7,1.7.8,2.6,0,.4.1.9.2,1.3v.7c.1,0,.2.3.2.3v.4c.5,1.4,1,2.8,1.5,4.2,0,0,0,0,0,0h-.1s-.3.1-.3.1h-.5c0,.1-1.1.4-1.1.4l-2.2.6-2.7.7c-3.4.9-6.7,1.9-10,3.2-2,.8-3.9,1.9-5.9,2.5-.9.3-1.7.9-2.7.7-.3,0-.9.7-1.5.9-1.4.6-2.7,1.1-4.1,1.6-1.9.8-3.8,1.5-5.7,2.3-1.2.5-2.2,1.2-3.4,1.7-1.2.5-2.5,1-3.7,1.4-1.6.5-3.2.9-4.9,1.4-1.7.5-3.3,1.4-5,1.6-.8.1-1.5.3-2.3.5-.8.2-1.5.4-2.3.6l-1.1.3-.6.2-.8.2-3.4.9-1.7.4c-.4.2-.3-.3-.3-.6v-1c0,0-.3-3.8-.3-3.8-.1-1.5-.2-3-.4-4.5-.2-1.7.2-3.3,0-5,0-.8,1.3-1.9,1.9-1.7.1,0,.2.2.3.3.6,1.6,1.4,3.1,1.5,5,0,1.4.2,2.8.3,4.2l.2,2.3Z"/>
  </g>
  <path d="M344.6,324.3c2.6-1.7,5.2-3.4,7.7-5.2.9-.7,2.1-1.1,2.7-2.3.3-.6,1.6-.7,2.5-1.3,2.3-1.7,4.7-3.4,6.9-5.2,2.2-1.7,4.3-3.6,6.4-5.4,2.1-1.8,4.5-3.3,6.1-5.4,1.4-1.7,3-2.9,4.1-4.7,1.1-1.9,2-3.8,2.7-5.7.5-1.4.9-2.8.7-4.3-.1-.9-.6-1.7-.8-2.7-.2-.9-.3-2-1.2-2.6,0,0-.1-.5-.1-.7,0-1.1-.7-2.3-1.4-2.9-.7-.6-1.1-1.3-1.5-2-1.3-1.9-2.7-3.7-4.1-5.6-1-1.4-1.9-3-3-4.4-1.1-1.5-2.5-2.9-3.4-4.4-.8-1.5-1.9-2.8-2.9-4.1-.6-.7-1.1-1.8-2.1-2,0,0-.3-.3-.4-.5-1.1-2.6-3.7-4-5.3-6.2-1.7-2.3-3.7-4.4-5.7-6.5-.5-.6-.9-1.3-1.7-1.5-.3,0-.8-.7-1-1-1-2-2.8-3.4-4.2-5-1.6-1.9-3.6-3.4-5-5.5-.6-.9-1.6-1.9-3-2.3-.6-.2-1.3-1.1-2.1-1.6-.6-.4-1.3-.6-1.9-1-.5-.3-.9-.9-1.3-1.3-.1-.1-.3-.3-.5-.3-1.7-.7-3.1-1.6-4.6-2.5-1.5-.8-3-1.6-4.6-2-3.3-.7-6.6-.8-9.6.2-1.7.6-3.2,1.3-4.9,1.4-.8,0-1.2-.3-.8-1.2.3-.6.8-1.3,1.4-1.8,1-.8,2.1-1.5,3.2-2,2.3-1,5-1.9,7.7-1.4.8.2,1.8,0,2.4.7,0,0,.4.2.6.2,1.8,0,3.5.5,5.2,1.3,1.6.7,3.1,1.7,4.6,2.5,2.5,1.5,5.2,2.6,7.3,4.7,1.7.5,3,1.9,4.1,3.2,3.7,4.4,7.9,8.3,11.6,12.5,3.8,4.3,7.6,8.6,11.2,13,.6.8,1.4,1.2,1.9,2.2.5,1,1.5,1.9,2.3,2.9.7.9,1.6,1.7,2.1,2.7,2.3,3.9,5.3,7.2,8,10.9,2.6,3.7,5.2,7.6,6.7,12.3.4,1.4.8,2.9,1,4.4.1,1.5,0,3.1-.4,4.6-.2.6-.3,1.3-.5,1.9-.2.6-.5,1.3-1.1,1.7-.2.1-.2.5-.4,1-.1.4-.3.9-.5,1.3-1,1.8-2.2,3.4-3.5,4.9-1.8,2.1-3.8,3.9-5.8,5.6-1.2,1.1-2.3,2.3-3.5,3.3-1.3,1.1-2.6,2.1-3.9,3.1-1.7,1.2-3.5,2.3-5.3,3.5-1.8,1.2-3.5,2.8-5.3,3.8-3.5,1.8-6.5,4.2-9.8,6.3-3.3,2.1-6.5,4.1-9.8,6.2-1.8,1.2-3.8,1.8-5.6,2.9-.9.5-2.8-.1-2.7-.7,0-.1.1-.3.2-.4,1.6-1.4,2.8-3,4.9-4.2,3-1.7,6-3.6,8.9-5.6Z"/>
  <path d="M340.9,285c-.5-.6-1-1.2-1.5-1.7-.2-.2-.2-.6-.8-.4-.3,0,0-.6-.2-.7-.5-.5-1-1-1.5-1.5-.5-.4-1.1-.8-1.7-1.2-.5-.4-.8-1.1-1.5-1.4-.6-.2-.6-.9-1.1-1.2-.5-.3-1-.7-1.2-1.2-.2-.4-.3-.8-.7-1-.2-.1-.6,0-.8-.3-.2-.2-.2-.6-.8-.3,0,0,0-.1,0-.2,0-.5-.2-.7-.6-.6-.4,0-.5-.1-.6-.2-.5-.4-.9-.7-1.3-1.2-.3-.3-.5-.8-.8-1.1-.3-.3-.8-.4-1-.9-.1-.5-.4-.7-.8-1-.2-.1-.2-.5-.8-.2,0,0-.1,0-.1,0,0-1.1-1.2-.6-1.6-1.2-.4-.6-1-.9-1.6-1.3-.2-.1-.2-.4-.6-.1-.1,0-.3,0-.3-.2,0-.8-.7-.9-1-1.3-.4-.5-1.1-.6-1.3-1.3,0-.3-.3-.6-.9-.3-.3.1-.4-.3-.6-.3-.2,0-.5,0-.6,0-.1,0-.1-.4-.2-.5,0,0,0,0-.1,0-1.1,0-1.3-1.2-2.2-1.6-.8-.4-1.5-.9-2.2-1.5-.4-.3-.7-.8-.4-1.9.2-.5.5-1,.8-1.1.3-.1.5-.2.7-.2.3,0,.6.1.9.2.6.2,1.4,0,1.7.6.1.2.5,0,.3.6,0,0,0,.1,0,.1,1.1-.2,1.5.7,2.2,1.2.6.4,1.5.3,1.9.9.7-.3,1,0,1.2.5.7,1.4,2.1,1.9,3.1,2.8,1.1.9,2.2,1.8,3.3,2.7.2.2.6,0,.6.4,0,.4.4.4.7.6.2.2.5.3.6.6.4,1.2,1.5,1.7,2.3,2.4.8.8,1.6,1.6,2.5,2.2.6.4,1.3.6,1.7,1.2.2.2.6.2.4.8,0,.2.4,0,.6.2.4.3.7.6,1,1,.5.4.9.9,1.4,1.4.3.3.8.4,1.1.6.3.2.6.6.9.9.3.4.5.9.8,1.4.3.4.9.7,1.1,1.2.3,1.1,1.1,1.6,1.7,2.3.6.7,1.2,1.5,1.9,2.1.4.4.3,1.1.7,1.5.2.2-.7,1.4-1.2,1.6,0,0-.2,0-.2,0-.7,0-1.5,0-1.9-.4-.5-.7-1.1-1.3-1.7-1.9Z"/>
  <path d="M314.4,305.7c.6-.4,1.2-.7,1.7-1.1.2-.2.6,0,.5-.7,0-.3.5.1.7,0,.5-.4,1.1-.7,1.6-1.1.5-.4.9-.9,1.4-1.3.5-.4,1.2-.5,1.5-1.1.3-.5.9-.4,1.3-.8.4-.4.8-.8,1.3-.9.4,0,.8-.1,1.1-.4.2-.2.1-.6.4-.7.2-.1.6,0,.4-.7,0,0,.1,0,.2,0,.4.2.7,0,.7-.4,0-.3.2-.4.3-.5.4-.3.8-.7,1.3-.9.3-.2.8-.2,1.2-.4.4-.2.6-.7,1-.7.5,0,.8-.2,1.1-.5.2-.1.5,0,.3-.7,0,0,0,0,.1,0,1,.3.8-.9,1.4-1.2.6-.2,1.1-.7,1.5-1.2.1-.1.4,0,.2-.5,0-.2,0-.3.2-.3.8.2.9-.4,1.4-.6.5-.3.8-.8,1.5-.8.3,0,.6-.1.5-.7,0-.3.3-.3.4-.4,0-.1,0-.5.2-.6.1,0,.4,0,.5,0,0,0,0,0,.1,0,.2-1,1.4-.9,1.9-1.5.5-.7,1.2-1.2,1.9-1.6.4-.3.9-.4,1.8.2.4.3.8.7.9,1.1,0,.3,0,.6,0,.7-.1.3-.3.5-.4.8-.3.5-.3,1.3-.9,1.4-.2,0-.1.4-.6.1,0,0-.1,0-.1,0,0,1.1-1,1.2-1.5,1.7-.5.4-.5,1.3-1.2,1.5.1.7-.3.9-.7,1-1.4.3-2.1,1.4-3.2,2.2-1.1.7-2,1.6-3.1,2.4-.2.1-.1.5-.5.5-.4,0-.5.3-.7.5-.2.2-.3.4-.6.5-1.2,0-1.8,1-2.6,1.6-.9.5-1.7,1.1-2.4,1.8-.4.4-.7,1.1-1.3,1.3-.2.1-.3.5-.8.2-.2,0,0,.4-.2.5-.3.3-.7.5-1,.7-.5.3-1,.6-1.4,1-.3.2-.4.6-.7.9-.3.3-.6.5-.9.6-.4.2-.9.3-1.4.5-.4.2-.7.7-1.3.8-1,0-1.6.7-2.4,1.2-.8.4-1.5.8-2.2,1.4-.4.3-1,.1-1.4.4-.2.1-1.2-1-1.4-1.5,0,0,0-.2,0-.2.2-.6.1-1.5.6-1.7.7-.3,1.3-.8,2-1.2Z"/>
  <path d="M332.9,340.5c-.5-.7-1-1.4-1.5-2.1-.2-.2-.2-.7-.8-.6-.3,0,0-.6-.2-.8-.5-.6-.9-1.3-1.4-2-.5-.6-1.1-1.1-1.6-1.7-.5-.6-.7-1.4-1.4-1.9-.6-.4-.5-1.1-.9-1.6-.5-.5-.9-1-1.1-1.7-.1-.5-.2-1-.5-1.3-.2-.2-.6-.3-.8-.5-.1-.3,0-.7-.8-.6,0,0,0-.2,0-.3.2-.5,0-.8-.4-.9-.4,0-.5-.3-.6-.5-.4-.5-.8-1.1-1.1-1.7-.2-.4-.3-1-.5-1.4-.2-.5-.8-.8-.8-1.4,0-.6-.2-.9-.5-1.3-.1-.2,0-.6-.7-.5,0,0-.1,0,0-.1.3-1.1-1-1.2-1.2-1.9-.2-.8-.8-1.4-1.2-2.1-.1-.2,0-.5-.6-.4-.2,0-.3-.2-.3-.3.2-.8-.4-1.2-.6-1.8-.2-.7-.8-1.1-.8-2,0-.4,0-.8-.8-.8-.3,0-.2-.4-.4-.6-.1-.2-.5-.2-.6-.4,0-.1,0-.4,0-.6,0,0,0-.1,0-.1-1.1-.6-.8-1.9-1.5-2.7-.7-.8-1.1-1.8-1.5-2.7-.2-.5-.3-1.1.5-2,.4-.4.9-.7,1.3-.6.3,0,.6.1.7.3.3.2.5.5.7.7.5.5,1.3.8,1.3,1.5,0,.2.4.3,0,.7,0,0,0,.1,0,.2,1.1.4,1.1,1.5,1.6,2.2.4.7,1.4,1,1.5,1.8.8,0,.9.6,1,1,.2,1.7,1.4,2.8,2.1,4.1.7,1.4,1.6,2.7,2.4,4,.1.2.6.2.5.6,0,.4.3.6.5.9.2.3.5.5.5.8,0,1.4,1.1,2.2,1.7,3.3.6,1.1,1.2,2.1,2,3.1.5.6,1.2,1,1.5,1.7.1.3.6.4.3,1,0,.2.5.2.6.3.3.4.6.8.9,1.3.4.6.8,1.2,1.2,1.8.3.3.7.6,1,.9.3.3.6.7.8,1.1.3.5.4,1.1.7,1.6.3.5.9.9,1,1.5.2,1.2,1,1.9,1.6,2.8.6.9,1.1,1.8,1.9,2.5.4.4.3,1.2.7,1.6.2.2-.8,1.4-1.3,1.6,0,0-.2,0-.3,0-.7-.2-1.6-.2-2-.8-.5-.8-1.1-1.6-1.7-2.4Z"/>
  <path d="M226,466.9c.5-2.6,1-5.2,1.4-7.8.2-1,.6-1.9.3-3-.2-.6.6-1.4.8-2.3.4-2.4,1-4.9,1.4-7.3.4-2.4.7-4.8,1.1-7.2.4-2.4,1.3-4.7,1.4-7,.2-2,1-3.7,1.4-5.6.3-2,.7-4.1,1.4-5.9.5-1.4,1.1-2.7,1.3-4.1.2-.9,0-1.8.3-2.7.2-.9.8-1.8.3-2.7,0,0,.2-.4.3-.6.6-.9.9-2,.9-2.9,0-.8.2-1.5.3-2.2.5-2,1-4,1.6-5.9.5-1.5,1.1-2.9,1.6-4.3.5-1.5.7-3.2,1.4-4.6.7-1.3,1.1-2.7,1.5-4.1.2-.8.8-1.6.4-2.5,0,0,0-.4.1-.5.7-1,1-2.1,1.2-3.3.2-1.2.4-2.3.8-3.4,1-2.3,1.6-4.7,2.3-7.1.2-.6.6-1.2.4-2,0-.3.1-.9.3-1.2,1.2-1.5,1.5-3.5,2.2-5.2.8-2,1.3-4.1,2.5-6,.5-.8,1-1.9.9-3.2,0-.6.5-1.5.8-2.2.2-.6.1-1.3.4-1.9.2-.5.6-.9.9-1.4,0-.1.2-.3.2-.5.5-3.2,2.5-5.8,3.5-8.8,1-3,2.3-6,3.6-8.9.7-1.6,1.6-3.2,3.1-3.9.7-.3,1.2,0,1.2.7,0,.6,0,1.3-.2,1.9-.3,1-.6,1.9-.8,2.9-.6,1.9-.9,4-1.9,5.8-.3.6-.3,1.4-1,1.7,0,0-.2.3-.2.4-.3,2.9-1.8,5.4-2.8,8.1-.8,2.3-1.1,4.7-2.2,6.9.1,1.5-.5,2.9-1.2,4.1-1.2,2.1-2,4.4-2.8,6.6-.8,2.3-1.5,4.6-2.3,6.8-.8,2.3-1.6,4.6-2.3,6.9-.8,2.3-1.5,4.6-2.2,6.9-.2.8-.1,1.6-.7,2.4-.5.8-.7,2-1,3-.3.9-.5,1.9-.9,2.8-1.7,3.5-2.4,7.2-3.4,10.9-1,3.6-2.1,7.3-2.9,11-.5,2.3-.7,4.6-1.4,6.8-.3,1-.2,2-1,2.9-.2.2,0,1.2-.1,1.9-.3,1.6-.7,3.1-1.1,4.6-.5,2.2-1,4.3-1.4,6.5-.3,1.3-.3,2.7-.5,4-.2,1.4-.5,2.8-.9,4.1-.4,1.7-1,3.4-1.4,5.2-.4,1.8-.5,3.7-1.1,5.4-1.1,3.1-1.5,6.4-2.1,9.6-.6,3.2-1.3,6.4-1.7,9.7-.3,1.8-1,3.4-1.3,5.2-.1.8-1.8,1.7-2.2,1.3,0,0-.2-.2-.2-.4-.2-1.8-.6-3.6-.2-5.6.6-2.9,1.1-5.9,1.6-8.9Z"/>
  <path d="M239.1,500l-1.6,1.5c-.5.5-1,1-1.8,1.7-.6.5-1.6.6-2.5,1.2-.2.2-.6,0-.9,0-.3-.1-.6-.4-.9-.4-1.4-.2-2.7-.6-4.1-.8-1.3-.2-2.7-.3-4-.6-1.3-.3-2.6-.9-3.9-.9-1.2,0-2-.8-3-1-1.1-.2-2.3-.5-3.3-1-.7-.4-1.4-.9-2.2-1-.5,0-1,0-1.6-.1-.5-.2-.9-.6-1.6-.2,0,0-.2-.1-.3-.3-.4-.6-1-.8-1.6-.7-.5.1-.9,0-1.3-.2-1.1-.4-2.2-.8-3.2-1.2-.8-.4-1.5-.9-2.3-1.3-.8-.4-1.9-.6-2.5-1.3-.6-.7-1.4-1.1-2.1-1.7-.2-.2-.4-.4-.6-.6,0,0-.1,0-.2-.1,0,0-.2-.1-.3-.1-.2,0-.4-.1-.6-.2,0,0-.3-.2-.4-.4-.1-.3-.2-.5-.3-.8-.1-.2-.3-.5-.4-.7-.1-.2-.3-.4-.4-.7-.1-.2-.2-.4-.3-.7-.2-.5-.4-.9-.3-1.4,0-.5.2-1,.6-1.4.4-.4.8-.7,1.2-.9.5-.2,1.1-.3,1.7-.5l1.6-.5,1-.3c.4,0,.8,0,1-.5,0-.2.5-.3.7-.2,1.1.4,2.1-.2,3.2-.3,1.2,0,2.4-.6,3.7-.3.5.1,1.2.1,1.8-.5.2-.3.9-.1,1.3-.2.4,0,.7-.4,1-.4.3,0,.6.2,1,.2,0,0,.2,0,.3,0,1.7-.8,3.5,0,5.3-.3,1.8-.3,3.6-.2,5.4-.1,1,0,2,.3,2.7,1.4.3.5.3,1.1-.2,1.4-.3.2-.7.5-1,.5-.6,0-1.1.2-1.6.3-1.1.2-2.2.7-3.3.5-.4,0-.8.2-1.1-.3,0,0-.2-.1-.3,0-1.5.9-3.1.4-4.6.6-1.3.2-2.5.9-3.9.8-.6.7-1.5.7-2.3.6-2.7-.3-5.2.6-7.7,1.1l-1.6.3c-.1,0-.3,0-.4.1-.1,0-.2.2-.1.3,0,.1.1.2.2.3,0,0,.1,0,.2,0,0,0,0,0,0,0,0,0,.1.1.1.3.1.5.7.6,1.1.9.4.2.9.4,1.2.7,1.4,1.5,3.6,1.9,5.5,2.7,1.9.8,3.9,1.6,5.9,2.1,1.2.3,2.5.4,3.7.9.5.2,1.2,0,1.5.8,0,.2.7,0,1.1,0,.9.2,1.7.5,2.5.7,1.2.3,2.3.7,3.5.9.7.1,1.5,0,2.2.2.8.1,1.5.3,2.3.5.9.3,1.8.7,2.8,1,.5.1,1,.2,1.5.3.5,0,.9.2,1.2.3.2.1.3.2.5.2.2,0,.4-.1.7-.4.3-.2.6-.6.9-.9.3-.3.7-.6,1-.9,1.4-1.2,2.7-2.4,3.9-3.8.7-.8,1.7-1,2.4-1.7.3-.3,1.8.3,2,.8,0,0,0,.2,0,.3-.4,1-.5,2.2-1.4,2.9-1.3,1.1-2.4,2.3-3.6,3.4Z"/>
  <path d="M243.5,504.7c0-.2,0-.4-.1-.6,0,0,.2-.2-.3-.2-.3,0,.3-.2.3-.2-.1-.2,0-.4-.1-.6,0-.2-.3-.3-.4-.5,0-.2.2-.4-.2-.6-.3-.1.2-.3,0-.5-.1-.1-.3-.3,0-.5.2-.1.4-.3.2-.4,0,0-.4,0-.4-.2,0,0,.3-.2-.4-.2,0,0,0,0,.1,0,.4-.1.4-.2,0-.3-.3,0-.3,0-.3-.1,0-.2-.1-.3,0-.5,0-.1.2-.3.3-.4,0-.1-.3-.2,0-.4.3-.2.3-.3.2-.4,0,0,.3-.2-.4-.1,0,0,0,0,0,0,.8-.3-.3-.3-.1-.6.2-.2,0-.4,0-.6,0,0,.2-.1-.3-.1-.2,0-.2,0,0,0,.6-.2.2-.3.3-.5,0-.2-.2-.3.2-.6.2-.1.3-.2-.3-.2-.3,0,0-.1,0-.2,0,0-.3,0-.4-.1,0,0,.2-.1.3-.2,0,0,0,0,0,0-.7-.2.1-.5,0-.8-.2-.2-.2-.5-.1-.8,0-.1.2-.3,1.3-.6.5-.1,1.1-.2,1.4-.2.2,0,.5,0,.5,0,.1,0,.3.1.4.2.2.1.8.2.5.4,0,0,.2,0-.3.2,0,0-.1,0,0,0,.8.1.3.4.4.6,0,.2.7.3.5.5.6,0,.5.2.4.3-.6.5-.1.8-.1,1.2,0,.4.1.8.1,1.2,0,0,.4,0,.1.2-.2.1,0,.2,0,.3,0,0,.2.1,0,.2-.6.4-.2.7-.2,1,0,.3,0,.6.2.9.1.2.5.3.4.5,0,0,.3.1-.3.3-.2,0,.3,0,.3.1,0,.1,0,.3,0,.4,0,.2,0,.4,0,.5,0,.1.3.2.4.3,0,.1,0,.2,0,.3,0,.2-.2.3-.3.5,0,.2.3.3,0,.5-.5.3-.2.6-.2.8,0,.3,0,.5.1.8,0,.1-.4.3-.4.5,0,0-1.4.4-1.9.4,0,0-.2,0-.2,0-.5,0-1.2,0-1.2-.3,0-.3,0-.5,0-.7Z"/>
  <path d="M267.3,510.3c-.4,0-.8-.2-1.1-.1-.1,0-.2-.3-.5.2-.1.3-.2-.4-.3-.4-.4,0-.7-.1-1.1-.1-.4,0-.7.2-1.1.2-.4,0-.7-.3-1,0-.3.2-.5-.3-.8-.2-.3,0-.6.1-.9-.2-.2-.2-.4-.4-.6-.4-.1,0-.3.3-.4.3-.1,0-.2-.3-.4.3,0,0,0,0,0-.2,0-.4-.3-.4-.4-.2-.2.3-.2.2-.4.2-.3,0-.6,0-.9-.1-.2,0-.4-.3-.6-.4-.2,0-.5.2-.7-.2-.2-.3-.4-.3-.6-.4-.1,0-.2-.3-.4.3,0,0,0,0,0,0-.2-.9-.7.2-1,0-.3-.3-.7-.2-1.1-.2,0,0-.2-.2-.3.2,0,.2-.2.2-.2,0-.2-.7-.5-.3-.8-.5-.3-.2-.6,0-.9-.5-.1-.2-.3-.4-.5.2-.1.3-.2,0-.3,0-.1,0-.2.3-.3.3,0,0-.1-.3-.2-.4,0,0,0,0,0,0-.5.6-.9-.4-1.3-.2-.5.1-.9,0-1.4-.2-.2,0-.5-.3-.5-1.5,0-.5,0-1.1.2-1.4.1-.2.2-.4.3-.5.2,0,.3-.2.5-.3.3-.1.7-.6.9-.3,0,.1.2-.2.2.3,0,0,0,.1,0,0,.5-.7.9-.1,1.3-.1.4,0,.8-.6,1.1-.3.3-.6.5-.5.7-.2.6.8,1.3.4,2,.6.7.2,1.4.2,2.1.4.1,0,.3-.3.4,0,0,.3.3,0,.4.1.1,0,.3,0,.4,0,.4.7,1.1.4,1.6.6.5.2,1.1.3,1.6.2.3,0,.7-.3,1-.2.1,0,.3-.2.4.4,0,.2.2-.3.3-.3.2,0,.5,0,.7,0,.3,0,.6.1,1,.1.2,0,.4-.2.6-.3.2,0,.4,0,.6,0,.2.1.5.4.7.5.3.1.6-.1.8.2.4.6.9.4,1.4.5.5.1.9.2,1.4.2.3,0,.4.5.7.5.1,0,0,1.5,0,2,0,0,0,.2,0,.2-.3.4-.7,1.1-.9,1-.4-.1-.9-.1-1.3-.2Z"/>
  <path d="M290.2,428.2c-.3,1.4-.7,2.9-1,4.3-.1.5-.5,1-.1,1.7.2.3-.6.7-.6,1.2-.3,1.4-.7,2.7-.9,4-.3,1.3-.4,2.7-.6,4-.3,1.3-.9,2.6-.9,3.9,0,1.1-.7,2-.8,3-.1,1.1-.3,2.3-.8,3.3-.4.7-.8,1.5-.8,2.3,0,.5.2,1,0,1.5-.1.5-.5,1,0,1.5,0,0-.1.2-.2.3-.5.4-.7,1.1-.5,1.6.2.5,0,.9,0,1.3-.2,1.1-.5,2.2-.8,3.3-.2.8-.7,1.6-.9,2.4-.3.8-.2,1.8-.7,2.5-.5.7-.7,1.5-.8,2.3-.1.4-.5.9,0,1.4,0,0,0,.2,0,.3-1.1,1.1-.4,2.6-.9,3.8-.5,1.3-.7,2.7-1,4,0,.4-.4.7,0,1.1.1.2,0,.5-.1.7-.9.8-.7,2-1.1,3-.4,1.1-.4,2.4-1.2,3.4-.3.4-.6,1.1-.2,1.8.2.3-.2.8-.2,1.3,0,.4.1.8,0,1.1,0,.3-.4.5-.5.8,0,0,0,.2,0,.3.2,1.8-1,3.3-1.3,5.1-.2,1.8-.7,3.5-1.2,5.2-.3.9-.7,1.9-2,2.2-.6.2-1.1,0-1.3-.4-.2-.4-.3-.7-.3-1.1,0-.6,0-1.1,0-1.7,0-1.1-.2-2.4.4-3.4.2-.3,0-.8.5-1,0,0,.2-.2.1-.2-.4-1.7.5-3.1.8-4.7.3-1.3,0-2.7.6-4-.4-.9-.1-1.7.2-2.4,1.3-2.4,1.5-5.1,2.2-7.7.7-2.6,1.3-5.3,2-7.9.1-.4-.1-.9.3-1.4.4-.4.3-1.1.5-1.7.1-.5.1-1.1.4-1.6,1.1-1.9,1.3-4.1,1.8-6.1.6-2,1.1-4.1,1.5-6.2.2-1.3.2-2.6.6-3.8.2-.5,0-1.2.7-1.6.2-.1-.1-.7,0-1.1.2-.9.4-1.7.6-2.6.3-1.2.6-2.4.9-3.6.1-.7,0-1.5.2-2.3.1-.8.3-1.5.6-2.3.3-.9.7-1.9,1-2.8.3-1,.3-2.1.8-3,.9-1.7,1.1-3.5,1.6-5.3.5-1.8,1-3.5,1.3-5.3.2-1,.9-1.8,1.1-2.8.1-.5,1.7-.7,2.1-.4,0,0,.2.2.2.2.2,1.1.7,2.1.4,3.2-.5,1.6-.8,3.2-1.2,4.9Z"/>
  <path d="M301.6,401c-.2.5-.4.9-.5,1.4,0,.2-.4.3,0,.6.2.2-.4.1-.5.3-.1.5-.4.9-.5,1.3-.1.4,0,.9-.2,1.4-.1.4-.6.8-.4,1.3.1.5-.5.6-.5,1,0,.4-.1.8-.5,1.1-.3.2-.6.4-.6.7,0,.2.2.5.1.6,0,.2-.4.2,0,.6,0,0,0,0-.2,0-.5,0-.5.2-.3.5.2.3,0,.4,0,.5-.2.4-.4.8-.6,1.1-.2.3-.5.4-.7.6-.2.2,0,.6-.5.7-.4,0-.5.3-.6.6,0,.1-.4.2,0,.6,0,0,0,0,0,0-.9,0-.2.9-.5,1.2-.4.3-.5.8-.7,1.2,0,.1-.3.1,0,.5.1.1,0,.2,0,.2-.7,0-.5.5-.8.8-.3.3-.2.8-.8.9-.3,0-.5.2,0,.7.2.2-.1.3-.1.4,0,.1.2.4.1.5,0,0-.3,0-.4.1,0,0,0,0,0,0,.3.8-.7,1-.8,1.6,0,.6-.4,1.1-.8,1.6-.2.3-.5.5-1.6.2-.5-.1-1-.4-1.2-.6-.2-.2-.3-.4-.3-.5,0-.2,0-.4,0-.6,0-.4-.3-1,0-1.2.1,0,0-.3.4-.2,0,0,.1,0,.1,0-.5-.8.2-1.1.4-1.6.2-.4-.2-1.1.2-1.4-.5-.5-.2-.7,0-.9,1-.5,1-1.5,1.5-2.3.5-.8.8-1.7,1.3-2.5,0-.1-.2-.4.2-.5.3,0,.2-.3.3-.5,0-.2,0-.4.3-.5.9-.3,1-1.2,1.3-1.7.4-.5.7-1.1.8-1.8,0-.4,0-1,.2-1.3.1-.1-.1-.5.5-.4.2,0-.2-.3-.2-.4,0-.3.2-.6.3-.8.2-.4.4-.8.5-1.2,0-.2,0-.6,0-.8,0-.3.1-.5.3-.7.2-.3.5-.5.7-.8.2-.3,0-.7.4-.9.7-.4.7-1.1,1-1.6.3-.5.6-1.1.7-1.7,0-.4.6-.5.8-.8,0-.1,1.5.2,2,.4,0,0,.2.1.2.1.3.5.9,1,.7,1.4-.3.5-.4,1-.6,1.6Z"/>
  <path d="M329,474.7c-1.1-2.4-2.1-4.9-3.2-7.3-.4-.9-.6-1.9-1.5-2.7-.5-.4-.2-1.5-.6-2.3-1-2.3-1.9-4.6-2.9-6.9-1-2.2-2.1-4.4-3-6.6-1-2.2-1.6-4.6-2.7-6.6-1-1.8-1.2-3.6-2-5.4-.8-1.9-1.6-3.8-2.1-5.7-.4-1.4-.6-2.8-1.2-4.2-.4-.8-1-1.5-1.3-2.4-.3-.9-.4-1.9-1.2-2.5,0,0-.1-.5,0-.7,0-1.1-.3-2.2-.9-2.9-.5-.7-.7-1.3-1-2-.7-1.9-1.4-3.9-2-5.8-.4-1.5-.7-3-1.1-4.5-.4-1.5-1.2-3.1-1.4-4.6-.1-1.5-.6-2.9-1-4.2-.2-.8-.2-1.8-1-2.3,0,0-.2-.3-.1-.5,0-1.2-.3-2.3-.8-3.4-.5-1.1-1-2.2-1.2-3.3-.5-2.4-1.3-4.8-2-7.2-.2-.6-.2-1.4-.8-1.8-.2-.2-.4-.8-.4-1.2.1-1.9-.7-3.7-1.1-5.6-.4-2.1-1.2-4.1-1.3-6.4,0-.9-.2-2.2-1-3.1-.4-.4-.4-1.5-.6-2.3-.2-.6-.6-1.2-.8-1.8-.1-.5,0-1.1,0-1.7,0-.2,0-.4-.1-.5-1.3-2.9-1.1-6.2-2-9.2-.9-3.1-1.4-6.2-1.9-9.4-.3-1.7-.5-3.5.4-4.9.4-.6.9-.7,1.4,0,.3.5.7,1.1.9,1.7.3,1,.6,1.9.9,2.8.6,1.9,1.5,3.8,1.6,5.9,0,.7.5,1.3.1,2,0,0,0,.4,0,.5,1.4,2.6,1.5,5.5,2.2,8.3.6,2.4,1.7,4.5,2,6.9.9,1.2,1.2,2.7,1.3,4.1.2,2.4.8,4.7,1.4,7,.6,2.3,1.3,4.6,1.9,6.9.6,2.3,1.3,4.7,1.9,7,.7,2.3,1.3,4.7,2,7,.2.8.8,1.4.8,2.4,0,.9.5,2,.9,3,.3.9.7,1.9.8,2.8.5,3.8,2,7.4,3.2,11,1.2,3.6,2.3,7.2,3.7,10.7.9,2.1,2,4.2,2.6,6.4.3.9,1,1.8.8,2.9,0,.3.7,1,.9,1.6.6,1.5,1.1,3,1.7,4.4.8,2.1,1.6,4.1,2.4,6.2.5,1.2,1.2,2.4,1.8,3.6.6,1.3,1.1,2.6,1.6,3.9.6,1.7,1.1,3.4,1.7,5.1.7,1.7,1.7,3.4,2.1,5.1.8,3.2,2.4,6.1,3.6,9.2,1.3,3,2.5,6,4,9,.8,1.7,1,3.4,1.8,5.1.3.8-.5,2.4-1.1,2.3-.1,0-.3-.1-.4-.2-1.1-1.4-2.5-2.6-3.2-4.5-1.2-2.8-2.4-5.5-3.6-8.3Z"/>
  <path d="M358.3,494.9l-.5,2.2c-.2.7-.3,1.4-.6,2.4-.3.7-.9,1.4-1.4,2.4-.1.3-.5.4-.8.4-.4,0-.7,0-1,.2-1.3.6-2.6,1-3.9,1.6-1.2.5-2.4,1.2-3.7,1.7-1.2.5-2.6.7-3.8,1.4-1,.6-2.1.5-3.1.9-1,.5-2.2.9-3.3,1-.8,0-1.7,0-2.4.4-.5.2-.8.6-1.4.8-.5.1-1.1,0-1.4.7,0,0-.3,0-.4,0-.6-.3-1.3,0-1.7.3-.4.4-.8.4-1.2.5-1.1.3-2.2.6-3.4.8-.8.1-1.7,0-2.6.2-.9.1-1.9.5-2.8.3-.9-.2-1.8-.2-2.7-.2-.3,0-.5-.1-.8-.1,0,0-.1,0-.2,0,0,0-.2,0-.3,0-.2,0-.4,0-.6.2,0,0-.4,0-.5-.1-.2-.2-.5-.3-.7-.5-.2-.1-.5-.2-.7-.4-.2-.1-.5-.2-.7-.3-.2-.1-.4-.2-.7-.4-.4-.2-.8-.5-1.1-1-.3-.4-.4-1-.3-1.5,0-.5.3-1,.5-1.4.4-.5.8-.9,1.1-1.4l1.1-1.3.7-.8c.3-.3.7-.4.6-1,0-.2.2-.5.4-.6,1.2-.3,1.7-1.3,2.5-2,1-.8,1.6-1.8,2.9-2.3.5-.2,1.1-.6,1.2-1.4,0-.4.7-.6,1-.9.2-.3.3-.7.6-1,.2-.2.6-.2.9-.3,0,0,.2-.1.2-.2,1-1.6,2.9-2,4.2-3.2,1.3-1.2,2.9-2.2,4.4-3.1.9-.5,1.8-.9,3-.3.5.3.8.7.6,1.2-.1.4-.3.7-.6,1-.4.4-.8.8-1.2,1.2-.8.8-1.4,1.8-2.5,2.3-.3.1-.5.6-1,.4,0,0-.2,0-.3,0-.8,1.5-2.3,2.1-3.5,3.1-1,.9-1.6,2.2-2.8,2.8-.1.9-.8,1.4-1.5,1.8-2.4,1.2-4,3.4-5.8,5.2l-1.1,1.1c0,.1-.2.2-.3.3,0,0,0,.3,0,.3.1,0,.2.1.3.1,0,0,.1,0,.2-.1,0,0,0,0,0,0,0,0,.2,0,.3.1.4.3.9.1,1.4.1.5,0,.9-.2,1.4,0,2,.4,4-.5,6.1-.8,2.1-.4,4.1-.8,6.1-1.5,1.2-.4,2.3-1.1,3.6-1.3.5,0,1-.6,1.7-.2.2.1.6-.5.9-.6.8-.3,1.7-.5,2.5-.8,1.2-.4,2.3-.7,3.4-1.2.7-.3,1.3-.7,2-1.1.7-.3,1.4-.6,2.2-.8.9-.3,1.9-.4,2.9-.7.5-.2.9-.4,1.4-.6.5-.2.9-.4,1.2-.4.3,0,.4,0,.5-.1.1-.1.3-.3.4-.7,0-.3.2-.8.3-1.2,0-.4.2-.9.3-1.3.5-1.8.9-3.5,1.2-5.3.2-1,.9-1.8,1.1-2.8.1-.5,1.7-.8,2.1-.5,0,0,.2.2.2.2.2,1.1.8,2.1.5,3.2-.4,1.6-.7,3.3-1.1,4.9Z"/>
  <path d="M364.5,496.4c-.1-.2-.3-.3-.5-.5,0,0,0-.3-.4,0-.2.1.2-.3.1-.4-.2-.1-.3-.3-.4-.4-.2-.1-.5,0-.7-.2-.2-.1,0-.4-.5-.4-.3,0,0-.4-.2-.4-.2,0-.4-.1-.3-.4,0-.2.1-.4,0-.4,0,0-.4.2-.4,0,0,0,.1-.3-.4,0,0,0,0,0,0-.1.2-.3.2-.4,0-.2-.2.1-.3,0-.3,0-.1,0-.3-.2-.3-.4,0-.1,0-.4,0-.5,0-.1-.3,0-.2-.3.1-.3,0-.4,0-.5,0,0,.1-.3-.4,0,0,0,0,0,0,0,.5-.7-.4-.1-.4-.4,0-.3-.2-.3-.4-.5,0,0,0-.2-.3,0-.1,0-.2,0-.1,0,.4-.5,0-.4,0-.6,0-.2-.4-.1-.1-.6.1-.2.1-.3-.4,0-.2.2,0,0-.2,0,0,0-.3.1-.3.1,0,0,.1-.2.2-.3,0,0,0,0,0,0-.7.3-.2-.5-.5-.6-.3,0-.4-.3-.5-.6,0-.1,0-.4.8-1.2.4-.4.8-.8,1-.9.2-.1.4-.2.5-.2.1,0,.3,0,.4,0,.3,0,.8-.2.7,0,0,0,.2,0-.1.3,0,0,0,0,0,0,.7-.4.5.2.7.3.2.1.8-.2.7.2.5-.3.5-.2.5,0-.2.7.4.7.6,1.1.2.4.5.6.8.9,0,0,.3-.1.2.1-.1.2,0,.2.1.2,0,0,.2,0,.1.2-.3.7.2.6.4.9.2.3.3.5.6.7.2,0,.6,0,.6.2,0,0,.3,0,0,.4-.1.1.3-.1.3,0,.1,0,.2.2.3.3.1.1.2.3.4.4.1,0,.4,0,.5,0,.1,0,.2.1.2.3,0,.2,0,.4,0,.6,0,.2.4,0,.3.4-.2.5.2.6.3.8.1.2.3.5.6.6.2,0-.1.5,0,.6,0,0-1,1.1-1.4,1.4,0,0-.2.1-.2.1-.4.2-1.1.6-1.1.4-.1-.2-.3-.4-.5-.6Z"/>
  <path d="M387.5,487.8c-.3.2-.7.3-1,.5-.1,0-.4,0-.3.5,0,.3-.3-.2-.5-.2-.3.2-.7.3-1,.5-.3.2-.5.6-.8.8-.3.2-.7,0-.9.5-.1.4-.6,0-.8.3-.2.2-.4.4-.8.3-.3,0-.5-.2-.7,0,0,.1,0,.5-.2.5-.1,0-.4-.1-.2.5,0,0,0,0-.2,0-.3-.3-.4-.2-.4,0,0,.3,0,.3-.2.4-.3.2-.5.3-.8.4-.2,0-.5,0-.7,0-.2,0-.3.4-.7.2-.3-.2-.5,0-.7,0-.1,0-.4-.2-.2.5,0,0,0,0,0,0-.7-.6-.5.5-.9.5-.4,0-.7.3-1,.4,0,0-.3,0-.1.4,0,.2,0,.2-.1.1-.5-.5-.6,0-.9,0-.3,0-.5.4-1,.1-.2-.1-.4-.2-.3.4,0,.3-.2,0-.3.2,0,0,0,.4-.1.4,0,0-.2-.1-.4-.2,0,0,0,0,0,0-.1.8-.9.2-1.2.5-.3.4-.8.5-1.2.6-.3,0-.6,0-1.2-1-.3-.4-.5-.9-.6-1.3,0-.3,0-.5,0-.6,0-.1.2-.3.2-.5.2-.3.2-.9.6-.8.1,0,0-.3.4.1,0,0,0,0,0,0,0-.9.6-.6,1-.8.3-.2.3-.9.8-.8,0-.7.2-.7.4-.6.9.3,1.3-.4,2-.6.7-.2,1.3-.6,1.9-.9.1,0,0-.4.3-.2.2.2.3,0,.4-.1.1,0,.2-.2.4-.2.8.4,1.1-.2,1.6-.4.5-.2,1.1-.3,1.5-.7.3-.2.4-.7.8-.7.2,0,.1-.4.5,0,.1.1,0-.3.1-.4.2-.1.4-.2.6-.3.3-.1.6-.2.9-.4.2-.1.2-.4.4-.6.2-.1.3-.2.6-.3.3,0,.6,0,.8,0,.3,0,.4-.4.8-.3.6.3,1-.2,1.4-.3.5-.1.9-.3,1.3-.6.2-.2.6.2.9,0,.1,0,.9,1.2,1.1,1.7,0,0,0,.2,0,.2,0,.5,0,1.3-.2,1.4-.4.1-.8.4-1.2.5Z"/>
  <path d="M360.9,406.8c.5,1.4,1,2.8,1.5,4.1.2.5.2,1.1.9,1.5.3.2,0,.9.1,1.4.5,1.3.9,2.6,1.5,3.9.5,1.2,1.2,2.4,1.7,3.6.5,1.2.7,2.6,1.4,3.7.6.9.5,2.1,1,3,.5,1,1,2.1,1.1,3.2.1.8.2,1.6.6,2.3.2.4.7.8.9,1.3.2.5,0,1.1.8,1.3,0,0,0,.3,0,.4-.2.7,0,1.3.5,1.6.4.3.5.7.7,1.1.4,1,.8,2.1,1.2,3.2.2.8.3,1.7.5,2.5.2.8.8,1.6.8,2.5,0,.9.3,1.6.6,2.4.2.4,0,1,.8,1.2,0,0,.1.2,0,.3-.3,1.5,1.1,2.3,1.4,3.6.3,1.3.9,2.6,1.4,3.9.1.3,0,.8.6.9.2,0,.3.4.3.6-.2,1.2.5,2,.7,3.1.3,1.2,1,2.2.9,3.5,0,.5.1,1.2.9,1.6.3.2.3.8.5,1.2.2.3.5.6.7.9.1.3,0,.6,0,1,0,0,0,.2,0,.3,1.2,1.4,1,3.3,1.7,4.9.8,1.6,1.3,3.3,1.8,5,.3.9.5,1.9-.4,3-.4.5-.9.6-1.4.4-.3-.2-.7-.5-.8-.8-.3-.5-.6-1-.9-1.4-.6-1-1.5-1.9-1.6-3.1,0-.4-.5-.7,0-1.1,0,0,0-.2,0-.3-1.3-1.2-1.3-2.9-1.9-4.3-.5-1.2-1.5-2.3-1.8-3.6-.8-.5-1-1.3-1.1-2.1-.3-2.7-1.6-5.1-2.5-7.6-.8-2.6-1.9-5.1-2.7-7.6-.2-.4-.6-.7-.5-1.3,0-.6-.3-1.1-.5-1.7-.2-.5-.5-1-.5-1.5-.1-2.2-1.2-4.1-1.9-6.1-.7-2-1.3-4-2.2-5.9-.5-1.2-1.3-2.3-1.6-3.5-.1-.5-.7-1-.3-1.7.1-.2-.5-.5-.6-.9-.4-.8-.6-1.7-.9-2.5-.4-1.2-.8-2.3-1.3-3.5-.3-.7-.8-1.3-1.1-2-.3-.7-.6-1.5-.8-2.2-.3-1-.4-2-.7-2.9-.3-1-.9-1.9-1-2.9-.1-1.9-1-3.5-1.6-5.3-.6-1.7-1.2-3.5-1.9-5.1-.4-.9-.3-2-.6-2.9-.2-.4,1-1.5,1.5-1.5.1,0,.2,0,.3,0,.8.8,1.8,1.4,2.1,2.4.5,1.6,1.1,3.1,1.7,4.7Z"/>
  <path d="M348,340c.2,1.2.4,2.3.7,3.5.1.4,0,.9.6,1.3.3.2-.2.7-.1,1.1.3,1.1.4,2.2.7,3.3.3,1,.7,2.1,1,3.1.3,1,.2,2.2.7,3.1.4.8,0,1.7.4,2.5.3.9.5,1.8.5,2.7,0,.7-.2,1.3,0,1.9.1.4.5.7.6,1.1,0,.4-.1.9.6,1.1,0,0,0,.2,0,.3-.3.5-.2,1,.1,1.3.3.3.4.6.4.9.2.9.4,1.8.5,2.7,0,.7,0,1.4,0,2.1,0,.7.5,1.4.3,2.1-.2.7,0,1.3,0,2,0,.4-.1.8.5,1,0,0,0,.2,0,.2-.6,1.2.6,2,.6,3.1,0,1.1.3,2.2.5,3.3,0,.3,0,.6.4.8.2,0,.2.4.2.5-.5.9,0,1.7,0,2.5,0,1,.5,1.9.1,2.9-.1.4-.2,1,.5,1.4.3.2.1.7.2,1,0,.3.4.5.5.8,0,.2-.2.5-.2.8,0,0,0,.2,0,.2.9,1.3.2,2.8.6,4.2.4,1.4.5,2.8.7,4.2,0,.8,0,1.6-1.1,2.3-.5.3-1,.4-1.4.1-.3-.2-.5-.5-.6-.7-.2-.4-.3-.9-.5-1.3-.3-.9-1-1.7-.8-2.6,0-.3-.3-.6.2-.9,0,0,0-.2,0-.2-1-1.1-.6-2.5-.9-3.7-.2-1.1-1-2-.9-3.1-.7-.5-.7-1.2-.6-1.8.3-2.2-.5-4.3-.7-6.4-.3-2.2-.7-4.3-1-6.4,0-.4-.5-.6-.3-1.1.2-.4-.1-.9-.2-1.4,0-.4-.3-.9-.2-1.3.4-1.8-.3-3.4-.6-5.1-.2-1.7-.5-3.4-.9-5-.3-1-.8-1.9-.9-3,0-.4-.4-.8,0-1.4.1-.2-.4-.5-.5-.8-.2-.7-.3-1.4-.4-2.1-.2-1-.3-1.9-.6-2.9-.2-.6-.5-1.1-.7-1.7-.2-.6-.3-1.2-.4-1.9,0-.8,0-1.6-.1-2.4,0-.8-.5-1.6-.4-2.4.2-1.5-.3-2.9-.6-4.4-.2-1.4-.5-2.9-.9-4.3-.2-.8,0-1.6,0-2.4,0-.4,1.3-1.2,1.8-1.1.1,0,.2,0,.3.1.6.7,1.5,1.2,1.6,2.1.2,1.3.5,2.6.8,4Z"/>
  <g>
    <g>
      <path d="M312.1,206.1c32.1,19,64.2,38.1,96.3,57.1.6-8.9,1.4-15.5,3.3-24.3-7.2-3.1-24.4-9.2-36.5-14-7.3-2.9-14.7-5.4-22.1-8-11.9-4.1-23.9-8.2-36.2-11"/>
      <path d="M338.2,209.9c3.7,1.2,7.3,2.4,11,3.6,1.4.4,2.7,1.2,4.2,1.1.8,0,1.9,1,3.1,1.4,3.4,1.1,6.8,2.4,10.2,3.5,3.3,1.1,6.7,2.2,9.9,3.4,3.2,1.2,6.4,2.8,9.7,3.6,2.8.8,5,2.1,7.7,3,2.8.9,5.6,1.9,8.2,3.1,1.9.9,3.8,1.9,5.7,2.5.6.2,1.2.3,1.9.5h.5c0,.1.2.2.4.2h.4c.6.4,1.2.6,1.8.8.3.1.6.2.8.4l.4.2h.1c0,0,0,.1,0,.2v.2c-.2.6-.4,1.2-.5,1.8-.1.6-.2,1.2-.3,1.8,0,.4,0,.7.1,1,0,.1-.2.6-.3.9-.7,1.3-.9,3-.8,4.2,0,1.2,0,2.1-.2,3.2-.2,1.4-.3,2.9-.5,4.3-.2,1.6-.3,3.1-.5,4.7-.2,2.6-.5,5.2-.7,7.5-1.4-.9-2.9-1.8-4.3-2.7-.9-.6-1.8-1.1-2.8-1.6-.5-.3-1-.6-1.5-.9-1-.6-2-1.2-2.8-1.8-1.7-1.4-3.4-2.4-5.2-3.4-1-.6-2.1-1.6-3.2-1.5-.1,0-.5-.2-.6-.4-2.5-2.4-5.9-3.2-8.8-5.1-2.9-2-6.1-3.7-9.2-5.5-.8-.5-1.6-1.2-2.6-1.2-.3,0-1.2-.5-1.6-.9-2-1.9-4.6-3-6.8-4.5-2.6-1.7-5.4-3-7.9-5-1-.9-2.5-1.9-4.2-2.2-.8-.1-1.9-1.1-2.9-1.7-.8-.4-1.7-.7-2.5-1.1-.7-.4-1.2-1-1.9-1.5-.2-.1-.4-.3-.7-.4-4.2-1.7-7.7-4.8-11.7-7-4-2.2-8-4.6-11.9-7-2.2-1.3-4.3-2.8-5.2-4.7-.4-.8-.1-1.3,1-1,.8.2,1.7.5,2.5.9,1.3.6,2.6,1.3,3.9,1.9,2.6,1.3,5.4,2.4,7.9,4.2.8.6,1.9.9,2.3,1.7,0,.1.4.3.5.4,3.9,1.4,7.2,4,10.8,6,3,1.7,6.3,2.9,9.2,5,2,.4,3.9,1.7,5.5,2.9,5.6,4.1,11.8,7.3,17.8,10.9,6,3.7,12.1,7.2,18.2,10.8,1,.6,2.1.8,3.2,1.8,1,.9,2.6,1.6,3.9,2.4,1.2.7,2.6,1.4,3.6,2.2.6.4,1.1.8,1.7,1.2l1.6,1.1c.3.3.8.5,1.2.8v-1.4c0,0,.2-2,.2-2,0-.7.1-1.4.2-2.1.3-2.8.7-5.5,1.2-8.3l.7-4.1.2-1v-.5c0,0,.1-.2.1-.2v-.3c0,0,.1-.2,0-.2h-.4c0-.1-.2-.1-.2-.1l-.5-.2-2.4-.8c-1.6-.5-3.2-1.1-4.7-1.7-1.3-.6-2.9-.8-4-1.8-.3-.3-1.7-.3-2.6-.7-2.2-.8-4.3-1.6-6.5-2.4-3-1.1-6-2.3-9-3.4-1.8-.7-3.7-1.2-5.6-1.8-1.9-.7-3.8-1.4-5.7-2.2-2.4-1-4.7-2-7.1-2.9-2.5-.9-5.2-1.6-7.6-2.7-4.4-2-8.9-3.3-13.4-4.9-4.5-1.5-9-3-13.5-4.1-2.6-.7-4.8-1.8-7.3-2.4-1.2-.3-2.5-2.1-1.9-2.5.1,0,.3-.1.5-.1,2.6.1,5.1,0,8,.8,4.2,1.2,8.4,2.5,12.6,3.8Z"/>
    </g>
    <path d="M423.7,242c-.3,0-.6-.1-.9,0-.1,0-.2-.3-.4.3,0,.3-.1-.4-.2-.4-.3,0-.6,0-.9,0-.3,0-.6.2-.9.2-.3,0-.5-.3-.8,0-.3.2-.4-.3-.6-.2-.3,0-.5.1-.7-.1-.1-.2-.3-.4-.5-.3-.1,0-.2.4-.4.3-.1,0-.2-.3-.4.3,0,0,0,0,0-.2,0-.4-.2-.4-.3-.1-.1.3-.2.2-.3.2-.2,0-.5,0-.7,0-.2,0-.3-.3-.5-.4-.2,0-.4.2-.5-.1-.1-.3-.3-.3-.5-.3,0,0-.2-.3-.3.3,0,0,0,0,0,0-.2-.9-.6.2-.8,0-.3-.2-.6-.1-.9-.1,0,0-.1-.2-.3.3,0,.2-.1.2-.2,0-.1-.7-.4-.3-.6-.4-.2-.2-.5.1-.7-.4,0-.2-.2-.3-.4.2,0,.3-.2,0-.3,0,0,0-.2.3-.3.3,0,0-.1-.2-.2-.4,0,0,0,0,0,0-.4.6-.7-.3-1.1-.2-.4.1-.8,0-1.1-.1-.2,0-.4-.3-.4-1.4,0-.5,0-1.1.2-1.4,0-.2.2-.4.3-.5.1,0,.3-.2.4-.3.3-.2.5-.7.8-.4,0,0,.2-.2.2.3,0,0,0,.1,0,0,.4-.8.7-.2,1-.2.3,0,.6-.6.9-.3.2-.6.4-.5.5-.3.5.7,1.1.4,1.7.5.6.2,1.1.1,1.7.2,0,0,.2-.3.3,0,0,.3.2,0,.4.1.1,0,.3-.1.3,0,.4.7.9.4,1.3.5.4.1.9.2,1.3.1.3,0,.6-.4.9-.2.1,0,.3-.3.3.3,0,.2.2-.3.3-.3.2,0,.4,0,.6,0,.3,0,.5.1.8,0,.2,0,.4-.2.5-.3.2,0,.3,0,.5,0,.2,0,.4.3.6.4.2,0,.5-.2.6.1.3.6.7.3,1.1.4.4.1.8.2,1.2.1.2,0,.4.5.6.5,0,0,0,1.5,0,2,0,0,0,.2,0,.2-.3.4-.6,1.1-.8,1.1-.3-.1-.7-.1-1-.1Z"/>
    <path d="M422.7,249.6c-.3,0-.6-.1-.9,0-.1,0-.2-.3-.4.3,0,.3-.1-.4-.2-.4-.3,0-.6,0-.9,0-.3,0-.6.2-.9.2-.3,0-.5-.3-.8,0-.3.2-.4-.3-.6-.2-.3,0-.5.1-.7-.1-.1-.2-.3-.4-.5-.3-.1,0-.2.4-.4.3-.1,0-.2-.3-.4.3,0,0,0,0,0-.2,0-.4-.2-.4-.3-.1-.1.3-.2.2-.3.2-.2,0-.5,0-.7,0-.2,0-.3-.3-.5-.4-.2,0-.4.2-.5-.1-.1-.3-.3-.3-.5-.3,0,0-.2-.3-.3.3,0,0,0,0,0,0-.2-.9-.6.2-.8,0-.3-.2-.6-.1-.9-.1,0,0-.1-.2-.3.3,0,.2-.1.2-.2,0-.1-.7-.4-.3-.6-.4-.2-.2-.5.1-.7-.4,0-.2-.2-.3-.4.2,0,.3-.2,0-.3,0,0,0-.2.3-.3.3,0,0-.1-.2-.2-.4,0,0,0,0,0,0-.4.6-.7-.3-1.1-.2-.4.1-.8,0-1.1-.1-.2,0-.4-.3-.4-1.4,0-.5,0-1.1.2-1.4,0-.2.2-.4.3-.5.1,0,.3-.2.4-.3.3-.2.5-.7.8-.4,0,0,.2-.2.2.3,0,0,0,.1,0,0,.4-.8.7-.2,1-.2.3,0,.6-.6.9-.3.2-.6.4-.5.5-.3.5.7,1.1.4,1.7.5.6.2,1.1.1,1.7.2,0,0,.2-.3.3,0,0,.3.2,0,.4.1.1,0,.3-.1.3,0,.4.7.9.4,1.3.5.4.1.9.2,1.3.1.3,0,.6-.4.9-.2.1,0,.3-.3.3.3,0,.2.2-.3.3-.3.2,0,.4,0,.6,0,.3,0,.5.1.8,0,.2,0,.4-.2.5-.3.2,0,.3,0,.5,0,.2,0,.4.3.6.4.2,0,.5-.2.6.1.3.6.7.3,1.1.4.4.1.8.2,1.2.1.2,0,.4.5.6.5,0,0,0,1.5,0,2,0,0,0,.2,0,.2-.3.4-.6,1.1-.8,1.1-.3-.1-.7-.1-1-.1Z"/>
    <path d="M421.6,257.3c-.3,0-.6-.1-.9,0-.1,0-.2-.3-.4.3,0,.3-.1-.4-.2-.4-.3,0-.6,0-.9,0-.3,0-.6.2-.9.2-.3,0-.5-.3-.8,0-.3.2-.4-.3-.6-.2-.3,0-.5.1-.7-.1-.1-.2-.3-.4-.5-.3-.1,0-.2.4-.4.3-.1,0-.2-.3-.4.3,0,0,0,0,0-.2,0-.4-.2-.4-.3-.1-.1.3-.2.2-.3.2-.2,0-.5,0-.7,0-.2,0-.3-.3-.5-.4-.2,0-.4.2-.5-.1-.1-.3-.3-.3-.5-.3,0,0-.2-.3-.3.3,0,0,0,0,0,0-.2-.9-.6.2-.8,0-.3-.2-.6-.1-.9-.1,0,0-.1-.2-.3.3,0,.2-.1.2-.2,0-.1-.7-.4-.3-.6-.4-.2-.2-.5.1-.7-.4,0-.2-.2-.3-.4.2,0,.3-.2,0-.3,0,0,0-.2.3-.3.3,0,0-.1-.2-.2-.4,0,0,0,0,0,0-.4.6-.7-.3-1.1-.2-.4.1-.8,0-1.1-.1-.2,0-.4-.3-.4-1.4,0-.5,0-1.1.2-1.4,0-.2.2-.4.3-.5.1,0,.3-.2.4-.3.3-.2.5-.7.8-.4,0,0,.2-.2.2.3,0,0,0,.1,0,0,.4-.8.7-.2,1-.2.3,0,.6-.6.9-.3.2-.6.4-.5.5-.3.5.7,1.1.4,1.7.5.6.2,1.1.1,1.7.2,0,0,.2-.3.3,0,0,.3.2,0,.4.1.1,0,.3-.1.3,0,.4.7.9.4,1.3.5.4.1.9.2,1.3.1.3,0,.6-.4.9-.2.1,0,.3-.3.3.3,0,.2.2-.3.3-.3.2,0,.4,0,.6,0,.3,0,.5.1.8,0,.2,0,.4-.2.5-.3.2,0,.3,0,.5,0,.2,0,.4.3.6.4.2,0,.5-.2.6.1.3.6.7.3,1.1.4.4.1.8.2,1.2.1.2,0,.4.5.6.5.1,0,0,1.5,0,2,0,0,0,.2,0,.2-.3.4-.6,1.1-.8,1.1-.3-.1-.7-.1-1-.1Z"/>
    <path d="M420.5,265c-.3,0-.6-.1-.9,0-.1,0-.2-.3-.4.3,0,.3-.1-.4-.2-.4-.3,0-.6,0-.9,0-.3,0-.6.2-.9.2-.3,0-.5-.3-.8,0-.3.2-.4-.3-.6-.2-.3,0-.5.1-.7-.1-.1-.2-.3-.4-.5-.3-.1,0-.2.4-.4.3-.1,0-.2-.3-.4.3,0,0,0,0,0-.2,0-.4-.2-.4-.3-.1-.1.3-.2.2-.3.2-.2,0-.5,0-.7,0-.2,0-.3-.3-.5-.4-.2,0-.4.2-.5-.1-.1-.3-.3-.3-.5-.3,0,0-.2-.3-.3.3,0,0,0,0,0,0-.2-.9-.6.2-.8,0-.3-.2-.6-.1-.9-.1,0,0-.1-.2-.3.3,0,.2-.1.2-.2,0-.1-.7-.4-.3-.6-.4-.2-.2-.5.1-.7-.4,0-.2-.2-.3-.4.2,0,.3-.2,0-.3,0,0,0-.2.3-.3.3,0,0-.1-.2-.2-.4,0,0,0,0,0,0-.4.6-.7-.3-1.1-.2-.4.1-.8,0-1.1-.1-.2,0-.4-.3-.4-1.4,0-.5,0-1.1.2-1.4,0-.2.2-.4.3-.5.1,0,.3-.2.4-.3.3-.2.5-.7.8-.4,0,0,.2-.2.2.3,0,0,0,.1,0,0,.4-.8.7-.2,1-.2.3,0,.6-.6.9-.3.2-.6.4-.5.5-.3.5.7,1.1.4,1.7.5.6.2,1.1.1,1.7.2,0,0,.2-.3.3,0,0,.3.2,0,.4.1.1,0,.3-.1.3,0,.4.7.9.4,1.3.5.4.1.9.2,1.3.1.3,0,.6-.4.9-.2.1,0,.3-.3.3.3,0,.2.2-.3.3-.3.2,0,.4,0,.6,0,.3,0,.5.1.8,0,.2,0,.4-.2.5-.3.2,0,.3,0,.5,0,.2,0,.4.3.6.4.2,0,.5-.2.6.1.3.6.7.3,1.1.4.4.1.8.2,1.2.1.2,0,.4.5.6.5,0,0,0,1.5,0,2,0,0,0,.2,0,.2-.3.4-.6,1.1-.8,1.1-.3-.1-.7-.1-1-.1Z"/>
    <path d="M415.6,274.3c-.2-.2-.3-.5-.6-.6,0,0,0-.3-.4,0-.2.1.2-.4,0-.4-.2-.2-.3-.4-.6-.6-.2-.1-.6-.2-.8-.3-.2-.1-.2-.5-.6-.5-.3,0-.1-.4-.4-.5-.2,0-.5-.2-.5-.5,0-.2,0-.5-.2-.5-.1,0-.4.1-.5,0,0,0,0-.4-.5,0,0,0,0,0,0-.2.2-.4,0-.4-.2-.3-.3.1-.3,0-.4,0-.2-.1-.4-.3-.5-.5,0-.2,0-.4-.1-.6,0-.2-.4,0-.3-.4,0-.3,0-.4-.2-.6,0,0,0-.4-.4,0,0,0,0,0,0,0,.4-.8-.6-.2-.6-.5,0-.4-.4-.4-.6-.6,0,0,0-.2-.4,0-.1,0-.2,0-.2,0,.3-.6-.1-.5-.2-.7,0-.3-.5-.3-.3-.8,0-.2,0-.4-.5,0-.2.1-.1-.1-.2-.2,0,0-.3.1-.4,0,0,0,0-.3.1-.4,0,0,0,0,0,0-.8.2-.3-.7-.7-.9-.4-.2-.6-.5-.7-.9,0-.2,0-.5.8-1.3.4-.4.8-.7,1.1-.8.2,0,.5-.2.5-.2.1,0,.3,0,.5,0,.3,0,.8-.1.8.2,0,.1.3,0,0,.3,0,0,0,0,0,0,.8-.3.6.3.8.5.2.2.8,0,.8.3.6-.3.6-.1.6.1-.1.8.6.9.9,1.3.3.4.8.8,1.1,1.2,0,0,.4-.1.3.1-.1.3.1.2.2.3,0,0,.3,0,.2.2-.1.8.5.8.7,1.1.3.4.5.7,1,.9.3.1.7,0,.8.3,0,.1.4,0,0,.5,0,.1.3-.1.4,0,.2,0,.3.2.4.4.2.2.3.4.6.5.1,0,.4,0,.6.1.2,0,.3.2.4.4,0,.2,0,.5.2.7.1.2.5.2.4.5-.1.6.3.8.5,1.1.2.4.4.7.8.9.2.1,0,.6,0,.8,0,0-1.1,1-1.5,1.3,0,0-.2,0-.2.1-.5.1-1.2.4-1.3.2-.1-.3-.4-.5-.6-.8Z"/>
  </g>
  <path d="M267,261.9c-.3.4-.7.7-1,1.1-.1.1-.4.1-.2.6.1.3-.5,0-.5,0-.3.4-.6.7-.9,1-.3.4-.4.8-.6,1.2-.3.4-.8.5-.8,1,0,.5-.6.4-.8.7-.2.4-.4.7-.8.8-.3,0-.6.1-.7.4,0,.2,0,.5,0,.6-.1.1-.5,0,0,.6,0,0-.1,0-.2,0-.4-.1-.6,0-.4.3.1.3,0,.4,0,.5-.2.3-.5.6-.8.8-.2.2-.6.2-.8.4-.2.2-.2.6-.7.6-.4,0-.6.2-.8.4-.1.1-.4,0,0,.6,0,0,0,0,0,0-.9-.2-.4.8-.8,1-.5.2-.7.6-1,1,0,0-.3,0,0,.5,0,.1,0,.2-.1.2-.7-.2-.6.3-1,.5-.4.2-.4.7-1,.7-.3,0-.5,0-.2.6.1.3-.2.2-.3.4,0,.1,0,.4,0,.5,0,0-.3,0-.5,0,0,0,0,0,0,0,0,.9-1.1.7-1.4,1.3-.4.6-1,.9-1.6,1.2-.3.2-.8.2-1.6-.6-.4-.4-.6-.9-.7-1.2,0-.3,0-.5,0-.6,0-.2.2-.4.2-.5.2-.4.1-1,.5-1,.1,0,0-.3.4,0,0,0,.1,0,.1,0-.2-.9.5-.8.9-1.2.3-.3,0-1.1.6-1.2-.3-.6,0-.7.3-.8,1.1-.2,1.4-1.2,2-1.7.7-.6,1.2-1.3,1.8-2,.1-.1,0-.4.3-.4.3,0,.3-.2.4-.4.1-.1.1-.4.4-.4,1,0,1.1-.9,1.7-1.3.5-.5,1-.9,1.4-1.6.2-.4.2-.9.6-1.2.2,0,0-.5.6-.2.2,0,0-.4,0-.5.2-.3.4-.4.6-.7.3-.3.6-.6.8-.9.1-.2.1-.6.2-.8.1-.2.3-.4.5-.6.3-.2.7-.3.9-.5.3-.2.3-.7.7-.7.8-.1,1-.7,1.5-1.1.5-.4.9-.8,1.2-1.4.2-.3.8-.2,1-.4.1-.1,1.3.7,1.7,1.1,0,0,.1.2.1.2.1.6.5,1.3.2,1.5-.4.4-.8.8-1.1,1.2Z"/>
  <path d="M282,244.7c-.5-.4-1-.7-1.5-1-.2-.1-.2-.5-.7-.2-.3.2,0-.5-.2-.6-.2-.1-.5-.3-.7-.5l-.3-.3c-.1,0-.3-.2-.3-.2-.2,0-.3.1-.4.1,0,0,0-.1-.1-.1,0,0,0,0,0,.3.1.3-.2-.1-.2,0,0,0,0,.1,0,.2,0,0-.1.2-.2.3-.1.2-.3.3-.5.4-.3.1-.7.2-.8.5,0,.2,0,.5,0,.7-.1.1-.5.2,0,.7,0,0-.1,0-.2,0-.5,0-.6.1-.5.5.1.3,0,.4,0,.5-.2.4-.5.7-.8,1.1-.2.2-.6.4-.8.6-.3.2-.2.7-.6.8-.4.1-.6.4-.8.6,0,.2-.4.2,0,.6,0,0,0,0,0,0-1,0-.3,1-.7,1.3-.4.4-.6.9-.8,1.4,0,.1-.3.2,0,.5.1.1,0,.3,0,.3-.8,0-.6.6-.9.9-.3.4-.2.9-.9,1.1-.3,0-.5.3,0,.8.2.2-.1.3-.1.5,0,.2.2.4.1.5,0,.1-.3.1-.5.2,0,0,0,0,0,.1.4.9-.7,1.2-.8,1.9,0,.7-.4,1.3-.6,2-.2.4-.5.7-1.6.6-.5,0-1.1-.2-1.3-.4-.2-.2-.4-.4-.4-.5,0-.3,0-.5-.1-.8,0-.5-.4-1.1,0-1.5.1-.1,0-.4.4-.3,0,0,.1,0,.1,0-.5-.9.2-1.3.4-2,.2-.5-.2-1.3.3-1.7-.5-.5-.2-.8.1-1.1,1.1-.8,1.2-2,1.8-2.9.6-1,1.1-2,1.7-3,.1-.2-.1-.5.2-.5.3,0,.3-.4.4-.6.1-.2.1-.5.4-.6,1-.4,1.2-1.4,1.8-2,.6-.7,1.2-1.4,1.6-2.2.3-.5.3-1.1.8-1.5.2-.1,0-.6.7-.3.2,0,0-.4,0-.5,0,0,0-.1.2-.2l.3-.4.7-.7c.6-.7,1.3-1.3,1.9-2h0c0,0,0-.1,0-.1,0,0,0,0,0,0h.2c0,0,.3.2.3.2.2,0,.5.2.7.3.5.3,1,.7,1.5,1.1.3.3.6.6.8.8.1.2.2.3.4.5.3.3.8.3,1,.8.3.9,1.1,1.1,1.6,1.6.6.5,1.2,1,1.8,1.3.4.2.4.8.7,1.1.2.1-.5,1.5-.8,1.8,0,0-.2.1-.2.1-.6.1-1.3.5-1.7.2-.5-.5-1.1-.8-1.7-1.2Z"/>
  <path d="M294.8,242.3c-.3.1-.7.2-.9.4-.1,0-.3-.1-.2.4,0,.3-.3-.3-.4-.2-.3.2-.6.3-.9.5-.3.2-.4.5-.7.7-.2.2-.7,0-.8.5,0,.4-.5,0-.7.3-.2.2-.3.4-.7.4-.2,0-.5-.1-.6,0,0,.1,0,.4,0,.5-.1,0-.4-.1-.1.5,0,0,0,0-.2,0-.3-.3-.4-.2-.4.1,0,.3,0,.3,0,.4-.2.2-.4.3-.6.5-.2,0-.5,0-.7,0-.2,0-.2.4-.5.3-.3-.1-.5,0-.6.1,0,0-.4,0,0,.5,0,0,0,0,0,0-.8-.4-.3.6-.6.6-.4,0-.5.4-.7.6,0,0-.2,0,0,.4,0,.1,0,.2,0,.2-.6-.3-.5.2-.8.3-.3.1-.3.5-.8.4-.2,0-.4,0,0,.5.2.2-.1.1-.2.3,0,0,.1.3,0,.4,0,0-.3,0-.4,0,0,0,0,0,0,0,.2.7-.7.5-.8.9-.1.4-.4.7-.7,1-.2.1-.5.2-1.5-.3-.5-.2-.9-.6-1.1-.8-.1-.2-.3-.4-.3-.5,0-.2,0-.4,0-.5,0-.3-.2-.9.2-1,.1,0,0-.3.4,0,0,0,.1,0,0,0-.4-.8.3-.8.5-1.2.2-.3,0-1,.4-1.1-.3-.6,0-.7.2-.7,1,0,1.1-.9,1.7-1.3.6-.4,1-1,1.6-1.4,0,0,0-.4.2-.3.3.1.3-.2.4-.2.1,0,.1-.3.3-.3.8.2,1-.5,1.5-.7.5-.3,1-.5,1.3-1,.2-.3.3-.7.7-.8.1,0,.1-.4.5,0,.1.1,0-.3,0-.4.2-.2.4-.3.6-.4.3-.2.6-.3.8-.5.2-.1.2-.4.4-.6.2-.2.3-.2.6-.3.3,0,.6,0,.9,0,.3,0,.4-.4.8-.3.6.3,1-.2,1.4-.3.5-.1.9-.3,1.3-.5.2-.2.6.2.9.1.1,0,.7,1.3.8,1.8,0,0,0,.2,0,.2,0,.5,0,1.3-.3,1.3-.4,0-.7.2-1.1.4Z"/>
  <path d="M296.6,246.5c0-.1,0-.2-.1-.3,0,0,.2-.2-.3,0-.3,0,.3-.2.3-.2,0,0,0-.2-.1-.3,0,0-.3-.1-.4-.2,0,0,.2-.3-.2-.3-.3,0,.2-.2,0-.3-.1,0-.3,0,0-.3.1-.1.3-.3.2-.3,0,0-.4,0-.4,0,0,0,.2-.2-.4,0,0,0,0,0,.1,0,.4-.2.3-.2,0-.2-.3,0-.2,0-.3,0,0,0-.1-.1,0-.2,0,0,.2-.2.2-.3,0,0-.3,0,0-.2.3-.2.2-.2.2-.3,0,0,.2-.2-.4,0,0,0,0,0,0,0,.7-.4-.3,0-.2-.3.1-.2,0-.2-.1-.3,0,0,.1-.1-.3,0-.1,0-.2,0,0,0,.5-.4.1-.3.2-.4,0-.1-.2,0,.1-.4.2-.1.2-.2-.3,0-.2.1,0,0-.1,0,0,0-.3.1-.3,0,0,0,.2-.2.3-.2,0,0,0,0,0,0-.6.2,0-.3-.2-.4-.2,0-.2-.2-.2-.3,0,0,.1-.3,1.1-.9.4-.3.9-.6,1.2-.7.2-.1.4-.2.5-.2.1,0,.2,0,.4,0,.2,0,.7-.2.5,0,0,0,.2,0-.2.2,0,0,0,0,0,0,.8-.3.4.1.5.2.1,0,.7-.1.5.1.6-.2.5-.1.4,0-.5.5,0,.5,0,.8,0,.3.2.5.3.7,0,0,.4,0,.1,0-.2.2,0,.1,0,.2,0,0,.2,0,0,.1-.5.4,0,.5,0,.7,0,.2,0,.4.2.5.1,0,.5,0,.4.2,0,0,.3,0-.2.3-.2,0,.3,0,.3,0,0,0,0,.2.1.2,0,.1,0,.2.1.3,0,0,.3,0,.4,0,0,0,.1.1,0,.2,0,.1-.2.3-.2.4,0,.1.3.1,0,.3-.4.3-.1.4-.2.6,0,.2,0,.4.2.5,0,0-.4.3-.3.4,0,0-1.4.4-1.9.5,0,0-.2,0-.2,0-.5,0-1.2.1-1.2,0,0-.1,0-.3,0-.4Z"/>
  <path d="M300.4,249.7c-.2,0-.5.2-.6.3,0,0-.3-.1-.1.4,0,.3-.3-.3-.3-.2-.2.2-.4.2-.6.3-.2.2-.3.4-.4.6-.2.2-.5,0-.5.4,0,.3-.4,0-.5.2,0,.2-.2.4-.5.2-.2,0-.4-.2-.5,0,0,.1,0,.4,0,.4,0,0-.3-.2,0,.4,0,0,0,0-.1,0-.3-.3-.4-.2-.3,0,0,.3,0,.3,0,.3-.1.1-.3.2-.5.3-.1,0-.4,0-.5,0-.2,0-.1.3-.4.2-.3-.2-.4,0-.5,0,0,0-.3-.1,0,.4,0,0,0,0,0,0-.7-.6-.2.5-.5.4-.3,0-.4.2-.6.4,0,0-.2,0,0,.3,0,.1,0,.2,0,.1-.5-.4-.4,0-.6,0-.2,0-.2.4-.6.1-.2-.1-.4-.1,0,.4.1.2-.1,0-.1.2,0,0,.1.3,0,.4,0,0-.2-.1-.3-.2,0,0,0,0,0,0,.2.7-.6.2-.7.5,0,.3-.3.5-.6.6-.1,0-.4,0-1.3-.7-.4-.3-.8-.7-.9-1-.1-.2-.2-.4-.2-.5,0-.1,0-.3,0-.4,0-.3-.2-.8.1-.7.1,0,0-.3.3,0,0,0,0,0,0,0-.3-.8.2-.6.4-.8.1-.2,0-.8.3-.8-.3-.6-.1-.6.1-.5.8.2.9-.4,1.3-.6.4-.2.8-.6,1.2-.8,0,0,0-.4.2-.2.2.2.2,0,.3-.1,0,0,0-.2.2-.1.7.3.8-.2,1.1-.3.4-.1.7-.3.9-.6.1-.2.2-.6.4-.6.1,0,0-.3.4.1.1.1,0-.3,0-.4.1-.1.3-.2.4-.2.2-.1.4-.2.6-.3.1,0,.1-.4.2-.5,0-.1.2-.2.4-.2.2,0,.4,0,.6,0,.2,0,.2-.4.5-.2.5.3.7,0,1-.1.3,0,.6-.2.9-.4.1-.1.5.3.6.2,0,0,.7,1.3.9,1.8,0,0,0,.2,0,.2,0,.5.2,1.2,0,1.2-.3,0-.5.2-.7.3Z"/>
  <path d="M304.2,258.4c-.3.2-.6.3-.8.5,0,0-.3,0-.1.4,0,.3-.3-.2-.4-.1-.2.2-.5.3-.7.5-.2.2-.3.5-.5.8-.2.2-.6.1-.7.5,0,.4-.5,0-.6.3-.1.2-.3.4-.6.4-.2,0-.5-.1-.6,0,0,.1,0,.4,0,.5-.1,0-.4-.1,0,.5,0,0,0,0-.1,0-.3-.3-.4-.2-.3.1,0,.3,0,.3,0,.4-.2.2-.4.3-.6.4-.2,0-.5,0-.6,0-.2,0-.2.4-.5.3-.3-.1-.4,0-.6,0,0,0-.3-.1,0,.5,0,0,0,0,0,0-.7-.5-.3.5-.6.5-.4,0-.5.3-.7.5,0,0-.2,0,0,.4,0,.1,0,.2,0,.1-.6-.4-.5,0-.7.1-.3,0-.3.4-.8.2-.2,0-.4,0-.1.4.1.2-.1.1-.2.2,0,0,0,.3,0,.4,0,0-.2-.1-.4-.1,0,0,0,0,0,0,.1.8-.7.3-.9.7-.2.4-.5.6-.9.7-.2,0-.5,0-1.3-.7-.4-.4-.7-.8-.9-1.1-.1-.2-.2-.5-.2-.5,0-.2,0-.3,0-.5,0-.3,0-.9.3-.8.1,0,0-.3.4,0,0,0,.1,0,0,0-.2-.8.4-.6.6-.9.2-.2,0-.9.4-.9-.3-.6,0-.6.2-.6.9.2,1.1-.5,1.6-.8.5-.3,1-.7,1.5-1,0,0,0-.4.2-.2.2.1.2-.1.3-.2,0,0,.1-.3.3-.2.8.3.9-.3,1.3-.5.4-.2.8-.4,1.1-.8.2-.2.2-.7.5-.7.1,0,0-.4.5,0,.1.1,0-.3,0-.4.1-.2.3-.2.5-.3.2-.2.5-.3.7-.5.1-.1.1-.4.2-.6.1-.1.3-.2.4-.3.2,0,.5,0,.7,0,.2,0,.3-.4.6-.3.6.2.8-.2,1.2-.4.4-.2.7-.3,1-.7.2-.2.6.1.8,0,0,0,1,1.1,1.2,1.6,0,0,0,.2,0,.2,0,.5.3,1.2,0,1.3-.3.1-.6.4-.9.5Z"/>
  <path d="M302.4,257c0-.1,0-.3-.1-.4,0,0,.2-.2-.3,0-.3,0,.3-.2.3-.2-.1-.1,0-.3-.2-.4,0-.1-.3-.2-.4-.2-.1,0,.1-.3-.2-.3-.3,0,.1-.3,0-.3-.2,0-.3-.1,0-.3.1-.1.3-.3.2-.3,0,0-.4,0-.4,0,0,0,.2-.2-.4,0,0,0,0,0,.1,0,.4-.2.3-.3,0-.2-.3,0-.2,0-.3,0,0,0-.1-.2-.1-.3,0,0,.2-.3.2-.4,0-.1-.3,0,0-.3.2-.2.2-.3.2-.3,0,0,.2-.2-.4,0,0,0,0,0,0,0,.7-.5-.3,0-.2-.3.1-.2,0-.3-.2-.4,0,0,.1-.2-.3,0-.1,0-.2,0,0,0,.5-.4.1-.3.1-.4,0-.2-.3,0,0-.5.1-.2.2-.3-.3,0-.2.1,0,0-.1,0,0,0-.3.1-.3.1,0,0,.2-.2.2-.3,0,0,0,0,0,0-.6.2,0-.4-.2-.4-.2,0-.3-.2-.3-.4,0-.1,0-.3.9-1.1.4-.3.8-.7,1.1-.9.2-.1.4-.2.5-.2.1,0,.3,0,.4,0,.2,0,.7-.2.6,0,0,0,.2,0-.2.3,0,0,0,0,0,0,.7-.3.4.1.6.2.1,0,.7-.1.6.2.6-.3.5-.1.4,0-.4.6.1.6.2,1,0,.3.3.5.4.8,0,0,.4,0,.1.1-.2.2,0,.1,0,.2,0,0,.2,0,0,.2-.5.5,0,.6,0,.8,0,.3,0,.5.3.6.1,0,.5,0,.5.3,0,0,.3,0-.2.3-.1,0,.3,0,.3,0,0,0,0,.2.1.3,0,.1,0,.3.2.4,0,0,.3,0,.4.1,0,0,.1.2,0,.3,0,.1-.2.3-.2.4,0,.1.3.2,0,.4-.4.3-.1.5-.1.7,0,.2,0,.4.2.6,0,0-.4.3-.3.4,0,0-1.4.4-1.9.5,0,0-.2,0-.2,0-.5,0-1.2,0-1.2,0,0-.2,0-.3,0-.5Z"/>
  <path d="M304.8,272.3c-.2.2-.5.3-.6.5,0,0-.3,0,0,.4.1.2-.3-.2-.4-.1-.2.2-.4.3-.6.5-.2.2-.2.5-.4.7-.2.2-.5.1-.5.5,0,.3-.4,0-.5.3,0,.2-.2.4-.5.4-.2,0-.5-.1-.5,0,0,.1,0,.4,0,.5,0,0-.3-.1,0,.4,0,0,0,0-.1,0-.3-.3-.4-.2-.3.1,0,.3,0,.3,0,.3-.1.2-.3.3-.5.4-.2,0-.4,0-.6,0-.2,0-.1.4-.4.2-.3-.2-.4,0-.5,0,0,0-.3-.1,0,.4,0,0,0,0,0,0-.7-.5-.2.5-.6.5-.3,0-.4.3-.6.4,0,0-.2,0,0,.3,0,.1,0,.2,0,.1-.5-.4-.5,0-.7,0-.2,0-.3.4-.7.1-.2-.1-.4-.1-.1.4.1.2-.1,0-.2.2,0,0,0,.3,0,.4,0,0-.2-.1-.3-.2,0,0,0,0,0,0,.1.7-.7.2-.8.5-.2.3-.5.5-.8.6-.2,0-.4,0-1.2-.9-.3-.4-.7-.8-.8-1.2,0-.2-.2-.5-.1-.5,0-.1,0-.3,0-.4,0-.3,0-.8.3-.7.1,0,0-.3.3.1,0,0,0,0,0,0-.2-.8.3-.6.5-.8.2-.2,0-.8.4-.8-.3-.6,0-.6.2-.5.8.3.9-.4,1.4-.6.5-.2.8-.6,1.2-.8,0,0,0-.4.2-.2.2.2.2,0,.3-.1,0,0,0-.2.3-.2.7.3.8-.2,1.1-.4.4-.2.7-.4.9-.7.1-.2.1-.6.4-.7.1,0,0-.4.4,0,.1.1,0-.3,0-.4,0-.1.2-.2.4-.3.2-.1.4-.2.5-.4,0-.1,0-.4.1-.5,0-.1.2-.2.3-.3.2,0,.5,0,.6,0,.2,0,.2-.4.5-.3.6.2.7-.2,1-.4.3-.2.6-.3.8-.6.1-.2.6.1.7,0,0,0,1.1,1,1.4,1.4,0,0,.1.2.1.2.1.5.5,1.1.3,1.2-.3.1-.5.4-.7.6Z"/>
  <path d="M302,270.7c0-.2,0-.4-.2-.6,0,0,.2-.2-.4-.1-.3,0,.3-.2.3-.3-.1-.2,0-.4-.2-.5-.1-.2-.4-.3-.5-.4-.1-.1.1-.4-.3-.5-.3,0,.1-.3,0-.4-.2-.1-.3-.2-.1-.4.1-.2.3-.3.2-.4,0,0-.4,0-.4,0,0,0,.2-.2-.4,0,0,0,0,0,.1,0,.4-.2.3-.3,0-.2-.3,0-.3,0-.3,0,0-.1-.2-.3-.1-.4,0-.1.2-.3.2-.4,0-.1-.3-.2,0-.4.3-.2.2-.3.2-.4,0,0,.2-.2-.4,0,0,0,0,0,0,0,.7-.4-.4-.2-.2-.5.1-.2,0-.4-.1-.5,0,0,.1-.2-.3,0-.2,0-.2,0,0,0,.6-.3.1-.3.2-.5,0-.2-.3-.2.2-.6.2-.1.3-.3-.3-.1-.3,0,0-.1-.1-.1,0,0-.3,0-.4,0,0,0,.2-.1.3-.2,0,0,0,0,0,0-.7,0,0-.5-.2-.7-.2-.2-.2-.4-.2-.7,0-.1.1-.3,1.2-.8.5-.2,1-.4,1.3-.4.2,0,.5,0,.5,0,.1,0,.3,0,.4.1.2,0,.8,0,.6.3,0,0,.2,0-.2.2,0,0,0,0,0,0,.8,0,.4.3.5.5.1.2.8.1.6.4.6-.1.6,0,.4.2-.5.5,0,.7,0,1.1,0,.4.2.7.3,1,0,0,.4,0,.1.2-.2.1,0,.2,0,.2,0,0,.2,0,0,.2-.5.5,0,.6,0,.9,0,.3,0,.6.3.8.1.1.5.2.5.4,0,0,.3,0-.2.3-.2,0,.3,0,.3,0,0,0,0,.2.1.3,0,.2,0,.3.2.5,0,0,.3.1.4.2,0,0,.1.2.1.3,0,.2-.2.3-.2.5,0,.2.3.2,0,.4-.4.4,0,.5,0,.8,0,.2,0,.5.2.7.1.1-.3.4-.3.5,0,0-1.4.6-1.8.7,0,0-.2,0-.2,0-.5,0-1.2.1-1.2,0,0-.2-.1-.4-.2-.6Z"/>
  <path d="M257.4,316.2c.8-.5,1.6-1,2.2-1.6.3-.2.7-.2.7-.9,0-.3.6,0,.9-.2.7-.6,1.4-1.1,2-1.7.6-.6,1.1-1.3,1.7-1.9.6-.6,1.4-1,1.8-1.7.3-.7,1.1-.8,1.5-1.3.4-.6.9-1.1,1.5-1.5.5-.2,1-.5,1.2-.9.2-.3.1-.7.4-.9.2-.2.7-.3.4-.9,0,0,.2,0,.3,0,.5,0,.8-.3.8-.7,0-.4.2-.6.3-.8.4-.6.9-1.1,1.4-1.6.4-.4.9-.6,1.3-1,.4-.4.6-1,1.1-1.2.6-.2.9-.6,1.2-1,.2-.2.6-.3.3-.9,0,0,0-.1.1-.1,1.2-.1.8-1.4,1.5-2,.7-.6,1.1-1.3,1.6-2.1.1-.2.4-.3.2-.7,0-.2,0-.4.2-.4.9-.1,1-.9,1.5-1.4.5-.5.8-1.3,1.6-1.7.4-.1.7-.4.5-1.1-.1-.3.3-.4.4-.7,0-.2,0-.6.1-.7.1-.2.4-.2.6-.3,0,0,.1,0,.1-.2.1-1.3,1.5-1.7,2-2.7.5-1,1.2-1.9,1.9-2.8.4-.5.9-.9,2.1-.6.5.1,1,.5,1.1.9,0,.3.1.6,0,.8-.1.4-.2.7-.3,1.1-.3.7-.2,1.6-.9,2.1-.2.1-.1.5-.6.4,0,0-.2,0-.2,0,0,1.3-.9,1.8-1.5,2.7-.5.7-.4,1.8-1.2,2.3.2.8-.2,1.2-.6,1.4-1.6,1-2.2,2.7-3.3,4-1.1,1.3-2.1,2.8-3.3,4.1-.2.2,0,.7-.5.8-.4,0-.5.6-.8.9-.2.3-.4.6-.7.8-1.4.6-2,1.9-3,2.9-1,1-1.9,2-2.8,3.1-.5.7-.8,1.5-1.5,2-.3.2-.3.7-1,.6-.2,0-.1.5-.3.7-.4.4-.8.8-1.2,1.2-.6.6-1.2,1.1-1.8,1.7-.3.4-.5.9-.9,1.2-.3.4-.8.7-1.2,1-.6.4-1.2.6-1.7,1-.6.4-1,1-1.6,1.2-1.3.3-2.1,1.3-3.1,1.9-1,.6-2,1.3-3,2-.5.4-1.3.3-1.9.7-.3.2-1.4-.9-1.5-1.4,0,0,0-.2,0-.3.3-.7.4-1.7,1-2,.5-.2.9-.5,1.4-.8l1.3-.9Z"/>
  <path d="M238.3,321.5c-1.9-.8-3.7-1.9-5.4-3.1-.6-.4-1-1.2-2-1.3-.5,0-.5-1.1-1-1.6-1.3-1.4-2.3-3.1-3.3-4.7-.9-1.6-1.8-3.3-2.3-5-.6-1.8-.6-3.6-1.1-5.3-.4-1.5,0-2.9-.2-4.3-.2-1.5-.2-3.1.1-4.5.2-1.1.5-2.1.5-3.1,0-.7-.2-1.3-.1-2,.1-.7.5-1.4,0-2,0,0,.1-.3.2-.5.5-.6.7-1.5.5-2.2-.2-.6,0-1.1.1-1.7.3-1.5.6-2.9,1.1-4.3.4-1.1.9-2.1,1.3-3.1.4-1.1.6-2.3,1.2-3.2.7-.9,1-1.8,1.4-2.8.2-.6.7-1.1.3-1.8,0,0,0-.3.1-.3,1.4-1.2,1.1-3.2,2-4.7.5-.8.9-1.6,1.3-2.4.4-.8.8-1.6,1.2-2.4.2-.4.6-.8.4-1.4,0-.2.2-.7.4-.8,1.2-.8,1.6-2.3,2.3-3.4.9-1.2,1.5-2.7,2.7-3.8.5-.4,1.1-1.1,1.1-2.1,0-.5.6-.9.9-1.4.2-.4.3-.9.5-1.3.2-.3.7-.5,1-.8,0,0,.2-.2.2-.3.4-1.1,1.1-2,1.9-2.8.8-.8,1.6-1.6,2.3-2.5,1.3-1.9,3-3.6,4.6-5.2,1-.9,2-1.7,3.4-1.4.6.1,1,.5.9,1.1-.1.4-.3.9-.5,1.3-.4.6-.8,1.1-1.3,1.7-.8,1.2-1.4,2.5-2.6,3.5-.4.3-.5.9-1.1.8,0,0-.2.1-.3.2-.7,2-2.3,3.3-3.5,4.9-.9,1.4-1.4,3.1-2.6,4.3,0,1.1-.7,2-1.4,2.7-1.2,1.2-2.1,2.6-3,4.1l-2.4,4.4c-.8,1.5-1.6,3-2.3,4.5-.4.8-.7,1.5-1.1,2.3l-1,2.3c-.2.5-.1,1.1-.6,1.6-.5.5-.6,1.3-.8,2-.2.6-.4,1.3-.7,1.9-.7,1.1-1.2,2.4-1.6,3.7-.3,1.3-.7,2.6-1,3.9-.3,1.3-.7,2.6-.9,3.8-.2,1.3-.5,2.6-.6,3.9-.1,1.6,0,3.2-.2,4.8-.1.7.2,1.4-.4,2.1-.2.2.3.8.3,1.3,0,1.1,0,2.2.1,3.2.1,1.5.3,3,.6,4.4.1.4.3.8.5,1.3.2.4.4.8.5,1.2.3.9.6,1.7,1,2.6l.6,1.6c.2.5.4,1,.7,1.5.6,1,1.6,1.8,2.2,2.8,1.1,1.9,3.1,3,4.9,4,1.9,1,3.9,1.6,6,1.5.6,0,1.1,0,1.7.1.5,0,1.1,0,1.7,0,.5-.1,1.7,1,1.7,1.6,0,.1,0,.2-.2.3-.6.4-1.1.9-1.8,1.2-.3.2-.7.3-1,.5-.4,0-.8.1-1.2.2-2.4,0-4.8-.4-7-1.3Z"/>
  <path d="M322.5,384.2c-4.6,2.6-9.2,5-14,7.3-1.8.8-3.7,1.4-5.4,2.7-.4.3-1.1.5-1.9.7-.8.2-1.7.4-2.6.7-4.6,1.8-9.3,3.2-14.1,4.4-4.7,1.2-9.4,2.2-14.2,2.7-4.8.5-9.7.2-14.3.2-2,0-3.9-.2-5.8-.6-1.9-.3-3.7-.8-5.6-1.1-4-.8-8.1-2-11.7-3.8-1.3-.6-2.6-1.4-3.9-2-1.3-.7-2.5-1.5-3.8-2.1-1.6-.9-3.2-1.6-4.8-2.8-1.5-1.2-2.9-2.8-4.5-3.6-.1,0-.6-.8-.8-1.2-1-1.9-2.4-4-3.3-5.6-.9-1.5-1.4-3.1-1.6-4.8-.7-4.7.6-9.2,2.6-13.1.8-1.4,1.6-2.8,2.6-4.1,1-1.3,2.1-2.6,3.5-3.7.7-.6,1.5-1.1,2.4-1.6.4-.2.9-.4,1.3-.6.5-.2.9-.3,1.4-.4,1.9-.5,3.8-.4,5.5,0,3.3,1,6.1,2.5,8.3,5,.3.3.6.7.9,1.1.3.4.5.8.8,1.2.5.8.9,1.6,1.5,2.2.1.1.3.8.4,1.1.3,2.6.5,5.1.4,7.7-.2,2.5-.7,5.1-2,7.3-2.6,4.6-6.4,8.5-10.6,11.3-1.1.8-2.5,1.4-3.3,2.4-.3.4-1.6,1.1-2.2,1.3-1.8.6-3.7,1.3-5.6,1.9-1.9.6-3.9,1.1-5.9,1.2-4.6.2-9.2-.6-13.1-2.4-1.7-.7-4-1.7-6.2-1.9-1.1-.1-2.9-1.2-4.4-1.9-1.2-.5-2.5-.9-3.6-1.6-1-.6-1.8-1.4-2.7-2.2-.3-.2-.6-.5-.9-.7-2.8-1.8-5.2-4.4-6.6-7.6l-.5-1.2-.4-1.2c-.3-.8-.5-1.7-.7-2.5-.4-1.7-.5-3.3-.6-5-.2-3.3.1-6.5.4-9.7.3-3.1.8-6.4,1.7-9.6.5-1.8,1.2-3.5,2.2-5,1-1.5,2.2-2.6,3.4-3.2,1.1-.5,1.5,0,.8,1.2-.4.9-.9,2-1.4,3.1-.8,1.7-1.3,3.5-1.6,5.3-.8,3.7-.6,7.7-1.3,11.7-.2,1.3,0,2.7-.5,3.7,0,.1-.1.6,0,.9.4,2.6.7,5.2,1.6,7.5.9,2.3,2.2,4.6,4,6.4,1.6,1.5,3.4,2.7,5.4,3.8,1.9,1.1,4,2,6,3,2.6.4,5.3,1.5,7.8,2.5,4.2,1.7,8.6,2.6,12.8,1.9,4.2-.7,8.3-2.8,12.1-5.1,3.8-2.4,7.3-5.4,9.5-9.1,2.2-3.6,3.1-8.1,2.2-12.1-.3-1.4-1.1-2.3-1.7-3.8-.3-.7-.8-1.3-1.5-1.9-.7-.6-1.5-1.1-2.2-1.5-1.4-.8-3-1.1-4.5-1.3-1.5-.2-3,0-4.4.6-1.4.7-2.6,1.8-3.6,3.2-1,1.4-1.9,2.9-2.7,4.5-.7,1.6-1.4,3.2-1.7,4.9-.4,1.6-.6,3.3-.4,5,.2,1.6.6,3.3,1.3,4.8,1.4,3.1,3.8,5.7,6.6,7.8,1.7,1.3,3.6,2.4,5.5,3.4,1,.5,1.9,1,2.9,1.5,1,.5,2,.9,3,1.4.8.4,1.8.7,2.7,1,.9.4,1.8.7,2.6,1.3.5.3,2.3.5,3.4.7,1.5.4,2.9.7,4.4,1,.7.1,1.5.3,2.2.4l2.2.3c4.2.6,8.4.9,12.6.7,2.6-.1,5.1-.5,7.6-.8,2.7-.4,5.3-.8,8-1.2,1.7-.3,3.4-.6,5-.9,1.7-.4,3.3-.7,5-1.2,3.4-.9,6.8-2.5,10.1-3.5,6.1-1.9,11.8-5,17.4-8,5.6-3,11.1-6.3,16.4-9.9,3-2,6-3.4,9-5.4,1.4-.9,4-1,3.8-.2,0,.2-.2.4-.4.6-2.6,2.3-4.9,4.7-8.2,6.9-5,3.2-10,6.4-15.2,9.3Z" fill="#00b4e9"/>
  <g>
    <path d="M358.2,360.8c7.9-3.6,8.3-15.6,15.5-20.5,7-4.7,16.8-.8,24.6-3.8-4.1,2.4-7.4,6.1-9.3,10.4-1.2,2.5-2,5.3-4,7.2-1,.9-2.2,1.5-3.4,2.1-5.4,2.4-11.3,3.5-17.2,3.1-1.9-.1-4.1-.4-5.7.8" fill="#00b4e9"/>
    <path d="M367.7,357.5c1.6,0,3.1-.2,4.6-.5.6-.1,1.2,0,1.7-.6.2-.3.9.2,1.4,0,1.4-.4,2.8-.8,4.1-1.4,1.3-.6,2.5-1.4,3.4-2.1.4-.4.8-.7,1.2-1.1.4-.4.7-1,.8-1.6.2-1.1,1.1-1.8,1.5-3,.4-1.2,1-2.6,1.9-3.6.7-.7,1.4-1.4,1.9-2.2,0-.1.1-.3.2-.4,0,0,0-.1,0-.2,0,0,0-.1,0-.2,0,0,.2,0,.2,0,0,0,0,0-.5,0,0,0,0,0,.1,0,0,0,0,0,.1,0,.7-.2.9-.4.3-.2-.5.2-.5.2-.5.2h0s0,0,0,0c.1,0,.5-.3.4-.4,0,0,0,0-.1,0-.2,0-.3.2-.3,0,0,0,0-.1,0-.2,0,0,0,0,0,0h0s0,0,0,0h-.2c-.5,0-.9,0-1.4,0-.5,0-1.1-.3-1.5.3,0,0-.2,0-.3,0-1.4-.8-2.8.2-4.2.1-1.4-.1-2.8.2-4.1.6-.3.1-.8,0-.9.6,0,.2-.3.3-.5.3-.6-.1-1,0-1.4.3-.4.2-.7.6-1.1.9-.5.3-.8.8-1.2,1.1-.4.5-.8.8-1.3,1.2-.5.3-1,.8-.8,1.7,0,.4-.5.8-.6,1.2-.1.4,0,.8-.2,1.1-.1.3-.5.5-.7.7,0,0-.1.2-.1.3-.3,2-1.9,3.4-2.8,5.3-.9,1.9-2.2,3.8-4.1,5.2-.5.4-1.1.7-1.7.9-.6.1-1.3,0-1.9-.2-.5-.3-.7-.8-.5-1.3.2-.4.4-.7.6-1,.4-.4.8-.8,1.1-1.3.7-.9,1-2,1.9-2.9.3-.3.3-.8.9-.8,0,0,.2-.1.2-.2.2-1.8,1.4-3.1,2.1-4.7.6-1.4.7-3,1.8-4.3,0-.5,0-1,.3-1.5.3-.4.6-.8,1-1.1,1.3-1.1,2.4-2.4,3.8-3.5.7-.6,1.4-1,2.2-1.5.8-.4,1.6-.8,2.4-1,1.7-.5,3.3-.7,4.9-.9,1.6-.1,3.2-.1,4.7-.1.5,0,1-.3,1.6,0,.6.3,1.3,0,1.9,0,.2,0,.4,0,.7,0h.9c.6-.1,1.2-.2,1.7-.1h.7c.3,0,.5,0,.8,0l1.8-.3c.1.2.3.4.4.5.1.1.2.2.3.3.2.2.5.4.7.4.2,0,.4.2.6.2h.5s0,0,0,0c-.4.4-.9,1-.6,2.7l-1.6,1.2-1.2,1.1c-.4.5-.8.9-1.2,1.4,0,.1-.2.2-.3.4v.2c-.1,0-.2.1-.2.1,0,.1-.2.3-.2.4-.3.6-.6,1.1-1,1.7-.3.5-.3,1.1-1.1,1.3-.2,0,0,.7-.2,1.1-.3.8-.7,1.7-1.1,2.7-.6,1.3-1.3,2.7-2.4,4.1-.6.8-1.3,1.7-2.2,2.3-.9.6-1.8,1.1-2.7,1.4-1.1.4-2.3.6-3.4,1-1.2.3-2.3.9-3.5.9-2.2,0-4.3.6-6.4.6-1.1,0-2.1,0-3.2,0-1.1,0-2.2,0-3.1,0-1,0-1.9-.4-2.7-.2-.2,0-.5-.2-.9-.4-.4-.3-.8-.6-.8-.9,0-.1,0-.2,0-.3.8-1.1,2.2-2.1,3.6-2,1.1,0,2,.1,2.9.2.9,0,1.8,0,2.6,0Z" fill="#00b4e9"/>
  </g>
  <path d="M377.2,242.3c0-.3.1-.6.1-.8,0-.1.3-.2-.2-.4-.3-.1.4,0,.4-.2,0-.3.1-.5,0-.8,0-.3-.2-.6-.2-.8,0-.3.3-.5,0-.8-.2-.3.3-.4.2-.6,0-.2-.1-.5.1-.6.2-.1.4-.2.3-.4,0-.1-.4-.2-.3-.3,0,0,.3-.2-.3-.3,0,0,0,0,.2,0,.4,0,.4-.2.1-.3-.3-.1-.2-.2-.2-.3,0-.2,0-.4,0-.6,0-.2.3-.3.4-.4,0-.2-.2-.4.1-.5.3-.1.3-.3.3-.4,0,0,.3-.2-.3-.3,0,0,0,0,0,0,.9-.1-.2-.5,0-.8.2-.2.1-.5.1-.8,0,0,.2-.1-.3-.2-.2,0-.2-.1,0-.1.6-.1.3-.4.4-.6.1-.2-.1-.5.4-.7.2,0,.3-.2-.2-.4-.3,0,0-.2,0-.3,0,0-.3-.2-.3-.2,0,0,.2,0,.4-.1,0,0,0,0,0,0-.6-.4.3-.6.1-1-.1-.4,0-.7,0-1,0-.2.3-.4,1.4-.4.5,0,1.1,0,1.4.2.2,0,.5.2.5.2,0,.1.2.2.3.4.2.2.7.5.4.7,0,0,.2.2-.3.2,0,0-.1,0,0,0,.8.4.2.7.2,1,0,.3.6.6.3.8.6.2.5.4.3.5-.7.4-.3,1-.5,1.5-.2.5-.1,1.1-.2,1.6,0,0,.3.2,0,.3-.3,0,0,.2-.1.3,0,.1.1.2,0,.3-.7.3-.4.8-.5,1.2-.1.4-.3.8-.2,1.2,0,.3.4.6.2.8,0,0,.2.3-.4.3-.2,0,.3.2.3.2,0,.2,0,.3,0,.5,0,.2-.1.5,0,.7,0,.2.2.3.3.5,0,.2,0,.3,0,.5-.1.2-.3.3-.4.5,0,.2.1.4-.2.6-.6.3-.4.7-.5,1-.1.3-.2.7-.2,1.1,0,.2-.5.3-.5.5,0,0-1.5,0-2-.2,0,0-.2,0-.2,0-.4-.3-1.1-.6-1-.8.1-.3.1-.6.2-1Z" fill="#00b4e9"/>
  <path d="M390.2,249c0-.3.2-.6.2-.9,0-.1.3-.2-.2-.4-.3-.1.4,0,.4-.2,0-.3.1-.6,0-.9,0-.3-.2-.6-.2-.9,0-.3.3-.5,0-.8-.3-.3.3-.4.1-.7-.1-.2-.2-.5,0-.7.2-.2.4-.3.3-.5,0-.1-.4-.2-.4-.3,0-.1.3-.2-.3-.3,0,0,0,0,.1,0,.4-.1.4-.3.1-.4-.3,0-.2-.2-.3-.3,0-.3,0-.5,0-.8,0-.2.3-.4.3-.6,0-.2-.2-.4,0-.6.3-.2.3-.4.3-.6,0-.1.3-.2-.4-.3,0,0,0,0,0,0,.8-.3-.3-.6,0-.9.2-.3,0-.6,0-.9,0,0,.2-.2-.3-.2-.2,0-.2-.1,0-.2.6-.2.2-.5.3-.7.1-.3-.2-.5.3-.8.2-.1.3-.3-.3-.4-.3,0,0-.2,0-.3,0,0-.3-.2-.3-.2,0,0,.2-.1.3-.2,0,0,0,0,0,0-.7-.4.2-.8,0-1.2-.2-.4-.1-.6,0-.6,0,0,.2-.1,1.2-.7.4-.3.9-.6,1.2-.6.3,0,.5,0,.6,0,.2.1.4.3.5.4.3.3.9.7.6,1,0,.1.2.2-.3.3,0,0-.1,0,0,0,.8.4.3.7.3,1.1,0,.3.7.6.4.9.6.2.5.4.3.5-.7.6-.2,1.2-.3,1.8,0,.6,0,1.2,0,1.9,0,.1.4.2,0,.3-.3.1,0,.3,0,.4,0,.1.1.3,0,.4-.7.5-.3,1-.3,1.5,0,.5-.1,1,0,1.5,0,.3.4.6.3.9,0,.1.3.3-.3.4-.2,0,.3.2.3.3,0,.2,0,.4,0,.6,0,.3,0,.6,0,.9,0,.2.2.4.3.6,0,.2,0,.4,0,.6-.1.2-.3.5-.4.7,0,.2.1.6-.2.8-.6.4-.4.8-.6,1.3-.2.4-.3.9-.4,1.3,0,.3-.6.3-.7.6,0,.1-1.5-.3-1.9-.5,0,0-.2,0-.2-.1-.4-.4-1-.8-.9-1,.2-.3.2-.6.3-1Z" fill="#00b4e9"/>
  <path d="M252.7,114.4c-.2-.2-.3-.5-.5-.7,0,0,0-.3-.4,0-.3.1.2-.3.1-.4-.2-.2-.3-.4-.5-.6-.2-.2-.5-.3-.7-.4-.2-.2,0-.5-.5-.6-.3,0,0-.4-.2-.5-.2-.1-.4-.2-.3-.5,0-.2.2-.5,0-.5-.1,0-.4,0-.5,0,0,0,.1-.3-.4,0,0,0,0,0,0-.1.3-.3.2-.4,0-.3-.3,0-.3,0-.3,0-.1-.2-.3-.3-.4-.5,0-.2,0-.4,0-.6,0-.2-.4-.2-.2-.5.2-.3,0-.4,0-.5,0,0,.1-.3-.4,0,0,0,0,0,0,0,.5-.7-.5-.3-.5-.6,0-.3-.2-.5-.4-.7,0,0,0-.2-.3,0-.1,0-.2,0-.1,0,.4-.5,0-.5,0-.7,0-.3-.4-.3-.1-.7.1-.2.1-.4-.4-.1-.3.1,0-.1-.2-.2,0,0-.3,0-.4,0,0,0,.1-.2.2-.3,0,0,0,0,0,0-.7.1-.2-.7-.5-.8-.3-.2-.5-.5-.6-.8,0-.2,0-.4.9-1.2.4-.3.8-.7,1.2-.8.2,0,.5-.2.5-.1.1,0,.3,0,.4,0,.3,0,.8,0,.7.3,0,.1.3,0-.1.3,0,0,0,0,0,0,.8-.2.6.3.8.5.2.2.8,0,.8.4.6-.2.6,0,.5.2-.3.8.4,1,.6,1.4.2.5.6.8.8,1.3,0,0,.4,0,.2.2-.2.2,0,.2.1.3,0,0,.2,0,.2.3-.3.7.2.8.4,1.2.2.4.3.7.7,1,.2.1.6.1.7.4,0,.1.4,0,0,.4-.1.1.3,0,.4,0,.1.1.2.3.3.4.1.2.2.4.4.6.1,0,.4,0,.5.2.1,0,.2.2.3.4,0,.2,0,.5,0,.7,0,.2.4.2.3.5-.2.6.2.7.3,1,.1.3.3.6.6.8.2.1-.2.5,0,.7,0,0-1.1,1-1.6,1.2,0,0-.2,0-.2,0-.5.1-1.2.4-1.3.2-.1-.3-.3-.5-.5-.8Z" fill="#00b4e9"/>
  <path d="M269.8,106.2c0-.3,0-.6-.2-.9,0-.1.2-.3-.4-.3-.3,0,.3-.2.3-.3-.1-.3,0-.6-.2-.8-.1-.3-.4-.5-.5-.8-.1-.3.2-.6-.2-.8-.3-.2.2-.5,0-.7-.2-.2-.3-.4,0-.7.2-.2.4-.4.2-.5,0,0-.4-.2-.4-.3,0-.1.3-.3-.4-.3,0,0,0,0,.1,0,.4-.2.4-.3,0-.4-.3,0-.3-.1-.3-.2,0-.2-.1-.5,0-.7,0-.2.2-.4.3-.6,0-.2-.3-.4,0-.6.3-.2.3-.4.2-.5,0,0,.3-.2-.4-.3,0,0,0,0,0,0,.8-.3-.3-.5-.1-.8.2-.3,0-.6,0-.9,0,0,.2-.2-.3-.2-.2,0-.2,0,0-.1.6-.2.2-.5.3-.7.1-.3-.2-.5.3-.8.2-.1.3-.3-.3-.4-.3,0,0-.2,0-.3,0,0-.3-.1-.3-.2,0,0,.2-.1.3-.2,0,0,0,0,0,0-.7-.3.2-.7,0-1.1-.2-.4-.1-.7,0-1.1,0-.2.2-.4,1.4-.6.5,0,1.1,0,1.4,0,.2,0,.5.1.5.2,0,.1.2.2.3.3.2.2.7.4.4.7,0,0,.2.2-.3.2,0,0-.1,0,0,0,.8.3.3.6.4.9,0,.3.7.5.4.8.6.1.5.3.3.5-.6.6-.2,1.1-.2,1.6,0,.5,0,1.1,0,1.6,0,0,.4.1,0,.3-.3.1,0,.2,0,.4,0,.1.2.2,0,.3-.6.5-.2.9-.2,1.3,0,.4,0,.9.2,1.3.1.2.5.5.4.7,0,.1.3.2-.3.4-.2,0,.3,0,.3.2,0,.2,0,.3,0,.5,0,.2,0,.5.1.7,0,.1.3.3.4.4,0,.1.1.3,0,.5,0,.2-.2.4-.3.6,0,.2.3.4,0,.6-.4.4-.1.8-.1,1.1,0,.4,0,.7.2,1.1.1.2-.4.5-.3.7,0,0-1.4.5-1.9.6,0,0-.2,0-.2,0-.5-.1-1.2-.2-1.2-.4,0-.4-.1-.7-.2-1Z" fill="#00b4e9"/>
  <path d="M287.3,105c0-.3.2-.6.2-.8,0-.1.3-.2-.2-.4-.3-.1.4,0,.4-.2,0-.3.1-.5.1-.8,0-.3-.2-.6-.2-.8,0-.3.3-.5,0-.8-.2-.3.3-.4.2-.6,0-.2-.1-.5.2-.6.2-.1.4-.2.4-.4,0-.1-.3-.3-.3-.4,0,0,.3-.1-.3-.4,0,0,0,0,.2,0,.4,0,.4-.2.2-.3-.2-.1-.2-.2-.2-.3,0-.2,0-.4.1-.6,0-.2.3-.3.4-.4,0-.2-.1-.4.2-.5.3,0,.3-.2.4-.4,0,0,.3-.1-.3-.3,0,0,0,0,0,0,.9,0-.2-.5,0-.8.3-.2.2-.5.2-.8,0,0,.2-.1-.2-.3-.2,0-.2-.1,0-.1.7,0,.3-.3.5-.5.2-.2,0-.5.4-.6.2,0,.4-.2-.2-.4-.3-.1,0-.2,0-.3,0,0-.3-.2-.3-.3,0,0,.2,0,.4-.1,0,0,0,0,0,0-.3-.2-.2-.4,0-.5,0,0,.2-.1.2-.2h0s0,0,0,0h0s.2,0,.2,0h0s0,0,0,0h0s0,0,0,0h-.1s0,0,0,0c0,0-.1,0,0,0,0,0,.3,0,.4,0,.4,0,.8-.2,1-.3.3-.2.2-.2.2,0,0,.2,0-.3,0-.5,0-.2,0-.5,0-.6.1-.2.4-.4.6-.4.4,0,.7.3.9.5.5.4,1.1.8.8,1.3,0,.1.2.3-.3.4,0,0-.1,0,0,0,.7.7.1.8.1,1.2,0,.3.6.6.2.8.6.3.4.4.2.5-.8.4-.4,1-.6,1.5-.2.5-.2,1-.4,1.5,0,0,.3.2,0,.3-.3,0,0,.2-.1.3,0,.1,0,.2,0,.3-.7.3-.4.8-.6,1.1-.2.4-.3.8-.2,1.2,0,.3.3.6.2.8,0,0,.2.3-.4.3-.2,0,.3.2.3.3,0,.2,0,.3,0,.5,0,.2-.1.5-.1.7,0,.1.2.3.2.5,0,.2,0,.3,0,.4-.1.2-.4.3-.5.5-.1.2.1.4-.2.6-.6.2-.4.6-.5,1-.1.3-.2.7-.2,1,0,.2-.5.3-.5.5,0,0-1.5,0-2-.2,0,0-.2,0-.2,0-.4-.3-1.1-.6-1-.8.1-.3.1-.6.2-1Z" fill="#00b4e9"/>
  <path d="M316.6,105.7c-.1.2-.3.3-.3.5,0,0-.3,0,.1.4.2.2-.4-.1-.4,0,0,.2-.2.3-.3.5,0,.2,0,.5,0,.6,0,.2-.4.1-.3.5.1.3-.4,0-.4.3,0,.2,0,.4-.3.3-.2,0-.4,0-.4,0,0,0,.2.4.1.4,0,0-.3,0,.1.4,0,0,0,0-.1,0-.4-.2-.4-.1-.2.1.2.2.1.2,0,.3,0,.1-.2.3-.3.4-.1,0-.4,0-.5,0-.1,0,0,.3-.3.2-.3-.1-.4,0-.4,0,0,0-.3-.1.1.4,0,0,0,0,0,0-.7-.4,0,.4-.3.4-.3,0-.3.2-.4.4,0,0-.2,0,0,.3.1.1,0,.2,0,.1-.5-.4-.4,0-.6,0-.2,0-.1.4-.6.1-.2-.1-.3-.1,0,.4.2.2,0,0,0,.2,0,0,.1.3.1.3,0,0-.2-.1-.3-.2,0,0,0,0,0,0,.3.7-.5.1-.6.4,0,.3-.3.4-.6.5-.1,0-.4,0-1.2-.8-.4-.4-.7-.8-.9-1.1-.1-.2-.2-.4-.2-.5,0-.1,0-.3,0-.4,0-.2-.2-.7,0-.6,0,0,0-.2.3.1,0,0,0,0,0,0-.4-.7.1-.5.2-.6,0-.1-.2-.7,0-.6-.4-.5-.2-.5,0-.4.7.3.6-.3.9-.4.3-.2.5-.5.7-.7,0,0-.2-.3,0-.2.2.1.1,0,.2-.1,0,0,0-.2.2-.1.7.3.6-.2.8-.4.2-.2.5-.3.5-.6,0-.2-.1-.5,0-.6,0,0-.1-.3.4,0,.1,0-.2-.2-.2-.3,0-.1.1-.2.2-.3,0-.1.2-.2.3-.4,0,0-.1-.3-.1-.4,0-.1,0-.2.2-.2.1,0,.4,0,.5,0,.1,0,0-.3.3-.3.5.1.5-.2.6-.4.2-.2.3-.3.4-.6,0-.1.5,0,.6,0,0,0,1.3.7,1.7,1,0,0,.2.1.2.1.3.4.9.9.7,1-.2.2-.3.4-.4.6Z" fill="#00b4e9"/>
  <path d="M326.5,130.5s0,0,0,0c0,0-.1-.2,0,.3.1.2-.2-.3-.2-.3,0,0,0,0,0,0,0,0,0,.3,0,.3,0,0-.2-.2,0,.1.1.2-.2-.2-.1,0,0,.1,0,.2,0,0-.1-.1-.3-.3-.2-.2,0,0,.2.3.2.3,0,0-.2-.2.2.3,0,0,0,0,0-.1-.3-.3-.3-.3,0,0,.2.2.1.2.1.2,0,0,0,0,0,0,0,0-.2-.2-.3-.2,0,0,.1.2,0,0-.2-.2-.2-.2-.2-.2,0,0-.2-.2.2.3,0,0,0,0,0,0-.7-.5.2.2,0,0-.2-.1,0,0,0,0,0,0-.2,0,.2.2.1,0,.1.1,0,0-.5-.3-.2-.1-.3-.1-.1,0,.1.1-.3-.1-.2,0-.3-.1.2.2.2.1,0,0,0,0,0,0,.3.2.3.2,0,0-.2,0-.3-.1,0,0,0,0,0,0,.6.3-.2,0,0,0,.1.1,0,.1,0,.1,0,0-.2,0-1.3-.4-.5-.2-1-.3-1.3-.5-.2,0-.4-.2-.5-.2,0,0-.2-.1-.3-.2-.2-.1-.6-.4-.3-.4,0,0-.2-.1.3,0,0,0,.1,0,0,0-.7-.4-.2-.3-.2-.4,0,0-.5-.5-.2-.4-.5-.4-.4-.4-.2-.3.7.2.4-.2.6-.3.2,0,.2-.3.4-.4,0,0-.2-.3,0-.1.2.1,0,0,.1,0,0,0,0-.1,0,0,.6.4.4,0,.5,0,.2,0,.3,0,.3-.3,0-.1-.1-.5,0-.4,0,0-.1-.3.3.2.1.1-.1-.3-.1-.3,0,0,0,0,.1-.1,0,0,.2,0,.2-.1,0,0,0-.3,0-.4,0,0,0-.1.2,0,.1,0,.3.2.3.2,0,0,0-.3.2,0,.3.4.3.1.5.1.1,0,.3,0,.3-.1,0,0,.2.4.3.4,0,0,0,0,0,.2,0,.1,0,.3.2.5.1.4.2.9.3,1.1,0,0,0,.2,0,.2,0,.5.3,1.2.2,1.1,0,0,0,0-.1,0Z" fill="#00b4e9"/>
  <path d="M236.2,124.6c0,0-.1,0-.2,0,0,0,0-.2-.1.3,0,.3,0-.4,0-.3,0,0-.1,0-.2,0,0,0-.2.3-.3.3,0,0,0-.3-.2,0-.1.3,0-.2-.1-.1,0,.1-.2.2-.2,0,0-.2,0-.4,0-.3,0,0-.1.4-.2.3,0,0,0-.3-.2.3,0,0,0,0,0-.1,0-.4,0-.4,0-.1,0,.3-.1.2-.1.2,0,0-.1,0-.2,0,0,0,0-.3,0-.4,0,0-.2.2-.1-.1,0-.3,0-.3,0-.3,0,0,0-.3-.2.3,0,0,0,0,0,0,.2-.8-.2.2-.2,0,0-.2-.1-.1-.2-.1,0,0,0-.2-.2.2,0,.1,0,.2,0,0,.2-.6,0-.3,0-.4,0-.1-.2.1,0-.4,0-.2,0-.3-.2.2-.1.2,0,0,0,0,0,0-.2.3-.2.3,0,0,0-.2,0-.3,0,0,0,0,0,0-.4.6,0-.3-.2-.2-.2.1-.2,0-.3-.1,0,0,0-.3.5-1.3.2-.5.5-.9.7-1.2.1-.2.2-.4.3-.4,0,0,.1-.2.2-.3.1-.2.4-.6.3-.3,0,0,.1-.2,0,.3,0,0,0,.1,0,0,.4-.7.2-.2.3-.2,0,0,.4-.6.3-.3.3-.6.3-.5.2-.3-.2.7,0,.3.1.4,0,.1.2,0,.2.1,0,0,.1-.3,0,0,0,.3,0,0,0,0,0,0,0-.1,0,0-.1.7,0,.3.1.4,0,0,.1.2.2,0,0,0,.2-.4.2-.3,0,0,.1-.3,0,.3,0,.2,0-.3.1-.3,0,0,0,0,0,0,0,0,0,0,.1,0,0,0,.1-.3.1-.3,0,0,0,0,0,0,0,0,0,.3,0,.4,0,0,.1-.2,0,0,0,.5,0,.3.1.3,0,0,.1.1.2,0,0,0,0,.4,0,.4,0,0,0,.4,0,.8,0,.4,0,.9,0,1.2,0,0,0,.2,0,.2,0,.5-.2,1.2-.3,1.1,0,0-.2,0-.3,0Z" fill="#00b4e9"/>
  <path d="M393,341.5c-.6.2-1.2.4-1.8.7-.2.1-.5,0-.6.5,0,.3-.5-.2-.7-.1-.5.3-1.1.5-1.6.7-.5.3-.9.7-1.4,1.1-.5.3-1.1.3-1.5.9-.3.5-.9.2-1.2.6-.4.4-.7.7-1.3.7-.4,0-.8,0-1,.3-.1.2-.1.6-.3.7-.2,0-.5,0-.4.6,0,0-.1,0-.2,0-.4-.2-.6,0-.6.3,0,.3-.2.4-.3.5-.4.3-.7.6-1.2.8-.3.2-.7.2-1.1.4-.3.2-.5.7-.9.6-.5,0-.7.2-1,.4-.1.1-.5,0-.2.7,0,0,0,0,0,0-1-.3-.7.9-1.3,1.2-.6.2-1,.8-1.4,1.2-.1.1-.4,0-.2.5,0,.2,0,.3-.2.3-.8-.2-.9.4-1.3.7-.5.3-.8.8-1.5.8-.3,0-.6,0-.5.7,0,.3-.3.2-.5.4-.1.1-.1.5-.3.6-.1,0-.4,0-.6,0,0,0-.1,0-.1,0-.4,1-1.6.7-2.4,1.2-.7.5-1.7.8-2.6.9-.5,0-1.1,0-1.6-1.1-.2-.5-.3-1-.1-1.4,0-.3.2-.5.3-.6.2-.1.4-.3.6-.5.4-.3.6-.9,1.1-.8.2,0,.2-.3.5.1,0,0,.1,0,.1,0,.3-1,1-.8,1.6-1.1.5-.3.5-1.1,1.2-1.2-.1-.7.2-.8.6-.8,1.3-.1,1.9-1.2,2.8-1.9,1-.7,1.8-1.6,2.7-2.4.2-.1,0-.5.4-.5.3,0,.4-.3.7-.5.2-.2.3-.4.6-.5,1.2,0,1.7-1,2.5-1.5.8-.5,1.7-1,2.4-1.7.4-.4.8-1,1.3-1.2.2,0,.3-.5.8-.1.1.1.1-.4.3-.5.3-.3.7-.4,1.1-.6.5-.3,1-.5,1.5-.8.3-.2.5-.6.8-.8.3-.2.6-.4,1-.5.4-.1,1-.1,1.4-.3.5-.1.8-.6,1.3-.5,1,.1,1.7-.4,2.5-.6.8-.2,1.6-.4,2.4-.8.4-.2,1,.2,1.4,0,.2,0,.9,1.3.9,1.8,0,0,0,.2,0,.2-.3.6-.5,1.4-1,1.5-.7.1-1.4.4-2.1.7Z" fill="#fff"/>
  <g>
    <g>
      <g>
        <path d="M247.6,173.4c.3-.3.6-.6.9-1,0-.1.4,0,.1-.6-.1-.2.4,0,.5,0,.2-.3.6-.6.8-.9.2-.3.3-.8.5-1.1.2-.3.7-.4.7-.9,0-.4.6-.3.7-.6.1-.3.3-.6.7-.7.3,0,.6,0,.7-.3,0-.2,0-.5,0-.6.1,0,.4,0,0-.6,0,0,0,0,.2,0,.4.2.5,0,.4-.3-.1-.3,0-.3,0-.4.2-.3.4-.5.7-.7.2-.1.5-.2.8-.3.2-.1.2-.5.6-.5.4,0,.5-.1.7-.3,0,0,.4,0,0-.5,0,0,0,0,0,0,.9.3.3-.7.7-.9.4-.1.6-.5.8-.9,0,0,.3,0,0-.4,0-.1,0-.2,0-.2.7.2.6-.3.9-.4.3-.2.3-.6.9-.5.3,0,.5,0,.2-.6-.1-.2.2-.2.2-.3,0-.1,0-.4,0-.5,0,0,.3,0,.4,0,0,0,0,0,0,0-.1-.8.9-.6,1.1-1.1.2-.5.6-.8,1-1.1.2-.2.6-.3,1.5.4.4.3.8.7,1,1,.1.2.2.5.2.6,0,.2,0,.4,0,.6,0,.4,0,1-.4,1-.1,0,0,.3-.4,0,0,0-.1,0-.1,0,.3.9-.4.9-.7,1.2-.2.3,0,1-.5,1.1.3.6,0,.7-.2.7-1,.1-1.2,1-1.8,1.5-.6.5-1.1,1.1-1.6,1.7,0,0,0,.4-.2.3-.3,0-.3.2-.4.3-.1.1-.1.3-.3.3-.9,0-1,.7-1.5,1.1-.5.4-.9.8-1.2,1.4-.2.3-.2.9-.5,1-.2,0,0,.4-.6.1-.2,0,0,.3,0,.4-.1.2-.3.4-.5.6-.2.3-.5.5-.7.8-.1.2,0,.5-.2.7-.1.2-.3.4-.5.5-.3.2-.6.2-.8.4-.2.2-.3.6-.7.6-.7,0-.9.6-1.3,1-.4.3-.8.7-1.1,1.2-.2.3-.7.1-.9.3,0,.1-1.3-.8-1.6-1.2,0,0-.1-.2-.1-.2-.1-.5-.5-1.2-.2-1.4.4-.3.7-.7,1-1.1Z"/>
        <path d="M305.5,193.9c-.2.3-.4.6-.6,1,0,.1-.4.1,0,.5.2.2-.4,0-.5.1-.1.3-.4.6-.5.9-.1.3,0,.7-.2,1.1-.1.3-.5.5-.4.9.1.4-.4.4-.4.7,0,.3,0,.6-.4.8-.2.1-.5.2-.5.4,0,.1.3.4.2.5,0,.1-.4.1.2.5,0,0,0,0-.2,0-.4,0-.5.1-.2.3.2.2.1.3.1.4,0,.3-.1.5-.3.8-.1.2-.4.3-.5.5-.1.2,0,.5-.3.6-.4.1-.4.3-.4.5,0,.1-.3.2.2.4,0,0,0,0,0,0-.9,0,0,.7-.2.9-.3.3-.2.6-.3,1,0,0-.2.2.2.3.2,0,.2.2,0,.2-.7.1-.3.5-.5.7-.2.3,0,.6-.5.8-.2,0-.4.3.2.5.3.1,0,.2,0,.3,0,.1.3.2.3.3,0,0-.3.1-.4.2,0,0,0,0,0,0,.6.6-.4.9-.3,1.4,0,.5,0,1-.3,1.4-.1.2-.3.5-1.5.4-.5,0-1.1-.1-1.4-.3-.2-.1-.4-.3-.5-.4,0-.2-.2-.3-.2-.5-.1-.3-.6-.7-.3-.9.1,0-.2-.2.3-.2,0,0,.1,0,0,0-.7-.5-.1-.9-.1-1.3,0-.4-.6-.8-.2-1.1-.6-.3-.4-.5-.2-.7.8-.6.5-1.4.7-2.1.2-.7.3-1.5.6-2.2,0-.1-.3-.3,0-.4.3,0,.1-.3.2-.5,0-.1,0-.3.2-.4.8-.4.6-1,.9-1.6.3-.5.5-1,.6-1.6,0-.4-.1-.8.1-1.1.1-.1-.1-.4.5-.3.2,0-.2-.3-.2-.4,0-.2.2-.4.3-.7.1-.3.3-.6.4-.9,0-.2,0-.5,0-.7,0-.2.1-.4.3-.6.2-.2.5-.3.7-.5.2-.2,0-.6.5-.7.7-.2.7-.7,1-1.1.3-.4.6-.8.7-1.3,0-.3.6-.2.8-.5,0-.1,1.4.5,1.8.8,0,0,.2.1.2.2.3.5.8,1,.6,1.3-.3.3-.5.7-.7,1.1Z"/>
        <path d="M263,183.8c-.3-.1-.5-.3-.8-.4-.1,0-.1-.3-.4.1-.2.2,0-.4,0-.4-.3,0-.5-.3-.8-.3-.3,0-.6,0-.9,0-.3,0-.4-.4-.8-.3-.3.2-.3-.4-.6-.4-.3,0-.5,0-.6-.3,0-.2-.2-.5-.3-.5-.1,0-.3.3-.4.2,0,0,0-.4-.4.2,0,0,0,0,0-.2,0-.4,0-.4-.3-.2-.2.2-.3.2-.3.1-.2,0-.5-.1-.7-.3-.1-.1-.2-.4-.4-.5-.1-.1-.4,0-.5-.3,0-.3-.2-.4-.4-.4,0,0,0-.3-.4.2,0,0,0,0,0,0,0-.9-.6,0-.8-.2-.2-.3-.5-.3-.8-.3,0,0,0-.2-.3.2,0,.1-.2.1-.2,0,0-.7-.3-.4-.5-.5-.2-.2-.5,0-.6-.5,0-.2-.1-.4-.4.1-.1.2-.2,0-.3,0,0,0-.2.3-.3.2,0,0,0-.3,0-.4,0,0,0,0,0,0-.5.5-.6-.4-1-.4-.4,0-.7-.1-1.1-.3-.2-.1-.3-.3-.2-1.5,0-.5.2-1,.4-1.3.1-.2.3-.4.3-.4.1,0,.3-.1.4-.2.3-.1.7-.6.8-.2,0,.1.2-.2.1.4,0,0,0,.1,0,0,.6-.7.7,0,1.1,0,.3,0,.8-.5,1-.1.3-.6.5-.4.6-.2.3.8,1,.6,1.6.9.5.3,1.1.4,1.7.6,0,0,.3-.3.3,0,0,.3.2.1.3.2.1,0,.3,0,.3.1.2.8.8.6,1.2.8.4.2.8.5,1.3.5.3,0,.7-.2.9,0,0,.1.3-.2.2.4,0,.2.2-.2.3-.2.2,0,.4.1.5.2.2.1.5.3.7.3.2,0,.4-.1.6-.1.2,0,.3,0,.5.2.2.2.3.4.4.6.2.2.5,0,.6.4.1.6.6.6.9.8.3.2.7.4,1.1.5.2,0,.2.6.4.7,0,0-.5,1.4-.8,1.8,0,0-.1.2-.1.2-.4.3-.9.9-1.1.7-.3-.2-.6-.3-.9-.5Z"/>
      </g>
      <path d="M263.6,210.8c0-.5-.1-1-.2-1.5,0-.2.2-.4-.4-.5-.3,0,.3-.3.3-.5-.1-.5,0-.9-.2-1.4-.1-.4-.4-.9-.5-1.3-.1-.4.1-.9-.2-1.3-.3-.3.2-.7,0-1.1-.2-.4-.3-.8,0-1.1.2-.3.4-.6.2-.8,0-.2-.4-.3-.4-.5,0-.2.3-.4-.4-.5,0,0,0,0,.1-.1.4-.2.4-.4,0-.6-.3-.1-.3-.3-.3-.4,0-.4-.1-.8,0-1.2,0-.3.3-.6.3-.9,0-.3-.3-.6,0-.9.3-.3.3-.6.3-.8,0-.2.3-.3-.4-.5,0,0,0,0,0,0,.8-.5-.3-.9,0-1.3.2-.5,0-.9,0-1.4,0-.1.2-.3-.3-.4-.2,0-.2-.2,0-.2.6-.3.2-.7.3-1.1.1-.4-.2-.8.3-1.2.2-.2.3-.4-.3-.6-.3,0,0-.3,0-.4,0-.1-.3-.2-.3-.4,0-.1.2-.2.3-.3,0,0,0,0,0,0-.7-.6.3-1.2.1-1.8-.2-.6,0-1.2,0-1.8,0-.3.3-.7,1.4-.8.5,0,1.1,0,1.4.1.2.1.5.2.5.4,0,.2.2.4.3.6.2.4.7.8.4,1.1,0,.1.2.3-.3.3,0,0-.1,0,0,0,.8.5.2,1.1.3,1.6,0,.4.7.9.4,1.3.6.3.5.5.3.8-.7.9-.2,1.8-.3,2.6,0,.9,0,1.8,0,2.7,0,.2.4.3,0,.5-.3.2,0,.4,0,.6,0,.2.1.4,0,.5-.6.7-.2,1.4-.2,2.1,0,.7,0,1.4.2,2.1.1.4.5.8.4,1.2,0,.2.3.3-.3.6-.2,0,.3.2.3.3,0,.3,0,.6,0,.9,0,.4,0,.8.1,1.2,0,.2.3.5.4.7,0,.2.1.5,0,.8,0,.3-.2.7-.2,1,0,.3.3.7,0,1-.4.7-.1,1.2,0,1.8,0,.6,0,1.2.3,1.8.1.3-.3.7-.3,1,0,.2-1.4.6-1.9.6,0,0-.2,0-.2,0-.5-.3-1.3-.4-1.3-.8,0-.6-.2-1.1-.2-1.7Z"/>
      <path d="M277.6,173.5c0,.2,0,.3,0,.5,0,0-.2.1.3.1.3,0-.4.1-.3.2,0,.1,0,.3.1.4,0,.1.3.1.4.2,0,0-.1.3.2.2.3-.1,0,.2,0,.2.1,0,.2,0,.1.2,0,.2-.1.4,0,.3,0,0,.2-.3.3-.3,0,0,0,.3.2-.3,0,0,0,0,0,.1-.1.4,0,.4,0,.1,0-.3,0-.2,0-.2,0,0,0,0,0,0,0,0,0,.3,0,.3,0,0,0,0,0,0,0,0,0-.2,0,0,.1.3.2.2.2.2s.2.2,0-.4c0,0,0,0,0,0,.5.6,0-.3.2-.2.2,0,.2-.1.3-.2,0,0,.2,0-.1-.3-.1-.1-.1-.2,0,0,.5.3.3,0,.5,0,.2,0,0-.3.5-.1.2,0,.3,0-.1-.3-.2-.2,0,0,0-.2,0,0-.3-.2-.2-.2,0,0,.2,0,.3,0,0,0,0,0,0,0-.5-.4.3-.3.2-.5-.1-.2,0-.4.1-.6,0,0,.3-.2,1.4-.2.5,0,1.1,0,1.4.1.2,0,.5.2.5.2,0,.1.2.2.3.4.2.2.6.6.3.8-.1,0,.2.2-.3.1,0,0-.1,0,0,0,.7.5,0,.7,0,1,0,.3.4.8,0,1,.5.4.3.6,0,.6-.9.1-.9.9-1.4,1.2-.5.4-.9.8-1.5,1.2-.1,0,0,.4-.3.2-.2-.2-.3,0-.5.2-.1,0-.2.2-.4.1-.2-.1-.4-.2-.6-.2-.4,0-.8.2-1.2,0-.6-.1-1.1-.3-1.6-.4-.3,0-.8,0-1-.2,0-.1-.4,0-.2-.5,0-.2-.3.1-.4,0-.2-.1-.3-.3-.5-.5-.2-.3-.4-.5-.6-.8-.1-.2-.4-.2-.6-.4-.1-.2-.2-.4-.2-.6,0-.3.1-.6.1-.8,0-.3-.3-.5,0-.7.5-.5.2-.8.3-1.2,0-.4.2-.8.1-1.2,0-.2.5-.3.6-.5,0-.1,1.5.2,1.9.4,0,0,.2,0,.2,0,.4.3,1.1.5,1,.7-.1.2,0,.4,0,.6Z"/>
      <path d="M264,172c0,.2,0,.3,0,.5,0,0-.2.1.3.1.3,0-.4.1-.3.2,0,.1,0,.3.1.4,0,.1.3.1.4.2,0,0-.1.3.2.2.3-.1,0,.2,0,.2.1,0,.2,0,.1.2,0,.2-.1.4,0,.3,0,0,.2-.3.3-.3,0,0,0,.3.2-.3,0,0,0,0,0,.1-.1.4,0,.4,0,.1,0-.3,0-.2,0-.2,0,0,0,0,0,0,0,0,0,.3,0,.3,0,0,0,0,0,0,0,0,0-.2,0,0,.1.3.2.2.2.2,0,0,.2.2,0-.4,0,0,0,0,0,0,.5.6,0-.3.2-.2.2,0,.2-.1.3-.2,0,0,.2,0-.1-.3-.1-.1-.1-.2,0,0,.5.3.3,0,.5,0,.2,0,0-.3.5-.1.2,0,.3,0-.1-.3-.2-.2,0,0,0-.2,0,0-.3-.2-.2-.2,0,0,.2,0,.3,0,0,0,0,0,0,0-.5-.4.3-.3.2-.5-.1-.2,0-.4.1-.6,0,0,.3-.2,1.4-.2.5,0,1.1,0,1.4.1.2,0,.5.2.5.2,0,.1.2.2.3.4.2.2.6.6.3.8-.1,0,.2.2-.3.1,0,0-.1,0,0,0,.7.5,0,.7,0,1,0,.3.4.8,0,1,.5.4.3.6,0,.6-.9.1-.9.9-1.4,1.2-.5.4-.9.8-1.5,1.2-.1,0,0,.4-.3.2-.2-.2-.3,0-.5.2-.1,0-.2.2-.4.1-.2-.1-.4-.2-.6-.2-.4,0-.8.2-1.2,0-.6-.1-1.1-.3-1.6-.4-.3,0-.8,0-1-.2,0-.1-.4,0-.2-.5,0-.2-.3.1-.4,0-.2-.1-.3-.3-.5-.5-.2-.3-.4-.5-.6-.8-.1-.2-.4-.2-.6-.4-.1-.2-.2-.4-.2-.6,0-.3.1-.6.1-.8,0-.3-.3-.5,0-.7.5-.5.2-.8.3-1.2,0-.4.2-.8.1-1.2,0-.2.5-.3.6-.5,0-.1,1.5.2,1.9.4,0,0,.2,0,.2,0,.4.3,1.1.5,1,.7-.1.2,0,.4,0,.6Z"/>
      <path d="M273.3,192.9c.2,0,.3.1.5.1,0,0,0,.3.2-.2,0-.3,0,.4,0,.4.2,0,.3,0,.4,0,.1,0,.3-.2.4-.3.1,0,.2.3.4,0,0-.3.2.2.3,0,0-.1.2-.2.3,0,0,.2.2.4.2.2,0,0,0-.4,0-.4,0,0,.2.3,0-.4,0,0,0,0,0,.1.1.4.2.3.1,0,0-.3,0-.2,0-.3,0,0,.1-.1.2,0,0,0,.2.2.3.2,0,0,0-.2.2,0,.2.2.3.2.3.1,0,0,.2.2-.1-.3,0,0,0,0,0,0,.6.5,0-.3.1-.2.2,0,.2-.1.2-.2,0,0,.2,0-.2-.2-.1,0-.1-.1,0,0,.6.3.3,0,.4,0,.1,0,0-.2.4,0,.2,0,.3,0-.2-.2-.3,0,0,0,0,0,0,0-.3-.1-.3-.1,0,0,.2,0,.3,0,0,0,0,0,0,0-.6-.2.2-.1,0-.2-.2,0-.1-.1,0-.2,0,0,.2-.1,1.2-.6.5-.2,1-.5,1.3-.5.2,0,.5,0,.5,0,.1,0,.3.1.4.2.2.1.8.3.6.6,0,0,.2.2-.3.3,0,0-.1,0,0,0,.8.3.3.7.3,1,0,.3.6.7.2.9.6.3.4.5.2.6-.8.3-.6.9-1,1.3-.4.4-.7.9-1.1,1.2,0,0,.1.4-.2.2-.2-.1-.2.1-.3.2,0,0-.1.2-.3.2-.7-.3-.9.2-1.3.3-.4,0-.8.1-1.1.4-.2.2-.4.5-.6.4-.1,0-.2.3-.3-.3,0-.2,0,.3-.2.3-.2,0-.3,0-.5,0-.2,0-.4,0-.7,0-.1,0-.3.3-.4.3-.1,0-.3,0-.4,0-.2,0-.3-.3-.5-.4-.2,0-.4.1-.5-.2-.2-.6-.5-.4-.8-.5-.3-.1-.5-.3-.8-.3-.2,0-.1-.5-.3-.6,0,0,.5-1.4.7-1.9,0,0,0-.2.1-.2.3-.4.7-1,.8-.9.1.1.3.2.5.2Z"/>
    </g>
    <path d="M297.8,193.8c.5-.2,1-.4,1.4-.7.1-.1.5,0,.3-.6,0-.3.4.1.6,0,.3-.3.8-.6,1.1-1,.3-.4.4-.9.6-1.2.2-.4.7-.6.6-1.2,0-.4.5-.5.6-.9,0-.4,0-.8.4-1.1.2-.2.5-.4.5-.7,0-.2-.3-.4-.3-.6,0-.2.3-.3-.3-.5,0,0,0,0,.2-.1.4-.1.4-.4.1-.5-.3-.2-.2-.3-.2-.4,0-.4,0-.7,0-1.1,0-.3.2-.6.2-.9,0-.3-.3-.5-.1-.8.2-.3,0-.5,0-.7,0,0,0-.4-.4,0,0,0,0,0,0,0,.2-.4,0-.4-.1-.4-.2,0-.4.2-.5,0-.2-.3-.6-.3-.9-.3,0,0-.2-.2-.3.2,0,.2-.1.2-.2,0-.3-.6-.6-.2-.9-.3-.4,0-.6.3-1.1,0-.2-.2-.5-.2-.4.4,0,.3-.2,0-.3.2,0,0,0,.4-.1.4,0,0-.3-.1-.4-.2,0,0,0,0,0,0,0,.4-.3.5-.5.6-.3,0-.6.1-.6.4-.2.5-.4.8-.6,1.1-.1.2-.3.3-1.5.5-.5,0-1.1.1-1.4-.1-.2-.2-.5-.4-.5-.5,0-.3-.1-.6-.1-.9,0-.6-.2-1.5.4-1.9.2-.1,0-.5.6-.3,0,0,.1,0,.1,0,0-1.2.9-1.4,1.5-1.9.5-.4.8-1.3,1.6-1.4,0-.7.6-.8,1.1-.7.8.1,1.4,0,2.1,0,.7,0,1.4-.2,2.1,0,1.4.3,3.1.8,4.3,2.2.2.2.6.2.6.6,0,.4.3.6.5,1,.1.3.4.5.3.9-.3,1.3.2,2.1.2,3.2,0,1-.1,2-.1,3,0,.6.2,1.3,0,1.9-.1.2.1.6-.5.7-.2,0,.2.4.1.6-.1.4-.3.8-.5,1.2-.3.5-.6,1-.9,1.6-.2.3-.2.8-.4,1.1-.2.4-.5.6-.8.9-.4.3-.9.5-1.3.8-.4.3-.7.8-1.2.9-1,0-1.6.7-2.4,1.1-.8.3-1.6.6-2.4.9-.5.2-1-.2-1.5-.1-.2,0-.7-1.4-.7-1.9,0,0,0-.2,0-.2.3-.5.5-1.3.9-1.3.6,0,1.1-.3,1.7-.5Z"/>
    <path d="M290.2,180.6c-.4-.4-.6-.9-1-1.4-.1-.2,0-.5-.6-.4-.3,0,.2-.4,0-.6-.3-.4-.4-.9-.6-1.4-.2-.4-.5-.8-.7-1.3-.2-.5,0-1-.3-1.4-.3-.3.1-.8,0-1.1-.2-.4-.3-.8,0-1.1.2-.3.4-.5.2-.8,0-.2-.4-.3-.4-.5,0-.2.3-.4-.4-.5,0,0,0,0,.1-.1.4-.2.4-.4,0-.5-.3-.1-.2-.3-.3-.4,0-.4,0-.7,0-1.1,0-.3.3-.5.3-.8,0-.3-.2-.6,0-.9.3-.3.3-.5.3-.8,0-.1.3-.3-.3-.4,0,0,0,0,0,0,.8-.4-.2-.8,0-1.3.2-.4.1-.9.1-1.4,0-.1.2-.2-.3-.4-.2,0-.2-.2,0-.2.7-.3.3-.7.5-1,.2-.4,0-.8.5-1.1.2-.1.4-.3-.2-.6-.2-.1,0-.3,0-.4,0-.1-.3-.3-.2-.4,0-.1.3-.2.4-.2,0,0,0,0,0,0-.5-.8.5-1.1.5-1.7,0-.6.4-1.4,1.1-2.2.4-.4,1-.7,1.9.1.4.4.7.9.8,1.2,0,.2.2.4.1.5,0,.1,0,.3,0,.4,0,.3.5.6.1.8-.1,0,.1.2-.4.1,0,0-.1,0,0,0,.6.7,0,.9,0,1.4,0,.4.5.9.1,1.2.6.3.4.5.2.7-.8.6-.4,1.5-.6,2.2-.2.8-.1,1.6-.2,2.4,0,.1.3.3,0,.4-.3.1,0,.3,0,.5,0,.2.1.3,0,.5-.7.6-.2,1.3-.3,1.9,0,.6,0,1.3,0,1.9.1.4.5.7.4,1.1,0,.2.3.3-.3.5-.2,0,.3.2.3.3,0,.2,0,.5.1.7,0,.3,0,.7.2,1,0,.2.4.3.5.5.1.2.2.4.2.6,0,.3-.1.6,0,.8,0,.3.4.4.3.7-.3.6.2.9.4,1.3.2.4.5.8.9,1,.2,0,0,.6.3.8,0,0-.5,1.4-.8,1.8,0,0-.1.1-.2.2-.5.2-1.3.6-1.6.3-.5-.5-.9-.9-1.3-1.4Z"/>
    <path d="M314.4,182.5c1.3-1.8,2.1-4.1,2.3-6.4,0-.9.4-1.8-.2-2.7-.3-.4.3-1.3.2-2.2-.3-2.2-.8-4.5-1.7-6.6-.9-2.1-2.1-4-3.3-5.8-1.2-1.8-2.4-3.9-4-5.1-1.4-1-2.3-2.3-3.8-2.8-.8-.2-1.6-.4-2.4-.6-.8-.1-1.6-.2-2.4-.2-1.2,0-2.5,0-3.5.6-.7.4-1.1,1-1.8,1.4-.2,0-.3.2-.5.3,0,0-.3.2-.4.3-.2.1-.3.3-.5.5-.6.6-1.2,1.3-1.6,2.4,0,.1-.3.3-.6.5-.1-.2-.3-.4-.3-.5-.6-.9-1.3-1.7-1.9-2.4-.3-.3-.6-.7-1-.9-.2-.2-.3-.2-.4-.3,0,0-.2-.1-.3-.1-.7-.3-1.2-.8-1.7-1.2-1.4-1.2-2.9-2.3-4.4-3.2-1.1-.7-2.2-1.4-3.4-1.8-1.3-.4-2.7-.2-3.9-.4-1.3-.2-2.5.1-3.7.5-.7.2-1.6.3-1.8,1.2,0,0-.3.2-.4.2-1.1.1-2,.8-2.7,1.5-.8.8-1.4,1.6-2.3,2.3-1.8,1.4-3.3,3.3-4.8,5.2-.4.5-1.1,1-.9,1.6,0,.4,0,.2,0,.2-.2,0-.3,0-.4.1,0,.1,0,.2.2.2.3.1.7.2,1,.3,2,.6,4.1.8,6.1,1.7.8.4,2,.8,3.2.4.5-.2,1.5.3,2.3.4.6,0,1.3,0,1.9,0,.5.1,1,.5,1.5.7.1,0,.3.1.5.1,1.6,0,3.1.4,4.5.8,0,0,.2.2.3.1,0,0,.1,0,.2-.1l.5-1c1.7-3.2,4.7-5.6,8-6.9,1.8-.8,4-1,5.3,0,.6.5.6,1,0,1.4-.5.3-1,.6-1.6.8-.9.3-1.7.7-2.4,1.1-1.6.9-2.7,2.4-4.1,3.4-.2.2-.4.4-.6.7-.2.2-.4.4-.7.5,0,0-.3.2-.3.3l-.3.9-.2.4c0,0,0,.2-.1.3l-.2.4c-.5,1-1.5,1.9-2.7,2-.6,0-1.2,0-1.8-.2l-1.1-.3c-.7-.2-1.4-.4-2-.5-2.3-.5-4.7-.4-7-1.1-1.4.3-2.9-.1-4.2-.6-1.6-.6-3.2-1.1-4.9-1.5-.8-.2-1.6-.3-2.9-.8-1.4-.6-2.6-1.7-3-3.1-.3-1.1,0-2.4.6-3.5.1-.3.3-.6.5-.8.1-.2.3-.3.4-.5l.7-.8c3.2-3.6,6.4-7.6,11.1-10.2.8-.4,1.3-1.1,2.4-1.3,1-.2,2.2-.8,3.3-1,1.1-.2,2.2-.5,3.3-.4,2.2.3,4.3.7,6.2,1.5,1.9.7,3.8,1.7,5.4,2.9,1.2.9,2.3,1.9,3.4,2.9l.8.8.5.5c.2.1.3.4.5.4.1-.1.2-.2.3-.4v-.2c.2,0,.2,0,.2,0h0s0,0,0,0l.3-.2c2-1.6,4.5-2.9,7.2-3.1,1.1,0,2.4-.4,3.4.3.3.2,1.4,0,2.1.1,1.8.4,3.5,1.3,4.9,2.4,2,1.5,3.6,3.3,5,5.1.9,1.1,1.8,2.1,2.6,3.3.8,1.2,1.5,2.6,2.1,3.9.7,1.8,1.2,3.6,1.6,5.4.5,1.9,1.1,3.9.9,5.8-.1,1.8-.3,3.5-.6,5.3-.3,1.8-.8,3.5-1.6,5.2-1.7,3.3-4.5,5.6-7.2,7.6-1.6,1.1-3.3,1.5-4.8,2.4-.2.1-.6.3-1.3.2-.2,0-.3,0-.5-.2,0,0-.1,0-.2-.2-.1,0-.2-.2-.3-.3-.3-.4-.2-.7,0-.9.1-.2.3-.4.5-.4.2,0,.3,0,.4.1,0,0,0,.3,0,.2,0,0,0,0,0,0,0,0,0,0,0,0,0,0,.2,0,.2,0,0,0-.1,0-.2,0,0,0,0,0,0,0h0c0,0,0,.2,0-.2h0s0,0,0,0h0s0,0,0,0c0,0,0,0,0-.2,0,0,0-.2,0-.3,0,0,0,0,0,0,0,0,0,0,.1-.2.3-.3.6-.6.9-1,.6-.6,1.3-1.2,2.1-1.7,2.4-1.5,4.6-3.2,6.1-5.3Z"/>
    <path d="M299.6,145.1c-.5-.9-1-1.9-1.5-2.9-.2-.4,0-.9-.7-1.1-.3-.1.1-.7,0-1.1-.4-1-.5-2.1-.7-3.1-.2-1-.4-2.1-.3-3.3,0-1.1.7-2.2.9-3.4.2-1.1,1.2-1.6,1.8-2.3.7-.8,1.6-1.5,2.6-1.7.7-.1,1.4-.1,2-.4.4-.1.7-.6,1.2-.6.4,0,.9.2,1.2-.4,0,0,.2,0,.3.1.4.4,1,.4,1.3.1.4-.3.7-.2,1-.2.9,0,1.8.2,2.6.5.6.2,1.2.6,1.8.9.6.3,1.4.2,1.9.8.5.5,1,.8,1.6,1.1.3.2.5.7,1.2.4,0,0,.2,0,.2.2.2.7.6,1,1.1,1.3.5.3,1,.7,1.2,1.3.4,1.2,1,2.3,1.2,3.4,0,.3,0,.7.4.9.2,0,.2.4.1.6-.6.9-.2,1.8-.5,2.7-.3.9-.3,2-1.1,2.8-.4.3-.7.7-.4,1.5.1.3-.4.6-.5,1-.1.3,0,.7-.3.9-.2.2-.5.3-.8.4,0,0-.1.1-.2.2-.3.8-.9,1.3-1.6,1.6-.7.4-1.4.6-2.1,1-1.3.8-2.9,1.1-4.5,1-.9,0-1.8-.3-2-1.6-.1-.6,0-1.1.4-1.4.2-.2.5-.4.7-.4.3,0,.7-.2,1-.3.7-.2,1.1-.8,1.8-.7.2,0,.3-.3.7,0,0,0,.1,0,.2,0,.5-1.1,1.4-1.1,2.1-1.7.5-.6.5-1.5,1-2-.3-.7,0-1,.3-1.3.6-.5.8-1.3.9-2,0-.7,0-1.5,0-2.2-.1-1.5-.8-2.6-1.8-3.5-.2-.2-.5,0-.6-.4,0-.4-.5-.4-.8-.5-.3-.1-.6-.2-.9-.4-.5-.5-1.1-.8-1.8-1-.7-.2-1.3-.3-2-.4-1.3-.3-2.6-.5-3.8-.1-.7.2-1.3.7-2,.8-.3,0-.4.5-.9.1-.2-.1-.1.4-.2.5-.3.3-.6.6-.8.9-.3.5-.6,1-.7,1.6,0,.4.1.8.1,1.2,0,.4,0,.8,0,1.3,0,.6-.2,1.1-.1,1.7,0,.6.5,1.2.4,1.8-.1,1.2.6,2.2,1.1,3.3.5,1.1,1.1,2.2,1.9,3.1.4.5.4,1.4.8,1.9.2.3-.8,1.5-1.3,1.6,0,0-.2,0-.3,0-.8-.3-1.7-.4-2.1-1.1-.6-1-1.3-2-1.9-3.1Z"/>
  </g>
</svg>