<?xml version="1.0" encoding="UTF-8"?>
<svg id="ARTWORK" xmlns="http://www.w3.org/2000/svg" width="600" height="600" viewBox="0 0 600 600">
  <path d="M256.9,233.1c-.6-.1-1.2-.3-1.8-.3-.2,0-.4-.3-.7.2-.2.2-.3-.4-.5-.4-.6,0-1.1-.2-1.7-.2-.6,0-1.1.2-1.6.3-.5,0-1.1-.2-1.5.1-.4.3-.8-.2-1.2,0-.4.2-.8.3-1.3.2-.3-.1-.7-.2-1,0-.2.1-.2.5-.4.5-.2,0-.5-.2-.4.5,0,0-.1,0-.2,0-.3-.3-.6-.2-.6.1,0,.3-.2.3-.3.4-.3.2-.7.4-1,.6-.3.1-.6,0-.9.2-.3.2-.4.6-.8.6-.4,0-.6.2-.8.4-.1.1-.5,0,0,.6,0,0,0,0,0,0-.5,0-.6.2-.6.4,0,.3,0,.6-.2.7-.5.3-.6.9-.8,1.3,0,.1-.3.2,0,.5.1.1,0,.2,0,.3-.7.1-.5.6-.8,1-.3.4-.1.9-.7,1.3-.2.1-.4.4,0,.8.2.2,0,.3,0,.5,0,.2.3.3.2.5,0,.1-.3.2-.4.3,0,0,0,0,0,.1.5.8-.4,1.3-.3,2.1.1.7,0,1.4-.1,2.2,0,.4-.2.8-1.4,1.1-.5.1-1.1.1-1.4,0-.2-.1-.5-.3-.5-.4,0-.3-.2-.5-.3-.7-.2-.5-.7-1.1-.4-1.6,0-.2-.2-.4.3-.5,0,0,.1,0,0-.1-.7-.8-.1-1.5,0-2.2,0-.6-.5-1.3,0-1.9-.5-.5-.3-.9,0-1.2,1-1.1,1-2.4,1.6-3.6.7-1.2,1.3-2.4,2.2-3.4.2-.2,0-.6.4-.6.4,0,.4-.4.6-.6.2-.2.3-.5.6-.6,1.2-.2,1.8-1.2,2.8-1.6,1-.5,1.9-.8,2.9-1.3.6-.3,1.1-.8,1.7-.8.3,0,.5-.4.9.1.1.2.3-.3.4-.4.4-.1.9-.1,1.3-.2.6,0,1.2,0,1.8-.1.4,0,.7-.3,1.1-.3.4,0,.8,0,1.1,0,.5.1.9.4,1.4.5.5.1,1,0,1.4.3.8.6,1.6.5,2.4.7.8.2,1.6.4,2.4.5.5,0,.7.6,1.2.7.2,0,.1,1.5,0,2,0,0,0,.2-.1.2-.5.4-1.1,1-1.5.8-.7-.2-1.4-.3-2.1-.5Z"/>
  <path d="M260.3,243.5c-.3,0-.5,0-.8,0,0,0-.2-.2-.3.3,0,.3-.1-.4-.2-.3-.2,0-.5,0-.7,0-.2,0-.4.3-.7.4-.2,0-.5-.2-.7.1-.2.3-.4-.2-.5,0-.2.1-.4.2-.6,0-.1-.2-.3-.4-.4-.3,0,0-.1.4-.2.4,0,0-.2-.3-.2.3,0,0,0,0,0-.1-.1-.4-.2-.4-.3,0,0,.3-.1.2-.2.3-.2,0-.4,0-.6,0-.1,0-.3-.3-.4-.3-.2,0-.3.2-.5,0-.2-.3-.3-.3-.4-.3,0,0-.2-.3-.2.4,0,0,0,0,0,0-.3-.8-.4.3-.7.1-.2-.2-.5,0-.7,0,0,0-.1-.2-.2.3,0,.2,0,.2-.1,0-.2-.6-.4-.2-.6-.3-.2,0-.4.2-.6-.2-.1-.2-.2-.3-.3.3,0,.3-.1,0-.2,0,0,0,0,.3-.1.3,0,0-.1-.2-.2-.3,0,0,0,0,0,0-.2.7-.6-.2-.9,0-.3.2-.6.2-.9.1-.2,0-.4-.2-.6-1.3-.1-.5-.2-1.1-.2-1.4,0-.2,0-.5,0-.5,0-.1.2-.2.2-.4.2-.2.3-.8.5-.5,0,0,.1-.2.2.3,0,0,0,.1,0,0,.2-.8.5-.3.8-.4.2,0,.4-.7.7-.5,0-.6.2-.5.4-.4.5.6,1,.1,1.4.2.5,0,1,0,1.4,0,0,0,.1-.4.2,0,.1.3.2,0,.3,0,0,0,.2-.2.3,0,.4.6.8.2,1.1.3.4,0,.8,0,1.1,0,.2-.1.4-.5.7-.3,0,0,.2-.3.3.3,0,.2.1-.3.2-.3.2,0,.3,0,.5,0,.2,0,.4,0,.7,0,.1,0,.3-.3.4-.4.1,0,.3,0,.4,0,.2,0,.4.3.5.3.2,0,.4-.2.5,0,.3.5.6.2,1,.3.3,0,.6.1,1,0,.2,0,.3.4.5.4,0,0,.2,1.5.1,2,0,0,0,.2,0,.2-.2.5-.3,1.2-.5,1.1-.3,0-.6,0-.9,0Z"/>
  <path d="M259.5,241.7c0-.2,0-.3,0-.5,0,0,.2-.1-.3-.2-.3,0,.4,0,.3-.1,0-.2,0-.3,0-.5,0-.2-.3-.3-.3-.5,0-.2.2-.3,0-.5-.3-.1.2-.2.1-.4-.1-.1-.2-.3,0-.4.2,0,.4-.2.3-.3,0,0-.4-.1-.4-.2,0,0,.3-.1-.3-.2,0,0,0,0,.1,0,.4,0,.4-.1.1-.2-.3,0-.2-.1-.2-.2,0-.1,0-.3,0-.4,0,0,.3-.2.4-.3,0-.1-.2-.2,0-.3.3,0,.3-.2.3-.3,0,0,.3-.1-.3-.2,0,0,0,0,0,0,.8-.1-.2-.3,0-.5.2-.2,0-.3,0-.5,0,0,.2,0-.3-.1-.2,0-.2,0,0,0,.6-.1.3-.2.4-.4.1-.1-.2-.3.3-.4.2,0,.3-.1-.3-.2-.3,0,0-.1,0-.2,0,0-.3,0-.3-.1,0,0,.2,0,.3,0,0,0,0,0,0,0-.7-.2.2-.4,0-.6-.2-.2,0-.4,0-.6,0-.1.2-.2,1.4-.3.5,0,1.1,0,1.4,0,.2,0,.5,0,.5.1,0,0,.2.1.3.2.2.1.7.3.4.4,0,0,.2.1-.3.1,0,0-.1,0,0,0,.8.2.3.4.3.6,0,.2.7.3.4.5.6.1.5.2.3.3-.7.3-.2.6-.3.9-.1.3,0,.6,0,1,0,0,.3.1,0,.2-.3,0,0,.1,0,.2,0,0,.1.1,0,.2-.7.2-.3.5-.4.7,0,.2-.1.5,0,.8,0,.2.4.3.3.5,0,0,.3.1-.3.2-.2,0,.3,0,.3.1,0,.1,0,.2,0,.3,0,.1,0,.3,0,.4,0,0,.3.2.3.3,0,0,0,.2,0,.3,0,.1-.3.2-.4.3,0,.1.2.3,0,.4-.5.2-.3.4-.3.6,0,.2-.1.4,0,.6,0,.1-.4.2-.4.3,0,0-1.5,0-2,0,0,0-.2,0-.2,0-.5-.1-1.2-.3-1.1-.4,0-.2,0-.4,0-.6Z"/>
  <path d="M263.1,253.7c-.3,0-.6,0-.8.2-.1,0-.2-.2-.3.3,0,.3-.2-.3-.3-.3-.3.1-.5,0-.8.1-.2,0-.5.3-.7.4-.3,0-.5-.2-.8.2-.2.3-.4-.2-.6,0-.2.1-.4.2-.7,0-.2-.2-.3-.4-.5-.2,0,0-.2.4-.3.4,0,0-.2-.3-.3.4,0,0,0,0,0-.1-.1-.4-.3-.4-.3,0,0,.3-.2.2-.2.3-.2,0-.4,0-.7,0-.2,0-.3-.3-.5-.3-.2,0-.3.2-.5,0-.2-.3-.3-.3-.5-.3,0,0-.2-.3-.3.4,0,0,0,0,0,0-.3-.8-.5.3-.8,0-.3-.2-.5,0-.8,0,0,0-.1-.2-.2.3,0,.2-.1.2-.1,0-.2-.6-.4-.3-.6-.4-.2-.1-.5.2-.7-.3,0-.2-.2-.3-.4.3,0,.3-.2,0-.3,0,0,0-.2.3-.2.3,0,0-.1-.2-.2-.4,0,0,0,0,0,0-.4.6-.7-.3-1-.1-.4.2-.7,0-1,0-.2,0-.4-.3-.4-1.4,0-.5,0-1.1.2-1.4,0-.2.2-.5.2-.5.1,0,.2-.2.3-.3.2-.2.5-.7.7-.4,0,0,.2-.2.2.3,0,0,0,.1,0,0,.3-.8.6-.2.9-.3.2,0,.5-.7.7-.4.2-.6.3-.5.4-.3.5.7,1,.3,1.4.4.5.1,1,0,1.5,0,0,0,.2-.4.3,0,0,.3.2,0,.3,0,0,0,.2-.1.3,0,.4.6.8.2,1.2.3.4,0,.8,0,1.1,0,.2-.1.4-.5.7-.4.1,0,.2-.3.3.3,0,.2,0-.3.2-.3.2,0,.3,0,.5,0,.2,0,.4,0,.7,0,.1,0,.2-.3.4-.4.1,0,.3,0,.4,0,.2,0,.4.2.6.3.2,0,.3-.3.6,0,.4.5.7.2,1,.2.3,0,.7,0,1-.2.2-.1.4.4.6.3,0,0,.5,1.4.5,1.9,0,0,0,.2,0,.2,0,.5-.1,1.2-.4,1.2-.3,0-.6,0-1,.1Z"/>
  <path d="M261.8,252.2c0-.2,0-.4,0-.6,0,0,.2-.2-.3-.2-.3,0,.4-.1.3-.2,0-.2,0-.4,0-.6,0-.2-.3-.3-.4-.5,0-.2.2-.4-.1-.5-.3-.1.2-.3,0-.4-.1-.1-.2-.3,0-.5.2-.1.4-.2.3-.3,0,0-.4-.1-.4-.2,0,0,.3-.2-.3-.2,0,0,0,0,.1,0,.4-.1.4-.2,0-.2-.3,0-.2,0-.3-.1,0-.2,0-.3,0-.5,0-.1.3-.3.3-.4,0-.1-.2-.2,0-.4.3-.1.3-.2.3-.4,0,0,.3-.2-.4-.2,0,0,0,0,0,0,.8-.3-.3-.3-.1-.5.2-.2,0-.4,0-.6,0,0,.2-.1-.3-.1-.2,0-.2,0,0,0,.6-.2.2-.3.3-.5.1-.2-.2-.3.3-.5.2,0,.3-.2-.3-.2-.3,0,0-.1,0-.2,0,0-.3,0-.3-.1,0,0,.2-.1.3-.2,0,0,0,0,0,0-.7-.2.2-.5,0-.7-.2-.2-.2-.5-.1-.7,0-.1.2-.3,1.3-.5.5-.1,1.1-.2,1.4-.2.2,0,.5,0,.5,0,.1,0,.2.1.4.2.2.1.8.2.5.4,0,0,.2,0-.3.2,0,0-.1,0,0,0,.8.1.3.4.4.6,0,.2.7.3.5.5.6,0,.5.2.4.3-.6.4-.1.8-.2,1.2,0,.4,0,.8,0,1.1,0,0,.4,0,0,.2-.3,0,0,.2,0,.3,0,0,.1.1,0,.2-.6.4-.2.6-.3.9,0,.3,0,.6,0,.9.1.2.5.3.4.5,0,0,.3.1-.3.3-.2,0,.3,0,.3.1,0,.1,0,.2,0,.4,0,.2,0,.4,0,.5,0,.1.3.2.4.3,0,.1,0,.2,0,.3,0,.1-.3.3-.3.4,0,.1.2.3,0,.4-.5.3-.2.5-.3.8,0,.3,0,.5,0,.8,0,.1-.4.3-.4.4,0,0-1.5.2-2,.2,0,0-.2,0-.2,0-.5-.1-1.2-.2-1.2-.4,0-.2,0-.5,0-.7Z"/>
  <path d="M264,264.6c-.3.1-.7.2-1,.4-.1,0-.3-.2-.3.4,0,.3-.3-.3-.4-.3-.3.1-.6,0-.9.2-.3,0-.5.3-.8.4-.3,0-.6-.2-.8.1-.2.3-.4-.2-.6,0-.2.1-.4.2-.6,0-.2-.2-.3-.4-.5-.3,0,0-.2.4-.3.4,0,0-.2-.3-.3.3,0,0,0,0,0-.1-.1-.4-.2-.4-.3,0,0,.3-.1.2-.2.3-.2,0-.4,0-.6,0-.2,0-.3-.3-.5-.3-.2,0-.3.2-.5,0-.2-.3-.3-.3-.5-.3,0,0-.2-.3-.2.4,0,0,0,0,0,0-.3-.8-.5.3-.7,0-.3-.2-.5,0-.8,0,0,0-.1-.2-.2.3,0,.2,0,.2-.1,0-.2-.6-.4-.2-.6-.3-.2-.1-.4.2-.7-.3-.1-.2-.2-.3-.3.3,0,.3-.2,0-.2,0,0,0-.1.3-.2.3,0,0-.1-.2-.2-.3,0,0,0,0,0,0-.3.7-.6-.2-1,0-.3.2-.7.1-1,0-.2,0-.4-.2-.5-1.4,0-.5,0-1.1,0-1.4,0-.2.1-.5.2-.5,0,0,.2-.2.3-.3.2-.2.4-.7.6-.5,0,0,.1-.2.2.3,0,0,0,.1,0,0,.3-.8.6-.3.9-.4.2,0,.5-.7.7-.4.1-.6.3-.5.4-.3.5.7,1,.2,1.5.3.5,0,1,0,1.5,0,0,0,.1-.4.3,0,.1.3.2,0,.3,0,.1,0,.2-.1.3,0,.4.6.8.2,1.2.3.4,0,.8.1,1.2,0,.2-.1.5-.5.7-.3.1,0,.2-.3.3.3,0,.2.1-.3.2-.3.2,0,.3,0,.5,0,.2,0,.4,0,.6,0,.1,0,.2-.3.3-.4.1,0,.2,0,.4,0,.2,0,.3.3.5.3.2,0,.3-.3.4,0,.4.4.6.1.8.1.2,0,.5,0,.6-.3,0-.1.4.2.5.1,0,0,.3.2.6.5.3.3.7.7.8.9,0,0,.1.2.1.2.1.5.4,1.2.1,1.4-.4.2-.8.4-1.2.6Z"/>
  <path d="M261.4,263.4c0-.2,0-.4,0-.5,0,0,.2-.1-.3-.2-.3,0,.4-.1.3-.2,0-.2,0-.3,0-.5,0-.2-.3-.3-.4-.5,0-.2.2-.3,0-.5-.3-.1.2-.3,0-.4-.1-.1-.2-.3,0-.4.2-.1.4-.2.3-.3,0,0-.4-.1-.4-.2,0,0,.3-.1-.3-.2,0,0,0,0,.1,0,.4,0,.4-.2,0-.2-.3,0-.2,0-.3-.1,0-.1,0-.3,0-.4,0-.1.3-.2.3-.3,0-.1-.2-.2,0-.3.3-.1.3-.2.3-.3,0,0,.3-.1-.4-.2,0,0,0,0,0,0,.8-.2-.3-.3,0-.5.2-.2,0-.3,0-.5,0,0,.2,0-.3-.1-.2,0-.2,0,0,0,.6-.1.2-.3.3-.4.1-.1-.2-.3.3-.4.2,0,.3-.2-.3-.2-.3,0,0-.1,0-.2,0,0-.3,0-.3-.1,0,0,.2,0,.3-.1,0,0,0,0,0,0-.7-.2.2-.4,0-.6-.2-.2-.1-.4,0-.6,0-.1.2-.2,1.4-.4.5,0,1.1,0,1.4,0,.2,0,.5,0,.5.1,0,0,.2.1.3.2.2.1.7.3.5.4,0,0,.2,0-.3.1,0,0-.1,0,0,0,.8.2.3.4.3.6,0,.2.7.3.4.5.6,0,.5.2.3.3-.7.3-.2.7-.3,1,0,.3,0,.7,0,1,0,0,.4,0,0,.2-.3,0,0,.1,0,.2,0,0,.1.1,0,.2-.7.3-.3.5-.3.8,0,.3-.1.5,0,.8.1.2.5.3.3.5,0,0,.3.1-.3.2-.2,0,.3,0,.3.1,0,.1,0,.2,0,.3,0,.1,0,.3,0,.4,0,0,.3.2.3.3,0,0,0,.2,0,.3,0,.1-.3.2-.3.4,0,.1.2.3,0,.4-.5.2-.2.5-.3.7,0,.2,0,.4,0,.7,0,.1-.4.2-.4.4,0,0-1.5.2-2,.2,0,0-.2,0-.2,0-.5-.1-1.2-.2-1.2-.3,0-.2,0-.4,0-.6Z"/>
  <path d="M271.3,248.2c.2-.4.4-.8.4-1.2,0-.2.3-.3-.1-.6-.2-.2.4-.1.4-.3,0-.4.3-.9.3-1.3,0-.4,0-.9,0-1.4,0-.4.5-.8.3-1.3-.2-.4.4-.6.4-1,0-.4,0-.8.3-1.1.2-.2.5-.4.5-.6,0-.2-.3-.3-.3-.5,0-.1.3-.2-.3-.4,0,0,0,0,.2,0,.4,0,.4-.2.1-.3-.3,0-.2-.1-.3-.2,0-.2-.1-.4-.1-.7,0-.2.2-.5.1-.8,0-.3-.4-.5-.2-.8.2-.3.1-.5,0-.7,0,0,.2-.3-.4,0,0,0,0,0,0,0,.3-.3.2-.3,0-.2-.1,0-.3.2-.3.1,0-.1,0-.2-.2-.2-.1,0-.3,0-.5,0-.1,0-.2-.2-.4.2,0,.1-.2.1-.2,0-.2-.7-.6-.4-.9-.5-.3-.2-.7,0-1-.5-.1-.2-.3-.4-.6.2-.1.3-.3,0-.4,0-.1,0-.2.3-.4.3,0,0-.2-.2-.3-.4,0,0,0,0,0,0-.6.6-1.1-.3-1.6-.1-.5.2-1.1.1-1.6,0-.3,0-.6-.2-.9-1.3-.1-.5-.2-1.1,0-1.4,0-.2.2-.5.3-.6.2-.1.4-.3.6-.4.4-.2.8-.8,1.2-.5.1,0,.3-.2.4.3,0,0,0,.1,0,0,.6-.8,1.1-.3,1.7-.3.5,0,1-.6,1.5-.3.3-.6.7-.4.9-.2.9.8,1.9.5,2.8.8.5.2,1,.3,1.7.6.8.3,1.4.9,1.9,1.6.2.2.6.3.5.6-.1.3.2.5.3.8,0,.2.3.4.2.6-.4.9.3,1.5.4,2.4.1.9,0,1.9,0,2.8,0,.5.2,1.1,0,1.5-.1.2.2.4-.4.5-.2,0,.2.3.2.4,0,.3-.1.6-.2.9-.1.4-.3.8-.3,1.2,0,.3.1.6.1.8,0,.3,0,.5-.2.8-.2.3-.5.6-.6.9-.2.3,0,.8-.4,1-.7.5-.6,1.2-1,1.8-.3.6-.7,1.2-1,1.9-.2.4-.8.4-1.1.7-.1.2-1.4-.7-1.7-1.1,0,0-.1-.2-.1-.2-.1-.5-.6-1.2-.4-1.4.3-.3.5-.7.7-1.2Z"/>
  <path d="M270.4,251.9c-.1,0-.3,0-.4,0,0,0,0-.2-.2.3,0,.3,0-.4-.1-.3-.1,0-.2,0-.4,0-.1,0-.3.3-.4.3-.1,0-.2-.2-.4,0-.1.3-.2-.2-.3-.1-.1.1-.2.2-.3,0,0-.2-.1-.4-.2-.3,0,0-.1.4-.1.4,0,0,0-.3-.1.3,0,0,0,0,0-.1,0-.4,0-.4-.1-.1,0,.3,0,.2-.1.2-.1,0-.2,0-.3,0,0,0-.1-.3-.2-.4,0,0-.2.2-.2,0,0-.3-.1-.3-.2-.3,0,0,0-.3-.1.3,0,0,0,0,0,0,0-.8-.2.3-.4,0-.1-.2-.2,0-.4,0,0,0,0-.2-.1.3,0,.2,0,.2,0,0,0-.6-.2-.3-.3-.4-.1-.1-.2.2-.3-.3,0-.2,0-.3-.2.3,0,.3,0,0-.1,0,0,0,0,.3-.1.3,0,0,0-.2,0-.3,0,0,0,0,0,0-.2.7-.3-.2-.5,0-.2.2-.3,0-.5,0,0,0-.2-.2-.2-1.4,0-.5,0-1.1,0-1.4,0-.2,0-.5.1-.5,0,0,.1-.2.2-.3.1-.2.2-.7.3-.4,0,0,0-.2,0,.3,0,0,0,.1,0,0,.2-.8.3-.3.4-.3.1,0,.3-.7.4-.4,0-.6.2-.5.2-.3.2.7.5.2.7.3.2.1.5,0,.7,0,0,0,0-.3.1,0,0,.3.1,0,.2,0,0,0,.1-.1.1,0,.2.7.4.3.6.4.2,0,.4.1.6,0,.1,0,.2-.4.4-.3,0,0,.1-.3.1.3,0,.2,0-.3.1-.3,0,0,.2,0,.2,0,.1,0,.2,0,.3,0,0,0,.1-.3.2-.3,0,0,.1,0,.2,0,0,0,.2.3.3.4,0,0,.2-.2.3,0,.1.5.3.3.5.3.2,0,.3.1.5,0,0,0,.2.4.3.4,0,0,0,1.5,0,2,0,0,0,.2,0,.2-.1.5-.2,1.2-.3,1.1-.1,0-.3,0-.5,0Z"/>
  <g>
    <path d="M236.2,235c-.8.5-2,0-2.6-.7s-.8-1.8-.9-2.7l-.9-5.5c-.2-1,.6-2,1.6-2l41-1.8c.3,0,.7,0,.9.2.3.2.3.6.2,1,0,1.5-.1,3-.2,4.5,0,.8-.1,1.7-.7,2.3-.4.4-1,.5-1.5.6-3,.3-8.8-1.1-10.9,1-.4.4-.7.9-1.3.9-.3,0-.6-.1-.8-.3-2.8-1.5-5.7-2.8-8.9-3.2s-6.5.3-8.9,2.4"/>
    <path d="M250.9,227.3c1.8.2,3.5.6,5.2,1.2.6.2,1.1.7,1.9.5.4-.1.7.7,1.2.9.3.1.7.3,1,.5l.3.2c.2.2.5-.1.5-.2,0,0,0,0,0,0h0c0,0,.2-.2.2-.2.1,0,.2-.2.4-.3.2-.2.5-.3.7-.4.5-.2.9-.4,1.4-.6.9-.3,1.8-.4,2.6-.4,1.6,0,3.1.4,4.5.1.6-.1,1.1,0,1.5,0h.3c0,0,0,0,0,0,0,0,.1,0,.1,0,0,0,0,0,0-.1,0,0,0-.2,0-.2,0,0,0,0,0,0h0s0-.2,0-.2c0-.2,0-.5.1-.7.1-.4.2-.9.3-1.3,0-.2,0-.4,0-.6s0-.2,0-.3c0,0,0,0,0,0,0-.2-.4-.1-.4-.2,0,0,0-.2,0-.2,0,0-.2,0-.4.4,0,0,0,0,0-.1,0-.2,0-.3,0-.3,0,0,0,0,0,0,0,0-.3.1-.4.2-.5.3-.9.3-1.3.3-1.2,0-2.4.2-3.7.2-.9,0-1.8-.2-2.8-.2-1,0-2,.3-2.9,0-.9-.3-1.7-.2-2.6-.2-.5,0-1.1-.2-1.5.4,0,0-.2,0-.3,0-1.4-.8-2.8.4-4.2.2-1.5-.1-3,0-4.5.2-.4,0-.8-.1-1.2.3-.1.2-.5.2-.7,0-1.1-.6-2.3-.1-3.4-.2-1.3,0-2.6.3-3.9-.2-.6-.2-1.3-.3-1.9.4-.3.3-.9,0-1.4.1-.4,0-.8.4-1.1.4,0,0-.2,0-.2,0,0,0-.2,0-.2,0,0,0,0-.2,0-.2,0,0,0,0,0,0,0,.2,0,.3,0,.3,0,0-.2,0-.2.1,0,0,0,0,0,0,0,0,0,.3,0,.4,0,.3,0,.7.2,1,.3.9.4,1.9.6,2.8.1,1,.3,1.6.4,1.9,0,0,0,.2,0,.4,0,.2,0,.6.3,1.1.3.4.8.8.3,1.4-.4.4-1,.6-1.6.4-.4,0-.8-.3-1.2-.5-.4-.2-.7-.6-1-.9-.5-.7-.9-1.4-1.2-2.1-.3-.7-.4-1.2-.4-1.9,0-.4-.4-.8,0-1.2,0,0,0-.2,0-.3-.3-.4-.4-.7-.6-1.1s-.1-.4-.2-.6c0-.3-.1-.7-.2-1-.3-1.5.4-2.9,1.6-3.7.5-.3,1-.5,1.6-.7.3,0,.6-.1.9-.2h.4c0,0,.3-.1.3-.1.7-.2,1.4-.3,2.2-.2.8-.7,1.7-.6,2.6-.4,2.9.5,5.8,0,8.7,0,2.9,0,5.9-.3,8.8-.3.5,0,.9-.4,1.5-.1.6.2,1.3,0,1.9,0,.6,0,1.2-.2,1.8,0,2.3.6,4.6,0,6.9,0,1.1,0,2.3,0,3.4,0h1.3c.5,0,1-.1,1.4,0,.4,0,.8.2,1.1.4.4.2.7.6.8.9.2.4.4.9.4,1.5,0,.6,0,1.2,0,1.8v.6s0,.5,0,.5c0,.3,0,.7,0,1,0,.3,0,.6,0,.9,0,0,0,.2,0,.3,0,0,0,.3,0,.4,0,.3-.2.5-.4.7-.2.2,0,1.3-.5,1.9-.1.1-.2.3-.4.4-.5.5-1.2.9-2,1-.4,0-.8.1-1.1.2-.3,0-.5,0-.8,0-1.5,0-2.8-.2-4.1-.2-.8,0-1.5.2-2.2.3-.7,0-1.3.2-1.6.3-.1,0-.2,0-.2,0,0,0,0,0,0,0,0,0,0,0-.2.1l-.3.3c0,0-.2.2-.3.2-.8.6-1.7.9-2.6.7-.5,0-.9-.2-1.4-.5l-1.2-.5c-.5-.2-1-.5-1.4-.8-1.5-1.2-3.3-1.6-5-2-1.7-.3-3.5-.3-5,.3-.8.3-1.8.2-2.6.8-.2.1-.6,0-1-.2-.4-.2-.9-.5-.9-.7,0,0,0-.2,0-.3.6-1.1,1.3-2.4,2.7-2.8,2-.7,4.1-.9,6.2-.8Z"/>
  </g>
  <g>
    <path d="M268.5,250c-2.9,18.5-6.5,36.6-10.6,51.2-2.1-11.9-6.7-26.9-9.8-37.3,4.3-.3,10.1.3,14.5,0,.6,0-.9,2-.3,1.8,1.4-.7,1.7-7.7,1.9-9.3.3-3.3-1.1-1.8-.8-5.1"/>
    <path d="M265.3,262.5c0,.5-.2,1.1-.3,1.6-.1.6-.3,1.1-.7,1.8-.1.2-.3.4-.4.6,0,0-.2.3-.4.4-.2.1-.3.2-.5.3,0,0-.2,0-.3.1h0c0,0-.1,0-.2,0-.2,0-.2,0-.5,0-.3,0-.7-.1-1-.3l-.7-.8h0s0,0,0,0h0c0-.2,0-.2,0-.3,0,0,0-.2,0-.1-.1,0-.2,0-.4,0,0,0-.2.1-.3.3,0,0,0,0,0,0,0,0,0,0,0,0,0,0-.1,0-.2,0-.3-.1-.7-.3-1-.3-1.9,0-3.7-.1-5.6-.1h-.7c-.2,0-.5,0-.5,0-.1,0-.2,0-.3.1,0,0-.1,0-.2.1h0c0,0,0,.1,0,.2,0,.2,0,.3,0,.4h0s0,.2,0,.2v.3c0,0,.3.6.3.6.1.4.3.8.5,1.2.7,1.3.6,2.8,1.1,4.1.5,1.4,1.1,2.9,1.2,4.4.1,1.1.2,2.2.6,3.2.2.6.7,1.1.9,1.9.2.7.1,1.5.9,1.9,0,0,0,.4,0,.5-.2.8,0,1.7.5,2.2.4.5.5,1,.7,1.6l.2.6v.3c0,0,0,0,0,0h0s0,0,0,0c0,0,0,.2,0,.4,0,.2,0,.5,0,.7,0,.2,0,.1,0,0,0,0,0,0,0,.8,0,.2,0,.4,0,.6,0,.6.1.2.2,0,0,0,0,0,0,0,0-.1,0-.5,0-1.4,0-.2,0-.2,0,0,0,.2,0,.4.1.4.1.2.1-.3,0-.7v-.5c0-.2,0-.3,0-.3.2-.2.2-.2.4-1.4.2-.9.4-1.8.6-2.7.1-.5.4-1,0-1.5-.1-.2,0-.7.1-.9.9-1.2.8-2.7,1.2-4,.4-1.5.5-3.2,1.3-4.6.3-.6.6-1.5.2-2.4-.2-.4.2-1.1.3-1.7,0-.5-.1-1,0-1.5,0-.4.4-.8.6-1.1,0-.1,0-.3,0-.4-.2-2.4,1.1-4.5,1.3-6.9.2-2.4.7-4.7,1.2-7,.3-1.3.7-2.6,1.9-3.3.6-.3,1.1-.2,1.4.4.2.4.3.9.3,1.4,0,.8,0,1.5,0,2.3,0,1.5.2,3.1-.3,4.6-.2.5,0,1.1-.5,1.4,0,0-.2.2-.1.3.4,2.2-.5,4.3-.8,6.4-.3,1.8,0,3.6-.6,5.4.4,1.1,0,2.3-.3,3.2-1.4,3.4-1.7,7-2.6,10.5l-1.4,5.9-.5,2.2-.3,1.1-.3,1.1-1.2,4.5h-.2c-.2,0-.3.3-.5.4-.2.1-.3.2-.6,0,0,0-.2,0-.3,0,0,0-.1,0-.2,0-.1,0-.3.2-.4.3-.1,0-.2.2-.3.2,0,0-.2-.1-.3-.2,0-.1-.2-.3-.3-.5l-.4-.5c-.1-.2-.3-.3-.4-.5-.2-.1-.5-.3-.7-.4-.4-2.2-1-4.3-1.4-6.5l-.7-3.1-.5-2.1c-.4-1.4-.7-2.7-1.2-4.1-.5-1.6-1.3-3.2-1.7-4.9-.1-.7-.7-1.4-.3-2.3.1-.2-.5-.8-.7-1.2-.4-1.1-.7-2.3-1-3.4l-.7-2.4-.4-1.2-.5-1.6c-.3-.9-.6-1.8-.9-2.7l-.5-1.4-.2-.7v-.4c-.1,0-.2-.2-.2-.2,0,0,.1,0,.2,0,2-.2,4-.3,6.1-.3.8,0,1,0,1.3,0h1c.7.2,1.3.3,2,.4,1.4.1,2.8-.1,4.1.2,0,0,.4,0,.6,0h.6c.4,0,.8,0,1.3,0l1.1.2.8.4c0,0,.1,0,.2.1,0,0,.1.1.1.2,0,.1,0,.2.1.3,0,.2,0,.4.1.7,0,.1,0,.3,0,.5v.3s0,0,0,0h0s0,0-.2,0l-.6-.3-.3-.2c.9-1.4-1.3,1.8-1,1.5h0s0,0,0,0c0,0,0,0,0,0,0,0,0,0,0-.2,0,0,0,0,0-.1h0s0-.2,0-.2h0c0-.2-.1-.3-.2-.3,0,0-.2,0-.4-.3,0,0-.2-.1-.3-.2,0,0,0,0,0,0,0,0,0,0,0,0,0-.2.2-.6.3-1,.3-1,.5-2.2.6-3.4.1-1.2.2-2.3.2-3.6,0-.6.1-1.1.2-1.3,0,0,0-.1,0-.2,0,0-.1-.3-.2-.6-.2-.5-.3-1-.3-1.5,0-.9,1.5-1.6,2-1.3,0,0,.2.2.2.3,0,.3.2.6.4.8.2.2.3.3.5.4,0,0,0,0,.1,0,0,0,0,0,0,0h.1c.2.3.3.6.5.8.1.3.2.6.3.9,0,.3,0,.5,0,.8,0,.4,0,.7,0,1v.8c0,0-.2,1.7-.2,1.7,0,1.1-.2,2.3-.4,3.5Z"/>
  </g>
  <path d="M235.8,216.8c-.1,0-.2-.2-.4-.3,0,0,0-.3-.3.1-.2.2.2-.3.1-.3-.2,0-.2-.2-.3-.3-.1,0-.4,0-.5,0-.1,0,0-.4-.4-.2-.3.1,0-.3-.2-.3-.2,0-.3,0-.2-.3,0-.2.2-.4,0-.4,0,0-.3.2-.4.1,0,0,.1-.3-.4.1,0,0,0,0,0-.1.3-.3.2-.4,0-.2-.2.2-.2.1-.3,0-.1,0-.2-.1-.2-.3,0,0,0-.3,0-.4,0-.1-.3,0-.1-.3.2-.3.1-.3,0-.4,0,0,.1-.3-.4.1,0,0,0,0,0,0,.5-.6-.4,0-.3-.3,0-.2-.1-.3-.3-.4,0,0,0-.2-.3,0-.1,0-.2,0,0,0,.4-.5,0-.3,0-.5,0-.2-.3,0,0-.5.1-.2.2-.3-.3,0-.2.1,0,0-.1,0,0,0-.3.1-.3.1,0,0,.1-.2.2-.3,0,0,0,0,0,0-.6.3,0-.4-.3-.5-.3,0-.3-.2-.3-.4,0-.1,0-.3,1-1,.4-.3.9-.6,1.1-.8.2-.1.4-.2.5-.2.1,0,.2,0,.4,0,.2,0,.7-.3.5,0,0,0,.2,0-.2.3,0,0,0,0,0,0,.7-.4.4,0,.5.1.1,0,.7-.2.5,0,.5-.3.5-.2.4,0-.4.6.1.5.2.8,0,.2.3.4.5.6,0,0,.3-.2.1,0-.2.2,0,.1,0,.2,0,0,.2,0,0,.1-.4.6,0,.5.2.7,0,.2.2.4.4.4.2,0,.5-.1.5,0,0,0,.3-.1-.1.3-.1.1.2-.2.3-.2,0,0,.1.1.2.2,0,0,.1.2.3.2,0,0,.3-.1.4-.1,0,0,.1,0,.2.1,0,.1,0,.3,0,.4,0,.1.3,0,.2.2-.2.5,0,.4.2.6,0,.2.2.3.4.3.1,0-.1.4,0,.5,0,0-.8,1.2-1.2,1.6,0,0-.1.1-.2.2-.4.3-.9.8-1,.7,0-.2-.3-.2-.4-.3Z" fill="#00b4e9"/>
  <path d="M246.1,212.1c0-.2,0-.3-.1-.5,0,0,.2-.2-.3-.1-.3,0,.3-.2.3-.2,0-.1,0-.3-.1-.4,0-.1-.3-.2-.4-.4,0-.1.2-.3-.2-.4-.3,0,.2-.3,0-.4-.1-.1-.2-.2,0-.4.2-.1.4-.2.2-.3,0,0-.4,0-.4-.1,0,0,.3-.1-.4-.1,0,0,0,0,.1,0,.4-.1.4-.2,0-.2-.3,0-.2,0-.3-.1,0-.1,0-.2,0-.4,0,0,.3-.2.3-.3,0-.1-.2-.2,0-.3.3-.1.3-.2.3-.3,0,0,.3-.1-.4-.1,0,0,0,0,0,0,.8-.2-.3-.3,0-.4.2-.2,0-.3,0-.4,0,0,.2,0-.3-.1-.2,0-.2,0,0,0,.6-.1.2-.2.3-.4.1-.1-.2-.3.3-.4.2,0,.3-.1-.3-.2-.3,0,0,0,0-.1,0,0-.3,0-.3-.1,0,0,.2,0,.3-.1,0,0,0,0,0,0-.7-.2.2-.4,0-.6-.2-.2-.1-.4,0-.6,0-.1.2-.2,1.4-.3.5,0,1.1,0,1.4,0,.2,0,.5,0,.5.1.1,0,.2.1.3.2.2.1.7.2.4.3,0,0,.2,0-.3.1,0,0-.1,0,0,0,.8.2.3.3.3.5,0,.1.7.2.4.4.6,0,.5.1.3.2-.7.3-.2.5-.3.8,0,.3,0,.5,0,.8,0,0,.4,0,0,.1-.3,0,0,.1,0,.2,0,0,.1,0,0,.2-.6.3-.2.4-.3.6,0,.2,0,.4,0,.6.1.1.5.2.4.3,0,0,.3,0-.3.2-.2,0,.3,0,.3,0,0,0,0,.2,0,.2,0,.1,0,.2,0,.3,0,0,.3,0,.4.2,0,0,0,.1,0,.2,0,.1-.2.2-.3.3,0,.1.2.2,0,.3-.5.3-.2.4-.2.6,0,.2,0,.4.1.5,0,0-.4.3-.4.4,0,0-1.4.4-1.9.5,0,0-.2,0-.2,0-.5,0-1.2,0-1.2,0,0-.2,0-.4,0-.5Z" fill="#00b4e9"/>
  <path d="M259.1,210.8c0-.1,0-.3,0-.4,0,0,.2-.1-.3-.2-.3,0,.4,0,.3-.1,0-.1,0-.3,0-.4,0-.1-.3-.3-.3-.4,0-.1.2-.3,0-.4-.3-.1.2-.2.1-.3-.1-.1-.2-.2,0-.3.2,0,.4-.2.3-.2,0,0-.4,0-.4-.1,0,0,.3-.1-.3-.1,0,0,0,0,.1,0,.4,0,.4-.1.1-.2-.3,0-.2,0-.2-.1,0-.1,0-.2,0-.3,0,0,.3-.2.3-.2,0,0-.2-.2,0-.3.3,0,.3-.2.3-.2,0,0,.3,0-.3-.1,0,0,0,0,0,0,.8-.1-.3-.3,0-.4.2-.1,0-.3,0-.4,0,0,.2,0-.3-.1-.2,0-.2,0,0,0,.6,0,.2-.2.4-.3.1-.1-.2-.2.3-.3.2,0,.3-.1-.3-.2-.3,0,0,0,0-.1,0,0-.3,0-.3-.1,0,0,.2,0,.3,0,0,0,0,0,0,0-.7-.2.2-.3,0-.5-.2-.2-.1-.4,0-.5,0,0,.2-.2,1.4-.2.5,0,1.1,0,1.4,0,.2,0,.5,0,.5.1.1,0,.2.1.3.2.2.1.7.2.4.3,0,0,.2,0-.3,0,0,0-.1,0,0,0,.8.2.3.3.3.5,0,.1.7.3.4.4.6,0,.5.2.3.2-.7.2-.2.5-.3.7,0,.3,0,.5,0,.8,0,0,.4,0,0,.1-.3,0,0,.1,0,.2,0,0,.1.1,0,.2-.7.2-.3.4-.3.6,0,.2-.1.4,0,.6,0,.1.4.2.3.4,0,0,.3.1-.3.2-.2,0,.3,0,.3,0,0,0,0,.2,0,.2,0,.1,0,.2,0,.3,0,0,.3.1.3.2,0,0,0,.1,0,.2,0,0-.3.2-.3.3,0,0,.2.2,0,.3-.5.2-.3.3-.3.5,0,.2-.1.3,0,.5,0,0-.4.2-.4.3,0,0-1.5.2-2,.1,0,0-.2,0-.2,0-.5,0-1.2-.1-1.1-.3,0-.2,0-.3,0-.5Z" fill="#00b4e9"/>
  <path d="M276.5,209.6c0,0-.2,0-.2.1,0,0-.2-.2,0,.3.1.2-.2-.3-.2-.2,0,0-.1,0-.2.2,0,0,0,.3,0,.4,0,0-.3,0-.1.2.1.2-.2-.1-.2,0,0,.1,0,.2-.2,0-.1-.1-.3-.2-.3-.1,0,0,.2.3.2.3,0,0-.2-.2.2.3,0,0,0,0-.1,0-.3-.3-.3-.2-.1,0,.2.2.1.2.1.2,0,0,0,.1-.1.1,0,0-.3-.1-.3-.1,0,0,.1.2-.2,0-.3-.2-.3-.1-.3,0,0,0-.3-.1.2.3,0,0,0,0,0,0-.7-.5.1.3,0,.2-.2,0-.1,0-.2.1,0,0-.2,0,.2.2.1,0,.1.1,0,0-.5-.3-.3,0-.4,0-.1,0,0,.2-.4,0-.2,0-.3-.1.2.2.2.2,0,0,0,0,0,0,.3.2.3.2,0,0-.2,0-.3-.1,0,0,0,0,0,0,.5.4-.3,0-.2.2.1.2,0,.2-.1.2,0,0-.3,0-1.3-.5-.5-.2-1-.4-1.3-.6-.2-.1-.4-.2-.4-.3,0,0-.2-.2-.2-.3-.1-.2-.6-.5-.3-.4,0,0-.2-.2.3,0,0,0,.1,0,0,0-.6-.5-.1-.4-.1-.5,0-.1-.5-.5-.2-.5-.5-.4-.4-.4-.2-.3.7.2.4-.2.6-.4.2-.1.3-.4.4-.5,0,0-.2-.3,0-.1.2.1.1,0,.1,0,0,0,0-.2.1,0,.6.3.4,0,.6-.2.2,0,.3-.1.3-.4,0-.1-.1-.5,0-.4,0,0-.1-.3.3.1.1.1-.1-.3-.1-.3,0,0,.1-.1.2-.2,0,0,.2,0,.2-.2,0,0,0-.3,0-.4,0,0,0-.1.2-.1.1,0,.3.1.4.1.1,0,0-.3.2,0,.4.3.4,0,.5,0,.2,0,.3,0,.4-.2,0-.1.3.3.4.3,0,0,.8,1.3,1,1.7,0,0,0,.2,0,.2.2.4.5,1.1.4,1.1-.1,0-.2,0-.2.1Z" fill="#00b4e9"/>
  <path d="M281.2,217.9s0,0,0,0c0,0-.1-.2,0,.3,0,.2-.2-.3-.2-.3,0,0,0,0,0,0,0,0,0,.3,0,.4,0,0-.1-.2,0,.1,0,.3-.1-.2-.1,0,0,.1,0,.2,0,0,0-.2-.2-.3-.2-.2,0,0,.1.4.1.3,0,0-.1-.3.1.3,0,0,0,0,0-.1-.2-.4-.2-.3,0,0,0,.3,0,.2,0,.2,0,0,0,0,0,0,0,0-.1-.2-.2-.3,0,0,0,.2,0,0-.1-.3-.1-.3-.2-.2,0,0-.1-.3.1.3,0,0,0,0,0,0-.4-.8,0,.3,0,0-.1-.2,0,0,0,0,0,0,0-.2,0,.3,0,.1,0,.2,0,0-.3-.6-.1-.2-.2-.3,0-.1,0,.2-.2-.3,0-.2-.1-.3,0,.3.1.3,0,0,0,0,0,0,.1.3.1.3,0,0-.1-.2-.2-.3,0,0,0,0,0,0,.2.6-.2-.2-.1,0,0,.2,0,.1,0,0,0,0-.1-.2-.6-1.2-.2-.5-.4-1-.5-1.3,0-.2-.2-.4-.2-.5,0,0,0-.2,0-.3,0-.2-.2-.7-.1-.4,0,0,0-.2.1.3,0,0,0,0,0,0-.3-.7,0-.3,0-.3,0,0-.2-.6,0-.4-.2-.6-.2-.5,0-.3.3.6.2.2.3.2,0,0,.1,0,.2,0,0,0-.1-.3,0,0,.1.2,0,0,0,0,0,0,0-.1,0,0,.3.6.2.2.3.3,0,0,.1,0,.1,0,0-.1-.1-.4,0-.3,0,0,0-.3.2.3,0,.2,0-.3-.1-.3,0,0,0,0,0,0,0,0,0,0,0,0,0,0,0-.3,0-.3,0,0,0,0,0,0,0,0,.2.2.2.3,0,0,0-.2,0,0,.2.5.2.2.2.2,0,0,.1,0,0,0,0,0,.2.4.2.4,0,0,.6,1.3.8,1.8,0,0,0,.2,0,.2.2.4.4,1.1.4,1.1,0,0,0,0-.1,0Z" fill="#00b4e9"/>
  <path d="M279.2,209.5c.2-.4.5-.7.7-1,0-.1.4,0,0-.5-.1-.2.4,0,.5,0,.2-.3.6-.5.8-.7.2-.3.4-.6.7-.9.3-.2.7-.1.9-.6.2-.4.6,0,.8-.2.2-.2.5-.4.8-.2.2.1.5.3.6.1.1,0,.2-.4.3-.4.1,0,.3.2.3-.4,0,0,0,0,.1.1.2.4.3.3.4,0,0-.3.2-.3.3-.3.3,0,.5-.1.8,0,.2,0,.4.3.6.3.2,0,.4-.2.6,0,.2.3.4.3.5.3.1,0,.2.3.3-.3,0,0,0,0,0,0,.3.8.6-.2.9,0,.3.2.6,0,.9,0,0,0,.2.2.2-.3,0-.2.1-.2.1,0,.2.6.4.3.6.4.2.1.5-.2.7.3,0,.2.2.3.4-.3,0-.3.2,0,.3,0,0,0,.1-.3.2-.3,0,0,.1.2.2.3,0,0,0,0,0,0,.3-.7.6.2,1,0,.3-.2.6-.2.9-.1.2,0,.4.2.7,1.3.2.5.3,1,.2,1.4,0,.2,0,.5-.1.6-.1.1-.2.3-.3.4-.2.2-.4.8-.7.5,0,0-.2.2-.3-.3,0,0,0-.1,0,0-.3.8-.7.3-1.1.4-.3,0-.6.7-.9.4-.2.6-.4.5-.5.3-.6-.7-1.1-.3-1.7-.4-.6-.1-1.1,0-1.6-.1,0,0-.2.3-.3,0,0-.3-.2,0-.3,0-.1,0-.2.1-.3,0-.4-.7-.8-.2-1.2-.3-.4,0-.8,0-1.1.2-.2.1-.3.5-.6.4-.1,0,0,.3-.3-.2,0-.2,0,.3,0,.3-.1,0-.3.1-.4.2-.2,0-.4.1-.5.2,0,0,0,.4-.1.5,0,.1-.1.2-.3.2-.1,0-.4,0-.5,0-.2,0,0,.3-.4.2-.5-.2-.5.2-.7.4-.2.2-.4.4-.3.7,0,.1-.5.1-.5.3,0,0-1.5-.1-2-.3,0,0-.2,0-.2,0-.4-.3-1-.8-.9-1.1.2-.4.4-.9.6-1.3Z"/>
  <path d="M244.4,300.5c-1.2-.3-2.4-.4-3.6-.8-.4-.1-.8-.5-1.4-.2-.2,0-.3,0-.4-.2-.1-.2-.3-.4-.5-.5-1-.5-2.1-1-3-1.6-.5-.3-1-.5-1.5-.8-.5-.2-1-.6-1.4-.9-.4-.3-.8-.7-1.2-1.1-.4-.4-.8-.8-1.2-1.1-.4-.2-.7-.6-.9-1-.2-.4-.4-.8-.7-1.1-.7-.7-1.4-1.4-1.6-2.3-.2-.7-.4-1.3-.8-1.8-.3-.3-.7-.5-.9-.9-.2-.4-.1-.9-.9-1,0,0,0-.2,0-.3.2-.6,0-1.1-.4-1.3-.4-.2-.5-.6-.6-.9-.4-.9-.6-1.8-.8-2.7-.1-.7,0-1.4-.1-2.1,0-.7-.4-1.5-.2-2.2.3-.7.2-1.3.2-2,0-.4.3-.8-.4-1.1,0,0,0-.2,0-.2.9-1-.1-2.2.2-3.3.4-1.1.5-2.2.8-3.3,0-.3.3-.5,0-.9-.1-.1,0-.4.1-.6.9-.6.8-1.5,1.2-2.3.5-.8.6-1.8,1.4-2.5.4-.3.7-.7.4-1.4-.1-.3.3-.6.4-.9,0-.3,0-.6,0-.9.1-.2.4-.3.6-.5,0,0,.1-.1.1-.2,0-1.5,1.5-2.3,2.1-3.5.6-1.3,1.4-2.4,2.2-3.5.5-.6,1.1-1.2,2.3-.9.6,0,1,.4,1.1.9,0,.3.1.7,0,.9-.2.4-.3.8-.4,1.2-.3.8-.3,1.8-1,2.4-.2.2-.1.6-.7.5,0,0-.2,0-.2.1,0,1.4-1,2.2-1.5,3.3-.4.9-.3,2.1-1,2.8.3.8,0,1.3-.5,1.7-1.4,1.5-1.7,3.5-2.4,5.3-.3.9-.6,1.8-.7,2.8,0,.5-.1.9-.2,1.4v1.4c-.2.3.2.6,0,1-.2.4,0,.8,0,1.2,0,.4.1.8,0,1.1-.2.8-.2,1.5,0,2.3.2.7.5,1.4.6,2.2.4,1.4.9,2.9,1.7,4.2.3.4.5.8.8,1.1.3.3.6.7.8,1.1.2.4.6.5.4,1.2,0,.2.5.2.7.4.4.5.8,1,1.2,1.4.6.6,1.2,1.3,1.8,1.8.4.3,1,.4,1.4.7.2.1.4.3.7.5.2.1.4.3.6.5.5.4,1,1,1.6,1.4.6.4,1.4.4,1.9,1,1,.9,2.3,1.1,3.6,1.3,1.2.4,2.5.4,3.8.3.7-.1,1.4.3,2.1.2.3,0,1,1.4,1,1.9,0,0,0,.2-.1.2-.7.5-1.4,1.3-2.3,1.4h-.5s-.5,0-.5,0h-1c0,0-1-.1-1-.1h-.5s-.5-.1-.5-.1Z"/>
  <path d="M297.1,262.9c-.4.5-.8,1-1.2,1.6-.1.2-.5.2-.2.8.1.3-.5,0-.6.2-.3.5-.8.9-1.1,1.4-.3.5-.5,1.1-.9,1.5-.3.5-1,.7-1.1,1.4-.1.5-.8.5-1,1-.2.4-.5.9-1,1.1-.4.1-.8.2-.9.6,0,.2,0,.6-.2.7-.2.1-.5.1-.2.7,0,0-.1,0-.2,0-.5-.1-.6.1-.6.4,0,.3,0,.4-.2.6-.3.4-.6.8-1,1.1-.3.2-.7.3-1,.5-.3.2-.4.7-.9.8-.5,0-.7.3-.9.5-.1.1-.5,0-.2.7,0,0,0,0,0,0-1-.2-.6,1-1.2,1.2-.6.3-.9.8-1.3,1.2-.1.1-.4,0-.2.5,0,.2,0,.3-.2.3-.8-.2-.8.4-1.2.7-.5.3-.6.8-1.4.8-.3,0-.6.1-.4.7,0,.3-.3.2-.4.4,0,.1,0,.4-.1.6,0,0-.3,0-.5,0,0,0,0,0,0,0-.2,1-1.3.8-1.8,1.4-.5.6-1.2,1.1-1.9,1.5-.4.2-.9.3-1.8-.4-.4-.4-.7-.8-.7-1.2,0-.3,0-.5,0-.7.1-.2.2-.5.4-.7.3-.4.3-1.1.8-1.2.2,0,.1-.4.5,0,0,0,.1,0,.1,0,0-1,.8-1.1,1.3-1.5.4-.4.4-1.2,1-1.4-.2-.7.2-.8.5-.9,1.3-.3,1.8-1.4,2.7-2.1.9-.7,1.7-1.6,2.5-2.4.1-.1,0-.5.4-.5.3,0,.4-.3.6-.5.2-.2.2-.4.5-.5,1.1-.2,1.5-1.1,2.1-1.7.7-.6,1.3-1.2,1.8-2,.3-.5.4-1.1.9-1.4.2-.1.1-.5.7-.3.2,0,0-.4,0-.5.2-.3.5-.6.7-.8.3-.4.7-.7,1-1.2.2-.3.2-.7.4-.9.2-.3.4-.5.6-.8.3-.3.8-.4,1.1-.7.3-.3.4-.8.9-1,.9-.3,1.1-1,1.7-1.6.5-.6,1-1.1,1.3-1.8.2-.4.8-.4,1-.8,0-.2,1.5.4,1.9.7,0,0,.1.1.2.2.2.6.6,1.3.2,1.8-.5.6-.9,1.2-1.3,1.8Z"/>
  <path d="M311,296.6c-.2-1-.4-2-.7-3-.1-.4,0-.8-.6-1.1-.3-.1.2-.6.1-1-.3-.9-.5-1.8-.8-2.7-.3-.9-.8-1.7-1.1-2.5-.3-.9-.4-1.8-1-2.6-.5-.6-.3-1.4-.6-2.1-.4-.7-.7-1.4-.8-2.2,0-.6,0-1.2-.3-1.6-.2-.3-.6-.5-.7-.8-.1-.3,0-.8-.7-.8,0,0,0-.2,0-.3.2-.5,0-.9-.3-1.1-.4-.2-.4-.4-.6-.7-.3-.7-.7-1.4-.9-2.2-.2-.6-.2-1.2-.4-1.7-.2-.6-.7-1.1-.7-1.7,0-.6-.2-1.1-.5-1.6-.1-.3,0-.7-.7-.7,0,0-.1-.1,0-.2.4-1.2-1-1.5-1.2-2.4-.2-.9-.8-1.8-1.2-2.6-.1-.2,0-.6-.6-.6-.2,0-.3-.2-.3-.4.2-.9-.4-1.4-.7-2.1-.3-.8-.9-1.4-.9-2.4,0-.4,0-.9-.8-1.1-.3,0-.3-.6-.4-.8-.2-.2-.5-.3-.6-.6,0-.2,0-.5,0-.8,0,0,0-.2,0-.2-1.1-1-.7-2.5-1.2-3.7-.5-1.3-.7-2.7-.7-4.1,0-.8.2-1.6,1.3-2.1.5-.2,1.1-.2,1.4.1.2.2.5.4.5.7.1.4.3.7.4,1.1.3.7.9,1.3.8,2.1,0,.2.3.4-.1.8,0,0,0,.1,0,.2,1,.8.8,1.9,1.3,2.9.4.8,1.3,1.4,1.4,2.3.8.2.9.8,1,1.3.2,1.9,1.5,3.4,2.2,5.1.8,1.8,1.7,3.4,2.5,5.2.1.3.6.4.5.9,0,.4.3.8.5,1.1.2.3.5.7.5,1,0,1.6,1,2.8,1.6,4.3.5,1.4,1.1,2.8,1.8,4.1.4.8,1.1,1.5,1.3,2.4,0,.4.6.7.1,1.2-.1.2.4.3.5.6.3.6.5,1.2.7,1.8.3.8.5,1.7.9,2.5.2.5.6.9.8,1.4.2.5.4,1.1.5,1.6.1.7.1,1.5.3,2.2.2.7.6,1.4.5,2.2-.2,1.4.4,2.6.6,3.9.2,1.3.4,2.6.7,3.9.2.7-.2,1.5-.1,2.2,0,.3-1.3,1-1.9.9,0,0-.2,0-.3-.1-.6-.6-1.4-1.1-1.4-1.9,0-1.1-.4-2.3-.6-3.4Z"/>
  <path d="M392.2,277.6c2.6-1.3,5.1-2.5,7.4-4,.9-.5,1.9-.9,2.5-1.9.3-.5,1.4-.6,2.2-1.2,2-1.6,4-3.3,5.8-5.2,1.8-1.8,3.4-3.8,4.8-5.8,1.4-1.9,3-3.9,3.4-6.1.4-1.8,1.2-3.4,1-5.1-.2-1.8-.7-3.7-1.3-5.5-.4-1.4-.9-2.7-1.8-3.9-.6-.7-1.3-1.2-1.9-2-.5-.8-1-1.8-2-2,0,0-.3-.4-.4-.6-.4-1-1.2-2-2-2.4-.8-.4-1.3-1-1.8-1.5-1.5-1.5-3.1-3-4.6-4.5-1.2-1.1-2.2-2.4-3.4-3.4-1.2-1.1-2.8-2-3.9-3.2-1-1.2-2.3-2.1-3.5-3-.7-.5-1.4-1.4-2.3-1.3,0,0-.3-.2-.4-.3-1.6-2.1-4.2-2.7-6.2-4.3-2-1.6-4.4-3-6.6-4.5-.6-.4-1.1-1-1.9-.9-.3,0-.9-.4-1.2-.7-1.3-1.6-3.3-2.5-4.9-3.7-1.9-1.4-3.9-2.4-5.6-4-.7-.7-1.8-1.5-3.1-1.5-.6,0-1.4-.8-2.2-1.1-.6-.2-1.3-.3-1.9-.5-.5-.2-.9-.7-1.4-1-.1,0-.3-.2-.5-.2-1.6-.3-3.1-.8-4.5-1.2-1.5-.4-3-.8-4.6-.8-3.1,0-6.2.5-9,1.7-1.5.7-3,1.5-4.6,1.5-.8,0-1.2-.4-.8-1.2.3-.6.7-1.2,1.3-1.7.4-.4.9-.7,1.4-1.1.5-.3,1-.7,1.5-.9,2-1.1,4.3-2.3,6.8-2.3.8,0,1.6-.4,2.3.2,0,0,.4,0,.5,0,3.2-.8,6.6.3,9.6,1.3,2.6.8,5.3,1.4,7.6,2.9,1.6.2,3.1,1.2,4.3,2.1,2.1,1.7,4.2,3.2,6.4,4.6,2.2,1.4,4.4,2.8,6.5,4.2,4.3,3,8.8,5.8,13.1,9,.7.5,1.6.7,2.3,1.5.7.8,1.8,1.4,2.7,2.1.9.6,1.8,1.2,2.5,2,2.8,3.1,6.3,5.5,9.3,8.5,3,3,5.7,6.1,8.5,9.3,1.7,2,3.4,4,4.5,6.6.4,1.1,1.2,2.2.9,3.5,0,.4.6,1.3.8,2.1.3,1.9.2,4-.2,5.9-.5,2.7-1.7,5.1-3,7.3-.8,1.4-1.5,2.7-2.4,4-1,1.3-2.1,2.5-3.2,3.6-.7.7-1.5,1.3-2.2,2-.8.6-1.5,1.3-2.3,1.9-1.6,1.3-3.1,2.9-4.9,3.9-3.3,1.8-6.4,3.7-9.6,5.3-3.2,1.6-6.4,3.1-9.4,4.8-1.7,1-3.6,1.4-5.2,2.4-.8.4-2.6-.2-2.5-.9,0-.1,0-.3.2-.4,1.4-1.3,2.6-2.9,4.6-3.9,2.9-1.5,5.8-3,8.7-4.5Z"/>
  <path d="M378.5,250.8c-.5-.3-.9-.6-1.4-.9-.2,0-.2-.4-.7,0-.2.2,0-.5-.2-.6-.5-.2-.9-.6-1.3-.8-.5-.2-1-.3-1.5-.5-.5-.2-.7-.7-1.3-.7-.5,0-.6-.6-.9-.7-.4-.1-.8-.3-1.1-.7-.2-.3-.3-.6-.6-.7-.2,0-.5.1-.7,0-.1-.1-.2-.5-.7,0,0,0,0-.1,0-.2,0-.5-.2-.6-.5-.4-.3.1-.4,0-.5,0-.4-.2-.7-.4-1.1-.7-.2-.2-.4-.6-.6-.8-.2-.2-.7-.2-.8-.6,0-.4-.4-.6-.6-.7-.1,0-.2-.4-.6,0,0,0,0,0,0,0,0-1-1-.3-1.3-.7-.3-.4-.8-.6-1.3-.8-.1,0-.1-.3-.5,0-.1.1-.3,0-.3,0,0-.7-.5-.6-.8-.9-.3-.3-.8-.3-1-1,0-.3-.2-.5-.7-.1-.2.2-.3-.2-.4-.2-.1,0-.4.1-.5,0,0,0,0-.3-.1-.5,0,0,0,0,0,0-.9.2-1-.9-1.6-1.1-.7-.2-1.2-.6-1.7-1-.3-.2-.5-.6,0-1.7.2-.5.5-1,.8-1.2.2-.1.5-.3.6-.2.2,0,.5,0,.7,0,.5,0,1.1-.2,1.3.3,0,.1.4,0,.2.5,0,0,0,.1,0,.1.9-.4,1.1.4,1.7.7.5.2,1.2,0,1.5.4.6-.4.8-.1.9.2.5,1.1,1.6,1.2,2.4,1.8.8.6,1.7,1.1,2.5,1.6.1,0,.5-.1.5.2,0,.3.3.3.5.4.2.1.4.1.5.3.3,1,1.2,1.1,1.8,1.5.6.5,1.3.9,2,1.2.5.2,1,.1,1.4.5.1.2.5,0,.4.6,0,.2.4-.1.5,0,.3.1.6.3.8.5.4.2.8.5,1.2.7.3.1.6,0,.9.1.3.1.5.3.7.5.3.3.5.6.8.9.3.3.8.2.9.7.3.8,1,.9,1.6,1.3.5.4,1.1.8,1.7,1.1.4.1.4.8.7.9.2,0-.4,1.5-.7,1.9,0,0-.1.1-.2.2-.6.2-1.2.6-1.6.4-.5-.4-1.1-.7-1.6-1Z"/>
  <path d="M362.1,262.9c.3-.2.6-.4.9-.7,0-.1.4,0,.1-.5-.1-.3.4.2.5,0,.2-.3.6-.4.8-.7.2-.3.3-.6.6-.9.2-.3.7-.2.7-.7,0-.4.5-.2.7-.4.1-.3.3-.5.7-.5.3,0,.6,0,.6-.2,0-.1,0-.5,0-.5.1,0,.4,0,0-.5,0,0,0,0,.2,0,.4.2.5,0,.4-.2,0-.3,0-.3,0-.4.2-.2.4-.4.6-.6.2-.1.5,0,.7-.2.2,0,.2-.5.5-.4.4,0,.5,0,.6-.2,0,0,.4,0,0-.5,0,0,0,0,0,0,.8.4.3-.6.7-.7.4,0,.5-.4.8-.7,0,0,.3,0,0-.4,0-.1,0-.2,0-.2.6.3.5-.2.8-.3.3-.1.3-.5.9-.4.2,0,.4,0,.1-.5-.1-.2.2-.1.2-.3,0,0,0-.4,0-.4,0,0,.3,0,.4,0,0,0,0,0,0,0-.2-.8.8-.4,1-.9.2-.4.5-.7.9-.9.2-.1.5-.2,1.5.5.4.3.8.7,1,1,.1.2.2.4.2.6,0,.2,0,.4,0,.5,0,.3.1.9-.3.9-.1,0,0,.3-.4,0,0,0-.1,0,0,0,.3.8-.4.8-.6,1.1-.2.3,0,1-.5,1,.3.6,0,.7-.2.7-1,0-1.1.8-1.7,1.2-.6.4-1,.9-1.6,1.4,0,0,0,.4-.2.3-.3-.1-.3.2-.4.3-.1,0-.1.3-.3.3-.8-.1-1,.5-1.4.8-.5.3-.9.6-1.2,1.1-.2.3-.2.8-.6.9-.1,0,0,.4-.5,0-.1-.1,0,.3,0,.4-.1.2-.3.3-.5.4-.2.2-.5.4-.7.6-.1.1-.1.5-.2.6-.1.2-.3.3-.5.4-.2.1-.6,0-.8.2-.2.1-.3.5-.7.4-.7-.1-.9.4-1.3.6-.4.2-.8.5-1.1.9-.2.2-.7,0-.9.1,0,0-1.1-1-1.4-1.4,0,0,0-.2-.1-.2,0-.5-.3-1.2,0-1.4.4-.2.7-.5,1-.7Z"/>
  <path d="M353.3,305.1c-.2-.8-.3-1.5-.5-2.3,0-.3.2-.6-.4-.8-.3-.1.3-.5.2-.7-.2-.7-.1-1.4-.3-2.1-.1-.7-.4-1.3-.5-2,0-.7.2-1.4-.2-2-.3-.6.2-1.1,0-1.6-.1-.6-.2-1.1,0-1.7.2-.4.4-.8.3-1.2,0-.2-.4-.5-.4-.7,0-.3.3-.5-.3-.8,0,0,0-.1.1-.2.4-.3.4-.6.1-.8-.3-.2-.2-.4-.2-.6,0-.6,0-1.2,0-1.7,0-.4.3-.9.4-1.3,0-.4-.2-1,.2-1.4.3-.4.3-.8.4-1.2,0-.2.3-.5-.3-.7,0,0,0-.1,0-.1.9-.6,0-1.4.2-2,.3-.7.3-1.4.5-2.1,0-.2.3-.4-.1-.6-.1-.1-.1-.3,0-.4.7-.4.5-1,.8-1.5.3-.6.3-1.3.9-1.7.3-.2.5-.5.1-1-.2-.2.2-.4.2-.7,0-.2-.1-.5,0-.7,0-.2.3-.2.5-.3,0,0,0,0,0-.1-.2-1.1,1.1-1.5,1.4-2.4.3-.9.9-1.7,1.6-2.4.3-.4.8-.7,1.9-.2.5.2.9.6,1.1.9,0,.3.2.5.1.7,0,.3-.1.6-.2.8-.2.5,0,1.3-.5,1.6-.2,0,0,.4-.5.3,0,0-.1,0-.1,0,.3,1-.5,1.4-.8,2.1-.2.6,0,1.4-.4,1.9.4.6.2.9-.1,1.1-1.1.9-1,2.2-1.4,3.4-.4,1.2-.5,2.4-.7,3.7,0,.2.3.4,0,.7-.3.2-.1.5-.1.8,0,.3,0,.5,0,.8-.7,1-.4,2-.4,3,0,1-.1,2.1,0,3.1.1.6.5,1.3.3,1.9,0,.3.3.6-.3.8-.2,0,.3.3.3.5,0,.4,0,.9,0,1.3,0,.6,0,1.2,0,1.8,0,.4.3.7.4,1.1,0,.4.1.7,0,1.1,0,.5-.2,1-.2,1.4,0,.5.3,1,.1,1.5-.4.9,0,1.7.1,2.6.1.8.3,1.7.7,2.4.2.4-.1,1,0,1.4,0,.2-1.2,1-1.7,1.1,0,0-.2,0-.3,0-.6-.3-1.5-.5-1.6-1.1-.2-.9-.5-1.7-.7-2.6Z"/>
  <path d="M365,310.9c-.2,0-.4,0-.5,0,0,0-.1-.2-.2.3,0,.3-.1-.4-.2-.3-.2,0-.3,0-.5,0-.2,0-.3.3-.5.4-.2,0-.3-.2-.5,0-.1.3-.3-.2-.4-.1-.1.1-.3.2-.4,0,0-.2-.2-.4-.3-.3,0,0-.1.4-.2.4,0,0-.1-.3-.2.3,0,0,0,0,0-.1,0-.4-.1-.4-.2-.1,0,.3-.1.2-.2.2-.1,0-.3,0-.4,0-.1,0-.2-.3-.3-.4-.1,0-.2.2-.3,0,0-.3-.2-.3-.3-.3,0,0-.1-.3-.2.3,0,0,0,0,0,0-.1-.8-.3.2-.5,0-.2-.2-.3,0-.5,0,0,0,0-.2-.2.3,0,.2,0,.2,0,0,0-.6-.2-.3-.4-.4-.1-.1-.3.1-.4-.4,0-.2-.1-.3-.2.2,0,.3-.1,0-.2,0,0,0-.1.3-.2.3,0,0,0-.2,0-.4,0,0,0,0,0,0-.1.3-.2.3-.3.1h0c0-.1,0-.2,0-.2h0s0,0,0,0h0s.1-1.2.1-1.2h0s0,0,0,0h0s0,0,0,0c0,.1,0,.2,0,.2,0,.2,0-.6-.3-.9-.2-.2-.2,0,0-.1h0c0,0-.2,0-.3,0-.2,0-.5.1-.6,0-.3,0-.5-.2-.5-.5,0-.4.1-.7.2-1,.3-.5.5-1.1.9-.9.1,0,.2-.2.3.3,0,0,0,.1,0,0,0-.2.2-.3.3-.4.1,0,.3,0,.3,0,0,0,.2.2.3.1.2,0,.4-.6.5-.4.1-.6.2-.5.3-.3.2.7.6.3.9.4.3.1.6,0,.9.1,0,0,.1-.3.2,0,0,.3.1,0,.2,0,0,0,.1-.1.2,0,.2.7.5.3.7.4.2,0,.5.2.7,0,.1,0,.3-.4.4-.3,0,0,.1-.3.2.3,0,.2,0-.3.1-.3,0,0,.2,0,.3,0,.1,0,.3,0,.4,0,0,0,.2-.3.2-.3,0,0,.2,0,.3,0,.1,0,.2.3.3.3.1,0,.2-.2.3,0,.2.5.4.2.6.3.2,0,.4,0,.6,0,.1,0,.2.4.4.4,0,0,.2,1.5.2,2,0,0,0,.2,0,.2,0,.5-.2,1.2-.3,1.2-.2,0-.4,0-.6,0Z"/>
  <path d="M366.9,299.8c0,.2,0,.4,0,.5,0,0-.2.1.3.2.3,0-.4,0-.4.1,0,.2,0,.3,0,.5,0,.2.3.3.3.5,0,.2-.2.3,0,.5.3.1-.2.2-.1.4.1.1.2.3,0,.4-.2,0-.4.2-.3.3,0,0,.4.1.4.2,0,0-.3.1.3.2,0,0,0,0-.1,0-.4,0-.4.1-.1.2.3,0,.2.1.2.2,0,.1,0,.3,0,.4,0,.1-.3.2-.3.3,0,.1.2.2,0,.3-.3,0-.3.2-.3.3,0,0-.3.1.3.2,0,0,0,0,0,0-.8.2.3.3,0,.5-.2.2,0,.3,0,.5,0,0-.2,0,.3.1.2,0,.2,0,0,0-.6.1-.2.3-.3.4-.1.1.2.3-.3.4-.2,0-.3.2.3.2.3,0,0,.1,0,.2,0,0,.3,0,.3.1,0,0-.2,0-.3.1,0,0,0,0,0,0,.7.2-.2.4,0,.6.2.2.1.4,0,.6,0,.1-.2.2-1.4.4-.5,0-1.1,0-1.4,0-.2,0-.5,0-.5-.1-.1,0-.2-.1-.3-.2-.2-.1-.7-.3-.5-.4,0,0-.2,0,.3-.1,0,0,.1,0,0,0-.8-.2-.3-.4-.3-.6,0-.2-.7-.3-.4-.5-.6,0-.5-.2-.3-.3.7-.3.2-.7.3-1,0-.3,0-.7,0-1,0,0-.4-.1,0-.2.3,0,0-.1,0-.2,0,0-.1-.1,0-.2.7-.3.3-.5.3-.8,0-.3.1-.5,0-.8,0-.2-.4-.3-.3-.5,0,0-.3-.2.3-.2.2,0-.3,0-.3-.1,0-.1,0-.2,0-.3,0-.2,0-.3,0-.5,0,0-.3-.2-.3-.3,0-.1,0-.2,0-.3,0-.1.3-.2.4-.4,0-.1-.2-.3,0-.4.5-.2.3-.4.4-.7,0-.2.1-.5,0-.7,0-.1.4-.2.5-.3,0,0,1.5,0,2,0,0,0,.2,0,.2,0,.5.2,1.2.3,1.1.5,0,.2,0,.4,0,.6Z"/>
  <path d="M365.8,322.6c0-.4,0-.8-.2-1.2,0-.1.2-.3-.3-.4-.3,0,.3-.3.3-.4-.1-.4,0-.7-.1-1.1,0-.4-.3-.7-.4-1.1,0-.4.2-.7-.2-1.1-.3-.3.2-.6,0-.8-.1-.3-.2-.6,0-.9.2-.2.4-.4.3-.6,0-.1-.4-.2-.4-.4,0-.1.3-.3-.4-.4,0,0,0,0,.1-.1.4-.2.4-.3,0-.4-.3-.1-.2-.2-.3-.3,0-.3,0-.6,0-.9,0-.2.3-.4.3-.7,0-.2-.3-.4,0-.7.3-.2.3-.4.2-.6,0-.1.3-.3-.4-.3,0,0,0,0,0,0,.8-.4-.3-.6-.2-.9.2-.4,0-.7-.1-1,0,0,.1-.2-.3-.2-.2,0-.2,0,0-.1.6-.4.1-.5.2-.8,0-.3-.3-.5.1-.9.2-.2.2-.4-.4-.4-.3,0,0-.2-.1-.3,0,0-.4-.1-.4-.2,0,0,.2-.2.3-.3,0,0,0,0,0,0-.8-.3,0-1-.2-1.5-.3-.5-.2-1.1-.2-1.7,0-.3.3-.7,1.4-.8.5,0,1.1,0,1.4.1.2,0,.5.2.5.3,0,.1.2.3.3.4.2.3.7.4.5.7,0,0,.2.1-.3.3,0,0-.1,0,0,0,.8.2.4.7.5,1,.1.3.8.5.6.9.7,0,.6.3.5.5-.5.8.1,1.5.1,2.3,0,.8.2,1.5.3,2.2,0,.1.4.2.1.4-.2.2,0,.3,0,.5,0,.1.2.3,0,.4-.6.6-.2,1.2-.2,1.7,0,.6,0,1.1.1,1.7.1.3.5.7.4,1,0,.1.3.3-.3.4-.2,0,.3.2.3.3,0,.2,0,.5,0,.7,0,.3,0,.6,0,.9,0,.2.3.4.4.5,0,.2,0,.4,0,.6,0,.3-.2.5-.3.8,0,.3.3.5,0,.8-.5.5-.1.9-.1,1.4,0,.5,0,.9.3,1.3.1.2-.3.6-.3.8,0,.1-1.4.6-1.9.7,0,0-.2,0-.2,0-.5-.1-1.3-.2-1.3-.6,0-.5-.2-.9-.2-1.4Z"/>
  <path d="M377,324.4c-.3.1-.5.2-.8.3,0,0-.2-.2-.2.3,0,.3-.2-.3-.3-.3-.2.1-.4,0-.6,0-.2,0-.3.3-.5.4-.2,0-.3-.2-.4,0-.1.3-.2-.2-.3-.1-.1.1-.2.2-.4,0,0-.2-.2-.4-.2-.3,0,0-.1.4-.2.4,0,0-.1-.3-.2.3,0,0,0,0,0-.1,0-.4-.1-.4-.2-.1,0,.3,0,.2-.1.3-.1,0-.2,0-.4,0,0,0-.2-.3-.3-.3,0,0-.2.2-.3,0,0-.3-.2-.3-.2-.3,0,0-.1-.3-.1.3,0,0,0,0,0,0-.1-.8-.3.3-.4,0-.1-.2-.3,0-.4,0,0,0,0-.2-.1.3,0,.2,0,.2,0,0-.1-.6-.2-.2-.3-.4-.1-.1-.2.2-.4-.3,0-.2-.1-.3-.2.3,0,.3,0,0-.1,0,0,0,0,.3-.1.3,0,0,0-.2,0-.3,0,0,0,0,0,0-.2.7-.4-.2-.5,0-.2.2-.4.1-.6,0-.1,0-.2-.2-.3-1.4,0-.5,0-1.1,0-1.4,0-.2,0-.5.1-.5,0-.1.1-.2.2-.3.1-.2.2-.7.4-.4,0,0,0-.2.1.3,0,0,0,.1,0,0,.2-.8.3-.3.5-.3.1,0,.3-.7.4-.4,0-.6.2-.5.2-.3.3.7.6.2.8.3.3,0,.6,0,.8,0,0,0,0-.4.1,0,0,.3.1,0,.2,0,0,0,.1-.1.2,0,.2.7.4.3.7.3.2,0,.4.1.7,0,.1,0,.3-.4.4-.3,0,0,.1-.3.2.3,0,.2,0-.3.1-.3,0,0,.2,0,.3,0,.1,0,.3,0,.4,0,0,0,.1-.3.2-.3,0,0,.1,0,.2,0,0,0,.1.3.2.3,0,0,0-.2.2,0,.2.5.2.2.2.3,0,0,0,0,0,0,0,.1.1.2.1.2,0,0,0,0,0,0,0,0,1.2.8,1.6,1.1,0,0,.2.1.2.2.3.4.7,1.1.4,1.2-.3.2-.6.4-.9.6Z"/>
  <path d="M375.6,321.3c0-.3,0-.6,0-.9,0-.1.2-.2-.3-.3-.3,0,.4-.2.3-.3,0-.3,0-.6,0-.8,0-.3-.3-.5-.4-.8,0-.3.2-.6-.1-.8-.3-.2.2-.4,0-.6-.1-.2-.2-.4,0-.7.2-.2.3-.4.2-.5,0,0-.4-.1-.4-.2,0-.1.3-.3-.4-.2,0,0,0,0,.1,0,.4-.2.3-.3,0-.3-.3,0-.3-.1-.3-.2,0-.2-.1-.4-.1-.7,0-.2.2-.4.2-.6,0-.2-.3-.3,0-.5.3-.2.2-.4.2-.5,0,0,.2-.3-.4-.2,0,0,0,0,0,0,.8-.4-.4-.4-.2-.7.1-.3,0-.5-.2-.8,0,0,.1-.2-.3-.1-.2,0-.2,0,0-.1.5-.4.1-.5.2-.7,0-.3-.3-.4,0-.8.2-.2.2-.3-.4-.3-.3,0,0-.2-.1-.2,0,0-.4,0-.4,0,0,0,.2-.2.3-.3,0,0,0,0,0,0-.7,0,0-.7-.3-1-.3-.3-.4-.6-.4-1,0-.2,0-.5,1.1-1,.4-.3,1-.5,1.3-.5.2,0,.5,0,.6,0,.1,0,.3.1.4.2.3.1.9.2.7.5,0,.1.3,0-.2.3,0,0,0,0,0,0,.9,0,.5.6.7.9.1.3.8.3.7.7.7,0,.6.2.5.4-.5.8.1,1.2.2,1.8,0,.6.3,1.2.4,1.8,0,.1.4.1.1.3-.2.2,0,.3,0,.4,0,.1.2.2,0,.4-.6.6,0,1,0,1.4,0,.5,0,.9.2,1.4.1.3.5.5.4.8,0,.1.3.2-.3.4-.2,0,.3.1.3.2,0,.2,0,.4,0,.6,0,.3,0,.5,0,.8,0,.2.3.3.4.5,0,.2,0,.4,0,.5,0,.2-.3.5-.3.7,0,.2.2.5,0,.7-.5.4-.2.8-.3,1.2,0,.4-.1.8,0,1.2,0,.2-.5.4-.5.6,0,.1-1.5.1-2,0,0,0-.2,0-.2,0-.5-.2-1.2-.5-1.1-.7,0-.3,0-.7,0-1Z"/>
  <path d="M385.1,319.1c0-.3,0-.6,0-.9,0-.1.2-.2-.3-.3-.3,0,.4-.2.3-.3,0-.3,0-.6,0-.8,0-.3-.3-.5-.4-.8,0-.3.2-.6-.2-.8-.3-.2.2-.4,0-.6-.2-.2-.3-.4,0-.7.1-.2.3-.4.2-.5,0,0-.4-.1-.4-.2,0,0,.2-.3-.4-.2,0,0,0,0,.1-.1.4-.2.3-.3,0-.3-.3,0-.3,0-.3-.2-.1-.2-.2-.4-.2-.6,0-.2.2-.4.2-.6,0-.2-.3-.3-.1-.5.2-.3.2-.4,0-.5,0,0,.2-.3-.4-.1,0,0,0,0,0,0,.7-.6-.4-.4-.4-.7,0-.3-.2-.5-.3-.7,0,0,0-.2-.3,0-.2,0-.2,0-.1,0,.5-.5,0-.5,0-.7,0-.3-.4-.3,0-.8.1-.2.1-.4-.4-.2-.3.1,0-.1-.2-.2,0,0-.3,0-.4,0,0,0,.1-.2.2-.3,0,0,0,0,0,0-.7,0-.2-.7-.6-.9-.4-.2-.6-.6-.7-1.1,0-.2,0-.6.9-1.3.4-.3.9-.6,1.2-.7.2,0,.5-.1.6,0,.1,0,.3,0,.4.1.3,0,.8,0,.7.3,0,.1.3,0-.1.4,0,0,0,0,0,0,.8-.2.6.4.9.6.2.2.9.1.9.5.6-.2.7,0,.6.3-.2.9.5,1.2.7,1.8.2.6.6,1.2.8,1.8,0,.1.4,0,.2.3-.2.2,0,.3.1.4,0,.1.2.2.1.4-.4.7,0,1,.2,1.5,0,.5.1,1,.4,1.4.2.3.6.5.5.8,0,.1.3.2-.2.5-.2,0,.3.1.3.2,0,.2,0,.4.1.6,0,.3,0,.6.1.9,0,.2.3.3.4.5,0,.2,0,.4,0,.6,0,.2-.2.5-.3.7,0,.2.2.5,0,.7-.5.4-.3.9-.3,1.3,0,.4-.1.9,0,1.3,0,.3-.5.4-.5.6,0,.1-1.5,0-2,0,0,0-.2,0-.2,0-.4-.3-1.1-.5-1.1-.8.1-.3,0-.7,0-1Z"/>
  <path d="M387.4,320.5c-.2,0-.4,0-.5,0,0,0-.2-.2-.2.3,0,.3-.1-.4-.2-.3-.2,0-.3,0-.5,0-.2,0-.3.3-.4.4-.2,0-.3-.2-.5.1-.1.3-.3-.2-.4,0-.1.1-.3.2-.4,0-.1-.2-.2-.4-.3-.3,0,0,0,.4-.2.4,0,0-.1-.3-.2.3,0,0,0,0,0-.1,0-.4-.2-.4-.2,0,0,.3,0,.2-.1.3-.1,0-.3,0-.4,0-.1,0-.2-.3-.3-.3-.1,0-.2.2-.3,0-.1-.3-.2-.3-.3-.3,0,0-.1-.3-.2.4,0,0,0,0,0,0-.2-.8-.3.3-.5,0-.2-.2-.3,0-.5,0,0,0,0-.2-.1.3,0,.2,0,.2,0,0-.1-.6-.3-.2-.4-.4-.1-.1-.3.2-.4-.3,0-.2-.1-.3-.2.3,0,.3-.1,0-.2,0,0,0,0,.3-.1.3,0,0,0-.2,0-.3,0,0,0,0,0,0-.2.7-.4-.2-.6,0-.2.2-.4,0-.6,0-.1,0-.2-.3-.2-1.4,0-.5,0-1.1.1-1.4,0-.2.1-.5.2-.5,0-.1.1-.2.2-.3.1-.2.3-.7.4-.4,0,0,0-.2.1.3,0,0,0,.1,0,0,.2-.8.4-.2.5-.3.2,0,.3-.7.5-.4.1-.6.2-.5.3-.3.3.7.6.2.9.3.3,0,.6,0,.9,0,0,0,0-.4.2,0,0,.3.1,0,.2,0,0,0,.1-.1.2,0,.3.7.5.2.7.3.2,0,.5.1.7,0,.1-.1.3-.5.4-.3,0,0,.1-.3.2.3,0,.2,0-.3,0-.3,0,0,.2,0,.3,0,.1,0,.3,0,.4,0,0,0,.1-.3.2-.4,0,0,.2,0,.3,0,.1,0,.2.3.4.3.1,0,.2-.2.3,0,.3.5.4.2.6.2.2,0,.4,0,.6-.1.1,0,.3.4.4.4,0,0,.4,1.4.4,1.9,0,0,0,.2,0,.2,0,.5,0,1.2-.2,1.2-.2,0-.4,0-.6,0Z"/>
  <path d="M394.3,311.9c-.1-.5-.2-.9-.4-1.4,0-.2.1-.4-.5-.4-.3,0,.3-.4.2-.5-.2-.4-.3-.9-.5-1.3-.2-.4-.6-.7-.8-1.1-.2-.4-.1-.9-.6-1.1-.4-.2-.1-.7-.4-1-.3-.3-.5-.6-.5-1,0-.3,0-.6-.1-.8-.1-.1-.5,0-.6-.3,0-.2,0-.5-.5-.3,0,0,0-.1,0-.2.3-.4.1-.5-.2-.5-.3,0-.3-.1-.4-.2-.2-.3-.4-.6-.6-1-.1-.3,0-.6-.2-.9-.1-.3-.5-.4-.4-.8.1-.4,0-.6-.2-.8,0-.1,0-.4-.5-.2,0,0,0,0,0,0,.4-.8-.7-.6-.8-1,0-.5-.5-.8-.8-1.1,0,0,0-.3-.4-.1-.2,0-.2,0-.2-.1.3-.6-.2-.7-.3-1.1-.1-.4-.6-.5-.5-1.2,0-.3,0-.5-.6-.3-.3,0-.2-.2-.3-.3-.1,0-.4,0-.5,0,0,0,0-.3,0-.5,0,0,0,0,0,0-.9,0-.6-1.1-1.1-1.4-.5-.4-.8-.9-1.1-1.4-.2-.3-.2-.7.5-1.6.3-.4.8-.8,1.1-.8.3,0,.5-.1.6,0,.2,0,.4.2.6.2.4.2,1.1.1,1.1.6,0,.2.3,0,0,.5,0,0,0,.1,0,.1,1,0,.9.7,1.3,1.1.3.3,1.1.3,1.2.8.7-.2.8.1.8.5,0,1.1,1,1.6,1.4,2.4.5.8,1.1,1.5,1.6,2.4,0,.1.5,0,.3.4-.1.3.2.4.3.5.1.2.3.3.3.5-.1,1,.6,1.4.9,2.1.3.7.7,1.4,1.2,1.9.3.4.8.6.9,1.1,0,.2.4.2,0,.7-.1.1.4,0,.4.2.2.3.3.6.4.9.2.4.3.8.6,1.2.1.2.5.4.6.6.2.2.3.5.3.8,0,.4,0,.8,0,1.1,0,.4.5.7.3,1.1-.3.8.2,1.3.3,2,.1.7.3,1.3.5,1.9.1.4-.3.8-.2,1.1,0,.2-1.4.6-1.9.7,0,0-.2,0-.2,0-.5-.2-1.3-.4-1.3-.8,0-.5-.2-1.1-.4-1.6Z"/>
  <path d="M396,314.8c-.1,0-.3,0-.4,0,0,0-.1-.2-.1.3,0,.3-.1-.4-.2-.3-.1,0-.3,0-.4,0-.1,0-.2.3-.3.4-.1,0-.3-.2-.3.1,0,.3-.2-.2-.3,0,0,.1-.2.2-.3,0-.1-.2-.2-.4-.3-.2,0,0,0,.4,0,.4,0,0-.1-.3,0,.4,0,0,0,0,0-.1-.1-.4-.2-.4-.2,0,0,.3,0,.2,0,.3,0,0-.2,0-.3,0,0,0-.2-.2-.3-.3,0,0-.1.3-.3,0-.1-.3-.2-.3-.3-.2,0,0-.1-.3,0,.4,0,0,0,0,0,0-.3-.8-.2.3-.3.1-.2-.2-.3,0-.4,0,0,0-.1-.2,0,.3,0,.2,0,.2,0,0-.2-.6-.2-.2-.4-.3-.1,0-.2.2-.4-.2,0-.2-.2-.3,0,.3,0,.3,0,0-.1,0,0,0,0,.3,0,.3,0,0-.1-.2-.2-.3,0,0,0,0,0,0,0,.7-.4-.1-.5,0-.1.2-.3.2-.5.1,0,0-.2-.2-.6-1.3-.2-.5-.3-1-.4-1.4,0-.2,0-.5,0-.5,0-.1,0-.2,0-.4,0-.2,0-.8.2-.5,0,0,0-.2.2.3,0,0,0,.1,0,0,0-.8.2-.3.4-.4.1,0,0-.7.3-.5,0-.6,0-.5.2-.4.4.6.6,0,.8.1.3,0,.5-.1.8-.1,0,0,0-.4.1-.1.1.2.1,0,.2,0,0,0,0-.2.2,0,.3.6.5.2.7.2.2,0,.4,0,.6-.1.1-.1.2-.5.3-.4,0,0,0-.3.2.3,0,.2,0-.3,0-.3,0,0,.2,0,.3,0,.1,0,.2,0,.4,0,0,0,.1-.3.2-.4,0,0,.1,0,.2,0,.1,0,.2.3.3.3.1,0,.2-.2.3,0,.2.5.4.2.6.2.2,0,.4,0,.5,0,0,0,.2.4.3.4,0,0,.3,1.5.3,2,0,0,0,.2,0,.2,0,.5,0,1.2-.2,1.2-.2,0-.3,0-.5,0Z"/>
  <path d="M303.1,433.7c-.5-2.3-.9-4.7-1.5-7-.2-.9-.1-1.8-.8-2.6-.4-.4,0-1.4,0-2.2-.5-2.2-.8-4.4-1.3-6.5-.4-2.1-1-4.2-1.4-6.4-.4-2.1-.4-4.4-.9-6.4-.5-1.8-.1-3.5-.3-5.2-.2-1.8-.4-3.7-.2-5.6.2-1.3.4-2.6.3-3.9,0-.8-.4-1.6-.3-2.5,0-.8.4-1.7-.2-2.5,0,0,0-.4.2-.6.5-.9.5-1.9.3-2.7-.2-.7-.1-1.4,0-2,.1-1.8.3-3.7.6-5.5.2-1.4.6-2.7.8-4,.2-1.4.2-3,.7-4.2.5-1.3.7-2.5.9-3.8.1-.7.5-1.5,0-2.2,0,0,0-.3,0-.5,1.1-1.9.4-4.2,1-6.2.6-2.1.8-4.4,1.2-6.6.1-.6.4-1.2,0-1.8-.1-.2,0-.8.1-1.1.9-1.5.9-3.3,1.3-4.9.5-1.9.6-3.8,1.4-5.6.4-.8.7-1.8.3-2.9-.2-.5.3-1.4.4-2.1,0-.6,0-1.2,0-1.7,0-.5.4-.9.6-1.4,0-.1.1-.3,0-.5,0-2.9,1.4-5.4,1.8-8.2.4-2.8,1.1-5.6,1.8-8.4.4-1.5.9-3.1,2.3-3.9.6-.4,1.1-.2,1.3.5.1.5.2,1.1.2,1.7,0,.9-.2,1.8-.3,2.7-.2,1.8,0,3.7-.7,5.5-.2.6,0,1.3-.7,1.6,0,0-.2.3-.2.4.2,2.6-.8,5-1.3,7.5-.4,2.1-.2,4.3-.9,6.4.4,1.3,0,2.7-.4,3.8-1.5,4.1-1.9,8.4-2.7,12.5-.9,4.2-1.5,8.5-2.2,12.8-.1.7.1,1.4-.3,2.2-.4.8-.3,1.8-.5,2.8-.1.9-.1,1.8-.4,2.6-1.1,3.3-1.2,6.7-1.6,10.1-.4,3.3-.7,6.7-.7,10.1,0,2,.3,4.1.2,6.1,0,.9.3,1.8-.3,2.7-.2.3.3,1,.4,1.6.1,1.4.2,2.8.3,4.2.2,1.9.4,3.9.7,5.8.2,1.2.6,2.3.9,3.5.3,1.2.5,2.5.6,3.7.2,1.6.3,3.2.5,4.7.3,1.6.8,3.3.9,4.9,0,3,.9,5.8,1.5,8.7.5,2.9,1.1,5.8,1.8,8.6.4,1.6.2,3.2.5,4.8.2.7-1.1,2-1.6,1.9-.1,0-.2-.1-.3-.3-.8-1.5-1.8-2.7-2.1-4.5-.5-2.7-1.1-5.3-1.6-7.9Z"/>
  <path d="M310.7,469.1c-1.3,0-2.6,0-4,.2-.5,0-1-.2-1.5.3-.3.3-.7-.4-1.2-.3-1.2,0-2.5,0-3.7,0-1.2,0-2.4.3-3.6.3-1.2,0-2.4-.3-3.5,0-1,.2-1.9-.3-2.8-.2-1,0-2,.1-3-.2-.7-.2-1.4-.5-2.1-.4-.4,0-.9.3-1.4.3-.4,0-.9-.3-1.4.3,0,0-.2,0-.3-.2-.5-.4-1-.5-1.5-.2-.2.1-.4.2-.6.2-.4,0-.7,0-1,0l-2.8-.3c-.8-.2-1.3-.7-1.8-1.2-.3-.4-.6-1-.6-1.5,0-.6,0-1.1.1-1.6.1-.5.3-1.1.6-1.6.1-.3.4-.5.7-.7.3-.2.5-.4.8-.6.6-.3,1.1-.7,1.5-1.1.2-.2.4-.3.5-.4l.4-.3c.3-.3.9-.3.8-1,0,0,.1-.2.2-.2,1.5,0,1.9-1.5,3-2,1.2-.5,2.2-1.2,3.3-1.8.3-.2.7-.1.8-.7,0-.2.3-.4.5-.3,1.1.2,1.8-.6,2.7-.9,1-.3,1.9-1,3-1,.5,0,1.1-.2,1.3-.9.1-.3.7-.3,1-.5.3-.2.4-.6.7-.7.2-.1.6,0,.9,0,0,0,.2,0,.2-.1,1.1-1.3,2.8-1.1,4-2,1.2-.9,2.5-1.6,3.8-2.4.7-.4,1.4-.8,2.6-.2.5.2.9.7.8,1.2,0,.4-.2.7-.4,1-.3.4-.7.8-1,1.2-.7.7-1.3,1.8-2.4,2.1-.3,0-.5.6-1,.3,0,0-.2,0-.2,0-.4.7-1,1.1-1.7,1.4-.7.3-1.4.5-2,.9-1.1.6-1.9,1.7-3.1,1.9-.3.9-1.1,1.1-1.8,1.2-2.4.4-4.4,1.7-6.5,2.7-2.1,1-4.1,2.2-6,3.4-.3.2-.4.7-.9.7-.2,0-.5.2-.6.3-.2.1-.5.4-.4.4,0,0,0,.2-.3.2-.5,0-.9.3-.9.6,0,.2.1.3.3.3.2,0,.3,0,.4,0h.4c0,0,.2.1.2.1h.7c.9.1,1.9.2,2.8.1,1.1,0,2.3-.3,3.4-.1.5,0,1-.2,1.5.4.1.2.6-.3.9-.3.8,0,1.6,0,2.3,0,1.1,0,2.2.1,3.2,0,.7,0,1.3-.3,2-.3.7,0,1.4,0,2.1,0,.9,0,1.7.3,2.6.4.9,0,1.8-.2,2.7,0,1.6.5,3.2.2,4.8.2,1.6,0,3.2,0,4.7-.3.8-.2,1.6.2,2.4,0,.3,0,1.3,1.1,1.3,1.7,0,.1,0,.2,0,.3-.7.7-1.5,1.6-2.6,1.7l-4.6.3Z"/>
  <path d="M356.4,467.6c-1.6.8-3.3,1.1-4.8,1.3-.6,0-1.2-.1-1.7.4-.3.3-.8-.3-1.3-.3-1.4.2-2.8.1-4.1.2-1.3.1-2.7.3-4,.4-1.3,0-2.7-.2-4,0-1.1.3-2.1-.2-3.1-.2-1.1.1-2.3.1-3.4-.1-.8-.2-1.6-.4-2.4-.4-.5,0-1,.3-1.5.3-.5,0-1.1-.3-1.5.3,0,0-.3,0-.4-.2-.5-.4-1.2-.4-1.6-.2-.5.2-.8.2-1.2.2-1.1,0-2.2,0-3.4-.2-.2,0-.4,0-.6-.1-.1,0-.1,0-.4,0-.2,0-.4,0-.6-.1-.7-.2-1.4-.3-2.2-.5-.4,0-.8,0-1.1-.2-.3-.1-.6-.2-.9-.4-.5-.3-.9-.8-1.1-1.3-.3-1.2,0-2.2.4-3.2.1-.3.4-.6.6-.8.3-.3.4-.5.4-.9,0,0,.2-.3.4-.3,1.1-.5,1.9-1.3,2.3-1.7.5-.5.9-1.1,1.5-1.4.7-.3,1.2-.7,1.8-1.1.6-.4,1.2-.8,1.8-1.1.3-.2.8-.2.9-.8,0-.2.4-.4.6-.4,1.2,0,2-.7,3-1.1,1.1-.4,2.1-1.2,3.4-1.2.5,0,1.2-.2,1.5-1,.1-.4.8-.3,1.1-.6.3-.2.5-.6.8-.7.3-.1.6,0,1,0,0,0,.2,0,.3-.1,1.2-1.3,3.1-1.2,4.5-2.2.7-.5,1.4-.9,2.1-1.3.7-.4,1.4-.8,2.1-1.3.8-.5,1.6-.9,2.8-.4.6.2.9.7.8,1.2,0,.4-.2.8-.5,1-.4.4-.8.9-1.2,1.2-.8.8-1.5,1.9-2.7,2.2-.4.1-.6.6-1.1.3,0,0-.2,0-.3,0-1,1.5-2.7,1.7-4.1,2.5-1.2.6-2.1,1.7-3.4,2.1-.4.9-1.2,1.1-2,1.3-2.6.5-4.8,2-7.1,3.1-1.1.6-2.2,1.2-3.3,1.9-.5.3-1,.7-1.5,1.1l-1,.7c-.1,0,.2.3-.1.2-.4,0-.2.2-.2.2,0,.1.2.1,0,.3-.3.4.1.5.5.5h1.1c.5,0,1,0,1.6.1,2.1.2,4.1.4,6.2.3,1.3,0,2.5-.3,3.8-.2.5,0,1.1-.3,1.6.4.1.2.7-.3,1-.3.9,0,1.7,0,2.6,0,1.2,0,2.4,0,3.6,0,.7,0,1.5-.3,2.2-.4.8,0,1.5,0,2.3,0,1,0,1.9.2,2.9.3,1,0,2-.3,3,0,1.8.4,3.5,0,4.9-.4,1.4-.4,2.7-1.3,3.8-2.5.6-.7,1.6-1,2.3-1.7.3-.3,1.8.2,2.1.7,0,0,0,.2,0,.3-.3,1-.4,2.2-1.3,3-1.3,1.2-2.7,2.4-4.5,3.3Z"/>
  <path d="M339.3,436.2c-.6-2-1.2-4.1-1.9-6.1-.3-.7-.2-1.6-1-2.2-.4-.3,0-1.2-.2-1.9-.6-1.9-1.1-3.8-1.8-5.7-.6-1.8-1.4-3.6-2-5.4-.6-1.8-.9-3.8-1.7-5.5-.7-1.5-.6-3-1.1-4.5-.5-1.6-1-3.2-1.1-4.8,0-1.2,0-2.4-.4-3.5-.2-.7-.6-1.3-.7-2.1,0-.7,0-1.6-.6-2.2,0,0,0-.4,0-.6.3-.8.2-1.8-.1-2.5-.3-.6-.3-1.2-.4-1.8-.1-1.7-.2-3.3-.2-5,0-1.2.3-2.5.4-3.7,0-1.3-.2-2.7.2-3.8.4-1.2.4-2.3.5-3.5,0-.7.4-1.4-.2-2,0,0,0-.3,0-.4,1-1.8,0-3.7.4-5.6.4-1.9.5-4,.7-5.9,0-.5.3-1.1,0-1.6-.1-.2,0-.7,0-1,.8-1.4.6-3,1-4.4.4-1.7.3-3.4,1.1-5.1.3-.7.6-1.7.2-2.6-.2-.4.2-1.2.3-1.9,0-.5-.1-1.1,0-1.6,0-.4.4-.8.6-1.2,0-.1,0-.3,0-.4-.2-2.6,1.1-4.9,1.4-7.4.3-2.5.9-5,1.4-7.5.3-1.4.8-2.7,2.1-3.5.6-.3,1.1-.2,1.3.4.2.5.3,1,.2,1.5,0,.8,0,1.6-.1,2.4-.1,1.6,0,3.3-.5,4.9-.2.5,0,1.1-.6,1.5,0,0-.2.2-.1.4.4,2.3-.6,4.5-.9,6.8-.3,1.9,0,3.8-.6,5.7.4,1.2.1,2.4-.2,3.4-1.3,3.6-1.4,7.5-1.9,11.2-.6,3.8-.8,7.7-1.2,11.5,0,.7.3,1.2,0,2-.3.7-.2,1.6-.2,2.5,0,.8,0,1.6-.1,2.3-.8,3-.4,6-.4,9,0,3,.2,6,.7,8.9.3,1.8,1,3.5,1.2,5.3,0,.8.6,1.5.2,2.4-.1.3.5.9.6,1.3.3,1.2.6,2.4.9,3.6.5,1.7.9,3.4,1.4,5,.3,1,.9,2,1.2,3,.4,1.1.7,2.1,1,3.2.3,1.4.6,2.8.9,4.2.4,1.4,1.1,2.8,1.2,4.3.3,2.7,1.3,5.1,2,7.6.7,2.5,1.4,5,2.3,7.5.5,1.4.4,2.8.8,4.2.2.6-.9,1.9-1.5,1.8-.1,0-.2,0-.3-.2-.9-1.2-1.9-2.3-2.4-3.8-.6-2.3-1.4-4.6-2.1-6.9Z"/>
  <path d="M371.5,386c.4-1.2.8-2.3,1.1-3.5.1-.4.5-.8.1-1.4-.2-.3.6-.5.7-.9.3-1.1.7-2.2,1-3.3.3-1.1.4-2.2.7-3.3.3-1.1.9-2.1.9-3.2,0-1,.7-1.6.9-2.5.2-.9.4-1.9.9-2.7.4-.6.8-1.1.8-1.8,0-.4-.1-.9,0-1.3.1-.4.5-.8,0-1.3,0,0,.1-.2.2-.3.5-.3.7-.8.5-1.3-.2-.4,0-.7,0-1.1.2-.9.5-1.8.8-2.7.2-.7.7-1.3.9-1.9.3-.7.2-1.5.7-2.1.5-.6.7-1.2.8-1.8.1-.4.5-.7,0-1.2,0,0,0-.2,0-.2,1.1-.8.4-2.1.9-3.1.5-1,.7-2.2,1-3.3,0-.3.3-.6,0-.9-.1-.1,0-.5,0-.6.8-.6.7-1.6,1.1-2.4.4-.9.4-1.9,1.1-2.8.3-.3.6-.9.2-1.5-.2-.3.2-.7.2-1.1,0-.3-.2-.6,0-.9,0-.2.4-.4.5-.6,0,0,0-.2,0-.2-.3-1.6,1-2.7,1.2-4.1.2-1.4.7-2.8,1.2-4.2.3-.8.7-1.5,1.9-1.7.6-.1,1.1,0,1.3.5.2.3.3.6.3.9,0,.5,0,.9,0,1.4,0,1,.2,2-.3,2.8-.2.3,0,.7-.5.8,0,0-.1.1-.1.2.4,1.5-.4,2.6-.7,3.9-.3,1.1,0,2.3-.5,3.3.4.8.1,1.4-.2,2-1.2,1.9-1.4,4.2-2.1,6.3-.7,2.1-1.3,4.3-1.9,6.4-.1.4.1.8-.3,1.1-.4.3-.3.9-.5,1.4-.1.4-.1.9-.4,1.3-1.1,1.5-1.3,3.3-1.8,5-.6,1.7-1.1,3.3-1.5,5-.2,1-.2,2.2-.6,3.2-.2.4,0,1-.7,1.2-.2,0,.1.6,0,.9-.2.7-.4,1.4-.6,2.1-.3,1-.6,1.9-.9,2.9-.1.6,0,1.3-.2,1.9-.1.6-.3,1.3-.6,1.9-.3.8-.8,1.5-1.1,2.3-.3.8-.3,1.7-.8,2.4-.9,1.3-1.2,2.8-1.7,4.2-.5,1.4-1,2.8-1.4,4.3-.2.8-.9,1.4-1.2,2.2-.1.4-1.7.4-2.1.1,0,0-.2-.2-.2-.2-.2-.9-.6-1.9-.3-2.7.5-1.3.9-2.6,1.3-3.9Z"/>
  <path d="M383.3,460.8c-.2-1.3-.4-2.5-.7-3.7-.1-.5,0-1-.6-1.4-.3-.2.2-.8.1-1.2-.3-1.2-.4-2.3-.7-3.5-.3-1.1-.7-2.2-1-3.3-.3-1.1-.2-2.3-.7-3.4-.4-.9,0-1.8-.4-2.7-.3-.9-.5-1.9-.5-2.9,0-.7.1-1.4,0-2.1-.1-.4-.5-.7-.6-1.2,0-.4.1-1-.6-1.2,0,0,0-.2,0-.3.3-.5.2-1.1-.1-1.4-.3-.3-.4-.7-.4-1-.2-1-.4-1.9-.5-2.9,0-.7,0-1.5,0-2.2,0-.8-.5-1.5-.3-2.3.2-.7,0-1.4,0-2.1,0-.4.1-.9-.5-1.1,0,0,0-.2,0-.2.6-1.2-.6-2.1-.6-3.3,0-1.2-.4-2.3-.6-3.5,0-.3,0-.7-.4-.9-.2,0-.3-.4-.2-.6.5-1,0-1.8-.1-2.7,0-1-.5-2-.2-3.1.1-.5.1-1.1-.5-1.5-.3-.2-.1-.7-.3-1.1-.1-.3-.4-.5-.5-.8,0-.3.1-.6.2-.8,0,0,0-.2,0-.2-.9-1.3-.3-3-.8-4.4-.5-1.4-.7-3-.9-4.5-.1-.8,0-1.7.9-2.5.5-.4,1-.5,1.4-.2.3.2.6.5.7.7.2.4.4.9.6,1.3.4.9,1.1,1.8,1,2.8,0,.3.3.6-.1,1,0,0,0,.2,0,.2,1,1.2.8,2.6,1.1,4,.3,1.1,1.1,2.1,1,3.3.7.5.8,1.3.7,2-.2,2.4.6,4.6.9,6.8.3,2.3.8,4.6,1.2,6.9,0,.4.5.7.3,1.2-.2.5.1,1,.2,1.5,0,.5.3.9.2,1.4-.3,1.9.4,3.6.6,5.5.2,1.8.5,3.6,1,5.4.3,1.1.8,2.1.9,3.2,0,.5.5.9,0,1.5-.1.2.4.5.5.8.2.7.3,1.5.4,2.2.2,1,.3,2.1.6,3.1.2.6.5,1.2.7,1.8.2.7.3,1.3.4,2,0,.9,0,1.7.1,2.6,0,.9.5,1.7.4,2.6-.2,1.6.3,3.1.6,4.7.2,1.5.5,3.1.9,4.6.2.9,0,1.7,0,2.6,0,.4-1.3,1.2-1.8,1.2-.1,0-.2,0-.3-.1-.6-.7-1.5-1.4-1.6-2.3-.2-1.4-.5-2.8-.8-4.3Z"/>
  <path d="M384.7,468.7c-.3,0-.6,0-1,0-.1,0-.2-.2-.4.3,0,.3-.2-.4-.3-.3-.3,0-.6,0-.9,0-.3,0-.6.3-.9.3-.3,0-.6-.2-.9,0-.2.3-.5-.2-.7-.1-.2.1-.5.2-.7,0-.2-.2-.3-.4-.5-.3-.1,0-.2.4-.3.4-.1,0-.2-.3-.3.3,0,0,0,0,0-.1-.1-.4-.3-.4-.4-.1,0,.3-.2.2-.3.3-.2,0-.5,0-.7,0-.2,0-.4-.3-.6-.3-.2,0-.4.2-.6,0-.2-.3-.3-.3-.5-.3,0,0-.2-.3-.3.3,0,0,0,0,0,0-.3-.8-.6.3-.8,0-.3-.2-.6,0-.9,0,0,0-.2-.2-.2.3,0,.2-.1.2-.2,0-.2-.6-.5-.2-.7-.4-.3-.1-.5.2-.8-.3-.1-.2-.3-.3-.4.3,0,.3-.2,0-.3,0,0,0-.2.3-.2.3,0,0-.1-.2-.2-.3,0,0,0,0,0,0-.4.7-.8-.2-1.1,0-.4.2-.8.1-1.2,0-.2,0-.4-.2-.6-1.4,0-.5,0-1.1,0-1.4,0-.2.1-.5.2-.5.1,0,.2-.2.4-.3.2-.2.5-.7.7-.4,0,0,.2-.2.2.3,0,0,0,.1,0,0,.3-.8.7-.3,1-.3.3,0,.6-.7.9-.4.2-.6.4-.5.5-.3.6.7,1.2.2,1.7.3.6,0,1.2,0,1.8,0,.1,0,.2-.4.3,0,.1.3.3,0,.4,0s.2-.1.4,0c.5.7.9.3,1.4.3.5,0,.9.1,1.4,0,.3,0,.6-.4.8-.3.1,0,.2-.3.4.3,0,.2.1-.3.2-.3.2,0,.4,0,.6,0s.5,0,.8,0c.2,0,.3-.3.5-.3.2,0,.3,0,.5,0,.2,0,.4.3.6.3.2,0,.5-.2.7,0,.4.5.8.3,1.2.3.4,0,.8.1,1.2,0,.2,0,.4.4.6.4.1,0,.2,1.5.2,2,0,0,0,.2,0,.2-.2.5-.4,1.2-.7,1.1-.4,0-.7,0-1.1,0Z"/>
  <path d="M263.8,267.1c-.2.1-.4.2-.5.4,0,0-.3,0,0,.4.1.2-.3-.2-.4-.2-.1.2-.4.2-.5.4-.1.2-.2.5-.3.6-.1.2-.5,0-.5.4,0,.3-.4,0-.5.2,0,.2-.2.4-.5.3-.2,0-.4-.2-.5,0,0,0,0,.4,0,.4,0,0-.3-.2,0,.4,0,0,0,0-.1,0-.3-.3-.4-.2-.3,0,0,.3,0,.3,0,.3-.1.1-.3.2-.5.3-.1,0-.4-.1-.5,0-.1,0-.1.3-.4.1-.3-.2-.4-.1-.5,0,0,0-.3-.2,0,.4,0,0,0,0,0,0-.6-.6-.2.4-.5.3-.3,0-.4.2-.6.3,0,0-.2,0,0,.3,0,.2,0,.2,0,.1-.4-.5-.4,0-.6,0-.2,0-.2.3-.6,0-.2-.1-.3-.2-.1.4,0,.3-.1,0-.2.1,0,0,0,.3,0,.4,0,0-.2-.2-.3-.2,0,0,0,0,0,0,0,.7-.6,0-.7.3-.2.3-.4.3-.7.4-.2,0-.4,0-1-1.1-.3-.4-.5-1-.6-1.3,0-.2-.1-.5,0-.5,0-.1,0-.3,0-.4,0-.2,0-.8.3-.6,0,0,0-.2.3.2,0,0,0,0,0,0-.1-.8.3-.4.5-.6.2-.1,0-.8.3-.6-.2-.6,0-.6.1-.5.7.4.8-.2,1.2-.3.4-.1.7-.4,1-.5,0,0,0-.4.1-.2.2.2.2,0,.2,0,0,0,0-.2.2,0,.6.4.7,0,1-.2.3-.1.6-.2.8-.5.1-.2,0-.6.3-.6,0,0,0-.3.4.1.1.1,0-.3,0-.3,0-.1.2-.2.3-.2.1,0,.3-.2.4-.3,0,0,0-.4,0-.5,0-.1.1-.2.3-.2.2,0,.4,0,.5,0,.2,0,.1-.3.4-.2.5.3.6-.1.8-.2.2-.1.5-.2.6-.5,0-.1.5.2.6,0,0,0,1.1,1,1.3,1.5,0,0,.1.2.1.2.2.5.5,1.1.4,1.2-.2.1-.4.3-.6.5Z" fill="#00b4e9"/>
  <path d="M262.4,281.9c-.1,0-.2.1-.3.3,0,0-.2-.1,0,.3.1.2-.3-.2-.3-.2,0,.1-.2.1-.3.3,0,.1,0,.4-.1.5,0,.1-.3,0-.3.3,0,.3-.3,0-.3,0,0,.2,0,.3-.3.1-.2-.1-.3-.3-.3-.1,0,0,.1.4,0,.4,0,0-.2-.2,0,.4,0,0,0,0-.1-.1-.2-.3-.3-.3-.2,0,0,.3,0,.2,0,.3,0,0-.2.2-.3.1,0,0-.3-.2-.4-.2,0,0,0,.3-.3,0-.2-.2-.3-.2-.3-.2,0,0-.2-.2,0,.4,0,0,0,0,0,0-.4-.7-.1.3-.3.2-.2-.2-.3,0-.4.1,0,0-.1-.1,0,.3,0,.2,0,.2,0,0-.3-.6-.3-.2-.4-.2-.1,0-.2.2-.4-.2-.1-.2-.2-.3,0,.3,0,.3,0,0,0,0,0,0,0,.3,0,.3,0,0-.1-.2-.2-.3,0,0,0,0,0,0,0,.7-.4-.1-.5,0-.1.2-.3.2-.5.1,0,0-.2-.2-.5-1.3-.1-.5-.2-1-.3-1.4,0-.2,0-.5,0-.5,0-.1,0-.2,0-.3,0-.2,0-.7.1-.5,0,0,0-.2.1.3,0,0,0,.1,0,0,0-.8.1-.3.2-.4,0,0,0-.7.1-.5-.1-.6,0-.5,0-.4.4.6.4.1.6.1.2,0,.3-.1.5-.2,0,0,0-.3,0-.1.1.2,0,0,.1,0,0,0,0-.2.1,0,.4.5.4.1.5.1.2,0,.3,0,.4-.2,0-.1,0-.5,0-.4,0,0,0-.3.3.2,0,.1-.1-.3-.1-.3,0,0,0,0,.1-.1,0,0,.2,0,.2-.1,0,0,0-.3,0-.4,0,0,0-.1.1,0,0,0,.3.2.4.2,0,0,0-.3.2,0,.4.3.4,0,.5,0,.1,0,.3,0,.3-.3,0,0,.4.2.4.2,0,0,.3.2.6.6.3.3.6.7.8.9,0,0,.1.2.1.2.3.4.7,1,.6,1-.2,0-.2.2-.4.3Z" fill="#00b4e9"/>
  <path d="M259.7,294.6s0,0,0,0c0,0-.1-.2.1.3.1.2-.2-.3-.2-.3,0,0,0,0,0,0,0,0,.1.3.1.3,0,0-.1-.2,0,0,.1.3-.1-.2,0,0,0,.1,0,.2,0,0,0-.2-.2-.3-.1-.2,0,0,.2.3.2.3,0,0-.1-.3.1.3,0,0,0,0,0-.1-.2-.4-.2-.3,0,0,.1.2.1.2.1.2,0,0,0,0,0,0,0,0-.1-.3-.2-.3,0,0,0,.2,0,0-.1-.3-.1-.3-.1-.3,0,0-.1-.3.2.3,0,0,0,0,0,0-.4-.7.1.2,0,0,0-.2,0,0,0,0,0,0,0-.2.1.3,0,.1,0,.2,0,0-.3-.6-.1-.2-.2-.3,0-.1,0,.2-.2-.3,0-.2-.1-.3.1.2.1.2,0,0,0,0,0,0,.1.3.1.3,0,0-.1-.2-.2-.3,0,0,0,0,0,0,.3.6-.1-.2,0,0,0,.2,0,.1,0,0,0,0-.1-.2-.6-1.2-.2-.5-.5-1-.6-1.2-.1-.2-.2-.4-.2-.5,0,0-.1-.2-.1-.3,0-.2-.3-.7-.2-.4,0,0,0-.2.1.3,0,0,0,0,0,0-.4-.7-.1-.2-.1-.3,0,0-.3-.6-.2-.4-.3-.6-.2-.5-.1-.3.3.6.1.2.2.3,0,0,0,0,0,0,0,0-.2-.3,0,0,.1.2,0,0,0,0,0,0,0-.1,0,0,.3.6.1.2.2.3,0,0,0,.1,0,0,0,0-.2-.4-.1-.3,0,0-.1-.3.1.3,0,.1-.1-.3-.1-.3,0,0,0,0,0,0,0,0,0,0,0,0,0,0-.1-.3-.1-.3,0,0,0,0,0,0,0,0,.1.3.2.3,0,0,0-.2,0,0,.2.5.1.2.2.3,0,0,0,0,0,0,0,0,.2.4.2.4,0,0,.7,1.3.9,1.8,0,0,0,.2.1.2.2.4.5,1.1.5,1,0,0,0,0,0,0Z" fill="#00b4e9"/>
  <path d="M194.3,344.9c0-4.4.8-8.9,2.5-13.2.6-1.6,1.6-3,2.2-4.8.3-.9,1.8-1.9,2.8-3.1,2.8-3.2,6.7-5.6,10.9-6.7.5-.1,1-.2,1.6-.3.5-.1,1.1-.2,1.8-.2.3,0,.6,0,1,0,.4,0,.8.2,1.2.3.8.3,1.5.8,2,1.5.5.7.8,1.5.8,2.3,0,.4,0,.9,0,1.3,0,.2,0,.5-.1.6,0,.2,0,.3-.1.5-.2.6-.5,1.2-.8,1.7-.3.5-.6,1-.9,1.4-1.3,1.8-3.1,3.2-5,4.3-1.9,1.1-3.9,1.8-5.9,2.4-3.5,1-7,.3-10.2-.8-3.5-1.1-6.7-3.2-8.9-5.9-1.6-2-2.8-4.2-4-6.3-.7-1.4-1.5-2.6-1.9-4.3-.4-1.5-.4-3.3-1.2-4.6,0-.1,0-.8,0-1.2.3-1.7.4-3.7.3-5.2-.1-1.4.1-2.6.4-3.9.8-3.4,2-6.8,3.9-9.8,1.4-2.3,3.1-4.2,4.9-6.1,1.9-2,4-4.1,6.3-5.2.6-.3,1.1-.6,1.7-.8.6-.3,1.1-.5,1.7-.8,1.2-.5,2.4-.9,3.7-1.2.8-.1,1.6-.1,2.5,0,.9,0,1.7.2,2.4.1.1,0,.8.2,1,.4,1,.8,2,1.7,2.7,2.8.7,1.1,1.1,2.4,1.1,3.7,0,2.6-.9,4.8-2.3,6.5-.8.9-1.7,1.7-2.6,2.3-.9.7-1.9,1.3-2.8,1.8-2,1-4.2,1.8-6.4,2.1-1.2.2-2.5,0-3.6.4-.2,0-.6,0-1.1,0-.5,0-.9-.2-1.2-.3-1.6-.7-3.3-1.4-4.8-2.4-1.5-1-2.9-2.2-3.9-3.6-2.3-3.2-3.7-7.1-3.3-11,.2-1.6.5-3.7.3-5.7,0-.9.7-2.6,1.1-3.9.3-1.1.5-2.1,1-3.1.4-.8,1-1.6,1.6-2.3.2-.2.3-.5.4-.8,1-2.4,2.6-4.6,4.3-6.5,1.7-2,3.5-3.8,5.3-5.7,3.6-3.8,7.9-7.1,12.5-9.6,2.5-1.4,5.4-2.6,7.6-2.2,1,.1,1.2.7.2,1.4-.7.6-1.5,1.2-2.4,1.7-1.4.8-2.7,1.6-4,2.5-2.6,1.8-4.9,4-7.5,5.9-.8.6-1.5,1.6-2.5,1.8-.1,0-.5.3-.6.5-1.3,1.8-2.8,3.4-4.2,5.1-1.4,1.7-2.9,3.4-4,5.3-2,3.2-3.1,6.6-4.3,10,0,2-.4,4.2-.4,6.1-.2,3.3,1,6.8,3.2,9.1,2.2,2.3,5.4,3.4,8.7,3.2,1.7,0,3.4-.5,4.9-1.1,1.5-.7,3-1.6,4.2-2.7,1.1-1.1,2-2.6,2.2-3.9.2-1.3-.1-2.2-1.1-2.9-.3-.2-.7-.3-1.2-.4-.4,0-.9-.1-1.4-.3-1.1-.3-2.6.3-3.9,1-1.3.6-2.5,1.5-3.7,2.1-2.5,1.3-4.7,3.3-6.4,5.6-1.8,2.3-3.1,4.9-4.2,7.5-2.2,5.3-2.9,11.3-1.5,16.8.9,3.3,2.7,6.2,4.8,8.8.9,1.1,2.2,1.9,3,3.2.2.4,1.6.7,2.4,1.1,2,1,4.2,1.6,6.4,1.7,3.1.1,6.2-.7,8.8-2.5,1.6-1,2.6-2.6,3.5-4.1.2-.3.3-.7.4-.9,0,0,0,0,0,0,0,0,0,0,0,0h0s0,0,0,0c0,0,0,0-.1,0-.4,0-.9,0-1.5,0-.3,0-.6,0-.9.1-.3,0-.6.1-.9.2-1.2.3-2.4.7-3.5,1.4-2.3,1.3-4.2,3.4-6,5.3-1.6,1.8-2.8,4-3.6,6.3-.8,2.3-1.2,4.8-1.5,7.3-.5,5,0,10.1,1.2,15.1.7,2.8.9,5.5,1.6,8.3.4,1.3-.6,3.5-1.2,3.1-.1,0-.3-.3-.4-.5-1.2-2.6-2.6-5-3.3-8.2-1-4.8-1.9-9.7-1.8-14.7Z" fill="#00b4e9"/>
  <g>
    <path d="M180.3,461.3c-1.4-2.1-1.5-4.8-1.6-7.4-.1-3.4-.1-7.1,1.5-10.1,1.8-3.4,5.4-5.4,9.1-6.7s7.5-2,11-3.6c3.5-1.6,6.8-4.4,7.6-8.1.6-2.6,0-5.4-1.1-7.8,5,.3,9.8,3,12.7,7.1,2.9,4.1,3.8,9.5,2.4,14.3-.3,1.2-.8,2.6-.1,3.6.7,1.1,3,1.7,4.1,2.2,4.2,2.1,4.7,3.6,5.4,8.3s2.5,11.7-2,13.7c-2.8,1.3-5.6.3-8.7.2-10.8-.3-28.2.6-38.7-1.9-.8-.2-1.6-.4-2.2-1-1.7-1.6-.3-4.6-1.4-6.6" fill="#00b4e9"/>
    <path d="M189.1,464.3c2.9.3,5.8.5,8.7.5,1.1,0,2.2.3,3.3-.2.6-.3,1.6.4,2.6.4,2.7,0,5.5,0,8.2,0,2.7,0,5.3-.3,8-.3.6,0,1.5,0,2.2.1.7,0,1.3.2,2,.3,1.3.2,2.4.2,3.2-.2.3-.1.7-.3.9-.4,0,0,.2-.1.3-.2,0,0,.2-.1.3-.2.4-.3.7-.9.8-1.6.2-1.7,0-3.8-.2-5.9,0-.8,0-1.6-.1-2.4,0-.8-.2-1.6-.3-2.3-.2-.9-.7-1.7-1-2.3-.1-.3-.2-.6-.4-.9-.2-.2-.5-.4-.9-.3,0,0-.3-.3-.3-.4-.2-.4-.6-.8-1.1-1-.2-.1-.5-.2-.6-.3-.2,0-.4,0-.7-.1-.5,0-.9-.1-1.3-.3-.5-.2-.9-.4-1.5-.7-1-.6-1.7-1.4-2.1-2.5-.2-.5-.3-1.1-.3-1.6,0-.5,0-1.2.1-1.5.1-.8.4-1.4.5-1.9.1-.5.2-.9.3-1.4.3-1.4.5-2.8.4-4.3-.1-1.5-.9-3-1.2-4.4-.3-1.4-1.1-2.6-2.1-3.6-.5-.6-1.1-1.5-2-1.4,0,0-.3-.2-.4-.3-.7-1-1.7-1.5-2.8-1.9-.1,0-.3,0-.4-.1-.1,0-.3,0-.3,0,0,0-.1,0-.2,0,0,0-.1,0-.3,0,0,0-.2,0-.3-.1,0,0,0,0-.1,0h0c0,0,.2.6.2.6h0c0,.4,0,.7.1,1,0,.6,0,1.1,0,1.7,0,.9-.3,1.8-.2,2.8,0,.3-.2,1.3-.6,1.7-1.6,2-3.1,4.1-5.1,5.4-2.2,1.5-4.6,2.8-7.1,3.1-1.1.1-2.4.4-3.4,1.3-.5.4-1.6.5-2.4.8-.6.3-1.2.7-1.8,1-.5.2-1.1.2-1.7.3-.2,0-.3.1-.5.2-1.3,1-2.5,1.7-3.6,2.6-1.1.9-2,1.9-2.4,3.3-.4,1.4-.6,2.9-.6,4.5,0,1.6,0,3.4,0,5,0,.9.1,1.7,0,2.5,0,.8,0,1.5-.3,2.3-.2.7-.6,1.1-1.3.5-.5-.5-1-1.1-1.3-1.8-.4-1.1-.7-2.3-.9-3.4-.2-1.2-.4-2.3-.5-3.4-.1-1.2-.2-2.4,0-3.6.2-.8,0-1.8.7-2.3,0,0,.2-.4.2-.5,0-1.8.9-3.6,2.1-5,1.2-1.4,2.7-2.4,4.2-3.3,2.5-1.5,5-3,7.7-3.5,1.3-1,3-1.4,4.4-1.6,2.5-.5,4.7-1.4,6.4-2.9,1.8-1.5,2.8-3.4,3.1-5.3,0-.4,0-.8,0-1.2,0-.2,0-.4,0-.6,0-.1,0-.2,0-.3v-.3s-.1-.4-.1-.4c-.2-.9-.6-1.9-1-3l-1.3-3.2c.3,0,.5,0,.7,0,.3,0,.7,0,1,0l2,.2c1.3.1,2.7.3,4.1.8.3.1.7.2,1,.3l.7.3c.4.2.8.4,1.3.6.8.4,1.6.9,2.4,1.4.8.6,1.8.9,2.5,1.9.6,1,1.8,2,2.5,3.1.7,1,1.4,2.1,1.7,3.2.6,2.3,1,4.6,1.1,7,0,1.2,0,2.3-.2,3.5-.2,1.2-.6,2.4-.7,3.1,0,0,0,.2,0,.3h0c0,.2,0,.3,0,.4,0,.2.1.3.3.4,0,0,0,0,0,0,0,0,.2,0,.2.1.2,0,.4.2.6.3.4.2.9.4,1.4.6.2,0,.6.2.8.4l.8.4c.5.3,1,.6,1.5.9.5.3,1,.8,1.5,1.3.5.5.9,1.1,1.2,1.7.8,1.5,1.1,2.9,1.4,4.2.2.7.3,1.3.4,1.9.1.6.2,1.3.3,1.9.1,1.1.6,2.3.1,3.5-.1.3.4,1.4.4,2.3,0,1-.1,2.1-.5,3.2-.3,1.1-1,2.3-2,3.2l-.5.5c-.2.1-.4.2-.6.4l-.6.3-.6.2c-.8.3-1.6.5-2.3.5-1.6.2-2.9,0-4.2-.1-.7,0-1.5,0-2.1,0-.6,0-1.4.1-2.1.1-1.5,0-3.1,0-4.7,0-2,0-3.9-.3-5.9-.3-2.1,0-4.2.2-6.2,0-3.7-.6-7.4-.4-11.1-.8-1.8-.2-3.7-.4-5.5-.7-.9-.2-1.8-.3-2.8-.5-.9-.2-1.8-.3-3-.8-.5-.2-.9-.5-1.3-.9-.5-.5-.9-1.2-1-1.8-.2-.7-.2-1.2-.2-1.7,0-1,.2-1.8.1-2.5,0-.4.3-.8.6-1.3.3-.4.6-.9.9-.8.1,0,.3.2.4.3.6,1.1.9,2.2,1.1,3.1.1.5.2.9.3,1.3.1.4.2.5.3.6,0,0,0,0,0,0,0,0,.1.1.4.2.2,0,.5.2.9.3.7.2,1.5.3,2.2.5,1.5.3,3.1.5,4.6.6Z" fill="#00b4e9"/>
  </g>
  <path d="M215.9,426.9c0,.2-.2.3-.3.5,0,0-.3,0,.1.3.2.2-.4-.1-.4,0,0,.2-.2.2-.3.4,0,.2,0,.4,0,.6,0,.2-.4,0-.3.4,0,.3-.3,0-.4.2,0,.2,0,.3-.3.2-.2,0-.4-.2-.4,0,0,0,.1.4,0,.4,0,0-.3-.2,0,.4,0,0,0,0-.1,0-.3-.3-.3-.2-.2,0,.1.3,0,.3,0,.3-.1.1-.2.2-.4.2-.1,0-.3-.1-.4-.2-.1,0-.1.3-.3,0-.2-.2-.3-.2-.4-.1,0,0-.2-.2,0,.4,0,0,0,0,0,0-.5-.7-.2.4-.4.2-.2-.1-.3,0-.5.1,0,0-.1-.1,0,.3,0,.2,0,.2,0,0-.3-.6-.3-.2-.5-.2-.2,0-.3.2-.5-.2,0-.2-.2-.3-.2.3,0,.3-.1,0-.2,0,0,0,0,.3-.1.3,0,0-.1-.2-.2-.3,0,0,0,0,0,0-.2.7-.5-.2-.7,0-.2.2-.5.1-.7,0-.1,0-.2-.3-.2-1.4,0-.5.1-1.1.2-1.4,0-.2.1-.5.1-.5,0,0,.1-.2.2-.3,0-.2.2-.7.3-.4,0,0,0-.2,0,.3,0,0,0,.1,0,0,.1-.8.2-.3.3-.3,0,0,.1-.7.2-.4,0-.6,0-.5,0-.4.3.6.4.2.5.2.2,0,.3-.1.5-.1,0,0,0-.3,0-.1.1.2,0,0,.1,0,0,0,0-.2.1,0,.4.5.4,0,.5,0,.2,0,.3,0,.3-.3,0-.1-.1-.5,0-.4,0,0-.1-.3.3.2.1.1-.2-.2-.1-.3,0,0,0,0,.1-.1,0,0,.1,0,.2-.2,0,0-.1-.3-.2-.3,0,0,0-.1,0-.1,0,0,.3,0,.4,0,0,0,0-.2.2-.1.5.2.4,0,.5-.1.1,0,.2-.2.2-.3,0,0,.4,0,.5,0,0,0,.4.1.8.3.4.2.9.3,1.1.4,0,0,.2,0,.2.1.4.3,1,.7.9.8-.1.2-.2.4-.3.5Z" fill="#fff"/>
  <path d="M203.2,440.1s0,0-.1,0c0,0,0-.2,0,.3,0,.3,0-.4,0-.3,0,0,0,0-.1,0,0,0,0,.3,0,.4,0,0,0-.2,0,0,0,.3,0-.2,0,0,0,.1,0,.2,0,0,0-.2,0-.4,0-.3,0,0,0,.4,0,.4,0,0,0-.3,0,.3,0,0,0,0,0-.1,0-.4,0-.4,0,0,0,.3,0,.2,0,.3,0,0,0,0,0,0,0,0,0-.3-.1-.3,0,0,0,.2,0,0,0-.3,0-.3,0-.3,0,0,0-.3,0,.3,0,0,0,0,0,0-.1-.8,0,.3,0,0,0-.2,0,0-.1,0,0,0,0-.2,0,.3,0,.2,0,.2,0,0,0-.6,0-.2-.1-.3,0-.1,0,.2-.1-.3,0-.2,0-.3,0,.3,0,.3,0,0,0,0,0,0,0,.3,0,.3,0,0,0-.2,0-.3,0,0,0,0,0,0,0,.7-.1-.2-.1,0,0,.2,0,.1-.1,0,0,0,0-.2-.2-1.4,0-.5-.1-1.1-.2-1.4,0-.2,0-.5,0-.5,0,0,0-.2,0-.3,0-.2,0-.7,0-.5,0,0,0-.2,0,.3,0,0,0,.1,0,0,0-.8,0-.3,0-.3,0,0,0-.7,0-.4,0-.6,0-.5,0-.3.1.7.2.2.2.3,0,0,.1,0,.2,0,0,0,0-.4,0,0,0,.3,0,0,0,0,0,0,0-.1,0,0,.1.7.1.2.2.3,0,0,.1.1.2,0,0-.1,0-.5,0-.3,0,0,0-.3,0,.3,0,.2,0-.3,0-.3,0,0,0,0,0,0,0,0,0,0,0,0,0,0,0-.3,0-.3,0,0,0,0,0,0,0,0,0,.3.1.3,0,0,0-.2,0,0,.1.5.1.2.2.3,0,0,.1,0,.1,0,0,0,0,.4.1.4,0,0,.2,1.5.2,2,0,0,0,.2,0,.2,0,.5,0,1.2,0,1.1,0,0,0,0-.1,0Z" fill="#fff"/>
  <path d="M209.2,440.9s0,0,0,0c0,0,0-.2,0,.3,0,.3,0-.4,0-.3,0,0,0,0,0,0,0,0,0,.3,0,.3,0,0,0-.2,0,0,0,.3,0-.2,0-.1,0,.1,0,.2,0,0,0-.2,0-.4,0-.3,0,0,0,.4,0,.4,0,0,0-.3,0,.3,0,0,0,0,0-.1,0-.4,0-.4,0-.1,0,.3,0,.2,0,.3,0,0,0,0,0,0,0,0,0-.3,0-.3,0,0,0,.2,0,0,0-.3,0-.3,0-.3,0,0,0-.3,0,.3,0,0,0,0,0,0,0-.8,0,.3,0,0,0-.2,0,0,0,0,0,0,0-.2,0,.3,0,.2,0,.2,0,0,0-.6,0-.2,0-.4,0-.1,0,.2,0-.3,0-.2,0-.3,0,.3,0,.3,0,0,0,0,0,0,0,.3,0,.3,0,0,0-.2,0-.3,0,0,0,0,0,0,0,.7,0-.2,0,0,0,.2,0,.1,0,0,0,0,0-.2,0-1.4,0-.5,0-1.1,0-1.4,0-.2,0-.5,0-.5,0,0,0-.2,0-.3,0-.2,0-.7,0-.4,0,0,0-.2,0,.3,0,0,0,.1,0,0,0-.8,0-.3,0-.3,0,0,0-.7,0-.4,0-.6,0-.5,0-.3,0,.7,0,.2.1.3,0,0,0,0,.1,0,0,0,0-.4,0,0,0,.3,0,0,0,0s0-.1,0,0c0,.7,0,.3.1.3,0,0,0,.1.1,0,0,0,0-.4,0-.3,0,0,0-.3,0,.3,0,.2,0-.3,0-.3,0,0,0,0,0,0s0,0,0,0c0,0,0-.3,0-.3,0,0,0,0,0,0,0,0,0,.3,0,.3,0,0,0-.2,0,0,0,.5,0,.3,0,.3,0,0,0,.1,0,0,0,0,0,.4,0,.4,0,0,0,1.5,0,2,0,0,0,.2,0,.2,0,.5,0,1.2,0,1.1,0,0,0,0,0,0Z" fill="#fff"/>
  <path d="M212.4,449.1c0,0-.1,0-.2,0,0,0,0-.2,0,.3,0,.3-.1-.4-.1-.3,0,0-.1,0-.1,0,0,0,0,.3,0,.4,0,0-.1-.2-.1.1,0,.3-.1-.2-.1,0,0,.1,0,.2-.1,0,0-.2-.1-.4-.1-.3,0,0,0,.4,0,.4,0,0,0-.3,0,.3,0,0,0,0,0-.1,0-.4,0-.4,0,0,0,.3,0,.2,0,.3,0,0,0,0-.1,0,0,0,0-.3-.1-.3,0,0,0,.2-.1,0,0-.3,0-.3-.1-.3,0,0,0-.3,0,.3,0,0,0,0,0,0,0-.8,0,.3-.2,0,0-.2-.1,0-.2,0,0,0,0-.2,0,.3,0,.2,0,.2,0,0,0-.6,0-.2-.1-.4,0-.1-.1.2-.1-.3,0-.2,0-.3,0,.3,0,.3,0,0,0,0,0,0,0,.3,0,.3,0,0,0-.2,0-.3,0,0,0,0,0,0-.1.7-.1-.2-.2,0,0,.2-.2,0-.2,0,0,0,0-.2,0-1.4,0-.5.1-1.1.2-1.4,0-.2,0-.5,0-.5,0,0,0-.2,0-.3,0-.2.1-.7.1-.4,0,0,0-.2,0,.3,0,0,0,.1,0,0,.1-.8,0-.3.1-.3,0,0,.1-.7.1-.4,0-.6,0-.5,0-.3,0,.7,0,.2.1.3,0,0,.1,0,.2,0,0,0,0-.4,0,0,0,.3,0,0,0,0,0,0,0-.1,0,0,0,.7.1.3.1.3,0,0,.1.1.1,0,0-.1,0-.4,0-.3,0,0,0-.3,0,.3,0,.2,0-.3,0-.3,0,0,0,0,0,0,0,0,0,0,0,0,0,0,0-.3,0-.3,0,0,0,0,0,0,0,0,0,.3.1.3,0,0,0-.2,0,0,.1.5.1.2.2.3,0,0,0,0,.1,0,0,0,.1.4.2.4,0,0,.4,1.4.5,1.9,0,0,0,.2,0,.2,0,.5.2,1.2.2,1.1,0,0-.1,0-.2,0Z" fill="#fff"/>
  <path d="M217.3,440.3s0,0,0,0c0,0,0-.2,0,.3,0,.3,0-.4,0-.3,0,0,0,0,0,0,0,0,0,.3,0,.3,0,0,0-.2,0,0,0,.3,0-.2,0-.1,0,.1,0,.2,0,0,0-.2,0-.4,0-.3,0,0,0,.4,0,.4,0,0,0-.3,0,.3,0,0,0,0,0-.1,0-.4,0-.4,0-.1,0,.3,0,.2,0,.3,0,0,0,0,0,0,0,0,0-.3,0-.3,0,0,0,.2,0,0,0-.3,0-.3,0-.3,0,0,0-.3,0,.3,0,0,0,0,0,0,0-.8,0,.3,0,0,0-.2,0,0,0,0,0,0,0-.2,0,.3,0,.2,0,.2,0,0,0-.6,0-.2,0-.4,0-.1,0,.2,0-.3,0-.2,0-.3,0,.3,0,.3,0,0,0,0,0,0,0,.3,0,.3,0,0,0-.2,0-.3,0,0,0,0,0,0,0,.7,0-.2,0,0,0,.2,0,.1,0,0,0,0,0-.2,0-1.4,0-.5,0-1.1,0-1.4,0-.2,0-.5,0-.5,0,0,0-.2,0-.3,0-.2,0-.7,0-.4,0,0,0-.2,0,.3,0,0,0,.1,0,0,0-.8,0-.3,0-.3,0,0,0-.7,0-.4,0-.6,0-.5,0-.3,0,.7,0,.2,0,.3,0,0,0,0,0,0,0,0,0-.4,0,0,0,.3,0,0,0,0s0-.1,0,0c0,.7,0,.3,0,.3,0,0,0,.1,0,0,0,0,0-.4,0-.3,0,0,0-.3,0,.3,0,.2,0-.3,0-.3,0,0,0,0,0,0s0,0,0,0c0,0,0-.3,0-.3,0,0,0,0,0,0,0,0,0,.3,0,.3,0,0,0-.2,0,0,0,.5,0,.3,0,.3,0,0,0,.1,0,0,0,0,0,.4,0,.4,0,0,0,1.5,0,2,0,0,0,.2,0,.2,0,.5,0,1.2,0,1.1,0,0,0,0,0,0Z" fill="#fff"/>
  <path d="M194.7,442s0,0-.1,0c0,0,0-.2,0,.3,0,.3,0-.4,0-.3,0,0,0,0-.1,0,0,0,0,.3-.1.3,0,0,0-.2-.1,0,0,.3,0-.2,0-.1,0,.1,0,.2,0,0,0-.2,0-.4,0-.3,0,0,0,.4,0,.4,0,0,0-.3,0,.3,0,0,0,0,0-.1,0-.4,0-.4,0-.1,0,.3,0,.2,0,.3,0,0,0,0,0,0,0,0,0-.3,0-.3,0,0,0,.2,0,0,0-.3,0-.3,0-.3,0,0,0-.3,0,.3,0,0,0,0,0,0,0-.8,0,.3-.1,0,0-.2,0,0-.1,0,0,0,0-.2,0,.3,0,.2,0,.2,0,0,0-.6,0-.2,0-.4,0-.1,0,.2-.1-.3,0-.2,0-.3,0,.3,0,.3,0,0,0,0,0,0,0,.3,0,.3,0,0,0-.2,0-.3,0,0,0,0,0,0,0,.7,0-.2-.2,0,0,.2-.1.1-.2,0,0,0,0-.2,0-1.4,0-.5,0-1.1,0-1.4,0-.2,0-.5,0-.5,0,0,0-.2,0-.3,0-.2,0-.7,0-.4,0,0,0-.2,0,.3,0,0,0,.1,0,0,0-.8,0-.3.1-.3,0,0,0-.7.1-.4,0-.6,0-.5,0-.3,0,.7.2.2.2.3,0,0,.2,0,.2,0,0,0,0-.4,0,0,0,.3,0,0,0,0s0-.1,0,0c0,.7.1.3.2.3,0,0,.1.1.2,0,0,0,0-.4.1-.3,0,0,0-.3,0,.3,0,.2,0-.3,0-.3,0,0,0,0,0,0s0,0,.1,0c0,0,0-.3,0-.3,0,0,0,0,0,0,0,0,0,.3,0,.3,0,0,0-.2,0,0,0,.5.1.3.2.3,0,0,.1.1.2,0,0,0,0,.4,0,.4,0,0,0,1.5,0,2,0,0,0,.2,0,.2,0,.5,0,1.2,0,1.1,0,0,0,0-.1,0Z" fill="#fff"/>
  <path d="M201.5,449s0,0-.1,0c0,0,0-.2,0,.3,0,.3,0-.4,0-.3,0,0,0,0-.1,0,0,0-.1.3-.1.3,0,0,0-.2-.1,0,0,.3,0-.2,0-.1,0,.1,0,.2,0,0,0-.2,0-.4,0-.3,0,0,0,.4,0,.4,0,0,0-.3,0,.3,0,0,0,0,0-.1,0-.4,0-.4,0-.1,0,.3,0,.2,0,.2,0,0,0,0,0,0,0,0,0-.3,0-.3,0,0,0,.2,0,0,0-.3,0-.3,0-.3,0,0,0-.3,0,.3,0,0,0,0,0,0,0-.8,0,.3-.1,0,0-.2,0,0-.1,0,0,0,0-.2,0,.3,0,.2,0,.2,0,0,0-.6,0-.2,0-.4,0-.1,0,.2,0-.3,0-.2,0-.3,0,.3,0,.3,0,0,0,0,0,0,0,.3,0,.3,0,0,0-.2,0-.3,0,0,0,0,0,0-.1.7,0-.2-.1,0,0,.2-.1,0-.2,0,0,0,0-.2,0-1.4,0-.5,0-1.1.1-1.4,0-.2,0-.5,0-.5,0,0,0-.2,0-.3,0-.2.1-.7.1-.4,0,0,0-.2,0,.3,0,0,0,.1,0,0,.1-.8.1-.3.2-.3,0,0,.1-.7.1-.4,0-.6,0-.5,0-.3,0,.7.1.2.2.3,0,0,.2,0,.2,0,0,0,0-.3,0,0,0,.3,0,0,0,0,0,0,0-.1,0,0,0,.7.1.3.2.3,0,0,.1.1.2,0,0,0,.1-.4.1-.3,0,0,0-.3,0,.3,0,.2,0-.3,0-.3,0,0,0,0,0,0,0,0,0,0,.1,0,0,0,0-.3,0-.3,0,0,0,0,0,0,0,0,0,.3,0,.4,0,0,0-.2,0,0,0,.5,0,.3.1.3,0,0,0,.1.2,0,0,0,0,.4,0,.4,0,0,0,1.5-.1,2,0,0,0,.2,0,.2,0,.5-.2,1.2-.2,1.1,0,0,0,0-.1,0Z" fill="#fff"/>
  <path d="M219.9,446.7s0,0,0,0c0,0-.2,0,.3,0,.3,0-.4,0-.3,0,0,0,0,0,0,0,0,0,.3,0,.3,0,0,0-.2,0,0,0,.3,0-.2,0-.1,0,.1,0,.2,0,0,0-.2,0-.4,0-.3,0,0,0,.4,0,.4,0,0,0-.3,0,.3,0,0,0,0,0-.1,0-.4,0-.4,0-.1,0,.3,0,.2,0,.3,0,0,0,0,0,0,0,0,0-.3,0-.3,0,0,0,.2,0,0,0-.3,0-.3,0-.3,0,0,0-.3,0,.3,0,0,0,0,0,0,0-.8,0,.3,0,0,0-.2,0,0,0,0,0,0,0-.2,0,.3,0,.2,0,.2,0,0,0-.6,0-.2,0-.4,0-.1,0,.2,0-.3,0-.2,0-.3,0,.3,0,.3,0,0,0,0,0,0,0,.3,0,.3,0,0,0-.2,0-.3,0,0,0,0,0,0,0,.7,0-.2,0,0,0,.2,0,.1,0,0,0,0,0-.2,0-1.4,0-.5,0-1.1,0-1.4,0-.2,0-.5,0-.5,0,0,0-.2,0-.3,0-.2,0-.7,0-.4,0,0,0-.2,0,.3,0,0,0,.1,0,0,0-.8,0-.3,0-.3,0,0,0-.7,0-.4,0-.6,0-.5,0-.3,0,.7,0,.2,0,.3,0,0,0,0,0,0,0,0,0-.4,0,0,0,.3,0,0,0,0,0s-.1,0,0,0c.7,0,.3,0,.3,0,0,0,.1,0,0,0,0,0-.4,0-.3,0,0,0-.3,0,.3,0,.2,0-.3,0-.3,0,0,0,0,0,0,0s0,0,0,0c0,0-.3,0-.3,0,0,0,0,0,0,0,0,0,.3,0,.3,0,0,0-.2,0,0,0,.5,0,.3,0,.3,0,0,0,.1,0,0,0,0,0,.4,0,.4,0,0,0,1.5,0,2,0,0,0,.2,0,.2,0,.5,0,1.2,0,1.1,0,0,0,0,0,0,0Z" fill="#fff"/>
  <path d="M216.6,433.6s0,0,0,0c0,0,.2,0-.3,0-.3,0,.4,0,.3,0,0,0,0,0,0,0,0,0-.3,0-.3,0,0,0,.2,0,0,0-.3,0,.2,0,.1,0-.1,0-.2,0,0,0,.2,0,.4,0,.3,0,0,0-.3,0-.4,0,0,0,.3,0-.3,0,0,0,0,0,.1,0,.4,0,.4,0,.1,0-.3,0-.2,0-.3,0,0,0,0,0,0,0h0s0,0,0,0h5.3s0,0,0,0h0s0,0,0,0c0,0-.3,0-.3,0,0,0,.2,0,0,0-.3,0-.3,0-.3,0,0,0-.3,0,.3,0,0,0,0,0,0,0-.8,0,.3,0,0,0-.2,0,0,0,0,0,0,0-.2,0,.3,0,.2,0,.2,0,0,0-.6,0-.2,0-.4,0-.1,0,.2,0-.3,0-.2,0-.3,0,.3,0,.3,0,0,0,0,0,0,0,.3,0,.3,0,0,0-.2,0-.3,0,0,0,0,0,0,0,.7,0-.2,0,0,0,.2,0,.1,0,0,0,0,0-.2,0-1.4,0-.5,0-1.1,0-1.4,0-.2,0-.5,0-.5,0,0,0-.2,0-.3,0-.2,0-.7,0-.4,0,0,0-.2,0,.3,0,0,0,.1,0,0,0-.8,0-.3,0-.3,0,0,0-.7,0-.4,0-.6,0-.5,0-.3,0,.7,0,.2,0,.3,0,0,0,0,0,0,0,0,0-.4,0,0,0,.3,0,0,0,0,0,0,0-.1,0,0,0,.3,0,.4,0,.4,0,0,0,0,0,0,0,0,0,0,0,0,0h0s3.7,0,3.7,0h0s0,0,0,0c0,0-.1,0,0,0,0,0,.4,0,.3,0,0,0,.3,0-.3,0-.2,0,.3,0,.3,0,0,0,0,0,0,0,0,0,0,0,0,0,0,0,.3,0,.3,0,0,0,0,0,0,0,0,0-.3,0-.3,0,0,0,.2,0,0,0-.5,0-.3,0-.3,0,0,0-.1,0,0,0,0,0-.4,0-.4,0,0,0-1.5,0-2,0,0,0-.2,0-.2,0-.5,0-1.1,0-1.1,0,0,0,0,0,0,0Z" fill="#fff"/>
  <g>
    <g>
      <g>
        <path d="M267.4,172.9c.2-.5.4-1.1.6-1.6,0-.2.4-.3,0-.7-.2-.2.5-.2.5-.4.1-.5.4-1,.5-1.5.1-.5,0-1.1.2-1.6.1-.5.6-.9.4-1.5-.1-.5.5-.7.5-1.1,0-.5.1-.9.5-1.2.3-.2.6-.5.6-.8,0-.2-.2-.5-.1-.7,0-.2.4-.3-.1-.7,0,0,0,0,.2,0,.5,0,.5-.3.3-.6-.2-.3-.1-.4,0-.5.1-.4.2-.9.5-1.2.2-.3.5-.5.7-.8.2-.3,0-.7.4-.9.4-.2.5-.5.6-.8,0-.2.4-.3-.1-.6,0,0,0,0,0-.1,1-.2.1-1,.5-1.5.4-.4.4-1,.6-1.5,0-.1.3-.2-.1-.5-.1-.1,0-.3,0-.3.7-.2.5-.7.8-1.1.3-.4.3-1.1,1-1.3.3-.1.5-.3.2-.9-.1-.3.2-.4.3-.6,0-.2,0-.5,0-.6,0-.1.4,0,.6-.1,0,0,0,0,.1-.1.2-1.1,1.4-1,2-1.6.6-.6,1.3-.9,2-1.2.4-.1.9-.2,1.6.8.3.4.6.9.6,1.3,0,.3,0,.5-.1.6-.1.2-.3.4-.4.6-.3.4-.4,1-.9,1-.2,0-.1.3-.5,0,0,0-.1,0-.1,0,0,.9-.7.8-1,1.2-.3.3,0,1-.4,1.1.4.5.2.7,0,.8-1,.4-.9,1.5-1.4,2.4-.4,1-.7,2-1.1,3,0,.2.2.4-.1.5-.3,0-.2.4-.3.6,0,.2,0,.5-.2.6-.9.6-.8,1.5-1.2,2.2-.3.8-.7,1.5-.8,2.3,0,.5,0,1.1-.2,1.5-.1.2.1.5-.5.5-.2,0,.2.3.2.5,0,.3-.2.7-.3,1-.2.5-.4.9-.5,1.4,0,.3,0,.6,0,.9,0,.3-.2.6-.3.9-.2.3-.5.6-.7,1-.2.4,0,.8-.5,1.1-.7.5-.7,1.3-1,1.9-.3.6-.6,1.3-.7,2,0,.4-.7.6-.8.9,0,.2-1.5,0-2-.3,0,0-.2-.1-.2-.2-.3-.5-.9-1.1-.7-1.5.3-.6.5-1.2.7-1.8Z"/>
        <path d="M284.4,177.3c-.3,0-.6,0-.9,0-.1,0-.2-.3-.3.3,0,.3-.1-.4-.2-.4-.3,0-.5,0-.8,0-.3,0-.5.3-.8.3-.3,0-.5-.2-.8,0-.2.3-.4-.2-.6-.1-.2.1-.5.2-.7,0-.2-.2-.3-.4-.5-.3,0,0-.2.4-.3.4,0,0-.2-.3-.3.3,0,0,0,0,0-.1-.1-.4-.2-.4-.3,0,0,.3-.2.2-.2.3-.2,0-.4,0-.7,0-.2,0-.3-.3-.5-.3-.2,0-.4.2-.5,0-.2-.3-.3-.3-.5-.3,0,0-.2-.3-.3.4,0,0,0,0,0,0-.3-.8-.5.3-.8,0-.3-.2-.5,0-.8,0,0,0-.2-.2-.2.3,0,.2,0,.2-.1,0-.2-.6-.4-.2-.6-.3-.2-.1-.5.2-.7-.3-.1-.2-.3-.3-.3.3,0,.3-.2,0-.2,0,0,0-.1.3-.2.4,0,0-.1-.2-.2-.3,0,0,0,0,0,0-.3.7-.7-.2-1,0-.3.2-.7.2-1,.1-.2,0-.4-.2-.7-1.3-.1-.5-.2-1.1-.2-1.4,0-.2,0-.5.1-.5,0-.1.2-.2.3-.4.2-.2.4-.8.6-.5,0,0,.1-.2.3.3,0,0,0,.1,0,0,.2-.8.6-.3.9-.4.3,0,.5-.7.8-.5,0-.6.3-.5.5-.4.6.6,1.1.1,1.7.2.6,0,1.1,0,1.7,0,0,0,.2-.4.3,0,.1.3.2,0,.4,0,.1,0,.2-.1.3,0,.5.6.9.2,1.3.3.4,0,.9.1,1.3,0,.3,0,.5-.4.8-.3.1,0,.2-.3.3.3,0,.2.1-.3.2-.3.2,0,.4,0,.6,0,.3,0,.5,0,.8,0,.2,0,.3-.3.5-.3.2,0,.3,0,.5,0,.2,0,.4.3.6.4.2,0,.4-.2.6,0,.4.5.7.3,1.1.4.4,0,.7.1,1.1,0,.2,0,.4.5.6.5,0,0,.1,1.5,0,2,0,0,0,.2,0,.2-.2.4-.5,1.2-.7,1.1-.3-.1-.7,0-1,0Z"/>
      </g>
      <path d="M300.3,187.1c-.4-.1-.9-.2-1.4-.2-.2,0-.3-.3-.5.3-.1.3-.2-.4-.4-.4-.4,0-.9,0-1.3,0-.4,0-.8.3-1.2.5-.4,0-.9,0-1.2.3-.3.3-.7,0-1,.1-.3.2-.6.4-1,.3-.3,0-.6-.2-.8,0-.1.1-.1.5-.3.5,0,0-.5,0-.6.7,0,0-.2,0-.3,0-.4-.2-.8,0-1,.6-.2.5-.5.6-.8.8-.7.5-1.5,1.2-2.2,1.7-.5.3-.8.3-1.3.5h0c0-.4-.3-.7-.2-1.6.2-1,.1-1.4,0-1.9,0-.3.2-.9-.4-.5,0,0,0,0,0-.2.3-.8.2-1.1,0-1.4-.2-.3-.5-.6-.4-1.1,0-.5,0-.9,0-1.3,0-.2-.1-.5-.2-.7,0-.1.1-.3-.3-.3-.2,0-.2-.2,0-.2.6-.4.1-.8.2-1.2,0-.4-.3-.8.1-1.3.2-.2.3-.5-.4-.6-.3,0,0-.3-.1-.5,0-.1-.4-.2-.4-.3,0-.1.2-.2.3-.4,0,0,0,0,0-.1-.7-.5,0-1.3-.2-1.9-.3-.6-.2-1.3-.2-1.9,0-.4.2-.7,1.3-1.1.5-.1,1.1-.2,1.4,0,.2,0,.5.2.6.3.1.2.3.4.4.5.2.4.8.7.6,1.1,0,.1.2.2-.3.4,0,0-.1,0,0,0,.8.5.4,1.1.5,1.6.1.5.8.8.6,1.3.7.2.6.5.4.8-.5,1,0,1.9,0,2.8,0,.2,0,.5,0,.7v.2s0,0,0,0c0,0,0,.2,0,.3,0,0,.3-.3,0,0-.2.3,0,.1,0,.2,0,0,.1-.1,0,.1-.2.4-.3.7-.2.7,0,0,.3-.3.4-.3,0,0,.2,0,.3-.1,0,0,.1,0,.2-.1,0,0,0,0,0,0h0s.1-.1.1-.1c.4-.3.8-.8,1.3-.9.2,0,.3-.4.7,0,.1.1.2-.4.3-.4.3-.2.7-.2,1-.3.5-.1,1-.2,1.4-.3.3,0,.6-.4.8-.5.3,0,.6-.1,1,0,.4,0,.8.2,1.2.3.4,0,.9-.2,1.2,0,.7.5,1.4.4,2.1.6.7.2,1.4.4,2.1.5.4,0,.6.7,1,.8.2,0-.2,1.5-.4,2,0,0-.1.2-.1.2-.5.3-1,.9-1.3.7-.5-.2-1-.3-1.5-.4Z"/>
      <path d="M296.5,202.4c-.1-.2-.2-.4-.4-.5,0,0,.1-.3-.4,0-.2.1.2-.3.2-.4-.2-.1-.2-.3-.4-.5-.2-.1-.5-.1-.6-.3-.2-.1,0-.5-.4-.4-.3,0,0-.4-.2-.4-.2,0-.4-.1-.3-.4,0-.2.2-.4,0-.4,0,0-.4.1-.4,0,0,0,.1-.3-.4,0,0,0,0,0,0-.1.3-.3.2-.4,0-.3-.3.1-.3,0-.3,0-.1-.1-.2-.2-.3-.4,0-.1,0-.4,0-.5,0-.1-.3,0-.2-.4.2-.3,0-.4,0-.5,0,0,.2-.3-.4,0,0,0,0,0,0,0,.6-.6-.4-.1-.4-.4,0-.3-.2-.4-.3-.5,0,0,0-.2-.3,0-.1,0-.2,0-.1,0,.4-.5,0-.4,0-.6,0-.2-.3-.2,0-.6.1-.2.2-.3-.4,0-.2.1,0-.1-.2-.1,0,0-.3.1-.4,0,0,0,.1-.2.2-.3,0,0,0,0,0,0-.7.2-.1-.5-.4-.6-.1,0-.2,0-.2,0,0,0,0,0,0-.1,0,0,.1-.2.7-1.2.2-.4.5-.9.7-1.2.2-.2.4-.3.5-.4.2,0,.3,0,.5,0,.3,0,.9-.1.9.2,0,.1.3,0,0,.3,0,0,0,0,0,0,.8-.3.5.2.7.4.2.1.8,0,.7.2.6-.3.6-.1.5,0-.3.7.3.8.4,1.1.2.4.5.6.7,1,0,0,.4-.1.2.1-.2.2,0,.2.1.2,0,0,.2,0,.1.2-.4.6.2.7.3,1,.1.3.3.6.6.7.2,0,.6,0,.6.3,0,0,.3,0-.1.4-.1.1.3,0,.3,0,.1,0,.2.2.2.3.1.1.2.3.3.4,0,0,.4,0,.5,0,.1,0,.2.2.2.3,0,.2,0,.4,0,.6,0,.2.4.1.2.4-.3.5.1.6.2.8.1.2.2.5.5.6.1,0-.2.5,0,.6,0,0-1.1,1-1.5,1.2,0,0-.2,0-.2.1-.5.1-1.1.5-1.2.3,0-.2-.3-.4-.4-.6Z"/>
      <path d="M294.4,159.5c0,.1.2.3.3.4,0,0-.1.2.3,0,.2-.1-.2.3-.2.3.1,0,.1.2.3.3.1,0,.4,0,.5.2.1,0,0,.4.3.3.3,0,0,.3,0,.3.2,0,.3,0,.2.3-.1.2-.3.3-.1.4,0,0,.4-.1.4,0,0,0-.2.2.4,0,0,0,0,0-.1.1-.3.3-.3.3,0,.2.3,0,.3,0,.3,0,0,0,.2.2.2.3,0,.1-.2.3-.2.4,0,.1.3,0,0,.3-.2.2-.2.3-.1.4,0,0-.2.2.4,0,0,0,0,0,0,0-.7.5.4.1.2.3-.1.2,0,.3.1.4,0,0-.1.1.3,0,.2,0,.2,0,0,0-.5.4-.1.3-.2.4,0,.2.3.2-.1.5-.2.1-.2.2.3,0,.3,0,0,0,.1.1,0,0,.3,0,.3,0,0,0-.2.1-.3.2,0,0,0,0,0,0,.7,0,0,.4.1.5.2.1.2.3.2.5,0,.1-.2.3-1.2.7-.5.2-1,.3-1.3.4-.2,0-.5,0-.5,0-.1,0-.2,0-.4,0-.2,0-.7,0-.5-.1,0,0-.2,0,.2-.2,0,0,0,0,0,0-.8.1-.3-.2-.5-.3,0,0-.7,0-.5-.2-.6.2-.5,0-.4,0,.5-.5,0-.5,0-.8,0-.3-.2-.4-.3-.7,0,0-.3,0-.1,0,.2-.2,0-.1,0-.2,0,0-.2,0,0-.1.5-.5,0-.5,0-.6,0-.2,0-.4-.3-.5-.1,0-.5,0-.4-.1,0,0-.3,0,.2-.3.1,0-.3,0-.3,0,0,0,0-.1-.1-.2,0,0,0-.2-.2-.3,0,0-.3,0-.4,0,0,0-.1,0-.1-.2,0-.1.1-.3.1-.4,0-.1-.3,0-.1-.3.3-.4,0-.4,0-.6,0-.2-.1-.3-.3-.4-.1,0,.2-.4.2-.5,0,0,1.1-1,1.5-1.3,0,0,.2-.1.2-.1.4-.2,1-.6,1.1-.5,0,.2.2.3.3.4Z"/>
      <path d="M286.5,162.9c0,.1.2.3.3.4,0,0-.1.2.3,0,.2-.1-.2.3-.2.3.1,0,.1.2.3.3.1,0,.4,0,.5.2.1,0,0,.4.3.3.3,0,0,.3,0,.3.2,0,.3,0,.2.3-.1.2-.3.3-.1.4,0,0,.4-.1.4,0,0,0-.2.2.4,0,0,0,0,0-.1.1-.3.3-.3.3,0,.2.3,0,.3,0,.3,0,0,0,.2.2.2.3,0,.1-.2.3-.2.4,0,.1.3,0,0,.3-.2.2-.2.3-.1.4,0,0-.2.2.4,0,0,0,0,0,0,0-.7.5.4.1.2.3-.1.2,0,.3.1.4,0,0-.1.1.3,0,.2,0,.2,0,0,0-.5.4-.1.3-.2.4,0,.2.3.2-.1.5-.2.1-.2.2.3,0,.3,0,0,0,.1.1,0,0,.3,0,.3,0,0,0-.2.1-.3.2,0,0,0,0,0,0,.7,0,0,.4.1.5.2.1.2.3.2.5,0,.1-.2.3-1.2.7-.5.2-1,.3-1.3.4-.2,0-.5,0-.5,0-.1,0-.2,0-.4,0-.2,0-.7,0-.5-.1,0,0-.2,0,.2-.2,0,0,0,0,0,0-.8.1-.3-.2-.5-.3,0,0-.7,0-.5-.2-.6.2-.5,0-.4,0,.5-.5,0-.5,0-.8,0-.3-.2-.4-.3-.7,0,0-.3,0-.1,0,.2-.2,0-.1,0-.2,0,0-.2,0,0-.1.5-.5,0-.5,0-.6,0-.2,0-.4-.3-.5-.1,0-.5,0-.4-.1,0,0-.3,0,.2-.3.1,0-.3,0-.3,0,0,0,0-.1-.1-.2,0,0,0-.2-.2-.3,0,0-.3,0-.4,0,0,0-.1,0-.1-.2,0-.1.1-.3.1-.4,0-.1-.3,0-.1-.3.3-.4,0-.4,0-.6,0-.2-.1-.3-.3-.4-.1,0,.2-.4.2-.5,0,0,1.1-1,1.5-1.3,0,0,.2-.1.2-.1.4-.2,1-.6,1.1-.5,0,.2.2.3.3.4Z"/>
    </g>
    <path d="M308.2,164.5c0-.6.2-1.1.3-1.7,0-.2.3-.4-.1-.8-.2-.2.4-.2.5-.4.1-.6.4-1.1.7-1.6.2-.5.4-1.2.8-1.7.4-.5,1.1-.7,1.4-1.4.3-.6,1-.4,1.5-.7.5-.3,1.1-.5,1.6-.4.4.1.7.3,1.1.2.2,0,.4-.4.6-.4.2,0,.4.3.7-.3,0,0,.1,0,.2.2.2.4.5.4.7.2.2-.2.4-.2.6-.2.5,0,1.1.2,1.6.5.4.2.7.6,1.1.9.4.3,1,.4,1.1,1,0,.5.3.9.5,1.2.1.2,0,.6.6.5,0,0,0,0,0,.1-.3.5-.1.7,0,1,.2.3.5.6.4.9-.2.7,0,1.3,0,1.9,0,.2-.2.3.2.5.2,0,.1.2,0,.3-.7.3-.4.8-.6,1.2-.2.4,0,.9-.7,1.2-.3.1-.4.3,0,.7.2.2-.1.3-.1.5,0,.1.2.4.2.5,0,.1-.3.1-.4.2,0,0,0,0,0,.1.2.4,0,.8-.3,1.1-.3.3-.6.6-.8.9-.3.8-1.1,1.5-2.2,2-.6.2-1.3.2-1.8-1-.2-.5-.2-1.1,0-1.4,0-.2,0-.5.2-.5,0-.1.1-.3.2-.4,0-.3-.2-.7.2-.7.1,0,0-.3.4,0,0,0,.1,0,0,0-.4-.8.2-.8.3-1.3.1-.4-.3-1,0-1.3-.5-.4-.3-.6,0-.8.9-.6.6-1.6.8-2.2.2-.7,0-1.4,0-1.8,0,0-.4,0-.2-.2.2-.2,0-.2,0-.2,0,0-.2,0-.1-.2.1-.3,0-.5-.2-.6-.2,0-.4-.1-.7-.2-.5-.2-1.1-.3-1.7-.2-.4,0-.7.5-1,.4-.1,0-.2.3-.4-.2,0-.2,0,.3-.1.4-.2.1-.3.1-.4.2-.2.1-.4.2-.6.4,0,.1,0,.4,0,.6,0,.2-.1.3-.3.4-.2.1-.5.2-.6.5-.2.2,0,.6-.3.7-.6.3-.5.9-.6,1.5-.1.5-.2,1.1-.1,1.7,0,.3-.5.6-.5,1,0,.2-1.5.3-2,.3,0,0-.2,0-.2,0-.5-.4-1.2-.7-1.1-1.1,0-.6,0-1.2.1-1.9Z"/>
    <path d="M289.3,208.9c-2.1.5-4.3.7-6.4.9-.8,0-1.6-.1-2.4.4-.4.3-1.2-.3-1.9-.3-2,0-4.1-.2-6.3-.8-2-.5-4-1.4-5.8-2.6-.4-.3-.7-.6-1.1-.9l-.8-.8-.7-.8c-.4-.6-.8-1.1-1.2-1.7l-.6-.8-.3-.4-.2-.4c.4-.2.8-.5,1.1-.7.6-.4,1.3-.8,1.9-1.2.3-.2.6-.4.8-.6.1,0,.2-.2.4-.3.5-.3.9-.7,1.2-1.3.6-1.1,1.1-2.4,1.7-3.6.4-.9.8-1.8.8-2.8,0-.6-.3-1.2-.3-1.9,0-.6.2-1.4-.5-1.8,0,0,0-.3,0-.5.3-.7,0-1.6-.3-2.1-.4-.5-.5-1-.7-1.5-.5-1.4-1-2.8-1.6-4.2-.4-1.1-.6-2.2-1.1-3.3-.4-1.1-1.2-2.2-1.4-3.4-.2-1.2-.6-2.2-1-3.3-.2-.6-.2-1.4-1-1.8,0,0-.1-.3-.1-.4.2-2.1-1.3-3.7-1.3-5.8,0-2.1-.1-4.3.3-6.4.1-.6.4-1.1.1-1.7-.1-.2,0-.8.3-1.1,1.1-1.3,1.4-2.9,2.3-4.3,1-1.5,1.9-3.2,3.5-4.2.7-.4,1.5-1.1,1.8-2.1.2-.5,1-.8,1.6-1.3.4-.3.7-.9,1.2-1.2.4-.3.9-.3,1.4-.4.1,0,.3-.1.4-.2,1.1-.9,2.5-1.3,3.8-1.5,1.4-.2,2.8-.2,4.1-.4,2.8-.3,5.6.3,8.2,1.5,1.4.7,2.7,1.7,2.8,3.2,0,.7-.3,1.1-1,1-.5,0-1-.1-1.4-.3-.7-.3-1.4-.5-2-.7-1.4-.4-2.9-.2-4.3-.6-.4-.2-1,.1-1.4-.4,0,0-.2-.1-.3,0-1,.4-1.9.6-2.9.7-1,.2-2,.3-2.9.7-1.6.7-2.6,2.1-4.1,2.9-.3,1.1-1.1,1.7-1.9,2.3-2.8,2-4.1,5.4-4.9,8.6-.8,3.2-.4,6.7.6,10.1.2.6.7,1,.7,1.7,0,.7.5,1.5.8,2.2.3.7.7,1.3.8,2,.6,2.9,2.2,5.5,3.2,8.4,1,2.9,1.8,5.9,2.2,9.1.2,1.9.4,4-.2,6-.3.8-.3,1.9-1.2,2.4-.2.2-.2,1.1-.5,1.6-.7,1.3-1.6,2.4-2.7,3.4l-.3.3h0s-.1.1-.1.1c0,0-.1,0-.2.1h0s0,0,0,0c0,0,0,0,0,0,0,0,.1.1.2.2,0,0,0,0,.1,0,0,0,0,0,0,0l.3.2,1.1.7c.8.5,1.6.9,2.4,1.3,1,.5,2.1,1,3.3,1.2,1.3.2,2.6,0,4,.2,2.5.4,5,0,7.4-.4,2.4-.4,4.7-1,6.7-2.2,1.1-.7,2.4-.9,3.3-1.8.4-.4,2.1,0,2.3.5,0,.1,0,.3,0,.4-.6,1.4-1.3,2.9-2.9,3.8-2.3,1.3-4.7,2.1-7.1,2.7Z"/>
    <path d="M319.7,182.2c.4.9.9,1.7,1.5,2.5.6.7,1.2,1.3,2,1.7.6.3,1.2.9,2.1.6.4-.1.9.7,1.5.8.9.1,1.8.2,2.7.2.9,0,1.8-.2,2.7-.4,1.7-.5,3.4-1.4,4.9-2.4,1.6-.9,3.3-1.8,4.4-3.2.2-.3.5-.6.8-.8l.4-.4.2-.2h.1c0,0,0-.1,0-.1.4.4-1-1,1,1h0s0,0,0,0h0c0,0-.1-.2-.1-.2l-.3-.3-.5-.4h0s0,0,.1,0c0,0,.1-.1.2-.2.1-.1.2-.3.4-.4.2-.3.5-.6.7-.9h0c0-.1,0-.2,0-.2h0c0-.1,0-.1,0-.2,0,0,0,0,0-.1,0,0,.1-.2.4-.3h0c0-.1,0-.2-.2-.3-.1,0-.2,0-.4,0,0,0-.2,0-.3,0,0,0-.1,0-.2,0h-.3c-.4,0-.8,0-1.3-.2-.8-.3-1.6-.9-2.5-.6,0,0-.4-.3-.5-.4-.6-.8-1.6-1.3-2.4-1.6-.8-.2-1.3-.7-1.8-1.2-1.5-1.3-2.8-2.9-3.7-4.6-.7-1.3-1.1-2.6-1.6-3.9-.5-1.3-1.3-2.6-1.4-3.9-.1-1.3-.5-2.4-.9-3.6-.2-.7-.2-1.5-1-1.9,0,0-.1-.3-.1-.4.2-2.1-1.4-3.6-1.9-5.4-.5-1.9-1.4-3.7-2.3-5.5-.2-.5-.3-1-1-1.2-.2,0-.5-.5-.5-.8-.2-1.6-1.4-2.6-2.2-3.7-1-1.3-2.3-2.2-3.4-3.5-.4-.6-1.2-1.2-2.2-1-.4,0-1-.5-1.6-.6-.5-.1-1,0-1.4,0-.4,0-.7-.4-1.1-.6-.1,0-.3,0-.4,0-1.2.2-2.2.1-3.3.1-1.1,0-2.2.1-3.2.7-2,1.1-3.7,2.5-5.1,4.3-.8,1-1.5,2-2.9,2.5-.6.2-1.2,0-1.2-.7,0-.5,0-1.1.2-1.7.3-.8.7-1.7,1.1-2.5.9-1.6,1.9-3.4,3.7-4.3.5-.3,1-.9,1.7-.7,0,0,.3,0,.4-.1,1-.9,2.3-1.5,3.6-1.7,1.4-.3,2.7-.2,4-.2,2.2,0,4.6,0,6.6,1.2,1.4,0,2.8.8,3.7,1.7,3.3,3.2,6.2,6.4,8.1,10.3,1.9,3.9,3.4,7.8,4.6,11.7.2.7.7,1.1.7,2,0,.8.5,1.7.8,2.5.3.8.7,1.5.8,2.3.4,3.1,2,5.9,3.7,8.1,1.7,2.3,4.1,4,6.9,4.8.6.2,1.1.3,1.8.3.5,0,1,.2,1.6.2.6,0,1.3,0,1.9,0v.7c.1.2.1.5.2.6v.4c0,.1.1.3.1.3v.3c0,.2,0,.7-.2,1.3,0,0,0,.1,0,.2,0,0,.1.1.2.2.1,0,.3.1.4.2.2,0,.3.2.5.2.1,0,0,0,0,.2v.2c-.2.2-.3.5-.5.7l-1.7,2.5-.6.8-.3.5h0c0,.1-.2.3-.2.3-.1.1-.2.2-.2.3-1.4,1.4-3,2.7-4.6,3.9-1,.7-1.9,1.6-3,2.2-1.1.7-2.3,1.2-3.6,1.6-1.6.5-3.3.6-5.1.7-1.8,0-3.7.1-5.3-.6-.7-.4-1.5-.7-2.1-1.1-.7-.4-1.3-.7-2.1-1.3-1.4-1-2.4-2.3-3.2-3.6-1.6-2.7-2.4-5.5-2.8-8.6-.2-1.8.4-3.4,1-5.1.1-.4.7-.7,1.2-.8.5,0,1,0,1.2.3,0,0,.1.2,0,.4-.2,1.4.3,2.6.2,4,0,2.2.6,4.4,1.5,6.5Z"/>
    <path d="M289.5,146.2c.2.4.4.9.7,1.3.1.2,0,.4.5.3.3,0-.2.4,0,.6.3.4.4.8.7,1.2.3.3.7.6,1,.9.3.3.3.9.8,1,.4.1.2.7.5.9.3.2.6.4.7.9,0,.3,0,.6.3.8.2,0,.5,0,.6.1,0,.1,0,.4.6.1,0,0,0,.1,0,.2-.2.4,0,.5.3.5.3,0,.4,0,.5,0,.3.2.5.5.8.7.2.2.2.6.4.8.2.2.6.2.6.6,0,.4.2.5.4.7.1,0,0,.4.6,0,0,0,0,0,0,0-.1.9.8.3,1.1.7.3.4.7.5,1.1.7.1,0,.1.3.4,0,.1-.1.2,0,.2,0,0,.7.5.5.7.8.3.3.8.2.9.8,0,.3.2.5.6,0,.2-.2.3.1.4.1.1,0,.3-.2.4-.2,0,0,0,.3.1.4,0,0,0,0,0,0,.8-.4,1,.6,1.6.6.6,0,1.1.2,1.6.5.3.1.6.4.5,1.6,0,.5-.1,1.1-.3,1.4-.2.2-.3.4-.5.4-.2,0-.4.1-.7.2-.4,0-1,.5-1.3,0-.1-.1-.3.1-.3-.4,0,0,0-.1,0,0-.8.6-1.2-.1-1.7-.3-.5-.1-1.2.3-1.5-.2-.5.5-.8.2-.9,0-.6-1-1.7-1.1-2.5-1.7-.8-.6-1.7-1.1-2.5-1.7-.1-.1-.5,0-.5-.3,0-.3-.3-.3-.5-.4-.2-.1-.4-.2-.5-.4-.2-1-1-1.2-1.6-1.8-.5-.6-1-1.2-1.7-1.6-.4-.3-1-.4-1.2-.9,0-.2-.5-.1-.2-.7,0-.1-.4,0-.5-.1-.2-.2-.4-.5-.6-.8-.3-.4-.5-.8-.8-1.1-.2-.2-.5-.3-.7-.5-.2-.2-.4-.5-.5-.7-.1-.3-.1-.8-.3-1.1-.1-.3-.6-.5-.5-1,.1-.8-.4-1.3-.7-1.9-.3-.6-.5-1.2-.9-1.7-.2-.3,0-.8,0-1.1,0-.1,1.1-1,1.6-1.2,0,0,.2,0,.2,0,.6,0,1.4,0,1.5.4.2.5.5,1,.8,1.5Z"/>
  </g>
</svg>