<?xml version="1.0" encoding="UTF-8"?>
<svg id="ARTWORK" xmlns="http://www.w3.org/2000/svg" width="600" height="600" viewBox="0 0 600 600">
  <g>
    <path d="M252.1,429.8c-2.9.6-5.9.5-8.7-.3-.3,0-.7-.2-.8-.5-.1-.3,0-.6.2-.9,1.8-3.8,3.6-7.6,5.4-11.4.6-1.2,1.2-2.5,2.1-3.5,0,5.7,0,11.3,0,17" fill="#aaca60"/>
    <path d="M248.4,426.2v-1.1s0-.5,0-.5v-.3c0,0,0,0,0-.1,0,0,.2-.3-.3-.1-.3.1.4-.2.3-.3,0-.1,0-.4,0-.6,0-.1-.3.1-.3.2,0,0,0-.2,0-.3,0-.1,0-.2-.1.2-.1.4,0,.2,0,0,0-.3.2-.6.1-.5-.1.3-.2.6,0-.4.2-.8.3-1.5.1-1,0,.3-.3,1.5-.3,1.5,0,0,.1-.9-.2,1.2,0,.2,0-.2,0-.5.2-1.3.1-1.1,0-.3,0,.3,0,.5,0,.8,0,.1,0,.2,0,0,0-.1,0-.6,0-.6,0,0,0,.5-.1,0-.2-.4-.2-.2-.3-.1,0,0-.3,0,.2.5,0,0,0,0,0,0-.3-.3-.4,0-.3,0,0,.3,0,.7-.2,1-.5.5-.6,1.2-.9,1.8,0,0-.1.1-.1.2,0,0,0,.2.2.3.1,0,.2,0,0,0-.3,0-.4,0-.4,0,0,0,0,0,0,.1-.2.1.1,0-.3.5-.2.2,0,.3.5-.2.2-.2,0,0,.1,0,0,0,.2-.3.2-.3,0,0,0,.2,0,.3,0,0,0,0,0,0,.7-.6,1.4.4,2.1.2.8-.2,1.5-.1,2.3-.2.4,0,.9.1,1.4,1.2.2.5.4,1,.2,1.4-.1.3-.2.5-.4.6-.3.1-.5.3-.8.5-.6.3-1.1.9-1.8.6-.2,0-.4.2-.6-.3,0,0-.1-.1-.1,0-.8.8-1.7.2-2.5.2-.3,0-.9,0-1.5,0-.6,0-1.3,0-1.7-.4-.5.2-.9,0-1.2,0-.3-.1-.5-.4-.6-.7-.2-.4-.4-1-.4-1.5,0-.5,0-.9.1-1.4,0-.5.4-1.1.6-1.6l.4-.8.2-.4v-.2c.4-.6.7-1.2,1-1.8l.4-.9.7-1.5c.2-.3,0-1,.5-1.2.4-.2.5-.9.7-1.4.2-.4.4-1.1.6-1.3.5-.3.9-1,1.3-1.7.4-.7.7-1.5,1.1-1.9.7-.8,1.2-1.5,1.9-2.7l.8-1.4c.1-.2.3-.5.4-.7,0,0,.1-.2.2-.3h.1c0-.1,0,0,0,0,0,.4.3,0,0,1.5,0,.4.2-.3.3-.1.1.3.2.9.3,1.3.1.6.2,1.4.3,1.9,0,.2.2.2.3.2,0,0,.1,0,.2,0,0,0,.1,0,.1.2,0,.6,0,1.4,0,2.2,0,1.1-.3,2.3-.3,3.2,0,.9.2,1.7,0,2.8-.3.9-.3,1.7-.3,2.4,0,.4,0,.9,0,1.3,0,.9,0,1.8,0,2.7,0,.5-.4,1-.4,1.5,0,.2-1.5.5-2,.4,0,0-.2,0-.2,0-.5-.5-1.2-.9-1.1-1.5,0-.8,0-1.6,0-2.4Z" fill="#aaca60"/>
  </g>
  <g>
    <path d="M403.4,219.5c6.6-4.6,10.1-5.3,16.9-.6,9.6,6.6,14.5,12.8,16.4,24.5,4.1,24.8,8.5,50.2,11.7,75.4,1.6,12.8,2.9,25.6,3.8,38.4.8,12.1,1.9,24.3-3,35.8-4.7,11.2-14.7,19.7-25.8,24.8-11.1,5.1-23.3,7.1-35.5,8.3-11.8,1.2-23.6,1.7-35.5,2.2-15,.7-30.1,1.3-45,.4-.1-7.4-.3-14.9-.4-22.3,32-.5,63.8-11.5,89.3-31,3.8-2.9,7.4-5.9,10.2-9.8,2.5-3.4,4.2-7.3,5.5-11.3,6-18.4,3.5-38.4.3-57.5-2.8-16.2-6.1-32.4-11-48.1-1.2-3.9-2.5-8.4-.5-11.9" fill="#aaca60"/>
    <path d="M413.2,291.2c1.8,9.9,3.4,19.9,4.1,30,.2,3.8.1,7.6.5,11.6.1,1,0,2.4-.3,4-.3,1.6-.6,3.4-.8,5.1-.6,4.8-1.7,9.5-3.3,14-1.6,4.6-3.8,9.1-7.1,12.9-3.1,3.7-6.8,6.6-10.5,9.4l-2.8,2.1c-.9.7-1.9,1.3-2.8,2-1,.7-1.9,1.3-2.9,2l-2.9,1.8c-7.8,4.8-16.4,8.7-24.6,12.2-7,3-13.8,4.5-20.9,6.3-7.5,1.9-15.5,3.2-23.1,3.5-1.4,0-2.8.2-4.1.1h-2.1s-.6,0-.6,0c-.3,0-.2.2-.2.4v.3s0,.9,0,.9c0,1.4,0,2.7.1,4.1.1,3.4.5,6.5.6,10.2,0,.4,0,.9,0,1.3v.7s0,.1,0,.1h0s0,0,0,0v.2s0,0,0,.1h.2c.1,0,.2,0,.4,0h.2s0,0,0,0h.2s.3,0,.3,0c.8,0,1.6,0,2.4-.2.2,0,1.8.1,2.5.2,3.7.5,8.2.5,11.2.2,3-.3,5.6-.3,8.4-.4,7.7-.3,15.4-.6,23-.9,5.8-.2,11.5-.3,17.2-.6,6-.3,12.3-1.2,17.8-1.6,5.5-.4,10.7-1.3,15.9-2.6,2.9-.7,6.4-1.5,8.5-3,.2-.1,1.3-.5,1.7-.7,4.1-1.2,7.9-3.2,11.4-5.7,3.4-2.5,6.5-5.4,9.4-8.5,3-3.2,5.4-7,7.1-11.1,1.7-4.1,2.6-8.6,2.9-13.1.2-2.4.5-5,0-7.2-.2-.8-.2-3.4-.2-4.6.2-3.4,0-7-.3-10.5-.3-3.6-.6-7.1-.8-10.6-.6-8-1.7-16.1-2.3-24.2-.2-3.4-.7-8.1-1.9-12.1-.5-1.8-.8-5.8-1.3-8.7-.4-2.4-1-4.7-1.4-7.1-.3-2-.4-4.1-.6-6.2,0-.6-.2-1.4-.3-2-2.5-11.6-3.6-23.3-5.7-35-.3-1.5-.5-3-.8-4.4l-.4-2.2c-.1-.7-.3-1.4-.4-2.1-.6-2.8-1.5-5.5-2.8-7.9-1.3-2.5-2.9-4.7-4.9-6.7-2-2-4.2-3.8-6.6-5.5-2.6-1.9-5.2-3.4-7.6-3.5-2.4-.2-5,1-7.1,1.7-1.9.7-2.3.2,0-1.6.8-.7,1.8-1.3,2.8-1.9,1.1-.6,2.3-1,3.6-1.2,2.1-.3,4.3.3,6.1,1.1,1.8.8,3.5,1.9,5,2.9,3.2,2.2,6.4,4.6,9.1,7.7,1.3,1.6,2.5,3.3,3.5,5.1,1,1.8,1.7,3.8,2.2,5.8.7,2.5,1.5,5.5,1.3,7.5,0,.3.1,1.3.2,1.8,2.5,10.3,3.8,21.2,5.6,31.9,1.5,9,3.5,17.7,4.5,26.9,1.3,4.9,2,10.9,2.5,16.1.8,9.1,1.6,18.1,2.4,27.2.4,4.6.7,9.1,1,13.6.3,4.6.5,9.2.2,13.8-.1,2.4-.4,4.7-.8,7.1-.4,2.4-1,4.7-1.7,7-.3,1.2-.8,2.3-1.3,3.4-.5,1.1-1,2.2-1.6,3.3-1.1,2.1-2.5,4.2-3.9,6.1-5.9,7.7-14,13.3-22.7,17.1-3,1.3-5.5,2.6-9.2,3.4-3.5.8-7.8,2-11.9,2.7-3.7.7-7.5,1.3-11,1.5-14.5,1-29,1.9-43.5,2.4-7.2.3-14.4.5-21.7.5-3.6,0-7.2,0-10.9,0h-2.7c0,0-1.4-.1-1.4-.1h-1.7c0,0-2.2-.2-2.2-.2h-1.1c0,0-.2,0-.2,0v-.3s0-.6,0-.6v-4.1c-.3-4.4-.4-8.7-.6-13.1v-3.3c-.1,0-.2-2.9-.2-2.9v-1.5s0-.4,0-.4h0c0,0,0,0,0-.1h.2s.7,0,.7,0c1.7,0,3.3-.1,5-.2,1.1,0,2.2,0,3.3-.1,1.8-.1,3.7-.3,5.6-.5,1.9-.2,3.8-.4,5.6-.3.5,0,1.6-.2,2.9-.5,1.3-.3,2.7-.6,3.9-.9,5.8-1.1,11.6-2.6,17.3-4.4,7.9-2.5,15.6-5.6,22.9-9.3,4.5-2.3,8.6-5,12.9-7.7,1.1-.7,2.2-1.5,3.3-2.2l1.6-1.1,1.6-1.2,3.2-2.3c1.1-.8,2.1-1.6,3.1-2.4,2.5-2.1,4.9-4.2,6.8-6.7,1.9-2.5,3.4-5.3,4.5-8.3,1.2-3.1,2.1-6.5,2.7-9.9.7-3.4,1-6.8,1.4-10,.7-6.1.6-12.2,0-18.4-.5-6.1-1.5-12.2-2.5-18.4-2-12.2-4.3-24.4-7.4-36.2-.9-3.4-1.7-6.6-2.5-9.8-.4-1.6-.8-3.2-1.3-4.8-.5-1.6-.9-3.3-1.2-5.2-.3-1.7.2-3.9,1.1-5.1.4-.6.9-1,1.2-1.1.3-.1.5,0,.4.3,0,.2-.1.7-.2,1.2-.3,1.5-.2,3,.1,4.5.3,1.5.9,3,1.5,4.5,1.2,3.1,2.4,6.4,3.4,10.2,3,11.1,5.3,22.3,7.3,33.5Z" fill="#aaca60"/>
  </g>
  <path d="M253.7,240c.2.5.3,1,.5,1.4,0,.2,0,.4.5.4.3,0-.3.4-.2.5.2.4.3.9.5,1.3.2.4.6.8.8,1.2.2.4,0,.9.5,1.2.4.3,0,.8.3,1.1.2.3.5.7.4,1.1,0,.3-.2.6,0,.9.1.1.5.2.5.4,0,.2-.1.4.5.4,0,0,0,.1,0,.2-.3.3-.2.5,0,.6.3,0,.3.2.4.3.2.4.3.7.4,1.1,0,.3,0,.6,0,.9,0,.3.4.5.2.9-.2.4,0,.6,0,.9,0,.1-.2.4.5.3,0,0,0,0,0,0-.6.7.5.7.5,1.2,0,.5.3.9.4,1.3,0,.1,0,.3.4.3.2,0,.2.1.1.2-.5.5,0,.8,0,1.1,0,.4.4.7.1,1.3-.1.2-.2.5.5.5.3,0,0,.3.2.4,0,0,.4.1.4.2,0,0-.1.3-.2.4,0,0,0,0,0,0,.8.3.2,1.2.6,1.7.4.5.5,1.1.6,1.7,0,.3,0,.7-1,1.3-.5.3-1,.5-1.3.4-.3,0-.5,0-.6-.1-.2-.1-.3-.3-.5-.4-.3-.3-.9-.5-.8-.9,0-.1-.3-.2.2-.5,0,0,0,0,0-.1-.9-.2-.6-.9-.9-1.4-.2-.4-.9-.6-.8-1.2-.7,0-.7-.3-.6-.7.3-1.1-.4-1.8-.6-2.7-.2-.9-.6-1.7-.9-2.6,0-.2-.4-.2-.2-.4.2-.3,0-.4-.2-.6,0-.2-.3-.3-.2-.5.4-.9-.2-1.5-.4-2.2-.2-.7-.4-1.4-.8-2-.2-.4-.7-.7-.7-1.1,0-.2-.4-.3,0-.6.1-.1-.3-.1-.4-.2-.2-.3-.2-.6-.3-.8-.1-.4-.2-.8-.4-1.2-.1-.2-.4-.4-.6-.6-.1-.2-.2-.5-.3-.8,0-.3,0-.7,0-1.1,0-.4-.4-.6-.3-1,.3-.8-.2-1.3-.3-1.9-.2-.6-.3-1.2-.7-1.8-.2-.3.2-.8,0-1.1,0-.2,1.3-.9,1.8-1,0,0,.2,0,.2,0,.6.2,1.3.2,1.4.6.1.6.4,1.1.6,1.6Z"/>
  <path d="M257.1,226c-.1.3-.2.5-.3.8,0,.1-.3.1.2.4.2.1-.4,0-.4.1,0,.3-.2.5-.2.7,0,.3,0,.6,0,.8,0,.2-.4.4-.2.7.2.3-.3.3-.3.5,0,.2,0,.5-.2.6-.2,0-.5.1-.4.3,0,.1.3.3.2.4,0,0-.3,0,.2.4,0,0,0,0-.2,0-.4,0-.4,0-.2.3.2.2.2.2.2.3,0,.2,0,.4-.2.6,0,.1-.4.2-.5.3-.1.1,0,.4-.2.4-.3,0-.4.2-.4.3,0,0-.3,0,.2.4,0,0,0,0,0,0-.9,0,0,.5-.2.7-.3.2-.2.5-.3.7,0,0-.2,0,.2.3.1,0,.1.1,0,.1-.7,0-.4.3-.5.4-.2.2,0,.5-.5.5-.2,0-.4.1.1.4.2.1,0,.1,0,.2,0,0,.3.2.3.3,0,0-.3,0-.4,0,0,0,0,0,0,0,.5.5-.4.5-.3.9,0,.4-.1.7-.3.9-.1.2-.3.3-1.5,0-.5-.1-1-.3-1.3-.4-.2-.1-.4-.3-.4-.3,0-.1-.1-.3-.2-.4-.1-.3-.6-.6-.2-.7.1,0-.2-.2.3-.1,0,0,.1,0,0,0-.7-.5,0-.6,0-.9,0-.3-.5-.7-.1-.8-.6-.3-.4-.5-.2-.5.8-.3.5-.9.8-1.3.3-.4.3-1,.5-1.4,0,0-.3-.3,0-.3.3,0,.1-.2.2-.3,0,0,0-.2.1-.3.8-.1.5-.7.7-1,.2-.3.4-.7.4-1.1,0-.3-.3-.6,0-.8,0,0-.2-.3.4-.2.2,0-.2-.2-.2-.3,0-.2.1-.3.2-.5,0-.2.2-.4.2-.7,0-.1-.2-.4-.2-.5,0-.2,0-.3.2-.4.1-.1.4-.2.5-.4.1-.2,0-.4.3-.5.6-.1.5-.5.7-.8.2-.3.3-.6.4-1,0-.2.5-.2.6-.4,0,0,1.4.4,1.9.6,0,0,.2,0,.2.1.4.3,1,.8.9.9-.2.3-.2.6-.4.9Z"/>
  <path d="M252.8,212.3c0,.2.1.4.3.6,0,0-.2.2.4.1.3,0-.3.2-.3.3.1.2.1.4.2.6.1.2.4.3.5.5.1.2,0,.5.3.5.3,0-.1.4,0,.5.2.1.3.3.1.5-.1.2-.3.4-.1.4,0,0,.4,0,.4,0,0,0-.2.2.4.1,0,0,0,0-.1.1-.4.2-.3.3,0,.3.3,0,.3,0,.3,0,0,.2.2.3.2.5,0,.1-.2.3-.2.5,0,.1.3.2,0,.4-.3.2-.2.3-.2.4,0,0-.2.2.4,0,0,0,0,0,0,0-.7.4.4.3.2.5-.1.3,0,.4.2.6,0,0-.1.2.3,0,.2,0,.2,0,0,0-.6.3-.1.4-.2.6,0,.2.3.3-.1.6-.2.1-.2.3.3.2.3,0,0,.1.1.2,0,0,.3,0,.4,0,0,0-.2.2-.3.2,0,0,0,0,0,0,.7,0,0,.6.2.8.3.2.3.5.2.8,0,.2-.1.4-1.2.8-.5.2-1,.3-1.3.4-.2,0-.5,0-.5,0-.1,0-.3,0-.4-.1-.2-.1-.8-.1-.6-.4,0,0-.2,0,.2-.2,0,0,0,0,0,0-.8,0-.4-.4-.5-.6-.1-.2-.8-.2-.6-.5-.6,0-.6,0-.4-.2.5-.6,0-.8,0-1.2,0-.4-.2-.8-.3-1.2,0,0-.4,0-.1-.2.2-.2,0-.2,0-.3,0,0-.2-.1,0-.2.5-.5,0-.7,0-1,0-.3,0-.6-.3-.9-.2-.1-.5-.2-.5-.4,0,0-.3,0,.2-.3.2,0-.3,0-.3,0,0-.1-.1-.2-.1-.4,0-.2,0-.4-.2-.5,0,0-.3-.1-.4-.2,0,0-.1-.2-.1-.3,0-.2.2-.4.2-.5,0-.2-.3-.2,0-.5.4-.4,0-.6,0-.9,0-.3,0-.5-.3-.8-.1-.1.3-.4.2-.6,0,0,1.3-.7,1.8-.8,0,0,.2,0,.2,0,.5,0,1.2-.1,1.2,0,0,.3.2.5.2.7Z"/>
  <path d="M239.2,212.8c.2,0,.4-.1.6-.2,0,0,.2.2.1-.4,0-.3.2.3.3.3.2-.1.4-.1.5-.2.2-.1.3-.4.4-.5.2-.1.4.1.5-.3,0-.3.3.1.5,0,.1-.2.2-.3.5-.1.2.1.3.3.4.2,0,0,0-.4.1-.4,0,0,.2.2.1-.4,0,0,0,0,0,.1.2.4.3.3.3,0,0-.3,0-.3.1-.3.1,0,.3-.1.5-.1.1,0,.3.2.4.3.1,0,.2-.3.4,0,.2.3.3.2.4.2,0,0,.2.3.1-.4,0,0,0,0,0,0,.3.8.3-.3.5-.2.2.2.4,0,.6,0,0,0,.1.2.1-.3,0-.2,0-.2,0,0,.2.6.3.2.5.3.2,0,.3-.2.5.2.1.2.2.3.2-.3,0-.3.1,0,.2,0,0,0,0-.3.1-.3,0,0,.1.2.2.3,0,0,0,0,0,0,.2-.7.5.2.7,0,.2-.2.5-.2.7,0,.1,0,.3.2.5,1.3,0,.5.1,1.1.1,1.4,0,.2,0,.5,0,.5,0,.1-.1.2-.2.3-.1.2-.2.7-.4.5,0,0,0,.2-.2-.3,0,0,0-.1,0,0-.1.8-.4.3-.6.4-.2,0-.2.7-.4.5,0,.6-.1.5-.2.4-.4-.6-.7-.1-1-.1-.3,0-.7.1-1,.2,0,0,0,.4-.2.1-.1-.2-.2,0-.2,0,0,0-.1.2-.2,0-.4-.6-.6-.1-.9-.1-.3,0-.5,0-.8.2-.1.1-.2.5-.4.4,0,0,0,.3-.3-.2,0-.2,0,.3,0,.3,0,0-.2,0-.3.1-.1,0-.3,0-.4.2,0,0,0,.3-.2.4,0,0-.2.1-.3,0-.1,0-.3-.2-.5-.2-.1,0-.2.3-.4,0-.4-.4-.5,0-.8,0-.2,0-.5,0-.6.3,0,.1-.4-.3-.5-.3,0,0-.7-1.3-.9-1.8,0,0,0-.2,0-.2,0-.5-.2-1.2,0-1.2.2,0,.4-.2.7-.2Z"/>
  <path d="M238.5,223.7c0-.1,0-.2,0-.4,0,0,.2-.1-.3-.1-.3,0,.4-.1.3-.1,0-.1,0-.2,0-.4,0-.1-.3-.2-.4-.3,0-.1.2-.3-.2-.3-.3,0,.2-.2,0-.3-.1,0-.2-.2,0-.3.1-.1.3-.3.2-.3,0,0-.4,0-.4,0,0,0,.3-.2-.4,0,0,0,0,0,.1,0,.4-.2.3-.2,0-.2-.3,0-.3,0-.3,0,0-.1-.1-.2,0-.3,0-.1.2-.3.3-.4,0-.1-.3-.1,0-.3.3-.2.2-.2.2-.3,0,0,.3-.2-.4,0,0,0,0,0,0,0,.8-.3-.3-.2-.2-.4.2-.2,0-.3,0-.5,0,0,.2-.1-.3,0-.2,0-.2,0,0,0,.6-.2.2-.3.3-.4,0-.2-.2-.3.2-.5.2,0,.3-.2-.3-.2-.3,0,0-.1,0-.2,0,0-.3,0-.3,0,0,0,.2-.1.3-.2,0,0,0,0,0,0-.7-.2.2-.5,0-.7-.2-.2-.1-.5,0-.7,0-.1.2-.3,1.4-.3.5,0,1.1,0,1.4.1.2,0,.5,0,.5.1,0,0,.2.1.3.2.2.1.7.2.4.3,0,0,.2,0-.3.1,0,0-.1,0,0,0,.8,0,.3.2.4.4,0,.1.7.1.4.3.6,0,.5,0,.4.2-.6.3-.1.5-.2.8,0,.3.1.5.1.8,0,0,.4,0,.1.1-.2.1,0,.1,0,.2,0,0,.2,0,0,.2-.6.4-.1.5-.1.7,0,.2,0,.5.2.7.1.1.5.2.4.3,0,0,.3,0-.3.3-.2,0,.3,0,.3,0,0,0,0,.2,0,.3,0,.1,0,.3.1.4,0,0,.3.1.4.2,0,0,0,.2,0,.3,0,.1-.2.3-.3.4,0,.1.2.2,0,.4-.5.3-.2.5-.3.7,0,.2,0,.5,0,.7,0,.1-.4.2-.4.4,0,0-1.5,0-2,0,0,0-.2,0-.2,0-.5-.1-1.2-.2-1.1-.3,0-.1,0-.3,0-.4Z"/>
  <path d="M227.5,238.2c0-.4,0-.7,0-1.1,0-.1.3-.3-.3-.5-.3,0,.4-.2.4-.3,0-.4.1-.7.1-1.1,0-.4-.1-.8-.1-1.1,0-.4.4-.7.2-1.1-.1-.4.4-.5.4-.8,0-.3,0-.7.4-.8.3-.1.6-.2.6-.4,0-.2-.2-.4,0-.5,0-.1.4,0,0-.5,0,0,0,0,.2,0,.4.1.5,0,.4-.3-.1-.3,0-.3,0-.4.2-.3.4-.5.6-.7.2-.2.5-.1.7-.3.2-.1.2-.5.5-.4.4,0,.5,0,.6-.2,0,0,.4,0,0-.5,0,0,0,0,0,0,.8.4.3-.6.7-.7.4,0,.6-.4.8-.6,0,0,.3,0,0-.4,0-.1,0-.2.1-.2.6.4.6-.1.8-.2.3,0,.4-.5.9-.2.2.1.4.1.2-.5,0-.3.2-.1.2-.2,0,0,0-.4,0-.4,0,0,.2.1.4.2,0,0,0,0,0,0,0-.4.2-.5.4-.5.2,0,.5,0,.7-.2.2-.2.5-.4.8-.5.4-.1.8-.2,1.1-.2.4,0,.9.2,1,1.5,0,.6,0,1.1-.1,1.4,0,.2-.1.4-.2.4,0,0-.1.2-.2.3,0,.1,0,.3,0,.4,0,.1,0,.2-.1,0,0,0,0,.2-.3-.2,0,0,0,0,0,0,.2.8-.4.6-.7.8-.2.2-.1.9-.5.8.2.6,0,.6-.3.6-.9-.2-1.1.5-1.6.8-.5.3-.9.7-1.4,1.1,0,0,.1.4-.2.2-.3-.1-.2.1-.3.2,0,0,0,.3-.3.2-.8-.2-.8.4-1.1.7-.3.3-.6.6-.7,1,0,.3.1.6-.1.8-.1,0,.2.3-.4.1-.2,0,.2.2.2.3,0,.2-.1.3-.2.4,0,.2-.2.4-.2.6,0,.1.2.3.2.5,0,.1,0,.3,0,.4-.1.2-.3.3-.4.5,0,.2.2.4-.1.6-.5.3-.3.7-.4,1.1,0,.4-.1.8,0,1.2,0,.2-.4.5-.4.7,0,.1-1.5.3-2,.2,0,0-.2,0-.2,0-.5-.2-1.2-.4-1.2-.7,0-.4,0-.8,0-1.2Z"/>
  <path d="M192.4,219.1c.3.5.7,1,1.1,1.5.2.2.1.5.7.4.3,0,0,.5,0,.6.5.4.8.9,1.2,1.2.4.4,1,.6,1.5.9.5.3.7,1,1.3,1.1.5,0,.6.8,1,1,.4.2.9.5,1.1,1,.2.4.3.7.6.9.2,0,.6,0,.7.1.2.2.2.5.7.1,0,0,0,.1,0,.2,0,.5.2.6.5.5.3,0,.4,0,.6.1.4.3.8.6,1.2.9.3.3.4.7.7,1,.3.3.8.3.9.8.1.5.4.7.7.9.2.1.2.5.7,0,0,0,.1,0,.1,0,0,1,1.1.5,1.4,1,.4.5,1,.8,1.5,1.2.1.1.2.4.6,0,.1,0,.3,0,.3.1,0,.8.6.8.9,1.2.3.5,1,.6,1.1,1.3,0,.3.2.6.8.3.3-.1.3.3.5.4.2,0,.5,0,.6,0,.1,0,0,.4,0,.5,0,0,0,0,.1,0,1.1,0,1,1.3,1.7,1.8.4.2.7.5.9.8.3.3.5.7.7,1.1.3.4.4.9-.3,1.8-.3.4-.8.7-1.2.8-.3,0-.6,0-.7,0-.2-.1-.5-.2-.7-.3-.5-.2-1.1-.3-1.3-.8,0-.2-.4,0-.1-.5,0,0,0-.1,0-.1-1,0-1.1-.8-1.7-1.2-.5-.4-1.3-.3-1.5-.9-.7.3-.9,0-1-.4-.4-1.3-1.6-1.7-2.5-2.5-.9-.8-1.9-1.5-2.8-2.2-.2-.1-.5,0-.5-.3,0-.3-.4-.4-.6-.5-.2-.1-.5-.2-.6-.5-.4-1.1-1.4-1.4-2.1-2-.7-.6-1.4-1.3-2.3-1.7-.5-.3-1.2-.4-1.6-.9-.2-.2-.6-.1-.4-.7,0-.2-.4,0-.6,0-.3-.2-.6-.5-1-.8-.4-.4-.8-.8-1.3-1.1-.3-.2-.7-.3-1-.5-.3-.2-.6-.5-.8-.8-.3-.4-.5-.9-.7-1.3-.3-.4-.9-.6-1-1.1-.2-1-.9-1.5-1.4-2.3-.4-.8-.9-1.5-1.5-2.2-.3-.4,0-1.1-.3-1.5-.1-.2,1.1-1.1,1.6-1.2,0,0,.2,0,.3,0,.6.2,1.4.2,1.6.6.2.6.7,1.2,1.1,1.8Z"/>
  <path d="M231.7,207.5c0,.3,0,.5,0,.8,0,0-.2.2.3.3.3,0-.3.2-.3.3,0,.2,0,.5.2.7.1.2.4.4.5.6.1.2,0,.5.3.6.3,0,0,.4,0,.6.2.1.3.3.2.6,0,.2-.2.4,0,.5.1,0,.4,0,.5,0,0,0-.2.3.4,0,0,0,0,0,0,.1-.3.3-.2.4,0,.3.3,0,.3,0,.3,0,.1.2.3.3.3.5,0,.2,0,.4,0,.6,0,.2.4.2.2.5-.2.3,0,.4,0,.5,0,0-.1.3.4,0,0,0,0,0,0,0-.5.7.5.2.5.6,0,.3.3.5.5.6,0,0,0,.2.4,0,.1,0,.2,0,.1,0-.3.6,0,.5.2.7,0,.3.4.2.3.7,0,.2,0,.4.4,0,.2-.1.1.1.2.1,0,0,.3-.1.4,0,0,0,0,.2-.1.4,0,0,0,0,0,0,.7-.2.4.7.7.8.4.1.6.4.8.8.1.2.1.5-.5,1.4-.3.4-.7.8-1,1-.2.1-.4.2-.5.2-.2,0-.3,0-.5,0-.3,0-.9.2-.8-.2,0-.1-.3,0,0-.4,0,0,0-.1,0,0-.8.3-.7-.3-1-.5-.2-.2-.9,0-.9-.3-.6.3-.6.1-.6-.1,0-.9-.7-1-1-1.5-.3-.5-.8-.9-1.2-1.5,0,0-.4,0-.3-.2.1-.2-.1-.2-.2-.4,0-.1-.3-.1-.2-.3.3-.8-.3-1-.5-1.4-.2-.5-.4-.9-.8-1.3-.2-.2-.7-.4-.7-.7,0-.1-.4-.1.1-.5.1,0-.3,0-.4-.1-.1-.2-.2-.4-.2-.6-.1-.3-.2-.6-.3-.9,0-.2-.4-.3-.5-.4-.1-.2-.2-.4-.1-.6,0-.3.2-.6.2-.8,0-.3-.3-.5,0-.8.5-.5.2-.9.2-1.4,0-.5.1-.9,0-1.4,0-.3.5-.4.5-.7,0-.1,1.5,0,2,.1,0,0,.2,0,.2,0,.4.3,1.1.5,1,.7-.1.3,0,.6,0,.9Z"/>
  <path d="M234,204.5c0,0-.1,0-.2,0,0,0-.1-.2,0,.3,0,.3-.1-.3-.2-.3,0,0-.1,0-.2.1,0,0,0,.3,0,.4,0,0-.2-.2-.1.2,0,.3-.2-.1-.2,0,0,.1,0,.2-.1,0-.1-.1-.3-.3-.2-.2,0,0,.2.3.1.3,0,0-.2-.2.1.3,0,0,0,0,0-.1-.3-.3-.3-.3-.1,0,.2.2.1.2.1.2,0,0,0,0-.1,0,0,0-.2-.2-.3-.2,0,0,0,.2-.1,0-.2-.2-.3-.1-.3-.1,0,0-.2-.2.2.3,0,0,0,0,0,0-.7-.5.1.3,0,.2-.2,0-.1,0-.1.1,0,0-.2,0,.2.2.1,0,.1.1,0,0-.5-.3-.3,0-.4,0-.1,0,0,.2-.4,0-.2,0-.3-.1.2.2.2.1,0,0,0,0,0,0,.3.2.3.2,0,0-.2,0-.3-.1,0,0,0,0,0,0,.6.4-.3,0-.1.2.1.1,0,.2,0,.2,0,0-.3,0-1.4-.3-.5-.1-1-.3-1.3-.4-.2,0-.4-.2-.5-.2,0,0-.2-.2-.3-.2-.2-.2-.6-.5-.3-.5,0,0-.2-.2.3,0,0,0,.1,0,0,0-.7-.4-.1-.4-.1-.5,0-.1-.5-.5-.2-.5-.5-.4-.4-.4-.2-.4.7.1.5-.3.7-.5.2-.2.3-.4.6-.6,0,0-.2-.3,0-.2.2.1.1,0,.2,0,0,0,0-.2.1,0,.6.3.5,0,.7-.2.2,0,.4-.1.5-.4,0-.1,0-.5.1-.5,0,0,0-.3.3.2,0,.1,0-.3,0-.3,0,0,.1-.1.2-.1.1,0,.2,0,.3-.2,0,0,0-.3,0-.4,0,0,.1-.1.2-.1.1,0,.3.2.4.2.1,0,.1-.3.3,0,.3.4.4.1.6.1.2,0,.4,0,.5-.1,0,0,.3.4.3.4,0,0,.3,1.5.3,2,0,0,0,.2,0,.2,0,.5,0,1.2,0,1.2,0,0-.2,0-.2,0Z"/>
  <path d="M239.9,212.8c0-.2-.2-.3-.3-.5,0,0,.1-.2-.4,0-.2.1.3-.3.2-.3-.1-.1-.2-.3-.3-.4-.1-.1-.4-.1-.6-.2-.1-.1,0-.4-.3-.4-.3,0,0-.3-.1-.4-.2,0-.3-.1-.2-.4,0-.2.2-.4,0-.4,0,0-.4.1-.4,0,0,0,.2-.3-.4,0,0,0,0,0,0-.1.3-.3.2-.4,0-.2-.2.1-.3,0-.3,0-.1,0-.2-.2-.3-.3,0-.1,0-.3,0-.5,0-.1-.3,0-.1-.3.2-.3,0-.3,0-.4,0,0,.1-.3-.4,0,0,0,0,0,0,0,.5-.7-.4,0-.4-.3,0-.3-.2-.3-.3-.4,0,0,0-.2-.3,0-.1,0-.2,0-.1,0,.4-.5,0-.4,0-.5,0-.2-.3,0,0-.5.1-.2.1-.3-.3,0-.2.2,0,0-.2,0,0,0-.3.2-.3.1,0,0,.1-.2.2-.3,0,0,0,0,0,0-.6.3-.1-.5-.4-.5-.3,0-.4-.2-.5-.4,0-.1,0-.3.7-1.3.3-.4.7-.8.9-1,.2-.2.4-.3.5-.3.1,0,.3,0,.4,0,.2,0,.7-.3.6,0,0,0,.2,0,0,.3,0,0,0,0,0,0,.7-.4.5.1.7.2.2,0,.7-.2.7.1.5-.4.5-.2.5,0-.2.7.4.7.6,1,.2.3.5.6.7.9,0,0,.3-.1.2.1-.2.2,0,.2.1.2,0,0,.2,0,.1.2-.3.7.2.6.3.9.1.3.3.5.6.7.2,0,.6,0,.6.2,0,0,.3,0-.1.4-.1.1.3,0,.3,0,.1,0,.2.2.2.3.1.1.2.3.3.4,0,0,.4,0,.5,0,.1,0,.2.2.2.3,0,.2,0,.4,0,.5,0,.2.3.1.2.4-.3.5,0,.6.1.8,0,.2.2.5.4.6.1,0-.2.5-.2.6,0,0-1.2.8-1.7,1.1,0,0-.2,0-.2,0-.5.1-1.2.4-1.2.2,0-.2-.2-.4-.3-.6Z"/>
  <path d="M250.2,206.4c-.1.1-.3.2-.4.4,0,0-.3,0,0,.4.2.2-.3-.2-.4-.1,0,.2-.3.2-.3.4,0,.2,0,.4-.1.6,0,.2-.4,0-.3.4,0,.3-.3,0-.4.2,0,.2,0,.3-.3.2-.2,0-.4-.2-.4,0,0,0,.2.4.1.4,0,0-.3-.1,0,.4,0,0,0,0-.1,0-.3-.3-.4-.2-.2,0,.1.2,0,.2,0,.3,0,.1-.2.2-.3.3-.1,0-.3,0-.5,0-.1,0,0,.3-.3.2-.3-.2-.3,0-.4,0,0,0-.3-.1.1.4,0,0,0,0,0,0-.7-.5,0,.4-.3.4-.3,0-.3.2-.4.3,0,0-.2,0,0,.3,0,.1,0,.2,0,.1-.5-.4-.3,0-.5,0-.2,0,0,.3-.5,0-.2-.1-.3-.1,0,.3.2.2,0,0,0,.2,0,0,.1.3.1.3,0,0-.2-.1-.3-.2,0,0,0,0,0,0,.3.6-.5.1-.5.4,0,.3-.2.4-.5.4-.1,0-.3,0-1.1-.8-.4-.4-.7-.8-.9-1.1-.1-.2-.2-.4-.3-.5,0-.1,0-.3,0-.4,0-.2-.3-.7,0-.6,0,0,0-.2.3.1,0,0,0,0,0,0-.4-.7,0-.5.2-.6,0-.1-.2-.7,0-.6-.3-.5-.2-.5,0-.4.7.3.6-.3.9-.4.3-.1.5-.4.7-.6,0,0-.2-.3,0-.2.2.2.1,0,.2,0,0,0,0-.2.2-.1.6.3.5-.1.8-.3.2-.1.5-.2.5-.5,0-.2,0-.5.1-.5,0,0,0-.3.4,0,.1.1-.1-.3-.1-.3,0-.1.1-.2.2-.2.1,0,.2-.2.3-.3,0,0,0-.3,0-.4,0-.1,0-.2.2-.2.1,0,.4,0,.5,0,.1,0,0-.3.3-.2.5.2.5-.1.7-.2.2,0,.4-.2.5-.4,0-.1.5.2.6,0,0,0,1.1,1,1.5,1.3,0,0,.1.2.1.2.2.4.7,1,.5,1.1-.2,0-.3.3-.5.4Z"/>
  <path d="M223.6,195.8c0,.1-.2.2-.2.4,0,0-.3,0,.2.3.2.1-.4,0-.4,0,0,.2-.2.3-.2.5,0,.2.1.5.1.7,0,.2-.3.3,0,.6.2.3-.3.3-.2.5,0,.2.1.4-.2.6-.2,0-.4.2-.4.3,0,0,.3.2.3.3,0,0-.3.1.3.3,0,0,0,0-.2,0-.4,0-.4.1-.2.3.2.1.2.2.2.3,0,.2,0,.4-.1.6,0,.1-.3.2-.4.4,0,.1.2.3-.2.4-.3,0-.3.2-.4.3,0,0-.3.1.3.3,0,0,0,0,0,0-.9,0,.2.5,0,.7-.2.2-.1.5-.2.7,0,0-.2,0,.2.2.2,0,.2.1,0,.1-.6,0-.3.3-.4.5-.1.2.1.4-.4.5-.2,0-.3.1.2.3.3,0,0,.1,0,.2,0,0,.3.1.3.1,0,0-.2,0-.3,0,0,0,0,0,0,0,.7.2-.2.3,0,.4.1,0,.1,0,.1,0,0,0,0,0,0,.1,0,0-.2.2-.9,1-.3.4-.7.7-1,.9-.2.1-.5.2-.6.2-.2,0-.4,0-.5-.1-.3-.1-1-.2-.8-.7,0-.1-.3-.2.2-.4,0,0,0,0,0,0-.9-.3-.4-.8-.5-1.1,0-.3-.7-.7-.4-.9-.6-.2-.5-.4-.3-.6.7-.4.4-.9.5-1.4.2-.5.2-1,.3-1.4,0,0-.3-.2,0-.3.3,0,0-.2.1-.3,0,0,0-.2,0-.3.7-.2.4-.7.6-1.1.1-.4.3-.7.2-1.1,0-.2-.3-.6-.1-.8,0,0-.2-.3.4-.2.2,0-.2-.2-.3-.3,0-.2,0-.3.1-.5,0-.2.2-.4.2-.7,0-.2-.2-.4-.2-.5,0-.2,0-.3.2-.5.1-.2.4-.3.6-.5.1-.2,0-.5.3-.6.6-.1.6-.6,1-1,.3-.3.7-.7,1-1.1.2-.2.7,0,.9,0,.1,0,.9,1.2,1.1,1.7,0,0,0,.2,0,.2,0,.5.4,1.1.3,1.1-.1,0-.2.1-.3.3Z"/>
  <path d="M232.3,191.2c-.2,0-.3,0-.5.2,0,0-.2-.2-.1.3,0,.3-.2-.3-.2-.3-.1.1-.3,0-.4.2-.1.1-.2.4-.3.5-.1.1-.4-.1-.4.2,0,.3-.3-.1-.4,0,0,.2-.2.3-.4,0-.1-.1-.3-.3-.4-.2,0,0,0,.4,0,.4,0,0-.2-.2,0,.4,0,0,0,0,0-.1-.2-.4-.3-.3-.2,0,0,.3,0,.3,0,.3-.1,0-.2.1-.4.1-.1,0-.3-.2-.4-.2-.1,0-.1.3-.3,0-.2-.2-.3-.2-.4-.2,0,0-.2-.2,0,.4,0,0,0,0,0,0-.5-.7-.2.4-.4.2-.2-.1-.3,0-.4.2,0,0-.2-.1,0,.3,0,.2,0,.2,0,0-.4-.5-.3-.1-.5-.2-.2,0-.2.3-.5-.1-.1-.2-.3-.2,0,.3,0,.3,0,0-.1.1,0,0,0,.3,0,.4,0,0-.2-.2-.2-.3,0,0,0,0,0,0,.1.7-.5,0-.6.2,0,.3-.3.3-.5.3-.1,0-.3-.1-.9-1.1-.3-.4-.5-.9-.6-1.2,0-.2-.1-.4-.1-.5,0-.1,0-.3,0-.4,0-.2,0-.8.2-.6,0,0,0-.2.3.2,0,0,0,0,0,0-.2-.8.2-.4.4-.6.1-.1,0-.8.3-.6-.2-.6,0-.6.1-.4.6.5.7,0,1.1-.1.4,0,.6-.3,1-.4,0,0,0-.4.1-.1.2.2.2,0,.2,0,0,0,0-.2.2,0,.5.5.6,0,.9,0,.3,0,.5,0,.7-.3.1-.1.2-.5.4-.5,0,0,0-.3.3.2,0,.2,0-.3,0-.3,0,0,.2,0,.3-.1.1,0,.3,0,.4-.2,0,0,0-.3.2-.4,0,0,.2-.1.3,0,.1,0,.3.2.5.2.1,0,.2-.3.4,0,.4.4.5.1.8.1.2,0,.5,0,.7-.2.1-.1.3.4.5.3,0,0,.5,1.4.6,1.9,0,0,0,.2,0,.2,0,.5,0,1.2,0,1.2-.2,0-.4,0-.6.1Z"/>
  <path d="M246.1,203.3c-.2-.3-.3-.5-.5-.7,0,0,0-.3-.4-.1-.2.1.2-.4.1-.4-.2-.2-.3-.5-.6-.6-.2-.2-.6-.2-.8-.4-.2-.2-.2-.6-.7-.5-.4,0-.2-.5-.4-.6-.3,0-.5-.2-.6-.5,0-.2,0-.5-.2-.6-.1,0-.4.2-.5,0,0,0,0-.4-.5,0,0,0,0,0,0-.2.2-.4,0-.5-.2-.3-.3.1-.3,0-.4,0-.2-.1-.5-.3-.6-.5-.1-.2-.1-.5-.3-.7-.1-.2-.5-.1-.4-.5,0-.4-.1-.5-.3-.6,0,0,0-.4-.5,0,0,0,0,0,0,0,.3-.8-.7-.2-.8-.6-.1-.4-.5-.5-.7-.7,0,0,0-.3-.4,0-.1,0-.2,0-.2,0,.3-.6-.2-.5-.3-.8-.1-.3-.5-.3-.4-.8,0-.2,0-.4-.5,0-.2.2-.1-.1-.3-.2,0,0-.3.1-.4,0,0,0,0-.3,0-.4,0,0,0,0,0,0-.7.3-.4-.6-.8-.7-.4,0-.6-.3-.9-.6-.1-.1-.2-.4.2-1.5.2-.5.4-1,.7-1.2.2-.2.4-.3.5-.3.2,0,.4,0,.5,0,.4,0,.9-.3,1,.1,0,.1.3,0,0,.4,0,0,0,.1,0,.1.8-.4.8.3,1.2.5.3.2,1,0,1,.4.6-.3.7,0,.7.2,0,.9.8,1.1,1.2,1.6.4.5.9.8,1.3,1.3,0,0,.4-.1.3.2,0,.3.2.2.3.3,0,0,.3,0,.3.3,0,.8.6.8,1,1.2.3.4.7.8,1.2,1,.3.1.8,0,.9.4,0,.1.4,0,.1.5,0,.2.3-.1.4,0,.2.1.3.3.5.4.2.2.4.5.7.6.2.1.5,0,.7.2.2.1.3.3.4.5.1.3.1.6.3.8.1.3.5.3.5.7-.1.7.4.9.6,1.4.2.4.4.9.8,1.3.2.2-.2.7,0,.9,0,.1-1.3.8-1.7.9,0,0-.2,0-.2,0-.5,0-1.3,0-1.3-.1,0-.3-.3-.6-.5-.9Z"/>
  <path d="M215.7,191.6c0,.4,0,.8,0,1.2,0,.2-.2.3.3.5.3,0-.4.2-.3.4,0,.4,0,.8.1,1.2,0,.4.3.7.4,1.1.1.4-.1.8.2,1.1.3.3-.1.6,0,.9.2.3.3.6.1.9-.1.2-.3.5-.1.7,0,.1.4.2.4.3,0,.1-.2.4.4.3,0,0,0,0-.1.1-.4.2-.3.4,0,.5.3,0,.3.2.3.3.1.3.2.6.2.9,0,.2-.1.5-.1.8,0,.3.3.4.1.7-.2.3-.1.5,0,.7,0,.1-.2.4.4.2,0,0,0,0,0,0-.7.6.5.6.4,1,0,.4.2.7.4,1.1,0,0,0,.3.4.2.2,0,.2,0,.1.1-.5.5,0,.6,0,.9,0,.3.4.5.1,1-.1.2-.1.4.5.3.3,0,.1.2.2.3,0,0,.4,0,.4.1,0,0-.1.3-.2.4,0,0,0,0,0,0,.8.1.3.9.7,1.3.4.3.6.8.8,1.2.1.3,0,.6-.8,1.4-.4.4-.8.7-1.2.8-.2,0-.5,0-.6,0-.2,0-.4-.2-.5-.2-.3-.2-1-.2-.9-.6,0-.1-.3,0,0-.4,0,0,0-.1,0-.1-.9,0-.7-.7-1-1.1-.2-.3-1-.4-.9-.9-.7,0-.7-.2-.6-.5.2-1-.5-1.6-.7-2.4-.2-.8-.6-1.6-.9-2.4,0-.1-.4-.1-.2-.4.2-.2,0-.4-.1-.5,0-.2-.2-.3-.1-.5.4-.8-.1-1.3-.2-2,0-.6-.2-1.3-.5-1.9-.2-.4-.6-.7-.5-1.1,0-.2-.3-.3.2-.6.2,0-.3-.2-.4-.3,0-.3-.1-.5-.2-.8,0-.4,0-.8-.2-1.1,0-.2-.3-.4-.4-.7,0-.2-.1-.5,0-.7,0-.3.2-.6.3-.9,0-.3-.2-.6,0-1,.5-.6.2-1.1.3-1.7,0-.6,0-1.1,0-1.7,0-.3.5-.6.5-.9,0-.1,1.5-.2,2-.2,0,0,.2,0,.2,0,.5.3,1.2.6,1.1.9-.1.5,0,.9,0,1.4Z"/>
  <path d="M199.9,191c.2-.1.4-.2.6-.4,0,0,.3.1.1-.4,0-.3.3.3.3.2.2-.2.4-.2.6-.3.2-.1.3-.4.5-.6.2-.1.5,0,.6-.3,0-.3.4,0,.5,0,.1-.2.3-.3.5-.2.2.1.4.3.5.1,0,0,0-.4.1-.4,0,0,.3.2.1-.4,0,0,0,0,.1.1.2.4.3.3.3,0s0-.3.1-.3c.2,0,.4-.2.6-.1.2,0,.3.2.5.2.2,0,.3-.3.4,0,.2.3.3.2.4.2,0,0,.2.3.2-.4,0,0,0,0,0,0,.3.8.4-.3.6-.2.3.2.5,0,.7,0,0,0,.1.2.2-.3,0-.2,0-.2.1,0,.2.6.4.2.6.3.2.1.4-.2.6.3,0,.2.2.3.3-.3,0-.3.1,0,.2,0,0,0,.1-.3.2-.3,0,0,.1.2.2.3,0,0,0,0,0,0,.3-.7.6.2.9,0,.3-.2.6,0,.9,0,.2,0,.3.3.3,1.4,0,.5,0,1.1-.1,1.4,0,.2-.1.5-.2.5,0,0-.2.2-.3.3-.2.2-.3.7-.5.4,0,0-.1.2-.1-.3s0-.1,0,0c-.2.8-.4.3-.7.3-.2,0-.3.7-.5.4,0,.6-.2.5-.3.3-.4-.7-.7-.2-1.1-.2-.4,0-.7,0-1.1.1,0,0,0,.4-.2.1-.1-.2-.2,0-.2,0,0,0-.1.2-.2,0-.4-.6-.6-.1-.9-.1-.3,0-.6,0-.8.3-.1.1-.2.5-.4.5,0,0,0,.3-.3-.2,0-.2,0,.3,0,.3,0,0-.2,0-.3.1-.2,0-.3,0-.5.2,0,0,0,.3-.1.4,0,0-.2.1-.3.1-.2,0-.4-.2-.5-.2-.2,0-.2.3-.4.1-.5-.3-.6,0-.8,0-.2,0-.5.2-.6.4,0,.1-.5-.2-.6-.1,0,0-.9-1.2-1.2-1.6,0,0,0-.2-.1-.2-.1-.5-.4-1.2-.2-1.2.3,0,.5-.3.7-.4Z"/>
  <path d="M208.6,219.7c-.3-.4-.7-.8-1-1.2-.1-.1,0-.5-.6-.3-.3,0,.1-.5,0-.6-.4-.3-.6-.8-.9-1.2-.3-.4-.8-.6-1.1-1-.3-.4-.3-.9-.8-1.2-.5-.2-.2-.8-.5-1-.3-.3-.6-.6-.6-1.1,0-.3.1-.7-.1-.9-.1-.1-.5-.1-.6-.3,0-.2,0-.5-.5-.4,0,0,0-.1,0-.2.3-.3.2-.6-.1-.6-.3,0-.3-.2-.4-.3-.2-.4-.4-.7-.5-1.1,0-.3,0-.7,0-1,0-.3-.4-.5-.2-.9.2-.4.1-.6,0-.9,0-.2.2-.4-.5-.4,0,0,0,0,0,0,.6-.7-.5-.8-.4-1.3,0-.5-.2-1-.3-1.5,0-.1.1-.3-.4-.3-.2,0-.2-.1-.1-.2.5-.5,0-.8.1-1.2,0-.4-.3-.8.1-1.3.2-.2.3-.5-.4-.6-.3,0,0-.3-.1-.5,0-.1-.3-.2-.4-.3,0-.1.2-.2.3-.4,0,0,0,0,0-.1-.7-.6.1-1.3,0-1.9-.2-.6-.2-1.3,0-1.9,0-.4.2-.7,1.4-.9.5,0,1.1,0,1.4,0,.2.1.5.2.5.3,0,.2.2.4.3.5.2.4.7.7.4,1.1,0,.1.2.2-.3.4,0,0-.1,0,0,0,.8.5.3,1,.4,1.5,0,.4.8.8.5,1.2.6.2.6.4.4.7-.3.5-.3.9-.2,1.3.1.4.3.8.3,1.2,0,.9.4,1.7.6,2.5,0,.1.4.2.2.4-.2.2,0,.4.1.6,0,.2.2.3.1.5-.4.9.2,1.4.4,2,.2.7.4,1.3.8,1.9.3.3.8.5.8,1,0,.2.4.2,0,.6-.1.1.4,0,.4.1.2.2.3.5.4.7.2.3.4.7.6,1,.2.2.5.3.7.4.2.2.3.4.4.6.1.3.1.7.3,1,.1.3.6.4.5.8,0,.8.5,1.1.9,1.6.3.5.7,1,1.2,1.3.3.2.1.8.4,1,.1.1-.8,1.3-1.2,1.6,0,0-.2.1-.2.1-.6,0-1.3.4-1.6,0-.4-.5-.8-.9-1.2-1.3Z"/>
  <path d="M195.1,210c0,.1-.2.3-.3.4,0,0-.3,0,.1.3.2.2-.4-.1-.4,0,0,.2-.2.2-.2.4,0,.2,0,.4,0,.6,0,.2-.4.1-.2.4.2.3-.3,0-.3.2,0,.2,0,.3-.2.3-.2,0-.4,0-.4,0,0,0,.3.3.2.3,0,0-.3,0,.2.3,0,0,0,0-.1,0-.4-.2-.4,0-.2.1.2.2.2.2.1.2,0,.1,0,.2-.2.3,0,0-.3,0-.4,0-.1,0,0,.3-.2.2-.3,0-.3,0-.4.1,0,0-.3,0,.2.3,0,0,0,0,0,0-.8-.3,0,.4-.2.4-.3,0-.2.2-.2.4,0,0-.2,0,.2.2.1,0,.1.1,0,0-.6-.2-.3.1-.5.2-.2,0,0,.3-.5.2-.2,0-.3,0,.2.3.2.1,0,0,0,.2,0,0,.3.2.3.2,0,0-.2,0-.4,0,0,0,0,0,0,0,.5.5-.4.3-.3.5,0,.3,0,.4-.2.6,0,0-.3.1-1.4-.2-.5-.2-1-.4-1.3-.5-.2-.1-.4-.3-.4-.3,0-.1-.2-.2-.2-.3-.1-.2-.6-.5-.2-.6,0,0-.2-.2.3,0,0,0,.1,0,0,0-.6-.5,0-.5,0-.7,0-.2-.5-.6-.2-.6-.5-.4-.4-.4-.2-.4.7,0,.5-.5.7-.8.2-.3.3-.6.5-.9,0,0-.3-.3,0-.2.3,0,.1-.1.2-.2,0,0,0-.2.1-.2.7,0,.5-.3.7-.5.2-.2.4-.4.4-.7,0-.2-.2-.5,0-.6,0,0-.2-.3.4,0,.2,0-.2-.2-.2-.3,0-.1.1-.2.2-.3,0-.1.2-.2.2-.4,0,0-.1-.3-.1-.4,0-.1,0-.2.2-.3.1,0,.4,0,.5-.1.1,0,0-.3.3-.3.6.1.5-.2.6-.4.2-.2.3-.3.4-.6,0-.1.5,0,.6,0,0,0,1.3.8,1.6,1.1,0,0,.1.1.2.2.3.4.8.9.7,1-.2.1-.2.3-.4.5Z"/>
  <path d="M206.9,221.3c-.3-.2-.6-.4-.9-.6-.1,0,0-.3-.5,0-.2.2,0-.4,0-.4-.3-.1-.5-.4-.8-.5-.3-.1-.6-.1-.9-.2-.3-.1-.3-.5-.8-.4-.4,0-.2-.5-.5-.5-.3,0-.5-.1-.6-.5,0-.2,0-.5-.2-.5-.1,0-.4.2-.5,0,0,0,0-.4-.5,0,0,0,0,0,0-.2.2-.4,0-.5-.2-.3-.2.2-.3,0-.4,0-.2-.1-.4-.3-.6-.5-.1-.2-.1-.5-.2-.6-.1-.2-.5,0-.4-.4,0-.3,0-.4-.2-.6,0,0,0-.4-.4,0,0,0,0,0,0,0,.3-.8-.6-.2-.7-.5,0-.4-.4-.4-.7-.6,0,0,0-.2-.4,0-.1.1-.2,0-.2,0,.2-.6-.2-.5-.3-.7-.1-.3-.5-.2-.4-.8,0-.2,0-.4-.5,0-.2.2-.1-.1-.3-.1,0,0-.3.1-.4,0,0,0,0-.3,0-.4,0,0,0,0,0,0-.7.2-.4-.7-.8-.8-.4-.1-.6-.4-.9-.8-.1-.2-.2-.5.5-1.4.3-.4.7-.8,1-1,.2-.1.4-.2.5-.2.2,0,.3,0,.5,0,.3,0,.8-.2.8.2,0,.1.3,0,0,.4s0,.1,0,0c.8-.4.7.2,1,.4.2.2.9-.1.9.3.5-.4.6-.2.6,0,0,.9.7.9,1.1,1.3.4.4.9.7,1.3,1.1,0,0,.4-.2.3.1,0,.3.2.2.3.3,0,0,.3,0,.2.2,0,.8.5.8.8,1.1.3.3.6.7,1.1.8.3,0,.7,0,.8.2,0,.1.4,0,0,.5,0,.2.3-.1.4-.1.2,0,.3.2.5.3.2.2.4.3.6.4.1,0,.4,0,.6,0,.2,0,.3.1.4.3.1.2.2.5.3.6.1.2.5,0,.5.4,0,.6.5.7.7.9.2.2.5.4.6.3,0,0,0,.5,0,.5,0,0,0,0,0,.2,0,.2,0,.3,0,.6,0,.4,0,.9,0,1.2,0,0,0,.2,0,.2-.3.5-.8,1.1-1.2,1-.6-.2-1-.4-1.4-.7Z"/>
  <path d="M222.8,269.6c-.1-.5-.2-.9-.3-1.4,0-.2.2-.4-.4-.5-.3,0,.3-.3.2-.5-.2-.4-.2-.9-.3-1.3-.2-.4-.5-.8-.6-1.2-.2-.4,0-.9-.4-1.2-.4-.3,0-.7-.1-1-.2-.3-.4-.7-.2-1.1.1-.3.3-.6.1-.8-.1-.1-.4-.2-.5-.4,0-.2.2-.4-.4-.4,0,0,0,0,.1-.2.4-.3.3-.5,0-.5-.3,0-.3-.2-.3-.3-.1-.3-.2-.7-.2-1.1,0-.3.2-.6.1-.9,0-.3-.4-.5-.1-.8.2-.3.2-.6.1-.8,0-.1.2-.4-.4-.3,0,0,0,0,0,0,.7-.6-.4-.8-.3-1.2.1-.5-.1-.9-.3-1.3,0-.1.1-.3-.4-.3-.2,0-.2-.1-.1-.2.5-.5,0-.7.1-1.1,0-.4-.3-.7,0-1.2.2-.2.2-.4-.4-.5-.3,0,0-.3-.2-.4,0-.1-.4-.1-.4-.3,0,0,.2-.2.3-.4,0,0,0,0,0,0-.8-.4,0-1.1-.3-1.7-.3-.5-.4-1.1-.4-1.7,0-.3,0-.7,1.2-1.1.5-.2,1-.3,1.4-.3.3,0,.5,0,.6.2.1.2.3.3.4.4.3.3.9.5.7,1,0,.1.3.2-.2.4,0,0,0,0,0,0,.9.3.5.9.7,1.4.1.4.9.7.7,1.2.7,0,.6.4.5.7-.5,1,.2,1.7.3,2.6.1.9.4,1.7.6,2.6,0,.1.4.2.2.4-.2.2,0,.4,0,.6,0,.2.2.3,0,.5-.5.8,0,1.4.1,2.1,0,.7.2,1.4.5,2,.2.4.6.7.6,1.1,0,.2.4.3-.2.6-.2,0,.3.1.4.3.1.3.1.6.2.8,0,.4.1.8.3,1.2,0,.2.4.4.5.6.1.2.2.5.2.7,0,.3-.1.7-.1,1,0,.3.4.6.2,1-.4.7,0,1.2,0,1.8,0,.6.2,1.2.4,1.7.1.3-.3.7-.2,1,0,.1-1.4.7-1.9.7,0,0-.2,0-.2,0-.5-.2-1.3-.3-1.3-.7,0-.5-.2-1.1-.3-1.6Z"/>
  <path d="M290.2,311c.8-.1,1.5-.2,2.2-.4.3,0,.6.1.8-.4.1-.3.5.3.7.2.7-.2,1.4-.2,2.1-.4.7-.2,1.3-.5,2-.6.7-.2,1.4,0,2-.4.5-.4,1.1,0,1.6-.1.6-.2,1.1-.4,1.7-.2.4.1.9.3,1.3.1.2,0,.4-.4.7-.4.3,0,.6.2.7-.4,0,0,.1,0,.2.1.3.4.7.3.9,0,.2-.3.4-.3.6-.3.6,0,1.2-.2,1.7-.2.4,0,.9.2,1.3.2.5,0,.9-.3,1.4,0,.4.3.8.2,1.3.2.2,0,.5.2.7-.4,0,0,.1,0,.1,0,.7.8,1.3-.4,2-.2.7.2,1.4,0,2.1-.1.2,0,.4.2.5-.3,0-.2.2-.2.4,0,.6.6,1.1.2,1.6.3.6,0,1.2-.2,1.9.2.3.2.6.3.9-.3.1-.3.4,0,.7,0,.2,0,.4-.3.5-.4.2,0,.3.2.5.3,0,0,.1,0,.2,0,.9-.7,1.8.2,2.7,0,.9-.2,1.8-.2,2.7,0,.5,0,1,.2,1.4,1.4.2.5.2,1.1,0,1.4-.2.2-.3.5-.5.5-.3.1-.6.2-.8.3-.6.2-1.1.7-1.7.5-.2,0-.4.2-.6-.3,0,0-.1-.1-.1,0-.8.8-1.6.3-2.4.4-.7,0-1.3.7-2,.5-.4.6-.8.6-1.2.4-1.4-.6-2.7,0-4.1,0-1.4,0-2.7.2-4.1.2-.2,0-.4.4-.7.1-.3-.2-.6,0-.9,0-.3,0-.5.2-.8,0-1.1-.6-2.2,0-3.3,0-1.1,0-2.2,0-3.2.4-.6.2-1.2.6-1.9.5-.3,0-.5.4-.9-.2,0-.2-.3.3-.5.4-.4.1-.9.1-1.3.2-.6,0-1.2.1-1.9.3-.4,0-.7.4-1.1.5-.4.1-.8.2-1.2.2-.5,0-1-.1-1.5-.1-.5,0-1,.4-1.6.2-1-.4-1.9,0-2.8.1-.9,0-1.8.2-2.7.5-.5.2-1.1-.3-1.6-.2-.2,0-.8-1.4-.8-1.9,0,0,0-.2,0-.2.4-.5.7-1.3,1.3-1.4.9,0,1.7-.3,2.5-.4Z"/>
  <path d="M286.3,314.7c-.4-.2-.8-.4-1.2-.5-.2,0-.2-.3-.6,0-.2.2,0-.4-.2-.5-.4,0-.7-.3-1.1-.5-.4-.1-.8,0-1.2-.2-.4,0-.6-.5-1.1-.4-.4.1-.5-.4-.8-.5-.3,0-.7,0-.9-.4-.1-.2-.3-.5-.5-.5-.2,0-.4.2-.5.2-.1,0-.2-.4-.5.1,0,0,0,0,0-.2,0-.4-.2-.5-.4-.3-.2.2-.3.1-.4,0-.3,0-.6-.2-.9-.4-.2-.1-.3-.4-.5-.6-.2-.1-.6,0-.7-.3-.1-.4-.3-.4-.5-.5-.1,0-.2-.4-.5.2,0,0,0,0,0,0,0-.9-.8,0-1-.3-.3-.3-.7-.3-1.1-.4,0,0-.2-.2-.4.2,0,.1-.2.1-.2,0,0-.7-.5-.4-.7-.6-.3-.2-.7,0-.9-.5,0-.2-.3-.4-.5.2-.1.3-.2,0-.4,0-.1,0-.2.3-.3.3,0,0-.1-.3-.2-.4,0,0,0,0,0,0-.6.6-.9-.4-1.4-.2-.5.1-.9,0-1.4,0-.3,0-.5-.3-.7-1.4,0-.5,0-1.1,0-1.4,0-.2.2-.5.3-.5.2,0,.3-.2.5-.3.3-.2.7-.7,1.1-.4.1,0,.3-.2.3.3,0,0,0,.1,0,0,.6-.7,1-.2,1.5-.1.4,0,.9-.6,1.3-.2.3-.6.6-.4.8-.2.7.8,1.6.6,2.3.9.8.3,1.6.5,2.3.8.1,0,.4-.2.4,0,0,.3.3.2.5.2.2,0,.4,0,.4.2.4.8,1.1.7,1.6,1,.6.3,1.1.6,1.7.7.4,0,.9-.1,1.2.2.1.1.4-.1.3.5,0,.2.3-.2.4-.2.3,0,.5.2.7.3.3.1.6.3,1,.4.2,0,.5,0,.7,0,.2,0,.4.1.6.3.2.2.4.5.6.7.2.2.6,0,.8.4.3.7.9.6,1.3.9.2.1.5.2.7.3.2,0,.5.2.6.1,0,0,0,0,0,0,0,0,0,.3,0,.4,0,.3,0,.6,0,.7,0,0,0,0,0,0,.3.3.7.6.8.8,0,0,0,.2,0,.2-.1.8-1.1,1.6-1.7,1.4-.9-.3-1.2-.4-1.7-.6Z"/>
  <path d="M169.7,341.8c-.5-1.3-1-2.6-1.5-3.9-.2-.5-.1-1.1-.8-1.4-.3-.2,0-.8-.1-1.3-.5-1.2-.9-2.4-1.4-3.6-.5-1.2-1.1-2.3-1.6-3.4-.5-1.2-.6-2.5-1.3-3.5-.6-.9-.4-1.9-.9-2.8-.5-1-.9-2-1-3,0-.8-.1-1.5-.4-2.2-.2-.4-.7-.7-.8-1.2-.1-.5,0-1-.8-1.2,0,0,0-.3,0-.4.2-.6,0-1.2-.4-1.5-.4-.3-.5-.7-.6-1-.4-1-.7-2-1-3-.2-.8-.2-1.6-.4-2.4-.2-.8-.7-1.6-.7-2.4,0-.8-.2-1.5-.4-2.2-.1-.4,0-1-.7-1.1,0,0-.1-.2,0-.3.4-1.4-.9-2.2-1.1-3.5-.2-1.3-.7-2.5-1.1-3.7-.1-.3,0-.7-.6-.9-.2,0-.3-.4-.2-.6.3-1.1-.3-1.9-.5-2.9-.2-1.1-.8-2.1-.6-3.3,0-.5,0-1.2-.7-1.6-.3-.2-.2-.8-.4-1.2-.1-.3-.5-.6-.6-.9,0-.3,0-.6.1-.9,0,0,0-.2,0-.3-1.1-1.4-.6-3.2-1.2-4.7-.6-1.5-.9-3.2-1.2-4.8-.2-.9-.2-1.9.7-2.7.4-.4,1-.5,1.4-.2.3.2.6.5.7.8.2.5.5,1,.7,1.4.4,1,1.2,1.9,1.2,3,0,.3.4.7,0,1.1,0,0,0,.2,0,.3,1.1,1.2,1,2.8,1.4,4.2.4,1.2,1.3,2.2,1.4,3.5.8.5.9,1.3.9,2,0,2.6,1.1,4.8,1.7,7.2.6,2.4,1.4,4.8,2.1,7.2.1.4.6.7.5,1.2-.1.5.3,1.1.4,1.6.1.5.4.9.4,1.4,0,2.1.9,3.9,1.5,5.8.5,1.9,1.1,3.8,1.9,5.6.5,1.1,1.2,2.1,1.4,3.3.1.5.6.9.2,1.6-.1.2.5.5.6.8.3.8.6,1.6.8,2.3.4,1.1.7,2.2,1.2,3.2.3.6.7,1.2,1,1.8.3.7.6,1.4.7,2.1.2.9.4,1.8.6,2.7.3.9.9,1.8.9,2.7.1,1.8,1,3.3,1.5,4.9.6,1.6,1.1,3.2,1.9,4.7.4.9.3,1.9.6,2.7.2.4-1,1.5-1.5,1.5-.1,0-.2,0-.3,0-.8-.7-1.8-1.2-2.1-2.2-.5-1.5-1.1-2.9-1.7-4.4Z" fill="#aaca60"/>
  <path d="M276.8,341.8c-.5-1.3-1-2.6-1.5-3.9-.2-.5-.1-1.1-.8-1.4-.3-.2,0-.8-.1-1.3-.5-1.2-.9-2.4-1.4-3.6-.5-1.2-1.1-2.3-1.6-3.4-.5-1.2-.6-2.5-1.3-3.5-.6-.9-.4-1.9-.9-2.8-.5-1-.9-2-1-3,0-.8-.1-1.5-.4-2.2-.2-.4-.7-.7-.8-1.2-.1-.5,0-1-.8-1.2,0,0,0-.3,0-.4.2-.6,0-1.2-.4-1.5-.4-.3-.5-.7-.6-1-.4-1-.7-2-1-3-.2-.8-.2-1.6-.4-2.4-.2-.8-.7-1.6-.7-2.4,0-.8-.2-1.5-.4-2.2-.1-.4,0-1-.7-1.1,0,0-.1-.2,0-.3.4-1.4-.9-2.2-1.1-3.5-.2-1.3-.7-2.5-1.1-3.7-.1-.3,0-.7-.6-.9-.2,0-.3-.4-.2-.6.3-1.1-.3-1.9-.5-2.9-.2-1.1-.8-2.1-.6-3.3,0-.5,0-1.2-.7-1.6-.3-.2-.2-.8-.4-1.2-.1-.3-.5-.6-.6-.9,0-.3,0-.6.1-.9,0,0,0-.2,0-.3-1.1-1.4-.6-3.2-1.2-4.7-.6-1.5-.9-3.2-1.2-4.8-.2-.9-.2-1.9.7-2.7.4-.4,1-.5,1.4-.2.3.2.6.5.7.8.2.5.5,1,.7,1.4.4,1,1.2,1.9,1.2,3,0,.3.4.7,0,1.1,0,0,0,.2,0,.3,1.1,1.2,1,2.8,1.4,4.2.4,1.2,1.3,2.2,1.4,3.5.8.5.9,1.3.9,2,0,2.6,1.1,4.8,1.7,7.2.6,2.4,1.4,4.8,2.1,7.2.1.4.6.7.5,1.2-.1.5.3,1.1.4,1.6.1.5.4.9.4,1.4,0,2.1.9,3.9,1.5,5.8.5,1.9,1.1,3.8,1.9,5.6.5,1.1,1.2,2.1,1.4,3.3.1.5.6.9.2,1.6-.1.2.5.5.6.8.3.8.6,1.6.8,2.3.4,1.1.7,2.2,1.2,3.2.3.6.7,1.2,1,1.8.3.7.6,1.4.7,2.1.2.9.4,1.8.6,2.7.3.9.9,1.8.9,2.7.1,1.8,1,3.3,1.5,4.9.6,1.6,1.1,3.2,1.9,4.7.4.9.3,1.9.6,2.7.2.4-1,1.5-1.5,1.5-.1,0-.2,0-.3,0-.8-.7-1.8-1.2-2.1-2.2-.5-1.5-1.1-2.9-1.7-4.4Z" fill="#aaca60"/>
  <path d="M245.9,270.5c-1.7,0-3.4,0-5.1,0-.6,0-1.3-.2-1.9.3-.3.3-.9-.4-1.5-.3-1.6,0-3.2,0-4.8,0-1.5,0-3.1.3-4.6.3-1.5,0-3.1-.2-4.6,0-1.3.3-2.4-.2-3.7-.1-1.3.1-2.6.2-3.9,0-.9-.2-1.8-.4-2.8-.3-.6,0-1.1.4-1.7.4-.6,0-1.2-.3-1.7.3,0,0-.3,0-.4-.1-.6-.4-1.4-.4-1.9-.1-.5.3-1,.2-1.4.3-1.3,0-2.6,0-3.9,0-1,0-1.9-.3-2.9-.3-1,0-2.1.2-3,0-.9-.3-1.8-.3-2.8-.3-.5,0-1.1-.3-1.6.3,0,0-.2,0-.3,0-1.5-.8-3,.3-4.5,0-1.6-.2-3.2,0-4.8,0-.4,0-.9-.2-1.3.3-.1.2-.6.2-.8,0-1.2-.6-2.4-.2-3.6-.4-1.4-.1-2.8.2-4.1-.3-.6-.2-1.4-.3-2.1.3-.3.3-1,0-1.5,0-.4,0-.8.3-1.2.3-.3,0-.7-.2-1.1-.3-.1,0-.2,0-.3,0-2,.7-4-.2-6,0-2,.2-4.1.1-6.1,0-1.1,0-2.3-.2-3.1-1.4-.3-.5-.3-1.1.1-1.4.4-.2.8-.5,1.2-.5.6,0,1.3-.2,1.9-.3,1.3-.2,2.6-.7,3.9-.4.4,0,.9-.2,1.3.3,0,0,.2.1.3,0,1.8-.8,3.7-.3,5.5-.3,1.6,0,3.1-.7,4.6-.4.9-.6,1.9-.5,2.7-.3,3.1.7,6.2.2,9.2.3,3.1,0,6.3,0,9.4,0,.5,0,1-.4,1.6,0,.6.3,1.3,0,2,0s1.3-.1,1.9,0c2.4.7,4.9.3,7.4.3,2.4,0,4.9.1,7.3,0,1.5,0,3-.4,4.5-.3.6,0,1.3-.3,1.9.3.2.2.8-.3,1.2-.3,1,0,2,0,3.1,0s2.8,0,4.3,0c.9,0,1.7-.3,2.6-.3.9,0,1.8,0,2.7,0,1.1,0,2.3.3,3.4.3,1.2,0,2.4-.2,3.6,0,2.1.5,4.2.3,6.3.3,2.1,0,4.2.1,6.3,0,1.2,0,2.3.4,3.4.4.5,0,1.3,1.5,1.1,2,0,0-.1.2-.2.2-1.1.5-2.2,1.2-3.5,1.1-1.9,0-3.9,0-5.8,0Z" fill="#aaca60"/>
  <path d="M306.1,343.9c4.4,0,8.8-.2,13.3,0,1.7,0,3.3.4,5.1-.1.9-.2,2.4.4,3.9.5,4.1,0,8.1,0,12.1-.4,3.8-.5,7.6-1.5,10.8-3.1l1.2-.6c.4-.2.8-.5,1.2-.7.8-.4,1.5-1,2.3-1.6,1.4-1.2,2.8-2.4,3.8-3.9,1.8-2.5,3.9-4.6,5.4-7.3,1.6-2.9,3.1-5.9,4.7-8.7,1.2-2.1,2.4-4.1,3.3-6.3.6-1.4.8-2.8,1.5-4.2.6-1.3,1.5-2.8,1.5-4.2,0-.1.4-.7.6-1,1-1.3,1.7-3.2,1.9-4.5.2-1.3.7-2.4,1.1-3.5,1.1-3.2,2.3-6.3,3.4-9.5.9-2.4,1.9-4.7,2.7-7.1.9-2.5,1.4-5.3,2.4-7.5,1-2.2,1.7-4.5,2.4-6.8.4-1.3,1.2-2.7.9-4,0-.1.1-.6.2-.8,1.9-3.5,1.9-7.4,3.1-11.1,1.2-3.8,2-7.9,2.8-11.9.2-1.1.6-2.2.3-3.2-.1-.4,0-1.5.2-2,1-2.8.8-6,.7-8.9,0-3.4-.9-6.6-1.7-9.8-.1-.7-.5-1.5-.9-2.2-.5-.7-1-1.5-1.7-1.9-.3-.2-.7-.7-1-1.2-.4-.5-.8-1-1.3-1.4-.4-.3-.8-.5-1.2-.8-.4-.2-.8-.5-1.2-.8-.7-.4-1.2-1.1-1.9-1.6-.2-.1-.5-.3-.7-.4-1.1-.5-2.2-.8-3.3-1.2-.6-.2-1.1-.3-1.7-.5l-.8-.3c-.3,0-.6-.1-.9-.2-2.3-.6-4.7-.7-7.1-.5-2.4.3-4.8,1-7.1,1.8-2.3.9-4.5,2-6.4,3.4-2.2,1.6-4.1,3.4-6.2,4.3-.9.4-1.4.1-.9-1.1.4-.9.8-1.9,1.6-2.7.6-.7,1.1-1.3,1.8-1.9.6-.6,1.2-1.3,1.9-1.7,2.7-2.2,5.8-4.3,9.5-5.1,1.1-.2,2.4-.8,3.4-.5.1,0,.6,0,.8,0,.6-.2,1.2-.3,1.8-.5.6,0,1.2-.2,1.9-.2h.9c.3,0,.6,0,.9,0h1.9c2.5.5,5,1.1,7.4,2,.5.2,1,.3,1.5.6l1.5.7c1,.4,1.9,1,2.8,1.5,1,.5,1.8,1.3,2.6,1.9.4.4.8.8,1.2,1.2.4.4.8.8,1.1,1.3,2.1,1.5,3.5,4.3,4.2,6.6,1.3,4.2,1.8,8.4,1.9,12.6,0,4.2-.3,8.3-1.1,12.3-1.6,8.1-3.6,16-6,23.8-.4,1.3-.4,2.6-1.2,4-.7,1.4-1.1,3.3-1.6,5-.5,1.5-.9,3.2-1.5,4.6-2.5,5.8-4.1,12.1-6.3,18.1-2.2,6-4.6,11.9-7,17.8-1.5,3.6-2.8,7.2-4.5,10.7-.8,1.5-1.2,3.2-2.5,4.4-.4.3-.7,1.9-1.2,2.9-1.3,2.4-2.7,4.7-4.4,6.9-2.2,3.1-4.9,6-8,8.4-.9.8-2,1.4-3,2.2l-1.6.9-.8.4-.8.4c-2.4,1.1-4.8,1.6-7.3,2-3.1.5-6.2.5-9.2.5-3.2,0-6.4.2-9.4-.1-2.7-.3-5.5-.5-8.2-.6-2.7,0-5.4,0-8.1,0-5.4,0-10.9.1-16.4,0-3.1,0-6-.7-9-1.1-1.4-.2-3.1-1.9-2.5-2.3.1,0,.4-.1.6-.2,3,0,5.7-.5,9-.3,4.9.3,9.9.2,14.9,0Z"/>
  <path d="M269.8,347.5c-1.7,0-3.4,0-5.1,0-.6,0-1.3-.2-1.9.3-.3.3-.9-.4-1.5-.3-1.6,0-3.2,0-4.8,0-1.5,0-3.1.3-4.6.3-1.5,0-3.1-.2-4.6,0-1.3.3-2.4-.2-3.7-.1-1.3.1-2.6.2-3.9,0-.9-.2-1.8-.4-2.8-.3-.6,0-1.1.4-1.7.4-.6,0-1.2-.3-1.7.3,0,0-.3,0-.4-.1-.6-.4-1.4-.4-1.9-.1-.5.3-1,.2-1.4.3-1.3,0-2.6,0-3.9,0-1,0-1.9-.3-2.9-.3-1,0-2.1.2-3,0-.9-.3-1.8-.3-2.8-.3-.5,0-1.1-.3-1.6.3,0,0-.2,0-.3,0-1.5-.8-3,.3-4.5,0-1.6-.2-3.2,0-4.8,0-.4,0-.9-.2-1.3.3-.1.2-.6.2-.8,0-1.2-.6-2.4-.2-3.6-.4-1.4-.1-2.8.2-4.1-.3-.6-.2-1.4-.3-2.1.3-.3.3-1,0-1.5,0-.4,0-.8.3-1.2.3-.3,0-.7-.2-1.1-.3-.1,0-.2,0-.3,0-2,.7-4-.2-6,0-2,.2-4.1.1-6.1,0-1.1,0-2.3-.2-3.1-1.4-.3-.5-.3-1.1.1-1.4.4-.2.8-.5,1.2-.5.6,0,1.3-.2,1.9-.3,1.3-.2,2.6-.7,3.9-.4.4,0,.9-.2,1.3.3,0,0,.2.1.3,0,1.8-.8,3.7-.3,5.5-.3,1.6,0,3.1-.7,4.6-.4.9-.6,1.9-.5,2.7-.3,3.1.7,6.2.2,9.2.3,3.1,0,6.2,0,9.4,0,.5,0,1-.4,1.6,0,.6.3,1.3,0,2,0s1.3-.1,1.9,0c2.4.7,4.9.3,7.4.3,2.4,0,4.9.1,7.3,0,1.5,0,3-.4,4.5-.3.6,0,1.3-.3,1.9.3.2.2.8-.3,1.2-.3,1,0,2,0,3.1,0s2.8,0,4.3,0c.9,0,1.7-.3,2.6-.3.9,0,1.8,0,2.7,0,1.1,0,2.3.3,3.4.3,1.2,0,2.4-.2,3.6,0,2.1.5,4.2.3,6.3.3,2.1,0,4.2.1,6.3,0,1.2,0,2.3.4,3.4.4.5,0,1.3,1.5,1.1,2,0,0-.1.2-.2.2-1.1.5-2.2,1.2-3.5,1.1-1.9,0-3.9,0-5.8,0Z"/>
  <g>
    <polygon points="332.3 357.7 183.3 357.7 174.3 345.6 323.4 345.6 332.3 357.7"/>
    <path d="M308.6,347.5c-5.3,0-10.7,0-16,0-2,0-4-.2-6.1.3-1,.3-2.9-.4-4.8-.3-5,0-9.9,0-14.9,0-4.8.1-9.6.2-14.5.3-4.8,0-9.7-.2-14.3,0-4,.3-7.6-.2-11.4-.1-4.1.1-8.2.2-12.2,0-2.9-.2-5.8-.4-8.6-.3-1.8,0-3.5.4-5.4.4-1.8,0-3.9-.3-5.5.3-.1,0-.9,0-1.4-.1-2-.4-4.4-.4-6-.1-1.6.3-3,.2-4.5.3h-2.2s-1.1,0-1.1,0h-.1s0,0,0,0h0s0,0,0,0c0,0,0,0,0,0,0,0,0,0,0,0h0s0,0,0,0c0,0,0,0,.1.2l.2.2,1.3,1.9c.8,1.3,1.7,2.5,2.6,3.8.2.3.4.6.6.9h.1c0,.1.1.1.1.1h0s.5,0,.5,0c.6,0,1.2,0,1.8,0,1.2,0,2.4,0,3.5.1,3,.3,5.8.3,8.7.3,1.6,0,3.6.3,4.9-.3.1,0,.7,0,1,0,4.7.8,9.3-.3,14.1,0,4.9.2,9.9,0,14.9,0,1.3,0,2.7.2,4-.3.4-.2,1.8-.2,2.5,0,3.7.6,7.5.2,11.3.4,4.3.1,8.6-.2,12.9.3,1.8.2,4.3.3,6.5-.3,1-.3,3.1,0,4.7,0,1.3,0,2.5-.3,3.8-.3,1.1,0,2.2.2,3.3.3.3,0,.7,0,1.1,0,6.3-.7,12.5.2,18.8,0,6.3-.2,12.8-.1,19.2,0,3.5,0,7.1.2,9.5,1.4,1.1.5,1.1,1.1-.4,1.4-1.1.2-2.4.5-3.6.5-2,.1-4,.2-6,.3-4.1.2-8.1.7-12.3.4-1.3,0-2.8.2-3.9-.3-.2,0-.7-.1-.9,0-5.6.8-11.4.3-17.1.3-4.9,0-9.6.7-14.5.4-2.7.6-5.9.5-8.6.3-9.6-.7-19.3-.2-28.9-.3-9.8,0-19.5,0-29.3,0-1.7,0-3.1.4-5,0-1.8-.3-4.2,0-6.3,0s-4,.1-5.8,0c-.9,0-1.8-.1-2.8-.2h-1.4c0,0-2.3-.1-2.3-.1l-2.7-3.8-2.2-3c-2.2-3-4.5-6-6.7-9,1.4,0,2.7,0,4.1,0,4.5,0,9,0,13.5,0,3.8,0,7.6,0,11.4-.1,4.6,0,9.3-.4,13.9-.3,2,0,4.1-.3,6.1.3.6.2,2.4-.3,3.7-.3,3.2,0,6.4,0,9.6,0s8.9,0,13.3,0c2.7,0,5.4-.3,8.1-.3,2.8,0,5.7,0,8.5,0,3.6,0,7.2.3,10.7.3,3.7,0,7.6-.2,11.2,0,6.6.5,13.2.3,19.8.3,3.1,0,6.3,0,9.4,0h4.7c1.9,0,3.8,0,5.6,0,.3.4.6.8.9,1.2.3.5.7.9,1,1.4.3.4.5.7.8,1.1.5.7,1,1.5,1.5,2.2,1,1.5,1.9,3,3,4.4,1,1.4,1.2,4.1.4,3.8-.2,0-.4-.2-.6-.4-2.5-2.6-5-4.8-7.4-8.1l-1.4-1.9c-4.6,0-9.2,0-13.8,0Z"/>
  </g>
  <g>
    <path d="M210.1,310.2c-2.5-1.3-11.1-5.6-9.6-9.6,1.6-4.1,9,8.5,10,9.8-1-3.9-1.7-7.9-1.9-11.8,0-.8,0-1.7.3-2.4s1.4-1.2,2.1-.8c.7.4.7,1.3.8,2.1,0,4,0,8,0,12,2.8-3.7,6.2-6.8,10.1-9.2s1.9.2,1.7,1.1c-.3,2.1-2.2,4-4.3,4.9-2.7,1.2-5.8,1.6-8.1,3.5,3.1-.3,6.3-.5,9.4,0,2.2.4,4.4,1.3,6.2,2.7s.2,1.7-.7,1.6c-4.8-.9-9.6-2.2-14.1-4.1.9,2.5,3.3,4.2,5.2,6.2,1.9,1.9,3.5,4.7,2.5,7.2-1.5.7-3-.9-4-2.3-1.3-2-2.7-4.1-4-6.1-.6-1-1.3-2.1-1.2-3.2.7,4.9-.9,10-4.4,13.5-.7.2-1.2-.8-1.2-1.5-.3-4.5,1-9,3.6-12.7-3.4,1.5-7,2.5-10.7,3-1,.1-2.2.2-2.8-.7-1.7-2.7,2.8-3.4,4.4-3.3,3.6.2,7.2.3,10.9.5" fill="#aaca60"/>
    <path d="M196.9,312.3c.3,0,.7,0,1.1-.1l1.3-.2c.8-.2,1.7-.3,2.5-.6l1-.3c.4,0,.7-.2,1.1-.3.7-.2,1.5-.5,2.3-.8,1.6-.6,3.2-1.3,4.8-2,.4-.2.9-.4,1.3-.6.2,0,.5-.2.6-.2h.4c-1,1.4-1.9,2.9-2.4,4.3-.1.3-.4.8-.7,1.2-.2.2-.4.5-.5.8-.2.3-.4.5-.5.8-.7,1-1.3,2.1-1.5,2.9-.4,1.4-.7,2.8-.8,4.2,0,.7,0,1.4,0,2.2,0,.1,0,.1,0,.1h0c0,.1,0,.2,0,.2-.3.2-.7.5-.8.7-.1.2,0,.2-.1,0l-1.1-.6.3-.3c1.9-2.1,2.9-4.9,3.2-7.7.1-1.3.2-2.5,0-3.8h4.4s0,.5.4,1.1c.4.6.9,1.4,1.5,2,.9,1,1.5,2.2,2.1,3.3l.9,1.6c.3.4.6.8.9,1.1.2.2.4.3.5.3,0,0,0,.2,0,.2,0,0,0,.2,0,.2,0,.1,0,0,0-.2l-1.4,1c.1-.4.2-.8,0-1.3,0-.5-.3-1.1-.6-1.7,0-.2-.2-.3-.3-.5v-.3c-.1,0-.2-.1-.2-.1h0c0,0,0-.2,0-.2-.5-.7-1.1-1.3-1.7-1.9-.6-.6-1.2-1.2-1.7-1.8-.5-.6-.9-1.1-1.3-1.6-1-1.2-1.8-2.3-2.4-3.7-.1-.3-.3-.7-.4-1.1,0-.2-.2-.4-.2-.6,0,0,0-.1,0-.2,0-.1,0-.3-.3-.7,0-.2-.2-.3-.4-.5-.2-.2-.4-.5-.6-.8,0,0,0-.2-.1-.3.5.2,1.4.7,1.9.9,3.8,2,6.5,3,8.4,3.3,1.8.3,4.3,1,4.7,1.1,1.3.3,2.6.6,3.9.8h.2s0,0,0,0h0s-.3,1.6-.3,1.6h0s0,0,0,.1c0,0,0,0,0,0,0,0,0,0,0,0,0,0,0,0,0,0,0,0,0,0,0,0h0s-1,1.3-1,1.3h0s0,0,0,0h-.1c-.2-.3-.4-.4-.6-.6-1.3-.9-2.9-1.7-4.7-2-1.9-.3-4,0-5.9-.1-.7,0-1.5,0-2.2,0l-6.3.2,4.9-3.7c1.2-.9,2.5-1.5,3.7-2,1.1-.4,2.5-.5,3.1-1.4,0,0,.4-.2.6-.2.4,0,.7,0,1.1-.2.3,0,.6-.2.8-.4.5-.3,1-.8,1.3-1.2.3-.5.6-1,.7-1.4,0-.1,0-.2,0-.3h0c0-.1,0-.2,0-.2h0s0,0,0,0h0c-.9-.1,1.3.2,1.1.2h0s0,0,0,0c0,0,0,0,0,0,.1,0,0,0,0,0,0,0,0,0,0,0,0,0,0,0,0,0h0c0,0,0,0,0,0h0s.5.9.5.9h0s0,0,0,0c-.3.2-.7.4-1,.6-.7.4-1.3.9-1.9,1.4-.6.5-1.2,1-1.8,1.5l-.5.4-.7.7c-.2.2-.5.6-.8.8-.3.3-.5.6-.8.9-.3.3-.6.7-.9,1-.3.4-.6.8-.9,1.1-.6.8-1.2,1.7-1.9,3-.5.9-2,2.8-2.5,3.3h0c0,0,0-1,0-1v-1.1c.1-.7.1-1.3.2-2,0-1.3,0-2.4,0-3.6v-3.5s0-1.8,0-1.8v-1.6c0-1.4,0-2.9,0-4.3v-1s0-.3,0-.3c0,0,0,0,0,0,0,0,0,0,0,0h.1s.2-.1.2-.1c.3-.1.4-.3.5-.3,0,0,0,0,0,0h0s0,0,0,0h0s0,0,0,0c0,0,0,0,0,0,0,0,0,.5.1.7,0,0,0,0,0,0h0s0,0-.1-.1h0s0,0,0,0h0c.3.2,0,0,.2,0h0s0,0,0,0h0s0,0,0,0c0,0,0,0,0,0,0,0,0,0,0,0,0,0,0,.1,0,.2,0,.4.1,1.2.5,1.9.3.6.2,2,.4,3,.2.8.5,1.6.7,2.4.1.7,0,1.4,0,2.2,0,.2,0,.5.1.7.3.8.6,1.5.8,2.3l3.6,12-8-9.8c-.3-.3-.4-.5-.5-.7l-.4-.5-.7-1.1-1.3-2.1c-.8-1.4-1.7-2.8-2.8-3.9-.3-.3-.7-.7-1-1-.3-.3-.7-.5-.8-.6,0,0,0,0,0,0h0s0,0,0,0v-.2c0-.1.1-.2.1-.2,0-.1,0-.3.1-.4,0-.2,0-.2,0-.3,0,0,0-.2,0-.2,0,0,0,0,0,0,0,0,0,.1.3.3,0,0,.1,0,.3.2.2.1.3.2.5.3h.1s0,0,0,0h0s0,0,0,0c0,0,0,0,0,0,0,0,0,0,0,0,0,.1.2.8.8,1.4.5.6,1.3,1.3,2,1.9,1.7,1.3,3.7,2.6,4.6,4.3.4.8.2,1.3-.9,1.1-.8-.1-1.6-.3-2.4-.7-1.2-.6-2.5-1.2-3.7-2-1.2-.8-2.5-1.6-3.6-3-.5-.7-1-1.7-1.1-2.9,0-.6.1-1.2.3-1.8.2-.3.3-.6.6-1,.1-.2.3-.3.6-.5.2-.2.5-.3.8-.3.7-.2,1.3,0,1.8,0,.4.1.8.3,1.1.5.6.4.9.8,1.1,1.2,0,.1.3.4.5.5,1.7,1.2,2.9,2.7,4,4.3.5.8,1,1.6,1.5,2.4l.7,1.2c.2.4.5.8.7,1l-3.1,1.6v-.4c-1-3.2-2.2-6.4-2.2-9.8-.2-.5-.4-.9-.5-1.4-.1-.5-.2-1-.2-1.8,0-.7.2-1.7.7-2.6.6-1.1,1.5-1.7,2.7-2,.8-.2,1.9-.2,2.9.3.9.5,1.5,1.4,1.7,2.1.4,1.4.2,2.2.2,2.8,0,1.3,0,2.7,0,4v.8s0,.4,0,.4v.3s0,.1,0,.1h0c0,0,0,0,0,0,.1-.2.2-.3.4-.4l.4-.3.8-.7c.3-.3.7-.6,1-.8.7-.6,1.4-1.1,2.1-1.6.4-.3.7-.5,1.1-.7l.5-.4.3-.2h.1c0,0,.1-.2.1-.2h.2c1.1-.7,2.5-.5,3.4.2,1,.7,1.5,2,1.3,3.2-.2,1.3-.7,2.3-1.4,3.2-.6.9-1.4,1.6-2.2,2.2-.4.3-.8.6-1.3.8-.2.1-.5.2-.7.4l-.6.3c-1.2.5-2,1.1-3.3,1.2-1.2.1-2.5.8-3.3,1.4-.1,0-.2.2-.4.3l-1.6-3.9c1.1-.1,2.3-.3,3.4-.2,2.7.2,5.5.3,8.3,1.1,1.4.4,2.8,1,4,1.7.3.2.6.4.9.6l.2.2h.1c0,.2.2.2.3.3.3.3.6.8.7,1.3.2,1-.2,2-1,2.7-.4.3-.9.5-1.4.6-.3,0-.5,0-.7,0-.2,0-.2,0-.3,0-1-.2-2-.4-3-.7l-1.5-.4-.7-.2h-.2c0,0-1.9-.6-1.9-.6h-.4c0-.2-.1-.2-.2-.2,0,0,.1.2.2.3.4.5,1,.9,1.3,1.2.2.1.3.2.5.3.2.2,0,0,.7,1,.4.7.9,1.4,1.2,2.2.3.8.5,1.8.2,2.8,0,.4,0,1.5-.2,2.6l-.2.7-.9.5c-.4.2-.9.4-1.4.4-1.2,0-2.2-.4-2.9-.9-.7-.5-1.2-1-1.6-1.5-.9-1.1-1.3-2-2-2.9l-2.4-3.6c-.4-.6-.8-1.2-1.3-2-.4-.8-.9-2-.7-3.4l2-17.4,2.4,17.4v.3c.4,2.1.5,4.2.1,6.3-.4,2.2-1.3,4.3-2.5,6.1-.7,1-1.5,2-2.5,2.8l-.4.4-.5.2c-.6.2-1.6.2-2.3-.2-.7-.4-1-.8-1.3-1.1-.5-.7-.6-1.3-.7-1.9,0-.2,0-.3,0-.5v-.8s0-1.1,0-1.1c0-1.4.2-2.8.5-4.2.1-.7.3-1.4.5-2,0,0,.1-.2.2-.3.3-.3.6-.7.8-1.1h0c0-.1,0-.2,0-.1h-.1s-.3.2-.3.2l-.7.3h-.4c0,.1-.2.2-.2.2h-.5c-.8.3-1.6.5-2.5.7-.6,0-1.1.2-1.7.3-.5,0-1.2.2-2.1.1-.4,0-.9-.1-1.4-.4-.5-.2-1-.7-1.3-1.1-.3-.5-.5-.7-.6-1.3v-.4c-.1-.1-.1-.3-.1-.5,0-.3,0-.6.2-1,.2-.6.6-1.1,1-1.4.4-.3.7-.5,1.1-.7.7-.3,1.4-.5,2-.7.7-.1,1.3-.2,2-.2h.9s.8,0,.8,0c2.5,0,4.8.6,7.2.7,1.1,0,2.6,1.6,2.1,2.1,0,0-.3.2-.5.2-2.4.4-4.7,1-7.4.8l-3-.2c-.7,0-1.7.1-2.3.4-.3.1-.6.3-.6.3-.3-.2-.5-.3-.5-.3,0,0,.3,0,.6,0,0,0,0,0,0,0h0c0,0,0,.1,0,.1h0s0,0,0,0h0s0,0,0,0h-.1c0,0,0,0,0,0h0c-.2.1-.2.2,0,0,0,0,0,0,0-.2,0,0,0,0,0,0,0,0,0,0,0,0,0,0,.2,0,.4,0Z" fill="#aaca60"/>
  </g>
  <path d="M330,304.9c.4-.8.9-1.7,1.3-2.6.1-.3.5-.5.2-1.1-.2-.3.6-.3.7-.6.3-.8.7-1.6,1-2.5.3-.8.4-1.7.6-2.5.2-.8.8-1.5.8-2.4,0-.8.7-1.2.8-1.9.1-.7.3-1.5.7-2.1.3-.4.7-.9.7-1.4,0-.3-.2-.7,0-1,.1-.3.5-.6,0-1,0,0,.1-.1.2-.2.5-.2.6-.6.4-1-.2-.4,0-.6,0-.8.2-.7.4-1.4.6-2.1.2-.5.6-1,.8-1.5.2-.5.1-1.2.5-1.6.4-.4.6-.9.7-1.4,0-.3.5-.5,0-1,0,0,0-.1,0-.2,1-.6.2-1.7.6-2.5.4-.8.5-1.7.7-2.6,0-.2.3-.4,0-.8-.1-.1,0-.4,0-.5.8-.5.6-1.3.9-1.9.3-.7.3-1.6.9-2.2.3-.3.5-.7,0-1.2-.2-.3.2-.5.2-.8,0-.2-.2-.5-.1-.8,0-.2.3-.3.5-.5,0,0,0-.1,0-.2-.3-1.3.9-2.1,1.1-3.3.2-1.2.6-2.3,1.1-3.4.3-.6.7-1.2,1.9-1.2.5,0,1.1.2,1.3.5.2.3.3.6.3.8,0,.4,0,.8,0,1.1,0,.8.2,1.6-.3,2.2-.2.2,0,.6-.5.6,0,0-.1,0-.1.1.5,1.2-.4,2-.6,3.1-.2.9.2,1.9-.3,2.6.5.6.2,1.2-.1,1.6-1.1,1.5-1.2,3.3-1.7,5-.6,1.7-.9,3.4-1.4,5.1,0,.3.2.6-.2.9-.3.3-.3.7-.4,1.1,0,.3,0,.7-.3,1-1,1.2-1,2.6-1.5,4-.5,1.3-.9,2.7-1.2,4-.2.8,0,1.8-.5,2.5-.2.3,0,.8-.6,1-.2,0,.1.5,0,.7-.1.6-.4,1.1-.6,1.7-.3.8-.6,1.5-.8,2.3-.1.5,0,1-.2,1.5-.1.5-.3,1-.6,1.5-.3.6-.8,1.1-1.1,1.7-.3.6-.4,1.4-.9,1.9-1,.9-1.2,2.1-1.9,3.2-.6,1.1-1.2,2.1-1.7,3.2-.3.6-1,.9-1.4,1.5-.2.3-1.6-.1-2-.5,0,0-.1-.2-.1-.2,0-.8-.4-1.7,0-2.3.3-.4.6-.9.8-1.4l.7-1.4Z"/>
  <path d="M258.9,252.6c.5-1.1,1-2.3,1.4-3.4.2-.4.6-.8.3-1.4-.2-.3.6-.5.7-.9.4-1.1.9-2.1,1.2-3.2.4-1.1.5-2.2.9-3.2.3-1.1,1-2,1.1-3.1,0-1,.8-1.6,1-2.4.2-.9.4-1.9.9-2.7.4-.6.8-1.1.9-1.8,0-.4-.1-.9,0-1.3.1-.4.5-.8,0-1.3,0,0,.1-.2.2-.3.5-.3.7-.9.5-1.3-.2-.4,0-.7,0-1.1.2-.9.5-1.8.8-2.7.3-.7.7-1.3,1-2,.3-.7.3-1.6.8-2.1.5-.6.7-1.2.9-1.9.1-.4.6-.7,0-1.2,0,0,0-.2,0-.2,1.2-.8.6-2.2,1.2-3.2.7-1,1-2.2,1.6-3.3.1-.3.5-.5.2-1,0-.2,0-.5.2-.6,1-.5,1.1-1.5,1.7-2.2.7-.8,1.1-1.9,2.1-2.4.4-.2.9-.6.8-1.4,0-.4.5-.6.7-.9.2-.3.2-.7.4-.9.2-.2.5-.2.8-.3,0,0,.2-.1.2-.2.7-1.6,2.5-1.9,3.8-2.9,1.3-1.1,3-1.8,5-2,1.1-.1,2.4.3,2.7,1.6.1.6-.1,1.1-.5,1.3-.3.2-.6.3-.8.4-.4,0-.7.2-1.1.3-.7.3-1.2,1-2.1,1.2-.3,0-.4.5-.8.1,0,0-.2,0-.2,0-.5,1.3-1.9,1.6-2.7,2.5-.8.8-1,1.9-1.9,2.5,0,.9-.4,1.3-.9,1.6-1.8,1.2-2.6,3.3-3.6,5.1-1.1,1.9-1.9,3.9-2.7,6-.1.4,0,.8-.3,1.1-.4.3-.4.9-.5,1.3-.1.4-.2.9-.4,1.3-1.2,1.5-1.3,3.3-1.9,5-.6,1.7-1.2,3.4-1.5,5.1-.2,1.1-.2,2.2-.7,3.2-.2.4,0,1-.7,1.3-.2,0,0,.6,0,.9-.2.7-.5,1.4-.7,2.1-.4,1-.7,1.9-1.1,2.9-.2.6-.2,1.3-.3,1.9-.2.6-.4,1.3-.7,1.9-.4.8-.9,1.5-1.2,2.2-.4.8-.5,1.7-1,2.4-1.1,1.2-1.4,2.8-2.1,4.2-.6,1.4-1.3,2.8-1.8,4.2-.3.8-1.1,1.4-1.4,2.1-.2.4-1.7.3-2.1,0,0,0-.1-.2-.2-.2,0-.9-.5-1.9,0-2.8.6-1.3,1.1-2.6,1.7-3.9Z"/>
  <path d="M314,301.4c-.5-1.2-.9-2.3-1.5-3.5-.2-.4-.1-1-.8-1.2-.3-.1,0-.8-.1-1.2-.5-1-.9-2.2-1.4-3.2-.5-1-1.1-2-1.6-3-.5-1-.7-2.2-1.4-3.1-.6-.8-.5-1.7-.9-2.5-.5-.8-.9-1.7-1.1-2.7,0-.7-.1-1.4-.5-2-.2-.4-.7-.6-.8-1-.1-.4,0-1-.8-1.1,0,0,0-.2,0-.4.2-.6,0-1.1-.4-1.3-.4-.2-.5-.6-.6-.9-.4-.9-.8-1.8-1.1-2.7-.2-.7-.3-1.4-.5-2.1-.2-.7-.8-1.4-.7-2.1,0-.8-.2-1.4-.5-2-.1-.4,0-.9-.7-.9,0,0-.1-.1,0-.2.4-1.3-1-1.9-1.3-3.1-.2-1.2-.8-2.2-1.2-3.3-.1-.3,0-.7-.6-.8-.2,0-.3-.3-.3-.5.3-1-.4-1.7-.6-2.6-.2-1-.9-1.8-.8-3,0-.5,0-1.1-.8-1.3-.3-.1-.3-.7-.4-1-.2-.3-.5-.4-.6-.7,0-.2,0-.6,0-.8,0,0,0-.2,0-.2-1.1-1.1-.8-2.8-1.5-4.2-.7-1.3-1.2-2.8-1.6-4.2-.2-.8-.4-1.7.5-2.6.4-.4.9-.6,1.3-.4.3.2.6.4.8.6.3.4.5.8.8,1.2.5.8,1.3,1.5,1.4,2.6,0,.3.4.6,0,1,0,0,0,.2,0,.2,1.2,1,1.2,2.4,1.7,3.6.5,1,1.4,1.9,1.6,3,.8.4,1,1.1,1,1.8.2,2.3,1.4,4.3,2.1,6.4.7,2.2,1.7,4.3,2.5,6.4.1.4.6.5.5,1.1,0,.5.3.9.5,1.4.2.4.5.8.5,1.3,0,1.9,1.1,3.4,1.7,5.1.6,1.7,1.2,3.4,2,5,.5,1,1.2,1.8,1.5,2.9.1.5.6.8.3,1.4-.1.2.5.4.6.7.3.7.6,1.4.9,2.1.4,1,.8,1.9,1.2,2.9.3.6.7,1.1,1,1.6.3.6.6,1.2.8,1.8.3.8.4,1.7.6,2.5.3.8.9,1.6.9,2.4.1,1.6,1,3,1.5,4.4.5,1.4,1.1,2.9,1.8,4.2.4.8.3,1.7.6,2.5.2.4-1,1.4-1.5,1.5-.1,0-.2,0-.3,0-.8-.6-1.7-1-2.1-1.9-.5-1.3-1.1-2.6-1.6-3.9Z"/>
  <path d="M255.1,467.4c-.3-2.7-.7-5.4-1.1-8.1-.2-1,0-2.1-.7-3-.3-.5.2-1.5,0-2.5-.4-2.5-.6-5-.9-7.6-.3-2.4-.8-4.9-1.1-7.3-.3-2.4-.2-5-.7-7.3-.4-2,0-3.9-.3-5.9-.2-2.1-.4-4.2-.2-6.3.1-1.5.3-3,.2-4.4,0-.9-.4-1.8-.4-2.8,0-.9.3-2-.3-2.8,0,0,0-.5.2-.7.4-1,.4-2.2.2-3.1-.2-.8-.2-1.6-.1-2.3,0-2.1.2-4.2.5-6.3.2-1.6.6-3.1.9-4.7.3-1.6.3-3.4.9-4.9.3-.7.5-1.4.7-2.2.2-.7.4-1.4.6-2.2.2-.8.8-1.7.4-2.6,0,0,0-.4.2-.5,1.6-2,1.5-4.7,2.9-6.9.7-1.1,1.4-2.2,2.2-3.4.4-.6.8-1.1,1.2-1.7l.6-.8.7-.8c.5-.5,1.1-1,1.3-1.8,0-.3.6-.8,1-1,.5-.2.9-.5,1.3-.8.4-.3.9-.6,1.3-.9.4-.3.8-.7,1.2-1,.4-.3.9-.6,1.3-.8,2-1.2,4.1-2.4,6.4-2.8,1-.1,2.3-.5,3.2-1.3.5-.4,1.6-.4,2.4-.7.7-.2,1.3-.6,1.9-.7.6-.1,1.2,0,1.8,0,.2,0,.4,0,.6,0,3.2-1.1,6.6-.4,9.9-.6,3.3-.2,6.6,0,9.9.3,1.8.2,3.6.5,4.8,1.8.5.6.5,1.1-.3,1.4-.6.2-1.2.4-1.9.4-1,0-2,0-3,.1-2.1,0-4.1.5-6.2.2-.7,0-1.4.2-2-.3,0,0-.3-.1-.5,0-2.8.8-5.7.4-8.5.8-2.4.4-4.5,1.3-6.9,1.7-1.1.9-2.5,1.3-3.8,1.6-4.5,1.1-8.3,3.9-11.3,7.3-3.2,3.3-5.4,7.6-7,12-.3.8-.1,1.5-.7,2.4-.5.8-.6,2-.9,3-.2.9-.3,2-.6,2.8-1.4,3.6-1.4,7.5-1.8,11.3-.4,3.8-.6,7.7-.4,11.5,0,1.2.2,2.3.2,3.5.1,1.2.2,2.3.1,3.5,0,1,.3,2.1-.2,3.1-.2.3.3,1.2.4,1.9,0,1.6.2,3.2.3,4.8.1,2.2.3,4.5.5,6.7.2,1.4.5,2.7.7,4,.2,1.4.4,2.9.4,4.3.1,1.8.1,3.6.3,5.5.2,1.9.7,3.8.6,5.6,0,3.4.6,6.7,1,10,.4,3.3.8,6.7,1.3,10,.3,1.9,0,3.7.2,5.5,0,.9-1.2,2.2-1.8,1.9-.1,0-.2-.2-.3-.3-.7-1.8-1.6-3.3-1.8-5.4-.3-3-.7-6.1-1.1-9.1Z"/>
  <path d="M282.8,494.7c-.3.8-.5,1.5-.9,2.4-.3.8-.7,1.8-1.4,2.7-.5.7-1.4,1.1-2,1.9-.4.5-1.4.1-2.1.2-1,.2-1.8.1-2.7,0-.8,0-1.5-.1-2.3-.2-1.5,0-3,0-4.5,0-1.5,0-3-.5-4.4-.3-1.3.1-2.3-.5-3.5-.5-1.3,0-2.6,0-3.8-.5-.9-.3-1.7-.6-2.6-.6-.6,0-1.1.2-1.7.1-.6-.1-1.1-.5-1.7,0,0,0-.3-.1-.4-.2-.5-.5-1.3-.6-1.8-.4-.5.2-1,0-1.4,0-1.3-.2-2.5-.4-3.8-.8-.9-.3-1.8-.7-2.7-1-1-.3-2.1-.3-2.9-.8-.8-.5-1.7-.8-2.5-1-.5-.1-1-.6-1.6-.1,0,0-.2,0-.3,0-.6-.6-1.3-.8-2-.9-.3,0-1.1-.2-1.7-.5-.6-.3-1.2-.7-1.6-1.1-.9-1-1.4-2-1.5-3.2,0-1.2.5-2.4,1.5-3.1.5-.4,1.3-.6,1.7-1.2,0-.1.3-.2.6-.4.1,0,.3-.1.4-.1,0,0,.1,0,.2,0,1.3.2,2.3-.5,3.5-.8,1.3-.3,2.6-.9,4-.8.6,0,1.4,0,1.9-.8.2-.3,1-.2,1.4-.4.4-.1.7-.5,1.1-.6.3,0,.7,0,1.1.1.1,0,.2,0,.3,0,1.8-1,3.9-.5,5.9-.9,2-.5,4-.6,6-.7,1.1,0,2.3,0,3.1,1.2.4.5.4,1.1,0,1.4-.3.3-.7.5-1.1.6-.6.1-1.2.3-1.8.5-1.2.3-2.4.9-3.7.8-.4,0-.8.3-1.2-.1,0,0-.2,0-.3,0-1.6,1-3.4.8-5.1,1.1-1.4.3-2.7,1.2-4.2,1.3-.6.8-1.6.9-2.4.9-1.5,0-2.9.4-4.3.8-.7.2-1.4.5-2.1.7l-.8.3c0,0-.1,0-.2,0-.1,0-.3,0-.3.2,0,.1,0,.3.2.4.1,0,.2.2.4.2l2,.7c.5.2,1,0,1.5.4.5.4,1.2.4,1.8.6.6.2,1.2.2,1.7.5,2.1,1.2,4.4,1.4,6.7,1.9,2.3.5,4.5,1,6.9,1.2,1.4.1,2.8,0,4.2.3.6.1,1.3-.1,1.8.5.1.2.8-.2,1.2-.2,1,0,1.9.2,2.9.3,1.3.2,2.7.3,4,.4.8,0,1.7-.1,2.5-.1.9,0,1.7,0,2.6.2,1.1.2,2.2.5,3.2.6,1.1.1,2-.1,2.6,0,.6,0,1-.2,1.4-.7.4-.6.7-1.5,1-2.4.7-1.9,1.4-3.8,2-5.7.3-1.1,1.1-1.9,1.5-3,.2-.5,1.8-.7,2.2-.3,0,0,.1.2.2.3,0,1.2.4,2.4,0,3.5-.7,1.7-1.2,3.5-1.9,5.2Z"/>
  <path d="M285.8,500.5c0-.2-.1-.5-.3-.7,0,0,.2-.3-.4-.2-.3,0,.3-.2.3-.3-.1-.2-.1-.5-.3-.7-.1-.2-.4-.3-.5-.5-.1-.2,0-.5-.3-.6-.3,0,0-.4,0-.5-.2-.1-.3-.3-.2-.6.1-.2.3-.4.1-.5,0,0-.4,0-.4-.1,0,0,.2-.3-.4-.1,0,0,0,0,.1-.1.4-.2.3-.3,0-.3-.3,0-.3,0-.3-.1,0-.2-.2-.3-.2-.5s.2-.4.2-.5c0-.2-.3-.2,0-.4.2-.2.2-.3.1-.5,0,0,.2-.2-.4-.1,0,0,0,0,0,0,.7-.5-.4-.3-.3-.6.1-.3,0-.5-.2-.7,0,0,.1-.2-.3,0-.2,0-.2,0,0,0,.5-.4.1-.4.2-.6,0-.2-.3-.3.1-.7.2-.1.2-.3-.4-.2-.3,0,0-.1-.1-.2,0,0-.3,0-.4,0,0,0,.2-.2.3-.3,0,0,0,0,0,0-.7,0,0-.6-.2-.9-.3-.2-.3-.5-.3-.8,0-.2.1-.4,1.2-.9.5-.2,1-.4,1.3-.4.2,0,.5,0,.6,0,.1,0,.3.1.4.2.2.1.8.1.6.4,0,0,.2,0-.2.3,0,0,0,0,0,0,.8,0,.4.4.6.7.1.2.8.2.6.5.6,0,.6,0,.4.3-.5.6,0,.9.1,1.4,0,.5.3.9.4,1.3,0,0,.4,0,.1.2-.2.2,0,.2,0,.3,0,0,.2.1,0,.3-.5.5,0,.8,0,1.1,0,.4,0,.7.4,1,.2.2.6.3.5.5,0,.1.3,0-.2.4-.2,0,.3,0,.3,0,0,.1.1.3.2.4,0,.2,0,.4.2.6,0,.1.3.2.4.3.1.1.1.2.1.4,0,.2-.2.4-.2.6,0,.2.3.3.1.5-.4.5,0,.7,0,1,0,.3,0,.6.3.9.1.1-.3.5-.2.6,0,0-1.3.6-1.8.8,0,0-.2,0-.2,0-.5,0-1.2,0-1.2-.1,0-.3-.2-.5-.2-.8Z"/>
  <path d="M306.4,500.8c-.3,0-.6,0-1,0-.1,0-.2-.2-.4.3,0,.3-.2-.4-.3-.3-.3,0-.6,0-.9,0-.3,0-.6.3-.9.4-.3,0-.6-.2-.9.1-.2.3-.5-.2-.7,0-.2.1-.5.2-.7,0-.2-.2-.4-.4-.5-.3-.1,0-.2.4-.3.4-.1,0-.2-.3-.3.4,0,0,0,0,0-.1-.1-.4-.3-.4-.4,0,0,.3-.2.2-.3.3-.2,0-.5,0-.7,0-.2,0-.4-.3-.6-.3-.2,0-.4.2-.6,0-.2-.3-.4-.3-.5-.2,0,0-.2-.3-.3.4,0,0,0,0,0,0-.3-.8-.5.3-.8.1-.3-.2-.6,0-.9,0,0,0-.2-.2-.2.3,0,.2,0,.2-.1,0-.3-.6-.5-.2-.7-.3-.3,0-.5.2-.8-.2-.1-.2-.3-.3-.4.3,0,.3-.2,0-.3,0,0,0-.1.3-.2.4,0,0-.2-.2-.2-.3,0,0,0,0,0,0-.3.7-.8-.1-1.1,0-.4.2-.7.2-1.1.1-.2,0-.5-.2-.7-1.3-.1-.5-.2-1.1-.1-1.4,0-.2,0-.5.2-.5.1-.1.2-.3.3-.4.2-.2.4-.8.7-.5,0,0,.1-.2.3.3,0,0,0,.1,0,0,.3-.8.7-.3,1-.4.3,0,.5-.7.8-.5.1-.6.3-.6.5-.4.6.6,1.2.1,1.8.1.6,0,1.2-.1,1.8-.1.1,0,.2-.4.3,0,.1.3.3,0,.4,0,.1,0,.2-.2.4,0,.5.6,1,.2,1.4.2.5,0,.9,0,1.4-.1.3-.1.5-.5.8-.4.1,0,.2-.3.4.3,0,.2.1-.3.2-.3.2,0,.4,0,.6,0,.3,0,.5,0,.8,0,.2,0,.3-.3.5-.4.2,0,.3,0,.5,0,.2,0,.4.3.7.3.2,0,.5-.2.7,0,.4.5.8.2,1.2.3.4,0,.8,0,1.2,0,.2,0,.4.4.7.4.1,0,.3,1.5.2,2,0,0,0,.2,0,.2-.2.5-.4,1.2-.6,1.2-.4,0-.7,0-1.1,0Z"/>
  <path d="M303.5,487.5c0-1.7,0-3.3,0-5,0-.6.2-1.3-.3-1.9-.3-.3.4-.9.3-1.5,0-1.6,0-3.1,0-4.7,0-1.5-.3-3-.3-4.5,0-1.5.3-3.1,0-4.5-.3-1.3.2-2.4.1-3.6-.1-1.3-.2-2.6,0-3.8.2-.9.4-1.8.3-2.7,0-.6-.4-1.1-.3-1.7,0-.6.3-1.2-.3-1.7,0,0,0-.3.2-.4.4-.6.4-1.4.1-1.9-.3-.5-.2-.9-.2-1.4,0-1.3,0-2.6,0-3.8,0-1,.3-1.9.4-2.9,0-1-.2-2.1.1-3,.3-.9.3-1.8.3-2.7,0-.5.3-1.1-.3-1.5,0,0,0-.2,0-.3.8-1.5-.2-2.9,0-4.4.2-1.5,0-3.1,0-4.7,0-.4.2-.9-.3-1.2-.2-.1-.2-.6,0-.8.6-1.1.3-2.4.4-3.5.1-1.3-.2-2.7.3-4.1.2-.6.3-1.4-.3-2-.3-.3,0-1,0-1.5,0-.4-.3-.8-.3-1.2,0-.3.2-.7.3-1,0-.1,0-.2,0-.3-.7-2,.2-3.9,0-5.9-.2-2-.1-4,0-6,0-1.1.2-2.2,1.4-3,.5-.3,1.1-.4,1.4.1.2.3.5.7.5,1.1.1.6.2,1.3.3,1.9.2,1.3.8,2.5.5,3.9,0,.4.2.9-.3,1.2,0,0-.1.2,0,.3.8,1.8.3,3.6.3,5.4,0,1.5.7,3,.4,4.5.6.8.5,1.8.3,2.7-.7,3-.3,6-.4,9.1-.1,3.1,0,6.1-.1,9.2,0,.5.3,1,0,1.6-.3.6,0,1.3,0,2,0,.6.1,1.3,0,1.8-.7,2.4-.3,4.8-.4,7.2,0,2.4-.2,4.8,0,7.2,0,1.5.4,2.9.3,4.4,0,.6.3,1.3-.3,1.9-.2.2.3.8.3,1.2,0,1,0,2,0,3,0,1.4,0,2.8,0,4.2,0,.8.3,1.7.3,2.5,0,.9,0,1.8,0,2.7,0,1.1-.3,2.2-.4,3.4,0,1.2.2,2.4,0,3.5-.5,2.1-.3,4.1-.3,6.2,0,2.1,0,4.1,0,6.2,0,1.2-.4,2.2-.4,3.4,0,.5-1.5,1.3-2,1.1,0,0-.2-.1-.2-.2-.5-1.1-1.2-2.1-1.2-3.4,0-1.9,0-3.8,0-5.7Z"/>
  <path d="M181.2,442c.6-2.6,1.3-5.3,1.8-7.9.2-1,.7-1.9.4-3.1-.1-.6.7-1.4.9-2.3.5-2.5,1.2-4.9,1.8-7.4.6-2.4.9-4.8,1.5-7.3.6-2.4,1.5-4.7,1.9-7.1.3-2,1.3-3.7,1.8-5.6.5-2,1.1-4.1,2-6,.7-1.3,1.3-2.7,1.7-4.1.3-.9.3-1.8.6-2.7.4-.9,1-1.8.7-2.7,0,0,.2-.4.4-.6.8-.8,1.2-1.9,1.3-2.8,0-.9.4-1.5.7-2.2.8-1.9,1.7-3.9,2.7-5.8.8-1.4,1.7-2.7,2.5-4.1.8-1.4,1.5-3.1,2.6-4.3.5-.6,1-1.2,1.5-1.8.5-.6.9-1.2,1.3-1.8.5-.7,1.4-1.3,1.3-2.3,0,0,.2-.3.3-.4,2.2-1.4,3.1-3.9,5.2-5.5,1-.8,2.1-1.6,3.2-2.4.5-.4,1.1-.8,1.7-1.1l.8-.6.9-.5c.6-.3,1.4-.6,1.8-1.2.2-.2.9-.6,1.2-.6.5,0,1-.2,1.5-.3.5-.1,1-.2,1.5-.4.5-.1,1-.3,1.5-.5.5-.1,1-.2,1.5-.3,2.3-.4,4.6-.8,7-.4,1,.2,2.3.4,3.5-.1.6-.2,1.7.2,2.5.2.7,0,1.4-.1,2.1,0,.6,0,1.1.4,1.7.7.2,0,.4.1.5.1,3.4,0,6.3,1.9,9.5,2.8,3.2,1,6.2,2.3,9.2,3.8,1.6.8,3.2,1.7,3.8,3.3.3.7,0,1.2-.8,1.2-.6,0-1.3,0-1.9-.3-1-.3-1.9-.6-2.9-1-2-.7-4-1-5.9-2-.6-.3-1.4-.3-1.7-1,0,0-.3-.2-.4-.2-2.9-.2-5.5-1.6-8.2-2.3-2.4-.5-4.7-.4-7-.8-1.4.5-2.8.3-4.1.1-4.6-.6-9.2.8-13.2,2.9-4.2,2-7.7,5.3-10.7,8.8-.5.6-.7,1.4-1.5,2-.8.5-1.2,1.6-1.8,2.5-.5.8-1,1.7-1.6,2.4-2.5,2.9-4,6.5-5.6,10-1.7,3.5-3.2,7-4.4,10.6-.4,1.1-.7,2.2-1,3.4-.3,1.1-.6,2.3-1.1,3.3-.4.9-.4,2-1.3,2.8-.2.2-.1,1.3-.3,1.9-.5,1.5-.9,3.1-1.4,4.6-.7,2.1-1.3,4.3-1.8,6.5-.3,1.3-.4,2.7-.7,4-.3,1.4-.7,2.8-1.1,4.2-.5,1.7-1.2,3.4-1.7,5.2-.5,1.8-.7,3.8-1.4,5.5-1.3,3.2-1.8,6.5-2.6,9.7-.8,3.2-1.6,6.5-2.3,9.8-.4,1.9-1.3,3.4-1.7,5.2-.2.8-1.9,1.6-2.3,1.1,0,0-.1-.3-.1-.4,0-1.9-.3-3.6.2-5.7.8-3,1.4-6,2.1-8.9Z"/>
  <path d="M197.6,477.3c-.5.6-1,1.2-1.6,1.9-.6.7-1.3,1.4-2.3,2-.8.5-1.7.5-2.6,1.1-.5.3-1.3-.4-2-.5-1-.2-1.8-.5-2.5-.9-.7-.3-1.4-.7-2.1-1-1.4-.6-2.8-1-4.2-1.6-1.4-.6-2.6-1.5-4-1.9-1.2-.3-2-1.3-3.1-1.7-1.2-.5-2.4-1-3.3-1.8-.7-.6-1.4-1.2-2.2-1.5-.5-.2-1.1-.2-1.7-.5-.5-.3-.9-.9-1.6-.6,0,0-.2-.2-.3-.3-.3-.7-1-1-1.6-1-.6,0-.9-.3-1.3-.5-1.1-.6-2.2-1.3-3.3-2-.8-.6-1.5-1.3-2.2-1.9-.8-.6-1.8-1-2.4-1.8-.6-.8-1.3-1.3-2-1.8-.4-.3-.7-.9-1.4-.7,0,0-.2-.1-.3-.2-.3-.8-.9-1.2-1.6-1.5-.3-.1-1-.6-1.4-1.1-.5-.5-.9-1-1.1-1.6-.5-1.2-.6-2.4-.3-3.5.4-1.2,1.3-2,2.5-2.4.6-.2,1.4,0,2-.5.1,0,.4-.1.7-.1.2,0,.3,0,.4,0,0,0,.1,0,.2,0,1.1.7,2.4.3,3.5.5,1.3.2,2.7,0,4,.6.6.3,1.3.5,2.1,0,.3-.2,1,.1,1.5.1.4,0,.8-.2,1.2-.2.3,0,.6.3,1,.5,0,0,.2,0,.3,0,2.1-.3,3.8.9,5.8,1.2,2,.3,3.9.8,5.8,1.5,1.1.4,2.1.9,2.4,2.2.2.6,0,1.1-.5,1.3-.4.1-.8.2-1.2.2-.6,0-1.2-.1-1.8-.2-1.2-.2-2.5,0-3.7-.5-.4-.2-.9,0-1.1-.6,0,0-.2-.2-.3-.1-1.8.4-3.4-.5-5.2-.7-1.5-.2-2.9.2-4.4-.2-.9.5-1.8.3-2.6,0-1.4-.5-2.8-.6-4.3-.7-.7,0-1.4,0-2.2,0h-.9c0,0-.1,0-.2,0-.1,0-.3,0-.4.1,0,.1,0,.3,0,.4,0,.1.2.2.3.3l1.6,1.3c.4.3.9.3,1.2.9.3.5,1,.8,1.5,1.2.5.3,1.1.6,1.4,1,1.5,1.9,3.7,2.8,5.6,4.1,1.9,1.3,3.9,2.5,6,3.5,1.3.6,2.7,1,3.9,1.8.5.3,1.2.3,1.5,1.1,0,.2.8,0,1.1.2.9.4,1.7.9,2.6,1.3,1.2.6,2.4,1.2,3.7,1.8.8.3,1.6.5,2.4.8.8.3,1.6.7,2.4,1.1,1,.5,1.9,1.2,2.8,1.7,1,.5,1.9.6,2.5.9.6.3,1,.2,1.6-.2.6-.4,1.1-1.1,1.8-1.9,1.3-1.5,2.7-3,3.9-4.7.7-.9,1.7-1.4,2.4-2.3.3-.4,1.9,0,2.2.5,0,0,0,.2,0,.3-.3,1.1-.4,2.4-1.3,3.3-1.2,1.4-2.4,2.8-3.6,4.3Z"/>
  <path d="M198.4,483.8c0-.2,0-.5,0-.8,0,0,.2-.2-.3-.3-.3,0,.4-.1.4-.2,0-.2,0-.5,0-.7,0-.2-.3-.5-.3-.7,0-.2.3-.4,0-.7-.3-.2.2-.3.1-.5-.1-.2-.2-.4,0-.6.2-.1.4-.3.3-.4,0,0-.4-.2-.4-.3,0,0,.3-.2-.3-.3,0,0,0,0,.1,0,.4,0,.4-.2.1-.3-.3,0-.2-.2-.2-.2,0-.2,0-.4,0-.6,0-.1.3-.3.4-.4,0-.1-.2-.3,0-.4.3-.1.3-.3.3-.4,0,0,.3-.2-.3-.2,0,0,0,0,0,0,.8-.2-.2-.4,0-.7.2-.2,0-.5,0-.7,0,0,.2-.1-.3-.2-.2,0-.2,0,0-.1.6-.1.3-.3.4-.5.1-.2-.2-.4.3-.6.2,0,.3-.2-.3-.3-.3,0,0-.1,0-.2,0,0-.3-.1-.3-.2,0,0,.2,0,.3-.1,0,0,0,0,0,0-.7-.3.2-.6,0-.9-.2-.3,0-.6,0-.9,0-.2.3-.3,1.4-.4.5,0,1.1,0,1.4,0,.2,0,.5.1.5.2,0,0,.2.2.3.3.2.2.7.4.4.6,0,0,.2.1-.3.2,0,0-.1,0,0,0,.8.3.3.5.3.8,0,.2.7.5.4.7.6.1.5.3.3.4-.7.4-.3.9-.4,1.3-.1.5,0,.9,0,1.4,0,0,.3.2,0,.2-.3,0,0,.2,0,.3,0,0,.1.2,0,.3-.7.3-.3.7-.4,1.1,0,.4-.2.7,0,1.1,0,.2.4.5.3.7,0,0,.3.2-.3.3-.2,0,.3.1.3.2,0,.2,0,.3,0,.5,0,.2,0,.4,0,.6,0,.1.3.3.3.4,0,.1,0,.3,0,.4,0,.2-.3.3-.4.5,0,.2.2.4,0,.5-.5.3-.3.6-.3.9,0,.3-.1.6,0,.9,0,.2-.4.3-.4.5,0,0-1.5.1-2,0,0,0-.2,0-.2,0-.5-.2-1.2-.4-1.1-.6,0-.3,0-.6,0-.8Z"/>
  <path d="M217.6,491.2c-.3-.1-.6-.2-.9-.3-.1,0-.2-.3-.4.2-.1.2,0-.4-.2-.4-.3,0-.6-.2-.9-.2-.3,0-.6,0-.9,0-.3,0-.5-.4-.8-.2-.3.2-.4-.3-.6-.3-.3,0-.5,0-.7-.2-.1-.2-.2-.5-.4-.4-.1,0-.3.3-.4.3,0,0-.1-.3-.4.2,0,0,0,0,0-.2,0-.4-.1-.4-.3-.2-.2.2-.2.2-.3.2-.2,0-.5,0-.7-.2-.2,0-.3-.4-.4-.5-.2-.1-.4.1-.5-.2,0-.3-.3-.4-.4-.4,0,0-.1-.3-.4.3,0,0,0,0,0,0,0-.9-.6,0-.8-.2-.2-.3-.6-.2-.8-.3,0,0-.1-.2-.3.2,0,.1-.2.1-.2,0,0-.7-.4-.4-.6-.5-.2-.2-.5,0-.7-.5,0-.2-.2-.4-.4.2-.1.2-.2,0-.3,0,0,0-.2.3-.3.3,0,0,0-.3-.1-.4,0,0,0,0,0,0-.5.5-.7-.4-1.1-.3-.4,0-.8,0-1.1-.3-.2-.1-.4-.3-.2-1.5,0-.5.2-1.1.4-1.4.1-.2.3-.4.3-.5.1,0,.3-.2.4-.2.3-.1.7-.6.8-.2,0,.1.2-.2.2.3,0,0,0,.1,0,0,.5-.7.7,0,1.1,0,.3,0,.7-.5,1-.2.3-.6.5-.4.6-.2.4.8,1.1.5,1.6.8.6.2,1.2.3,1.7.5,0,0,.3-.3.3,0,0,.3.2.1.4.2.1,0,.3,0,.3.1.3.8.8.5,1.3.7.4.2.9.4,1.3.4.3,0,.7-.3.9,0,0,0,.3-.2.3.4,0,.2.2-.2.3-.2.2,0,.4.1.6.2.3,0,.5.2.8.2.2,0,.4-.2.6-.2.2,0,.4,0,.5.2.2.1.3.4.5.5.2.1.5,0,.6.3.2.6.7.5,1,.7.4.2.7.4,1.1.4.2,0,.3.6.5.6,0,0-.3,1.5-.5,1.9,0,0,0,.2-.1.2-.4.4-.8,1-1,.9-.3-.2-.7-.3-1-.4Z"/>
  <path d="M219.6,477.7c.6-1.6,1.2-3.1,1.7-4.7.2-.6.7-1.1.4-1.9-.1-.4.7-.7.8-1.3.5-1.5,1.1-2.9,1.6-4.4.5-1.4.8-2.9,1.3-4.4.5-1.4,1.3-2.8,1.5-4.2.2-1.3,1.1-2.1,1.4-3.3.3-1.2.7-2.5,1.4-3.6.5-.8,1-1.5,1.2-2.4.1-.6,0-1.2.3-1.7.2-.5.7-1,.3-1.7,0,0,.2-.3.3-.3.6-.4.8-1.1.8-1.7,0-.6.1-1,.3-1.4.4-1.2.9-2.4,1.4-3.6.4-.9,1-1.7,1.4-2.6.4-.9.5-2,1.1-2.8.6-.8.9-1.6,1.2-2.4.2-.5.7-.9.2-1.6,0,0,0-.2.1-.3,1.3-1.1.8-2.8,1.5-4.1.7-1.4,1.2-2.9,1.7-4.4.1-.4.5-.7.2-1.3-.1-.2,0-.6.2-.8,1-.9,1.1-2.1,1.6-3.2.6-1.2.8-2.6,1.7-3.7.4-.5.8-1.2.5-2-.1-.4.3-.9.5-1.4,0-.4,0-.9.1-1.2.1-.3.5-.6.7-.8,0,0,.1-.2.1-.3,0-2.1,1.6-3.6,2.1-5.5.5-1.9,1.3-3.8,2.1-5.6.4-1,1-2,2.3-2.3.6-.1,1.1,0,1.3.6.1.4.2.9.1,1.2-.1.6-.2,1.3-.3,1.9-.3,1.3-.2,2.6-.9,3.8-.2.4-.1.9-.7,1.1,0,0-.2.2-.2.3.1,1.9-1,3.5-1.6,5.2-.5,1.4-.4,3.1-1.2,4.4.3,1-.2,1.9-.6,2.6-1.7,2.6-2.3,5.6-3.5,8.4-1.2,2.8-2.2,5.7-3.3,8.6-.2.5,0,1-.5,1.5-.4.4-.5,1.2-.8,1.8-.2.6-.3,1.2-.7,1.7-1.5,2-2,4.4-2.9,6.6-.9,2.2-1.8,4.4-2.6,6.7-.4,1.4-.6,2.9-1.3,4.2-.3.6-.2,1.3-1,1.7-.2.1,0,.8-.1,1.2-.3,1-.7,1.9-1.1,2.8-.5,1.3-1,2.6-1.5,3.9-.3.8-.3,1.7-.6,2.5-.3.9-.6,1.7-.9,2.5-.5,1-1.1,2-1.5,3-.5,1.1-.6,2.3-1.3,3.3-1.2,1.8-1.7,3.8-2.5,5.7-.8,1.9-1.5,3.8-2.1,5.8-.3,1.1-1.2,1.9-1.6,3-.2.5-1.8.7-2.2.3,0,0-.1-.2-.1-.3,0-1.2-.4-2.4,0-3.6.7-1.8,1.3-3.6,2-5.3Z"/>
  <path d="M409.3,273.7c.7,3.6,1.4,7.1,2.1,10.7.3,1.3.3,2.7,1,4,.4.6,0,2,.2,3.3.7,3.3,1.1,6.7,1.6,10,.3,1.6.6,3.2.9,4.9.3,1.6.6,3.3.8,4.9.2,1.6.3,3.3.4,5,0,1.7.2,3.3.5,4.9.2,1.4.2,2.7.1,4,0,1.3-.2,2.6-.1,3.9,0,2.8,0,5.8-.7,8.5l-.3,1.5c-.1.5-.3,1-.4,1.5-.2,1-.5,2-.6,2.9-.2,1.2-.2,2.4-.6,3.8-.3,1.2-1.1,2.5-.9,3.8,0,.1-.3.6-.5.9-.2.3-.4.6-.6.9-.2.3-.4.7-.5,1-.3.7-.5,1.4-.6,1.9-.1.6-.3,1.1-.5,1.6-.2.5-.5.9-.7,1.4l-1,1.9c-.3.6-.7,1.3-1.1,1.9-.8,1.2-1.6,2.4-2.4,3.6-.7.8-1.4,1.6-2.1,2.4-.7.8-1.4,1.6-2.2,2.3-.8.8-1.5,1.7-2.3,2.5-.8.8-1.5,1.7-2.4,2.2-1.8,1.1-3.2,2.5-4.7,3.8-.9.7-2.1,1.3-2.5,2.3,0,.1-.4.4-.6.4-1.5.7-2.8,1.6-4.1,2.6-1.3,1-2.5,2.1-4,2.8-1.5.7-3,1.6-4.5,2.4-1.5.8-3.1,1.5-4.6,2.3-.8.4-1.8.7-2.4,1.4-.2.3-1.1.6-1.6.7-1.3.2-2.5.6-3.7,1.1-1.2.4-2.5.9-3.7,1.3-2.8.9-5.6,2-8.6,2.4-1.3.2-3,.4-4.3,1.4-.6.4-2.1.5-3.1.8-.9.2-1.6.7-2.5.9-.7.2-1.5,0-2.3.1-.2,0-.5,0-.7.2-2,.7-4.2,1-6.3,1.3-2.1.2-4.3.3-6.4.8-2.1.4-4.3.6-6.5.9-2.2.2-4.4.4-6.5.5-2.4.1-4.9,0-6.6-.9-.8-.5-.8-1,.2-1.4.7-.3,1.6-.6,2.4-.7,1.3-.2,2.7-.4,4-.6,2.7-.4,5.4-1.2,8.2-1.3.9,0,1.9-.4,2.7,0,.1,0,.5,0,.6,0,1.8-.7,3.7-1,5.6-1.3,1.9-.3,3.8-.5,5.7-.9,1.6-.3,3.1-.8,4.7-1.3,1.5-.5,3.1-.9,4.7-1.2,1.6-1.1,3.7-1.4,5.5-1.8,6.4-1.1,12.3-3.7,18.2-6.2,6-2.6,11.6-5.9,16.9-9.6.9-.7,1.4-1.5,2.6-2.1.6-.3,1.1-.7,1.7-1.1.5-.5,1-1,1.6-1.5,1-.9,1.9-1.9,2.9-2.5,3.9-3.2,7.2-7.2,9.8-11.5,2.7-4.2,4.8-8.8,6.1-13.7.3-1.5.7-3,.9-4.5,0-.8.2-1.5.3-2.3.1-.8.3-1.5.4-2.3.2-1.3,0-2.7.7-3.9.2-.4-.2-1.6-.2-2.5,0-1,0-2.1,0-3.2,0-1.1,0-2.1,0-3.2,0-1.5,0-2.9-.2-4.4-.1-1.5-.2-3-.4-4.4-.2-1.8-.6-3.6-.9-5.3-.3-1.9-.5-3.8-.7-5.7-.3-2.4-.4-4.8-.7-7.2-.3-2.5-1-5-1.2-7.4-.3-4.5-1.4-8.8-2.2-13.2-.8-4.4-1.6-8.8-2.6-13.1-.6-2.5-.5-4.8-1-7.2-.2-1.1.9-2.9,1.5-2.6.1,0,.2.2.3.4.9,2.3,2.1,4.3,2.6,7,.7,4,1.6,8,2.4,12Z"/>
  <path d="M257.8,148.5c-.2,0-.5-.2-.7-.2,0,0,0-.3-.4.2-.1.2,0-.4,0-.4-.2,0-.4-.2-.7-.2-.2,0-.5.1-.8,0-.2,0-.4-.4-.7-.2-.3.2-.3-.3-.5-.3-.2,0-.4,0-.5-.2,0-.2-.1-.5-.3-.4-.1,0-.3.3-.4.3,0,0,0-.3-.4.2,0,0,0,0,0-.2,0-.4,0-.4-.2-.2-.2.2-.2.2-.3.2-.2,0-.4,0-.5-.2-.1,0-.2-.4-.3-.5-.1-.1-.4.1-.4-.2,0-.3-.2-.4-.3-.4,0,0,0-.3-.3.2,0,0,0,0,0,0,0-.9-.5,0-.6-.2-.1-.3-.4-.2-.6-.3,0,0,0-.2-.3.2,0,.1-.1.1-.1,0,0-.7-.3-.4-.4-.5-.1-.2-.4,0-.5-.5,0-.2,0-.4-.4.1-.1.2-.1,0-.2,0,0,0-.2.3-.3.2,0,0,0-.3,0-.4,0,0,0,0,0,0-.5.5-.5-.4-.8-.3-.3,0-.6-.1-.9-.3-.1-.1-.2-.3,0-1.5.1-.5.3-1,.5-1.3.1-.2.3-.4.3-.4.1,0,.3-.2.4-.2.2-.1.6-.6.7-.2,0,.1.2-.2,0,.3,0,0,0,.1,0,0,.5-.7.6,0,.9,0,.2,0,.7-.5.8-.1.3-.5.4-.4.5-.2.2.8.8.5,1.2.8.4.2.9.3,1.3.5,0,0,.3-.3.2,0,0,.3.2.1.3.2,0,0,.2,0,.3.1.1.7.6.5.9.7.3.2.6.4,1,.3.2,0,.6-.3.7,0,0,0,.3-.2.2.4,0,.2.2-.2.3-.2.2,0,.3,0,.4.1.2,0,.4.2.6.2.1,0,.3-.2.5-.2.1,0,.3,0,.4.1.1.1.2.4.4.5.1.1.4,0,.5.2.1.6.5.5.8.6.3.2.5.3.9.3.2,0,.2.5.3.6,0,0-.3,1.4-.5,1.9,0,0,0,.2-.1.2-.3.4-.7,1-.9.9-.2-.2-.5-.2-.8-.3Z" fill="#aaca60"/>
  <path d="M269.4,133.6c-.3-.2-.6-.5-1-.7-.1,0,0-.4-.5,0-.2.2,0-.4,0-.5-.3-.2-.6-.5-.9-.7-.3-.2-.7-.3-1-.5-.3-.2-.3-.7-.8-.7-.4,0-.2-.6-.5-.7-.3-.1-.5-.3-.6-.7,0-.3,0-.6-.2-.7-.1,0-.5,0-.5,0,0-.1,0-.4-.5-.1,0,0,0,0,0-.2.2-.4.1-.5-.2-.4-.3,0-.3,0-.4-.1-.2-.2-.4-.4-.5-.7,0-.2,0-.5,0-.7,0-.2-.4-.3-.3-.6.1-.3,0-.5,0-.7,0,0,.1-.4-.5,0,0,0,0,0,0,0,.5-.7-.6-.4-.6-.8,0-.4-.3-.6-.5-.9,0,0,0-.3-.4,0-.2,0-.2,0-.1-.1.4-.6,0-.6-.1-.8,0-.3-.5-.4-.2-.9.1-.2.1-.4-.5-.2-.3,0-.1-.2-.2-.2,0,0-.4,0-.4,0,0,0,.1-.2.2-.4,0,0,0,0,0,0-.7.1-.2-.7-.6-.8-.3,0-.5-.3-.6-.5,0-.1,0-.3.3-1.4.2-.5.4-1,.6-1.2.2-.2.4-.3.5-.3.2,0,.4,0,.6,0,.4,0,1-.1,1.1.3,0,.1.3,0,0,.4,0,0,0,.1,0,.1.9-.2.8.5,1.1.8.3.3,1,.2,1,.7.6-.2.7,0,.6.3-.2.9.5,1.2.8,1.8.3.6.7,1.1,1,1.7,0,0,.4,0,.2.2-.2.2.1.3.2.4,0,.1.3.1.2.3-.3.8.4,1,.6,1.4.2.4.5.9.9,1.2.3.2.7.2.8.5,0,.1.4,0,0,.5-.1.1.3,0,.4,0,.2.1.3.3.4.4.2.2.3.4.6.6.1,0,.4,0,.6.1.2,0,.3.2.4.4.1.2.1.5.2.7.1.2.5.1.5.5,0,.7.5.7.8,1,.3.3.6.5,1,.6.2,0,.2.6.4.7,0,0-.4,1.4-.7,1.9,0,0-.1.2-.1.2-.4.3-1,.8-1.2.6-.4-.3-.8-.5-1.2-.7Z" fill="#aaca60"/>
  <path d="M283.9,123.8c-.2-.4-.4-.8-.6-1.2,0-.1.1-.4-.4-.4-.3,0,.3-.3.2-.4-.2-.3-.1-.7-.3-1-.1-.3-.4-.6-.5-.9-.1-.3.2-.6-.2-.9-.3-.2.2-.5,0-.7-.2-.2-.3-.5,0-.8.1-.2.3-.4.2-.6,0-.1-.4-.2-.4-.3,0-.1.3-.3-.4-.3,0,0,0,0,.1-.1.4-.2.3-.3,0-.4-.3,0-.3-.2-.3-.2,0-.2-.1-.5-.1-.8,0-.2.2-.4.3-.6,0-.2-.3-.4,0-.6.3-.2.2-.4.2-.6,0-.1.3-.3-.4-.3,0,0,0,0,0,0,.8-.4-.3-.5-.2-.9.2-.3,0-.6,0-.9,0,0,.2-.2-.3-.2-.2,0-.2,0,0-.1.6-.3.2-.5.3-.7,0-.3-.2-.5.2-.8.2-.1.3-.3-.3-.4-.3,0,0-.2,0-.3,0,0-.3-.1-.4-.2,0,0,.2-.2.3-.2,0,0,0,0,0,0-.7-.3.1-.8-.1-1.2-.2-.4-.2-.8-.2-1.2,0-.2.2-.5,1.3-.8.5-.1,1.1-.2,1.4-.2.2,0,.5,0,.6.2.1.1.3.2.4.3.2.2.8.4.5.7,0,0,.2.1-.3.3,0,0-.1,0,0,0,.8.2.4.7.5,1,0,.3.8.5.5.8.6,0,.6.3.4.5-.6.7,0,1.2,0,1.8,0,.6.2,1.2.2,1.8,0,.1.4.1.1.3-.2.1,0,.3,0,.4,0,.1.2.2,0,.4-.6.6-.1,1-.1,1.5,0,.5,0,1,.2,1.4.1.3.5.5.4.8,0,.1.3.2-.3.4-.2,0,.3.1.3.2,0,.2,0,.4,0,.6,0,.3,0,.6.1.8,0,.2.3.3.4.5,0,.2.1.3,0,.5,0,.2-.2.4-.2.6,0,.2.3.3,0,.5-.4.4,0,.7,0,.9,0,.2.2.5.4.5,0,0-.1.4,0,.5,0,0-.1.3-.3.8-.2.4-.3.9-.5,1.1,0,0-.1.2-.1.2-.4.3-1.2.7-1.5.4-.4-.5-.8-.9-1.1-1.4Z" fill="#aaca60"/>
  <path d="M307,109.7c0,.1-.1.2,0,.4,0,0-.3,0,.2.2.3,0-.4,0-.4,0,0,.1,0,.2,0,.4,0,.1.2.3.2.4,0,.1-.3.2,0,.4.2.2-.3.1-.2.2,0,.1.1.2-.1.3-.2,0-.4,0-.3.1,0,0,.4.2.3.2,0,0-.3,0,.3.2,0,0,0,0-.2,0-.4,0-.4,0-.1.1.3.1.2.1.2.2,0,.1,0,.2,0,.3,0,0-.3,0-.4.1,0,0,.2.2-.1.2-.3,0-.3,0-.3.1,0,0-.3,0,.3.2,0,0,0,0,0,0-.8,0,.2.3,0,.3-.2,0-.1.2-.1.4,0,0-.2,0,.3.2.2,0,.2,0,0,0-.6,0-.3.1-.4.2-.1,0,.1.2-.4.3-.2,0-.3,0,.2.2.3,0,0,0,0,.1,0,0,.3.1.3.2,0,0-.2,0-.3,0,0,0,0,0,0,0,.6.3-.3.3-.1.4.2.2,0,.3,0,.5,0,0-.3.1-1.4,0-.5,0-1.1-.1-1.4-.2-.2,0-.5-.1-.5-.2,0,0-.2-.1-.3-.2-.2-.1-.7-.3-.4-.4,0,0-.2-.1.3,0,0,0,.1,0,0,0-.8-.3-.2-.3-.2-.5,0-.1-.6-.4-.3-.5-.6-.2-.5-.3-.3-.3.7-.1.3-.5.5-.7.1-.2.1-.5.2-.8,0,0-.3-.2,0-.1.3,0,0,0,0-.2,0,0-.1-.1,0-.1.7,0,.3-.3.5-.5.1-.2.2-.4.1-.6,0-.1-.4-.3-.2-.4,0,0-.2-.2.3,0,.2,0-.3-.1-.3-.2,0,0,0-.2,0-.2,0-.1.1-.2,0-.3,0,0-.2-.2-.3-.3,0,0,0-.2,0-.2,0,0,.3-.1.4-.2,0,0-.1-.3.1-.3.5,0,.3-.3.4-.4.1-.1.2-.3.1-.5,0-.1.5,0,.5-.1,0,0,1.4.3,1.9.5,0,0,.2,0,.2,0,.4.2,1.1.5,1,.6-.1.1-.1.3-.1.4Z" fill="#aaca60"/>
  <path d="M278.3,296.6c.5-.5,1-1.1,1.4-1.6.1-.2.5-.3.3-.8-.1-.3.5,0,.7-.3.4-.6.8-1,1.2-1.6.3-.5.6-1.2.9-1.7.3-.5,1-.9,1.1-1.6,0-.6.8-.7,1-1.2.2-.5.5-1,1-1.3.4-.2.8-.4.9-.8,0-.2,0-.6,0-.8.2-.2.5-.3.1-.8,0,0,.1,0,.2,0,.5,0,.6-.3.5-.6-.1-.3,0-.5.1-.6.3-.5.5-.9.9-1.4.2-.3.7-.5.9-.9.3-.3.3-.9.7-1,.5-.2.6-.5.8-.9.1-.2.5-.3,0-.7,0,0,0-.1,0-.1,1-.1.4-1.2.9-1.7.5-.5.7-1.1,1-1.7,0-.2.3-.2,0-.6-.1-.1,0-.3,0-.3.8-.1.7-.8,1-1.2.4-.5.3-1.1,1-1.4.3-.1.5-.4.1-.9-.2-.2.2-.4.2-.6,0-.2-.2-.4,0-.6,0-.1.3-.2.5-.3,0,0,0,0,0-.1-.3-1,.9-1.4,1.1-2.3.2-.8.6-1.6,1-2.4.2-.4.6-.8,1.8-.7.5,0,1.1.3,1.3.6.2.2.3.5.3.7,0,.3,0,.6,0,.9,0,.6.3,1.3-.2,1.7-.2.1,0,.4-.5.4,0,0-.1,0-.1,0,.4,1-.4,1.6-.6,2.3-.2.6,0,1.5-.5,2,.4.6.1,1-.2,1.2-1.2.9-1.4,2.3-2.1,3.4-.7,1.2-1.3,2.4-2,3.5-.1.2,0,.5-.3.6-.4,0-.3.5-.5.7-.1.2-.2.5-.4.7-1.1.6-1.3,1.7-1.9,2.5-.6.8-1.2,1.7-1.7,2.7-.3.6-.3,1.3-.8,1.8-.2.2,0,.6-.7.5-.2,0,0,.4,0,.6-.2.4-.5.7-.7,1.1-.3.5-.8,1-1.1,1.5-.2.3-.2.8-.4,1.1-.2.4-.4.7-.7.9-.4.3-.8.6-1.2,1-.4.4-.5,1-1,1.2-1,.4-1.3,1.3-2,1.9-.6.6-1.2,1.3-1.8,2.1-.3.4-1,.4-1.3.8-.2.2-1.5-.6-1.8-1,0,0-.1-.2-.1-.2,0-.7-.3-1.5.1-1.9.6-.5,1.1-1.2,1.6-1.8Z"/>
  <path d="M333,490.3c.2-1.5.4-2.9.6-4.4,0-.5.4-1.1,0-1.7-.2-.3.5-.8.5-1.3.1-1.4.4-2.7.5-4.1.1-1.3,0-2.7.2-4,.1-1.3.6-2.6.4-3.9-.1-1.1.5-2,.5-3.1,0-1.1.1-2.3.5-3.3.3-.8.6-1.5.6-2.3,0-.5-.3-1-.2-1.5,0-.5.4-1-.1-1.5,0,0,0-.2.2-.4.5-.5.5-1.1.3-1.6-.2-.5-.1-.9,0-1.3.1-1.1.2-2.2.5-3.3.2-.8.5-1.6.7-2.4.2-.9,0-1.8.4-2.6.4-.8.5-1.5.6-2.3,0-.4.4-.9-.2-1.4,0,0,0-.2,0-.3,1-1.2,0-2.6.5-3.8.4-1.3.5-2.7.6-4.1,0-.4.3-.7-.1-1.1-.1-.1,0-.5,0-.7.8-.9.6-2,.9-3,.3-1.2.3-2.4,1-3.5.3-.5.5-1.1,0-1.8-.2-.3.2-.8.2-1.3,0-.4-.2-.8,0-1.1,0-.3.4-.5.5-.8,0,0,0-.2,0-.3-.3-1.9,1-3.4,1.3-5.1.3-1.8.9-3.5,1.6-5.2.4-.9.9-1.8,2.2-2.1.6-.1,1.1,0,1.3.6.1.4.2.8.2,1.1,0,.5-.1,1.1-.2,1.6-.2,1.1,0,2.3-.6,3.3-.2.3,0,.8-.6.9,0,0-.2.2-.1.2.4,1.7-.5,3.1-.8,4.6-.3,1.3,0,2.7-.5,3.9.5.8.2,1.7-.1,2.3-1.2,2.4-1.2,5.1-1.7,7.7-.5,2.6-.8,5.3-1.2,7.9,0,.5.2.9-.1,1.4-.3.5-.2,1.1-.3,1.7,0,.5,0,1.1-.2,1.6-.9,2-.8,4.1-1.2,6.2-.4,2.1-.7,4.1-.8,6.2,0,1.3.1,2.6-.2,3.8-.1.5.1,1.2-.5,1.6-.2.1.2.7.2,1.1,0,.9-.2,1.7-.3,2.6-.2,1.2-.4,2.4-.5,3.6,0,.7,0,1.5,0,2.2,0,.8-.1,1.6-.3,2.3-.2,1-.5,1.9-.7,2.9-.2,1,0,2.1-.5,3-.8,1.7-.7,3.6-1,5.4-.3,1.8-.6,3.6-.7,5.4,0,1-.7,1.9-.8,2.9,0,.5-1.6.9-2.1.6,0,0-.2-.1-.2-.2-.3-1-.9-2-.7-3.1.3-1.6.5-3.3.7-4.9Z" fill="#aaca60"/>
  <path d="M439.6,496.8c-.5-1.6-.9-3.3-1.4-4.9-.2-.6-.1-1.3-.8-1.8-.3-.2,0-1,0-1.6-.5-1.5-.8-3.1-1.3-4.6-.5-1.5-1.1-2.9-1.6-4.4-.5-1.5-.6-3.1-1.3-4.4-.6-1.2-.5-2.4-.9-3.5-.5-1.2-.9-2.5-1-3.8,0-.9-.1-1.9-.5-2.7-.2-.5-.7-1-.8-1.6-.1-.6,0-1.3-.8-1.6,0,0,0-.3,0-.5.2-.7,0-1.4-.4-1.9-.4-.4-.5-.9-.6-1.3-.4-1.2-.8-2.5-1.1-3.8-.2-1-.3-2-.5-2.9-.2-1-.8-2-.8-3,0-1-.2-1.9-.5-2.7-.1-.5,0-1.2-.8-1.4,0,0-.1-.2,0-.3.4-1.7-1.1-2.8-1.3-4.3-.2-1.6-.8-3.1-1.3-4.6-.1-.4,0-.9-.6-1.1-.2,0-.3-.5-.3-.8.3-1.3-.4-2.4-.6-3.6-.3-1.4-.9-2.6-.8-4.1,0-.6,0-1.4-.8-2-.3-.2-.2-1-.4-1.4-.2-.4-.5-.7-.6-1.1,0-.3,0-.7,0-1.1,0-.1,0-.2,0-.3-1.1-1.8-.7-4-1.3-5.9-.6-2-1-4-1.2-6.1-.2-1.1-.2-2.3.8-3.3.5-.4,1-.5,1.4,0,.3.3.6.7.7,1,.2.6.5,1.2.7,1.8.4,1.2,1.2,2.4,1.2,3.7,0,.4.4.8,0,1.3,0,0,0,.2,0,.3,1.2,1.6,1.1,3.5,1.5,5.2.4,1.5,1.4,2.8,1.5,4.4.8.7,1,1.7,1,2.6.1,3.1,1.4,6,2.2,9,.8,3,1.7,6,2.5,9,.1.5.6.9.5,1.5,0,.6.3,1.3.5,2,.2.6.5,1.2.5,1.8,0,2.5,1.1,4.8,1.7,7.2.6,2.4,1.2,4.7,2,7,.5,1.4,1.2,2.7,1.5,4.2.1.6.6,1.2.2,2-.1.2.5.7.6,1.1.3,1,.6,2,.9,2.9.4,1.4.7,2.7,1.2,4.1.3.8.7,1.6,1,2.4.3.9.6,1.7.7,2.6.2,1.1.4,2.3.6,3.4.3,1.2.9,2.3.9,3.5,0,2.2.9,4.1,1.4,6.2.5,2,1.1,4.1,1.7,6.1.4,1.1.2,2.3.5,3.4.2.5-1.1,1.6-1.6,1.6-.1,0-.2,0-.3-.1-.8-1-1.7-1.8-2.1-3-.5-1.9-1-3.7-1.6-5.6Z" fill="#aaca60"/>
  <path d="M419.3,453.5c-1.4.2-2.8.3-4.2.6-.5,0-1.1-.1-1.6.5-.2.3-.8-.3-1.3-.2-1.3.2-2.6.3-3.9.5-1.3.2-2.5.6-3.8.8-1.3.2-2.6,0-3.8.5-1,.4-2,0-3,.2-1.1.2-2.2.4-3.2.3-.8,0-1.6-.2-2.3,0-.5.1-.9.5-1.4.5-.5,0-1.1-.2-1.4.5,0,0-.3,0-.4-.1-.6-.4-1.2-.3-1.6,0-.4.3-.8.3-1.2.4-1.1.1-2.2.3-3.2.3-.8,0-1.6-.1-2.5-.1-.8,0-1.7.4-2.5.1-.8-.2-1.6-.2-2.3-.1-.4,0-1-.2-1.3.4,0,0-.2,0-.3,0-1.3-.7-2.4.4-3.7.3-1.3-.1-2.6.1-4,.2-.4,0-.7-.1-1,.3-.1.2-.5.2-.7.1-1-.6-2-.1-3-.2-1.1,0-2.3.3-3.5-.1-.5-.2-1.2-.3-1.7.4-.3.3-.8,0-1.2.1-.3,0-.7.4-1,.4-.3,0-.6-.2-.9-.3,0,0-.2,0-.3,0-1.6.8-3.3,0-5,.2-1.7.3-3.4.3-5.1.2-.9,0-1.9-.2-2.6-1.3-.3-.5-.3-1.1,0-1.4.3-.3.6-.5.9-.6.5-.1,1.1-.3,1.6-.4,1.1-.2,2.1-.8,3.2-.6.4,0,.7-.2,1.1.2,0,0,.2.1.3,0,1.4-.9,3-.4,4.5-.5,1.3-.1,2.5-.8,3.8-.6.7-.7,1.5-.6,2.3-.5,2.6.5,5.1,0,7.6-.2,2.6,0,5.2-.4,7.7-.5.4,0,.8-.4,1.3-.2.5.2,1.1,0,1.7,0,.5,0,1-.2,1.5,0,2.1.5,4.1,0,6.1-.2,2-.1,4-.2,6-.6,1.2-.2,2.4-.7,3.6-.7.5,0,1.1-.4,1.6.1.2.2.6-.4.9-.4.8-.1,1.7-.2,2.5-.3,1.2-.1,2.3-.2,3.5-.4.7-.1,1.4-.4,2.1-.6.7-.1,1.5-.2,2.2-.3,1,0,1.9,0,2.9,0,1,0,2-.5,2.9-.3,1.8.3,3.5-.2,5.2-.4,1.7-.2,3.5-.3,5.2-.7,1-.2,1.9.2,2.9,0,.4,0,1.3,1.3,1.1,1.8,0,.1,0,.2-.1.3-.9.6-1.6,1.4-2.7,1.5-1.6.1-3.2.4-4.8.6Z" fill="#aaca60"/>
  <g>
    <g>
      <g>
        <path d="M277.8,163.8c1.1-2.2,2.3-4.4,3.4-6.7.4-.8,1.1-1.6,1-2.7,0-.6,1-1.1,1.3-1.8,1-2.1,2.1-4.2,3.1-6.3.5-1,1-2.1,1.7-3.3.7-1.1,1.5-2.2,2.6-3.1,2.2-1.7,4.7-2.3,6.7-3.3,1.8-.9,3.6-.9,5.3-1.4,1.9-.6,3.8-1.1,5.7-1.3,1.4,0,2.8-.1,4.1-.4.8-.2,1.6-.6,2.5-.7.9,0,1.9,0,2.6-.6,0,0,.5,0,.7,0,1,.3,2.1.2,2.9,0,.8-.3,1.4-.3,2.2-.3,2,0,4-.1,6.1.1,1.6.2,3.2.7,4.7,1.4,1.6.6,3.5,1.5,4.5,2.9,1,1.3,1.9,2.5,2.6,3.8.4.7.6,1.7,1.5,2.1,0,0,.2.3.2.5.2,2.5,1.8,4.2,2.3,6.5.5,2.3,1.2,4.6,1.8,6.9.2.6.1,1.3.7,1.8.2.2.4.8.3,1.1-.2,1.8.5,3.6.8,5.3.3,2,.9,4,.8,6.1,0,.9,0,2.1.7,3,.3.4.2,1.5.4,2.2.1.6.5,1.2.6,1.8,0,.5,0,1.1-.1,1.6,0,.2,0,.3,0,.5,1,2.9.5,5.9,1,8.8.5,3,.7,6,.9,9,.1,1.7,0,3.4-1,4.6-.5.6-1,.6-1.4,0-.3-.5-.6-1.1-.7-1.6-.2-.9-.4-1.9-.6-2.8-.4-1.9-1.1-3.7-1-5.7,0-.6-.4-1.3.1-1.9,0,0,0-.3,0-.4-1.1-2.5-.9-5.3-1.2-7.9-.3-2.3-1.3-4.3-1.3-6.6-.8-1.1-.9-2.6-.9-3.9,0-4.5-1.4-8.8-2.3-13.2-.5-2.2-1.1-4.4-1.7-6.6-.7-2.2-1.3-4.3-2.1-6.3-.3-.7-.8-1.1-1-1.9-.1-.8-.8-1.6-1.3-2.2-.5-.6-1.1-1.1-1.5-1.6-.9-1.2-2.3-1.9-3.8-2.3-1.6-.4-3.3-.4-5-.5-3.5-.1-7,0-10.5.6-2.1.3-4.2,1-6.3,1.3-.9.1-1.8.6-2.8.3-.3-.1-1,.5-1.6.7-1.4.4-2.8.7-4.2,1.2-1.9.6-4,1.1-5.6,2-1,.5-1.7,1.3-2.4,1.9-.7.7-1.3,1.6-1.9,2.6-.8,1.3-1.8,2.8-2.6,4.2-.8,1.5-1.4,3.3-2.4,4.6-1.9,2.5-3,5.4-4.5,8.2-1.4,2.7-2.9,5.5-4.2,8.3-.7,1.6-1.9,2.8-2.7,4.3-.4.7-2.2,1-2.5.5,0,0,0-.3,0-.4.3-1.7.4-3.4,1.3-5.1,1.3-2.5,2.6-5.1,3.9-7.6Z"/>
        <path d="M294.6,180.1c-.4,0-.8-.2-1.2-.2-.1,0-.2-.3-.5.2-.1.3-.1-.4-.3-.4-.4,0-.7-.1-1.1-.1-.4,0-.7.2-1.1.2-.4,0-.7-.3-1,0-.3.2-.5-.3-.8-.2-.3,0-.6.1-.9-.1-.2-.2-.4-.4-.6-.4-.1,0-.3.4-.4.3-.1,0-.2-.3-.4.3,0,0,0,0,0-.2,0-.4-.3-.4-.4-.1-.1.3-.2.2-.4.2-.3,0-.6,0-.9,0-.2,0-.4-.3-.6-.4-.2,0-.5.2-.7-.1-.2-.3-.4-.3-.6-.3-.1,0-.2-.3-.4.3,0,0,0,0,0,0-.3-.9-.7.2-1,0-.3-.2-.7-.1-1.1-.1,0,0-.2-.2-.3.3,0,.2-.1.2-.2,0-.2-.6-.5-.3-.8-.4-.3-.1-.6.1-.9-.3-.1-.2-.3-.3-.5.3,0,.3-.2,0-.3,0,0,0-.2.3-.3.3,0,0-.2-.2-.2-.3,0,0,0,0,0,0-.5.7-.9-.2-1.4,0-.5.2-.9.1-1.4,0-.3,0-.5-.2-.7-1.4,0-.5,0-1.1,0-1.4,0-.2.2-.5.3-.5.1,0,.3-.2.4-.3.3-.2.6-.7.9-.4,0,0,.2-.2.3.3,0,0,0,.1,0,0,.4-.8.9-.3,1.3-.3.4,0,.7-.7,1.1-.4.2-.6.5-.5.7-.3.7.7,1.5.3,2.2.4.7.1,1.5,0,2.2.2.1,0,.3-.3.4,0,.1.3.3,0,.5,0,.1,0,.3-.1.4,0,.5.7,1.1.4,1.7.5.6.1,1.1.2,1.7.2.4,0,.7-.4,1.1-.2.1,0,.3-.2.4.4,0,.2.2-.3.3-.3.2,0,.5,0,.7,0,.3,0,.7.1,1,.1.2,0,.4-.2.7-.2.2,0,.4,0,.6,0,.3.1.5.4.7.5.3.1.6-.1.8.2.4.6.9.4,1.4.6.5.1,1,.3,1.5.3.3,0,.4.5.7.6.1,0,0,1.5-.2,2,0,0,0,.2,0,.2-.4.4-.7,1.1-1,1-.4-.2-.9-.2-1.3-.3Z"/>
      </g>
      <path d="M314,195.4c-.6-.2-1.2-.4-1.8-.5-.2,0-.4-.3-.8.2-.2.2-.3-.4-.5-.4-.6,0-1.2-.2-1.8-.2-.6,0-1.2.2-1.7.3-.6,0-1.2-.2-1.7.2-.4.3-.9-.1-1.3,0-.4.2-.9.4-1.4.2-.4,0-.8-.2-1.1,0-.2.1-.3.5-.5.5-.2,0-.5-.1-.5.5,0,0-.1,0-.2,0-.1-.2-.4-.1-.6,0-.2,0-.4.2-.5.5-.3.4-.6.5-.9.7-.4.2-1,.6-1.4.8-.5.3-1,.6-1.5.8-.7.4-1.2.4-1.8.7,0,0-.2.1-.3.2,0-.5-.2-1.1,0-2,.3-1.1.3-1.7.3-2.3,0-.4.3-1-.4-.9,0,0,0-.1,0-.2.4-.8.3-1.2.2-1.7-.2-.4-.4-1.2-.3-1.4.2-.6,0-1.3,0-1.9,0-.2.2-.4-.3-.5-.2,0-.2-.2,0-.3.6-.5.2-1,.3-1.5.1-.6-.2-1.1.3-1.7.2-.2.3-.6-.3-.9-.3-.1,0-.4,0-.6,0-.2-.3-.3-.3-.5,0-.1.2-.3.3-.4,0,0,0,0,0-.1-.7-.8.2-1.6,0-2.5-.2-.8,0-1.7,0-2.5,0-.5.3-.9,1.4-1.2.5-.1,1.1,0,1.4.1.2.2.5.3.5.5,0,.3.2.5.3.8.2.5.7,1.1.4,1.6,0,.2.2.4-.3.5,0,0-.1,0,0,.1.8.7.3,1.5.3,2.2,0,.6.7,1.2.4,1.9.6.3.5.7.3,1.1-.7,1.2-.2,2.5-.2,3.7,0,.6,0,1.3,0,1.9v.6c0,0,0,.1,0,.2,0,0,.3-.2,0,0-.3.3,0,.2,0,.2,0,0,.1,0,0,.2,0,.2-.2.3-.2.4,0,.1,0,.2,0,.2,0,0,.4-.3.6-.3,0,0,.3,0,.6-.2h.2c0,0,0-.1,0-.1h.2c.2-.2.5-.3.7-.4.6-.3,1.1-.8,1.8-.8.3,0,.5-.4.9.1.1.1.3-.3.5-.4.4-.2.9-.2,1.3-.2.6,0,1.3,0,1.9-.2.4,0,.8-.3,1.2-.4.4,0,.8,0,1.2,0,.5.1,1,.3,1.5.5.5.1,1.1,0,1.6.3.8.7,1.8.6,2.7,1,.9.3,1.7.7,2.6,1,.5.1.7.8,1.2,1,.2.1-.2,1.5-.6,1.9,0,0-.1.1-.2.2-.6.2-1.3.7-1.7.4-.6-.3-1.3-.6-2-.8Z"/>
      <path d="M306.9,215.2c-.1-.2-.2-.5-.4-.7,0,0,.1-.3-.4-.1-.3,0,.3-.3.2-.4-.2-.2-.2-.5-.4-.7-.2-.2-.5-.3-.7-.5-.2-.2,0-.6-.4-.6-.3,0,0-.5-.2-.6-.2-.1-.4-.3-.3-.6,0-.2.2-.5,0-.5-.1,0-.4,0-.5,0,0,0,.2-.3-.4,0,0,0,0,0,0-.1.3-.3.2-.4,0-.3-.3,0-.3,0-.3,0-.1-.2-.3-.3-.3-.6,0-.2,0-.4,0-.6,0-.2-.4-.2-.2-.5.2-.3.1-.4,0-.5,0,0,.2-.3-.4,0,0,0,0,0,0,0,.6-.6-.5-.3-.4-.6,0-.3-.2-.5-.3-.7,0,0,0-.2-.3,0-.2,0-.2,0-.1,0,.5-.5,0-.5,0-.7,0-.3-.4-.3,0-.8.1-.2.2-.4-.4-.2-.3,0,0-.1-.2-.2,0,0-.3,0-.4,0,0,0,.1-.2.2-.3,0,0,0,0,0,0-.7,0-.1-.7-.4-.9-.3-.2-.3-.3-.3-.4,0,0,.1-.2.7-1.2.3-.4.5-.9.8-1.1.2-.2.4-.3.5-.3.2,0,.4,0,.6,0,.4,0,1,0,.9.5,0,.1.3,0-.1.4,0,0,0,0,0,0,.9-.1.5.4.7.6.2.2.8.1.7.5.6-.2.6,0,.5.2-.3.8.3,1,.5,1.5.2.5.5.9.7,1.4,0,0,.4,0,.2.2-.2.2,0,.2.1.3,0,0,.2.1.1.3-.4.7.2.8.3,1.2.1.4.3.8.6,1.1.2.2.6.2.6.5,0,.1.4,0-.1.4-.1.1.3,0,.4,0,.1.1.2.3.3.4.1.2.2.4.4.6.1.1.4.1.5.2.1.1.2.2.2.4,0,.2,0,.5,0,.7,0,.2.4.3.2.6-.3.6.1.7.2,1.1.1.3.2.7.5.9.2.1-.2.5-.1.7,0,0-1.2.9-1.7,1.1,0,0-.2,0-.2,0-.5,0-1.2.2-1.3,0,0-.3-.3-.6-.4-.8Z"/>
      <path d="M309.8,159.2c.1.2.2.4.3.5,0,0-.1.2.4,0,.3,0-.3.3-.2.3.2.1.2.3.3.5.1.1.4.2.6.3.1.1,0,.4.3.4.3,0,0,.4,0,.4.2,0,.3.2.2.4-.1.2-.3.4-.1.4,0,0,.4,0,.4,0,0,0-.2.2.4,0,0,0,0,0-.1.1-.3.2-.3.3,0,.3.3,0,.3,0,.3,0,0,.1.2.3.2.4,0,.1-.2.3-.2.4,0,.1.3.2,0,.4-.2.2-.2.3-.2.4,0,0-.2.2.4,0,0,0,0,0,0,0-.7.4.4.2.2.5-.1.2,0,.4.1.5,0,0-.1.2.3,0,.2,0,.2,0,0,0-.6.3-.2.3-.2.5,0,.2.3.3-.2.6-.2.1-.3.2.3.2.3,0,0,.1.1.2,0,0,.3,0,.4,0,0,0-.2.1-.3.2,0,0,0,0,0,0,.7,0-.1.5.1.7.2.2.2.5.2.7,0,.1-.2.3-1.3.6-.5.1-1,.2-1.4.2-.2,0-.5,0-.5,0-.1,0-.2,0-.4-.1-.2,0-.8-.1-.5-.3,0,0-.2,0,.3-.2,0,0,.1,0,0,0-.8,0-.3-.3-.4-.5,0-.1-.7-.1-.5-.4-.6,0-.6,0-.4-.2.6-.5,0-.7,0-1,0-.3-.2-.6-.3-.9,0,0-.4,0-.1-.1.2-.1,0-.1,0-.2,0,0-.2,0,0-.2.5-.5,0-.6,0-.8,0-.3,0-.5-.3-.7-.2-.1-.5,0-.5-.3,0,0-.3,0,.2-.3.1,0-.3,0-.3,0,0,0-.1-.2-.1-.3,0-.1,0-.3-.2-.4,0,0-.3,0-.4,0,0,0-.1-.1-.1-.2,0-.1.1-.3.1-.5,0-.1-.3-.1-.1-.3.3-.4,0-.5,0-.7,0-.2-.1-.4-.4-.5-.1,0,.2-.4.2-.5,0,0,1.2-.9,1.6-1.2,0,0,.2,0,.2-.1.5-.1,1.1-.4,1.2-.3,0,.2.2.4.3.6Z"/>
      <path d="M298.9,162.4c.1.2.2.4.3.5,0,0-.1.2.4,0,.3,0-.3.3-.2.3.2.1.2.3.3.5.1.1.4.2.6.3.1.1,0,.4.3.4.3,0,0,.4,0,.4.2,0,.3.2.2.4-.1.2-.3.4-.1.4,0,0,.4,0,.4,0,0,0-.2.2.4,0,0,0,0,0-.1.1-.3.2-.3.3,0,.3.3,0,.3,0,.3,0,0,.1.2.3.2.4,0,.1-.2.3-.2.4,0,.1.3.2,0,.4-.2.2-.2.3-.2.4,0,0-.2.2.4,0,0,0,0,0,0,0-.7.4.4.2.2.5-.1.2,0,.4.1.5,0,0-.1.2.3,0,.2,0,.2,0,0,0-.6.3-.2.3-.2.5,0,.2.3.3-.2.6-.2.1-.3.2.3.2.3,0,0,.1.1.2,0,0,.3,0,.4,0,0,0-.2.1-.3.2,0,0,0,0,0,0,.7,0-.1.5.1.7.2.2.2.5.2.7,0,.1-.2.3-1.3.6-.5.1-1,.2-1.4.2-.2,0-.5,0-.5,0-.1,0-.2,0-.4-.1-.2,0-.8-.1-.5-.3,0,0-.2,0,.3-.2,0,0,.1,0,0,0-.8,0-.3-.3-.4-.5,0-.1-.7-.1-.5-.4-.6,0-.6,0-.4-.2.6-.5,0-.7,0-1,0-.3-.2-.6-.3-.9,0,0-.4,0-.1-.1.2-.1,0-.1,0-.2,0,0-.2,0,0-.2.5-.5,0-.6,0-.8,0-.3,0-.5-.3-.7-.2-.1-.5,0-.5-.3,0,0-.3,0,.2-.3.1,0-.3,0-.3,0,0,0-.1-.2-.1-.3,0-.1,0-.3-.2-.4,0,0-.3,0-.4,0,0,0-.1-.1-.1-.2,0-.1.1-.3.1-.5,0-.1-.3-.1-.1-.3.3-.4,0-.5,0-.7,0-.2-.1-.4-.4-.5-.1,0,.2-.4.2-.5,0,0,1.2-.9,1.6-1.2,0,0,.2,0,.2-.1.5-.1,1.1-.4,1.2-.3,0,.2.2.4.3.6Z"/>
    </g>
    <path d="M327.1,169.5c.4-.6.8-1.1,1.1-1.7.1-.2.5-.3.3-.8-.1-.3.5,0,.7-.3.4-.5.9-.9,1.4-1.4.4-.5.8-1.1,1.4-1.5.5-.4,1.3-.5,1.7-1.1.4-.5,1.1-.2,1.6-.5.5-.3,1.1-.5,1.8-.3.4.1.9.3,1.3.2.3,0,.5-.4.8-.3.3,0,.5.3.9-.2,0,0,.1,0,.2.2.2.5.6.5.9.3.3-.2.5,0,.7,0,.6.2,1.2.5,1.8.9.4.3.7.8,1,1.1.3.4.9.6,1,1.1,0,.6.3.9.5,1.3.1.2,0,.6.7.6,0,0,0,0,0,.2-.2.5,0,.8.1,1.1.2.3.5.6.5,1-.1.8,0,1.5,0,2.2,0,.2-.2.4.2.6.2,0,.1.3,0,.4-.7.4-.4,1-.7,1.5-.3.5-.2,1.2-.8,1.6-.3.2-.5.4,0,.9.2.2-.2.4-.2.6,0,.2.1.5,0,.6,0,.1-.3.2-.5.2,0,0,0,0,0,.1,0,1.1-1.2,1.4-1.6,2.1-.5.8-1.3,1.4-2.2,1.8-.5.2-1.1.3-1.8-.6-.3-.4-.5-.9-.5-1.3,0-.3,0-.5.1-.6.1-.2.2-.4.3-.6.2-.4.2-1,.7-1,.2,0,0-.3.5,0,0,0,.1,0,.1,0-.2-.9.5-1,.8-1.5.2-.4-.1-1.1.3-1.4-.5-.5-.3-.7,0-.9,1-.6.8-1.8.9-2.6.2-.9,0-1.7-.2-2.4,0-.1-.4,0-.2-.3.2-.2,0-.3-.2-.4,0-.1-.3-.1-.2-.4,0-.4-.1-.7-.4-.9-.3-.2-.6-.3-.9-.5-.6-.4-1.2-.6-1.9-.5-.4,0-.8.4-1.2.3-.2,0-.3.3-.6-.2,0-.2-.2.3-.3.4-.3.1-.5.2-.8.3-.4.1-.8.3-1.1.5-.2.2-.3.5-.5.7-.2.2-.4.4-.6.5-.3.2-.7.2-1,.4-.3.2-.4.7-.8.8-.8.2-1,.9-1.5,1.5-.4.6-.8,1.2-1.1,1.9-.1.4-.7.5-.9.9,0,.2-1.5-.2-2-.5,0,0-.2-.1-.2-.2-.2-.6-.7-1.3-.4-1.7.4-.6.7-1.3,1.1-2Z"/>
    <path d="M310,140c.3.6.5,1.1.8,1.7.1.2,0,.5.6.5.3,0-.2.5,0,.6.3.5.5,1,.8,1.5.3.5.8.9,1.1,1.3.3.4.4,1.1.9,1.4.5.3.3.9.6,1.2.4.3.7.7.7,1.2,0,.4,0,.8.3,1,.2.1.5.1.7.3,0,.2,0,.5.6.3,0,0,0,.1,0,.2-.2.4,0,.6.3.6.3,0,.4.1.5.3.3.4.6.7.8,1.1.2.3.2.7.4,1,.2.3.6.5.6.9,0,.5.2.7.4,1,.1.1,0,.5.6.2,0,0,0,0,0,0-.3,1,.9.6,1.1,1.2.2.6.7.9,1.1,1.3.1.1,0,.4.5.1.2,0,.3,0,.2.2-.2.7.4.8.6,1.2.3.4.8.6.8,1.3,0,.3.1.6.7.3.3-.1.3.2.4.3.1,0,.4,0,.5,0,0,0,0,.3,0,.5,0,0,0,0,0,0,1,0,.9,1.1,1.6,1.5.7.3,1.2.9,1.7,1.4.3.3.5.7,0,1.8-.2.5-.6.9-.9,1.1-.3.1-.5.2-.7.1-.3,0-.5-.1-.8-.2-.5-.2-1.2,0-1.4-.6,0-.2-.4,0-.2-.5,0,0,0-.1,0-.1-1,.2-1.2-.7-1.8-1.1-.5-.4-1.3-.3-1.6-.9-.7.2-.9-.1-1-.5-.4-1.3-1.5-1.8-2.3-2.7-.8-.9-1.6-1.8-2.4-2.7-.1-.2-.5,0-.5-.4,0-.3-.3-.4-.5-.6-.2-.2-.4-.3-.4-.6,0-1.1-.9-1.6-1.5-2.4-.5-.8-1-1.6-1.6-2.3-.4-.4-1-.7-1.2-1.2,0-.2-.5-.3-.1-.8.1-.1-.4,0-.5-.2-.3-.3-.4-.7-.6-1-.3-.5-.5-1-.8-1.4-.2-.3-.6-.4-.8-.7-.2-.3-.4-.6-.5-.9-.1-.4-.2-.9-.3-1.3-.2-.4-.6-.7-.6-1.2,0-1-.5-1.6-.8-2.3-.3-.8-.6-1.5-1-2.2-.2-.4,0-1-.1-1.4,0-.2,1.2-1,1.7-1.1,0,0,.2,0,.2,0,.6.2,1.4.3,1.5.7.2.7.5,1.3.8,1.9Z"/>
    <path d="M282.6,157.9c.5-.2,1-.3,1.5-.6.2,0,.5,0,.4-.5,0-.3.4.2.6.1.4-.3.9-.4,1.3-.7.4-.3.7-.7,1.1-1,.4-.3,1-.3,1.2-.9.2-.5.8-.3,1-.6.3-.4.6-.7,1.1-.7.4,0,.7,0,.9-.3.1-.2,0-.5.2-.6.2,0,.5,0,.3-.6,0,0,.1,0,.2,0,.4.2.6,0,.6-.3,0-.3.1-.4.2-.5.3-.3.7-.6,1-.8.3-.2.7-.2,1-.3.3-.2.4-.6.8-.6.4,0,.6-.2.9-.4.1-.1.5,0,.2-.6,0,0,0,0,0,0,.9.3.5-.8,1-1,.5-.2.7-.7,1-1.1,0-.1.3,0,0-.5,0-.1,0-.2.1-.2.7.1.6-.4.9-.6.3-.3.3-.8,1-.9.3,0,.5-.2.1-.7-.2-.2.2-.3.2-.4,0-.1-.2-.4,0-.5,0,0,.3,0,.5-.1,0,0,0,0,0,0-.3-.9.8-1,.9-1.7.1-.7.5-1.3.9-1.9.2-.3.5-.6,1.7-.4.5.1,1,.3,1.3.6.2.2.3.4.3.6,0,.2,0,.5,0,.7,0,.5.3,1.1-.2,1.4-.1,0,0,.4-.5.3,0,0-.1,0-.1,0,.4.9-.3,1.3-.6,1.9-.2.5,0,1.3-.5,1.7.4.6,0,.9-.3,1-1.2.6-1.5,1.8-2.3,2.6-.8.8-1.6,1.7-2.5,2.4-.1.1,0,.5-.4.4-.3,0-.4.3-.6.4-.2.1-.3.4-.5.4-1.1,0-1.5.9-2.2,1.4-.7.5-1.4.9-2,1.6-.3.4-.6,1-1.1,1.2-.2,0-.2.5-.7.2-.1,0,0,.4-.2.5-.3.3-.6.4-.9.6-.4.3-.9.5-1.3.9-.2.2-.4.6-.6.8-.3.2-.5.4-.9.5-.4.1-.9.2-1.3.3-.4.1-.7.6-1.2.5-.9-.1-1.5.4-2.3.6-.8.2-1.5.4-2.3.6-.4.2-.9-.3-1.4-.2-.2,0-.6-1.4-.6-1.9,0,0,0-.2,0-.2.3-.5.5-1.3.9-1.3.6,0,1.1-.2,1.7-.4Z"/>
    <path d="M335.9,124.1c.4,0,.8,0,1.1,0,.1,0,.3.2.4-.3,0-.3.2.4.4.3.4,0,.7,0,1.1,0,.4,0,.7-.3,1.1-.3.4,0,.7.3,1.1,0,.3-.2.6.3.9.2.3,0,.7,0,.9.2.2.2.3.5.6.5.2,0,.4-.3.5-.2.1,0,.2.4.5-.2,0,0,0,0,0,.2,0,.4.2.5.4.3.2-.2.3-.1.5,0,.3.1.7.3.9.5.2.2.3.5.5.7.2.2.6.2.6.6,0,.4.2.5.4.7.1,0,0,.4.5,0,0,0,0,0,0,0-.3.8.7.4.8.9,0,.4.4.7.7,1,0,0,0,.3.4.1.2,0,.2,0,.2.1-.4.6,0,.7.1,1,0,.4.5.5.1,1-.1.2-.2.4.4.4.3,0,0,.2.2.3,0,0,.4,0,.4.2,0,0-.2.2-.2.4,0,0,0,0,0,0,.8.2,0,1,.4,1.4.3.4.4.9.4,1.4,0,.3-.1.6-1.2,1-.5.2-1,.3-1.4.3-.3,0-.5,0-.6-.1-.1-.1-.3-.2-.4-.3-.3-.2-.8-.3-.6-.7,0-.1-.3-.1.2-.3,0,0,0,0,0,0-.9-.1-.5-.6-.6-.9-.2-.3-.8-.3-.7-.7-.6,0-.6-.1-.5-.3.4-.8-.3-1.1-.5-1.6-.2-.5-.6-.9-.9-1.3,0,0-.4.1-.2-.1.1-.3-.1-.2-.2-.3,0,0-.2,0-.2-.2,0-.8-.5-.7-.8-.9-.3-.3-.7-.5-1.2-.5-.3,0-.6.3-.8,0,0,0-.3.2-.3-.4,0-.2-.2.2-.3.3-.2,0-.4,0-.5,0-.3,0-.5-.1-.8,0-.2,0-.3.3-.5.3-.2,0-.3,0-.5,0-.2,0-.4-.3-.7-.4-.2,0-.5.2-.7,0-.4-.5-.9-.2-1.3-.3-.4,0-.9,0-1.3.1-.2,0-.5-.4-.8-.4-.1,0-.4-1.4-.4-1.9,0,0,0-.2,0-.2.2-.5.4-1.2.6-1.2.4,0,.8,0,1.3,0Z"/>
    <path d="M335.1,123c-.2-1-.4-2-.5-3.1,0-.4.2-.8-.4-1.2-.3-.2.4-.6.3-.9-.1-1,.1-1.9.1-2.9,0-.9,0-1.9.2-2.8,0-.5.2-.9.4-1.4.2-.4.3-.9.3-1.4,0-.9.8-1.3,1-2,.2-.8.6-1.5,1.2-2.1.5-.4.9-.7,1.2-1.3.1-.3.1-.8.4-1.1.2-.3.7-.4.4-1.1,0,0,.2,0,.3-.1.6,0,.9-.4.9-.8,0-.4.3-.6.5-.8.6-.6,1.2-1.2,1.9-1.6.5-.3,1.2-.4,1.7-.7.6-.3,1-.8,1.7-.8.6,0,1.1-.2,1.6-.5.3-.1.7,0,.7-.7,0,0,.1-.1.2,0,1.1.5,1.6-.9,2.5-.9.9,0,1.8-.5,2.7-.7.2,0,.5,0,.7-.4,0-.2.3-.2.4-.2.8.5,1.4,0,2.1,0,.8,0,1.5-.4,2.4,0,.4.2.8.2,1.1-.4.1-.3.6,0,.9-.2.2,0,.4-.4.7-.4.2,0,.4.2.7.3,0,0,.1,0,.2,0,1.1-.8,2.4,0,3.6,0,1.3-.1,2.6,0,3.8.5.7.2,1.4.6,1.4,1.9,0,.6-.2,1.1-.6,1.3-.3.2-.5.3-.7.3-.3,0-.7,0-1,0-.7,0-1.4.5-2,.1-.2-.1-.5.2-.6-.3,0,0-.1-.1-.2,0-.9.7-1.9.2-2.8.4-.8.1-1.5.8-2.4.7-.4.7-.9.7-1.4.5-1.8-.4-3.3.3-4.9.6-1.6.3-3.2.8-4.7,1.4-.3,0-.3.5-.7.4-.4-.1-.7.2-1,.4-.3.1-.5.4-.9.4-1.4,0-2.3,1-3.3,1.7-.5.4-1,.7-1.4,1.2-.4.4-.9.9-1.2,1.4-.4.6-.5,1.4-1,2-.2.2,0,.7-.8.7-.2,0,0,.5,0,.7l-.6,1.4c-.3.6-.5,1.3-.7,2,0,.4,0,.9,0,1.3,0,.4,0,.9-.2,1.3-.2.5-.4,1.1-.5,1.7-.1.6.2,1.2,0,1.8-.5,1.1-.1,2.2,0,3.2,0,.5.2,1,.3,1.6.1.5.4,1,.6,1.5.3.5,0,1.2.3,1.8.1.2-1,1.3-1.5,1.5,0,0-.2,0-.3,0-.7-.4-1.7-.6-1.9-1.4-.2-.6-.4-1.1-.6-1.7l-.5-1.7Z"/>
    <path d="M356.5,125.5c.6,0,1.2-.2,1.8-.4.2,0,.5,0,.6-.5,0-.3.4.2.6.1.5-.3,1.1-.5,1.5-.8.5-.3.8-.8,1.2-1.2.4-.4,1-.5,1.2-1.1.1-.5.8-.5,1-.9.2-.4.4-.9.9-1.1.3-.2.7-.3.8-.7,0-.2-.1-.5,0-.7.1-.2.5-.3,0-.7,0,0,.1,0,.2,0,.5,0,.6-.3.4-.6-.2-.3,0-.4,0-.6.2-.5.3-.9.5-1.3.2-.3.5-.6.7-.9.2-.4,0-.8.4-1.1.4-.3.4-.6.5-1,0-.2.4-.4-.2-.7,0,0,0,0,0-.1.9-.4,0-1.2.2-1.7.3-.6.2-1.2.2-1.8,0-.2.2-.3-.3-.5-.2,0-.2-.2,0-.3.6-.4.3-.9.4-1.4.1-.5-.2-1.1.3-1.6.2-.2.3-.6-.3-.8-.3-.1,0-.4,0-.6,0-.2-.3-.3-.4-.5,0-.1.2-.3.3-.4,0,0,0,0,0-.1-.7-.7,0-1.6-.2-2.4-.3-.8-.3-1.6-.3-2.5,0-.5.1-1,1.2-1.4.5-.2,1-.3,1.4-.1.3.1.5.3.6.4.1.2.3.5.4.7.3.5.9,1,.6,1.6,0,.2.3.4-.2.6,0,0,0,.1,0,.1.9.7.4,1.5.6,2.3.1.6.8,1.2.6,1.9.7.3.6.8.4,1.2-.6,1.4-.2,2.7-.3,4-.2,1.4-.2,2.7-.5,4.1,0,.2.3.5,0,.7-.3.2-.2.6-.2.9,0,.3,0,.6-.2.8-.9.9-.8,2-1.3,3-.5,1-1,2-1.4,3-.2.6-.3,1.4-.8,1.9-.2.2-.1.7-.8.5-.2,0,0,.5,0,.6-.3.4-.6.7-.9,1.1-.5.5-1,.9-1.4,1.4-.3.3-.4.7-.7,1-.3.3-.7.6-1.1.8-.5.2-1.1.3-1.6.5-.5.2-1,.7-1.6.7-1.1-.1-2,.4-3,.6-1,.1-2,.2-3,.3-.6,0-1.1-.5-1.6-.6-.3,0-.3-1.5-.1-2,0,0,0-.2.1-.2.5-.4,1-1.1,1.4-1,.7.1,1.3,0,2,0Z"/>
    <path d="M343.6,182.3c0,.6,0,1.3,0,1.9,0,.2-.3.5.3.7.3.1-.4.3-.4.6,0,.6,0,1.2,0,1.8,0,.6.2,1.2.3,1.7,0,.6-.3,1.2,0,1.7.1.2,0,.5,0,.7,0,.1,0,.2-.1.3,0,.1,0,.2,0,.4,0,.9.1,1.9-.2,2.6l-.2.4h-.5c-.3.1-.6.2-.8.4-.3.2-.4.6-.9.7-.2,0-.4,0-.6.1,0,0-.2,0-.3.2,0,0,0,.2,0,.4,0,0-.1,0-.2,0-.4-.3-.6-.2-1,.2-.3.4-.7.4-1,.5-.5.1-1,.2-1.4.2-.4,0-.8,0-1.2-.2-.1,0-.2-.1-.3-.2-.4-.3-.6-.7-.8-1.2-.3-.5-.8-1.2-.7-1.9,0-.4,0-.7,0-1,0-.2,0-.4-.1-.6,0-.2.2-.5-.5-.6,0,0,0,0,0-.1.7-.8-.4-1.3-.3-2,.2-.7,0-1.4,0-2,0-.2.2-.3-.3-.5-.2,0-.2-.2,0-.3.7-.4.3-.9.5-1.4.2-.5,0-1,.4-1.5.2-.2.4-.5-.2-.8-.3-.1,0-.4,0-.6,0-.2-.3-.3-.3-.5,0,0,0-.1.1-.2,0-.1.2-.2.2-.3,0,0,0-.2,0-.2-.2-.6-.2-1.2,0-1.6.2-.5.5-.8.9-1.1.3-.2.5-.4.8-.5.5-.4,1.2-.5,1.9-.6h.5c.2,0,.2,0,.3,0h.6c.4,0,.9,0,1.3,1.2.2.5.3,1,.1,1.4,0,.3-.2.5-.4.6-.2.1-.4.3-.7.4-.2.1-.4.3-.7.5,0,.1,0,.2-.2,0-.1,0,0,.2-.3-.3,0,0-.1,0,0,0,0,.3,0,.4,0,.5,0,.1-.2.2-.2.3,0,0,0,.1.1.2,0,0,.1,0,.2.2.1.3.2.6,0,.9.6.4.5.7.2,1.1-.8,1.1-.4,2.3-.6,3.3-.1,1.1,0,2.1,0,3,0,.2.4.2.2.5-.2.2,0,.5,0,.6,0,0,.1,0,0,.1-.3.3-.3.7-.1.7.1,0,.2,0,.3,0,.1,0,.3,0,.4,0,.2,0,.9-.3.8-.3.1-.2,0-.4.1-.4,0,0-.3-.2.3,0,.2,0-.3-.2-.3-.2,0,0,0,0,0-.2v-.6c0-.5.1-1.1,0-1.6,0-.3-.3-.7-.3-1,0-.3,0-.7,0-1,0-.4.3-.8.4-1.3,0-.4-.2-.9.1-1.3.5-.8.3-1.6.4-2.4,0-.8.2-1.6,0-2.4,0-.4.5-.8.5-1.3,0-.2,1.5-.4,2-.3,0,0,.2,0,.2,0,.4.4,1.2.9,1.1,1.4,0,.7,0,1.4,0,2.2Z"/>
  </g>
</svg>