<?xml version="1.0" encoding="UTF-8"?>
<svg id="ARTWORK" xmlns="http://www.w3.org/2000/svg" width="600" height="600" viewBox="0 0 600 600">
  <g>
    <g>
      <path d="M393.6,332.7c-.8-1.1-1.7-2.2-2.7-3.3-.4-.4-.5-1-1.3-1-.4,0-.2-.8-.6-1.2-1-.9-1.8-2-2.8-2.9-.9-.9-2-1.7-3-2.5-1-.8-1.7-2-2.8-2.6-1-.5-1.3-1.5-2.2-2.2-.9-.6-1.8-1.4-2.4-2.2-.5-.6-.9-1.3-1.6-1.7-.4-.3-1-.3-1.3-.7-.4-.3-.6-.9-1.3-.7,0,0-.2-.2-.2-.3-.2-.6-.7-1-1.2-1.1-.5,0-.8-.3-1.1-.6-.9-.7-1.7-1.3-2.6-2-.6-.5-1.1-1.2-1.8-1.7-.6-.6-1.5-.9-2-1.6-.5-.7-1.1-1.1-1.7-1.6-.4-.3-.6-.8-1.3-.5,0,0-.2,0-.2-.2-.6-1.4-2.2-1.2-3.1-2.1-1-.9-2.2-1.5-3.3-2.2-.3-.2-.5-.5-1.1-.3-.2,0-.5,0-.6-.3-.5-1-1.6-1.2-2.4-1.9-.9-.7-2.1-1-2.9-2-.3-.4-.9-.8-1.7-.6-.4.1-.7-.4-1.1-.5-.3-.1-.8,0-1.1-.2-.3-.1-.4-.5-.6-.7,0,0-.2-.1-.3-.1-1.8-.1-2.9-1.7-4.5-2.2-1.6-.5-3.1-1.3-4.7-1.9-.9-.4-1.7-.8-1.9-2.2-.1-.6,0-1.1.5-1.3.4-.1.8-.2,1.1-.2.6,0,1.1.2,1.7.2.6,0,1.2.1,1.7.2.6,0,1.1.3,1.6.6.3.2.8.1.9.7,0,0,.1.2.2.2.9,0,1.6.2,2.4.5.7.4,1.4.8,2.1,1.1,1.2.6,2.7.5,3.8,1.4.9-.2,1.7.3,2.2.9,2,1.8,4.5,2.9,6.7,4.3,1.1.8,2.2,1.5,3.4,2.2,1.1.7,2.3,1.5,3.3,2.3.4.3.9.2,1.2.7.3.5.9.7,1.4,1,.4.3,1,.5,1.3,1,1.3,1.8,3.2,2.7,4.8,4.1,1.6,1.4,3.2,2.7,4.9,3.9,1,.8,2.2,1.3,3.1,2.3.4.4,1,.5,1.1,1.3,0,.2.7.2,1,.5.7.6,1.3,1.2,2,1.8l2.7,2.5c.6.5,1.3.8,1.8,1.3.6.5,1.2,1.1,1.7,1.7.6.8,1.1,1.6,1.8,2.4.6.8,1.6,1.4,2,2.3.8,1.7,2.2,2.9,3.3,4.4,1,1.5,2.2,2.9,3.3,4.4.6.8.8,1.9,1.3,2.7.3.4-.6,1.7-1.2,1.8-.1,0-.2,0-.3,0-.9-.5-2-.9-2.6-1.8-.8-1.4-1.9-2.6-2.8-3.9Z"/>
      <path d="M410.3,354c-.3-.2-.5-.5-.8-.7-.1,0,0-.4-.5,0-.2.2,0-.4,0-.5-.3-.2-.5-.5-.8-.6-.3-.2-.7-.2-1-.4-.3-.2-.4-.6-.8-.6-.4,0-.3-.5-.5-.6-.3-.1-.6-.2-.6-.6,0-.3,0-.6-.3-.6-.1,0-.4.1-.5,0,0-.1,0-.4-.5,0,0,0,0,0,0-.2.2-.4,0-.5-.2-.4-.3.1-.3,0-.4,0-.2-.2-.5-.4-.6-.7-.1-.2-.1-.5-.2-.7-.1-.2-.5-.2-.4-.6,0-.4,0-.5-.2-.7,0,0,0-.4-.5,0,0,0,0,0,0,0,.4-.8-.6-.4-.7-.8,0-.4-.4-.6-.6-.9,0,0,0-.3-.4-.1-.2,0-.2,0-.2-.1.4-.6,0-.6-.2-.9,0-.3-.5-.5-.2-1,.1-.2.1-.4-.5-.3-.3,0-.1-.2-.2-.3,0,0-.4,0-.4-.1,0,0,.1-.3.2-.4,0,0,0,0,0,0-.8-.2-.1-1-.5-1.4-.3-.5-.4-1.2-.3-1.9,0-.4.3-.9,1.5-.9.5,0,1.1.2,1.3.4.2.1.4.2.5.3,0,0,.2.2.3.2.2.2.7.2.5.4,0,0,.2,0-.2.3,0,0,0,0,0,0,.8,0,.5.6.7.9.2.3.8.3.7.6.6-.1.6,0,.5.3-.3.8.4,1.1.6,1.6.3.6.7,1,1,1.5,0,0,.4,0,.3.2-.1.3.1.2.2.3,0,0,.3.1.2.3-.2.8.5.9.8,1.3.3.4.6.8,1.1,1,.3.1.8,0,.9.4,0,.1.4,0,0,.5,0,.1.3-.1.4,0,.2.1.3.3.5.4.2.2.4.4.7.6.2,0,.5,0,.6.1.2,0,.3.2.4.4.1.2.2.5.3.8.2.2.5.2.5.6,0,.7.5.8.8,1.2.3.4.6.7,1,.9.2.1,0,.7.3.8,0,0-.8,1.2-1.2,1.6,0,0-.2.1-.2.1-.5.2-1.2.5-1.3.3-.2-.3-.6-.6-.9-.8Z"/>
      <path d="M422.2,348.5c-.1.1-.3.2-.4.4,0,0-.3,0,0,.4.2.2-.3-.2-.4-.1,0,.2-.3.2-.3.4,0,.2,0,.4-.1.6,0,.2-.4,0-.3.4,0,.3-.3,0-.4.2,0,.2,0,.4-.3.3-.2,0-.4-.1-.4,0,0,0,.2.4.1.4,0,0-.3-.1,0,.4,0,0,0,0-.1,0-.3-.2-.4-.2-.2,0,.1.2,0,.2,0,.3,0,.1-.2.2-.3.3-.1,0-.4,0-.5,0-.1,0,0,.3-.3.2-.3-.2-.3,0-.4,0,0,0-.3-.1.1.4,0,0,0,0,0,0-.7-.5,0,.4-.3.4-.3,0-.3.2-.4.3,0,0-.2,0,0,.3,0,.1,0,.2,0,.1-.5-.4-.4,0-.5,0-.2,0-.1.3-.6,0-.2-.1-.3-.1,0,.4.1.2,0,0,0,.2,0,0,.1.3.1.3,0,0-.2-.1-.3-.2,0,0,0,0,0,0,.3.7-.5.1-.5.4,0,.3-.3.4-.5.4-.1,0-.3,0-1.1-.9-.4-.4-.7-.8-.9-1.1-.1-.2-.2-.4-.2-.5,0-.1,0-.3,0-.4,0-.2-.2-.7,0-.6,0,0,0-.2.3.1,0,0,0,0,0,0-.4-.7.1-.5.2-.6,0-.1-.2-.7.1-.6-.3-.5-.2-.5,0-.4.7.3.6-.3.9-.4.3-.1.5-.4.8-.6,0,0-.2-.3,0-.2.2.2.1,0,.2-.1,0,0,0-.2.2-.1.6.3.6-.2.8-.3.2-.1.5-.3.5-.6,0-.2,0-.5.1-.6,0,0,0-.3.4,0,.1.1-.1-.3-.1-.3,0-.1.1-.2.2-.2.1-.1.2-.2.3-.3,0,0,0-.3,0-.4,0-.1,0-.2.2-.2.1,0,.4,0,.5,0,.1,0,0-.3.3-.2.5.2.5-.1.7-.3.2-.1.4-.3.4-.5,0-.1.5.1.6,0,0,0,1.2.9,1.5,1.3,0,0,.1.1.2.2.3.4.7,1,.6,1.1-.2.1-.3.3-.5.5Z"/>
      <path d="M413.7,338.4c.2.1.3.3.5.4,0,0,0,.3.4,0,.2-.2-.2.4,0,.4.2,0,.3.3.5.4.2,0,.5,0,.7.1.2,0,.1.4.5.3.3-.1,0,.4.3.4.2,0,.4,0,.4.3,0,.2,0,.4,0,.4,0,0,.4-.2.4-.1,0,0,0,.3.4-.1,0,0,0,0,0,.1-.2.4-.1.4.1.2.2-.2.2-.1.3,0,.1,0,.3.2.4.3,0,.1,0,.4,0,.5,0,.1.3,0,.2.3-.1.3,0,.4,0,.4,0,0,0,.3.4-.1,0,0,0,0,0,0-.4.8.5,0,.5.3,0,.3.3.3.4.4,0,0,0,.2.3-.1.1-.1.2,0,.1,0-.3.6,0,.4.1.6,0,.2.4,0,.2.6,0,.2,0,.4.4,0,.2-.2,0,0,.2,0,0,0,.3-.2.3-.2,0,0,0,.2-.1.3,0,0,0,0,0,0,.6-.4.3.5.6.5.3,0,.5.2.6.5,0,.1,0,.4-.5,1.3-.3.4-.6.9-.9,1.1-.2.2-.4.3-.4.3-.1,0-.3,0-.4.1-.2,0-.7.4-.7,0,0-.1-.2,0,0-.3,0,0,0-.1,0,0-.7.5-.5,0-.8-.2-.2,0-.7.3-.7,0-.5.4-.5.3-.5,0,.1-.8-.5-.7-.7-1-.3-.3-.6-.5-.9-.8,0,0-.3.2-.2,0,.1-.2,0-.2-.2-.2,0,0-.2,0-.2-.2.2-.7-.3-.6-.5-.9-.2-.3-.4-.5-.7-.6-.2,0-.6.1-.6-.1,0,0-.3.1,0-.4,0-.1-.3.2-.3.1-.1,0-.2-.2-.3-.2-.1-.1-.2-.3-.4-.3-.1,0-.4,0-.5,0-.1,0-.2-.1-.3-.2,0-.2,0-.4-.1-.5,0-.1-.4,0-.3-.3.1-.6-.2-.5-.4-.8-.2-.2-.3-.4-.6-.5-.2,0,0-.5,0-.6,0,0,.9-1.2,1.2-1.6,0,0,.1-.1.2-.2.4-.3,1-.7,1.1-.6.1.2.3.3.5.5Z"/>
      <path d="M426,337c-.2,0-.5,0-.7,0,0,0-.2-.2-.2.3,0,.3-.2-.3-.3-.3-.2.1-.4,0-.6.1-.2,0-.4.3-.6.4-.2,0-.5-.2-.6.2-.1.3-.4-.2-.5,0-.1.2-.3.3-.5,0-.2-.1-.3-.3-.4-.2,0,0,0,.4-.1.4,0,0-.2-.2-.1.4,0,0,0,0,0-.1-.2-.4-.3-.3-.3,0,0,.3,0,.3-.1.3-.2,0-.3.2-.5.1-.1,0-.3-.2-.5-.2-.2,0-.2.3-.4,0-.2-.2-.3-.2-.5-.2,0,0-.2-.2,0,.4,0,0,0,0,0,0-.5-.7-.3.4-.6.3-.3-.1-.4,0-.6.2,0,0-.2-.1,0,.3,0,.2,0,.2,0,0-.4-.5-.4-.1-.6-.1-.2,0-.3.3-.6,0-.2-.2-.3-.2-.2.4,0,.3-.1,0-.2.1,0,0,0,.3,0,.4,0,0-.2-.2-.3-.3,0,0,0,0,0,0,.1.7-.5,0-.6.3,0,.3-.2.3-.3.3,0,0-.2,0-1.2-.7-.4-.3-.9-.6-1.1-.9-.2-.2-.3-.4-.3-.5,0-.2,0-.3,0-.5,0-.3,0-.9.3-.9.1,0,0-.3.4,0,0,0,0,0,0,0-.1-.9.4-.6.7-.8.2-.2.2-.8.5-.7-.1-.6,0-.6.3-.5.7.4,1-.2,1.5-.3.5,0,.9-.3,1.4-.5,0,0,0-.4.2-.2.2.2.2,0,.3,0,0,0,.1-.2.3,0,.6.5.8,0,1.2,0,.4,0,.8,0,1.1-.3.2-.2.3-.5.6-.5.1,0,.1-.3.4.2,0,.2,0-.3.1-.3.1,0,.3,0,.5-.1.2,0,.4,0,.7-.1.1,0,.2-.3.3-.4.1,0,.3-.1.4,0,.2,0,.4.2.6.3.2,0,.3-.3.6,0,.4.5.7.2,1,.2.3,0,.7,0,1-.1.2,0,.4.4.6.4,0,0,.3,1.5.3,2,0,0,0,.2,0,.2-.1.5-.2,1.2-.4,1.2-.3,0-.5,0-.8,0Z"/>
      <path d="M430.6,341.8c-.1,0-.2-.2-.3-.2,0,0,0-.3-.3.1-.2.2.2-.3.1-.3-.1,0-.2-.2-.3-.2-.1,0-.4,0-.5,0-.1,0,0-.3-.4-.1-.2.2,0-.3-.2-.3-.2,0-.3,0-.2-.2,0-.2.1-.4,0-.4,0,0-.3.3-.3.2,0,0,0-.3-.3.2,0,0,0,0,0-.1.2-.4.1-.4,0-.2-.2.2-.2.1-.2.1-.1,0-.2,0-.3-.2,0,0,0-.3,0-.4,0,0-.3,0-.2-.2.1-.3,0-.3,0-.4,0,0,0-.3-.3.2,0,0,0,0,0,0,.4-.7-.3,0-.3-.2,0-.2-.2-.2-.3-.3,0,0,0-.2-.2.2-.1.1-.1.1,0,0,.3-.6,0-.3,0-.5,0-.2-.3,0,0-.5,0-.2,0-.3-.3.1-.2.2,0,0-.1,0,0,0-.2.2-.3.2,0,0,0-.2.1-.3,0,0,0,0,0,0-.5.4-.1-.4-.4-.3-.2,0-.3-.1-.4-.3,0,0,0-.3.6-1.3.3-.4.6-.9.8-1.1.2-.2.3-.3.4-.4,0,0,.2-.1.3-.2.2,0,.6-.5.5-.2,0,0,.2-.1,0,.3,0,0,0,0,0,0,.6-.6.4,0,.6,0,.1,0,.6-.4.5-.1.4-.5.4-.3.4-.1-.2.7.3.5.4.7.1.2.4.3.6.5,0,0,.3-.2.1,0-.1.2,0,.1,0,.1,0,0,.2,0,.1.1-.2.6.2.4.3.6.1.2.2.3.5.3.2,0,.5-.2.5,0,0,0,.3-.2,0,.3,0,.1.2-.2.3-.2,0,0,.1,0,.2.1,0,0,.2.2.3.2,0,0,.3-.1.4-.2,0,0,.2,0,.2.1,0,.1,0,.3,0,.4,0,.1.3,0,.2.2-.2.5.1.4.2.6.1.1.2.3.4.3.1,0-.1.5,0,.5,0,0-.8,1.3-1.1,1.7,0,0-.1.2-.2.2-.3.3-.8.9-.9.8,0-.1-.2-.2-.4-.3Z"/>
      <path d="M437.8,333.4c0,.2-.1.4-.1.5,0,0-.3,0,.2.3.2.1-.4,0-.4,0,0,.2-.1.3-.1.5,0,.2.2.4.1.6,0,.2-.3.2,0,.5.2.2-.3.1-.2.3,0,.2,0,.3-.2.3-.2,0-.4,0-.4.1,0,0,.3.3.3.3,0,0-.3,0,.2.3,0,0,0,0-.2,0-.4-.1-.4,0-.2.1.2.2.2.2.2.2,0,.1,0,.3-.2.3,0,0-.3,0-.4,0,0,0,.1.3-.2.2-.3,0-.3,0-.4.1,0,0-.3,0,.2.3,0,0,0,0,0,0-.8-.2.1.4-.1.4-.3,0-.2.2-.2.4,0,0-.2,0,.2.2.1,0,.1.1,0,0-.6-.2-.3,0-.4.1-.2,0,0,.3-.4.2-.2,0-.3,0,.2.3.2.1,0,0,0,.1,0,0,.3.2.3.2,0,0-.2,0-.3,0,0,0,0,0,0,0,.6.4-.3.2-.2.4.1.2,0,.3-.1.5,0,0-.3,0-1.4-.1-.5-.1-1-.2-1.3-.4-.2,0-.4-.2-.5-.2,0,0-.2-.2-.3-.3-.1-.2-.6-.5-.3-.5,0,0-.2-.2.3,0,0,0,.1,0,0,0-.7-.4-.1-.5-.1-.6,0-.2-.5-.5-.2-.6-.6-.3-.4-.4-.2-.4.7,0,.5-.5.7-.7.2-.2.3-.6.4-.8,0,0-.3-.2,0-.2.3,0,.1,0,.1-.1,0,0,0-.2,0-.2.7,0,.4-.3.6-.5.2-.2.3-.3.3-.6,0-.2-.3-.4-.1-.5,0,0-.2-.2.4,0,.2,0-.2-.2-.2-.2,0-.1,0-.2,0-.2,0-.1.1-.2.1-.3,0,0-.2-.2-.2-.3,0,0,0-.2,0-.2.1,0,.3,0,.4-.1,0,0-.1-.2.1-.2.5,0,.3-.2.4-.4,0-.1.2-.3,0-.5,0-.1.5,0,.5-.2,0,0,.4,0,.8,0,.4,0,.9.1,1.2.2,0,0,.2,0,.2,0,.4.2,1.1.4,1,.6-.1.2-.1.4-.2.6Z"/>
      <path d="M417.6,324.6c.4,0,.8-.1,1.1-.3.1,0,.3.2.4-.4,0-.3.3.3.4.3.3-.1.7,0,1.1-.2.3-.1.7-.4,1-.5.3,0,.7.2,1-.2.3-.3.6.2.8,0,.3-.1.6-.2.9,0,.2.2.4.4.7.3.1,0,.3-.4.5-.3.2,0,.3.3.5-.3,0,0,0,0,0,.2.1.4.3.4.5.2.2-.2.3-.2.5-.2.4,0,.8.2,1.1.3.3.1.4.5.6.6.2.2.6,0,.7.4,0,.4.2.5.4.6.1,0,0,.4.5,0,0,0,0,0,0,0-.2.9.7.2.9.5.2.4.5.5.8.6,0,0,0,.3.4,0,.1-.1.2,0,.2,0-.2.7.3.5.4.8.2.3.6.2.5.8,0,.2,0,.4.5,0,.2-.2.2.1.3.2.1,0,.3-.1.4,0,0,0,0,.3,0,.4,0,0,0,0,0,0,.8-.2.5.8,1,.9.5.2.7.6,1,.9.1.2.2.5-.5,1.4-.3.4-.7.8-1,1-.2.1-.4.2-.5.2-.2,0-.4,0-.5,0-.3,0-.9.2-.9-.2,0-.1-.3,0,0-.4,0,0,0-.1,0,0-.8.3-.7-.3-1-.5-.3-.2-.9.1-1-.3-.5.4-.6.2-.6,0,0-.9-.8-.9-1.3-1.4-.4-.4-1-.7-1.5-1.1,0,0-.3.2-.3-.1,0-.3-.2-.2-.3-.2,0,0-.3,0-.3-.2,0-.8-.6-.6-.9-.8-.3-.2-.7-.3-1.1-.2-.3,0-.5.4-.8.3-.1,0-.2.3-.4-.3,0-.2-.1.3-.2.3-.2,0-.4,0-.6,0-.3,0-.5,0-.8,0-.2,0-.3.3-.5.4-.2,0-.3,0-.5,0-.2,0-.5-.2-.7-.3-.2,0-.4.3-.7,0-.5-.4-.9,0-1.3,0-.4,0-.8.1-1.2.3-.2.1-.6-.3-.8-.2,0,0-.7-1.3-.8-1.8,0,0,0-.2,0-.2,0-.5,0-1.3.4-1.3.4,0,.8-.2,1.3-.3Z"/>
      <path d="M436.5,331.4c-.1,0-.3-.1-.4-.1,0,0,0-.3-.2.2-.1.2,0-.4,0-.4-.2,0-.3-.1-.4,0-.1,0-.3.2-.5.2-.1,0-.2-.3-.4,0-.2.2-.1-.3-.3-.2-.1,0-.3.1-.3-.1,0-.2,0-.4-.1-.3,0,0-.2.3-.3.3,0,0,0-.3-.2.3,0,0,0,0,0-.2,0-.4,0-.4-.1-.1-.1.2-.2.2-.2.2-.1,0-.2,0-.3-.1,0,0,0-.3-.1-.4,0,0-.2.2-.2-.2,0-.3,0-.3-.1-.3,0,0,0-.3-.2.3,0,0,0,0,0,0,.1-.8-.3.2-.4,0,0-.2-.2-.1-.4-.2,0,0,0-.2-.2.2,0,.2-.1.2,0,0,0-.6-.1-.3-.2-.4,0-.2-.3,0-.2-.4,0-.2,0-.3-.3.2-.1.2,0,0-.1,0,0,0-.2.3-.2.3,0,0,0-.2,0-.4,0,0,0,0,0,0-.4.6-.3-.3-.5-.2-.2.1-.4,0-.5-.1,0,0-.1-.3.2-1.4.1-.5.3-1,.4-1.3.1-.2.2-.4.3-.5,0,0,.2-.2.3-.3.2-.2.4-.6.5-.3,0,0,.1-.2,0,.3,0,0,0,.1,0,0,.4-.7.4-.2.5-.2.1,0,.5-.6.5-.3.3-.6.3-.4.3-.2,0,.7.4.4.7.5.2.2.5.2.8.3,0,0,.2-.3.2,0,0,.3,0,0,.1.1,0,0,.1,0,.1,0,0,.7.3.4.5.5.2.1.4.3.6.2.2,0,.4-.3.5-.2,0,0,.2-.2,0,.3,0,.2.2-.3.2-.3,0,0,.2,0,.3,0,.1,0,.2.1.4,0,0,0,.2-.2.3-.3,0,0,.2,0,.2,0,0,.1,0,.3.2.4,0,0,.3-.1.3.2,0,.5.3.4.4.5.2.1.3.2.5.1.1,0,0,.5.2.5,0,0-.3,1.4-.5,1.9,0,0,0,.2,0,.2-.2.4-.5,1.1-.6,1-.1-.1-.3-.1-.5-.2Z"/>
      <path d="M442.1,323.3c0,.1-.1.2-.1.4,0,0-.3,0,.2.2.2.1-.4,0-.4,0,0,.1-.1.2-.1.3,0,.1.2.3.2.4,0,.1-.3.1,0,.3.2.2-.3,0-.2.2,0,.1.1.3-.1.2-.2,0-.4,0-.3,0,0,0,.3.2.3.3,0,0-.3,0,.3.3,0,0,0,0-.1,0-.4-.1-.4,0-.2,0,.2.1.2.2.2.2,0,.1,0,.2-.1.3,0,0-.3,0-.4,0,0,0,.1.2-.2.2-.3,0-.3,0-.3,0,0,0-.3,0,.3.2,0,0,0,0,0,0-.8-.2.2.3,0,.3-.2,0-.1.2-.2.3,0,0-.2,0,.2.2.1,0,.1.1,0,0-.6-.2-.3,0-.4.1-.2,0,0,.3-.4.2-.2,0-.3,0,.2.2.2.1,0,0,0,.1,0,0,.3.2.3.2,0,0-.2,0-.3,0,0,0,0,0,0,0,.6.4-.3.2-.2.4.1.2,0,.3-.2.4,0,0-.3,0-1.4-.3-.5-.2-1-.4-1.3-.6-.2-.1-.4-.2-.4-.3,0,0-.2-.2-.2-.3-.1-.2-.6-.5-.3-.4,0,0-.2-.1.3,0,0,0,.1,0,0,0-.7-.4-.1-.4-.1-.5,0-.1-.5-.5-.2-.5-.6-.3-.4-.3-.2-.3.7,0,.4-.3.6-.5.2-.2.2-.4.3-.6,0,0-.3-.2,0-.1.3,0,0,0,.1-.1,0,0,0-.1,0-.1.7.1.4-.2.5-.4.1-.1.3-.3.2-.5,0-.1-.3-.4-.2-.4,0,0-.2-.2.3,0,.2,0-.2-.2-.2-.2,0,0,0-.1,0-.2,0,0,.1-.2.1-.3,0,0-.2-.2-.2-.3,0,0,0-.1,0-.2.1,0,.3,0,.4,0,0,0-.1-.2.2-.2.5,0,.4-.2.5-.3.1-.1.2-.2.2-.4,0-.1.5,0,.5,0,0,0,1.4.5,1.8.7,0,0,.2,0,.2.1.4.3,1,.6.9.7-.1.1-.1.3-.2.4Z"/>
      <path d="M437.7,323c-.3-.1-.6-.3-.9-.3-.1,0-.1-.3-.5.1-.2.2,0-.4-.1-.4-.3,0-.6-.2-.9-.3-.3,0-.7,0-1,0-.3,0-.5-.4-.9-.2-.3.2-.4-.4-.6-.4-.3,0-.5,0-.6-.3,0-.2-.2-.5-.3-.4-.1,0-.3.3-.4.3,0,0-.1-.3-.3.2,0,0,0,0,0-.2,0-.4-.1-.4-.2-.2-.1.2-.2.2-.3.2-.2,0-.4,0-.6,0-.1,0-.3-.3-.4-.4-.2,0-.4.2-.5-.1-.1-.3-.3-.3-.5-.3,0,0-.2-.3-.3.3,0,0,0,0,0,0-.3-.8-.5.3-.8,0-.3-.2-.6,0-.9,0,0,0-.2-.2-.2.3,0,.2,0,.2-.1,0-.2-.6-.4-.2-.7-.3-.3-.1-.5.2-.8-.3-.1-.2-.3-.3-.4.3,0,.3-.2,0-.3,0,0,0-.1.3-.2.4,0,0-.1-.2-.2-.3,0,0,0,0,0,0-.3.7-.7-.1-1.1,0-.3.2-.7.2-1.1.2-.2,0-.4-.2-.8-1.3-.2-.5-.3-1-.2-1.4,0-.2,0-.5.1-.6.1-.1.2-.3.3-.4.2-.2.4-.8.7-.6,0,0,.2-.2.3.3,0,0,0,.1,0,0,.2-.8.7-.4,1-.5.3,0,.5-.7.9-.5.1-.6.3-.6.5-.4.7.6,1.3.1,1.9.2.6,0,1.3,0,1.9,0,.1,0,.2-.3.3,0,.1.3.3,0,.4,0,.1,0,.3-.1.4,0,.5.7,1,.3,1.6.5.5.2,1.1.4,1.6.4.3,0,.8-.2,1,0,.1,0,.4-.2.3.4,0,.2.2-.2.3-.2.2,0,.4.1.6.2.3.1.5.2.8.3.2,0,.4-.1.6-.1.2,0,.3,0,.5.2.2.2.3.4.5.6.2.1.5,0,.6.3.2.6.7.5,1,.7.4.2.7.4,1.1.4.2,0,.2.6.5.6,0,0-.3,1.5-.5,1.9,0,0,0,.2-.1.2-.4.4-.8,1-1,.8-.3-.2-.7-.3-1-.4Z"/>
      <path d="M432.8,312.2c-.3,0-.7,0-1,.1-.1,0-.3-.2-.3.3,0,.3-.2-.3-.3-.3-.3.1-.6,0-.9.2-.3.1-.6.4-.9.5-.3.1-.6-.1-.9.2-.2.3-.5-.1-.7,0-.2.2-.5.3-.8.1-.2-.1-.4-.3-.6-.2,0,0-.1.4-.2.4-.1,0-.3-.2-.2.4,0,0,0,0-.1-.1-.2-.4-.4-.3-.4,0,0,.3-.1.3-.2.3-.2.1-.5.2-.7.2-.2,0-.4-.2-.6-.2-.2,0-.3.3-.6.1-.3-.2-.4-.1-.6,0,0,0-.3-.2-.2.4,0,0,0,0,0,0-.6-.7-.4.5-.8.4-.4,0-.6.2-.8.3,0,0-.2,0,0,.4,0,.2,0,.2-.1.1-.5-.5-.5,0-.8,0-.3,0-.4.4-.8.1-.2-.1-.4-.1-.2.4,0,.3-.2,0-.2.2,0,0,0,.4,0,.4,0,0-.2-.1-.3-.2,0,0,0,0,0,0,0,.7-.7.2-.9.6-.2.4-.5.5-.9.7-.2,0-.5,0-1.4-.7-.4-.3-.8-.7-.9-1.1-.1-.2-.2-.5-.2-.6,0-.2,0-.4.1-.5,0-.3,0-.9.4-.9.1,0,0-.3.4,0,0,0,.1,0,0,0-.2-.9.5-.7.8-1,.3-.2.2-.9.6-.9-.2-.6.1-.7.4-.6.9.2,1.3-.5,2-.7.7-.2,1.3-.6,1.9-.8.1,0,0-.4.3-.2.2.2.3,0,.4-.1.1,0,.2-.2.4-.1.7.5,1.1,0,1.6-.2.5,0,1.1-.2,1.5-.4.3-.2.5-.6.9-.5.1,0,.2-.3.5.2,0,.2.1-.3.2-.4.2,0,.4-.1.6-.1.3,0,.6,0,.9-.2.2,0,.3-.3.5-.4.2,0,.4-.1.6,0,.3,0,.5.2.8.2.3,0,.5-.3.8,0,.5.5.9.1,1.4.2.4,0,.9,0,1.3-.1.2,0,.5.4.8.4.1,0,.3,1.5.3,2,0,0,0,.2,0,.2-.2.5-.4,1.2-.6,1.2-.4,0-.8,0-1.2,0Z"/>
      <path d="M437.4,311.6c0,.1,0,.2,0,.3,0,0-.2.1.3,0,.3,0-.4.1-.3.1,0,0,0,.2,0,.3,0,0,.3.2.4.3,0,0-.2.2.1.3.3,0-.2.2,0,.2.1,0,.2.2,0,.3-.2,0-.4.1-.3.2,0,0,.4,0,.4,0,0,0-.3,0,.3,0,0,0,0,0-.1,0-.4,0-.4.1,0,.1.3,0,.2,0,.3,0,0,0,0,.2,0,.3,0,0-.3.1-.3.2,0,0,.2.1,0,.2-.3,0-.3.1-.3.2,0,0-.3,0,.3.1,0,0,0,0,0,0-.8,0,.3.2,0,.3-.2,0,0,.2,0,.3,0,0-.2,0,.3,0,.2,0,.2,0,0,0-.6,0-.2.1-.4.2-.1,0,.2.2-.3.2-.2,0-.3,0,.3.1.3,0,0,0,0,0,0,0,.3,0,.3,0,0,0-.2,0-.3,0,0,0,0,0,0,0,.7.2-.2.2,0,.4.2.1,0,.3,0,.4,0,0-.3.1-1.4,0-.5,0-1.1,0-1.4-.2-.2,0-.5,0-.5-.1,0,0-.2,0-.3-.1-.2,0-.7-.2-.4-.3,0,0-.2,0,.3,0,0,0,.1,0,0,0-.8-.2-.3-.2-.3-.3,0,0-.7-.2-.4-.3-.6,0-.5-.1-.3-.2.7-.1.2-.3.3-.5,0-.2,0-.3,0-.5,0,0-.4,0,0,0,.3,0,0,0,0-.1s-.1,0,0,0c.7-.1.3-.3.3-.4,0-.1.1-.3,0-.4-.1,0-.5-.1-.3-.2,0,0-.3,0,.3-.1.2,0-.3,0-.3,0,0,0,0-.1,0-.2,0,0,0-.2,0-.2,0,0-.3,0-.4-.1,0,0,0,0,0-.1,0,0,.3-.1.3-.2,0,0-.2-.1,0-.2.5-.2.2-.3.3-.4,0-.1,0-.2,0-.3,0,0,.4-.2.4-.2,0,0,0,0,.2,0,.1,0,.3,0,.6-.1.4,0,.9-.2,1.2-.2,0,0,.2,0,.2,0,.5,0,1.2,0,1.2,0,0,.1,0,.2,0,.4Z"/>
      <path d="M276.4,312.2c1.1-.4,2.2-.7,3.3-1.2.4-.2.9,0,1.1-.7.1-.3.7.1,1.1,0,1-.4,2-.7,3-1.2,1-.4,1.9-1,2.8-1.4,1-.4,2.1-.5,2.9-1.2.7-.6,1.6-.4,2.4-.8.8-.4,1.6-.8,2.5-.9.7,0,1.3,0,1.9-.4.3-.2.6-.6,1-.8.4-.1.9,0,1-.7,0,0,.2,0,.3,0,.5.2,1,0,1.3-.4.2-.4.5-.5.8-.6.8-.4,1.6-.7,2.5-1,.6-.2,1.3-.2,2-.4.7-.2,1.2-.8,2-.7.7,0,1.3-.2,1.9-.5.3-.1.8,0,.9-.7,0,0,.1-.1.2,0,1.3.4,1.8-1,2.8-1.3,1.1-.2,2-.8,3-1.3.3-.1.6,0,.7-.6,0-.2.3-.3.5-.3,1,.3,1.6-.4,2.4-.7.9-.3,1.6-.9,2.7-.9.4,0,1,0,1.2-.8,0-.3.6-.3.9-.5.2-.2.4-.5.6-.6.2-.1.5,0,.8,0,0,0,.2,0,.2,0,1-1.2,2.6-.9,3.7-1.7,1.2-.7,2.5-1.3,3.8-1.8.7-.3,1.5-.5,2.5.4.4.4.7.9.5,1.3-.1.3-.3.6-.5.8-.4.3-.7.6-1,.9-.7.6-1.3,1.4-2.3,1.6-.3,0-.5.5-.9,0,0,0-.2,0-.2,0-.8,1.2-2.2,1.3-3.3,1.9-1,.5-1.6,1.5-2.7,1.7-.3.8-1,1-1.6,1.1-2.2.3-4,1.5-5.9,2.3-2,.8-3.9,1.7-5.9,2.5-.3.1-.5.6-1,.5-.5,0-.9.3-1.3.5-.4.2-.8.5-1.2.5-1.8,0-3.2,1-4.8,1.6-1.6.6-3.2,1.1-4.7,1.9-.9.5-1.7,1.2-2.7,1.4-.4.1-.7.6-1.4.2-.2-.1-.4.5-.6.6-.6.3-1.3.5-2,.8-.9.4-1.8.6-2.7,1.1-.5.2-1,.7-1.5.9-.6.3-1.2.5-1.8.7-.8.2-1.6.3-2.3.5-.8.2-1.5.8-2.3.8-1.5,0-2.8.7-4.2,1.2-1.4.4-2.8.9-4.1,1.4-.8.3-1.6,0-2.4.4-.4.1-1.3-1.1-1.3-1.6,0-.1,0-.2,0-.3.6-.7,1-1.6,1.9-1.9,1.3-.4,2.5-.8,3.7-1.3Z"/>
      <path d="M250,270.4c-1.2-.3-2.4-.7-3.6-.9-.4,0-.8-.4-1.4,0-.3.2-.6-.5-1-.6-1.1-.2-2.2-.5-3.3-.7-1.1-.2-2.2-.2-3.3-.4-1.1-.2-2.1-.7-3.2-.6-.9,0-1.7-.5-2.6-.6-.9,0-1.9-.1-2.7-.5-.6-.3-1.2-.6-1.9-.6-.4,0-.8.3-1.3.2-.4,0-.8-.4-1.3.1,0,0-.2,0-.3-.2-.4-.5-.9-.5-1.3-.3-.4.2-.7.1-1.1.1-.9,0-1.9-.2-2.8-.4-.7-.1-1.3-.4-2-.6-.7-.1-1.5,0-2.2-.3-.6-.4-1.3-.4-1.9-.5-.4,0-.8-.4-1.2.2,0,0-.2,0-.2,0-1-.9-2.1,0-3.2-.2-1.1-.3-2.3-.3-3.4-.3-.3,0-.6-.2-.9.2-.1.2-.4.2-.6,0-.8-.7-1.7-.4-2.6-.5-1-.2-2,0-2.9-.4-.4-.2-1-.4-1.5.2-.2.3-.7,0-1.1,0-.3,0-.6.3-.9.3-.2,0-.5-.2-.7-.4,0,0-.2,0-.2,0-1.4.6-2.9-.3-4.3,0-1.5.2-2.9.1-4.4,0-.8,0-1.6-.2-2.2-1.3-.3-.5-.3-1.1,0-1.4.2-.2.5-.5.8-.5.5-.1.9-.2,1.4-.4.9-.2,1.9-.8,2.9-.5.3,0,.7-.2.9.3,0,0,.2.1.2,0,1.3-.8,2.7-.3,4-.3,1.1,0,2.2-.6,3.4-.3.6-.6,1.4-.5,2-.3,2.2.7,4.5.4,6.7.6,2.3.2,4.5.3,6.8.6.4,0,.8-.3,1.2,0,.4.3,1,.2,1.5.2.5,0,.9,0,1.4.2,1.7.9,3.5.7,5.3,1,1.8.3,3.5.6,5.3.7,1.1,0,2.2-.1,3.3.2.5.1,1-.1,1.3.5,0,.2.6-.2.9-.1.7,0,1.5.2,2.2.4,1,.2,2,.4,3.1.6.6,0,1.3,0,1.9,0,.7,0,1.3.2,1.9.4.8.3,1.6.6,2.4.9.8.2,1.8.2,2.5.7,1.4.9,2.9,1,4.4,1.4,1.5.4,2.9.9,4.4,1.2.9.2,1.5.9,2.3,1.1.4.1.5,1.7.2,2.1,0,0-.1.2-.2.2-.9.2-1.8.7-2.7.4-1.3-.5-2.7-.8-4-1.1Z"/>
      <path d="M264.1,316.1c-1.2-.3-2.4-.6-3.6-.8-.5,0-.9-.4-1.4,0-.3.2-.6-.5-1-.6-1.1-.2-2.3-.5-3.4-.7-1.1-.2-2.3-.2-3.4-.3-1.1-.2-2.2-.7-3.3-.6-1,.1-1.7-.5-2.6-.6-.9,0-1.9-.1-2.8-.5-.6-.3-1.3-.6-1.9-.6-.4,0-.9.3-1.3.2-.4,0-.8-.4-1.3.1,0,0-.2,0-.3-.2-.4-.5-.9-.5-1.4-.3-.4.2-.7.1-1.1,0-.9,0-1.9-.2-2.8-.4-.7-.1-1.4-.5-2.1-.6-.7-.2-1.5,0-2.2-.4-.6-.4-1.3-.5-2-.5-.4,0-.8-.4-1.2.2,0,0-.2,0-.2,0-1-.9-2.2,0-3.3-.3-1.1-.3-2.3-.3-3.4-.4-.3,0-.6-.2-.9.2-.1.2-.4.1-.6,0-.8-.7-1.7-.4-2.6-.6-1-.2-2,0-3-.6-.4-.2-1-.4-1.5.1-.3.2-.7,0-1.1,0-.3,0-.6.3-.9.3-.3,0-.5-.3-.7-.4,0,0-.2,0-.2,0-1.5.5-2.9-.5-4.4-.4-1.5,0-3-.1-4.5-.3-.8-.1-1.6-.4-2.1-1.5-.2-.5-.2-1.1.2-1.4.3-.2.6-.4.9-.5.5,0,1-.2,1.4-.2,1-.1,1.9-.6,2.9-.2.3.1.7-.2.9.4,0,0,.2.1.2,0,1.4-.7,2.7,0,4,0,1.1,0,2.3-.5,3.4-.1.7-.6,1.4-.4,2-.1,2.2.9,4.5.6,6.7,1,2.3.3,4.6.5,6.8.8.4,0,.8-.3,1.2,0,.4.3,1,.2,1.5.2.5,0,1,0,1.4.2,1.7.9,3.5.7,5.3,1.1,1.8.3,3.5.7,5.3.8,1.1,0,2.2,0,3.3.2.5.1,1-.1,1.4.5,0,.2.6-.2.9-.1.7,0,1.5.3,2.2.4,1,.2,2,.4,3.1.6.6,0,1.3,0,1.9,0,.7,0,1.3.2,2,.4.8.2,1.6.6,2.4.9.8.2,1.8.2,2.5.6,1.4.8,3,.9,4.5,1.3,1.5.4,3,.8,4.5,1,.9.1,1.5.8,2.4,1,.4,0,.6,1.6.3,2.1,0,0-.1.2-.2.2-.9.3-1.8.8-2.7.6-1.4-.4-2.8-.6-4.1-.9Z"/>
      <path d="M175.8,341.9c-.4-1.5-.7-2.9-1.2-4.4-.2-.5,0-1.2-.7-1.6-.3-.2.2-.9,0-1.4-.4-1.4-.7-2.8-1-4.1-.4-1.3-.9-2.6-1.3-4-.4-1.3-.4-2.8-1-4-.5-1.1-.2-2.2-.6-3.2-.3-1.1-.7-2.3-.6-3.4,0-.8,0-1.7-.2-2.5-.2-.5-.6-.9-.6-1.5,0-.5.1-1.1-.6-1.5,0,0,0-.3,0-.4.3-.6.2-1.3-.2-1.7-.3-.4-.4-.8-.4-1.2-.2-1.2-.4-2.3-.5-3.5,0-.9,0-1.8,0-2.7,0-.9-.4-1.9-.2-2.7.2-.9.1-1.7,0-2.5,0-.5.2-1-.5-1.4,0,0,0-.2,0-.3.7-1.4-.5-2.7-.3-4,.1-1.4,0-2.9-.1-4.3,0-.4.2-.8-.3-1.2-.2-.1-.2-.5,0-.7.6-1.1.3-2.2.5-3.4.2-1.3.1-2.6.9-3.8.3-.5.6-1.2.2-2-.2-.4.3-.9.4-1.4,0-.4,0-.9.1-1.3.1-.3.5-.6.7-.8,0,0,.1-.2.1-.3.1-1.1.7-1.9,1.4-2.7.7-.8,1.4-1.4,2-2.3,1.3-1.6,3.1-2.9,5-3.7,1.1-.4,2.4-.6,3.3.3.4.4.5,1,.2,1.4-.2.3-.5.6-.8.8-.5.2-.9.6-1.3.9-.9.6-1.4,1.6-2.3,2.1-.3.2-.4.6-.9.5,0,0-.2,0-.2.1-.4,1.6-1.7,2.4-2.3,3.7-.6,1.1-.4,2.5-1,3.6.4.8.1,1.6-.2,2.2-1.1,2.3-.8,5-.9,7.7,0,1.3,0,2.7,0,4.1,0,1.4.2,2.7.3,4.1,0,.5.4.8.2,1.4-.2.5,0,1.2.1,1.8,0,.5.2,1.1.1,1.6-.4,2.2.2,4.3.5,6.5.2,2.1.5,4.3,1,6.4.3,1.3.9,2.5,1,3.8,0,.6.5,1.1,0,1.7-.1.2.4.6.5,1,.2.9.4,1.8.6,2.6.3,1.2.5,2.5.8,3.7.2.7.6,1.4.8,2.2.2.8.4,1.6.6,2.3.2,1,.2,2,.4,3,.2,1,.7,2,.7,3.1,0,1.9.7,3.7,1.1,5.5.4,1.8.8,3.6,1.4,5.4.3,1,0,2.1.4,3.1.1.5-1.1,1.5-1.7,1.4-.1,0-.2,0-.3-.1-.7-.9-1.6-1.6-1.9-2.7-.4-1.7-.9-3.3-1.3-5Z"/>
      <path d="M193.8,357.3c-.2,1.3-.4,2.7-1,4.2-.2.6-.7.9-.6,1.7,0,.4-.8.5-1.1.9-.9,1.1-2,1.9-3,2.6-1,.7-1.9,1.5-2.9,2.1-1,.6-2.2.8-3.1,1.6-.8.7-1.8.5-2.6,1-.9.5-1.8.9-2.8,1-.7,0-1.4,0-2.1.4-.4.2-.7.6-1.1.7-.4.1-1,0-1.2.7,0,0-.2,0-.4,0-.6-.3-1.1-.1-1.4.3-.3.4-.7.4-1,.5-1,.3-1.9.5-2.9.6-.7,0-1.5,0-2.2,0-.2,0-.4,0-.7,0-.2,0-.6,0-1,0-.7,0-1.4-.1-1.9-.5-.4-.3-.7-.5-1-.8-.5-.5-.9-1.1-1.1-1.7-.2-.6,0-1.3-.6-1.9,0,0,0-.3,0-.4.1-.2.3-.5.4-.7,0-.2.2-.4.3-.6.1-.3.2-.7.3-1,0-.3.2-.7.3-1,.1-.3.3-.6.5-.8.9-.9,1.4-1.9,2.2-2.9.2-.3.5-.4.4-.9,0-.2.1-.5.3-.5,1-.3,1.3-1.2,2-1.9.8-.7,1.2-1.7,2.3-2.1.4-.2.9-.5.9-1.3,0-.4.5-.5.7-.8.2-.3.2-.7.4-.9.2-.2.5-.2.8-.3,0,0,.1,0,.2-.2.6-1.5,2.3-1.9,3.2-3.1,1-1.2,2.1-2.1,3.3-3.1.6-.5,1.4-1,2.6-.5.5.2.9.6.9,1.1,0,.4,0,.7-.3,1-.3.4-.5.8-.8,1.2-.6.8-.9,1.8-1.8,2.3-.3.1-.3.6-.9.4,0,0-.2,0-.2,0-.4,1.5-1.7,2-2.6,3-.8.8-1.1,2-2.1,2.6,0,.9-.6,1.3-1.1,1.6-2,1.1-3.1,3.1-4.5,4.8-.7.8-1.4,1.7-2,2.6l-.5.7c-.1.2-.2.4-.3.6-.1.2-.2.4-.3.6v.3c-.1,0,.2,0,0,.2-.3.2,0,.2,0,.2,0,0,0,0,0,0,0,0,.2,0,.2.1,0,0,0,.2.1.2,0,0,0,0,.3.1.4,0,.8,0,1.2-.1.9-.1,1.7-.4,2.6-.5,1.7-.3,3.4-.6,5-1.3,1-.4,1.9-1,2.9-1.3.4,0,.8-.6,1.4-.2.2.1.4-.5.7-.6.7-.3,1.3-.6,2-.8.9-.4,1.8-.8,2.7-1.3.5-.3.9-.8,1.5-1.1.5-.3,1.1-.6,1.6-.9.7-.3,1.4-.6,2-1,.6-.4.9-1.1,1.5-1.4,1.1-.7,1.3-1.9,1.6-3.3.3-1.3.4-2.9.5-4.5,0-1,.7-1.7,1-2.7.2-.5,1.7-.4,2.1,0,0,0,.1.2.2.2.1.9.7,1.7.5,2.5-.3,1.2-.3,2.6-.4,4.1Z"/>
      <path d="M200,359.9c-.3-.2-.4-.4-.7-.5,0,0,0-.3-.4,0-.2.2.2-.4.1-.4-.2,0-.2-.3-.4-.4-.2,0-.5,0-.6-.2-.2,0,0-.4-.4-.3-.3,0,0-.4-.2-.4-.2,0-.4,0-.3-.4,0-.2.1-.4,0-.4,0,0-.4.2-.4.1,0,0,.1-.3-.4,0,0,0,0,0,0-.1.2-.3.2-.4,0-.2-.2.1-.2,0-.3,0-.1,0-.3-.2-.3-.3,0-.1,0-.4,0-.5,0-.1-.3,0-.2-.3.1-.3,0-.4,0-.4,0,0,.1-.3-.4.1,0,0,0,0,0,0,.5-.7-.4,0-.4-.3,0-.3-.2-.3-.4-.4,0,0,0-.2-.3,0-.1.1-.2,0-.1,0,.4-.5,0-.4,0-.5,0-.2-.3-.1-.1-.6.1-.2.1-.3-.4,0-.2.2,0,0-.2,0,0,0-.3.2-.3.1,0,0,.1-.2.2-.3,0,0,0,0,0,0-.6.3-.2-.5-.5-.5-.3,0-.4-.3-.5-.5,0-.1,0-.4.8-1.2.3-.4.7-.8,1-1,.2-.1.4-.3.5-.3.1,0,.3,0,.4,0,.2,0,.7-.3.6,0,0,0,.2,0-.1.3,0,0,0,0,0,0,.7-.4.5.1.7.2.2,0,.7-.2.7.1.5-.4.5-.2.5,0-.2.7.3.7.5,1,.2.3.5.5.7.8,0,0,.3-.2.2,0-.1.2,0,.2.1.2,0,0,.2,0,.1.2-.3.7.2.6.4.9.1.3.3.5.6.6.2,0,.6,0,.6.2,0,0,.3,0,0,.4-.1.1.3-.1.3-.1.1,0,.2.2.3.2.1.1.2.3.4.3,0,0,.3,0,.5,0,.1,0,.2.1.2.2,0,.1,0,.4,0,.5,0,.1.4,0,.2.3-.2.5,0,.5.2.6,0,.1.1.2.2,0,0,0,0,.1,0,.2,0,.1,0,.2,0,.2,0,0,0,.4,0,.8,0,.4,0,.9,0,1.2,0,0,0,.2,0,.2-.2.5-.7,1.1-1,.9-.4-.2-.8-.4-1.1-.6Z"/>
      <path d="M215.6,351.8c-.2.2-.5.3-.6.5,0,0-.3,0,0,.4.1.2-.3-.2-.4-.1-.2.2-.4.3-.6.5-.2.2-.2.5-.4.7-.2.2-.6.1-.6.5,0,.4-.5,0-.6.3-.1.2-.2.4-.5.3-.2,0-.5-.2-.5,0,0,.1,0,.4,0,.5,0,0-.3-.1,0,.4,0,0,0,0-.1,0-.3-.3-.4-.2-.3,0,0,.3,0,.3,0,.3-.2.1-.3.3-.6.3-.2,0-.4,0-.6,0-.2,0-.2.4-.5.2-.3-.2-.4,0-.5,0,0,0-.3-.2,0,.4,0,0,0,0,0,0-.6-.6-.3.5-.6.4-.3,0-.5.2-.7.3,0,0-.2,0,0,.3,0,.2,0,.2,0,.1-.5-.5-.5,0-.7,0-.3,0-.3.4-.7,0-.2-.1-.3-.2-.2.4,0,.3-.1,0-.2.2,0,0,0,.3,0,.4,0,0-.2-.2-.3-.2,0,0,0,0,0,0,0,.7-.7,0-.9.4-.2.3-.6.4-.9.4-.2,0-.4,0-1-1.1-.3-.5-.5-1-.5-1.3,0-.2,0-.5,0-.6,0-.1,0-.3.1-.4.1-.3,0-.8.4-.7,0,0,0-.3.3.2,0,0,0,0,0,0,0-.8.4-.5.6-.7.2-.2.1-.8.5-.7-.2-.6,0-.6.2-.5.7.4.9-.2,1.4-.4.5-.1.8-.5,1.3-.7,0,0,0-.4.2-.2.2.2.2,0,.3-.1,0,0,0-.2.3-.1.7.4.8-.2,1.1-.3.4-.1.7-.3.9-.6.1-.2.1-.6.4-.6.1,0,0-.3.4,0,.1.1,0-.3,0-.4,0-.1.2-.2.4-.3.2-.1.4-.2.5-.4,0-.1,0-.4.1-.5,0-.1.2-.2.3-.2.2,0,.4,0,.6,0,.2,0,.2-.4.5-.3.6.2.7-.2,1-.3.3-.2.6-.3.7-.6,0-.2.5.1.7,0,0,0,1.1,1,1.4,1.4,0,0,.1.2.1.2.2.5.5,1.1.3,1.2-.3.1-.5.4-.7.6Z"/>
      <path d="M213.8,315.2c0,.6.1,1.2.3,1.9,0,.2-.2.5.4.7.3,0-.3.4-.3.6.1.6.1,1.2.3,1.7.1.6.4,1.1.5,1.7.1.6-.1,1.2.3,1.7.3.4-.1.9,0,1.3.2.5.3.9.1,1.4-.1.4-.3.7-.2,1,0,.2.4.4.4.6,0,.2-.2.5.4.6,0,0,0,.1-.1.2-.4.3-.3.5,0,.7.3.2.3.3.3.5,0,.5.1,1,.1,1.4,0,.4-.2.7-.3,1.1,0,.4.3.8,0,1.1-.3.4-.2.7-.2,1,0,.2-.3.4.4.6,0,0,0,0,0,.1-.8.6.3,1.1.1,1.7-.2.6,0,1.2,0,1.8,0,.2-.2.3.3.5.2,0,.2.2,0,.3-.6.5-.2.9-.3,1.3-.1.5.2,1-.3,1.5-.2.2-.3.5.3.8.3.1,0,.4,0,.6,0,.2.3.3.3.4,0,.1-.2.3-.3.4,0,0,0,0,0,.1.7.7-.2,1.5,0,2.2.2.7.1,1.5,0,2.3,0,.4-.2.8-1.4,1.1-.5.1-1.1.1-1.4,0-.2-.1-.5-.3-.5-.4,0-.2-.2-.5-.3-.7-.2-.5-.7-.9-.5-1.4,0-.2-.2-.3.3-.5,0,0,.1,0,0-.1-.8-.6-.3-1.3-.4-2,0-.6-.7-1.1-.4-1.7-.6-.3-.5-.7-.4-1,.6-1.1.1-2.2.2-3.3,0-1.1-.1-2.3-.1-3.4,0-.2-.4-.3-.1-.6.2-.2,0-.5,0-.7,0-.2-.2-.5,0-.7.6-.9.1-1.8.1-2.7,0-.9,0-1.8-.2-2.6-.1-.5-.5-1-.5-1.6,0-.2-.3-.4.2-.7.2,0-.3-.3-.3-.4,0-.4,0-.7-.1-1.1,0-.5,0-1-.2-1.5,0-.3-.3-.6-.4-.9,0-.3-.1-.6-.1-1,0-.4.2-.9.2-1.3,0-.4-.3-.8-.1-1.3.4-.8,0-1.6,0-2.3,0-.8-.1-1.5-.3-2.3-.1-.4.3-.9.2-1.3,0-.2,1.4-.7,1.9-.7,0,0,.2,0,.2,0,.5.3,1.3.6,1.3,1.1,0,.7.2,1.4.3,2.1Z"/>
      <path d="M311.5,236.6c-.7.3-1.5.7-2.2,1-.3.1-.7,0-.7.7,0,.3-.6-.2-.8,0-.7.4-1.4.6-2.1.9-.7.3-1.2.8-1.9,1.2-.7.3-1.5.4-2,.9-.5.5-1.2.2-1.7.6-.5.3-1.1.7-1.7.7-.5,0-1,0-1.3.2-.2.2-.3.6-.6.6-.3,0-.7,0-.7.6,0,0-.2,0-.2,0-.4-.3-.8-.1-.9.2-.1.3-.3.4-.5.5-.6.3-1.1.5-1.7.7-.5.1-1,0-1.4.2-.5.1-.9.6-1.4.4-.5-.1-.9,0-1.3.2-.2,0-.6,0-.6.6,0,0,0,0-.1,0-1-.5-1.2.7-2,.8-.8,0-1.4.5-2.1.7-.2,0-.5,0-.5.5,0,.2-.2.3-.3.2-.7-.4-1.2.1-1.7.2-.7,0-1.2.6-2,.3-.3-.1-.7,0-.9.6,0,.3-.4.2-.7.3-.2.1-.3.4-.4.5-.2,0-.4-.1-.6-.2,0,0-.1,0-.2,0-.7.9-1.9.4-2.7.9-.9.5-1.8.7-2.8.9-.5.1-1.1.1-1.8-.9-.3-.4-.5-1-.4-1.4,0-.3.2-.6.4-.7.3-.2.5-.4.8-.6.5-.4.9-1.1,1.6-1,.2,0,.3-.3.7,0,0,0,.1,0,.2,0,.6-1,1.6-.8,2.4-1.1.7-.3,1.2-1.1,1.9-1.1.2-.7.7-.8,1.1-.7,1.6.2,2.8-.7,4.2-1.1,1.4-.4,2.8-1,4.2-1.4.2,0,.3-.5.7-.3.3.2.6-.2.9-.3.3-.1.5-.3.8-.3,1.3.2,2.3-.6,3.4-.9,1.1-.3,2.2-.7,3.2-1.3.6-.3,1.1-.9,1.8-1.1.3,0,.5-.5,1,0,.1.1.2-.4.4-.5.4-.2.9-.4,1.3-.6.6-.2,1.3-.5,1.8-.8.4-.2.6-.6,1-.8.4-.2.8-.4,1.2-.5.5-.1,1.1-.2,1.6-.3.5-.2,1-.6,1.6-.6,1.1,0,1.9-.6,2.8-.9.9-.4,1.8-.7,2.7-1.3.5-.3,1.1,0,1.6-.3.2-.1,1.2,1.1,1.3,1.6,0,0,0,.2,0,.3-.3.7-.4,1.5-1,1.8-.9.3-1.7.8-2.5,1.2Z"/>
      <path d="M333.1,154.3c-1,1.1-2.1,2.2-3,3.4-.3.5-.9.7-.9,1.5,0,.4-.8.4-1.1.9-.8,1.2-1.7,2.3-2.5,3.5-.7,1.2-1.3,2.5-1.9,3.7-.7,1.2-1.6,2.3-1.9,3.6-.3,1.1-1.2,1.8-1.6,2.9-.4,1.1-.8,2.2-1.5,3.2-.5.7-1,1.4-1.2,2.2-.1.5,0,1.1-.2,1.6-.2.5-.7,1-.2,1.6,0,0-.1.2-.3.3-.6.4-.8,1.1-.6,1.6.1.5,0,.9-.2,1.3-.3,1.1-.6,2.3-1,3.4-.3.8-.7,1.6-1,2.5-.3.9-.2,1.9-.7,2.7-.5.8-.6,1.6-.8,2.4,0,.5-.5,1,0,1.5,0,0,0,.2,0,.3-1.1,1.2-.2,2.7-.6,4-.4,1.4-.4,2.8-.5,4.3,0,.4-.3.8.2,1.2.2.1.1.5,0,.7-.7,1-.4,2.2-.6,3.2-.2,1.2,0,2.5-.5,3.7-.2.5-.4,1.3.2,1.9.3.3,0,.9,0,1.4,0,.4.3.7.3,1.1,0,.3-.2.6-.3,1,0,0,0,.2,0,.3.7,1.8-.2,3.7,0,5.5.3,1.8.3,3.7.3,5.6,0,1,0,2.1-1.2,2.9-.5.4-1,.4-1.4,0-.3-.3-.5-.7-.6-1-.2-.6-.3-1.2-.5-1.7-.3-1.2-.9-2.4-.7-3.6,0-.4-.3-.8.2-1.2,0,0,0-.2,0-.3-.9-1.6-.4-3.4-.5-5.1,0-1.4-.7-2.9-.4-4.3-.6-.8-.5-1.8-.3-2.6.8-2.9.5-5.8.9-8.6.4-2.9.7-5.8,1.2-8.7,0-.5-.2-1,.2-1.5.3-.5.3-1.2.4-1.9.1-.6.1-1.2.4-1.7,1.2-2.1,1.3-4.4,2-6.6.7-2.2,1.5-4.4,2.1-6.6.4-1.4.6-2.8,1.3-4,.3-.5.2-1.3,1-1.6.2,0,0-.8.2-1.1.3-.9.8-1.7,1.3-2.6.6-1.2,1.3-2.4,1.9-3.6.4-.7.6-1.5,1-2.3.4-.8.9-1.5,1.4-2.2.6-.9,1.5-1.7,2.1-2.5.7-.9,1.2-2,2.1-2.7,1.6-1.3,2.7-3,4.1-4.4,1.4-1.4,2.8-2.8,4.2-4.2.8-.8,1.9-1.1,2.7-1.8.4-.3,1.8.4,2,.9,0,.1,0,.2,0,.3-.5,1-.8,2.2-1.7,2.9-.7.6-1.3,1.1-1.9,1.7l-1.8,1.9Z"/>
      <path d="M355.7,166.3c-.6.8-1.3,1.6-1.8,2.4-.2.3-.6.5-.4,1.2.1.3-.6.3-.8.6-.4.9-.9,1.7-1.3,2.6-.3.9-.5,1.9-.8,2.8-.3.9-.9,1.7-1,2.7,0,.8-.7,1.4-.9,2.1-.1.8-.3,1.6-.8,2.3-.3.5-.7,1-.8,1.6,0,.4.2.8,0,1.2-.1.3-.5.7,0,1.2,0,0-.1.2-.2.2-.5.3-.6.8-.4,1.1.2.4,0,.6,0,.9-.2.8-.3,1.6-.6,2.4-.2.6-.5,1.1-.7,1.7-.2.6,0,1.3-.5,1.9-.4.5-.5,1.1-.6,1.7,0,.3-.4.7.2,1,0,0,0,.2,0,.2-1,.8,0,1.9-.4,2.8-.4,1-.3,2-.4,3,0,.3-.2.5.2.8.1.1.1.4,0,.5-.7.7-.4,1.5-.6,2.2-.2.9,0,1.7-.5,2.6-.2.4-.4.9.2,1.3.3.2,0,.6,0,.9,0,.3.3.5.3.8,0,.2-.2.4-.4.7,0,0,0,.1,0,.2.6,1.3-.3,2.5,0,3.8.2,1.3.2,2.5.2,3.8,0,.7-.1,1.4-1.2,2-.5.3-1,.3-1.4,0-.3-.2-.5-.4-.6-.7-.1-.4-.3-.8-.4-1.2-.2-.8-.8-1.7-.6-2.6,0-.3-.2-.6.3-.8,0,0,.1-.1,0-.2-.8-1.2-.3-2.4-.4-3.6,0-1-.6-2-.3-3.1-.6-.6-.5-1.3-.2-1.8.8-2,.5-4,.9-6,.3-2,.5-4.1.9-6.1,0-.3-.2-.7,0-1.1.3-.3.2-.9.3-1.3,0-.4,0-.9.2-1.2,1-1.4.9-3.1,1.3-4.6.4-1.5.9-3.1,1.2-4.6.2-1,.1-2,.5-2.9.2-.4,0-.9.7-1.1.2,0-.1-.6,0-.8.2-.7.4-1.3.6-1.9.3-.9.7-1.7,1-2.6.2-.5.2-1.2.3-1.7.2-.6.4-1.1.7-1.7.4-.7.9-1.3,1.3-1.9.4-.7.6-1.6,1.2-2.1,1.2-1,1.7-2.3,2.7-3.5.9-1.1,2-2.2,3.3-3.2.7-.6,1.8-.6,2.6-.8.2,0,.6.2.8.6.2.4.4.9.3,1.1,0,.1,0,.2,0,.3-.5.6-.7,1.4-1.2,1.7-.9.4-1.6,1.3-2.3,2.1Z"/>
      <path d="M338.3,122.4c-.2.4-.3.8-.4,1.3,0,.2-.3.2.1.6.2.2-.4.1-.4.3,0,.4-.2.8-.3,1.2,0,.4,0,.8,0,1.2,0,.4-.4.7-.1,1.2.2.4-.3.6-.2.9,0,.3.1.7-.1,1-.2.2-.4.4-.3.7,0,.2.4.3.3.5,0,.1-.3.3.3.5,0,0,0,0-.1.1-.4.1-.4.4-.1.5.3.1.2.2.2.4,0,.3,0,.7,0,1,0,.2-.3.5-.3.8,0,.3.3.5,0,.8-.3.3-.2.5-.2.7,0,.1-.3.3.4.4,0,0,0,0,0,0-.8.5.4.7.2,1.1-.1.4,0,.8.2,1.2,0,.1-.1.3.3.3.2,0,.2.1.1.2-.5.4,0,.7-.1,1,0,.4.4.6,0,1.1-.2.2-.2.5.4.5.3,0,0,.3.2.4,0,0,.4.1.4.2,0,0-.2.3-.2.4,0,0,0,0,0,0,.8.4.1,1.2.4,1.8.3.6.4,1.3.3,2,0,.4-.2.8-1.4,1-.5,0-1.1,0-1.4-.1-.2-.1-.5-.2-.5-.3-.1-.2-.2-.3-.3-.4-.2-.3-.8-.5-.5-.9,0-.1-.2-.2.2-.3,0,0,0,0,0,0-.9-.3-.5-.8-.7-1.3-.2-.4-.9-.6-.8-1.1-.7,0-.7-.3-.5-.6.4-1-.3-1.8-.4-2.7-.1-.9-.4-1.8-.5-2.7,0-.2-.4-.2-.1-.5.2-.2,0-.4,0-.6,0-.2-.2-.4,0-.6.6-.8.2-1.5.2-2.2,0-.7.1-1.4,0-2.1,0-.4-.4-.9-.2-1.3,0-.2-.2-.4.4-.5.2,0-.3-.3-.3-.4,0-.3,0-.6,0-.9,0-.4.2-.8.2-1.3,0-.3-.2-.6-.2-.8,0-.3,0-.5.2-.8.2-.3.4-.6.6-.9.1-.3,0-.8.3-1,.7-.5.6-1.1.9-1.7.3-.6.5-1.1.7-1.7,0-.3.7-.4.8-.7,0-.1,1.5.3,1.9.6,0,0,.2.1.2.2.3.5.8,1,.7,1.3-.3.4-.4.9-.6,1.4Z"/>
      <path d="M343,122.8c-.1,0-.2-.1-.4,0,0,0,0-.3-.2.3,0,.3,0-.4,0-.4-.1,0-.2,0-.3,0-.1,0-.3.2-.4.3-.1,0-.2-.3-.3,0-.1.3-.1-.3-.2-.2-.1.1-.2.2-.3,0,0-.2,0-.4-.1-.3,0,0-.1.4-.2.3,0,0,0-.3-.2.3,0,0,0,0,0-.1,0-.4,0-.4-.1-.1,0,.3-.1.2-.1.2,0,0-.2,0-.3,0,0,0,0-.3-.2-.4,0,0-.2.2-.2-.1,0-.3,0-.3-.2-.3,0,0,0-.3-.2.3,0,0,0,0,0,0,0-.8-.2.2-.3,0,0-.2-.2,0-.3,0,0,0,0-.2-.1.3,0,.2,0,.2,0,0,0-.6-.2-.3-.2-.4,0-.1-.2.2-.3-.3,0-.2,0-.3-.2.3,0,.3,0,0-.1,0,0,0,0,.3,0,.3,0,0,0-.2,0-.3,0,0,0,0,0,0-.2.7-.3-.2-.4,0-.1.2-.3.1-.4,0,0,0-.2-.2-.2-1.4,0-.5,0-1.1,0-1.4,0-.2,0-.5,0-.5,0-.1.1-.2.2-.3.1-.2.2-.7.3-.4,0,0,0-.2.1.3,0,0,0,.1,0,0,.2-.8.3-.3.5-.3.1,0,.3-.7.4-.4.1-.6.2-.5.3-.3.2.7.5.2.8.4.3.1.5,0,.8.1,0,0,.1-.3.1,0,0,.3.1,0,.2,0,0,0,.1-.1.2,0,.1.7.4.3.6.4.2.1.4.2.6,0,.1,0,.3-.4.4-.2,0,0,.2-.3.1.3,0,.2.1-.3.2-.3,0,0,.2,0,.3,0,.1,0,.2,0,.4,0,0,0,.2-.2.3-.3,0,0,.2,0,.2,0,0,0,.1.3.2.4,0,0,.3-.2.3.1,0,.5.3.3.4.4.2.1.3.2.5.1.1,0,0,.5.1.5,0,0-.4,1.4-.5,1.9,0,0,0,.2,0,.2-.2.4-.5,1.1-.6,1-.1-.1-.3-.1-.4-.1Z"/>
      <path d="M342.6,137.1c-.2-.3-.3-.7-.5-1,0-.1.1-.3-.4-.3-.3,0,.3-.3.2-.4-.2-.3-.1-.6-.3-.9-.1-.3-.4-.5-.5-.8-.1-.3.2-.6-.2-.9-.3-.2.2-.5,0-.7-.1-.2-.2-.5,0-.7.2-.2.4-.3.3-.5,0-.1-.4-.2-.4-.3,0-.1.3-.2-.3-.3,0,0,0,0,.2,0,.4,0,.4-.2.1-.3-.3-.1-.2-.2-.2-.3,0-.2,0-.4,0-.6,0-.2.3-.3.4-.4,0-.2-.2-.4.1-.5.3-.1.3-.3.3-.4,0,0,.3-.2-.3-.3,0,0,0,0,0,0,.8-.2-.2-.5,0-.7.2-.2,0-.5,0-.8,0,0,.2-.1-.3-.2-.2,0-.2-.1,0-.1.6-.1.3-.4.4-.6.1-.2-.1-.5.4-.6.2,0,.3-.2-.2-.4-.3,0,0-.2,0-.2,0,0-.3-.2-.3-.2,0,0,.2,0,.4-.1,0,0,0,0,0,0-.6-.4.3-.6.1-1-.2-.3,0-.7,0-1,0-.2.3-.4,1.4-.4.5,0,1.1,0,1.4.1.2,0,.5.2.5.2,0,.1.2.2.3.3.2.2.7.5.4.7,0,0,.2.2-.3.2,0,0-.1,0,0,0,.8.3.2.6.3.9,0,.3.6.5.4.8.6.2.5.3.3.5-.7.5-.3,1-.4,1.5-.1.5,0,1-.1,1.5,0,0,.3.2,0,.3-.3,0,0,.2,0,.3,0,.1.1.2,0,.3-.7.4-.3.8-.4,1.2,0,.4-.2.8,0,1.1,0,.2.4.5.3.7,0,0,.3.2-.3.3-.2,0,.3.1.3.2,0,.1,0,.3,0,.4,0,.2,0,.4,0,.6,0,.1.3.2.4.3,0,.1,0,.2,0,.3,0,.1-.2.3-.3.5,0,.2.3.2,0,.4-.4.4,0,.6,0,.8,0,.2.1.5.4.6.1,0-.2.5,0,.6,0,0-1,1.1-1.3,1.5,0,0-.2.1-.2.1-.5.2-1.2.5-1.3.2-.2-.4-.5-.7-.7-1.1Z"/>
      <path d="M353.3,123.5c-.2,0-.3,0-.5,0,0,0,0-.3-.2.3,0,.3,0-.4-.1-.4-.2,0-.3,0-.5,0-.2,0-.3.2-.5.3-.2,0-.3-.3-.5,0-.2.3-.2-.2-.3-.1-.1.1-.3.2-.4,0,0-.2-.1-.4-.2-.3,0,0-.1.4-.2.3,0,0,0-.3-.2.3,0,0,0,0,0-.1,0-.4-.1-.4-.2-.1,0,.3-.1.2-.2.2-.1,0-.3,0-.4,0,0,0-.2-.3-.3-.4,0,0-.2.2-.3-.1,0-.3-.2-.3-.3-.3,0,0,0-.3-.2.3,0,0,0,0,0,0,0-.8-.3.2-.4,0-.1-.2-.3,0-.5,0,0,0,0-.2-.1.3,0,.2,0,.2,0,0,0-.6-.2-.3-.3-.4-.1-.1-.3.2-.4-.3,0-.2-.1-.3-.2.3,0,.3,0,0-.1,0,0,0,0,.3-.1.3,0,0,0-.2,0-.3,0,0,0,0,0,0-.2.7-.4-.2-.6,0-.2.2-.4,0-.6,0-.1,0-.2-.2-.3-1.4,0-.5,0-1.1,0-1.4,0-.2,0-.5.1-.5,0-.1.1-.2.2-.3.1-.2.3-.7.4-.4,0,0,0-.2.1.3,0,0,0,.1,0,0,.2-.8.4-.3.6-.3.2,0,.3-.7.5-.4.1-.6.2-.5.3-.3.3.7.6.2.9.4.3.1.6,0,1,0,0,0,.1-.3.2,0,0,.3.1,0,.2,0,0,0,.1-.1.2,0,.2.7.5.3.7.4.2,0,.5.2.7,0,.2,0,.3-.4.5-.3,0,0,.2-.3.2.3,0,.2.1-.3.1-.3.1,0,.2,0,.3,0,.1,0,.3,0,.4,0,0,0,.2-.3.3-.3,0,0,.2,0,.3,0,.1,0,.2.3.3.4.1,0,.3-.2.4.1.2.5.4.3.6.4.2,0,.4.2.6,0,.1,0,.2.5.3.5,0,0,0,1.5-.2,2,0,0,0,.2,0,.2-.2.4-.4,1.2-.5,1.1-.2,0-.4,0-.6,0Z"/>
      <path d="M350.1,136c-.1-.4-.2-.7-.3-1.1,0-.1.2-.3-.4-.3-.3,0,.3-.2.3-.3-.1-.3,0-.6-.1-.8,0-.2-.3-.5-.4-.7,0-.2.2-.5-.1-.7-.3-.2.2-.4.1-.6-.1-.2-.2-.4,0-.6.2-.1.4-.3.3-.4,0,0-.4-.2-.3-.3,0,0,.3-.2-.3-.3,0,0,0,0,.2,0,.4,0,.4-.2.1-.3-.3-.1-.2-.2-.2-.3,0-.2,0-.4,0-.6,0-.2.3-.3.4-.4,0-.2-.2-.4.1-.5.3-.1.3-.3.3-.4,0,0,.3-.1-.3-.3,0,0,0,0,0,0,.9-.1-.2-.5,0-.7.3-.2.2-.5.2-.8,0,0,.2-.1-.2-.3-.2,0-.2-.1,0-.1.7,0,.3-.3.5-.5.2-.2,0-.5.5-.6.2,0,.4-.1-.2-.4-.2-.1,0-.2,0-.3,0,0-.3-.2-.3-.3,0,0,.3,0,.4,0,0,0,0,0,0,0-.5-.5.4-.6.3-.9,0-.4.1-.7.3-.9.1-.2.4-.3,1.5,0,.5.1,1,.3,1.3.5.2.1.4.3.4.3,0,.1.2.3.2.4.1.2.6.6.2.7-.1,0,.2.2-.3,0,0,0-.1,0,0,0,.7.5.1.6,0,.8,0,.2.5.6.2.7.6.3.4.4.2.5-.8.2-.4.8-.6,1.2-.2.4-.2.9-.3,1.3,0,0,.3.2,0,.2-.3,0,0,.2,0,.3,0,0,.1.2,0,.3-.7.3-.3.7-.4,1,0,.3-.2.7,0,1,0,.2.4.4.3.6,0,0,.3.2-.3.3-.2,0,.3.1.3.2,0,.1,0,.3,0,.4,0,.2,0,.4,0,.6,0,.1.3.2.4.3,0,.1,0,.2,0,.4,0,.2-.3.3-.3.5,0,.2.2.3,0,.4-.5.3-.2.5-.2.6,0,.2,0,.3.1.3,0,0-.3.3-.2.4,0,0-.2.3-.4.7-.2.4-.5.8-.6,1,0,0-.1.2-.2.2-.4.3-1.2.6-1.4.3-.3-.5-.6-.9-.8-1.3Z"/>
      <path d="M363.4,130.4c-.3-.1-.5-.3-.8-.4-.1,0,0-.3-.4,0-.2.2,0-.4,0-.4-.3,0-.5-.3-.7-.4-.2,0-.5,0-.7,0-.2,0-.3-.4-.5,0-.2.2-.2-.3-.3-.2-.1.1-.3.2-.4,0,0-.2-.2-.4-.3-.3,0,0,0,.4-.2.4,0,0-.2-.3-.1.4,0,0,0,0,0-.1-.1-.4-.2-.3-.2,0,0,.3,0,.3,0,.3-.1,0-.2.1-.4.1-.1,0-.3-.2-.4-.2-.1,0,0,.3-.4.1-.3-.2-.4-.1-.4,0,0,0-.3-.1,0,.4,0,0,0,0,0,0-.7-.5,0,.4-.3.4-.3,0-.3.3-.4.4,0,0-.2,0,.1.3.1.1.1.2,0,.1-.6-.2-.4.1-.5.2-.2,0,0,.4-.5.3-.2,0-.4,0,.1.4.2.1,0,.1,0,.2,0,0,.3.2.3.3,0,0-.2,0-.4,0,0,0,0,0,0,0,.5.5-.4.5-.3.8.1.3,0,.6-.2.9,0,.2-.3.3-1.4.3-.5,0-1.1,0-1.4-.2-.2,0-.4-.2-.5-.3,0-.1-.2-.3-.3-.4-.2-.3-.6-.6-.3-.9.1,0-.2-.2.3-.2,0,0,.1,0,0,0-.7-.5,0-.8,0-1.2,0-.3-.4-.8,0-1.1-.5-.4-.3-.6,0-.7.9-.3.8-1.1,1.3-1.6.5-.5.9-1.1,1.5-1.6,0,0,0-.4.3-.3.3.1.3-.1.4-.2.1,0,.2-.3.4-.2.8.3,1.1-.3,1.7-.5.6-.1,1.1-.2,1.6-.4.3-.1.7-.5,1.1-.4.2,0,.4-.3.5.3,0,.2.2-.3.3-.3.3,0,.5,0,.8.1.4,0,.7.2,1,.3.2,0,.5-.1.7,0,.2,0,.4.1.5.3.2.2.3.5.4.6.2.2.5,0,.5.4,0,.6.5.6.8.8.3.2.6.5,1,.5.2,0,.1.6.3.7,0,0-.5,1.4-.8,1.8,0,0-.1.2-.1.2-.4.3-.9.9-1.1.7-.3-.2-.6-.4-.9-.5Z"/>
      <path d="M363.3,136c0-.1.1-.2.1-.3,0,0,.3,0-.2-.2-.2-.1.4,0,.4,0,0-.1.1-.2,0-.3,0-.1-.2-.3-.2-.4,0-.1.3-.1,0-.3-.2-.2.3,0,.2-.2,0-.1-.1-.2.1-.2.2,0,.4,0,.3,0,0,0-.3-.2-.3-.2,0,0,.3,0-.3-.2,0,0,0,0,.1,0,.4,0,.4,0,.1,0-.2-.1-.2-.1-.2-.2,0,0,0-.2,0-.3,0,0,.3,0,.4,0,0,0-.2-.2.1-.2.3,0,.3,0,.3-.1,0,0,.3,0-.3-.2,0,0,0,0,0,0,.8.1-.2-.3,0-.3.2,0,.1-.2.1-.3,0,0,.2,0-.3-.1-.2,0-.2,0,0,0,.6,0,.3-.1.4-.2.1,0-.1-.2.4-.2.2,0,.3,0-.2-.2-.3,0,0,0,0-.1,0,0-.3-.1-.3-.1,0,0,.2,0,.3,0,0,0,0,0,0,0-.6-.3.3-.2.1-.4-.2-.2,0-.3,0-.4,0,0,.3-.1,1.4,0,.5,0,1.1.1,1.4.2.2,0,.5.1.5.2,0,0,.2.1.3.2.2.1.7.3.4.4,0,0,.2.1-.3,0,0,0-.1,0,0,0,.8.3.2.3.2.5,0,.1.6.4.3.4.6.2.5.3.3.3-.7.1-.3.5-.5.7-.1.2-.1.5-.2.7,0,0,.3.2,0,.1-.3,0,0,0,0,.1,0,0,.1.1,0,.1-.7,0-.4.3-.5.5-.1.2-.2.3-.2.6,0,.1.3.4.2.4,0,0,.2.2-.3,0-.2,0,.2.2.3.2,0,0,0,.2,0,.2,0,.1-.1.2-.1.3,0,0,.2.2.2.3,0,0,0,.2,0,.2-.1,0-.3,0-.4.1,0,0,.1.3-.2.2-.5,0-.4.2-.5.4-.1.1-.2.3-.2.5,0,.1-.5,0-.5,0,0,0-1.4-.5-1.8-.8,0,0-.2,0-.2-.1-.4-.3-1-.6-.9-.7.1,0,.1-.2.2-.4Z"/>
      <path d="M356.5,147.6c-.3-.3-.5-.7-.8-1.1-.1-.1,0-.4-.5-.3-.3,0,.2-.4.1-.5-.2-.3-.3-.8-.4-1.1-.1-.3-.4-.7-.5-1-.1-.4.2-.7-.1-1.1-.3-.3.2-.5.1-.8-.1-.3-.2-.6,0-.8.2-.2.4-.3.3-.5,0-.1-.4-.3-.3-.4,0-.1.3-.2-.3-.4,0,0,0,0,.2,0,.4,0,.4-.2.2-.4-.2-.2-.2-.3-.2-.4,0-.3.1-.6.3-.9.1-.2.4-.4.6-.6.2-.2,0-.6.4-.7.4,0,.5-.2.6-.4,0-.1.4,0,0-.6,0,0,0,0,0,0,.9.3.4-.8.9-.9.5,0,.7-.4,1.1-.6,0,0,.3,0,.2-.4,0-.2,0-.2.2-.1.5.5.7,0,1,0,.4,0,.7-.3,1.1,0,.2.2.4.3.5-.3,0-.3.3,0,.4,0,.1,0,.2-.3.3-.3,0,0,.2.2.3.4,0,0,0,0,0,0,.3-.3.6-.2.8,0,.2.2.5.4.7.4.6,0,1.1.3,1.5.7.2.2.4.6-.2,1.6-.3.4-.6.9-.9,1.1-.2.2-.4.3-.5.3-.1,0-.3,0-.4.1-.2,0-.6.5-.6.2,0-.1-.2.2,0-.3,0,0,0-.1,0,0-.4.7-.5.2-.7.2-.2,0-.4.7-.5.4,0,.6-.1.5-.2.4-.4-.6-.7,0-1,0-.3,0-.5.3-.7.5,0,0,.2.3,0,.2-.2-.1-.1,0-.2.1,0,0,0,.2-.1.1-.7,0-.5.4-.7.7-.2.3-.3.6-.2,1,0,.2.4.5.2.7,0,0,.3.2-.3.3-.2,0,.3.1.3.2,0,.2,0,.3,0,.5,0,.2,0,.4,0,.6,0,.1.3.2.4.3,0,0,0,.2,0,.3,0,.1-.2.3-.2.4,0,.1.3.1,0,.4-.4.4,0,.5,0,.7,0,.2.2.4.4.4.1,0,0,.5,0,.5,0,0,0,.4-.2.8-.1.4-.2.9-.3,1.1,0,0,0,.2-.1.2-.4.4-1,.9-1.3.6-.4-.3-.9-.6-1.2-1Z"/>
      <path d="M362.8,149.2c-.2,0-.5,0-.7,0,0,0-.2-.2-.2.3,0,.3-.2-.4-.2-.3-.2,0-.4,0-.6,0-.2,0-.4.3-.6.4-.2,0-.4-.2-.6.1-.1.3-.3-.2-.5,0-.2.1-.3.2-.5,0-.1-.2-.3-.4-.4-.3,0,0-.1.4-.2.4,0,0-.2-.3-.2.4,0,0,0,0,0-.1-.1-.4-.2-.4-.2,0,0,.3,0,.2-.1.3-.1,0-.3,0-.4,0-.1,0-.3-.3-.4-.3-.1,0-.2.3-.4,0-.2-.3-.3-.3-.4-.2,0,0-.2-.3-.1.4,0,0,0,0,0,0-.3-.8-.3.3-.5.2-.2-.2-.4,0-.5,0,0,0-.1-.1,0,.3,0,.2,0,.2,0,0-.3-.6-.3-.2-.5-.2-.2,0-.2.2-.5-.2-.1-.2-.3-.2-.1.3,0,.3,0,0-.1.1,0,0,0,.3,0,.3,0,0-.2-.2-.2-.3,0,0,0,0,0,0,.1.7-.4,0-.5.2,0,.3-.3.3-.5.3-.1,0-.3,0-1.1-.9-.3-.4-.7-.8-.8-1.1-.1-.2-.2-.4-.2-.5,0-.1,0-.3,0-.4,0-.3,0-.8.3-.7.1,0,0-.3.3.2,0,0,0,0,0,0-.2-.8.4-.5.6-.7.2-.1.1-.8.5-.7-.1-.6,0-.6.3-.5.7.5,1-.1,1.4-.1.5,0,.9-.2,1.3-.3,0,0,0-.4.2-.1.1.2.2,0,.3,0,0,0,.2-.2.3,0,.4.6.7.2,1.1.2.3,0,.7,0,1-.1.2-.1.4-.5.6-.4,0,0,.2-.3.3.3,0,.2,0-.3.1-.3.1,0,.3,0,.4,0,.2,0,.4,0,.5,0,.1,0,.2-.3.3-.4.1,0,.2,0,.3,0,.1,0,.3.3.4.3.2,0,.3-.2.4,0,.3.5.5.2.8.2.3,0,.5,0,.7-.1.1,0,.3.4.5.4,0,0,.4,1.4.5,1.9,0,0,0,.2,0,.2,0,.5,0,1.2-.3,1.2-.3,0-.5,0-.8,0Z"/>
      <path d="M370.1,144.8c-.1,0-.2.1-.3.2,0,0-.2-.1,0,.3.1.2-.3-.3-.3-.2,0,.1-.2.1-.3.2,0,.1,0,.4,0,.5,0,.1-.3,0-.2.3,0,.3-.3,0-.3,0,0,.2,0,.3-.3.1-.2,0-.3-.2-.3-.1,0,0,.2.4.1.4,0,0-.2-.2,0,.3,0,0,0,0-.1-.1-.3-.3-.3-.2-.2,0,.1.2,0,.2,0,.3,0,0-.1.2-.2.2,0,0-.3-.1-.4-.2,0,0,0,.3-.2,0-.2-.2-.3-.2-.3-.1,0,0-.2-.2.1.4,0,0,0,0,0,0-.6-.6,0,.3-.2.2-.2-.1-.2,0-.3.2,0,0-.2-.1,0,.3,0,.1,0,.2,0,0-.4-.5-.3,0-.4-.1-.2,0,0,.3-.4,0-.2-.1-.3-.2,0,.3.1.2,0,0,0,.1,0,0,.1.3.1.3,0,0-.2-.2-.3-.2,0,0,0,0,0,0,.3.6-.4,0-.4.2,0,.2-.2.3-.4.3,0,0-.3,0-1-1-.3-.4-.6-.9-.8-1.1-.1-.2-.2-.4-.2-.5,0-.1,0-.2,0-.3,0-.2-.3-.7,0-.5,0,0,0-.2.2.2,0,0,0,0,0,0-.4-.7,0-.4.1-.5,0-.1-.2-.7,0-.5-.3-.6-.2-.5,0-.4.6.4.5,0,.7-.2.2,0,.4-.3.6-.4,0,0-.1-.3,0-.1.2.2.1,0,.2,0,0,0,0-.2.1,0,.5.4.5,0,.6,0,.2,0,.4-.1.4-.3,0-.1,0-.5,0-.5,0,0,0-.3.3.2.1.1-.1-.3-.1-.3,0,0,.1-.1.2-.1,0,0,.2,0,.3-.2,0,0,0-.3,0-.4,0,0,0-.1.2-.1.1,0,.3.1.4.1.1,0,0-.3.3-.1.4.3.4,0,.6,0,.2,0,.3-.1.4-.3,0-.1.4.3.5.2,0,0,.9,1.1,1.2,1.6,0,0,.1.2.1.2.2.4.6,1.1.5,1.1-.2,0-.2.2-.4.2Z"/>
      <path d="M373.7,152.3c-.1-.1-.2-.3-.3-.4,0,0,.1-.2-.4,0-.2.1.2-.3.2-.3-.2,0-.2-.3-.3-.4-.1,0-.4-.1-.6-.2-.1,0,0-.4-.4-.3-.3,0,0-.3-.1-.4-.2,0-.3-.1-.2-.4,0-.2.2-.4,0-.4,0,0-.4.1-.4,0,0,0,.2-.3-.4,0,0,0,0,0,0-.1.3-.3.2-.3,0-.2-.3.1-.3,0-.3,0-.1,0-.2-.2-.2-.3,0-.1.1-.3,0-.5,0-.1-.3,0-.1-.3.2-.3.1-.3,0-.4,0,0,.2-.3-.4,0,0,0,0,0,0,0,.6-.6-.4,0-.3-.3,0-.3-.2-.3-.3-.4,0,0,0-.2-.3,0-.1,0-.2,0-.1,0,.4-.5,0-.4,0-.5,0-.2-.3-.1,0-.5.1-.2.2-.3-.3,0-.2.1,0,0-.1,0,0,0-.3.1-.3.1,0,0,.1-.2.2-.3,0,0,0,0,0,0-.7.3,0-.5-.4-.5-.3,0-.4-.3-.4-.5,0-.1,0-.3.9-1.1.4-.4.8-.7,1.1-.9.2-.1.4-.2.5-.2.1,0,.3,0,.4,0,.2,0,.7-.2.6,0,0,0,.2,0-.1.3,0,0,0,0,0,0,.7-.4.5.1.6.3.1.1.7-.2.6.1.6-.3.5-.2.4,0-.3.7.3.7.4,1,.1.3.4.5.6.8,0,0,.3-.1.2,0-.2.2,0,.2,0,.2,0,0,.2,0,.1.2-.4.6.1.6.2.8.1.3.2.5.5.6.2,0,.6,0,.5.2,0,0,.3,0-.1.4-.1.1.3,0,.3,0,.1,0,.1.2.2.3,0,.1.1.3.3.4,0,0,.3,0,.4,0,.1,0,.2.1.2.2,0,.1,0,.4,0,.5,0,.1.3,0,.2.4-.3.5,0,.5.1.7,0,.2.2.4.4.6.1,0-.2.4-.1.6,0,0-1.1.9-1.6,1.2,0,0-.2,0-.2.1-.5.2-1.1.5-1.2.3,0-.2-.2-.3-.3-.5Z"/>
      <path d="M377.1,152c-.2.3-.5.5-.7.8,0,.1-.4,0,0,.5.2.2-.4-.1-.5,0-.2.3-.5.5-.7.7-.2.3-.2.7-.4.9-.2.3-.6.3-.6.7,0,.4-.5.2-.6.4-.1.3-.3.5-.6.5-.3,0-.5,0-.6.1,0,.1,0,.4,0,.5-.1,0-.4,0,0,.5,0,0,0,0-.2,0-.4-.2-.5-.1-.4.2,0,.3,0,.3,0,.4-.2.2-.4.4-.7.5-.2,0-.5,0-.7,0-.2,0-.2.4-.6.3-.3-.1-.5,0-.6,0,0,0-.4-.1,0,.5,0,0,0,0,0,0-.7-.5-.4.5-.8.5-.4,0-.6.3-.9.5,0,0-.2,0,0,.4,0,.2,0,.2-.1.1-.5-.4-.6,0-.8,0-.3,0-.4.4-.9.1-.2-.1-.4-.2-.3.4,0,.3-.2,0-.3.2,0,0,0,.4,0,.4,0,0-.2-.1-.3-.2,0,0,0,0,0,0-.1.8-.9.1-1.2.5-.3.3-.8.4-1.2.5-.2,0-.5,0-1.1-1.1-.2-.5-.4-1-.4-1.3,0-.3,0-.5,0-.6,0-.1.1-.3.2-.4.2-.3.2-.8.5-.7.1,0,0-.3.3.2,0,0,0,0,0,0,0-.9.5-.5.8-.7.2-.2.2-.9.6-.7-.1-.6,0-.6.3-.5.8.3,1.1-.3,1.7-.5.6-.2,1-.6,1.5-.9,0,0,0-.4.2-.2.2.2.2,0,.3-.2,0,0,.1-.2.3-.2.7.3.9-.3,1.3-.5.4-.2.8-.4,1.1-.9.2-.3.1-.7.4-.8.1,0,0-.4.5,0,.1.1,0-.3,0-.4.1-.2.3-.3.4-.4.2-.2.4-.3.6-.6,0-.1,0-.4.1-.6,0-.2.2-.3.4-.4.2,0,.5,0,.7-.2.2-.1.2-.5.5-.4.6,0,.7-.4,1-.7.3-.3.6-.5.7-.9,0-.2.6,0,.7-.2,0,0,1.3.7,1.7,1,0,0,.1.1.2.2.2.5.7,1.1.5,1.3-.3.3-.5.6-.8.9Z"/>
      <path d="M262.6,246c-1.2-1.4-2.4-2.9-3.7-4.2-.5-.5-.8-1.2-1.7-1.4-.4,0-.4-1-.9-1.5-1.2-1.3-2.4-2.6-3.6-3.8-1.2-1.2-2.5-2.3-3.8-3.5-1.2-1.2-2.2-2.6-3.6-3.6-1.2-.8-1.7-2.1-2.8-2.9-1.1-.9-2.2-1.9-3-3.1-.6-.8-1.2-1.7-2-2.3-.5-.4-1.2-.6-1.6-1.1-.4-.5-.8-1.2-1.6-1.1,0,0-.2-.3-.3-.4-.2-.8-.9-1.3-1.5-1.5-.6-.2-.9-.5-1.3-.9-1.1-.9-2.1-1.9-3.2-2.9-.8-.7-1.4-1.6-2.2-2.4-.8-.8-1.9-1.4-2.5-2.3-.6-.9-1.4-1.5-2.1-2.2-.4-.4-.8-1-1.5-.9,0,0-.2-.1-.3-.2-.7-1.7-2.7-1.9-3.8-3.1-1.2-1.3-2.7-2.3-4-3.3-.4-.3-.6-.7-1.3-.6-.2,0-.6-.3-.7-.5-.6-1.3-1.9-1.9-2.9-2.7-1.1-1-2.5-1.7-3.4-3-.4-.6-1-1.2-2-1.2-.4,0-.9-.6-1.4-.9-.4-.2-.9-.3-1.3-.5-.3-.2-.5-.6-.7-1,0,0-.2-.2-.3-.2-2.2-.8-3.4-2.8-5.4-3.9-1.9-1.2-3.8-2.5-5.6-3.8-1-.7-2-1.6-2-3,0-.6.3-1.1.9-1.1.5,0,1,0,1.4.3.7.3,1.3.6,1.9.9,1.3.7,2.8,1,3.9,2.1.3.3,1,.4,1,1,0,0,.1.2.2.3,2.1.5,3.5,2.1,5.2,3.3,1.4,1,3.2,1.5,4.4,2.7,1.2,0,2,.8,2.6,1.6,1.2,1.3,2.5,2.4,3.9,3.4,1.4,1.1,2.8,2,4.1,3.1,2.7,2.2,5.4,4.4,8.1,6.7.4.4,1.1.4,1.4,1.1.3.6,1.1,1,1.7,1.5.5.5,1.2.8,1.6,1.4,1.6,2.3,3.9,3.8,5.9,5.7,1.9,1.9,3.9,3.8,6,5.5,1.3,1.1,2.7,2,3.8,3.2.5.5,1.2.8,1.3,1.7,0,.3.8.4,1.2.7.8.8,1.6,1.6,2.4,2.4,1.1,1.1,2.2,2.3,3.3,3.4.7.7,1.5,1.2,2.3,1.8.8.7,1.4,1.4,2.1,2.2.8,1,1.5,2.1,2.4,3,.9,1,2,1.9,2.6,3,1.2,2.1,3,3.7,4.4,5.5,1.5,1.8,3,3.6,4.6,5.3.9,1,1.3,2.2,2.1,3.2.4.5-.2,2-.8,2.1-.1,0-.2,0-.3,0-1.2-.7-2.5-1.1-3.3-2.2-1.3-1.7-2.7-3.3-4.1-4.9Z"/>
      <path d="M212.6,249.8c-.9-.9-1.8-1.8-2.7-2.7-.4-.3-.5-.8-1.2-.8-.4,0-.2-.8-.6-1-.9-.8-1.7-1.7-2.6-2.5-.9-.8-1.8-1.4-2.7-2.2-.9-.7-1.5-1.8-2.5-2.3-.9-.5-1.2-1.4-1.9-1.9-.8-.6-1.6-1.2-2.1-2-.4-.6-.8-1.2-1.3-1.6-.4-.2-.9-.3-1.2-.6-.3-.3-.5-.8-1.2-.6,0,0-.1-.2-.1-.3,0-.6-.5-1-1-1-.5,0-.7-.3-1-.5-.8-.6-1.5-1.2-2.2-1.9-.5-.5-.9-1.1-1.5-1.6-.5-.5-1.3-.8-1.7-1.5-.4-.7-.9-1.1-1.4-1.5-.3-.2-.5-.7-1.1-.4,0,0-.2,0-.2-.1-.4-1.4-1.9-1.1-2.7-1.9-.8-.8-1.8-1.5-2.8-2.1-.3-.2-.4-.5-.9-.3-.2,0-.5,0-.5-.3-.4-1-1.3-1.2-2-1.8-.8-.6-1.8-.9-2.4-1.9-.3-.4-.7-.8-1.4-.6-.3.1-.6-.4-1-.5-.3-.1-.7,0-.9-.2-.2-.1-.3-.5-.5-.7,0,0-.1-.1-.2-.1-1.6-.2-2.5-1.6-3.9-2.2-.7-.3-1.4-.6-2-.9-.7-.3-1.3-.7-2-1-.7-.4-1.4-.9-1.5-2.2,0-.6.2-1.1.7-1.2.3-.1.7-.2,1-.1.5.1,1,.2,1.4.3,1,.3,2.1.2,2.9.9.2.2.7.1.7.7,0,0,0,.2.2.2,1.6,0,2.6,1,3.8,1.7,1,.5,2.4.6,3.3,1.4.9-.2,1.5.3,2,.8.8.9,1.8,1.6,2.8,2.2,1,.6,2,1.2,2.9,1.9l2.9,2.1c1,.7,1.9,1.4,2.9,2.1.3.3.8.2,1,.7.2.5.8.7,1.2,1,.4.3.9.5,1.1.9,1,1.7,2.7,2.5,4.1,3.8,1.3,1.3,2.7,2.5,4.2,3.6.9.7,2,1.2,2.7,2,.3.4.9.5.9,1.2,0,.2.6.2.9.4.6.5,1.1,1,1.7,1.6.8.7,1.5,1.5,2.3,2.2.5.4,1.1.7,1.7,1.1.5.4,1,.9,1.5,1.4.6.7,1,1.4,1.6,2.1.6.7,1.5,1.1,1.9,1.9.8,1.5,2.1,2.4,3.2,3.6,1.1,1.2,2.2,2.3,3.4,3.3.7.6.9,1.5,1.5,2.1.3.3-.4,1.7-.9,2,0,0-.2,0-.3,0-.9-.3-2-.3-2.7-1.1-1-1.1-2-2.1-3-3.1Z"/>
      <path d="M164.1,191.8c-.1.2-.3.5-.3.7,0,.1-.3,0,.1.4.2.2-.4,0-.4,0,0,.3-.2.4-.3.7,0,.2,0,.6,0,.8,0,.2-.4.4-.2.7.2.3-.4.3-.3.5,0,.2,0,.5-.3.6-.2,0-.5.1-.4.3,0,.1.3.3.2.4,0,0-.3,0,.2.4,0,0,0,0-.2,0-.4,0-.4,0-.2.2.2.2.2.2.1.3,0,.2-.1.4-.2.6-.1.1-.4.2-.5.3-.1.1,0,.4-.3.4-.3,0-.4.2-.4.3,0,0-.3,0,.2.4,0,0,0,0,0,0-.9,0,0,.5-.2.7-.3.2-.2.4-.3.7,0,0-.2,0,.2.3.1,0,.1.1,0,.1-.7,0-.4.3-.5.4-.2.2,0,.5-.5.5-.2,0-.4,0,.1.4.2.1,0,.1,0,.2,0,0,.3.2.2.3,0,0-.3,0-.4,0,0,0,0,0,0,0,.5.5-.4.5-.4.9,0,.4-.1.6-.3.9-.1.2-.3.3-1.5,0-.5-.1-1-.3-1.3-.5-.2-.1-.4-.3-.4-.3,0-.1-.1-.3-.2-.4-.1-.3-.6-.6-.2-.7.1,0-.2-.2.3,0,0,0,.1,0,0,0-.7-.5,0-.7,0-1,0-.3-.5-.7-.1-.8-.5-.3-.4-.5-.2-.5.8-.2.6-.9.8-1.3.3-.4.4-1,.6-1.4,0,0-.3-.3,0-.3.3,0,.1-.2.2-.3,0,0,0-.2.1-.3.8-.1.5-.6.8-1,.2-.3.4-.7.4-1.1,0-.3-.2-.6,0-.8,0,0-.2-.3.4-.2.2,0-.2-.2-.2-.3,0-.2.1-.3.2-.5,0-.2.2-.4.3-.6,0-.1-.1-.4-.1-.5,0-.2,0-.3.2-.4.1-.1.4-.2.6-.4.1-.2,0-.4.3-.5.6,0,.5-.5.7-.8.2-.3.4-.6.4-.9,0-.2.6-.1.6-.3,0,0,1.4.5,1.8.7,0,0,.2.1.2.1.3.4.9.8.8,1-.2.2-.3.5-.4.8Z"/>
      <path d="M168.8,195.2c-.1,0-.3,0-.4,0,0,0,0-.2-.2.3,0,.3,0-.4-.1-.3-.1,0-.3,0-.4,0-.1,0-.3.2-.4.3-.1,0-.2-.3-.4,0-.2.2-.1-.3-.3-.2-.1,0-.3.1-.3-.1,0-.2,0-.4-.1-.3,0,0-.2.3-.3.3,0,0,0-.3-.3.3,0,0,0,0,0-.2.1-.4,0-.4-.1-.2-.2.2-.2.2-.2.2-.1,0-.2,0-.3-.2,0,0,0-.3,0-.4,0,0-.3.1-.2-.2,0-.3,0-.3,0-.4,0,0,0-.3-.3.2,0,0,0,0,0,0,.4-.7-.3,0-.3-.2,0-.2-.2-.2-.3-.3,0,0,0-.2-.3.1-.1.1-.2,0,0,0,.4-.5,0-.3,0-.5,0-.2-.3,0,0-.5.1-.2.2-.3-.3,0-.2.2,0,0-.1,0,0,0-.3.1-.3.1,0,0,.1-.2.2-.3,0,0,0,0,0,0-.6.3,0-.4-.3-.4-.3,0-.3-.2-.3-.4,0-.1.1-.3,1.1-.8.5-.2,1-.5,1.3-.6.2,0,.4-.2.5-.2.1,0,.2,0,.3,0,.2,0,.7-.3.5-.1,0,0,.2,0-.2.2,0,0,0,0,0,0,.7-.4.3,0,.4,0,0,0,.6-.3.4-.1.5-.4.4-.3.3-.2-.4.5,0,.3,0,.4,0,.1.1.1.2.2,0,0,.2-.3,0,0-.1.2,0,0,0,0,0,0,.1,0,0,0-.3.6,0,.3,0,.4,0,0,.1.2.2,0,0,0,.3-.4.2-.2,0,0,.1-.3,0,.3,0,.2.1-.3.1-.3,0,0,0,0,0,0,0,0,0,0,.1,0,0,0,.1-.3.1-.3,0,0,0,0,0,0,0,0,0,.3,0,.4,0,0,0-.2,0,0,0,.5.1.3.2.3,0,0,.1.1.2,0,0,0,.1.4.2.4,0,0,0,.4.2.8,0,.4.2.9.2,1.2,0,0,0,.2,0,.2,0,.5,0,1.2-.1,1.2-.2,0-.3,0-.5,0Z"/>
      <path d="M184.9,170.4c.3-1.1.7-2.2.9-3.4,0-.4.4-.8,0-1.4-.2-.3.5-.6.5-1,.1-1.1.4-2.2.4-3.2,0-1.1-.1-2.1-.1-3.2,0-.5,0-1,0-1.6,0-.5,0-1.1-.2-1.4-.1,0,0,0,0-.2,0,0,0-.2,0-.2-.1,0-.2,0-.2,0,0,0,0,0-.4,0-.4,0-.9,0-1.2.5-.2.3-.2.8-.6,1.1-.3.3-.8.4-.6,1.1,0,0-.2.1-.3.1-.6,0-.9.4-.9.9,0,.4-.3.6-.4.9-.5.7-1.1,1.4-1.7,2.1-.4.5-1,.9-1.5,1.4-.5.5-.7,1.3-1.3,1.7-.6.4-1,.9-1.3,1.5-.2.3-.7.5-.3,1.1,0,0,0,.2-.1.2-1.3.5-.9,1.9-1.6,2.7-.8.8-1.2,1.9-1.8,2.9-.1.3-.5.4-.2.9,0,.2,0,.4-.2.5-.9.4-1,1.3-1.4,1.9-.5.7-.5,1.6-1.1,2.2-.3.3-.4.8.1,1.2.3.2,0,.6,0,.9,0,.3.3.5.4.8,0,.2-.2.5-.3.7,0,0,0,.2,0,.2.8,1.3,0,2.8.4,4.2.3,1.4.4,2.9.5,4.4,0,.8,0,1.7-1.1,2.3-.5.3-1,.4-1.4,0-.3-.2-.5-.5-.6-.8-.2-.4-.3-.9-.5-1.3-.3-.9-.9-1.8-.8-2.7,0-.3-.3-.6.2-.9,0,0,0-.2,0-.2-.9-1.2-.6-2.6-.8-3.9-.2-1.1-.9-2.3-.6-3.6-.6-.7-.4-1.7,0-2.4,1.2-2.5,2.1-4.7,3.3-6.6,1.2-1.9,2.3-3.9,3.5-5.8.2-.3,0-.8.6-1,.4-.2.6-.8.9-1.2.2-.4.4-.9.8-1.1,1.5-1.1,2.3-2.8,3.5-4.2,1.2-1.4,2.4-2.7,3.6-4.1.7-.8,1.3-2,2.8-2.7.3-.1.6-.3,1-.5.4-.1.9-.2,1.3.1.2.1,1-.3,1.5-.2,1.3.2,2.4,1.1,3,2.3.2.4.4.8.4,1.3,0,.2,0,.5.1.7v.5c0,.6,0,1.1.1,1.6,0,.6.3,1.3.3,2,0,.7,0,1.4-.1,2.1-.1.9-.4,1.7-.6,2.5-.2.9,0,1.8-.5,2.6-.8,1.5-.9,3-1.4,4.5-.5,1.5-1.1,2.9-1.5,4.4-.3.9-1.1,1.4-1.4,2.2-.2.4-1.7.2-2.1-.2,0,0-.1-.2-.1-.2,0-.9-.4-1.9,0-2.7.6-1.2,1-2.5,1.4-3.7Z"/>
    </g>
    <g>
      <path d="M396.4,180c2.7-4.1,8.6-11.9,12.1-15.4,1.1-1.1,2.4-2.3,3.9-2.8,3-1.1,6.3.5,9.1,2.1,6.1,3.3,12.3,6.7,18.4,10,3.7,2,7.4,4,10.7,6.5,2.2,1.7,4.4,3.8,4.7,6.6.2,2.5-1.2,4.8-2.6,6.9-1.5,2.3-5.9,8.6-7.9,10.4s-4.8,2.9-7.5,2.5c-1.4-.2-2.7-.9-4-1.5-11.2-5.6-22.4-11.3-33.7-16.9-1.4-.7-2.9-1.5-3.7-2.9-.8-1.4-.3-3.6,1.2-4"/>
      <path d="M404.6,188.8c2.3,1.1,4.5,2.3,6.8,3.4.9.4,1.6,1.1,2.7,1,.6,0,1.1,1,1.9,1.3,2.1,1,4.2,2.1,6.4,3.1,2.1,1,4.2,1.8,6.3,2.8,2.1,1,4,2.3,6.1,3,1.7.6,2.7,1.4,4,1.2,1.4-.2,2.8-.9,4.1-1.7.3-.1.5-.3.7-.4.2-.1.5-.3.7-.5.5-.4.9-.9,1.3-1.4.5-.7.7-1.5,1.2-2.2.5-.7,1.3-1.3,1.2-2.3,0,0,.3-.3.5-.4.9-.5,1.5-1.5,1.7-2.2.2-.8.6-1.3.9-1.9.9-1.5,1.5-2.9,1.5-4,0-.8,0-1.7-.7-2.7-.7-1-1.9-1.7-2.8-2.7-.9-1-2-1.8-3.1-2.5-.6-.4-1.3-1.1-2.1-.9,0,0-.3-.1-.4-.2-1.5-1.8-3.9-1.9-5.8-3.2-1.9-1.3-4.1-2.3-6.2-3.4-.6-.3-1.1-.8-1.8-.7-.3,0-.8-.3-1.1-.5-1.2-1.4-3-1.9-4.5-2.9-1.7-1.1-3.7-1.9-5.2-3.2-.6-.5-1.6-1.1-2.6-.8-.4.1-1.1-.3-1.7-.2-.4,0-.8.3-1.1.4-.3,0-.6,0-1,0-.1,0-.2,0-.3.2-.4.4-.8.8-1.2,1.3-.5.5-1,.9-1.5,1.4-1,.9-2.1,1.9-3,3.1-1.7,2.4-3.7,4.7-5.5,7.1-1,1.3-2.1,2.6-3.7,2.9-.7.1-1.2-.2-1.1-.9,0-.6.2-1.2.5-1.7.5-.8.9-1.7,1.4-2.5,1-1.7,1.7-3.6,3.2-5,.5-.4.7-1.2,1.4-1.3.1,0,.3-.2.3-.3,1.1-2.6,3.3-4.4,5.5-6.4,1-.8,2.1-1.8,3.6-2.3,1.5-.5,3.1-.6,4.4-.1,1.7-.3,3.3.5,4.5,1.3,1,.7,2,1.4,3,1.9,1,.6,2,1.2,3,1.7,2,1.1,4.1,2.1,6.1,3.2,4,2.3,8.1,4.4,12.2,6.8.7.4,1.5.5,2.2,1.2.6.7,1.7,1.1,2.6,1.7.8.6,1.7,1,2.4,1.8,1.3,1.5,2.8,3,3.8,5,.5,1,.8,2.2.8,3.4,0,1.2-.3,2.3-.7,3.3-.8,2-2,3.5-3,5-1,1.5-2.1,3.1-3.1,4.6-.6.9-1.2,1.9-1.9,2.8-.7.9-1.4,1.9-2.5,2.8-.9.7-1.7,1.6-3,1.6-.3,0-1.1.8-1.9,1-.9.3-1.9.4-2.9.4-1,0-2-.2-2.9-.5-1.2-.4-2.3-.9-3.2-1.4-.9-.5-1.9-.9-2.8-1.4-1.2-.5-2.4-.9-3.6-1.4-1.2-.5-2.4-1.2-3.6-1.8-1.5-.8-2.9-1.8-4.4-2.6-1.6-.8-3.3-1.4-4.7-2.4-2.6-1.9-5.5-3-8.3-4.5l-4.2-2.2-2.1-1c-.7-.4-1.5-.8-2.3-1.3-.5-.3-.9-.7-1.2-1.2-.2-.2-.3-.5-.5-.8-.1-.3-.3-.6-.3-.9-.3-1.3,0-2.5.5-3.7.3-.6,1.2-.9,1.8-.7.6.2.8.7.8.9,0,.1,0,.2-.1.3-.3.4-.2,1,0,1.5,0,.2.2.4.4.6.1.1.3.3.4.5.5.7,1.6,1.3,2.9,1.9l3.9,1.9Z"/>
    </g>
    <path d="M416.8,141.4c-1.7-.4-3.5-.6-5.3-.4-.7,0-1.4-.1-2,.5-.3.3-1.1-.2-1.7,0-1.7.4-3.3.8-4.8,1.5-.7.4-1.3.8-1.9,1.3-.5.5-1,1-1.3,1.5-.6,1-.8,1.6,0,1.9.6.2,1.1,1,2,.8,1-.2,2.1-.6,3.3-1.1.9-.3,2-.6,2.7-1.3.5-.4.8-1,1.4-1.4.5-.3,1.2-.6,1.2-1.4,0,0,.3-.2.4-.2.8-.1,1.3-.7,1.5-1.3.2-.6.5-.9.8-1.3.8-1,1.4-2.1,1.9-3.2.4-.8.8-1.7,1-2.6.2-1-.1-2,0-2.9.1-.9-.2-1.7-.6-2.5-.2-.4-.3-1.1-1.1-.9,0,0-.2-.1-.2-.2-.2-.8-.8-1.2-1.5-1.5-.7-.3-1.4-.4-2.1-.8-1.4-.8-3.1-1.2-4.8-1.6-.4,0-.9-.4-1.4,0-.2.1-.6,0-.8,0-1.2-.8-2.5-.5-3.8-.6-1.5-.1-2.9.3-4.5,0-.7-.1-1.6,0-2.2.7-.3.4-1,.2-1.5.5-.4.2-.7.6-1.1.7-.3.1-.8,0-1.2,0-.1,0-.2,0-.3.1-.9.7-1.8,1.1-2.8,1.5-1,.4-2,.8-2.8,1.5-1.7,1.4-3.3,2.8-4.9,4.4-.8.9-1.7,1.7-3.1,1.8-.6,0-1.1-.3-1.1-.9,0-.5.1-1,.4-1.4.4-.7.8-1.3,1.2-2,.9-1.3,1.7-2.8,3.1-3.6.4-.3.7-.9,1.4-.7,0,0,.3,0,.3-.2,1.3-1.9,3.6-2.7,5.6-3.7,1.7-.8,3.3-2.1,5.2-2.3.9-.9,2.2-1,3.3-1,3.9.1,7.7-.2,11.4.6,1.9.4,3.7,1,5.6,1.7,1.8.8,3.7,1.8,5.3,3.3.5.5,1.2.8,1.5,1.7.2.8.9,1.7,1.2,2.6.3.8.6,1.7.6,2.5-.1,1.7-.3,3.3-.6,4.9-.3,1.6-.9,3.1-1.7,4.5-1.7,2.7-3.9,4.8-6.2,6.7-1.4,1.2-2.8,2.4-4.4,3.2-.7.3-1.4,1-2.4.8-.3,0-.9.6-1.5.8-.7.2-1.5.3-2.3.2-.9,0-1.7-.3-2.5-.6-1.1-.5-2.1-1.2-2.8-2.3-.8-1.1-1.1-2.6-1-3.9.2-1.6.8-3,1.6-4,.4-.5.9-1,1.5-1.4.5-.4,1-.7,1.6-1,1.4-.7,2.8-1.1,4.3-1.5,1.5-.4,2.9-1,4.4-.9,2.6.1,5.2-.2,7.9.3,2.6.5,5.2,1.5,7.5,3,1.3.9,2,2.3,2.8,3.5.2.3.1.8-.1,1.3-.2.5-.6.8-.9.8-.1,0-.2,0-.3,0-1-.9-2.2-1.2-3.1-2-1.4-1.3-3.2-2.1-5.1-2.6Z" fill="#00b4e9"/>
    <path d="M408.8,180.3c.2.2.4.5.6.8,0,.1-.1.3.4.3.3,0-.3.3-.2.4.1.3,0,.6,0,.9,0,.3.2.6.1.9,0,.3-.4.4-.3.8,0,.4-.4.2-.5.4,0,.2-.2.5-.5.4-.2,0-.5-.2-.5,0,0,.1,0,.4-.1.5-.1,0-.3-.2-.2.4,0,0,0,0-.1-.1-.2-.4-.3-.3-.3,0,0,.3-.1.3-.2.3-.2,0-.5.1-.7,0-.2,0-.3-.3-.5-.4-.1,0-.4.2-.5-.2,0-.3-.2-.4-.3-.4,0,0,0-.3-.4.2,0,0,0,0,0,0,0-.4,0-.4-.2-.4-.2,0-.5.1-.5,0,0-.4-.4-.5-.6-.8,0,0,0-.2-.4-.1-.2,0-.2,0-.1-.1.5-.5,0-.6.1-.8,0-.3-.2-.5.3-.8.2,0,.3-.2-.2-.4-.3-.1,0-.2,0-.3,0,0-.3-.2-.2-.3,0,0,.3,0,.4,0,0,0,0,0,0,0-.2-.3,0-.5.1-.6.2-.1.5-.2.5-.4.1-.4.6-.7,1.1-.8.3,0,.6,0,.9,1.1.1.5.2,1,.3,1.4,0,.1,0,.3,0,.3h0s0,0,0,0c0,0,0,0,0,0,0,0,0,0,0,0h0c0,0,.1.1.2.1,0,0,0,0,0,0,0,0,0,0,0,0,0,0-.2,0-.3,0h0s0,0,0,0h0s.1,0,.1,0h0s0,0,0,0c0,0,0,0,0-.1,0,0,0,0,0,0,0,0,0,0,0,0,0,0,0,0,0,0,0,0,0-.1,0-.1,0,0,0,0,0,.1,0,0,0,0,0,.1h0s0,0,0,0h0s0,0,0,0h0c0,0,0,0,0,0h0s0,0,0,0c0,0,0,0,0,0,0,0,0,0,0,0,0,0,0,0,0,0,0,0,0,0,0,0,0,0,0,0,0,0,0,0,0,0,0,0,0,0,0,0,0,0h0s0,0,0,0h.1s0,0,0,0h0s0,0,0,0h0s0,0,0,0c0,0,0,0,0,0,0,0,0,0,.1-.1,0,0,0,0,0,0,0,0,0-.9,0-1.3,0,0,0-.2,0-.2.1-.5.5-1.1.8-1,.4.2.7.4,1,.6Z" fill="#00b4e9"/>
    <path d="M417.4,184.6c.2.2.4.5.6.8,0,.1-.1.3.4.3.3,0-.3.3-.2.4.1.3,0,.6,0,.9,0,.3.2.6.1.9,0,.3-.4.4-.3.8,0,.4-.4.2-.5.4,0,.2-.2.5-.5.4-.2,0-.5-.2-.5,0,0,.1,0,.4-.1.5-.1,0-.3-.2-.2.4,0,0,0,0-.1-.1-.2-.4-.3-.3-.3,0,0,.3-.1.3-.2.3-.2,0-.5.1-.7,0-.2,0-.3-.3-.5-.4-.1,0-.4.2-.5-.2,0-.3-.2-.4-.3-.4,0,0,0-.3-.4.2,0,0,0,0,0,0,0-.4,0-.4-.2-.4-.2,0-.5.1-.5,0,0-.4-.4-.5-.6-.8,0,0,0-.2-.4-.1-.2,0-.2,0-.1-.1.5-.5,0-.6.1-.8,0-.3-.2-.5.3-.8.2,0,.3-.2-.2-.4-.3-.1,0-.2,0-.3,0,0-.3-.2-.3-.3,0,0,.3,0,.4,0,0,0,0,0,0,0-.2-.3,0-.5.1-.6.2-.1.5-.2.5-.4.1-.4.6-.7,1.1-.8.3,0,.6,0,.9,1.1.1.5.2,1,.3,1.4,0,.1,0,.3,0,.3h0s0,0,0,0c0,0,0,0,0,0,0,0,0,0,0,0,0,0,0,0,0,0,0,0,.1,0,.2.1,0,0,0,0,0,0,0,0,0,0,0,0,0,0-.2,0-.3,0h0s0,0,0,0h0s.1,0,.1,0h0s0,0,0,0c0,0,0,0,0-.1,0,0,0,0,0,0,0,0,0,0,0,0,0,0,0,0,0,0,0,0,0-.1,0-.1,0,0,0,0,0,.1,0,0,0,0,0,.1h0s0,0,0,0h0s0,0,0,0h0c0,0,0,0,0,0h0s0,0,0,0c0,0,0,0,0,0,0,0,0,0,0,0,0,0,0,0,0,0,0,0,0,0,0,0,0,0,0,0,0,0,0,0,0,0,0,0,0,0,0,0,0,0h0s0,0,0,0h.1s0,0,0,0h0s0,0,0,0h0s0,0,0,0c0,0,0,0,0,0,0,0,0,0,.1-.1,0,0,0,0,0,0,0,0,0-.9,0-1.3,0,0,0-.2,0-.2.1-.5.5-1.1.8-1,.4.2.7.4,1,.6Z" fill="#00b4e9"/>
    <path d="M260.2,447.6c-3.4-2.7-6.6-5.9-9.1-9.6-1-1.4-1.6-2.9-2.9-4.2-.6-.7-.8-2.4-1.3-3.8-1.6-3.9-2.4-8.1-2.3-12.3,0-2,.2-4.1.6-6.2.5-2,1.1-4,2-5.9.9-1.9,2.2-3.6,3.5-5.2,1.4-1.6,2.9-3,4.4-4.3,2.8-2.3,6-3.1,9.3-3.8,1.8-.4,3.7-.4,5.6-.2,1.9.3,3.7.9,5.3,2,1.2.8,2.2,1.8,3,2.9.8,1.1,1.4,2.4,1.9,3.7.6,1.6,1,3.2.9,5,0,1.7-.7,3.4-.5,4.9,0,.1-.3.8-.5,1.1-.9,1.5-1.7,3.3-2.1,4.7-.2.7-.4,1.2-.7,1.8-.3.5-.6,1.1-.9,1.6-1.8,2.9-4,5.7-6.5,8.1-1.9,1.8-4.1,3.2-6.2,4.6-2.3,1.4-4.8,3-7.3,3.5-2.5.6-4.8,1.1-7.2,1.4-.7,0-1.5,0-2.2,0-.7,0-1.4,0-2,.4-.1,0-.6,0-.9,0-1-.3-2-.5-2.9-.7-.5,0-1-.2-1.5-.3l-1.5-.3c-1-.2-1.9-.5-2.9-.7-.9-.3-1.9-.7-2.8-1.2-1.9-1-3.6-2.1-5.3-3.3-1.7-1.3-3.3-2.6-4.8-4.1-.4-.4-.7-.9-1.1-1.3-.4-.4-.8-.8-1.3-1.1-.3-.2-1.1-1.1-1.3-1.7-1.3-2.9-3.1-5.6-4.2-8.6-1.1-3.4-2.3-6.9-2.2-10.6,0-1.5,0-3.6-.5-5.4-.3-.8,0-2.6.1-3.9,0-1.1-.1-2.2,0-3.2.1-.9.5-1.8.8-2.6,0-.3.2-.6.2-.9.2-2.6,1.1-5.1,2.2-7.5,1.1-2.4,2.3-4.7,3.5-7,2.3-4.7,5.5-9,9-12.8,1.9-2.1,4.1-4.1,6.3-4.6,1-.2,1.4.2.7,1.2-.5.8-1,1.6-1.6,2.4-1,1.2-2,2.5-2.9,3.7-1.9,2.5-3.4,5.3-5.4,7.9-.6.8-1,2-1.9,2.4-.1,0-.4.4-.4.6-.7,2.1-1.7,4.1-2.5,6.1-.9,2-1.8,4.1-2.3,6.2-1,3.6-.9,7.3-1.3,10.9.6,2.1.5,4.4.6,6.4.1,3.6.9,7.2,2.4,10.5.7,1.7,1.6,3.2,2.5,4.7,1,1.5,2.1,2.9,3.3,4.2,4.8,5.4,11.6,9.2,18.7,9.9.3,0,.6,0,.9,0,.3,0,.6,0,.9,0,.6,0,1.2,0,1.9,0,.7,0,1.4,0,2.2,0,.8-.1,1.6-.3,2.3-.5.7-.2,1.4-.4,2.1-.6.7-.2,1.4-.4,2-.7,2.7-.8,5.3-2.2,7.6-4,2.3-1.8,4.3-3.9,6.2-6.1,1.8-2.2,3.5-4.7,4.7-7.3,1.3-2.6,2.2-5.3,2.4-8,.1-1.6-.2-3.2-.7-4.5-.6-1.3-1.5-2.4-2.6-3.3-.5-.4-1.1-.6-1.7-.9-.6-.2-1.2-.5-1.8-.9-.4-.3-1.7,0-2.6,0-1.1,0-2.2.2-3.3.4-.6,0-1.1.3-1.6.5-.5.1-1.1.4-1.6.6-1.4.7-2.8,1.5-4,2.5-.6.5-1.2,1.1-1.8,1.6-.5.6-1.1,1.2-1.6,1.8-1.2,1.6-2,3.4-2.7,5.1-.8,1.9-1.3,3.8-1.7,5.8-.4,2.5-.6,5.2-.2,7.8.4,2.7,1.6,5.4,2.4,7.9.8,2.4,2.1,4.5,3.6,6.6,1.5,2,3.2,3.8,5.1,5.5,3.7,3.4,8,6.2,12.6,8.4,2.6,1.2,4.8,2.7,7.5,3.7,1.2.5,2.4,2.5,1.8,2.8-.1,0-.4,0-.6,0-2.8-.5-5.6-.8-8.6-2.3-4.4-2.1-8.7-4.6-12.6-7.7Z" fill="#00b4e9"/>
    <path d="M154.2,179.6c-.2,0-.3,0-.5,0,0,0,0-.3-.2.3,0,.3,0-.4,0-.4-.2,0-.3,0-.5,0-.2,0-.4.2-.5.3-.2,0-.3-.3-.5,0-.2.3-.2-.3-.4-.2-.2.1-.3.2-.4,0,0-.2-.1-.4-.2-.3,0,0-.2.4-.2.3,0,0,0-.3-.2.3,0,0,0,0,0-.2,0-.4,0-.4-.2-.1,0,.3-.1.2-.2.2-.1,0-.3,0-.4,0,0,0-.2-.3-.2-.4,0,0-.3.2-.3-.1,0-.3-.1-.3-.2-.3,0,0,0-.3-.2.3,0,0,0,0,0,0,0-.8-.3.2-.5,0-.1-.2-.3-.1-.5-.1,0,0,0-.2-.2.3,0,.2,0,.2,0,0,0-.6-.2-.3-.3-.4-.1-.1-.3.1-.4-.4,0-.2,0-.3-.3.2,0,.3-.1,0-.2,0,0,0-.1.3-.2.3,0,0,0-.2,0-.4,0,0,0,0,0,0-.3.6-.4-.3-.6-.1-.2.1-.4,0-.6,0-.1,0-.2-.3,0-1.4,0-.5.1-1.1.2-1.4,0-.2.2-.4.2-.5,0,0,.2-.2.3-.3.2-.2.4-.7.5-.4,0,0,.1-.2,0,.3,0,0,0,.1,0,0,.3-.8.4-.2.6-.2.2,0,.4-.6.5-.3.2-.6.3-.5.3-.3.2.7.6.3.9.5.3.1.6.1,1,.2,0,0,.2-.3.2,0,0,.3.1,0,.2,0,0,0,.2-.1.2,0,.1.7.5.3.7.5.2.1.5.2.8.1.2,0,.4-.4.5-.2,0,0,.2-.3.1.3,0,.2.1-.3.2-.3.1,0,.2,0,.3,0,.1,0,.3,0,.4,0,0,0,.2-.2.3-.3.1,0,.2,0,.3,0,.1,0,.2.3.3.4.1,0,.3-.2.4.1.1.5.4.3.6.4.2,0,.4.2.6,0,.1,0,.2.5.3.5,0,0-.1,1.5-.2,2,0,0,0,.2,0,.2-.2.4-.4,1.1-.6,1.1-.2-.1-.4,0-.6-.1Z" fill="#00b4e9"/>
    <path d="M158.9,160.6c-.2-.1-.4-.3-.7-.4,0,0,0-.3-.4.1-.2.2,0-.4,0-.4-.2,0-.4-.3-.6-.3-.2,0-.5,0-.8,0-.2,0-.3-.4-.6-.3-.3.1-.2-.4-.4-.4-.2,0-.4,0-.5-.3,0-.2,0-.5-.2-.5-.1,0-.3.3-.4.2,0,0,0-.3-.4.2,0,0,0,0,0-.2.1-.4,0-.4-.2-.2-.2.2-.2.1-.3.1-.2,0-.4-.1-.5-.3-.1-.1-.1-.4-.2-.5,0-.1-.4,0-.4-.3,0-.3,0-.4-.2-.5,0,0,0-.3-.4.2,0,0,0,0,0,0,.2-.8-.5,0-.6-.3,0-.3-.4-.3-.6-.4,0,0,0-.2-.3.1,0,.1-.2.1-.1,0,.2-.6-.2-.4-.3-.6-.1-.2-.4,0-.4-.6,0-.2,0-.4-.4,0-.2.2-.1,0-.2,0,0,0-.3.2-.3.2,0,0,0-.3,0-.4,0,0,0,0,0,0-.6.4-.4-.5-.8-.5-.4,0-.6-.2-.8-.5-.1-.1-.2-.4.3-1.4.2-.5.5-.9.7-1.2.2-.2.3-.3.4-.4.1,0,.3-.1.4-.1.3,0,.7-.4.7,0,0,.1.2-.1,0,.3,0,0,0,.1,0,0,.6-.5.6,0,.9.1.2,0,.7-.4.8,0,.4-.5.5-.3.5,0,0,.8.7.7,1,1,.4.3.8.5,1.2.7,0,0,.3-.2.2,0,0,.3.1.1.2.2,0,0,.2,0,.2.2,0,.8.5.6.8.8.3.2.6.5,1,.5.2,0,.6-.2.7,0,0,0,.3-.1,0,.4,0,.2.2-.2.3-.2.2,0,.3.1.4.2.2.1.3.3.6.3.1,0,.4-.1.5,0,.1,0,.3,0,.4.2.1.2.1.4.3.6.1.1.4,0,.4.3,0,.6.4.5.7.7.2.2.5.4.8.5.2,0,0,.5.2.6,0,0-.6,1.4-.9,1.8,0,0-.1.2-.1.2-.4.3-.9.9-1,.7-.2-.2-.5-.3-.7-.5Z" fill="#00b4e9"/>
    <path d="M170.3,145.9c-.1-.3-.2-.5-.4-.8,0,0,.1-.3-.4-.2-.3,0,.3-.3.2-.4-.2-.2-.2-.5-.4-.7-.2-.2-.5-.4-.6-.6-.2-.2,0-.6-.4-.7-.3,0,0-.5-.1-.6-.2-.2-.4-.3-.2-.6.1-.2.2-.4,0-.5,0,0-.4,0-.4-.1,0-.1.2-.3-.4-.2,0,0,0,0,.1-.1.3-.2.3-.4,0-.3-.3,0-.3,0-.3-.1-.1-.2-.2-.4-.2-.6,0-.2.2-.4.2-.6,0-.2-.3-.3-.1-.5.2-.3.2-.4.1-.5,0,0,.2-.3-.4-.1,0,0,0,0,0,0,.7-.5-.4-.4-.3-.7.1-.3-.1-.5-.2-.8,0,0,.1-.2-.3-.1-.2,0-.2,0-.1-.1.5-.4.1-.5.1-.7,0-.3-.3-.4,0-.8.2-.2.2-.3-.4-.3-.3,0,0-.2-.1-.2,0,0-.3,0-.4-.1,0,0,.2-.2.3-.3,0,0,0,0,0,0-.7-.1,0-.7-.2-1-.3-.3-.3-.6-.3-1,0-.2.1-.4,1.2-.9.5-.2,1-.3,1.4-.3.2,0,.5,0,.6,0,.1,0,.3.1.4.2.2.2.8.2.6.5,0,0,.2,0-.2.3,0,0,0,0,0,0,.8,0,.4.5.6.8.1.2.8.3.6.6.6,0,.6.1.4.3-.5.7,0,1,.2,1.5,0,.5.3,1,.4,1.5,0,0,.4,0,.2.2-.2.2,0,.2,0,.3,0,0,.2.2,0,.3-.5.6,0,.8,0,1.2,0,.4.2.8.5,1.1.2.2.6.3.6.6,0,.1.3,0-.2.4-.1,0,.3,0,.4,0,.1.1.1.3.2.5,0,.2.1.4.3.6,0,.1.4.1.5.3.1.1.2.2.2.4,0,.2-.1.5,0,.6,0,.2.4.3.2.6-.3.5,0,.7.1,1.1,0,.3.2.7.5.9.1.1-.2.5-.1.7,0,0-1.2.8-1.7,1,0,0-.2,0-.2,0-.5,0-1.2.2-1.3,0,0-.3-.3-.6-.4-.9Z" fill="#00b4e9"/>
    <path d="M194.3,126.9c0,.3-.2.5-.2.8,0,0-.3.1.2.4.2.1-.4,0-.4.1,0,.3-.1.5-.1.7,0,.2.2.5.2.8,0,.2-.3.4,0,.7.2.3-.3.3-.2.5,0,.2.1.4-.2.6-.2,0-.4.2-.4.3,0,.1.3.3.3.3,0,0-.3.1.3.3,0,0,0,0-.2,0-.4,0-.4.1-.2.3.2.1.2.2.2.3,0,.2,0,.4-.1.6,0,.1-.3.2-.4.4,0,.1.1.4-.2.4-.3,0-.3.2-.4.4,0,0-.3.1.3.3,0,0,0,0,0,0-.9,0,.2.5,0,.7-.3.2-.2.5-.2.7,0,0-.2,0,.2.2.2,0,.2.1,0,.1-.7,0-.3.3-.5.5-.2.2,0,.4-.4.6-.2,0-.4.1.2.4.3,0,0,.1,0,.2,0,0,.3.2.3.2,0,0-.2,0-.4,0,0,0,0,0,0,0,.6.4-.3.6-.2.9.1.3,0,.6-.1.9,0,.2-.3.3-1.4.2-.5,0-1.1-.1-1.4-.3-.2,0-.4-.2-.5-.3,0-.1-.2-.2-.3-.3-.2-.2-.6-.5-.3-.7,0,0-.2-.2.3-.1,0,0,.1,0,0,0-.7-.4-.2-.6-.2-.9,0-.2-.6-.6-.3-.8-.6-.2-.5-.4-.2-.5.7-.3.4-.9.6-1.4.2-.5.2-1,.3-1.4,0,0-.3-.2,0-.3.3,0,0-.2.1-.3,0,0,0-.2,0-.3.7-.2.4-.7.6-1.1.2-.4.3-.7.2-1.1,0-.2-.3-.6-.1-.8,0,0-.2-.3.4-.2.2,0-.2-.2-.3-.3,0-.2,0-.3,0-.5,0-.2.1-.4.1-.7,0-.1-.2-.3-.2-.5,0-.2,0-.3.1-.4.1-.2.4-.3.5-.4.1-.2-.1-.4.2-.5.6-.2.4-.6.6-.9.1-.3.3-.6.2-1,0-.2.5-.2.6-.4,0,0,1.5.2,2,.4,0,0,.2,0,.2,0,.4.3,1.1.6,1,.8-.1.3-.2.6-.2.9Z" fill="#00b4e9"/>
    <path d="M219.2,147.5c-.2.2-.4.3-.6.5,0,0-.3,0,0,.4.1.2-.3-.2-.4-.1-.1.2-.4.3-.5.5-.1.2-.2.5-.3.7-.1.2-.5.1-.5.5,0,.3-.4,0-.5.3,0,.2-.2.4-.5.3-.2,0-.5-.1-.5,0,0,.1.1.4,0,.4,0,0-.3-.1,0,.4,0,0,0,0-.1,0-.3-.3-.4-.2-.3.1.1.3,0,.3,0,.3-.1.2-.3.3-.4.4-.1,0-.4,0-.6,0-.2,0,0,.4-.4.2-.3-.1-.4,0-.5,0,0,0-.3-.1,0,.4,0,0,0,0,0,0-.7-.5-.2.5-.5.5-.3,0-.4.3-.6.4,0,0-.2,0,0,.3,0,.1,0,.2,0,.1-.5-.4-.4,0-.6,0-.2,0-.2.4-.7.2-.2-.1-.4-.1,0,.4.1.2-.1,0-.1.2,0,0,.1.3,0,.4,0,0-.2-.1-.3-.2,0,0,0,0,0,0,.2.7-.6.2-.7.5-.1.3-.4.5-.7.6-.2,0-.4,0-1.2-.8-.4-.4-.7-.8-.9-1.1-.1-.2-.2-.4-.2-.5,0-.1,0-.3,0-.4,0-.3-.2-.8.2-.7.1,0,0-.2.3.1,0,0,0,0,0,0-.3-.8.2-.6.4-.8.1-.2-.1-.8.3-.8-.3-.6-.1-.6,0-.5.8.2.8-.4,1.2-.6.4-.2.7-.6,1.1-.9,0,0-.1-.4.1-.2.2.1.2,0,.3-.2,0,0,0-.2.2-.2.7.3.7-.3,1-.4.3-.2.6-.4.8-.7.1-.2,0-.6.3-.7.1,0,0-.3.4,0,.1.1,0-.3,0-.3,0-.1.2-.2.3-.3.2-.1.3-.2.5-.4,0-.1,0-.4,0-.5,0-.1.2-.2.3-.3.2,0,.4,0,.6,0,.2,0,.1-.4.4-.3.6.2.6-.2.9-.4.3-.2.5-.3.7-.6,0-.2.5.1.7,0,0,0,1.1,1,1.4,1.4,0,0,.1.2.1.2.2.5.5,1.1.4,1.2-.3.1-.4.4-.7.5Z" fill="#00b4e9"/>
    <path d="M227.1,170.1c-.2.1-.5.2-.6.4,0,0-.3-.1-.1.4,0,.3-.3-.3-.4-.2-.2.2-.4.2-.6.4-.2.2-.3.5-.4.6-.2.2-.5,0-.6.4,0,.3-.4,0-.5.2-.1.2-.2.4-.5.2-.2,0-.4-.2-.5,0,0,0,0,.4,0,.4,0,0-.3-.2,0,.4,0,0,0,0-.1-.1-.3-.3-.4-.2-.3,0,0,.3,0,.3,0,.3-.2.1-.3.2-.5.3-.1,0-.4-.1-.5-.1-.2,0-.2.3-.4.1-.3-.2-.4-.1-.5,0,0,0-.3-.2,0,.4,0,0,0,0,0,0-.6-.7-.3.4-.6.3-.3,0-.4.1-.6.3,0,0-.2-.1,0,.3,0,.2,0,.2,0,.1-.4-.5-.4,0-.6,0-.2,0-.3.3-.7,0-.2-.2-.3-.2-.2.4,0,.3-.1,0-.2.1,0,0,0,.3,0,.4,0,0-.2-.2-.3-.2,0,0,0,0,0,0,0,.7-.6,0-.8.3-.2.3-.5.3-.8.4-.2,0-.4,0-.9-1.1-.2-.5-.5-1-.5-1.3,0-.2,0-.5,0-.5,0-.1,0-.3.1-.4,0-.3,0-.8.3-.6,0,0,0-.2.3.2,0,0,0,0,0,0,0-.8.4-.5.6-.6.2-.1.1-.8.4-.6-.1-.6,0-.6.2-.5.7.4.9-.2,1.3-.3.4-.1.8-.4,1.2-.5,0,0,0-.4.2-.2.2.2.2,0,.3,0,0,0,.1-.2.2,0,.6.4.7,0,1.1-.2.3,0,.7-.2.9-.5.1-.2.2-.6.4-.6.1,0,0-.3.4.1,0,.1,0-.3,0-.3.1-.1.2-.1.4-.2.2,0,.4-.1.5-.3,0,0,0-.4.2-.5,0-.1.2-.2.3-.2.2,0,.4,0,.6,0,.2,0,.2-.4.5-.2.5.3.6,0,.9-.2.3,0,.6-.2.8-.5.1-.1.5.2.6.1,0,0,.9,1.2,1.1,1.6,0,0,0,.2,0,.2,0,.5.3,1.2.1,1.2-.3,0-.5.3-.7.4Z" fill="#00b4e9"/>
    <g>
      <polygon points="331.8 379.4 320.7 480.7 329.6 480.7 331.1 466.8 369.4 466.8 367.9 480.7 375.7 480.7 386.7 379.4 331.8 379.4" fill="#00b4e9"/>
      <path d="M362.8,377.5c5.5,0,11.1,0,16.6,0,1,0,2.1,0,3.1,0h.8s1.1,0,1.1,0c.9,0,1.9-.1,3-.3.6,0,1.2,0,1.9,0-.1,1-.4,2.3-.6,3.5-.1.6-.2,1.2-.3,1.8v.6c-.1.2-.1.4-.2.5-.5,5.1-1.1,10.3-1.6,15.4-.4,5-.9,10-1.3,15-.5,5-1.3,10-1.5,14.8-.2,4.2-1.1,7.8-1.4,11.8-.3,4.2-.7,8.5-1.4,12.6-.5,3-1,5.9-1.3,8.9-.1,1.9,0,3.6-.2,5.7-.2,1.9-.7,4-.3,5.7,0,.1-.2,1-.3,1.4-.3,1-.5,2.1-.6,3.1,0,.3-.2,1.5-.2,2.4,0,.9-.1,1.8-.1,2.7-.1,0-.2,0-.3,0-.7,0-1.5.1-2.2.2-.7,0-1.4,0-2.2,0-.8,0-1.5,0-2.3,0h-6s.8-7.7.8-7.7c.2-1.6.4-3.2.6-4.8v-1c.1,0,.2-.1.2-.1,0,0,0,0,0,0h0s0,0,0,0c0,0,0,0,.1-.2,0,0,0,0-.2-.1h0s-.3,0-.3,0h-.7s-1.3,0-1.3,0c-3.3,0-6.9.2-9.9,0-3.1-.3-6-.3-9-.3-1.7,0-3.7-.3-5.1.3-.1,0-.8,0-1.1,0-1.3-.2-2.6-.3-3.9-.3h-1s-.5,0-.5,0c-.1,0-.1,0-.2,0-.2,0-.3,0-.4.1,0,.2,0,.3,0,.4h0c0,0,0,.1,0,.1h0s0,.1,0,.1v.8c-.1,1.1-.2,2.2-.4,3.4-.4,2.5-.5,3.9-1.1,9.1-4.1,0-8.3,0-12.4,0-.3,0-.6,0-.9,0,.1-1.1.3-2.3.4-3.4,0-.6,0-1.1,0-1.7v-.4c0,0,0-.2,0-.2,0-.1,0-.3,0-.4-.1-.5,0-1.9.2-2.6,1-3.7,1.1-7.8,1.6-11.6.6-4.4.8-8.9,1.8-13.3.4-1.9.8-4.4.5-6.8-.2-1.1.4-3.2.5-4.9,0-1.3,0-2.7.1-4,.1-1.1.5-2.2.7-3.4,0-.3.1-.8.1-1.1,0-6.6,1.6-12.9,2.2-19.5.5-6.6,1.3-13.2,2.1-19.8.4-3.6,1-7.4,2.4-9.7.6-1.1,1.2-1,1.3.6.1,1.2.2,2.5.1,3.8-.1,2.1-.2,4.2-.3,6.2-.3,4.2-.2,8.4-.9,12.8-.2,1.3-.1,3-.7,4,0,.1-.2.7-.2,1,.2,5.9-1,11.9-1.6,17.8-.5,5-.4,10-1.2,15,.3,2.9-.1,6.1-.6,8.9-.9,4.9-1.5,9.9-2,14.9l-.8,7.5-.4,3.7-.2,1.7v.3s0,.2,0,.2h.4s1.6,0,1.6,0h2.4c.5-4.6,1-9.2,1.5-13.8h8.8c1.7,0,3.2-.3,5.2,0,1.9.3,4.4,0,6.6,0s4.2-.1,6.1,0c2.3.2,4.5.3,6.8.3h3.4s5.4,0,5.4,0l-.7,7.2c-.2,1.7-.4,3.4-.6,5.1l-.2,1.5h.6s1.3,0,1.3,0h2.3c.2-1.5.3-3.1.5-4.6.2-2.1.4-4.1.6-6.2.4-4.8.6-9.6,1.3-14.4.3-2.1.2-4.3,1-6.2.2-.6,0-2.5.1-3.9.3-3.3.7-6.6,1.1-9.9.5-4.6,1-9.2,1.5-13.8.3-2.8.3-5.6.6-8.4.3-2.9.6-5.9,1-8.8.5-3.7,1.1-7.4,1.6-11.1.2-1.9.4-3.9.6-5.8,0-1,.2-1.9.3-2.9v-.7c0,0,.1-.1.1-.1v-.3c.1,0,.2-.2.2-.2-.1,0-.3,0-.5-.1h0s0,0-.1,0h-.6s-1.2,0-1.2,0c-1.6,0-3.3,0-4.9,0h-9.9c-6.8,0-13.7,0-20.5,0-3.9,0-7.4-.4-11.2-.4-1.8,0-4.1-1.5-3.4-2,.1,0,.4-.2.7-.2,3.7-.5,7.1-1.2,11.4-1.1,6.3,0,12.6,0,18.8,0Z" fill="#00b4e9"/>
    </g>
    <path d="M357.9,381.3c-5.5,0-11.1,0-16.6,0-1,0-2.1,0-3.1,0h-.8s-.4,0-.4,0c0,0,0,0-.1,0-.1,0-.2.1-.2.3,0,0,0,0-.1,0,0,0-.1,0-.2.2,0,0,0,.2,0,.3,0,0,0,.1,0,.2v.3c0,.2,0,.4,0,.5.6,5.1,1.1,10.3,1.7,15.4.7,5,1.3,9.9,2,14.9.6,4.9.9,10.1,1.7,14.8.7,4.1.6,7.9,1.2,11.8.6,4.2,1.1,8.5,1.3,12.6.2,3,.3,6,.7,9,.3,1.8.8,3.5,1,5.6.2,1.9.1,4,.9,5.6,0,.1,0,1,0,1.4,0,1,0,2.1,0,3.2,0,.7,0,.6.1.7,0,0,0,.1.2.1,0,0,0,0,0,0,.1,0,.2-.1.2-.2h0s0,0,0,0c0,0,0,0,.1,0,.8,0,1.5,0,2.3,0,0,0,0,0,0,0h0s-.2-1.9-.2-1.9c-.2-1.6-.3-3.2-.5-4.8-.2-2.3-.4-4.6-.6-6.9,2.7,0,5.4.1,8.1.2,3.3,0,6.9-.2,9.9,0,3.1.3,6,.3,9,.3,1.7,0,3.7.3,5.1-.3.1,0,.8,0,1.1,0,1.3.2,2.6.3,3.9.3h1s1.3,0,1.3,0h3.5c0-.1.4,2.8.4,2.8l.2,1.4v.8c.3,1.1.4,2.2.5,3.4.1,2.2.5,5.6.5,5.2h.4s1.8,0,1.8,0h1.7s.3,0,.3,0h0c0,0,0-.2,0-.3,0,0,0-.1-.1-.1h0s0-.2,0-.2c0-.1-.1-.3-.2-.4-.2-.4-.4-1.9-.3-2.6.2-3.9-.6-7.8-.9-11.7-.4-4.5-1.1-8.9-1.1-13.4,0-1.9-.2-4.5-1-6.7-.4-1-.3-3.2-.6-4.8-.2-1.3-.6-2.6-.8-3.9-.1-1.1,0-2.3,0-3.4,0-.3,0-.8-.1-1.1-1.4-6.4-1.2-13-2.1-19.5-.9-6.5-1.5-13.2-2.2-19.8-.3-3.6-.6-7.4.3-10,.4-1.2.9-1.2,1.4.3.4,1.1.7,2.4.9,3.7.3,2.1.7,4.1,1,6.1.7,4.2,1.6,8.3,1.8,12.7,0,1.4.5,2.9.1,4.1,0,.2,0,.7,0,1,1.4,5.7,1.6,11.8,2.3,17.7.6,5,1.8,9.8,2,14.9.9,2.7,1.2,6,1.3,8.8.2,5,.7,10,1.3,15l.9,7.5.4,3.7.6,5.5.2,1.6c-4.4,0-8.8,0-13.3,0-.5-4.6-1-9.2-1.5-13.8h-4.8c-1.7,0-3.2.3-5.2,0-1.9-.3-4.4,0-6.6,0s-4.2.1-6.1,0c-2.3-.2-4.5-.3-6.8-.3h-3.4s-1.4,0-1.4,0v.8c.1,0,.4,2.3.4,2.3.2,1.7.4,3.4.6,5.1l.6,5.6c-3.8,0-7.7,0-11.5,0-.3-2.6-.6-5.2-.9-7.8-.3-2.1-.5-4.1-.8-6.2-.6-4.8-1.5-9.5-1.9-14.4-.2-2.1-.7-4.2-.4-6.3.1-.6-.6-2.5-.7-3.8-.4-3.3-.7-6.6-1.1-9.9-.5-4.6-1-9.2-1.5-13.8-.3-2.8-.9-5.5-1.3-8.3-.4-2.9-.7-5.9-1-8.8-.3-3.7-.5-7.4-.9-11.1-.2-1.9-.4-3.9-.7-5.8-.1-1-.2-1.9-.3-2.9,0-.7-.1-1.4-.2-2,0-.8-.1-1.7-.2-2.5v-1.5c2.3,0,4.8.1,7.2.2,1.6,0,3.3,0,4.9,0h9.9c6.8,0,13.7,0,20.5,0,3.9,0,7.4.4,11.2.4,1.8,0,4.1,1.5,3.4,2-.1,0-.4.2-.7.2-3.7.5-7.1,1.2-11.4,1.1-6.3,0-12.6,0-18.8,0Z" fill="#00b4e9"/>
    <path d="M367.4,447.4c-.7,0-1.4,0-2.1.2-.3,0-.6-.2-.8.4-.1.3-.4-.3-.7-.3-.7.1-1.3,0-2,.2-.6,0-1.3.4-1.9.4-.6,0-1.3-.2-1.9.2-.5.3-1-.2-1.6,0-.5.1-1.1.2-1.7,0-.4-.2-.8-.4-1.2-.3-.3,0-.5.4-.8.3-.3,0-.6-.3-.9.3,0,0-.2,0-.2-.2-.3-.4-.7-.5-1-.3-.3.2-.6,0-.9,0-.4-.1-.8-.3-1.1-.5-.4-.2-.8-.5-.6-.4,0,0,0-.3,0-.4,0,0,0,.2-.2,0-.3-.2-.7,0-1,.2-.2.1-.6,0-.6.7,0,0-.1.1-.2,0-.6-.2-1,0-1.6.2-.1,0-.3,0-.5.1-.2,0-.3,0-.6,0-.3,0-.6,0-1-.3-.2,0-.4-.3-.5-.4,0,0,0,0,0,0,.1-.3,0-.3,0-.3,0,0,0,0,0,0,0,0,0,0-.2.5-.1.3-.1.3,0,0,.1-.3.2-.5.3-.6,0,0,0,0,0,0,0,0-.2.2-.2.2,0,0-.1,0-.2.1,0,0-.1,0-.2-.2,0-.2-.2-.2-.2.5,0,.3,0,0-.1.2,0,0,0,.4,0,.4,0,0-.1-.2-.2-.2,0,0,0,0,0,0,.1.1,0,.4-.2.5-.2.2-.4.3-.7.4-.5.2-1.1.4-1.8.7-.7.3-1.6.4-2.3.2-.8-.2-1.5-.7-2-1.3-.6-.7-.8-1.8.5-2.6.3-.2.6-.3.8-.4.2,0,.3,0,.3,0,0,0,.2,0,.3.2,0,.1.2.2.3.2.1,0,.3,0,.4,0,.1,0,.2-.1.3,0,0,0,0-.2.2.3,0,0,0,0,0,0,0-.4.2-.5.4-.7.2-.1.6-.2.8-.4.5-.5,1.3-1.9,2.2-2.3.4-1.1,1.1-1.5,1.6-1.7.9-.3,1.7-.8,2.5-1.5l1.3-1.1c.3-.2.7-.5,1-.6h0c0,0-.4,2.5-.4,2.5l-.3,2.4v.8c-.1,0,0,.1-.1.2l-.7.7-1.3,1.3h0s0,0,0,0h0s0,0,0,0c0,0,0,0,0-.1,0-.1.1-.3.2-.5v-.2s0-.6,0-.6h0c0,0,0-.3,0-.3,0,0,0,0,0,0,0,0,0,0,.1,0,.1,0,0-.4.3-.2.3.1.4-.2.7-.3.1,0,.3-.2.4-.3.1,0,.4-.2.6-.2,1,0,1.8,0,2.6.1.8.1,1.8.8,1.9.9.5.4,1.3.6,2.2.5.5,0,1.1-.4,1.7-.3.3,0,.5-.3.8.3,0,.2.3-.3.5-.3.4,0,.8,0,1.3,0,.6,0,1.2,0,1.8,0,.4,0,.7-.3,1.1-.4.4,0,.7,0,1.1,0,.5,0,1,.2,1.4.3.5,0,1-.3,1.5,0,.9.5,1.8.1,2.7.1.9,0,1.8,0,2.6-.2.5-.1,1,.4,1.5.3.2,0,.6,1.4.6,1.9,0,0,0,.2,0,.2-.4.5-.8,1.3-1.4,1.3-.8,0-1.6.1-2.4.2Z" fill="#fff"/>
    <path d="M364.6,457.2c-.5,0-1,0-1.6,0-.2,0-.4-.2-.6.3,0,.3-.3-.4-.5-.3-.5,0-1,0-1.5,0-.5,0-.9.3-1.4.4-.5,0-1-.2-1.4.1-.4.3-.7-.2-1.1,0-.4.1-.8.2-1.2,0-.3-.2-.6-.4-.8-.3-.2,0-.3.4-.5.4-.2,0-.4-.3-.5.3,0,0,0,0-.1-.1-.2-.4-.4-.4-.6-.1-.2.3-.3.2-.4.2-.4,0-.8,0-1.2,0-.3,0-.6-.3-.9-.4-.3,0-.6.2-.9,0-.3-.3-.6-.3-.8-.3-.2,0-.3-.3-.5.3,0,0,0,0-.1,0-.4-.8-.9.2-1.4,0-.5-.2-1,0-1.5,0-.1,0-.3-.2-.4.3,0,.2-.2.2-.2,0-.3-.6-.7-.3-1.1-.4-.4-.1-.8.1-1.2-.4-.2-.2-.4-.3-.6.2-.1.3-.3,0-.5,0-.1,0-.3.3-.4.3-.1,0-.2-.2-.3-.4,0,0,0,0-.1,0-.6.6-1.2-.3-1.8-.1-.6.2-1.3,0-1.9,0-.3,0-.7-.3-.9-1.4,0-.5,0-1.1.1-1.4.1-.2.3-.5.4-.5.2,0,.4-.2.6-.3.4-.2.8-.7,1.2-.4.1,0,.3-.2.4.3,0,0,0,.1,0,0,.6-.8,1.1-.2,1.7-.3.5,0,.9-.6,1.4-.4.3-.6.6-.5.8-.3.9.7,1.8.3,2.8.4.9.1,1.9,0,2.8.1.2,0,.3-.3.5,0,.2.3.4,0,.6,0,.2,0,.4-.1.6,0,.7.7,1.5.3,2.2.4.7,0,1.5.1,2.2,0,.4,0,.9-.4,1.3-.3.2,0,.4-.3.6.3,0,.2.2-.3.4-.3.3,0,.6,0,.9,0,.4,0,.9,0,1.3,0,.3,0,.5-.3.8-.4.3,0,.5,0,.8,0,.3,0,.7.3,1,.3.4,0,.7-.2,1.1,0,.6.5,1.3.2,1.9.3.3,0,.6,0,1,0,.2,0,.3,0,.5,0h.2s0,0,0,0c0,0,0,0,0,0,0,0,0,0,0,0v.2c.2.4.4.7.5.8,0,0,0,0,0,0,.3.1.9,0,1.1.2,0,0,.2.1.2.2.1.4,0,1.1-.2,1.5-.3.4-.6.7-1,.8-.3,0-.5,0-.7,0h-.5s-.9,0-.9,0Z" fill="#fff"/>
    <path d="M359.3,396.8c1.1,1.5,2.1,2.9,3.3,4.3.4.5.6,1.2,1.5,1.5.4.1.3,1,.7,1.5,1,1.4,1.9,2.8,2.9,4.3.9,1.4,2,2.7,2.8,4.2.8,1.5,1.3,3.2,2.2,4.6.4.6.6,1.4.7,2.1.1.8.2,1.6.2,2.5,0,.9-.2,2.4-1.1,3.4-.4.5-.9.9-1.5,1.2-.3.1-.6.2-.9.3-.3,0-.5,0-.7.1-.7,0-1.1,0-1.6,0-.5,0-1,0-1.5.1-.6.1-1.2.5-1.8.5-.6,0-1.4-.2-1.9.5,0,0-.3,0-.5-.1-.7-.4-1.5-.3-2.1,0-.5.3-1,.3-1.5.3-1.4,0-2.8.2-4.2.1-1.1,0-2.1-.3-3.1-.3-1.1,0-2.3.2-3.3-.1-1-.3-2-.3-2.9-.4-.6,0-1.2-.3-1.7.3,0,0-.3,0-.3,0-1.6-.9-3.2.2-4.8-.1-.1,0-.6,0-1-.1-.4,0-.7-.1-1.1-.2-.7-.2-1.3-.6-1.9-1.1-1-1-1.4-2.6-1.1-4.1,0-.2,0-.4.2-.6l.2-.5c0-.3,0-.5,0-.8-.1-.2,0-.7.2-.9,1-1,1.2-2.4,1.8-3.5.7-1.3,1.1-2.8,2.2-3.9.5-.5,1-1.2.8-2.1,0-.4.5-.9.7-1.4.2-.4.1-.9.3-1.3.2-.3.6-.5.8-.8,0,0,.1-.2.2-.3.4-2.2,2.2-3.6,3.1-5.6.9-2,2-3.9,3.1-5.7.6-1,1.4-2,2.8-2.2.6,0,1.1.2,1.2.8,0,.4,0,.9-.1,1.3-.2.6-.5,1.3-.7,1.9-.5,1.3-.7,2.8-1.6,3.9-.3.3-.3.9-.9,1,0,0-.2.2-.2.2-.2,2-1.6,3.5-2.5,5.3-.7,1.5-.9,3.2-2,4.5.1,1.1-.4,2-1,2.7-1,1.3-1.7,2.7-2.4,4.1-.3.7-.6,1.5-.8,2.2l-.7,2.1c0,.1-.1.3,0,.4,0,.1.3.2.4.2l4.7.2c.6,0,1.1-.3,1.7,0,.6.3,1.4,0,2.1.1.7,0,1.3-.1,2,0,2.6.7,5.2.3,7.7.3,2.6,0,5.1,0,7.6-.4,1.5-.2,3.1-.8,4.5-.8.2,0,.5-.1.5-.2,0,0,.1,0,.4.2.2,0,0-.4,0-.4,0,0,0-.4,0-.7,0-.3,0-.7-.2-1.2,0-.3-.2-.6-.3-.9l-.4-1c-.3-.7-.6-1.3-.9-2-.4-.8-1-1.4-1.5-2.2-.5-.8-.9-1.6-1.4-2.4-.5-1-1-2.1-1.6-3.2-.6-1.1-1.6-2-2.1-3.1-.9-2.1-2.4-3.7-3.7-5.6-1.3-1.8-2.6-3.6-4.1-5-.5-.4-.7-.8-.9-1,0,0,0,0,0-.1,0,0,0,0,0,0h0c0,0,0-.5,0-.5h0s0,0,0,0h0s0,0,0,0h0c0,.2.1.4,0,.4,0,0-.2-.2-.7-.2-.4,0-.9.3-1.2.2-.1,0-.2-.2-.2-.4,0-.5.1-1.1.4-1.5.3-.5.8-.9,1.5-1,1.4-.2,2.4.5,3,1,1.5,1.6,2.9,3.2,4.2,4.9Z" fill="#fff"/>
    <path d="M349.5,413c0-.2,0-.4,0-.6,0,0,.2-.2-.3-.2-.3,0,.4-.1.3-.2,0-.2,0-.4,0-.6,0-.2-.3-.4-.3-.6,0-.2.2-.4,0-.6-.3-.2.2-.3.1-.4-.1-.2-.2-.3,0-.5.2-.1.4-.2.3-.3,0,0-.4-.1-.4-.2,0,0,.3-.1-.3-.2,0,0,0,0,.1,0,.4,0,.4-.2.1-.2-.3,0-.2-.1-.2-.2,0-.2,0-.3,0-.5,0-.1.3-.2.3-.4,0-.1-.2-.3,0-.4.3-.1.3-.2.3-.3,0,0,.3-.1-.3-.2,0,0,0,0,0,0,.8-.2-.3-.4,0-.6.2-.2,0-.4,0-.6,0,0,.2-.1-.3-.2-.2,0-.2,0,0,0,.6-.1.2-.3.4-.4.1-.2-.2-.3.3-.5.2,0,.3-.2-.3-.3-.3,0,0-.1,0-.2,0,0-.3-.1-.3-.2,0,0,.2,0,.3-.1,0,0,0,0,0,0-.7-.3.2-.5,0-.7-.2-.3-.1-.5,0-.8,0-.1.2-.3,1.4-.3.5,0,1.1,0,1.4,0,.2,0,.5.1.5.2.1,0,.2.2.3.2.2.2.7.3.4.5,0,0,.2.1-.3.1,0,0-.1,0,0,0,.8.2.3.5.3.7,0,.2.7.4.4.6.6.1.5.2.3.3-.7.4-.2.7-.3,1.1,0,.4,0,.8,0,1.1,0,0,.4.1,0,.2-.3,0,0,.2,0,.2,0,0,.1.2,0,.2-.7.3-.3.6-.3.9,0,.3-.1.6,0,.9,0,.2.4.4.3.5,0,0,.3.2-.3.2-.2,0,.3,0,.3.1,0,.1,0,.2,0,.4,0,.2,0,.3,0,.5,0,.1.3.2.3.3,0,.1,0,.2,0,.3,0,.1-.3.3-.4.4,0,.1.2.3,0,.4-.5.3-.3.5-.3.8,0,.3-.1.5,0,.8,0,.1-.4.3-.4.4,0,0-1.5.2-2,.1,0,0-.2,0-.2,0-.5-.1-1.2-.3-1.1-.4,0-.2,0-.5,0-.7Z" fill="#fff"/>
    <path d="M354.6,420.3c0,0-.2,0-.3,0,0,0-.1-.2,0,.3,0,.3-.2-.3-.2-.3,0,0-.2,0-.2.1,0,0,0,.3-.2.4,0,0-.2-.2-.2.1,0,.3-.2-.2-.2,0,0,.1,0,.2-.2,0,0-.2-.2-.4-.2-.2,0,0,0,.4,0,.4,0,0-.1-.3,0,.3,0,0,0,0,0-.1-.1-.4-.2-.4-.1,0,0,.3,0,.2,0,.3,0,0-.1,0-.2,0,0,0-.2-.3-.2-.3,0,0,0,.2-.2,0-.1-.3-.2-.3-.2-.3,0,0-.1-.3,0,.4,0,0,0,0,0,0-.2-.8-.1.3-.2,0-.1-.2-.2,0-.3,0,0,0,0-.2,0,.3,0,.2,0,.2,0,0-.2-.6-.2-.2-.3-.3,0-.1-.1.2-.3-.3,0-.2-.1-.3,0,.3,0,.3,0,0,0,0,0,0,0,.3,0,.3,0,0,0-.2-.1-.3,0,0,0,0,0,0,0,.7-.3-.2-.3,0,0,.2-.2.1-.3,0,0,0-.2-.2-.3-1.4,0-.5-.1-1.1-.2-1.4,0-.2,0-.5,0-.5,0-.1,0-.2,0-.3,0-.2,0-.7.1-.5,0,0,0-.2,0,.3,0,0,0,.1,0,0,0-.8.1-.3.2-.4,0,0,0-.7.2-.4,0-.6,0-.5,0-.3.2.6.3.2.5.2.2,0,.3,0,.4,0,0,0,0-.4,0,0,0,.3,0,0,.1,0,0,0,0-.1,0,0,.2.6.3.2.4.3.1,0,.3,0,.3-.1,0-.1,0-.5.1-.4,0,0,0-.3.2.3,0,.2,0-.3,0-.3,0,0,0,0,.1,0,0,0,.1,0,.2,0,0,0,0-.3,0-.4,0,0,0,0,.1,0,0,0,.2.2.2.3,0,0,0-.2.2,0,.2.5.3.2.4.2.1,0,.2,0,.3-.1,0,0,.2.4.3.4,0,0,0,0,0,.2,0,.1.1.3.2.5.1.4.3.9.4,1.1,0,0,0,.2,0,.2,0,.5.2,1.2.2,1.1-.1,0-.2,0-.3,0Z" fill="#fff"/>
  </g>
  <g>
    <g>
      <g>
        <path d="M384,215.6c1.2,1.3,2.5,2.6,3.8,3.9.5.5.8,1.1,1.6,1.3.4,0,.4,1,.9,1.4,1.2,1.2,2.3,2.4,3.5,3.6.6.6,1.3,1.2,1.9,1.9.6.7,1.2,1.6,1.6,2.6.7,2,.4,3.9.7,5.5.3,1.4-.3,2.6-.3,4,0,1.4,0,2.9-.5,4.2-.3,1-.7,1.9-.8,2.9,0,.6.1,1.3,0,1.9-.2.6-.6,1.2-.1,1.9,0,0-.1.3-.3.4-.6.6-.8,1.4-.7,2,.1.6,0,1.1-.2,1.6-.4,1.4-.8,2.7-1.6,4.2-.5,1.1-1.4,2-2.2,3-.9,1-1.9,2.2-3.2,2.5-1.2.3-2.3.6-3.4.9-.6.1-1.4,0-1.8.6,0,0-.3,0-.4,0-1.8-.7-3.4.3-5,0-1.7-.3-3.4-.3-5.1-.4-.5,0-.9-.3-1.4.1-.2.1-.6.1-.9,0-1.2-.8-2.5-.6-3.8-.8-1.4-.3-2.9-.3-4.3-1-.6-.3-1.4-.6-2.2-.1-.4.2-1-.2-1.6-.2-.4,0-.9.2-1.3,0-.4,0-.7-.4-1-.6-.1,0-.2,0-.4,0-2.2.2-4.1-1.1-6.2-1.4-2.1-.3-4.2-.9-6.3-1.5-1.1-.3-2.3-.8-2.8-2.1-.2-.6,0-1.1.5-1.3.4-.1.9-.3,1.3-.2.7,0,1.4.1,2,.2,1.4.1,2.8,0,4.1.5.4.2,1,0,1.2.6,0,0,.2.2.3.1,2-.3,3.8.6,5.7.9,1.6.3,3.3,0,4.8.5,1-.5,2-.2,2.9.2,3,1.2,6.3,1.2,9.4,1.6,1.6.2,3.2.3,4.8.4,1.6,0,3.2.1,4.7,0,.5,0,.9-.4,1.5-.2.6.2,1.2-.2,1.7-.3.5-.2.9-.5,1.3-.6,1-.2,1.7-.9,2.3-1.8.6-.9,1-2,1.4-3.2.9-2.3,1.7-4.7,2-7.2.2-1.5.2-3,.5-4.5.2-.6,0-1.4.6-1.9.2-.2-.2-.8-.2-1.2,0-1,.1-2.1.2-3.1,0-1.4.2-2.9,0-4.1-.1-.7-.5-1.3-.8-1.8-.3-.5-.7-1.1-1.2-1.7-.6-.8-1.4-1.9-2.2-2.8-.8-.9-1.9-1.7-2.6-2.7-1.2-2-2.9-3.4-4.4-5-1.5-1.6-3-3.3-4.6-4.8-.9-.9-1.4-2-2.2-2.9-.4-.4.1-2,.7-2.2.1,0,.2,0,.3,0,1.2.5,2.5.8,3.4,1.8,1.4,1.5,2.8,2.9,4.2,4.4Z"/>
        <path d="M368.2,223.2c.1-.2.3-.5.4-.7,0-.1.3,0-.1-.4-.2-.2.4,0,.4,0,0-.3.3-.4.3-.7,0-.3,0-.6,0-.8,0-.2.4-.3.3-.7-.2-.3.4-.2.4-.5,0-.2,0-.5.3-.6.2,0,.5,0,.4-.3,0-.1-.3-.3-.2-.4,0,0,.4,0-.2-.4,0,0,0,0,.2,0,.4,0,.4,0,.2-.2-.2-.2-.1-.2-.1-.3,0-.2.1-.4.3-.6.1-.1.4-.2.5-.3.1-.1,0-.4.3-.4.3,0,.4-.2.4-.3,0,0,.3,0-.2-.4,0,0,0,0,0,0,.9.1,0-.5.2-.7.3-.2.3-.4.3-.7,0,0,.2,0-.2-.3-.1,0-.1-.2,0-.1.7,0,.4-.3.5-.4.2-.2,0-.5.5-.5.2,0,.4,0-.1-.4-.2-.1,0-.1,0-.2,0,0-.3-.2-.2-.3,0,0,.3,0,.4,0,0,0,0,0,0,0-.5-.5.4-.5.4-.9,0-.4.1-.7.3-.9.1-.2.3-.3,1.5,0,.5.1,1,.3,1.3.5.2.1.4.3.4.3,0,.1.1.3.2.4.1.3.5.7.2.8-.1,0,.2.2-.3.1,0,0-.1,0,0,0,.6.6,0,.7,0,1,0,.3.5.7.1.9.5.4.4.5.1.6-.8.3-.6.9-.9,1.4-.3.5-.4,1-.7,1.5,0,0,.3.3,0,.3-.3,0-.1.2-.2.3,0,0,0,.3-.2.3-.8.1-.6.7-.8,1-.2.3-.5.7-.5,1.1,0,.3.2.7,0,.8,0,0,.2.3-.4.2-.2,0,.2.2.2.3,0,.2-.1.3-.2.5-.1.2-.3.4-.3.7,0,.1.1.4,0,.6,0,.2,0,.3-.2.4-.2.1-.4.2-.6.4-.2.1,0,.5-.3.5-.6,0-.6.5-.8.8-.2.3-.4.6-.5.9,0,.2-.6.1-.7.3,0,0-1.4-.6-1.8-.9,0,0-.2-.1-.2-.2-.3-.4-.8-.9-.7-1.1.2-.2.3-.5.5-.8Z"/>
      </g>
      <path d="M353.3,232.7c.3-.3.5-.7.7-1.1,0-.1.4-.2,0-.6-.2-.2.4,0,.5-.2.1-.4.4-.7.5-1.1.1-.4,0-.8,0-1.2,0-.4.4-.7.2-1.1-.2-.4.3-.5.3-.9,0-.3-.1-.7.2-1,.2-.2.4-.4.3-.7,0-.2-.4-.3-.4-.4,0-.3.3-.6-.4-1,0,0,0-.2.1-.2.4-.3.3-.7,0-1.1-.3-.4-.4-.7-.4-1-.2-.8-.4-1.8-.5-2.6,0-.6.1-.8,0-1.3h0c.4.1.8,0,1.5.6.8.6,1.1.7,1.6.8.3,0,.7.5.6-.2,0,0,0,0,.2,0,.6.6.9.7,1.2.6.3,0,.7-.2,1.1,0,.4.2.8.4,1.1.5.5.1.6.1.9.2.1,0,.2.2.4-.2,0-.1.2-.1.2,0,.1.7.6.5.9.7.3.2.8,0,1.1.7,0,.2.3.4.7,0,.2-.2.3,0,.4,0,.1,0,.3-.2.4-.2,0,0,.1.3.2.4,0,0,0,0,0,0,.8-.4,1,.6,1.7.6.6,0,1.2.3,1.7.6.3.2.6.5.3,1.6,0,.5-.3,1-.6,1.3-.2.2-.4.4-.5.4-.2,0-.4,0-.6.1-.4,0-.9.4-1.2,0,0-.1-.3.1-.2-.4,0,0,0-.1,0,0-.7.6-1.1,0-1.6-.2-.4,0-1,.4-1.4,0-.4.5-.7.3-.9,0-.6-.9-1.6-.8-2.4-1.1h-.3c0-.1-.2-.2-.2-.2,0,0-.1,0-.2,0,0,0-.2,0-.2,0,0,0,.1.4,0,0-.2-.3-.1,0-.1-.1,0,0,0,.2-.1,0-.3-.3-.5-.5-.5-.5,0,0,.1.4.1.5,0,.2,0,.4,0,.7.1.4.4,1,.2,1.4,0,.2.2.5-.4.6-.2,0,.2.3.2.4,0,.3-.1.7-.2,1,0,.5-.3.9-.3,1.4,0,.3,0,.6,0,.9,0,.3-.1.6-.3.9-.2.3-.5.6-.8.9-.2.3-.2.8-.6,1-.8.4-.9,1.1-1.4,1.6-.5.5-.9,1-1.3,1.6-.2.3-.8.2-1.1.5-.1.1-1.3-.8-1.6-1.2,0,0-.1-.2-.1-.2,0-.6-.4-1.3-.1-1.5.4-.3.7-.7,1-1.1Z"/>
      <path d="M342,223.1c.2,0,.4,0,.6-.1,0,0,.2.2.2-.3,0-.3.2.3.2.3.2-.1.4,0,.5-.1.2,0,.3-.3.5-.4.2,0,.4.2.5-.2.1-.3.3.2.4,0,.1-.1.3-.3.5,0,.1.2.3.3.4.2,0,0,0-.4.1-.4,0,0,.2.3.1-.4,0,0,0,0,0,.1.1.4.2.3.2,0,0-.3,0-.3.1-.3.1,0,.3-.1.5,0,.1,0,.3.2.4.3.1,0,.2-.3.4,0,.2.3.3.2.4.2,0,0,.2.3.1-.4,0,0,0,0,0,0,.3.8.3-.3.5-.1.2.2.4,0,.6,0,0,0,.1.2,0-.3,0-.2,0-.2,0,0,.3.6.3.2.5.3.2,0,.3-.2.5.2.1.2.2.3.2-.3,0-.3.1,0,.2,0,0,0,0-.3,0-.3,0,0,.1.2.2.3,0,0,0,0,0,0,.1-.7.5.1.7,0,0-.1.1-.1.2-.1,0,0,0,0,0,0,0,0,.1.2.8,1.1.3.4.6.9.7,1.2,0,.2.1.5.1.6,0,.1,0,.3-.1.5-.1.3-.3.9-.6.7,0,0-.1.2-.3-.2,0,0,0,0,0,0,0,.8-.4.3-.6.4-.2,0-.2.7-.5.5,0,.6-.1.5-.3.4-.5-.6-.8,0-1.1-.1-.4,0-.7.1-1.1.2,0,0,0,.4-.2.1-.1-.2-.2,0-.2,0,0,0-.1.2-.2,0-.4-.6-.6-.2-.9-.2-.3,0-.6,0-.9.2-.2.1-.3.5-.5.4,0,0-.1.3-.3-.3,0-.2,0,.3,0,.3-.1,0-.2,0-.4,0-.2,0-.3,0-.5.1,0,0-.2.3-.2.4,0,0-.2,0-.3,0-.1,0-.3-.2-.5-.3-.2,0-.3.3-.4,0-.3-.5-.5-.2-.8-.2-.3,0-.5,0-.7.1-.1,0-.3-.4-.5-.4,0,0-.4-1.4-.4-1.9,0,0,0-.2,0-.2,0-.5,0-1.2.2-1.2.2,0,.5,0,.7,0Z"/>
      <path d="M379.4,239.2c-.1,0-.3,0-.4.1,0,0-.2-.2-.1.3,0,.3-.1-.3-.2-.3-.1,0-.3,0-.4.1-.1,0-.2.3-.3.4-.1,0-.3-.2-.4.1,0,.3-.2-.2-.3,0,0,.1-.2.2-.3,0,0-.2-.2-.4-.3-.3,0,0,0,.4-.1.4,0,0-.1-.3-.1.3,0,0,0,0,0-.1,0-.4-.1-.4-.2,0,0,.3,0,.2-.1.3-.1,0-.2,0-.3,0,0,0-.2-.3-.3-.3,0,0-.2.2-.3,0,0-.3-.2-.3-.2-.3,0,0,0-.3-.1.3,0,0,0,0,0,0-.1-.8-.3.3-.4,0-.1-.2-.3,0-.4,0,0,0,0-.2-.1.3,0,.2,0,.2,0,0,0-.6-.2-.3-.3-.4-.1-.1-.3.2-.3-.3,0-.2,0-.3-.2.3,0,.3,0,0-.1,0,0,0,0,.3-.1.3,0,0,0-.2,0-.3,0,0,0,0,0,0-.2.6-.3-.3-.5,0-.2.2-.4,0-.5,0,0,0-.2-.3,0-1.4,0-.5.1-1.1.2-1.4,0-.2.1-.5.2-.5,0,0,.1-.2.2-.3.1-.2.3-.7.3-.4,0,0,0-.2,0,.3,0,0,0,.1,0,0,.2-.8.3-.2.4-.3.1,0,.3-.7.4-.4.1-.6.2-.5.2-.3.2.7.4.2.6.3.2.1.4,0,.7,0,0,0,0-.4.1,0,0,.3,0,0,.1,0,0,0,0-.1.1,0,.2.7.4.3.5.3.2,0,.4.1.5,0,0-.1.2-.5.3-.3,0,0,0-.3.2.3,0,.2,0-.3,0-.3,0,0,.1,0,.2,0,0,0,.2,0,.3,0,0,0,0-.3.1-.4,0,0,.1,0,.2,0,0,0,.2.3.3.3,0,0,.1-.2.3,0,.2.5.3.2.5.2.2,0,.3,0,.4-.1,0,0,.3.4.3.4,0,0,.1.3.2.8.1.4.2.9.3,1.1,0,0,0,.2,0,.2,0,.5,0,1.2,0,1.2-.2,0-.3,0-.5,0Z"/>
      <path d="M379.8,231.1c-.1,0-.3,0-.4.1,0,0-.2-.2-.1.3,0,.3-.1-.3-.2-.3-.1,0-.3,0-.4.1-.1,0-.2.3-.3.4-.1,0-.3-.2-.4.1,0,.3-.2-.2-.3,0,0,.1-.2.2-.3,0,0-.2-.2-.4-.3-.3,0,0,0,.4-.1.4,0,0-.1-.3-.1.3,0,0,0,0,0-.1,0-.4-.1-.4-.2,0,0,.3,0,.2-.1.3-.1,0-.2,0-.3,0,0,0-.2-.3-.3-.3,0,0-.2.2-.3,0,0-.3-.2-.3-.2-.3,0,0,0-.3-.1.3,0,0,0,0,0,0-.1-.8-.3.3-.4,0-.1-.2-.3,0-.4,0,0,0,0-.2-.1.3,0,.2,0,.2,0,0,0-.6-.2-.3-.3-.4-.1-.1-.3.2-.3-.3,0-.2,0-.3-.2.3,0,.3,0,0-.1,0,0,0,0,.3-.1.3,0,0,0-.2,0-.3,0,0,0,0,0,0-.2.6-.3-.3-.5,0-.2.2-.4,0-.5,0,0,0-.2-.3,0-1.4,0-.5.1-1.1.2-1.4,0-.2.1-.5.2-.5,0,0,.1-.2.2-.3.1-.2.3-.7.3-.4,0,0,0-.2,0,.3,0,0,0,.1,0,0,.2-.8.3-.2.4-.3.1,0,.3-.7.4-.4.1-.6.2-.5.2-.3.2.7.4.2.6.3.2.1.4,0,.7,0,0,0,0-.4.1,0,0,.3,0,0,.1,0,0,0,0-.1.1,0,.2.7.4.3.5.3.2,0,.4.1.5,0,0-.1.2-.5.3-.3,0,0,0-.3.2.3,0,.2,0-.3,0-.3,0,0,.1,0,.2,0,0,0,.2,0,.3,0,0,0,0-.3.1-.4,0,0,.1,0,.2,0,0,0,.2.3.3.3,0,0,.1-.2.3,0,.2.5.3.2.5.2.2,0,.3,0,.4-.1,0,0,.3.4.3.4,0,0,.1.3.2.8.1.4.2.9.3,1.1,0,0,0,.2,0,.2,0,.5,0,1.2,0,1.2-.2,0-.3,0-.5,0Z"/>
    </g>
    <path d="M368.7,246c.5.4,1,.8,1.5,1.1.2.1.2.5.8.3.3-.1,0,.5.2.7.5.4.9.9,1.3,1.4.4.5,1,.9,1.4,1.5.4.6.4,1.3.9,1.9.4.5,0,1.2.2,1.7.2.6.3,1.3,0,1.9-.2.4-.5.8-.5,1.2,0,.3.2.6.1.8-.1.2-.5.4,0,.8,0,0-.1,0-.2.1-.5,0-.6.4-.4.7.1.3,0,.5,0,.7-.2.5-.5,1-.9,1.4-.3.4-.9.6-1.3.9-.5.3-1,.9-1.6.9-.6,0-1.1,0-1.6,0-.3,0-.6-.3-.8.4,0,0-.1,0-.2,0-.3-.4-.7-.4-1-.3-.4,0-.7.2-1,0-.6-.4-1.2-.5-1.8-.7-.2,0-.2-.3-.6,0-.1.1-.3,0-.3,0-.2-.8-.8-.7-1.1-1-.4-.4-1-.5-1.2-1.2,0-.3-.2-.6-.8-.3-.3.1-.3-.3-.5-.3-.2,0-.5,0-.6,0-.1,0,0-.4,0-.5,0,0,0,0,0,0-1.1-.1-.9-1.3-1.6-1.9-.6-.6-1-1.3-1.3-2.1-.2-.4-.2-1,.7-1.7.4-.3.9-.5,1.3-.5.3,0,.5,0,.6.1.2.2.4.3.6.4.4.3,1,.3,1,.8,0,.2.3.1,0,.5,0,0,0,.1,0,.1,1,0,.9.7,1.4,1.1.4.3,1.1.2,1.3.7.6-.3.8,0,.8.2.3,1.1,1.4,1.2,2.2,1.6.8.5,1.8.7,2.5.8.1,0,.2-.3.3,0,.1.3.2,0,.3,0,0,0,0-.2.2,0,.2.3.5.2.6,0,.2-.2.3-.5.5-.8.5-.6.9-1.2.9-1.9,0-.4-.2-.9,0-1.2,0-.2-.2-.3.3-.4.2,0-.3-.2-.3-.3,0-.2,0-.5-.1-.7,0-.3-.1-.7-.3-1-.1-.2-.4-.3-.6-.4-.2-.2-.3-.4-.4-.6-.1-.3-.1-.7-.3-.9-.2-.3-.6-.4-.7-.8-.1-.8-.9-1.1-1.4-1.5-.5-.4-1.2-1-1.6-1-.1,0-.1-.1-.1-.2,0,0,0-.2,0-.3,0-.1,0-.2,0-.3,0,0,0,0,0,0h0s0,0,0,0c0,0,0-.2-.2-.3-.2-.4-.6-.7-.7-1,0,0,0-.2,0-.3.2-.4.5-.8,1-1,.4-.2.9-.3,1.3-.1.5.2.9.5,1.3.7l.9.6Z"/>
    <path d="M393.2,231.9c-.3.6-.7,1.2-.9,1.9-.1.2-.5.4-.1.8.2.2-.5.2-.6.4-.2.6-.6,1.1-.9,1.7-.3.6-.3,1.3-.6,1.8-.3.6-.8,1-.9,1.7,0,.6-.7.8-.8,1.2-.2.5-.4,1-.8,1.4-.3.2-.7.4-.8.8,0,.2,0,.6,0,.8-.1.2-.5.3,0,.8,0,0-.1,0-.2,0-.5,0-.6.3-.5.6.1.3,0,.5-.1.6-.3.5-.5.9-.9,1.4-.3.3-.7.5-1,.8-.3.3-.3.8-.8,1-.5.1-.7.5-.9.8-.1.2-.5.2,0,.7,0,0,0,.1,0,.1-1,0-.5,1.1-1,1.5-.5.4-.8,1-1.2,1.6,0,.1-.4.2,0,.6,0,.1,0,.3-.1.3-.8,0-.8.7-1.2,1-.4.4-.6,1-1.3,1.2-.3,0-.6.3-.3.8.1.3-.3.3-.3.5,0,.2,0,.5,0,.6,0,.1-.4,0-.5.1,0,0,0,0,0,.1,0,1.1-1.2,1.1-1.6,1.9-.4.8-1,1.4-1.6,1.9-.3.3-.8.6-1.9,0-.5-.2-.9-.6-1-1,0-.3-.2-.5,0-.7,0-.3.2-.5.3-.8.2-.5.1-1.3.7-1.5.2,0,0-.4.5-.2,0,0,.1,0,.1,0-.2-1.1.7-1.3,1.1-1.9.4-.5.2-1.4.8-1.7-.3-.7,0-.9.4-1.1,1.3-.6,1.7-1.8,2.5-2.7.8-.9,1.5-2,2.2-3,.1-.2,0-.5.3-.6.3,0,.3-.4.5-.6.1-.2.2-.5.4-.6,1.1-.4,1.3-1.5,1.9-2.3.6-.8,1.2-1.6,1.5-2.5.2-.6.2-1.2.7-1.7.2-.2,0-.6.7-.5.2,0,0-.4,0-.6.2-.4.4-.7.6-1.1.3-.5.6-1,.8-1.5.1-.3,0-.7.2-1.1.1-.3.3-.7.5-1,.3-.4.7-.7,1-1,.3-.4.3-1,.7-1.2.8-.5,1-1.4,1.4-2.1.4-.7.8-1.5,1.1-2.3.1-.5.8-.6,1-1.1,0-.2,1.6.2,2,.5,0,0,.2.1.2.2.2.6.7,1.3.4,1.8-.4.7-.7,1.4-1.1,2.1Z"/>
    <path d="M355.7,254.6c-.5.1-1.1.1-1.6.2-.2,0-.4-.3-.7.2-.2.2-.3-.4-.4-.4-.5,0-1-.3-1.5-.5-.5-.2-1.1-.3-1.5-.7-.4-.3-.5-.9-1.1-1.2-.5-.3-.2-.8-.4-1.2-.3-.4-.5-.8-.3-1.3.1-.3.3-.6.2-.9,0-.2-.4-.4-.3-.6,0-.2.4-.4-.2-.7,0,0,0,0,.2-.1.4-.1.5-.4.3-.7-.2-.3,0-.5.1-.8.2-.4.6-.9,1.3-1.2.6-.3,1.1-.4,1.5-.4.5,0,.7.3,1,.4.3,0,.6-.2.9.2.2.3.5.4.7.4.1,0,.2.4.5-.2,0,0,0,0,0,0,.1.9.9,0,1.3.4.3.4.8.5,1.2.8.1,0,.1.3.5,0,.1,0,.3,0,.2.1-.1.7.4.7.6,1.1.2.4.7.7.5,1.3,0,.3-.1.5.5.5.3,0,.1.3.2.4,0,.1.4.2.4.3,0,.1-.2.3-.3.4,0,0,0,0,0,.1.4.3.4.6.3,1-.1.4-.3.7-.2,1,.1.7-.2,1.4-.6,2-.2.3-.7.6-1.7,0-.5-.2-.9-.6-1.1-.9-.2-.2-.3-.4-.3-.5,0-.1-.1-.3-.2-.4,0-.3-.6-.5-.3-.6.1,0-.2-.1.3-.1,0,0,.1,0,0,0-.8-.3-.2-.5-.3-.8,0-.2-.7-.2-.5-.5-.6.1-.5,0-.4-.1.4-.6-.2-.7-.4-1-.3-.3-.7-.5-1.1-.6,0,0-.2.3-.3,0,0-.3-.2-.1-.3-.1,0,0-.2,0-.3,0-.1-.4-.3-.4-.6-.4-.1,0-.2,0-.2,0,0-.7-.1-.9-.2-1,0,0,0,0,0,0,0,0,.1.1.3.2,0,0,.2.1.3.2h.2c0,.1.1.2.1.2,0,0,0,0,0,0,0,0,0,0,0,0,0,.1,0,.2,0,.4,0,.2.4.3.3.4,0,0,.3,0-.3.3-.2,0,.3,0,.3,0,0,0,0,.2.1.3,0,.1.1.3.2.3,0,0,.3,0,.4,0,0,0,.1,0,.1,0,0,0,0,.3,0,.4,0,.1.3-.1.3.1.2.5.5.3.7.3.3,0,.6,0,.7-.3,0-.1.5.2.6.1,0,0,1.1,1,1.4,1.4,0,0,.1.2.1.2,0,.5.2,1.3-.2,1.5-.6.2-1.1.5-1.7.7Z"/>
    <path d="M361.2,283.9c-1.4,2-2.2,4.3-2.4,6.7,0,1.2,0,2.4.3,3.5.3,1.1.8,2.1,1.5,2.8.5.5,1,.9,1.7,1.1.7.2,1.5.2,2.4-.2.8-.4,2.7,0,4.3-.7,1-.4,2-1,2.9-1.6l.3-.2h.2c0-.2.2-.3.3-.4l1.2-1,1.2-1.4c.1-.1.2-.2.3-.4l.3-.5.7-1.1h.4c0,0,.3,0,.3,0h.6s.4,0,.4,0c.1,0,.3,0,.3,0,.4-.1.6-.4.7-.6,0,0,0,.2,0,.3,0,.1,0,.2,0,.3.1.4.4.9,1.5,1.6l-.5,1.8-.2,1.4v.7c-.1.2-.1.4-.1.6v1.3c0,.1,0,.2,0,.3,0,0,0,.3,0,.3v.3c0,.2,0,.4.1.6,0,.4.2.8.3,1.1.4,1.5,1.2,2.7,2.3,3.6,1.4,1.2,3.3,1.9,5.4,1.8,2,0,4-.8,5.7-2,1.4-1.1,2.6-2.2,3.8-3.4.6-.6,1.1-1.3,1.5-1.9l.2-.3h0c0-.2.1-.3.2-.4l.6-1.2.5-1.4c0-.8,0-1.5.1-2.3.2,0,.3-.1.5-.2,1.3-.5,1.7-.8,1.8-1,0,0,0-.2,0-.2.1,0,.2,0,.4.1.4,0,.8.1,2.1,0,.3,1.1.6,2,.9,2.9.3.9.6,1.6.9,2.4.1.3.3.6.5.9l.2.3c0,0,0,.1.1.2.2.3.3.6.5.8.3.5.7,1,1.1,1.5.8.9,1.9,1.5,3,1.8,1.4.3,2.7-.1,4.2-.6,1.4-.5,3.1-1.4,3.7-2.8,0-.1.6-.5.9-.8,1.5-1,2.7-3,3.1-4.5.3-1.4.7-2.6.8-3.7,0-.8,0-1.6-.1-2.3-.2-.7-.4-1.3-.9-1.9-.8-1.2-2.1-1.9-3.1-1.9-.2,0-.3,0-.4,0,0,0-.3,0-.2,0,0,0,0,0-.1,0,0,0,0,0,0,.1,0,0,0,0,0,.1,0,.1,0,.2.1.4.1.3.3.6.5.8.2.3.5.6.8.9,1,1,2.2,1.7,3.5,2.2,1.3.5,2.6.8,3.9,1,2.5.4,5.2-.4,7.3-1.9.6-.4,1.3-.9,1.8-1.4.5-.6.9-1.2,1-1.9,0-.1.3-.6.5-.8,1.4-1.6,2.2-3.9,2.5-6,.3-2.2.1-4.3-.2-6.3-.4-2.1-1.5-3.9-3.1-5.2-.8-.7-1.8-1.2-2.8-1.7l-.4-.2c-.2,0-.2-.1-.6-.2-.6-.2-1.1-.4-1.7-.6l-1.8-.5-2-.5c-.4,0-.8-.2-1.3-.3,0-.6,0-1,0-1.3,0-.3-.2-.5-.4-.7,0,0,0-.2,0-.3,0,0,0,0,0,0,0,0,0,0,0,0,0,0,0,0,0,0,0,0,.1,0,.2-.2,0-.1.2-.2.3-.4l.3-.7.4-1.2c.4,0,.5,0,.7,0h.6c0-.1,1.2-.4,1.2-.4.4,0,.8-.1,1.1-.3l.7-.4.7-.4c.2-.1.5-.3.6-.3l.6-.5c.8-.6,1.5-1.3,2.1-2,.6-.7,1.1-1.5,1.5-2.3.4-.8.6-1.7.8-2.6.3-1.8.1-3.7-.2-5.6-.2-.8-.5-1.8-1.1-2.6-.6-.9-1.3-1.7-2.2-2.1-.8-.4-2-1.8-3.3-2.3-1-.4-2.1-.4-3.2-.6-.9-.1-1.8-.4-2.8-.4-.3,0-.6,0-.9.1-.3,0-.7.2-1,.3l-1.2.4c-.7.3-1.5.8-2.3,1.1-.2,0-.4.3-.7.5l-.7.7-1.5,1.3-1.7-1c-.2,0-.2-.1-.4-.2,0,0-.1,0-.2,0,0,0,0,0,0,0,0,0,0,0,0,0l-.2-.4c-.2-.3-.4-.8-1.1-1.5,1.2-2.2,2.3-4.2,2.9-6.2l.2-.5v-.4c.1,0,.3-.5.3-.5,0-.3.1-.6.1-.8,0-.4,0-.5-.2-.7-.2-.4-1.5-.9-2.8-.9-.6,0-1.4,0-2.2,0-.8,0-1.5.1-2.3.3-1.5.2-3,.6-4.4,1.1-3.2,1-6.2,2.7-8.8,3.3-1.2.3-1.6,0-.5-1.4.8-.9,1.7-1.9,2.9-2.6,1.8-1.2,3.7-2.2,5.7-3,2.1-.8,4.2-1.4,6.4-1.8.6,0,1.1-.2,1.7-.2h.9c.3,0,.6,0,.9,0,1.2,0,2.6.3,3.9,1,.8.5,1.7,1.1,2.3,2.1.6,1,.7,2.2.3,2.9,0,.2-.2.9-.3,1.2,0,.2,0,.5-.1.7v.3c0,.1-.1.2-.1.2,0,.2,0,.3,0,.4,0,.3,0,.5-.1.7,0,.3-.2.5-.4.8l-.3.5c0,.1,0,0,0,0,0,0,0-.1.1-.1.3-.3.6-.5,1.1-.7.2,0,.3-.2.5-.2,0,0,.2,0,.3-.1,0,0,.2,0,.4-.1l.5-.2c.7-.2,1.3-.4,2-.5,1.4-.2,2.8-.4,4.2-.2,2.8.2,5.8,1.3,8,3.2,1.5.8,2.8,2,3.8,3.5,1,1.5,1.7,3.2,2.1,4.8.5,1.9.6,3.8.5,5.8-.2,1.9-.7,3.9-1.6,5.6-.9,1.7-2,3.3-3.4,4.6-.3.3-.7.6-1.1.9-.4.3-.7.6-1.1.8-.2.1-.3.2-.4.3-.2.1-.4.2-.7.2,0,0-.1,0-.2,0h.2c.2,0,.3.1.4.2h.1c.2.1.4.2.6.3,1.2.5,2.4,1.2,3.6,2,2.3,1.6,4.3,4,5.2,6.8.9,2.8,1,5.6.6,8.3-.4,2.7-1.2,5.2-2.5,7.7-.9,1.7-1.5,3.4-3.4,4.8-1.8,1.3-4.1,3-6.6,3.7-2.2.7-4.8.9-7,.4-2.7-.6-5.1-1.9-7.2-3.6-1-.9-1.9-1.8-2.8-3-.2-.3-.4-.7-.5-1-.2-.4-.3-.8-.4-1.3-.2-1,0-2,.4-2.9.3-.6.8-1.1,1.3-1.5.5-.4,1.2-.7,1.7-.8,1.1-.3,2.2-.2,3.3,0,2.1.5,3.8,1.8,5,3.4.7,1,1.3,2.1,1.6,3.3.3,1.2.4,2.4.3,3.5-.1,2.3-.9,4.4-1.8,6.4-.9,1.9-2.2,3.7-3.6,5.3-1.5,1.6-3.2,3-5.3,4-1.3.6-2.6,1-4.1,1.2-1.5.2-3,0-4.4-.5-1.4-.5-2.7-1.3-3.8-2.3-1.1-1-1.9-2.1-2.6-3.3v-.3c-.1,0-.2,0-.2,0h0c0-.2-.1-.3-.1-.4,0-.2,0-.4-.2-1.4,0-.3,0-.3-.1-.2,0,0,0,0,0,.1v.3c0,.2,0,.4,0,.5h0c0,.3,0,.5-.1.7,0,0,0,.2-.1.2h0c-.1.3-.3.6-.5.8-.6,1-1.3,1.9-2.1,2.7-1.7,1.9-3.7,3.6-6,4.8-2.3,1.2-5.1,1.9-7.8,1.7-1.7-.1-3.3-.5-4.9-1.2-1.6-.7-3.1-1.9-4.1-3.3-1.1-1.5-1.8-3.3-2.2-5,0-.4-.2-.9-.2-1.3v-.6c0,0,0,0,0,0h0c0-.1,0-.1,0-.1l.4-.9s0,0-.3.2h-.1c0,.1-.3.4-.3.4h0s-.3.3-.3.3l-.6.4c-.4.3-.8.5-1.3.8-1.7,1-3.6,1.7-5.5,1.9-1,.1-1.9.2-2.9.2-1,0-2.1-.1-3.2-.5-1.1-.4-2.1-1-2.9-1.8-.8-.8-1.4-1.7-1.8-2.6-.9-1.9-1.2-3.8-1.3-5.8,0-1.9.3-3.9,1-5.7,1-2.9,2.8-5.5,5.2-7.4l2.6,2.5c-1,1.4-2.4,2.5-3.9,3.3-.8.4-1.5.7-2.4,1-.2,0-.5.1-.7.1-.3,0-.6,0-.9,0-.6,0-1.2-.2-1.8-.4-.4-.2-.8-.5-1.2-.9-.2-.2-.3-.4-.5-.6-.1-.2-.2-.3-.3-.5-.4-.6-.6-1.2-.9-1.8-.9-2-1.2-4.1-1.1-6.1,0-2,.4-4,1-5.9.3-.9,1-1.8,1.7-2.3.7-.5,1.3-.6,1.4-.1,0,.2,0,.5-.1.7-.6,1.7-.7,3.4-.7,5,0,1.7.3,3.4.7,5.2.2.9.5,1.7.8,2.5.2.4.4.8.5,1.1.1.2.2.3.4.4,0,0,.2,0,.3,0,0,0,0,0,.2,0,0,0,.2,0,.3,0,.5-.1,1.1-.4,1.6-.7,1-.6,2-1.4,2.7-2.3l2.7,2.6c-.9.7-1.7,1.6-2.3,2.5Z"/>
  </g>
</svg>