<?xml version="1.0" encoding="UTF-8"?>
<svg id="ARTWORK" xmlns="http://www.w3.org/2000/svg" width="600" height="600" viewBox="0 0 600 600">
  <g>
    <path d="M309.7,312c.1-.7.3-1.3.4-2,0-.2.3-.4-.1-.8-.2-.2.4-.3.5-.5,0-.6.3-1.2.3-1.8,0-.6,0-1.2,0-1.8,0-.6.5-1.2.3-1.8-.2-.5.4-.9.4-1.4,0-.5,0-1,.3-1.5.2-.3.5-.6.5-1,0-.2-.3-.5-.2-.7,0-.2.4-.4-.2-.7,0,0,0-.1.2-.1.4-.2.5-.5.2-.7-.2-.2-.2-.4-.2-.6,0-.5.1-1,.2-1.5.1-.4.4-.7.5-1.1.1-.4,0-.8.3-1.2.4-.3.4-.7.4-1,0-.2.3-.4-.3-.7,0,0,0,0,0-.1.9-.5-.1-1.2.2-1.7.3-.6.2-1.2.3-1.8,0-.2.2-.3-.2-.5-.2,0-.2-.2,0-.3.7-.4.4-.9.5-1.4.2-.5,0-1.1.5-1.6.2-.2.4-.5-.2-.8-.3-.2,0-.4,0-.6,0-.2-.3-.3-.3-.5,0-.1.3-.3.4-.4,0,0,0,0,0-.1-.6-.8.4-1.5.2-2.3-.1-.8,0-1.6.2-2.4,0-.4.3-.9,1.5-1.1.5-.1,1.1,0,1.4.1.2.2.4.3.5.5,0,.3.2.5.3.8.2.5.7,1.1.3,1.6-.1.2.2.4-.3.5,0,0-.1,0,0,.1.7.8.2,1.5.1,2.2,0,.6.6,1.3.2,1.9.6.4.4.8.2,1.1-.8,1.2-.5,2.4-.7,3.6-.2,1.2-.3,2.5-.5,3.7,0,.2.3.4,0,.6-.3.2-.1.5-.2.8,0,.2,0,.5-.1.7-.8.9-.5,1.9-.8,2.8-.2.9-.4,1.9-.4,2.9,0,.6.2,1.2,0,1.8,0,.2.2.6-.4.7-.2,0,.2.4.2.5,0,.4-.1.8-.2,1.2,0,.6-.3,1.1-.3,1.7,0,.3.1.7.1,1.1,0,.4,0,.7-.2,1.1-.2.4-.5.8-.6,1.3-.2.5,0,1-.4,1.4-.7.7-.6,1.6-.8,2.4-.2.8-.5,1.6-.5,2.4,0,.5-.6.8-.7,1.2,0,.2-1.5.1-2,0,0,0-.2,0-.2-.1-.3-.5-1-1.1-.8-1.6.2-.7.4-1.5.5-2.2Z"/>
    <g>
      <path d="M380.4,342.8c6.6.2,13.4.5,19.7,2.5s12.3,6.1,15.1,12.1c1.5,3.3,2.1,6.9,2.4,10.5.8,7.7,1,15.5,1.1,23.2.1,9.9.1,19.7,0,29.6,0,6.6,0,13.2-1.1,19.8-.2,1.1-.4,2.2-1,3.1-1.6,2.3-4.9,2.2-7.7,1.9-.5,0-1.1-.1-1.5-.5-.4-.4-.5-1-.6-1.6-.7-6.1-1-12.3-2.6-18.3-1.4-5.3-3.7-10.3-5-15.6-.7-2.8-1-5.6-1.4-8.5-1.9-14.3-4.5-29.2-13.1-40.9-1.9-2.6-4.2-5-7.2-5.9,3.3-2.3,6.1-5.1,8.4-8.4" fill="#00b4e9"/>
      <path d="M387,359.9c2.4,3.4,4.3,7.1,5.9,10.9.6,1.4.9,3,1.9,4.3.5.7.3,2.3.8,3.6,1.1,3.6,1.8,7.4,2.6,11.1.7,3.6,1.5,7.2,2,10.8.5,3.6.7,7.2,2,10.2,1.1,2.7,1.5,5.3,2.6,8,1.1,2.8,2.2,6.1,2.5,9.2.2,2.3.3,4.5.7,6.6.2,1.3.7,2.6.8,4,.1,1.4,0,2.9.8,4,0,0,0,0,0,.2,0,0,0,0,0,.1,0,0,0,0,0,0,0,0,0,0-.1,0,0,0-.2.2-.1.3,0,.1.2.2.3.1,0,0,0,0,0,0h.2c.1,0,.2,0,.4,0,.2,0,.5,0,.7,0,1.1-.2,1.9-.3,2.6-.4.5-.1.8-.3,1-.5.2-.2.3-.4.5-.8.1-.4.3-1,.4-1.8l.3-2.2c.3-2.2.7-4.4.9-6.6.2-2.3,0-4.9.2-7.1.3-2.2.3-4.3.3-6.5,0-1.2.3-2.7-.4-3.7,0,0,0-.6,0-.8.8-3.5-.3-7,0-10.5.2-3.7,0-7.5,0-11.2,0-1,.1-2.1-.3-3-.2-.3-.2-1.4-.1-1.9.6-2.8,0-5.6,0-8.4,0-3.2-.5-6.4-.4-9.6,0-1.4,0-3.2-.9-4.7-.4-.7-.4-2.1-.8-3.1-.3-.8-.9-1.5-1.2-2.2-.3-.6-.5-1.4-.8-2,0-.2-.2-.4-.4-.6-1.5-1.5-2.9-3-4.6-4.3-1.6-1.4-3.5-2.5-5.6-3.3-4.2-1.5-8.7-2.3-13.4-2.7-2.6-.3-5.3-.5-7-1.8-.8-.5-.8-1.1.4-1.4.8-.2,1.8-.4,2.7-.4,1.5,0,3,0,4.5,0,3.1,0,6.3,0,9.5,1,1,.3,2.2.4,2.9,1.1,0,.1.5.3.7.3,2.2.4,4.3,1.3,6.3,2.5,1.9,1.3,3.7,2.8,5.3,4.5,1.4,1.4,2.6,3,3.7,4.7,1,1.7,1.7,3.7,2,5.6,1.1,2,1.3,4.5,1.3,6.6,0,7.4.7,14.6.7,21.9,0,7.3,0,14.7,0,22,0,1.3.4,2.3,0,3.8-.3,1.4,0,3.2,0,4.8,0,1.5.1,3,0,4.4-.4,2.9-.5,5.8-.7,8.7,0,1.5-.2,2.9-.4,4.4,0,.7-.2,1.5-.3,2.2-.1.7-.2,1.5-.5,2.4-.2.6-.5,1.2-.9,1.8-.4.6-.9,1.1-1.4,1.5-1.1.8-2.3,1.1-3.5,1.3-1.1.2-2.2.1-3.2,0-.7,0-2.8,0-3.9-1.1-1.2-1-1.2-3.2-1.3-3.8l-.4-2.9c-.5-3.5-1.1-6.8-1.6-10.2-.2-1.4-.8-2.8-.6-4.3,0-.4-.8-1.6-1.1-2.5-.8-2.3-1.6-4.5-2.4-6.8-.5-1.6-1.1-3.2-1.5-4.9-.4-1.7-.8-3.4-1.1-5.1-.4-2.1-.9-4-1.2-6-.3-2.1-.7-4.2-.9-6.3-.4-2.6-.6-5.3-1.1-7.9-.5-2.7-1.5-5.4-2-7.9-1-4.8-3.1-9.2-5.6-13.3-.5-.9-1.1-1.8-1.7-2.7-.6-.9-1.2-1.7-1.9-2.5-.7-.8-1.3-1.4-2.2-2-.4-.3-.8-.5-1.2-.7-.5-.2-.9-.4-1.5-.6-1.1-.4-2.2-.8-3.2-1.1.1-.1.2-.2.3-.4l.6-.4,1.2-.9c1-.7,2-1.4,2.9-2.2.6-.5,1.2-1,1.8-1.4,1-.8,1.9-1.6,2.8-2.7.8-.9,2.9-1.5,3-.8,0,.1,0,.4-.1.6-.6,1.2-1.2,2.5-2,3.7-.4.6-.8,1.2-1.3,1.7-.2.3-.5.6-.8.8l-.3.3s0,0-.1.1l-.4.3-.2.2h-.1c0,.1,0,.1,0,.1.2,0,.5.2.7.3h.2c0,.1.4.5.4.5.4.3.7.6,1.1.9,1.3,1.3,2.5,2.7,3.4,4.2Z" fill="#00b4e9"/>
    </g>
    <g>
      <path d="M298.6,234.2c3.6.8,13.8,2.5,17.3,3.3-3.7.4-13.8.9-16.7,3.3.7-.7.6-1.7.7-2.7s.6-2,1.5-2.1" fill="#00b4e9"/>
      <path d="M301.8,239.1c0,.4-.1.8-.3,1.3-.2.5-.5,1.1-1,1.6l-2.5-2.9h0c.3-.2.7-.2.7-.9,0-.3.6.1.8,0,.7-.4,1.3-.5,2-.8.6-.3,1.2-.6,1.8-.8.6-.2,1.3,0,1.8-.4.5-.4,1,0,1.5-.1.5-.2,1-.3,1.5-.2.4.1.8.3,1.1.2.2,0,.4-.4.6-.4.2,0,.5.2.6-.4,0,0,.1,0,.2.1.3.4.6.3.8,0,.2-.3.4-.3.5-.3.5,0,1-.2,1.5-.1.4,0,.8.2,1.1.2.3,0,.6-.2,1-.1l-.2,4.5c0,0-.1,0-.2-.1-.3-.4-.6-.4-1-.5-.2,0-.4-.4-.7.2,0,0-.1,0-.1,0-.4-.9-1.2,0-1.7-.3-.5-.3-1.2-.3-1.8-.4-.2,0-.3-.2-.5.2,0,.1-.3.1-.3,0-.3-.7-.9-.4-1.3-.6-.5-.2-1.1,0-1.5-.6-.2-.2-.5-.4-.8.1-.2.2-.4,0-.6,0-.2,0-.4.3-.5.2-.1,0-.2-.3-.3-.4,0,0,0,0-.1,0-.9.5-1.5-.5-2.3-.5-.8,0-1.6-.2-2.3-.4-.4-.1-.8-.4-.9-1.6,0-.5,0-1.1.3-1.4.2-.2.4-.4.5-.4.3,0,.5-.1.8-.2.5,0,1.1-.5,1.6-.2.1.1.4-.1.4.4,0,0,0,.1,0,0,.8-.6,1.4,0,2.1,0,.6,0,1.3-.4,1.8,0,.5-.6.8-.4,1.1-.1,1,.9,2.3.7,3.4,1,1.2.3,2.4.4,3.5.7.2,0,.4-.3.6,0,.2.3.5.1.8.2.2,0,.5,0,.7.1l-.2,4.3h0c-1-.6-1.9,0-2.9,0-.9,0-1.9,0-2.8.3-.6.2-1.1.6-1.6.5-.2,0-.4.3-.8-.2,0-.2-.2.3-.4.4-.4.1-.7.1-1.1.2-.5,0-1,.1-1.5.3-.3,0-.6.4-.8.5-.3.1-.6.2-.9.2-.4,0-.8,0-1.2,0-.2,0-.3.2-.5.2-.2,0-.3.2-.5.1-.3,0-.5,0-.7,0l-2.3-2.6c-.2-.1-.1,0,0-.4,0-.2.1-.6.2-1,0-.5.1-1.2.3-1.8.3-.7,1.1-1.2,2-1.5.2,0,.6.2.8.6.2.4.2.9.2,1.2,0,0,0,.2,0,.2,0,.1,0,.3,0,.4h0c0,0,0,.2,0,.2,0,0,.2.2.3.3,0,0,0,0,0,0-.2.2-.2.4-.2,1.4Z" fill="#00b4e9"/>
    </g>
    <g>
      <path d="M253.6,231.6c-17.2-.3-37.4-1.1-54,3.6-8,2.2-15.4,4.4-20.6,11-3.2,4-4.9,8.9-6.2,13.8-7,25-6.6,51.5-5.9,77.5.9,30.6,2.3,61.5,10,91.1,3.4,13,8.6,26.6,19.6,34.3,7.2,5,16,7,24.6,8.6,23.2,4.2,46.8,6.5,70.4,6.8,1.3,0,2.8,0,3.8-.9.9-.8,1.1-2.1,1.3-3.2,4.7-30.8,3.9-62.1,3-93.2-.2-6.5-.9-13.9-6.3-17.5-4.8-3.1-11.1-1.7-16.7-.8-16.8,2.7-33.9,0-50.7-2.8-4.9-.8-10-1.7-14.3-4.1-8.2-4.6-12.6-14.1-13.5-23.4-.9-9.3,1.3-18.7,3.5-27.8,2.7-11.4,5.4-22.7,8-34.1,1-4.4,2.1-8.9,4.3-12.8,3.9-7,11-11.8,18.6-14.3s15.7-3.1,23.7-3.3c-1.9-2.6-3.7-5.3-5.6-7.9" fill="#00b4e9"/>
      <path d="M211.7,269.3c-2.8,12.1-5.7,24.2-8.5,36.3-1,4.5-2.3,9-2.5,13.8,0,2.3-1.2,6.6-1,10.7.3,5.5,1.7,11,4.4,15.7,2.7,4.7,6.9,8.3,12.1,10,2.5.8,5.2,1.3,7.9,1.8l8.3,1.3c5.6.8,11.1,1.5,16.6,2,5.5.5,11.1.8,16.6.6,1.4,0,2.7-.2,4.1-.2,1.4-.1,2.7-.2,4-.5,2.6-.3,5.3-1,8.1-1.4,2.4-.4,5-.5,7.6,0,1.3.3,2.6.7,3.8,1.3,1.2.7,2.3,1.5,3.2,2.4,1.8,1.9,3,4.3,3.7,6.6.7,2.3,1,4.7,1.3,7,.2,2.5.3,4.9.4,7.3,0,2.4.2,4.8.2,7.2.1,4.8.2,9.6.1,14.2,0,6.8-.3,13.5-.2,20.2,0,4.2.2,8.1,0,12.7,0,2.1-.3,4.4-.4,6.6-.1,2.2-.2,4.3,0,6.2,0,.3-.2,2.2-.4,3.2-.8,4.6-1.4,10.2-1.6,14-.1,1.9-.3,3.6-.5,5.4-.1.8-.2,1.8-.6,3-.2.6-.5,1.3-1.1,1.9-.5.6-1.3,1.1-2,1.5-2,.8-3.5.6-4.6.6h-3.6c-2.4-.1-4.8-.2-7.2-.3-4.8-.2-9.6-.4-14.4-.8-7.2-.6-14.2-1.5-21.3-2.4-7.4-1-15.4-1.9-22.1-3.4-6.8-1.5-13.4-2.8-19.9-5.6-1.8-.8-3.8-1.9-5.5-3-.9-.6-1.7-1.1-2.6-1.7-.4-.3-.8-.5-1.2-.8-.4-.3-.8-.5-1.1-.7-.1,0-.5-.4-.9-.7-.4-.4-.7-.8-1-1-3.8-4.4-6.8-9.2-9.3-14.2-2.5-5-4.5-10.3-5.8-15.8-2.8-11.2-5-22.9-6.5-34.4-.4-3.1-.6-6.4-1.3-9.2-.3-1-.6-4.2-.6-5.8-.1-8.6-1-17.7-1.3-26.5-.3-10-.9-20.1-.6-30.2.1-4.3.2-10.1-.3-15.3-.2-2.4.2-7.3.3-11,0-1.5,0-3,.1-4.5,0-1.5.1-3,.2-4.5.3-2.6.7-5.1,1.2-7.7.1-.8.3-1.7.3-2.5.8-7.4,2.4-14.7,4.6-21.8,1.2-3.6,2.7-7.2,5-10.5,2.3-3.3,5.4-6,8.8-8,3.5-2,7.2-3.3,10.8-4.4,3.6-1.1,7.4-2,11.1-2.7,7.5-1.4,15.1-1.8,22.6-2,8.3-.1,16.8.3,22.3,1.5,2.5.6,2.5,1.1-1,1.4-2.6.2-5.5.4-8.4.4-4.7,0-9.4.2-13.9.4-9.4.5-18.7,1.8-28,4-3,.7-6.2,2-8.7,2.4-.3,0-1.5.5-2,.7-2.8,1.4-5.4,3.2-7.6,5.3-2.1,2.2-3.8,4.8-5.1,7.7-1.3,2.9-2.3,6-3.1,9.3-.4,1.6-.9,3.2-1.2,4.8-.4,1.6-.7,3.2-1,4.8-2.1,11-2.4,21.9-3,33.3.4,6.3.4,13.6.3,19.9-.1,22.4.9,44.9,3.4,67.1.6,5.6,1.4,11.2,2.4,16.8,1,5.6,2.1,11.1,3.5,16.6,1.3,5.5,2.9,10.9,5,16,2.1,5.1,4.8,10,8.3,14,1.2,1.4,2.5,2.5,3.9,3.6.7.6,1.4,1,2.2,1.6.4.3.8.5,1.2.8.4.3.8.6,1.3.9,3.3,2.3,8.5,3.9,13.2,5,4.3,1,9,1.7,13.2,2.6,17.4,3.6,35.3,5.1,53.1,5.8,2.2.1,4.4.2,6.6.2h3.3c1.1,0,2.3.2,3.1,0,.4,0,.7-.1.9-.3.2-.1.3-.2.4-.5.3-.5.4-1.5.6-2.7.3-2.2.7-4.4.9-6.6,1.1-8.8,1.8-17.6,2.1-26.5.4-10.8,0-21.5,0-32.4,0-4.6-.4-9.5,0-14.1.1-1.3-.4-5.6-.5-8.6-.1-3.7-.1-7.4-.7-10.8-.6-3.4-1.8-6.6-4.2-8.3-1.6-1.3-3.7-1.8-6-1.9-2.3,0-4.8.3-7.3.7-1.3.2-2.6.4-3.9.6-1.3.2-2.6.3-4,.5-1.3.2-2.6.2-4,.3-1.3,0-2.6.1-4,.1-6.4.1-12.8-.1-19.2-.8-6.6-.7-13.3-1.8-19.8-2.9-4.1-.7-8.5-1.6-12.7-3.6-4.2-2-7.6-5.3-10.1-9.1-2.6-3.9-4.4-8.4-5.3-12.9-.9-4.6-.9-9.2-.5-13.4.9-7.9,3-15.5,4.8-23,1.8-7.5,3.5-15,5.3-22.5.9-3.7,1.8-7.4,2.7-11.2,1-3.8,2.3-7.7,4.5-11.2,2.2-3.5,5.2-6.3,8.5-8.6,3.3-2.3,7-4,10.8-5.3,4-1.3,8-1.9,11.9-2.3,2-.2,3.9-.3,5.9-.3,1.2,0,1.3,0,1.8,0,.5,0,.9,0,1.4,0-.1-.2-.3-.4-.4-.6-.3-.4-.4-.8-.6-1.3-.2-.4-.4-.9-.6-1.3-.2-.4-.4-.9-.5-1.3-.6-1.6-.7-2.6,0-2.1.3.2.7.7,1.1,1.2.4.5.8,1,1.2,1.5.5.6,1,1.2,1.5,1.9,1.1,1.4,2.3,3,3.5,4.6-2,.2-4.1.3-6.1.5-1.3,0-1.7.2-2.5.2-.7,0-1.4.2-2.1.3-2.9.4-5.8.8-8.9,1.4-3.3.7-6.6,1.6-9.7,3-3.1,1.4-5.9,3.2-8.4,5.4-2.5,2.2-4.5,4.8-5.9,7.8-1.4,3-2.3,6.3-3.1,9.6Z" fill="#00b4e9"/>
    </g>
    <g>
      <path d="M313.1,318.8c2.6-2.1,5.2-4.2,7.9-6.3,1.4-1.1,2.8-2.2,4.4-3,2.1-1,4.5-1.3,6.9-1.7,7.1-1,14.3-2,21.5-2.4,2.4-.1,4.9-.2,7.1.6,2.3.8,4.3,2.7,4.5,5.1-3.8-1.4-8.5,1-9.5,4.9-.4,1.5-.3,3.1-.2,4.7,0,1.2.2,2.3.2,3.5,0,.6.1,1.3.6,1.7.5.4,1.3.4,1.9.3,2.6-.3,5.3-.3,7.9-.2,1.2,0,2.8.7,2.6,1.8,0,.5-.5.8-.9,1.1-3,2.1-7.5,1.2-10.2,3.6-.5.4-.8.9-1.4,1.2-.6.4-1.3.5-2,.5-3.9.5-7.9.9-11.8,1.4-.6,2-1.2,3.9-1.8,5.9-2.2-2.5-4.8-4.6-7.7-6.2-.6-.3-1.2-.6-1.9-.5-.6,0-1.2.4-1.7.8-2.9,2.3-5.3,6.3-9,6.1-1.2,0-2.3-.6-3.4-1.2-3.7-2-7.1-4.6-10.2-7.5,2.5-1.6,4.9-3.3,7.4-4.9.6-.4,1.2-.8,1.6-1.3,1.4-1.8.3-4.4-.8-6.4"/>
      <path d="M310.1,333.4h-.1c0,.1,0,.2,0,.2l.2.2.3.2.4.3c1.1.9,2.3,1.8,3.5,2.6.9.6,1.7,1.4,3,1.5.6,0,1.2,1.1,2,1.4.5.2.9.3,1.4.2.4,0,.9-.1,1.3-.3.9-.4,1.9-1.3,2.8-2.2.7-.7,1.4-1.5,2.2-2.3.4-.4.8-.8,1.3-1.2.6-.5,1.6-1,2.5-1.1.6,0,1.2,0,1.8.2.7.2,1,.4,1.3.6,1.3.7,2.6,1.5,3.7,2.4.5.4.9.7,1.4,1.1.1,0,.2.1.3,0,0,0,0,0,0,0,0,0,0,0,.2,0,0,0,0,0,.1-.1,0-.1,0,.2.3-.9.2-.8.4-1.6.7-2.4.9-.1,1.7-.2,2.6-.4l1.7-.2c.9-.1,1.9-.2,2.8-.2,1.7,0,3.3,0,4.9-.3,1-.2,2.2-.6,2.4-.7,0,0,0,0,.2,0,.1,0,.3-.2.4-.4.2-.3.5-.5.7-.7.2-.3.5-.6.6-.9,0-.1.7-.4,1-.4.2,0,.4,0,.6-.1h.3c0,0,.1,0,.1,0h0s0,0,0,0c0,0,.1,0,.2,0,.1,0,.2-.1,0-.2-.3-.2-.3-.2-.3-.2,0,0,0,0,0-.1,0,0,.2-.1.3-.2,0,0,0-.2,0-.2-.1,0-.3,0-.4,0,0,0,0,0,0,0h-.4c-.2,0-.5,0-.7,0-.8,0-1.6-.2-2.2-.5-.6-.4-1.1-.9-1.4-1.6-.3-.6-.4-1.3-.4-2v-1.5c0-.4-.1-.8-.2-1.2,0-.9.1-2-.5-2.9,0,0,0-.5,0-.7.2-.8.4-1.6.6-2.4,0-.4.2-.8.4-1.2.2-.4.3-.8.5-1.2.8-1.6,2-3,3.5-3.7.3-.2.7-.3,1.1-.5l.6-.2h.1c0,0,.1,0,0,0,0,0,0,0,0,0,.1,0,.2,0,.3,0,.1,0,.3,0,.4,0,0-.1-.1-.3-.2-.4,0,0,0-.1,0-.1,0,0-.2,0-.5,0-.2,0-.2.1-.1,0,.5-.2-.7-.7-1.5-.8-.9-.1-1.8-.1-2.8-.1-1.1,0-2.4,0-3.6.2-1.2,0-2.4.1-3.7,0-1.1-.1-2.5,0-3.6.6-.5.3-1.8.2-2.6.4-.7.1-1.4.5-2.1.6-.6,0-1.3,0-1.9,0-.2,0-.4,0-.6,0-1.7.6-3.5.8-5.3.9-1.8.1-3.4.2-4.9.8-1.4.6-2.6,1.4-4,2.5-1.4,1.1-2.9,2.2-4.3,3.3-1.6,1.2-3.3,2.4-5.1,2.3-.8,0-1.2-.4-.7-1.2.3-.6.8-1.2,1.3-1.7.8-.8,1.7-1.6,2.5-2.4,1.7-1.6,3.1-3.5,5.4-4.8.7-.4,1.4-1.2,2.3-1,.1,0,.4,0,.6-.2,1.5-1.1,3.3-1.5,5-1.7,1.7-.2,3.3-.3,4.9-.6,2.8-.4,5.3-1.4,8.2-1.5,1.5-.8,3.3-.9,4.9-.8,1.4,0,2.8,0,4.2,0,1.4,0,2.8-.1,4.3-.1,1.5,0,3.1.2,4.8.7.1,0,.5.2.8.3.3.1.6.3.8.4.5.3,1,.7,1.5,1,.9.8,1.6,1.6,2,2.5.3.6.5,1.2.7,1.8.1.6.2,1.2.3,1.9v.5c0,0,0,0,0,0h0c0,.1,0,.2,0,.3v.2s0,.2,0,.4c0,.3,0,.5,0,1l-1.4-.4-.7-.2h-.5c0-.1-1.1-.4-1.1-.4-.4,0-.8-.2-.9-.2-.5,0-.9,0-1.4.2l-.5.2c-.6.3-1.2.6-1.7,1.1-.5.4-.9,1-1.1,1.5-.3.5-.4,1.2-.5,1.9,0,.8.3,1.5.1,2.6,0,.5,0,1.1,0,1.7,0,.3,0,.6.1.9v.5c0,0,0,0,0,0,0,.2.2.3.3.4,0,0,.1,0,.1.1,0,0,.1,0,.2,0h.4s.7,0,.7,0c.9,0,1.8,0,2.7,0,1.7,0,3.5,0,4.6.4.6.1,1.1.3,1.5.5.4.2.8.4,1.2.7.4.3.7.8.9,1.4.1.7,0,1.3-.2,1.7-.5.8-1.2,1.5-2.2,2-1,.5-2.2,1-4,1.4-.9.2-1.9.4-2.8.6l-.7.2c-.1,0-.2,0-.4.1h-.2c-.2.1-.4.2-.6.3-.2,0-.3.2-.5.3-.1.1-.3.2-.4.4-.3.3-.7.8-1.5,1.3-1,.7-2,.8-2.7.9l-2,.4c-1.3.2-2.6.5-4,.5-1.1,0-2.3.6-3.5.1-.2,0-.5,0-.9.2-.1.1-.1.2-.2.2h0s0,.2,0,.2l-.4,1.3-1.3,4.3-.4,1.3c-.1.4-.3.9-.4,1.2-1.3-1.5-2.7-3.1-4.1-4.5-1.6-1.5-2-1.8-2.9-2.3-.6-.4-1.2-.7-1.9-1l-1-.4c-.3-.1-.6-.2-.5-.2,0,0,0,0,0,0h0s0,0,0,0c0,0-.1.1-.3.2-.4.3-.8.7-1.3,1.1-1.4,1.3-3,2.9-5.3,4.2-1.2.7-2.8,1.1-4.4,1-1.6-.2-2.8-.8-3.7-1.4-1.6-1.1-3.2-2.3-4.9-3.4-.8-.6-1.6-1.1-2.4-1.8l-.6-.5-.4-.3-.5-.4c-.6-.5-1.2-1.1-1.7-1.6l-1.7-1.6-.2-.2c0,0,0,0,0,0h.1c0,0,.5-.4.5-.4l1-.7c.6-.4,1.3-.9,1.9-1.3l1.7-1.1,2.3-1.6,1.2-.8c.4-.3.8-.5,1.1-.8.3-.3.5-.4.6-.6.1-.2.3-.3.4-.6.2-.6.1-1.4-.2-2.3-.3-.8.4-2.6,1-2.5.1,0,.3.1.4.2.7.8,1.4,1.7,1.9,2.8.2.6.4,1.3.4,2.1,0,.8-.3,1.7-.8,2.5-.9,1.2-1.9,1.6-2.5,2.1l-2.2,1.4-2.7,1.8Z"/>
    </g>
    <path d="M360.9,320.1c-.1,0-.2,0-.3,0,0,0-.1-.2,0,.3,0,.3-.1-.3-.2-.3,0,0-.2,0-.3.1,0,0-.2.3-.2.4,0,0-.3-.2-.3.1,0,.3-.2-.2-.3,0,0,.1-.1.2-.3,0,0-.2-.2-.4-.2-.2,0,0,0,.4,0,.4,0,0-.1-.3,0,.4,0,0,0,0,0-.1-.1-.4-.2-.4-.2,0,0,.3,0,.2,0,.3,0,0-.2,0-.3,0,0,0-.2-.3-.3-.3,0,0-.1.2-.2,0-.1-.3-.2-.3-.2-.2,0,0-.1-.3,0,.4,0,0,0,0,0,0-.3-.8-.2.3-.3.1-.1-.2-.2,0-.3,0,0,0,0-.2,0,.3,0,.2,0,.2,0,0-.2-.6-.2-.2-.3-.3-.1-.1-.2.2-.3-.3,0-.2-.1-.3,0,.3,0,.3,0,0,0,0,0,0,0,.3,0,.3,0,0,0-.2-.1-.3,0,0,0,0,0,0,0,.7-.3-.2-.4,0-.1.2-.3.2-.4,0,0,0-.2-.2-.4-1.3-.1-.5-.2-1.1-.2-1.4,0-.2,0-.5,0-.5,0-.1,0-.2,0-.3,0-.2,0-.8.2-.5,0,0,0-.2.1.3,0,0,0,.1,0,0,0-.8.2-.3.3-.4,0,0,0-.7.2-.5,0-.6,0-.5.1-.4.3.6.4.1.7.2.2,0,.4,0,.6,0,0,0,0-.4,0,0,0,.2,0,0,.1,0,0,0,0-.1.1,0,.3.6.4.2.5.2.2,0,.3,0,.5-.1,0-.1.1-.5.2-.4,0,0,0-.3.2.3,0,.2,0-.3,0-.3,0,0,.1,0,.2,0,0,0,.2,0,.3,0,0,0,0-.3,0-.4,0,0,.1,0,.2,0,0,0,.2.3.3.3,0,0,.1-.2.2,0,.2.5.3.2.5.2.2,0,.3,0,.4-.1,0,0,.2.4.3.4,0,0,.1.4.2.8.1.4.2.9.3,1.1,0,0,0,.2,0,.2,0,.5.1,1.2,0,1.2-.1,0-.3,0-.4,0Z" fill="#00b4e9"/>
    <path d="M198.7,310.8l1.3-5.5c.1-.7.6-1.3.2-2.2-.2-.4.6-.9.8-1.5.4-1.7.9-3.4,1.4-5.1.4-1.7.7-3.4,1.1-5,.4-1.6,1.2-3.2,1.4-4.9.2-1.4,1-2.5,1.3-3.8.3-1.4.7-2.8,1.4-4.1.5-.9,1-1.8,1.2-2.8.1-.6,0-1.3.3-1.9.2-.6.7-1.2.3-1.9,0,0,.2-.3.3-.4.6-.5.9-1.3.8-2,0-.6.1-1.1.3-1.6.4-1.4.9-2.7,1.4-4.1.4-1,1-2,1.5-3,.5-1,.7-2.3,1.4-3.1.7-.9,1.2-1.8,1.7-2.7.3-.5.9-1,.6-1.7,0,0,0-.3.2-.3,1.6-1,1.7-3.1,3.1-4.3.3-.3.7-.6,1-1l1-1,1-1,1.1-.9c.4-.3.9-.5,1-1.1,0-.2.5-.5.8-.6,1.5-.3,2.6-1.3,3.9-1.9.8-.3,1.5-.7,2.2-1,.7-.3,1.5-.5,2.4-.6.7,0,1.6-.2,2.3-1,.3-.4,1.1-.3,1.7-.5.5-.1.9-.5,1.3-.6.4,0,.8,0,1.3.2.1,0,.3,0,.4,0,.6-.2,1.1-.4,1.7-.4.6,0,1.2,0,1.8,0,1.2,0,2.3.3,3.5.2,2.4,0,4.8.4,7.1,1.2,1.3.3,2.5,1.1,2.9,2.4.2.6,0,1.1-.6,1.3-.4,0-.9.2-1.3,0-.7-.2-1.4-.2-2-.3-1.4-.2-2.8.1-4.1-.4-.4-.1-1,.1-1.3-.4,0,0-.2-.1-.3-.1-1,.3-1.9.4-2.9.3-.9,0-1.9,0-2.9,0-.8.1-1.6.4-2.3.6-.8.3-1.5.5-2.3.6-.7.9-1.7,1-2.6,1.1-3.2.4-5.9,2.3-8.4,4.1-2.6,1.9-4.6,4.3-6.4,7-.3.5-.2,1-.8,1.5-.5.4-.7,1.2-1,1.8-.3.6-.5,1.3-.9,1.8-1.7,2.1-2.2,4.8-3.2,7.2-.9,2.5-1.9,5-2.6,7.6-.4,1.6-.6,3.2-1.3,4.7-.3.6-.2,1.4-1,1.9-.2.1,0,.9-.1,1.3-.3,1.1-.7,2.1-1,3.2-.5,1.5-1,2.9-1.4,4.4-.2.9-.3,1.9-.5,2.8-.2,1-.5,1.9-.8,2.8-.4,1.2-1,2.3-1.4,3.5-.4,1.2-.5,2.6-1.1,3.7-1.1,2.1-1.4,4.4-1.9,6.6-.6,2.2-1.1,4.4-1.4,6.7-.2,1.3-.9,2.4-1.1,3.6,0,.6-1.7,1.1-2.1.8,0,0-.2-.2-.2-.3-.3-1.3-.8-2.6-.5-4,.4-2.1.8-4.2,1.3-6.3Z"/>
    <path d="M285.3,361.3c-2,.2-4,.4-6,.7-.7.1-1.5,0-2.3.5-.4.3-1.1-.3-1.8-.2-1.9.2-3.8.3-5.7.5-1.8.2-3.6.5-5.5.7-1.8.1-3.7,0-5.5.3-1.5.3-2.9-.2-4.4,0-1.5.1-3.1.2-4.7,0-1.1-.2-2.2-.4-3.3-.3-.7,0-1.3.4-2.1.3-.7,0-1.5-.3-2.1.3,0,0-.4,0-.5-.2-.7-.4-1.6-.4-2.3-.2-.6.2-1.2.2-1.7.2-1.6,0-3.1,0-4.7-.3-1.2-.1-2.3-.5-3.5-.7-1.2-.2-2.6,0-3.7-.6-1.1-.5-2.2-.7-3.3-.9-.6-.1-1.3-.6-2,0,0,0-.3,0-.4,0-1.6-1.3-3.6-.7-5.3-1.6-1.7-.9-3.6-1.6-5.4-2.5-.5-.2-.9-.7-1.5-.6-.2,0-.7-.3-.9-.5-.4-.7-1-1.2-1.6-1.7-.6-.5-1.2-1-1.7-1.5-1.1-1.3-2.6-2.5-3.2-4.2-.3-.7-.7-1.6-1.7-2.1-.4-.2-.7-1.1-1-1.6-.3-.5-.7-.8-1-1.3-.2-.4-.1-.9-.2-1.4,0-.1,0-.3-.2-.4-.4-.5-.7-1.1-.9-1.8-.2-.6-.3-1.3-.4-1.9l-.2-2c0-.6,0-1.3-.2-1.9-.4-2.6-.1-5.3.6-7.9.3-1.4,1.1-2.8,2.4-3.2.6-.2,1.1,0,1.3.7,0,.5.2,1,0,1.4-.2.7-.2,1.5-.3,2.2,0,.4,0,.7,0,1.1v1.1c.1.7,0,1.4,0,2.2,0,.5.2,1-.3,1.4,0,0,0,.2,0,.3.5,1,.6,1.9.8,2.9.1,1,.3,2,.6,3,.3.8.8,1.5,1.2,2.2.5.7.9,1.4,1.2,2.2.5.2.9.6,1.2,1,.3.4.5.8.7,1.3.3.8.8,1.5,1.3,2.1.6.6,1.1,1.3,1.7,1.8,1.2,1.2,2.7,2,4,2.9,1.5.9,3.1,1.6,4.7,2.3,1.6.6,3.3,1.2,5,1.6.6.2,1.2,0,1.8.4.6.4,1.5.4,2.2.5.7.1,1.5.1,2.1.4,2.7,1.1,5.6.9,8.4,1.2,2.8.2,5.7.4,8.6.3,1.7,0,3.5-.4,5.2-.3.7,0,1.5-.3,2.3.3.2.2.9-.3,1.4-.3,1.2,0,2.4,0,3.6,0,1.7,0,3.3,0,5-.2,1,0,2-.4,3-.5,1.1-.1,2.1-.2,3.2-.2,1.3,0,2.7.1,4,0,1.4,0,2.8-.4,4.2-.3,2.5.3,5-.2,7.4-.5,2.5-.2,4.9-.5,7.3-1,1.4-.3,2.7,0,4.1-.2.6,0,1.7,1.2,1.5,1.8,0,.1-.1.2-.2.3-1.3.7-2.4,1.6-3.9,1.8-2.3.3-4.6.6-6.8.9Z"/>
    <path d="M284.8,331.8c-.7,0-1.4-.2-2.1-.2-.3,0-.5-.3-.8.2-.2.2-.3-.4-.6-.4-.7,0-1.3-.2-2-.2-.7,0-1.3.1-2,.1-.6,0-1.3-.4-1.9-.1-.6.2-1-.3-1.5-.3-.6,0-1.1,0-1.6-.2-.4-.2-.7-.5-1.1-.4-.2,0-.5.3-.8.3-.2,0-.5-.4-.8.2,0,0-.1,0-.2-.2-.2-.4-.5-.5-.8-.2-.2.2-.4.2-.6.2-.5,0-1.1,0-1.6-.2-.4,0-.8-.4-1.2-.5-.4-.1-.9.1-1.3-.2-.4-.4-.7-.4-1.1-.4-.2,0-.4-.3-.7.3,0,0-.1,0-.1,0-.5-.9-1.3.1-1.9-.2-.6-.3-1.3-.2-2-.3-.2,0-.3-.2-.6.2,0,.2-.3.1-.3,0-.4-.7-1-.4-1.5-.5-.6-.2-1.2,0-1.7-.5-.2-.2-.5-.4-.9.2-.2.3-.4,0-.6,0-.2,0-.4.3-.5.3-.1,0-.3-.3-.4-.4,0,0,0,0-.1,0-.9.6-1.6-.4-2.5-.4-.9,0-1.7-.1-2.6-.3-.5-.1-.9-.4-1.1-1.5,0-.5,0-1.1.2-1.4.2-.2.4-.4.5-.5.3,0,.6-.2.8-.2.6-.1,1.2-.6,1.7-.2.2.1.4-.2.5.4,0,0,0,.1.1,0,.8-.7,1.6,0,2.3,0,.7,0,1.4-.5,2-.2.4-.6.8-.4,1.2-.2,1.2.8,2.5.5,3.8.8,1.3.3,2.6.3,3.9.5.2,0,.5-.3.7,0,.2.3.6.1.8.2.3,0,.6,0,.8.1.9.8,2,.5,3,.7,1,.2,2,.4,3.1.3.6,0,1.3-.3,1.9,0,.3,0,.6-.2.8.4,0,.2.4-.2.5-.2.4,0,.9,0,1.3.1.6,0,1.2.2,1.8.2.4,0,.8-.2,1.1-.2.4,0,.8,0,1.1.1.5.1.9.4,1.4.5.5.1,1,0,1.5.2.8.6,1.7.5,2.6.6.9.2,1.7.3,2.6.3.5,0,.9.5,1.4.6.2,0,.3,1.5.2,2,0,0,0,.2-.1.2-.5.4-1.1,1.1-1.6,1-.8-.2-1.6-.2-2.4-.3Z"/>
    <path d="M310.4,318.9c-.4.1-.8.3-1.2.5-.1,0-.4-.1-.3.5,0,.3-.4-.3-.5-.2-.3.2-.7.3-1.1.5-.3.2-.6.6-.9.8-.3.2-.8.1-1,.6-.2.4-.6,0-.8.3-.2.3-.5.5-.9.4-.3,0-.6-.1-.7,0,0,.1,0,.5-.2.5-.1,0-.4-.1-.2.5,0,0,0,0-.2,0-.3-.3-.5-.2-.5.1,0,.3,0,.3-.2.4-.3.2-.5.4-.8.5-.2,0-.6,0-.8,0-.2,0-.3.5-.7.3-.4-.1-.5,0-.7.1-.1,0-.4,0-.1.5,0,0,0,0,0,0-.8-.5-.5.6-.9.7-.4,0-.7.4-1,.7,0,0-.3,0,0,.4,0,.1,0,.2-.1.2-.6-.3-.6.2-.9.3-.3.1-.4.6-1,.4-.2,0-.5,0-.2.5.1.3-.2.2-.2.3,0,.1,0,.4,0,.4,0,0-.3,0-.4,0,0,0,0,0,0,0,0,.8-.9.5-1.1.9-.2.4-.6.7-.9,1-.2.1-.5.2-1.5-.3-.5-.2-.9-.6-1.1-.9-.1-.2-.3-.4-.2-.6,0-.2,0-.4,0-.6,0-.4,0-1,.4-1.1.1,0,0-.3.5,0,0,0,.1,0,.1,0-.2-.9.6-.9.9-1.3.3-.3.2-1,.7-1.1-.2-.6,0-.7.4-.7,1.1,0,1.4-.8,2.1-1.3.7-.4,1.3-1,2-1.4.1,0,0-.4.3-.3.3.1.3-.2.5-.3.1,0,.2-.3.4-.2.9.2,1.2-.5,1.8-.8.6-.3,1.2-.5,1.7-1,.3-.3.5-.8.9-.8.2,0,.2-.4.6,0,.1.1,0-.3.1-.4.2-.2.5-.3.7-.4.3-.2.7-.3,1-.5.2-.1.3-.5.5-.6.2-.2.4-.3.7-.3.3,0,.7,0,1,0,.3,0,.5-.4.9-.3.7.3,1.1-.2,1.7-.3.5-.1,1.1-.3,1.6-.6.3-.2.7.2,1,.1.1,0,.8,1.3.9,1.8,0,0,0,.2,0,.2-.1.5-.1,1.3-.5,1.4-.5,0-.9.3-1.4.5Z"/>
    <path d="M313.8,327.1c0-.2-.1-.4-.3-.6,0,0,.2-.2-.4,0-.3,0,.3-.3.2-.3-.1-.1-.1-.4-.3-.5-.1-.1-.4-.2-.5-.4-.1-.1,0-.4-.3-.5-.3,0,0-.4,0-.5-.2,0-.3-.2-.2-.5.1-.2.3-.4.1-.4,0,0-.4,0-.4,0,0,0,.2-.2-.4,0,0,0,0,0,.1-.1.4-.2.3-.3,0-.3-.3,0-.3,0-.3,0,0-.1-.2-.3-.2-.4,0-.1.2-.3.2-.5,0-.1-.3-.2,0-.4.2-.2.2-.3.2-.4,0,0,.2-.2-.4,0,0,0,0,0,0,0,.7-.5-.4-.3-.2-.5.1-.3,0-.4-.2-.6,0,0,.1-.2-.3,0-.2,0-.2,0,0,0,.5-.3.1-.4.2-.5,0-.2-.3-.3.1-.6.2-.1.2-.3-.3-.2-.3,0,0-.1-.1-.2,0,0-.3,0-.4,0,0,0,.2-.2.3-.2,0,0,0,0,0,0-.7,0,0-.5-.2-.7-.3-.2-.3-.4-.2-.7,0-.1.1-.3,1.2-.8.5-.2,1-.4,1.3-.4.2,0,.5,0,.5,0,.1,0,.3,0,.4.1.2,0,.8,0,.6.3,0,0,.2,0-.2.2,0,0,0,0,0,0,.8,0,.4.3.5.5.1.2.8.1.6.4.6-.1.6,0,.4.2-.5.6,0,.8,0,1.1,0,.4.2.7.3,1,0,0,.4,0,.1.2-.2.2,0,.2,0,.2,0,0,.2,0,0,.2-.5.5,0,.6,0,.9,0,.3,0,.6.3.8.2.1.5.2.5.4,0,0,.3,0-.2.3-.1,0,.3,0,.3,0,0,0,.1.2.2.3,0,.2,0,.3.2.5,0,0,.3,0,.4.1,0,0,.1.2.1.3,0,.2-.2.4-.2.5,0,.2.3.2.1.4-.4.4,0,.6,0,.8,0,.2.1.5.3.7.1,0-.3.4-.2.5,0,0-1.3.8-1.7,1,0,0-.2,0-.2,0-.5,0-1.2.3-1.2,0,0-.2-.2-.4-.3-.7Z"/>
    <path d="M304.1,333.4c.2-.2.4-.3.5-.5,0,0,.3,0,0-.4-.1-.2.3.2.4.1.1-.2.3-.3.4-.5.1-.2.1-.5.2-.7.1-.2.5-.1.4-.5,0-.3.4,0,.4-.2,0-.2.1-.4.4-.3.2,0,.4.1.5,0,0-.1-.1-.4,0-.4,0,0,.3.1,0-.4,0,0,0,0,.1,0,.3.3.4.2.3,0-.1-.3,0-.3,0-.3.1-.1.2-.3.4-.3.1,0,.4,0,.5,0,.1,0,0-.4.4-.2.3.2.4,0,.5,0,0,0,.3.1,0-.4,0,0,0,0,0,0,.7.5.2-.5.4-.4.3,0,.4-.2.5-.4,0,0,.2,0,0-.3,0-.1,0-.2,0-.1.5.4.4,0,.6,0,.2,0,.2-.4.6,0,.2.1.3.1,0-.4-.1-.2.1,0,.1-.2,0,0-.1-.3,0-.4,0,0,.2.1.3.2,0,0,0,0,0,0-.2-.7.6-.1.7-.4.1-.3.4-.4.7-.5.2,0,.4,0,1.1.9.3.4.7.8.8,1.2.1.2.2.4.2.5,0,.1,0,.3,0,.4,0,.3.2.8-.2.7,0,0,0,.2-.3-.1,0,0,0,0,0,0,.3.8-.2.5-.4.7-.1.2,0,.8-.2.7.3.6.1.6,0,.5-.7-.3-.8.3-1.1.5-.4.2-.6.5-1,.7,0,0,.1.4-.1.2-.2-.2-.2,0-.2.1,0,0,0,.2-.2.1-.7-.3-.7.2-.9.3-.3.1-.6.3-.7.6,0,.2,0,.6-.2.6,0,0,0,.3-.4,0-.1-.1.1.3,0,.3,0,.1-.2.2-.3.3-.1.1-.3.2-.4.4,0,.1,0,.4,0,.5,0,.1-.1.2-.3.2-.2,0-.4,0-.6,0-.2,0,0,.4-.4.3-.5-.2-.6.2-.8.3-.2.1-.5.3-.6.6,0,.2-.5-.1-.6,0,0,0-1.1-.9-1.5-1.3,0,0-.1-.2-.1-.2-.2-.4-.6-1.1-.5-1.1.2-.1.4-.3.6-.5Z"/>
    <path d="M324.3,346.9c-.3-.2-.7-.4-1.1-.6-.1,0-.1-.4-.6,0-.2.2,0-.4-.1-.5-.4-.1-.6-.4-1-.5-.3-.1-.8-.1-1.1-.3-.3-.1-.5-.6-1-.5-.4,0-.4-.5-.7-.5-.3,0-.6-.1-.8-.5-.1-.3-.2-.6-.4-.6-.2,0-.4.2-.5.1-.1,0-.1-.4-.5,0,0,0,0,0,0-.2,0-.4,0-.5-.3-.3-.2.2-.3,0-.4,0-.3-.1-.6-.3-.8-.5-.2-.2-.3-.5-.4-.7-.2-.2-.5,0-.6-.4,0-.4-.2-.5-.4-.6-.1,0,0-.4-.5.1,0,0,0,0,0,0,.1-.9-.7-.1-.9-.5-.2-.4-.6-.4-1-.6,0,0,0-.3-.4,0-.1.1-.2,0-.2,0,0-.7-.4-.5-.6-.7-.2-.3-.6-.2-.7-.8,0-.2-.1-.4-.6,0-.2.2-.2-.1-.3-.1-.1,0-.3.2-.4.1,0,0,0-.3,0-.4,0,0,0,0,0,0-.7.3-.7-.7-1.2-.8-.5,0-.9-.4-1.3-.7-.2-.2-.3-.5,0-1.6.2-.5.5-1,.7-1.2.2-.2.4-.3.5-.3.2,0,.4,0,.6,0,.4,0,.9-.3,1,0,0,.1.3,0,.1.4,0,0,0,.1,0,0,.8-.5.9.2,1.3.4.3.1,1-.2,1.2.2.5-.4.6-.2.7,0,.3,1,1.2.9,1.7,1.4.6.5,1.3.8,1.9,1.2.1,0,.4-.2.4.1,0,.3.2.2.4.3.1,0,.3,0,.4.2.2.9.9.8,1.3,1.2.5.4.9.7,1.5.9.4,0,.8,0,1.1.3.1.1.4,0,.2.5,0,.2.3-.2.4-.1.2,0,.4.2.6.4.3.2.6.4.9.5.2,0,.5,0,.7,0,.2,0,.4.2.6.3.2.2.3.5.5.7.2.2.6.1.7.5.2.7.7.7,1.1,1,.4.3.8.6,1.3.8.3,0,.2.6.5.8.1,0-.5,1.4-.8,1.8,0,0-.1.2-.2.2-.5.3-1.1.8-1.3.6-.4-.3-.8-.5-1.2-.7Z"/>
    <path d="M333.2,336.5c-.2.2-.4.3-.5.5,0,0-.3,0,0,.4.2.2-.3-.2-.4-.1,0,.2-.3.3-.4.5,0,.2,0,.5-.2.7,0,.2-.4.1-.3.5,0,.3-.4,0-.4.3,0,.2,0,.4-.4.4-.2,0-.5,0-.4,0,0,.1.2.4.1.4,0,0-.3,0,.1.4,0,0,0,0-.1,0-.4-.2-.4-.1-.2.1.2.2.1.2,0,.3,0,.2-.2.3-.3.4-.1,0-.4,0-.5,0-.1,0,0,.3-.3.3-.3,0-.4,0-.4.1,0,0-.3,0,.2.4,0,0,0,0,0,0-.8-.3,0,.5-.3.5-.3,0-.3.3-.4.5,0,0-.2,0,.1.3.1.1.1.2,0,.1-.6-.2-.4.1-.5.2-.2,0,0,.4-.6.3-.2,0-.4,0,0,.4.2.2,0,.1,0,.2,0,0,.2.3.2.3,0,0-.2,0-.4,0,0,0,0,0,0,0,.4.6-.5.3-.4.7,0,.3-.2.5-.4.7-.1.1-.3.1-1.4-.3-.5-.2-1-.4-1.2-.7-.2-.2-.4-.3-.4-.4,0-.1-.1-.3-.2-.4,0-.3-.5-.7-.1-.7.1,0-.1-.2.3,0,0,0,.1,0,0,0-.6-.6,0-.6.1-.8,0-.2-.4-.7,0-.8-.5-.4-.3-.5,0-.5.8,0,.7-.6,1-1,.3-.3.5-.7.8-1.1,0,0-.2-.3,0-.2.3,0,.2-.1.2-.2,0,0,0-.2.2-.2.7.1.6-.4.9-.6.3-.2.5-.5.6-.8,0-.2,0-.6.2-.7.1,0,0-.3.4,0,.1,0-.1-.3-.1-.3,0-.1.2-.2.3-.3.1-.2.3-.3.4-.5,0-.1,0-.4,0-.5,0-.1.1-.2.3-.3.2,0,.4,0,.6-.1.2,0,.1-.4.4-.3.6.2.6-.2.9-.4.3-.2.5-.3.7-.6,0-.2.5.1.7,0,0,0,1.1,1,1.4,1.4,0,0,.1.2.1.2.2.5.6,1.1.4,1.2-.2.1-.4.3-.6.5Z"/>
    <path d="M338.2,343.1c0-.2-.1-.3-.3-.5,0,0,.1-.2-.4,0-.3,0,.3-.3.2-.3-.1-.1-.1-.3-.3-.4-.1-.1-.4-.1-.5-.2-.1-.1,0-.4-.3-.4-.3,0,0-.3-.1-.4-.2,0-.3-.1-.2-.4,0-.2.2-.4,0-.4,0,0-.4.1-.4,0,0,0,.2-.3-.4,0,0,0,0,0,0-.1.3-.3.2-.3,0-.2-.3.1-.3,0-.3,0-.1,0-.2-.2-.2-.3,0-.1.1-.3,0-.4,0-.1-.3,0-.1-.3.2-.3.1-.3,0-.4,0,0,.2-.3-.4,0,0,0,0,0,0,0,.5-.6-.4,0-.3-.3,0-.3-.2-.3-.3-.4,0,0,0-.2-.3,0-.1,0-.2,0-.1,0,.4-.5,0-.4,0-.5,0-.2-.3,0,0-.5.1-.2.1-.3-.3,0-.2.2,0,0-.2,0,0,0-.3.2-.3.1,0,0,.1-.2.2-.3,0,0,0,0,0,0-.6.3-.1-.5-.4-.5-.3,0-.4-.2-.5-.4,0-.1,0-.3.7-1.2.3-.4.7-.8,1-1,.2-.1.4-.3.5-.3.1,0,.3,0,.4,0,.2,0,.7-.3.6,0,0,0,.2,0,0,.3,0,0,0,0,0,0,.7-.4.5.1.7.2.2,0,.7-.2.7.1.5-.4.5-.2.5,0-.2.7.3.7.5,1,.2.3.5.6.7.9,0,0,.4-.1.2.1-.2.2,0,.2.1.2,0,0,.2,0,.1.2-.3.6.1.6.3.9.1.3.2.6.5.7.2,0,.6,0,.6.3,0,0,.3,0-.1.4-.1.1.3,0,.3,0,.1,0,.1.2.2.3,0,.1.1.3.3.4,0,0,.4,0,.5,0,.1,0,.2.2.2.3,0,.2-.1.4,0,.5,0,.2.3.2.2.4-.3.5,0,.6,0,.8,0,.3.1.5.4.7.1,0-.3.4-.2.6,0,0-1.3.8-1.7.9,0,0-.2,0-.2,0-.5,0-1.2.3-1.2.1,0-.2-.2-.4-.3-.6Z"/>
    <path d="M325.4,356.8c.2-.3.5-.5.7-.8,0-.1.4,0,0-.5-.2-.2.4.1.5,0,.2-.3.5-.5.6-.8.2-.3.2-.7.4-.9.2-.3.6-.3.6-.8,0-.4.5-.2.6-.5,0-.3.2-.5.6-.6.3,0,.5,0,.6-.2,0-.1-.1-.4,0-.5,0,0,.4,0,0-.5,0,0,0,0,.2,0,.4.2.5,0,.3-.2-.1-.3,0-.3,0-.4.2-.2.3-.4.6-.6.2-.1.5-.1.7-.2.2-.1.1-.5.5-.4.4,0,.5,0,.6-.2,0,0,.4,0,0-.5,0,0,0,0,0,0,.8.3.2-.6.6-.7.4,0,.5-.4.7-.7,0,0,.3,0,0-.4,0-.1,0-.2,0-.2.6.2.5-.2.8-.3.3-.1.3-.5.8-.4.2,0,.4,0,0-.5-.2-.2.1-.2.2-.3,0,0-.1-.3,0-.4,0,0,.3,0,.4,0,0,0,0,0,0,0-.2-.8.7-.5.9-.9.2-.4.5-.7.9-1,.2-.1.5-.2,1.4.5.4.3.8.7,1,1,.1.2.2.4.2.5,0,.2,0,.4,0,.5,0,.3.2.9-.2.9-.1,0,0,.3-.4,0,0,0-.1,0,0,0,.3.8-.3.7-.5,1.1-.2.3,0,.9-.4,1,.3.6.1.6-.1.6-.9,0-1,.8-1.5,1.2-.5.4-.9,1-1.4,1.4,0,0,.1.4-.2.3-.3,0-.2.2-.3.3,0,0,0,.3-.3.3-.8,0-.9.6-1.3.9-.4.3-.8.7-1,1.1-.1.3,0,.8-.4.9-.1,0,0,.4-.5,0-.1,0,.1.3,0,.4-.1.2-.3.3-.4.5-.2.2-.4.4-.6.7,0,.2,0,.5-.1.6,0,.2-.2.3-.4.4-.2.1-.5.2-.7.3-.2.1-.2.5-.6.5-.7,0-.8.5-1.1.8-.3.3-.7.6-.9,1-.1.2-.6,0-.8.2,0,0-1.3-.8-1.6-1.2,0,0-.1-.2-.1-.2-.2-.5-.6-1.1-.3-1.3.3-.2.6-.6.8-.9Z"/>
    <path d="M323,361.8c-.2-.2-.4-.4-.7-.6-.1,0,0-.3-.5,0-.2.2,0-.4,0-.4-.3-.1-.4-.4-.7-.5-.3-.1-.6-.1-.9-.2-.3-.1-.3-.5-.7-.4-.3,0-.2-.4-.5-.5-.3,0-.5,0-.6-.4,0-.2,0-.5-.3-.5-.1,0-.4.2-.5.1,0,0,0-.4-.4.1,0,0,0,0,0-.2.1-.4,0-.5-.2-.3-.2.2-.3.1-.3,0-.2,0-.4-.2-.6-.4-.1-.1-.2-.4-.3-.6-.1-.1-.4,0-.4-.3,0-.3-.1-.4-.3-.5,0,0,0-.4-.4.2,0,0,0,0,0,0,.2-.9-.6,0-.7-.3-.1-.3-.5-.3-.7-.4,0,0,0-.2-.3.2,0,.1-.2.1-.2,0,0-.7-.3-.4-.4-.6-.2-.2-.5,0-.5-.6,0-.2,0-.4-.4,0-.2.2-.2,0-.3,0,0,0-.3.2-.3.2,0,0,0-.3,0-.4,0,0,0,0,0,0-.6.5-.6-.5-1-.5-.4,0-.7-.2-1-.4-.2-.1-.3-.4,0-1.5.1-.5.3-1,.5-1.3.1-.2.3-.4.4-.4.2,0,.3-.1.5-.2.3,0,.7-.5.9-.1,0,.1.2-.1.1.4,0,0,0,.1,0,0,.6-.6.8,0,1.1,0,.3,0,.8-.4,1,0,.4-.5.5-.3.6,0,.3.9,1,.7,1.5,1.1.5.3,1.1.6,1.6.9,0,0,.3-.2.3,0,0,.3.2.2.3.2.1,0,.3,0,.3.2,0,.8.7.7,1.1,1,.4.3.7.6,1.2.7.3,0,.7,0,.9.2,0,.1.4,0,.1.5,0,.2.3-.2.4-.1.2,0,.3.2.5.3.2.2.4.4.7.5.2,0,.4,0,.6,0,.2,0,.3.2.4.3.1.2.2.5.3.7.1.2.5.1.5.5,0,.7.5.7.8,1,.3.3.6.6.9.8.2,0,0,.6.2.8,0,0-.8,1.3-1.2,1.6,0,0-.1.1-.2.1-.5.2-1.1.6-1.2.4-.2-.3-.5-.5-.8-.7Z"/>
    <path d="M315.1,370c-.2-.1-.4-.3-.6-.4,0,0,0-.3-.4,0-.2.2.1-.4,0-.4-.2,0-.4-.3-.6-.4-.2,0-.5,0-.8-.1-.2,0-.2-.5-.6-.3-.3.1-.2-.4-.4-.4-.2,0-.4,0-.5-.4,0-.2,0-.5-.2-.5-.1,0-.4.2-.4.1,0,0,0-.3-.4.1,0,0,0,0,0-.2.2-.4,0-.4-.2-.3-.2.2-.3.1-.3,0-.2,0-.4-.2-.5-.3,0-.1,0-.4-.2-.5,0-.1-.4,0-.3-.3,0-.3,0-.4-.2-.5,0,0,0-.3-.4.1,0,0,0,0,0,0,.3-.8-.5,0-.6-.4,0-.3-.4-.3-.6-.4,0,0,0-.2-.3.1-.1.1-.2,0-.1,0,.2-.6-.2-.4-.2-.6,0-.2-.4-.1-.3-.6,0-.2,0-.4-.4,0-.2.2-.1,0-.2,0,0,0-.3.2-.3.2,0,0,0-.2,0-.4,0,0,0,0,0,0-.6.4-.4-.5-.7-.6-.4,0-.6-.3-.8-.5-.1-.1-.1-.4.4-1.4.3-.4.6-.9.8-1.1.2-.2.4-.3.4-.3.1,0,.3,0,.4,0,.3,0,.7-.4.7,0,0,.1.2,0,0,.3,0,0,0,.1,0,0,.7-.5.6.1.9.2.2,0,.8-.3.8,0,.5-.4.5-.3.5,0,0,.8.6.7.9,1.1.3.3.8.5,1.1.9,0,0,.3-.2.2,0,0,.3.1.2.2.2,0,0,.2,0,.2.2,0,.8.4.6.7.9.3.3.5.5.9.6.2,0,.6-.1.7.1,0,.1.3-.1,0,.4,0,.2.3-.2.3-.1.2,0,.3.2.4.3.2.1.3.3.5.4.1,0,.4,0,.5,0,.1,0,.3.1.3.2,0,.2.1.4.2.6.1.2.4,0,.4.4,0,.6.4.6.6.8.2.2.5.5.8.5.2,0,0,.6.2.6,0,0-.7,1.3-1,1.7,0,0-.1.1-.2.2-.4.3-1,.8-1.1.6-.2-.2-.5-.4-.7-.5Z"/>
    <path d="M324,362.6c-.1,0-.3.2-.4.3,0,0-.2-.1,0,.3.1.2-.3-.2-.3-.2,0,.1-.2.2-.3.3,0,.1,0,.4,0,.5,0,.1-.4,0-.3.3.1.3-.3,0-.3.1,0,.2,0,.3-.3.2-.2,0-.4-.2-.4,0,0,0,.2.3.1.4,0,0-.3-.1.1.3,0,0,0,0-.1,0-.3-.2-.4-.2-.2,0,.2.2.1.2,0,.3,0,.1-.1.2-.2.3,0,0-.3,0-.4,0-.1,0,0,.3-.2.1-.3-.1-.3,0-.4,0,0,0-.3-.1.2.3,0,0,0,0,0,0-.7-.4,0,.4-.2.3-.3,0-.2.2-.3.3,0,0-.2,0,.1.3.1.1.1.2,0,0-.6-.3-.3,0-.5,0-.2,0,0,.3-.5.1-.2,0-.3,0,0,.3.2.2,0,0,0,.1,0,0,.2.3.2.3,0,0-.2,0-.3-.1,0,0,0,0,0,0,.4.5-.4.2-.4.4,0,.3-.1.4-.3.5-.1,0-.3,0-1.3-.5-.4-.3-.9-.6-1.2-.8-.2-.2-.3-.3-.4-.4,0-.1-.1-.2-.2-.3,0-.2-.4-.6-.1-.6,0,0-.1-.2.3,0,0,0,.1,0,0,0-.5-.6,0-.5,0-.7,0-.2-.4-.7,0-.6-.4-.5-.3-.5,0-.4.7.2.6-.4.9-.6.3-.2.4-.5.7-.7,0,0-.2-.3,0-.2.2.1.1,0,.2-.1,0,0,0-.2.1-.1.7.3.5-.2.8-.3.2-.1.4-.3.5-.6,0-.2,0-.5.1-.6,0,0,0-.3.4,0,.1.1-.1-.3-.1-.3,0-.1.1-.2.2-.2.1-.1.3-.2.3-.3,0,0,0-.3,0-.4,0-.1.1-.2.2-.2.1,0,.4,0,.5,0,.1,0,0-.3.3-.2.5.3.5,0,.7-.2.2,0,.4-.2.5-.4,0-.1.4.2.5.1,0,0,1,1.1,1.3,1.5,0,0,.1.2.1.2.2.4.5,1.1.4,1.1-.2,0-.3.2-.4.3Z"/>
    <path d="M298.6,372.7c-.1-.2-.3-.5-.5-.7,0,0,0-.3-.4-.1-.3,0,.2-.3.2-.4-.2-.2-.3-.4-.4-.6-.2-.2-.5-.3-.7-.5-.2-.2,0-.6-.5-.6-.3,0,0-.5-.2-.6-.2-.1-.4-.3-.3-.6,0-.2.2-.5,0-.5-.1,0-.4,0-.5,0,0,0,.2-.3-.4,0,0,0,0,0,0-.1.3-.3.2-.4,0-.3-.3,0-.3,0-.3,0-.1-.2-.3-.3-.3-.6,0-.2,0-.4,0-.6,0-.2-.4-.2-.2-.5.2-.3.1-.4,0-.5,0,0,.2-.3-.4,0,0,0,0,0,0,0,.6-.6-.5-.3-.4-.6,0-.3-.2-.5-.3-.7,0,0,0-.2-.3,0-.2,0-.2,0-.1,0,.5-.5,0-.5,0-.7,0-.3-.4-.3,0-.7.1-.2.2-.3-.4-.2-.3,0,0-.1-.2-.2,0,0-.3,0-.4,0,0,0,.2-.2.2-.3,0,0,0,0,0,0-.7,0,0-.7-.4-.9-.3-.2-.4-.5-.5-.9,0-.2,0-.4,1-1,.4-.3.9-.5,1.3-.6.2,0,.5,0,.6,0,.1,0,.3,0,.4.1.3,0,.8,0,.7.4,0,0,.3,0-.2.3,0,0,0,0,0,0,.8-.1.5.4.7.6.2.2.8.1.7.5.6-.2.6,0,.5.2-.4.7.3,1,.4,1.4.1.5.5.9.7,1.3,0,0,.4,0,.2.2-.2.2,0,.2.1.3,0,0,.2.1.1.3-.4.7.1.8.3,1.2.1.4.3.7.6,1,.2.2.6.2.6.4,0,.1.3,0-.1.4-.1.1.3,0,.4,0,.1.1.2.3.3.4.1.2.2.4.4.6.1,0,.4,0,.5.2.1,0,.2.2.2.4,0,.2,0,.5,0,.6,0,.2.4.2.2.5-.3.6.1.7.3,1,.1.3.3.6.6.8.2.1-.2.5,0,.7,0,0-1.1,1-1.6,1.2,0,0-.2,0-.2,0-.5.1-1.2.4-1.3.2-.1-.3-.3-.5-.5-.8Z"/>
    <path d="M312.2,368.9c-.2,0-.4.1-.6.3,0,0-.2-.2,0,.4,0,.3-.3-.3-.3-.2-.1.1-.4.1-.5.3-.1.1-.2.4-.4.5-.1.1-.4,0-.5.3,0,.3-.4,0-.4,0,0,.2-.2.3-.4.2-.2-.1-.4-.3-.4-.1,0,0,0,.4,0,.4,0,0-.3-.2,0,.4,0,0,0,0-.1-.1-.2-.3-.3-.3-.3,0,0,.3,0,.3,0,.3-.1,0-.3.2-.4.2-.1,0-.3-.2-.5-.2-.1,0-.1.3-.4,0-.2-.2-.3-.2-.4-.1,0,0-.2-.2,0,.4,0,0,0,0,0,0-.5-.7-.2.4-.5.3-.3-.1-.4.1-.5.2,0,0-.2-.1,0,.3,0,.2,0,.2,0,0-.4-.5-.4-.1-.5-.1-.2,0-.2.3-.6,0-.1-.2-.3-.2-.1.3,0,.3-.1,0-.1.1,0,0,0,.3,0,.4,0,0-.2-.2-.3-.3,0,0,0,0,0,0,0,.7-.5,0-.7.3-.2.3-.4.3-.7.3-.1,0-.4-.1-.9-1.1-.2-.5-.5-1-.5-1.3,0-.2-.1-.5,0-.5,0-.1,0-.3,0-.4,0-.2,0-.8.3-.6,0,0,0-.2.3.2,0,0,0,0,0,0-.1-.8.3-.4.5-.6.2-.1,0-.8.4-.6-.2-.6,0-.6.2-.4.6.5.8-.1,1.2-.2.4,0,.7-.3,1.1-.4,0,0,0-.4.2-.1.2.2.2,0,.2,0,0,0,0-.2.2,0,.5.5.7,0,1,0,.3,0,.6-.1.8-.4.1-.2.2-.6.4-.5,0,0,0-.3.3.2,0,.1,0-.3,0-.3,0,0,.2-.1.3-.2.2,0,.3,0,.5-.2,0,0,0-.3.2-.4,0-.1.2-.1.3-.1.2,0,.4.2.5.1.2,0,.2-.3.4-.1.4.4.6,0,.8,0,.3,0,.5-.1.7-.3.1-.1.4.3.6.2,0,0,.7,1.3.9,1.8,0,0,0,.2,0,.2,0,.5.2,1.2,0,1.2-.2,0-.4.2-.7.3Z"/>
    <path d="M372.8,326c-.8,0-1.5,0-2.3,0-.3,0-.6-.2-.8.3-.1.3-.4-.4-.7-.3-.7,0-1.4,0-2.1,0-.7,0-1.4.3-2,.4-.7,0-1.4-.2-2,.1-.1,0-.3,0-.4,0,0,0-.1,0-.2,0h-.4c-.5-.1-1-.2-1.4-.2-1,0-2-.3-2.5-1.2,0,0,0-.1,0-.2-.2-.6-.2-1.2-.3-1.7-.1-.4-.4-.7-.4-1.2,0-.2,0-.5,0-.6,0-.1,0-.3-.4-.4,0,0,0-.1.1-.2.4-.3.4-.6.1-.9-.3-.2-.2-.4-.2-.6,0-.6,0-1.2,0-1.8,0-.4.3-.9.4-1.3,0-.5-.2-1,0-1.4.2-.2.2-.4.3-.7,0-.3,0-.6,0-1,0-.4.3-.7-.1-1.3,0,0,0-.2,0-.2.5-.2.7-.6,1-1,.4-.5.7-1.1,1.5-1.1.3,0,.7,0,1,0h.9c.4-.1.7-.2,1.1-.3.2,0,.4.1.6-.3,0-.2.3-.2.4,0,.6.6,1.1.2,1.7.3.6,0,1.2-.2,1.9.3.3.2.6.3.9-.3.1-.3.5,0,.7,0,.2,0,.4-.3.6-.3.2,0,.3.2.5.3,0,0,.1,0,.2,0,.9-.7,1.8.3,2.7.1.9-.1,1.9,0,2.8.2.5,0,1,.3,1.2,1.5.1.5,0,1.1-.2,1.4-.2.2-.4.4-.6.5-.3,0-.6.2-.9.3-.6.1-1.2.6-1.7.3-.2,0-.4.2-.5-.3,0,0,0-.1-.1,0-.8.8-1.6.2-2.4.2-.7,0-1.3.7-2,.4-.4.6-.8.5-1.2.3-1.3-.6-2.7-.1-4-.1-.3,0-.6,0-.8,0h-.5c-.1,0-.2,0-.3.1,0,0,0,0,0,.1,0,0,.3.2,0,.2-.3,0,0,.1,0,.2,0,.2.1.5,0,.8-.7,1-.3,2.1-.4,3.2,0,.5,0,1.1,0,1.6,0,.3,0,.5,0,.8v.4s0,.2,0,.2h0c.1.4.4.3.3.4h0c0,.1.3-.2-.1.4,0,.2.3-.3.3-.3.1,0,.2,0,.2,0h.8c.3,0,.6,0,.9,0,.4,0,.8-.3,1.1-.4.4,0,.8,0,1.2,0,.5,0,1,.3,1.5.3.5,0,1.1-.2,1.6,0,.9.5,1.9.2,2.8.2.9,0,1.9,0,2.8,0,.5,0,1,.4,1.5.4.2,0,.6,1.5.5,2,0,0,0,.2,0,.2-.5.5-.9,1.2-1.5,1.2-.9,0-1.7,0-2.6,0Z"/>
    <path d="M368.5,330.4c0-.1.1-.2,0-.3,0,0,.3,0-.2-.2-.2-.1.4,0,.4,0,0-.1,0-.2,0-.3,0-.1-.2-.3-.2-.4,0-.1.3-.1,0-.3-.2-.2.3,0,.2-.2,0-.1-.2-.2,0-.2.2,0,.4,0,.3,0,0,0-.4-.2-.3-.2,0,0,.3,0-.3-.2,0,0,0,0,.1,0,.4,0,.4,0,.1,0-.3,0-.2-.1-.2-.1,0,0,0-.2,0-.2,0,0,.3,0,.4,0,0,0-.2-.2.1-.2.3,0,.3,0,.3-.1,0,0,.3,0-.3-.2,0,0,0,0,0,0,.8,0-.2-.2,0-.3.2,0,.1-.2,0-.3,0,0,.2,0-.3-.1-.2,0-.2,0,0,0,.6,0,.3-.1.4-.2.1,0-.1-.2.4-.2.2,0,.3,0-.2-.2-.3,0,0,0,0-.1,0,0-.3-.1-.3-.1,0,0,.2,0,.3,0,0,0,0,0,0,0-.6-.2.3-.2.1-.4-.2-.2,0-.3,0-.4,0,0,.3-.1,1.4,0,.5,0,1.1.1,1.4.2.2,0,.5.1.5.2,0,0,.2.1.3.2.2.1.7.3.4.3,0,0,.2,0-.3,0,0,0-.1,0,0,0,.8.2.2.3.3.4,0,.1.6.3.3.4.6.2.5.2.3.3-.7,0-.3.4-.4.6-.1.2,0,.4-.2.7,0,0,.3.1,0,.1-.3,0,0,0,0,.1,0,0,.1.1,0,.1-.7,0-.3.3-.4.4-.1.2-.2.3-.1.5,0,.1.4.3.2.4,0,0,.2.2-.3,0-.2,0,.3.1.3.2,0,0,0,.1,0,.2,0,0-.1.2,0,.3,0,0,.2.2.3.3,0,0,0,.1,0,.2,0,0-.3,0-.4.1,0,0,.1.2-.1.2-.5,0-.3.2-.4.3-.1.1-.2.3-.1.4,0,.1-.5,0-.5,0,0,0-1.4-.4-1.9-.6,0,0-.2,0-.2,0-.4-.2-1.1-.5-1-.6.1,0,.1-.2.1-.3Z"/>
    <path d="M357.8,330.9c.3,0,.6-.1.8-.2,0,0,.3.2.2-.4,0-.3.2.3.3.3.2-.1.5,0,.8-.2.2-.1.4-.4.7-.5.2-.1.5.1.7-.2.2-.3.4.2.6,0,.2-.2.4-.3.6,0,.2.2.4.4.5.2,0,0,.1-.4.2-.4,0,0,.2.3.2-.4,0,0,0,0,0,.1.1.4.3.4.3,0,0-.3.1-.3.2-.3.2,0,.4-.1.7,0,.2,0,.3.3.5.3.2,0,.3-.3.5,0,.2.3.3.3.5.3,0,0,.2.3.2-.4,0,0,0,0,0,0,.3.8.5-.3.7,0,.3.2.5,0,.8,0,0,0,.1.2.2-.3,0-.2,0-.2.1,0,.2.6.4.2.6.4.2.1.5-.2.7.3,0,.2.2.3.4-.3,0-.3.2,0,.3,0,0,0,.2-.3.2-.3,0,0,.1.2.2.4,0,0,0,0,0,0,.4-.6.6.3,1,.1.4-.2.7,0,1,0,.2,0,.4.3.3,1.4,0,.5,0,1.1-.2,1.4,0,.2-.2.5-.2.5-.1,0-.2.2-.3.3-.2.2-.5.7-.6.4,0,0-.2.2-.2-.3,0,0,0-.1,0,0-.3.8-.6.2-.8.3-.2,0-.5.7-.7.4-.2.6-.3.5-.4.3-.4-.7-.9-.2-1.4-.3-.5,0-.9,0-1.4,0,0,0-.1.4-.2,0,0-.3-.2,0-.3,0,0,0-.2.1-.3,0-.4-.6-.7-.2-1.1-.2-.4,0-.7,0-1.1.1-.2.1-.4.5-.6.4-.1,0-.2.3-.3-.3,0-.2,0,.3-.1.3-.1,0-.3,0-.4,0-.2,0-.4,0-.6.1-.1,0-.2.3-.3.4-.1,0-.2.1-.4,0-.2,0-.4-.2-.6-.2-.2,0-.3.3-.5,0-.4-.4-.7-.1-1,0-.3,0-.6,0-.9.3-.1.1-.4-.3-.6-.3,0,0-.6-1.4-.7-1.8,0,0,0-.2,0-.2,0-.5,0-1.2.2-1.3.3,0,.6-.2.9-.2Z"/>
    <path d="M355.4,343.5c0-.2,0-.3,0-.5,0,0,.2-.1-.3-.2-.3,0,.4,0,.3-.2,0-.2,0-.3,0-.5,0-.2-.3-.3-.3-.5,0-.2.2-.3,0-.5-.3-.1.2-.2.1-.4-.1-.1-.2-.3,0-.4.2,0,.4-.2.3-.3,0,0-.4-.1-.4-.2,0,0,.3-.1-.3-.2,0,0,0,0,.1,0,.4,0,.4-.1.1-.2-.3,0-.2,0-.3-.1,0-.1,0-.3,0-.4,0,0,.3-.2.3-.3,0-.1-.2-.2,0-.3.3,0,.3-.2.3-.3,0,0,.3-.1-.3-.2,0,0,0,0,0,0,.8-.1-.3-.3,0-.4.2-.2,0-.3,0-.5,0,0,.2,0-.3-.1-.2,0-.2,0,0,0,.6-.1.2-.2.4-.4.1-.1-.2-.3.3-.4.2,0,.3-.1-.3-.2-.3,0,0,0,0-.1,0,0-.3,0-.3-.1,0,0,.2,0,.3-.1,0,0,0,0,0,0-.7-.2.2-.4,0-.6-.2-.2-.1-.4,0-.6,0-.1.2-.2,1.4-.3.5,0,1.1,0,1.4,0,.2,0,.5,0,.5.1,0,0,.2.1.3.2.2.1.7.3.4.4,0,0,.2,0-.3.1,0,0-.1,0,0,0,.8.2.3.4.3.5,0,.2.7.3.4.5.6,0,.5.2.3.3-.7.3-.2.6-.3.9,0,.3,0,.6,0,.9,0,0,.4,0,0,.2-.3,0,0,.1,0,.2s.1.1,0,.2c-.7.2-.3.5-.3.7,0,.2-.1.5,0,.7,0,.1.4.3.3.4,0,0,.3.1-.3.2-.2,0,.3,0,.3.1,0,.1,0,.2,0,.3s0,.3,0,.4c0,0,.3.2.3.3,0,0,0,.2,0,.3,0,.1-.3.2-.3.3,0,.1.2.2,0,.4-.5.2-.3.4-.3.6,0,.2-.1.4,0,.6,0,.1-.4.2-.4.3,0,0-1.5.1-2,.1,0,0-.2,0-.2,0-.5-.1-1.2-.2-1.1-.3,0-.2,0-.4,0-.6Z"/>
    <path d="M375.3,344.1c-.3,0-.6.1-1,.2-.1,0-.3-.2-.3.4,0,.3-.2-.3-.4-.3-.3.1-.6,0-.9.2-.3.1-.5.4-.8.5-.3.1-.6-.1-.9.2-.2.3-.5-.2-.7,0-.2.2-.5.3-.8,0-.2-.2-.4-.4-.6-.2-.1,0-.2.4-.3.4-.1,0-.3-.3-.3.4,0,0,0,0,0-.1-.2-.4-.3-.4-.4,0,0,.3-.2.3-.3.3-.3,0-.5,0-.8,0-.2,0-.4-.3-.6-.3-.2,0-.4.2-.6,0-.2-.3-.4-.3-.5-.3-.1,0-.2-.3-.3.4,0,0,0,0,0,0-.3-.8-.6.3-.9,0-.3-.2-.6,0-.9,0,0,0-.2-.2-.3.3,0,.2-.1.2-.2,0-.2-.6-.5-.3-.7-.4-.3-.1-.5.1-.8-.4-.1-.2-.2-.3-.4.2,0,.3-.2,0-.3,0,0,0-.2.3-.3.3,0,0-.1-.2-.2-.4,0,0,0,0,0,0-.4.6-.8-.3-1.2-.1-.4.1-.8,0-1.2-.1-.2,0-.4-.3-.4-1.4s0-1.1.2-1.4c0-.2.2-.4.3-.5.1,0,.3-.2.4-.3.3-.2.5-.7.8-.4,0,0,.2-.2.2.3,0,0,0,.1,0,0,.4-.8.7-.2,1-.2.3,0,.6-.6.9-.4.2-.6.4-.5.5-.3.5.7,1.1.3,1.6.4.6.1,1.1,0,1.7,0,0,0,.2-.4.3,0,.1.3.2,0,.4,0,.1,0,.2-.1.3,0,.5.6.9.2,1.3.3.4,0,.9,0,1.3-.1.3-.1.5-.5.8-.4.1,0,.2-.3.4.3,0,.2.1-.3.2-.3.2,0,.4,0,.5,0,.3,0,.5,0,.7-.1.1,0,.3-.3.4-.4.1,0,.3-.1.5,0,.2,0,.4.2.7.2.2,0,.4-.3.6,0,.5.4.8.1,1.2,0,.4,0,.8,0,1.1-.3.2-.1.5.3.7.3,0,0,.6,1.4.7,1.9,0,0,0,.2,0,.2,0,.5-.1,1.3-.4,1.3-.4,0-.7.2-1.1.2Z"/>
    <path d="M375.1,354c-.4,0-.8,0-1.2.2-.1,0-.3-.2-.4.3,0,.3-.3-.3-.4-.3-.4.1-.7,0-1.1.1-.4,0-.7.3-1,.4-.4,0-.7-.2-1.1.1-.3.3-.6-.2-.9,0-.3.1-.6.2-.9,0-.2-.2-.4-.4-.6-.3-.1,0-.3.4-.4.4-.1,0-.3-.3-.4.3,0,0,0,0-.1-.1-.1-.4-.3-.4-.4-.1-.1.3-.2.2-.3.2-.3,0-.6,0-.9,0-.2,0-.4-.3-.7-.4-.2,0-.5.2-.7-.1-.2-.3-.4-.3-.6-.3-.1,0-.2-.3-.4.3,0,0,0,0,0,0-.3-.8-.7.2-1,0-.3-.2-.7-.1-1.1-.2,0,0-.2-.2-.3.2,0,.2-.2.2-.2,0-.2-.7-.5-.3-.8-.5-.3-.2-.7,0-.9-.5-.1-.2-.3-.4-.5.2-.1.3-.2,0-.4,0-.1,0-.2.3-.3.3,0,0-.1-.3-.2-.4,0,0,0,0,0,0-.6.6-.9-.4-1.4-.3-.5,0-1,0-1.4-.3-.2-.1-.5-.4-.4-1.5,0-.5.2-1.1.4-1.4.1-.2.3-.4.4-.5.2,0,.3-.2.5-.2.3-.1.7-.6.9-.2,0,.1.2-.2.2.3,0,0,0,.1,0,0,.5-.7.8-.1,1.2,0,.3,0,.8-.6,1.1-.2.3-.6.5-.5.6-.2.6.8,1.3.4,1.9.6.7.2,1.3.1,2,.2.1,0,.2-.3.4,0,.1.3.3,0,.4,0,.1,0,.3-.1.4,0,.5.7,1.1.3,1.6.4.5,0,1.1.2,1.6,0,.3-.1.6-.4,1-.3.1,0,.3-.3.4.3,0,.2.2-.3.2-.3.2,0,.4,0,.7,0,.3,0,.6,0,.9,0,.2,0,.4-.3.5-.4.2,0,.4,0,.6,0,.3,0,.5.2.8.3.3,0,.5-.3.8,0,.5.5.9.2,1.4.2.5,0,.9,0,1.4-.2.2-.1.6.4.8.3.1,0,.5,1.4.6,1.9,0,0,0,.2,0,.2-.2.5-.3,1.3-.6,1.3-.5,0-.9.1-1.3.2Z"/>
    <path d="M360,347.2c0,0-.2.1-.2.3,0,0-.2,0,.1.3.2.2-.3-.2-.3-.1,0,.1-.2.1-.2.3,0,.1,0,.3,0,.5,0,.1-.3,0-.1.3.2.2-.3,0-.2.1,0,.1,0,.3-.2.2-.2,0-.4-.1-.3,0,0,0,.3.3.2.3,0,0-.3-.1.2.3,0,0,0,0-.1,0-.4-.2-.4-.1-.2,0,.2.2.2.2.2.2,0,0,0,.2-.1.2,0,0-.3,0-.4,0,0,0,.1.2-.2.1-.3-.1-.3,0-.3,0,0,0-.3,0,.2.3,0,0,0,0,0,0-.8-.4.1.3-.1.3-.2,0-.2.1-.2.2,0,0-.2,0,.2.2.1,0,.1.1,0,0-.6-.3-.3,0-.4,0-.1,0,0,.2-.4,0-.2,0-.3,0,.2.3.2.2,0,0,0,.1,0,0,.3.2.2.2,0,0-.2,0-.3-.1,0,0,0,0,0,0,.5.4-.3.1-.2.3,0,.2,0,.3-.2.4,0,0-.3,0-1.3-.5-.5-.2-1-.5-1.2-.6-.2-.1-.4-.3-.4-.3,0,0-.2-.2-.2-.3-.1-.2-.6-.5-.3-.5,0,0-.2-.2.3,0,0,0,.1,0,0,0-.6-.5-.1-.4,0-.5,0-.1-.5-.5-.2-.5-.5-.4-.4-.4-.2-.3.7.1.4-.3.6-.5.2-.2.3-.4.4-.6,0,0-.3-.3,0-.1.2.1.1,0,.1,0,0,0,0-.2,0-.1.7.2.4-.2.6-.3.2-.1.3-.2.3-.5,0-.1-.2-.4,0-.5,0,0-.2-.3.3,0,.1,0-.2-.2-.2-.3,0,0,0-.1.1-.2,0,0,.2-.1.2-.3,0,0-.1-.3-.1-.4,0,0,0-.1.1-.2.1,0,.3,0,.4,0,.1,0,0-.3.2-.2.5.2.4,0,.6-.2.1,0,.3-.2.3-.4,0-.1.4.2.5,0,0,0,1.2.9,1.5,1.3,0,0,.1.1.2.2.3.4.8.9.7.9-.1,0-.2.2-.3.3Z"/>
    <path d="M395.9,335.3c-.4.4-.7.7-.9,1.1,0,.1-.4,0-.1.6.1.2-.4,0-.5,0-.2.4-.6.6-.8,1-.2.3-.4.8-.6,1.1-.2.3-.7.4-.8,1,0,.4-.6.3-.8.6-.2.3-.3.7-.7.7-.3,0-.6,0-.7.3,0,.2,0,.5,0,.6-.1,0-.4,0,0,.6,0,0-.1,0-.2,0-.4-.2-.5,0-.4.3,0,.3,0,.4,0,.5-.2.3-.5.5-.7.7-.2.2-.6.2-.8.3-.2.1-.2.6-.6.5-.4,0-.6.1-.7.3-.1,0-.4,0,0,.5,0,0,0,0,0,0-.9-.3-.4.7-.8.9-.4.1-.7.5-.9.9,0,0-.3,0,0,.4,0,.1,0,.2-.1.2-.7-.2-.6.3-.9.4-.3.2-.4.6-1,.5-.3,0-.5,0-.2.6.1.3-.2.2-.3.3,0,.1,0,.4,0,.5,0,0-.3,0-.4,0,0,0,0,0,0,0,0,.9-.9.6-1.2,1.1-.3.5-.7.8-1.2,1.1-.3.2-.6.2-1.5-.5-.4-.3-.8-.7-.9-1.1,0-.2-.2-.5-.1-.6,0-.2,0-.4.2-.6.1-.4,0-1,.5-1,.1,0,0-.3.4,0,0,0,.1,0,.1,0-.2-.9.5-.9.8-1.2.3-.3.1-1,.6-1.1-.3-.6,0-.7.3-.7,1.1,0,1.3-1,2-1.5.7-.5,1.2-1.1,1.8-1.7.1,0,0-.4.3-.4.3,0,.3-.2.4-.3.1-.1.1-.3.4-.3.9,0,1.1-.7,1.6-1.1.5-.4,1-.8,1.3-1.4.2-.4.2-.9.6-1.1.2,0,0-.4.6-.2.2,0,0-.3,0-.4.1-.2.4-.4.5-.6.3-.3.5-.5.8-.8.1-.2.1-.5.2-.7.1-.2.3-.4.5-.5.3-.2.6-.2.9-.4.3-.2.3-.6.7-.6.8,0,.9-.7,1.4-1,.4-.3.6-.6.6-.8-.1,0,.3,0,.4,0,.2,0,.3,0,.3,0h0s.1,0,.2,0c0,0,.2,0,.3-.1.4-.2.8-.5,1-.6,0,0,.2,0,.2,0,.3.1.7.3,1,.7.3.3.4.7.3,1.1-.4,1-.8,1.5-1.2,2.1Z"/>
    <path d="M358.4,271.2c-.9-1-1.8-2-2.8-3-.4-.4-.5-.9-1.2-1-.4,0-.2-.8-.5-1.1-.9-.9-1.6-1.9-2.5-2.9-.8-.9-1.8-1.7-2.6-2.6-.8-.9-1.4-2-2.4-2.7-.9-.6-1.1-1.6-1.8-2.2-.8-.7-1.5-1.4-2-2.2-.4-.6-.7-1.3-1.3-1.7-.4-.3-.9-.3-1.2-.7-.3-.3-.5-.9-1.2-.7,0,0-.1-.2-.1-.3,0-.6-.5-1-1-1.1-.5,0-.7-.3-1-.5-.8-.6-1.6-1.2-2.3-1.8-.6-.5-1-1.1-1.6-1.6-.6-.5-1.4-.7-1.9-1.3-.5-.6-1-1-1.7-1.3-.3-.2-.6-.7-1.2-.2,0,0-.2,0-.2-.1-.7-1.2-2.1-.7-3.1-1.2-.5-.3-1.1-.5-1.6-.6-.6-.2-1.1-.3-1.7-.4-.3,0-.6-.3-.9,0-.1.1-.4.1-.6,0-.7-.8-1.7-.5-2.5-.6-.5,0-1,0-1.5,0-.5,0-1,0-1.5-.3-.4-.2-1-.2-1.5.4-.2.3-.7.1-1.1.2-.3,0-.5.4-.8.5-.2,0-.5-.1-.8-.2,0,0-.2,0-.2,0-1.2,1-2.8.6-4,1.4-1.2.8-2.4,1.5-3.6,2.4-.7.4-1.3.9-2.5.5-.6-.2-1-.5-1-1,0-.4,0-.8.3-1,.3-.5.6-.9,1-1.3.3-.4.7-.9,1.1-1.3.4-.4.8-.8,1.4-1,.4-.1.6-.6,1.1-.3,0,0,.2,0,.3,0,.5-.7,1.2-1.1,1.9-1.4.7-.3,1.5-.4,2.3-.7,1.2-.4,2.4-1.3,3.8-1.2.6-.7,1.6-.7,2.3-.6,2.7.5,5.3.3,7.8.9,2.6.6,5.1,1.5,7.5,2.6.4.2.9,0,1.2.5.3.5,1,.6,1.5.9.4.3,1,.4,1.3.8,1.4,1.6,3.2,2.5,4.7,3.8,1.5,1.3,3,2.7,4.5,3.9.9.8,2,1.4,2.8,2.3.3.4.9.6.8,1.3,0,.2.6.3.9.5.6.6,1.1,1.2,1.7,1.8.8.9,1.5,1.7,2.2,2.6.5.5,1.1.9,1.6,1.3.5.5,1,1.1,1.4,1.6.5.7.9,1.6,1.5,2.3.6.8,1.4,1.3,1.8,2.2.7,1.6,2,2.6,3.1,3.9,1.1,1.2,2.2,2.4,3.4,3.5.7.6,1,1.5,1.7,2.1.3.3-.2,1.8-.7,2,0,0-.2,0-.3,0-1-.3-2.1-.3-2.8-1-1.1-1.1-2.2-2.2-3.3-3.3Z"/>
    <path d="M398.2,325.6c.2-1,.4-2.1.4-3.2,0-.4.3-.8-.3-1.2-.3-.2.4-.6.3-1,0-.5,0-1-.1-1.5,0-.5,0-1-.2-1.5-.2-1-.6-1.9-.9-2.8-.3-.9-.3-2-.9-2.8-.6-.7-.3-1.5-.7-2.2-.4-.7-.9-1.5-1-2.3,0-.6-.2-1.2-.6-1.7-.2-.3-.7-.4-.9-.8-.2-.3-.2-.8-.9-.8,0,0,0-.2,0-.3.1-.6-.2-.9-.6-1.1-.4-.1-.5-.4-.7-.6-.5-.6-1.1-1.3-1.6-2-.4-.5-.6-1.1-1-1.7-.4-.5-1.1-.9-1.3-1.5-.2-.7-.7-1.1-1.1-1.5-.2-.2-.3-.7-1-.5,0,0-.1,0-.2-.2-.2-1.3-1.6-1.2-2.2-2-.6-.9-1.5-1.5-2.3-2.2-.2-.2-.3-.5-.8-.4-.2,0-.4-.1-.4-.3-.2-1-1.1-1.2-1.6-1.9-.6-.7-1.5-1.1-1.9-2-.2-.4-.5-.8-1.3-.7-.3,0-.5-.4-.8-.6-.2-.1-.6,0-.9-.3-.2-.1-.2-.5-.3-.7,0,0-.1-.1-.2-.1-1.5-.3-2-1.8-3.2-2.5-1.2-.7-2.3-1.6-3.3-2.5-.6-.5-1.1-1.1-.9-2.3.1-.6.4-1,.9-1.1.3,0,.7,0,.9,0,.4.2.9.3,1.3.5.8.4,1.9.5,2.4,1.3.2.2.6.2.5.8,0,0,0,.2.1.2,1.5.1,2.2,1.3,3.2,2,.9.6,2.1.8,2.7,1.7.9-.1,1.3.4,1.7.9,1.2,1.9,3.1,2.9,4.7,4.4,1.6,1.5,3.2,2.9,4.7,4.4.3.3.7.2.9.7.1.5.6.7,1,1,.3.3.7.6.9,1,.7,1.7,2.1,2.7,3.2,4.1l.8,1,.7,1.1c.5.7,1,1.4,1.5,2.1.6.9,1.5,1.6,1.8,2.7.2.4.7.7.3,1.4,0,.2.5.4.6.7.3.7.6,1.3.8,2,.4,1,.6,2,1,2.9.2.6.6,1.1.8,1.7.2.6.3,1.3.4,2,0,.8,0,1.7,0,2.5,0,.9.3,1.8,0,2.6-.3.8-.3,1.5-.4,2.3,0,.8,0,1.5-.3,2.3-.2.8-.3,1.5-.5,2.3-.2.7-.4,1.5-.6,2.2-.1.4-.4.8-.6,1.1-.3.3-.6.7-.7,1-.2.4-1.7.2-2.1-.2,0,0-.1-.2-.1-.2-.1-.9-.4-1.8-.1-2.5.5-1.1.8-2.3,1-3.5Z"/>
    <path d="M329.7,301c-.2,0-.5,0-.7.1,0,0-.2-.2-.2.3,0,.3-.2-.3-.3-.3-.2.1-.4,0-.6.2-.2.1-.4.4-.5.5-.2.1-.5-.1-.6.2,0,.3-.4-.1-.5,0-.1.2-.3.3-.5.1-.2-.1-.4-.3-.4-.2,0,0,0,.4-.1.4,0,0-.3-.2-.1.4,0,0,0,0-.1-.1-.2-.4-.3-.3-.3,0,0,.3,0,.3-.1.3-.2,0-.3.2-.5.2-.1,0-.3-.2-.5-.2-.2,0-.2.3-.4,0-.2-.2-.3-.2-.5-.1,0,0-.3-.2,0,.4,0,0,0,0,0,0-.5-.7-.3.4-.6.3-.3-.1-.4.1-.6.2,0,0-.2-.1,0,.3,0,.2,0,.2,0,.1-.4-.5-.4,0-.6-.1-.2,0-.3.3-.6,0-.2-.1-.3-.2-.1.4,0,.3-.1,0-.2.1,0,0,0,.3,0,.4,0,0-.2-.2-.3-.2,0,0,0,0,0,0,0,.7-.6,0-.7.4-.2.3-.4.4-.7.4-.2,0-.4,0-1.1-1-.3-.4-.6-.9-.7-1.2,0-.2-.1-.5-.1-.5,0-.1,0-.3,0-.4,0-.3,0-.8.3-.7,0,0,0-.3.3.2,0,0,0,0,0,0-.1-.8.4-.5.6-.7.2-.2.1-.8.4-.7-.2-.6,0-.6.2-.5.7.4,1-.2,1.4-.3.5-.1.9-.4,1.4-.5,0,0,0-.4.2-.2.2.2.2,0,.3,0,0,0,.1-.2.3,0,.6.5.8,0,1.2,0,.4,0,.8-.1,1.1-.4.2-.2.3-.6.6-.5.1,0,.1-.3.4.2,0,.2,0-.3,0-.3.1,0,.3,0,.5-.1.2,0,.4,0,.6-.2.1,0,.2-.3.3-.4.1,0,.3-.1.4,0,.2,0,.4.2.6.2.2,0,.3-.3.6,0,.4.4.7.1,1,.1.3,0,.7,0,1-.2.2,0,.4.4.6.4,0,0,.4,1.4.4,1.9,0,0,0,.2,0,.2-.1.5-.2,1.2-.3,1.2-.3,0-.5,0-.8,0Z" fill="#00b4e9"/>
    <path d="M357.1,298.1s0,0-.2,0c0,0,0-.2-.2.3,0,.3,0-.4,0-.4-.1,0-.2,0-.3,0-.1,0-.2.3-.4.3-.1,0-.2-.3-.4,0-.1.3-.2-.2-.3-.1-.1.1-.2.2-.4,0,0-.2-.2-.4-.3-.3,0,0-.1.4-.2.4,0,0-.1-.3-.2.3,0,0,0,0,0-.1,0-.4-.1-.4-.2-.1,0,.3,0,.2-.1.3-.1,0-.2,0-.4,0,0,0-.2-.3-.3-.3,0,0-.2.2-.3,0-.1-.3-.2-.3-.3-.3,0,0-.1-.3-.1.4,0,0,0,0,0,0-.2-.8-.3.3-.4,0-.2-.2-.3,0-.4,0,0,0,0-.2,0,.3,0,.2,0,.2,0,0-.2-.6-.2-.2-.4-.3-.1-.1-.2.2-.4-.3,0-.2-.2-.3-.2.3,0,.3,0,0-.1,0,0,0,0,.3,0,.3,0,0,0-.2-.1-.3,0,0,0,0,0,0,0,.7-.4-.2-.6,0-.2.2-.4.2-.6.1-.1,0-.3-.2-.5-1.3-.1-.5-.2-1-.2-1.4,0-.2,0-.5,0-.5,0-.1,0-.2.1-.4,0-.2.1-.8.3-.5,0,0,0-.2.2.3,0,0,0,.1,0,0,0-.8.3-.3.5-.4.2,0,.2-.7.4-.5,0-.6.1-.5.3-.4.4.6.7.1,1,.2.3,0,.7,0,1,0,0,0,0-.4.2,0,0,.3.1,0,.2,0,0,0,.1-.1.2,0,.3.6.5.2.8.3.3,0,.5.1.8,0,.2-.1.3-.4.5-.3,0,0,.1-.3.2.3,0,.2,0-.3.1-.3.1,0,.2,0,.3,0,.2,0,.3,0,.5,0,.1,0,.2-.3.4-.3.1,0,.3,0,.4,0,.1,0,.3.3.4.4.2,0,.4-.1.5.2.2.6.5.4.8.6.3.2.6.4.9.6.2.1,0,.6.1.7,0,0-1,1.1-1.5,1.3,0,0-.2.1-.2.1-.4.2-1,.7-.9.7,0,0,0,0,0,0Z" fill="#00b4e9"/>
    <path d="M338.6,322.1c-.2,0-.5,0-.7,0,0,0-.2-.2-.3.3,0,.3-.1-.4-.2-.3-.2,0-.4,0-.6,0-.2,0-.4.3-.6.4-.2,0-.4-.2-.6.1-.1.3-.3-.2-.5,0-.2.1-.3.2-.5,0-.1-.2-.3-.4-.4-.2,0,0-.1.4-.2.4,0,0-.2-.3-.2.4,0,0,0,0,0-.1-.1-.4-.2-.4-.3,0,0,.3,0,.3-.2.3-.2,0-.3.1-.5,0-.1,0-.3-.2-.4-.3-.1,0-.2.3-.4,0-.2-.3-.3-.2-.4-.2,0,0-.2-.3-.1.4,0,0,0,0,0,0-.3-.8-.3.3-.6.2-.2-.2-.4,0-.6,0,0,0-.2-.2-.1.3,0,.2,0,.2,0,0-.3-.6-.4-.2-.5-.2-.2,0-.3.2-.6-.2-.1-.2-.3-.3-.2.3,0,.3-.1,0-.2.1,0,0,0,.3,0,.4,0,0-.1-.2-.2-.3,0,0,0,0,0,0,0,.7-.6,0-.8.2,0,0,0,0,0,0,0,0-.1-.3-.2-.5-.2-.4-.4-.7-.6-.8-.2-.2-.3-.2-.2-.2h0s0,0,0,0c-.1,0-.3,0-.4,0-.2,0-.5,0-.6,0-.2,0-.5-.3-.4-.5,0-.3,0-.6.2-.9.2-.5.3-1.1.8-1,.1,0,.2-.3.4.2,0,0,0,0,0,0,0-.9.5-.4.7-.5.2-.1.3-.8.6-.6,0-.6.1-.6.3-.4.6.6.9,0,1.4,0,.5,0,.9-.2,1.4-.2,0,0,0-.4.2-.1.1.2.2,0,.3,0,0,0,.2-.2.3,0,.5.6.7.1,1.1.2.4,0,.7,0,1.1-.2.2-.1.4-.5.6-.4,0,0,.2-.3.3.3,0,.2,0-.3.1-.3.1,0,.3,0,.4,0,.2,0,.4,0,.6,0,.1,0,.2-.3.4-.4.1,0,.3,0,.4,0,.2,0,.4.3.5.3.2,0,.4-.2.5,0,.3.5.6.2.9.3.3,0,.6,0,.9,0,.2,0,.3.4.5.4,0,0,.1,1.5.1,2,0,0,0,.2,0,.2-.2.5-.3,1.2-.5,1.1-.3,0-.5,0-.8,0Z" fill="#00b4e9"/>
    <path d="M296,469.6c.3-1.7.6-3.4.8-5.1,0-.6.4-1.2,0-2-.2-.4.5-.9.6-1.5.2-1.6.5-3.2.6-4.8.1-1.6.1-3.1.2-4.7.1-1.5.6-3.1.4-4.6-.1-1.3.4-2.4.4-3.7,0-1.3,0-2.7.4-3.9.2-.9.5-1.8.5-2.8,0-.6-.3-1.1-.2-1.8,0-.6.4-1.2-.2-1.8,0,0,0-.3.2-.4.4-.6.5-1.4.2-1.9-.2-.5-.2-1-.2-1.5,0-1.3,0-2.6.2-3.9,0-1,.3-2,.4-2.9,0-1-.1-2.1.2-3.1.3-.9.3-1.9.3-2.8,0-.5.3-1.1-.3-1.6,0,0,0-.2,0-.3.9-1.5-.2-3,0-4.5.2-1.6,0-3.2,0-4.8,0-.4.2-.9-.3-1.3-.2-.1-.2-.6,0-.8.6-1.2.2-2.4.3-3.7,0-1.4-.3-2.8.1-4.2.2-.6.3-1.4-.4-2.1-.3-.3,0-1-.1-1.5,0-.4-.4-.8-.4-1.2,0-.4.2-.7.3-1.1,0-.1,0-.2,0-.3-.8-2,0-4-.4-6.1-.3-2-.4-4.1-.6-6.2,0-1.1,0-2.3,1.1-3.2.5-.4,1-.5,1.4,0,.3.3.5.7.6,1.1.2.6.3,1.3.5,1.9.3,1.3,1,2.6.8,4,0,.4.3.9-.2,1.3,0,0,0,.2,0,.3.9,1.8.6,3.7.7,5.6.1,1.6.9,3.1.7,4.7.7.8.6,1.9.5,2.8-.3,1.6-.3,3.2-.2,4.7,0,1.6.2,3.1.2,4.7,0,3.2,0,6.4,0,9.6,0,.5.3,1,0,1.6-.3.6,0,1.4,0,2.1,0,.6.1,1.3,0,1.9-.7,2.5-.4,5-.6,7.5-.2,2.5-.4,5-.4,7.5,0,1.5.2,3.1,0,4.6,0,.6.2,1.4-.5,2-.2.2.2.8.2,1.2,0,1-.2,2.1-.3,3.1-.1,1.4-.3,2.9-.4,4.3,0,.9,0,1.8,0,2.7,0,.9-.2,1.9-.3,2.8-.2,1.2-.6,2.3-.8,3.4-.2,1.2-.1,2.5-.6,3.6-.8,2.1-.9,4.2-1.3,6.4-.4,2.1-.8,4.2-1.1,6.3-.2,1.2-.8,2.2-1.1,3.4,0,.5-1.7,1-2.1.7,0,0-.2-.2-.2-.3-.2-1.2-.8-2.4-.5-3.7.4-1.9.7-3.8,1-5.8Z"/>
    <path d="M350.8,447.2c.3-1.8.5-3.6.6-5.4,0-.7.4-1.3,0-2.1-.2-.4.5-1,.5-1.6,0-1.7.3-3.4.3-5.1,0-1.7-.1-3.3,0-5,0-1.7.4-3.3.1-4.9-.2-1.4.3-2.6.2-3.9,0-1.4-.1-2.9.2-4.2.2-1,.4-2,.4-3,0-.6-.4-1.2-.3-1.9,0-.6.3-1.3-.3-1.9,0,0,0-.3.2-.5.4-.7.4-1.5.1-2.1-.3-.6-.2-1-.2-1.6,0-1.4,0-2.8,0-4.2,0-1.1.3-2.1.3-3.2,0-1.1-.2-2.3,0-3.3.3-1,.3-2,.3-3,0-.6.3-1.2-.4-1.7,0,0,0-.3,0-.3.8-1.6-.4-3.1-.3-4.7,0-1.7-.3-3.3-.6-4.9,0-.4,0-.9-.5-1.2-.2-.1-.3-.5-.2-.8.3-1.3-.4-2.4-.7-3.6-.3-1.4-1.2-2.5-1.4-3.9,0-.6-.4-1.4-1.3-1.6-.4-.1-.5-.8-.9-1.2-.3-.3-.7-.4-1-.7-.2-.2-.2-.7-.4-1,0,0-.1-.2-.2-.2-.5-.2-.8-.5-1.2-.8-.4-.3-.7-.7-1.1-1-.3-.4-.7-.7-1.1-1-.4-.3-.8-.6-1.2-.8-1.8-.8-3.6-1.7-5.6-2.2-.5-.2-1.1-.3-1.6-.6-.5-.3-.9-.7-1.3-1.3-.3-.6-.3-1.1.3-1.4.4-.2.9-.4,1.4-.3.7,0,1.5,0,2.2.1,1.5.2,3.1.2,4.4,1.1.4.3,1.1.3,1.2.9,0,0,.2.2.3.2,2.2.3,3.8,2.1,5.3,3.5,1.3,1.2,3,2.2,3.8,3.9.5.2,1,.7,1.3,1.1.3.5.5,1,.7,1.5.5,1.8,1.2,3.4,1.7,5.1.6,1.7,1.1,3.4,1.3,5.1.6,3.5.9,7,.9,10.4,0,.6.4,1.1.1,1.8-.3.6,0,1.5,0,2.2,0,.7.1,1.4,0,2-.7,2.7-.3,5.3-.3,8,0,2.6-.2,5.3,0,8,0,1.6.4,3.2.2,4.9,0,.7.2,1.4-.4,2.1-.2.2.3.8.3,1.3,0,1.1,0,2.2,0,3.3,0,1.5-.2,3.1-.2,4.6,0,.9.2,1.9.2,2.8,0,1,0,2-.1,3-.1,1.3-.4,2.5-.6,3.7-.2,1.3,0,2.7-.4,3.9-.7,2.3-.7,4.6-1.1,6.9-.4,2.3-.7,4.5-1,6.8-.2,1.3-.9,2.4-1.1,3.6-.1.6-1.7,1.1-2.2.7,0,0-.2-.2-.2-.3-.2-1.3-.7-2.5-.4-3.9.4-2,.7-4.1,1-6.1Z"/>
    <path d="M317.2,480.2c-.4,0-.9,0-1.3,0-.2,0-.3-.2-.5.3,0,.3-.2-.4-.4-.3-.4,0-.8,0-1.2,0-.4,0-.8.3-1.2.3-.4,0-.8-.2-1.2,0-.3.3-.6-.2-.9-.1-.3.1-.7.2-1,0-.2-.2-.5-.4-.7-.3-.1,0-.3.4-.4.4-.1,0-.3-.3-.4.3,0,0,0,0-.1-.1-.2-.4-.4-.4-.5-.1-.1.3-.2.2-.4.3-.3,0-.7,0-1,0-.2,0-.5-.3-.7-.3-.3,0-.5.2-.8,0-.2-.3-.5-.3-.7-.3-.1,0-.3-.3-.4.3,0,0,0,0,0,0-.4-.8-.7.3-1.1,0-.4-.2-.8,0-1.2,0-.1,0-.2-.2-.3.3,0,.2-.1.2-.2,0-.3-.6-.6-.2-.9-.4-.3-.1-.7.2-1-.3-.1-.2-.3-.3-.5.3,0,.3-.2,0-.4,0-.1,0-.2.3-.3.3,0,0-.2-.2-.3-.3,0,0,0,0,0,0-.5.7-1-.2-1.5,0-.5.2-1,.1-1.5,0-.3,0-.6-.2-.8-1.4,0-.5,0-1.1,0-1.4,0-.2.2-.5.3-.5.2,0,.3-.2.5-.3.3-.2.7-.7,1-.4.1,0,.2-.2.3.3,0,0,0,.1,0,0,.5-.8.9-.3,1.4-.3.4,0,.8-.7,1.2-.4.2-.6.5-.5.7-.3.8.7,1.5.2,2.3.3.8,0,1.6,0,2.4,0,.1,0,.2-.4.4,0,.1.3.3,0,.5,0s.3-.1.5,0c.6.7,1.2.3,1.8.3.6,0,1.2.1,1.8,0,.4,0,.7-.4,1.1-.3.2,0,.3-.3.5.3,0,.2.2-.3.3-.3.3,0,.5,0,.8,0s.7,0,1.1,0c.2,0,.4-.3.6-.3.2,0,.5,0,.7,0,.3,0,.6.3.9.3.3,0,.6-.2.9,0,.5.5,1.1.3,1.6.3.5,0,1.1.1,1.6,0,.3,0,.6.4.9.4.1,0,.3,1.5.3,2,0,0,0,.2,0,.2-.3.5-.5,1.2-.9,1.1-.5,0-1,0-1.5,0Z"/>
    <path d="M358.8,458.7c1.6.3,3.2.8,4.8,1.1.6.1,1.1.5,1.9.2.4-.2.8.6,1.3.7,1.5.4,2.9.9,4.4,1.3,1.4.4,2.9.7,4.3,1.1.4.1.7.2,1,.4.4.2.8.4,1.2.6.4.2.8.4,1.2.7.2,0,.5.3.8.5.3.2.5.4.8.6,1.2,1,1.5,2.6,1.1,3.9-.2.6-.5,1.2-.8,1.7-.5.9-1.7,1.8-2.2,2-.6.4-1.2.7-1.9.9-1,.3-1.9.4-2.7.8-.5.2-1,.7-1.6.9-.6.1-1.3,0-1.6.8,0,0-.3,0-.5,0-.7-.3-1.4,0-1.9.3-.5.4-.9.4-1.4.5-1.3.2-2.5.4-3.7.5-.9,0-1.9,0-2.8,0-1,0-1.9.5-2.9.3-.9-.2-1.8,0-2.6,0-.5,0-1.1-.2-1.4.5,0,0-.2,0-.3,0-1.5-.6-2.8.6-4.2.6-1.5,0-3,.3-4.5.5-.4,0-.8,0-1.2.4-.1.2-.5.2-.7.2-1.2-.5-2.3,0-3.4,0-1.3,0-2.6.5-3.9.2-.6-.1-1.3-.2-1.9.5-.3.3-.9.1-1.4.2-.4.1-.7.4-1.1.5-.3,0-.7-.1-1-.2-.1,0-.2,0-.3,0-.3.2-.7.3-1,.4-.4,0-.8.1-1.3.1-.5,0-1,0-1.6-.2-.6-.2-1.2-.5-1.8-.9-.7-.5-1.2-1.3-1.6-2-.4-.6-.5-1-.7-1.5-.2-.4-.4-.9-.6-1.3-.4-.9-.7-1.8-1-2.7-.4-1-.6-2.1.2-3.2.4-.5.9-.7,1.3-.4.3.2.7.5.9.8.3.5.7,1,1,1.6.6,1.1,1.6,2,1.8,3.3,0,.4.5.7.2,1.2,0,0,0,.2,0,.3.5.4.6.4.8.5h.2c0,0,.1.1.1.1,0,0,.1,0,.2,0,.4,0,.8,0,1.3,0,1.4-.2,2.8-1,4.3-1,.7-.7,1.7-.7,2.5-.7,3,.3,5.8-.5,8.7-.8,2.9-.3,5.9-.7,8.8-1.1.5,0,.9-.5,1.5-.3.6.2,1.3-.1,1.9-.2.6,0,1.2-.3,1.8-.2,2.4.4,4.6-.3,6.9-.5,2.3-.2,4.5-.5,6.6-1.3,1.3-.4,2.3-1.2,3.5-1.6.5-.2.8-.7,1.6-.5.1,0,.2-.1.3-.3,0,0,0-.2.1-.3,0,0,0,0,0-.1,0-.1.2-.2.2-.3,0,0,0,0,0-.1,0-.1,0-.2-.2-.3h0s0,0,0,0c-.1,0-.2-.1-.3-.2-.2-.1-.5-.2-.7-.3-.6-.2-1.5-.3-2.2-.5-.8-.2-1.6-.5-2.4-.8-1-.4-1.9-.9-2.9-1.3-1-.4-2.2-.5-3.2-1-1.8-1-3.7-1.3-5.6-1.8-1.9-.5-3.8-.9-5.8-1.1-1.1-.1-2-.8-3.1-.9-.5,0-1-1.6-.7-2.1,0,0,.2-.2.2-.2,1.1-.3,2.2-.9,3.5-.6,1.8.4,3.6.7,5.5,1.1Z"/>
    <path d="M400.3,436c-.2-1.8-.4-3.6-.7-5.4-.1-.7,0-1.4-.6-2-.3-.3.2-1.1,0-1.7-.4-1.7-.6-3.4-1-5-.4-1.6-.9-3.2-1.3-4.8-.4-1.6-.5-3.3-1.1-4.8-.6-1.3-.3-2.6-.7-3.9-.4-1.3-.8-2.7-.9-4.1,0-1,0-2-.4-3-.2-.6-.7-1.1-.8-1.7-.1-.6,0-1.4-.8-1.8,0,0,0-.3,0-.5.2-.8,0-1.6-.4-2-.4-.5-.5-1-.6-1.4-.4-1.4-.7-2.7-1-4.1-.2-1-.2-2.1-.5-3.1-.2-1.1-.8-2.1-.8-3.2,0-1.1-.2-2-.5-3-.1-.6,0-1.3-.8-1.5,0,0-.1-.2,0-.3.4-1.8-1.1-3-1.5-4.5-.3-1.6-1.1-3.1-1.8-4.6-.2-.4-.2-.9-.8-1.1-.2,0-.4-.4-.4-.7,0-1.4-1-2.3-1.5-3.3-.7-1.2-1.7-2.1-2.3-3.5-.2-.6-.7-1.2-1.7-1.3-.4,0-.7-.6-1.2-.9-.3-.2-.8-.2-1.2-.4-.3-.2-.4-.6-.7-.9,0,0-.2-.1-.3-.2-.5-.1-1-.3-1.4-.5-.4-.2-.8-.5-1.3-.7-.4-.3-.8-.5-1.3-.7-.4-.2-.9-.4-1.4-.5-2-.4-3.9-.7-5.9-.8-.6,0-1.1,0-1.7-.2-.5-.1-1.1-.4-1.5-.9-.4-.5-.5-1,0-1.4.4-.3.8-.6,1.2-.7.7-.1,1.4-.3,2.2-.4,1.5-.2,3.1-.6,4.6,0,.5.2,1.1,0,1.4.6,0,0,.2.2.3.1,2.2-.3,4.2,1.1,6,2,1.6.8,3.4,1.3,4.7,2.8.6.1,1.1.4,1.5.8.4.4.7.9,1,1.3,1,1.6,2,3,3,4.5,1,1.5,1.9,3,2.6,4.6,1.4,3.3,2.6,6.5,3.5,9.9.2.6.6,1,.5,1.7,0,.7.3,1.4.5,2.1.2.7.5,1.3.5,2,0,2.7,1.1,5.2,1.7,7.8.6,2.6,1.2,5.2,1.9,7.7.5,1.5,1.2,3,1.4,4.6.1.7.6,1.3.2,2.1-.1.2.5.8.6,1.2.3,1.1.5,2.2.7,3.2.3,1.5.6,3,1,4.5.2.9.7,1.8.9,2.7.3,1,.5,1.9.6,2.9.2,1.3.2,2.5.4,3.8.2,1.3.7,2.6.6,3.9-.1,2.4.5,4.6.7,6.9.2,2.3.4,4.6.7,6.9.2,1.3-.2,2.5-.2,3.8,0,.6-1.4,1.5-1.9,1.3,0,0-.2-.1-.2-.2-.5-1.2-1.3-2.3-1.4-3.7,0-2.1-.3-4.1-.6-6.2Z"/>
    <path d="M411,445.1c1.6,0,3.3,0,4.9-.1.6,0,1.2.2,1.9-.3.3-.3.9.4,1.5.4,1.5,0,3.1.1,4.6.2,1.5,0,3,0,4.5,0,.4,0,.7,0,1.1.1.4,0,.8.1,1.3.2.4.1.9.2,1.3.3.2,0,.6.2.9.3.3.1.6.2.9.4,1.4.7,2.1,2.1,2.1,3.5,0,.6-.1,1.2-.3,1.8-.3,1-1.2,2.1-1.6,2.5-.5.5-1,1-1.6,1.3-.9.5-1.7.9-2.5,1.5-.4.4-.7.9-1.3,1.2-.5.3-1.2.4-1.4,1.1,0,0-.3,0-.5,0-.7,0-1.4.3-1.8.7-.3.5-.8.6-1.2.8-1.2.5-2.3,1-3.5,1.4-.9.3-1.8.4-2.7.7-.9.3-1.8.9-2.7,1-.9,0-1.7.4-2.5.7-.5.2-1.1.1-1.3.9,0,0-.2.1-.3.1-1.6-.2-2.5,1.3-3.9,1.6-1.5.4-2.8,1.1-4.2,1.6-.4.2-.8.1-1,.7,0,.2-.4.4-.7.3-1.3-.2-2.2.6-3.3.9-1.3.4-2.4,1.1-3.7,1.2-.6,0-1.3.2-1.7,1-.2.4-.9.3-1.3.6-.3.2-.6.6-1,.7-.3.1-.7,0-1.1,0-.1,0-.2,0-.3.1-.3.2-.6.4-.9.6-.3.2-.8.3-1.2.4-.5.1-1,.2-1.6.2-.7,0-1.3-.1-1.9-.4-.8-.3-1.5-.9-2.1-1.5-.5-.5-.8-.9-1.1-1.2-.3-.4-.6-.8-.9-1.2-.6-.8-1.1-1.6-1.6-2.4-.6-.9-1.1-1.9-.6-3.1.2-.6.7-.9,1.2-.7.4.1.8.3,1.1.6.4.4.9.8,1.3,1.3.9.9,2,1.5,2.6,2.7.2.4.7.6.5,1.1,0,0,0,.2,0,.3.6.3.7.2.9.3h.2s.1,0,.1,0c0,0,.2,0,.2,0,.4,0,.8-.1,1.3-.4,1.3-.6,2.4-1.7,3.9-2,.5-.9,1.5-1.1,2.3-1.3,2.9-.5,5.5-2,8.2-2.9,2.8-1,5.5-2.2,8.2-3.2.5-.2.7-.7,1.4-.6.6,0,1.2-.4,1.8-.7.5-.2,1.1-.6,1.6-.6,2.4-.2,4.4-1.5,6.6-2.3,2.1-.8,4.2-1.6,6-2.9,1.1-.7,2-1.7,3-2.4.5-.3.6-.9,1.4-.9.1,0,.2-.2.2-.4,0,0,0-.2,0-.3,0-.1,0,0,0-.1,0-.1.1-.2.1-.3,0,0,0,0,0-.1,0-.1-.2-.2-.3-.2h0s0,0,0,0c-.1,0-.2,0-.3-.1-.2,0-.5-.1-.8-.1-.6,0-1.5.1-2.3,0-.8,0-1.7,0-2.5-.2-1.1-.2-2.1-.4-3.2-.5-1.1-.1-2.3.1-3.3-.2-2-.5-3.9-.3-5.9-.3-2,0-3.9,0-5.9.3-1.1.2-2.1-.3-3.2-.1-.5,0-1.4-1.3-1.2-1.9,0,0,.1-.2.2-.3,1-.6,2-1.4,3.2-1.5,1.9,0,3.7-.2,5.5-.3Z"/>
    <path d="M280.6,380.5c-.6.2-1.2.3-1.8.6-.2,0-.5,0-.6.5,0,.3-.4-.2-.6-.1-.5.2-1.1.4-1.6.6-.5.3-1,.6-1.5.9-.5.3-1.1.2-1.5.7-.3.4-.9.1-1.3.4-.4.3-.8.6-1.3.5-.4,0-.8,0-1,.2-.2.2-.2.5-.4.6-.2,0-.5,0-.4.6,0,0-.1,0-.2,0-.4-.3-.6-.1-.7.2,0,.3-.2.4-.3.5-.4.3-.8.5-1.3.7-.3.1-.8,0-1.1.2-.4.1-.6.6-1,.5-.4,0-.7,0-1,.3-.2,0-.5,0-.3.6,0,0,0,0-.1,0-.9-.4-.8.8-1.4.9-.6.1-1,.6-1.5.9-.1,0-.4,0-.2.5,0,.2,0,.3-.2.2-.7-.3-.9.3-1.3.5-.5.2-.7.7-1.4.6-.3,0-.6,0-.5.7,0,.3-.3.2-.4.4,0,.1,0,.4-.2.5,0,0-.3,0-.5,0,0,0,0,0,0,0-.2,1-1.3.7-1.7,1.3-.5.6-1.1,1-1.7,1.5-.3.2-.8.4-1.8-.3-.4-.3-.8-.7-.9-1.1,0-.3,0-.5,0-.7.1-.2.2-.5.3-.7.2-.5.3-1.2.8-1.3.2,0,.1-.4.6,0,0,0,.1,0,.1,0,0-1,.9-1.1,1.4-1.6.4-.4.5-1.3,1.2-1.4-.1-.7.3-.8.7-.9,1.3-.2,2.1-1.2,3.1-1.8,1-.6,2-1.3,3.1-1.9.2,0,.1-.5.5-.4.3.1.5-.2.7-.3.2-.1.4-.4.6-.3,1.1.1,1.8-.7,2.6-1.1.9-.4,1.7-.8,2.5-1.3.5-.3.8-.9,1.4-1,.2,0,.3-.5.8,0,.1.1.2-.4.3-.5.3-.2.7-.3,1.1-.5.5-.2,1-.4,1.5-.6.3-.2.5-.5.8-.7.3-.2.6-.3,1-.4.4,0,.9,0,1.4-.1.4-.1.8-.5,1.3-.4.9.2,1.6-.3,2.4-.5.8-.2,1.6-.4,2.3-.7.4-.2,1,.2,1.4,0,.2,0,.8,1.3.9,1.8,0,0,0,.2,0,.2-.3.6-.5,1.4-1,1.4-.7.1-1.4.4-2,.6Z" fill="#fff"/>
    <path d="M285.4,398.3c-.5.2-1,.3-1.4.6-.2,0-.4,0-.4.5,0,.3-.4-.2-.6-.1-.4.2-.9.4-1.3.6-.4.2-.7.6-1.1.9-.4.3-.9.2-1.2.7-.2.4-.7.1-1,.4-.3.3-.6.5-1,.5-.3,0-.7,0-.9.2-.1.1,0,.5-.3.6-.2,0-.5,0-.3.5,0,0-.1,0-.2,0-.4-.3-.6-.1-.5.2,0,.3-.1.4-.2.4-.3.2-.6.4-1,.6-.3.1-.6,0-.9.2-.3.1-.4.5-.8.4-.4,0-.6,0-.8.2-.1,0-.4,0-.2.6,0,0,0,0,0,0-.9-.4-.6.7-1,.8-.5.1-.8.5-1.1.8,0,0-.3,0-.1.5,0,.2,0,.2-.1.2-.7-.3-.7.3-1.1.4-.4.2-.5.7-1.1.6-.3,0-.5,0-.3.6.1.3-.2.2-.3.4,0,.1,0,.4,0,.5,0,0-.3,0-.5,0,0,0,0,0,0,0,0,.9-1,.7-1.3,1.2-.3.6-.8.9-1.3,1.3-.3.2-.6.3-1.6-.3-.5-.3-.9-.6-1-1-.1-.2-.2-.5-.1-.6,0-.2.1-.4.2-.7.1-.4,0-1.1.5-1.2.2,0,0-.4.5,0,0,0,.1,0,.1,0-.2-1,.6-1,1-1.5.3-.4.3-1.2.8-1.3-.2-.7.1-.8.4-.8,1.2-.2,1.6-1.1,2.5-1.7.8-.6,1.6-1.2,2.4-1.8.1,0,0-.5.4-.4.3.1.4-.2.6-.3.2-.1.3-.3.5-.3,1,.1,1.5-.7,2.2-1,.7-.3,1.4-.7,2-1.2.4-.3.6-.9,1.1-1,.2,0,.2-.5.7,0,.1.1,0-.4.2-.4.3-.2.6-.3.9-.5.4-.2.8-.4,1.2-.6.2-.2.4-.5.6-.7.2-.2.5-.3.8-.4.4,0,.8,0,1.2-.1.4-.1.6-.5,1.1-.4.8.2,1.3-.3,2-.4.7-.2,1.3-.4,1.9-.7.3-.2.8.2,1.2,0,.2,0,.8,1.3.9,1.8,0,0,0,.2,0,.2-.2.6-.3,1.3-.7,1.4-.6.1-1.1.3-1.7.5Z" fill="#fff"/>
    <path d="M274.8,407.5c-.4-.6-.7-1.1-1.1-1.7-.2-.2,0-.6-.7-.5-.3,0,0-.5,0-.7-.4-.5-.7-1-1.1-1.5-.4-.5-.9-.8-1.4-1.2-.4-.4-.6-1.1-1.2-1.4-.5-.2-.4-.9-.8-1.2-.4-.3-.8-.7-.9-1.2-.1-.4-.2-.8-.5-1-.2-.1-.6,0-.7-.3-.1-.2,0-.6-.7-.3,0,0,0-.1,0-.2.1-.5,0-.7-.4-.6-.3,0-.4-.1-.6-.2-.4-.4-.7-.7-1-1.1-.2-.3-.3-.7-.5-1.1-.2-.3-.7-.4-.8-.9,0-.5-.3-.7-.6-1-.1-.1-.1-.5-.7-.2,0,0-.1,0,0,0,.2-1-1-.6-1.3-1.2-.3-.6-.9-.9-1.3-1.3-.1-.1-.1-.4-.6-.1-.1,0-.3,0-.3-.2,0-.8-.5-.8-.8-1.2-.3-.4-.9-.6-1-1.3,0-.3-.2-.6-.8-.3-.3.1-.3-.2-.5-.3-.2,0-.5,0-.6,0-.1,0,0-.3-.1-.5,0,0,0,0-.1,0-1,0-1.1-1.1-1.8-1.5-.7-.3-1.3-.9-1.9-1.4-.3-.3-.6-.7-.2-1.8.2-.5.5-1,.8-1.1.3-.1.5-.2.7-.2.3,0,.6.1.8.2.5.2,1.3,0,1.6.6,0,.2.4,0,.2.5,0,0,0,.1,0,.1,1.1-.2,1.4.7,2,1.1.5.4,1.4.3,1.7.9.7-.3.9,0,1.1.5.5,1.3,1.8,1.8,2.6,2.7.9.9,1.9,1.7,2.8,2.7.1.2.5,0,.5.4,0,.4.3.4.5.6.2.2.5.3.5.6.2,1.2,1.2,1.6,1.8,2.4.6.8,1.3,1.6,2,2.2.5.4,1.1.6,1.4,1.2.1.2.6.2.3.8,0,.2.4,0,.5.2.3.3.5.6.8,1,.4.4.7.9,1.1,1.4.2.3.7.4.9.6.3.3.5.6.7.9.2.4.3.9.6,1.3.2.4.7.7.8,1.2,0,1,.8,1.6,1.2,2.3.4.7.9,1.5,1.4,2.1.3.4.1,1,.4,1.4.1.2-1,1.2-1.5,1.4,0,0-.2,0-.2,0-.6-.1-1.5-.1-1.7-.6-.3-.7-.8-1.3-1.2-1.9Z" fill="#fff"/>
    <path d="M284.3,392.1c-.2-.4-.3-.9-.6-1.2,0-.1,0-.4-.5-.3-.3,0,.2-.4.1-.5-.3-.3-.4-.8-.7-1.1-.3-.3-.6-.6-.9-.9-.3-.3-.2-.8-.7-1-.4-.1-.2-.7-.5-.9-.3-.2-.6-.5-.6-.9,0-.3,0-.6-.2-.8-.1,0-.5,0-.6-.1,0-.1,0-.4-.5-.2,0,0,0,0,0-.2.2-.4,0-.5-.2-.5-.3,0-.3,0-.4-.1-.3-.2-.5-.5-.7-.8-.1-.2-.1-.6-.3-.8-.1-.2-.5-.3-.5-.7,0-.4-.1-.6-.3-.7,0,0,0-.4-.5,0,0,0,0,0,0,0,.3-.9-.8-.4-.9-.8-.2-.4-.6-.6-.9-.9,0,0,0-.3-.4,0-.1,0-.2,0-.2,0,.2-.7-.3-.6-.5-.9-.2-.3-.7-.3-.7-.9,0-.3-.1-.5-.6-.1-.2.2-.2-.2-.4-.2-.1,0-.4.1-.5,0,0,0,0-.3,0-.4,0,0,0,0,0,0-.8.2-.8-.8-1.3-.9-.5-.1-1-.5-1.4-.8-.2-.2-.4-.5,0-1.6.2-.5.4-1,.7-1.2.2-.2.4-.3.5-.3.2,0,.4,0,.6,0,.4,0,1-.3,1.2.2,0,.1.3,0,.2.4,0,0,0,.1,0,.1.9-.4,1.1.3,1.5.6.4.2,1.1,0,1.3.5.6-.4.8,0,.8.2.3,1.1,1.3,1.3,1.9,2,.6.7,1.4,1.2,2,1.9.1.1.5,0,.4.3,0,.3.2.3.4.5.1.1.4.2.4.4,0,1,.8,1.2,1.2,1.8.4.6.8,1.2,1.4,1.6.3.3.9.4,1,.9,0,.2.5.1,0,.6-.1.1.4,0,.4.1.2.2.4.5.5.7.2.3.4.7.7,1,.2.2.5.3.7.5.2.2.3.4.4.7.1.3,0,.7.2,1.1.1.3.5.5.4,1-.2.8.4,1.2.6,1.8.2.6.4,1.2.8,1.7.2.3-.1.8,0,1.1,0,.1-1.2.9-1.7,1,0,0-.2,0-.2,0-.6-.1-1.3-.1-1.4-.4-.1-.5-.4-1-.6-1.4Z" fill="#fff"/>
    <path d="M251.9,410.3c-.2,0-.3,0-.5.2,0,0-.2-.2,0,.3,0,.3-.2-.3-.2-.3-.1.1-.3,0-.4.2-.1.1-.2.4-.3.5-.1.1-.4-.1-.4.2,0,.3-.3-.1-.4,0,0,.2-.2.3-.4,0-.1-.1-.3-.3-.3-.2,0,0,0,.4,0,.4,0,0-.2-.2,0,.4,0,0,0,0,0-.1-.2-.4-.2-.3-.2,0,0,.3,0,.3,0,.3-.1,0-.2.1-.4.1-.1,0-.3-.2-.4-.2-.1,0-.1.3-.3,0-.2-.3-.3-.2-.4-.2,0,0-.2-.2,0,.4,0,0,0,0,0,0-.4-.7-.2.3-.4.2-.2-.2-.3,0-.5.1,0,0-.1-.1,0,.3,0,.2,0,.2,0,0-.3-.6-.3-.2-.5-.2-.2,0-.2.2-.5-.2-.1-.2-.2-.3-.1.3,0,.3,0,0-.1.1,0,0,0,.3,0,.4,0,0-.1-.2-.2-.3,0,0,0,0,0,0,0,.7-.4,0-.6.1-.1.2-.4.2-.6.2-.1,0-.3-.2-.7-1.2-.2-.5-.4-1-.4-1.3,0-.2,0-.5,0-.5,0-.1,0-.3,0-.4,0-.2,0-.8.2-.5,0,0,0-.2.2.2,0,0,0,0,0,0,0-.8.3-.4.4-.5.1,0,0-.7.3-.5-.1-.6,0-.6.2-.4.5.5.7,0,1,0,.3,0,.6-.2.9-.2,0,0,0-.4.1-.1.1.2.1,0,.2,0,0,0,0-.2.2,0,.4.6.5.1.8,0,.3,0,.5,0,.7-.2.1-.1.1-.5.3-.4,0,0,0-.3.3.2,0,.2,0-.3,0-.3,0,0,.2,0,.3-.1.1,0,.3,0,.4-.1,0,0,0-.3.1-.4,0,0,.2-.1.3,0,.1,0,.3.2.4.2.1,0,.2-.3.4,0,.4.4.5.1.7.1.2,0,.4,0,.6-.2,0-.1.3.3.5.3,0,0,.6,1.4.7,1.9,0,0,0,.2,0,.2,0,.5.2,1.2,0,1.2-.2,0-.4,0-.6.2Z" fill="#fff"/>
    <path d="M406.1,365.7c0,0-.2,0-.2,0,0,0,0-.2,0,.3,0,.3,0-.4-.1-.3,0,0-.1,0-.2,0,0,0,0,.3-.1.4,0,0-.2-.2-.2.1,0,.3-.2-.2-.2,0,0,.1,0,.2-.2,0,0-.2-.2-.4-.2-.2,0,0,0,.4,0,.4,0,0-.1-.3,0,.3,0,0,0,0,0-.1-.1-.4-.2-.3-.1,0,0,.3,0,.2,0,.3,0,0,0,0-.2,0,0,0-.2-.2-.2-.3,0,0,0,.2-.2,0-.1-.3-.2-.2-.2-.2,0,0-.2-.3,0,.3,0,0,0,0,0,0-.4-.7,0,.3-.2.1-.1-.2-.2,0-.2,0,0,0-.1-.1,0,.3,0,.1,0,.2,0,0-.3-.5-.2-.2-.3-.3-.1,0,0,.2-.3-.2-.1-.2-.2-.3,0,.3.1.2,0,0,0,0,0,0,.1.3.1.3,0,0-.1-.2-.2-.3,0,0,0,0,0,0,.2.6-.3-.1-.3,0,0,.2,0,.2-.2.2,0,0-.2-.1-.9-1.1-.3-.4-.6-.9-.8-1.2-.1-.2-.2-.4-.2-.5,0-.1,0-.2,0-.3,0-.2-.2-.7,0-.5,0,0,0-.2.2.2,0,0,0,0,0,0-.3-.7,0-.4.1-.5,0,0-.2-.7,0-.5-.2-.6-.1-.5,0-.4.5.5.5,0,.7,0,.2,0,.4-.2.6-.2,0,0,0-.4,0-.1.1.2.1,0,.1,0,0,0,0-.2.1,0,.4.6.4.1.6.2.2,0,.3,0,.4-.2,0-.1,0-.5.2-.4,0,0,0-.3.2.3,0,.2,0-.3,0-.3,0,0,.1,0,.2,0,0,0,.2,0,.3,0,0,0,0-.3,0-.4,0,0,.1,0,.2,0,0,0,.2.3.3.3,0,0,.1-.2.2,0,.2.5.3.2.5.3.1,0,.3,0,.4,0,0,0,.2.4.3.4,0,0,0,.4.1.8,0,.4,0,.9,0,1.2,0,0,0,.2,0,.2,0,.5,0,1.2,0,1.2,0,0-.2,0-.3,0Z" fill="#fff"/>
    <path d="M414.3,379.2c0,0-.1,0-.2.1,0,0-.2-.2,0,.3.1.2-.2-.3-.2-.3,0,0-.1,0-.1.1,0,0,0,.3,0,.4,0,0-.2-.1-.1.2.1.3-.2-.1-.2,0,0,.1,0,.2-.2,0-.1-.1-.3-.3-.2-.2,0,0,.2.4.1.3,0,0-.2-.2.1.3,0,0,0,0,0-.1-.2-.3-.3-.3-.1,0,.1.2,0,.2,0,.2,0,0,0,.1-.1,0,0,0-.2-.2-.3-.2,0,0,0,.2-.1,0-.2-.2-.2-.2-.2-.2,0,0-.2-.2.1.3,0,0,0,0,0,0-.5-.7,0,.3-.1.1-.2-.1-.1,0-.2,0,0,0-.1-.1.1.3,0,.1,0,.2,0,0-.4-.5-.2-.2-.3-.2-.1,0,0,.2-.3-.2-.1-.2-.2-.2,0,.3.1.2,0,0,0,0,0,0,.1.3.1.3,0,0-.1-.2-.2-.3,0,0,0,0,0,0,.3.6-.3-.1-.2,0,0,.2,0,.2-.2.1,0,0-.2-.2-.8-1.1-.3-.4-.6-.9-.7-1.2-.1-.2-.2-.4-.2-.5,0,0,0-.2-.1-.3,0-.2-.3-.7,0-.5,0,0,0-.2.2.2,0,0,0,0,0,0-.4-.7,0-.3,0-.4,0,0-.3-.6,0-.4-.3-.6-.2-.5,0-.3.5.5.3,0,.5,0,.2,0,.2-.1.3-.2,0,0-.2-.3,0,0,.2.2,0,0,0,0,0,0,0-.1,0,0,.4.5.3.1.4.1.1,0,.2,0,.2-.2,0-.1-.1-.4,0-.4,0,0-.1-.3.2.2,0,.1-.1-.3-.1-.3,0,0,0,0,0,0,0,0,.1,0,.1-.1,0,0,0-.3,0-.3,0,0,0,0,0,0,0,0,.2.2.3.2,0,0,0-.2.2,0,.3.4.3.1.4.1.1,0,.2,0,.2-.2,0,0,.3.3.3.3,0,0,.8,1.2,1.1,1.7,0,0,.1.2.1.2.2.4.6,1.1.5,1-.1,0-.1,0-.2.1Z" fill="#fff"/>
    <g>
      <path d="M256.2,139.1c-.1-.2-.2-.5-.3-.7,0,0,.1-.3-.4-.2-.3,0,.3-.3.2-.4-.2-.2-.2-.5-.3-.7-.2-.2-.5-.3-.6-.5-.2-.2,0-.5-.4-.6-.3,0,0-.4-.2-.6-.2-.1-.4-.3-.2-.6,0-.2.2-.4,0-.5-.1,0-.4,0-.4,0,0,0,.2-.3-.4,0,0,0,0,0,.1-.1.3-.3.2-.4,0-.3-.3,0-.3,0-.3,0-.1-.2-.2-.3-.3-.5,0-.2.1-.4,0-.6,0-.2-.3-.2-.2-.4.2-.3.1-.4,0-.5,0,0,.2-.3-.4,0,0,0,0,0,0,0,.6-.6-.5-.3-.4-.6,0-.3-.2-.4-.3-.6,0,0,0-.2-.3,0-.1,0-.2,0-.1,0,.4-.5,0-.4,0-.6,0-.2-.4-.2,0-.7.1-.2.1-.4-.4-.1-.3.1,0-.1-.2-.1,0,0-.3,0-.4,0,0,0,.1-.2.2-.3,0,0,0,0,0,0-.7.1-.2-.6-.5-.7-.3-.1-.5-.4-.6-.7,0-.2,0-.4.8-1.2.4-.4.8-.7,1.1-.9.2-.1.4-.2.5-.2.1,0,.3,0,.5,0,.3,0,.8-.1.8.2,0,.1.3,0-.1.3,0,0,0,0,0,0,.8-.2.6.3.8.5.2.2.9,0,.8.4.6-.2.6,0,.5.2-.3.8.4,1,.6,1.5.2.5.5.9.8,1.4,0,0,.4,0,.2.2-.2.2,0,.2.1.3,0,0,.2.1.1.3-.4.7.2.8.3,1.2.1.4.3.8.6,1.1.2.2.6.2.6.5,0,.1.3,0-.1.4-.1,0,.3,0,.4,0,.1.1.2.3.2.4.1.2.2.4.3.6,0,.1.4.1.5.2.1.1.2.2.2.4,0,.2-.1.5,0,.7,0,.2.4.3.2.6-.3.5,0,.7.1,1.1,0,.3.2.7.4.9.1.1-.3.5-.2.7,0,0-1.3.8-1.7.9,0,0-.2,0-.2,0-.5,0-1.2.2-1.3,0,0-.3-.2-.6-.4-.8Z" fill="#00b4e9"/>
      <path d="M278,133c0-.3,0-.5,0-.8,0,0,.2-.2-.3-.3-.3,0,.4-.1.3-.2,0-.2,0-.5,0-.7,0-.2-.3-.5-.3-.7,0-.2.2-.5,0-.7-.3-.2.2-.4.1-.5-.1-.2-.2-.4,0-.6.2-.1.4-.3.3-.4,0,0-.4-.2-.4-.3,0,0,.3-.2-.3-.3,0,0,0,0,.1,0,.4,0,.4-.2.1-.3-.3,0-.2-.1-.3-.2,0-.2,0-.4,0-.6,0-.1.3-.3.3-.4,0-.2-.2-.3,0-.4.3-.1.3-.3.3-.4,0,0,.3-.2-.3-.2,0,0,0,0,0,0,.8-.2-.3-.4,0-.7.2-.2,0-.5,0-.7,0,0,.2-.1-.3-.2-.2,0-.2,0,0-.1.6-.2.2-.4.4-.5.1-.2-.2-.4.3-.6.2,0,.3-.2-.3-.3-.3,0,0-.1,0-.2,0,0-.3-.1-.3-.2,0,0,.2-.1.3-.2,0,0,0,0,0,0-.7-.3.2-.6,0-.9-.2-.3-.1-.6,0-.9,0-.2.2-.3,1.4-.4.5,0,1.1,0,1.4,0,.2,0,.5.1.5.2,0,0,.2.2.3.3.2.2.7.4.4.6,0,0,.2.1-.3.2,0,0-.1,0,0,0,.8.3.3.5.3.8,0,.2.7.5.4.7.6.1.5.3.3.4-.7.5-.2.9-.3,1.4,0,.5,0,.9,0,1.4,0,0,.4.1,0,.2-.3,0,0,.2,0,.3s.1.2,0,.3c-.7.4-.3.7-.3,1.1,0,.4-.1.7,0,1.1,0,.2.4.4.3.7,0,0,.3.2-.3.3-.2,0,.3.1.3.2,0,.2,0,.3,0,.5s0,.4,0,.6c0,.1.3.3.3.4,0,.1,0,.3,0,.4,0,.2-.3.3-.3.5,0,.2.2.4,0,.5-.5.3-.3.6-.3.9,0,.3-.1.6,0,.9,0,.2-.4.3-.4.5,0,0-1.5.2-2,.2,0,0-.2,0-.2,0-.5-.2-1.2-.3-1.1-.5,0-.3,0-.6,0-.9Z" fill="#00b4e9"/>
      <path d="M312.9,130.9c-.2.2-.5.3-.6.6,0,0-.3,0,0,.4.1.2-.4-.2-.4,0-.2.2-.4.3-.6.5-.2.2-.2.6-.4.8-.2.2-.5.2-.5.6,0,.4-.4,0-.5.3,0,.2-.2.4-.5.4-.2,0-.5,0-.5,0,0,.1.1.4,0,.5,0,0-.3,0,0,.4,0,0,0,0-.2,0-.3-.2-.4-.1-.3.1.1.3,0,.3,0,.3-.1.2-.3.3-.5.4-.2,0-.4,0-.6,0-.2,0-.1.4-.4.3-.3-.1-.4,0-.5,0,0,0-.3,0,0,.4,0,0,0,0,0,0-.7-.5-.2.5-.5.5-.3,0-.4.3-.6.5,0,0-.2,0,0,.3,0,.1,0,.2,0,.1-.6-.3-.5,0-.7.1-.3,0-.2.4-.7.2-.2,0-.4,0,0,.4.1.2-.1.1-.1.2,0,0,.1.3,0,.4,0,0-.2,0-.4-.1,0,0,0,0,0,0,.2.7-.7.3-.8.6-.1.4-.4.5-.8.7-.2,0-.4,0-1.3-.7-.4-.3-.8-.8-.9-1.1-.1-.2-.2-.4-.2-.5,0-.1,0-.3,0-.5,0-.3-.2-.8.2-.8.1,0,0-.3.4,0,0,0,.1,0,0,0-.3-.8.3-.6.5-.8.2-.2,0-.8.3-.8-.3-.6-.1-.6.1-.5.8.2.9-.5,1.4-.8.5-.3.8-.7,1.2-1,0,0-.1-.4.2-.2.2.1.2-.1.3-.2,0,0,0-.2.3-.2.7.2.8-.3,1.2-.6.4-.2.7-.4.9-.8.1-.2,0-.7.4-.7.1,0,0-.4.4,0,.1.1,0-.3,0-.4,0-.2.2-.2.4-.3.2-.2.4-.3.5-.5,0-.1,0-.4.1-.5,0-.1.2-.2.3-.3.2,0,.5,0,.7-.1.2,0,.2-.4.5-.3.6.2.7-.3,1-.5.3-.2.6-.4.8-.7.1-.2.6,0,.7,0,0,0,1.1,1,1.4,1.4,0,0,.1.2.1.2.2.5.5,1.2.3,1.3-.3.2-.5.4-.7.6Z" fill="#00b4e9"/>
      <path d="M330,153.9c-.2,0-.3.2-.5.3,0,0-.2-.1,0,.4.1.2-.3-.3-.3-.2-.1.2-.3.2-.4.3-.1.1-.1.4-.3.6-.1.1-.4,0-.4.3,0,.3-.3,0-.4.1,0,.2-.1.3-.4.2-.2,0-.4-.2-.4,0,0,0,0,.4,0,.4,0,0-.3-.2,0,.4,0,0,0,0-.1-.1-.3-.3-.3-.2-.2,0,0,.3,0,.3,0,.3-.1.1-.2.2-.4.2-.1,0-.3-.1-.5-.1-.1,0,0,.3-.3.1-.2-.2-.3-.1-.4,0,0,0-.3-.2,0,.4,0,0,0,0,0,0-.6-.6-.1.4-.4.3-.3,0-.3.1-.5.2,0,0-.2-.1,0,.3,0,.1,0,.2,0,.1-.4-.5-.4,0-.5-.1-.2,0-.2.3-.5,0-.2-.1-.3-.2,0,.3.1.3,0,0-.1.1,0,0,0,.3,0,.4,0,0-.2-.2-.3-.2,0,0,0,0,0,0,.1.7-.5,0-.6.3-.1.3-.3.3-.6.4-.1,0-.3,0-1-1-.3-.4-.6-.9-.7-1.2,0-.2-.2-.4-.2-.5,0-.1,0-.3,0-.4,0-.2-.1-.8.1-.6,0,0,0-.2.3.2,0,0,0,0,0,0-.2-.8.2-.4.3-.6.1-.1,0-.8.2-.6-.2-.6,0-.6,0-.4.6.4.7-.2,1-.2.3,0,.6-.3.9-.5,0,0,0-.4.1-.2.2.2.2,0,.2,0,0,0,0-.2.2,0,.6.4.6,0,.9-.1.3,0,.5-.2.7-.4,0-.2,0-.5.3-.5,0,0,0-.3.3.2.1.1,0-.3,0-.3,0-.1.2-.1.3-.2.1,0,.3-.1.4-.2,0,0,0-.3,0-.4,0-.1.1-.2.3-.2.1,0,.4.1.5.1.1,0,.1-.3.4-.1.5.3.5,0,.8,0,.2,0,.4-.1.6-.4,0-.1.4.2.5.2,0,0,.9,1.2,1.1,1.6,0,0,0,.2.1.2.1.5.4,1.1.3,1.2-.2,0-.4.2-.6.3Z" fill="#00b4e9"/>
      <path d="M229.6,150.4c-.1,0-.2-.1-.3-.1,0,0,0-.3-.2.2-.1.2,0-.4,0-.4-.1,0-.2-.1-.3-.1-.1,0-.3.2-.4.2-.1,0,0-.3-.3,0-.2.2,0-.3-.2-.2-.1,0-.3,0-.2-.2,0-.2,0-.4,0-.3,0,0-.3.3-.3.3,0,0,0-.3-.3.2,0,0,0,0,0-.1.2-.4.1-.4,0-.2-.2.2-.2.2-.2.2-.1,0-.2,0-.2-.2,0,0,0-.3,0-.4,0,0-.2.1-.1-.2.1-.3,0-.3,0-.4,0,0,0-.3-.3.2,0,0,0,0,0,0,.4-.7-.3,0-.3-.1,0-.2-.2-.2-.3-.2,0,0,0-.2-.2.2-.1.1-.1.1,0,0,.3-.6,0-.3,0-.4,0-.2-.3,0,0-.4,0-.2.1-.3-.3.1-.2.2,0,0-.1,0,0,0-.2.2-.3.2,0,0,.1-.2.2-.3,0,0,0,0,0,0-.5.4,0-.4-.3-.3-.2,0-.3-.1-.3-.3,0,0,0-.3.7-1.2.3-.4.7-.8.9-1,.2-.2.3-.3.4-.3,0,0,.2-.1.3-.2.2,0,.6-.5.5-.2,0,0,.2-.1-.1.3,0,0,0,0,0,0,.6-.5.3,0,.5,0,.1,0,.6-.4.5-.2.4-.5.4-.3.3-.2-.3.6.1.4.2.6,0,.2.3.2.4.3,0,0,.2-.3.1,0-.1.2,0,0,0,.1,0,0,.1,0,0,0-.2.6.1.4.2.5,0,.1.2.3.4.2.1,0,.4-.3.4-.1,0,0,.2-.2,0,.3,0,.2.2-.2.2-.2,0,0,.1,0,.2,0,0,0,.1.1.2,0,0,0,.2-.2.3-.2,0,0,.1,0,.1,0,0,0,0,.3,0,.4,0,0,.2-.1.2.1-.1.5.1.3.2.4,0,.1.2.2.3.1,0,0,0,.5,0,.5,0,0-.1.4-.2.8-.1.4-.3.9-.4,1.1,0,0,0,.2,0,.2-.2.4-.6,1.1-.6,1,0-.1-.2-.1-.4-.2Z" fill="#00b4e9"/>
    </g>
    <path d="M424.4,279.3c-2.4-2.9-5.6-5.2-9-5.5-1.3-.1-2.7-.3-4.1.4-.7.4-2.1,0-3.4.3-1.8.5-3.6,1-4.8,1.8-.6.4-1.1.8-1.4,1.4-.3.5-.4,1.1-.3,1.5.1.4.3.8.7,1.1.4.3,1.1.5,1.7.7,1.4.3,3,.1,4.7-.2,1.7-.3,3.3-.6,4.9-1.2,1.5-.6,2.9-1.4,4-2.5.9-.9,1.7-1.8,2.3-2.8.7-1,1.2-2.1,1.5-3.3.5-2.6.3-5.5-.3-8.1-.2-1-.5-1.9-.9-2.8-.4-.9-.9-1.7-1.6-2.5-.8-.9-1.9-1.5-2.9-2.4-.9-.8-2-1.9-3.3-1.9-.1,0-.5-.4-.8-.6-1-1-2.6-1.6-3.8-1.7-1.2,0-2.1-.3-3.1-.5-2.8-.5-5.8-.6-8.7-.4-2.2.1-4.4.2-6.7.6-2.3.4-4.7,1.4-6.8,1.8-1,.2-2,.6-2.9,1-.5.2-.9.5-1.3.7-.4.3-.8.5-1,.8-.3.3-.4.4-.4.6,0,.2.1.6.5.8,0,0,.2.3.2.4,0,.6.5,1.2,1,1.6.5.4,1.1.8,1.8,1,1.4.4,2.8.4,4.4.4,1.6,0,3.4-.3,5.1-.9,1.7-.5,3.3-1.2,4.9-2,.8-.4,1.7-.8,2.1-1.7.1-.3.8-.9,1.2-1.1,1.1-.6,1.8-1.5,2.3-2.6.5-1,.8-2.2.9-3.4.2-1.4,0-2.9-.2-4.3,0-.7-.3-1.4-.5-2.2-.2-.7-.4-1.4-.6-2.2-.3-1.3-1.2-2.9-2.6-3.7-.3-.2-.7-.6-1-1.1-.4-.4-.8-1-1.2-1.3-.4-.3-.7-.5-1.1-.8-.4-.2-.8-.4-1.1-.7-.6-.5-1.1-1.1-1.7-1.6-.2-.1-.4-.3-.6-.4-2.1-.8-4-1.7-6.1-2.3-2.1-.6-4.3-1.1-6.6-1-4.5.2-9.1,1.3-13.4,3.1-2.4,1-4.7,2.1-6.8,2.2-1,0-1.3-.4-.5-1.3.6-.7,1.3-1.4,2.1-1.9,1.3-.8,2.7-1.7,4.1-2.4,2.9-1.5,5.9-2.9,9.3-3.2.5,0,1.1-.2,1.6-.2.5,0,1.1,0,1.5.2.1,0,.6,0,.8,0,4.5-1,9.4.3,13.6,2.2,1.8.8,3.6,1.7,5.3,2.8,1.7,1.1,3.2,2.4,4.5,4.1,2,1.3,3.4,3.7,4.2,6,1.3,3.9,2,8,1.2,12.3-.4,2.1-1.4,4.2-2.8,5.9-1.3,1.7-3,3-4.8,4.1-1.8,1-3.7,1.9-5.6,2.5-1.9.6-3.8,1.1-5.9,1.4-2.1.3-4.3.2-6.5-.5-2.1-.7-4.2-2-5.7-4-.5-.7-.9-1.4-1.2-2.3-.3-.9-.5-2.1.1-3.4.3-.6.7-1.2,1.1-1.6.4-.5.9-.8,1.3-1.1.8-.6,1.6-1.1,2.4-1.5,1.5-.8,3-1.5,4.5-1.8,3-.6,5.9-1.2,9-1.8,3-.5,6.1-.8,9.2-.7,6.1.3,12.4,2.2,17.4,6,3.1,2.3,5.9,5.3,7.2,9.2.5,1.6,1.2,3.4.8,5.1-.1.5.4,2.1.3,3.2-.1,1.4-.4,2.8-.8,4.1-.5,1.3-1.1,2.6-1.8,3.8-2.2,3.4-5.7,5.6-9.2,6.9-2.2.8-4.3,1.5-6.6,1.7-1.2.2-2.6.2-3.9,0-1.3-.2-2.8-.6-4.1-1.6-.9-.6-1.7-1.5-2.1-2.6-.5-1-.6-2.3-.4-3.4.4-2.2,1.6-3.8,3.1-4.9,1.5-1.1,3.2-1.7,4.6-2.2,1.4-.4,2.9-.8,4.3-1,2.7-.3,5.5-.4,8.4.3,2.9.7,5.4,2.2,7.4,4.1,4.1,3.7,6.7,8.7,7.9,14,.6,3,.2,5.9-.3,8.8,0,.3-.2.7-.4,1-.2.3-.5.6-.8.8-.6.4-1.1.6-1.3.2,0-.1-.1-.4,0-.6.2-2.7-.3-5-.6-7.9-.4-4.2-2.2-8.4-5-11.6Z" fill="#00b4e9"/>
  </g>
  <g>
    <g>
      <path d="M306.2,187.3c-1.5-2.1-2.9-4.3-4.3-6.4-.6-.8-.9-1.7-1.9-2.3-.5-.3-.5-1.4-1-2.1-1.4-1.9-2.7-3.9-4.2-5.8-1.4-1.8-3-3.3-4.6-4.9-.8-.7-1.5-1.4-2.2-1.9-.7-.5-1.6-.7-2.6-.8-1.6,0-3.3-.5-5.1-.5-1.9.1-3.9.2-5.8.1-1.4,0-2.7-.2-4.1,0-.8.2-1.6.6-2.5.7-.8.1-1.9,0-2.5.7,0,0-.4,0-.7,0-1-.2-2.1,0-2.8.5-.7.4-1.3.6-2,.7-1.8.5-3.7,1.1-5.3,1.7-1.2.5-2.4.8-3.3,1.6-.2.2-.5.4-.6.6-.2.2-.2.4-.4.6-.2.4-.4.9-.7,1.4-.6,1-.6,2.3-.5,3.6,0,.7-.2,1.7.5,2.2,0,0,0,.3,0,.5-.3,1.1,0,2.2.3,3.3.2.6.3,1.1.5,1.7,0,.3.1.6.2.9,0,.3,0,.6,0,.9,0,2.4.4,4.8.6,7.2,0,.6,0,1.3.4,1.9.2.2.3.9.2,1.2-.5,1.8,0,3.7.1,5.5,0,2.1.5,4.1.3,6.3-.1.9-.1,2.1.6,3.1.3.5.2,1.5.3,2.2.1.6.5,1.2.5,1.8,0,.5-.1,1.1-.2,1.6,0,.2,0,.4,0,.5,1,2.9.5,6,1.1,9,.6,3,1,6.1,1.4,9.1.2,1.7.4,3.4-.5,4.8-.4.6-1,.7-1.4,0-.3-.5-.7-1-.8-1.6-.3-.9-.6-1.9-.8-2.8-.5-1.9-1.4-3.8-1.4-5.9,0-.6-.4-1.3,0-1.9,0,0,0-.3,0-.5-1.2-2.6-1-5.5-1.4-8.2-.3-2.3-1.2-4.5-1.2-7-.8-1.2-.8-2.8-.8-4.1.2-4.7-.6-9.3-.9-14-.2-2.4-.4-4.7-.6-7.1l-.2-1.7c0-.5-.1-1.1-.2-1.7-.2-1.1-.4-2.3-.5-3.5,0-.8-.5-1.5-.3-2.5.2-1,0-2.2,0-3.4,0-1.1.1-2.3.6-3.3.1-.3.3-.5.4-.8l.5-.8c.2-.3.4-.5.6-.7l.3-.4.3-.3c.8-.8,1.7-1.4,2.6-2,1.8-1.1,3.7-1.9,5.5-2.4,3.7-1,7.4-1.8,11.1-2.5,2.3-.4,4.5-1,6.9-1.1,1,0,2-.4,3,.2.3.2,1.2-.3,1.8-.3,1.6,0,3.2,0,4.8,0,1.2,0,2.4.2,3.6.5,1.2.3,2.5.8,3.6,1.5,1.4.8,2.6,1.7,3.6,2.7,1,1,2,2.1,2.9,3.3,1.1,1.5,2,3,2.9,4.5,1,1.5,2.3,2.9,3.1,4.5,1.4,3,3.4,5.5,5.1,8.2,1.7,2.7,3.5,5.3,5.4,7.8,1.1,1.4,1.7,3,2.8,4.3.5.6.2,2.4-.4,2.5-.1,0-.3,0-.4,0-1.5-1-3.1-1.8-4.3-3.5-1.7-2.4-3.5-4.8-5.1-7.3Z"/>
      <path d="M297,202.5c.3-.2.7-.3,1-.5.1,0,.4,0,.2-.4,0-.3.3.2.4.2.3-.2.6-.3.9-.5.3-.2.5-.5.7-.7.3-.2.7,0,.9-.5.1-.4.6,0,.8-.2.2-.2.4-.4.8-.3.2,0,.5.2.7,0,0-.1,0-.5.2-.5.1,0,.4.2.2-.5,0,0,0,0,.1,0,.3.3.4.2.4,0,0-.3.1-.3.2-.3.2-.1.5-.3.8-.3.2,0,.5.1.7,0,.2,0,.3-.4.6-.2.3.2.5.1.7,0,.1,0,.3.2.2-.4,0,0,0,0,0,0,.6.7.5-.5.9-.4.4,0,.7-.2,1-.3,0,0,.2.1.2-.4,0-.2,0-.2.1-.1.4.5.6,0,.8,0,.3,0,.5-.3.9,0,.2.2.4.2.3-.4,0-.3.2,0,.3-.2,0,0,0-.4.2-.4,0,0,.2.2.3.3,0,0,0,0,0,0,.2-.8.9,0,1.2-.3.4-.3.8-.4,1.3-.4.2,0,.5,0,1,1.2.2.5.4,1,.3,1.4,0,.3,0,.5,0,.6-.1.1-.2.3-.3.4-.2.3-.3.8-.7.6-.1,0-.1.3-.3-.2,0,0,0,0,0,0-.1.9-.6.5-1,.6-.3.1-.4.8-.8.7,0,.7-.2.6-.4.5-.8-.4-1.3.2-1.9.3-.6.1-1.2.4-1.8.6-.1,0,0,.4-.3.2-.2-.2-.3,0-.4,0-.1,0-.2.2-.4.1-.7-.4-1,.1-1.5.2-.5.1-1,.3-1.4.6-.2.2-.4.6-.7.6-.1,0-.1.4-.5-.1-.1-.1,0,.3,0,.4-.2.1-.4.2-.6.3-.3.1-.5.2-.8.4-.1.1-.2.4-.3.5-.1.1-.3.2-.5.2-.2,0-.5,0-.8,0-.2,0-.4.4-.7.3-.6-.3-.9.2-1.3.3-.4.1-.8.3-1.1.6-.2.2-.6-.2-.8,0,0,0-.9-1.2-1.1-1.6,0,0,0-.2,0-.2,0-.5-.1-1.3.1-1.4.4-.1.7-.4,1.1-.5Z"/>
      <path d="M287.2,210.2c.3.6.6,1.2,1.1,1.7.2.2.1.6.7.4.3,0,0,.5.2.7.5.4.9.9,1.5,1.3.5.3,1.2.5,1.7.7.5.2,1,.8,1.7.7.6,0,.8.5,1.3.6.5,0,1,0,1.5.3.3.2.7.5,1.1.4.2,0,.5-.4.7-.3.2,0,.5.3.7-.4,0,0,.1,0,.2.1.3.4.6.3.7,0,.2-.3.3-.3.5-.3.5-.1,1-.3,1.5-.3.4,0,.8,0,1.2,0,.2,0,.4-.2.5-.3,0,0,.2-.1.3-.1,0,0,0,0,.1,0,.3.2.4.1.5,0,0,0,.5,0-.2-.3,0,0,0,0,0,0,.6.1.6,0,.4,0-.1,0-.5-.1-.3-.2.2,0,.2,0,.2,0,0,0-.2,0-.3,0,0,0,.1-.1-.4.1-.2,0-.2.1,0,0,.3-.2.2-.3.2-.3,0,0,0,0-.1,0-.1,0-.3-.2-.4-.3-.5-.5-1.2-.7-1.5-1.5,0-.4-.3-.7-1-.5-.3,0-.4-.3-.6-.5-.2-.1-.5,0-.7-.2-.1-.1,0-.4-.1-.6,0,0,0-.1-.1-.1-1.2-.3-1.2-1.7-1.9-2.4-.8-.7-1.3-1.7-1.7-2.6-.2-.5-.3-1.2.6-2,.4-.4.9-.6,1.3-.5.3,0,.6.1.7.2.2.2.5.4.7.6.4.4,1.2.6,1.3,1.2,0,.2.4.2,0,.6,0,0,0,.1,0,.1,1.1.2,1.2,1.1,1.7,1.6.5.5,1.4.5,1.7,1.1.7-.2.9.1,1.1.5.3.7.8,1.1,1.3,1.4h.1c0,0,.2.2.2.2l.4.2.8.5c.6.3,1.3.6,1.9.9,1,.5,2,.9,2.9,1.4-.3.4-.9.9-1.4,1.5-.5.5-1.1,1-1.6,1.5-.3.3-.2.7-.9.8-.6.1-.9.6-1.4.9-.4.3-.8.6-1.3.7-.3,0-.4,0-.6,0-.2,0-.3,0-.5,0-.3,0-.6.2-.9.3-.6.2-1.2.5-1.8.6-1.3.2-2.5.3-3.8.5-.8.1-1.6.4-2.4.2-.3,0-.7.2-1-.5,0-.2-.5.2-.7.2-.5,0-1.1-.3-1.6-.4-.7-.2-1.4-.6-2.1-.8-.4-.2-.9-.2-1.4-.4-.5-.2-.9-.5-1.2-.8-.5-.4-.8-1-1.2-1.4-.4-.5-1.1-.7-1.3-1.4-.4-1.2-1.2-1.9-1.7-2.9-.5-1-.9-2.1-1.3-3.3-.2-.7.3-1.4.3-2,0-.4,1.5-.5,2-.3,0,0,.2,0,.2.1.4.5,1.1.8,1.1,1.2,0,.6.3,1.3.6,2Z"/>
      <path d="M301.7,228.6c-.6,0-1.1-.1-1.7-.1-.2,0-.4-.3-.7.2-.1.3-.3-.4-.5-.4-.5,0-1-.2-1.6-.2-.5,0-1.1,0-1.6,0-.5,0-1-.5-1.6-.3-.5.1-.7-.5-1.2-.5-.5,0-1-.2-1.3-.6-.2-.3-.4-.7-.8-.7-.2,0-.5.1-.7,0-.2-.1-.2-.5-.7,0,0,0,0-.1,0-.2,0-.5-.2-.6-.5-.5-.3,0-.5,0-.6-.2-.4-.3-.8-.7-1.1-1.1-.2-.3-.3-.8-.5-1.1-.2-.4-.7-.5-.6-1,0-.5-.1-.7-.3-1,0-.2,0-.5-.6-.4,0,0,0,0,0-.1.5-.8-.7-.9-.7-1.5,0-.6-.3-1.1-.5-1.6,0-.1,0-.3-.4-.4-.2,0-.2-.2-.1-.3.5-.5,0-.9,0-1.3,0-.5-.4-.9,0-1.4.2-.2.2-.5-.4-.7-.3,0,0-.3-.1-.5,0-.1-.4-.2-.4-.4,0-.1.2-.3.3-.4,0,0,0,0,0-.1-.7-.6,0-1.3-.1-2-.2-.7-.2-1.3-.1-2,0-.4.2-.7,1.3-1,.5-.1,1.1-.1,1.4,0,.2.1.5.2.5.3.1.2.2.4.4.6.2.4.8.8.5,1.2,0,.1.2.3-.3.4,0,0-.1,0,0,0,.8.5.3,1.1.5,1.7,0,.5.8.8.6,1.3.7.2.6.5.4.8-.5,1,.1,1.8.2,2.7.1.9.5,1.7.8,2.5,0,.1.4,0,.3.3-.2.3.1.3.2.5,0,.1.3.2.2.4-.1.4,0,.7.2,1,.2.2.5.4.7.7.4.5.9.9,1.5,1.1.4.1.9,0,1.2.3.1.1.4-.1.4.5,0,.2.3-.2.4-.2.3,0,.5.2.8.3.4.1.8.3,1.2.3.3,0,.5-.2.8-.2.3,0,.5,0,.8.2.3.1.6.4.9.5.3.1.7-.1,1,.2.6.6,1.2.4,1.9.5.6.1,1.3.2,1.9.1.4,0,.7.5,1,.5.2,0,.3,1.5.2,2,0,0,0,.2,0,.2-.4.4-.8,1.2-1.2,1.1-.6-.1-1.2,0-1.9-.1Z"/>
      <path d="M291.3,236.1c.2-.1.4-.2.5-.4,0,0,.3,0,0-.4-.1-.2.3.2.4.1.1-.2.4-.3.5-.4.1-.2.1-.5.2-.7.1-.2.5-.1.4-.5,0-.3.4-.1.4-.3,0-.2.1-.4.4-.4.2,0,.5,0,.5-.1,0-.1-.2-.4,0-.4,0,0,.3,0,0-.4,0,0,0,0,.2,0,.4.2.4,0,.3-.2-.2-.2,0-.3,0-.3.1-.2.2-.4.4-.5.1,0,.4,0,.6-.1.2,0,0-.4.4-.3.3,0,.4,0,.5-.1,0,0,.3,0,0-.4,0,0,0,0,0,0,.8.4.1-.5.4-.6.3,0,.4-.3.5-.5,0,0,.2,0,0-.3-.1-.1,0-.2,0-.1.6.3.4-.1.6-.2.2,0,.2-.4.7-.3.2,0,.4,0,0-.4-.2-.2.1-.1.1-.2,0,0-.2-.3-.1-.4,0,0,.2,0,.4,0,0,0,0,0,0,0-.3-.7.6-.3.7-.7,0-.4.4-.6.6-.7.2-.1.4-.1,1.4.5.4.3.8.7,1,.9.1.2.3.4.3.5,0,.1,0,.3,0,.4,0,.3.3.8,0,.8-.1,0,0,.3-.4,0,0,0-.1,0,0,0,.4.7-.2.6-.3.9-.1.2.2.8-.2.8.4.5.2.6,0,.5-.8,0-.8.6-1.2.9-.4.3-.7.7-1,1.1,0,0,.2.4-.1.2-.3-.1-.2.1-.3.2,0,0,0,.2-.2.2-.8-.1-.7.4-1,.7-.3.2-.6.5-.8.9,0,.2,0,.7-.2.8-.1,0,0,.4-.4,0-.1,0,.1.3,0,.4,0,.2-.2.3-.3.4-.2.2-.4.3-.5.5,0,.1,0,.4,0,.6,0,.2-.2.3-.4.3-.2,0-.5,0-.7.2-.2,0-.2.5-.6.4-.6-.2-.8.3-1.2.4-.4.2-.7.3-1.1.6-.2.2-.6-.2-.8-.1-.1,0-.7-1.3-.9-1.8,0,0,0-.2,0-.2,0-.5-.2-1.2,0-1.2.2,0,.4-.2.6-.3Z"/>
      <path d="M283,196.7c0-.1,0-.3,0-.4,0,0,.2,0-.3-.2-.3,0,.4,0,.4,0,0-.1,0-.2,0-.4,0-.1-.3-.3-.3-.4,0-.1.3-.2,0-.4-.3-.1.2-.2.1-.3-.1-.1-.2-.2,0-.3.2,0,.4-.1.3-.2,0,0-.4-.1-.4-.2,0,0,.3,0-.3-.2,0,0,0,0,.1,0,.4,0,.4,0,.1-.1-.3,0-.2,0-.2-.1,0-.1,0-.2,0-.3,0,0,.3-.1.4-.2,0,0-.2-.2.1-.2.3,0,.3-.1.3-.2,0,0,.3,0-.3-.2,0,0,0,0,0,0,.8,0-.2-.2,0-.3.2,0,0-.2,0-.4,0,0,.2,0-.3-.1-.2,0-.2,0,0,0,.6,0,.3-.2.4-.2.1,0-.1-.2.3-.3.2,0,.3,0-.3-.2-.3,0,0,0,0-.1,0,0-.3,0-.3-.1,0,0,.2,0,.3,0,0,0,0,0,0,0-.6-.2.3-.3,0-.4-.2-.2,0-.3,0-.5,0,0,.3-.1,1.4,0,.5,0,1.1.1,1.4.2.2,0,.5.1.5.1,0,0,.2.1.3.2.2.1.7.3.4.3,0,0,.2,0-.3,0,0,0-.1,0,0,0,.8.2.2.3.3.4,0,.1.7.3.4.4.6.1.5.2.3.2-.7.1-.3.4-.4.6-.1.2,0,.5-.1.7,0,0,.3.1,0,.1-.3,0,0,0,0,.1,0,0,.1.1,0,.1-.7.1-.3.3-.4.5,0,.2-.2.3,0,.5,0,.1.4.3.3.4,0,0,.3.1-.3.1-.2,0,.3,0,.3.1,0,0,0,.2,0,.2,0,.1,0,.2,0,.3,0,0,.3.2.3.2,0,0,0,.1,0,.2,0,0-.3.1-.4.2,0,0,.2.2,0,.3-.5.1-.3.3-.4.4,0,.1-.1.3,0,.5,0,0-.4.1-.5.2,0,0-1.5,0-2,0,0,0-.2,0-.2,0-.5-.1-1.2-.3-1.1-.3,0-.1,0-.3,0-.4Z"/>
      <path d="M293,196.7c0-.1,0-.3,0-.4,0,0,.2,0-.3-.2-.3,0,.4,0,.4,0,0-.1,0-.2,0-.4,0-.1-.3-.3-.3-.4,0-.1.3-.2,0-.4-.3-.1.2-.2.1-.3-.1-.1-.2-.2,0-.3.2,0,.4-.1.3-.2,0,0-.4-.1-.4-.2,0,0,.3,0-.3-.2,0,0,0,0,.1,0,.4,0,.4,0,.1-.1-.3,0-.2,0-.2-.1,0-.1,0-.2,0-.3,0,0,.3-.1.4-.2,0,0-.2-.2.1-.2.3,0,.3-.1.3-.2,0,0,.3,0-.3-.2,0,0,0,0,0,0,.8,0-.2-.2,0-.3.2,0,0-.2,0-.4,0,0,.2,0-.3-.1-.2,0-.2,0,0,0,.6,0,.3-.2.4-.2.1,0-.1-.2.3-.3.2,0,.3,0-.3-.2-.3,0,0,0,0-.1,0,0-.3,0-.3-.1,0,0,.2,0,.3,0,0,0,0,0,0,0-.6-.2.3-.3,0-.4-.2-.2,0-.3,0-.5,0,0,.3-.1,1.4,0,.5,0,1.1.1,1.4.2.2,0,.5.1.5.1,0,0,.2.1.3.2.2.1.7.3.4.3,0,0,.2,0-.3,0,0,0-.1,0,0,0,.8.2.2.3.3.4,0,.1.7.3.4.4.6.1.5.2.3.2-.7.1-.3.4-.4.6-.1.2,0,.5-.1.7,0,0,.3.1,0,.1-.3,0,0,0,0,.1,0,0,.1.1,0,.1-.7.1-.3.3-.4.5,0,.2-.2.3,0,.5,0,.1.4.3.3.4,0,0,.3.1-.3.1-.2,0,.3,0,.3.1,0,0,0,.2,0,.2,0,.1,0,.2,0,.3,0,0,.3.2.3.2,0,0,0,.1,0,.2,0,0-.3.1-.4.2,0,0,.2.2,0,.3-.5.1-.3.3-.4.4,0,.1-.1.3,0,.5,0,0-.4.1-.5.2,0,0-1.5,0-2,0,0,0-.2,0-.2,0-.5-.1-1.2-.3-1.1-.3,0-.1,0-.3,0-.4Z"/>
    </g>
    <path d="M296.7,181.4c-1.5.4-3.1.8-4.6,1.3-.6.2-1.2,0-1.7.8-.2.3-.9-.1-1.5,0-1.4.5-2.9.8-4.3,1.2-1.4.4-2.7,1-4.1,1.5-1.4.4-2.9.5-4.1,1.2-1.1.6-2.2.4-3.3.8-1.1.4-2.3.8-3.5.9-.9,0-1.8,0-2.6.4-.5.2-.9.6-1.5.8-.5.1-1.2,0-1.5.7,0,0-.3,0-.4,0-.7-.2-1.4,0-1.8.4-.4.4-.8.5-1.2.6-1.2.4-2.3.7-3.5,1-.9.2-1.8.2-2.7.4-.9.2-1.8.7-2.8.7-.9,0-1.7.2-2.6.4-.5.1-1.1,0-1.3.7,0,0-.2.1-.3,0-1.6-.4-2.6,1-4,1.1-1.5.2-2.9.7-4.3,1.1-.4.1-.8,0-1.1.6,0,.2-.5.3-.7.3-1.2-.3-2.2.3-3.3.5-1.3.2-2.4.8-3.8.7-.6,0-1.3,0-1.8.8-.2.3-.9.2-1.3.4-.4.2-.6.5-1,.6-.3,0-.7,0-1,0-.1,0-.2,0-.3,0-1.6,1.1-3.7.8-5.4,1.4-1.8.7-3.6,1.1-5.5,1.5-1,.2-2.1.3-3.1-.6-.4-.4-.6-.9-.2-1.4.3-.3.6-.6.9-.8.6-.2,1.1-.5,1.6-.8,1.1-.5,2.1-1.3,3.4-1.4.4,0,.8-.4,1.2,0,0,0,.2,0,.3,0,1.4-1.2,3.2-1.2,4.8-1.7,1.4-.4,2.6-1.4,4.1-1.5.6-.8,1.5-1,2.4-1,2.9-.1,5.6-1.3,8.4-1.9,2.8-.7,5.6-1.5,8.4-2.2.5-.1.8-.6,1.4-.5.6.1,1.2-.3,1.8-.4.6-.2,1.1-.4,1.7-.4,2.4,0,4.5-.9,6.7-1.5,2.2-.5,4.4-1.1,6.6-1.8,1.3-.5,2.5-1.2,3.9-1.4.6-.1,1.1-.6,1.8-.2.2.1.6-.5,1-.6.9-.3,1.8-.5,2.8-.8,1.3-.3,2.6-.6,3.8-1.1.8-.2,1.5-.7,2.2-1,.8-.3,1.6-.5,2.4-.7,1.1-.2,2.1-.3,3.2-.5,1.1-.2,2.1-.8,3.2-.8,2,0,3.9-.8,5.8-1.2,1.9-.5,3.8-.9,5.7-1.6,1.1-.4,2.2-.1,3.2-.4.5-.1,1.5,1.1,1.5,1.7,0,.1,0,.2-.1.3-.9.7-1.7,1.7-2.8,2-1.8.4-3.5.9-5.2,1.4Z"/>
    <path d="M271.9,190.3c.2.8.3,1.6.5,2.4,0,.3-.2.6.4.9.3.1-.3.5-.3.8,0,.4,0,.8.1,1.2v1.5c.2,1.2.3,2.5.2,3.8,0,1.3-.5,2-.3,3.6,0,.7,0,1.1-.2,1.4l-.2.5c0,.1-.1.2-.1.4h-.1c-.7-.6-1.5-1.3-2.4-2.5-.6-.9-1.2-1.7-1.7-2.1-.3-.3-.7-.2-1.2-.7-.2-.2-.4-.5-.6-.6-.2-.1-.4-.2-.8,0,0,0,0-.1,0-.2,0-.5-.2-.5-.4-.3-.2.2-.3.2-.4.1h-.9c-.3,0-.6-.3-.9-.3-.3,0-.6.4-1,.3-.4-.1-.7,0-1,.2-.2,0-.5,0-.2.6,0,0,0,0,0,0-.5-.1-.6,0-.7.4,0,.3,0,.6-.3.8-.5.3-.7.9-.9,1.4,0,.1-.3.2.1.5.1,0,.1.2,0,.3-.7.2-.4.7-.6,1.1-.2.5.1.9-.3,1.4-.2.2-.2.6.4.7.3,0,0,.3.2.5.1.1.4.1.5.3,0,.1-.1.3-.2.5,0,0,0,0,0,.1.5.2.6.4.7.8,0,.3.2.7.5.9.6.4,1.1.8,1.7,1.2.3.2.6.5.5,1.7,0,.5-.2,1.1-.5,1.3-.2.2-.5.3-.7.3-.3,0-.7,0-1.1-.1-.7-.1-1.6-.1-2-.8-.1-.2-.5-.2-.3-.7,0,0,0-.2,0-.2-1.3-.1-1.5-1.3-2.1-2.1-.5-.7-1.4-1.3-1.4-2.2-.7-.3-.8-1-.7-1.5.2-1,.3-1.9.4-2.7.1-.9.2-1.8.6-2.6.8-1.6,1.8-3.1,3.1-4.3.2-.2.2-.6.7-.6.4,0,.7-.4,1-.6.3-.2.6-.5,1-.5.8,0,1.4-.1,2.1-.3.7-.1,1.4-.3,2.2-.2.7,0,1.5.3,2.2.6.3.1.7.3,1,.5.2.1.2,0,.2.1,0,0,0,0,.1,0,.2,0,.3-.3.4,0,0,.1,0-.4.3.7.1.3,0-.4,0-.5,0,0,0,0,0,0h0s0,0,0,0c0-.1,0-.2,0-.4,0-.1-.3-.4-.3-.5,0,0,0,0,0,0,0,0,.1,0,.2,0,0,0,0,0,0,0,0-.1,0-.2,0-.4,0-.5-.3-1,0-1.5.4-1,0-1.8-.1-2.8-.1-.9-.3-1.8-.7-2.6-.2-.5.1-1.1,0-1.6,0-.2,1.2-1,1.7-1.1,0,0,.2,0,.3,0,.6.3,1.5.6,1.6,1.2.2.9.5,1.8.7,2.7Z"/>
  </g>
</svg>