<?xml version="1.0" encoding="UTF-8"?>
<svg id="ARTWORK" xmlns="http://www.w3.org/2000/svg" width="600" height="600" viewBox="0 0 600 600">
  <path d="M400.8,336.9c0-5.3,0-10.7,0-16,0-2,.2-4-.3-6.1-.3-1,.4-2.9.3-4.8,0-5,0-10,0-14.9-.1-4.8-.2-9.7-.3-14.5,0-4.8.2-9.7,0-14.3-.3-4,.2-7.6.1-11.4-.1-4.1-.2-8.3,0-12.2.2-2.9.4-5.8.3-8.6,0-1.8-.4-3.5-.4-5.4,0-1.8.3-3.9-.3-5.5,0-.1,0-.9.1-1.4.4-2,.4-4.4.1-6-.3-1.6-.2-3-.3-4.5,0-4.1,0-8.2,0-12.3,0-1.5,0-3.1.2-4.6,0-.9,0-1.2,0-1.7,0-.5-.2-1-.5-1.4-.5-.9-1.5-1.6-2.5-1.8-.3,0-.5-.1-.8-.1h-.4s-.6,0-.6,0c-.8,0-1.5,0-2.3-.1-3-.3-5.8-.3-8.7-.3-1.6,0-3.6-.3-4.9.3-.1,0-.7,0-1,0-4.7-.8-9.3.3-14.1,0-4.9-.2-9.9,0-14.9,0-1.3,0-2.7-.2-4,.3-.4.2-1.8.2-2.5,0-3.7-.6-7.5-.2-11.3-.4-4.3-.1-8.6.2-12.9-.3-1.8-.2-4.3-.3-6.5.3-1,.3-3.1,0-4.7,0-.3,0-.6,0-1,0h-.5c0,0-.3.1-.3.1-.4.1-.8.2-1.1.4-.6.2-1.3.4-1.9.9-.2.1-.3.4-.4.6-.2.5-.3,1-.4,1.5,0,.2,0,.5,0,.7,0,0,0,.3,0,.5v.6c0,1.6,0,3.1,0,4.7-.1,3.1-.3,6.3-.2,9.4.2,6.4.1,12.8,0,19.2,0,3.5-.2,7.1-1.4,9.5-.5,1.1-1.1,1.1-1.4-.4-.2-1.1-.5-2.4-.5-3.6-.1-2-.2-4-.3-6-.2-4.1-.7-8.1-.4-12.3,0-1.3-.2-2.8.3-3.9,0-.2.1-.7,0-.9-.4-2.8-.5-5.7-.4-8.5,0-2.9,0-5.9.1-8.8.2-3.1,2.1-6,5-7.4.7-.3,1.5-.6,2.3-.7.4,0,.8,0,1.2-.1h.9c1.2,0,2.4,0,3.6,0,2.7-.6,5.9-.5,8.6-.3,9.6.7,19.3.2,28.9.3,9.8,0,19.5,0,29.3,0,1.7,0,3.1-.4,5,0,1.8.3,4.2,0,6.3,0s4-.1,5.8,0h1.5c.6.2,1.2.3,1.8.5,1.2.3,2.3.9,3.3,1.7,1.9,1.5,3.1,3.9,3.2,6.4v5.8c0,1.9,0,3.8,0,5.8,0,7.6-.1,15.3,0,22.9,0,4.6.4,9.3.3,14,0,2,.3,4.1-.3,6.1-.2.6.3,2.4.3,3.7,0,3.2,0,6.4,0,9.6s0,8.9,0,13.3c0,2.7.3,5.4.3,8.1,0,2.8,0,5.7,0,8.5,0,3.6-.3,7.2-.3,10.8,0,3.7.2,7.6,0,11.2-.5,6.6-.3,13.2-.3,19.8,0,3.3,0,6.6,0,9.9v2.5c0,1-.2,2.1-.5,3-.7,2-2.2,3.7-4,4.7-1.1.6-2.2.9-3.4.9-.6,0-1,0-1.5,0h-1.3c-1.8-.2-3.5-.3-5.3-.3-1.7,0-4-1.5-3.3-2,.1,0,.4-.2.7-.2,1.8-.3,3.5-.5,5.3-.8.9-.1,1.8-.2,2.7-.3.5,0,.9,0,1.4,0,.2,0,.5,0,.7,0,.2,0,.4,0,.5,0,1.1-.1,2.1-.6,2.9-1.4.8-.8,1.2-1.8,1.3-2.9v-.4s0-.5,0-.5v-1.1s0-2.3,0-2.3v-4.5Z" fill="#00b4e9"/>
  <g>
    <path d="M367.9,400.2c7.6-.9,17.5,1.2,25.1,1.5,1.2,0,2.6.2,3.5,1,1,.9,1.3,2.4,1.4,3.8.6,5.4-.8,11-.8,16.4,0,.5,0,1.2-.5,1.5-.3.2-.6.2-1,.3-19,1.4-38.6.3-57.6,1.8-11.5.9-19.6.2-34.4.2s-1.9-.3-2.5-1.1c-.4-.5-.4-1.2-.5-1.8-.2-2.5-.5-5.1-.7-7.6,7.2.2,14.4.5,21.6.7,4.1.1,8.2.3,12.3,0,7-.4,14-1.8,20.5-4.2,6.6-2.4,13.1-6.2,16.3-12.4" fill="#00b4e9"/>
    <path d="M355,414.7c-3.6,1.3-7.4,2.3-11.2,3.1-1.4.3-2.9.3-4.3,1-.7.4-2.2-.1-3.5,0-3.6.4-7.2.3-10.8.2-3.4,0-6.8,0-10.3,0-3.4,0-6.9-.5-10.2-.3-.4,0-.8,0-1.3,0h-.6s0,0,0,0h-.4c0,0,0,0,0,0,0,0,0,0,0,.1h0c0,.1,0,0,0,.3.1,1,.3,2.1.4,3.1l.2,1.5v.2s0,0,0,.1c0,0,0,0,0,.1,0,0,0,0,.2.1,0,0,.1,0,.2,0,0,0,.2,0,.4,0h.8c0,0,1.5.2,1.5.2,1,0,2,.1,3.1,0,1.3,0,2.5-.4,3.9-.3,1.3,0,2.7.3,3.9-.3,0,0,.7,0,1,.2,1.4.4,3.1.4,4.2.2,1.1-.3,2.1-.2,3.2-.2,2.9,0,5.7-.1,8.5-.2,2.1,0,4.2,0,6.5,0,2.3,0,4.7-.5,6.8-.3,2.1.2,4.1.1,6.2,0,1.2,0,2.5.2,3.5-.4,0,0,.5,0,.7,0,3.3.8,6.6-.3,10-.2,3.5.2,7,0,10.5,0,.9,0,1.9.1,2.8-.3.3-.2,1.3-.2,1.8-.1,2.6.6,5.3,0,8,0,1,0,1.9,0,2.9-.1h1.1c0,0,.2,0,.3-.1.1,0,.1-.1.2-.2,0-.2.1-.3.2-1,.3-1.3.5-3.1.1-4.7-.2-.7.2-2.2.3-3.3,0-.9-.2-1.8-.2-2.6,0-.7.3-1.4.3-2.2,0-.2,0-.5,0-.7-.2-1-.4-2.1-.6-2.6-.1-.3-.2-.4-.2-.5,0,0,0-.1-.3-.3-.5-.2-1.5-.3-2.7-.5-1.1-.1-2.3-.2-3.4-.3-4.6-.3-9-1-13.4-1.3-2.4-.2-4.8-.3-6.5-1.3-.8-.4-.9-1,.2-1.4.8-.3,1.7-.6,2.6-.7,1.5-.1,2.9-.2,4.3-.2,2.9,0,5.9-.2,8.8.4.9.2,2,0,2.7.6,0,0,.5.2.7.1,1,0,2-.1,3,0h1.5c.5,0,1,0,1.5.1.6,0,1.2.1,1.9.3.7.2,1.4.6,2,1.1.6.6,1.1,1.3,1.3,1.9.3.7.4,1.3.5,1.9.6,3.7.9,7.3.3,10.8.4,2,0,4.1-.2,5.9,0,.1,0,.7-.1,1.1,0,.4,0,.8-.2,1.3-.2.8-.7,1.6-1.4,2.1-.5.3-1.1.5-1.7.6-.3,0-.7,0-1,0h-.8s-2.2.1-2.2.1l-4.4.2c-2.9.2-5.8.3-8.8.3-6.9,0-13.8.1-20.8.2-1.2,0-2.2.4-3.6.1-1.3-.2-3,0-4.5,0-1.4,0-2.8.2-4.1.1-2.7-.2-5.4-.1-8.1,0-2.7.2-5.5.4-8.2.5-5.5,0-10.9-.1-16.3,0-3.3,0-6.5.4-9.8.2-.6,0-1.4,0-2.3-.4-.8-.3-1.6-.8-2.1-1.6-.5-.7-.6-1.5-.5-2.3,0-.3,0-.7-.2-1.2-.1-.5-.3-1-.4-1.5v-1.4c-.1,0-.3-1.6-.3-1.6l-.4-5h2.3c0,0,6.2.3,6.2.3,1.6,0,3.1.1,4.7.1,1.9,0,3.8-.2,5.7-.2,2,0,4,0,6,.2,2.5.2,5,.4,7.5.5,2.6,0,5.2-.4,7.7-.4,4.6,0,9.1-1.2,13.4-2.5,4.3-1.3,8.6-3,12-5.7,1.9-1.5,3.9-2.7,5.3-4.7.3-.5,1-.8,1.6-1,.6-.2,1.2-.2,1.3,0,0,.1,0,.4,0,.6-.9,2.5-2,5-4.4,7-3.6,2.9-7.7,4.9-11.8,6.4Z" fill="#00b4e9"/>
  </g>
  <path d="M267.9,136.5c0-.2,0-.3,0-.4,0,0,0-.2,0-.3,0,0,.2-.2-.3-.2-.3,0,.4-.1.3-.2,0-.2,0-.4,0-.5,0-.2-.3-.3-.4-.5,0-.2.2-.4-.1-.5-.3-.1.2-.3,0-.4-.1-.1-.2-.3,0-.4.2-.1.4-.2.3-.3,0,0-.4-.1-.4-.2,0,0,.3-.2-.3-.2,0,0,0,0,.1,0,.4,0,.4-.2,0-.2-.3,0-.2-.1-.3-.2,0-.1,0-.3,0-.4,0-.1.3-.2.3-.3,0-.1-.2-.2,0-.4.3-.1.3-.2.3-.3,0,0,.3-.1-.4-.2,0,0,0,0,0,0,.8-.2-.3-.3,0-.5.2-.2,0-.4,0-.5,0,0,.2-.1-.3-.1-.2,0-.2,0,0,0,.6-.2.2-.3.3-.4.1-.2-.2-.3.3-.5.2,0,.3-.2-.3-.2-.3,0,0-.1,0-.2,0,0-.3,0-.3-.1,0,0,.2,0,.3-.1,0,0,0,0,0,0-.7-.2.2-.5,0-.7-.2-.2-.1-.5,0-.7,0-.1.2-.3,1.4-.4.5,0,1.1,0,1.4,0,.2,0,.5,0,.5.1.1,0,.2.1.3.2.2.1.7.3.5.4,0,0,.2,0-.3.2,0,0-.1,0,0,0,.8.2.3.4.3.6,0,.2.7.3.4.5.6,0,.5.2.3.3-.7.4-.2.7-.3,1.1,0,.4,0,.7,0,1.1,0,0,.4.1,0,.2-.3,0,0,.2,0,.2,0,0,.1.1,0,.2-.7.3-.2.6-.3.9,0,.3-.1.6,0,.8.1.2.5.3.3.5,0,0,.3.1-.3.2-.2,0,.3,0,.3.1,0,.1,0,.2,0,.4,0,.2,0,.3,0,.5,0,0,.3.2.4.3,0,.1,0,.2,0,.3,0,.1-.3.3-.3.4,0,.1.2.3,0,.4-.5.3-.2.5-.3.7,0,0,0,0,0,0h0s0,0,0,0h0c-.2,0-.6.2-.8.3-.3.1-.4.3-.4.3,0,0,0,0,0,0,0-.1,0,.3,0,.4,0,.2,0,.4,0,.5,0,0,0,.2,0,.2-.2.2-.5.5-.9.5-.4,0-.8-.1-.9-.4-.4-.7-.4-1.1-.5-1.6Z" fill="#00b4e9"/>
  <path d="M252.3,168.8h-1.6c-.5,0-1.1,0-1.8,0-.3,0-.5-.1-.8-.2-.3,0-.7,0-1.1,0-.5,0-.8-.8-1.2-1.2-.6-.5-1-1.4-1.2-2.1-.2-.6-.2-1.1-.3-1.6-.2-1-.6-1.9-.8-2.9-.2-1,0-2-.5-2.9-.4-.8,0-1.6-.1-2.3-.2-.8-.3-1.7-.1-2.5.1-.6.3-1.2.2-1.8,0-.4-.4-.7-.4-1.1,0-.4.3-.8-.3-1.1,0,0,0-.2.1-.3.4-.4.4-.9.1-1.2-.3-.3-.2-.6-.2-.9,0-.9,0-1.8.2-2.7.2-.7.5-1.4.8-2.1.3-.7.5-1.7,1.1-2.2.7-.5,1.1-1,1.6-1.5.3-.3.8-.3.7-1,0,0,.1-.2.2-.2.7,0,1.1-.3,1.6-.7.4-.4.9-.8,1.4-.9,1.1-.2,2.2-.6,3.4-.8.3,0,.6.1.8-.4,0-.2.4-.2.5-.1.8.6,1.5.1,2.3.2.9,0,1.7-.3,2.6.2.4.2.9.3,1.3-.3.2-.3.6,0,.9-.1.3,0,.5-.3.7-.4.2,0,.4.2.7.3,0,0,.1,0,.2,0,1.2-.7,2.5.1,3.7-.1,1.3-.2,2.5-.2,3.8-.2.7,0,1.4.2,1.9,1.3.2.5.3,1.1,0,1.4-.2.2-.4.5-.7.6-.4.1-.8.3-1.2.4-.8.2-1.6.8-2.4.5-.3,0-.6.2-.8-.3,0,0-.1-.1-.2,0-1.1.8-2.3.4-3.4.5-1,0-1.9.8-2.8.5-.5.7-1.1.6-1.7.4-1.9-.6-3.9,0-5.6,0-1.7,0-3.3.7-4.5,1.5-.2.1-.2.5-.5.5-.4,0-.5.4-.7.6-.2.2-.2.5-.5.6-.6.3-.8.8-1,1.4-.1.6-.2,1.3-.2,2-.2,1.4-.2,2.9,0,4.4.1.9.5,1.8.4,2.7,0,.4.3.8-.2,1.2-.2.1.3.5.4.7,0,.6.1,1.2.2,1.8,0,.9.1,1.7.3,2.5.1.5.4,1,.6,1.5.1.5.2,1.1.3,1.6,0,.3,0,.7,0,1,0,.3,0,.7,0,1,0,.4.3.1.2.4,0,.1,0,.2.2.3.2,0,.4.1.7.2.5,0,1.2,0,1.9,0,1.3,0,2.6.1,3.9,0,.7,0,1.4.4,2.1.5.3,0,.8,1.5.6,2,0,0,0,.2-.1.2-.7.5-1.4,1.2-2.2,1.1-1.2,0-2.4,0-3.6,0Z" fill="#00b4e9"/>
  <path d="M294.5,157.2c.2-.5.3-1.1.2-1.7,0-.3.2-.6-.4-.8-.3-.1.3-.5.3-.7-.2-.7-.2-1.5-.3-2.3-.2-.7-.5-1.5-.6-2.2-.2-.7,0-1.5-.4-2.2-.4-.6,0-1.2-.1-1.8-.2-.6-.4-1.1-.3-1.7,0-.4.2-.8,0-1.1-.1-.2-.5-.2-.6-.4,0-.2,0-.5-.6-.3,0,0,0-.1,0-.2.2-.4,0-.6-.3-.5-.3,0-.4,0-.5,0l-1.1-.7c-.3-.2-.6-.5-.9-.7-.4-.2-.9,0-1.2-.4-.3-.4-.7-.5-1.2-.5-.2,0-.5-.4-.8.2,0,0-.1,0-.2,0-.6-.9-1.4,0-2.1-.3-.7-.3-1.5-.2-2.2-.3-.2,0-.4-.2-.6.2,0,.2-.3.2-.4,0-.5-.7-1.1-.3-1.7-.5-.6-.2-1.3.1-1.9-.4-.3-.2-.7-.3-1,.3-.2.3-.5,0-.7,0-.2,0-.4.3-.6.3-.2,0-.3-.2-.5-.3,0,0-.1,0-.2,0-.9.7-1.9-.2-2.8,0-.9.2-1.9.3-2.9.3-.5,0-1.1-.1-1.6-1.2-.2-.5-.3-1-.1-1.4.1-.3.3-.5.5-.6.3-.1.6-.3.9-.4.6-.3,1.2-.9,1.9-.6.2,0,.4-.3.7.2,0,0,.1.1.2,0,.8-.9,1.8-.4,2.7-.5.8,0,1.5-.7,2.3-.4.4-.6,1-.5,1.4-.3,1.5.7,3.1.4,4.7.6,1.6.2,3.1.4,4.7.7.3,0,.6-.3.8,0,.2.3.7.2,1,.3.3,0,.7,0,1,.2,1.1,1,2.5,1,3.8,1.8,1.2.8,2.3,1.9,3.2,3.2.5.8,1.2,1.5,1.2,2.4,0,.4.4.7,0,1.1-.1.1.4.4.4.6.1.5.2,1,.2,1.5,0,.7.1,1.4.3,2.1,0,.4.4.8.5,1.2.1.4.2.9.2,1.3,0,.6-.1,1.1-.1,1.7,0,.6.4,1.1.2,1.8-.4,1.2,0,2.4-.4,3.8,0,.3-.2.7-.4,1-.2.4-.4.7-.6,1-.4.6-1,1.2-1.6,1.6-.8.5-1.8.3-2.7.3-.2,0-.4-.4-.4-.9,0-.5,0-.9.2-1.2,0,0,.1-.2.1-.2.2-.2.4-.5.5-.7,0-.2,0-.4.2-.5.4,0,.8-.6.9-1Z" fill="#00b4e9"/>
  <path d="M261,197.2l-.2,2.7c0,.9,0,1.8,0,2.7,0,.7-.2,1.3.3,2,.3.3-.3,1-.3,1.6.1,1.7,0,3.3.3,5,.2,1.6.5,3.2.7,4.8.2,1.6.1,3.3.6,4.8.4,1.3.1,2.6.4,3.8.3,1.3.6,2.7.6,4.1,0,1,0,2,.2,2.9.2.6.6,1.1.7,1.8,0,.6,0,1.3.6,1.8,0,0,0,.3,0,.5-.3.7-.1,1.5.3,2,.4.5.4,1,.5,1.4.3,1.3.6,2.7.8,4,.2,1,.2,2.1.4,3.1.2,1.1.7,2.1.7,3.1,0,1,.2,2,.5,2.9.1.5,0,1.2.8,1.5,0,0,.1.2.1.3-.3,1.8,1.2,2.9,1.5,4.5.3,1.6,1.1,3.2,1.7,4.7.2.4.2.9.8,1.1.2,0,.4.5.4.8-.1,1.4.8,2.4,1.2,3.6.5,1.4,1.3,2.6,1.5,4.1,0,.6.3,1.5,1.2,1.9.4.2.5.9.7,1.4.2.4.7.6.9,1,.2.3.1.8.2,1.1,0,.1,0,.2.2.3,1.6,1.6,1.7,3.9,2.9,5.7,1.2,1.8,2.1,3.8,3.1,5.7.5,1.1,1,2.3.3,3.5-.3.6-.8.8-1.3.5-.4-.2-.8-.5-1.1-.8-.4-.6-.8-1.1-1.3-1.6-.8-1.1-2-2.1-2.4-3.5-.1-.4-.6-.8-.4-1.3,0,0,0-.3,0-.3-1.6-1.3-2.1-3.4-3-5.1-.8-1.5-2.1-2.6-2.6-4.3-1-.6-1.3-1.6-1.6-2.5-.8-3.3-2.5-6.2-3.7-9.3-1.2-3.2-2.4-6.3-3.4-9.6-.2-.6-.7-.9-.6-1.7,0-.7-.4-1.4-.6-2.1-.2-.7-.5-1.3-.5-2,0-2.7-1-5.2-1.5-7.8-.5-2.6-.9-5.2-1.5-7.7-.4-1.6-1-3.1-1.1-4.7,0-.7-.5-1.3,0-2.1.1-.2-.4-.8-.5-1.2-.2-1.1-.3-2.2-.5-3.3-.2-1.5-.3-3-.6-4.6-.1-.9-.5-1.8-.6-2.7-.2-1-.2-2-.3-2.9,0-1.3.1-2.5.1-3.7,0-1.3-.3-2.6,0-3.9.5-2.3.2-4.6.4-6.9.2-2.3.4-4.6.6-6.8.1-1.3.8-2.4,1-3.6.1-.6,1.7-1.1,2.1-.7,0,0,.2.2.2.3.2,1.3.7,2.5.5,3.8-.4,2-.5,4-.7,6Z"/>
  <path d="M295,233.6c-.4-.9-.8-1.7-1.2-2.6-.2-.3,0-.8-.7-.9-.3,0,.1-.6,0-.9-.4-.8-.6-1.7-1-2.5-.4-.8-.9-1.5-1.2-2.3-.3-.8-.4-1.7-.9-2.4-.5-.6-.2-1.4-.5-2-.3-.7-.6-1.4-.6-2.1,0-.5.1-1.1-.1-1.6-.1-.3-.5-.5-.6-.9,0-.3.1-.7-.5-.9,0,0,0-.2,0-.3.3-.4.2-.8-.1-1.1-.3-.2-.4-.5-.4-.7-.2-.7-.3-1.4-.4-2.2,0-.6,0-1.1,0-1.7,0-.6-.4-1.1-.2-1.7.2-.6.1-1.1,0-1.6,0-.3.2-.7-.4-.8,0,0,0-.1,0-.2.7-.9-.5-1.6-.3-2.5.1-.9,0-1.8-.2-2.7,0-.2.1-.5-.3-.7-.2,0-.2-.3,0-.4.6-.7.2-1.4.2-2.1,0-.8-.2-1.5.3-2.3.2-.3.3-.8-.3-1.2-.3-.2,0-.6,0-.8,0-.2-.3-.5-.3-.7,0-.2.2-.4.4-.6,0,0,0-.1,0-.2-.7-1.2.3-2.3.2-3.4-.1-1.2,0-2.3.2-3.4.1-.6.4-1.3,1.5-1.6.5-.1,1.1,0,1.4.2.2.2.4.5.5.7,0,.4.2.7.2,1.1.1.7.6,1.5.3,2.2-.1.2.2.5-.3.7,0,0-.1.1,0,.2.7,1,.2,2,.2,3,0,.8.6,1.7.4,2.5.6.5.5,1,.4,1.5-.7,1.7-.1,3.3-.1,5,0,1.7.3,3.4.5,5,0,.3.4.5.2.9-.2.3,0,.7,0,1.1,0,.3.2.7.1,1-.5,1.4.2,2.7.4,4,.2,1.3.4,2.6.9,3.9.3.8.8,1.4.9,2.3,0,.3.5.6,0,1.1-.1.1.4.3.5.5.2.5.3,1,.5,1.6.2.7.4,1.5.7,2.2.2.4.6.8.8,1.2.2.4.4.9.5,1.4.1.6.2,1.2.3,1.8.2.6.7,1.1.7,1.8,0,1.2.6,2.2,1.1,3.3.2.5.4,1.1.7,1.6.3.6.4.9.7,1.2.1.1.2.3.2.5,0,0,0,.1,0,.2h0c0,.1,0,.2,0,.2,0,0,0,0,0,0,0,.1,0,.3.1.5.2.4.5.8.5,1.1,0,0,0,.2-.1.3-.4.4-1.1.6-1.7.5-.6,0-1.2-.3-1.5-.7-.5-.6-.9-1.2-1.2-1.8l-.7-1.5Z"/>
  <path d="M295.2,177.9c-.1.1-.3.2-.4.3,0,0-.3-.1,0,.4.1.2-.3-.2-.3-.2,0,.2-.3.2-.4.3,0,.1,0,.4-.2.6,0,.1-.4,0-.3.4,0,.3-.3,0-.4.2,0,.2,0,.3-.3.2-.2,0-.4-.2-.4,0,0,0,.2.4,0,.4,0,0-.3-.1,0,.4,0,0,0,0-.1,0-.3-.3-.4-.2-.2,0,.1.2,0,.2,0,.3,0,.1-.2.2-.3.3-.1,0-.3,0-.5,0-.1,0,0,.3-.3.2-.3-.2-.3,0-.4,0,0,0-.3-.1.1.4,0,0,0,0,0,0-.7-.5,0,.4-.3.4-.3,0-.3.2-.4.3,0,0-.2,0,0,.3.1.1,0,.2,0,.1-.5-.4-.4,0-.5,0-.2,0,0,.3-.5,0-.2-.1-.3-.1,0,.3.2.2,0,0,0,.2,0,0,.2.3.1.3,0,0-.2-.1-.3-.2,0,0,0,0,0,0,.3.6-.5.1-.5.4,0,.3-.2.4-.4.5-.1,0-.3,0-1.2-.7-.4-.3-.8-.7-1-1-.1-.2-.3-.4-.3-.5,0-.1,0-.3,0-.4,0-.2-.3-.7,0-.6,0,0,0-.2.3.1,0,0,0,0,0,0-.4-.7,0-.5.2-.7,0-.2-.2-.7,0-.7-.4-.5-.2-.5,0-.5.7.2.6-.3,1-.5.3-.2.5-.5.8-.7,0,0-.2-.3,0-.2.2.1.1,0,.2-.1,0,0,0-.2.2-.1.6.3.6-.2.8-.3.3-.1.5-.3.6-.6,0-.2,0-.6.2-.6,0,0,0-.3.4,0,.1.1-.1-.3,0-.3,0-.1.2-.2.3-.2.1-.1.3-.2.4-.3,0,0,0-.3,0-.5,0-.1.1-.2.2-.2.1,0,.4,0,.5,0,.1,0,0-.3.4-.2.5.3.5,0,.8-.2.2,0,.4-.2.6-.4,0-.1.5.2.6.1,0,0,1,1.1,1.2,1.5,0,0,.1.2.1.2.2.4.5,1.1.4,1.1-.2,0-.3.2-.5.3Z"/>
  <path d="M297,161.1c0,.3,0,.5.2.8,0,0-.2.2.3.2.3,0-.3.2-.3.3.1.2,0,.5.2.7.1.2.4.4.5.6.1.2-.1.5.2.7.3.1-.2.4,0,.6.2.2.3.4,0,.6-.1.2-.3.3-.2.5,0,0,.4.1.4.2,0,0-.3.2.4.2,0,0,0,0-.1,0-.4.2-.3.3,0,.3.3,0,.3.1.3.2,0,.2.1.4.1.6,0,.2-.2.3-.3.5,0,.2.3.3,0,.5-.3.2-.2.4-.2.5,0,0-.3.2.4.2,0,0,0,0,0,0-.8.4.3.5.1.8-.2.3,0,.6,0,.9,0,0-.2.2.3.2.2,0,.2.1,0,.2-.6.2-.3.5-.4.7-.1.3.1.6-.4.8-.2,0-.4.2.2.5.2.1,0,.2,0,.3,0,0,.3.3.3.4,0,0-.3,0-.4.1,0,0,0,0,0,0,.2.3.1.5-.1.7-.2.2-.5.3-.5.6-.1.5-.5.9-1,1.2-.2.2-.6.2-1.4-.7-.3-.4-.6-.9-.8-1.2-.1-.2-.2-.4-.2-.5,0-.1,0-.3,0-.4,0-.2-.4-.6-.1-.5,0,0-.1-.2.3,0,0,0,.1,0,0,0-.6-.5,0-.4,0-.6,0-.2-.6-.5-.3-.5-.6-.2-.5-.3-.3-.3.7-.2.3-.6.4-1,0-.4,0-.8,0-1.2,0,0-.4,0-.1-.2.2-.1,0-.2,0-.3,0,0-.2-.2,0-.3.6-.5.1-.8.1-1.2,0-.4,0-.8-.2-1.1-.1-.2-.5-.4-.4-.6,0-.1-.3-.2.3-.3.2,0-.3,0-.3-.1,0-.1,0-.3,0-.5,0-.2,0-.4-.1-.6,0-.1-.3-.2-.4-.3,0-.1-.1-.3,0-.4,0-.2.2-.4.3-.6,0-.2-.3-.3,0-.6.4-.4.1-.7.1-1,0-.3,0-.7-.2-1-.1-.2.4-.4.3-.6,0,0,1.4-.4,1.9-.5,0,0,.2,0,.2,0,.5,0,1.2.1,1.2.3,0,.3,0,.6.1.9Z"/>
  <path d="M278.8,159.6c.3,0,.5,0,.8-.1,0,0,.2.2.2-.3,0-.3.2.3.3.3.2-.1.5,0,.7-.1.2,0,.4-.3.7-.4.2,0,.5.2.7-.2.2-.3.4.2.6,0,.2-.1.4-.2.6,0,.2.2.3.4.4.2,0,0,.1-.4.2-.4,0,0,.2.3.2-.4,0,0,0,0,0,.1.1.4.2.4.3,0,0-.3.1-.2.2-.3.2,0,.4,0,.6,0,.2,0,.3.3.5.3.2,0,.3-.2.5,0,.2.3.3.3.4.3,0,0,.2.3.2-.4,0,0,0,0,0,0,.2.8.5-.3.7,0,.2.2.5,0,.7,0,0,0,.1.2.2-.3,0-.2,0-.2.1,0,.2.6.4.2.6.4.2.1.4-.2.6.3,0,.2.2.3.3-.3,0-.3.2,0,.2,0,0,0,.1-.3.2-.3,0,0,0,.2.1.3,0,0,0,0,0,0,.3-.7.6.3.9,0,.3-.2.6,0,.9,0,.2,0,.3.3.3,1.4,0,.5,0,1.1-.1,1.4,0,.2-.1.5-.2.5-.1,0-.2.2-.3.3-.2.2-.4.7-.6.4,0,0-.1.2-.2-.3,0,0,0-.1,0,0-.3.8-.5.2-.8.3-.2,0-.5.7-.7.4-.1.6-.3.5-.4.3-.4-.7-.9-.2-1.3-.3-.4,0-.9,0-1.3,0,0,0-.1.4-.2,0,0-.3-.2,0-.3,0,0,0-.2.1-.3,0-.4-.6-.7-.2-1.1-.3-.3,0-.7,0-1,0-.2.1-.4.5-.6.4,0,0-.2.3-.3-.3,0-.2,0,.3-.1.3-.1,0-.3,0-.4,0-.2,0-.4,0-.6,0-.1,0-.2.3-.3.4-.1,0-.2,0-.4,0-.2,0-.4-.2-.5-.3-.2,0-.3.3-.5,0-.4-.5-.6-.2-.9-.2-.3,0-.6,0-.9.2-.2.1-.4-.4-.6-.3,0,0-.5-1.4-.5-1.9,0,0,0-.2,0-.2,0-.5,0-1.2.3-1.2.3,0,.6,0,.9-.1Z"/>
  <path d="M276,171.4c0-.2,0-.3,0-.5,0,0,.2-.1-.3-.2-.3,0,.4-.1.3-.2,0-.1,0-.3,0-.5,0-.1-.3-.3-.4-.4,0-.1.2-.3-.1-.4-.3-.1.2-.2,0-.4-.1-.1-.2-.2,0-.4.2,0,.4-.2.3-.3,0,0-.4,0-.4-.1,0,0,.3-.1-.3-.1,0,0,0,0,.1,0,.4,0,.4-.2,0-.2-.3,0-.2,0-.3-.1,0-.1,0-.2,0-.4,0,0,.3-.2.3-.3,0-.1-.2-.2,0-.3.3-.1.3-.2.3-.3,0,0,.3-.1-.4-.1,0,0,0,0,0,0,.8-.2-.3-.3,0-.4.2-.2,0-.3,0-.5,0,0,.2,0-.3-.1-.2,0-.2,0,0,0,.6-.1.2-.2.3-.4.1-.1-.2-.3.3-.4.2,0,.3-.2-.3-.2-.3,0,0,0,0-.1,0,0-.3,0-.3,0,0,0,.2,0,.3-.1,0,0,0,0,0,0-.7-.2.2-.4,0-.6-.2-.2-.1-.4,0-.6,0-.1.2-.2,1.4-.4.5,0,1.1,0,1.4,0,.2,0,.5,0,.5,0,0,0,.2.1.3.2.2.1.7.2.5.4,0,0,.2,0-.3.1,0,0-.1,0,0,0,.8.1.3.3.4.5,0,.1.7.3.4.4.6,0,.5.1.3.2-.7.3-.2.6-.3.9,0,.3,0,.6,0,.9,0,0,.4,0,0,.1-.3,0,0,.1,0,.2,0,0,.1.1,0,.2-.6.3-.2.5-.3.7,0,.2-.1.5,0,.7.1.1.5.3.3.4,0,0,.3.1-.3.2-.2,0,.3,0,.3,0,0,0,0,.2,0,.3,0,.1,0,.3,0,.4,0,0,.3.1.4.2,0,0,0,.2,0,.3,0,.1-.3.2-.3.3,0,.1.2.2,0,.3-.5.2-.2.4-.3.6,0,.2,0,.4,0,.6,0,.1-.4.2-.4.4,0,0-1.5.2-2,.2,0,0-.2,0-.2,0-.5,0-1.2-.1-1.2-.3,0-.2,0-.4,0-.6Z"/>
  <path d="M288.5,172.4c-.3.3-.6.4-.8.6,0,0-.3-.1-.2.4,0,.3-.3-.3-.3-.2-.2.1-.4,0-.6.2-.2,0-.4.3-.6.4-.3,0-.4-.2-.5,0-.1.3-.2-.2-.3-.1-.1.1-.2.2-.3,0,0-.2-.2-.4-.2-.3,0,0,0,.4-.1.4,0,0-.1-.3-.1.3,0,0,0,0,0-.1,0-.4-.1-.4-.2-.1,0,.3,0,.2-.1.3-.1,0-.2,0-.3,0,0,0-.2-.3-.3-.3,0,0-.2.2-.3,0,0-.3-.2-.3-.2-.3,0,0-.1-.3-.1.3,0,0,0,0,0,0-.1-.8-.3.3-.4,0-.1-.2-.3,0-.4,0,0,0,0-.2-.1.3,0,.2,0,.2,0,0-.1-.6-.2-.2-.3-.3-.1-.1-.2.2-.4-.3,0-.2-.1-.3-.2.3,0,.3,0,0-.1,0,0,0,0,.3-.1.3,0,0,0-.2,0-.3,0,0,0,0,0,0-.2.7-.3-.2-.5,0-.2.2-.4.1-.5,0,0,0-.2-.2-.3-1.4,0-.5,0-1.1,0-1.4,0-.2,0-.5,0-.5,0-.1.1-.2.2-.3.1-.2.2-.7.3-.4,0,0,0-.2.1.3,0,0,0,.1,0,0,.1-.8.3-.3.5-.3.1,0,.3-.7.4-.4,0-.6.2-.5.2-.3.3.7.5.2.8.3.3,0,.5,0,.8,0,0,0,0-.4.1,0,0,.3.1,0,.2,0,0,0,.1-.1.2,0,.2.7.4.3.6.3.2,0,.4.1.6,0,.1-.1.3-.4.4-.3,0,0,.1-.3.2.3,0,.2,0-.3.1-.3,0,0,.2,0,.3,0,.1,0,.2,0,.4,0,0,0,0-.3,0-.3,0,0,0,0,0,0,0,0,.1.3.1.3,0,0,0-.2,0,0,0,.2.2.3.2.3,0,0,0,.1.1.2l.2.2c.2.3.4.4.5.4,0,0,0,0-.1,0,0,0,0,0,0,0,0,0-.1,0,.2,0,.4,0,.9-.2,1.1-.3,0,0,.2,0,.2,0,.2,0,.6.1.8.3.2.2.4.4.3.6-.2.6-.5,1.2-.9,1.4Z"/>
  <path d="M278,160.1c-.1-.3-.2-.6-.3-1h0c0-.2.2-.3-.3-.3-.3,0,.3-.2.3-.3-.1-.2,0-.4-.2-.6,0-.2-.4-.3-.5-.5-.1-.2.1-.4-.2-.5-.3,0,.1-.4,0-.5-.2-.1-.3-.3-.1-.5.1-.2.3-.3.2-.4,0,0-.4,0-.4-.1,0,0,.2-.2-.4-.1,0,0,0,0,.1,0,.4-.2.3-.3,0-.3-.3,0-.3,0-.3,0,0-.1-.2-.3-.2-.5,0-.1.2-.3.2-.5,0-.1-.3-.2,0-.4.2-.2.2-.3.1-.4,0,0,.2-.2-.4,0,0,0,0,0,0,0,.7-.5-.4-.3-.3-.5.1-.3-.1-.4-.2-.6,0,0,.1-.2-.3,0-.2,0-.2,0,0,0,.5-.4,0-.4.1-.6,0-.2-.3-.2,0-.6.2-.2.2-.3-.4-.1-.3,0,0-.1-.1-.1,0,0-.3,0-.4,0,0,0,.2-.2.2-.3,0,0,0,0,0,0-.7,0,0-.6-.3-.7-.3-.1-.3-.4-.4-.7,0-.1,0-.4,1-1.1.4-.3.9-.6,1.2-.7.2,0,.5-.2.5-.1.1,0,.3,0,.4,0,.3,0,.8,0,.7.3,0,0,.3,0-.2.3,0,0,0,0,0,0,.8-.2.5.3.7.5.1.2.8,0,.7.4.6-.2.6,0,.5.2-.4.7.2.9.3,1.4.1.5.4.8.5,1.3,0,0,.4,0,.2.2-.2.2,0,.2,0,.3,0,0,.2.1,0,.3-.5.6,0,.8,0,1.1,0,.4,0,.7.4,1,.2.2.6.3.5.5,0,.1.3.1-.2.4-.2,0,.3,0,.3,0,0,.1,0,.3.1.4,0,.2,0,.4.2.6,0,.1.3.2.4.3,0,.1.1.2,0,.4,0,.2-.2.4-.2.6,0,.2.3.3,0,.5-.2.2-.3.4-.2.5,0,0,0,0,0,.1,0,0,0,0,0,0-.2.1-.6.4-.7.6-.2.2-.2.4-.2.3,0,0,0,0,0,0,.1.4.3.9.4,1.1,0,0,0,.2,0,.2,0,.3-.3.6-.7.8-.3.2-.8.2-1.1,0-.7-.6-1-1.1-1.2-1.5Z"/>
  <path d="M284.3,146.2c0,.1,0,.3-.1.5,0,.1,0,0,0,0,0,0,0,0,0,0,0,0,0-.2,0,.3,0,.3,0-.4,0-.3,0,0,0,0-.2,0-.1,0-.2.3-.3.4-.1,0-.3-.2-.4.1,0,.3-.2-.2-.3,0,0,.1-.2.2-.3,0,0-.2-.2-.4-.3-.2,0,0,0,.4,0,.4,0,0-.1-.3,0,.4,0,0,0,0,0-.1-.1-.4-.2-.4-.2,0,0,.3,0,.2,0,.3-.1,0-.2,0-.3,0,0,0-.2-.3-.3-.3,0,0-.1.2-.3,0-.1-.3-.2-.3-.3-.3,0,0-.1-.3,0,.4,0,0,0,0,0,0-.2-.8-.2.3-.4.1-.2-.2-.3,0-.4,0,0,0,0-.2,0,.3,0,.2,0,.2,0,0-.2-.6-.2-.2-.3-.3-.1-.1-.2.2-.4-.3,0-.2-.2-.3-.1.3,0,.3,0,0-.1,0,0,0,0,.3,0,.3,0,0,0-.2-.1-.3,0,0,0,0,0,0,0,.7-.4-.2-.5,0-.1.2-.3.2-.5,0-.1,0-.2-.2-.4-1.3,0-.5-.2-1.1-.2-1.4,0-.2,0-.5,0-.5,0-.1,0-.2.1-.3,0-.2.1-.7.3-.5,0,0,0-.2.1.3,0,0,0,.1,0,0,0-.8.3-.3.4-.4.1,0,.2-.7.3-.5,0-.6,0-.5.2-.4.3.6.5.1.8.2.3,0,.5,0,.8,0,0,0,0-.4.1,0,0,.3.1,0,.2,0,0,0,0-.1.2,0,.3.6.4.2.7.2.2,0,.4,0,.6-.1.1-.1.2-.5.3-.4,0,0,0-.3.2.3,0,.2,0-.3,0-.3,0,0,.2,0,.3,0,.1,0,.2,0,.4,0,0,0,.1-.3.2-.4,0,0,.1,0,.2,0,0,0,.2.3.4.3.2,0,.3-.2.5,0,.3.5.6.3,1,.4.4.2.8.3,1.4.8.2.1.2.4.2.6,0,.2,0,.4,0,.6,0,0-.3.2-.7.3-.4.1-.9.2-1.2.2,0,0,0,0-.1,0,0,0,0,0,0,0,0,0,.1,0,0,0,0,0-.2.3-.3.6Z"/>
  <path d="M287.4,159.6c0-.2,0-.5,0-.7,0,0,.2-.2-.3-.2-.3,0,.4-.2.3-.2,0-.2,0-.4-.1-.6,0-.2-.3-.4-.4-.6,0-.2.2-.5-.2-.6-.3-.1.2-.4,0-.5-.2-.1-.3-.3,0-.5.1-.2.3-.3.2-.4,0,0-.4,0-.4-.1,0,0,.2-.2-.4-.2,0,0,0,0,.1,0,.4-.2.3-.3,0-.3-.3,0-.3,0-.3-.1,0-.2-.1-.3-.1-.5,0-.1.2-.3.2-.5,0-.2-.3-.2,0-.4.3-.2.2-.3.2-.5,0,0,.2-.2-.4,0,0,0,0,0,0,0,.7-.5-.4-.3-.3-.6.1-.3,0-.4-.2-.6,0,0,.1-.2-.3,0-.2,0-.2,0,0,0,.5-.4.1-.4.1-.6,0-.2-.3-.3,0-.6.2-.2.2-.3-.4-.2-.3,0,0-.1-.1-.2,0,0-.3,0-.4,0,0,0,.2-.2.2-.3,0,0,0,0,0,0-.7,0,0-.6-.3-.8-.3-.2-.3-.4-.4-.7,0-.2,0-.4,1-1,.4-.3.9-.6,1.2-.7.2,0,.5-.1.5-.1.1,0,.3,0,.4.1.3,0,.8,0,.7.3,0,0,.3,0-.2.3,0,0,0,0,0,0,.8-.1.5.4.7.6.1.2.8.1.7.5.6-.1.6,0,.5.3-.4.7.2,1,.3,1.5,0,.5.3.9.5,1.4,0,0,.4,0,.1.2-.2.2,0,.2,0,.3,0,0,.2.2,0,.3-.5.6,0,.8,0,1.2,0,.4,0,.8.3,1.1.1.2.5.3.5.6,0,.1.3.1-.2.4-.2,0,.3,0,.3.1,0,.1,0,.3.1.5,0,.2,0,.4.1.7,0,.1.3.2.4.3,0,.1.1.3,0,.4,0,.2-.2.4-.3.6,0,.2.3.4,0,.6-.5.4-.2.7-.2,1,0,.3,0,.7,0,1,0,.2-.4.4-.4.6,0,0-1.5.2-2,.2,0,0-.2,0-.2,0-.5-.1-1.2-.3-1.2-.4,0-.3,0-.5,0-.8Z"/>
  <path d="M264.3,145.9c.2,0,.4-.1.6-.3,0,0,.2.2.2-.4,0-.3.2.3.3.3.2-.1.4,0,.6-.2.2-.1.3-.4.5-.5.2,0,.5.2.6-.2.1-.3.4.2.5,0,.2-.1.3-.2.5,0,.1.2.3.4.4.3,0,0,.1-.4.2-.4,0,0,.2.3.2-.3,0,0,0,0,0,.1,0,.4.2.4.3.1,0-.3.1-.2.2-.3.2,0,.4,0,.5,0,.1,0,.3.3.4.4.1,0,.3-.2.4.1,0,.3.2.3.3.3,0,0,.1.3.3-.3,0,0,0,0,0,0,0,.8.4-.2.6,0,.2.3.4.1.6.2,0,0,0,.2.2-.2,0-.2.1-.2.1,0,0,.7.3.3.4.5.1.2.4,0,.4.5,0,.2,0,.4.4-.2.1-.2.1,0,.2,0,0,0,.2-.3.3-.2,0,0,0,.2,0,.4,0,0,0,0,0,0,.5-.5.4.4.7.4.3,0,.6.2.8.4.1.1.2.4-.3,1.4-.2.5-.5.9-.7,1.2-.2.2-.3.4-.4.4-.1,0-.2.1-.3.2-.2.1-.6.5-.5.2,0,0-.2.2,0-.3,0,0,0-.1,0,0-.5.6-.4,0-.6,0-.2,0-.5.5-.6.2-.3.6-.3.4-.3.2,0-.7-.5-.4-.7-.5-.3-.2-.6-.1-.9-.2,0,0-.1.3-.2,0,0-.3-.1,0-.2,0,0,0-.1.1-.2,0-.2-.7-.5-.3-.7-.4-.2,0-.5-.1-.7,0-.1.1-.3.5-.4.3,0,0,0,.3-.2-.3,0-.2,0,.3,0,.3,0,0-.2,0-.3,0-.1,0-.3,0-.4,0,0,0-.1.3-.2.4,0,0-.1,0-.2,0-.1,0-.3-.2-.4-.3-.1,0-.2.3-.3,0-.3-.4-.5-.1-.7,0-.2,0-.4,0-.5.3,0,.1-.4-.3-.5-.2,0,0-.8-1.3-1-1.7,0,0,0-.2,0-.2,0-.5-.3-1.2,0-1.2.3,0,.5-.2.7-.3Z"/>
  <path d="M267.4,163.3c0-.3,0-.5-.2-.8,0,0,.2-.3-.4-.2-.3,0,.3-.2.3-.3-.1-.2-.1-.5-.2-.7-.1-.2-.4-.4-.5-.6-.1-.2,0-.5-.3-.7-.3-.1.1-.4,0-.6-.2-.2-.3-.3-.1-.6.1-.2.3-.4.1-.5,0,0-.4,0-.4-.2,0,0,.2-.3-.4-.2,0,0,0,0,.1-.1.4-.2.3-.3,0-.3-.3,0-.3,0-.3-.1,0-.2-.2-.4-.2-.6,0-.2.2-.4.2-.5,0-.2-.3-.2,0-.5.2-.2.2-.4.1-.5,0,0,.2-.3-.4-.1,0,0,0,0,0,0,.7-.5-.4-.4-.3-.7.1-.3,0-.5-.2-.7,0,0,.1-.2-.3-.1-.2,0-.2,0,0,0,.5-.4.1-.4.2-.6,0-.2-.3-.4,0-.7.2-.2.2-.3-.4-.2-.3,0,0-.1-.1-.2,0,0-.3,0-.4,0,0,0,.2-.2.3-.3,0,0,0,0,0,0-.7,0,0-.7-.3-.9-.3-.2-.3-.6-.3-.9,0-.2.1-.4,1.1-.9.5-.2,1-.4,1.3-.5.2,0,.5,0,.6,0,.1,0,.3.1.4.2.3.1.8.1.6.4,0,0,.3,0-.2.3,0,0,0,0,0,0,.8,0,.5.5.6.7.1.2.8.2.6.6.6,0,.6.1.5.3-.5.7.1,1,.2,1.5,0,.5.3,1,.4,1.4,0,0,.4,0,.1.2-.2.2,0,.2,0,.3,0,0,.2.2,0,.3-.5.6,0,.8,0,1.2,0,.4,0,.8.4,1.1.2.2.6.3.5.6,0,.1.3.1-.2.4-.2,0,.3,0,.3,0,0,.1.1.3.2.5,0,.2,0,.5.2.7,0,.1.3.2.4.3,0,.1.1.3.1.4,0,.2-.2.4-.2.6,0,.2.3.3,0,.6-.4.5,0,.7,0,1.1,0,.3,0,.7.3,1,.1.2-.3.5-.3.6,0,0-1.4.6-1.9.6,0,0-.2,0-.2,0-.5,0-1.2,0-1.2-.3,0-.3-.1-.6-.2-.9Z"/>
  <path d="M279.7,163.9c-.2,0-.3,0-.5,0,0,0-.2-.2-.1.3,0,.3-.1-.4-.2-.3-.1,0-.3,0-.4.1-.1,0-.3.3-.4.4-.1,0-.3-.2-.4.1,0,.3-.3-.2-.4,0-.1.1-.2.2-.4,0-.1-.2-.2-.4-.3-.3,0,0,0,.4-.1.4,0,0-.1-.3-.1.4,0,0,0,0,0-.1-.1-.4-.2-.4-.2,0,0,.3,0,.2-.1.3-.1,0-.2,0-.4,0,0,0-.2-.3-.3-.3-.1,0-.2.2-.3,0-.1-.3-.2-.3-.3-.3,0,0-.1-.3-.1.4,0,0,0,0,0,0-.2-.8-.3.3-.4,0-.2-.2-.3,0-.5,0,0,0,0-.2-.1.3,0,.2,0,.2,0,0-.1-.6-.2-.2-.4-.3-.1-.1-.3.2-.4-.3,0-.2-.1-.3-.2.3,0,.3,0,0-.1,0,0,0,0,.3-.1.3,0,0,0-.2-.1-.3,0,0,0,0,0,0-.2.7-.4-.2-.6,0-.2.2-.4.1-.6,0-.1,0-.2-.2-.3-1.4,0-.5,0-1.1,0-1.4,0-.2,0-.5.1-.5,0-.1.1-.2.2-.3.1-.2.2-.7.4-.4,0,0,0-.2.1.3,0,0,0,.1,0,0,.1-.8.3-.3.5-.3.1,0,.3-.7.4-.4,0-.6.1-.5.2-.3.3.7.6.2.8.3.3,0,.6,0,.8,0,0,0,0-.4.1,0,0,.3.1,0,.2,0,0,0,.1-.1.2,0,.3.6.5.2.7.3.2,0,.5,0,.7,0,.1-.1.2-.5.4-.4,0,0,0-.3.2.3,0,.2,0-.3,0-.3,0,0,.2,0,.3,0,.1,0,.3,0,.4,0,0,0,.1-.3.2-.4,0,0,.2,0,.2,0,.1,0,.2.3.4.3.1,0,.2-.2.3,0,.3.5.4.2.6.2.2,0,.4,0,.6-.1,0,0,.3.4.4.4,0,0,.4,1.4.4,1.9,0,0,0,.2,0,.2,0,.5,0,1.2-.1,1.2-.2,0-.4,0-.6,0Z"/>
  <path d="M268.3,166.4c-.3,0-.6,0-1,.1-.1,0-.3-.2-.3.3,0,.3-.2-.4-.3-.3-.3,0-.6,0-.9.1-.3,0-.6.3-.8.4-.3,0-.6-.2-.9.2-.2.3-.5-.2-.7,0-.2.1-.5.3-.7,0-.2-.2-.4-.4-.6-.2-.1,0-.2.4-.4.4-.1,0-.3-.3-.4.3,0,0,0,0-.1-.1-.1-.4-.4-.4-.6-.1-.2.2-.4.2-.6.2-.5,0-1-.2-1.4-.5-.3-.2-.5-.6-.7-.9-.2-.3-.7-.4-.6-.8,0-.4,0-.7-.2-.9,0-.2.1-.4-.5-.3,0,0,0,0,0,0,.7-.6-.5-.7-.3-1.1.1-.4,0-.7-.1-1,0,0,.1-.2-.3-.2-.2,0-.2,0,0-.1.6-.3.2-.4.2-.6,0-.2-.3-.3.1-.7.2-.1.2-.3-.4-.2-.3,0,0-.1-.1-.2,0,0-.3,0-.4,0,0,0,.2-.2.2-.3,0,0,0,0,0,0-.7,0,0-.6-.4-.8-.3-.2-.4-.4-.5-.7,0-.2,0-.4.8-1.3.3-.4.8-.8,1.1-.9.2-.1.5-.2.6-.2.2,0,.4,0,.5.1.3,0,.9,0,.9.4,0,.1.3,0,0,.4,0,0,0,0,0,0,.9,0,.6.6.9.9.2.3.9.3.8.8.7,0,.6.2.5.5-.2.5-.2.8,0,1.1.1.3.3.7.3,1,0,.6.2,1.1.3,1.4,0,0,.3,0,0,0-.2.1,0,0,0,0,0,0,.1,0,0,0-.2.2-.2.4-.1.4,0,0,.2,0,.2,0,.1.1.2.2.6,0,.2-.1.4-.5.7-.4.1,0,.2-.3.4.3,0,.2.1-.3.2-.3.2,0,.4,0,.6,0,.3,0,.5,0,.8,0,.2,0,.3-.3.5-.4.2,0,.3,0,.5,0,.2,0,.5.2.7.3.2,0,.4-.3.7,0,.4.5.8.2,1.2.2.4,0,.8,0,1.2-.1.2,0,.5.4.7.4.1,0,.4,1.4.4,2,0,0,0,.2,0,.2-.2.5-.3,1.2-.6,1.2-.4,0-.7,0-1.1,0Z"/>
  <path d="M249.4,153.4c0-.4.2-.7.3-1.1,0-.1.3-.2-.1-.5-.2-.2.4,0,.5-.2,0-.3.3-.6.5-.9.1-.3.2-.7.4-1.1.2-.3.7-.3.8-.8,0-.4.6-.2.8-.4.2-.3.5-.5.9-.4.3,0,.6.2.7,0,.1-.1.2-.4.3-.5.1,0,.3.2.4-.4,0,0,0,0,.1.1.2.4.3.4.5,0,.1-.3.2-.2.3-.3.3,0,.6,0,.8,0,.2,0,.4.3.5.4.2,0,.4-.2.5.1.1.3.3.3.4.3,0,0,.1.3.3-.3,0,0,0,0,0,0,.1.9.5-.2.7,0,.2.2.5.1.8.1,0,0,.1.2.2-.3,0-.2.1-.2.1,0,.1.6.4.3.5.4.2.1.5-.1.6.4,0,.2.2.3.4-.2,0-.3.2,0,.2,0,0,0,.2-.3.2-.3,0,0,0,.2.1.4,0,0,0,0,0,0,.4-.6.6.3,1,.2.3-.1.7,0,1,.1.2,0,.3.3.3,1.4,0,.5,0,1.1-.2,1.4,0,.2-.2.4-.3.5-.1,0-.2.2-.3.3-.2.2-.5.7-.7.4,0,0-.2.2-.2-.3,0,0,0-.1,0,0-.4.8-.6.2-.9.2-.3,0-.6.6-.8.3-.2.6-.4.5-.5.3-.4-.7-1-.3-1.4-.5-.5-.2-1-.1-1.5-.2,0,0-.2.3-.3,0,0-.3-.2,0-.3,0-.1,0-.2.1-.3,0-.3-.7-.7-.3-1-.4-.3,0-.6-.1-.8,0-.1.1-.1.5-.2.4,0,0,0,.3-.3-.2,0-.1,0,.3,0,.3,0,0-.1,0-.2.1,0,0-.2.1-.2.2,0,0,.1.3.1.4,0,0,0,.1-.1.2-.1,0-.3,0-.4,0-.1,0,0,.3-.2.3-.6,0-.4.3-.5.5,0,.2-.2.4,0,.6,0,.1-.4.2-.4.4,0,0-1.4.4-1.9.4,0,0-.2,0-.2,0-.5-.1-1.2-.3-1.2-.6,0-.4,0-.9.1-1.3Z"/>
  <path d="M258.2,191.9c-.2-.4-.3-.8-.5-1.2,0-.1.1-.4-.4-.4-.3,0,.3-.3.2-.4-.2-.3-.1-.7-.3-1-.1-.3-.4-.6-.5-.9-.1-.3,0-.6-.3-.8-.3-.2.1-.5,0-.6-.2-.2-.3-.3-.2-.6,0-.2.2-.4,0-.5-.1,0-.4,0-.5-.1,0,0,.2-.3-.4-.1,0,0,0,0,0-.1.3-.3.2-.4,0-.3-.3,0-.3,0-.3-.1-.2-.2-.3-.4-.4-.6,0-.2,0-.5,0-.6,0-.2-.4-.2-.3-.5.1-.3,0-.5,0-.6,0,0,.1-.4-.5,0,0,0,0,0,0,0,.5-.7-.6-.3-.6-.7,0-.4-.3-.6-.5-.8,0,0,0-.3-.4,0-.1,0-.2,0-.2-.1.4-.6,0-.6-.2-.9,0-.3-.5-.4-.2-.9.1-.2.1-.4-.5-.3-.3,0-.1-.2-.2-.3,0,0-.4,0-.4,0,0,0,.1-.3.2-.4,0,0,0,0,0,0-.8-.1-.2-1-.6-1.3-.4-.4-.5-.9-.5-1.4,0-.3,0-.6,1.2-1,.5-.2,1-.3,1.4-.3.3,0,.5,0,.6,0,.1,0,.3.2.4.2.2.2.8.2.6.5,0,.1.2,0-.2.3,0,0,0,0,0,0,.9,0,.5.5.7.8.2.2.8.2.8.5.6-.2.6,0,.5.3-.3.8.5,1.1.7,1.6.3.6.7,1,1.1,1.6,0,0,.4,0,.3.2-.1.3.1.3.2.4,0,.1.3.2.2.3-.3.8.4,1,.6,1.5.2.5.4,1,.8,1.5.2.3.7.5.7.8,0,.2.4.2-.1.6-.1,0,.3,0,.4.2.1.2.2.5.2.7,0,.3.1.7.3,1,0,.2.4.3.5.5.1.2.1.4.1.6,0,.2-.2.5-.2.7,0,.2.3.4,0,.6-.4.5,0,.8,0,1.1,0,.3.2.6.4.7.1,0-.2.5,0,.6,0,0-.9,1.2-1.2,1.6,0,0-.2.1-.2.1-.5.2-1.3.4-1.5,0-.3-.5-.6-.9-.8-1.4Z"/>
  <path d="M335.6,377.6c3,.3,6,.5,9,.7,1.1,0,2.3.4,3.5,0,.6-.2,1.6.5,2.7.5,2.8,0,5.6.2,8.5.2,2.7,0,5.5-.1,8-.5,1.2-.2,2.4-.4,3.5-.7,1.1-.4,2.1-1,2.8-1.8.7-.7,1.4-1.3,2-2,.7-.7,1.3-1.4,1.8-2.3,1-1.9,1.8-3.9,2.7-5.9.7-1.4,1.3-2.9,1.6-4.5.1-1,0-1.9.3-3,.2-1,.6-2.1.2-3,0,0,.1-.5.2-.7.5-1,.7-2.4.5-3.3-.2-.9-.1-1.7,0-2.5,0-2.3,0-4.5.1-6.8,0-1.7.2-3.4.2-5.1,0-1.8-.5-3.7-.3-5.4.2-1.7,0-3.3-.2-4.9-.1-.9,0-2-.7-2.7,0,0-.1-.4,0-.6.5-2.7-1-5.2-1.3-7.8-.3-2.7-1-5.5-1.7-8.2-.2-.7-.2-1.5-.8-2.1-.2-.2-.4-.9-.4-1.3,0-2.2-.9-4.1-1.5-6.2-.6-2.3-1.7-4.5-2.1-6.9-.2-1-.7-2.3-1.7-3.1-.5-.4-.8-1.5-1.3-2.2-.4-.6-1-1-1.3-1.6-.3-.5-.5-1.1-.7-1.6,0-.2-.2-.3-.3-.4-1.3-1.1-2.3-2.2-3.5-3.3-1.2-1.1-2.4-2-3.9-2.5-3-1-6.3-1.1-9.7-.8-1.9.2-3.9.4-5.5-.5-.7-.4-.8-.9,0-1.4.6-.4,1.2-.7,1.9-.9,1.1-.3,2.3-.6,3.4-.8,2.3-.5,4.8-1.1,7.4-.4.8.2,1.8.1,2.3.8,0,0,.4.2.5.2,1.8.2,3.5.9,5,2,1.5,1,2.7,2.3,3.9,3.6,2,2.2,4.1,4.2,5.3,7,1.3,1.1,2,2.9,2.4,4.5.8,2.8,1.6,5.4,2.5,8.1.9,2.7,1.7,5.3,2.3,8,1.3,5.5,2.4,11.1,3.1,16.7.1,1,.6,1.7.4,2.9-.1,1.1.2,2.4.3,3.6.1,1.1.3,2.3.3,3.4-.3,4.4.3,8.9.2,13.3-.1,4.4-.5,8.9-1.2,13.3-.4,2.7-.7,5.4-1.7,8.1-.4,1.1-.6,2.4-1.6,3.3-.3.2-.3,1.5-.7,2.2-.9,1.8-2,3.4-3.3,5-1.9,2.1-4.3,3.9-7.1,4.9-1.7.6-3.4,1.1-5.1,1.3-1.8.2-3.5.1-5.1,0-2.1-.1-4.1-.4-6.2-.5-2.1-.1-4.4,0-6.4-.3-3.8-.7-7.6-.7-11.3-1.1-3.7-.4-7.5-.8-11.2-1.1-2.1-.2-4-.9-6.1-1.2-1-.1-2.1-1.8-1.6-2.2,0,0,.3-.2.4-.2,2.1-.2,4-.7,6.3-.3,3.4.5,6.8.8,10.2,1.1Z"/>
  <path d="M327.7,346.2c.5,0,1.1,0,1.6-.2.2,0,.4.2.6-.4,0-.3.3.3.5.3.5-.1,1,0,1.5-.2.5,0,1-.4,1.5-.5.5,0,1,.2,1.5-.2.4-.3.8.2,1.2,0,.4-.1.8-.3,1.3,0,.3.2.6.4.9.2.2,0,.3-.4.5-.4.2,0,.4.3.6-.4,0,0,0,0,.1.1.2.4.5.4.6,0,.2-.3.3-.2.5-.3.4,0,.8,0,1.3,0,.3,0,.6.3.9.3.3,0,.7-.2,1,0,.3.3.6.3.9.3.2,0,.4.3.5-.3,0,0,0,0,.1,0,.5.8,1-.3,1.4,0,.5.2,1,0,1.5,0,.1,0,.3.2.4-.3,0-.2.2-.2.3,0,.4.6.8.3,1.2.4.4.1.9-.1,1.3.4.2.2.4.3.7-.2.1-.3.3,0,.5,0,.1,0,.3-.3.4-.3.1,0,.2.2.3.4,0,0,0,0,.1,0,.7-.6,1.3.3,1.9.2.7-.1,1.3,0,2,.1.4,0,.7.3.9,1.5,0,.5,0,1.1-.2,1.4-.1.2-.3.4-.4.5-.2,0-.4.2-.6.3-.4.2-.9.7-1.3.4-.1,0-.3.2-.4-.3,0,0,0-.1,0,0-.6.8-1.2.2-1.7.2-.5,0-1,.6-1.5.3-.3.6-.6.5-.9.3-.9-.7-1.9-.3-2.9-.4-1-.1-2,0-2.9,0-.2,0-.3.4-.5,0-.2-.3-.4,0-.6,0-.2,0-.4.1-.6,0-.8-.6-1.5-.2-2.3-.3-.8,0-1.5,0-2.3,0-.5.1-.9.5-1.4.4-.2,0-.4.3-.6-.3,0-.2-.2.3-.4.3-.3,0-.6,0-1,0-.4,0-.9,0-1.3.1-.3,0-.5.3-.8.4-.3,0-.6.1-.8,0-.4,0-.7-.2-1.1-.3-.4,0-.7.3-1.1,0-.7-.4-1.3-.1-2-.1-.7,0-1.3,0-2,.2-.4.1-.8-.3-1.1-.3-.2,0-.6-1.4-.6-1.9,0,0,0-.2,0-.2.3-.5.6-1.3,1-1.3.6,0,1.2-.1,1.9-.2Z"/>
  <path d="M310.5,335.8c.3.2.6.4.9.5.1,0,.1.3.5,0,.2-.2,0,.4.1.4.3,0,.5.3.9.4.3.1.7,0,1,.2.3.1.4.5.8.4.4-.1.3.4.6.5.3,0,.6,0,.7.4,0,.2.1.5.3.5.1,0,.4-.2.5-.1,0,0,0,.4.5,0,0,0,0,0,0,.2-.1.4,0,.5.3.3.2-.2.3,0,.4,0,.2.1.5.2.7.4.1.1.2.5.3.6.1.2.5,0,.5.4,0,.4.1.4.3.6,0,0,0,.4.5-.1,0,0,0,0,0,0-.2.9.6.1.8.5.1.4.5.4.8.6,0,0,0,.2.4,0,.1-.1.2,0,.2,0-.2.6.3.5.4.7.2.3.5.2.5.7,0,.2,0,.4.5,0,.2-.2.2.1.3.1,0,0,.3-.2.4-.1,0,0,0,.3,0,.4,0,0,0,0,0,0,.7-.3.5.7.9.8.4.1.7.4,1,.8.1.2.2.5-.4,1.5-.3.4-.6.9-.9,1.1-.2.1-.4.3-.5.3-.2,0-.3,0-.5,0-.3,0-.8.3-.9-.1,0-.1-.3,0,0-.4,0,0,0-.1,0,0-.8.4-.7-.2-1-.4-.3-.1-.9.2-1-.2-.5.4-.6.2-.6,0,0-.9-.8-.9-1.3-1.3-.4-.4-1-.7-1.5-1.1,0,0-.4.2-.3-.1,0-.3-.2-.2-.3-.3,0,0-.3,0-.3-.2,0-.8-.6-.7-1-1.1-.4-.3-.7-.6-1.2-.7-.3,0-.7,0-.9-.2,0-.1-.4.1-.2-.5,0-.2-.3.2-.4.1-.2,0-.3-.2-.5-.3-.2-.1-.4-.3-.7-.4-.2,0-.4,0-.6,0-.2,0-.3-.1-.5-.3-.2-.2-.2-.5-.4-.6-.2-.2-.5,0-.6-.4-.1-.6-.6-.6-.9-.9-.3-.2-.7-.5-1.1-.5-.2,0-.2-.6-.4-.7,0,0,.4-1.4.7-1.9,0,0,.1-.2.1-.2.4-.3.9-.9,1.1-.7.3.2.7.4,1,.6Z"/>
  <path d="M300.6,342.4c0-.1.2-.3.3-.4,0,0,.3,0-.1-.3-.2-.2.4.1.4,0,0-.2.2-.2.2-.4,0-.2,0-.4,0-.6,0-.2.4-.1.2-.4-.1-.3.3,0,.3-.2,0-.2,0-.3.3-.3.2,0,.4.1.4,0,0,0-.2-.3-.1-.4,0,0,.3.1-.1-.4,0,0,0,0,.1,0,.3.2.4.2.2,0-.2-.2,0-.2,0-.3,0-.1.2-.2.3-.3.1,0,.4,0,.5,0,.1,0,0-.3.3-.2.3.2.3,0,.4,0,0,0,.3.2,0-.4,0,0,0,0,0,0,.6.6.1-.4.4-.4.3,0,.3-.2.5-.3,0,0,.2,0,0-.3,0-.1,0-.2,0-.1.4.5.4,0,.6,0,.2,0,.2-.3.6,0,.1.2.3.2.1-.4,0-.3.1,0,.2-.1,0,0,0-.3,0-.4,0,0,.2.2.2.3,0,0,0,0,0,0,0-.7.6,0,.8-.2.2-.2.5-.2.8-.1.1,0,.3.2.5,1.3,0,.5,0,1.1,0,1.4,0,.2,0,.5,0,.5,0,.1,0,.2-.1.3,0,.2,0,.7-.2.5,0,0,0,.2-.1-.3,0,0,0-.1,0,0,0,.8-.2.3-.3.4,0,0,0,.7-.1.5.2.6.1.5,0,.4-.4-.5-.4,0-.6,0-.2,0-.3.2-.5.3,0,0,.2.3,0,.1-.2-.2-.1,0-.1,0,0,0,0,.2-.1,0-.6-.4-.5,0-.6.1-.2,0-.4.2-.4.4,0,.2.2.5,0,.5,0,0,.1.3-.3,0-.1,0,.2.2.2.3,0,0,0,.1-.1.2,0,0-.2.2-.2.3,0,0,.1.3.1.4,0,0,0,.2-.1.2-.1,0-.3,0-.5,0-.1,0,0,.3-.2.2-.5-.1-.4.2-.6.3-.2.1-.3.2-.3.5,0,.1-.5,0-.5,0,0,0-1.3-.7-1.7-1,0,0-.2-.1-.2-.1-.3-.3-.9-.8-.8-.9.2-.1.2-.3.3-.5Z"/>
  <path d="M288,350.4c.3-.3.6-.6.8-1,0-.1.4,0,.1-.6-.1-.2.4,0,.5,0,.2-.3.6-.6.8-.9.2-.3.4-.8.7-1.1.3-.3.8-.3,1-.8.1-.4.7-.2.9-.5.2-.3.6-.5,1-.5.3,0,.6.2.8,0,.1-.1.2-.5.4-.5.2,0,.4.2.4-.5,0,0,.1,0,.2.1.3.4.5.3.6,0,0-.3.2-.3.4-.3.4,0,.8-.2,1.2-.1.3,0,.6.3.8.3.3,0,.6-.2.8,0,.2.3.5.3.7.3.1,0,.3.3.4-.3,0,0,0,0,0,0,.3.9.7-.2,1.1,0,.4.2.8.1,1.1.1.1,0,.2.2.3-.3,0-.2.2-.2.2,0,.2.7.6.3.8.4.3.2.7-.1.9.4.1.2.3.4.5-.2.1-.3.2,0,.4,0,.1,0,.2-.3.3-.3,0,0,.1.2.2.4,0,0,0,0,0,0,.6-.6.9.3,1.4.2.5-.1,1,0,1.4.2.3,0,.5.3.5,1.5,0,.5,0,1.1-.2,1.4-.1.2-.2.4-.3.5-.2,0-.3.2-.5.3-.3.1-.7.6-1,.3,0-.1-.2.2-.2-.3,0,0,0-.1,0,0-.5.7-.9.2-1.3.2-.4,0-.8.6-1.1.3-.3.6-.5.5-.7.3-.6-.7-1.4-.4-2.1-.5-.7-.2-1.4-.1-2.1-.2-.1,0-.2.3-.4,0-.1-.3-.3,0-.4,0-.1,0-.3.1-.4,0-.5-.7-1-.3-1.5-.3-.5,0-.9,0-1.3.3-.2.2-.3.6-.6.6-.1,0,0,.4-.5-.1-.1-.1,0,.3,0,.4-.1.1-.3.2-.5.3-.2.2-.5.3-.6.5-.1.1,0,.4-.2.6,0,.2-.2.3-.4.4-.2.1-.5.1-.7.2-.2.1-.2.5-.6.5-.7,0-.8.5-1.1.8-.3.3-.7.7-.9,1.1-.1.3-.7.1-.8.4,0,.1-1.4-.6-1.7-1,0,0-.1-.1-.2-.2-.2-.5-.6-1.1-.4-1.4.3-.3.6-.7.9-1.1Z"/>
  <path d="M298.5,359.5c-.2,0-.4,0-.6,0,0,0-.1-.2-.2.3,0,.3,0-.4-.2-.3-.2,0-.4,0-.5,0-.2,0-.4.3-.5.3-.2,0-.4-.2-.5,0-.2.3-.3-.2-.4-.1-.2.1-.3.2-.4,0-.1-.2-.2-.4-.3-.3,0,0-.1.4-.2.4,0,0-.1-.3-.2.3,0,0,0,0,0-.1,0-.4-.2-.4-.2-.1,0,.3-.1.2-.2.2-.1,0-.3,0-.4,0-.1,0-.2-.3-.3-.3-.1,0-.2.2-.3,0-.1-.3-.2-.3-.3-.3,0,0-.1-.3-.2.3,0,0,0,0,0,0-.2-.8-.3.3-.5,0-.2-.2-.4,0-.5,0,0,0-.1-.2-.1.3,0,.2,0,.2,0,0-.1-.6-.3-.2-.4-.4-.2-.1-.3.2-.5-.3,0-.2-.2-.3-.2.3,0,.3-.1,0-.2,0,0,0,0,.3-.1.3,0,0,0-.2-.1-.3,0,0,0,0,0,0-.2.7-.5-.2-.7,0-.2.2-.5.1-.7,0-.1,0-.3-.2-.4-1.4,0-.5,0-1.1,0-1.4,0-.2,0-.5.1-.5,0-.1.1-.2.2-.3.1-.2.3-.7.5-.4,0,0,.1-.2.2.3,0,0,0,.1,0,0,.2-.8.4-.3.6-.3.2,0,.3-.7.5-.4,0-.6.2-.5.3-.3.4.7.7.2,1.1.3.4,0,.7,0,1.1,0,0,0,.1-.4.2,0,0,.3.2,0,.2,0,0,0,.2-.1.2,0,.3.7.6.3.9.3.3,0,.6.1.9,0,.2,0,.4-.4.5-.3,0,0,.2-.3.2.3,0,.2,0-.3.1-.3.1,0,.2,0,.4,0,.2,0,.3,0,.5,0,.1,0,.2-.3.3-.3s.2,0,.3,0c.1,0,.3.3.4.3.1,0,.3-.2.4,0,.2.5.5.3.7.3.2,0,.5.1.7,0,.1,0,.3.4.4.4,0,0,0,1.5,0,2,0,0,0,.2,0,.2-.1.5-.3,1.2-.4,1.1-.2,0-.4,0-.7,0Z"/>
  <path d="M300.4,367.8c-.2,0-.5,0-.7,0,0,0-.2-.2-.3.3,0,.3-.1-.4-.2-.3-.2,0-.4,0-.7,0-.2,0-.4.3-.6.3-.2,0-.4-.2-.6,0-.2.3-.3-.2-.5-.1-.2.1-.4.2-.5,0-.1-.2-.3-.4-.4-.3,0,0-.2.4-.2.4,0,0-.2-.3-.2.3,0,0,0,0,0-.1,0-.4-.2-.4-.3-.1,0,.3-.1.2-.2.3-.2,0-.4,0-.5,0-.1,0-.3-.3-.4-.3-.1,0-.3.2-.4,0-.1-.3-.3-.3-.4-.3,0,0-.2-.3-.2.3,0,0,0,0,0,0-.2-.8-.4.3-.6,0-.2-.2-.4,0-.7,0,0,0-.1-.2-.2.3,0,.2,0,.2-.1,0-.2-.6-.3-.2-.5-.4-.2-.1-.4.2-.6-.3,0-.2-.2-.3-.3.3,0,.3-.1,0-.2,0,0,0-.1.3-.2.3,0,0,0-.2-.1-.3,0,0,0,0,0,0-.3.7-.6-.2-.8,0-.3.2-.6.1-.8,0-.2,0-.3-.2-.4-1.4,0-.5,0-1.1,0-1.4,0-.2.1-.5.2-.5,0,0,.2-.2.3-.3.2-.2.4-.7.5-.4,0,0,.1-.2.2.3,0,0,0,.1,0,0,.2-.8.5-.3.8-.3.2,0,.4-.7.6-.4.1-.6.3-.5.4-.3.4.7.8.2,1.3.3.4,0,.9,0,1.3,0,0,0,.1-.4.2,0,0,.3.2,0,.3,0s.2-.1.3,0c.3.7.7.3,1,.3.3,0,.7.1,1,0,.2,0,.4-.4.6-.3,0,0,.2-.3.3.3,0,.2.1-.3.2-.3.1,0,.3,0,.4,0s.4,0,.6,0c.1,0,.2-.3.4-.3.1,0,.3,0,.4,0,.2,0,.3.3.5.3.2,0,.3-.2.5,0,.3.5.6.3.9.3.3,0,.6.1.9,0,.2,0,.3.4.5.4,0,0,.2,1.5.1,2,0,0,0,.2,0,.2-.2.5-.3,1.2-.5,1.1-.3,0-.5,0-.8,0Z"/>
  <path d="M291.6,380.6c-.2-.2-.3-.4-.5-.5,0,0,0-.3-.4,0-.2.1.2-.3.1-.4-.2-.1-.3-.3-.5-.5-.2-.1-.5-.1-.7-.3-.2-.1-.1-.5-.5-.4-.3,0,0-.4-.2-.5-.2,0-.4-.2-.3-.5,0-.2.2-.4,0-.5-.1,0-.4,0-.4,0,0,0,.1-.3-.4,0,0,0,0,0,0-.1.3-.3.2-.4,0-.3-.3,0-.3,0-.3,0-.1-.1-.3-.3-.3-.5,0-.2,0-.4,0-.6,0-.2-.4-.2-.1-.4.2-.3.1-.4,0-.5,0,0,.2-.3-.4,0,0,0,0,0,0,0,.7-.5-.4-.3-.3-.6.1-.3-.1-.5-.2-.7,0,0,.1-.2-.3-.1-.2,0-.2,0,0-.1.5-.4.1-.4.2-.7,0-.2-.3-.4.2-.7.2-.1.3-.3-.3-.3-.3,0,0-.2-.1-.2,0,0-.3,0-.4-.2,0,0,.2-.1.3-.2,0,0,0,0,0,0-.7-.3.2-.7,0-1-.2-.3-.1-.7,0-1,0,0,.1-.2.3-.3l4.7-1.3-1,.8c-.2.1-.4.3-.9.5-.5.2-1,.4-1.3.5-.1,0-.2,0-.3,0,0,0,0,0-.1,0h0s0,0,0,0h0s0,0,0,0h0s0,0,0,0l2.1-.3h0s0,0,0,0c0,0,.2.2.3.2.2.2.7.3.4.4,0,0,.2,0-.3.1,0,0-.1,0,0,0,.8.2.3.4.4.6,0,.2.7.2.5.4.6,0,.5,0,.4.2-.6.4,0,.7,0,1,0,.3.2.6.3.9,0,0,.4,0,.1.1-.2.2,0,.2,0,.2,0,0,.2,0,0,.2-.5.6,0,.6.1.9,0,.3.2.6.5.7.2,0,.6,0,.6.2,0,0,.3,0-.1.4-.1.1.3-.1.3,0,.1,0,.2.2.2.3.1.1.2.3.3.4,0,0,.4,0,.5,0,.1,0,.2.1.2.2,0,.2,0,.4,0,.5,0,.2.4,0,.3.4-.2.5.2.6.3.8.1.2.3.5.6.6.2,0-.1.5,0,.6,0,0-.9,1.1-1.3,1.5,0,0-.2.1-.2.1-.4.2-1.1.6-1.1.5-.1-.2-.3-.4-.5-.6Z"/>
  <path d="M301.9,381.6c-.3.2-.6.3-.8.5-.1,0-.3-.2-.3.4,0,.3-.3-.3-.3-.3-.3.1-.6,0-.8,0-.2,0-.5.2-.7.3-.2,0-.4-.3-.6,0-.2.2-.2-.3-.4-.2-.2,0-.3.1-.3-.1,0-.2,0-.4-.1-.3,0,0-.2.3-.2.3,0,0,0-.3-.2.3,0,0,0,0,0-.1,0-.4,0-.4,0-.1-.1.3-.1.2-.2.2,0,0-.2,0-.3,0,0,0,0-.3-.1-.4,0,0-.2.2-.2-.1,0-.3,0-.3-.1-.3,0,0,0-.3-.2.3,0,0,0,0,0,0,0-.8-.2.2-.3,0,0-.2-.2,0-.3,0,0,0,0-.2-.1.3,0,.2,0,.2,0,0,0-.6-.2-.3-.2-.4,0-.1-.2.2-.3-.3,0-.2-.1-.3-.2.3,0,.3,0,0-.1,0,0,0,0,.3,0,.3,0,0,0-.2,0-.3,0,0,0,0,0,0-.1.7-.3-.2-.4,0-.1.2-.3.1-.4,0,0,0-.2-.2-.4-1.3-.1-.5-.2-1.1-.2-1.4,0-.2,0-.5,0-.5,0-.1,0-.2.1-.3.1-.2.2-.7.3-.5,0,0,0-.2.2.3,0,0,0,.1,0,0,.1-.8.4-.3.5-.4.2,0,.3-.7.5-.4,0-.6.2-.5.3-.3.3.7.6.2,1,.4.3.1.6,0,1,.2,0,0,.2-.3.2,0,0,.3.1,0,.2,0,0,0,.2-.1.2,0,.1.7.4.4.7.5.2.1.4.3.7.2.2,0,.4-.3.5-.2,0,0,.2-.2,0,.3,0,.2.2-.2.2-.3,0,0,.1,0,.2,0,0,0,.1,0,.2,0,0,0,.1-.3.1-.3,0,0,0,0,0,0,0,0,0,.1,0,.2h0c0,0,0,.1,0,.1v.6s0,0,0,0h0s0,0,0,0h0s0,0,0,0c0,0,0,0,0,0,0,0,0,.1.1.2,0,.1.2.3.3.3,0,0,0,0,0,0h0s0,0,0,0c0,0,.2,0,.3,0,.4,0,.9.2,1.2.3,0,0,.2,0,.2,0,.4.3,1,.8.8,1.1-.3.4-.6.7-.9.9Z"/>
  <path d="M298.1,381.2c0-.1,0-.3-.2-.4,0,0,.2-.2-.3,0-.3,0,.3-.2.3-.2-.1,0,0-.3-.2-.4,0,0-.4-.1-.4-.3,0-.1.1-.3-.2-.3-.3,0,.2-.3,0-.3-.1,0-.3-.2,0-.3.1-.1.3-.2.2-.3,0,0-.4,0-.4,0,0,0,.3-.2-.4,0,0,0,0,0,.1,0,.4-.1.3-.2,0-.2-.3,0-.2,0-.3,0,0,0-.1-.2,0-.3,0,0,.2-.2.3-.3,0,0-.3-.1,0-.3.3-.1.3-.2.2-.3,0,0,.3-.1-.4,0,0,0,0,0,0,0,.8-.3-.3-.2-.1-.4.2-.2,0-.3,0-.4,0,0,.2,0-.3,0-.2,0-.2,0,0,0,.6-.2.2-.2.3-.3.1-.1-.2-.2.3-.4.2,0,.3-.1-.3-.1-.3,0,0,0,0-.1,0,0-.3,0-.3,0,0,0,.2,0,.3-.1,0,0,0,0,0,0-.7-.1.2-.3,0-.5-.2-.2-.1-.3,0-.5,0,0,.2-.2,1.4-.3.5,0,1.1,0,1.4,0,.2,0,.5,0,.5,0,.1,0,.2,0,.3.1.2,0,.7.1.5.2,0,0,.2,0-.3.1,0,0-.1,0,0,0,.8,0,.3.2.4.3,0,.1.7.1.4.3.6,0,.5,0,.3.1-.6.3-.2.4-.2.6,0,.2,0,.4,0,.6,0,0,.4,0,0,0-.2,0,0,0,0,.1,0,0,.1,0,0,.1-.6.3-.2.4-.2.5,0,.2,0,.4.1.5.1,0,.5,0,.4.2,0,0,.3,0-.3.2-.2,0,.3,0,.3,0,0,0,0,.1,0,.2,0,0,0,.2,0,.3,0,0,.3,0,.4,0,0,0,0,0,0,.2,0,0-.2.2-.3.3,0,0,.3,0,0,.2-.4.3-.1.4-.1.5,0,.2,0,.3.2.4,0,0-.3.3-.3.4,0,0-.3.2-.7.4-.4.2-.8.4-1.1.5,0,0-.2,0-.2,0-.5.1-1.2.3-1.2.2,0-.2-.1-.3-.2-.4Z"/>
  <path d="M318,380.8c-.4,0-.8,0-1.2.1-.1,0-.3-.2-.4.3,0,.3-.2-.4-.4-.3-.4,0-.7,0-1.1,0-.4,0-.7.3-1.1.3-.4,0-.7-.3-1.1,0-.3.3-.5-.3-.8-.2-.3.1-.6.2-.9-.1-.2-.2-.4-.4-.6-.4-.1,0-.3.4-.4.3-.1,0-.2-.3-.4.3,0,0,0,0,0-.2,0-.4-.3-.4-.4-.2-.2.2-.3.2-.4.2-.3,0-.6,0-.9-.2-.2,0-.4-.4-.6-.5-.2-.1-.5.1-.7-.2-.1-.3-.3-.4-.5-.4-.1,0-.2-.3-.4.2,0,0,0,0,0,0-.1-.9-.7,0-1-.2-.3-.3-.7-.3-1-.4,0,0-.1-.2-.4.2,0,.1-.2.1-.2,0,0-.7-.4-.4-.7-.6-.3-.2-.6,0-.8-.6,0-.2-.2-.4-.5,0-.2.2-.2,0-.3,0-.1,0-.3.2-.4.2,0,0,0-.3,0-.4,0,0,0,0,0,0-.7.4-.7-.5-1.2-.6-.5,0-.9-.3-1.3-.6-.2-.2-.4-.4,0-1.5.2-.5.4-1,.6-1.2.2-.2.3-.4.4-.4.2,0,.3,0,.5-.1.3,0,.8-.4.9,0,0,.1.3-.1.1.4,0,0,0,.1,0,0,.7-.6.8,0,1.2.1.3,0,.8-.4,1,0,.4-.5.5-.4.6-.1.4.9,1.1.6,1.7.9.6.3,1.2.4,1.8.6.1,0,.3-.3.3,0,0,.3.2.1.4.2.1,0,.3,0,.4.1.3.8.9.5,1.4.6.5.2,1,.3,1.5.2.3,0,.7-.4.9-.2.1,0,.3-.2.4.4,0,.2.2-.3.3-.3.2,0,.4,0,.6,0,.3,0,.6,0,.8,0,.2,0,.4-.3.5-.3.2,0,.4,0,.5,0,.2,0,.4.3.7.3.2,0,.5-.2.7,0,.4.5.9.2,1.3.2.4,0,.9,0,1.1-.2.1,0,.4.3.5.3,0,0,.2.3.5.7.2.4.5.8.7,1,0,0,0,.2,0,.2,0,.6-.1,1.4-.6,1.5-.6,0-1.1.2-1.5.2Z"/>
  <path d="M290.3,327.9c-.2-.6-.3-1.3-.5-1.9,0-.2.1-.5-.5-.7-.3,0,.3-.4.2-.6-.2-.6-.3-1.2-.5-1.8-.2-.6-.5-1.1-.7-1.6-.2-.6,0-1.2-.5-1.7-.4-.4,0-1-.2-1.4-.2-.5-.4-.9-.3-1.5,0-.4.2-.8,0-1.1-.1-.2-.5-.3-.5-.6,0-.2.2-.5-.5-.6,0,0,0-.1.1-.2.4-.3.3-.6,0-.7-.3-.1-.3-.3-.4-.5-.1-.5-.3-1-.3-1.5,0-.4.1-.8.1-1.2,0-.4-.4-.7-.2-1.2.2-.4.1-.7,0-1.1,0-.2.2-.5-.5-.5,0,0,0,0,0-.1.7-.7-.5-1.1-.4-1.7,0-.6-.2-1.2-.3-1.8,0-.2.1-.4-.4-.4-.2,0-.2-.2-.1-.3.5-.6,0-1,0-1.4,0-.5-.4-1,0-1.6.2-.3.2-.6-.4-.7-.3,0,0-.4-.2-.6,0-.1-.4-.3-.4-.4,0-.1.2-.3.3-.5,0,0,0,0,0-.1-.8-.6,0-1.5-.3-2.3-.3-.7-.4-1.5-.4-2.3,0-.4,0-.9,1.2-1.4.5-.2,1-.3,1.4-.2.3,0,.5.2.6.3.1.2.3.4.4.7.3.5.9.9.7,1.4,0,.2.3.3-.2.5,0,0,0,.1,0,.1.9.5.5,1.3.7,2,.2.6.9,1,.7,1.7.7.2.6.6.5,1-.5,1.3.2,2.3.3,3.5.1,1.2.4,2.3.6,3.5,0,.2.4.3.2.6-.2.3,0,.5,0,.8,0,.2.2.4.1.7-.5,1,.1,1.9.2,2.8.1.9.2,1.8.6,2.7.2.5.7,1,.7,1.6,0,.2.4.4-.1.8-.1.1.3.2.4.4.1.4.2.8.3,1.1.1.5.2,1.1.4,1.6.1.3.4.6.6.9.1.3.2.7.2,1,0,.4,0,.9,0,1.3,0,.5.4.8.3,1.3-.3.9.1,1.6.3,2.4.1.8.3,1.6.6,2.3.2.4-.2.9,0,1.4,0,.2-1.3.8-1.8.9,0,0-.2,0-.2,0-.6-.3-1.4-.5-1.4-1-.1-.7-.3-1.4-.5-2.1Z"/>
  <path d="M339,127.3c-2.4,0-4.8,0-7.1,0-.9,0-1.8-.5-2.7.6-.5.5-1.3-.7-2.1-.7-2.2.1-4.4,0-6.7,0-2.2.1-4.3.6-6.5.7-2.1.1-4.3-.5-6.4.2-1.8.6-3.4-.4-5.1-.2-1.8.3-3.7.4-5.5,0-1.3-.3-2.6-.8-3.9-.6-.8.1-1.6.8-2.4.7-.8,0-1.7-.6-2.4.7,0,.1-.4-.1-.6-.3-.9-.8-1.9-.8-2.7-.2-.7.5-1.3.5-2,.5-1.8,0-3.7.1-5.5,0-1.4,0-2.7-.6-4.1-.7-1.4-.1-2.9.4-4.3-.2-1.3-.6-2.6-.6-3.9-.6-.7,0-1.6-.6-2.2.7,0,.1-.3.1-.5,0-2.1-1.7-4.2.5-6.3.1-2.2-.4-4.4-.1-6.7,0-.6,0-1.2-.4-1.8.6-.2.3-.8.4-1.1.1-1.6-1.3-3.4-.5-5.1-.7-1.9-.2-3.8.3-5.8-.6-.8-.4-1.9-.6-2.9.5-.5.5-1.4,0-2.1.1-.6.1-1.1.6-1.7.7-.5,0-1-.5-1.5-.7-.1,0-.3,0-.5,0-2.8,1.3-5.6-.4-8.4,0-2.8.4-5.7.2-8.6,0-1.6-.1-3.2-.5-4.3-2.8-.5-1-.5-2.1.2-2.8.5-.5,1.1-.9,1.6-1.1.9-.2,1.8-.5,2.7-.7,1.8-.4,3.6-1.5,5.5-.9.6.2,1.3-.4,1.8.6,0,.1.3.2.4.1,2.5-1.6,5.1-.5,7.7-.7,2.2,0,4.3-1.4,6.5-.8,1.2-1.3,2.6-1,3.8-.7,4.3,1.3,8.6.4,12.9.6,4.4.2,8.7,0,13.1,0,.7,0,1.4-.7,2.3-.2.8.5,1.9.1,2.8.1s1.8-.3,2.6,0c3.4,1.3,6.9.5,10.3.7,3.4.1,6.8.3,10.2,0,2.1-.2,4.1-.9,6.2-.6.9.1,1.8-.6,2.7.6.2.3,1.1-.6,1.7-.6,1.4-.1,2.9,0,4.3,0s4,0,5.9,0c1.2,0,2.4-.6,3.6-.7,1.3-.1,2.5-.1,3.8,0,1.6.2,3.2.6,4.8.7,1.7.1,3.4-.4,5,.1,3,1,5.9.5,8.9.6,2.9.1,5.9.2,8.8,0,1.7-.1,3.2.9,4.8.9.8,0,1.8,2.9,1.5,4,0,.2-.2.4-.3.5-1.6.9-3.1,2.4-4.9,2.3-2.7-.1-5.4,0-8.1,0Z"/>
  <g>
    <path d="M256.2,160.8c-1.4-.4-2.8,1.1-3,2.6-.2,1.5.4,2.9.8,4.4.4,1.3.8,2.9,2,3.4.6.2,1.2.2,1.9.2,5.6-.4,11.2-1,16.7-1.9.4,0,.8-.1,1-.4.3-.3.3-.7.3-1.1,0-1.1,0-2.2-.6-3-1.1-1.3-3.1-.9-4.7-.5-3.3,1-6.6,2-10,1.8-.9,0-1.9-.2-2.6-.8s-1.1-1.6-.7-2.4"/>
    <path d="M260.6,164.3c.8,0,1.6.1,2.5,0,.3,0,.7.2.9-.4.1-.3.5.3.8.2.8-.2,1.6-.3,2.4-.6.8-.3,1.5-.7,2.3-1,.4-.1.9-.2,1.4-.3.5,0,1-.2,1.5-.4.5-.2,1-.1,1.5,0,.6.2,1.1.4,1.7.6,1.2.4,2.3,1.7,2.3,3,0,.2,0,.5,0,.7v.5c0,.4-.1.9,0,1.3,0,.5.3,1.2,0,1.7-.1.3-.5.6-.6,1,0,.2-.1.4-.1.6,0,0-.3.1-.4.1-.4,0-.7,0-1,.1-.3,0-.6.2-.8.4-.2.2-.4.3-.7.3-.1,0-.2,0-.4,0h-.2c-.7.2-1.4.3-2.2.3-.5,0-1.1-.1-1.7-.1-.6,0-1.1.4-1.7.1-.6-.2-1.1-.2-1.6-.1-.3,0-.7-.2-.8.4,0,0-.1,0-.2,0-.9-.7-1.6.4-2.5.3-.9-.1-1.8.1-2.6.2-.2,0-.5-.1-.7.3,0,.2-.3.2-.4.1-.4-.3-.7-.3-1-.3-.3,0-.7.1-1.1,0-.6,0-1.4,0-2-.3-.6-.2-1.2-.7-1.5-1.4-.2-.6-.5-1.2-1.2-1.4-.4-.1-.3-.7-.4-1-.1-.2-.5-.4-.5-.6,0-.2.1-.4.2-.6,0,0,0-.1,0-.2-.9-.8-.6-2.3-.8-3.8,0-.4,0-.8,0-1.3,0-.5.2-1,.4-1.4.4-.9,1-1.6,1.9-2.2,1-.7,2.4-.7,2.9.6.2.6.1,1.1,0,1.4-.2.2-.3.4-.4.5-.2.1-.3.3-.4.5,0,.2,0,.5,0,.7,0,.2,0,.4-.2.5,0,0,0,0,0,.1,0,0,0,.1-.3.2,0,0-.1,0,0,.1.4.3.5.6.6,1.1,0,.4,0,.9.3,1.3.1.4.5.8.7,1.2.2.4.4.7.4,1,.4,0,.5.1.6.2,0,0,0,0,0,.1-.1.1,0,.3,0,.3,0,0,0,0,.5,0,.8,0,1.7-.2,2.5-.3,1.7,0,3.4-.3,5.1-.5.3,0,.5-.4.9-.2.3.2.7,0,1.1,0,.3,0,.7-.2,1,0,1.4.5,2.7,0,4-.2h1.5c.2-.2.4-.2.5-.3,0,0,0-.1,0-.2,0-.2-.1-.3-.2-.4,0,0,0,0,0-.1,0-.1,0-.3,0-.3,0-.1-.3,0,.2-.4.1-.1-.3,0-.3,0-.1,0-.2,0-.3,0-.4,0-1,0-1.6.2-.4.1-.7.5-1.2.7-.5.2-1,.3-1.5.4-.7.1-1.3,0-2,.2-.7,0-1.4.5-2.1.4-1.3-.3-2.6,0-3.9,0-.6,0-1.3-.1-2.1-.3-.8-.2-1.6-.5-2.4-1.2-.5-.4-.7-.9-.8-1.5,0-.5,0-1.1,0-1.7,0-.3.5-.6.9-.6.5,0,.9.2,1.1.3,0,0,.2.1.2.2.2.2.5.3.7.4.2,0,.4,0,.4,0,0,.2.6.5,1.4.5Z"/>
  </g>
  <g>
    <path d="M287.8,367.2c-1.7-3.3-1.7-7.5.1-10.8-1.5-1.2-.2-3.5,1.3-4.7,2.1-1.6,4.7-2.8,7.3-3.3.5,0,1-.2,1.4-.5,1.9-1.2.2-4.5,1.5-6.4.6-.9,1.8-1.2,2.8-1.5,2.3-.6,4.5-1.2,6.8-1.8.5-.1,1.1-.3,1.7-.2.6.1,1.1.6,1.5,1,3.8,3.4,8.1,6.6,13.1,7.5,2.1.4,4.3.4,6.5.3,5,0,10-.1,14.9-.2.3-4.2.4-8.4.1-12.6,0-.7-.1-1.5-.6-2.1-.6-.6-1.5-.7-2.3-.7-1.9-.1-3.8-.2-5.7-.4l-60.5-3.8c-1.9-.1-3.7,1.1-4.1,3-3.6,15-6.1,30.3-7.5,45.7,0,1.1-.2,2.3.4,3.3.9,1.7,3,2.1,4.9,2.3,23.6,2.8,47.4,4.8,71.1,6,1.9,0,4.1,0,4.9-1.8s.1-2.3-.7-3.2c-1.4-1.5-3.5-1.8-5.4-2-3.2-.3-6.4-.7-9.6-1-3.4-.4-6.9-.7-10.3-.5-3.7.2-7.3,1.2-11,1.3-3.7,0-7.6-.8-10.1-3.5l-1,4.2c-4.5-1.4-8.5-4.1-11.5-7.7"/>
    <path d="M314.8,377.8c1.5-.2,3-.5,4.6-.6,1.6-.2,3.2-.3,4.8-.2,3.2,0,6.3.4,9.3.7,2.3.2,4.5.7,6.9.4.6,0,1.4,0,2.4.4,1,.3,2.3.7,3.5,1.3,1,.5,2,1.3,2.6,2.5.6,1.1.8,2.7.3,4.1-.3.8-.9,1.5-1.6,1.9-.7.5-1.4.7-2.1.9-1.3.3-2.5.2-3.5.2-2,0-4-.2-6-.3-5.5-.2-11-.4-16.6-.7-5.5-.3-11.1-1.1-16.4-1.2-4.6-.1-8.6-1-13-1.3-4.6-.3-9.4-.8-13.9-1.5-1.6-.3-3.3-.5-4.9-.8-.8-.1-1.8-.3-2.7-.6-.9-.3-2-.7-3-1.6-.6-.6-1.1-1.3-1.3-2-.3-.7-.4-1.5-.4-2.1,0-1.3,0-2.2.1-3.4.2-2.1.7-4.4.3-6.3,0-.2.2-1.1.3-1.5.7-2.2,1-4.9,1-6.8,0-1.9.3-3.5.5-5.2.7-4.6,1.5-9.3,2.5-13.9.8-3.4,1.7-6.8,2.6-10.2v-.2s.1-.3.1-.3c0-.2.1-.3.2-.5.1-.3.3-.7.5-1,.4-.6.9-1.2,1.4-1.6,1.1-.9,2.6-1.4,4.1-1.4h.4s.3,0,.3,0h.7c.5,0,.9.1,1.4.1.9,0,1.8.2,2.6.3,3.3.5,6.6.7,9.9.9,1.9.1,4,.5,5.6,0,.1,0,.8,0,1.2,0,5.3,1.2,10.6.4,16,1,5.6.6,11.3.8,17,1.1,1.5,0,3.1.4,4.5,0,.5-.1,2.1,0,2.8.1,1,.2,2.1.4,3.2.5h.8c.3.1.6.1,1.1.2,1,.2,1.9.5,2.6,1.2.7.7,1.1,1.6,1.3,2.6,0,.2,0,.5,0,.7v.5s0,.8,0,.8c0,1.1.1,2.2,0,3.3v3.8c0,0-.1,1.9-.1,1.9v1.4c0,0-.2,1.7-.2,1.7v1.7c0,.4-.4.3-.7.3h-.8s-1.7,0-1.7,0h-1.6c-1.2,0-2.5,0-3.7-.2-2.1-.2-5-.3-7.5.4-1.1.3-3.6,0-5.5,0-1.6,0-3.3,0-4.9-.6-1.4-.4-2.6-1.2-3.7-1.9-.3-.2-.8-.5-1.1-.6-1.8-.8-3.4-1.9-4.8-3.1-.7-.6-1.4-1.2-2.1-1.8l-.4-.4c0,0,0,0,0,0,0,0,0,0-.1,0h0s0,0-.1,0h-.6c0,.1-1.3.4-1.3.4l-2.6.6c-1.6.4-4,.9-4,1.2,0,0,0,0,0,0,0,0,0,0,0,.3,0,.2,0,.6,0,.9,0,.4,0,.9,0,1.4v.4c0,.2,0,.4,0,.6,0,.4-.1.8-.3,1.2-.3.8-.7,1.5-1.4,1.9-.6.5-1.4.8-2.2,1-.9.2-1.5.3-2.3.6-1.5.5-2.9,1.2-4.1,2.1l-.2.2h-.1c0,.2-.2.3-.3.4-.2.2-.4.4-.5.6-.1.2-.2.4-.2.4h0s0,0,0,0h0c-.1,0-.3,0-.3,0,0,0-.2,0-.1,0,0,0,0,0,0,0,0,0,0,0,0,0,0,0,.2-.1.2-.2l.7,2.6c-.8,1.3-1.2,2.9-1.4,4.4-.2,1.5-.2,2.9-.2,4.3,0,1.2-.5,1.6-1.5,0-.7-1.1-1.2-2.7-1.3-4.2,0-2.1.3-4.3,1.3-6.2l.3,1.7c-.5-.4-.9-.9-1-1.5-.3-1-.1-2,.2-2.7.3-.7.7-1.4,1.1-1.9.2-.3.5-.6.8-.8.3-.3.5-.4.8-.6.5-.4,1-.8,1.6-1.1,1.1-.7,2.3-1.3,3.5-1.7.6-.2,1.3-.4,1.9-.5h.5c.2-.1.2-.1.2-.1,0,0,.2,0,.3,0,.2,0,.3-.4.3-.6,0-.5,0-1.3.3-2,0-.2.1-.9.2-1.3,0-.6.2-1.2.6-1.8.3-.5.8-1,1.3-1.3.5-.3.9-.5,1.4-.7.9-.3,1.6-.5,2.3-.7,1.5-.4,2.9-.8,4.4-1.2l1.1-.3c.3,0,1.1-.3,1.7-.2.6,0,1.3.2,1.8.5.3.2.5.4.8.6.2.2.4.3.5.4,1.1,1,2.2,2,3.4,2.9,2.1,1.6,4.4,2.7,6.8,3.4,1.2.3,2.3.5,3.6.6,1.2,0,2.5.1,3.9.2,3.1-.7,6.7-.6,9.8-.4h2.1c0,0,1,.1,1,.1,0,0,.2,0,.2,0h0s0,0,0,0h.2c0,0,.1,0,.1,0,0,0,0-.2,0-.3v-.9c0,0,.1-1,.1-1,0-.7,0-1.3,0-2,0-1.3,0-2.7,0-4v-2c-.1-.2-.1-.2-.1-.2h0c0-.2,0-.2,0-.3-.1,0-.2-.1-.4-.1h-2c-2.7-.3-5.5-.4-8.2-.6-11.1-.8-22.3-1.4-33.4-2.2-1.9-.1-3.6.1-5.8-.3-2.1-.4-4.8-.4-7.2-.5-2.2-.1-4.6-.2-6.7-.4-1.1-.2-2.2-.3-3.3-.4-.6-.1-1.2,0-1.6.4-.2.2-.4.4-.5.7,0,.2,0,.2-.2.5l-.2.8c-.3,1.1-.5,2.1-.8,3.2-1,4.3-1.8,8.5-2.6,12.8-1.6,8.5-2.9,17.1-3.5,25.7v2c-.2.7-.2,1.3-.2,1.8,0,.5.1.9.2,1.1.1.2.3.3.6.5.6.3,1.7.5,3,.7,1.3.1,2.6.3,4,.5,2.3.3,4.7.2,6.8,1.1.6.2,2.8,0,4.2.1,3.6.4,7.2.7,10.9,1.1,5,.5,10.1.9,15.1,1.3,3.1.2,6.1.2,9.2.3,3.2.2,6.5.4,9.7.6,2,.2,4.1.4,6.1.5l3.1.3h1.5c.5.2.9.2,1.3.2.5,0,1-.1,1.3-.2.2,0,.2-.2.3-.3,0-.2,0-.6-.6-1.1-.6-.5-1.6-.7-2.8-1-3.7-.7-7.5-1.1-11.2-1.5-3.7-.4-7.3-.7-10.9-.2-3.2.3-6.5,1.1-10.1,1.1-1.8,0-3.6-.2-5.4-.8-.4-.1-.9-.3-1.3-.5-.2,0-.4-.2-.7-.3h-.2c-.2-.2-.5-.4-.6-.5h0c0,0,0,0,0-.1v-.2s.2-.7.2-.7v-.4c0,0,.1,0,.1,0h0c0,.1,0,.4,0,.4l-.3,1.1c-.2.9-.4,1.7-.7,2.5l-.2.6c0,0,0,.2-.1.2h-.3c0-.1-1.2-.5-1.2-.5-.8-.3-1.6-.6-2.4-.9-.4-.1-.8-.4-1.1-.5-.2-.1-.5-.3-.7-.4-1.9-1.1-3.6-2.4-5.2-3.8-.8-.7-1.4-1.8-1.6-2.7-.2-.9-.1-1.6.3-1.4.2,0,.4.2.7.4,1.5,1.3,3.1,2.3,4.8,3.2.9.4,1.7.8,2.7,1.2.2,0,.5.2.7.3h.2c.2.1.3.2.5.2,0,0,.1,0,.2,0v-.2c0,0,.2-.4.2-.4l.4-1.5.5-2.1v-.5c.1,0,.2-.1.2-.1h0s0-.1,0-.1l.2-.3c.9.9,1.9,1.9,2.8,2.8.5.5.9.7,1.4,1.1.1,0,.3.2.4.2h.2c.1.1.2.2.4.2,1,.4,2.1.7,3.2.8,2.2.3,4.6,0,7.1-.3Z"/>
  </g>
  <path d="M254.8,449c-.3-1.8-.5-3.5-.8-5.3-.1-.7,0-1.4-.6-2-.3-.3.2-1,.1-1.6-.3-1.6-.4-3.3-.7-4.9-.3-1.6-.7-3.2-1-4.7-.3-1.6-.2-3.3-.8-4.7-.5-1.3-.1-2.6-.4-3.8-.3-1.3-.5-2.7-.5-4.1,0-1,.2-2,0-2.9-.1-.6-.5-1.1-.5-1.8,0-.6.2-1.3-.5-1.8,0,0,0-.3.1-.5.4-.7.3-1.5,0-2-.3-.5-.3-1-.3-1.5-.1-1.4-.2-2.8-.1-4.2,0-1.1.3-2.1.4-3.2.1-1.1,0-2.3.3-3.3.4-1,.5-2,.7-3,.1-.6.5-1.2,0-1.8,0,0,0-.3,0-.4.6-.7.7-1.5.8-2.3,0-.8.1-1.7.5-2.5.8-1.6,1.4-3.3,2.3-4.9.3-.4.7-.7.6-1.4,0-.2.2-.7.5-.8.7-.4,1.1-.9,1.6-1.4.5-.5.9-1.1,1.5-1.5.7-.5,1.2-1,1.9-1.5.7-.4,1.4-.9,2.2-1.1.3,0,.7-.2,1.1-.4.4-.2.7-.5,1-.9.2-.4,1.1-.4,1.6-.7.4-.2.8-.6,1.3-.7.4-.1.8,0,1.3,0,.1,0,.3,0,.4,0,2.1-1.2,4.5-.5,6.7-.7,2.2-.2,4.5,0,6.6.3,1.2.2,2.4.5,3.1,1.7.3.6.2,1.1-.3,1.4-.4.2-.8.4-1.3.4-.7,0-1.3,0-2,.1-1.4,0-2.7.5-4,.2-.4,0-.9.2-1.3-.3,0,0-.2-.1-.3,0-1.8.8-3.6.4-5.4.8-1.5.3-2.7,1.3-4.1,1.6-.5.9-1.3,1.2-2.1,1.4-.7.2-1.3.5-1.9.9-.6.4-1.2.8-1.6,1.4l-.7.8c-.2.3-.4.6-.6.9-.5.6-.8,1.2-1.2,1.8-1.7,2.5-2.6,5.4-3.3,8.4-.1.5.1,1-.3,1.6-.4.5-.3,1.3-.4,2,0,.6,0,1.3-.2,1.9-.9,2.4-.6,4.9-.6,7.4,0,2.5,0,5,.5,7.5.2,1.5.7,3,.8,4.6,0,.7.4,1.3,0,2-.1.2.4.8.5,1.2.2,1,.3,2.1.4,3.2.2,1.5.4,2.9.6,4.4.2.9.5,1.7.7,2.6.2.9.3,1.9.4,2.8,0,1.2,0,2.4.2,3.6.1,1.2.6,2.5.5,3.7-.2,2.3.4,4.4.6,6.6.3,2.2.5,4.4,1,6.5.2,1.2,0,2.4,0,3.6,0,.6-1.3,1.5-1.8,1.4-.1,0-.2-.1-.3-.2-.6-1.1-1.5-2.1-1.6-3.5-.2-2-.6-4-.8-6Z"/>
  <path d="M272,470.6l-1.1,1.7c-.4.6-1.1,1.5-2,2-.7.4-1.4.4-2,1-.3.3-1-.2-1.5-.2-1.4.1-2.6,0-3.8,0-1.2,0-2.4.2-3.6.1-1.2,0-2.4-.4-3.6-.2-1,.2-1.9-.4-2.8-.4-1,0-2.1,0-3-.4-.7-.3-1.4-.6-2.1-.6-.5,0-.9.2-1.4.1-.4,0-.9-.5-1.4,0,0,0-.2-.1-.3-.2-.4-.5-1-.6-1.5-.4-.4.2-.8,0-1.2,0-1-.2-2-.4-3-.7-.7-.2-1.4-.6-2.2-.9-.8-.2-1.7-.2-2.3-.7-.2-.1-.3-.2-.5-.3-.2,0-.4-.2-.6-.3-.5-.2-1.1-.4-1.6-.7-.6-.4-.9-1-1.8-1.1,0,0-.2-.2-.3-.3-.1-.9-.5-1.7-.5-2.6,0-.9.2-1.9.9-2.5.4-.3.9-.6,1.3-.9.2-.1.5-.3.7-.4l.6-.3c.6-.3,1.1-.6,1.7-.9.3-.1.7-.1.8-.7,0-.2.4-.3.6-.3,1.1.2,1.9-.5,2.8-.7,1.1-.2,2-.9,3.2-.7.5,0,1.1,0,1.5-.7.2-.3.8-.2,1.2-.3.3-.1.6-.5.9-.5.3,0,.6.1.9.2,0,0,.2,0,.3,0,1.5-1,3.2-.3,4.8-.7,1.6-.4,3.3-.4,4.9-.4.9,0,1.8.2,2.4,1.4.3.5.2,1.1-.1,1.4-.3.2-.6.5-.9.5-.5,0-1,.2-1.4.4-1,.2-1.9.8-2.9.6-.3,0-.7.3-1-.2,0,0-.2,0-.2,0-1.2.9-2.7.6-4,.9-1.1.3-2.1,1.1-3.3,1.1-.5.8-1.2.9-1.9.8-2.4,0-4.4,1.2-6.5,2-.5.2-1.1.4-1.6.7l-.5.3c0,0,0,0-.1,0-.2,0-.3.4-.2.6,0,0,.4-.1.2,0,0,.1,0,.2,0,.2,0,0,0,0,0,0,0,0,0,0,.2,0,.3,0,.9,0,1.2.4,1.6,1.1,3.6,1.2,5.4,1.6,1.8.5,3.6.9,5.5,1,1.1,0,2.3,0,3.4.2.5.1,1-.1,1.4.5.1.2.6-.2.9-.2.8,0,1.5.2,2.3.3,1.1.1,2.1.3,3.2.3.7,0,1.3-.2,2-.2.7,0,1.4,0,2.1.1.9.1,1.7.4,2.6.5.9.1,1.8-.1,2.4,0,.6.2,1.1,0,1.4-.1.3-.2.6-.8,1.1-1.5.9-1.3,1.8-2.7,2.5-4.1.4-.8,1.3-1.3,1.8-2,.2-.4,1.8,0,2.1.4,0,0,.1.2.1.3,0,1,.1,2.1-.5,2.9-.8,1.2-1.6,2.5-2.4,3.8Z"/>
  <path d="M224.4,437.8c0-1.8,0-3.6,0-5.3,0-.7.3-1.3-.3-2-.3-.3.4-1,.4-1.6,0-1.7,0-3.3,0-5,0-1.6-.2-3.2-.3-4.8,0-1.6.3-3.3,0-4.8-.3-1.3.3-2.5.2-3.8,0-1.4-.1-2.8.2-4.1.2-1,.5-1.9.4-2.9,0-.6-.3-1.2-.3-1.9,0-.6.4-1.3-.2-1.9,0,0,0-.3.2-.4.5-.6.5-1.4.3-2-.2-.6-.1-1,0-1.6.1-1.4.3-2.8.5-4.2.2-1,.6-2,.9-3.1.3-1.1.3-2.3.8-3.2.6-.9.8-1.9,1.2-2.8.2-.5.7-1.1.2-1.7,0,0,0-.3.1-.3.7-.6.9-1.4,1.2-2.2.2-.8.4-1.7.9-2.4,1-1.4,1.9-3,3-4.5.3-.4.8-.6.8-1.3,0-.2.3-.6.6-.7.7-.2,1.3-.7,1.8-1.2.6-.4,1.1-.9,1.7-1.3.7-.4,1.4-.8,2.1-1.2.7-.3,1.5-.7,2.3-.7.4,0,.8,0,1.1-.2.4-.1.8-.4,1.1-.8.3-.4,1.1-.3,1.7-.4.5-.1.9-.5,1.4-.5.4,0,.8.2,1.2.2.1,0,.3,0,.4,0,2.3-.8,4.5.2,6.7.4,2.2.1,4.4.7,6.5,1.3,1.2.3,2.3.9,2.8,2.2.2.6,0,1.1-.5,1.3-.4.1-.9.2-1.3.2-.7,0-1.3-.1-2-.2-1.3-.1-2.7,0-4-.4-.4-.2-.9,0-1.2-.5,0,0-.2-.1-.3-.1-1.9.5-3.6-.2-5.5,0-1.5,0-2.9.8-4.3.9-.6.8-1.5,1-2.3,1.1-.7.1-1.4.3-2,.6-.6.3-1.3.6-1.8,1.1l-.8.7c-.3.2-.5.5-.8.8-.5.5-1,1.1-1.5,1.6-2,2.2-3.4,5-4.6,7.8-.2.5,0,1-.5,1.5-.4.5-.5,1.2-.7,1.9-.2.6-.2,1.3-.5,1.8-1.3,2.2-1.3,4.8-1.7,7.2-.4,2.5-.7,5-.7,7.5,0,1.5.3,3.1,0,4.6,0,.7.2,1.4-.4,2-.2.2.3.8.3,1.2,0,1.1,0,2.1,0,3.2,0,1.5,0,3,0,4.4,0,.9.3,1.8.3,2.7,0,.9,0,1.9,0,2.8,0,1.2-.3,2.4-.4,3.6,0,1.2.2,2.5-.1,3.7-.5,2.2-.3,4.4-.4,6.6,0,2.2-.2,4.4,0,6.6,0,1.2-.5,2.4-.5,3.6,0,.6-1.5,1.3-2,1.1,0,0-.2-.1-.2-.2-.5-1.2-1.2-2.3-1.1-3.7,0-2,0-4,0-6.1Z"/>
  <path d="M229.5,465.1c-1.2-.2-2.3-.5-3.5-.7-.4,0-.8-.4-1.4,0-.3.2-.6-.5-1-.6-1.1-.2-2.2-.5-3.2-.8-1.1-.2-2.2-.3-3.2-.5-1.1-.2-2-.8-3.1-.8-.9,0-1.6-.7-2.4-.9-.9-.2-1.8-.4-2.6-.9-.6-.4-1.1-.8-1.7-.9-.4,0-.9.1-1.3,0-.4-.2-.7-.6-1.3-.1,0,0-.2-.1-.2-.2-.3-.5-.8-.7-1.2-.6-.4.1-.7,0-1-.1-.9-.3-1.7-.6-2.5-1.1-.6-.4-1-.7-2.2-1.5-1-.7-2.2-1.6-2.3-2.7-.1-1-.1-2,.2-2.9.2-.5.8-.8.7-1.5,0,0,.2-.2.3-.2,1-.2,1.7-.6,2.5-1h.3c0-.2.1-.2.2-.3.1,0,.2-.1.4-.2.2-.1.5-.2.8-.3,1.1,0,2.2-.5,3.3-.8.3,0,.6,0,.8-.5,0-.2.4-.3.6-.2.9.5,1.7,0,2.6,0,1,0,1.9-.4,3,0,.4.2,1,.2,1.5-.4.2-.3.7,0,1.1-.1.3,0,.6-.4.9-.4.3,0,.5.2.8.3,0,0,.2,0,.2,0,1.4-.7,2.9.2,4.3.1,1.5,0,2.9.1,4.4.4.8.1,1.6.5,1.9,1.7.2.5,0,1.1-.3,1.4-.3.2-.6.4-.9.4-.4,0-.9,0-1.3.1-.9,0-1.8.5-2.7.2-.3-.1-.6.2-.8-.4,0,0-.1-.1-.2,0-1.2.7-2.4.2-3.7.2-1,0-2,.7-3.1.5-.5.7-1.2.6-1.8.5-2.1-.5-4.1.3-6.1.6-1,.2-2,.4-3,.7-.5.1-1,.3-1.5.4h-.3c0,.1.3.4,0,.3-.4,0-.2.1-.1.2,0,0,.2.1,0,.2-.1.1-.1.3,0,.4,0,0,0,.1.1.2,0,0,0,0,0,0h.2c.1.2.3.2.5.3l.6.2c.4.1.8.3,1.2.5,1.5.7,3,1.4,4.6,1.8,1,.3,2,.3,2.9.7.4.2.9,0,1.1.7,0,.2.6-.1.9,0,.7.2,1.3.4,2,.6.9.3,1.8.6,2.8.8.6.1,1.2,0,1.8.2.6.1,1.2.3,1.8.5.7.3,1.4.7,2.2.9.8.2,1.6.2,2.3.6,1.3.8,2.7.9,4.1,1.2,1.4.3,2.7.6,3.5.3.2,0,.4,0,.6,0,.2,0,.5-.1.8-.4.2-.2,1.7.3,1.9.8,0,0,0,.2,0,.3,0,.5-.1,1-.4,1.5-.2.5-.7,1-1.3,1.3-2,.7-3.6.4-5,.1Z"/>
  <path d="M300.6,476.5c-.4,0-.8,0-1.2,0-.1,0-.3-.2-.5.3,0,.3-.2-.4-.4-.3-.4,0-.7,0-1.1,0-.4,0-.7.3-1.1.3-.4,0-.7-.2-1.1,0-.3.3-.6-.2-.9-.1-.3.1-.6.2-.9,0-.2-.2-.4-.4-.6-.3-.1,0-.3.4-.4.4-.1,0-.3-.3-.4.3,0,0,0,0-.1-.1-.1-.4-.3-.4-.5-.1-.1.3-.2.2-.3.3-.3,0-.6,0-.9,0-.2,0-.5-.3-.7-.3-.2,0-.5.2-.7,0-.2-.3-.4-.3-.7-.3-.1,0-.3-.3-.4.3,0,0,0,0,0,0-.4-.8-.7.3-1.1,0-.4-.2-.7,0-1.1,0,0,0-.2-.2-.3.3,0,.2-.1.2-.2,0-.3-.6-.6-.2-.8-.4-.3-.1-.6.2-1-.3-.1-.2-.3-.3-.5.3,0,.3-.2,0-.4,0,0,0-.2.3-.3.3,0,0-.2-.2-.2-.3,0,0,0,0,0,0-.5.7-.9-.2-1.4,0-.5.2-1,.1-1.4,0-.3,0-.5-.2-.7-1.4,0-.5,0-1.1,0-1.4,0-.2.2-.5.3-.5.2,0,.3-.2.4-.3.3-.2.6-.7.9-.4,0,0,.2-.2.3.3,0,0,0,.1,0,0,.4-.8.9-.3,1.3-.3.4,0,.7-.7,1.1-.4.2-.6.4-.5.6-.3.7.7,1.4.2,2.2.3.7,0,1.5,0,2.2,0,.1,0,.2-.4.4,0,.1.3.3,0,.5,0s.3-.1.4,0c.6.7,1.2.3,1.7.3.6,0,1.1.1,1.7,0,.3,0,.7-.4,1-.3.1,0,.3-.3.5.3,0,.2.2-.3.3-.3.2,0,.5,0,.7,0s.7,0,1,0c.2,0,.4-.3.6-.3.2,0,.4,0,.6,0,.3,0,.5.3.8.3.3,0,.6-.2.8,0,.5.5,1,.3,1.5.3.5,0,1,.1,1.5,0,.3,0,.5.4.8.4.1,0,.3,1.5.2,2,0,0,0,.2,0,.2-.3.5-.5,1.2-.8,1.1-.5,0-.9,0-1.4,0Z"/>
  <path d="M300.4,470.7c0-1,0-2.1-.2-3.1,0-.4.2-.8-.3-1.2-.3-.2.3-.6.3-1-.1-1,0-2-.2-2.9-.1-.9-.4-1.9-.5-2.8-.1-.9.2-1.9-.2-2.8-.3-.8.2-1.5,0-2.2-.2-.8-.3-1.6,0-2.4.1-.6.3-1.1.2-1.7,0-.3-.4-.7-.4-1.1,0-.4.3-.8-.4-1.1,0,0,0-.2.1-.3.4-.4.3-.9,0-1.2-.3-.3-.3-.6-.3-.9,0-.8-.1-1.6-.1-2.4,0-.6.2-1.2.3-1.8,0-.6-.3-1.3,0-1.9.3-.6.2-1.1.2-1.7,0-.3.3-.7-.4-1,0,0,0-.1,0-.2.8-1-.3-1.8-.2-2.8.2-1,0-2,0-2.9,0-.3.2-.5-.3-.8-.2,0-.2-.4,0-.5.6-.7.2-1.5.3-2.2,0-.8-.2-1.7.2-2.6.2-.4.3-.9-.3-1.3-.3-.2,0-.6-.1-.9,0-.3-.3-.5-.4-.7,0-.2.2-.4.3-.7,0,0,0-.1,0-.2-.7-1.2.1-2.5-.1-3.7-.2-1.2-.2-2.5-.2-3.8,0-.7.2-1.4,1.3-1.9.5-.2,1.1-.3,1.4,0,.2.2.5.4.6.7.1.4.3.8.4,1.2.2.8.8,1.6.5,2.4,0,.3.2.5-.3.8,0,0-.1.1,0,.2.8,1.1.4,2.2.5,3.4,0,1,.8,1.8.5,2.8.7.5.6,1.1.4,1.7-.6,1.9,0,3.8,0,5.7,0,1.9.2,3.8.2,5.8,0,.3.4.6.1,1-.2.4,0,.8,0,1.2,0,.4.2.8,0,1.1-.6,1.5-.1,3-.1,4.5,0,1.5,0,3,.2,4.5.1.9.5,1.8.4,2.7,0,.4.3.8-.3,1.2-.2.1.3.5.3.7,0,.6,0,1.3,0,1.9,0,.9,0,1.7.1,2.6,0,.5.3,1,.4,1.6,0,.6.1,1.1,0,1.7,0,.7-.2,1.4-.3,2.1,0,.7.3,1.5,0,2.2-.5,1.3-.1,2.6-.1,3.9,0,1.3,0,2.6.2,3.9.1.7-.4,1.4-.3,2.1,0,.3-1.4.8-1.9.7,0,0-.2,0-.2-.1-.5-.7-1.3-1.3-1.2-2.1,0-1.2,0-2.4-.1-3.6Z"/>
  <path d="M373.9,387.4c-.1,1.6-.3,3.2-.5,4.9,0,.6-.5,1.2,0,1.9.2.4-.6.8-.7,1.4-.4,1.5-1,3-1.7,4.5-.7,1.4-1.4,2.8-2.4,4.1-1,1.2-2.4,2.1-3.4,3.2-.9,1-2.1,1.2-3.1,1.9-1.1.7-2.2,1.4-3.5,1.7-.9.2-1.8.3-2.6.7-.5.3-.9.7-1.5.9-.5.1-1.2,0-1.5.8,0,0-.3,0-.4,0-.7-.2-1.4,0-1.8.3-.4.4-.9.4-1.3.5-1.2.3-2.4.5-3.7.6-.9,0-1.9,0-2.8,0-.9,0-1.9.5-2.8.3-.9-.2-1.7,0-2.6,0-.5,0-1.1-.2-1.4.5,0,0-.2,0-.3,0-1.5-.7-2.7.5-4.2.4-1.5,0-2.9.2-4.4.3-.4,0-.8-.1-1.2.3-.1.2-.5.2-.7.1-1.1-.6-2.3-.1-3.4-.2-1.3,0-2.6.2-3.9-.2-.5-.2-1.3-.3-1.9.3-.3.3-.9,0-1.4,0-.4,0-.8.3-1.2.3-.3,0-.6-.2-1-.4,0,0-.2,0-.3,0-1.9.6-3.7-.4-5.6-.3-1,0-1.9,0-2.9-.1-1-.1-1.9-.3-2.9-.4-1-.2-2.1-.5-2.6-1.8-.2-.6-.2-1.1.3-1.4.4-.2.8-.4,1.1-.4.6,0,1.2,0,1.8,0,1.2,0,2.4-.4,3.6,0,.4.1.8-.1,1.1.4,0,0,.2.1.3,0,1.7-.7,3.3,0,5,0,1.4,0,2.8-.6,4.2-.3.8-.6,1.7-.5,2.5-.3,2.8.6,5.6,0,8.4,0,2.8,0,5.7-.4,8.5-.7.5,0,.9-.4,1.5-.2.6.2,1.2,0,1.8-.1.6,0,1.1-.3,1.7-.2,2.3.4,4.5-.3,6.7-.6,2.2-.3,4.3-.7,6.3-1.5.6-.2,1.2-.5,1.8-.8.6-.3,1.2-.6,1.8-.7.5-.1.9-.7,1.7-.4.2,0,.5-.5.8-.7.4-.2.7-.4,1.1-.6l1.1-.7c.5-.3,1-.7,1.4-1,.5-.4.9-.8,1.3-1.2.4-.6.8-1.2,1.2-1.8.2-.3.4-.6.6-.9.2-.3.4-.6.6-.9.6-.7,1.1-1.5,1.6-2.3.4-.9.5-1.9,1-2.8.9-1.6.9-3.5,1.1-5.4.2-1.9.3-3.8.3-5.7,0-1.1.5-2.1.6-3.2,0-.5,1.5-1.1,2-.9,0,0,.2.1.2.2.4,1.1,1.1,2,1,3.2-.1,1.8-.1,3.6-.3,5.4Z"/>
  <path d="M323.9,328.3c0-1,0-2,0-3,0-.4.3-.7-.3-1.1-.3-.2.4-.5.4-.9,0-.9,0-1.9,0-2.8,0-.5,0-.9-.1-1.4v-.6c0,0-.2-.1-.2-.1,0,0,0-.2,0-.3,0,0-.1,0-.2,0,0,0,0,0,0,0,0,0-.3,0-.4-.2-.3-.1-.6-.3-1-.3-.8,0-1.5,0-2.2-.4-.5-.3-1-.5-1.5-.5-.3,0-.7.3-1,.2-.3,0-.7-.4-1,.2,0,0-.2,0-.2-.2-.3-.4-.8-.5-1.1-.2-.3.2-.6.2-.8.2-.7,0-1.5,0-2.2-.2-.6,0-1.1-.4-1.6-.5-.6-.1-1.2.1-1.7-.2-.5-.3-1-.4-1.6-.4-.3,0-.6-.3-.9.3,0,0-.1,0-.2,0-.8-.9-1.7.2-2.6,0-.9-.2-1.8,0-2.7,0-.2,0-.5-.2-.7.3,0,.2-.3.2-.4,0-.3-.3-.5-.3-.7-.3-.2,0-.1,0-.2,0,0,0-.1,0-.2.1,0,0,0,0-.4.3-.3.2-.4.7,0,1.2.2.2,0,.6,0,.9,0,.2.2.5.2.8,0,.2-.3.4-.4.6,0,0,0,.1,0,.2.5,1.3-.6,2.3-.6,3.5,0,1.2-.3,2.4-.6,3.5-.2.6-.4,1.3-1.6,1.5-.5.1-1.1,0-1.4-.3-.2-.2-.4-.5-.4-.8,0-.4,0-.8-.1-1.2,0-.8-.5-1.6,0-2.3.1-.2-.1-.6.4-.7,0,0,.1-.1,0-.2-.6-1.2,0-2.2.2-3.2,0-.9-.4-1.9,0-2.7-.5-.6-.4-1.1,0-1.8.1-.2.3-.7.5-1,.2-.4.4-.7.7-1,.5-.6,1.2-1.1,1.9-1.4.4-.2.8-.3,1.1-.4.3,0,.6-.1.9-.2.6,0,1.1,0,1.5,0,1.9,0,3.7,0,5.6.1.3,0,.6-.3,1,0,.3.3.8,0,1.2.1.4,0,.8,0,1.1,0,1.4.8,2.9.5,4.3.7,1.4.2,2.9.4,4.3.5.9,0,1.8-.2,2.7,0,.4.1.8-.2,1.1.5,0,.2.5-.2.7-.2.6,0,1.2.2,1.8.3h.6c.3.2.6.2.8.3.6.2,1.1.4,1.5.8.2.2.5.4.7.7.5.7,1,1.5,1.1,2.5,0,.2,0,.6,0,.7v.4c0,.3,0,.5,0,.8,0,.7-.3,1.3-.4,2,0,.7.2,1.4,0,2.1-.5,1.2-.3,2.5-.4,3.7,0,1.2-.1,2.5,0,3.7,0,.7-.5,1.3-.5,2,0,.3-1.5.7-2,.6,0,0-.2,0-.2-.1-.5-.7-1.2-1.3-1.1-2.1,0-1.1,0-2.3,0-3.4Z"/>
  <path d="M386.1,408.5c-.3.2-.5.4-.7.7,0,.1-.4,0,0,.5.1.2-.4-.1-.5,0-.2.3-.5.4-.7.7-.2.3-.3.6-.5.9-.2.3-.6.2-.6.7,0,.4-.5.2-.6.4-.1.3-.3.5-.6.5-.3,0-.5,0-.6.2,0,.1,0,.4,0,.5-.1,0-.4,0,0,.5,0,0,0,0-.2,0-.4-.2-.5,0-.4.2.1.3,0,.3,0,.4-.2.2-.3.4-.6.5-.2,0-.5,0-.7.1-.2,0-.2.5-.5.4-.3,0-.5,0-.6.2,0,0-.4,0,0,.5,0,0,0,0,0,0-.8-.4-.3.6-.6.6-.4,0-.5.4-.7.6,0,0-.3,0,0,.4,0,.1,0,.2,0,.2-.6-.3-.5.1-.8.2-.3,0-.3.5-.8.3-.2,0-.4,0-.1.5.1.2-.1.1-.2.2,0,0,0,.3,0,.4,0,0-.3,0-.4-.1,0,0,0,0,0,0,.2.8-.7.4-.9.8-.2.4-.5.6-.9.8-.2.1-.5.1-1.4-.6-.4-.3-.8-.7-.9-1-.1-.2-.2-.4-.2-.5,0-.2,0-.3,0-.5,0-.3-.1-.9.3-.9.1,0,0-.3.4,0,0,0,.1,0,0,0-.3-.8.4-.7.6-1,.2-.2,0-.9.4-.9-.3-.6,0-.6.2-.6.9,0,1.1-.7,1.6-1,.5-.4.9-.8,1.4-1.2,0,0,0-.4.2-.3.3.1.2-.1.3-.2,0,0,0-.3.3-.2.8.2.9-.5,1.3-.8.4-.3.8-.6,1.1-1,.2-.3.1-.7.4-.8.1,0,0-.4.5,0,.1,0,0-.3,0-.4.1-.2.3-.3.4-.4.2-.2.5-.4.6-.6.1-.1,0-.4.2-.6,0-.2.2-.3.4-.4.2-.1.5,0,.7-.2.2-.1.2-.5.6-.4.7,0,.8-.4,1.1-.6.4-.2.7-.5.9-.9.1-.2.6,0,.8-.2,0,0,1.2.9,1.5,1.3,0,0,.1.2.1.2.1.5.5,1.2.3,1.3-.3.2-.6.5-.9.8Z" fill="#fff"/>
  <path d="M394.3,415.1c-.2.1-.4.3-.5.5,0,0-.3,0,0,.4.1.2-.3-.2-.4-.1-.1.2-.3.3-.5.5-.1.2-.1.5-.3.7-.1.2-.5.1-.4.5,0,.3-.4,0-.4.3,0,.2-.1.4-.4.3-.2,0-.4-.1-.5,0,0,.1.2.4,0,.4,0,0-.3,0,0,.4,0,0,0,0-.1,0-.3-.2-.4-.1-.3.1.1.2,0,.3,0,.3-.1.1-.2.3-.4.4-.1,0-.4,0-.5,0-.1,0,0,.4-.4.2-.3-.1-.4,0-.5,0,0,0-.3,0,0,.4,0,0,0,0,0,0-.7-.4-.1.5-.4.5-.3,0-.4.3-.5.4,0,0-.2,0,0,.3.1.1,0,.2,0,.1-.6-.3-.4,0-.6.1-.2,0-.1.4-.6.2-.2,0-.4,0,0,.4.2.2,0,0,0,.2,0,0,.2.3.1.3,0,0-.2,0-.3-.1,0,0,0,0,0,0,.3.7-.5.2-.6.6,0,.3-.3.5-.6.6-.1,0-.4,0-1.3-.6-.4-.3-.8-.7-1-.9-.1-.2-.3-.4-.3-.5,0-.1,0-.3,0-.4,0-.3-.3-.8,0-.7.1,0,0-.2.3,0,0,0,.1,0,0,0-.4-.7.2-.6.3-.8.1-.2-.2-.8.2-.8-.4-.5-.2-.6,0-.5.8.1.8-.5,1.2-.7.4-.3.6-.6,1-.9,0,0-.1-.4.1-.2.2.1.2,0,.2-.2,0,0,0-.2.2-.2.7.2.7-.3,1-.5.3-.2.6-.4.8-.7,0-.2,0-.6.3-.7.1,0,0-.3.4,0,.1.1-.1-.3,0-.3,0-.1.2-.2.3-.3.2-.1.3-.2.5-.4,0-.1,0-.4,0-.5,0-.1.2-.2.3-.3.2,0,.4,0,.6,0,.2,0,.1-.4.4-.3.6.2.6-.2.9-.3.3-.1.5-.3.7-.6,0-.2.5.1.7,0,0,0,1.1,1,1.3,1.5,0,0,.1.2.1.2.2.5.5,1.1.3,1.2-.3.1-.4.3-.6.5Z" fill="#fff"/>
  <path d="M372.4,409.1s0,0,0,0c0,0,0-.2,0,.3,0,.3,0-.4,0-.3,0,0,0,0,0,0,0,0,0,.3,0,.4,0,0,0-.2,0,0,0,.3,0-.2,0,0,0,.1,0,.2,0,0,0-.2,0-.4,0-.3,0,0,0,.4,0,.4,0,0,0-.3,0,.3,0,0,0,0,0-.1,0-.4,0-.4,0,0,0,.3,0,.2,0,.3,0,0,0,0,0,0,0,0,0-.3,0-.3,0,0,0,.2,0,0,0-.3,0-.3,0-.3,0,0,0-.3,0,.3,0,0,0,0,0,0,0-.8,0,.3,0,0,0-.2,0,0,0,0,0,0,0-.2,0,.3,0,.2,0,.2,0,0,0-.6,0-.2,0-.3,0-.1,0,.2,0-.3,0-.2,0-.3,0,.3,0,.3,0,0,0,0,0,0,0,.3,0,.3,0,0,0-.2,0-.3,0,0,0,0,0,0,0,.7,0-.2-.1,0,0,.2,0,.1-.1,0,0,0,0-.2-.2-1.4,0-.5-.1-1.1-.1-1.4,0-.2,0-.5,0-.5,0,0,0-.2,0-.3,0-.2,0-.7,0-.4,0,0,0-.2,0,.3,0,0,0,.1,0,0,0-.8,0-.3,0-.3,0,0,0-.7,0-.4,0-.6,0-.5,0-.3.1.7.1.2.2.3,0,0,.1,0,.2,0,0,0,0-.4,0,0,0,.3,0,0,0,0,0,0,0-.1,0,0,0,.7.1.3.2.3,0,0,0,.1.1,0,0-.1,0-.4,0-.3,0,0,0-.3,0,.3,0,.2,0-.3,0-.3,0,0,0,0,0,0,0,0,0,0,0,0,0,0,0-.3,0-.3,0,0,0,0,0,0,0,0,0,.3,0,.3,0,0,0-.2,0,0,0,.5,0,.2.1.3,0,0,0,0,.1,0,0,0,0,.4,0,.4,0,0,.2,1.5.2,2,0,0,0,.2,0,.2,0,.5,0,1.2,0,1.1,0,0,0,0,0,0Z" fill="#fff"/>
  <path d="M389.6,200.2c-.3.3-.7.7-1,1-.1.1-.4,0-.2.6.1.3-.5,0-.6,0-.3.4-.7.6-.9,1-.3.4-.4.8-.7,1.2-.3.4-.8.5-.9,1,0,.5-.6.3-.8.7s-.4.7-.8.8c-.3,0-.6,0-.8.4,0,.2,0,.5,0,.6-.1.1-.5,0-.1.6,0,0-.1,0-.2,0-.4-.2-.6,0-.5.3,0,.3,0,.4-.1.5-.2.3-.5.6-.8.8-.2.2-.6.2-.8.3-.3.2-.3.6-.7.6-.4,0-.6.2-.8.4-.1.1-.4,0,0,.6,0,0,0,0,0,0-.9-.3-.4.8-.9.9-.5.2-.7.6-1,.9,0,0-.3,0,0,.5,0,.1,0,.2-.1.2-.7-.2-.7.3-1,.5-.4.2-.4.7-1.1.6-.3,0-.5,0-.2.6.1.3-.2.2-.3.3,0,.1,0,.4,0,.5,0,0-.3,0-.5,0,0,0,0,0,0,0,0,.9-1,.6-1.3,1.2-.3.5-.8.9-1.2,1.2-.3.2-.6.3-1.6-.4-.4-.3-.8-.7-1-1,0-.2-.2-.5-.1-.6,0-.2,0-.4.2-.6.1-.4,0-1,.5-1.1.1,0,0-.3.5,0,0,0,.1,0,.1,0-.2-.9.6-.9.9-1.3.3-.3.1-1.1.7-1.2-.3-.6,0-.7.3-.8,1.1-.1,1.4-1.1,2.1-1.6.7-.6,1.3-1.3,1.9-1.9.1-.1,0-.4.3-.4.3,0,.3-.2.5-.4.1-.1.2-.4.4-.4,1,0,1.2-.8,1.7-1.2.5-.4,1.1-.9,1.5-1.5.2-.4.3-.9.7-1.1.2,0,0-.5.6-.2.2,0,0-.4,0-.5.2-.2.4-.4.6-.6.3-.3.6-.5.9-.9.1-.2.2-.5.3-.8.1-.2.3-.4.6-.5.3-.2.7-.3.9-.4.3-.2.3-.6.8-.7.8,0,1-.7,1.5-1.1.5-.4.9-.8,1.3-1.3.2-.3.8-.1,1-.4.1-.1,1.3.8,1.6,1.2,0,0,.1.2.1.2,0,.6.4,1.3,0,1.5-.4.3-.8.8-1.2,1.1Z" fill="#00b4e9"/>
  <path d="M400.2,226.1c-.6.6-1.3,1.2-1.9,1.9-.2.2-.6.3-.5.9,0,.3-.6,0-.8.3-.5.6-1.2,1.2-1.7,1.8-.5.6-.9,1.3-1.5,2-.5.6-1.3,1-1.6,1.8-.3.7-1.1.7-1.4,1.3-.4.6-.8,1.1-1.5,1.4-.5.2-1,.4-1.2.8-.2.3-.1.7-.4.9-.2.2-.7.3-.4.9,0,0-.2,0-.3,0-.5,0-.8.2-.8.6,0,.4-.2.5-.4.7-.5.5-.9,1-1.4,1.4-.4.3-.9.5-1.3.8-.4.3-.6.9-1.2,1.1-.6.1-.9.5-1.2.8-.2.2-.6.2-.3.8,0,0,0,.1-.1.1-1.1,0-.9,1.3-1.6,1.7-.7.4-1.2,1.1-1.8,1.7-.2.2-.4.2-.3.7,0,.2,0,.3-.2.3-.9,0-1.1.7-1.6,1.1-.6.4-.9,1.1-1.8,1.3-.4,0-.7.3-.6,1,0,.3-.4.4-.5.6-.1.2,0,.5-.2.7-.1.1-.4,0-.6.1,0,0-.1,0-.1.1-.3,1.2-1.6,1.3-2.3,2.2-.6.9-1.4,1.6-2.3,2.3-.5.4-1,.7-2.1.1-.5-.2-.9-.6-.9-1,0-.3,0-.6,0-.8.2-.3.3-.6.5-.9.3-.6.4-1.5,1.1-1.8.2,0,.2-.5.7-.3,0,0,.2,0,.2,0,.1-1.2,1.2-1.5,1.8-2.3.5-.6.6-1.6,1.4-2-.1-.8.3-1.1.8-1.2,1.6-.7,2.4-2.1,3.6-3.2,1.2-1.1,2.3-2.3,3.5-3.4.2-.2.1-.6.5-.6.4,0,.5-.5.8-.7.2-.2.4-.6.7-.7,1.4-.4,2-1.6,3-2.5,1-.9,1.9-1.7,2.7-2.7.5-.6.8-1.4,1.4-1.9.3-.2.3-.7.9-.5.2,0,0-.5.2-.7.3-.4.7-.8,1.1-1.1.5-.5,1.1-1,1.6-1.6.3-.3.4-.8.7-1.2.3-.4.6-.7,1-1,.5-.4,1-.6,1.5-1,.5-.4.7-1,1.4-1.3,1.1-.4,1.7-1.4,2.6-2.1.8-.7,1.6-1.5,2.3-2.3.4-.5,1.1-.5,1.6-1,.2-.2,1.5.6,1.8,1,0,0,0,.2,0,.2,0,.8,0,1.7-.5,2.1-.8.7-1.4,1.4-2.2,2.1Z" fill="#00b4e9"/>
  <path d="M383.2,269.3c0,0,0,.1,0,.2,0,0-.2,0,.3,0,.3,0-.4,0-.3,0,0,0,0,.1,0,.2,0,0,.3.1.3.2,0,0-.2.1,0,.2.3,0-.2,0-.1.1.1,0,.2,0,0,.1-.2,0-.4,0-.3,0,0,0,.4,0,.4,0,0,0-.3,0,.3,0,0,0,0,0-.1,0-.4,0-.4,0-.1,0,.3,0,.2,0,.3,0,0,0,0,0,0,.1,0,0-.3,0-.3.1,0,0,.2,0,0,.1-.3,0-.3,0-.3,0,0,0-.3,0,.3,0,0,0,0,0,0,0-.8,0,.3.1,0,.2-.2,0,0,.1,0,.2,0,0-.2,0,.3,0,.2,0,.2,0,0,0-.6,0-.2,0-.4.1-.1,0,.2,0-.3.1-.2,0-.3,0,.3,0,.3,0,0,0,0,0,0,0,.3,0,.3,0,0,0-.2,0-.3,0,0,0,0,0,0,0,.7,0-.2.1,0,.2.2,0,.1.1,0,.2,0,0-.2,0-1.4.1-.5,0-1.1,0-1.4,0-.2,0-.5,0-.5,0,0,0-.2,0-.3,0-.2,0-.7,0-.4-.1,0,0-.2,0,.3,0,0,0,.1,0,0,0-.8,0-.3-.1-.3-.2,0,0-.7-.1-.4-.2-.6,0-.5,0-.3,0,.7-.1.2-.2.3-.3,0-.1,0-.2,0-.3,0,0-.4,0,0,0,.3,0,0,0,0,0s-.1,0,0,0c.7,0,.3-.2.3-.3,0,0,.1-.2,0-.3,0,0-.4-.1-.3-.2,0,0-.3,0,.3,0,.2,0-.3,0-.3,0,0,0,0,0,0-.1s0,0,0-.1c0,0-.3,0-.3,0,0,0,0,0,0,0,0,0,.3,0,.3-.1,0,0-.2,0,0-.1.5,0,.3-.1.3-.2,0,0,.1-.1,0-.2,0,0,.4,0,.4-.1,0,0,1.5,0,2,0,0,0,.2,0,.2,0,.5,0,1.2,0,1.1.1,0,0,0,.1,0,.2Z" fill="#00b4e9"/>
  <path d="M237.6,308.2c-3.3-2.1-6.2-4.9-8.7-7.9-.4-.6-.9-1.2-1.3-1.8-.4-.6-.8-1.2-1.5-1.8-.7-.5-.7-2.1-1.3-3.3-1.5-3.4-2.2-7.1-2.3-10.8-.1-3.6.3-7.2,1.4-10.7,1.1-3.4,3.1-6.6,4.8-9.5,1.6-2.6,3.8-4.3,5.9-6.1,2.3-2,4.9-3.8,7.8-4.7,1-.4,2.1-.6,3.1-.9,1-.3,2.2-.5,3.4-.6.8,0,1.7,0,2.7.2,1,.3,2.1,1,2.6,2.1.5,1,.6,2,.7,2.8,0,.8.2,1.4.5,2,0,0,0,.7-.1,1-.4,1.4-.4,3.2-.3,4.4.2,1.2,0,2.3-.2,3.4-.2,1.5-.6,3-1.1,4.5-.5,1.5-1.1,3-1.9,4.4-1.2,2.1-2.9,3.9-4.8,5.4-1.9,1.6-4.3,3.2-6.6,3.6-2.3.4-4.4.7-6.6.7-.6,0-1.3,0-1.9-.2-.6,0-1.3,0-1.8.2-.1,0-.6,0-.8-.1-1.7-.8-3.4-1.2-5-1.8-1.7-.5-3.4-1.3-4.8-2.5-1.5-1.2-2.8-2.6-4.1-4-1.2-1.4-2.3-3-3.3-4.6-.5-.9-.8-1.9-1.6-2.6-.3-.2-.7-1.2-.8-1.7-.4-2.8-1.5-5.5-1.8-8.3-.3-3.1-.7-6.4,0-9.5.3-1.3.7-3.1.3-4.8-.1-.8.4-2.2.7-3.4.2-.9.2-1.9.4-2.8.2-.8.7-1.4,1.1-2.2.1-.2.2-.5.2-.7.9-4.5,3.7-8.3,5.8-12.3,2.1-4,4.7-7.8,7.4-11.4,1.5-2,3.2-3.9,5.2-4.5.9-.3,1.3,0,.9,1.1-.3.8-.6,1.6-1.1,2.3-.8,1.2-1.5,2.4-2.2,3.5-1.5,2.4-2.6,5-4.4,7.3-.5.7-.9,1.8-1.7,2.1-.1,0-.3.4-.4.5-1.3,3.7-3.5,7-4.9,10.7-1.2,3.1-1.5,6.3-2.4,9.4.1.9.1,1.9,0,2.9-.1,1-.3,1.9-.4,2.8-1.2,6.3.3,12.9,3.1,18.4,1.4,2.8,3.4,5.3,5.7,7.3,1.2,1,2.5,1.8,3.8,2.5,1.4.6,2.8,1.2,4.3,1.5,1,.2,2,0,3.1.4.6.2,1.2.2,1.9.2.7,0,1.4-.1,2-.3.6-.1,1.2-.2,1.8-.4.3,0,.6-.2.9-.2.3,0,.6-.2.8-.2,2.3-.5,4.4-1.8,5.9-3.7,1.6-1.8,2.7-4.1,3.5-6.4.8-2.3,1.3-4.8,1.5-7.4.1-1.3.1-2.6,0-3.8,0-1.3,0-2.7-.4-3.3-.2-.4-.3-.5-.6-.5-.3,0-.8,0-1.4,0-.6,0-1.2.3-2,.6-.7.3-1.4.4-2.1.7-.6.2-1.2.6-1.8.8-.6.3-1.2.6-1.9.6-.2,0-.5.3-.9.6-.3.3-.7.7-1,1-1.7,1.2-3.2,2.6-4.7,4.1-1.9,2.1-3.6,4.5-4.9,7.2-.7,1.6-1.1,3.3-1.6,5-.4,1.8-.8,3.5-1,5.3l-.2,1.7v1.7s0,.9,0,.9v.9c0,0,.2,1.7.2,1.7.5,2.3,1.4,4.6,2.3,6.8.2.5.4,1,.6,1.5l.8,1.4c.6.9,1.2,1.8,1.9,2.6.7.8,1.4,1.7,2.2,2.4l1.2,1.1,1.3,1c.8.7,1.8,1.3,2.6,1.9.9.6,1.9,1.1,2.8,1.6,2,.9,4,1.7,6.1,2.1,2.4.5,4.5,1.2,7,1.1,1.1,0,2.8,1.3,2.4,1.8,0,.1-.3.2-.5.3-1.3.3-2.5.7-3.8.9-1.3.2-2.7.2-4.2,0-4.4-.8-8.6-2.5-12.4-4.9Z" fill="#00b4e9"/>
  <g>
    <g>
      <path d="M298.5,224.9c.3-.2.7-.4,1-.7.1-.1.4,0,.2-.5,0-.3.4.2.5,0,.3-.3.6-.4.9-.7.3-.3.4-.7.7-1,.2-.3.7-.3.8-.8,0-.4.6-.2.7-.5.2-.3.4-.6.7-.6.3,0,.6,0,.7-.2,0-.1,0-.5,0-.5.1,0,.4,0,.1-.5,0,0,0,0,.2,0,.4.2.5,0,.4-.2,0-.3,0-.3.1-.4.2-.2.4-.4.7-.6.2-.1.5,0,.8-.2.2-.1.2-.5.6-.4.4,0,.5,0,.7-.2,0,0,.4,0,0-.5,0,0,0,0,0,0,.8.4.4-.7.8-.7.4,0,.6-.5.9-.7,0,0,.3,0,0-.4,0-.1,0-.2.1-.2.6.3.6-.2.9-.3.3-.1.4-.6,1-.4.2,0,.5,0,.2-.5-.1-.3.2-.2.2-.3,0-.1,0-.4,0-.4,0,0,.3,0,.4,0,0,0,0,0,0,0,0-.8.9-.5,1.1-.9.3-.5.7-.7,1.1-1,.2-.1.6-.2,1.5.6.4.3.8.8.9,1.1,0,.2.2.5.1.6,0,.2,0,.4-.1.5-.1.4,0,1-.4,1-.1,0,0,.3-.4,0,0,0-.1,0-.1,0,.2.9-.5.8-.8,1.1-.3.3-.1,1-.6,1,.3.6,0,.7-.3.7-1,0-1.3.8-1.9,1.2-.6.4-1.2,1-1.8,1.4-.1,0,0,.4-.3.3-.3-.1-.3.2-.4.3-.1,0-.2.3-.4.3-.9-.1-1.1.6-1.6.9-.5.3-1,.7-1.4,1.2-.2.3-.3.8-.6.9-.2,0,0,.4-.6,0-.1-.1,0,.3,0,.4-.2.2-.4.3-.6.5-.3.2-.6.4-.8.7-.1.2-.2.5-.3.7-.1.2-.3.3-.5.4-.3.1-.6.1-.9.2-.3.1-.4.5-.7.5-.7,0-1,.4-1.5.7-.5.3-.9.5-1.3.9-.2.2-.7,0-1,.1-.1,0-1-1.1-1.3-1.5,0,0,0-.2,0-.2,0-.5-.2-1.3,0-1.4.4-.2.7-.5,1.1-.7Z"/>
      <path d="M335.4,197.8c1.3-.1,2.6,0,3.8.2.4,0,.8.4,1.4,0,.3-.2.5.5.9.6,1,.2,2,.5,3,.8,1,.2,2,.3,3,.6,1,.3,1.9.9,2.9.9.9,0,1.4.8,2.2,1,.8.2,1.7.5,2.3,1.1.5.4.9.9,1.5,1,.4.1.8,0,1.2.2.3.2.6.6,1.2.2,0,0,.1.1.2.3.2.6.6.8,1.1.7.4,0,.7.1.9.3.8.4,1.5.8,2.2,1.3.5.4,1,1,1.5,1.4.5.5,1.3.7,1.7,1.4.3.7.8,1.1,1.2,1.7.3.3.3.8,1,.8,0,0,.1.1.1.2,0,.7.3,1.2.6,1.7.4.5.8,1,.8,1.6,0,1.3.3,2.4.3,3.6,0,.3-.2.6.2.9.2.1.1.4,0,.6-.7.8-.5,1.7-.7,2.5-.3.9-.2,1.8-1,2.6-.3.3-.6.8-.1,1.4.2.3-.2.6-.2,1,0,.3.1.6,0,.9,0,.2-.4.4-.6.5,0,0,0,.1,0,.2.2,1.5-1.1,2.4-1.5,3.7-.3,1.3-1,2.5-1.6,3.7-.4.6-.8,1.2-2.1,1.2-.6,0-1.1-.3-1.2-.7-.1-.3-.2-.6-.2-.9,0-.4.1-.8.2-1.2.2-.8,0-1.8.6-2.4.2-.2,0-.6.6-.6,0,0,.2,0,.1-.1-.3-1.3.6-2.2,1-3.3.3-.9,0-2,.5-2.8-.4-.7-.2-1.2.1-1.7,1.1-1.6,1.1-3.6,1.3-5.2.2-1.7-.2-3.3-.9-4.5-.1-.2-.5-.2-.5-.6,0-.4-.4-.6-.6-.8-.2-.2-.6-.4-.7-.7-.6-1.4-2.1-1.9-3.4-2.8-1.3-.8-2.6-1.7-4-2.2-.9-.3-1.8-.4-2.6-.9-.3-.2-.9,0-1-.8,0-.2-.6,0-.8,0-.6-.2-1.2-.5-1.8-.7-.8-.3-1.6-.7-2.5-.9-.5-.2-1.1,0-1.6-.2-.5-.1-1.1-.3-1.6-.5-.7-.3-1.3-.7-1.9-.9-.7-.3-1.5-.2-2.1-.6-1.1-.8-2.4-.8-3.5-.8-1.1,0-2.1.1-3.1.8-.6.3-1.4.2-2,.6-.3.2-1.5-.8-1.6-1.3,0,0,0-.2,0-.3.4-.8.6-1.8,1.5-2.2,1.2-.6,2.7-1.2,4.2-1.3Z"/>
      <path d="M354.5,256.6c-.2.4-.5.8-.6,1.2,0,.2-.4.2,0,.6.2.2-.4,0-.5.2-.1.4-.4.7-.6,1.1-.1.4-.2.9-.3,1.2-.1.4-.6.6-.5,1.1,0,.4-.5.5-.6.8,0,.4-.2.7-.5.9-.3.1-.6.2-.6.5,0,.2.2.4,0,.6,0,.1-.4.1,0,.6,0,0,0,0-.2,0-.4,0-.5.1-.3.4.2.3,0,.3,0,.5-.1.3-.3.6-.5.9-.2.2-.5.3-.7.5-.2.2,0,.6-.5.7-.4,0-.5.3-.6.5,0,.1-.4.1.1.5,0,0,0,0,0,0-.9,0-.2.8-.5,1.1-.4.3-.5.7-.6,1.1,0,.1-.3.1,0,.4.1.1,0,.2,0,.2-.7,0-.5.4-.8.7-.3.3-.2.7-.8.8-.3,0-.5.2,0,.6.2.2-.1.2-.1.4,0,.1.2.3.1.4,0,0-.3,0-.4,0,0,0,0,0,0,0,.3.8-.7.8-.8,1.4,0,.6-.4,1-.7,1.4-.2.2-.5.4-1.6,0-.5-.1-1-.4-1.2-.7-.2-.2-.3-.4-.3-.5,0-.2,0-.4,0-.6,0-.4-.3-1,0-1.1.1,0,0-.3.4-.2,0,0,.1,0,.1,0-.5-.8.2-1,.4-1.5.2-.4-.2-1,.2-1.3-.4-.5-.2-.7,0-.8,1-.4,1-1.3,1.5-2,.5-.7.8-1.5,1.2-2.2,0-.1-.2-.4.1-.4.3,0,.2-.3.3-.4,0-.1,0-.4.3-.4.9-.3.9-1,1.2-1.6.4-.5.8-1.1.9-1.7.1-.4,0-.9.3-1.2.1-.1,0-.4.5-.3.2,0-.1-.3-.1-.4,0-.3.3-.5.4-.7.2-.3.4-.6.5-1,0-.2,0-.5,0-.8,0-.2.2-.5.4-.6.2-.2.5-.4.8-.6.2-.2.1-.7.5-.8.7-.2.8-.9,1.1-1.3.3-.5.6-.9.8-1.5,0-.3.7-.3.8-.6,0-.1,1.5.4,1.9.7,0,0,.2.1.2.2.3.5.8,1.1.5,1.4-.3.4-.5.9-.8,1.3Z"/>
      <path d="M310.7,239.1c-.2-.2-.4-.5-.7-.6-.1,0,0-.3-.5,0-.2.2.1-.4,0-.4-.3-.1-.4-.4-.7-.5-.3-.1-.6-.2-.9-.3-.3-.1-.3-.5-.7-.5-.4,0-.2-.5-.4-.5-.3,0-.5-.1-.5-.5,0-.2,0-.5-.2-.5-.1,0-.4.2-.5,0,0,0,0-.4-.5,0,0,0,0,0,0-.2.2-.4,0-.5-.2-.3-.2.2-.3,0-.4,0-.2-.1-.4-.2-.6-.4-.1-.1-.1-.4-.2-.6-.1-.2-.4,0-.4-.4,0-.3,0-.4-.2-.5,0,0,0-.4-.4.1,0,0,0,0,0,0,.3-.8-.6-.1-.7-.4-.1-.3-.4-.4-.7-.5,0,0,0-.2-.3.1-.1.1-.2,0-.2,0,.2-.6-.2-.5-.3-.7-.1-.2-.5-.1-.4-.7,0-.2,0-.4-.5,0-.2.2-.1,0-.3,0,0,0-.3.2-.4.2,0,0,0-.3,0-.4,0,0,0,0,0,0-.7.4-.5-.6-.9-.6-.4,0-.7-.3-1-.6-.1-.1-.2-.4.2-1.5.2-.5.5-1,.7-1.2.2-.2.4-.3.5-.3.2,0,.3,0,.5,0,.3,0,.8-.4.9,0,0,.1.3,0,0,.4,0,0,0,.1,0,0,.7-.5.7.1,1.1.3.3.1.9-.3,1,.1.5-.4.6-.2.6,0,.1.9.9.8,1.3,1.2.4.4,1,.7,1.4,1.1,0,0,.4-.2.3.1,0,.3.2.2.3.3,0,0,.3,0,.3.2,0,.8.6.8.9,1.1.3.3.7.7,1.1.8.3,0,.7,0,.9.3,0,.1.4,0,0,.5,0,.2.3-.1.4,0,.2,0,.3.2.5.4.2.2.4.4.6.5.1,0,.4,0,.6,0,.2,0,.3.2.4.3.1.2.1.5.3.7.1.2.5.1.5.5,0,.6.4.7.7,1,.3.3.5.6.9.8.2.1,0,.6.2.8,0,0-.8,1.2-1.2,1.6,0,0-.2.1-.2.1-.5.2-1.1.6-1.3.4-.2-.3-.5-.5-.8-.7Z"/>
      <path d="M322.4,247.8c-.6.6-1.2,1.1-1.8,1.7-.2.2-.6.1-.6.8,0,.3-.6,0-.8,0-.6.4-1.3.7-2,1-.6.3-1.3.8-2,1-.7.2-1.5,0-2.2.5-.6.3-1.2-.1-1.8,0-.6.1-1.3.2-1.9-.2-.4-.2-.8-.5-1.3-.5-.3,0-.6.3-.9.1-.3,0-.5-.5-.9,0,0,0-.1-.1-.2-.2-.2-.5-.5-.6-.8-.4-.3.1-.5,0-.7,0-.6-.2-1.2-.5-1.7-.9-.4-.3-.6-.8-1-1.1-.2-.2-.3-.2-.7-.5-.3-.2-.6-.5-.7-.9-.2-.6-.6-1.1-1-1.6-.2-.3,0-.6-1-.8,0,0-.2-.1-.1-.2.2-.4,0-.8-.5-1.2-.4-.4-1-.9-1.1-1.4-.2-.4-.2-.6-.3-.9.7-.1,1.4-.3,2.2-.4.4,0,.9,0,.8-.4,0-.2.4-.2.7-.2.8.2,1.3.1,1.7,0,.5-.1.9-.3,1.3-.4.5,0,.9-.5,1.5-.3.3,0,.6,0,.6-.6,0-.3.3-.2.5-.3.1-.1.1-.4.2-.5.1,0,.3,0,.5.1,0,0,0,0,.1,0,.3-.9,1.3-.6,1.8-1.2.5-.6,1.1-1,1.6-1.5.3-.3.7-.4,1.8,0,.5.2.9.6,1,.9,0,.3.1.5,0,.7-.1.3-.2.6-.3.8-.3.5-.3,1.3-1,1.5-.2,0-.2.4-.6.1,0,0-.1,0-.1,0-.1,1.1-1.1,1.2-1.8,1.7-.5.4-.8,1.3-1.6,1.4,0,.8-.6.9-1,.8-.4,0-.8,0-1.1.1h-.5c0,.1-.2.2-.2.2,0,0,0,0,0,0-.1,0-.1.2-.3.1-.1,0-.2,0-.3,0,0,0,0,0,0,0h0c0,.2,0,.2.1.3,0,0,.5,0,.2,0-.3,0,0,0,0,.1,0,0,.2,0,0,.1,0,0,0,.1,0,.2,0,0,0,0,0,0,0,0,0,0,0,.1.1.2.3.3.5.5.4.2.8.4,1.1.7.7.5,1.5.9,2.4,1,.5,0,1.1-.2,1.6,0,.2,0,.5-.2.6.4,0,.2.3-.3.4-.3.3,0,.7,0,1.1,0,.5,0,1,0,1.5-.2.3,0,.5-.4.8-.5.3-.1.6-.2.9-.3.4,0,.8,0,1.2-.1.4-.1.6-.6,1.1-.5.9,0,1.4-.6,1.9-1.1.5-.4,1-1,1.2-1.6,0-.3.7-.4.7-.8,0-.1,1.5-.2,2,0,0,0,.2,0,.2.1.4.6.9,1.4.6,2-.5.9-1,1.8-1.7,2.5Z"/>
      <path d="M303.6,254.2c.5,0,.9.2,1.4.2.2,0,.3.3.6-.2.1-.3.2.4.4.4.4,0,.8.1,1.3.1.4,0,.8-.2,1.2-.3.4,0,.8.3,1.1,0,.3-.3.6.2.9,0,.3-.1.6-.3.9,0,.2.1.5.3.7.2.1,0,.2-.4.3-.5.1,0,.4.2.3-.4,0,0,0,0,.1.1.3.3.4.2.4,0,0-.3,0-.3.2-.3.2-.2.4-.3.7-.4.2,0,.5,0,.7,0,.2,0,.2-.4.6-.4.4,0,.5,0,.7-.2,0,0,.4,0,0-.5,0,0,0,0,0,0,.9.3.2-.7.6-.9.4-.2.5-.6.7-1,0,0,.3,0,0-.4-.1-.1,0-.2,0-.2.7,0,.5-.4.7-.6.3-.3.2-.7.8-.8.3,0,.4-.2,0-.6-.2-.2.1-.2,0-.4,0-.1-.2-.3-.2-.4,0,0,.3,0,.4-.1,0,0,0,0,0,0-.4-.7.6-.9.6-1.5,0-.6.3-1.1.5-1.6.1-.3.4-.5,1.6-.4.5,0,1,.2,1.3.5.2.2.4.3.4.5,0,.2.1.4.1.6,0,.4.5.9,0,1.2-.1,0,.1.3-.4.2,0,0-.1,0,0,0,.6.8-.1,1.1-.2,1.6-.1.4.3,1.1-.1,1.4.5.5.2.7,0,.9-1,.6-1,1.6-1.6,2.4-.6.8-1.1,1.7-1.8,2.4-.1.1,0,.5-.3.4-.3,0-.3.3-.5.5-.2.1-.2.4-.5.4-.5,0-.9.2-1.2.5-.4.2-.6.6-1,.7-.8.3-1.6.6-2.3.9-.4.2-.9.7-1.4.6-.2,0-.4.3-.7-.2,0-.2-.2.3-.3.4-.3,0-.7,0-1,0-.4,0-.9,0-1.3,0-.3,0-.5.3-.8.3-.3,0-.6,0-.8,0-.4,0-.7-.4-1-.4-.4,0-.8.1-1.1-.2-.5-.6-1.2-.4-1.8-.6-.6-.2-1.2-.3-1.8-.3-.4,0-.5-.6-.9-.6-.2,0,0-1.5.1-2,0,0,0-.2.1-.2.4-.4.9-1,1.2-.9.5.2,1,.2,1.5.3Z"/>
      <path d="M307.4,269c-.2-.2-.4-.5-.6-.7,0,0,0-.3-.4,0-.3.1.2-.4.1-.4-.2-.2-.3-.4-.5-.6-.2-.2-.5-.3-.7-.5-.2-.2,0-.5-.4-.6-.3,0,0-.4-.2-.5-.2-.1-.4-.3-.2-.5,0-.2.2-.4,0-.5,0,0-.4,0-.4,0,0,0,.2-.3-.4,0,0,0,0,0,.1-.1.3-.3.3-.3,0-.3-.3,0-.3,0-.3,0-.1-.2-.2-.3-.2-.5,0-.1.1-.4.1-.5,0-.2-.3-.2-.1-.4.2-.3.1-.4,0-.5,0,0,.2-.3-.4,0,0,0,0,0,0,0,.7-.6-.4-.3-.3-.6,0-.3-.1-.4-.3-.6,0,0,.1-.2-.3,0-.2,0-.2,0-.1,0,.5-.4,0-.4,0-.6,0-.2-.3-.3,0-.7.1-.2.2-.3-.4-.2-.3,0,0-.1-.1-.2,0,0-.3,0-.4,0,0,0,.2-.2.2-.3,0,0,0,0,0,0-.7,0,0-.6-.3-.8-.3-.2-.3-.5-.4-.8,0-.2,0-.4,1.1-1,.4-.3.9-.5,1.3-.6.2,0,.5-.1.5,0,.1,0,.3,0,.4.1.3,0,.8,0,.6.3,0,0,.2,0-.2.3,0,0,0,0,0,0,.8-.1.5.4.6.6.1.2.8,0,.7.4.6-.2.6,0,.5.2-.4.7.2.9.3,1.3.1.4.4.8.5,1.2,0,0,.4,0,.2.2-.2.2,0,.2,0,.3,0,0,.2.1,0,.2-.4.6,0,.7.2,1.1,0,.3.2.7.5.9.2.1.6.2.6.4,0,.1.3,0-.2.4-.1,0,.3,0,.3,0,.1,0,.1.2.2.3,0,.2.1.3.3.5,0,0,.4,0,.5.1.1,0,.2.2.2.3,0,.2,0,.4,0,.5,0,.2.3.1.2.4-.3.5.1.5.2.7.1.2.2.4.5.5.1,0,0,.5,0,.6,0,0-.7,1.3-1.1,1.7,0,0-.1.1-.2.2-.4.3-1,.7-1.2.5-.2-.3-.5-.5-.7-.7Z"/>
      <path d="M323.1,234.2c0-.1,0-.2,0-.3,0,0,.3,0-.3-.2-.3,0,.4,0,.4,0,0-.1,0-.2,0-.3,0-.1-.2-.2-.3-.4,0-.1.3-.2,0-.3-.3-.1.2-.1.1-.2-.1-.1-.2-.2,0-.2.2,0,.4,0,.3-.1,0,0-.4-.1-.3-.2,0,0,.3,0-.3-.2,0,0,0,0,.1,0,.4,0,.4,0,.1-.1-.3,0-.2-.1-.2-.1,0,0,0-.2,0-.2,0,0,.3,0,.4-.1,0,0-.2-.2.1-.2.3,0,.3,0,.3-.1,0,0,.3,0-.3-.2,0,0,0,0,0,0,.8,0-.2-.2,0-.3.2,0,0-.2,0-.3,0,0,.2,0-.3-.1-.2,0-.2,0,0,0,.6,0,.3-.1.4-.2.1,0-.1-.2.4-.2.2,0,.3,0-.2-.2-.3,0,0,0,0-.1,0,0-.3-.1-.3-.1,0,0,.2,0,.3,0,0,0,0,0,0,0-.6-.2.3-.2.1-.4-.2-.2,0-.3,0-.4,0,0,.3-.1,1.4,0,.5,0,1.1.1,1.4.2.2,0,.5.1.5.2,0,0,.2.1.3.2.2.1.7.3.4.3,0,0,.2,0-.3,0,0,0-.1,0,0,0,.8.2.2.3.3.4,0,.1.6.3.4.4.6.2.5.2.3.2-.7,0-.3.4-.4.6-.1.2,0,.4-.1.6,0,0,.3.1,0,.1-.3,0,0,0,0,.1,0,0,.1.1,0,.1-.7,0-.3.3-.4.4,0,.1-.2.3,0,.5,0,.1.4.3.3.3,0,0,.3.1-.3,0-.2,0,.3.1.3.1,0,0,0,.1,0,.2,0,0,0,.2,0,.3,0,0,.3.2.3.2,0,0,0,.1,0,.2,0,0-.3,0-.4.2,0,0,.2.2-.1.2-.5,0-.3.2-.4.4,0,.1-.1.3,0,.4,0,0-.5,0-.5.1,0,0-.4,0-.8-.1-.4,0-.9-.2-1.2-.2,0,0-.2,0-.2,0-.4-.2-1.1-.4-1.1-.4,0-.1,0-.2,0-.4Z"/>
      <path d="M314.4,231.7c0-.1,0-.2,0-.3,0,0,.3,0-.3-.2-.3,0,.4,0,.4,0,0-.1,0-.2,0-.3,0-.1-.2-.2-.3-.4,0-.1.3-.2,0-.3-.3-.1.2-.1.1-.2-.1-.1-.2-.2,0-.2.2,0,.4,0,.3-.1,0,0-.4-.1-.3-.2,0,0,.3,0-.3-.2,0,0,0,0,.1,0,.4,0,.4,0,.1-.1-.3,0-.2-.1-.2-.1,0,0,0-.2,0-.2,0,0,.3,0,.4-.1,0,0-.2-.2.1-.2.3,0,.3,0,.3-.1,0,0,.3,0-.3-.2,0,0,0,0,0,0,.8,0-.2-.2,0-.3.2,0,0-.2,0-.3,0,0,.2,0-.3-.1-.2,0-.2,0,0,0,.6,0,.3-.1.4-.2.1,0-.1-.2.4-.2.2,0,.3,0-.2-.2-.3,0,0,0,0-.1,0,0-.3-.1-.3-.1,0,0,.2,0,.3,0,0,0,0,0,0,0-.6-.2.3-.2.1-.4-.2-.2,0-.3,0-.4,0,0,.3-.1,1.4,0,.5,0,1.1.1,1.4.2.2,0,.5.1.5.2,0,0,.2.1.3.2.2.1.7.3.4.3,0,0,.2,0-.3,0,0,0-.1,0,0,0,.8.2.2.3.3.4,0,.1.6.3.4.4.6.2.5.2.3.2-.7,0-.3.4-.4.6-.1.2,0,.4-.1.6,0,0,.3.1,0,.1-.3,0,0,0,0,.1,0,0,.1.1,0,.1-.7,0-.3.3-.4.4,0,.1-.2.3,0,.5,0,.1.4.3.3.3,0,0,.3.1-.3,0-.2,0,.3.1.3.1,0,0,0,.1,0,.2,0,0,0,.2,0,.3,0,0,.3.2.3.2,0,0,0,.1,0,.2,0,0-.3,0-.4.2,0,0,.2.2-.1.2-.5,0-.3.2-.4.4,0,.1-.1.3,0,.4,0,0-.5,0-.5.1,0,0-.4,0-.8-.1-.4,0-.9-.2-1.2-.2,0,0-.2,0-.2,0-.4-.2-1.1-.4-1.1-.4,0-.1,0-.2,0-.4Z"/>
    </g>
    <path d="M329.8,200.3c.7.7,1.4,1.5,2.1,2.2.3.3.4.7,1,.7.3,0,.1.7.4.9.7.6,1.3,1.4,2,2.1.7.6,1.5,1.2,2.1,1.8.7.6,1.1,1.6,1.9,2,.7.4.8,1.2,1.4,1.7.6.5,1.2,1.1,1.5,1.8.2.5.4,1.1.9,1.4.3.2.7.2,1,.5.2.3.3.8.9.6,0,0,0,.2,0,.3,0,.6.3.9.7.9.4,0,.6.3.8.5.5.6,1.1,1.2,1.5,1.8.3.5.5,1.1.9,1.6.3.5,1,.8,1.1,1.5.1.6.5,1,.8,1.5.2.2.2.7.9.5,0,0,.1,0,.1.2,0,1.2,1.3,1.2,1.8,2.1.4.9,1.2,1.5,1.8,2.3.2.2.2.5.7.4.2,0,.4.2.4.3,0,.9.7,1.3,1.1,1.9.4.7,1.2,1.2,1.3,2.2,0,.4.3.9,1,.8.3,0,.4.5.6.7.2.2.6.2.7.4.1.2,0,.5.1.7,0,0,0,.1.1.2,1.3.5,1.3,2,2.2,2.9.9.9,1.6,1.9,2.3,2.9.4.6.6,1.2,0,2.3-.3.5-.7.8-1.2.8-.3,0-.6,0-.8-.2-.3-.2-.6-.5-1-.7-.6-.5-1.5-.8-1.8-1.6,0-.3-.5-.3-.2-.8,0,0,0-.2,0-.2-1.3-.4-1.5-1.6-2.3-2.4-.6-.7-1.7-1-2-1.9-.8,0-1.1-.6-1.3-1.1-.6-1.9-2.1-3-3.2-4.5-1.1-1.5-2.4-2.9-3.5-4.4-.2-.2-.7-.2-.7-.7,0-.4-.5-.7-.7-1-.2-.3-.6-.5-.7-.9-.4-1.5-1.7-2.4-2.6-3.6-.9-1.2-1.8-2.3-2.9-3.3-.7-.6-1.5-1-2-1.8-.2-.3-.7-.4-.5-1.1,0-.2-.5-.2-.7-.3-.4-.4-.8-.9-1.2-1.4-.6-.6-1.1-1.3-1.7-1.9-.4-.4-.9-.6-1.3-.9-.4-.4-.8-.8-1.1-1.2-.4-.6-.7-1.2-1.1-1.8-.4-.6-1.1-.9-1.4-1.6-.5-1.3-1.5-2-2.4-3-.8-1-1.7-1.9-2.6-2.7-.5-.5-.6-1.3-1.1-1.8-.2-.2.5-1.6,1-1.8,0,0,.2,0,.3,0,.8.2,1.8.1,2.3.7.8.9,1.6,1.7,2.4,2.5Z"/>
    <path d="M316.4,204.5c.8.9,1.6,1.7,2.4,2.5.3.3.4.8,1.1.8.3,0,.2.7.4,1,.8.8,1.4,1.6,2.2,2.4.7.7,1.6,1.4,2.4,2.1.7.7,1.2,1.8,2.1,2.3.8.5.9,1.4,1.6,2,.7.6,1.3,1.2,1.7,2,.3.6.5,1.2,1,1.6.3.3.8.3,1,.7.2.3.3.8,1,.7,0,0,0,.2,0,.3,0,.6.3,1,.8,1.1.4,0,.6.4.8.6.6.7,1.2,1.3,1.7,2.1.4.5.6,1.2,1,1.8.4.6,1.1,1,1.3,1.7.2.7.6,1.2,1,1.7.2.3.3.8.9.6,0,0,.1,0,.1.2,0,1.3,1.5,1.4,1.9,2.4.5,1,1.3,1.7,2,2.6.2.2.2.6.8.5.2,0,.4.2.4.4,0,1,.8,1.5,1.2,2.2.5.8,1.3,1.4,1.5,2.4,0,.4.3.9,1.1,1,.3,0,.4.5.7.8.2.2.6.3.8.5.1.2.1.5.2.8,0,0,0,.1.1.2,1.4.7,1.4,2.3,2.4,3.3,1,1,1.7,2.2,2.5,3.4.4.7.7,1.4,0,2.5-.3.5-.7.8-1.2.7-.3,0-.7-.1-.9-.3-.3-.3-.7-.6-1-.9-.7-.6-1.6-1-1.9-1.9,0-.3-.5-.4-.3-.9,0,0,0-.2,0-.2-1.4-.5-1.7-1.8-2.5-2.8-.7-.8-1.8-1.3-2.2-2.3-.9,0-1.2-.7-1.4-1.3-.7-2.1-2.3-3.5-3.5-5.2-1.2-1.7-2.6-3.3-3.9-5-.2-.3-.7-.3-.7-.8,0-.5-.5-.7-.8-1.1-.3-.3-.6-.6-.8-1-.5-1.7-1.9-2.7-2.9-4.1-1-1.3-2-2.6-3.2-3.8-.7-.7-1.6-1.2-2.2-2.1-.2-.4-.8-.5-.6-1.2,0-.2-.6-.2-.8-.4-.5-.5-.9-1-1.4-1.6-.6-.7-1.2-1.5-1.9-2.2-.4-.4-1-.7-1.4-1.1-.4-.4-.9-.9-1.2-1.4-.5-.6-.8-1.3-1.3-2-.5-.6-1.3-1.1-1.6-1.8-.6-1.4-1.7-2.3-2.7-3.4-.9-1.1-1.9-2.2-2.9-3.1-.6-.5-.7-1.4-1.3-2-.3-.3.5-1.6.9-1.9,0,0,.2,0,.3,0,.9.2,1.9.3,2.5.9.9,1,1.8,1.9,2.7,2.9Z"/>
    <path d="M335,254.2c.6,0,1.2-.1,1.8-.3.2,0,.5,0,.6-.5,0-.3.5.2.7.1.5-.3,1.1-.4,1.6-.8.5-.3.8-.8,1.2-1.2.4-.4,1-.5,1-1.1,0-.5.6-.5.8-.9,0-.4.1-.8.5-1.1.2-.2.5-.5.5-.8,0-.2-.3-.4-.3-.6,0-.2.3-.4-.3-.5,0,0,0,0,.1-.1.4-.2.3-.5,0-.5-.3,0-.3-.2-.3-.3-.1-.3-.3-.5-.4-.8,0-.2,0-.5-.2-.7-.2-.2-.5-.1-.6-.5,0-.4-.4-.5-.7-.6-.2,0-.3-.4-.6.2,0,0,0,0-.1,0-.3-.9-1.1,0-1.6-.2-.5-.3-1.3-.2-1.7,0-.1,0-.3-.2-.3.3,0,.2,0,.2-.1,0-.2-.3-.3-.3-.4-.3,0,0,0,0,0,0,0,0,0,0,0,0-.1-.2-.3-.3-.3-.4-.3-.3-.4-.1,0-.1l-1.9-2.2c.1,0,.3,0,.5.2.2.1.5.2.3-.4-.1-.3.1,0,.1-.2,0,0-.2-.3-.2-.3,0,0,.2.1.4,0,0,0,0,0,0,0,0-.1-.1-.3-.1-.4,0,0,.1-.2.2-.3.2-.2.4-.6.4-.9-.1-.8,0-1.6.1-2.5,0-.5.3-1.1,1.5-1.3.5,0,1.1,0,1.4.2.2.2.4.4.5.5,0,.3.2.5.3.8.2.5.7,1.1.4,1.7,0,.2.2.4-.3.6,0,0-.1,0,0,.1.7.9,0,1.9-.3,2.9-.2.4-.2,1-.5,1.5-.1.3-.3.5-.5.7-.2.2-.4.4-.7.5-.2.9-1,1.1-1.6,1.1-.4,0-.7,0-1,0h-2.8c0,0,.2-2.2.2-2.2,0-.7.3-1.4.7-2,.4-.6.9-1,1.3-1.2.9-.5,1.7-.7,2.4-.8.4,0,1,0,1.4,0h1.1c.8.1,1.5.2,2.3.4.3,0,.6-.2.8.1.2.3.7.3,1,.4.3.1.7.2.9.5.4.6.9,1.1,1.5,1.6.5.5,1,1.1,1.3,1.7.6,1.3.7,2.6.9,3.9,0,.8.3,1.7,0,2.5-.1.3,0,.8-.6.9-.2,0,0,.5,0,.7-.2.5-.5,1-.9,1.5-.5.6-1,1.2-1.5,1.7-.3.3-.5.8-.8,1.1-.4.3-.8.6-1.2.8-.6.2-1.2.3-1.7.5-.6.2-1,.7-1.7.6-1.1-.2-2,.3-3.1.4-1.1,0-2.2,0-3.4-.1-.7,0-1.1-.8-1.7-1.1-.3-.2.2-1.6.6-1.9,0,0,.2-.1.2-.2.6-.2,1.2-.7,1.5-.6.5.2,1.2.2,1.8.2Z"/>
    <path d="M314.7,201.2c.2-.1.4-.2.5-.4,0,0,.3.1,0-.4-.1-.2.3.3.3.2.1-.2.3-.2.5-.3.1-.1.2-.4.3-.6.1-.1.4,0,.4-.4,0-.3.4,0,.4-.1,0-.2.2-.3.4-.2.2,0,.4.2.4,0,0,0,0-.4,0-.4,0,0,.3.2,0-.4,0,0,0,0,.1.1.3.3.3.3.3,0,0-.3,0-.3,0-.3.1-.1.3-.2.4-.2.1,0,.3.2.5.2.1,0,.1-.3.4,0,.2.2.3.2.4.1,0,0,.2.2,0-.4,0,0,0,0,0,0,.5.7.2-.4.5-.3.3.1.4-.1.5-.2,0,0,.2.1,0-.3,0-.2,0-.2,0,0,.4.5.4.1.5.2.2,0,.2-.3.6.1.1.2.3.2.1-.3,0-.3.1,0,.1-.1,0,0,0-.3,0-.4,0,0,.2.2.2.3,0,0,0,0,0,0,0-.7.5,0,.7-.2.2-.3.4-.3.7-.3.1,0,.3.1.8,1.2.2.5.4,1,.4,1.3,0,.2,0,.5,0,.5,0,.1,0,.3,0,.4,0,.2,0,.8-.3.6,0,0,0,.2-.2-.2,0,0,0,0,0,0,0,.8-.3.4-.5.5-.1.1,0,.8-.3.6.1.6,0,.6-.2.4-.6-.5-.7,0-1,0-.3,0-.6.3-.9.4,0,0,0,.4-.1.1-.2-.2-.2,0-.2,0,0,0,0,.2-.2,0-.5-.5-.6,0-.9,0-.3,0-.5.1-.7.4,0,.2,0,.5-.3.5,0,0,0,.3-.3-.2,0-.1,0,.3,0,.3,0,0-.2.1-.3.2-.1,0-.3.1-.4.2,0,0,0,.3,0,.4,0,.1-.1.2-.2.2-.1,0-.4-.1-.5-.1-.1,0-.1.3-.4.2-.5-.3-.5,0-.7.1-.2,0-.4.2-.6.4,0,.1-.4-.2-.6-.1,0,0-1-1.1-1.2-1.6,0,0-.1-.2-.1-.2-.2-.5-.5-1.1-.3-1.2.2,0,.4-.2.6-.4Z"/>
    <path d="M353.9,253.8c.2-.2.4-.3.5-.5,0,0,.3,0,0-.4-.1-.2.3.2.4.1.1-.2.4-.3.5-.5.1-.2.1-.5.3-.7.1-.2.5-.1.4-.5,0-.3.4,0,.5-.3,0-.2.1-.4.4-.4.2,0,.5.1.5,0,0-.1-.1-.4,0-.4,0,0,.3,0,0-.4,0,0,0,0,.1,0,.3.2.4.1.3-.1-.1-.2,0-.3,0-.3.1-.2.2-.3.4-.4.1,0,.4,0,.5,0,.1,0,0-.4.4-.2.3.1.4,0,.5,0,0,0,.3,0,0-.4,0,0,0,0,0,0,.7.4.1-.5.4-.5.3,0,.4-.3.5-.5,0,0,.2,0,0-.3-.1-.1,0-.2,0-.1.6.3.4,0,.6-.1.2,0,.2-.4.6-.2.2,0,.4,0,0-.4-.2-.2.1-.1.1-.2,0,0-.2-.3-.1-.4,0,0,.2,0,.3.1,0,0,0,0,0,0-.3-.7.6-.3.6-.6,0-.3.3-.5.6-.7.1,0,.4,0,1.3.6.4.3.8.7,1,1,.1.2.3.4.3.5,0,.1,0,.3,0,.4,0,.3.3.8,0,.7-.1,0,0,.2-.3,0,0,0-.1,0,0,0,.4.7-.2.6-.3.8-.1.2.2.8-.2.8.4.5.2.6,0,.5-.8-.1-.8.5-1.2.8-.4.3-.7.7-1,1,0,0,.1.4-.1.2-.2-.1-.2,0-.3.2,0,0,0,.2-.2.2-.7-.2-.7.3-1,.5-.3.2-.6.4-.8.8,0,.2,0,.6-.3.7-.1,0,0,.3-.4,0-.1-.1.1.3,0,.3,0,.1-.2.2-.3.3-.2.1-.3.2-.5.4,0,.1,0,.4,0,.5,0,.1-.2.2-.3.3-.2,0-.4,0-.6,0-.2,0-.1.4-.4.3-.6-.2-.6.2-.9.4-.1,0-.3.2-.4.3,0,0-.1.1-.2.2h0c0,0,0,.2-.1.2h-.2c-.3.3-.6.3-.9.3-.3,0-.6,0-1.3-.5-.2-.1-.3-.4-.3-.6,0-.2.2-.5.4-.6.2-.1.4-.1.6-.2,0,0,.2,0,.2,0h0s0,0,0,0c-.1,0,0,0,0-.2,0-.2,0-.4,0-.4,0,0,0,0,0,0,0,0,0,0,0,0h0s0,0,0,0h0s0,0,0,0h0s-.9-1.1-.9-1.1h0s0,0,0,0h0c0,0,.1,0,.2-.1l.3-.3Z"/>
    <path d="M343.2,268.8c-.2-.2-.3-.4-.6-.5,0,0,0-.3-.4,0-.2.2.2-.4,0-.4-.2-.1-.3-.4-.5-.5-.2-.1-.5-.1-.7-.3-.2-.1-.1-.5-.5-.5-.3,0,0-.4-.3-.5-.2,0-.4-.2-.3-.5,0-.2.1-.5,0-.5-.1,0-.4.1-.4,0,0,0,.1-.3-.4,0,0,0,0,0,0-.1.3-.3.2-.4,0-.3-.3,0-.3,0-.3,0-.1-.1-.3-.3-.3-.5,0-.1,0-.4,0-.6,0-.2-.4-.1-.2-.4.2-.3,0-.4,0-.5,0,0,.2-.3-.4,0,0,0,0,0,0,0,.6-.6-.5-.2-.4-.5,0-.3-.2-.4-.3-.6,0,0,0-.2-.3,0-.2,0-.2,0-.1,0,.5-.5,0-.4,0-.6,0-.2-.3-.3,0-.7.1-.2.2-.3-.4-.2-.3,0,0-.1-.2-.2,0,0-.3,0-.4,0,0,0,.2-.2.2-.3,0,0,0,0,0,0-.7,0,0-.6-.3-.8-.3-.2-.4-.5-.4-.8,0-.2,0-.4,1.1-.9.5-.2,1-.4,1.3-.5.2,0,.5,0,.5,0,.1,0,.3,0,.4.1.2,0,.8,0,.6.3,0,0,.2,0-.2.3,0,0,0,0,0,0,.8-.1.4.3.6.5.1.2.8,0,.6.4.6-.2.6,0,.5.2-.4.7.2.8.3,1.2.1.4.4.7.6,1.1,0,0,.4,0,.2.1-.2.2,0,.2,0,.3,0,0,.2,0,.1.2-.4.6.1.7.3,1,.1.3.3.6.6.8.2,0,.6,0,.6.3,0,.1.3,0,0,.4-.1.1.3-.1.3,0,.1,0,.2.2.3.3.1.1.2.3.4.4.1,0,.4,0,.5,0,.1,0,.2.1.2.3,0,.2,0,.4,0,.6,0,.2.4,0,.3.4-.2.6.2.6.4.8.2.2.3.5.6.6.2,0,0,.5,0,.6,0,0-.9,1.2-1.2,1.6,0,0-.1.1-.2.2-.4.2-1,.7-1.1.5-.2-.2-.4-.4-.6-.6Z"/>
  </g>
</svg>