<?xml version="1.0" encoding="UTF-8"?>
<svg id="ARTWORK" xmlns="http://www.w3.org/2000/svg" width="600" height="600" viewBox="0 0 600 600">
  <g>
    <g>
      <path d="M321.4,254.4c-4.8,14.2-13,27.1-22.7,38.6-9.7,11.5-20.8,21.6-32.3,31.4-.4.3-.7.6-.9,1.1-.2.7.2,1.4.8,1.9,1.4,1.3,3.5,1.7,5.3,1.4,1.9-.3,3.6-1.1,5.3-2,8.2-4.4,15.5-10.5,21.4-17.7,1.7-2.1,3.2-4.2,4.8-6.4,2.3-3.2,4.6-6.4,6.9-9.5,4.1-5.7,8.3-11.5,11.2-18,2.4-5.5,3.9-11.4,5.3-17.3-1.8-.8-4-.6-5.5.6" fill="#00b4e9"/>
      <path d="M325.2,270.3c-1,3.1-2.3,6.2-3.8,9.2-.6,1.1-1.4,2.1-1.6,3.4,0,.7-1.3,1.4-1.8,2.3-1.6,2.6-3.4,5-5.1,7.5-1.7,2.4-3.2,4.9-4.8,7.3-1.6,2.4-3.6,4.6-5.1,7.1-1.3,2.1-2.9,3.6-4.4,5.5-1.6,2-3.3,3.9-5.3,5.4-1.4,1.1-2.9,2.1-4.2,3.3-.8.7-1.5,1.6-2.5,2.3-.9.7-2.1,1.2-2.6,2.2,0,0-.5.3-.8.3-1.2.3-2.5,1.1-3.2,1.9-.7.7-1.5,1.1-2.4,1.6-1.2.6-2.5,1.2-3.9,1.6-1.5.4-3.2.5-4.8.2-.6-.1-1.2-.3-1.8-.6-.8-.4-1.5-.9-2.1-1.5-1.2-1.2-1.8-2.8-1.3-4.3h0c.2-.8.7-1.5,1.4-2.1.5-.4,1-.9,1.5-1.3.7-.6,1.4-1.3,2.2-1.7,1.5-.9,2.8-2.1,4.1-3.2.7-.7,1.8-1.2,2-2.2,0,0,.3-.3.5-.4,2.6-1.3,3.9-3.9,6.1-5.8,2.3-1.9,4.3-4.1,6.4-6.2.5-.6,1.3-1.1,1.4-1.9,0-.3.6-.9,1-1.1,2-1.2,3.2-3.1,4.8-4.7,1.8-1.8,3.2-4,5.2-5.7.8-.7,1.8-1.8,2.2-3.2.1-.6,1.1-1.5,1.6-2.3.4-.7.6-1.4,1-2,.4-.5.9-.9,1.4-1.4.1-.1.3-.3.4-.5,1.5-3.4,4.2-6.1,5.8-9.5,1.6-3.4,3.3-6.8,4.9-10.2.8-1.9,1.7-3.8,3.3-4.8.7-.4,1.2-.3,1.2.7,0,.7,0,1.5-.2,2.2-.4,1.2-.6,2.4-1,3.5-.8,2.4-1.3,4.8-2.7,7-.4.7-.6,1.6-1.4,2-.1,0-.3.3-.3.5-.9,3.4-3.2,6.2-5.1,9.2-1.6,2.5-2.7,5.2-4.7,7.5-.5,1.7-1.8,3.2-3,4.4-4.2,4.2-7.8,8.8-11.9,13-4.2,4.2-8.4,8.4-12.9,12.3-.8.7-1.2,1.5-2.2,2.1-1,.5-1.9,1.6-2.9,2.5-.9.8-1.7,1.7-2.7,2.3-.7.4-1.3.9-2,1.4l-.2.2h0s-.2.1-.2.1c-.1,0-.2.1-.3.3-.1.2,0,.5.2.7,0,0,.2.2.3.2.1,0,.2,0,.5.2,1,.3,2.2.3,3.4,0,1.8-.4,3.8-1.6,5.8-2.7,1.9-1.1,3.8-2.4,5.6-3.7,2.2-1.7,4-3.6,6.1-5.4.9-.8,1.5-1.8,2.8-2.2.3-.1.8-1.2,1.3-1.8,1.2-1.4,2.5-2.8,3.6-4.3,1.6-2.1,3.2-4.2,4.7-6.4.9-1.3,1.7-2.8,2.6-4.1,1-1.4,2-2.8,3-4.2,1.3-1.7,2.8-3.3,4-5,1.3-1.8,2.4-3.8,3.7-5.5,2.5-3.1,4-6.6,5.4-10.2.7-1.8,1.3-3.6,1.8-5.5.3-.9.5-1.9.8-2.8l.3-1.4.2-.7v-.4c.1-.2.1-.3.2-.4,0-.1.1-.2.2-.4,0,0,.1-.2,0-.2,0,0,0,0-.1-.1,0,0-.2-.2-.3-.2-.2-.1-.6-.1-.9,0-.1,0-.2,0-.5,0-.2,0-.5-.1-.8-.2-.5-.2-1.1-.4-1-.7,0-.1.1-.3.3-.5.7-.7,2.1-1.4,3.5-1.6.7,0,1.5,0,2.2.1.4,0,.7.2,1.1.3.2,0,.4.1.5.2l.4.3c0,.4-.2.9-.3,1.4l-1.7,6.6c-.5,1.8-1,3.6-1.6,5.3Z" fill="#00b4e9"/>
    </g>
    <g>
      <path d="M253.8,302.4c-1.1,6.2-6,10.8-9.5,16-1.1,1.7-2.1,3.6-2.1,5.6,2.7.9,5.4,1.4,8.2,1.6.2,0,.3,0,.5,0,.2,0,.3-.3.3-.5,2.1-4.9,1.7-10.5,1.3-15.8" fill="#00b4e9"/>
      <path d="M254.8,313.7c0,.8,0,1.7,0,2.5,0,.3-.3.6.3,1,.3.2-.4.5-.4.8,0,.8-.2,1.6-.2,2.4,0,.8,0,1.6-.1,2.5,0,.4-.2.8-.4,1.2,0,.1-.2.5-.3.8,0,.3-.2.6-.3.9-.2.5-.4,1.1-.8,1.3-.4.3-.9.4-1.3.5l-.8.2c-.3,0-.6,0-.9,0-.3,0-.5,0-.8-.1h-.2s-.1,0-.1,0c0,0-.2,0-.2-.1-.4-.2-.9-.5-1.3-.5-.3,0-.6.3-.9.2-.3,0-.6-.4-.9.2,0,0-.1,0-.2-.2-.3-.5-.5-.5-1.1-.4-.5.2-.9,0-1.4-.1-.9-.2-1.9-.5-2.8-.8v-.7c0-.9.3-1.8.4-2.6,0-.4.1-.9.2-1.3,0-.4.3-.9.6-1.2.5-.4.7-.8.9-1.3.1-.3.6-.4.1-.9,0,0,0-.1,0-.2,1.1-.2.6-1.4,1.2-1.9.6-.5,1-1.2,1.4-1.9.1-.2.4-.2.1-.7,0-.2,0-.3.2-.3.8,0,.9-.8,1.3-1.2.5-.4.6-1.1,1.4-1.4.3,0,.6-.3.3-.9-.1-.3.3-.4.3-.6,0-.2,0-.5,0-.6,0-.1.4-.1.5-.2,0,0,0,0,0-.1,0-1.1,1.1-1.4,1.3-2.3.2-.9.6-1.6.9-2.4.2-.4.4-.8,1.7-1,.5,0,1.1,0,1.4.3.2.2.4.5.4.7,0,.3,0,.7,0,1,0,.7.3,1.5-.3,2.1-.2.2,0,.5-.5.5,0,0-.1,0-.1.1.3,1.2-.6,1.8-1,2.6-.4.7-.3,1.7-.9,2.2.3.7-.1,1.1-.5,1.3-1.4.8-2,2.3-3,3.4-1,1.1-1.8,2.4-2.5,3.5-.1.2,0,.5-.3.6-.4,0-.3.5-.4.7,0,.1,0,.2-.1.4,0,0,0,.1,0,.2,0,0,0,0,0,0-.6,0-.6.6-.4.8,0,0,.1,0,.1,0,.2,0,.3.2.5.2h.3c0,0,.4.1.4.1.3,0,.6,0,.8,0,.7,0,1.4-.2,2,0,.1,0,.3,0,.4,0,0,0,0,0,.2.4,0,.2,0-.3.1-.3,0,0,.2,0,.2,0v-.2c.1,0,0,0,.2-.4,0-.4,0-.8,0-1.1,0-.4.1-.8.2-1.1.2-.5.4-.9.6-1.4.1-.5-.1-1.1.2-1.6.6-.9.3-1.9.3-2.9,0-1,0-2-.2-2.9-.1-.6.4-1.1.3-1.7,0-.3,1.4-.7,1.9-.7,0,0,.2,0,.2,0,.5.5,1.3,1,1.3,1.6,0,.9.1,1.9.1,2.8Z" fill="#00b4e9"/>
    </g>
    <path d="M398.5,313.3c1.4-1.3,2.4-2.9,3-4.7.2-.9.5-1.8.5-2.8,0-.4,0-1,0-1.6v-1.7c0-1.7.2-3.4-.3-5.1-.3-.9.4-2.5.3-4,0-4.2,0-8.3,0-12.5,0-4-.3-8.1-.3-12.1,0-4,.2-8.1,0-12-.3-3.3.2-6.4.1-9.6-.1-3.4-.2-6.9,0-10.2.2-2.4.4-4.8.3-7.2,0-1.5-.4-2.9-.4-4.5,0-1.5.3-3.2-.3-4.6,0-.1,0-.8.1-1.1.4-1.6.4-3.6.1-5-.3-1.3-.2-2.5-.3-3.8,0-3.4,0-6.8,0-10.3,0-2.6.3-5.1.3-7.7,0-2.7-.2-5.5,0-8,.2-1.2.2-2.4.3-3.6,0-.6,0-1.2,0-1.8,0-.5,0-1-.1-1.5-.2-1.1-.4-2.6-1.4-3.1,0,0-.3-.4-.4-.6-.5-1.6-1.8-2.9-3.3-3.6-1.5-.8-3.1-1.1-4.7-1.3-.4,0-.8,0-1.3-.1h-1.6c-1,0-2.1,0-3.1,0-2.1,0-4.2,0-6.3,0-1.1,0-2.3-.2-3.3.3-.4.2-1.5.2-2.1,0-3.1-.6-6.3-.2-9.5-.4-3.6-.1-7.2.2-10.8-.3-1.5-.2-3.6-.3-5.5.3-.8.3-2.6,0-3.9,0-1.1,0-2.1.3-3.2.3-.9,0-1.8-.2-2.8-.3-.3,0-.6,0-.9,0-1.3.2-2.6.2-3.9.2-.7,0-1.3,0-2,0-.6,0-1.4,0-1.8,0-1.1,0-2.1.1-3.2.5-1,.3-2,.8-2.8,1.6-.8.7-1.6,1.5-2.2,2.5-.6.9-1,1.9-1.4,3l-.2.8v.8c-.2.3-.2.5-.2.8,0,.3,0,.5,0,.9,0,1.3,0,2.7,0,4,0,2.9-.2,6-1.4,8-.5.9-1.1.9-1.4-.3-.2-.9-.5-2-.5-3-.1-1.7-.2-3.4-.3-5,0-.9-.1-1.7-.2-2.5v-1.3c-.1-.4-.1-.9-.2-1.4,0-1.9.5-4,1.6-5.7.7-1,1.3-2.5,2.4-2.9.1,0,.5-.4.7-.6.8-1.1,1.9-1.9,3-2.6,1.2-.7,2.5-1.2,3.8-1.5.7,0,1.4-.2,2.1-.2h1s.9,0,.9,0c1.2,0,2.4,0,3.6,0,4.1,0,8-.7,12.1-.4,2.3-.6,4.9-.5,7.2-.3,8,.7,16.1.2,24.2.3,4.1,0,8.2,0,12.3,0,2.4,0,4.8.6,6.9,1.7,2.1,1.1,4,2.7,5.4,4.7.9,1.3,1.9,2.5,2.2,4.4,0,.5.1.9.2,1.4,0,.5.2,1,.2,1.5,0,.5,0,1.1.1,1.6,0,.5,0,.9,0,1.4,0,1.6.1,3.3,0,4.9-.7,6.4-.3,12.8-.3,19.3,0,6.4-.1,12.8,0,19.2,0,3.9.4,7.8.3,11.7,0,1.7.3,3.4-.3,5.1-.2.5.3,2,.3,3.1,0,2.7,0,5.3,0,8s0,7.4,0,11.1c0,2.3.3,4.5.3,6.8,0,2.4,0,4.8,0,7.1,0,3-.3,6-.3,9,0,3.1.2,6.4,0,9.3-.3,2.8-.3,5.5-.3,8.3v2.2c0,.4-.1.8-.2,1.2,0,.4-.1.8-.2,1.2-.4,1.5-1,3-1.9,4.3-.9,1.3-1.9,2.5-3.1,3.5-1.2,1-2.6,1.8-4.1,2.3-1.5.6-3,.9-4.6.9h-.6s-.5,0-.5,0h-1s-2.1,0-2.1,0c-3.1,0-6-.4-9-.4-1.4,0-3.3-1.5-2.8-2,.1,0,.3-.2.6-.2,3-.5,5.7-1.2,9.1-1.1h3.8s1.9,0,1.9,0c.5,0,1.1,0,1.6-.1,1.1-.1,2.1-.5,3.1-1,1-.5,1.9-1.1,2.7-1.8Z" fill="#00b4e9"/>
    <path d="M252.4,307.2c-.2.3-.5.6-.6.9,0,.1-.4,0,0,.5.2.2-.4,0-.5,0-.1.3-.4.6-.6.9-.1.3-.2.7-.3,1-.1.3-.6.4-.5.9,0,.4-.5.3-.5.6,0,.3-.2.6-.5.7-.3,0-.6.1-.6.4,0,.1.2.4,0,.5,0,0-.4,0,0,.5,0,0,0,0-.2,0-.4-.1-.5,0-.3.3.2.2,0,.3,0,.4-.1.3-.3.5-.5.7-.2.2-.5.2-.6.4-.2.2,0,.5-.4.5-.4,0-.5.2-.6.4,0,0-.4,0,0,.5,0,0,0,0,0,0-.9-.2-.1.7-.5.9-.4.2-.4.6-.6.9,0,0-.3,0,0,.4.1.1,0,.2,0,.2-.7-.1-.5.3-.7.5-.3.2-.2.6-.8.6-.2,0-.4,0,0,.5.2.2-.1.2-.1.3,0,.1.2.3.1.4,0,0-.3,0-.4,0,0,0,0,0,0,0,.3.7-.7.6-.8,1.1,0,.5-.4.8-.7,1.2-.2.2-.5.3-1.5-.2-.5-.2-.9-.5-1.2-.8-.2-.2-.3-.4-.3-.5,0-.2,0-.4,0-.5,0-.4-.3-.9,0-1,.1,0,0-.3.4,0,0,0,.1,0,0,0-.5-.8.2-.8.4-1.2.1-.3-.2-.9.2-1.1-.4-.5-.2-.6,0-.7.9-.2.9-1.1,1.4-1.6.5-.5.8-1.2,1.2-1.8,0,0-.2-.4.1-.3.3,0,.2-.2.3-.4,0-.1,0-.3.3-.3.9,0,.8-.8,1.2-1.2.4-.4.7-.8.9-1.4.1-.3,0-.8.3-1,.1,0,0-.4.5-.2.2,0-.1-.3-.1-.4,0-.2.2-.4.4-.6.2-.3.4-.5.5-.8,0-.2,0-.5,0-.7,0-.2.2-.4.3-.5.2-.2.5-.3.7-.4.2-.2.1-.6.5-.6.7-.1.8-.6,1.1-1,.3-.4.6-.7.8-1.2,0-.3.6-.2.8-.4,0-.1,1.4.6,1.8.9,0,0,.1.1.2.2.2.5.7,1.1.5,1.3-.3.3-.5.7-.8,1Z" fill="#00b4e9"/>
    <path d="M261.8,323.6c1.3-1,2.7-1.9,3.9-3.1.5-.4,1.1-.6,1.3-1.4,0-.4.9-.3,1.4-.7,1.2-1,2.4-2,3.5-3,1.1-1,2.1-2.2,3.1-3.2,1-1.1,2.4-1.9,3.2-3.1.7-1,1.8-1.5,2.6-2.4.8-1,1.7-1.9,2.7-2.7.7-.5,1.5-1,2-1.8.3-.5.5-1.1.9-1.5.4-.4,1-.7.9-1.5,0,0,.2-.2.4-.2.7-.2,1.2-.8,1.3-1.3.1-.6.4-.9.7-1.2.8-1,1.6-1.9,2.5-2.9.6-.7,1.4-1.3,2.1-2,.7-.7,1.1-1.7,1.9-2.3.8-.5,1.3-1.3,1.9-2,.3-.4.9-.7.6-1.4,0,0,0-.2.2-.3,1.6-.7,1.5-2.5,2.5-3.6,1-1.1,1.9-2.5,2.7-3.8.2-.3.6-.6.4-1.2,0-.2.2-.6.4-.7,1.1-.6,1.5-1.8,2.2-2.8.8-1.1,1.2-2.4,2.4-3.3.5-.4,1-1,.8-1.9,0-.4.5-.8.7-1.3.2-.4.1-.8.3-1.2.2-.3.5-.5.8-.7,0,0,.1-.2.2-.3.4-2,2-3.3,2.8-5.1.4-.9.8-1.8,1.3-2.7.4-.9.9-1.8,1.4-2.7.5-1,1.2-1.9,2.5-2.1.6,0,1.1.1,1.2.7,0,.4.1.9,0,1.3-.2.6-.3,1.2-.5,1.8-.4,1.2-.4,2.7-1.3,3.7-.3.3-.2.9-.8,1,0,0-.2.1-.2.2-.1,1.9-1.4,3.4-2.2,5-.7,1.4-.9,3-1.9,4.2.1,1.1-.5,1.9-1.1,2.5-1.1,1.1-1.9,2.4-2.7,3.7-.8,1.3-1.6,2.6-2.5,3.9l-2.7,3.8c-.9,1.3-1.7,2.6-2.7,3.8-.3.4-.3,1-.9,1.3-.6.3-.9,1-1.3,1.6-.4.5-.7,1.1-1.1,1.5-2.1,1.5-3.3,3.6-4.9,5.4-1.7,1.8-3.3,3.6-4.8,5.5-.9,1.1-1.7,2.5-2.8,3.5-.5.4-.7,1.1-1.6,1.2-.2,0-.3.7-.6,1-.7.8-1.4,1.4-2.1,2.2-1,1-2.1,1.9-3.1,2.9-.6.6-1.1,1.4-1.7,2-.6.7-1.3,1.2-2,1.8-.9.7-1.9,1.3-2.8,2-.9.7-1.7,1.7-2.8,2.2-2,.9-3.4,2.5-5.1,3.7-1.7,1.2-3.4,2.5-5,3.7-.9.7-2.1.9-3,1.6-.4.3-1.9-.5-2-1,0-.1,0-.2,0-.3.7-1,1.1-2.2,2.1-2.9.8-.5,1.6-1,2.3-1.6l2.2-1.7Z" fill="#00b4e9"/>
    <path d="M272.7,332.1c1.4-1,2.8-2,4.1-3.2.5-.4,1.2-.6,1.3-1.5,0-.4,1-.3,1.4-.7,1.2-1,2.5-2.1,3.6-3.2,1.1-1.1,2.2-2.2,3.2-3.4,1.1-1.1,2.4-2,3.3-3.2.7-1.1,1.9-1.6,2.7-2.5.8-1,1.7-2,2.8-2.8.8-.6,1.5-1.1,2.1-1.9.3-.5.5-1.1.9-1.5.4-.4,1.1-.7.9-1.5,0,0,.2-.2.4-.2.7-.2,1.2-.8,1.3-1.4.1-.6.4-.9.7-1.3l2.5-3.1c.6-.7,1.4-1.4,2.1-2.1.7-.8,1.1-1.8,1.9-2.4.8-.6,1.3-1.3,1.8-2.1.3-.4.9-.8.6-1.5,0,0,0-.2.2-.3,1.6-.8,1.4-2.6,2.4-3.8,1-1.2,1.8-2.6,2.5-4,.2-.4.6-.7.4-1.2,0-.2.1-.6.3-.7,1.1-.7,1.5-2,2.1-3,.7-1.2,1.1-2.5,2.2-3.5.4-.4,1-1.1.7-2-.1-.4.4-.9.6-1.4.1-.4,0-.9.2-1.3.1-.3.5-.5.7-.8,0,0,.1-.2.1-.3.3-2.1,1.8-3.6,2.4-5.6.3-1,.7-1.9,1-2.9.3-1,.7-1.9,1.1-2.9.4-1.1,1-2.1,2.3-2.5.6-.2,1.1,0,1.3.5.1.4.2.9.1,1.3-.1.7-.2,1.3-.3,2-.3,1.3-.1,2.8-.9,4-.2.4-.1,1-.8,1.1,0,0-.2.2-.2.3,0,2-1.1,3.6-1.8,5.4-.6,1.5-.7,3.2-1.6,4.5.2,1.1-.4,2-1,2.7-1,1.3-1.8,2.7-2.5,4.1-.8,1.4-1.5,2.8-2.3,4.2l-1.3,2.1-1.3,2c-.9,1.4-1.7,2.7-2.6,4.1-.3.4-.3,1-.9,1.4-.6.3-.8,1.1-1.3,1.7-.4.5-.7,1.2-1.1,1.6-2,1.6-3.3,3.9-4.9,5.8-1.7,1.9-3.3,3.8-4.9,5.8-1,1.2-1.7,2.6-2.9,3.6-.5.4-.7,1.2-1.6,1.2-.3,0-.4.8-.6,1.1-.7.8-1.5,1.5-2.2,2.3-1,1.1-2.1,2-3.2,3.1-.6.6-1.1,1.4-1.7,2.1-.6.7-1.3,1.3-2.1,1.9-.9.7-2,1.3-2.9,2.1-1,.8-1.8,1.8-2.9,2.3-2,1-3.5,2.6-5.3,3.8-1.8,1.2-3.5,2.6-5.2,3.9-1,.8-2.2,1-3.1,1.7-.5.3-1.9-.5-2-1,0-.1,0-.2,0-.3.7-1,1.1-2.3,2.3-3,.8-.5,1.6-1.1,2.4-1.7l2.3-1.8Z" fill="#00b4e9"/>
    <path d="M252.7,250.2c-.1-1.4-.2-2.9-.4-4.3,0-.5.2-1.1-.4-1.6-.3-.3.3-.8.2-1.3-.2-1.3-.2-2.7-.3-4-.1-1.3-.5-2.6-.6-3.9-.1-1.3,0-2.6-.3-3.9-.3-1.1.1-2.1,0-3.1-.2-1.1-.3-2.2-.1-3.3.1-.8.3-1.6.2-2.3,0-.5-.4-.9-.4-1.4,0-.5.2-1.1-.4-1.5,0,0,0-.3.1-.4.4-.5.3-1.2,0-1.6-.3-.4-.3-.8-.3-1.2,0-1.1-.1-2.2-.1-3.3,0-.8.2-1.7.3-2.5,0-.9-.3-1.8,0-2.6.3-.8.3-1.6.2-2.3,0-.4.3-1-.4-1.3,0,0,0-.2,0-.3.8-1.3-.3-2.5-.1-3.8.2-1.3,0-2.7,0-4,0-.4.2-.7-.3-1.1-.2-.1-.2-.5,0-.7.6-1,.2-2,.3-3,.1-1.2-.2-2.3.3-3.5.2-.5.3-1.2-.3-1.8-.3-.3,0-.8,0-1.3,0-.3-.3-.7-.3-1,0-.3.2-.6.4-.9,0,0,0-.2,0-.3-.6-1.7.3-3.4.1-5.1-.1-1.7,0-3.4.1-5.2,0-.9.3-1.9,1.5-2.5.5-.3,1.1-.3,1.4.2.2.3.4.6.5,1,0,.5.2,1.1.3,1.6.2,1.1.7,2.2.4,3.3,0,.3.2.8-.3,1,0,0-.1.2,0,.3.8,1.5.2,3.1.2,4.6,0,1.3.6,2.6.4,3.9.6.7.5,1.6.3,2.3-.7,2.6-.2,5.2-.3,7.7,0,2.6,0,5.2,0,7.8,0,.4.4.8.1,1.3-.3.5,0,1.1,0,1.7,0,.5.2,1.1,0,1.6-.6,2.1-.2,4.1-.2,6.2,0,2,0,4.1.3,6.1.2,1.2.6,2.5.5,3.7,0,.5.3,1.1-.2,1.6-.2.2.3.6.4,1,0,.8.1,1.7.2,2.6,0,1.2,0,2.4.2,3.6,0,.7.4,1.4.5,2.1.1.8.2,1.5.2,2.3,0,1-.2,1.9-.1,2.9,0,1,.4,2,.2,3-.4,1.8,0,3.6.1,5.3,0,1.8.2,3.5.5,5.3.2,1-.3,1.9-.2,2.9,0,.5-1.4,1.2-1.9,1.1,0,0-.2,0-.3-.2-.6-.9-1.4-1.7-1.4-2.8,0-1.6-.3-3.2-.4-4.9Z"/>
    <path d="M283.4,244.6c-.2-1.3-.4-2.7-.7-4-.1-.5,0-1-.5-1.5-.3-.2.3-.8.2-1.3-.2-1.2-.3-2.5-.5-3.8-.2-1.2-.5-2.4-.6-3.6-.2-1.2,0-2.5-.3-3.6-.3-1,.1-1.9,0-2.9-.2-1-.3-2.1,0-3.1.2-.7.4-1.5.2-2.2,0-.5-.4-.9-.4-1.4,0-.5.3-1-.3-1.4,0,0,0-.2.1-.3.4-.5.4-1.1.1-1.5-.3-.4-.2-.8-.2-1.1,0-1,0-2.1,0-3.1,0-.8.3-1.5.4-2.3,0-.8-.2-1.7.1-2.4.3-.7.3-1.4.3-2.2,0-.4.3-.9-.3-1.2,0,0,0-.2,0-.3.9-1.1-.2-2.3,0-3.5.2-1.2,0-2.5,0-3.7,0-.3.2-.7-.3-1-.2-.1-.2-.5,0-.6.6-.9.2-1.9.3-2.8.1-1.1-.2-2.1.2-3.2.2-.5.3-1.1-.3-1.6-.3-.2,0-.8-.1-1.1,0-.3-.4-.6-.4-.9,0-.3.2-.5.3-.8,0,0,0-.2,0-.3-.7-1.5,0-3.1-.4-4.6-.2-.8-.3-1.5-.4-2.3-.1-.8-.2-1.6-.3-2.3,0-.9,0-1.8,1-2.6.5-.4,1-.5,1.4-.2.3.2.6.5.7.8.2.5.4,1,.6,1.4.3,1,1.1,1.9.9,3,0,.3.3.7-.2,1,0,0,0,.2,0,.2.9,1.3.6,2.9.8,4.3.1,1.2.9,2.4.7,3.6.7.7.6,1.5.4,2.2-.6,2.5-.1,4.9-.2,7.3-.1,2.5,0,4.9-.2,7.4,0,.4.3.8,0,1.3-.3.5,0,1.1,0,1.6,0,.5.1,1,0,1.5-.7,1.9-.4,3.8-.5,5.7-.1,1.9-.2,3.8,0,5.7,0,1.2.5,2.3.4,3.5,0,.5.3,1-.3,1.5-.2.1.3.6.3.9,0,.8,0,1.6.1,2.4,0,1.1,0,2.2.2,3.3,0,.7.4,1.3.5,2,.1.7.2,1.4.2,2.1,0,.9-.1,1.8,0,2.7,0,.9.4,1.8.3,2.7-.3,1.7.3,3.3.4,4.9.1.8.2,1.6.4,2.4.2.8.4,1.6.6,2.4.3.9,0,1.8.1,2.7,0,.4-1.2,1.3-1.8,1.3-.1,0-.2,0-.3-.1-.6-.8-1.5-1.4-1.7-2.5-.2-1.5-.7-3-.9-4.5Z"/>
    <path d="M242.6,155.7c.2.3.4.6.7.8,0,0,0,.4.5.1.3-.1-.2.4,0,.5.3.2.4.6.6.8.2.2.6.4.9.6.2.2.2.7.6.7.4,0,.1.5.4.7.3.1.5.3.5.7,0,.3,0,.5.1.6.1,0,.5,0,.5,0,0,.1,0,.4.5.1,0,0,0,0,0,.2-.3.3-.1.5.1.4.3,0,.3,0,.4.1.2.2.4.4.5.7,0,.2,0,.5,0,.7,0,.2.4.2.3.6-.1.3,0,.5,0,.6,0,0-.1.4.5,0,0,0,0,0,0,0-.5.7.6.4.6.8,0,.4.3.6.5.9,0,0,0,.3.4,0,.2,0,.2,0,.1.1-.4.6,0,.6.1.8,0,.3.5.4.2.9-.1.2-.1.4.5.2.3,0,.1.2.2.2,0,0,.4,0,.4,0,0,0-.1.2-.2.4,0,0,0,0,0,0,.8,0,.3.8.6,1.1.4.3.5.7.7,1.1,0,.2,0,.5-.8,1.3-.4.3-.9.6-1.2.7-.2,0-.5.1-.6,0-.2,0-.3-.1-.5-.2-.3-.1-.9,0-.8-.5,0-.1-.3,0,.1-.4,0,0,0,0,0,0-.9.1-.6-.5-.9-.8-.2-.2-.9-.2-.9-.6-.6.2-.6,0-.6-.3.2-.9-.5-1.2-.8-1.8-.3-.6-.7-1.1-1-1.6,0,0-.4,0-.2-.2.1-.2-.1-.3-.2-.4,0-.1-.3-.1-.2-.3.3-.8-.4-1-.6-1.4-.2-.5-.5-.9-.9-1.2-.3-.2-.7-.2-.8-.6,0-.1-.4,0,0-.5.1-.1-.3,0-.4,0-.2-.1-.3-.3-.4-.5-.2-.2-.3-.5-.5-.7-.1-.1-.4-.1-.6-.2-.2-.1-.3-.3-.3-.5,0-.2,0-.5-.1-.8,0-.2-.5-.3-.4-.6.1-.7-.3-.9-.5-1.2-.2-.4-.4-.8-.8-1-.2-.2,0-.6,0-.8,0,0,1-1.1,1.4-1.4,0,0,.2,0,.2-.1.5,0,1.2-.4,1.4-.1.2.4.5.7.7,1Z"/>
    <path d="M248.8,134.3c0,.3-.3.5-.3.9,0,.1-.3.2.2.4.2.1-.4,0-.4.2,0,.3-.2.5-.2.8,0,.3.1.6.2.9,0,.3-.3.5,0,.8.2.3-.3.4-.2.6,0,.2.1.5-.1.7-.2.1-.4.3-.3.5,0,.1.4.2.3.3,0,.1-.3.2.3.3,0,0,0,0-.1,0-.4,0-.4.2-.1.3.3.1.2.2.2.3,0,.2,0,.5,0,.7,0,.2-.3.4-.3.5,0,.2.2.4,0,.6-.3.2-.3.3-.3.5,0,0-.3.2.4.3,0,0,0,0,0,0-.8.3.3.5,0,.8-.2.3,0,.6,0,.9,0,0-.2.2.3.2.2,0,.2,0,0,.1-.6.3-.2.5-.3.7,0,.3.2.5-.2.8-.2.1-.3.3.3.4.3,0,0,.2,0,.3,0,0,.3.1.4.2,0,0-.2.2-.3.2,0,0,0,0,0,0,.7.3-.1.8,0,1.2.2.4.2.8.2,1.2,0,.2-.2.5-1.3.8-.5.1-1.1.2-1.4.2-.2,0-.5,0-.6-.2-.1-.1-.3-.2-.4-.3-.2-.2-.8-.4-.5-.7,0,0-.2-.2.3-.3,0,0,.1,0,0,0-.8-.3-.4-.7-.5-1,0-.3-.7-.5-.5-.9-.6-.1-.6-.3-.4-.5.6-.7.1-1.2.1-1.9,0-.6,0-1.3,0-1.9,0-.1-.4-.2,0-.3.3-.1,0-.3,0-.4,0-.1-.1-.3,0-.4.7-.5.3-1,.3-1.5,0-.5.2-1,0-1.5,0-.3-.4-.6-.2-.9,0-.1-.3-.3.3-.4.2,0-.3-.2-.3-.3,0-.2,0-.4,0-.6,0-.3.1-.6.1-.9,0-.2-.2-.4-.2-.6,0-.2,0-.4.1-.6.1-.2.4-.4.5-.6.1-.2,0-.6.3-.7.6-.3.5-.8.7-1.2.2-.4.4-.8.5-1.3,0-.3.6-.3.7-.5,0-.1,1.4.4,1.9.6,0,0,.2.1.2.1.3.4.9.9.8,1-.2.3-.3.6-.4.9Z"/>
    <path d="M255.2,131.5c-.1,0-.3,0-.4,0,0,0,0-.2-.2.3,0,.3,0-.4-.1-.3-.1,0-.3,0-.4,0-.1,0-.3.3-.4.3-.1,0-.3-.2-.4,0-.1.3-.2-.2-.3-.1-.1.1-.2.2-.3,0,0-.2-.2-.4-.2-.3,0,0,0,.4-.1.4,0,0-.1-.3-.1.3,0,0,0,0,0-.1,0-.4-.1-.4-.2,0,0,.3,0,.2-.1.3-.1,0-.2,0-.3,0,0,0-.2-.3-.2-.3,0,0-.2.2-.3,0,0-.3-.2-.3-.2-.3,0,0-.1-.3-.1.4,0,0,0,0,0,0-.2-.8-.2.3-.4,0-.1-.2-.3,0-.4,0,0,0,0-.2,0,.3,0,.2,0,.2,0,0-.1-.6-.2-.2-.3-.3-.1-.1-.2.2-.4-.3,0-.2-.1-.3-.2.3,0,.3,0,0-.1,0,0,0,0,.3,0,.3,0,0,0-.2-.1-.3,0,0,0,0,0,0-.1.7-.3-.2-.5,0-.2.2-.3.1-.5,0,0,0-.2-.2-.4-1.4,0-.5-.1-1.1-.1-1.4,0-.2,0-.5,0-.5,0-.1,0-.2.1-.3,0-.2.2-.7.3-.5,0,0,0-.2.1.3,0,0,0,.1,0,0,0-.8.3-.3.5-.4.1,0,.2-.7.4-.4,0-.6.1-.5.2-.3.3.7.6.2.8.3.3,0,.5,0,.8,0,0,0,0-.4.1,0,0,.3.1,0,.2,0,0,0,.1-.1.2,0,.2.7.4.3.7.3.2,0,.4.1.6,0,.1-.1.3-.4.4-.3,0,0,.1-.3.2.3,0,.2,0-.3.1-.3,0,0,.2,0,.3,0,.1,0,.2,0,.4,0,0,0,.2-.3.2-.3,0,0,.2,0,.2,0,.1,0,.2.3.3.4.1,0,.2-.2.3,0,.2.5.4.3.5.3.2,0,.4.1.6,0,.1,0,.2.4.3.4,0,0,0,1.5,0,2,0,0,0,.2,0,.2-.1.5-.2,1.2-.3,1.1-.2,0-.3,0-.5,0Z"/>
    <path d="M255.8,138c0-.2,0-.3,0-.5,0,0,.2-.1-.3-.2-.3,0,.4,0,.3-.1,0-.1,0-.3,0-.4,0-.1-.3-.3-.3-.4,0-.1.2-.3,0-.4-.3-.1.2-.2.1-.3-.1-.1-.2-.2,0-.3.2,0,.4-.2.3-.2,0,0-.4,0-.4-.1,0,0,.3-.1-.3-.1,0,0,0,0,.1,0,.4,0,.4-.1,0-.2-.3,0-.2,0-.3-.1,0-.1,0-.2,0-.3,0,0,.3-.2.3-.3,0,0-.2-.2,0-.3.3-.1.3-.2.3-.3,0,0,.3-.1-.4-.1,0,0,0,0,0,0,.8-.2-.3-.2,0-.4.2-.2,0-.3,0-.4,0,0,.2,0-.3,0-.2,0-.2,0,0,0,.6-.2.2-.2.3-.3.1-.1-.2-.2.3-.4.2,0,.3-.2-.3-.2-.3,0,0,0,0-.1,0,0-.3,0-.3,0,0,0,.2,0,.3-.1,0,0,0,0,0,0-.7,0,.2-.4,0-.5-.2-.1-.2-.3,0-.5,0-.1.2-.2,1.3-.5.5-.1,1-.2,1.4-.2.2,0,.5,0,.5,0,.1,0,.2,0,.4.1.2,0,.8.1.5.3,0,0,.2,0-.3.2,0,0-.1,0,0,0,.8,0,.3.3.4.5,0,.1.7.2.5.4.6,0,.5.1.4.2-.6.4-.2.6-.2.9,0,.3,0,.6,0,.9,0,0,.4,0,0,.2-.3,0,0,.1,0,.2,0,0,.1.1,0,.2-.6.3-.2.5-.3.7,0,.2-.1.5,0,.7.1.1.5.3.3.4,0,0,.3.1-.3.2-.2,0,.3,0,.3.1,0,0,0,.2,0,.3,0,.1,0,.3,0,.4,0,0,.3.2.3.3,0,0,0,.2,0,.3,0,.1-.3.2-.4.3,0,.1.2.2,0,.3-.5.2-.3.4-.3.6,0,.2-.1.4,0,.6,0,.1-.4.2-.4.3,0,0-1.5,0-2,0,0,0-.2,0-.2,0-.5-.1-1.2-.3-1.1-.4,0-.2,0-.3,0-.5Z"/>
    <path d="M266.7,130.2c-.1,0-.3-.1-.4-.1,0,0,0-.3-.2.2,0,.3,0-.4,0-.4-.2,0-.3,0-.4,0-.1,0-.3.2-.5.3-.1,0-.2-.3-.4,0-.1.3-.2-.2-.3-.1-.1.1-.2.2-.3,0,0-.2-.2-.4-.2-.3,0,0-.1.4-.2.4,0,0-.1-.3-.1.3,0,0,0,0,0-.1,0-.4-.1-.4-.2,0,0,.3,0,.2-.1.3-.1,0-.2,0-.3,0,0,0-.2-.3-.3-.3,0,0-.2.2-.3,0-.1-.3-.2-.3-.3-.2,0,0-.2-.3,0,.4,0,0,0,0,0,0-.3-.8-.2.3-.4.1-.2-.2-.3,0-.4,0,0,0-.1-.2,0,.3,0,.2,0,.2,0,0-.3-.6-.3-.2-.4-.3-.2,0-.2.2-.4-.2-.1-.2-.2-.3,0,.3,0,.3,0,0,0,.1,0,0,0,.3,0,.3,0,0-.1-.2-.2-.3,0,0,0,0,0,0,.1.7-.4,0-.5.2,0,.2-.3.2-.4.3-.1,0-.3-.1-.9-1.1-.3-.4-.6-.9-.7-1.2,0-.2-.2-.4-.2-.5,0-.1,0-.3,0-.4,0-.2,0-.8.2-.6,0,0,0-.2.3.2,0,0,0,0,0,0-.2-.8.3-.5.5-.6.2-.1,0-.8.4-.6-.1-.6,0-.6.2-.4.6.5.8,0,1.2,0,.4,0,.8-.2,1.2-.2,0,0,0-.4.2-.1.1.2.2,0,.3,0,0,0,.1-.2.2,0,.4.6.6.2.9.2.3,0,.6,0,.9,0,.2,0,.4-.4.6-.3,0,0,.2-.3.2.3,0,.2.1-.3.2-.3.1,0,.3,0,.4,0,.2,0,.4,0,.5,0,.1,0,.3-.3.4-.3.1,0,.2,0,.3,0,.1,0,.2.3.4.4.1,0,.3-.1.4.2.1.6.5.4.7.5.2.1.5.2.8.2.2,0,.1.5.2.5,0,0-.4,1.4-.6,1.9,0,0,0,.2-.1.2-.3.4-.6,1-.7,1-.1-.1-.3-.1-.5-.2Z"/>
    <path d="M268.7,140.1c0-.2,0-.4-.2-.6,0,0,.2-.2-.3-.2-.3,0,.3-.2.3-.3-.1-.2,0-.4-.2-.5,0-.2-.4-.3-.5-.5,0-.2.2-.4-.2-.5-.3,0,.2-.3,0-.4-.2-.1-.3-.3,0-.5.2-.1.3-.3.2-.4,0,0-.4,0-.4-.1,0,0,.3-.2-.4-.2,0,0,0,0,.1,0,.4-.1.4-.2,0-.2-.3,0-.3,0-.3-.1,0-.1-.1-.3,0-.5,0-.1.2-.3.3-.4,0-.1-.3-.2,0-.4.3-.2.3-.3.2-.4,0,0,.3-.2-.4-.1,0,0,0,0,0,0,.8-.3-.3-.3-.1-.5.2-.2,0-.4,0-.6,0,0,.2-.1-.3-.1-.2,0-.2,0,0,0,.6-.2.2-.3.3-.5.1-.2-.2-.3.3-.5.2,0,.3-.2-.3-.2-.3,0,0-.1,0-.2,0,0-.3,0-.3-.1,0,0,.2,0,.3-.1,0,0,0,0,0,0-.7-.2.2-.5,0-.7-.2-.2-.1-.5,0-.7,0-.1.2-.3,1.4-.4.5,0,1.1,0,1.4,0,.2,0,.5,0,.5.1.1,0,.2.1.3.2.2.1.7.3.5.4,0,0,.2,0-.3.2,0,0-.1,0,0,0,.8.2.3.4.4.6,0,.2.7.3.4.5.6,0,.5.2.4.3-.6.4-.2.7-.2,1,0,.3,0,.7,0,1,0,0,.4,0,0,.2-.3,0,0,.2,0,.2,0,0,.2.1,0,.2-.6.4-.2.6-.2.8,0,.3,0,.6.2.8.1.1.5.2.4.4,0,0,.3,0-.3.3-.2,0,.3,0,.3,0,0,.1,0,.2,0,.3,0,.2,0,.3.1.5,0,0,.3.1.4.2,0,0,.1.2,0,.3,0,.1-.2.3-.3.4,0,.1.3.2,0,.4-.4.3-.1.5-.1.7,0,.2,0,.5.2.7.1.1-.4.4-.3.5,0,0-1.4.5-1.9.6,0,0-.2,0-.2,0-.5,0-1.2,0-1.2,0,0-.2,0-.4-.2-.7Z"/>
    <path d="M278.9,129.5c-.2,0-.4-.1-.6,0,0,0-.1-.3-.3.3,0,.3,0-.4-.1-.4-.2,0-.4,0-.6,0-.2,0-.4.2-.6.3-.2,0-.3-.3-.6,0-.2.3-.3-.3-.4-.2-.2.1-.3.2-.5,0,0-.2-.2-.4-.3-.3,0,0-.2.4-.3.3,0,0-.1-.3-.3.3,0,0,0,0,0-.2,0-.4-.1-.4-.2-.1,0,.3-.1.2-.2.2-.2,0-.3,0-.5,0,0,0,0-.1,0-.2,0,0,0-.1,0-.2,0,0,0,.2,0,0,0-.3-.1-.3-.1-.3,0,0-.1-.3,0,.4,0,0,0,0,0,0-.2-.4-.2-.4-.1-.2,0,.2.1.4,0,.3,0,0,0,0,0,0,0,0,0,0,0,.1,0,0-.1-.1.2.3.1.1.1.1,0,0-.5-.5-.2-.2-.3-.2-.1,0,.1.1-.3,0-.2,0-.3,0,.2.2.3.1,0,0,0,0,0,0,.3.1.3.1,0,0-.2,0-.3,0,0,0,0,0,0,0,.6.2-.3.3,0,.5.2.2.1.3,0,.5,0,0-.2.2-1.3.4-.5.1-1.1.2-1.4.2-.2,0-.5,0-.5,0-.1,0-.2-.2-.4-.3-.2-.2-.7-.4-.5-.6,0,0-.2-.2.3-.2,0,0,.1,0,0,0-.8-.3-.2-.6-.2-.9,0-.3-.5-.8-.2-1.1-.5-.4-.3-.6-.1-.7.4-.2.6-.5.7-.8.1-.3.3-.6.5-.8.2-.2.4-.4.7-.5.3-.2.7-.3,1-.4.1,0,0-.4.3-.1.2.2.3,0,.5,0,.1,0,.3-.1.4,0,.6.7,1.1.4,1.4.5.3.1.6.2.9,0,.2,0,.4-.4.6-.2,0,0,.2-.3.2.3,0,.2.1-.3.2-.3.1,0,.3,0,.4,0,.2,0,.4,0,.5,0,.1,0,.3-.2.4-.3.1,0,.2,0,.3,0,.1,0,.2.3.4.4.1,0,.3-.2.4.1.2.5.5.3.8.4.3.1.5.2.8.1.2,0,.2.5.4.5,0,0-.1,1.5-.2,2,0,0,0,.2,0,.2-.2.4-.5,1.1-.6,1-.2-.1-.5-.1-.7-.1Z"/>
    <path d="M279.7,167.3c.2-.6.4-1.1.5-1.7,0-.2.4-.4-.1-.7-.2-.2.4-.2.5-.4,0-.5.3-1.1.4-1.6,0-.5,0-1.1,0-1.6,0-.5.5-1,.2-1.6-.2-.5.4-.8.3-1.2,0-.5,0-.9.2-1.3.2-.3.5-.6.4-.9,0-.2-.3-.4-.3-.6,0-.2.3-.4-.3-.6,0,0,0,0,.2-.1.4-.2.4-.4.2-.6-.3-.2-.2-.3-.2-.5,0-.4,0-.9,0-1.3,0-.3.3-.6.3-1,0-.3-.2-.7,0-1,.3-.3.2-.6.2-.9,0-.2.3-.4-.4-.5,0,0,0,0,0-.1.8-.6-.4-1-.2-1.5.1-.5-.1-1-.2-1.6,0-.1.1-.3-.4-.3-.2,0-.2-.1-.1-.2.3-.3.3-.5.2-.7,0-.2-.2-.3-.2-.7,0-.8-.3-1.3.2-1.9.2-.2.3-.5-.3-.8-.3-.1,0-.4,0-.6,0-.2-.3-.3-.3-.5,0-.1.2-.2.4-.4,0,0,0,0,0-.1-.6-.8.3-1.4.2-2.1-.2-.7,0-1.3,0-1.9,0-.3.2-.5,1.2-1,.5-.3,1-.5,1.3-.4.3,0,.6.2.6.3.1.3.3.5.4.8.3.5.8,1,.5,1.6,0,.2.2.4-.3.5,0,0-.1,0,0,.1.8.7.2,1.4.2,2,0,.6.6,1.1.3,1.6.6.3.5.6.3.9-.3.4-.3.9-.3,1.1.2.6.4,1.1.5,1.7.1,1.2.4,2.4.5,3.6,0,.2.4.3.1.6-.2.2,0,.5,0,.8,0,.2.2.5,0,.7-.6.9-.2,1.9-.3,2.8,0,.9-.2,1.8-.1,2.7,0,.6.3,1.1.1,1.7,0,.2.2.5-.4.7-.2,0,.2.3.2.5,0,.4,0,.8-.2,1.1,0,.5-.2,1-.3,1.6,0,.3.1.7.1,1,0,.3,0,.7-.2,1-.2.4-.5.8-.6,1.2-.2.4,0,.9-.4,1.3-.7.6-.7,1.4-1,2.1-.3.7-.6,1.4-.7,2.2,0,.4-.7.6-.8,1,0,.2-1.5,0-2-.3,0,0-.2-.1-.2-.2-.3-.5-.9-1.1-.7-1.5.3-.6.4-1.3.7-1.9Z"/>
    <path d="M327.6,258.2s0,0-.1-.1c0,0,.1-.2-.3.2-.2.2.2-.3.2-.3-.1,0-.2-.1-.3-.1-.1,0-.3.1-.5.1-.1,0-.1-.3-.4,0-.2.2-.1-.3-.3-.2-.2,0-.3.1-.3-.2,0-.2,0-.4-.2-.4,0,0-.2.3-.3.3,0,0,0-.3-.3.3,0,0,0,0,0-.2,0-.4,0-.4-.2-.2-.1.2-.2.2-.2.2-.2,0-.3,0-.4-.1,0,0-.1-.3-.2-.4,0,0-.3.1-.3-.2,0-.3-.1-.3-.2-.4,0,0,0-.3-.3.3,0,0,0,0,0,0,0-.8-.4.1-.5-.1-.1-.3-.3-.2-.5-.2,0,0,0-.2-.2.2,0,.1-.1.2-.1,0,0-.6-.2-.3-.3-.5-.1-.2-.4,0-.4-.4,0-.2,0-.4-.3.2-.1.2-.1,0-.2,0,0,0-.2.3-.2.3,0,0,0-.2,0-.4,0,0,0,0,0,0-.4.6-.4-.4-.6-.3-.3.1-.5,0-.7-.2-.1,0-.2-.3,0-1.4.1-.5.3-1,.4-1.3.1-.2.2-.4.3-.5,0,0,.2-.2.3-.2.2-.1.5-.6.6-.3,0,0,.2-.2,0,.3,0,0,0,.1,0,0,.4-.7.5-.1.7-.1.2,0,.5-.5.6-.2.3-.6.4-.4.4-.2.1.7.6.4.9.6.3.2.7.2,1,.4,0,0,.2-.3.2,0,0,.3.1.1.2.1,0,0,.2,0,.2,0,0,.7.5.4.7.6.2.2.5.3.8.2.2,0,.5-.3.6-.1,0,0,.2-.2.1.4,0,.2.2-.2.2-.2.1,0,.3,0,.4.1.2,0,.4.2.6.2.1,0,.4-.1.5-.1.2,0,.3,0,.4.2.1.2.2.4.3.6.1.2.5,0,.5.4,0,.6.4.7.6,1.1.2.4.4.8.6,1.2.1.3-.3.6-.3.8,0,.1-1.5.3-2,.3,0,0-.2,0-.2,0-.5,0-1.2,0-1.1,0,0,0,0,0,0,0Z" fill="#00b4e9"/>
    <path d="M294.1,312.7c-.2-.1-.4-.3-.6-.3,0,0,0-.3-.4.1-.2.2,0-.4,0-.4-.2,0-.3-.2-.6-.3-.2,0-.5,0-.7,0-.2,0-.2-.4-.6-.2-.3.2-.2-.4-.4-.3-.2,0-.4,0-.4-.3,0-.2,0-.5-.2-.4,0,0-.3.3-.4.2,0,0,0-.3-.4.2,0,0,0,0,0-.2.2-.4,0-.4-.2-.2-.2.2-.2.1-.3.1-.2,0-.3-.1-.4-.3,0-.1,0-.4-.1-.5,0-.1-.4,0-.3-.3,0-.3,0-.4-.1-.4,0,0,0-.3-.4.2,0,0,0,0,0,0,.3-.8-.5,0-.5-.3,0-.3-.3-.3-.5-.4,0,0,0-.2-.3.1-.1.1-.2.1-.1,0,.2-.6-.1-.4-.2-.6,0-.2-.4,0-.3-.6,0-.2,0-.4-.4,0-.2.2-.1,0-.2,0,0,0-.3.2-.3.2,0,0,0-.2,0-.4,0,0,0,0,0,0-.6.4-.3-.5-.6-.5-.3,0-.5-.2-.7-.5,0-.1,0-.4.5-1.3.3-.4.6-.9.9-1.1.2-.2.4-.3.4-.3.1,0,.3,0,.4-.1.2,0,.7-.4.7,0,0,.1.2-.1,0,.3,0,0,0,.1,0,0,.7-.5.5,0,.7.1.2,0,.7-.3.7,0,.5-.5.5-.3.5,0,0,.8.5.6.8.9.3.3.6.4.9.7,0,0,.3-.2.2,0,0,.3.1.1.2.2,0,0,.2,0,.2.1-.1.7.4.6.6.8.2.2.4.4.8.5.2,0,.6-.2.6,0,0,0,.3-.2,0,.4,0,.2.2-.2.3-.2.1,0,.2.1.3.2.2,0,.3.2.5.3.1,0,.3-.1.5-.1.1,0,.2,0,.3.2,0,.1,0,.4.2.5,0,.1.4,0,.4.3,0,.6.3.5.5.7.2.2.4.4.7.4.2,0,0,.5.2.6,0,0-.6,1.4-.8,1.8,0,0-.1.2-.1.2-.4.3-.8.9-1,.8-.2-.2-.4-.3-.6-.4Z" fill="#00b4e9"/>
    <path d="M253.2,324.3c0-1.3,0-2.5,0-3.8,0-.5.2-.9-.3-1.4-.3-.2.4-.7.3-1.1,0-1.2,0-2.3,0-3.5,0-1.1-.3-2.3-.4-3.4,0-1.1.2-2.3,0-3.4-.3-.9.2-1.8,0-2.7-.1-1-.2-1.9,0-2.9.2-.7.4-1.4.3-2,0-.4-.4-.8-.4-1.3,0-.4.3-.9-.3-1.3,0,0,0-.2.1-.3.4-.5.4-1,.1-1.4-.3-.4-.2-.7-.2-1.1,0-1,0-1.9,0-2.9,0-.7.3-1.4.4-2.2,0-.8-.2-1.6,0-2.2.3-.7.3-1.4.3-2,0-.4.3-.8-.3-1.2,0,0,0-.2,0-.2.8-1.1-.2-2.2,0-3.3.2-1.2,0-2.3,0-3.5,0-.3.2-.6-.3-.9-.2-.1-.2-.4,0-.6.6-.9.3-1.8.4-2.7.1-1-.2-2,.3-3,.2-.4.3-1-.3-1.5-.3-.2,0-.7,0-1.1,0-.3-.3-.6-.3-.9,0-.3.2-.5.3-.8,0,0,0-.2,0-.2-.7-1.5.3-2.9.1-4.4-.2-1.5,0-3,0-4.5,0-.8.3-1.7,1.4-2.2.5-.2,1.1-.2,1.4.1.2.3.5.6.5.9.1.5.2.9.3,1.4.2,1,.7,1.9.4,2.9,0,.3.2.7-.3.9,0,0-.1.2,0,.2.8,1.3.2,2.7.3,4,0,1.1.7,2.3.4,3.4.6.6.5,1.4.3,2-.7,2.3-.3,4.5-.4,6.8-.1,2.3,0,4.6,0,6.9,0,.4.3.7,0,1.2-.3.4,0,1,0,1.5,0,.5.1.9,0,1.4-.7,1.8-.3,3.6-.4,5.4,0,1.8-.1,3.6,0,5.4,0,1.1.4,2.2.3,3.3,0,.5.3,1-.3,1.4-.2.1.3.6.3.9,0,.8,0,1.5,0,2.3,0,1,0,2.1,0,3.1,0,.6.3,1.3.4,1.9,0,.7,0,1.3,0,2,0,.8-.3,1.7-.3,2.5,0,.9.2,1.8,0,2.6-.5,1.6-.2,3.1-.3,4.7,0,1.5,0,3.1.1,4.6,0,.9-.4,1.7-.3,2.5,0,.4-1.4,1-1.9.9,0,0-.2,0-.2-.1-.5-.8-1.3-1.6-1.3-2.6,0-1.4,0-2.9,0-4.3Z"/>
    <g>
      <path d="M228.5,324.7c15.1-.4,30.3,1.1,45.1,4.3,1.3.3,2.6.6,3.7,1.4,2.2,1.8,2.1,5.1,1.8,7.9-1.8,17.1-5,34.1-9.4,50.7-.4,1.6-.9,3.3-2.1,4.5-1.6,1.6-4.1,1.9-6.4,2.1-18.2,1.3-36.3-1.6-54.3-4.4-3.9-.6-8.3-1.6-10-5.1-1.5-2.9-.5-6.3.5-9.4,5.1-14.7,11.9-28.8,20.4-41.9,2.5-3.8,8.5-10.6,13.1-10.4"/>
      <path d="M215.9,341.5c-2.2,3.6-4.2,7.3-6.1,11-.7,1.4-1.6,2.7-1.9,4.4-.1.8-1.3,1.9-1.9,3.3-1.6,3.6-3.2,7.2-4.5,10.8-.7,1.8-1.2,3.6-1.8,5.4-.6,1.8-1.1,3.6-1.3,5.2-.2,1.6,0,3,.6,4,.7,1.1,2,1.9,3.5,2.3,1.3.3,2.7.7,4,1,1.4.3,2.9.6,4.4.8,3.2.4,6.5.8,9.6,1.5,2.2.5,4.5,1,6.7,1.2,1.4,0,2.8,0,4.3.1,1.4.2,3,.6,4.3.1.1,0,.7.1,1.1.2,1.5.5,3.4.7,4.7.5,1.3-.2,2.4,0,3.5,0,3.2.1,6.4.1,9.6.1,2.4,0,4.8.1,7.1,0,1.2,0,2.2-.3,3-.7.8-.4,1.2-.8,1.7-1.4.5-.6.9-1.6,1.2-2.7.3-1.1.6-2.2.9-3.3.3-1.3,1-2.7.6-3.9,0-.1,0-.6.2-.8,1.7-3.4,1.4-7.2,2.4-10.9,1-3.8,1.6-7.7,2.2-11.6.2-1,.5-2.1.2-3.1-.1-.4,0-1.4.2-2,1.1-2.8,1.1-5.9,1.6-8.8.3-1.7.4-3.4.6-5.1.2-1.7.4-3.2.5-4.7,0-.6,0-1.3-.3-1.8-.3-.5-.8-.9-1.3-.9-.3,0-.6-.2-1.1-.3-.5-.2-1.2-.4-1.8-.5-1-.2-2-.1-3-.3-.8-.2-1.6-.6-2.5-.8-.2,0-.6-.1-.8-.1-5-.2-9.7-1.8-14.7-2.1-5-.3-10-.7-15-.9-2.8-.1-5.6-.3-7.5-1.4-.9-.5-.9-1.1.3-1.4.9-.3,1.9-.5,2.9-.6,1.6-.1,3.2-.2,4.8-.3,3.3-.1,6.5-.5,9.9,0,1,.2,2.3,0,3.1.5.1,0,.5.2.7.1,4.6-.4,9.2.8,13.7,1.4,1.9.3,3.9.5,5.8.7,1,.1,1.9.3,2.9.4.9.2,1.9.4,3.1.8.7,0,1.5.3,2.2.7.8.5,1.5,1.1,2,1.9,1,1.5,1.3,3.2,1.3,4.5,0,2.4-.4,4.3-.7,6.2l-.8,5.7c-.5,3.8-1,7.7-1.6,11.5-1.4,7.7-2.8,15.4-4.7,23-.3,1.3-.2,2.5-.9,3.9-.6,1.4-.9,3.2-1.3,4.9-.2.8-.4,1.6-.8,2.5-.3.9-.9,1.8-1.6,2.6-.8.8-1.7,1.3-2.6,1.7-.9.4-1.8.6-2.7.7-1.7.3-3.3.3-4.8.4-3.1.2-6.2.3-9.3.2-6.1-.2-12.3-.7-18.4-1.2-3.7-.3-7.4-.4-11.1-1.1-1.6-.3-3.3-.2-4.8-1-.4-.2-2,0-3-.1-2.5-.3-5-.7-7.6-1.2-1.8-.3-3.7-.8-5.6-1.7-.9-.4-1.9-1-2.7-1.8-.9-.8-1.6-1.7-2.1-2.8-.7-1.3-1-2.7-1.1-4.1,0-1.3,0-2.6.3-3.8.3-1.2.6-2.4,1-3.5.4-1.1.8-2.2,1.2-3.2,1.1-2.7,2.3-5.3,3.5-7.9,1.2-2.7,2.2-5.7,3.7-8.2,2.7-4.6,5-9.4,7.7-14,1.3-2.3,2.7-4.5,4.1-6.7l1.1-1.7c.4-.6.8-1.2,1.2-1.7.8-1.1,1.7-2.2,2.6-3.2,1-1.2,2.2-2.1,3.4-3,1.3-.9,2.6-1.6,4.1-2.3.4-.1.8-.2,1.2-.2.5,0,.9.1,1.2.4.7.4.9.9.6,1.2,0,.1-.3.2-.5.3-1.2.3-2.2,1.2-3.1,2-.9.9-1.9,1.9-3,2.9-1.6,1.5-3.2,3.3-4.4,5.2-1.3,1.9-2.5,4-3.8,6Z"/>
    </g>
    <path d="M294.1,138.3c.9-.1.9,0,1.2-.2.1,0,.2-.1.2-.3,0-.1,0-.2,0-.4v-.4c0,0-.2-.8-.2-.8-.1-.8,0-1.6-.6-2.4-.3-.4.3-1.2.2-1.9-.3-2-.4-4-.6-5.9-.3-1.9-.7-3.8-1.1-5.5-.2-.9-.4-1.8-.6-2.6-.2-.8-.6-1.5-1-1.9-.4-.3-.6-.5-.9-.8-.3-.3-.8-.5-1.4-.5-.6,0-1.4,0-2.2,0-.8,0-1.6,0-2.4-.2-1.1-.2-2.3-.5-3.4-.4-.7,0-1.4.4-2.2.3-.7,0-1.5-.3-2.2.3,0,0-.4,0-.5-.2-.8-.4-1.7-.4-2.4-.1-.6.3-1.2.2-1.8.3-1.6,0-3.3,0-4.9,0-1.2,0-2.4-.2-3.7-.2-1.3,0-2.6.3-3.8,0-1.2-.3-2.3-.2-3.5-.1-.7,0-1.4-.2-1.9.5,0,0-.3,0-.4,0-1.9-.7-3.7.5-5.6.5-2,0-3.9.3-5.9.5-.5,0-1.1,0-1.5.4-.2.2-.7.3-1,.2-.7-.2-1.4-.2-1.9,0-.5.1-.9.4-1.2.6-.8.5-1.1,1.8-1.8,3.1-.3.6-.6,1.5,0,2.4.2.4,0,1.2,0,1.8,0,.5.3,1,.3,1.5,0,.4-.3.8-.4,1.3,0,.1,0,.3,0,.4.6,2.5-.2,4.9,0,7.4.3,2.5.4,5.1,1,6.8.2.4.4.8.4,1.2,0,.2,0,.4,0,.6,0,.2.1.5.2.8.1.3.2.5.2.7,0,.2-.2.5-.6.6-.6.2-1.3,0-1.9-.4-.8-.6-1.4-1.4-1.9-2.3-.9-1.7-1.6-3.5-1.5-5.2,0-.5-.3-1.1.2-1.6,0,0,0-.3,0-.4-.9-2.2-.5-4.7-.5-7,0-2-.6-3.9-.2-6-.5-1.2-.3-2.6.2-3.8.4-1.1.8-2.2,1.5-3.3.7-1.1,1.7-2.2,2.9-2.9,1.2-.7,2.4-1,3.5-1.1,1.1-.2,2-.2,3-.3,3.9-.3,7.9-.7,11.8-.9.7,0,1.2-.4,2-.2.8.2,1.7,0,2.6,0,.8,0,1.6-.2,2.4,0,3.1.5,6.2,0,9.3,0,3.1,0,6.2,0,9.2,0,1.9,0,3.8-.4,5.6-.2.8,0,1.7-.2,2.4.4.2.2,1-.3,1.5-.2,1.4,0,3.1.2,4.7,1.2,1.1.7,2,1.7,2.6,2.7.6,1,.9,2,1.3,2.9.4,1.2.9,2.2,1.1,3.3.3,1.2.4,2.4.5,3.6.1,1.5,0,2.9.1,4.4,0,1.5.5,3,.4,4.5,0,.8,0,1.6,0,2.4,0,.4,0,.8,0,1.2v.6c0,0,.2.9.2.9,0,.4,0,.9,0,1.3,0,.4-.2.8-.5,1.2-.5.7-1.3,1.2-2.1,1.4-.3,0-.5.1-.8.2-.3,0-.6,0-.7.1-.4,0-.7,0-1.1.1l-2,.2c-.6,0-1.2.1-1.7.3-.2,0-.4.1-.6.2,0,0,0,0-.1,0,0,0,0,0,0,0,0,0,0,0-.1-.1h0c0,0,0,0,0,0h0s0,0,0,0h0c-.2-.1.3.2.3.1h0s0,0,0,0h0s0,0,0,0v.2c-.2.1-.2.1-.3.2h0s0,0,0,0c0,0,0,0,0,.1,0,.1.2.2.4.3,0,0,0,0,.1,0h0s0,0,0,0h0s0,.2,0,.2c0,.3,0,.7-.1,1,0,0,0,0,0,0,0,0,0,0,0,0,0,0,0,.1,0,.3,0,.2-.1.4-.2.7,0,.3,0,.2,0,.2h0c0,0,0,0,0,0h0c0-.3-.1-.4-.2-.5-.2-.5-.4-1-.2-1.2,0,0,.2-.2.3-.2h.3c.1,0,.2-.1.4,0h0c0,0,.3.1.5.3.2.2.2.4.3.5,0,.1,0,.5-.3.8-.1.1-.3.2-.4.3-.1,0-.3,0-.3,0h0s-.2,0-.2,0h-.2c-.1,0-.2,0-.4,0-.5,0-1,0-1.6-.4-.5-.3-1.1-.8-1.4-1.6-.3-.8-.2-1.6,0-2.2.2-.5.2-.8.7-1.4.4-.5.9-.9,1.3-1.1.9-.5,1.6-.6,2.3-.8,1.4-.2,2.6-.3,3.7-.4Z" fill="#00b4e9"/>
    <path d="M260.2,111.7c0-.4,0-.8,0-1.2,0-.1.2-.3-.3-.4-.3,0,.4-.2.3-.3,0-.4,0-.7,0-1.1,0-.3-.3-.7-.3-1,0-.3.2-.7,0-1-.3-.3.2-.5.1-.8-.1-.3-.2-.6,0-.9.2-.2.4-.4.3-.6,0-.1-.4-.3-.4-.4,0-.1.3-.3-.3-.4,0,0,0,0,.1,0,.4-.1.4-.3.1-.4-.3-.1-.2-.2-.3-.3,0-.3,0-.6,0-.9,0-.2.3-.4.3-.7,0-.2-.2-.5,0-.7.3-.2.3-.4.3-.6,0-.1.3-.3-.3-.4,0,0,0,0,0,0,.8-.3-.3-.7,0-1,.2-.4,0-.7,0-1.1,0,0,.2-.2-.3-.3-.2,0-.2-.1,0-.2.6-.3.2-.5.4-.8.1-.3-.2-.6.3-.9.2-.1.3-.3-.3-.5-.3,0,0-.2,0-.3,0,0-.3-.2-.3-.3,0,0,.2-.2.3-.2,0,0,0,0,0,0-.7-.5.2-.9,0-1.4-.2-.5-.1-.9,0-1.4,0-.3.2-.5,1.4-.7.5,0,1.1,0,1.4,0,.2,0,.5.2.5.3,0,.1.2.3.3.4.2.3.7.6.4.9,0,0,.2.2-.3.3,0,0-.1,0,0,0,.8.4.3.8.3,1.2,0,.4.7.7.4,1,.6.2.5.4.3.6-.7.7-.2,1.4-.3,2.1,0,.7,0,1.4,0,2.1,0,.1.4.2,0,.4-.3.1,0,.3,0,.5s.1.3,0,.4c-.7.6-.3,1.1-.3,1.7,0,.6-.1,1.1,0,1.7,0,.3.4.7.3,1,0,.1.3.3-.3.4-.2,0,.3.2.3.3,0,.2,0,.5,0,.7s0,.6,0,1c0,.2.3.4.3.6,0,.2,0,.4,0,.6,0,.3-.3.5-.3.8,0,.3.2.5,0,.8-.5.5-.3,1-.3,1.4,0,.5-.1,1,0,1.4,0,.3-.4.5-.4.8,0,.1-1.5.3-2,.2,0,0-.2,0-.2,0-.5-.3-1.2-.5-1.1-.8,0-.4,0-.9,0-1.3Z" fill="#00b4e9"/>
    <path d="M330,92.2c-2.3,0-4.5,0-6.8,0-.8,0-1.7-.5-2.6.6-.4.5-1.2-.7-2-.7-2.1.1-4.2,0-6.3,0-2,.1-4.1.6-6.1.7-2,.1-4.1-.5-6.1.2-1.7.6-3.2-.4-4.8-.2-1.7.3-3.5.4-5.2,0-1.2-.3-2.4-.8-3.7-.6-.8.1-1.5.8-2.3.7-.8,0-1.6-.6-2.3.7,0,.1-.4-.1-.6-.3-.8-.8-1.8-.8-2.5-.2-.7.5-1.3.5-1.9.5-1.7,0-3.5.1-5.2,0-1.3,0-2.6-.6-3.9-.7-1.3-.1-2.8.4-4-.2-1.3-.6-2.4-.6-3.7-.6-.7,0-1.5-.6-2.1.7,0,.1-.3.1-.4,0-2-1.7-3.9.5-6,.1-2.1-.4-4.2-.1-6.3,0-.6,0-1.2-.4-1.7.6-.2.3-.8.4-1.1.1-1.6-1.3-3.2-.5-4.8-.7-1.8-.2-3.6.3-5.5-.6-.8-.4-1.8-.6-2.8.5-.4.5-1.3,0-2,.1-.5.1-1.1.6-1.6.7-.5,0-.9-.5-1.4-.7-.1,0-.3,0-.4,0-2.7,1.3-5.3-.4-8,0-2.7.4-5.4.2-8.1,0-1.5-.1-3-.5-4-2.8-.5-1-.5-2.1.2-2.8.5-.5,1-.9,1.5-1.1.9-.2,1.7-.5,2.5-.7,1.7-.4,3.4-1.5,5.2-.9.6.2,1.2-.4,1.7.6,0,.1.3.2.4.1,2.4-1.6,4.8-.5,7.3-.7,2.1,0,4-1.4,6.1-.8,1.1-1.3,2.5-1,3.6-.7,4.1,1.3,8.2.4,12.2.6,4.1.2,8.3,0,12.4,0,.7,0,1.3-.7,2.1-.2.8.5,1.8.1,2.7.1s1.7-.3,2.5,0c3.2,1.3,6.5.5,9.7.7,3.2.1,6.5.3,9.7,0,2-.2,3.9-.9,5.9-.6.8.1,1.7-.6,2.6.6.2.3,1-.6,1.6-.6,1.3-.1,2.7,0,4.1,0s3.8,0,5.6,0c1.1,0,2.3-.6,3.4-.7,1.2-.1,2.4-.1,3.6,0,1.5.2,3,.6,4.5.7,1.6.1,3.2-.4,4.7.1,2.8,1,5.6.5,8.4.6,2.8.1,5.6.2,8.3,0,1.6-.1,3,.9,4.6.9.7,0,1.7,2.9,1.4,4,0,.2-.2.4-.3.5-1.5.9-2.9,2.4-4.6,2.3-2.6-.1-5.1,0-7.7,0Z"/>
    <path d="M263.9,356.9c-.9,0-1.9,0-2.8.1-.4,0-.7-.2-1.1.3-.2.3-.5-.4-.9-.3-.9.1-1.8,0-2.6.1-.9,0-1.7.3-2.6.4-.8,0-1.7-.2-2.5.1-.7.3-1.4-.2-2,0-.7.1-1.5.2-2.2,0-.5-.2-1-.4-1.5-.3-.3,0-.6.4-1,.4-.3,0-.7-.3-1,.3,0,0-.2,0-.2-.2-.3-.4-.8-.4-1.1-.1-.3.3-.5.2-.8.2-.7,0-1.5,0-2.2,0-.5,0-1.1-.3-1.6-.4-.6,0-1.2.2-1.7-.1-.5-.3-1-.3-1.5-.3-.3,0-.6-.3-.9.3,0,0-.1,0-.2,0-.8-.9-1.7.2-2.5,0-.9-.3-1.8-.1-2.6-.2-.2,0-.5-.2-.7.2,0,.2-.3.2-.4,0-.6-.7-1.3-.3-2-.5-.8-.2-1.5,0-2.3-.5-.3-.2-.7-.4-1.2.2-.2.3-.6,0-.8,0-.2,0-.5.3-.7.3-.2,0-.4-.3-.6-.4,0,0-.1,0-.2,0-1.2.6-2.2-.4-3.3-.3-1.1,0-2.3,0-3.4-.3-.6-.1-1.2-.4-1.5-1.5-.1-.5,0-1.1.2-1.4.2-.2.5-.4.7-.5.4,0,.7-.2,1.1-.2.7-.1,1.5-.6,2.2-.2.2.1.5-.2.7.4,0,0,.1.1.2,0,1.1-.7,2,0,3,0,.9,0,1.7-.6,2.6-.2.5-.6,1.1-.4,1.5-.2,1.6.8,3.4.4,5,.6,1.7.2,3.4.2,5.1.3.3,0,.6-.3.9,0,.3.3.7,0,1.1,0,.3,0,.7-.1,1,0,1.3.7,2.7.3,4,.4,1.3,0,2.7.2,4,0,.8,0,1.6-.4,2.5-.3.4,0,.7-.3,1.1.3,0,.2.4-.3.7-.3.6,0,1.1,0,1.7,0,.8,0,1.6,0,2.3,0,.5,0,.9-.3,1.4-.4.5,0,1,0,1.5,0,.6,0,1.3.3,1.9.3.7,0,1.3-.2,2,0,1.2.5,2.3.2,3.5.2,1.2,0,2.3,0,3.5-.2.6-.1,1.3.4,1.9.3.3,0,.8,1.4.7,1.9,0,0,0,.2-.1.2-.6.5-1.1,1.3-1.9,1.2-1.1,0-2.1,0-3.2.1Z" fill="#00b4e9"/>
    <path d="M226.5,363.6c0-.2,0-.3,0-.5,0,0,.2-.1-.3-.2-.3,0,.4,0,.3-.1,0-.2,0-.3,0-.5,0-.2-.3-.3-.3-.5,0-.2.3-.3,0-.5-.3-.2.2-.2.1-.4-.1-.1-.2-.3,0-.4.2,0,.4-.1.3-.2,0,0-.4-.2-.3-.2,0,0,.3,0-.3-.2,0,0,0,0,.2,0,.4,0,.4,0,.1-.2-.3,0-.2-.1-.2-.2,0-.1,0-.3,0-.4,0,0,.3-.2.4-.2,0,0-.2-.2.1-.3.3,0,.3-.1.3-.2,0,0,.3,0-.3-.2,0,0,0,0,0,0,.8,0-.2-.3,0-.5.2-.1.1-.3.1-.5,0,0,.2,0-.3-.2-.2,0-.2,0,0,0,.6,0,.3-.2.4-.3.1-.1-.1-.3.4-.3.2,0,.3,0-.2-.3-.3,0,0,0,0-.2,0,0-.3-.2-.3-.2,0,0,.2,0,.4,0,0,0,0,0,0,0-.6-.4.3-.3.2-.6-.1-.2,0-.4.1-.6,0,0,.3-.2,1.4,0,.5.1,1,.2,1.3.4.2,0,.4.2.5.2,0,0,.2.2.3.3.2.2.6.4.3.5,0,0,.2.1-.3,0,0,0-.1,0,0,0,.7.3.2.4.2.6,0,.2.6.4.3.5.6.2.5.3.3.3-.7.1-.3.5-.5.7-.1.3,0,.6-.2.8,0,0,.3.1,0,.2-.3,0,0,.1,0,.2,0,0,.1.1,0,.2-.7.1-.3.4-.4.6,0,.2-.2.4,0,.7,0,.1.4.3.3.4,0,0,.3.1-.3.1-.2,0,.3,0,.3.1,0,0,0,.2,0,.3,0,.1,0,.3,0,.4,0,0,.3.2.3.3,0,0,0,.2,0,.2,0,0-.3.2-.4.3,0,.1.2.2,0,.3-.5.2-.3.4-.3.6,0,.2-.1.4,0,.6,0,.1-.4.2-.4.3,0,0-1.5.1-2,.1,0,0-.2,0-.2,0-.5-.1-1.2-.2-1.1-.3,0-.2,0-.4,0-.6Z" fill="#00b4e9"/>
    <path d="M325.6,333.3c0-.8,0-1.6,0-2.4,0-.3.3-.6-.3-.9-.3-.2.4-.4.4-.7,0-.8,0-1.5,0-2.3,0-.7-.2-1.5-.3-2.2,0-.7.3-1.5,0-2.2-.3-.6.3-1.1.2-1.7,0-.6-.2-1.3.1-1.8.2-.4.4-.8.3-1.3,0-.3-.4-.5-.3-.8,0-.3.3-.6-.3-.8,0,0,0-.1.2-.2.4-.3.4-.6.2-.9-.3-.3-.2-.5-.2-.7,0-.6,0-1.2.1-1.9,0-.5.3-.9.4-1.4,0-.5-.2-1,.2-1.4.3-.4.4-.8.4-1.3,0-.2.3-.5-.3-.8,0,0,0-.1,0-.2.9-.6-.1-1.4.1-2.1.3-.7.2-1.5.2-2.2,0-.2.2-.4-.2-.6-.2,0-.2-.3,0-.4.7-.5.3-1.1.5-1.7.2-.6,0-1.3.5-1.9.2-.3.4-.6-.2-1-.3-.2,0-.5,0-.7,0-.2-.3-.4-.3-.6,0-.2.3-.3.4-.5,0,0,0-.1,0-.2-.6-1,.4-1.9.4-2.8,0-1,.1-1.9.3-2.9.1-.5.4-1,1.6-1.2.5,0,1.1,0,1.4.2.2.2.4.4.5.6,0,.3.1.6.2.9.1.6.6,1.3.2,1.9-.1.2.2.4-.4.5,0,0-.1,0,0,.1.7.9,0,1.7,0,2.6,0,.7.5,1.5.2,2.2.6.5.4.9.2,1.3-.8,1.4-.5,2.8-.7,4.3-.2,1.4-.3,2.9-.4,4.4,0,.2.3.5,0,.8-.3.3-.1.6-.1.9,0,.3,0,.6,0,.9-.7,1.1-.4,2.3-.6,3.4-.1,1.1-.3,2.3-.2,3.4,0,.7.4,1.4.2,2.1,0,.3.3.6-.3.9-.2,0,.3.4.3.6,0,.5,0,1,0,1.4,0,.7,0,1.3,0,2,0,.4.3.8.3,1.2,0,.4,0,.9,0,1.3,0,.5-.3,1.1-.4,1.6,0,.6.2,1.1,0,1.7-.5,1-.3,2-.4,3,0,1-.1,2,0,2.9,0,.6-.4,1.1-.4,1.6,0,.3-1.5.6-2,.5,0,0-.2,0-.2-.1-.5-.5-1.2-1-1.1-1.6,0-.9,0-1.8,0-2.7Z"/>
    <path d="M270,434.2c-.1-.8-.2-1.6-.4-2.4,0-.3.1-.6-.4-.9-.3-.1.3-.5.2-.8-.2-.7-.2-1.5-.4-2.3-.2-.7-.5-1.4-.7-2.1-.2-.7,0-1.5-.4-2.2-.4-.6,0-1.2-.2-1.7-.2-.6-.4-1.2-.3-1.9,0-.5.2-.9,0-1.4-.1-.3-.5-.5-.5-.8,0-.3.2-.6-.5-.8,0,0,0-.2.1-.2.3-.4.2-.7,0-.9-.3-.2-.3-.4-.4-.6-.2-.6-.3-1.2-.4-1.8,0-.5,0-1,0-1.4,0-.5-.4-.9-.2-1.4.2-.5,0-.9,0-1.4,0-.2.2-.6-.5-.7,0,0,0-.1,0-.2.7-.9-.6-1.3-.5-2.1,0-.8-.3-1.5-.5-2.2,0-.2,0-.4-.4-.5-.2,0-.2-.2-.1-.4.5-.7,0-1.2,0-1.8,0-.7-.5-1.2-.2-2,.1-.3.2-.7-.5-.9-.3,0-.1-.5-.2-.7,0-.2-.4-.3-.5-.5,0-.2.1-.4.2-.6,0,0,0-.1,0-.2-.9-.8-.3-1.9-.7-2.8-.4-.9-.6-1.9-.8-2.8,0-.5,0-1.1,1-1.8.5-.3,1-.4,1.4-.3.3.1.5.2.7.4.2.3.4.5.6.8.3.6,1,1,.9,1.7,0,.2.3.4-.1.7,0,0,0,.1,0,.2,1,.6.7,1.7,1,2.5.2.7,1,1.3.9,2.1.7.3.7.8.6,1.2-.3,1.6.5,3,.7,4.4.2,1.5.7,3,.9,4.5,0,.3.4.4.2.8-.2.3,0,.6.1,1,0,.3.3.6.2.9-.4,1.3.2,2.4.4,3.6.2,1.2.3,2.4.7,3.5.2.7.7,1.3.7,2.1,0,.3.4.6-.1,1-.2.1.3.3.4.5.1.5.2,1,.3,1.5.1.7.2,1.4.4,2,.1.4.4.8.5,1.2.1.4.2.9.2,1.3,0,.6-.1,1.1,0,1.7,0,.6.4,1.1.2,1.7-.4,1.1,0,2.1.1,3.1,0,1,.2,2,.4,3,.1.6-.3,1.2-.2,1.7,0,.3-1.4.8-1.9.7,0,0-.2,0-.2,0-.5-.5-1.3-.9-1.3-1.5,0-.9-.2-1.8-.3-2.8Z"/>
    <path d="M259.8,504.5c0-1.2.2-2.5.3-3.7,0-.5.3-.9-.2-1.4-.2-.3.4-.7.4-1.1,0-1.2.2-2.3.3-3.5,0-1.1,0-2.3,0-3.4,0-1.1.5-2.2.3-3.3-.2-1,.4-1.7.4-2.6,0-1,0-1.9.4-2.8.3-.6.6-1.3.5-2,0-.4-.3-.9-.2-1.3,0-.4.4-.9-.2-1.3,0,0,0-.2.2-.3.5-.4.5-1,.3-1.4-.2-.4-.1-.7-.1-1.1,0-.9.2-1.9.4-2.8.2-.7.5-1.4.7-2.1.2-.7,0-1.6.4-2.2.4-.6.5-1.3.6-2,0-.4.4-.8-.2-1.2,0,0,0-.2,0-.2,1-.9.1-2.2.5-3.2.4-1.1.4-2.3.6-3.4,0-.3.3-.6-.1-1-.1-.1,0-.5,0-.6.8-.7.6-1.7.8-2.5.3-1,.2-2,.9-2.9.3-.4.5-.9,0-1.5-.2-.3.1-.7.2-1.1,0-.3-.2-.6-.1-.9,0-.3.3-.5.5-.7,0,0,0-.2,0-.2-.4-1.6.8-2.8,1-4.3.1-1.5.5-2.9,1-4.4.2-.8.6-1.6,1.8-1.9.6-.1,1.1,0,1.3.4.2.3.3.6.3.9,0,.5,0,1,0,1.4,0,1,.3,2-.2,2.9-.2.3,0,.7-.5.8,0,0-.1.1-.1.2.5,1.4-.3,2.6-.5,4-.2,1.1.2,2.3-.3,3.4.5.7.2,1.4,0,2-1.1,2.1-1.1,4.3-1.5,6.5-.5,2.2-.8,4.4-1.2,6.7,0,.4.2.8-.1,1.2-.3.4-.2.9-.3,1.4,0,.4,0,.9-.2,1.3-.9,1.6-.8,3.5-1.1,5.2-.3,1.7-.6,3.5-.7,5.3,0,1.1.2,2.2-.1,3.2-.1.5.2,1-.5,1.4-.2.1.2.6.2.9,0,.7-.2,1.5-.2,2.2-.1,1-.3,2-.3,3.1,0,.6.1,1.3.1,1.9,0,.7,0,1.3-.2,2-.2.8-.4,1.6-.6,2.4-.2.9,0,1.8-.3,2.6-.6,1.5-.5,3-.7,4.5-.2,1.5-.3,3-.3,4.5,0,.9-.5,1.6-.6,2.5,0,.4-1.5.8-2,.6,0,0-.2-.1-.2-.2-.4-.9-1.1-1.7-1-2.6.2-1.4.2-2.8.3-4.2Z"/>
    <path d="M275.6,512.8c-.2,0-.5,0-.7,0,0,0-.2-.2-.3.3,0,.3-.1-.4-.2-.3-.2,0-.5,0-.7,0-.2,0-.4.3-.7.3-.2,0-.4-.2-.7,0-.2.3-.4-.2-.5-.1-.2.1-.4.2-.6,0-.1-.2-.3-.4-.4-.3,0,0-.2.4-.3.4,0,0-.2-.3-.3.3,0,0,0,0,0-.1,0-.4-.2-.4-.3-.1,0,.3-.1.2-.2.3-.2,0-.4,0-.6,0-.1,0-.3-.3-.4-.3-.1,0-.3.2-.4,0-.1-.3-.3-.3-.4-.3,0,0-.2-.3-.2.3,0,0,0,0,0,0-.2-.8-.4.3-.6,0-.2-.2-.5,0-.7,0,0,0-.1-.2-.2.3,0,.2,0,.2-.1,0-.2-.6-.3-.2-.5-.4-.2-.1-.4.2-.6-.3,0-.2-.2-.3-.3.3,0,.3-.1,0-.2,0,0,0-.1.3-.2.3,0,0-.1-.2-.2-.3,0,0,0,0,0,0-.3.7-.6-.2-.9,0-.3.2-.6.1-.9,0-.2,0-.3-.2-.4-1.4,0-.5,0-1.1,0-1.4,0-.2.1-.5.2-.5,0,0,.2-.2.3-.3.2-.2.4-.7.6-.4,0,0,.1-.2.2.3,0,0,0,.1,0,0,.3-.8.5-.3.8-.3.2,0,.4-.7.7-.4.1-.6.3-.5.4-.3.4.7.9.2,1.3.3.4,0,.9,0,1.4,0,0,0,.1-.4.2,0,0,.3.2,0,.3,0s.2-.1.3,0c.4.7.7.3,1.1.3.4,0,.7.1,1.1,0,.2,0,.4-.4.6-.3,0,0,.2-.3.3.3,0,.2.1-.3.2-.3.1,0,.3,0,.4,0s.4,0,.6,0c.1,0,.2-.3.4-.3.1,0,.3,0,.4,0,.2,0,.3.3.5.3.2,0,.4-.2.5,0,.3.5.6.3.9.3.3,0,.6.1.9,0,.2,0,.3.4.5.4,0,0,.2,1.5.2,2,0,0,0,.2,0,.2-.2.5-.3,1.2-.5,1.1-.3,0-.6,0-.8,0Z"/>
    <path d="M306.5,491.7c1.4.5,2.8,1.1,4.2,1.6.5.2,1,.7,1.7.4.4-.1.6.7,1.1.9,1.3.5,2.6,1.2,3.9,1.7,1.3.5,2.6.9,3.9,1.5.6.3,1.2.6,1.8,1,.7.4,1.4.8,2.2,1.3.7.5,1.3,1.3,1.5,2.2.2.9.2,1.9,0,2.9-.2,1-.7,1.9-1.2,2.5-.6.6-1.2,1.1-1.9,1.4-1,.4-1.9.6-2.8,1-.5.3-.9.7-1.5.8-.5.1-1.2,0-1.5.7,0,0-.3,0-.4,0-.7-.3-1.3-.1-1.8.2-.4.3-.8.4-1.3.5-1.2.2-2.4.3-3.6.4-.9,0-1.8-.2-2.7-.2-.9,0-1.9.3-2.7,0-.8-.3-1.6-.3-2.5-.3-.5,0-1-.3-1.4.3,0,0-.2,0-.3,0-1.3-.8-2.6.3-3.9,0-1.4-.2-2.7,0-4.1,0-.4,0-.8-.1-1.1.4-.1.2-.5.2-.7.1-.5-.3-1-.3-1.5-.2h-.8c-.4.2-.9.3-1.3.3-.5,0-1,.1-1.6.2h-.8c0,.1-.4-.6-.4-.6-.3-.5-.5-1-.7-1.5-.1-.2-.2-.5-.3-.8v-.4c-.1,0-.1-.2-.1-.3,0-.6-.2-1.3-1-1.6-.2,0-.3-.3-.3-.5,0-.1,0-.2-.1-.4v-.2c0,0,0,0,0,0,0,0,0,0,0,0,0,0-.3,0-.3.1,0,0,.2-.2.2-.4,0,0,0,0,0,0-.3.4-.2.3-.2-.2,0-.3,0-.3-.2,0,0,.3,0,.4-.2.5h0c0,0,0,0,0,.1l-.2.3-.7,1.1c-.5.8-1.2,1.6-2.5,1.6-.6,0-1.1-.3-1.1-.8,0-.4,0-.8,0-1.1.2-.5.4-1.1.6-1.6.1-.3.2-.6.3-.8v-.4c.2-.1.2-.2.3-.5.4-.9.9-1.9,1.4-2.6.3-.4.6-1.5,1-1.2,0,0,.2,0,.2-.2.3-.9.6-1.8,1-2.5.2-.4.4-.7.6-1.1l.3-.5v-.2c.1,0,.3-.1.3-.1.4,1.3.7,2.7,1.1,3.9.4,1.1.9,2,1.4,3.1.3.5.5,1.1.8,1.6l.2.4v.2c.1.2.2.3.2.5.9.4,1.1,1.2,1.3,2,0,.3-.1.4,0,.6,0,0,.3,0,.5,0l2-.3c.7,0,1.4-.1,2.1-.2,2.8,0,5.6-.2,8.4-.1.5,0,.9-.4,1.4,0,.5.3,1.2,0,1.8,0,.5,0,1.1-.1,1.6,0,2.1.6,4.2.1,6.3,0,2.1-.1,4.1-.4,6-1.1.3-.1.6-.2.9-.3l.4-.2.3-.2c.5-.3.9-.5,1.3-.7.4-.2.5-.7,1.1-.5.2,0,0-.5,0-.6.1-.3.1-.4,0-.6,0-.2-.7-.9-1.8-1.3-.7-.3-1.4-.4-2.1-.7-.7-.3-1.4-.6-2.1-1-.9-.5-1.7-1.1-2.5-1.6-.9-.5-2-.7-2.8-1.3-1.5-1.2-3.3-1.6-5-2.3-1.7-.7-3.4-1.4-5.1-1.8-1-.3-1.7-1-2.7-1.3-.4-.1-.6-1.7-.3-2.2,0,0,.2-.2.3-.2,1.1-.2,2.2-.6,3.3-.2,1.6.6,3.2,1.1,4.9,1.7Z"/>
    <path d="M311.2,393.5c.3,1.8.5,3.5.8,5.3.1.7,0,1.4.6,2,.3.3-.2,1-.1,1.6.3,1.6.4,3.3.7,4.9.3,1.6.6,3.2.9,4.8.2,1.6,0,3.3.5,4.8.4,1.3,0,2.6.2,3.8.2,1.4.3,2.8.1,4.1-.2,1-.4,2-.3,2.9,0,.6.4,1.2.3,1.9,0,.6-.4,1.3.2,1.9,0,0,0,.3-.2.5-.5.6-.5,1.5-.3,2.1.2.6.1,1.1,0,1.6-.2,1.4-.4,2.8-.7,4.1-.2,1-.7,2-.9,3-.3,1-.2,2.2-.7,3.1-.5.9-.7,1.8-.9,2.8-.1.5-.5,1.1,0,1.7,0,0,0,.3,0,.3-1.2,1.3-.5,3.1-1.1,4.6-.6,1.5-.9,3.2-1.3,4.8-.1.4-.4.8,0,1.4.1.2,0,.6-.2.8-.9,1-.9,2.4-1.3,3.5-.5,1.3-.6,2.8-1.5,4.1-.4.5-.7,1.3-.3,2.2.2.4-.3,1-.4,1.5,0,.4,0,.9,0,1.3,0,.4-.4.6-.6,1,0,0-.1.2,0,.3,0,2.2-1.4,3.9-1.8,6-.4,2.1-1.1,4.1-1.8,6.1-.4,1.1-.9,2.2-2.2,2.7-.6.2-1.1,0-1.3-.5-.1-.4-.2-.9-.2-1.3,0-.7.2-1.3.2-2,.2-1.4,0-2.8.7-4.1.2-.4,0-1,.6-1.2,0,0,.2-.2.2-.3-.2-2,.8-3.7,1.3-5.6.4-1.6.2-3.2.9-4.7-.4-1,0-2,.5-2.8,1.5-2.9,1.9-6.1,2.8-9.1.9-3.1,1.6-6.3,2.4-9.4.1-.5-.1-1.1.3-1.6.4-.5.4-1.3.5-2,.1-.6.1-1.3.4-1.9,1.2-2.3,1.3-4.9,1.8-7.4.5-2.4.9-4.9.8-7.3,0-1.5-.4-3-.3-4.5,0-.6-.3-1.3.3-2,.2-.2-.3-.8-.4-1.2-.1-1-.1-2.1-.2-3.1-.1-1.5-.2-2.9-.4-4.4-.1-.9-.4-1.7-.6-2.6-.2-.9-.3-1.9-.3-2.8,0-1.2,0-2.4,0-3.6,0-1.2-.5-2.5-.4-3.7.2-2.2-.4-4.4-.6-6.5-.3-2.2-.6-4.3-1-6.4-.3-1.2,0-2.4-.1-3.6,0-.6,1.2-1.5,1.8-1.4.1,0,.2.1.3.2.6,1.1,1.5,2.1,1.7,3.4.2,2,.6,4,.9,6Z"/>
    <path d="M328.2,500.3c-.3-1.2-.6-2.4-1-3.6-.1-.4,0-1-.6-1.3-.3-.2.2-.8,0-1.2-.4-1.1-.5-2.3-.9-3.4-.3-1.1-.8-2.1-1.1-3.2-.3-1.1-.3-2.3-.8-3.2-.5-.8-.2-1.8-.5-2.6-.3-.9-.6-1.8-.6-2.8,0-.7.1-1.4-.1-2-.2-.4-.5-.7-.6-1.2,0-.4,0-.9-.6-1.2,0,0,0-.2,0-.3.3-.5.2-1.1-.2-1.4-.3-.3-.4-.6-.5-1-.2-.9-.4-1.9-.6-2.8,0-.7,0-1.5,0-2.2,0-.7-.5-1.5-.3-2.2.2-.7,0-1.4,0-2,0-.4.1-.9-.5-1.1,0,0,0-.2,0-.2.6-1.2-.6-2.1-.6-3.2,0-1.2-.3-2.3-.5-3.4,0-.3,0-.7-.4-.9-.2,0-.2-.4-.2-.6.5-.9,0-1.8,0-2.7,0-1-.5-2-.1-3,.1-.5.2-1-.5-1.5-.3-.2,0-.7-.2-1.1,0-.3-.4-.5-.4-.8,0-.3.2-.5.2-.8,0,0,0-.2,0-.2-.9-1.4-.2-2.9-.5-4.4-.4-1.4-.5-2.9-.5-4.4,0-.8,0-1.7,1.1-2.4.5-.3,1-.4,1.4,0,.3.2.5.5.6.8.2.4.3.9.5,1.3.3.9.9,1.8.8,2.8,0,.3.3.6-.2.9,0,0,0,.2,0,.2,1,1.2.6,2.6.8,3.9.2,1.1,1,2.1.9,3.3.7.5.7,1.3.6,1.9-.3,2.3.4,4.4.7,6.6.3,2.2.7,4.5,1.1,6.7,0,.4.5.6.3,1.1-.2.5.1,1,.2,1.4,0,.4.3.9.2,1.3-.3,1.9.4,3.5.7,5.3.3,1.7.6,3.5,1.1,5.2.3,1,.9,2,1,3.1,0,.5.5.9,0,1.4-.1.2.4.5.5.8.2.7.3,1.4.5,2.2.2,1,.4,2,.7,3,.2.6.6,1.1.8,1.7.2.6.4,1.3.5,1.9.1.8.1,1.7.3,2.5.1.9.6,1.7.6,2.5-.1,1.6.5,3,.9,4.5.3,1.5.7,3,1.2,4.4.3.8,0,1.7.3,2.5.1.4-1.2,1.3-1.7,1.3-.1,0-.2,0-.3,0-.7-.7-1.6-1.2-1.8-2.1-.3-1.4-.7-2.7-1.1-4.1Z"/>
    <path d="M345.8,502.8c-.2,0-.5.1-.7.3,0,0-.3-.2-.2.4,0,.3-.3-.3-.3-.3-.2.1-.4.1-.6.3-.2.1-.3.4-.5.5-.2.1-.5,0-.6.3,0,.3-.4,0-.5,0-.1.2-.3.3-.5.2-.2-.1-.4-.3-.5-.1,0,0,0,.4-.1.4,0,0-.3-.2-.1.4,0,0,0,0-.1-.1-.2-.4-.3-.3-.3,0,0,.3,0,.3-.1.3-.2,0-.3.2-.5.2-.1,0-.4-.2-.5-.2-.2,0-.2.3-.4,0-.2-.2-.3-.2-.5-.1,0,0-.3-.2,0,.4,0,0,0,0,0,0-.5-.7-.3.4-.6.3-.3-.1-.5,0-.7.2,0,0-.2-.1,0,.3,0,.2,0,.2,0,0-.4-.5-.4-.1-.6-.2-.2,0-.3.3-.7-.1-.1-.2-.3-.2-.2.4,0,.3-.1,0-.2.1,0,0,0,.3,0,.4,0,0-.2-.2-.3-.3,0,0,0,0,0,0,0,.7-.6,0-.8.2-.2.3-.5.3-.8.3-.2,0-.4-.1-.9-1.2-.2-.5-.4-1-.4-1.3,0-.2,0-.5,0-.6,0-.1,0-.3.2-.4.1-.2.1-.8.4-.6,0,0,0-.2.3.2,0,0,0,0,0,0,0-.8.4-.4.6-.6.2-.1.2-.8.5-.6,0-.6,0-.6.3-.4.6.5.9,0,1.4-.1.5,0,.8-.3,1.3-.4,0,0,0-.4.2-.1.2.2.2,0,.3,0,0,0,.1-.2.3,0,.6.5.8,0,1.1,0,.4,0,.7-.1,1-.4.2-.2.3-.6.5-.5.1,0,0-.3.4.2,0,.1,0-.3,0-.3.1,0,.3-.1.4-.2.2,0,.4,0,.6-.2.1,0,.1-.3.2-.4.1-.1.2-.1.4-.1.2,0,.4.2.6.2.2,0,.3-.3.5-.1.5.4.7,0,1,0,.3,0,.6-.1.8-.3.1-.1.5.3.6.2,0,0,.7,1.3.8,1.8,0,0,0,.2,0,.2,0,.5,0,1.2,0,1.2-.3,0-.5.2-.8.3Z"/>
    <path d="M367.9,472.7c1.5,0,3,.1,4.5.1.6,0,1.1.3,1.7-.2.3-.2.8.4,1.3.4,1.4,0,2.8.3,4.2.3,1.4,0,2.8,0,4.1.1.7,0,1.3.2,2.1.4.8.2,1.6.3,2.5.5.8.2,1.6.8,2.2,1.6.5.8.9,1.7,1,2.7.2,1,0,2-.3,2.8-.3.8-.8,1.4-1.3,1.9-.8.7-1.6,1.2-2.3,1.9-.4.4-.6.9-1.1,1.3-.5.3-1.1.4-1.2,1.2,0,0-.3,0-.4,0-.7,0-1.3.3-1.6.8-.3.5-.7.6-1.1.9-1.1.6-2.1,1.1-3.3,1.5-.8.3-1.7.4-2.6.7-.9.3-1.7.9-2.6.9-.9,0-1.6.3-2.4.6-.4.2-1,0-1.2.8,0,0-.2.1-.3,0-1.5-.4-2.4,1.1-3.7,1.4-1.3.3-2.6.9-3.8,1.4-.3.1-.8.1-.9.7,0,.2-.4.4-.6.3-.6,0-1.1,0-1.5.3l-.7.4c-.3.2-.8.4-1.2.6-.5.2-.9.5-1.4.7l-.7.4-.6-.6c-.4-.4-.8-.8-1.2-1.2-.2-.2-.3-.4-.5-.6l-.2-.3c0,0,0-.1-.1-.2-.2-.5-.6-1.1-1.5-1.2-.2,0-.4-.2-.5-.4,0-.1-.1-.2-.2-.3h-.1c0-.1,0-.2,0-.2,0,0,0,0,0,0,0,0-.3.2-.3.2,0,0,0-.3,0-.4,0,0,0,0,0,0-.1.4,0,.3-.2-.1,0-.3-.2-.2-.2,0,0,.3,0,.4,0,.5h0c0,.1,0,.1,0,.1v.3c0,0-.4,1.3-.4,1.3-.2,1-.6,1.9-1.9,2.4-.6.2-1.1,0-1.4-.4-.2-.3-.3-.7-.3-1.1,0-.6,0-1.1,0-1.7,0-.3,0-.6,0-.9v-.4c0-.2,0-.3,0-.5,0-1,.2-2,.5-2.9.2-.5,0-1.6.6-1.4,0,0,.1-.2.1-.3,0-1,0-1.9.1-2.7,0-.4.1-.8.2-1.2v-.6c.1,0,.2-.3.2-.3v-.2c.9,1.1,1.7,2.3,2.4,3.3.7.9,1.5,1.6,2.3,2.5.4.4.9.8,1.3,1.3l.3.3.2.2c.1.1.2.3.3.4,1,.1,1.5.8,1.8,1.4,0,.3,0,.4.1.6.1,0,.3,0,.5-.2l1.8-.9c.6-.3,1.3-.6,1.9-.8,2.6-1,5.2-2,7.8-2.9.4-.1.7-.6,1.3-.5.6,0,1.1-.3,1.7-.5.5-.2,1-.5,1.5-.5,2.2-.1,4-1.3,5.9-2.1,1.9-.8,3.7-1.8,5.3-3,.2-.2.5-.4.7-.6l.3-.3.3-.3c.3-.4.7-.8,1-1.1.3-.3.2-.8.9-.8.2,0-.1-.5-.1-.6,0-.3,0-.4-.1-.6-.1-.2-1-.6-2.1-.7-.7,0-1.5,0-2.2,0-.8,0-1.6-.1-2.3-.3-1-.2-1.9-.5-2.9-.6-1-.2-2.1,0-3.1-.3-1.8-.6-3.6-.5-5.5-.6-1.8-.1-3.6-.2-5.5,0-1,0-2-.4-3-.3-.5,0-1.2-1.4-1-1.9,0,0,.1-.2.2-.2,1-.5,1.9-1.3,3.1-1.2,1.7,0,3.4,0,5.2,0Z"/>
    <path d="M344.5,385.5l1.9,4.4c.2.5.2,1.2,1,1.6.4.2,0,.9.2,1.4.6,1.3,1.1,2.7,1.7,4.1.6,1.3,1.4,2.5,2,3.8.6,1.3.9,2.8,1.7,3.9.7,1,.6,2.2,1.1,3.3.5,1.1,1,2.3,1.1,3.6,0,.9.1,1.8.4,2.6.2.5.6.9.7,1.5,0,.6,0,1.2.7,1.6,0,0,0,.3,0,.4-.3.7-.1,1.4.2,1.8.3.4.4.9.5,1.3.2,1.2.4,2.4.5,3.6,0,.9,0,1.8,0,2.7,0,.9.5,1.9.3,2.8-.2.9,0,1.7,0,2.6,0,.5-.1,1.1.5,1.4,0,0,0,.2,0,.3-.6,1.5.6,2.7.6,4.1,0,1.5.3,2.9.5,4.4,0,.4,0,.8.4,1.1.2.1.2.5.2.7-.5,1.2,0,2.3,0,3.4,0,1.3.5,2.5.1,3.9-.1.6-.2,1.3.5,1.9.3.3,0,.9.2,1.4,0,.4.4.7.4,1.1,0,.3-.2.7-.2,1,0,.1,0,.2,0,.3.8,1.8.1,3.7.5,5.6.3,1.9.4,3.8.4,5.7,0,1.1-.1,2.1-1.2,2.9-.5.3-1,.4-1.4,0-.3-.3-.5-.7-.6-1-.1-.6-.3-1.2-.4-1.7-.3-1.2-.9-2.3-.7-3.6,0-.4-.3-.8.2-1.2,0,0,0-.2,0-.3-.9-1.6-.6-3.3-.8-5-.2-1.4-1-2.7-.8-4.2-.7-.7-.7-1.7-.6-2.5.4-2.9-.4-5.7-.7-8.5-.3-2.9-.7-5.7-1.1-8.6,0-.5-.5-.9-.3-1.5.2-.6-.1-1.2-.2-1.9,0-.6-.3-1.2-.2-1.7.4-2.3-.3-4.5-.6-6.8-.2-2.2-.5-4.4-1.2-6.6-.4-1.3-1-2.5-1.3-3.8-.1-.6-.6-1-.2-1.8.1-.2-.5-.6-.6-.9-.3-.8-.6-1.7-1-2.6-.5-1.2-.9-2.4-1.5-3.6-.3-.7-.9-1.3-1.3-2.1-.4-.8-.7-1.5-1-2.3-.3-1-.6-2.1-.9-3.1-.4-1.1-1-2-1.2-3.1-.3-2-1.2-3.7-2-5.5-.7-1.8-1.5-3.5-2.5-5.2-.6-.9-.6-2-1.1-3-.2-.4.7-1.7,1.3-1.8.1,0,.2,0,.3,0,.9.7,2,1.2,2.5,2.3.8,1.6,1.6,3.2,2.4,4.9Z"/>
    <path d="M315.9,436.2c0-.1,0-.3-.2-.4,0,0,.2-.2-.3,0-.3,0,.3-.2.3-.3-.1,0,0-.3-.2-.4-.1,0-.4-.1-.5-.2-.1,0,.1-.3-.2-.3-.3,0,.1-.3,0-.3-.2,0-.3-.1-.1-.3.1-.1.3-.3.2-.3,0,0-.4,0-.4,0,0,0,.2-.2-.4,0,0,0,0,0,.1,0,.3-.2.3-.3,0-.2-.3,0-.3,0-.3,0,0,0-.1-.2-.1-.3,0,0,.2-.3.2-.4,0-.1-.3,0,0-.3.2-.2.2-.3.2-.3,0,0,.2-.2-.4,0,0,0,0,0,0,0,.7-.5-.3-.1-.2-.3.1-.2,0-.3-.1-.4,0,0,.1-.1-.3,0-.2,0-.2,0,0,0,.5-.4.1-.3.2-.4,0-.2-.3-.2.1-.5.2-.1.2-.2-.3,0-.3,0,0,0-.1-.1,0,0-.3,0-.4,0,0,0,.2-.2.3-.2,0,0,0,0,0,0-.7,0,0-.5-.2-.7-.2-.2-.2-.5-.2-.8,0-.2.2-.4,1.3-.5.5,0,1.1,0,1.4,0,.2,0,.5,0,.5,0,0,0,.2,0,.3,0,.2,0,.7,0,.5,0,0,0,.2,0-.3.1,0,0-.1,0,0,0,.8-.1.3.1.4.2,0,0,.7,0,.5.1.6-.2.5,0,.4,0-.5.5,0,.5,0,.8,0,.3.2.5.3.7,0,0,.4,0,.1,0-.2.2,0,.1,0,.2,0,0,.2,0,0,.2-.5.5,0,.5,0,.7,0,.2,0,.4.3.6.1,0,.5,0,.4.2,0,0,.3,0-.2.3-.1,0,.3,0,.3,0,0,0,0,.2.1.2,0,.1,0,.2.2.3,0,0,.3,0,.4,0,0,0,.1.1,0,.2,0,.1-.2.3-.2.4,0,.1.3,0,0,.3-.4.4,0,.4,0,.6,0,.2,0,.4.2.5.1,0-.3.4-.3.4,0,0-1.3.7-1.8.9,0,0-.2,0-.2,0-.5.1-1.2.3-1.2.2,0-.2-.1-.3-.2-.5Z"/>
    <path d="M350.4,354.9c1.6-1.4,3.3-2.6,4.8-4,.6-.5,1.3-.8,1.6-1.7.1-.5,1.1-.5,1.6-1,1.3-1.3,2.7-2.6,3.9-4,1.1-1.4,1.9-3,2.8-4.5.9-1.6,2-3.1,2.5-4.8.4-1.5,1.3-2.5,1.7-3.8.3-1.4.6-2.9,1-4.2.3-1,.6-2,.4-3.1,0-.7-.5-1.2-.5-1.9,0-.6.1-1.4-.6-1.9,0,0,0-.3,0-.5.3-.8,0-1.6-.4-2.2-.4-.5-.5-1-.7-1.5-.5-1.4-1-2.8-1.6-4.2-.4-1.1-.7-2.2-1.1-3.3-.5-1.1-1.3-2.1-1.6-3.2-.3-1.1-.8-2.1-1.4-3-.3-.5-.5-1.3-1.3-1.5,0,0-.2-.2-.2-.3-.2-2-2.1-2.9-2.9-4.6-.8-1.7-2.1-3.3-3.2-4.9-.3-.4-.5-1-1.1-1.1-.2,0-.5-.5-.6-.8-.3-1.5-1.5-2.6-2.2-3.8-.9-1.4-2.1-2.6-2.7-4.3-.2-.7-.7-1.6-1.7-1.9-.4-.2-.7-1-1.1-1.4-.3-.4-.8-.6-1.1-1-.3-.3-.3-.8-.5-1.2,0-.1-.1-.2-.2-.3-2-1.5-2.8-3.9-4.6-5.6-.9-.8-1.7-1.7-2.5-2.4-.8-.7-1.7-1.4-2.5-1.8-1-.5-1.6-.8-2.6-1.8-.4-.5-.6-1,0-1.4.4-.3,1-.5,1.6-.5.9,0,1.9.2,2.7.5,1.7.6,3.5,1.4,4.5,2.8.3.4,1,.7.9,1.4,0,0,.1.3.2.3,2.1,1.1,3.2,3.3,4.7,5,1.2,1.5,2.9,2.6,3.8,4.3,1.1.5,1.8,1.6,2.3,2.6,1.7,3.5,4.2,6.3,6.3,9.5,2.1,3.2,4.3,6.4,6.2,9.8.3.6.9.9,1.1,1.7.1.8.8,1.5,1.2,2.2.4.7.9,1.3,1.1,2,.9,3,2.6,5.6,3.6,8.6,1,2.9,1.8,6,2.3,9.1.3,1.9.7,3.9.4,5.9-.2.8,0,1.8-.7,2.5-.2.2,0,1.1,0,1.6-.3,1.3-.8,2.6-1.3,3.8-.7,1.7-1.6,3.3-2.4,4.9-.5,1-.8,2-1.3,3-.3.5-.6,1.1-.9,1.6-.4.5-.7,1-1.1,1.4-1,1.2-2.1,2.1-3.2,3.2-1.1,1.1-2.1,2.3-3.3,3.1-2.3,1.4-4.2,3.2-6.2,4.8-2,1.6-4,3.2-5.7,5-1,1-2.2,1.6-3.1,2.7-.4.5-2.1.3-2.3-.3,0,0,0-.2,0-.4.5-1.4.9-2.9,2.1-4.1,1.8-1.7,3.6-3.3,5.4-4.9Z"/>
    <path d="M344.2,327.8c-.3-.3-.5-.7-.8-1-.1-.1,0-.4-.5-.2-.3,0,.1-.4,0-.5-.3-.3-.5-.6-.8-.9-.3-.3-.7-.4-1-.7-.3-.3-.3-.8-.8-.8-.4,0-.2-.6-.5-.8-.3-.2-.6-.4-.6-.8,0-.3,0-.6-.2-.7-.1,0-.5,0-.6-.1,0-.1,0-.4-.5-.1,0,0,0,0,0-.2.2-.4,0-.5-.2-.4-.3,0-.3,0-.4-.1-.2-.2-.5-.5-.6-.8-.1-.2,0-.6-.2-.8-.1-.2-.5-.3-.4-.6,0-.4,0-.5-.2-.7,0-.1,0-.4-.5,0,0,0,0,0,0,0,.4-.8-.7-.4-.7-.8,0-.4-.5-.7-.7-1,0,0,0-.3-.4,0-.1,0-.2,0-.2-.1.3-.6-.2-.6-.3-.9-.1-.3-.6-.4-.4-1,0-.2,0-.5-.5-.2-.3.1-.2-.2-.3-.3-.1,0-.4,0-.4,0,0,0,0-.3,0-.4,0,0,0,0,0,0-.8,0-.5-.9-.9-1.2-.5-.3-.8-.8-1.1-1.5-.2-.3-.2-.9.8-1.5.4-.3,1-.5,1.3-.5.3,0,.5,0,.6,0,.1,0,.3.1.5.2.3.1.9,0,.8.4,0,.1.3,0,0,.4,0,0,0,.1,0,.1.9-.2.8.5,1.1.9.3.3,1,.2,1,.7.6-.2.7,0,.7.3,0,1,.8,1.4,1.2,2,.4.7,1,1.2,1.4,1.9,0,.1.4,0,.3.3-.1.3.2.3.3.4,0,.1.3.2.3.4-.1.9.6,1.1.9,1.7.3.5.7,1.1,1.2,1.4.3.2.8.3,1,.7,0,.2.4,0,0,.6-.1.1.3,0,.4,0,.2.2.3.4.5.6.2.3.4.6.7.8.2.1.5.2.7.3.2.1.3.3.4.5.1.3.1.6.3.9.1.3.6.4.5.7,0,.7.5,1,.8,1.4.3.5.6.9,1,1.2.2.2,0,.7.2.9,0,.1-1,1.1-1.4,1.4,0,0-.2,0-.2,0-.5,0-1.3.3-1.5,0-.2-.4-.6-.8-.9-1.2Z"/>
    <path d="M333.8,337.3c.2-.2.4-.4.5-.6,0,0,.3,0,0-.4-.2-.2.4.1.4,0,.1-.3.3-.4.5-.7.1-.2,0-.6.2-.8.1-.2.5-.3.4-.7,0-.3.4-.2.5-.4,0-.3.1-.5.4-.5.2,0,.5,0,.5-.2,0-.1-.2-.4-.1-.5,0,0,.4,0,0-.4,0,0,0,0,.2,0,.4.2.4,0,.3-.2-.2-.2,0-.3,0-.3.1-.2.2-.4.4-.5.1-.1.4,0,.6-.2.2-.1,0-.4.4-.4.3,0,.4,0,.5-.2,0,0,.3,0-.1-.4,0,0,0,0,0,0,.8.3.1-.6.4-.6.3,0,.4-.4.5-.6,0,0,.2,0,0-.3-.1-.1,0-.2,0-.1.6.2.4-.2.7-.3.2-.1.1-.5.7-.4.2,0,.4,0,0-.4-.2-.2.1-.1.1-.2,0,0-.2-.3-.1-.4,0,0,.3,0,.4,0,0,0,0,0,0,0-.3-.7.6-.4.7-.8,0-.4.3-.6.6-.8.2-.1.4-.2,1.4.4.4.3.9.6,1.1.9.2.2.3.4.3.5,0,.1,0,.3,0,.5,0,.3.3.8,0,.8-.1,0,0,.3-.4,0,0,0-.1,0,0,0,.4.7-.2.7-.3,1-.1.2.2.8-.2.9.4.5.2.6,0,.6-.9,0-.8.7-1.2,1.1-.4.4-.6.9-1,1.3,0,0,.2.3-.1.3-.3,0-.2.2-.3.2,0,0,0,.3-.2.2-.8,0-.7.5-1,.8-.3.3-.6.6-.7,1,0,.3,0,.7-.2.8-.1,0,0,.4-.4,0-.2,0,.1.3.1.3,0,.2-.2.3-.3.4-.1.2-.3.4-.4.6,0,.1,0,.4,0,.6,0,.2-.1.3-.3.4-.2.1-.5.1-.6.3-.2.1,0,.5-.4.5-.6,0-.7.5-1,.7-.3.3-.6.6-.9.9-.1.2-.6,0-.8.2,0,0-1.1-1-1.4-1.4,0,0-.1-.2-.1-.2-.1-.5-.5-1.1-.4-1.2.2-.1.4-.4.6-.6Z"/>
    <path d="M333.1,373.9c.4.3.8.7,1.2.9.2.1.1.4.6.1.2-.1,0,.5.1.6.2.1.4.3.5.4,0,0,.1.1.2.1.1,0,.3-.1.3-.2,0,0,0,.2.1.2,0,0,0-.1,0-.3,0-.4.1.2.1,0,0-.2,0-.2.1-.2,0,0,0,0,.1,0h0s0,0,0,0c.1,0,.2-.2.2-.3,0-.2-.2-.5,0-.6.1-.1.4-.2,0-.6,0,0,0,0,.2,0,.4,0,.5-.2.4-.4-.2-.3,0-.4,0-.5.2-.4.4-.7.6-1,.2-.2.5-.4.8-.6.2-.2.1-.7.5-.7.4,0,.5-.3.7-.6,0-.1.4-.1,0-.6,0,0,0,0,0,0,.9,0,.2-.9.7-1.2.4-.3.6-.8.8-1.2,0-.1.3-.1,0-.4-.1-.1,0-.2,0-.2.7,0,.5-.4.6-.5.2-.2,0-.4.5-.6.2,0,.3-.3-.3-.4-.3,0,0-.2,0-.3,0,0-.3-.1-.4-.2,0,0,.2-.2.3-.3,0,0,0,0,0,0-.7-.2,0-.9-.4-1.3-.4-.4-.6-.9-.8-1.4-.1-.3-.1-.7.7-1.5.4-.4.8-.7,1.2-.7.3,0,.5,0,.6,0,.2.1.4.2.6.3.4.2,1.1.4,1,.9,0,.2.3.2,0,.5,0,0,0,.1,0,.1,1,.2.8,1.1,1,1.7.2.5,1,1,.7,1.7.7.3.5.9.3,1.2-.8,1.3-1,2.6-1.6,3.4-.6.8-1,1.6-1.5,2.4,0,.1.1.4-.2.5-.3,0-.3.3-.4.5,0,.2,0,.4-.3.5-.9.3-1,1.1-1.4,1.7-.4.6-.9,1.2-1.1,1.9,0,.2,0,.5-.1.7,0,.2,0,.4-.4.8-.2.2-.2.8-.8.7-.2,0,0,.6-.1.8-.3.5-.6,1-.9,1.5-.3.5-.6,1-.9,1.5-.1-.1-.3-.2-.4-.3-.4-.2-.7-.2-1.1-.5-.4-.3-.9-.6-1.2-1-.5-.5-.9-1.1-1.4-1.5,0,0-.1-.1-.2-.2,0,0,0,0-.1,0h-.2c-.2-.2-.3-.3-.4-.6-.2-.8-.9-1-1.3-1.5-.5-.4-.9-.9-1.5-1.2-.3-.2-.3-.8-.5-1-.1-.1.7-1.4,1.1-1.7,0,0,.2-.1.2-.1.6-.1,1.3-.5,1.6-.2.4.4.9.7,1.3,1.1Z"/>
    <path d="M336.3,366c-.1.1-.3.3-.3.5,0,0-.3,0,.1.3.2.2-.4-.1-.4,0,0,.2-.2.3-.3.4,0,.2,0,.4,0,.6,0,.2-.4.1-.2.5.2.3-.3,0-.3.3,0,.2,0,.3-.3.3-.2,0-.4,0-.4,0,0,0,.3.3.2.4,0,0-.3,0,.2.3,0,0,0,0-.1,0-.4-.2-.4,0-.2.1.2.2.1.2.1.3,0,.1,0,.3-.2.4,0,0-.3,0-.5,0-.1,0,0,.3-.2.2-.3,0-.3,0-.4.1,0,0-.3,0,.2.3,0,0,0,0,0,0-.8-.3,0,.4-.2.4-.3,0-.2.3-.3.4,0,0-.2,0,.2.2.1,0,.1.1,0,.1-.6-.2-.3.1-.5.2-.2,0,0,.3-.5.3-.2,0-.4,0,.1.3.2.1,0,0,0,.2,0,0,.3.2.2.3,0,0-.2,0-.4,0,0,0,0,0,0,0,.5.5-.4.3-.3.6,0,.3,0,.4-.2.6,0,0-.3.1-1.4-.2-.5-.2-1-.4-1.3-.5-.2-.1-.4-.3-.4-.3,0-.1-.1-.2-.2-.3-.1-.2-.6-.6-.2-.6.1,0-.2-.2.3,0,0,0,.1,0,0,0-.6-.5,0-.5,0-.7,0-.2-.5-.6-.1-.7-.5-.4-.4-.4-.2-.4.8,0,.5-.6.8-.9.3-.3.4-.7.6-1,0,0-.2-.3,0-.2.3,0,.1-.1.2-.2,0,0,0-.2.1-.2.7,0,.5-.4.7-.6.2-.2.4-.4.4-.8,0-.2-.2-.5,0-.6,0,0-.2-.3.4,0,.2,0-.2-.2-.2-.3,0-.1.1-.2.2-.3,0-.1.2-.3.3-.4,0-.1-.1-.3-.1-.5,0-.1,0-.2.2-.3.1,0,.4,0,.5-.1.1,0,0-.4.3-.3.6.1.5-.3.7-.4.2-.2.4-.3.5-.6,0-.2.5,0,.6,0,0,0,1.2.8,1.6,1.2,0,0,.1.1.2.2.3.4.8.9.6,1-.2.1-.3.3-.4.5Z"/>
    <path d="M328.6,366.8c.2-.2.5-.3.6-.5,0,0,.3,0,0-.4-.1-.2.3.2.4.1.1-.2.4-.3.5-.5.1-.2.2-.5.3-.7.1-.2.5-.1.4-.5,0-.3.4,0,.5-.3,0-.2.1-.4.4-.4.2,0,.5,0,.5-.1,0-.1-.2-.4-.1-.4,0,0,.3,0,0-.4,0,0,0,0,.2,0,.4.2.4,0,.3-.1-.2-.2,0-.3,0-.3,0-.2.2-.3.3-.4.1,0,.4,0,.5-.1.1,0,0-.4.3-.3.3,0,.4,0,.4-.2,0,0,.3,0-.2-.4,0,0,0,0,0,0,.8.2,0-.5.2-.5.3,0,.2-.3.3-.5,0,0,.2,0-.2-.2-.1,0-.1-.1,0-.1.6,0,.3-.2.5-.3.2-.1,0-.3.4-.4.2,0,.3-.1-.2-.3-.3,0,0-.1,0-.2,0,0-.3,0-.3-.1,0,0,.2,0,.3,0,0,0,0,0,0,0-.7-.2.2-.4,0-.5-.2-.1-.2-.3-.2-.5,0-.1.1-.2,1.1-.9.4-.3.9-.6,1.2-.7.2,0,.5-.1.6,0,.2,0,.3.1.5.2.3.2.9.3.7.7,0,.1.3.2-.2.3,0,0,0,0,0,0,.9.2.4.8.5,1.1,0,.3.7.7.4,1,.6.3.5.5.3.6-.8.5-.5,1.2-.8,1.8-.3.6-.5,1.2-.8,1.7,0,0,.2.4,0,.3-.3,0-.2.2-.2.3,0,0,0,.3-.2.3-.8,0-.7.6-1.1.9-.3.3-.7.6-.8,1,0,.3,0,.7-.3.8-.1,0,0,.4-.5,0-.1,0,.1.3,0,.4,0,.2-.2.3-.4.4-.2.2-.4.3-.5.5,0,.1,0,.4-.1.6,0,.2-.2.3-.4.3-.2,0-.5,0-.7.1-.2,0-.2.4-.5.3-.6-.2-.7.3-1,.4-.3.2-.6.4-.8.7-.1.2-.6-.1-.7,0,0,0-1.1-1-1.4-1.4,0,0-.1-.2-.1-.2-.1-.5-.5-1.2-.3-1.3.3-.1.5-.4.7-.6Z"/>
    <path d="M322.9,362.6h0s0,0,0,0h0s.9-.7.9-.7h0s0,0,0,0h0s0,0,0,0h0s0,0,0,0h0c0,.2.1.2.2.3,0,0-.1.2.3,0,.2-.1-.2.3-.2.3.1,0,.2.2.3.3.1,0,.4,0,.5.1.1,0,0,.4.3.3.3,0,0,.3.1.3.2,0,.3,0,.2.3,0,.2-.2.4,0,.4,0,0,.4-.2.4-.1,0,0-.1.3.4-.1,0,0,0,0,0,.1-.3.3-.2.3,0,.2.2-.1.2,0,.3,0,.1,0,.2.1.2.3,0,0,0,.3,0,.4,0,.1.3,0,.1.3-.2.3,0,.3,0,.4,0,0-.1.3.4-.1,0,0,0,0,0,0-.5.7.4,0,.3.3,0,.2.2.3.3.3,0,0,0,.2.3-.1.1-.1.2,0,0,0-.4.5,0,.3,0,.5,0,.2.3,0,0,.5-.1.2-.1.3.3,0,.2-.2,0,0,.1,0,0,0,.3-.2.3-.1,0,0-.1.2-.2.3,0,0,0,0,0,0,.6-.3,0,.4.4.4.3,0,.3.2.4.4,0,.1,0,.3-.8,1.2-.3.4-.7.8-1,1-.2.1-.4.3-.5.3-.1,0-.2,0-.4,0-.2,0-.7.3-.6,0,0,0-.2,0,.1-.3,0,0,0,0,0,0-.7.4-.4,0-.6-.2-.1,0-.7.3-.6,0-.5.4-.5.2-.4,0,.3-.7-.2-.6-.4-.9-.1-.3-.4-.4-.6-.7,0,0-.3.2-.2,0,.2-.2,0-.1,0-.2,0,0-.2,0-.1-.1.3-.6-.1-.5-.2-.7-.1-.2-.2-.4-.5-.5-.2,0-.5,0-.5-.1,0,0-.3,0,.1-.3.1-.1-.3.1-.3.1-.1,0-.1-.1-.2-.2,0-.1-.1-.2-.3-.3,0,0-.3,0-.4,0-.1,0-.2,0-.2-.2,0-.1,0-.4,0-.5,0-.1-.3,0-.2-.3.3-.5,0-.5-.2-.7,0,0,0,0-.1-.2,0-.1-.1-.3-.2-.4-.1-.2-.2-.5-.3-.8-.1-.4.3-1.2,1.1-1.7.2-.1.6.1.7.5,0,.2.1.4.2.6,0,.1,0,.2,0,.3,0,0,0,0,0,0,0,0,0,0,0,0,0-.2,0,0,.2,0,.2,0,.4,0,.5,0,0,0,0,0-.2.1Z"/>
    <path d="M332.7,355.5c-.2.2-.4.3-.5.5,0,0-.3,0,0,.4.2.2-.4-.2-.4,0-.1.2-.3.3-.4.5-.1.2-.1.5-.2.7-.1.2-.5.1-.4.5,0,.3-.4,0-.4.3,0,.2-.1.4-.4.4-.2,0-.5,0-.5,0,0,.1.2.4,0,.4,0,0-.3,0,0,.4,0,0,0,0-.1,0-.4-.2-.4-.1-.3.1.1.2,0,.3,0,.3,0,.2-.2.3-.4.4-.1,0-.4,0-.5,0-.1,0,0,.4-.3.3-.3-.1-.4,0-.5,0,0,0-.3,0,.1.4,0,0,0,0,0,0-.8-.4,0,.5-.4.5-.3,0-.3.3-.5.5,0,0-.2,0,0,.3.1.1,0,.2,0,.1-.6-.3-.4,0-.6.1-.2,0-.1.4-.6.2-.2,0-.4,0,0,.4.2.2,0,.1,0,.2,0,0,.2.3.1.3,0,0-.2,0-.4-.1,0,0,0,0,0,0,.3.6-.5.3-.6.6,0,.3-.3.5-.5.7-.1,0-.4,0-1.3-.6-.4-.3-.9-.6-1.1-.9-.2-.2-.3-.4-.3-.5,0-.1,0-.3,0-.4,0-.3-.3-.8,0-.7.1,0,0-.2.3,0,0,0,.1,0,0,0-.4-.7.1-.6.3-.8.1-.2-.2-.8.1-.8-.4-.5-.2-.5,0-.5.8.1.7-.5,1.1-.8.4-.3.6-.7.9-1,0,0-.2-.3.1-.2.2.1.2-.1.2-.2,0,0,0-.2.2-.2.7.2.7-.3,1-.5.3-.2.6-.4.7-.8,0-.2,0-.6.2-.7.1,0,0-.3.4,0,.1,0-.1-.3-.1-.3,0-.1.2-.2.3-.3.1-.1.3-.3.4-.4,0-.1,0-.4,0-.5,0-.1.1-.2.3-.3.2,0,.4,0,.6-.1.2,0,0-.4.4-.3.6.2.6-.2.9-.4.3-.2.5-.3.6-.6,0-.2.5,0,.6,0,0,0,1.1.9,1.5,1.3,0,0,.1.2.1.2.2.4.6,1.1.4,1.2-.2.1-.4.4-.6.5Z"/>
    <path d="M318,360.7c-.1-.3-.3-.6-.5-.9,0-.1,0-.3-.4-.2-.3,0,.2-.3.2-.4-.1-.1-.2-.3-.3-.4v-.2c-.2,0-.2-.1-.3-.2-.3-.4-.9-.8-1.4-1.3-.5-.5-.5-1-1.3-1.5,0,0,0,0-.1,0,.1-.4,1-.6,1.2-1,.2-.4.6-.9,1.2-1.1.4-.2.8-.3,1-.6.1-.2,0-.5,0-.6.1,0,.4,0,0-.5,0,0,0,0,.2,0,.4.2.5,0,.4-.2-.1-.3,0-.3,0-.4.2-.2.4-.4.6-.6.2-.1.5,0,.7-.2.2-.1.2-.5.5-.4.4,0,.5,0,.6-.2,0,0,.4,0,0-.5,0,0,0,0,0,0,.8.4.3-.6.7-.7.4,0,.5-.4.8-.7,0,0,.3,0,0-.4,0-.1,0-.2,0-.2.6.3.6-.2.8-.3.3-.1.3-.5.9-.4.2,0,.4,0,.1-.5-.1-.2.2-.2.2-.3,0-.1,0-.4,0-.4,0,0,.3,0,.4,0,0,0,0,0,0,0-.1-.8.8-.5,1-.9.2-.4.6-.7,1-1,.2-.1.5-.2,1.5.5.4.3.8.7,1,1,.1.2.2.5.2.6,0,.2,0,.4,0,.5,0,.3,0,.9-.3.9-.1,0,0,.3-.4,0,0,0-.1,0,0,0,.3.8-.4.8-.6,1.1-.2.3,0,1-.5,1,.3.6,0,.7-.2.7-1,0-1.1.8-1.7,1.2-.6.4-1,1-1.5,1.4,0,0,0,.4-.2.3-.3,0-.3.2-.4.3,0,0-.1.3-.3.3-.8,0-1,.6-1.4.9-.4.3-.9.7-1.1,1.2-.3.4,0,.5,0,.5,0,0,.2.2-.4,0-.2,0,.3.2.3.2,0,0,0,0,0,0,0,0,0,0,0,0,0,0,0,0,0,0,0,0,.3,0,.4,0,0,0,0,0,0,0,0,0,0,.1,0,.2,0,.1,0,.3,0,.4,0,.3.5.4.4.8-.2.7.3,1,.4,1.5.2.5.3,1,.6,1.4.2.2-.2.7-.1.9,0,.1-1.3.7-1.8.8,0,0-.2,0-.2,0-.5,0-1.3,0-1.3-.3,0-.4-.3-.7-.4-1.1Z"/>
    <path d="M324,344.5c0-.1.1-.3,0-.4,0,0,.3,0-.2-.2-.3,0,.4,0,.4,0,0-.1,0-.3,0-.4,0-.1-.2-.3-.2-.5,0-.1.3-.2,0-.4-.2-.2.3-.1.2-.3,0-.1-.1-.3.1-.3.2,0,.4,0,.3-.2,0,0-.4-.2-.3-.2,0,0,.3,0-.3-.2,0,0,0,0,.2,0,.4,0,.4,0,.1-.1-.3-.1-.2-.1-.2-.2,0-.1,0-.2,0-.3,0,0,.3,0,.4-.2,0,0-.2-.2.1-.2.3,0,.3,0,.3-.2,0,0,.3,0-.3-.2,0,0,0,0,0,0,.8,0-.2-.3,0-.4.2,0,.1-.2.1-.4,0,0,.2,0-.2-.2-.2,0-.2,0,0,0,.6,0,.3-.1.4-.2.1,0-.1-.3.4-.3.2,0,.3,0-.2-.2-.3-.1,0,0,0-.1,0,0-.3-.2-.3-.2,0,0,.2,0,.4,0,0,0,0,0,0,0-.6-.4.3-.3.2-.5-.1-.2,0-.4.1-.5,0,0,.3-.1,1.4.1.5.1,1,.3,1.3.4.2,0,.4.2.5.2,0,0,.2.2.3.2.2.2.6.4.3.4,0,0,.2.1-.3,0,0,0-.1,0,0,0,.7.4.2.4.2.5,0,.1.6.4.3.5.6.2.5.3.3.3-.7,0-.3.4-.5.7-.2.2-.1.5-.2.7,0,0,.3.2,0,.1-.3,0,0,0,0,.1,0,0,.1.1,0,.1-.7,0-.4.3-.5.5-.1.2-.2.4-.1.6,0,.1.4.3.2.4,0,0,.2.2-.3,0-.2,0,.3.1.3.2,0,0,0,.2,0,.2,0,.1-.1.2,0,.3,0,0,.2.2.3.3,0,0,0,.2,0,.2,0,0-.3.1-.4.2,0,0,.2.2-.1.3-.5,0-.3.3-.4.4-.1.2-.2.3-.1.5,0,.1-.5,0-.5.2,0,0-1.5-.2-1.9-.4,0,0-.2,0-.2,0-.4-.2-1.1-.5-1-.5.1-.1.1-.3.1-.5Z"/>
    <path d="M334.5,339c-.1,0-.2,0-.3,0,0,0,0-.2-.2.3,0,.3,0-.4,0-.4-.1,0-.2,0-.3,0,0,0-.2.3-.3.3,0,0-.1-.3-.3,0-.1.3-.1-.2-.2-.1,0,.1-.2.2-.2,0,0-.2,0-.4-.1-.3,0,0-.1.4-.2.3,0,0,0-.3-.2.3,0,0,0,0,0-.1,0-.4,0-.4,0-.1,0,.3,0,.2-.1.2,0,0-.2,0-.2,0,0,0,0-.3-.1-.4,0,0-.2.2-.2-.1,0-.3,0-.3-.1-.3,0,0,0-.3-.1.3,0,0,0,0,0,0,0-.8-.2.2-.3,0,0-.2-.2,0-.3,0,0,0,0-.2-.1.3,0,.2,0,.2,0,0,0-.6-.1-.3-.2-.4,0-.1-.2.1-.2-.3,0-.2,0-.3-.2.2,0,.3,0,0,0,0,0,0,0,.3-.1.3,0,0,0-.2,0-.3,0,0,0,0,0,0-.2.6-.2-.3-.3,0-.1.2-.3,0-.4,0,0,0,0-.3,0-1.4,0-.5.1-1.1.2-1.4,0-.2.1-.5.1-.5,0,0,.1-.2.2-.3.1-.2.3-.7.3-.4,0,0,0-.2,0,.3,0,0,0,.1,0,0,.2-.8.3-.2.4-.3,0,0,.3-.6.3-.4.1-.6.2-.5.2-.3,0,.7.3.3.5.4.2.1.4,0,.5.1,0,0,.1-.3.1,0,0,.3,0,0,.1,0,0,0,0-.1.1,0,0,.7.2.3.4.4.1,0,.3.2.4,0,.1,0,.2-.4.3-.3,0,0,.1-.3,0,.3,0,.2,0-.3.1-.3,0,0,.1,0,.2,0,0,0,.2,0,.3,0,0,0,.1-.3.2-.3,0,0,.1,0,.2,0,0,0,0,.3.2.4,0,0,.2-.2.2,0,0,.5.2.3.3.4.1,0,.2.1.4,0,0,0,0,.4.1.5,0,0-.1,1.5-.2,2,0,0,0,.2,0,.2-.1.4-.3,1.2-.4,1.1-.1,0-.2,0-.3,0Z"/>
    <path d="M227.6,467c0-1.1,0-2.2,0-3.3.1-1.1.2-2.2.4-3.3.2-.8.5-1.6.2-2.5-.1-.5.7-1.1.9-1.8.3-1,.7-1.9,1-2.9.5-.9.8-1.9,1.3-2.8.5-.9.9-1.8,1.4-2.7l.8-1.3c.3-.4.6-.8.9-1.2,1.2-1.6,2.9-2.9,4.2-4.4,1.1-1.3,2.7-1.9,4.5-2.7.5-.2,1-.4,1.6-.5.6-.1,1.2-.1,1.8,0,1.2.1,2.3.6,3.3,1.4.7.6,1.2,1.4,1.6,2.2.3.9.4,1.7.5,2.5,0,1,.2,1.8,0,2.6-.2.8-.7,1.5-.4,2.4,0,0-.2.4-.4.5-.7.7-1.1,1.6-1.2,2.4-.1.8-.5,1.3-.9,1.9-1.1,1.5-2.5,3-4.2,4-1.3.8-2.8,1.1-4.3,1.3-1.5.2-3.2.4-4.5-.1-1.3-.6-2.5-1-3.6-1.6-.7-.4-1.2-1-2.1-.9,0,0-.3-.2-.4-.3-.6-1-1.4-1.7-2.1-2.4-.8-.7-1.6-1.5-2-2.4-.9-2-1.7-4-2.2-6.1-.1-.6,0-1.2-.6-1.6-.2-.2-.3-.8-.2-1.1.3-.8.3-1.6.3-2.4,0-.8,0-1.6,0-2.4.3-1.8.3-3.7,1.4-5.3.2-.3.4-.7.5-1.2.1-.4.2-.9,0-1.5-.1-.5.5-1.2.7-1.8.2-.5.2-1.1.4-1.6.2-.4.7-.7,1-1,0-.1.2-.2.2-.4.8-2.6,3.1-4.2,4.6-6.3,1.6-2.1,3.6-3.8,5.8-5.4,1.2-.9,2.5-1.5,3.9-1.1.6.2.9.7.6,1.3-.2.4-.5.9-.9,1.2-.6.5-1.1,1.1-1.6,1.6-.6.5-1,1.2-1.5,1.8-.5.6-1,1.2-1.7,1.6-.4.3-.6.9-1.2.9,0,0-.3.1-.3.2-.8,2.1-2.6,3.4-3.6,5.3-.5.8-.7,1.6-1.1,2.5-.3.8-.6,1.7-1,2.4.1.6,0,1.1-.1,1.6-.1.5-.3,1-.6,1.4-.4.8-.6,1.6-.9,2.4-.2.8-.3,1.7-.3,2.6,0,.9,0,1.7,0,2.6,0,.9.1,1.7.3,2.5.5,3.4,2.1,6.6,4.5,8.6.4.4,1,.3,1.4.9.4.5,1.2.7,1.8.9.6.2,1.2.2,1.8.5,1.1.5,2.4.5,3.6,0,1.2-.4,2.2-1.1,3.1-2,1.9-1.7,3.2-4.2,3.7-6.9.1-.8.2-1.7,0-2.1-.1-.5-.2-.5-.4-.8-.2-.3-.7-.1-1-.8-.1-.2-.6.2-.8.3-.7.1-1.6.5-2.5,1.1-.6.4-1.2.9-1.8,1.4l-.9.8c-.3.3-.5.6-.8.9-.7.7-1.1,1.6-1.6,2.4-.3.4-.6.8-.8,1.3-.3.4-.6.8-.9,1.3-.3.5-.7,1.1-1.1,1.6-.3.5-.7,1.1-1,1.7-.6,1.2-.8,2.6-1.4,3.8-1.1,2.2-1.3,4.7-1.4,7.1-.1,2.4,0,4.9.7,7.2.1.7.3,1.3.3,2,0,.3,0,.7.1,1,0,.3.2.6.3,1,.2.6-.8,2-1.4,1.9-.1,0-.2,0-.3-.2-.5-.6-1-1.1-1.5-1.7-.4-.6-.8-1.3-1-2.1-.5-2.5-1-4.9-1-7.4Z" fill="#00b4e9"/>
    <g>
      <path d="M245.5,136.3c-2.8-.6-6-1.1-8.3.5-.4.3-.8.6-1,1.1-.2.5-.3,1-.3,1.6-.1,2.1,0,4.2.2,6.2,0,.4.1.8.3,1.2.4.8,1.4,1,2.3,1.2,2,.3,4,.4,6.1.2-.3-2.6-.4-5.2-.2-7.9"/>
      <path d="M246.3,143.7c0,.6,0,1.1,0,1.7,0,0,0,.3,0,.5,0,.2.1.4.4.6.3.3-.3.5-.3.8.2.9.2,1.8.3,2.7h0c-.7.2-1.5.5-2.4.6-.9.1-2-.1-2.8.2-.5.3-.9-.3-1.4-.2-.5,0-1,0-1.4-.2-.3-.2-.6-.5-1-.5-.3,0-.7.2-1.1,0-.3-.2-.5-.6-1.2-.2,0,0-.1-.2-.1-.3,0-.6-.3-.8-.8-.9-.2,0-.3-.1-.4-.2-.1-.1-.2-.3-.3-.4-.2-.4-.3-.8-.4-1.2,0-.2,0-.5,0-.6,0-.1,0-.2,0-.4,0-.4.2-.7.2-1.1,0-.4-.3-.7,0-1.1.3-.4.3-.7.3-1,0-.2.3-.4-.4-.6,0,0,0,0,0-.1.8-.5-.3-1.1,0-1.6.2-.6,0-1,.2-2,0-.3.3-.5,0-.9-.1-.1,0-.4.2-.5.5-.2.7-.5,1-.7.2-.3.5-.6.8-.7.6-.3,1-.9,1.8-.7.3,0,.7,0,.8-.6,0-.3.4-.1.6-.2.2,0,.3-.4.5-.4.2,0,.3.2.5.3,0,0,.1,0,.1,0,.8-.7,1.7.2,2.5,0,.8-.1,1.6,0,2.3.3.4.1.8.4.8,1.6,0,.5-.1,1.1-.3,1.4-.2.2-.3.4-.5.4-.2,0-.5.1-.7.2-.5.1-.9.6-1.3.2-.1-.1-.3.2-.3-.3,0,0,0-.1,0,0-.6.7-1.1.2-1.6.3-.4,0-.7.8-1.1.6,0,.7-.2.6-.4.5-.4-.2-.8,0-.9.1,0,0,0,.2-.1.3,0,0-.1.6-.1,1v1.5c0,.2.3.3,0,.5-.3.2,0,.4,0,.6,0,.2.2.4,0,.6-.3.4-.3.8-.3,1.2,0,.2,0,.4.1.6v.3c0,.1,0,0,0,.1,0,.1,0,.2,0,.3,0,.2.2.3.4.2,0,0,0,0,.1,0,0,0,0,0,.2,0,.2,0,.4,0,.6,0,.2,0,.4-.2.6.4,0,.2.3-.3.4-.3.3,0,.6,0,.9,0h.6c0,0,.1,0,.1,0,0,0,0-.3,0-.3,0,0,0,0,0,0,0,0,.1,0,.2.1,0,0,.2,0,.2,0,0,0-.2-.2,0-.2.3,0,.3,0,.3-.5,0-.4,0-.7,0-1.1,0-.7,0-1.5,0-2.2,0-.4.5-.8.5-1.2,0-.2,1.5-.4,2-.2,0,0,.2,0,.2,0,.4.4,1.2.8,1.1,1.2,0,.6,0,1.3,0,1.9Z"/>
    </g>
    <g>
      <path d="M283.3,140.9c-.2-.9-.3-1.9-.2-2.8.1-.9.6-1.9,1.4-2.3.5-.3,1.1-.3,1.7-.4,1.7-.2,3.4-.3,5.1-.4.2,0,.5,0,.7.2.1.1.2.3.2.5.5,2.7.7,5.5.4,8.2,0,.4-.1.8-.4,1.1-.3.3-.8.3-1.2.4-1.4,0-2.7.2-4.1.2-.6,0-1.3,0-1.9-.2s-.9-1.1-.5-1.6"/>
      <path d="M286.2,143.7c.2,0,.8,0,1.3,0,.2,0,.4.2.6-.3,0-.3.3.4.5.3.5-.1,1,0,1.5-.1.2,0,.2-.3.2-.4,0,0,.4,0,0-.2-.3-.2.2,0,.1-.1-.1,0-.2-.5,0-.9.2-.3.4-.5.3-.8,0-.2-.4-.3-.4-.5,0-.2.3-.4-.3-.5,0,0,0,0,.1-.1.4-.2.4-.4,0-.5-.3-.1-.3-.3-.3-.4,0-.4-.1-.7-.1-1.1,0,0,0-.2,0-.2,0,0,0,0,0,0,0,0,.1,0,.2-.1,0,0-.2,0,0-.2.3-.3.2-.4.2-.4,0,0,0-.3-.3.3,0,0,0,0,0,0,.2-.4,0-.4,0-.2-.1.2-.2.4-.2.3,0,0,0,0,0,0-.1,0-.2,0-.4,0h-.7c-.1.1-.3,0-.4.4,0,.2-.2.2-.2,0-.4-.6-.8-.2-1.1-.3-.4,0-.8.2-1.2-.2-.2-.2-.3-.3-.2.3,0,.2,0,0,0,0,0,0,0,0,0,0,0,0,.1.3.2.3,0,0-.2-.2-.2-.2,0,0,0,0,0,0,.2.3.2.2,0,.2-.1,0-.4.1-.3.3.1.3,0,.7,0,1.2,0,.3-.1.6-1.2,1.1-.5.2-1,.3-1.4.2-.3,0-.5-.2-.6-.3-.1-.2-.3-.4-.4-.6-.2-.4-.8-.9-.5-1.5,0-.2-.2-.4.3-.5,0,0,.1,0,0-.1-.3-.4-.3-.9-.1-1.3.2-.4.5-.8.7-1.2.3-.5.6-1.3,1.2-1.7.1,0,.3-.1.5-.1,0-.4.3-.6.6-.7.3,0,.5,0,.7,0,.7.2,1.1.3,1.6.2.5,0,1-.2,1.4-.2.2,0,.5,0,.7,0h.9c.9-.1,1.8-.3,2.5,0,.2,0,.6-.2.7.2,0,.3.5.4.7.7.2.2.4.4.4.8-.2,1.5.3,2.8.3,3.5,0,.8,0,1.6.2,2.4.1.5.5,1,.3,1.5,0,.2.3.5-.3.6-.2,0,.3.2.3.5,0,.5,0,1.1-.2,1.7-.2.8-.5,1.4-1.1,1.9-.3.3-.6.7-1,1-.4.2-1,.3-1.6.3-.2,0-.4,0-.5,0h-.3s-.1,0-.1,0c-.2,0-.4-.1-.5-.1-.4,0-.7.3-1.1,0-.3-.2-.7-.3-1-.3-.3,0-.6,0-1.1,0-.4,0-.9,0-1.5-.2-.3,0-.6-.2-.9-.4-.4-.2-.6-.4-.9-.7-.3-.3-.4-.7-.4-1.2,0-.4,0-.9.2-1.3,0-.2.5-.4,1-.2.4.1.8.4,1,.6,0,0,.2.1.2.1,0,0,0,0,.2,0,.1,0,.3,0,.4,0,0,0,0,0,0,0,0,0,0,0,0,.1h0s0,0,0,0l.3-.5h0c0-.1,0-.1,0-.1h0s.2,0,.2,0Z"/>
    </g>
    <path d="M284.1,135.1c0-.1,0-.3,0-.4,0,0,.2,0-.3-.2-.3,0,.4,0,.4,0,0-.1,0-.3,0-.4,0-.1-.3-.3-.3-.4,0-.1.2-.2,0-.4-.3-.1.2-.2.1-.3-.1-.1-.2-.2,0-.3.2,0,.4-.1.3-.2,0,0-.4,0-.4-.1,0,0,.3,0-.3-.1,0,0,0,0,.1,0,.4,0,.4-.1.1-.1-.3,0-.2,0-.3-.1,0,0,0-.2,0-.3,0,0,.3-.2.3-.2,0,0-.2-.1,0-.2.3,0,.3-.1.3-.2,0,0,.3-.1-.4,0,0,0,0,0,0,0,.8-.2-.3-.1,0-.2.2-.1,0-.2,0-.2,0,0,.2,0-.3,0-.2,0-.2,0,0,0,.6-.3.2-.2.3-.3,0-.1-.2,0,.2-.3.2-.1.2-.2-.3,0-.2.1,0,0,0,0,0,0-.3.2-.2.1,0,0,.1,0,.2-.1,0,0,0,0,0,0-.3.2-.2.2-.1.1,0,0,.2-.2.1-.2-.1.1,0,0,0,0,0,0,0-.2.4-1.2.1-.5.3-1,.5-1.3.1-.2.2-.4.3-.5.1,0,.2-.2.4-.2.2-.1.7-.5.7-.2,0,0,.2-.1,0,.3,0,0,0,.1,0,0,.7-.5.6,0,.8.3.2.1.9,0,.8.3.6-.2.6,0,.5.2-.4.7.2.9.2,1.3,0,.4.2.8.2,1.1,0,0,.4,0,.1.2-.3.1,0,.2,0,.3,0,0,.1.1,0,.2-.6.3-.2.5-.3.7,0,.2-.1.5,0,.7,0,.1.4.3.3.4,0,0,.3.1-.3.2-.2,0,.3,0,.3.1,0,0,0,.2,0,.3,0,.1,0,.3,0,.4,0,0,.3.2.3.3,0,0,0,.2,0,.3,0,.1-.3.2-.4.3,0,.1.2.2,0,.3-.5.1-.3.4-.4.5,0,.2-.1.4,0,.6,0,.1-.5.2-.5.3,0,0-1.5,0-2-.1,0,0-.2,0-.2,0-.5-.1-1.2-.3-1.1-.4,0-.2,0-.3,0-.5Z"/>
    <path d="M384.5,184.5c-.7.7-1.5,1.4-2.2,2.2-.3.3-.7.4-.6,1,0,.3-.7.1-.9.4-.6.7-1.4,1.3-2,2.1-.6.7-1.1,1.5-1.7,2.2-.6.7-1.5,1.2-1.9,2-.4.7-1.2.9-1.6,1.5-.5.6-1,1.3-1.7,1.7-.5.3-1.1.5-1.4,1-.2.3-.2.8-.5,1-.3.2-.7.3-.5,1,0,0-.2,0-.3,0-.6,0-.9.3-.9.8,0,.4-.2.6-.4.8-.5.6-1.1,1.2-1.7,1.7-.5.4-1,.6-1.5,1-.5.4-.7,1.1-1.4,1.2-.6.2-1,.6-1.4,1-.2.2-.7.3-.4.9,0,0,0,.1-.1.1-1.2,0-1.1,1.5-1.9,2-.8.5-1.4,1.3-2.1,2-.2.2-.5.2-.3.7,0,.2-.1.4-.3.4-.9,0-1.2.9-1.8,1.3-.7.5-1.1,1.3-2,1.5-.4.1-.8.4-.7,1.1,0,.3-.4.4-.6.7-.1.2-.1.6-.3.8-.1.2-.5.1-.7.2,0,0-.1,0-.1.1-.4,1.3-1.9,1.6-2.6,2.6-.7,1-1.7,1.8-2.6,2.6-.5.4-1.1.8-2.3.3-.5-.2-.9-.6-.9-1,0-.3,0-.7.1-.9.2-.3.4-.7.6-1,.4-.7.6-1.6,1.4-2,.2-.1.2-.5.7-.3,0,0,.2,0,.2,0,.2-1.3,1.4-1.8,2.1-2.6.6-.7.8-1.8,1.7-2.3,0-.8.4-1.2.9-1.4,1.8-.8,2.8-2.5,4.2-3.7,1.4-1.3,2.7-2.7,4-4,.2-.2.2-.7.6-.7.4,0,.6-.5.9-.8s.5-.6.8-.8c1.5-.6,2.3-1.9,3.4-2.9,1.1-1,2.2-2,3.1-3.2.6-.7,1-1.6,1.7-2.1.3-.2.4-.8,1.1-.6.2,0,.1-.5.3-.7.4-.5.9-.9,1.3-1.3s1.2-1.2,1.8-1.8c.3-.4.5-.9.9-1.4.3-.4.7-.8,1.2-1.2.5-.4,1.2-.8,1.7-1.2.6-.5.9-1.2,1.6-1.5,1.3-.5,2-1.6,2.9-2.5.9-.9,1.9-1.7,2.7-2.7.5-.6,1.3-.7,1.8-1.2.2-.2,1.6.5,1.8.9,0,0,0,.2,0,.3-.2.8,0,1.8-.7,2.3-.9.8-1.7,1.6-2.5,2.5Z" fill="#00b4e9"/>
    <path d="M383,235.9c-.6.6-1.3,1.2-1.9,1.9-.2.3-.6.3-.5.9,0,.3-.6,0-.8.3-.5.6-1.2,1.2-1.8,1.8-.5.6-1,1.4-1.5,2-.5.6-1.3,1-1.7,1.8-.3.7-1.1.8-1.4,1.3-.4.6-.8,1.1-1.5,1.4-.5.2-1,.4-1.2.8-.2.3-.1.7-.4.9-.2.2-.7.3-.4.9,0,0-.2,0-.3,0-.5,0-.8.3-.8.6,0,.4-.2.5-.4.7-.5.5-.9,1-1.5,1.5-.4.3-.9.5-1.3.9-.4.3-.6.9-1.2,1.1-.6.1-.9.5-1.2.8-.2.2-.6.2-.3.8,0,0,0,.1-.1.1-1.1,0-.9,1.3-1.6,1.7-.7.4-1.2,1.1-1.8,1.8-.2.2-.5.2-.3.7,0,.2,0,.3-.3.3-.9,0-1.1.7-1.6,1.1-.6.4-.9,1.2-1.8,1.3-.4,0-.7.3-.6,1,0,.3-.4.4-.5.6-.1.2,0,.5-.2.7-.1.1-.4,0-.6.2,0,0-.1,0-.1.1-.3,1.2-1.7,1.3-2.3,2.2-.6.9-1.5,1.6-2.3,2.3-.5.4-1,.7-2.1.2-.5-.2-.9-.6-.9-1,0-.3,0-.6,0-.8.2-.3.3-.6.5-.9.3-.6.5-1.5,1.2-1.8.2,0,.2-.5.7-.3,0,0,.2,0,.2,0,.1-1.2,1.2-1.6,1.8-2.3.5-.6.7-1.6,1.4-2-.1-.8.3-1.1.8-1.3,1.6-.7,2.5-2.2,3.7-3.2,1.2-1.1,2.3-2.3,3.5-3.5.2-.2.1-.6.6-.7.4,0,.5-.5.8-.7s.4-.6.7-.7c1.4-.4,2-1.7,3-2.5,1-.9,1.9-1.7,2.7-2.8.5-.6.8-1.4,1.4-1.9.3-.2.3-.7.9-.5.2,0,0-.5.2-.7.3-.4.8-.8,1.1-1.2s1.1-1,1.6-1.6c.3-.3.4-.8.7-1.2.3-.4.6-.7,1-1,.5-.4,1.1-.7,1.5-1,.5-.4.8-1.1,1.4-1.3,1.2-.4,1.8-1.4,2.6-2.2.8-.7,1.6-1.5,2.3-2.4.4-.5,1.2-.5,1.6-1,.2-.2,1.5.6,1.8,1,0,0,0,.2,0,.2,0,.8,0,1.7-.5,2.1-.8.7-1.5,1.4-2.2,2.2Z" fill="#00b4e9"/>
    <path d="M400.5,261.4c-.4.4-.8.8-1.2,1.2-.1.2-.5.1-.3.7.1.3-.5,0-.6.1-.3.4-.8.7-1.1,1.2-.3.4-.5.9-.9,1.4-.3.4-.9.6-1,1.2-.1.5-.7.4-.9.8-.2.4-.5.8-1,.9-.3,0-.7.2-.9.5,0,.2,0,.5-.2.7-.2.1-.5,0-.2.7,0,0-.1,0-.2,0-.4-.1-.6,0-.5.4,0,.3,0,.4-.2.5-.3.3-.6.7-.9.9-.3.2-.7.3-.9.5-.3.2-.3.7-.8.7-.4,0-.6.2-.9.5-.1.1-.5,0-.1.6,0,0,0,0,0,0-.9-.2-.5.9-1,1.1-.5.2-.8.7-1.2,1.1,0,.1-.3,0-.1.5,0,.1,0,.3-.1.2-.7-.2-.8.4-1.1.6-.4.2-.5.8-1.2.8-.3,0-.6.1-.3.7.1.3-.2.2-.3.4,0,.1,0,.4,0,.5,0,0-.3,0-.5,0,0,0,0,0,0,0,0,1-1.1.8-1.5,1.4-.4.6-.9,1.1-1.5,1.5-.3.2-.7.4-1.7-.2-.4-.3-.8-.7-1-1,0-.3-.1-.5,0-.6,0-.2.1-.5.2-.7.2-.4.1-1.1.6-1.3.2,0,0-.4.5,0,0,0,.1,0,.1,0-.1-1,.7-1.1,1.1-1.5.3-.4.3-1.2.8-1.4-.2-.7,0-.8.4-.9,1.2-.3,1.6-1.3,2.4-2,.8-.7,1.5-1.5,2.3-2.2.1-.1,0-.5.3-.4.3,0,.4-.3.5-.4.1-.1.2-.4.5-.4,1.1-.1,1.4-1,2-1.5.6-.5,1.3-1.1,1.7-1.8.3-.4.4-1,.8-1.3.2-.1.1-.5.7-.2.2,0,0-.4,0-.5.2-.3.5-.5.7-.7.3-.3.7-.6,1-1,.2-.2.2-.6.4-.9.2-.3.4-.5.7-.7.3-.2.8-.3,1.1-.6.3-.2.4-.7.9-.8.9-.1,1.2-.8,1.7-1.3.5-.5,1.1-.9,1.5-1.5.2-.3.9-.2,1.1-.5.1-.1,1.3.7,1.7,1.1,0,0,.1.2.1.2,0,.6.3,1.4,0,1.6-.5.4-.9.9-1.4,1.4Z" fill="#00b4e9"/>
    <path d="M395.8,230s0,0,0,0c0,0-.2-.2.2.2.2.2-.3-.3-.3-.2,0,0,0,0,0,0,0,0,.2.2.2.3,0,0-.2-.1,0,0,.2.2-.2-.1-.1,0,0,0,.1.2,0,0-.1-.1-.3-.3-.2-.2,0,0,.3.3.2.3,0,0-.2-.2.2.3,0,0,0,0-.1-.1-.3-.3-.3-.3,0,0,.2.2.2.2.2.2,0,0,0,0,0,0,0,0-.2-.2-.3-.2,0,0,.1.2,0,0-.2-.2-.2-.2-.2-.2,0,0-.2-.2.2.3,0,0,0,0,0,0-.6-.6.2.2,0,0-.2-.1,0,0,0,0,0,0-.1-.1.2.2.1.1.1.1,0,0-.5-.4-.2-.2-.3-.2,0,0,0,.1-.3-.2-.2-.1-.2-.2.2.2.2.2,0,0,0,0,0,0,.2.2.2.2,0,0-.2-.2-.2-.2,0,0,0,0,0,0,.5.5-.2-.1,0,0,.1.1,0,.1,0,0,0,0-.2-.2-1-1-.4-.4-.8-.8-1-1-.2-.2-.3-.3-.4-.4,0,0-.2-.2-.2-.2-.1-.1-.5-.5-.3-.3,0,0-.1-.2.2.2,0,0,0,0,0,0-.5-.6-.2-.2-.2-.3,0,0-.5-.5-.3-.3-.4-.5-.4-.4-.2-.3.5.5.2.1.3.1,0,0,0,0,.1,0,0,0-.2-.3,0,0,.2.2,0,0,0,0,0,0,0-.1,0,0,.5.4.2.1.3.2,0,0,.1,0,0,0,0,0-.3-.3-.2-.3,0,0-.2-.2.2.2.1.1-.2-.2-.2-.2,0,0,0,0,0,0s0,0,0,0c0,0-.2-.2-.2-.3,0,0,0,0,0,0,0,0,.2.2.3.2,0,0-.1-.2,0,0,.4.3.2.1.3.2,0,0,.1,0,0,0,0,0,.3.3.3.3,0,0,1.1,1,1.4,1.4,0,0,.1.1.2.2.3.3.8.9.8.8,0,0,0,0,0,0Z" fill="#00b4e9"/>
    <g>
      <g>
        <path d="M335.8,219.8c-.2-.2-.4-.5-.7-.7,0,0,0-.3-.5,0-.2.1.2-.4,0-.4-.3-.2-.4-.4-.6-.6-.2-.2-.6-.2-.8-.4-.2-.2-.2-.6-.6-.6-.4,0-.1-.5-.4-.6-.3,0-.5-.2-.5-.6,0-.2,0-.5-.1-.6-.1,0-.4.1-.5,0,0,0,0-.4-.5,0,0,0,0,0,0-.2.2-.4.1-.4-.2-.3-.3.1-.3,0-.4,0-.2-.2-.4-.3-.5-.5,0-.2,0-.5-.1-.6,0-.2-.4-.1-.3-.5.1-.3,0-.4-.1-.6,0,0,0-.4-.5,0,0,0,0,0,0,0,.4-.8-.6-.2-.6-.6,0-.4-.4-.5-.6-.7,0,0,0-.2-.4,0-.1,0-.2,0-.1,0,.3-.6-.1-.5-.2-.7,0-.3-.5-.3-.3-.8,0-.2,0-.4-.5-.1-.2.1-.1-.1-.2-.2,0,0-.3.1-.4,0,0,0,0-.2.1-.4,0,0,0,0,0,0-.7.2-.3-.7-.7-.8-.4-.2-.6-.5-.8-.8-.1-.2-.1-.5.6-1.3.3-.4.7-.8,1-.9.2-.1.4-.2.5-.2.2,0,.3,0,.5,0,.3,0,.9-.1.8.2,0,.1.3,0,0,.4,0,0,0,.1,0,0,.8-.3.7.3.9.5.2.2.9,0,.9.4.6-.3.6,0,.6.1-.1.9.6,1,.9,1.5.3.5.8.8,1.1,1.3,0,0,.4-.1.3.2-.1.3.1.2.2.3,0,0,.3,0,.2.3-.2.8.4.8.7,1.2.3.4.5.8.9,1,.3.1.7,0,.8.4,0,.1.4,0,0,.5-.1.1.3,0,.4,0,.2.1.3.3.4.4.2.2.3.4.5.6.1,0,.4,0,.6.1.2,0,.3.2.3.4,0,.2,0,.5.2.7.1.2.5.2.4.5-.1.6.3.7.6,1.1.2.3.4.6.8.8.2.1,0,.6.1.8,0,0-.9,1.2-1.3,1.5,0,0-.2.1-.2.1-.5.2-1.2.5-1.3.3-.2-.3-.5-.5-.7-.8Z"/>
        <path d="M288.7,204.1c-.6.4-1.2.9-1.6,1.5-.1.2-.5.3-.2.8.2.2-.5.2-.6.4-.2.7-.5,1.3-.6,2.1,0,.7,0,1.5,0,2.3,0,.8-.3,1.6,0,2.4.3.7-.2,1.3-.1,2,.1.7.2,1.4,0,2.1-.2.5-.4,1-.2,1.5,0,.3.4.6.4.9,0,.3-.3.7.4.9,0,0,0,.2-.1.2-.4.4-.3.8,0,1,.3.3.3.5.3.8,0,.7.2,1.4.2,2.1,0,.5-.2,1.1-.2,1.6,0,.6.3,1.1,0,1.7-.2.5-.2,1-.1,1.5,0,.3-.2.7.4.8,0,0,0,.1,0,.2-.7.9.5,1.6.4,2.4,0,.9.2,1.7.3,2.6,0,.2-.1.5.4.6.2,0,.2.3.1.4-.5.7,0,1.3,0,2,0,.8.4,1.5,0,2.3-.1.4-.2.8.5,1.1.3.1,0,.5.2.8,0,.2.4.4.4.6,0,.2-.2.4-.2.6,0,0,0,.1,0,.2.8,1,.2,2.2.6,3.3.4,1.1.5,2.2.6,3.3,0,.6,0,1.3-1,1.9-.5.3-1,.4-1.4.2-.3-.1-.5-.3-.6-.5-.2-.3-.4-.7-.5-1-.3-.7-1-1.3-.8-2.1,0-.2-.3-.5.2-.7,0,0,0-.1,0-.2-1-.8-.6-1.9-.9-2.9-.2-.8-1-1.6-.9-2.5-.7-.4-.7-.9-.6-1.5.4-1.8-.4-3.4-.5-5.1-.2-1.7-.5-3.5-.7-5.2,0-.3-.4-.5-.2-.9.2-.4,0-.8,0-1.1,0-.3-.2-.7,0-1,.5-1.4,0-2.8,0-4.1,0-1.4,0-2.7-.3-4.1-.1-.8-.5-1.7-.4-2.5,0-.4-.3-.7.3-1.1.2-.1-.3-.4-.3-.7,0-.6,0-1.2,0-1.7,0-.8,0-1.6,0-2.4,0-.5-.2-1-.2-1.6,0-.6,0-1.1.2-1.7.2-.7.6-1.4.8-2.1.3-.7.4-1.6,1-2.2,1.1-1,1.9-2.3,3.1-3.1,1.2-.8,2.4-1.3,3.5-1.9.7-.3,1.4,0,2.1-.3.3,0,1.1,1.2,1.1,1.7,0,0,0,.2,0,.3-.5.6-.8,1.5-1.4,1.7-.9.3-1.8.7-2.5,1.2Z"/>
        <path d="M322.4,223.4c.3-.1.5-.2.8-.4,0,0,.3.1.2-.4,0-.3.3.3.4.2.2-.2.5-.2.7-.4.2-.2.4-.5.6-.7.2-.2.6,0,.7-.4,0-.3.5,0,.6-.2.2-.2.3-.4.6-.2.2,0,.5.2.6,0,0-.1,0-.4.1-.5.1,0,.3.2.2-.4,0,0,0,0,.1.1.3.3.4.3.4,0,0-.3,0-.3.1-.3.2-.1.4-.2.6-.3.2,0,.4.1.6.1.2,0,.3-.3.5-.1.3.2.4.2.6,0,0,0,.3.2.1-.4,0,0,0,0,0,0,.5.7.4-.4.7-.3.3.1.5-.1.8-.2,0,0,.2.1.1-.3,0-.2,0-.2.1-.1.4.5.5,0,.7.1.3,0,.4-.3.8,0,.2.2.3.2.3-.4,0-.3.2,0,.2-.1,0,0,0-.4.1-.4,0,0,.2.2.3.3,0,0,0,0,0,0,.1-.7.7,0,1-.3.3-.3.7-.3,1-.3.2,0,.5.1.9,1.2.2.5.3,1,.3,1.4,0,.2,0,.5,0,.6,0,.1-.1.3-.2.4-.2.2-.2.8-.5.6,0,0,0,.2-.3-.2,0,0,0,0,0,0,0,.8-.5.4-.8.6-.2.1-.3.8-.6.6,0,.6-.1.6-.3.5-.7-.5-1,.1-1.5.2-.5,0-1,.3-1.5.5,0,0,0,.4-.2.2-.2-.2-.2,0-.3,0,0,0-.2.2-.3,0-.6-.5-.9,0-1.3.1-.4,0-.8.2-1.1.5-.2.2-.3.6-.6.6-.1,0,0,.3-.4-.2,0-.1,0,.3,0,.4-.1.1-.3.2-.5.2-.2,0-.4.2-.6.3-.1,0-.1.4-.2.5-.1.1-.2.2-.4.2-.2,0-.5,0-.7,0-.2,0-.3.4-.6.2-.5-.3-.7,0-1.1.2-.3.1-.7.2-.9.5-.1.2-.5-.2-.7-.1,0,0-.9-1.2-1.1-1.7,0,0,0-.2,0-.2,0-.5-.2-1.2,0-1.3.3,0,.6-.3.9-.4Z"/>
        <path d="M314.8,229.8c.2.4.5.9.9,1.3.1.1,0,.5.6.3.3-.1,0,.5,0,.6.4.3.7.7,1.2,1,.4.3,1,.3,1.4.5.4.2.8.7,1.3.5.5-.1.6.5,1,.5.4,0,.8,0,1.2.3.3.2.5.5.8.4.2,0,.4-.4.5-.4.2,0,.4.3.5-.4,0,0,0,0,.1.1.2.4.5.3.6,0,.1-.3.2-.3.4-.3.4-.1.7-.2,1.1-.3.1,0,.3,0,.5,0,0,0,.2,0,.2,0h.1s0,0,0,0c.1,0,0-.2.2,0,.3.2.4.1.5,0,0,0,.5,0-.3-.2,0,0,0,0,0,0,.6.1.6,0,.4,0-.2,0-.5-.1-.3-.1.3,0,.2,0,.1,0h-.2c0,0,.2-.2-.4,0-.2,0-.2,0,0,0,.3-.1.4-.2.3-.2,0,0-.1,0-.1,0,0,0,0,0,0,0h0s0,0,0,0h-.2c-.2-.3-.4-.5-.5-.9,0-.3-.2-.6-.8-.4-.3.1-.3-.3-.5-.4-.2,0-.5,0-.6-.1-.1-.1,0-.4,0-.6,0,0,0,0,0-.1-1.1-.2-1-1.4-1.6-2-.6-.6-1.1-1.4-1.4-2.2-.2-.4-.2-1,.7-1.7.4-.3.9-.6,1.3-.5.3,0,.5,0,.7.1.2.2.4.3.6.4.4.3,1.1.4,1.1.9,0,.2.3.1,0,.5,0,0,0,.1,0,.1,1,0,1,.8,1.4,1.3.4.4,1.2.3,1.4.8.6-.3.8,0,.9.3,0,.3.2.5.4.7,0,0,.3.3.5.4.2.1.4.3.6.4.4.3,1,.5,1.5.8.5.2,1.1.5,1.7.8.6.3,1.3.6,1.9.9l-.4.5c-.2.2-.5.5-.7.7-.5.5-.9.9-1.4,1.3-.2.2,0,.5-.6.7-.5.1-.7.5-1.1.7-.3.2-.6.5-1.1.6-.5,0-.9.2-1.3.3l-.6.2c-.2,0-.3,0-.4.1-.5.2-1,.4-1.5.5-1,.2-2.1.2-3.1.4-.6.1-1.3.4-2,.2-.3,0-.6.2-.8-.4,0-.2-.4.2-.6.2-.5,0-.9-.2-1.3-.4-.6-.2-1.2-.5-1.8-.7-.4-.1-.8-.1-1.2-.3-.4-.2-.7-.4-1-.7-.4-.4-.7-.8-1-1.2-.4-.4-.9-.6-1.1-1.2-.2-1-1-1.6-1.4-2.5-.4-.9-.8-1.8-1.1-2.8-.2-.6.3-1.2.3-1.7,0-.3,1.5-.4,2-.2,0,0,.2,0,.2.1.4.4,1.2.6,1.1.9,0,.5.2,1,.5,1.5Z"/>
        <path d="M326.3,245.3c-.5,0-.9-.1-1.4-.1-.2,0-.3-.3-.6.2-.1.3-.2-.4-.4-.4-.4,0-.9-.2-1.3-.2-.4,0-.9.1-1.3,0-.4,0-.8-.4-1.3-.3-.4.2-.6-.4-1-.4-.4,0-.8-.1-1.1-.5-.2-.3-.3-.6-.6-.6-.2,0-.5.2-.6,0-.2-.1-.2-.4-.7,0,0,0,0-.1,0-.2,0-.5-.1-.6-.5-.5-.3.1-.4,0-.5-.1-.4-.3-.7-.6-1-.9-.2-.3-.2-.7-.4-1-.1-.3-.6-.4-.5-.9.1-.4,0-.6-.2-.9,0-.1.1-.4-.5-.3,0,0,0,0,0,0,.6-.8-.6-.7-.6-1.2,0-.5-.3-.9-.4-1.4,0-.1.1-.3-.4-.3-.2,0-.2-.1-.1-.2.5-.5,0-.7.1-1.1,0-.4-.3-.7.1-1.2.2-.2.3-.4-.4-.5-.3,0,0-.3-.1-.4,0-.1-.3-.2-.4-.3,0,0,.2-.2.3-.3,0,0,0,0,0,0-.7-.5.1-1.1,0-1.6-.2-.5-.2-1.1-.1-1.6,0-.3.2-.6,1.4-.9.5-.1,1.1-.1,1.4,0,.2,0,.5.2.5.3.1.2.2.3.3.5.2.3.8.6.5,1,0,.1.2.2-.3.3,0,0-.1,0,0,0,.8.4.3.9.4,1.3,0,.4.8.7.5,1.1.6.1.6.4.4.6-.6.8,0,1.5.1,2.1,0,.7.4,1.3.6,1.9,0,.1.4,0,.2.3-.2.2,0,.3.1.4,0,.1.2.1.2.3-.1.4,0,.6.1.8.2.2.4.3.5.5.3.4.7.7,1.2.9.3,0,.8-.1,1,.2.1.1.4-.2.3.4,0,.2.3-.2.4-.2.2,0,.4.1.6.2.3,0,.6.2.9.3.2,0,.5-.2.7-.2.2,0,.4,0,.6.1.2.1.5.4.7.5.3.1.6-.1.8.2.4.6,1,.4,1.5.5.5.1,1,.2,1.6,0,.3,0,.5.5.8.5.1,0,.3,1.5.2,2,0,0,0,.2,0,.2-.3.4-.6,1.2-1,1.1-.5-.1-1,0-1.5-.1Z"/>
        <path d="M317.7,250.7c.1,0,.3-.1.4-.3,0,0,.3.1,0-.4-.1-.2.3.2.3.2,0-.2.3-.2.4-.4,0-.2,0-.4.1-.6,0-.2.4,0,.3-.4-.1-.3.4,0,.4-.2,0-.2,0-.4.3-.3.2,0,.4,0,.4,0,0,0-.2-.4-.1-.4,0,0,.3,0-.1-.4,0,0,0,0,.1,0,.4.2.4.1.2-.1-.2-.2,0-.3,0-.3,0-.2.2-.3.3-.4.1,0,.4,0,.5,0,.1,0,0-.4.3-.2.3.1.4,0,.5,0,0,0,.3,0-.1-.4,0,0,0,0,0,0,.8.4,0-.5.3-.5.3,0,.3-.3.4-.4,0,0,.2,0-.1-.3-.1-.1,0-.2,0-.1.6.3.4,0,.6-.1.2,0,.1-.4.6-.2.2,0,.4,0,0-.4-.2-.2,0,0,0-.2,0,0-.2-.3-.1-.3,0,0,.2,0,.3.1,0,0,0,0,0,0-.3-.6.5-.2.6-.6,0-.3.3-.5.5-.6.1,0,.4,0,1.3.6.4.3.8.7,1,.9.2.2.3.4.3.5,0,.1,0,.3,0,.4,0,.3.3.7,0,.7-.1,0,0,.2-.3,0,0,0-.1,0,0,0,.4.7-.1.5-.2.8,0,.2.2.7,0,.7.4.5.2.5,0,.5-.8-.1-.7.5-1,.7-.3.2-.5.6-.8.9,0,0,.2.3,0,.2-.2-.1-.2,0-.2.2,0,0,0,.2-.2.2-.7-.2-.6.3-.9.5-.3.2-.5.4-.6.7,0,.2,0,.6-.2.7-.1,0,0,.3-.4,0-.1,0,.1.3.1.3,0,.1-.2.2-.3.3-.1.1-.3.3-.4.5,0,.1,0,.4,0,.5,0,.1-.2.2-.3.3-.2,0-.5,0-.6,0-.2,0-.2.4-.5.3-.6-.2-.7.2-1,.3-.3.1-.6.3-.9.5-.2.2-.5-.2-.7-.2,0,0-.7-1.3-.8-1.8,0,0,0-.2,0-.2,0-.5-.2-1.2-.1-1.2.2,0,.3-.1.5-.2Z"/>
        <path d="M310.8,218.9c0-.1,0-.2,0-.3,0,0,.2,0-.3-.1-.3,0,.4,0,.4,0,0-.1,0-.2,0-.3,0,0-.3-.2-.3-.3,0,0,.3-.2,0-.3-.3-.1.2-.1.1-.2-.1,0-.2-.2,0-.2.2,0,.4,0,.3-.1,0,0-.4-.1-.4-.1,0,0,.3,0-.3-.1,0,0,0,0,.1,0,.4,0,.4,0,.1-.1-.3,0-.2,0-.2-.1,0,0,0-.2,0-.2,0,0,.3,0,.4-.1,0,0-.2-.2,0-.2.3,0,.3,0,.3-.1,0,0,.3,0-.3-.1,0,0,0,0,0,0,.8,0-.2-.2,0-.3.2,0,0-.2,0-.3,0,0,.2,0-.3-.1-.2,0-.2,0,0,0,.6,0,.3-.1.4-.2.1,0-.2-.2.3-.2.2,0,.3,0-.3-.2-.3,0,0,0,0,0,0,0-.3,0-.3-.1,0,0,.2,0,.3,0,0,0,0,0,0,0-.6-.2.2-.2,0-.4-.2-.1,0-.3,0-.4,0,0,.3-.1,1.4,0,.5,0,1.1.1,1.4.2.2,0,.5.1.5.1,0,0,.2.1.3.2.2.1.7.2.4.3,0,0,.2,0-.3,0,0,0-.1,0,0,0,.8.2.2.2.3.4,0,0,.7.3.4.3.6.1.5.2.3.2-.7.1-.3.3-.4.5-.1.2,0,.4,0,.5,0,0,.3,0,0,.1-.3,0,0,0,0,.1,0,0,.1,0,0,.1-.7,0-.3.3-.4.4,0,.1-.2.3,0,.4,0,0,.4.2.3.3,0,0,.3.1-.3,0-.2,0,.3,0,.3,0,0,0,0,.1,0,.2,0,0,0,.2,0,.3,0,0,.3.1.3.2,0,0,0,.1,0,.2,0,0-.3.1-.4.2,0,0,.2.2,0,.2-.5,0-.3.2-.3.3,0,.1-.1.2,0,.4,0,0-.4.1-.4.2,0,0-.4,0-.8,0-.4,0-.9,0-1.2,0,0,0-.2,0-.2,0-.5-.1-1.2-.2-1.1-.3,0-.1,0-.2,0-.4Z"/>
        <path d="M319,218.9c0-.1,0-.2,0-.3,0,0,.2,0-.3-.1-.3,0,.4,0,.4,0,0-.1,0-.2,0-.3,0,0-.3-.2-.3-.3,0,0,.3-.2,0-.3-.3-.1.2-.1.1-.2-.1,0-.2-.2,0-.2.2,0,.4,0,.3-.1,0,0-.4-.1-.4-.1,0,0,.3,0-.3-.1,0,0,0,0,.1,0,.4,0,.4,0,.1-.1-.3,0-.2,0-.2-.1,0,0,0-.2,0-.2,0,0,.3,0,.4-.1,0,0-.2-.2,0-.2.3,0,.3,0,.3-.1,0,0,.3,0-.3-.1,0,0,0,0,0,0,.8,0-.2-.2,0-.3.2,0,0-.2,0-.3,0,0,.2,0-.3-.1-.2,0-.2,0,0,0,.6,0,.3-.1.4-.2.1,0-.2-.2.3-.2.2,0,.3,0-.3-.2-.3,0,0,0,0,0,0,0-.3,0-.3-.1,0,0,.2,0,.3,0,0,0,0,0,0,0-.6-.2.2-.2,0-.4-.2-.1,0-.3,0-.4,0,0,.3-.1,1.4,0,.5,0,1.1.1,1.4.2.2,0,.5.1.5.1,0,0,.2.1.3.2.2.1.7.2.4.3,0,0,.2,0-.3,0,0,0-.1,0,0,0,.8.2.2.2.3.4,0,0,.7.3.4.3.6.1.5.2.3.2-.7.1-.3.3-.4.5-.1.2,0,.4,0,.5,0,0,.3,0,0,.1-.3,0,0,0,0,.1,0,0,.1,0,0,.1-.7,0-.3.3-.4.4,0,.1-.2.3,0,.4,0,0,.4.2.3.3,0,0,.3.1-.3,0-.2,0,.3,0,.3,0,0,0,0,.1,0,.2,0,0,0,.2,0,.3,0,0,.3.1.3.2,0,0,0,.1,0,.2,0,0-.3.1-.4.2,0,0,.2.2,0,.2-.5,0-.3.2-.3.3,0,.1-.1.2,0,.4,0,0-.4.1-.4.2,0,0-.4,0-.8,0-.4,0-.9,0-1.2,0,0,0-.2,0-.2,0-.5-.1-1.2-.2-1.1-.3,0-.1,0-.2,0-.4Z"/>
      </g>
      <path d="M324.8,203.8c1.1-.4,2.2-.8,3.3-1.3.2,0,.4-.1.6-.2,0,0,.1-.1,0-.4-.2-.2.4.3.5.2.2-.2.7-.2.9-.3h0c-.1,0-.4-.2-.6-.3h-.5c-.1-.2-.1-.3-.2-.3,0,0,0,0,0,0l-.3-.2c-.2-.1-.4-.2-.7-.3-.8-.2-1.2-1-1.9-1.3-.8-.3-1.5-.6-2.2-1.1-.5-.4-.9-.8-1.5-.9-.4,0-.8.2-1.1,0-.3-.1-.7-.5-1.1.1,0,0-.2,0-.2-.2-.3-.5-.8-.5-1.1-.3-.3.2-.6.2-.8.2h-2.3c-.6,0-1.3,0-1.9,0-.7,0-1.3.4-2,.3-.7-.2-1.3,0-1.9,0-.3,0-.8-.1-1,.5,0,0-.1,0-.2,0-1.2-.6-1.9.7-2.9.7-1.1,0-2.1.5-3.1.8-.3,0-.6,0-.7.5,0,.2-.3.3-.5.2-.9-.4-1.6.2-2.4.4-.9.2-1.7.7-2.7.6-.4,0-1,0-1.2.7-.1.3-.6.2-.9.4-.2.1-.4.5-.6.6-.2,0-.5,0-.8,0,0,0-.2,0-.2,0-.9,1.1-2.3.9-3.3,1.8-.9.8-1.8,1.5-2.6,2.4-.5.4-.9.8-2.2.7-.6,0-1.1-.3-1.2-.8,0-.3-.1-.7,0-1,.2-.5.4-.9.6-1.3.5-.9.8-2,1.8-2.4.3-.1.4-.6.9-.3,0,0,.2,0,.2,0,.6-1.4,2.1-1.7,3.3-2.3,1-.5,1.7-1.5,2.9-1.7.3-.8,1.1-1,1.7-1,2.2,0,4.1-1.2,6.2-1.7,2.1-.5,4.2-1.1,6.4-1.6.4,0,.6-.5,1.1-.3.5.2.9-.1,1.4-.2.4,0,.9-.3,1.3-.2,1.8.4,3.4-.3,5.3-.3,1.8,0,3.7.2,5.5.5,1.1.2,2.3.2,3.3.8.4.2,1,.1,1.2.9,0,.2.6,0,.9.1.7.3,1.3.7,1.9,1.1.4.3.9.6,1.3.8l1.7,1.2c.9.6,2,1.1,3,1.8,1,.7,2,1.4,2.8,2.2.4.3.8.7,1.1,1-1.1.3-2.1.5-3,.8-.8.2-1.4.5-2.1.8-.7.3-1.4.5-2.2.7-.7.1-1.4.3-1.9.4-.3,0-.7.2-1,.3-.7.3-1.3.6-2,.8-1.3.5-2.7,1-3.9,1.7-.7.4-1.6.2-2.3.6-.3.2-1.4-1-1.5-1.5,0,0,0-.2,0-.3.5-.8.9-1.7,1.7-2,1.2-.5,2.5-1.1,3.7-1.6Z"/>
      <path d="M304.4,212.9c-.1.8-.3,1.6-.4,2.3,0,.3-.3.5.1.9.2.2-.4.4-.5.6,0,.7-.3,1.4-.3,2.2,0,.7,0,1.5,0,2.2,0,0,0,.2,0,.4v.5c0,0-.3.9-.3.9-.1.6-.2,1.2-.2,2,0,.7-.1,1.2-.3,1.6-.1.4-.3.8-.3,1.4,0,1.2-.2,2.7-.6,3.2,0,0-.2,0-.3,0-.4-.7-.8-1.3-1.1-1.6-.3-.3-.5,0-.9-.6-.4-.6-.8-1.5-1.1-.9,0,0-.2-.4-.3-.6-.2-.6-.4-1-.6-1.2-.2-.3-.4-.4-.6-.4-.4,0-.7-.4-1-.7-.1-.1-.2-.2-.3-.3l-.3-.2-.3-.2c-.2-.1-.4-.3-.5-.4-.2-.2-.5-.6-.7-.7-.3-.2-.7,0-.9-.3-.3-.4-.6-.3-.9-.3-.2,0-.4-.3-.5.4,0,0,0,0,0,0-.3-.4-.5-.2-.7,0-.2.2-.2.5-.4.5-.5,0-.6.4-.8.7,0,0-.3.1.1.4.1,0,.1.2,0,.2-.7,0-.4.5-.5.8-.1.4.2.8-.1,1.3-.1.2-.1.6.5.6.3,0,.1.3.3.4.1,0,.4,0,.5.2,0,0,0,.3,0,.5,0,0,0,0,0,0,.5,0,.7.4.8.7.2.3.4.7.7.9.7.4,1.4.9,2.1,1.4.4.3.8.7.5,1.9-.1.5-.4,1-.8,1.2-.3.1-.5.2-.7.2-.3,0-.6-.1-.9-.2-.6-.2-1.5,0-1.9-.7-.1-.2-.5,0-.3-.6,0,0,0-.2,0-.1-1.2,0-1.6-1-2.3-1.7-.6-.6-1.6-1-1.8-2-.8-.2-.9-.9-.9-1.5,0-1,0-1.9,0-2.9,0-1,.2-2,.8-3,1.1-1.9,3.1-3.2,5-3.5.3,0,.6-.5,1-.2.4.2.8,0,1.2,0,.4,0,.8,0,1.1.2,1.3.9,2.7,1.2,3.8,2,.7.5.6.6.8.7.1.1.3.3.4.3.1,0,0-.4.1-.3,0,0,0,0,0,.1,0,.1,0,0,0-.1,0,0,0,0,.3.6.1.3-.2-.6-.2-.7,0-.2,0-.2,0-.3,0-.1,0-.2,0-.4,0-.2-.3,0-.3-.6,0-.4,0-.8.2-1.2.2-.5.5-1,.6-1.5.2-.5,0-1.1.3-1.6.7-.9.6-1.9.8-2.8.2-.9.4-1.9.5-2.9,0-.6.6-1,.7-1.5,0-.2,1.6-.3,2-.2,0,0,.2,0,.2.1.4.6,1,1.2.9,1.8-.2.9-.3,1.8-.5,2.6Z"/>
    </g>
  </g>
  <path d="M294.1,312.3c-.2-.1-.3-.3-.5-.4,0,0,0-.3-.4,0-.2.2.2-.4,0-.4-.2,0-.3-.3-.5-.3-.2,0-.5,0-.6,0-.2,0-.1-.4-.5-.3-.3.1,0-.4-.3-.3-.2,0-.4,0-.3-.3,0-.2,0-.4,0-.4,0,0-.3.2-.4.2,0,0,0-.3-.4.1,0,0,0,0,0-.1.2-.4.1-.4-.1-.2-.2.2-.2.1-.3,0-.1,0-.3-.1-.4-.3,0-.1,0-.4,0-.5,0-.1-.3,0-.2-.3,0-.3,0-.4,0-.4,0,0,0-.3-.4.2,0,0,0,0,0,0,.4-.8-.4,0-.5-.3,0-.3-.3-.3-.4-.4,0,0,0-.2-.3.1-.1.1-.2.1-.1,0,.3-.6,0-.4-.1-.5,0-.2-.4,0-.2-.5,0-.2,0-.4-.4,0-.2.2,0,0-.2,0,0,0-.3.2-.3.2,0,0,0-.2,0-.3,0,0,0,0,0,0-.6.4-.3-.5-.6-.4-.3,0-.5-.2-.6-.4,0-.1,0-.3.5-1.3.3-.4.6-.9.8-1.1.2-.2.3-.3.4-.4.1,0,.3,0,.4-.1.2,0,.7-.4.6,0,0,.1.2-.1,0,.3,0,0,0,.1,0,0,.6-.5.5,0,.7.1.2,0,.7-.3.7,0,.5-.5.5-.3.5,0,0,.8.5.6.7.9.3.3.6.5.9.7,0,0,.3-.2.2,0,0,.3,0,.1.2.2,0,0,.2,0,.2.2-.2.7.3.6.5.8.2.2.4.5.7.5.2,0,.6-.1.6,0,0,0,.3-.1,0,.4,0,.1.3-.2.3-.1.1,0,.2.1.3.2.1.1.2.3.4.3.1,0,.3,0,.5,0,.1,0,.2,0,.3.2,0,.1,0,.4.1.5,0,.1.4,0,.3.3-.1.6.2.5.4.7.2.2.3.4.6.5.2,0,0,.5,0,.6,0,0-.8,1.2-1.2,1.6,0,0-.1.1-.2.2-.4.3-1,.7-1.1.6-.1-.2-.3-.3-.5-.5Z" fill="#fff"/>
  <path d="M305.2,301.3c-.2-.2-.3-.4-.5-.5,0,0,0-.3-.4,0-.2.1.2-.3.1-.4-.2-.1-.3-.3-.5-.4-.2-.1-.5-.1-.7-.2-.2,0-.1-.5-.5-.4-.3,0,0-.4-.3-.4-.2,0-.4,0-.4-.4,0-.2,0-.5,0-.5-.1,0-.4.2-.4.1,0,0,0-.3-.4,0,0,0,0,0,0-.1.2-.4.1-.4-.1-.2-.2.2-.3,0-.3,0-.2,0-.3-.2-.4-.3,0-.1,0-.4,0-.5,0-.1-.4,0-.3-.3,0-.3,0-.4-.1-.5,0,0,0-.3-.4.1,0,0,0,0,0,0,.3-.8-.5,0-.5-.3,0-.3-.3-.3-.5-.4,0,0,0-.2-.3.1-.1.1-.2.1-.1,0,.2-.6-.1-.4-.2-.6,0-.2-.4,0-.3-.6,0-.2,0-.4-.4,0-.2.2-.1,0-.2,0,0,0-.3.2-.3.2,0,0,0-.2,0-.4,0,0,0,0,0,0-.6.4-.3-.5-.7-.5-.3,0-.5-.2-.7-.4-.1-.1-.2-.4.3-1.4.2-.5.5-1,.7-1.2.2-.2.3-.4.4-.4.1,0,.3-.1.4-.2.3,0,.7-.5.7-.1,0,.1.2-.1,0,.4,0,0,0,.1,0,0,.6-.6.6,0,.9.1.2,0,.7-.3.8,0,.4-.5.5-.3.5,0,0,.8.7.7,1,1,.3.3.8.5,1.1.9,0,0,.3-.2.2,0,0,.3.1.2.2.2,0,0,.2,0,.2.2-.1.7.4.7.7,1,.2.3.5.6.9.7.2,0,.6,0,.7.2,0,.1.3,0,0,.4,0,.1.3-.1.3-.1.1,0,.2.2.4.3.2.1.3.3.5.4.1,0,.4,0,.5,0,.1,0,.2.2.3.3,0,.2,0,.5.1.6,0,.2.4.1.3.4-.2.6.2.6.4.9.2.3.3.5.6.7.2,0-.1.5,0,.7,0,0-1,1.1-1.4,1.4,0,0-.2.1-.2.1-.5.2-1.1.5-1.2.4-.1-.2-.3-.4-.5-.6Z" fill="#fff"/>
  <path d="M303.8,298.5c0,0-.1,0-.2.2,0,0-.2-.1.1.3.2.2-.3-.2-.3-.2,0,0-.1,0-.1.2,0,0,.1.3.1.4,0,0-.3,0,0,.2.2.2-.2,0-.2,0,0,.1,0,.2-.1.1-.2,0-.4-.2-.3,0,0,0,.3.3.2.3,0,0-.3-.1.2.3,0,0,0,0-.1,0-.3-.2-.3-.2-.1,0,.2.2.2.2.2.2,0,0,0,.1,0,.1,0,0-.3,0-.4,0,0,0,.1.2-.1,0-.3-.1-.3,0-.3,0,0,0-.3-.1.3.2,0,0,0,0,0,0-.7-.4.2.2,0,.2-.2,0-.1,0-.1.2,0,0-.2,0,.2.2.1,0,.1.1,0,0-.6-.3-.3,0-.4,0-.1,0,0,.2-.4,0-.2,0-.3,0,.2.2.2.1,0,0,0,0,0,0,.3.2.3.2,0,0-.2,0-.3-.1,0,0,0,0,0,0,.6.4-.3,0-.1.2.1.2,0,.2,0,.3,0,0-.3,0-1.3-.4-.5-.2-1-.4-1.3-.5-.2-.1-.4-.2-.5-.2,0,0-.2-.2-.3-.2-.2-.1-.6-.4-.3-.4,0,0-.2-.1.3,0,0,0,.1,0,0,0-.7-.4-.2-.3-.2-.4,0-.1-.5-.5-.2-.4-.5-.3-.4-.3-.2-.3.7.1.4-.3.6-.4.2-.1.2-.4.3-.5,0,0-.3-.2,0-.1.2.1,0,0,.1,0,0,0,0-.1,0,0,.6.2.4-.1.5-.2.2,0,.3-.2.3-.4,0-.1-.2-.4,0-.4,0,0-.2-.2.3,0,.1,0-.2-.2-.2-.3,0,0,0-.1.1-.2,0,0,.2-.1.2-.2,0,0-.1-.3-.1-.4,0,0,0-.1.1-.1.1,0,.3,0,.4,0,0,0,0-.3.2-.1.5.3.4,0,.5,0,.1,0,.3-.1.3-.3,0-.1.4.2.4.2,0,0,.3.3.6.6.3.3.6.7.8.9,0,0,.1.2.1.2.3.4.7,1,.6,1-.1,0-.1,0-.2.2Z" fill="#fff"/>
</svg>