<?xml version="1.0" encoding="UTF-8"?>
<svg id="ARTWORK" xmlns="http://www.w3.org/2000/svg" width="600" height="600" viewBox="0 0 600 600">
  <path d="M368.4,364.6c.2.4.3.8.6,1.1.1.1,0,.4.5.2.3-.1-.1.4,0,.5.3.2.6.6.9.7.4.2.8.2,1.2.3.4.1.6.5,1.1.3.4-.2.5.4.9.3.4,0,.7,0,1,.2.2.2.5.4.7.3.2,0,.3-.4.5-.4.2,0,.3.3.5-.4,0,0,0,0,.1.1.2.4.4.4.6,0,.1-.3.3-.3.4-.3.4,0,.8-.1,1.2-.1.3,0,.6.2,1,.2.3,0,.6-.3,1,0,.3.3.6.2.9.2.2,0,.4.2.5-.4,0,0,0,0,.1,0,.6.8.9-.4,1.4-.2.5.1,1,0,1.5-.2.1,0,.3.1.4-.3,0-.2.2-.2.2,0,.5.6.8.1,1.2.2.5,0,.8-.3,1.4.1.2.2.5.2.6-.4,0-.3.3,0,.5-.1.1,0,.2-.4.3-.4.1,0,.3.2.4.3,0,0,0,0,.1,0,.5-.8,1.3,0,1.9-.3.6-.3,1.2-.4,1.8-.4.4,0,.6,0,1.2,1.1.3.5.5,1,.5,1.3,0,.3,0,.5-.2.6-.2.2-.4.4-.6.5-.4.3-.7.9-1.2.7-.2,0-.3.3-.5-.2,0,0,0,0-.1,0-.4.9-1.1.5-1.7.7-.5.1-.9.8-1.4.7-.2.7-.5.6-.8.5-1.1-.5-2,0-3,.1-1,0-2,.3-3,.3-.2,0-.3.4-.5.1-.2-.2-.4,0-.7,0-.2,0-.4.2-.6,0-.9-.6-1.6,0-2.4,0-.8,0-1.6,0-2.5.2-.5.1-1.1.4-1.7.3-.2,0-.5.2-.7-.4,0-.2-.3.2-.5.2-.4,0-.8-.1-1.2-.2-.5-.1-1-.3-1.6-.5-.3,0-.7,0-1.1-.1-.4-.1-.7-.3-1-.6-.4-.3-.6-.8-1-1.1-.3-.4-.9-.5-1-1.1-.2-1-.9-1.5-1.2-2.3-.3-.8-.5-1.6-.8-2.4-.2-.5.3-1,.3-1.4,0-.2,1.5-.5,2-.4,0,0,.2,0,.2,0,.5.3,1.2.5,1.2.8,0,.5.2.9.4,1.4Z" fill="#aaca60"/>
  <path d="M307.6,427.5c-3.7,2.3-7.5,4.5-11.4,6.7-1.4.8-3,1.4-4.3,2.6-.6.6-2.3.8-3.7,1.5-3.6,1.9-7.4,3.5-11.1,5.2-1.8.8-3.6,1.7-5.4,2.5-1.8.8-3.7,1.7-5.6,2.4-3.8,1.4-7.8,2.3-11.5,3.4-3.2,1-6.3.9-9.5,1.4-3.4.4-7,.6-10.3.2-2.4-.3-4.8-.8-7.2-1.1-1.5-.2-3-.2-4.6-.6-1.5-.4-3.1-1.1-4.6-1-.1,0-.8-.3-1.1-.5-1.4-1-3.3-1.7-4.7-2-1.4-.3-2.4-.9-3.6-1.5-3.1-1.7-6-3.6-8.7-5.9-2-1.7-3.8-3.6-5.5-5.6-1.8-2-3.8-4.1-5.1-6.3-.6-1.1-1.2-2.2-1.9-3.2-.6-1-1.2-2.1-1.9-3.1-.7-1.2-1.2-2.8-2.3-3.5,0,0-.3-.5-.4-.8-1-3.9-3.4-7-4.5-10.9-1.1-3.9-2.4-8-3.3-12-.3-1.1-.3-2.3-1-3.2-.2-.3-.5-1.5-.5-2,0-3.1-.9-6.2-1.2-9.3-.4-3.5-1.1-7-1.1-10.6,0-1.5,0-3.6-.8-5.4-.3-.8-.2-2.6-.3-3.9-.1-1.1-.4-2.1-.5-3.2,0-.9.2-1.8.3-2.8,0-.3,0-.6,0-.9-.7-5.3.5-10.5,1.3-15.8.8-5.3,2.6-10.7,5.5-15.4.4-.7.8-1.3,1.3-1.9.5-.6.9-1.2,1.4-1.7,1-1,2.2-1.7,3.2-2.1,1-.3,1.3,0,.8,1.2-.4.8-.9,1.7-1.5,2.5-.4.7-.8,1.4-1.2,2.1-.2.3-.4.7-.6,1-.2.4-.3.7-.5,1.1-.3.7-.7,1.5-1,2.2-.3.8-.5,1.5-.8,2.3l-.4,1.1-.3,1.2c-.2.8-.5,1.5-.8,2.3-.3,1-.3,2.2-1.1,3-.1,0-.2.5-.2.7-.2,4.5-1.1,9.1-1.1,13.7,0,3.9.7,7.7.8,11.6.8,2.1.9,4.7,1,6.9.2,7.8,1.8,15.6,3.4,23.2,1.6,7.7,4,15.2,7.4,22.3.3.6.6,1.1,1,1.7.3.5.7,1.1.9,1.9.4,1.4,1.6,2.9,2.5,4.4.9,1.3,1.9,2.6,2.6,3.8,1.5,2.6,3.5,5,5.7,7.1,2.2,2.1,4.6,4,7.1,5.7,4.9,3.5,10.6,6,16.5,7.4,3.6.8,7.3,1,10.9,1.4.8,0,1.6,0,2.4,0,.8,0,1.6.1,2.4.4.5.1,1.9-.3,2.9-.4,1.3-.1,2.5-.2,3.8-.4l1.9-.2,1.9-.3c3.5-.6,7-1.3,10.3-2.4,1-.3,2-.7,3-1.1,1-.4,2-.9,3-1.3,2.1-.9,4.2-1.8,6.3-2.6,2.7-1.1,5.5-2.1,8.1-3.2,2.8-1.2,5.5-2.8,8.2-3.9,5-2,9.6-4.9,14.2-7.6,4.6-2.7,9.2-5.5,13.7-8.4,2.6-1.7,5.2-2.7,7.7-4.3,1.2-.7,3.6-.5,3.3.3,0,.1-.2.3-.4.5-2.2,1.9-4.1,4-7,5.7-4.2,2.5-8.4,5.2-12.7,7.8Z"/>
  <path d="M309.1,377.9c-1.1.3-2.3.5-3.4.8-.4.1-.9,0-1.2.6-.2.3-.7-.2-1.1,0-1,.3-2.1.5-3.1.8-1,.3-2,.8-3,1.1-1,.3-2.1.3-3,.9-.8.5-1.6.2-2.4.5-.8.4-1.7.7-2.6.7-.7,0-1.3,0-1.9.2-.4.2-.6.6-1,.7-.4,0-.9,0-1.1.6,0,0-.2,0-.3,0-.5-.3-1-.1-1.3.3-.3.4-.6.4-.9.5-.8.3-1.7.5-2.6.7-.6.1-1.3,0-2,.2-.7.1-1.3.6-2,.5-.7-.1-1.3,0-1.9.3-.3.1-.8,0-.9.6,0,0-.1,0-.2,0-1.2-.5-1.9.8-2.9.9-1.1.1-2.1.6-3.1.9-.3,0-.6,0-.7.5,0,.2-.3.3-.5.2-.9-.4-1.6.3-2.4.4-.9.2-1.7.7-2.8.6-.4,0-1,0-1.3.7-.1.3-.6.2-.9.4-.3.1-.4.5-.7.6-.2,0-.5,0-.8-.1,0,0-.2,0-.2,0-1.1,1.1-2.7.6-3.9,1.3-1.2.6-2.6,1-3.9,1.4-.7.2-1.5.3-2.4-.6-.4-.4-.6-.9-.4-1.3.1-.3.3-.6.6-.8.4-.2.8-.5,1.1-.7.8-.5,1.4-1.3,2.4-1.3.3,0,.5-.4.9,0,0,0,.2,0,.2,0,.9-1.1,2.3-1.1,3.4-1.5,1-.4,1.8-1.3,2.9-1.4.4-.8,1.1-.9,1.7-.9,2.2,0,4.1-1.1,6.1-1.6,2.1-.6,4.1-1.3,6.1-1.8.4,0,.5-.5,1-.4.5.1.9-.2,1.3-.3.4-.1.8-.4,1.2-.3,1.8.2,3.3-.7,4.9-1.1,1.6-.4,3.2-.8,4.8-1.4.9-.4,1.8-1,2.9-1.1.4,0,.8-.5,1.4,0,.2.1.4-.4.7-.5.7-.2,1.3-.4,2-.6.9-.3,1.9-.5,2.8-.8.6-.2,1.1-.6,1.6-.8.6-.2,1.2-.4,1.8-.5.8-.1,1.6-.1,2.4-.2.8-.1,1.6-.6,2.4-.5,1.5.1,2.9-.5,4.3-.7,1.4-.3,2.8-.6,4.2-1,.8-.3,1.6,0,2.4-.1.4,0,1.2,1.2,1.1,1.8,0,.1,0,.2,0,.3-.6.6-1.2,1.5-2.1,1.7-1.3.2-2.6.6-3.8.9Z"/>
  <path d="M335,349.5c-.4.4-.9.9-1.3,1.4-.1.2-.5.2-.3.7.1.3-.5,0-.6.2-.3.5-.8.8-1.1,1.3-.3.5-.5,1-.9,1.5-.3.5-.9.7-1,1.3,0,.5-.7.5-.9.9-.2.4-.5.9-.9,1.1-.3.2-.7.3-.9.6,0,.2,0,.6-.1.7-.1.2-.5.2-.1.7,0,0-.1,0-.2,0-.5,0-.6.2-.5.5.1.3,0,.4-.1.6-.3.4-.5.8-.9,1.1-.2.3-.6.4-.9.6-.3.3-.3.7-.7.8-.4.1-.6.4-.8.7-.1.2-.5.2,0,.7,0,0,0,.1,0,0-1,0-.4,1-.9,1.4-.5.4-.7.9-1,1.4,0,.1-.3.2,0,.5.1.1,0,.3-.1.3-.8,0-.7.6-1,.9-.4.4-.4.9-1.1,1.1-.3,0-.5.3-.2.8.2.2-.2.3-.2.5,0,.2.1.4,0,.6,0,.1-.3,0-.5.2,0,0,0,0,0,.1.2,1-.9,1.1-1.1,1.9-.2.7-.6,1.3-1.1,1.9-.2.3-.6.6-1.8.3-.5-.1-1-.4-1.2-.7-.1-.2-.3-.5-.3-.6,0-.3,0-.5,0-.8,0-.5-.2-1.2.3-1.5.2,0,0-.4.5-.3,0,0,.1,0,.1,0-.3-1,.4-1.3.8-1.9.3-.5,0-1.3.6-1.7-.4-.6,0-.9.3-1.1,1.2-.6,1.4-1.8,2.2-2.8.7-.9,1.3-2,2-2.9.1-.2,0-.5.3-.5.3,0,.3-.4.5-.6.1-.2.2-.5.4-.6,1.1-.3,1.3-1.3,1.9-2,.6-.7,1.2-1.4,1.7-2.2.3-.5.4-1.1.8-1.5.2-.2,0-.6.7-.4.2,0,0-.4,0-.5.2-.3.5-.6.7-.9.3-.4.7-.8,1-1.2.2-.3.2-.7.4-1,.2-.3.4-.6.7-.8.3-.3.8-.4,1.1-.7.3-.3.5-.8,1-.9.9-.2,1.3-1,1.9-1.5.6-.5,1.2-1.1,1.7-1.7.3-.4.9-.3,1.2-.6.1-.1,1.4.7,1.7,1.1,0,0,.1.2.1.2,0,.6.3,1.4-.1,1.7-.6.4-1,1-1.5,1.5Z"/>
  <path d="M373.4,346.1c-.7,0-1.3,0-2,.1-.2,0-.5-.2-.7.3-.1.3-.4-.3-.6-.3-.6.1-1.2,0-1.8.2-.6.1-1.2.4-1.7.5-.6.1-1.2,0-1.7.3-.4.3-1,0-1.4.1-.5.2-1,.4-1.5.2-.4,0-.8-.2-1.1,0-.2.1-.3.5-.6.5-.2,0-.5-.2-.6.5,0,0-.1,0-.2-.1-.3-.3-.6-.2-.7,0-.1.3-.3.3-.5.4-.5.2-1,.3-1.5.4-.4,0-.8,0-1.2,0-.4,0-.7.4-1.2.3-.4-.2-.8,0-1.1,0-.2,0-.5-.1-.5.5,0,0,0,0-.1,0-.8-.6-1,.6-1.6.6-.6,0-1.2.4-1.7.6-.1,0-.4,0-.3.4,0,.2-.1.3-.3.2-.7-.4-1,.1-1.4.2-.5.1-.9.6-1.6.4-.3,0-.6,0-.6.6,0,.3-.3.2-.5.3-.1.1-.1.4-.3.5-.1,0-.3,0-.5-.1,0,0,0,0-.1,0-.4.9-1.5.5-2.1,1-.6.5-1.3.9-2.1,1.2-.4.2-.9.2-1.7-.6-.4-.4-.7-.8-.7-1.2,0-.3,0-.6.1-.7.2-.2.3-.5.5-.7.4-.4.5-1.2,1.2-1.2.2,0,.2-.4.6,0,0,0,.1,0,.1,0,.3-1,1.2-1,1.8-1.3.5-.3.8-1.2,1.5-1.2,0-.7.5-.8.9-.8,1.4,0,2.4-.8,3.6-1.2,1.2-.4,2.4-.9,3.6-1.3.2,0,.3-.5.6-.3.3.2.5-.1.8-.2.2,0,.5-.3.7-.2,1.2.4,2-.3,3-.5,1-.2,2-.4,2.9-.7.6-.2,1.1-.7,1.7-.7.3,0,.5-.4.8.2.1.2.3-.3.4-.4.4-.1.8-.2,1.2-.2.6-.1,1.2-.1,1.7-.3.3,0,.7-.4,1-.5.4-.1.7-.1,1.1-.1.5,0,1,.2,1.4.2.5,0,1-.3,1.5,0,.9.5,1.7.1,2.6.2.9,0,1.7,0,2.6,0,.5,0,.9.4,1.4.4.2,0,.5,1.5.4,2,0,0,0,.2,0,.2-.5.5-.9,1.2-1.4,1.1-.8,0-1.5,0-2.3,0Z"/>
  <path d="M376,359.2c0-.3,0-.5,0-.8,0,0,.2-.2-.3-.3-.3,0,.4-.2.3-.2,0-.2,0-.5,0-.7,0-.2-.3-.5-.4-.7,0-.2.2-.5-.1-.7-.3-.2.2-.4,0-.6-.1-.2-.2-.4,0-.6.2-.1.4-.3.3-.4,0,0-.4-.2-.4-.2,0,0,.3-.2-.3-.3,0,0,0,0,.1,0,.4-.1.4-.2,0-.3-.3,0-.2-.1-.3-.2,0-.2,0-.4,0-.6,0-.2.3-.3.3-.5,0-.2-.2-.3,0-.5.3-.2.3-.3.3-.4,0,0,.3-.2-.4-.2,0,0,0,0,0,0,.8-.3-.3-.4,0-.7.2-.2,0-.5,0-.7,0,0,.2-.1-.3-.2-.2,0-.2,0,0-.1.6-.2.2-.4.3-.6.1-.2-.2-.4.3-.6.2,0,.3-.2-.3-.3-.3,0,0-.2,0-.2,0,0-.3-.1-.3-.2,0,0,.2-.1.3-.2,0,0,0,0,0,0-.7-.3.2-.6,0-.9-.2-.3-.1-.6,0-.9,0-.2.2-.4,1.4-.5.5,0,1.1,0,1.4,0,.2,0,.5,0,.5.2,0,0,.2.2.3.3.2.2.7.4.5.6,0,0,.2.1-.3.2,0,0-.1,0,0,0,.8.2.3.5.4.8,0,.2.7.4.4.7.6.1.5.3.3.4-.7.5-.2.9-.3,1.4,0,.5,0,.9,0,1.4,0,0,.4.1,0,.2-.3,0,0,.2,0,.3,0,0,.1.2,0,.3-.6.4-.2.8-.3,1.1,0,.4-.1.7,0,1.1.1.2.5.4.3.7,0,0,.3.2-.3.3-.2,0,.3.1.3.2,0,.2,0,.3,0,.5,0,.2,0,.4,0,.6,0,.1.3.2.4.4,0,.1,0,.3,0,.4,0,.2-.3.4-.3.5,0,.2.2.4,0,.5-.5.3-.2.7-.3,1,0,.3,0,.6,0,1,0,.2-.4.4-.4.5,0,0-1.5.3-2,.2,0,0-.2,0-.2,0-.5-.2-1.2-.3-1.2-.5,0-.3,0-.6,0-.9Z"/>
  <path d="M355.8,364.1c.4-.2.8-.3,1.1-.6.1,0,.4,0,.3-.5,0-.3.4.2.5.2.3-.2.7-.3,1-.5.3-.2.6-.6.9-.7.3-.2.8,0,1-.5.2-.4.6,0,.9-.2.3-.2.5-.4.9-.3.3,0,.5.2.7,0,.1-.1.1-.5.3-.5.1,0,.4.2.3-.4,0,0,0,0,.1.1.3.3.4.3.5,0,0-.3.2-.3.3-.3.3-.1.6-.2.9-.3.2,0,.5.2.8.2.3,0,.4-.3.7,0,.3.2.5.2.7.1.1,0,.3.2.3-.4,0,0,0,0,0,0,.5.7.7-.4,1.1-.3.4.1.8,0,1.2-.2.1,0,.2.1.3-.3,0-.2.1-.2.2,0,.4.6.6.1.9.2.3,0,.6-.3,1,.2.2.2.4.3.5-.3,0-.3.2,0,.4,0,0,0,.2-.3.3-.4,0,0,.2.2.3.3,0,0,0,0,0,0,.4-.7,1,.1,1.5,0,.5-.2,1-.2,1.5,0,.3,0,.6.2.8,1.4,0,.5.1,1.1,0,1.4,0,.2-.2.5-.3.5-.1.1-.3.2-.4.3-.3.2-.6.7-.9.5-.1,0-.2.2-.3-.3,0,0,0-.1,0,0-.4.8-.8.3-1.2.4-.3,0-.6.7-1,.5-.1.6-.4.6-.6.4-.8-.6-1.4,0-2.1,0-.7,0-1.4.2-2.1.3-.1,0-.1.4-.3.2-.2-.2-.3,0-.5,0-.1,0-.2.2-.4,0-.7-.5-1.1,0-1.7,0-.5,0-1.1.2-1.6.5-.3.2-.5.6-.9.6-.2,0-.2.4-.5-.2,0-.1,0,.3-.2.4-.2.1-.4.2-.6.2-.3.1-.6.2-.9.3-.2.1-.3.4-.4.5-.2.1-.4.2-.6.2-.3,0-.6,0-.8,0-.3,0-.4.4-.8.3-.6-.3-1,.2-1.4.3-.5.2-.9.3-1.3.7-.2.2-.7-.1-.9,0-.1,0-1-1.2-1.2-1.6,0,0,0-.2,0-.2,0-.5,0-1.3.2-1.4.4-.2.8-.4,1.3-.6Z"/>
  <path d="M357.1,381.1c.4-.2.8-.3,1.2-.5.1,0,.4.1.4-.4,0-.3.3.3.5.2.4-.2.8-.2,1.1-.4.4-.2.7-.5,1-.6.4-.2.8,0,1.1-.4.3-.3.7,0,.9,0,.3-.2.6-.3,1-.1.3.1.5.3.7.2.1,0,.2-.4.4-.4.2,0,.3.2.4-.4,0,0,0,0,.1.1.2.4.4.3.5,0,0-.1,0-.2,0-.2,0,0,0,0,0,0,0,0,0,0,0,0,0,0,.2.3.3.3.1,0-.1-.2.2,0h0c.3.3.3.1.3,0,0,0,.3,0-.4-.3,0,0,0,0,0,0,.4.2.4,0,.2,0-.1,0-.4-.2-.3-.2.1,0,.1,0,.1,0,0-.2,0-.4-.1-.6,0-.1.2-.2-.3-.3-.2,0-.2-.1,0-.2.6-.3.2-.6.3-.9,0-.3-.2-.6.2-1,.2-.2.3-.4-.3-.5-.3,0,0-.2,0-.4,0,0-.3-.2-.3-.3,0,0,.2-.2.3-.3,0,0,0,0,0,0-.7-.4.2-1,0-1.4,0-.1,0-.2-.1-.4,0,0,0-.1,0-.2,0,0,0-.2,0-.3,0-.4.2-.9.4-1.2.1-.2.2,0,.4.2,0,.1.2.3.4.4,0,0,0,0,.2.1.1,0,.4.1.4.1,0,0,.2,0,.3.1.2,0,.5,0,.7.1.2,0,.4,0,.6,0,.2,0,.4,0,.4-.1,0,0,0,0,0,0,0,0,.2.2.3.2,0,0,.1,0,.1,0,0,0,0,0,0,.1,0,.1.2.2-.3.3,0,0-.1,0,0,0,.8.4.3.9.4,1.3,0,.4.7.7.5,1.1.6.2.5.4.4.6-.6.8-.1,1.5-.2,2.2,0,.2,0,.4,0,.6v.9c.1.7.2,1.4.2,2,0,.2.4.6.1.7-.3,0,0,.5,0,.8,0,.2.1.4,0,.6,0,0-.2,0-.3,0-.9-.3-1.4-.4-1.9-.3-.5,0-1,.1-1.5.1h-.7c-.2,0-.5,0-.6,0-.3,0-.5,0-.8.2-.3.1-.6.5-.9.5-.2,0-.2.3-.5-.2,0-.2-.1.3-.2.3-.2,0-.4.1-.7.1-.3,0-.6,0-.9.2-.2,0-.3.4-.5.5-.2.1-.4.2-.6.2-.3,0-.6-.1-.8-.1-.3,0-.4.4-.8.2-.6-.3-1,0-1.4.2-.5.1-.9.3-1.3.6-.2.2-.6-.2-.9,0-.1,0-.9-1.2-1.1-1.7,0,0,0-.2,0-.2,0-.5,0-1.3.3-1.4.5-.1.9-.4,1.4-.6Z"/>
  <path d="M331.9,411.7c.8-.3,1.7-.5,2.5-.8.3-.1.7,0,.9-.6,0-.3.6.2.8,0,.8-.3,1.6-.5,2.3-.8.7-.3,1.4-.8,2.1-1.1.7-.3,1.6-.3,2.2-.9.5-.5,1.2-.2,1.8-.5.6-.3,1.2-.7,1.9-.7.5,0,1,0,1.4-.2.3-.2.4-.6.7-.7.3,0,.7,0,.7-.6,0,0,.2,0,.3,0,.4.3.8,0,1-.3.1-.3.4-.4.6-.5.6-.3,1.2-.5,1.9-.7.5-.1,1-.1,1.5-.2.5-.1.9-.6,1.5-.5.6.1,1,0,1.4-.3.2-.1.7,0,.6-.6,0,0,0,0,.2,0,1,.5,1.3-.8,2.1-1,.8-.1,1.5-.6,2.2-.9.2,0,.5,0,.4-.5,0-.2,0-.2.2-.2.7.3.8-.3,1.2-.5.5-.3.5-.8,1.2-1,.3,0,.5-.4,0-.8-.2-.2.1-.3.1-.5,0-.2-.2-.4-.2-.5,0-.1.3-.2.4-.3,0,0,0,0,0-.1-.3-.4-.3-.7-.2-1.1,0-.5.2-1.1,0-1.6-.3-1-.4-2.1-.4-3.2,0-.6,0-1.2,1.2-1.7.5-.2,1-.3,1.4,0,.3.2.5.3.6.5.1.3.3.6.4.9.3.6.9,1.2.7,1.9,0,.2.3.4-.2.7,0,0,0,.1,0,.2.4.4.6.9.6,1.3,0,.2,0,.5,0,.8,0,.3,0,.6,0,.9,0,1,.5,2.1-.1,3.1.4.8,0,1.4-.5,1.8-.8.7-1.5,1.5-2.3,2.2-.4.3-.8.7-1.2,1-.2.1-.4.3-.7.4-.2.1-.5.2-.6.3-1.5.6-3,1.3-4.5,1.9-.3.1-.3.5-.7.4-.4-.1-.7.2-1,.4-.3.1-.6.4-.9.3-1.4-.1-2.5.7-3.7,1.1-1.2.4-2.4.8-3.5,1.4-.7.4-1.3,1-2.1,1.1-.3,0-.5.5-1.1,0-.1-.1-.3.4-.5.5-.5.2-1,.4-1.5.6-.7.3-1.4.4-2.1.8-.4.2-.8.6-1.2.8-.4.2-.9.4-1.3.5-.6.1-1.2.1-1.8.2-.6.1-1.1.6-1.8.5-1.2-.1-2.2.4-3.2.7-1.1.3-2.1.5-3.1,1-.6.2-1.3,0-1.8,0-.3,0-1-1.2-1.1-1.7,0,0,0-.2,0-.3.4-.6.7-1.5,1.4-1.6,1-.2,1.9-.5,2.8-.8Z"/>
  <path d="M293.3,377.8c0-.7.2-1.3.3-2,0-.2.3-.5-.2-.8-.2-.2.4-.3.4-.5,0-.6.2-1.2.2-1.9,0-.6-.1-1.2,0-1.8,0-.6.4-1.2.2-1.8-.2-.5.3-.9.3-1.4,0-.5,0-1.1.2-1.5.2-.3.5-.7.4-1,0-.2-.3-.5-.3-.7,0-.2.3-.4-.2-.7,0,0,0-.1.2-.2.4-.2.4-.5.2-.7-.2-.2-.2-.4-.2-.6,0-.5,0-1,.2-1.5,0-.4.4-.7.5-1.1.1-.4-.1-.8.2-1.2.3-.3.4-.7.4-1,0-.2.3-.4-.3-.6,0,0,0,0,0-.1.9-.5-.1-1.2.1-1.8.3-.6.2-1.2.2-1.9,0-.2.2-.3-.2-.5-.2,0-.2-.2,0-.3.7-.4.3-.9.5-1.4.2-.5,0-1.1.5-1.6.2-.2.4-.5-.2-.8-.3-.1,0-.4,0-.6,0-.2-.3-.3-.3-.5,0-.1.3-.3.4-.4,0,0,0,0,0-.1-.6-.8.4-1.5.2-2.3-.1-.8,0-1.6.2-2.4,0-.4.3-.9,1.5-1.1.5,0,1.1,0,1.4.1.2.2.4.3.5.5,0,.3.2.5.3.8.2.5.7,1.1.3,1.6-.1.2.2.4-.3.5,0,0-.1,0,0,.1.7.8.2,1.5.2,2.2,0,.6.6,1.3.3,1.9.6.4.5.8.2,1.1-.8,1.2-.4,2.4-.6,3.6-.2,1.2-.2,2.5-.4,3.7,0,.2.3.4,0,.6-.3.2-.1.5-.1.8,0,.2,0,.5-.1.7-.8.9-.5,1.9-.7,2.9-.2.9-.4,1.9-.3,2.9,0,.6.3,1.2,0,1.8,0,.2.2.6-.4.7-.2,0,.2.3.2.5,0,.4,0,.8-.1,1.2,0,.6-.2,1.1-.2,1.7,0,.3.2.7.2,1.1,0,.4,0,.7-.1,1.1-.1.4-.4.9-.5,1.3-.1.5,0,1-.3,1.4-.6.8-.5,1.6-.7,2.4-.2.8-.3,1.6-.4,2.5,0,.5-.6.8-.6,1.3,0,.2-1.5.3-2,0,0,0-.2,0-.2-.1-.4-.5-1-1-.9-1.5.2-.7.3-1.5.4-2.2Z"/>
  <path d="M383.6,331.4c-.5,0-1.1,0-1.6,0-.2,0-.4-.2-.6.3-.1.3-.3-.4-.5-.3-.5,0-1,0-1.5,0-.5,0-.9.3-1.4.4-.5,0-1-.2-1.4.2-.4.3-.7-.2-1.1,0-.4.2-.7.3-1.2.1-.3-.1-.6-.3-.9-.1-.2,0-.2.4-.4.5-.2,0-.4-.2-.4.4,0,0,0,0-.2-.1-.3-.4-.5-.3-.6,0,0,.3-.2.3-.3.4-.4.1-.7.3-1,.3-.3,0-.6,0-.9,0-.3,0-.5.4-.8.3-.4-.2-.6,0-.8.1-.1,0-.4-.1-.2.5,0,0,0,0,0,0-.8-.5-.6.6-1,.7-.5,0-.7.4-1,.7,0,0-.3,0,0,.4,0,.1,0,.2,0,.2-.6-.2-.5.2-.7.4-.3.2-.1.5-.7.6-.2,0-.4.2.1.5.2.1,0,.2,0,.3,0,.1.3.2.3.3,0,0-.2.1-.4.2,0,0,0,0,0,0,.6.5-.3,1,0,1.6.2.6.2,1.1.2,1.8,0,.3-.1.7-1.2,1.1-.5.2-1,.3-1.4.2-.3,0-.5-.2-.6-.3-.1-.2-.3-.4-.4-.6-.2-.4-.8-.8-.6-1.3,0-.2-.2-.3.3-.5,0,0,.1,0,0-.1-.8-.6-.3-1.3-.3-2,0-.6-.6-1.3-.1-1.8-.5-.5-.3-.9,0-1.2.5-.5.9-1.1,1.2-1.6.4-.6.7-1.1,1.2-1.5,1-.8,1.9-1.5,2.9-2,.2,0,.1-.5.5-.4.3.1.5-.2.7-.3.2,0,.3-.3.6-.3.5.1.9,0,1.3-.1.4-.2.8-.4,1.2-.5.8-.2,1.6-.3,2.4-.7.5-.2.9-.6,1.4-.6.2,0,.4-.4.7.2,0,.2.2-.3.4-.4.3,0,.7-.1,1-.1.5,0,1,0,1.4-.1.3,0,.6-.3.9-.4.3,0,.6,0,.9,0,.4,0,.8.3,1.2.3.4,0,.8-.2,1.2,0,.7.5,1.4.3,2.1.4.7,0,1.4.2,2,0,.4,0,.7.5,1.1.5.2,0,.3,1.5.2,2,0,0,0,.2,0,.2-.4.4-.8,1.2-1.2,1.1-.6-.1-1.2,0-1.8-.1Z" fill="#aaca60"/>
  <g>
    <path d="M458.2,322.7c-22-6.1-48.5-3.8-72.4-3.3-1.8,0-3.7.1-5.3.9-1.6.8-1.7,10.3-1.2,12.1" fill="#aaca60"/>
    <path d="M377.4,324c0-.8.2-1.6.4-2.4v-.3c.1-.1.2-.3.2-.4,0-.3.2-.6.4-.9.3-.6.7-1,1.2-1.3.4-.2.9-.4,1.3-.5.3-.1.6-.3.9-.6.3-.3,1,.2,1.6.1,1.5-.2,2.9,0,4.2-.2,1.3,0,2.6-.3,4-.5,1.3-.1,2.7.2,3.9-.2,1.1-.3,2.1.2,3.1,0,1.1-.2,2.3-.3,3.4,0,.8.1,1.6.3,2.4.2.5,0,.9-.4,1.5-.4.5,0,1.1.3,1.5-.4,0,0,.3,0,.4.1.6.4,1.2.4,1.7,0,.4-.3.8-.3,1.2-.3,1.1,0,2.3-.1,3.4,0,.8,0,1.7.3,2.5.3.9,0,1.8-.2,2.6,0,.8.3,1.6.3,2.4.3.5,0,1,.3,1.4-.3,0,0,.2,0,.3,0,1.3.9,2.6-.2,3.9,0,1.4.3,2.8.2,4.1.2.4,0,.8.2,1.1-.2.1-.2.5-.1.7,0,1,.7,2.1.4,3.1.6,1.2.2,2.4,0,3.6.6.5.3,1.2.4,1.8,0,.3-.2.9.1,1.3.1.4,0,.7-.2,1.1-.2.3,0,.6.3.9.5,0,0,.2,0,.3,0,1.8-.4,3.4.8,5.2.9,1.8.2,3.6.6,5.3,1.1,1,.3,1.9.7,2.2,2,.2.6,0,1.1-.5,1.3-.4.2-.7.3-1.1.3-.6,0-1.1,0-1.7,0-1.1,0-2.3.2-3.4-.3-.3-.2-.8,0-1-.5,0,0-.2-.1-.2-.1-1.6.5-3.1-.2-4.6-.5-1.3-.2-2.7.3-3.9,0-.8.5-1.6.3-2.3,0-2.5-.9-5.2-.7-7.8-.9-2.7-.2-5.3-.2-8-.3-.5,0-.8.3-1.4,0-.5-.3-1.1,0-1.7,0-.5,0-1.1.1-1.6,0-2.1-.7-4.2-.2-6.3-.3-2.1,0-4.2,0-6.3.2-1.3.1-2.5.5-3.8.4-.6,0-1.1.3-1.7-.3-.2-.2-.7.3-1,.3-.9,0-1.8,0-2.6.1-1.2,0-2.4,0-3.7.1-.7,0-1.5.3-2.2.4-.8,0-1.6.1-2.4,0-1,0-2-.2-3-.3-1,0-2,.3-2.8.1-.4,0-.8,0-1.1,0-.2,0-.3,0-.4.1,0,.1-.1.3-.2.4,0,.3-.2.7-.2,1.1-.3,1.6-.4,3.4-.3,5.1,0,1-.4,1.9-.3,2.8,0,.2-.3.5-.7.7-.4.2-.8.5-1.1.4-.1,0-.2,0-.3-.2-.6-1-1.4-1.9-1.3-3.1,0-1.7,0-3.4.3-5.2Z" fill="#aaca60"/>
  </g>
  <g>
    <path d="M446.2,375.9c-1.8-.5-3.6-1.1-5.4-1.6,4.1-1.9,7.1-5.7,9.4-9.6" fill="#aaca60"/>
    <path d="M450.8,367.2c-.2.3-.4.5-.5.8,0,.1-.3,0,0,.5.2.2-.4,0-.5,0-.1.3-.4.5-.5.8-.1.3-.1.6-.3.9-.1.3-.6.3-.5.8,0,.4-.5.2-.6.5,0,.3-.2.5-.6.6-.3,0-.5,0-.6.2,0,.1.1.4,0,.5-.1,0-.4,0,0,.5,0,0,0,0,0-.1-.3-.3-.3-.2-.1,0,.2.2.2.1.2.2,0,0,0,0,0,0,0,0-.3,0-.4,0-.1,0,.3,0-.2,0-.5,0-.5,0-.5,0,0,0-.5,0,.5,0,0,0,0,0,0,0-.7,0-.7,0-.4,0,.2,0,.6,0,.4,0-.1,0-.2,0-.2,0,0,0,0,0,0,0,0,0-.1,0,0,0,.2,0,.3,0,.7-.1.4,0,.4,0,.1,0-1.3.3-.5.1-.7.2-.2,0,.4,0-.4.2-.3.1-.4.2.5-.1.4-.2,0,0,.1,0,0,0,.5-.2.5-.2-.1,0-.3.2-.4.2,0,0,0,0,0,0,.5-.2.4-.2.3,0-.1,0-.2.2-.1.2.2-.1.2,0,.2,0,0,0,0,.2-.3,1.3-.1.5-.2,1-.4,1.3-.1.2-.3.4-.4.4-.2,0-.4.1-.6.2-.4,0-1.2.4-1.4,0,0-.1-.5,0-.1-.3,0,0,0-.1,0,0-.6.2-1,.2-1.2.1-.3,0-.4-.3-.7-.3-.5,0-1.9.2-2-.2-1.2.3-1.5.1-1.4,0,0-.3-.3-.5-.8-.6-.5-.1-1.2-.2-1.6-.4-.2-.1-.4-.2-.7-.3.7-.3,1.4-.7,2.2-1.1.2-.1-.4-.2.5-.3.8-.1.7-.3,1-.4.3-.1.3-.3.8-.4,2.1-.3,2.1-.9,2.9-1.3.4-.2.7-.4,1-.7.3-.2.6-.5.6-.7.1-.2,0-.7.3-.7.1,0,0-.4.4,0,.1,0-.1-.3,0-.4,0-.2.2-.3.3-.4.2-.2.3-.3.5-.6,0-.1,0-.4,0-.6,0-.2.1-.3.3-.4.2-.1.5-.1.6-.3.2-.1,0-.5.4-.5.6,0,.6-.5.9-.7.3-.3.5-.6.6-.9,0-.2.6-.1.7-.3,0,0,1.4.6,1.8.9,0,0,.2.1.2.2.3.4.8,1,.6,1.2-.3.3-.4.6-.6.9Z" fill="#aaca60"/>
  </g>
  <g>
    <path d="M380.7,323.8c-1.3,18,5.1,36.5,17.3,49.8-2.5.6-2.8,4.5-.9,6.2,1.9,1.8,4.7,1.9,7.3,2,8.6.2,17.2.1,25.7,0,5.5,0,11-.2,16.3-1.4" fill="#aaca60"/>
    <path d="M436.5,383.5l-5.5.2c-.7,0-1.4-.2-2.1.3-.3.3-1-.4-1.6-.3-1.7,0-3.4,0-5.1,0-1.6,0-3.3.3-4.9.4-1.6,0-3.3-.2-4.9,0-1.4.3-2.6-.2-3.9,0-1.4.1-2.8.2-4.2,0-1-.2-2-.5-3.1-.5-.7,0-1.4.2-2.2-.1-.8-.3-1.4-.8-2.4-.7,0,0-.4-.3-.5-.5-.3-.4-.6-.8-1-1.3-.4-.4-.7-.9-1-1.2-.6-.7-.8-1.4-.9-2.2,0-.7,0-1.3,0-2,0-.3.2-.7.3-1,.2-.4.2-.6.6-1.1,0,0,0,0,0,0h0c0,0,.2,0,.2,0,0-.2-.1-.3-.2-.5,0,0,0-.1-.1-.1,0,0,0,0-.2-.2l-.6-.6c-.4-.4-.7-.9-.9-1.4-.4-1-1-1.8-1.5-2.6-.3-.5-.5-1.2-1.3-1.2,0,0-.2-.2-.2-.3,0-.9-.6-1.6-1.1-2.2-.5-.6-1.1-1.2-1.4-2-.2-.4-.3-.8-.5-1.2-.2-.4-.4-.8-.6-1.2-.4-.8-.8-1.5-1.2-2.3-.2-.4-.2-1-.8-1.2-.2,0-.4-.5-.4-.8,0-1.4-.7-2.6-1.1-3.8-.4-1.5-1.1-2.8-1.1-4.4,0-.7,0-1.5-.8-2.1-.4-.3-.2-1.1-.4-1.6-.1-.4-.5-.8-.6-1.2,0-.4,0-.8.1-1.2,0-.1,0-.3,0-.4-.5-1-.6-2.1-.7-3.2,0-1.1,0-2.2-.2-3.3-.2-1.1-.2-2.2-.3-3.4,0-1.1,0-2.3,0-3.4,0-1.2.4-2.5,1.5-3.3.5-.3,1.1-.3,1.4.2.2.4.4.8.5,1.2,0,.7.2,1.3.2,2,.2,1.4.7,2.7.5,4.1,0,.4.3.9-.2,1.3,0,0,0,.2,0,.3.9,1.8.6,3.7,1,5.6.3,1.6,1.3,3,1.3,4.6.8.7,1,1.7,1,2.6.3,3.2,1.7,6.1,2.9,9,1.2,3,2.8,5.8,4.5,8.5.3.5.8.7,1,1.3.1.6.7,1.2,1.1,1.7.4.5.9,1,1.1,1.5.3.6.6,1.2.9,1.7.6.8,1.2,1.5,1.8,2.2v1.1c0,.2,0,.4,0,.5,0,0-.1.1-.2.2-.2.3-.5,1-.8,1.9,0,0,0,0,0,0h0c-.3.6-.3,1.6,0,2.3.3.5,1.1,1.1,2.1,1.4,1.2.3,2.6,0,4.1.2.7,0,1.4-.3,2,.3.2.2.8-.3,1.3-.3,1.1,0,2.2,0,3.2,0,1.5,0,3,0,4.5,0,.9,0,1.8-.3,2.7-.3,1,0,1.9,0,2.9,0,1.2,0,2.4.3,3.6.3,1.3,0,2.6-.2,3.8,0,2.3.5,4.5.2,6.7.2,2.2,0,4.4-.1,6.5-.5,1.2-.2,2.4.1,3.6-.1.5-.1,1.6,1.2,1.5,1.7,0,.1,0,.2-.2.3-1.1.7-2.1,1.6-3.6,1.8-2.1.2-4.2.4-6.3.5Z" fill="#aaca60"/>
  </g>
  <path d="M450.1,329.2c-1,0-2.1,0-3.1,0-.4,0-.8-.2-1.2.3-.2.3-.6-.4-.9-.3-1,0-1.9,0-2.9,0-.9,0-1.9.3-2.8.4-.9,0-1.9-.2-2.8,0-.8.3-1.5-.2-2.2-.1-.8.1-1.6.2-2.4,0-.6-.2-1.1-.4-1.7-.3-.3,0-.7.4-1.1.4-.4,0-.7-.3-1.1.3,0,0-.2,0-.3-.2-.4-.4-.8-.4-1.2-.1-.3.3-.6.2-.9.2-.8,0-1.6,0-2.4,0-.6,0-1.2-.3-1.8-.4-.6,0-1.3.2-1.8-.1-.6-.3-1.1-.3-1.7-.3-.3,0-.7-.3-1,.3,0,0-.1,0-.2,0-.9-.9-1.8.2-2.7,0-.9-.2-1.9-.1-2.9-.1-.3,0-.5-.2-.8.3,0,.2-.4.2-.5,0-.7-.7-1.4-.3-2.2-.4-.8-.2-1.7,0-2.5-.4-.3-.2-.8-.4-1.3.2-.2.3-.6,0-.9,0-.3,0-.5.3-.8.3-.2,0-.4-.3-.6-.4,0,0-.1,0-.2,0-1.2.6-2.4-.4-3.6-.2-1.2.1-2.5,0-3.7-.2-.7,0-1.4-.3-1.7-1.5-.2-.5-.1-1.1.2-1.4.2-.2.5-.4.7-.5.4,0,.8-.2,1.2-.3.8-.1,1.6-.6,2.4-.3.2.1.6-.2.7.3,0,0,.1.1.2,0,1.1-.7,2.2-.1,3.3-.1.9,0,1.9-.6,2.8-.3.5-.6,1.1-.5,1.7-.3,1.8.8,3.7.4,5.5.5,1.9.2,3.7.1,5.6.2.3,0,.6-.3,1,0,.3.3.8,0,1.2,0,.4,0,.8-.1,1.1,0,1.4.7,2.9.3,4.4.4,1.5,0,2.9.2,4.4,0,.9,0,1.8-.4,2.7-.3.4,0,.8-.3,1.2.3.1.2.5-.3.7-.3.6,0,1.2,0,1.8,0,.9,0,1.7,0,2.6,0,.5,0,1-.3,1.5-.3.5,0,1.1,0,1.6,0,.7,0,1.4.3,2.1.3.7,0,1.5-.2,2.1,0,1.3.5,2.5.2,3.8.2,1.3,0,2.5,0,3.8-.1.7,0,1.4.4,2.1.4.3,0,.8,1.5.7,2,0,0,0,.2-.1.2-.7.5-1.3,1.2-2.1,1.2-1.2,0-2.3,0-3.5,0Z" fill="#fff"/>
  <path d="M358.6,296.9c-.4,0-.7.2-1.1.3-.1,0-.3-.2-.3.4,0,.3-.3-.3-.4-.2-.3.2-.7.2-1,.3-.3.2-.6.5-.9.6-.3.2-.7,0-.9.4-.2.3-.6,0-.8.1-.2.2-.5.4-.8.2-.2-.1-.5-.2-.7,0,0,.1-.1.4-.2.5-.1,0-.4-.2-.3.4,0,0,0,0-.1-.1-.3-.3-.4-.3-.4,0,0,.3-.1.3-.2.3-.3.1-.5.2-.8.3-.2,0-.5-.1-.7-.1-.2,0-.4.4-.7.1-.3-.2-.5-.1-.7,0-.1,0-.3-.2-.2.4,0,0,0,0,0,0-.6-.7-.5.5-.9.4-.4,0-.7.2-1,.3,0,0-.2,0-.2.4,0,.2,0,.2-.1.1-.5-.5-.6,0-.9,0-.3,0-.5.4-1,0-.2-.1-.4-.2-.3.4,0,.3-.2,0-.3.2,0,0,0,.4-.1.4,0,0-.2-.2-.3-.2,0,0,0,0,0,0-.2.8-.9.1-1.2.5-.3.3-.8.5-1.2.5-.2,0-.6,0-1.2-1-.3-.4-.5-.9-.5-1.3,0-.3,0-.5,0-.6,0-.1.2-.3.3-.5.2-.3.2-.9.6-.8.1,0,.1-.3.4.2,0,0,0,0,0,0,0-.9.7-.6,1-.8.3-.2.4-.9.8-.8,0-.7.2-.6.5-.5.9.4,1.4-.3,2.1-.5.7-.2,1.3-.5,2-.7.1,0,0-.4.3-.2.2.2.3,0,.5-.1.1,0,.2-.2.4-.1.7.4,1.1-.1,1.7-.2.5-.1,1.1-.2,1.6-.6.3-.2.5-.6.9-.6.2,0,.2-.4.5.2,0,.1,0-.3.2-.4.2-.1.4-.2.7-.2.3,0,.6-.1.9-.3.2,0,.3-.4.5-.5.2-.1.4-.2.6-.2.3,0,.6.1.8.1.3,0,.5-.4.8-.2.6.4,1,0,1.5,0,.5,0,.9-.2,1.4-.4.2-.1.6.3.9.2.1,0,.6,1.4.7,1.9,0,0,0,.2,0,.2-.1.5-.2,1.3-.5,1.3-.4,0-.8.2-1.2.3Z"/>
  <path d="M371.9,303.3c-.3-.1-.6-.3-.9-.4-.1,0-.1-.3-.5.1-.2.2,0-.4-.1-.4-.3,0-.6-.3-.9-.3-.3,0-.7,0-1,0-.3,0-.4-.5-.8-.3-.3.2-.3-.4-.6-.4-.3,0-.5,0-.7-.3,0-.2-.1-.5-.4-.5-.1,0-.4.3-.5.2,0,0,0-.4-.4.2,0,0,0,0,0-.2,0-.4,0-.5-.3-.3-.2.2-.3.1-.4.1-.2,0-.5-.2-.7-.3-.1-.1-.2-.4-.3-.6-.1-.1-.5,0-.5-.3,0-.4-.2-.4-.3-.5,0,0,0-.4-.4.2,0,0,0,0,0,0,.1-.9-.6,0-.8-.4-.2-.3-.5-.3-.8-.5,0,0,0-.2-.3.1,0,.1-.2.1-.2,0,.1-.7-.3-.4-.4-.6-.2-.2-.5,0-.5-.6,0-.2,0-.4-.4.1-.1.2-.1,0-.2,0,0,0-.2.3-.3.2,0,0,0-.2,0-.4,0,0,0,0,0,0-.5.6-.5-.4-.8-.2-.3.1-.5,0-.7,0-.1,0-.2-.2-.5-1.3-.1-.5-.2-1.1-.2-1.4,0-.2.1-.5.2-.6.1-.1.3-.3.4-.3.3-.2.7-.7,1-.4,0,0,.3-.2.3.3,0,0,0,.1,0,0,.6-.7.9,0,1.3,0,.3,0,.9-.4,1.1,0,.4-.5.6-.3.7,0,.3.9,1.1.8,1.6,1.1.5.4,1,.6,1.5.9,0,0,.3-.2.3,0,0,.3.2.2.3.2.1,0,.3,0,.3.2,0,.8.7.6,1.1.9.4.3.8.5,1.2.6.3,0,.7-.2.9,0,0,.1.3-.2.2.4,0,.2.3-.2.3-.2.2,0,.3.1.5.2.2.1.5.3.7.3.2,0,.4-.1.6-.1.2,0,.3,0,.5.2.2.2.3.4.4.6.2.1.5,0,.6.3.2.6.6.5,1,.7.3.2.7.4,1.1.4.2,0,.2.6.4.6,0,0-.3,1.5-.5,1.9,0,0,0,.2-.1.2-.4.4-.8,1-1,.8-.3-.2-.7-.3-1-.4Z"/>
  <path d="M335.6,314.6c0-.2,0-.4,0-.7,0,0,.2-.2-.3-.3-.3,0,.4-.1.3-.2,0-.2,0-.4,0-.6,0-.2-.3-.4-.3-.6,0-.2.2-.4,0-.6-.3-.2.2-.3.1-.5-.1-.2-.2-.4,0-.5.2-.1.4-.2.3-.4,0,0-.4-.2-.4-.2,0,0,.3-.2-.3-.2,0,0,0,0,.1,0,.4,0,.4-.2.1-.3-.3,0-.2-.1-.2-.2,0-.2,0-.3,0-.5,0-.1.3-.2.4-.4,0-.1-.2-.3,0-.4.3-.1.3-.2.3-.4,0,0,.3-.1-.3-.2,0,0,0,0,0,0,.8-.2-.2-.4,0-.6.2-.2,0-.4,0-.6,0,0,.2-.1-.3-.2-.2,0-.2,0,0-.1.6-.1.3-.3.4-.5.1-.2-.1-.4.4-.5.2,0,.3-.2-.2-.3-.3,0,0-.1,0-.2,0,0-.3-.1-.3-.2,0,0,.2,0,.4-.1,0,0,0,0,0,0-.6-.3.3-.5.1-.8-.2-.3,0-.5,0-.8,0-.1.3-.3,1.4-.3.5,0,1.1,0,1.4.2.2,0,.5.1.5.2,0,0,.2.2.3.3.2.2.7.4.4.5,0,0,.2.1-.3.1,0,0-.1,0,0,0,.8.3.2.5.3.7,0,.2.6.4.4.6.6.2.5.3.3.4-.7.3-.3.8-.4,1.1-.1.4,0,.8-.1,1.2,0,0,.3.1,0,.2-.3,0,0,.2,0,.3,0,0,.1.2,0,.2-.7.3-.3.6-.4.9,0,.3-.2.6,0,.9,0,.2.4.4.3.6,0,0,.3.2-.3.2-.2,0,.3.1.3.2,0,.1,0,.3,0,.4,0,.2,0,.4,0,.5,0,.1.3.2.3.3,0,.1,0,.2,0,.3,0,.1-.3.3-.3.4,0,.2.2.3,0,.5-.5.3-.3.5-.3.8,0,.3,0,.5,0,.8,0,.1-.4.3-.4.4,0,0-1.5.2-2,.2,0,0-.2,0-.2,0-.5-.1-1.2-.3-1.2-.4,0-.3,0-.5,0-.8Z"/>
  <path d="M358.5,315.6c-.4,0-.7,0-1.1.2-.1,0-.3-.2-.4.4,0,.3-.3-.3-.4-.3-.3.1-.7,0-1,.2-.3.1-.6.4-.9.5-.3.1-.7-.1-.9.2-.2.3-.5-.1-.8,0-.2.2-.5.3-.8,0-.2-.1-.4-.3-.6-.2-.1,0-.2.4-.3.4-.1,0-.3-.3-.3.4,0,0,0,0-.1-.1-.2-.4-.3-.3-.4,0,0,.3-.2.3-.3.3-.3,0-.5.1-.8.1-.2,0-.4-.2-.7-.3-.2,0-.4.3-.6,0-.2-.3-.4-.2-.6-.2-.1,0-.3-.3-.3.4,0,0,0,0,0,0-.4-.8-.6.3-.9.2-.4-.2-.7,0-1,.1,0,0-.2-.2-.2.3,0,.2,0,.2-.2,0-.3-.6-.5-.2-.8-.2-.3,0-.5.3-.9-.2-.1-.2-.3-.3-.4.3,0,.3-.2,0-.3.1,0,0-.1.3-.2.4,0,0-.2-.2-.3-.3,0,0,0,0,0,0-.3.7-.9-.1-1.2.1-.4.2-.8.2-1.3.2-.2,0-.5-.2-.8-1.3-.1-.5-.2-1.1-.1-1.4,0-.2,0-.5.2-.6.1-.1.2-.3.4-.4.2-.2.4-.8.8-.6,0,0,.2-.2.3.3,0,0,0,.1,0,0,.3-.8.7-.4,1.1-.5.3,0,.5-.8.9-.5,0-.7.3-.6.5-.4.7.6,1.3,0,1.9,0,.7,0,1.3-.2,1.9-.2.1,0,.2-.4.3-.1.2.2.3,0,.4,0,.1,0,.2-.2.4,0,.6.6,1,.1,1.6.1.5,0,1,0,1.5-.2.3-.1.5-.5.9-.4.1,0,.2-.3.4.2,0,.2.1-.3.2-.3.2,0,.4,0,.6-.1.3,0,.6,0,.9-.1.2,0,.3-.3.5-.4.2,0,.4-.1.6,0,.2,0,.5.2.8.2.3,0,.5-.3.7,0,.5.4.9.1,1.3.1.4,0,.9,0,1.3-.2.2-.1.5.4.8.3.1,0,.5,1.4.5,1.9,0,0,0,.2,0,.2-.2.5-.3,1.2-.5,1.2-.4,0-.8,0-1.2.2Z"/>
  <path d="M368.4,321.1c-.2-.1-.4-.3-.6-.3,0,0,0-.3-.4.1-.2.2,0-.4,0-.4-.2,0-.4-.2-.6-.3-.2,0-.5,0-.7,0-.2,0-.3-.4-.6-.2-.3.2-.2-.4-.4-.3-.2,0-.4,0-.5-.3,0-.2,0-.5-.2-.4-.1,0-.3.3-.4.2,0,0,0-.3-.4.2,0,0,0,0,0-.2.1-.4,0-.4-.2-.2-.2.2-.2.2-.3.1-.2,0-.3-.1-.5-.2,0-.1-.1-.4-.2-.5,0-.1-.4,0-.3-.3,0-.3-.1-.4-.2-.4,0,0,0-.3-.3.2,0,0,0,0,0,0,.2-.8-.5,0-.6-.2-.1-.3-.4-.2-.6-.3,0,0,0-.2-.3.2,0,.1-.1.1-.1,0,.1-.6-.2-.4-.3-.5-.1-.2-.4,0-.4-.5,0-.2,0-.4-.4.1-.2.2-.1,0-.2,0,0,0-.2.2-.3.2,0,0,0-.2,0-.4,0,0,0,0,0,0-.5.5-.4-.4-.7-.4-.3,0-.6-.1-.8-.3-.1-.1-.2-.3.1-1.4.2-.5.4-1,.6-1.3.1-.2.3-.4.4-.4.1,0,.3-.1.4-.2.2-.1.6-.5.7-.2,0,.1.2-.1,0,.3,0,0,0,.1,0,0,.6-.6.6,0,.9,0,.2,0,.7-.4.8-.1.4-.5.5-.4.5-.1.1.8.7.6,1.1.8.4.3.8.4,1.2.6,0,0,.3-.3.2,0,0,.3.1.1.2.2,0,0,.2,0,.2.1,0,.7.5.5.8.8.3.2.6.4.9.5.2,0,.6-.2.7,0,0,0,.3-.2.1.4,0,.2.2-.2.3-.2.2,0,.3.1.4.2.2,0,.3.2.5.3.1,0,.4-.1.5-.1.1,0,.3,0,.3.2.1.1.1.4.3.5.1.1.4,0,.4.3,0,.6.4.5.6.7.2.2.5.4.8.4.2,0,0,.5.2.6,0,0-.6,1.4-.9,1.8,0,0-.1.2-.1.2-.4.3-.9.9-1,.7-.2-.2-.5-.3-.7-.4Z"/>
  <path d="M337.4,327.4c0-.2.1-.4,0-.6,0,0,.3-.1-.3-.3-.3,0,.4,0,.4-.1,0-.2,0-.4,0-.6,0-.2-.2-.4-.2-.6,0-.2.3-.3,0-.6-.2-.2.3-.2.2-.4,0-.2-.1-.3.1-.5.2,0,.4-.1.3-.3,0,0-.4-.2-.3-.3,0,0,.3,0-.3-.3,0,0,0,0,.2,0,.4,0,.4,0,.1-.2-.3-.1-.2-.2-.2-.2,0-.2,0-.3,0-.5,0-.1.3-.2.4-.3,0-.1-.2-.3.1-.3.3,0,.3-.2.3-.3,0,0,.3,0-.3-.2,0,0,0,0,0,0,.8,0-.2-.4,0-.5.2-.1.1-.4.1-.5,0,0,.2,0-.3-.2-.2,0-.2,0,0-.1.6,0,.3-.2.4-.4.1-.1-.1-.4.4-.4.2,0,.3-.1-.2-.3-.3,0,0-.1,0-.2,0,0-.3-.2-.3-.2s.2,0,.4,0c0,0,0,0,0,0-.6-.3.3-.4.2-.7-.1-.3,0-.5.1-.7,0-.1.3-.2,1.4-.1.5,0,1.1.1,1.4.3.2,0,.4.2.5.2,0,0,.2.2.3.3.2.2.7.4.4.5,0,0,.2.1-.3,0,0,0-.1,0,0,0,.7.3.2.5.2.7,0,.2.6.5.3.6.6.2.5.3.3.4-.7.2-.3.7-.5,1-.2.3-.1.7-.2,1.1,0,0,.3.2,0,.2-.3,0,0,.1,0,.2,0,0,.1.2,0,.2-.7.2-.4.5-.5.8-.1.3-.2.5-.1.9,0,.2.4.4.2.6,0,0,.3.2-.3.2-.2,0,.3.1.3.2,0,.1,0,.2,0,.4,0,.2-.1.3,0,.5,0,.1.2.2.3.4,0,.1,0,.2,0,.3,0,.1-.3.2-.4.3,0,.1.2.3-.1.4-.5.2-.3.5-.4.7-.1.2-.2.5-.1.7,0,.2-.5.2-.5.3,0,0-1.5-.1-2-.2,0,0-.2,0-.2,0-.4-.2-1.1-.5-1.1-.6.1-.2,0-.4.1-.7Z"/>
  <path d="M359.3,332.5c-.4,0-.7,0-1.1,0-.1,0-.3-.3-.4.3,0,.3-.2-.4-.3-.4-.3,0-.7,0-1,0-.3,0-.7.2-1,.2-.3,0-.6-.3-1,0-.3.2-.5-.3-.8-.2-.3,0-.6.1-.8-.1-.2-.2-.3-.4-.6-.4-.1,0-.3.4-.4.3-.1,0-.2-.3-.4.3,0,0,0,0,0-.2,0-.4-.2-.4-.4-.2-.1.3-.2.2-.3.2-.3,0-.6,0-.8-.1-.2,0-.4-.3-.6-.4-.2,0-.5.2-.6-.2-.2-.3-.4-.3-.5-.4-.1,0-.2-.3-.4.3,0,0,0,0,0,0-.2-.9-.7.2-1,0-.3-.3-.7-.2-1-.2,0,0-.2-.2-.3.2,0,.2-.2.2-.2,0-.2-.7-.5-.3-.7-.5-.3-.2-.6,0-.8-.5,0-.2-.2-.4-.5.2-.1.3-.2,0-.3,0,0,0-.2.3-.3.3,0,0-.1-.3-.2-.4,0,0,0,0,0,0-.5.6-.8-.4-1.3-.3-.5.1-.9,0-1.3-.2-.2,0-.4-.3-.4-1.5,0-.5.1-1.1.3-1.4.1-.2.2-.4.3-.5.2,0,.3-.2.5-.2.3-.1.7-.6.9-.3,0,.1.2-.2.2.3,0,0,0,.1,0,0,.5-.7.8-.1,1.2-.1.3,0,.7-.6,1-.2.3-.6.5-.4.6-.2.5.8,1.2.4,1.9.6.6.2,1.3.2,1.9.3.1,0,.3-.3.3,0,0,.3.3,0,.4.1.1,0,.3,0,.4,0,.4.7,1,.4,1.5.5.5.1,1,.3,1.5.2.3,0,.7-.4,1-.2.1,0,.3-.3.4.4,0,.2.2-.3.3-.3.2,0,.4,0,.6,0,.3,0,.6.1.9,0,.2,0,.4-.2.6-.3.2,0,.4,0,.6,0,.2,0,.4.3.7.4.2,0,.5-.2.7.1.4.5.9.3,1.3.4.4,0,.9.2,1.3,0,.3,0,.4.5.7.5.1,0,.2,1.5,0,2,0,0,0,.2,0,.2-.3.4-.6,1.2-.8,1.1-.4-.1-.8,0-1.2-.1Z"/>
  <path d="M340.4,346.6c-.1-.3-.2-.6-.3-.9,0-.1.2-.3-.4-.3-.3,0,.3-.3.3-.4-.2-.3-.1-.6-.2-.9-.1-.3-.4-.5-.5-.8-.1-.3.1-.6-.2-.9-.3-.2.2-.5,0-.7-.2-.2-.3-.5,0-.8.2-.2.4-.4.2-.5,0-.1-.4-.2-.4-.3,0-.1.3-.3-.4-.3,0,0,0,0,.1,0,.4-.1.4-.3,0-.4-.3,0-.2-.2-.3-.3,0-.2,0-.5,0-.7,0-.2.3-.4.3-.6,0-.2-.2-.4,0-.6.3-.2.3-.3.3-.5,0,0,.3-.2-.3-.3,0,0,0,0,0,0,.8-.2-.2-.6,0-.8.2-.3,0-.6,0-.9,0,0,.2-.1-.3-.3-.2,0-.2-.1,0-.2.6-.2.3-.4.4-.6.1-.2-.1-.5.4-.7.2,0,.3-.2-.2-.4-.3,0,0-.2,0-.3,0,0-.3-.2-.3-.3,0,0,.2-.1.4-.2,0,0,0,0,0,0-.6-.4.3-.7.2-1.1-.1-.4,0-.7.1-1.1,0-.2.3-.4,1.4-.4.5,0,1.1,0,1.4.2.2,0,.4.2.5.3,0,.1.2.3.3.4.2.3.7.5.4.7,0,0,.2.2-.3.2,0,0-.1,0,0,0,.8.4.2.7.2,1,0,.3.6.6.3.8.6.2.5.4.3.5-.7.5-.3,1-.4,1.6-.1.5,0,1.1-.1,1.6,0,0,.3.2,0,.3-.3,0,0,.2,0,.3,0,.1.1.2,0,.3-.7.4-.3.8-.3,1.2,0,.4-.1.8,0,1.2.1.2.5.5.4.7,0,.1.3.2-.3.3-.2,0,.3,0,.3.2,0,.2,0,.3,0,.5,0,.2,0,.5.1.7,0,.1.3.2.4.4,0,.1.1.3,0,.4,0,.2-.2.4-.2.6,0,.2.3.3,0,.6-.4.5,0,.7,0,1.1,0,.3.1.7.4.9.1.1-.3.5-.2.7,0,0-1.3.8-1.7,1,0,0-.2,0-.2,0-.5,0-1.3,0-1.3-.2,0-.4-.3-.7-.4-1.1Z"/>
  <path d="M378.1,288.5c-.2.2-.4.3-.5.5,0,0-.3,0,0,.4.2.2-.4-.2-.4,0-.1.2-.3.3-.4.5,0,.2,0,.5-.2.7,0,.2-.5.2-.3.5.1.3-.4.1-.4.3,0,.2,0,.4-.4.4-.2,0-.5,0-.5.1,0,.1.2.4.2.4,0,0-.3,0,.1.4,0,0,0,0-.2,0-.4-.2-.4,0-.2.2.2.2.1.2,0,.3,0,.2-.2.3-.3.4-.1,0-.4,0-.5.1-.1,0,0,.4-.3.3-.3,0-.4,0-.4.2,0,0-.3,0,.2.4,0,0,0,0,0,0-.8-.2,0,.5-.3.6-.3,0-.3.3-.3.5,0,0-.2,0,.2.3.1,0,.1.2,0,.1-.6-.1-.4.2-.5.3-.2.1,0,.4-.5.4-.2,0-.4,0,.1.4.2.2,0,.1,0,.2,0,0,.2.2.2.3,0,0-.2,0-.4,0,0,0,0,0,0,0,.5.5-.4.4-.4.7,0,.3-.1.6-.3.8-.1.1-.3.2-1.4,0-.5-.1-1-.3-1.3-.5-.2-.1-.4-.3-.4-.3,0-.1-.1-.3-.2-.4-.1-.3-.5-.6-.2-.7.1,0-.1-.2.3,0,0,0,.1,0,0,0-.6-.6,0-.6,0-.9,0-.2-.4-.7,0-.8-.5-.4-.3-.5-.1-.5.8-.1.6-.8.9-1.2.3-.4.5-.9.8-1.3,0,0-.2-.3,0-.3.3,0,.2-.2.2-.2,0,0,0-.2.2-.2.8,0,.6-.5.9-.8.3-.3.5-.6.6-.9,0-.2,0-.6.2-.7.1,0,0-.3.4,0,.1,0-.2-.3-.1-.3,0-.2.2-.3.3-.4.1-.2.3-.3.4-.5,0-.1,0-.4,0-.5,0-.2.1-.3.3-.3.2,0,.5,0,.6-.2.2,0,.1-.4.4-.4.6.1.6-.3.9-.5.3-.2.5-.4.7-.7,0-.2.6,0,.7,0,0,0,1.1,1,1.4,1.4,0,0,.1.2.1.2.2.5.6,1.1.4,1.2-.2.1-.4.3-.6.5Z"/>
  <path d="M396,307.4c-.2-.4-.5-.8-.8-1.1-.1-.1,0-.4-.6-.2-.3.1.1-.4,0-.5-.3-.3-.6-.7-.9-.9-.3-.3-.8-.4-1.1-.7-.3-.3-.5-.8-1-.8-.5,0-.4-.6-.7-.8-.4-.2-.7-.4-.8-.8,0-.3-.1-.7-.4-.8-.2,0-.5,0-.6,0-.1-.1,0-.5-.6,0,0,0,0-.1,0-.2.1-.4,0-.6-.3-.5-.3,0-.4,0-.5,0-.3-.2-.6-.5-.8-.8-.2-.2-.2-.6-.4-.8-.2-.2-.6-.3-.6-.7,0-.4-.2-.6-.4-.8-.1-.1,0-.4-.6,0,0,0,0,0,0,0,.2-.9-.8-.4-1-.8-.2-.5-.6-.7-1-1,0,0,0-.3-.5,0-.1,0-.2,0-.2-.1.2-.7-.3-.7-.5-1-.2-.4-.7-.4-.7-1,0-.3,0-.5-.6-.2-.3.1-.2-.2-.4-.3-.1,0-.4,0-.5,0,0,0,0-.3,0-.5,0,0,0,0,0,0-.9,0-.7-1-1.3-1.2-.6-.3-.9-.7-1.3-1.2-.2-.3-.3-.6.3-1.6.3-.4.7-.9,1-1,.2-.1.5-.2.6-.2.2,0,.4,0,.6.1.4.1,1,0,1.1.5,0,.1.3,0,0,.5,0,0,0,.1,0,.1.9-.2,1,.5,1.4.8.4.3,1.1.1,1.3.6.6-.3.8,0,.8.3.2,1.1,1.2,1.4,1.8,2,.6.7,1.3,1.2,2,1.9.1.1.5,0,.4.3,0,.3.2.3.4.4.1.1.4.2.4.4,0,1,.9,1.2,1.3,1.7.5.5,1,1.1,1.6,1.4.4.2.9.3,1.2.6,0,.2.5,0,.2.6,0,.2.4,0,.5,0,.3.2.5.4.7.6.3.3.6.6.9.9.2.2.6.2.8.3.2.1.4.4.6.6.2.3.3.7.5,1,.2.3.7.4.7.9,0,.8.6,1.2,1,1.8.3.6.7,1.2,1.1,1.7.2.3,0,.9.1,1.2,0,.2-1.2,1-1.7,1.1,0,0-.2,0-.2,0-.6-.1-1.3,0-1.4-.3-.2-.5-.5-.9-.7-1.3Z"/>
  <path d="M395.6,288.1c.5-2.2,1-4.4,1.4-6.6.2-.8.6-1.6.2-2.6-.2-.5.6-1.1.8-1.9.4-2.1.9-4.1,1.3-6.2.4-2,.6-4,.9-6,.2-1,.5-2,.6-2.9.2-.9.2-1.8,0-2.5-.2-.6-.2-1.1-.3-1.6-.1-.5-.3-.9-.7-1.3-.8-.7-2.1-1.2-3.5-1.8-1-.5-2.1-.9-3.4-1-.8,0-1.5.1-2.3,0-.7-.2-1.5-.6-2.3,0,0,0-.4-.1-.5-.2-.7-.6-1.7-.7-2.5-.6-.7.1-1.3,0-1.9,0-1.7-.3-3.4-.6-5.1-.9-1.3-.3-2.5-.7-3.7-1-1.3-.3-2.7-.2-3.8-.6-1.2-.4-2.3-.5-3.4-.4-.6,0-1.4-.2-1.9.5,0,0-.3,0-.4,0-.9-.3-1.8,0-2.4.3-.6.4-.9.9-1.4,1.3-1.1,1-1.8,3.1-2.5,4.9-.2.5-.5,1-.3,1.6.1.2,0,.7-.2,1-1,1.2-1.1,2.9-1.5,4.3-.5,1.7-.6,3.5-1.4,5.2-.3.7-.7,1.7-.3,2.8.2.5-.2,1.3-.3,1.9,0,.5.1,1.1,0,1.6,0,.5-.4.9-.6,1.3,0,.1,0,.3,0,.4.2,2.7-1.2,5.1-1.5,7.8-.3,2.7-.9,5.3-1.5,7.9-.3,1.4-.8,2.9-2.1,3.7-.6.4-1.1.3-1.3-.4-.2-.5-.3-1.1-.2-1.6,0-.9.1-1.7.2-2.5.1-1.7,0-3.5.5-5.2.2-.5,0-1.2.6-1.6,0,0,.2-.3.1-.4-.3-2.5.6-4.8,1-7.2.3-2,0-4.1.7-6.1-.4-1.2,0-2.5.4-3.6,1.5-3.8,1.9-8,3.4-12,.4-1,.8-2,1.3-3,.5-1,1-2,1.7-3.1.7-1,1.8-2.1,3.1-2.7,1.3-.6,2.5-.9,3.6-1,.8,0,1.4-.5,2.3-.3.8.2,1.9,0,2.9,0,.9,0,1.8,0,2.6.2,3.3,1,6.5,1.3,9.7,1.9,3.2.7,6.3,1.3,9.5,1.7,1,.1,2,.2,2.9.3,1,0,2,.2,3,.6.9.3,2,.3,2.6,1.2.2.3,1.2.2,1.8.6,1.5.9,2.8,2.5,3.4,4.2.8,2.4.5,4.7.2,6.7-.2,1.2-.2,2.4-.4,3.5-.2,1.2-.4,2.4-.8,3.5-.4,1.5-.9,2.9-1.3,4.4-.4,1.5-.5,3.2-1.1,4.6-1.1,2.6-1.4,5.4-2.1,8.1-.6,2.7-1.3,5.4-1.7,8.1-.3,1.5-1.1,2.8-1.4,4.3-.1.7-1.8,1.3-2.2.9,0,0-.2-.2-.2-.3-.1-1.6-.6-3.1-.1-4.7.6-2.5,1.1-5,1.6-7.5Z"/>
  <g>
    <path d="M349.7,294.5c3.6-1.8,7.8-3.5,11.3-1.6,1.8.9,3.1,2.7,4.9,3.5.5.2,1,.3,1.5,0,.5-.2.7-.8,1-1.3,1.7-3.6,4.1-6.8,7-9.4,3.9,2.9,7.9,5.8,11.8,8.8,1.8,1.3,3.6,2.7,5.7,3.2,2.7-11.5,4.9-23.1,6.5-34.8.1-1,.3-2-.1-2.9-.3-.8-1-1.4-1.8-1.8-2.3-1.5-5.1-1.8-7.9-2.1-8.4-1-12.7-5.8-21-6.8-1-.1-6,3.6-6.9,4-.8.4-1.3,1-1.8,1.7-2.7,4-4.3,8.6-5.9,13.1-1.2,3.4-.9,15.6-2.1,19.1-.9,2.8-2.6,6.1-1.7,8.9"/>
    <path d="M351.2,280.1c.2-2.9.3-5.8.6-8.8,0-.6.2-1.1.3-1.7,0-.6.1-1.2,0-2,0-.7.9-1.4,1.2-2.4.8-2.6,1.9-5.2,3.2-7.8.6-1.2,1.3-2.5,2-3.7.4-.6.9-1.4,1.8-2,.1,0,.2-.2.4-.2h.2c0-.1,0-.2,0-.2h0s0,0,0,0h0c.2.4-.5-1,.5,1h0s0-.2,0-.2l-.2-.5v-.3c-.1,0-.1,0-.1,0h0s0,0,0,0h.2c0-.1.8-.6.8-.6.9-.6,1.9-1.2,2.9-1.9.5-.3,1-.6,1.6-.9l.5-.3c.2-.1.5-.2.7-.3.5-.1,1-.3,1.5-.2.7,0,1,0,1.4.1,2.4.1,4.4,1.3,6.4,2,2.2.8,4.3,1.7,6.1,2.7,1.3.7,2.6,1.5,4.1,1.7.9.2,1.8,0,2.7.2.9.2,2.1.5,3.1,0,0,0,.5.2.8.3,1.1.6,2.5,1,3.6,1.2,1.1.2,1.9.7,2.8,1.4.6.5,1.3,1.3,1.8,2.3.4,1,.5,2,.5,2.8,0,.8-.1,1.4-.2,1.9l-.3,1.7c-.3,1.7-.8,3.3-1.1,4.9-.3,1.7-.4,3.6-.9,5.1-.6,1.5-.8,3.1-1.1,4.6-.2.9-.6,1.9-.2,2.7,0,0,0,.4-.1.6-1.3,2.4-.7,5.1-1.5,7.6-.4,1.3-.7,2.6-1,4l-.4,1.7c-.1.6-.3,1.1-.5,1.7l-.5,1.6v.4c-.1,0-.2.2-.2.2,0,0-.1,0-.2,0l-.8-.2c-1.2-.3-2.3-.8-3.6-.9-.4,0-1.9-.9-2-1.1-.8-.9-1.6-1.6-2.4-2.2-.8-.6-1.7-1.2-2.5-1.8-1.8-1.5-3.9-2.7-5.5-4.5-.3-.4-.8-.8-1.2-1.1-.2-.1-.4-.1-.5.2,0,.1,0,.2-.1.2,0,0-.1,0-.2,0,0,0,0,0,0,0v.2c-.2.1-.3.3-.4.4-.2.3-.3.6-.5.8-.3.4-.9.7-1.3,1.1-.1.1-.2.3-.3.4-.3.7-.7,1.4-1.1,2.1l-.6,1-.3.5-.5.9c-.4.7-.9,1.3-1.5,1.7-.6.4-1.4.6-2.1.6-.7,0-1.5-.3-2.1-.6-.4-.2-.7-.4-1-.6l-.7-.5c-.8-.6-1.5-1.2-2.1-1.6-.6-.5-1.1-.7-1.6-.9-1.1-.4-2.4-.4-3.9,0-1.6.4-3.4.9-5,.5-.7-.2-1-.7-.4-1.4.4-.5,1-1,1.6-1.3,1-.5,2.1-1,3.2-1.4,1.2-.4,2.4-.7,3.8-.7,1.4,0,2.9.4,4,1.4.7.5,1.6.9,1.7,1.7,0,.1.2.3.3.4l1,.4c.2,0,.2,0,.3,0h.2c.2,0,.5.1.6,0,.2-.2.2-.2.6-.9.4-.7.8-1.4,1.3-2.2.7-1.2,1.4-2.4,2.2-3.6.4-.6.8-1.1,1.3-1.7.1-.1.4-.4.6-.6l.7-.6c.4-.4.9-.8,1.4-1.2l.4-.5.2-.2h0c0-.1,0,0,.1,0,.3.1.6.3.9.5.6.3,1.3.8,1.9,1.2l.8.6.5.4c.3.3.6.5.9.8,1.9,1.8,4,3.4,6.1,5l3.2,2.3.8.5.5.3.3.2c.3.2.3-.1.4-.3l.8-3.4,1.6-7.8c.2-.9,0-1.7.4-2.7.4-.9.5-2.2.7-3.4.2-1,.2-2.2.6-3.1.7-2,1.1-4,1.4-6.1.2-1,.3-2.1.4-3.1l.2-1.6c0-.5.1-1,.2-1.4,0-.4,0-.7,0-.9,0-.2-.2-.4-.4-.6-.4-.4-1.3-.9-2.1-1.2-1.7-.7-3.6-.9-5.7-1.1-2.7-.2-5.5-.7-7.9-1.8-1-.5-2.2-.7-3-1.7-.2-.3-1.3-.3-1.9-.6-1.6-.6-3.1-1.3-4.6-1.7-.6-.2-1.1-.3-1.7-.4-.3,0-.6-.1-.9-.2h-.6c0-.1-.1-.1-.2,0l-.3.2c-.4.2-.9.5-1.3.8-.6.4-1.1.8-1.7,1.3-.6.5-1.1.9-1.8,1.4-.1,0-.2.1-.4.2h-.3c0,.1,0,.1,0,.1,0,0,0,0,0,0,0,0-.2.2-.4.4-.2.2-.4.5-.6.8l-.6.9c-1,1.5-2,3-2.7,4.8-.8,1.8-1.2,3.8-2.1,5.6l-.3.6c-.1.2-.1.3-.2.5-.1.3-.2.7-.3,1.1-.2.8-.3,1.7-.4,2.6-.2,1.8-.2,3.5-.3,5.3-.1,1.8-.3,3.6-.4,5.4-.1.9-.2,1.8-.4,2.8,0,.5-.2,1.1-.4,1.5l-.4,1.3c-.3,1-.7,1.8-1.1,2.6-.4.8-.7,1.6-.7,2.4,0,.4-.3.8-.7,1.2-.3.4-.7.8-1,.7-.1,0-.3-.2-.3-.3-.9-2.1-1-4.5-.2-6.6l.9-2.3c.2-.4.2-.6.3-1,0-.4.1-.7.2-1.1.2-1.5.3-3.1.4-4.8Z"/>
  </g>
  <path d="M369,267.4c-.3,0-.6-.1-.9-.1-.1,0-.1-.3-.4.2-.2.2,0-.4,0-.4-.3,0-.4-.3-.6-.4-.2,0-.5,0-.8-.2-.2-.2-.1-.5-.5-.6-.4,0,0-.5-.2-.6-.2-.2-.4-.5-.2-.7.1-.2.3-.3.2-.4,0,0-.4-.1-.4-.2,0,0,.3-.2-.3-.3,0,0,0,0,.1,0,.4,0,.4-.2.1-.3-.3-.1-.2-.2-.2-.3,0-.2,0-.4.1-.6,0-.1.4-.2.5-.3.1,0-.1-.4.2-.3.3,0,.4,0,.4-.2,0,0,.3,0-.2-.3,0,0,0,0,0,0,.8.3,0-.4.2-.5.3,0,.3-.3.4-.4,0,0,.2,0-.1-.3-.1-.1,0-.2,0-.1.6.3.4,0,.5,0,.2,0,.1-.3.5,0,.2.1.3.1,0-.4-.1-.2,0,0,.1-.2,0,0-.1-.3,0-.4,0,0,.2.1.3.2,0,0,0,0,0,0-.1-.7.6,0,.7-.4.2-.3.5-.3.8-.3.2,0,.4.2.6,1.3.1.5.2,1.1.2,1.4,0,.2,0,.5,0,.5,0,0,0,.2,0,.3,0,.2.1.7,0,.5,0,0,0,.2-.1-.3,0,0,0,0,0,0,.3.7,0,.3,0,.4,0,0,.3.6.1.4.4.5.3.4.1.3-.5-.4-.3,0-.5,0-.2,0-.2.2-.2.3,0,0,.3.2,0,0-.2-.1,0,0,0,0,0,0,.1,0,0,0-.6-.2-.3,0-.4,0,0,0-.2,0,0,.1,0,0,.2,0,.2,0h0c-.2,0-.4,0-.6.1,0,0,0,0,0,0,0,0,0,0,0,0,0,0,0,0,.1,0,0,0,.1,0,.1,0,0,0,0,0,0,0h0s0,0,0,0c0,0,0,0,0,.1,0,0,0,.2,0,.3,0,.1,0,.2,0,.2,0,0,0,0,0,0-.3-.4.7,1,.9,1.4,0,0,0,.2.1.2.1.5.3,1.2,0,1.3-.4,0-.8.2-1.1.2Z" fill="#aaca60"/>
  <path d="M379.2,277.8c-.3,0-.6-.1-.9-.1-.1,0-.1-.3-.4.2-.2.2,0-.4,0-.4-.3,0-.4-.3-.6-.4-.2,0-.5,0-.8-.2-.2-.2-.1-.5-.5-.6-.4,0,0-.5-.2-.6-.2-.2-.4-.5-.2-.7.1-.2.3-.3.2-.4,0,0-.4-.1-.4-.2,0,0,.3-.2-.3-.3,0,0,0,0,.1,0,.4,0,.4-.2.1-.3-.3-.1-.2-.2-.2-.3,0-.2,0-.4.1-.6,0-.1.4-.2.5-.3.1,0-.1-.4.2-.3.3,0,.4,0,.4-.2,0,0,.3,0-.2-.3,0,0,0,0,0,0,.8.3,0-.4.2-.5.3,0,.3-.3.4-.4,0,0,.2,0-.1-.3-.1-.1,0-.2,0-.1.6.3.4,0,.5,0,.2,0,.1-.3.5,0,.2.1.3.1,0-.4-.1-.2,0,0,.1-.2,0,0-.1-.3,0-.4,0,0,.2.1.3.2,0,0,0,0,0,0-.1-.7.6,0,.7-.4.2-.3.5-.3.8-.3.2,0,.4.2.6,1.3.1.5.2,1.1.2,1.4,0,.2,0,.5,0,.5,0,0,0,.2,0,.3,0,.2.1.7,0,.5,0,0,0,.2-.1-.3,0,0,0,0,0,0,.3.7,0,.3,0,.4,0,0,.3.6.1.4.4.5.3.4.1.3-.5-.4-.3,0-.5,0-.2,0-.2.2-.2.3,0,0,.3.2,0,0-.2-.1,0,0,0,0,0,0,.1,0,0,0-.6-.2-.3,0-.4,0,0,0-.2,0,0,.1,0,0,.2,0,.2,0h0c-.2,0-.4,0-.6.1,0,0,0,0,0,0,0,0,0,0,0,0,0,0,0,0,.1,0,0,0,.1,0,.1,0,0,0,0,0,0,0h0s0,0,0,0c0,0,0,0,0,.1,0,0,0,.2,0,.3,0,.1,0,.2,0,.2,0,0,0,0,0,0-.3-.4.7,1,.9,1.4,0,0,0,.2.1.2.1.5.3,1.2,0,1.3-.4,0-.8.2-1.1.2Z" fill="#aaca60"/>
  <path d="M366.6,284.5c-.3,0-.6-.1-.9-.1-.1,0-.1-.3-.4.2-.2.2,0-.4,0-.4-.3,0-.4-.3-.6-.4-.2,0-.5,0-.8-.2-.2-.2-.1-.5-.5-.6-.4,0,0-.5-.2-.6-.2-.2-.4-.5-.2-.7.1-.2.3-.3.2-.4,0,0-.4-.1-.4-.2,0,0,.3-.2-.3-.3,0,0,0,0,.1,0,.4,0,.4-.2.1-.3-.3-.1-.2-.2-.2-.3,0-.2,0-.4.1-.6,0-.1.4-.2.5-.3.1,0-.1-.4.2-.3.3,0,.4,0,.4-.2,0,0,.3,0-.2-.3,0,0,0,0,0,0,.8.3,0-.4.2-.5.3,0,.3-.3.4-.4,0,0,.2,0-.1-.3-.1-.1,0-.2,0-.1.6.3.4,0,.5,0,.2,0,.1-.3.5,0,.2.1.3.1,0-.4-.1-.2,0,0,.1-.2,0,0-.1-.3,0-.4,0,0,.2.1.3.2,0,0,0,0,0,0-.1-.7.6,0,.7-.4.2-.3.5-.3.8-.3.2,0,.4.2.6,1.3.1.5.2,1.1.2,1.4,0,.2,0,.5,0,.5,0,0,0,.2,0,.3,0,.2.1.7,0,.5,0,0,0,.2-.1-.3,0,0,0,0,0,0,.3.7,0,.3,0,.4,0,0,.3.6.1.4.4.5.3.4.1.3-.5-.4-.3,0-.5,0-.2,0-.2.2-.2.3,0,0,.3.2,0,0-.2-.1,0,0,0,0,0,0,.1,0,0,0-.6-.2-.3,0-.4,0,0,0-.2,0,0,.1,0,0,.2,0,.2,0h0c-.2,0-.4,0-.6.1,0,0,0,0,0,0,0,0,0,0,0,0,0,0,0,0,.1,0,0,0,.1,0,.1,0,0,0,0,0,0,0h0s0,0,0,0c0,0,0,0,0,.1,0,0,0,.2,0,.3,0,.1,0,.2,0,.2,0,0,0,0,0,0-.3-.4.7,1,.9,1.4,0,0,0,.2.1.2.1.5.3,1.2,0,1.3-.4,0-.8.2-1.1.2Z" fill="#aaca60"/>
  <path d="M215.4,206.7c-.2-.2-.3-.4-.5-.5,0,0,0-.3-.4,0-.2.2.2-.4,0-.4-.2-.1-.3-.3-.5-.4-.2-.1-.5-.1-.7-.2-.2-.1-.1-.5-.5-.4-.3,0,0-.4-.3-.4-.2,0-.4-.1-.4-.4,0-.2.1-.5,0-.5-.1,0-.4.1-.4,0,0,0,0-.3-.4,0,0,0,0,0,0-.1.2-.3.2-.4-.1-.3-.3.1-.3,0-.3,0-.2-.1-.3-.2-.4-.4,0-.1,0-.4,0-.5,0-.2-.4,0-.2-.4.1-.3,0-.4,0-.5,0,0,.1-.3-.4,0,0,0,0,0,0,0,.5-.7-.5-.2-.5-.5,0-.3-.2-.4-.4-.6,0,0,0-.2-.3,0-.1,0-.2,0-.1,0,.4-.5,0-.4,0-.6,0-.2-.4-.2-.1-.7.1-.2.1-.3-.4,0-.2.1,0-.1-.2-.1,0,0-.3.1-.4,0,0,0,.1-.2.2-.3,0,0,0,0,0,0-.7.2-.2-.6-.5-.7-.3-.1-.4-.4-.5-.7,0-.2,0-.4.9-1.1.4-.3.8-.7,1.2-.8.2,0,.4-.2.5-.2.1,0,.3,0,.4,0,.3,0,.8-.1.7.2,0,0,.2,0-.1.3,0,0,0,0,0,0,.8-.3.5.2.7.4.2.1.8,0,.7.2.6-.3.6-.1.5,0-.3.7.3.8.5,1.2.2.4.5.6.8,1,0,0,.4-.1.2.1-.1.2,0,.2.1.2,0,0,.2,0,.1.2-.3.7.2.7.4,1,.2.3.3.6.7.7.2,0,.6,0,.6.2,0,.1.3,0,0,.4-.1.1.3-.1.3,0,.1,0,.2.2.3.3.1.1.2.3.4.4.1,0,.4,0,.5,0,.1,0,.2.1.3.3,0,.2,0,.4,0,.6,0,.2.4,0,.3.4-.2.6.2.6.4.8.2.2.3.5.6.6.2,0,0,.5,0,.6,0,0-.9,1.2-1.2,1.6,0,0-.1.1-.2.2-.4.2-1,.7-1.1.5-.2-.2-.4-.4-.6-.6Z" fill="#aaca60"/>
  <path d="M230.7,193.3c0-.2-.1-.4-.3-.6,0,0,.2-.2-.4-.1-.3,0,.3-.2.2-.3-.1-.2-.1-.4-.3-.5-.1-.2-.4-.3-.5-.4-.1-.2,0-.5-.3-.5-.3,0,0-.4,0-.5-.2-.1-.3-.2-.2-.5.1-.2.3-.4.1-.4,0,0-.4,0-.4,0,0,0,.2-.3-.4,0,0,0,0,0,.1-.1.3-.2.3-.3,0-.3-.3,0-.3,0-.3,0,0-.1-.2-.3-.2-.5,0-.1.2-.3.2-.5,0-.1-.3-.2,0-.4.2-.2.2-.3.1-.4,0,0,.2-.2-.4,0,0,0,0,0,0,0,.7-.5-.4-.2-.3-.5.1-.3,0-.4-.2-.6,0,0,.1-.2-.3,0-.2,0-.2,0,0,0,.5-.4.1-.4.2-.6,0-.2-.3-.3,0-.6.2-.1.2-.3-.3-.1-.3,0,0-.1-.1-.2,0,0-.3,0-.4,0,0,0,.2-.2.3-.3,0,0,0,0,0,0-.7,0,0-.6-.2-.7-.3-.2-.3-.4-.3-.7,0-.2.1-.4,1.1-.9.5-.2,1-.4,1.3-.5.2,0,.5,0,.5,0,.1,0,.3,0,.4.1.2,0,.8,0,.6.3,0,0,.2,0-.2.3,0,0,0,0,0,0,.8,0,.4.3.6.5.1.2.8.1.6.4.6-.1.6,0,.4.2-.5.6,0,.8.1,1.2,0,.4.3.7.4,1.1,0,0,.4,0,.1.2-.2.2,0,.2,0,.3,0,0,.2,0,0,.2-.5.5,0,.7,0,1,0,.3.1.6.4.8.2.1.6.2.5.4,0,0,.3,0-.2.3-.1,0,.3,0,.3,0,0,0,.1.2.2.4,0,.2,0,.3.2.5,0,0,.3,0,.4.2.1,0,.1.2.1.3,0,.2-.2.4-.2.5,0,.2.3.2.1.4-.4.4,0,.6,0,.9,0,.3.1.5.3.7.1.1-.3.4-.2.6,0,0-1.3.7-1.8.9,0,0-.2,0-.2,0-.5,0-1.2.2-1.2,0,0-.3-.2-.5-.3-.7Z" fill="#aaca60"/>
  <path d="M250.9,192.2c0-.3.2-.5.2-.8,0-.1.3-.2-.2-.4-.2-.1.4,0,.4-.2,0-.3.1-.5.1-.8,0-.3-.2-.6-.2-.8,0-.3.3-.5,0-.8-.2-.3.3-.4.2-.6,0-.2-.1-.5.1-.6.2-.1.4-.2.3-.4,0-.1-.4-.2-.3-.3,0,0,.3-.2-.3-.3,0,0,0,0,.2,0,.4,0,.4-.2.1-.3-.3-.1-.2-.2-.2-.3,0-.2,0-.4,0-.6,0-.2.3-.3.4-.4,0-.2-.2-.4.1-.5.3-.1.3-.3.3-.4,0,0,.3-.2-.3-.3,0,0,0,0,0,0,.9-.2-.2-.5,0-.8.2-.2,0-.5,0-.8,0,0,.2-.1-.3-.2-.2,0-.2-.1,0-.1.6-.2.3-.4.4-.6.1-.2-.2-.5.3-.7.2,0,.3-.2-.3-.4-.3,0,0-.2,0-.3,0,0-.3-.1-.3-.2,0,0,.2-.1.3-.2,0,0,0,0,0,0-.7-.3.2-.7,0-1-.2-.3-.1-.7,0-1,0-.2.2-.4,1.4-.6.5,0,1.1-.1,1.4,0,.2,0,.5.1.5.2.1.1.2.2.3.3.2.2.7.4.5.7,0,0,.2.2-.3.2,0,0-.1,0,0,0,.8.3.3.7.3,1,0,.3.7.6.4.8.6.2.5.3.3.5-.7.5-.3,1.1-.4,1.7-.1.6,0,1.1-.1,1.7,0,0,.3.2,0,.3-.3,0,0,.2,0,.4,0,.1.1.2,0,.3-.7.4-.4.8-.5,1.3-.1.4-.2.9-.1,1.3,0,.3.4.6.2.8,0,.1.2.3-.4.3-.2,0,.3.2.3.3,0,.2,0,.4,0,.5,0,.3-.1.5-.1.8,0,.2.2.4.3.5,0,.2,0,.3,0,.5-.1.2-.4.3-.5.5-.1.2.1.5-.2.6-.6.3-.4.7-.6,1-.1.4-.3.7-.3,1.1,0,.2-.5.3-.6.5,0,0-1.5-.2-2-.4,0,0-.2,0-.2,0-.4-.3-1.1-.7-.9-.9.2-.3.2-.6.3-.9Z" fill="#aaca60"/>
  <path d="M273.6,195.6c.2-.3.4-.6.6-1,0-.1.4-.1,0-.5-.2-.2.4,0,.5-.1.1-.3.4-.6.5-1,.1-.3.1-.8.3-1.1.1-.3.6-.5.5-.9,0-.4.5-.4.5-.7,0-.3.1-.6.5-.7.3,0,.6-.2.6-.4,0-.1-.2-.4,0-.5,0-.1.4,0,0-.5,0,0,0,0,.2,0,.4,0,.5,0,.3-.3-.2-.2,0-.3,0-.4.1-.3.3-.5.5-.8.2-.2.5-.2.6-.4.2-.2,0-.5.4-.6.4,0,.5-.2.6-.4,0-.1.4,0-.1-.5,0,0,0,0,0,0,.9.1.1-.7.5-.9.4-.2.4-.6.6-.9,0,0,.3,0,0-.4-.1-.1,0-.2,0-.2.7.1.5-.3.7-.5.3-.2.2-.6.8-.6.2,0,.4-.1,0-.6-.2-.2.1-.2.1-.3,0-.1-.2-.3-.1-.4,0,0,.3,0,.4,0,0,0,0,0,0,0-.4-.7.6-.6.6-1,0-.4,0-.6.2-.8,0-.1.3-.1,1.4-.3.5,0,1.1-.2,1.4,0,.2,0,.5.2.5.3,0,.2.2.4.3.6.1.4.5,1,.1,1.3-.1,0,.1.3-.4.2,0,0-.1,0,0,0,.5.8-.2,1-.4,1.5-.2.4.2,1-.2,1.2.4.5.2.6,0,.7-.9.2-.9,1.1-1.4,1.6-.5.6-.8,1.2-1.2,1.8,0,.1.2.4-.1.4-.3,0-.2.2-.3.4,0,.1,0,.3-.2.4-.9.1-.8.8-1.2,1.3-.4.4-.7.9-.9,1.4,0,.3,0,.8-.3,1-.1,0,0,.4-.5.2-.2,0,.1.3.1.4,0,.2-.2.4-.4.6-.2.3-.4.5-.5.8,0,.2,0,.5,0,.7,0,.2-.2.4-.3.5-.2.2-.5.3-.7.5-.2.2-.1.6-.5.7-.7.1-.7.7-1,1.1-.3.4-.6.8-.8,1.2,0,.3-.6.2-.8.4,0,.1-1.4-.5-1.8-.8,0,0-.2-.1-.2-.2-.3-.5-.7-1.1-.5-1.3.3-.3.5-.7.7-1.1Z" fill="#aaca60"/>
  <path d="M304.7,198.8c-.1,0-.2.1-.3.3,0,0-.2-.1,0,.3.2.2-.3-.2-.3-.2,0,.1-.2.1-.3.3,0,.1,0,.4,0,.5,0,.1-.3,0-.2.3.1.3-.3,0-.3.1,0,.2,0,.3-.3.2-.2,0-.4-.2-.4,0,0,0,.2.4.1.4,0,0-.3-.2.1.3,0,0,0,0-.1,0-.3-.3-.3-.2-.2,0,.1.2,0,.2,0,.3,0,0-.1.2-.2.2,0,0-.3-.1-.4-.1-.1,0,0,.3-.2,0-.3-.2-.3-.1-.4,0,0,0-.3-.2.1.3,0,0,0,0,0,0-.6-.6,0,.4-.2.3-.2,0-.2.1-.3.2,0,0-.2,0,.1.3,0,.1,0,.2,0,0-.5-.4-.3,0-.5,0-.2,0,0,.3-.5,0-.2-.1-.3-.2,0,.3.2.2,0,0,0,.1,0,0,.2.3.1.3,0,0-.2-.1-.3-.2,0,0,0,0,0,0,.3.6-.4,0-.4.3,0,.2-.2.3-.4.3-.1,0-.3,0-1.1-.9-.4-.4-.7-.8-.9-1.1-.1-.2-.3-.4-.3-.5,0-.1,0-.2,0-.3,0-.2-.3-.7,0-.5,0,0,0-.2.3.2,0,0,0,0,0,0-.4-.7,0-.4.1-.5,0-.1-.3-.7,0-.6-.4-.5-.2-.5,0-.4.6.3.5-.2.8-.2.3,0,.4-.3.6-.5,0,0-.2-.3,0-.1.2.2.1,0,.2,0,0,0,0-.2.1,0,.6.4.5,0,.7-.1.2,0,.4-.2.4-.4,0-.2-.1-.5,0-.5,0,0-.1-.3.3.1.1.1-.1-.3-.1-.3,0,0,.1-.1.2-.2,0,0,.2-.1.3-.2,0,0,0-.3,0-.4,0,0,0-.1.2-.1.1,0,.3,0,.4,0,.1,0,0-.3.3-.1.5.3.4,0,.6,0,.2,0,.3-.1.4-.3,0-.1.4.2.5.1,0,0,1,1.1,1.3,1.4,0,0,.1.2.1.2.2.4.6,1,.5,1.1-.2,0-.2.2-.4.3Z" fill="#aaca60"/>
  <path d="M417,262.2c-.7-.2-1.3-.4-2-.6-.3,0-.4-.4-.8,0-.2.2-.2-.5-.4-.6-.6-.2-1.2-.6-1.8-.8-.6-.2-1.2-.4-1.8-.6-.6-.3-1-.9-1.7-1-.6-.1-.7-.8-1.2-1.1-.5-.3-1-.7-1.2-1.3-.1-.4-.2-.9-.5-1.2-.2-.2-.6-.2-.7-.5-.1-.2,0-.6-.7-.6,0,0,0-.2,0-.2.2-.4,0-.7-.3-.9-.3-.1-.4-.3-.5-.5-.2-.6-.4-1.2-.5-1.8,0-.5.1-.9.1-1.4,0-.5-.3-.9,0-1.4.3-.4.3-.8.3-1.2,0-.2.3-.5-.3-.7,0,0,0-.1,0-.1.9-.5,0-1.3.3-2,.4-.6.5-1.3.7-2,0-.2.3-.3,0-.6-.1-.1,0-.3,0-.3.8-.2.7-.8,1.1-1.2.4-.4.5-1.1,1.2-1.3.3,0,.6-.3.3-.9-.1-.3.3-.3.4-.5,0-.2,0-.5.1-.6,0-.1.4,0,.6,0,0,0,0,0,.1-.1.1-1.1,1.4-1,1.9-1.7.5-.7,1.3-1.1,2.1-1.5.4-.2.9-.3,1.8.5.4.4.6.9.7,1.2,0,.3,0,.5,0,.7-.2.2-.3.4-.4.6-.3.4-.3,1.1-.9,1.2-.2,0-.1.4-.5,0,0,0-.1,0-.1,0,0,1-.8,1-1.2,1.5-.3.4-.2,1.2-.8,1.4.3.6,0,.8-.3.9-1.1.4-1.3,1.6-1.7,2.4-.5.9-.7,1.9-.8,2.8,0,.2.3.3,0,.5-.3.2,0,.4,0,.6,0,.2.1.4,0,.6-.6.8-.1,1.6,0,2.3.1.8.4,1.5.9,2.1.3.4.8.5,1,.9,0,.2.5.1.2.7,0,.2.4,0,.5,0,.3.2.5.4.7.6.4.3.7.6,1.1.8.3.1.6,0,.9.2.3.1.6.3.8.5.3.3.6.6.9.8.3.2.8.2,1.1.6.5.8,1.3.8,2,1,.7.3,1.4.5,2.1.5.4,0,.7.6,1.1.6.2,0,.2,1.5,0,2,0,0,0,.2-.1.2-.5.4-1,1-1.6.9-.8-.2-1.5-.4-2.3-.6Z" fill="#aaca60"/>
  <path d="M439.3,261.7c0,.8,0,1.5-.1,2.2,0,.3-.3.5.1.9.2.2-.5.3-.5.6-.1.7-.4,1.3-.7,2-.2.6-.4,1.4-.7,2-.3.6-1,1-1.2,1.7-.2.6-1,.6-1.3,1.1-.4.5-.9.9-1.5,1-.5,0-.9,0-1.3.3-.2.2-.4.6-.7.6-.3,0-.6-.1-.8.6,0,0-.2,0-.2,0-.4-.3-.7-.3-1,0-.2.3-.5.3-.7.3-.7,0-1.4,0-2-.2-.5-.1-.9-.5-1.3-.7-.4-.2-1,0-1.2-.5-.3-.4-.6-.6-1-.7-.2,0-.3-.5-.7,0,0,0-.1,0-.1,0-.2-1-1.2-.4-1.7-.9-.5-.5-1.1-.8-1.7-1.3-.2-.1-.2-.4-.6-.2-.2,0-.3,0-.3-.2,0-.8-.6-1.1-.9-1.6-.3-.6-.9-1.2-.6-2,0-.4.1-.7-.5-1-.3-.1,0-.5-.2-.8,0-.2-.3-.4-.4-.6,0-.2.2-.4.4-.5,0,0,0-.1,0-.2-.3-.5-.1-1.1,0-1.5.2-.5.6-.9.7-1.4.2-1,.9-1.9,1.8-2.6.4-.4,1.1-.6,2,.1.4.3.7.8.7,1.2,0,.3,0,.5,0,.6,0,.2-.2.4-.2.6-.1.4.1,1-.3,1.1-.1,0,0,.3-.4.2,0,0-.1,0-.1,0,.5.8-.1,1-.1,1.6,0,.5.6.8.4,1.2.7.1.6.3.5.5-.2.4-.1.8.1,1.1.2.3.6.6.9.9.6.7,1.5,1.1,2.5,1.7.2,0,.5-.2.5.2,0,.3.4.2.6.3.2,0,.4,0,.6.3.5.9,1.4.7,2.1.9.7.1,1.4.1,2-.2.4-.2.6-.7,1-.8.2,0,.2-.4.6,0,.1.1,0-.4.1-.5.2-.2.5-.4.7-.6.3-.3.6-.6.8-.9.1-.2,0-.6.2-.8,0-.2.2-.5.4-.7.2-.3.5-.5.7-.8.2-.3,0-.8.4-1,.7-.5.5-1.3.6-1.9,0-.7,0-1.3-.2-2-.1-.3.3-.8.1-1.2,0-.2,1.3-.9,1.8-1,0,0,.2,0,.2,0,.6.3,1.4.5,1.5,1.1,0,.9.3,1.7.3,2.6Z" fill="#aaca60"/>
  <path d="M441.9,239.9c.1,0,.3,0,.4,0,0,0,0,.2.2-.3,0-.3,0,.4.1.3.1,0,.3,0,.4,0,.1,0,.3-.3.4-.3.1,0,.2.3.4,0,.1-.3.2.2.3.1.1-.1.2-.2.3,0,0,.2.1.4.2.3,0,0,.1-.4.2-.3,0,0,0,.3.2-.3,0,0,0,0,0,.2,0,.4,0,.4.1.1,0-.3.1-.2.2-.2.1,0,.2,0,.3,0,0,0,.1.3.2.4,0,0,.2-.2.2.1,0,.3,0,.3.2.3,0,0,0,.3.2-.3,0,0,0,0,0,0,0,.8.3-.2.4,0,0,.2.2.1.4.1,0,0,0,.2.2-.2,0-.2,0-.2,0,0,0,.6.1.3.2.4,0,.1.3-.1.3.4,0,.2,0,.3.2-.2,0-.3,0,0,.1,0,0,0,.1-.3.2-.3,0,0,0,.2,0,.4,0,0,0,0,0,0,.3-.6.3.3.5.2.2-.1.4,0,.5.1,0,0,.1.3-.2,1.4-.1.5-.3,1-.4,1.3-.1.2-.2.4-.2.5,0,0-.2.2-.2.3-.1.2-.4.6-.4.3,0,0-.1.2,0-.3,0,0,0-.1,0,0-.3.7-.3.2-.5.2-.1,0-.4.6-.4.3-.2.6-.3.5-.3.3,0-.7-.4-.3-.5-.4-.2-.1-.4,0-.6-.2,0,0-.1.3-.1,0,0-.3,0,0-.1,0,0,0-.1.1-.1,0,0-.7-.3-.3-.4-.4-.2,0-.3-.2-.5,0-.1,0-.3.4-.3.3,0,0-.1.3,0-.3,0-.2,0,.3-.1.3,0,0-.1,0-.2,0,0,0-.2,0-.3,0,0,0-.1.3-.2.3,0,0-.1,0-.2,0,0,0-.1-.3-.2-.4,0,0-.2.2-.2,0-.1-.5-.3-.3-.4-.3-.1,0-.3-.1-.4,0,0,0-.2-.4-.2-.4,0,0,0-.4,0-.8,0-.4,0-.9,0-1.2,0,0,0-.2,0-.2,0-.5.2-1.2.3-1.1.2,0,.3,0,.5,0Z" fill="#aaca60"/>
  <path d="M447.9,260.4c-.2.1-.4.2-.6.3,0,0-.3-.2-.1.4,0,.3-.3-.3-.3-.2-.2.2-.4.1-.6.3-.2.1-.3.4-.5.5-.2.1-.5-.1-.6.2-.1.3-.4-.2-.5,0-.2.2-.3.3-.5,0-.2-.2-.3-.4-.4-.2,0,0-.1.4-.2.4,0,0-.2-.3-.2.4,0,0,0,0,0-.1-.1-.4-.2-.4-.3,0,0,.3-.1.2-.2.3-.2,0-.4,0-.6,0-.1,0-.3-.3-.4-.3-.1,0-.3.2-.4,0-.1-.3-.2-.3-.4-.3,0,0-.1-.3-.2.3,0,0,0,0,0,0-.1-.8-.4.2-.6,0-.2-.2-.4-.1-.7-.1,0,0,0-.2-.2.2,0,.2-.1.2-.1,0,0-.7-.3-.3-.4-.5-.2-.2-.4,0-.5-.5,0-.2,0-.4-.4.2-.1.2-.1,0-.2,0,0,0-.2.3-.3.3,0,0,0-.3,0-.4,0,0,0,0,0,0-.5.5-.4-.4-.8-.4-.3,0-.6-.1-.8-.4-.1-.1-.2-.4.3-1.4.2-.5.5-.9.7-1.2.2-.2.3-.4.4-.4.1,0,.2-.1.3-.2.2-.1.6-.5.5-.2,0,0,.2-.2,0,.3,0,0,0,.1,0,0,.5-.7.4,0,.6,0,.2,0,.5-.5.6-.2.3-.6.3-.4.3-.2,0,.7.5.4.8.5.3.2.6,0,.9.2,0,0,.1-.3.2,0,0,.3.1,0,.2,0,0,0,.1-.1.2,0,.2.7.5.3.7.3.2,0,.5.1.7,0,.1-.1.2-.5.4-.4,0,0,0-.3.2.3,0,.2,0-.3,0-.3,0,0,.2,0,.3,0,.1,0,.3,0,.4-.1,0,0,0-.3.1-.4,0,0,.1-.1.2,0,.1,0,.3.2.4.2.1,0,.1-.3.3,0,.4.4.5,0,.7,0,.2,0,.4,0,.5-.3,0-.1.4.3.5.2,0,0,.9,1.2,1.1,1.6,0,0,0,.2.1.2.1.5.4,1.2.2,1.2-.3,0-.5.2-.7.4Z" fill="#aaca60"/>
  <path d="M441.4,243.1c0,0,.2,0,.2-.2,0,0,.2.1,0-.3-.2-.2.3.2.3.2,0-.1.2-.1.2-.2,0-.1,0-.3,0-.4,0-.1.3,0,.1-.3-.2-.2.3,0,.2-.1,0-.1,0-.3.2-.2.2,0,.4.1.3,0,0,0-.3-.3-.2-.3,0,0,.3.1-.2-.3,0,0,0,0,.1,0,.4.2.4.1.1,0-.2-.2-.2-.2-.2-.2,0,0,0-.2.1-.2,0,0,.3,0,.4,0,0,0-.1-.2.2-.1.3,0,.3,0,.3,0,0,0,.3,0-.3-.2,0,0,0,0,0,0,.8.3-.2-.3,0-.3.2,0,.1-.1.2-.2,0,0,.2,0-.2-.2-.1,0-.2,0,0,0,.6.2.3,0,.4,0,.1,0-.1-.2.4-.1.2,0,.3,0-.2-.2-.3,0,0,0,0-.1,0,0-.3-.1-.3-.2,0,0,.2,0,.3,0,0,0,0,0,0,0-.6-.3.3-.2.1-.3-.2-.2,0-.2,0-.4,0,0,.3,0,1.4,0,.5,0,1.1,0,1.4.2.2,0,.5.1.5.2,0,0,.2.1.3.2.2.1.7.4.4.4,0,0,.2.1-.3,0,0,0-.1,0,0,0,.7.3.2.4.2.6,0,.2.6.5.3.5.6.3.4.3.2.4-.7,0-.4.5-.6.8-.2.2-.2.6-.4.8,0,0,.3.2,0,.2-.3,0-.1,0-.1.1,0,0,0,.2-.1.1-.7-.1-.5.3-.7.4-.2.2-.4.3-.4.6,0,.2.2.5,0,.5,0,0,.1.3-.4,0-.1,0,.2.2.2.3,0,.1-.1.2-.2.2,0,.1-.2.2-.3.3,0,0,0,.3,0,.4,0,.1,0,.2-.2.2-.1,0-.4,0-.5,0-.1,0,0,.3-.3.2-.5-.3-.5,0-.7.1-.2,0-.4.2-.5.4,0,.1-.4-.2-.5-.2,0,0-.9-1.2-1.1-1.6,0,0,0-.2-.1-.2-.2-.4-.5-1.1-.4-1.1.1,0,.2-.1.3-.2Z" fill="#aaca60"/>
  <path d="M444.4,236.9c0-.2,0-.4-.1-.6,0,0,.2-.2-.3-.2-.3,0,.3-.2.3-.3-.1-.2,0-.4-.2-.6-.1-.2-.4-.3-.5-.4-.1-.1,0-.4-.3-.4-.3,0,0-.3-.1-.4-.2,0-.3-.1-.2-.4,0-.2.2-.4,0-.4,0,0-.4.2-.4,0,0,0,.1-.3-.4,0,0,0,0,0,0-.1.2-.3.1-.4,0-.2-.2.2-.2.1-.3,0-.1,0-.2-.1-.3-.2,0,0,0-.4,0-.5,0-.1-.3,0-.2-.2,0-.3,0-.4-.2-.4,0,0,0-.3-.3.3,0,0,0,0,0,0,.1-.8-.4.1-.5-.1-.1-.2-.3-.2-.5-.2,0,0,0-.2-.2.3,0,.2,0,.2,0,0,0-.6-.2-.3-.3-.4-.2-.1-.3.1-.5-.3,0-.2-.2-.3-.2.3,0,.3-.1,0-.2,0,0,0,0,.3,0,.3,0,0-.1-.2-.2-.3,0,0,0,0,0,0,0,.7-.5-.1-.6,0-.2.2-.4.2-.6.2-.1,0-.3-.1-1-1.1-.3-.4-.6-.9-.7-1.2,0-.2-.1-.5,0-.6,0-.1.1-.3.2-.5.1-.3.2-.9.6-.7.1,0,.1-.3.3.2,0,0,0,0,0,0,.1-.9.6-.5,1-.6.3-.1.5-.8.9-.5.1-.6.4-.5.6-.4.6.7,1.3.3,1.9.5.6.2,1.2.3,1.8.6,0,0,.3-.2.3,0,0,.3.2.2.4.2.1,0,.3,0,.3.2.1.8.7.7,1.1,1.1.3.4.6.7,1.1,1,.3.1.7.2.8.5,0,.1.4,0,0,.5-.1.1.3,0,.4,0,.2.1.2.3.3.5.2.2.2.5.4.7.1.1.4.2.5.3.1.1.2.3.2.5,0,.2-.1.5-.1.8,0,.2.3.4.1.7-.4.5,0,.9-.1,1.3,0,.4,0,.8,0,1.2,0,.2-.4.4-.5.6,0,.1-1.5,0-2,0,0,0-.2,0-.2,0-.5-.2-1.2-.4-1.1-.5,0-.2,0-.5,0-.7Z" fill="#aaca60"/>
  <path d="M429.7,223.1c-.3-.2-.5-.3-.9-.3-.1,0-.2-.3-.4.2-.1.3-.1-.4-.3-.4-.4,0-.7,0-1.1,0-.4,0-.8.3-1.2.4-.4,0-.9-.2-1.3.2-.3.3-.7-.2-1,0-.3.2-.7.3-1,.1-.3-.1-.5-.3-.8-.1-.1,0-.2.4-.3.5-.1,0-.4-.2-.3.4,0,0,0,0-.1-.1-.3-.3-.4-.3-.5,0,0,.3-.1.3-.2.3-.3.1-.5.3-.8.3-.2,0-.5,0-.7,0-.2,0-.3.4-.6.3-.4-.1-.5,0-.7.2,0,0-.4,0,0,.5,0,0,0,0,0,0-.8-.3-.2.6-.6.7-.4.1-.4.5-.5.8,0,0-.2,0,.2.3.1,0,.1.1,0,.1-.7,0-.3.3-.5.5-.2.2.1.5-.3.8-.2.1-.3.3.3.4.3,0,0,.2.1.3,0,0,.3,0,.4.2,0,0-.2.2-.3.3,0,0,0,0,0,0,.8.2,0,.9.5,1.3.4.4.6.9.7,1.4.1.3.1.7-.8,1.4-.4.3-.9.6-1.2.7-.3,0-.5,0-.6,0-.2-.1-.4-.2-.6-.3-.4-.2-1-.3-1-.9,0-.2-.3-.2,0-.5,0,0,0-.1,0-.1-1-.2-.7-1-1-1.5-.2-.5-1-.9-.8-1.5-.7-.2-.6-.7-.4-1,.3-.6.4-1.2.5-1.8,0-.6.2-1.2.4-1.8.5-1.1,1.1-2.1,2-2.9.1-.1,0-.5.4-.5.3,0,.4-.3.6-.4.2-.1.3-.4.5-.4,1.1,0,1.6-.7,2.4-1,.8-.3,1.6-.5,2.3-.8.4-.2.8-.7,1.3-.6.2,0,.4-.4.7.2,0,.2.2-.3.3-.4.3,0,.6-.1.9-.1.4,0,.9,0,1.3-.1.3,0,.5-.3.8-.4.3,0,.6,0,.9,0,.4,0,.8.3,1.2.3.4,0,.9-.2,1.3.2.3.3.7.5,1.1.6.4.1.8.2,1.2.4.7.4,1.4.9,2,1.6.4.4.2,1,.4,1.5.1.2-1.2,1-1.7,1,0,0-.2,0-.2,0-.5,0-1.2.2-1.3,0,0-.3-.4-.4-.7-.6Z" fill="#aaca60"/>
  <g>
    <path d="M338,209.4c-.9-.2-1.8-.5-2.7-.8-.3,0-.6-.5-1.1-.1-.3.2-.3-.6-.6-.7-.8-.3-1.6-.8-2.3-1.3-.8-.4-1.6-.8-2.3-1.4-.7-.6-1.1-1.4-1.9-1.9-.7-.4-.7-1.3-1.1-1.8-.5-.6-.9-1.3-1-2.1,0-.6,0-1.2-.2-1.7-.2-.3-.5-.6-.6-.9,0-.4.2-.8-.5-1,0,0,0-.2.1-.3.4-.4.3-.8,0-1.1-.3-.3-.2-.6-.2-.8,0-.8,0-1.5.2-2.3.1-.5.5-1,.6-1.6.2-.5,0-1.2.5-1.6.4-.4.6-.9.7-1.3,0-.3.5-.5,0-.9,0,0,0-.1,0-.2,1-.5.3-1.6.8-2.2.5-.7.7-1.5,1-2.3,0-.2.4-.3,0-.7-.1-.1,0-.4.1-.4.8-.3.8-1.1,1.3-1.6.5-.6.7-1.4,1.5-1.7.4-.1.7-.4.5-1.1,0-.3.4-.4.5-.7.1-.2,0-.6.3-.8.1-.1.5-.1.7-.2,0,0,.1,0,.2-.1.5-1.3,2-1.3,3-2,1-.7,2.3-1.1,3.6-1.2.7,0,1.5,0,1.9,1.3.2.5.1,1.1,0,1.4-.2.2-.3.5-.5.5-.3.1-.5.3-.8.4-.5.3-.9.9-1.5.9-.2,0-.3.3-.6,0,0,0-.1,0-.1,0-.3,1-1.2,1-1.8,1.6-.5.5-.5,1.4-1.1,1.7.2.7-.1.9-.5,1.1-1.3.7-1.7,2.2-2.4,3.5-.7,1.3-1.2,2.8-1.8,4.2,0,.2.2.6-.2.7-.3.2-.3.6-.4.9,0,.3,0,.6-.3.8-.9.9-.8,2.2-1,3.2-.2,1.1-.2,2.2,0,3.2.2.6.7,1.1.8,1.7,0,.3.5.4,0,.9-.1.1.4.2.5.3.2.3.4.7.7,1.1.3.5.7,1,1.2,1.4.3.2.7.3,1,.5.3.2.6.4.9.7.3.3.6.8,1,1.1.4.3,1,.3,1.4.8.7.9,1.7.9,2.6,1.2.9.3,1.9.5,2.9.5.6,0,1,.6,1.6.6.3,0,.5,1.5.4,2,0,0,0,.2-.1.2-.6.4-1.2,1.1-1.9,1-1-.2-2.1-.3-3.1-.6Z" fill="#aaca60"/>
    <path d="M360.5,229.2l-1,.5c-.3.1-.7.3-1,.4-.3.1-.6,0-.7.5,0,.3-.5-.2-.7-.2-.7.2-1.3.3-2,.4-.7.1-1.3.4-2,.4-.7,0-1.3-.3-2,0-.6.2-1-.4-1.6-.4-.6,0-1.2-.1-1.7-.5-.3-.3-.6-.7-1-.7-.3,0-.6.1-.9,0-.2-.1-.3-.5-.9,0,0,0,0-.1,0-.2,0-.5-.3-.7-.7-.6-.4,0-.5,0-.7-.2-.5-.3-.9-.7-1.3-1.1-.3-.3-.4-.8-.6-1.1-.2-.4-.8-.5-.8-1,0-.5-.3-.8-.5-1-.1-.2,0-.5-.7-.3,0,0,0,0,0,0,.3-1-.9-.7-1.2-1.4-.2-.7-.8-1.3-1.1-2.1,0-.2,0-.5-.5-.6-.2,0-.3-.3-.2-.4.5-.8,0-1.3.1-1.9.1-.7-.1-1.3.4-1.8.2-.2.4-.5-.2-.9-.2-.2,0-.4,0-.6,0-.2-.3-.4-.3-.5,0-.1.3-.2.4-.4,0,0,0,0,0-.1-.5-.9.5-1.5.5-2.3,0-.8.2-1.6.5-2.4.2-.4.5-.8,1.6-.8.5,0,1.1.2,1.3.4.2.2.4.4.4.6,0,.3.1.5.1.8,0,.5.5,1.1,0,1.5-.1.1.1.4-.4.4,0,0-.1,0,0,0,.6.8,0,1.4,0,2.1,0,.6.5,1.2.1,1.8.6.4.4.7.2,1-.4.5-.5.9-.4,1.4,0,.4.2.8.3,1.1.1.7.8,1.4,1.5,2.4.1.2.5,0,.4.4,0,.3.3.4.4.6.1.2.4.3.4.5,0,1.1,1,1.5,1.5,2,.3.3.6.6.9.8.3.2.7.4,1.1.5.5.2,1,0,1.4.3.2.1.5-.1.5.5,0,.2.3-.2.5-.2.3,0,.6.1,1,.2.5,0,.9.2,1.4.1.3,0,.6-.2.8-.3.3,0,.6,0,.9,0,.4,0,.8.2,1.1.2.4,0,.7-.3,1.1-.2.4.2.8.1,1.1,0,.3-.1.6-.3,1-.4.3-.1.6-.2.9-.4.3-.2.6-.4.8-.6.3-.3.9-.1,1.1-.4.1-.1,1.4.8,1.6,1.2,0,0,0,.2,0,.2,0,.6.1,1.5-.4,1.8-.7.5-1.4.9-2.2,1.3Z" fill="#aaca60"/>
    <path d="M394.9,215.8c.2,1,.3,2,.4,3,0,.4-.2.7.3,1.1.3.2-.4.5-.4.9,0,.9-.2,1.8-.3,2.7-.1.9,0,1.8-.3,2.7-.2.9-.8,1.7-1,2.6-.1.9-1,1.2-1.4,1.9-.4.7-1,1.4-1.8,1.7-.6.2-1.1.4-1.5.7-.2.2-.4.7-.7.8-.3.2-.8,0-.8.8,0,0-.2,0-.3,0-.5-.2-.9,0-1,.4-.2.4-.4.4-.7.6-.7.3-1.4.6-2.1.7-.6.1-1.2,0-1.7.1-.6,0-1.2.5-1.7.2-.6-.2-1.1-.2-1.6,0-.3,0-.7-.2-.9.4,0,0-.1,0-.2,0-.9-.8-1.7.3-2.6,0-.9-.3-1.9-.3-2.8-.5-.2,0-.5-.3-.8,0-.1.1-.4,0-.5,0-.5-.8-1.3-.7-1.9-1.2-.7-.5-1.6-.7-2-1.5-.2-.4-.5-.7-1.2-.5-.3,0-.5-.4-.7-.6-.2-.1-.6-.1-.8-.3-.2-.2-.1-.5-.2-.7,0,0,0-.1-.1-.2-1.3-.5-1.4-2.1-2.1-3-.7-1-1.1-2.3-1.3-3.6,0-.7,0-1.5,1.1-2,.5-.2,1.1-.2,1.4,0,.3.2.5.3.6.5.1.3.3.6.5.8.3.5,1,.9,1,1.5,0,.2.4.3,0,.6,0,0,0,.1,0,.2,1.1.3,1.1,1.3,1.6,1.9.5.5,1.4.5,1.7,1.2.7-.2.9,0,1.1.5.4.7.9,1.1,1.6,1.3.6.3,1.3.4,1.9.6,1.3.5,2.8.5,4.2.5.2,0,.4-.4.7-.1.3.2.6,0,.9,0,.3,0,.6-.2.9,0,1.3.5,2.3-.2,3.5-.5,1.1-.3,2.3-.7,3.2-1.4.6-.4.9-1.1,1.5-1.4.3-.1.2-.6.8-.3.2,0,0-.4.1-.6.2-.3.5-.6.7-1,.3-.5.6-1,.8-1.6.1-.4,0-.8,0-1.2,0-.4.2-.8.3-1.2.2-.5.5-1,.6-1.5.1-.5,0-1.1.2-1.6.5-1,.2-2,.1-2.9-.1-.9-.4-1.8-.9-2.6-.3-.4-.1-1.1-.5-1.4-.1-.2.7-1.4,1.1-1.7,0,0,.2,0,.3,0,.8.2,1.8.3,2.2,1,.6,1.1,1,2.2,1.3,3.3Z" fill="#aaca60"/>
    <path d="M409.6,197.7c.2.6.4,1.3.6,1.8,0,.2-.1.4.4.5.3,0-.3.4-.2.6.2.5.2,1,.3,1.5.1.5.4,1,.5,1.6,0,.6-.2,1.2,0,1.7.2.5-.3.9-.3,1.3,0,.5,0,1-.4,1.4-.3.3-.6.5-.6.8,0,.2.2.5,0,.7-.1.2-.5.3,0,.7,0,0-.1,0-.2,0-.5,0-.6.2-.4.6.1.3,0,.4,0,.6-.3.4-.5.8-.9,1.2-.3.3-.7.4-1,.6-.3.2-.4.7-.9.7-.5,0-.7.2-1,.4-.2.1-.5,0-.3.6,0,0,0,0,0,0-.9-.4-.8.8-1.4.9-.6,0-1.1.4-1.7.7-.2,0-.4,0-.4.4,0,.2-.2.2-.3.1-.6-.5-.9,0-1.4,0-.5,0-1,.3-1.5-.2-.2-.2-.5-.3-.7.3-.1.3-.3,0-.5,0-.1,0-.3.3-.4.3-.1,0-.2-.2-.3-.4,0,0,0,0-.1,0-.7.6-1.3-.3-2-.2-.7,0-1.3,0-1.9-.3-.3-.1-.7-.4-.7-1.5,0-.5,0-1.1.3-1.4.1-.2.3-.4.4-.5.2,0,.4-.2.6-.2.4-.1.9-.6,1.2-.3.1.1.3-.2.3.3,0,0,0,.1,0,0,.6-.7,1.1-.1,1.6-.2.4,0,.9-.6,1.3-.4.2-.6.5-.5.7-.4.8.6,1.6,0,2.3,0,.7-.1,1.4-.5,2-.9.1,0,0-.4.3-.3.3.1.3-.1.4-.3.1-.1.1-.3.4-.3.9,0,1.1-.7,1.5-1.2.4-.5.8-1,.9-1.6,0-.4-.1-.9.1-1.1,0-.1-.2-.4.4-.4.2,0-.2-.3-.2-.4,0-.3,0-.5.1-.7,0-.3.1-.7,0-1,0-.2-.3-.4-.4-.6,0-.2,0-.4,0-.7,0-.3.2-.6.2-1,0-.3-.3-.6-.1-1,.2-.4.2-.7.1-1,0-.3-.2-.5-.2-.8,0-.5-.3-.9-.5-1,0,0,.2-.4,0-.5,0,0,0,0,0-.2,0-.1,0-.3,0-.6,0-.4,0-.9,0-1.2,0,0,0-.2.1-.2.3-.2.6-.4,1-.5.4,0,.8,0,1.1.2.8.8,1.2,1.5,1.5,2.2Z" fill="#aaca60"/>
    <path d="M395.5,164.8c.8-.4,1.7-.9,2.7-1.3.4-.2.8,0,1.1-.7.2-.3.7.2,1.1.1,1.1-.2,2.3,0,3.3.2,1,.3,2,.6,2.9,1,.8.5,1.3,1.2,2.2,1.4.7.2.9,1,1.5,1.3.6.3,1.3.7,1.7,1.4.3.5.5,1,1,1.2.3.2.7.1,1,.4.2.2.3.7,1,.5,0,0,0,.2,0,.3,0,.5.3.8.7.9.4,0,.6.3.7.5.5.6,1,1.2,1.4,1.9.3.5.4,1.2.6,1.7.2.6.8,1.1.7,1.7,0,.7.1,1.2.3,1.7,0,.3-.1.7.6.9,0,0,0,.1,0,.2-.3.5-.2,1,0,1.4.2.5.4.9.3,1.4-.2,1-.2,2-.4,3,0,.3-.3.5,0,.8.1.1,0,.4,0,.5-.8.5-.7,1.3-1,1.9-.4.7-.4,1.5-1.2,2-.3.2-.6.6-.2,1.2.2.3-.2.5-.3.8,0,.2,0,.6,0,.8,0,.2-.4.3-.6.4,0,0-.1.1-.1.2,0,.7-.5,1.2-1,1.7-.5.5-1.1.8-1.7,1.3-1.1,1-2.6,1.6-4.2,1.6-.9,0-2-.4-2-1.7,0-.6.2-1,.6-1.3.2-.2.4-.3.6-.4.3,0,.5-.2.7-.3.5-.2.7-.9,1.3-.8.2,0,.2-.3.6,0,0,0,.1,0,.1,0,0-1,.9-1.2,1.3-1.9.4-.6.1-1.5.7-2.1-.4-.7,0-1.1.3-1.4,1.2-1.2,1.4-2.8,1.8-4.1.4-1.4.4-2.8.2-4.1,0-.2-.4-.3-.2-.7.2-.3-.1-.6-.2-.9,0-.3-.3-.5-.3-.8.2-1.3-.8-2.2-1.5-3.1-.6-1-1.4-1.9-2.4-2.7-.6-.4-1.4-.7-1.9-1.3-.2-.3-.7-.2-.6-.9,0-.2-.5,0-.7-.1-.4-.3-.8-.6-1.3-1-.6-.4-1.2-1-1.8-1.3-.4-.2-.8-.3-1.2-.4-.4-.2-.7-.3-.9-.5-.3-.2-.6-.5-1-.6-.4-.1-.8.2-1.2,0-.9-.3-1.8.3-2.8.7-1,.4-2,1-2.9,1.6-.5.4-1.3.2-1.8.5-.3.1-1.3-1-1.4-1.5,0,0,0-.2,0-.3.3-.7.5-1.6,1.1-1.9.9-.4,1.8-1,2.7-1.4Z" fill="#aaca60"/>
    <path d="M375.9,157.4c.4-.3.9-.6,1.3-.9.2-.1.5,0,.4-.5,0-.3.4.2.6.1.4-.3.9-.3,1.4-.5.4-.2.8-.5,1.3-.7.5-.2,1,0,1.4-.3.4-.3.8.2,1.1,0,.4-.1.8-.2,1.2,0,.3.2.5.4.8.4.2,0,.4-.3.6-.3.2,0,.3.3.6-.2,0,0,0,0,.1.2.1.4.3.5.6.2.2-.2.3-.2.5-.1.4,0,.8.2,1.2.4.3.1.5.5.7.6.3.2.7,0,.8.4.1.4.4.5.6.6.1,0,.2.4.6,0,0,0,0,0,0,0,0,.9.9.2,1.2.7.3.5.8.7,1.2,1.1.1.1,0,.3.5.1.2,0,.3,0,.2.2-.2.7.4.9.5,1.3.1.5.6.9.3,1.5-.1.3-.2.5.5.6.3,0,0,.4.2.5,0,.1.4.2.4.4,0,.1-.2.3-.3.4,0,0,0,0,0,.1.7.7-.2,1.4-.1,2,0,.7-.1,1.3-.4,1.9-.2.3-.5.6-1.6.4-.5,0-1-.3-1.3-.5-.2-.2-.4-.3-.4-.4,0-.2-.1-.4-.2-.5-.1-.4-.5-.7-.2-1,.1,0-.2-.2.3-.2,0,0,.1,0,0,0-.7-.5-.2-.8-.2-1.2,0-.3-.7-.5-.5-.8-.6,0-.6-.1-.4-.3.3-.3.2-.6,0-.8-.1-.2-.4-.3-.5-.5-.3-.5-.9-.8-1.5-1.1,0,0-.4.2-.3-.1,0-.3-.2-.2-.4-.3-.1,0-.3,0-.4-.2-.2-.8-.9-.7-1.4-.9-.5-.2-1.1-.4-1.6-.4-.4,0-.7.3-1,.2-.1,0-.3.3-.4-.3,0-.2-.2.3-.3.3-.2,0-.4,0-.7,0-.3,0-.6,0-.9.1-.2,0-.3.3-.5.4-.2,0-.3.1-.5.1-.2,0-.5-.1-.8-.1-.3,0-.4.4-.7.2-.6-.3-.9.2-1.3.4-.4.2-.8.5-1,.9-.1.2-.7,0-.8.2,0,0-1.3-.7-1.7-1.1,0,0-.1-.2-.1-.2-.2-.5-.5-1.3-.1-1.5.5-.4.9-.8,1.4-1.1Z" fill="#aaca60"/>
    <path d="M335.3,169.5c-.6-1-.9-2.2-1.3-3.3-.1-.4,0-.9-.5-1.3-.3-.2.3-.7.2-1.1-.1-1.1,0-2.2.2-3.3.1-1.1.3-2.2.8-3.3.5-1.1,1.4-1.8,1.9-2.7.4-.8,1.4-1,1.9-1.6.6-.6,1.3-1.2,2.1-1.5.6-.2,1.2-.3,1.6-.7.3-.3.4-.7.8-.9.3-.2.8-.1.9-.8,0,0,.2,0,.3,0,.5.2,1,0,1.2-.4.2-.4.5-.5.8-.6.8-.3,1.6-.6,2.4-.8.6-.2,1.3,0,1.9-.2.6-.1,1.3-.5,1.9-.3.6.2,1.2.1,1.8,0,.3,0,.7.2,1-.4,0,0,.1,0,.2,0,.5.4,1,.3,1.4.1.5-.1,1-.4,1.4-.3,1,.2,2,.1,3,.2.3,0,.5.2.8-.2.1-.2.4-.1.5,0,.6.8,1.5.5,2.2.8.8.3,1.8.3,2.5,1,.3.3.7.6,1.4.2.3-.2.6.3.9.4.3,0,.6,0,.9,0,.2.1.3.4.5.6,0,0,.1.1.2.1.8,0,1.3.5,1.8,1,.5.5.9,1.1,1.4,1.6,1.1.9,2,2.4,2.4,3.9.2.9.1,1.9-1,2.4-.5.2-1.1.2-1.4,0-.3-.2-.5-.4-.6-.6-.1-.3-.3-.6-.5-.8-.4-.5-1.1-.8-1.2-1.4,0-.2-.4-.2-.1-.7,0,0,0-.2,0-.2-1.2-.1-1.5-1.1-2.4-1.6-.7-.4-1.7-.2-2.3-.8-.7.4-1,.1-1.5-.2-1.4-1.2-3.2-1.1-4.8-1.4-1.7-.3-3.4-.3-5.1-.2-.3,0-.5.4-.9.1-.3-.2-.7,0-1.1,0-.3,0-.7.3-1,.1-1.5-.4-2.7.3-4,.7-1.3.4-2.6.8-3.7,1.6-.7.4-1.2,1.2-2,1.5-.3.2-.4.6-1,.4-.2,0-.2.5-.3.6-.4.4-.8.7-1.2,1-.5.5-1,1-1.4,1.6-.2.4-.2.8-.3,1.1,0,.2-.1.4-.2.5,0,.2-.1.4-.2.5-.2.5-.5.9-.6,1.5-.1.6.2,1.1,0,1.7-.4,1.1.1,2.1.5,3.1.4,1,1,1.9,1.8,2.5.2.2.3.4.5.7.1.3.3.5.5.7.2.1-.1,1.6-.5,2,0,0-.2.1-.2.1-.4,0-.9,0-1.4,0-.4,0-.9-.2-1.2-.5-1-1-1.8-2-2.5-3.2Z" fill="#aaca60"/>
  </g>
  <path d="M399.3,395.6c-.9,1.6-1.8,3.2-2.6,4.9-.3.6-.9,1.1-.8,2,0,.4-.8.7-1.1,1.3-.8,1.5-1.7,3-2.6,4.5-.8,1.5-1.5,3-2.4,4.5-.9,1.4-2.1,2.7-2.7,4.2-.6,1.3-1.7,2-2.4,3.2-.8,1.2-1.6,2.4-2.6,3.4-.8.7-1.6,1.3-2.1,2.2-.4.5-.5,1.2-1,1.7-.4.5-1.1.8-1,1.7,0,0-.3.2-.4.2-.8.2-1.3.8-1.5,1.5-.2.6-.6.9-.9,1.3-1,1-2,2.1-3.2,3-.9.7-1.8,1.2-2.7,1.9-.9.7-1.7,1.7-2.8,2-1.1.4-2,.9-2.9,1.4-.6.3-1.3.3-1.6,1.1,0,0-.3.1-.4.1-1,0-1.8.2-2.7.5-.9.3-1.7.6-2.7.5-1.9-.1-3.7-.1-5.4-.3-.5,0-.9-.3-1.4.1-.2.1-.7,0-.9,0-1.2-.8-2.6-.6-3.9-.9-1.5-.4-3-.3-4.4-1.1-.6-.3-1.4-.6-2.3-.2-.4.2-1.1-.3-1.6-.4-.5,0-1,0-1.4,0-.4-.1-.7-.5-1-.7-.1,0-.2-.1-.4-.1-2.4,0-4.2-1.7-6.3-2.6-2.1-.9-4.1-2.2-5.9-3.7-.5-.4-1-.9-1.3-1.4-.3-.6-.5-1.2-.4-1.9,0-.6.5-1,1.1-.9.4,0,.9.2,1.2.4.5.4,1.2.7,1.7,1,.6.3,1.2.5,1.8.8.6.3,1.2.5,1.7,1,.3.3.9.3,1,.9,0,0,.1.2.2.2,2,.1,3.5,1.4,5.3,1.9,1.5.5,3.2.3,4.7,1,1-.4,2,0,2.8.3,3,1.3,6.3,1.3,9.5,1.8,3.2.5,6.4.5,9-.3.5-.1.7-.6,1.4-.6.6,0,1.2-.5,1.7-.8.5-.3,1-.8,1.5-1,2.4-.9,4.1-3,6-4.6,1.9-1.7,3.8-3.5,5.3-5.5.5-.6.9-1.3,1.4-1.9.4-.7.9-1.3,1.4-1.9.5-.5.7-1.2,1.5-1.4.2,0,.3-.8.5-1.2.6-.9,1.3-1.7,1.9-2.6l1.3-1.8c.4-.6.8-1.2,1.2-1.9.5-.8.8-1.7,1.2-2.5.5-.8,1-1.6,1.5-2.4.7-1,1.5-1.9,2.2-2.9.7-1.1,1.1-2.3,1.9-3.3,1.6-1.7,2.4-3.8,3.5-5.8,1.1-2,2.2-3.9,3.1-6,.5-1.2,1.5-2,2.1-3.1.3-.5,1.9-.5,2.3,0,0,0,.1.2,0,.3-.1,1.3,0,2.6-.7,3.9-1,1.8-1.9,3.7-2.9,5.5Z"/>
  <path d="M125.1,362.6c-1.6-3.3-2.6-6.9-3.2-10.6-.1-.7-.1-1.4-.2-2.1,0-.7-.2-1.4-.5-2.1-.1-.4,0-.9,0-1.5.2-.6.3-1.2.4-1.9.2-3.5,1.1-6.9,2.3-10.1,1.2-3.1,2.6-6.2,4.5-9,1.9-2.8,4.6-5,6.9-7.3.5-.5,1.1-.9,1.6-1.3.6-.4,1.1-.7,1.7-1,1.2-.6,2.4-1.2,3.6-1.8,2.6-1.3,5.6-2.2,8.7-2,1.1,0,2.2.3,3.2.5,1,.3,2.1.6,3.3,1.3.7.4,1.5,1,2,1.8.6.8.8,1.8.9,2.7,0,1.8-.7,3.2-.7,4.6,0,.1-.3.7-.6.9-.6.6-1,1.3-1.5,1.9-.5.6-.9,1.3-1.3,1.8-.3.5-.7,1-1.1,1.4-.4.4-.9.7-1.3,1.1-2.6,1.8-5.5,2.9-8.6,3.3-1.1.2-2.3.1-3.4.1-1.1-.1-2.3-.2-3.4-.5-2.3-.4-4.9-1.1-6.6-2.6-1.7-1.4-3.2-2.8-4.6-4.4-.4-.5-.7-1-1.1-1.5-.3-.5-.8-.9-1.3-1.2,0,0-.3-.4-.4-.6-.5-1.7-1.2-3.2-1.9-4.7-.6-1.5-1.3-3.1-1.4-4.9-.3-3.5-.3-7.1.5-10.6.2-.9.7-1.8.5-2.8,0-.3.3-1.3.6-1.7,1.6-2.2,2.5-4.7,4.2-6.8,1.8-2.4,3.6-4.8,6.1-6.5,1.1-.7,2.4-1.7,3.2-3.1.4-.6,1.7-1.3,2.6-1.9.7-.5,1.3-1.2,2-1.7.7-.4,1.4-.6,2.1-.9.2,0,.5-.2.6-.3,1.7-1.3,3.8-2.2,5.9-2.8,2.1-.7,4.2-1.1,6.4-1.7,2.2-.5,4.4-.8,6.7-.9,2.3,0,4.6.2,6.8.7,2.5.6,4.9,1.7,5.9,3.4.4.8.2,1.2-.9,1.1-.7,0-1.6-.2-2.3-.4-.6-.2-1.2-.3-1.8-.4-.6,0-1.2-.2-1.8-.3-2.6-.3-5,.2-7.7,0-.8,0-1.7.4-2.5,0-.1,0-.4,0-.6,0-1.7.7-3.4,1.2-5.1,1.8-1.7.6-3.5,1.1-5.1,2-2.8,1.4-5,3.5-7.6,5.1-1,1.5-2.5,2.7-3.9,3.7-4.9,3.6-8,9.1-9.7,14.7-.9,2.8-1.1,5.8-.8,8.7.3,2.9,1.1,5.8,2.5,8.4.2.4.5.8.8,1.2.3.4.6.8.8,1.3.5,1,1.5,1.9,2.5,2.7.2.2.4.4.7.5.2.2.5.3.7.5.2.2.5.3.7.5.2.1.5.3.7.4,1.7,1.3,4,2,6.3,2.1,2.3,0,4.6-.4,6.7-1.1,2.1-.8,4.1-2,5.6-3.6.3-.4.7-.9,1-1.3.3-.5.6-.9.8-1.4.2-.5.4-1,.6-1.5.1-.5.2-1,.2-1.4,0-.5-.1-.9-.3-1.2-.2-.2-.4-.4-.9-.6-.4-.2-1-.3-1.7-.4-.6-.1-1.3-.2-1.9-.2-1.1,0-2.3.4-3.5,0-.4,0-1.3.6-2,.9-1.8.7-3.5,1.5-5.2,2.6-2.3,1.5-4.5,3.2-6.3,5.2-.6.6-1,1.3-1.5,2-.4.7-.9,1.4-1.3,2.1-.9,1.5-1.8,3-2.6,4.5-1,2-2,3.9-2.5,6.1-.6,2.2-.6,4.6-1,6.8-.3,2-.2,4.1.2,6.1.4,2,1,4,1.7,5.9.7,1.9,1.6,3.8,2.7,5.5,1.1,1.7,2.3,3.4,3.7,4.9,1.6,1.7,2.8,3.5,4.7,4.8.9.6,1.3,2.7.7,2.8-.1,0-.3,0-.5,0-2.3-.9-4.5-1.8-6.5-3.9-2.9-3-5.3-6.5-7.2-10.3Z" fill="#aaca60"/>
  <path d="M386.1,181.5c-.5.8-1.1,1.5-1.6,2.3-.2.3-.6.4-.4,1,.1.3-.6.2-.8.5-.4.7-1,1.4-1.5,2.1-.4.7-.7,1.5-1.2,2.3-.4.7-1.2,1.2-1.4,2.1-.2.7-.9,1-1.2,1.6-.3.6-.7,1.3-1.3,1.7-.4.3-.9.6-1.1,1.1-.1.3,0,.7-.3,1-.2.2-.6.4-.3,1,0,0-.1,0-.3.1-.5,0-.8.4-.7.8,0,.4-.1.6-.2.8-.4.6-.8,1.2-1.2,1.7-.3.4-.8.7-1.2,1.1-.4.4-.5,1.1-1,1.3-.1,0-.3.1-.4.2-.1,0-.3.3-.4.4-.3.3-.5.7-.8,1-.3.4-.7.5-.7,1.6,0,.1-.1.3-.2.3-.4,0-.7.4-1,1-.3.5-.6,1.3-1,1.9-.2-.2-.4-.5-.6-.9-.8-1.7-1.7-2.7-2.6-4.1-.2-.4-.3-.8-.9-.9-.3,0-.4-.3-.3-.4.2-.9-.5-1.2-.8-1.9-.3-.7-1-1.2-1-2.1,0-.4-.1-.8-.8-.8-.3,0-.3-.5-.5-.7-.2-.2-.5-.2-.6-.4-.1-.2,0-.4,0-.7,0,0,0-.1,0-.2-1.2-.6-1-2-1.7-2.8-.8-.8-1.3-1.8-1.8-2.8-.3-.5-.5-1.2.3-2.1.3-.4.8-.7,1.2-.7.3,0,.6.1.8.3.3.2.6.5.8.7.5.5,1.4.8,1.5,1.6,0,.2.4.3.1.7,0,0,0,.2,0,.2,1.2.4,1.3,1.5,1.9,2.3.5.7,1.5,1,1.7,1.9.8,0,1,.6,1.1,1.1.2.9.6,1.6,1,2.3l.7,1,.4.5c0,.1,0,0,0,.1,0,.2.2.4.3.6,0,0,.1-.2.2-.2,0,0-.1-.5,0-.2.2.2.1,0,.1-.1,0,0,0,0,0,0,0,0,0-.1.1-.2,0-.1.2-.3.3-.4,1.3-.7,1.8-2,2.6-3.1.8-1,1.7-2.1,2.3-3.3.4-.7.6-1.6,1.2-2.2.2-.3.2-.7.9-.7.2,0,0-.5.1-.7.3-.5.6-.9,1-1.4.4-.6.9-1.2,1.3-1.9.2-.4.3-.9.5-1.4.2-.4.5-.8.9-1.2.4-.5,1-.9,1.4-1.3.4-.5.6-1.2,1.2-1.6,1.1-.6,1.5-1.7,2.3-2.6.7-.9,1.4-1.8,2-2.8.3-.6,1.1-.8,1.4-1.3.2-.2,1.6.3,1.9.7,0,0,.1.2.1.2,0,.8.3,1.7-.2,2.2-.7.8-1.2,1.7-1.8,2.6Z"/>
  <g>
    <g>
      <g>
        <path d="M301.8,245.5c-1.2-1.3-2.4-2.6-3.7-3.9-.5-.5-.7-1.1-1.6-1.3-.4,0-.4-1-.8-1.4-1.2-1.2-2.3-2.5-3.4-3.6-1.1-1.1-2.4-2.2-3.6-3.3-1.1-1.1-2.1-2.5-3.3-3.5-1.1-.8-1.6-2-2.5-2.9-1-.9-2-1.7-2.7-2.6-.5-.7-1.1-1.3-1.9-1.5-.5-.1-1,0-1.5-.2-.5-.2-1-.6-1.6,0,0,0-.3-.1-.4-.2-.5-.5-1.3-.5-1.8-.3-.5.2-1,.2-1.4.2-1.3,0-2.7,0-4,0-1,0-2-.3-3-.3-1,0-2.1.3-3.1,0-1-.2-1.9-.2-2.9,0-.5,0-1.2-.2-1.6.5,0,0-.2,0-.3,0-1.6-.6-3,.7-4.6.7-1.6,0-3.2.5-4.8.9-.4,0-.9,0-1.2.6-.1.2-.5.3-.8.2-1.3-.3-2.5.4-3.7.6-1.4.3-2.6.9-4,1-.6,0-1.4.2-1.7,1-.2.4-.8.4-1.2.7-.3.2-.5.7-.7.9-.2.2-.6.2-.9.3,0,0-.2.1-.2.2-.4.8-1,1.4-1.5,2-.6.6-1.1,1.4-1.4,2.3-.5,1.8-.9,3.7-1.2,5.7-.1,1.1-.4,2.3-1.6,3-.5.3-1.1.3-1.4-.2-.2-.4-.4-.8-.5-1.2,0-.7-.2-1.4-.2-2.1,0-1.4-.4-2.9.3-4.4.2-.4,0-1.1.7-1.3,0,0,.2-.2.2-.3,0-2.2,1.5-4.1,3-5.7,1.2-1.4,2.4-3,4.2-3.6.6-1,1.8-1.4,2.8-1.6,1.7-.3,3.4-.7,4.9-1.2,1.6-.5,3.2-.9,4.8-1.3,3.3-.6,6.6-1.3,9.9-1.6.6,0,1-.5,1.7-.3.6.2,1.4,0,2.2-.1.7,0,1.4-.2,2-.1,2.6.5,5.3,0,7.9.2,2.6.1,5.3.2,8.1.8,1.7.3,3.6.9,5,2.2.6.5,1.4.8,1.5,1.7,0,.3.8.4,1.2.7.8.8,1.5,1.6,2.2,2.4,1,1.1,2,2.2,3.1,3.3.6.6,1.4,1.1,2.1,1.7.7.7,1.3,1.4,2,2.1.8.9,1.4,2,2.2,2.9.8,1,1.9,1.7,2.5,2.8,1.1,2,2.8,3.4,4.3,5.1,1.5,1.6,2.9,3.3,4.5,4.8.9.9,1.3,2,2.1,2.9.4.4-.2,2-.7,2.2-.1,0-.2,0-.3,0-1.2-.6-2.4-.9-3.3-1.9-1.3-1.5-2.7-3-4.1-4.5Z"/>
        <path d="M286.2,257.8c.4-.2.8-.4,1.2-.6.1,0,.4,0,.3-.5,0-.3.4.2.5.1.3-.2.8-.3,1.1-.6.3-.2.6-.6,1-.8.3-.2.8-.1,1.1-.6.2-.4.7,0,.9-.3.3-.3.6-.5,1-.4.3,0,.6.2.8,0,.1-.1.1-.5.3-.5.1,0,.4.1.3-.5,0,0,0,0,.2,0,.3.3.5.2.5,0,0-.3.1-.3.3-.4.3-.2.6-.3,1-.4.3,0,.6,0,.8,0,.3,0,.4-.4.8-.2.3.2.6,0,.8,0,.1,0,.4.2.3-.5,0,0,0,0,0,0,.7.6.6-.5,1.1-.5.5,0,.8-.2,1.2-.4.1,0,.3,0,.2-.4,0-.2,0-.2.2-.1.5.5.7,0,1,0,.4,0,.6-.4,1.1,0,.2.1.4.2.4-.4,0-.3.3,0,.4-.2,0,0,.1-.4.2-.4,0,0,.2.2.4.2,0,0,0,0,0,0,.3-.8,1.1,0,1.5-.4.5-.3,1-.4,1.6-.5.3,0,.6,0,1.1,1.1.2.5.4,1,.3,1.4,0,.3,0,.5-.1.6-.1.1-.3.3-.4.4-.3.3-.4.9-.8.7-.1,0-.2.3-.4-.2,0,0,0,0,0,0-.2.9-.8.5-1.2.7-.4.2-.5.9-1,.7,0,.7-.3.6-.6.5-1-.4-1.6.3-2.3.5-.8.2-1.5.5-2.3.8-.1,0-.1.4-.4.2-.2-.2-.3,0-.5.1-.1,0-.3.2-.5.1-.8-.4-1.3.2-1.9.4-.6.2-1.2.3-1.7.7-.3.2-.5.7-.9.7-.2,0-.2.4-.6,0-.1-.1,0,.3-.2.4-.2.2-.5.2-.7.3-.3.1-.7.3-1,.5-.2.1-.3.4-.5.6-.2.2-.4.3-.6.3-.3,0-.6,0-.9,0-.3,0-.5.5-.8.3-.7-.2-1.1.2-1.6.4-.5.2-1,.4-1.4.8-.2.2-.7-.1-1,0-.1,0-1-1.2-1.2-1.6,0,0,0-.2,0-.2,0-.5,0-1.3.3-1.4.5-.2.9-.5,1.4-.7Z"/>
      </g>
      <path d="M269.7,280.5c.7-.5,1.4-.9,2.1-1.3.3-.2.7,0,.7-.7,0-.3.6.1.8,0,.7-.4,1.4-.6,2.1-.9.3-.2.7-.4,1-.5.3-.2.7-.3,1-.5.7-.3,1.5-.1,2.2-.6.6-.4,1.2,0,1.8-.2.6-.2,1.3-.3,1.9-.1.5.2.9.4,1.4.3.3,0,.5-.4.9-.3.3,0,.6.3.9-.3,0,0,.1,0,.2.2.3.4.7.5.9.2.1-.3,0-.2,0-.2,0,0,0,0,0,0,0,0,.3.3.5.4,0,0,0,0,0,0,0,0-.2-.3,0,0,.4.2.3,0,.3,0,0,0,.3,0-.4-.3,0,0,0,0,0,0,.8-.1-.3,0-.3-.9,0-.7-.3-1.4-.5-2.1,0-.2,0-.4-.4-.5-.2,0-.2-.2-.2-.3.5-.7,0-1.1,0-1.7,0-.6-.5-1.2-.2-1.9.1-.3.1-.7-.5-.8-.3,0-.1-.4-.2-.6,0-.2-.4-.3-.5-.4,0-.1.1-.4.2-.5,0,0,0-.1,0-.1-.9-.7-.3-1.8-.7-2.6-.4-.8-.6-1.7-.8-2.6-.1-.5,0-1,.9-1.7.4-.3,1-.5,1.3-.4.3,0,.6.2.7.3.2.2.4.5.6.7.4.5,1.1.9,1,1.6,0,.2.3.3-.1.6,0,0,0,.1,0,.2,1,.6.7,1.5,1,2.3.2.7,1,1.2,1,1.9.7.2.7.7.7,1.1-.3,1.5.5,2.8.8,4.1.1.7.3,1.4.5,2.1l.8,2.9c.1.4.6.9.4,1.3-.2.4.2,1,.4,1.6.1.5.5,1.2.4,1.5,0,.2,0,.3,0,.5,0,.2,0,.4,0,.5-.8-.3-1.5-.4-2.1-.6-.7-.2-1.4-.3-2.1-.5-.5-.1-1-.3-1.5-.4-.2,0-.5-.1-.7-.1h-.6c-.5-.2-1-.1-1.5,0-.6,0-1.2.4-1.8.3-.3,0-.5.3-.8-.2,0-.2-.3.3-.5.3-.4,0-.8.1-1.3.2-.6,0-1.2.2-1.7.4-.3.1-.6.5-.9.6-.3.2-.7.3-1.1.3-.5,0-1,0-1.4.2-.5.2-.8.6-1.4.6-.5,0-.9.1-1.3.3-.4.2-.7.5-1.1.7-.8.4-1.5.9-2.1,1.6-.3.4-1,.3-1.4.7-.2.2-1.4-.7-1.7-1.1,0,0,0-.2,0-.2,0-.7,0-1.6.4-2,.8-.5,1.5-1.2,2.3-1.7Z"/>
      <path d="M279,318.5c.1-.6.3-1.2.3-1.8,0-.2.3-.4-.2-.7-.2-.2.4-.3.4-.5,0-.6.2-1.1.3-1.7,0-.6,0-1.1,0-1.7,0-.6.4-1.1.2-1.6-.2-.5.4-.8.3-1.3,0-.5,0-1,.3-1.4.2-.3.5-.6.5-.9,0-.2-.3-.5-.2-.7,0-.2.4-.4-.2-.7,0,0,0,0,.2-.1.4-.1.5-.4.2-.7-.2-.2-.2-.4-.1-.6,0-.5.1-.9.3-1.4.1-.3.4-.6.5-1,.1-.3,0-.8.3-1.1.4-.3.4-.6.5-.9,0-.2.4-.3-.2-.6,0,0,0,0,0-.1.9-.4,0-1.1.3-1.6.3-.5.3-1.1.4-1.7,0-.2.2-.3-.2-.5-.1,0-.1-.2,0-.3.7-.3.4-.8.6-1.2.2-.5,0-1,.6-1.4.2-.2.4-.4-.1-.8-.2-.2,0-.4,0-.5,0-.2-.3-.4-.2-.5,0-.1.3-.2.4-.3,0,0,0,0,0-.1-.5-.8.5-1.4.5-2.1,0-.4,0-.8.1-1.1,0-.4.2-.7.4-1.2.1-.3.3-.6.7-.8.3-.2.8-.2,1.3,0,.5.2.9.6,1,.9.1.2.2.4.3.5,0,.2,0,.3.1.5,0,.4.5,1,.1,1.4-.1.1.1.4-.4.4,0,0-.1,0,0,0,.6.8,0,1.3,0,2,0,.6.4,1.2,0,1.7.6.4.4.8.1,1-.9.9-.6,2.1-.9,3.2-.3,1.1-.4,2.2-.7,3.3,0,.2.3.4,0,.6-.3.2-.1.5-.2.7,0,.2,0,.5-.2.7-.8.7-.6,1.7-.8,2.5-.2.8-.5,1.7-.5,2.6,0,.5.2,1.1,0,1.6,0,.2.2.5-.4.6-.2,0,.2.3.2.5,0,.4-.1.7-.2,1.1,0,.5-.2,1-.3,1.5,0,.3.2.7.2,1,0,.3,0,.7-.2,1-.2.4-.4.8-.6,1.2-.1.4,0,.9-.3,1.3-.6.7-.5,1.4-.7,2.2-.2.7-.4,1.5-.4,2.2,0,.4-.6.7-.7,1.1,0,.2-1.5.2-2,0,0,0-.2,0-.2-.1-.4-.5-1-1-.9-1.4.2-.7.3-1.4.4-2Z"/>
      <path d="M269,244.7c0,.2-.1.4-.1.6,0,0-.3,0,.2.3.3,0-.4,0-.4,0,0,.2-.1.4,0,.5,0,.2.2.4.2.6,0,.2-.3.3,0,.5.2.2-.3.2-.2.4.1.2.2.3,0,.4-.2,0-.4.2-.3.3,0,0,.4.2.3.2,0,0-.3.1.3.2,0,0,0,0-.2,0-.4,0-.4.1-.1.2.3,0,.2.1.2.2,0,.2,0,.3,0,.4,0,.1-.3.2-.4.3,0,.1.2.3-.1.3-.3,0-.3.2-.3.3,0,0-.3.1.3.2,0,0,0,0,0,0-.8.1.2.4,0,.5-.2.2,0,.4,0,.5,0,0-.2,0,.3.1.2,0,.2,0,0,0-.6.1-.3.3-.4.4-.1.2.2.3-.3.5-.2,0-.3.2.3.2.3,0,0,.1,0,.2,0,0,.3,0,.3.1,0,0-.2,0-.3.1,0,0,0,0,0,0,.7.2-.2.5,0,.7.2.2.1.5,0,.7,0,.1-.2.3-1.3.5-.5,0-1.1.1-1.4.1-.2,0-.5,0-.5,0-.1,0-.2-.1-.3-.2-.2-.1-.8-.3-.5-.5,0,0-.2-.1.3-.2,0,0,.1,0,0,0-.8-.2-.3-.5-.4-.7,0-.2-.7-.4-.4-.6-.6,0-.5-.2-.3-.4.7-.4.2-.8.3-1.2,0-.4,0-.8,0-1.2,0,0-.3-.1,0-.2.3,0,0-.2,0-.3,0,0-.1-.2,0-.2.7-.3.3-.6.4-.9.1-.3.2-.6,0-.9,0-.2-.4-.4-.2-.6,0,0-.3-.2.3-.2.2,0-.3-.1-.3-.2,0-.1,0-.3,0-.4,0-.2.1-.4,0-.6,0-.1-.2-.3-.3-.4,0-.1,0-.2,0-.4.1-.1.3-.2.4-.4,0-.1-.1-.4.2-.4.6-.2.4-.5.5-.7.1-.2.2-.5.2-.8,0-.2.5-.2.5-.3,0,0,1.5.3,1.9.4,0,0,.2,0,.2,0,.4.3,1.1.6,1,.7-.1.2-.1.4-.2.6Z"/>
      <path d="M281.7,244.7c0,.2-.1.4-.1.6,0,0-.3,0,.2.3.3,0-.4,0-.4,0,0,.2-.1.4,0,.5,0,.2.2.4.2.6,0,.2-.3.3,0,.5.2.2-.3.2-.2.4.1.2.2.3,0,.4-.2,0-.4.2-.3.3,0,0,.4.2.3.2,0,0-.3.1.3.2,0,0,0,0-.2,0-.4,0-.4.1-.1.2.3,0,.2.1.2.2,0,.2,0,.3,0,.4,0,.1-.3.2-.4.3,0,.1.2.3-.1.3-.3,0-.3.2-.3.3,0,0-.3.1.3.2,0,0,0,0,0,0-.8.1.2.4,0,.5-.2.2,0,.4,0,.5,0,0-.2,0,.3.1.2,0,.2,0,0,0-.6.1-.3.3-.4.4-.1.2.2.3-.3.5-.2,0-.3.2.3.2.3,0,0,.1,0,.2,0,0,.3,0,.3.1,0,0-.2,0-.3.1,0,0,0,0,0,0,.7.2-.2.5,0,.7.2.2.1.5,0,.7,0,.1-.2.3-1.3.5-.5,0-1.1.1-1.4.1-.2,0-.5,0-.5,0-.1,0-.2-.1-.3-.2-.2-.1-.8-.3-.5-.5,0,0-.2-.1.3-.2,0,0,.1,0,0,0-.8-.2-.3-.5-.4-.7,0-.2-.7-.4-.4-.6-.6,0-.5-.2-.3-.4.7-.4.2-.8.3-1.2,0-.4,0-.8,0-1.2,0,0-.3-.1,0-.2.3,0,0-.2,0-.3,0,0-.1-.2,0-.2.7-.3.3-.6.4-.9.1-.3.2-.6,0-.9,0-.2-.4-.4-.2-.6,0,0-.3-.2.3-.2.2,0-.3-.1-.3-.2,0-.1,0-.3,0-.4,0-.2.1-.4,0-.6,0-.1-.2-.3-.3-.4,0-.1,0-.2,0-.4.1-.1.3-.2.4-.4,0-.1-.1-.4.2-.4.6-.2.4-.5.5-.7.1-.2.2-.5.2-.8,0-.2.5-.2.5-.3,0,0,1.5.3,1.9.4,0,0,.2,0,.2,0,.4.3,1.1.6,1,.7-.1.2-.1.4-.2.6Z"/>
    </g>
    <path d="M246.1,312.2c-.4-2.3-.4-4.8,0-7.1.1-.9.6-1.7.3-2.7-.1-.5.7-1.1.9-1.9.6-2,1.5-3.9,2.3-5.8.8-1.8,1.5-3.7,2.3-5.4.8-1.7,1.8-3.4,2.1-5.1.2-1.5,1.1-2.6,1.3-4.1.2-1.5.2-3,.5-4.5.2-1.1.3-2.2,0-3.2-.2-.7-.6-1.2-.7-1.9-.1-.7,0-1.5-.8-1.8,0,0,0-.3,0-.5.2-.8-.2-1.6-.7-2.1-.5-.4-.7-.9-1-1.4-.7-1.3-1.6-2.6-2.4-4-.6-1-1.1-2.2-1.8-3.2-.7-1.1-1.7-2.1-2.1-3.4-.4-1.2-1-2.3-1.5-3.4-.3-.7-.4-1.5-1.2-1.9,0,0-.2-.3-.2-.4,0-1.1-.3-2.1-.6-3.1-.3-1-.7-2.1-.6-3.2.2-2.2.4-4.5,1.1-6.6.2-.6.6-1.1.4-1.8,0-.2.2-.8.4-1.1,1.3-1.2,1.8-2.8,3-4.1,1.3-1.4,2.4-3,4.2-3.8.8-.3,1.7-.9,2.1-1.9.2-.5,1.1-.7,1.7-1.1.5-.3.8-.8,1.3-1.1.4-.2,1-.2,1.4-.3.1,0,.3,0,.4-.2,1.1-.9,2.4-1.3,3.7-1.6,1.3-.3,2.7-.5,4-.8,2.6-.7,5.6-.9,8.4-.4,1.6.3,3.2.9,3.7,2.4.2.6,0,1.1-.7,1.2-.5,0-1,.1-1.5,0-.7-.1-1.5-.1-2.2-.1-1.5,0-3,.6-4.6.5-.5,0-1,.4-1.5,0,0,0-.3,0-.4,0-1.9,1.2-4.2,1.3-6.3,2.1-1.7.7-3,2.1-4.7,2.8-.5,1.1-1.5,1.6-2.4,2.1-3.2,1.7-5,5-6.2,8.2-.7,1.6-1,3.4-1,5.1,0,1.7.2,3.4.8,5.1.2.6.7.9.7,1.7,0,.7.6,1.4,1,2.1.4.6.9,1.3,1.1,1.9,1,2.9,3.2,5.2,4.8,8,1.6,2.8,3,5.8,3.8,9,.6,1.9,1.1,3.9,1,6,0,.9.3,1.8-.4,2.6-.2.2.2,1.1.1,1.6-.1,1.4-.5,2.8-.9,4.1-.5,1.8-1.3,3.6-2,5.3-.4,1.1-.7,2.2-1.1,3.2-.5,1.1-1,2.1-1.5,3.1-.7,1.3-1.5,2.4-2.1,3.7-.6,1.3-.9,2.8-1.5,4-1.2,2.3-1.3,4.8-1.1,7.1.2,2.4.9,4.8,2.2,6.8.7,1.1,1.1,2.4,2,3.4.4.4,0,2.1-.5,2.3-.1,0-.3,0-.4,0-1.4-.7-2.9-1.3-3.9-2.9-1.4-2.3-2.5-4.8-3-7.4Z"/>
    <path d="M200.1,316c-.2-1.9.2-3.8.6-5.5.2-.7.7-1.2.4-2-.1-.4.7-.8,1-1.3.7-1.5,1.6-2.8,2.5-4.1.8-1.3,1.5-2.6,2.4-3.8.8-1.2,2-2.2,2.5-3.5.4-1.1,1.4-1.7,1.9-2.7.4-1.1.9-2.1,1.5-3,.4-.7.9-1.4.9-2.1,0-.5-.2-1-.1-1.5,0-.5.4-1-.3-1.4,0,0,0-.2.1-.4.4-.5.3-1.2,0-1.6-.3-.4-.3-.8-.4-1.2-.2-1.1-.4-2.3-.6-3.6-.1-.9,0-1.9-.1-2.9,0-1-.4-2.2-.1-3.2.1-.5.3-1,.3-1.5,0-.5.2-1,.2-1.5.1-.6.5-1.1.1-1.8,0,0,0-.3.1-.4.7-.7,1-1.4,1.3-2.2.3-.8.6-1.5,1.1-2.1,1.1-1.1,1.9-2.3,2.5-3.4.2-.3.5-.5.2-1,0-.2,0-.5.2-.6,1-.7.9-1.8,1.3-2.8.4-1.1.4-2.5,1.2-3.7.3-.5.6-1.2.2-2-.2-.4.2-.9.3-1.4,0-.4-.1-.8,0-1.2,0-.3.4-.6.6-.9,0,0,0-.2,0-.3-.2-2,1.2-3.6,1.4-5.5.2-1.9.7-3.7,1.1-5.6.2-1,.5-2,1.7-2.6.5-.3,1.1-.2,1.4.3.2.4.4.8.4,1.2,0,.6,0,1.3,0,1.9,0,1.3.3,2.6-.3,3.8-.2.4,0,.9-.5,1.1,0,0-.2.2-.1.3.4,1.9-.5,3.5-.9,5.2-.3,1.4,0,3-.7,4.4.4.9,0,1.8-.3,2.6-1.3,2.6-1.5,5.8-3.2,8.8-1.8,3-3.9,5.1-4.8,7.2-.1.4,0,.8-.3,1.2-.4.4-.3,1-.3,1.5,0,.5,0,1,0,1.5-.3,1-.2,2.1,0,3.3.2,1.1.5,2.2.6,3.4.3,2.3.6,4.8.6,7.4,0,1.6,0,3.2-.8,4.7-.3.6-.2,1.4-1.1,1.7-.2,0,0,.9-.3,1.2-.4,1-1,1.8-1.6,2.7-.8,1.2-1.6,2.3-2.4,3.4-.5.7-.8,1.5-1.2,2.2-.5.7-1,1.4-1.5,2-.7.8-1.4,1.5-2,2.4-.6.9-.9,1.9-1.6,2.7-1.2,1.4-1.5,3.3-1.6,4.9-.1,1.6.3,3.3,1.3,4.6.5.7.7,1.6,1.5,2.1.2.1.2.5.2,1,0,.5,0,1-.3,1.2,0,0-.2.1-.3.1-1.3,0-2.8-.3-3.8-1.5-1.4-1.8-2.2-3.9-2.4-6.1Z"/>
    <path d="M229,324.1c-.5,0-.9,0-1.4,0-.2,0-.3-.2-.5.3,0,.3-.2-.4-.4-.3-.4,0-.8,0-1.3,0-.4,0-.8.3-1.2.3-.4,0-.8-.2-1.2,0-.3.3-.6-.2-1-.1-.3.1-.7.2-1,0-.2-.2-.5-.4-.7-.3-.2,0-.3.4-.5.4-.2,0-.3-.3-.5.3,0,0,0,0-.1-.1-.2-.4-.4-.4-.5-.1-.1.3-.3.2-.4.3-.3,0-.7,0-1,0-.3,0-.5-.3-.8-.3-.3,0-.6.2-.8,0-.3-.3-.5-.3-.7-.3-.1,0-.3-.3-.4.3,0,0,0,0,0,0-.4-.8-.8.3-1.2,0-.4-.2-.8,0-1.3,0-.1,0-.2-.2-.3.3,0,.2-.2.2-.2,0-.3-.6-.6-.2-1-.4-.4-.1-.7.2-1.1-.3-.2-.2-.4-.3-.6.3,0,.3-.3,0-.4,0-.1,0-.2.3-.3.3,0,0-.2-.2-.3-.3,0,0,0,0,0,0-.5.7-1.1-.2-1.6,0-.5.2-1.1.1-1.6,0-.3,0-.6-.2-.8-1.4,0-.5,0-1.1,0-1.4,0-.2.2-.5.3-.5.2,0,.3-.2.5-.3.3-.2.7-.7,1-.4.1,0,.2-.2.3.3,0,0,0,.1,0,0,.5-.8,1-.3,1.5-.3.4,0,.8-.7,1.2-.4.2-.6.5-.5.7-.3.8.7,1.6.2,2.4.3.8,0,1.7,0,2.5,0,.1,0,.3-.4.4,0,.2.3.4,0,.5,0s.3-.1.5,0c.6.7,1.3.3,2,.3.6,0,1.3.1,1.9,0,.4,0,.8-.4,1.2-.3.2,0,.3-.3.5.3,0,.2.2-.3.3-.3.3,0,.5,0,.8,0s.8,0,1.1,0c.2,0,.5-.3.7-.3.2,0,.5,0,.7,0,.3,0,.6.3.9.3.3,0,.6-.2.9,0,.6.5,1.1.3,1.7.3.6,0,1.1.1,1.7,0,.3,0,.6.4.9.4.1,0,.3,1.5.3,2,0,0,0,.2,0,.2-.3.5-.6,1.2-.9,1.1-.5,0-1,0-1.5,0Z"/>
    <path d="M230.9,324.1c-.4-.4-.7-.8-1.1-1.2-.1-.2,0-.4-.6-.3-.3,0,.2-.4,0-.6-.3-.4-.4-.8-.6-1.2-.2-.4-.6-.7-.8-1.1-.2-.4,0-.9-.4-1.2-.4-.3,0-.7-.1-1-.2-.3-.3-.6-.2-1,.1-.3.3-.5.2-.8,0-.1-.4-.2-.4-.4,0-.2.2-.4-.4-.4,0,0,0,0,.1-.1.4-.2.3-.4,0-.5-.3-.1-.3-.2-.3-.3,0-.3-.1-.7,0-1,0-.3.3-.5.3-.8,0-.3-.2-.5,0-.8.3-.3.3-.5.3-.7,0-.1.3-.3-.4-.4,0,0,0,0,0,0,.8-.4-.3-.8,0-1.1.2-.4,0-.8,0-1.2,0-.1.2-.2-.3-.3-.2,0-.2-.2,0-.2.6-.3.3-.6.4-.9.1-.3-.1-.7.4-1,.2-.1.3-.3-.2-.5-.3,0,0-.2,0-.4,0-.1-.3-.2-.3-.3,0,0,.2-.2.4-.2,0,0,0,0,0,0-.6-.5.3-1,.2-1.5-.1-.5,0-1,.1-1.5,0-.3.3-.5,1.4-.6.5,0,1.1,0,1.4.2.2.1.4.2.5.3,0,.2.2.3.3.5.2.3.7.7.4,1,0,0,.2.2-.3.3,0,0-.1,0,0,0,.8.5.2.9.2,1.3,0,.4.6.8.3,1.1.6.2.5.5.3.7-.7.7-.3,1.4-.4,2.1-.1.7,0,1.5,0,2.2,0,.1.4.2,0,.4-.3.1,0,.3,0,.5,0,.1.1.3,0,.4-.6.6-.2,1.1-.2,1.7,0,.6,0,1.1.2,1.7.1.3.5.6.5.9,0,.2.3.2-.2.5-.2,0,.3.1.4.2,0,.2.1.4.2.7,0,.3.1.6.2.9,0,.2.4.3.5.4.1.2.2.3.2.5,0,.2-.1.5,0,.7,0,.2.4.3.2.6-.2.6.2.8.4,1.1.2.3.4.5.7.5.2,0,0,.5.3.6,0,0-.1,1.5-.2,2,0,0,0,.2-.1.2-.4.4-1,1-1.4.7-.6-.4-1.2-.7-1.6-1.2Z"/>
    <path d="M295.7,320.2c.2-.3.4-.6.5-1,0-.1.3-.1-.1-.5-.2-.2.4,0,.4-.1,0-.3.3-.6.3-.9,0-.3,0-.6,0-.9,0-.3.4-.5.1-.8-.2-.3.3-.4.2-.6,0-.3-.1-.5.1-.7.2-.1.4-.3.3-.5,0-.1-.4-.2-.3-.4,0-.1.3-.2-.3-.3,0,0,0,0,.1,0,.4-.1.4-.3.1-.4-.3-.1-.2-.2-.2-.3,0-.2,0-.5,0-.7,0-.2.3-.4.3-.6,0-.2-.3-.4,0-.6.3-.2.2-.4.2-.6,0-.1.3-.3-.4-.3,0,0,0,0,0,0,.8-.4-.4-.5-.2-.9.2-.3,0-.6-.2-.9,0,0,.1-.2-.3-.2-.2,0-.2,0,0-.1.6-.4.1-.5.2-.8,0-.3-.3-.5,0-.9.2-.2.2-.4-.4-.3-.3,0,0-.2-.2-.3,0,0-.4,0-.4-.1,0,0,.2-.2.3-.3,0,0,0,0,0,0-.8-.2,0-.9-.4-1.2-.3-.3-.4-.8-.5-1.2,0-.2,0-.5,1.1-1.1.5-.3,1-.5,1.3-.5.3,0,.5,0,.6,0,.2,0,.3.2.5.3.3.2.9.3.7.7,0,.1.3.1-.2.4,0,0,0,0,0,0,.9.1.5.7.7,1.1.2.3.9.5.7.9.7,0,.6.3.5.5-.4.9.2,1.4.3,2.2,0,.7.3,1.4.4,2.2,0,.1.4.2.1.4-.2.2,0,.3,0,.5,0,.1.2.3,0,.4-.6.6-.2,1.2-.2,1.8,0,.6-.1,1.2,0,1.8,0,.4.4.8.2,1.1,0,.1.2.4-.4.4-.2,0,.3.2.3.3,0,.3,0,.5-.1.8,0,.3-.2.7-.2,1,0,.2.2.5.1.7,0,.2,0,.5-.2.7-.2.2-.5.4-.6.7-.2.2,0,.6-.4.8-.7.2-.7.8-.9,1.2-.3.4-.5.8-.6,1.2,0,.1-.2.4-.8.7-.1,0-.3.2-.5.2-.2,0-.3,0-.7.1-.6,0-.9-.2-1.2-.5-.1-.1-.2-.4-.2-.7,0-.3.2-.6.5-.7.2-.1.5,0,.7,0,0,0,0,0,.1,0h0s0,0,0,0c0,0,.1,0,.1,0,0,0,0,0,0,0h0s0,0,0,0h0c0-.1,0-.1,0-.1,0,0,0,0,0,0,0,0-.2-.2-.6-.5l-.4-.2h-.2c0-.1,0-.1,0-.1,0,0,0,0,0,0h0c0-.2.1-.3.1-.4l.3-.6Z"/>
    <path d="M318.4,315.3c0-1.1,0-2.1,0-3.2,0-.4.1-.8-.5-1.2-.3-.2.3-.6.2-1-.3-1-.4-2-.9-2.9-.4-.9-1-1.7-1.5-2.5-.5-.8-.8-1.8-1.6-2.4-.7-.5-.8-1.4-1.4-2-.6-.6-1.3-1.3-1.6-2.2-.2-.6-.4-1.3-.9-1.8-.3-.3-.8-.5-1-.9-.2-.4-.2-1-.9-1.1,0,0,0-.2,0-.4.2-.6,0-1.2-.5-1.5-.4-.3-.5-.7-.6-1-.3-1-.5-2-.5-3,0-.7.1-1.5.1-2.1,0-.7-.3-1.5,0-2.1.3-.7.2-1.3.2-1.9,0-.4.2-.8-.4-1.1,0,0,0-.2,0-.2.8-1.1-.4-2-.2-3,.1-1.1-.1-2.1-.2-3.2,0-.3.1-.6-.4-.8-.2,0-.2-.4-.1-.5.5-.8,0-1.6,0-2.4,0-.9-.5-1.7-.3-2.7.1-.4,0-1-.6-1.2-.3-.1-.2-.6-.3-.9-.1-.2-.5-.4-.6-.6,0-.2,0-.5,0-.7,0,0,0-.1,0-.2-1.1-.9-.8-2.4-1.6-3.4-.8-1-1.5-2-2.3-3-.4-.5-.8-1.1-.4-2.3.2-.5.5-1,1-1,.3,0,.7,0,1,.2.4.3.8.5,1.2.8.8.6,1.8,1,2.2,2,0,.3.6.4.3.9,0,0,0,.2,0,.2,1.4.7,1.6,2.2,2.2,3.4.5,1,1.5,1.8,1.6,3,.8.4.9,1.2.9,1.8,0,2.3.7,4.4.8,6.6.2,2.2.4,4.4.5,6.5,0,.4.4.7.1,1.1-.2.4,0,.9,0,1.4,0,.4.2.9,0,1.3-.6,1.7,0,3.3.1,4.8.2,1.5.6,2.9,1.5,4.1.5.8,1.3,1.3,1.8,2.2.2.4.7.5.5,1.2,0,.2.5.2.7.5.5.5.9,1.1,1.3,1.7.6.8,1.2,1.7,1.8,2.5.4.5.9,1,1.3,1.5.4.6.7,1.2.9,1.9.3.8.4,1.7.5,2.6.2.9.7,1.7.5,2.6-.2,1.6.1,3.1,0,4.7,0,1.6-.3,3.1-.5,4.6,0,.4-.3.8-.5,1.2-.2.4-.4.7-.6,1.1-.1.4-1.7.4-2.1,0,0,0-.2-.2-.2-.2-.2-.9-.7-1.7-.5-2.5.3-1.2.5-2.4.5-3.6Z"/>
    <path d="M295.5,323.3c-.3,0-.5,0-.8,0-.1,0-.2-.3-.3.3,0,.3-.1-.4-.2-.4-.3,0-.5,0-.7,0-.2,0-.5.2-.7.3-.2,0-.5-.3-.7,0-.2.3-.4-.2-.6-.1-.2.1-.4.2-.6,0-.1-.2-.3-.4-.4-.3,0,0-.2.4-.3.4,0,0-.2-.3-.3.3,0,0,0,0,0-.1,0-.4-.2-.4-.3-.1,0,.3-.2.2-.2.2-.2,0-.4,0-.6,0-.2,0-.3-.3-.4-.4-.2,0-.3.2-.5,0-.1-.3-.3-.3-.4-.3,0,0-.2-.3-.2.3,0,0,0,0,0,0-.2-.8-.5.3-.7,0-.2-.2-.5,0-.7,0,0,0-.1-.2-.2.3,0,.2,0,.2-.1,0-.2-.6-.4-.2-.6-.3-.2-.1-.4.2-.7-.3,0-.2-.2-.3-.3.3,0,.3-.2,0-.2,0,0,0-.1.3-.2.3,0,0-.1-.2-.2-.3,0,0,0,0,0,0-.3.7-.6-.2-.9,0-.3.2-.6.1-1,0-.2,0-.4-.2-.6-1.3,0-.5-.1-1.1,0-1.4,0-.2,0-.5.1-.5,0-.1.2-.2.3-.3.2-.2.4-.8.6-.5,0,0,.1-.2.2.3,0,0,0,.1,0,0,.2-.8.6-.3.9-.4.2,0,.5-.7.7-.4.1-.6.3-.5.4-.3.5.7,1,.2,1.5.3.5,0,1,0,1.5,0,0,0,.2-.4.3,0,0,.3.2,0,.3,0,.1,0,.2-.1.3,0,.4.7.8.3,1.2.4.4,0,.8.2,1.2,0,.2,0,.5-.4.7-.3.1,0,.2-.3.3.3,0,.2.1-.3.2-.3.2,0,.3,0,.5,0,.2,0,.5,0,.7,0,.1,0,.3-.3.4-.3.2,0,.3,0,.4,0,.2,0,.4.3.5.4.2,0,.4-.2.6.1.3.5.7.3,1,.4.3,0,.7.2,1,0,.2,0,.3.5.5.5,0,0,0,1.5,0,2,0,0,0,.2,0,.2-.2.4-.5,1.1-.7,1.1-.3-.1-.6,0-.9-.1Z"/>
  </g>
</svg>