<?xml version="1.0" encoding="UTF-8"?>
<svg id="ARTWORK" xmlns="http://www.w3.org/2000/svg" width="600" height="600" viewBox="0 0 600 600">
  <g>
    <g>
      <g>
        <ellipse cx="368.9" cy="479.8" rx="9.9" ry="8.5" transform="translate(-235.9 504.8) rotate(-54.8)"/>
        <path d="M375.9,479.6c.1-.8.2-1.5,0-2.3,0-.3.1-.6-.5-.7-.3,0,.2-.5.1-.7-.3-.6-.6-1.2-1-1.7-.5-.4-1.1-.7-1.6-.9-.5-.2-1-.7-1.7-.5-.3,0-.5,0-.7,0-.2,0-.5-.2-.7-.1-.5.2-1,.3-1.6.3-.4,0-.9,0-1.2.2-.2.2-.3.6-.5.7-.2.1-.6,0-.4.7,0,0-.1,0-.2,0-.5-.2-.7.1-.7.5,0,.3-.1.5-.3.6-.2.2-.3.4-.5.7l-.5.7c-.3.3-.7.6-.9,1-.2.4-.1.9-.5,1.2-.4.3-.5.7-.5,1.2,0,.2-.3.5.3.7,0,0,0,.1,0,.1-.4.3-.3.7-.2,1,.2.3.4.6.4.9,0,.7.3,1.3.7,1.7,0,.1,0,.4.5.2.2,0,.3,0,.2.2-.2.7.5.8.8,1.1.4.4,1,.3,1.3,1,.2.2.5.5.9-.1.2-.3.4,0,.6,0,.2,0,.3-.3.5-.3.1,0,.3.2.4.3,0,0,.1,0,.1,0,.4-.4.7-.4,1.2-.5.4,0,.9,0,1.3-.3.7-.6,1.4-1,2.1-1.6.4-.3.8-.6,2-.2.5.2,1,.5,1.1.9,0,.3.1.6,0,.9-.2.4-.3.7-.5,1.1-.2.4-.4.8-.6,1.1-.3.3-.6.7-1,.8-.3,0-.4.5-.8.2,0,0-.2,0-.2,0-.6,1.3-2,1.3-3.2,1.6-1,.3-2,1-3.1.6-.7.6-1.4.3-2,0-1-.6-1.9-1.2-2.8-1.8-.9-.6-1.7-1.4-2.3-2.3-1.2-1.9-1.8-4-1.8-6.2,0-.4-.3-.7,0-1.1.3-.4.2-.9.3-1.3,0-.4,0-.9.3-1.2,1.1-1.3,1.4-2.8,2.5-4.1,1-1.2,2.2-2.2,3.4-3.2.7-.6,1.5-1.3,2.5-1.5.4,0,.8-.5,1.3,0,.1.1.4-.4.7-.4.7-.1,1.4-.1,2.1,0,1,0,2,.3,3,.6.6.2,1.3.2,1.8.6.3.1.6.3.9.5.3.2.5.4.7.7.3.3.5.7.7,1.1.2.4.4.7.6,1.1.4.7,1,1.5,1,2.3,0,1.5.3,2.8.2,4.2-.2,1.4-.5,2.7-.9,3.9-.1.4-.4.7-.6.9-.3.3-.5.5-.7.8-.2.3-1.6-.2-2-.6,0,0-.1-.2-.1-.2,0-.4-.1-.8-.2-1.1,0-.4,0-.7,0-.9.4-.8.6-1.7.8-2.5Z"/>
      </g>
      <path d="M369.4,482.9c-.3,0-.5,0-.8-.1-.1,0,0-.3-.4.2-.2.2,0-.4,0-.4-.2,0-.4-.2-.6-.3-.2,0-.5,0-.7-.2-.2-.2-.1-.5-.5-.6-.4,0,0-.5-.2-.6-.2-.1-.3-.4-.1-.6.1-.2.4-.3.2-.4,0,0-.4-.1-.4-.2,0,0,.3-.2-.3-.3,0,0,0,0,.2,0,.4,0,.4-.1.1-.3-.3-.1-.2-.2-.2-.2,0-.2,0-.4.1-.5,0-.1.4-.1.5-.2.1,0-.1-.3.2-.3.3,0,.4,0,.4-.1,0,0,.3,0-.2-.3,0,0,0,0,0,0,.8.3,0-.4.3-.5.3,0,.3-.2.4-.4,0,0,.2,0-.1-.3-.1-.1,0-.2,0-.1.5.4.3,0,.5,0,.2,0,.1-.3.5,0,.2.1.3.2,0-.3-.1-.2,0,0,0-.1,0,0-.1-.3,0-.3,0,0,.2.2.3.2,0,0,0,0,0,0-.2-.7.4,0,.4-.2,0-.2.2-.2.4-.2,0,0,.2.1.8,1.1.3.4.5.9.7,1.2,0,.2.2.4.2.5,0,.1,0,.2,0,.3,0,.2.2.7,0,.5,0,0,0,.2-.2-.2,0,0,0,0,0,0,.3.7,0,.3,0,.4,0,0,.3.6,0,.4.3.5.3.5.1.3-.5-.5-.3,0-.4,0-.1,0,0,0-.1,0,0,0,.3.2,0,0-.2-.1,0,0,0,0,0,0,.1,0,0,0-.6-.3-.3,0-.3,0,0,0,0,0,0,0,0,0,0,0,0,0,0,0-.1,0-.2,0,0,0,0,0,0,0,0,0,0,0,0,0,0,0,0,0,0,0h0s-.3.1-.3.1h0s0,0,0,0c0,0,0,0,.1,0,0,0,0,0,0,0h0s0,0,0,0c0,0,0,0,0,0,0,0,0,.1,0,.2,0,0,0,.2,0,.2,0,0,0,0,0,0h0s0,0,0,0c0,0,0,.2.2.2.2.4.5.8.6,1,0,0,0,.2.1.2.1.5.3,1.2,0,1.2-.4,0-.7.1-1,.1Z" fill="#00b4e9"/>
    </g>
    <path d="M376.1,414.9c-.8,0-1.7,0-2.5,0-.3,0-.6-.2-1,.3-.2.3-.5-.4-.7-.3-.8,0-1.6,0-2.3,0-.8,0-1.5.3-2.3.3-.8,0-1.5-.2-2.2,0-.6.3-1.2-.2-1.8-.1-.6.1-1.3.2-1.9,0-.5-.2-.9-.4-1.4-.3-.3,0-.5.4-.9.4-.3,0-.6-.3-.9.3,0,0-.1,0-.2-.1-.3-.4-.7-.4-.9-.1-.3.3-.5.2-.7.3-.6,0-1.3,0-1.9,0-.5,0-1-.3-1.4-.3-.5,0-1,.2-1.5,0-.5-.3-.9-.3-1.4-.3-.3,0-.6-.3-.8.3,0,0-.1,0-.2,0-.7-.8-1.5.3-2.2,0-.8-.2-1.6,0-2.3,0-.2,0-.4-.2-.6.3,0,.2-.3.2-.4,0-.6-.6-1.2-.2-1.8-.4-.7-.1-1.3.2-2-.3-.3-.2-.7-.3-1,.3-.2.3-.5,0-.7,0-.2,0-.4.3-.6.3-.2,0-.3-.2-.5-.3,0,0-.1,0-.2,0-1,.7-2-.2-3,0-1,.2-2,.1-3,0-.6,0-1.1-.2-1.5-1.4-.2-.5-.2-1.1,0-1.4.2-.2.4-.5.6-.5.3,0,.6-.2.9-.3.6-.2,1.3-.7,1.9-.4.2,0,.4-.2.6.3,0,0,.1.1.1,0,.9-.8,1.8-.3,2.7-.3.8,0,1.5-.7,2.3-.4.4-.6.9-.5,1.3-.3,1.5.7,3,.2,4.5.3,1.5,0,3.1,0,4.6,0,.3,0,.5-.4.8,0,.3.3.7,0,1,0s.6-.1.9,0c1.2.7,2.4.3,3.6.3,1.2,0,2.4.1,3.6,0,.7,0,1.5-.4,2.2-.3.3,0,.6-.3,1,.3,0,.2.4-.3.6-.3.5,0,1,0,1.5,0s1.4,0,2.1,0c.4,0,.8-.3,1.3-.3.4,0,.9,0,1.3,0,.6,0,1.1.3,1.7.3.6,0,1.2-.2,1.7,0,1,.5,2.1.3,3.1.3,1,0,2.1.1,3.1,0,.6,0,1.1.4,1.7.4.3,0,.6,1.5.5,2,0,0,0,.2-.1.2-.6.5-1.1,1.2-1.7,1.1-.9,0-1.9,0-2.8,0Z"/>
    <path d="M382.4,400c.9-2.2,1.8-4.3,2.6-6.5.3-.8.9-1.5.7-2.6,0-.5.8-1.1,1-1.8.7-2,1.5-4,2-6.1.6-2,.9-4,1.3-6,.2-1,.4-2,.7-3,.2-1,.3-2,.3-3,0-.8,0-1.6.3-2.4,0-.4.2-.8.2-1.2,0-.4,0-.8,0-1.2,0-1.7-.1-3.4,0-5.1,0-1.2.3-2.5,0-3.7-.2-.8-.5-1.4-.6-2.2,0-.8,0-1.7-.7-2.2,0,0,0-.4,0-.6.2-.9,0-1.9-.4-2.5-.4-.6-.5-1.2-.7-1.8-.5-1.7-1-3.3-1.4-5-.3-1.2-.6-2.5-1-3.8-.4-1.3-1.2-2.5-1.5-3.8-.2-1.3-.7-2.4-1.3-3.5-.3-.6-.4-1.5-1.2-1.7,0,0-.2-.3-.2-.4-.2-2.2-2.1-3.4-2.9-5.3-.9-1.9-2.1-3.7-3.3-5.5-.3-.5-.5-1.1-1.2-1.3-.2,0-.6-.6-.6-.9-.3-1.7-1.6-2.8-2.4-4.2-1-1.6-2.3-2.9-3-4.7-.3-.8-.9-1.7-1.9-2.1-.5-.2-.8-1-1.3-1.5-.4-.4-.9-.6-1.3-1.1-.3-.3-.4-.9-.7-1.3,0-.1-.2-.3-.3-.3-2.3-1.6-3.4-4.1-5.5-5.9-2-1.8-4-3.7-6.1-5.5-1.1-1-2.2-2.1-2.4-3.6,0-.7.3-1.1,1-1,.5,0,1.1.3,1.6.5.8.5,1.5.9,2.3,1.4.8.5,1.6.9,2.3,1.5.8.5,1.5,1.1,2.1,1.8.4.5,1.1.7,1.1,1.4,0,0,.1.3.2.3,2.3,1.2,3.8,3.4,5.5,5.3,1.5,1.6,3.3,2.8,4.5,4.6,1.2.6,2,1.7,2.6,2.8,2,3.8,4.8,7.1,7,10.7,2.2,3.7,4.6,7.4,6.5,11.3.3.7.9,1.1,1.1,2,.1.8.7,1.7,1.1,2.6.4.8.8,1.6,1,2.4.7,3.4,2.2,6.5,3.1,9.8.9,3.3,1.6,6.6,2.2,10,.4,2,1,4.1.9,6.2,0,.9.4,1.8-.2,2.7-.2.3.3,1.1.3,1.7,0,1.5,0,2.9-.2,4.3,0,1-.2,2-.4,3-.2,1-.3,2-.5,3-.2,1.2-.2,2.4-.4,3.6-.1.6-.3,1.3-.4,1.9-.2.6-.4,1.2-.6,1.8-.5,1.5-1.2,3-1.8,4.5-.6,1.5-.9,3.3-1.7,4.6-1.5,2.6-2.3,5.3-3.5,8-1.1,2.6-2.2,5.3-3.1,8-.5,1.5-1.5,2.7-2,4.2-.2.7-2,1.2-2.3.7,0,0-.1-.2-.1-.4,0-1.6-.1-3.2.5-4.9,1-2.5,1.9-4.9,2.9-7.4Z"/>
    <g>
      <path d="M397,476.7c1.9,0,3.2-2,2.5-3.7s0,0,0,0c-3.9-9.1-12.3-16-21.9-18.2,3.6-13.2,8-26.1,13.1-38.7.5-1.1.6-2.4.3-3.5-1-3.9-6-3.5-9.5-2.6-15.9-.5-31.9-.7-47.8-1.4-1.9,0-8.7-2-9.5.8-1.2,4-3.4,7.6-4.2,11.7-3.5,16.7-12.7,32.1-15.8,48.8,2.5,3,3.3,4,5.7,6.9h87.1Z" fill="#00b4e9"/>
      <path d="M369,478.6c-5,0-10,0-15,0-1.9,0-3.8-.2-5.7.3-1,.3-2.8-.4-4.5-.3-4.7,0-9.3,0-14,0-4.5.1-9.1.2-13.6.3-1,0-2.1,0-3.1,0-1.4,0-2.8,0-4.2,0-.6-.7-1.2-1.5-1.8-2.2-.4-.5-.8-.9-1.2-1.4-.8-.9-1.6-1.8-2.4-2.6l-.2-.3h-.1c0-.1-.2-.4-.2-.4-.3-.3-.6-.7-.9-1l-.4-.5h-.1c0-.1,0-.3,0-.3v-.3c.2-.4.2-.8.3-1.3l.2-1,.2-.7c.1-.4.2-.9.3-1.3.3-.9.5-1.7.8-2.6.3-.9.5-1.7.8-2.6,1-3.8,2.3-7.6,3.8-11,1.1-2.5,2.3-4.9,3.2-7.5.5-1.6.8-3.2,1.5-4.9.6-1.6,1.5-3.3,1.4-4.9,0-.1.3-.8.5-1.1,1-1.6,1.6-3.7,1.7-5.2.1-1.5.5-2.7.8-4l.3-1.4c.1-.5.2-1.1.4-1.6.3-1,.6-2,1-3,.7-1.9,1.5-3.6,2.2-5.3l.4-.9.2-.5.2-.7v-.4c.1,0,.2,0,.2,0,0,0,0,0,0,0v-.2c.2-.2.3-.5.5-.7.3-.4.7-.7,1.1-1,.4-.3.9-.4,1.4-.6.2,0,.5-.1.7-.1.2,0,.4,0,.6,0,1.4-.1,2.6,0,3.8.2,1.6.2,3.2.5,4.4.5,1.5,0,3,.1,4.4.3,2.8.4,5.4.5,8.1.6,1.5,0,3.3.4,4.6-.2.1,0,.7,0,1,0,4.4,1,8.7,0,13.2.3,4.6.3,9.3.3,14,.4.5,0,1.1,0,1.7,0,0,0,0,0,0,0l.5-.2c.3-.1.6-.3.9-.4.4-.3,1.9-.5,2.7-.4,1.1.1,2.2.3,3.3.7,1.2.4,2.4,1.1,3.3,2.3.9,1.1,1.3,2.4,1.4,3.7,0,1.3-.2,2.5-.7,3.6-1.6,3.7-2.8,7.5-4.7,11.1-.8,1.5-1.7,3.7-1.8,5.8,0,1-.9,2.7-1.3,4.2-.3,1.2-.4,2.4-.8,3.5-.3,1-.8,1.9-1.2,2.8-.1.3-.2.6-.3.9-.3,1.5-.6,2.9-1,4.3l-.6,2.1-.3,1c0,.1,0,.1,0,.1h0s0,0,0,0h0c0,.1,0,.2,0,.2,0,0,0,0,0,0,0,0,0,0,.1,0h0s0,0,0,0c0,0,0,0,0,0h.1c1.5.6,2.9,1.2,4.4,1.9,5.8,2.7,10.8,7.2,14.1,12.8.5.7.8,1.6,1.2,2.4.2.4.3.8.5,1.2l.2.6c0,0,0,.3.1.4,0,.2,0,.3.1.5.2,1.4-.3,2.6-1.1,3.4-.8.8-1.8,1.1-2.5,1-.7,0-1-.4-.9-.6,0-.3.4-.4.9-.8.7-.6.9-1.5.8-2.1,0-.1,0-.3-.1-.4,0-.2-.2-.4-.3-.6-.2-.4-.4-.8-.7-1.2-.5-.8-.9-1.5-1.5-2.2-2.1-3-5-5.3-7.7-7.7-.4-.4-1-.7-1.5-1-.5-.3-1-.7-1.3-1.1,0-.1-.5-.4-.7-.5-.6-.2-1.2-.4-1.8-.6-.6-.2-1.2-.4-1.8-.6-.6-.2-1.2-.4-1.8-.6-1.1-.4-2.2-.6-3.3-.9l-.8-.2s0,0,0,0h0c0-.1,0-.3,0-.3v-.4c.1,0,.6-1.7.6-1.7l.5-1.7.3-1.1c.4-1.3.8-2.6,1.2-3.9,1.3-4.4,2-8.8,3.8-13.2.2-2.6,1.3-5.4,2.4-7.8.9-2.1,1.8-4.2,2.7-6.3l1.3-3.2.6-1.5c.1-.4.2-.7.3-1.1,0-.3,0-.7,0-1v-.4c-.2,0-.3-.2-.3-.3-.1-.2-.3-.3-.6-.5-.3-.1-.6-.2-1-.3-.8-.1-1.7-.1-2.7,0-.5,0-1,.2-1.5.3-.3,0-.4,0-1,.2-.2,0-.5,0-.8,0h-.5c-9.1-.4-18.3-.4-27.5-.7-1.6,0-2.9.3-4.7,0-1.7-.3-3.9-.2-5.9-.3-1.8,0-3.8,0-5.5-.3-1.2-.2-2.3-.3-3.5-.4-.8,0-1.3-.2-1.9-.3-.6-.1-1.1-.2-1.7-.3-1.1-.2-2.2-.3-3.1-.2-.2,0-.5,0-.6,0,0,0-.2,0-.3,0-.2,0-.3.3-.3.4v.3c-.1,0-.3.5-.3.5l-.3,1c-.2.6-.5,1.3-.7,1.9l-1.5,3.5c-.3.8-.6,1.6-.9,2.4-.3.8-.4,1.5-.6,2.5-.4,1.8-.9,3.6-1.4,5.3-1,3.5-2.2,6.9-3.4,10.3-1.4,4.2-2.7,8.3-4.4,12.4-.7,1.7-1.1,3.7-2.2,5.2-.3.4-.5,2.2-.8,3.3-.9,2.8-1.7,5.6-2.4,8.5l-.4,1.9,1.2,1.5,1.9,2.3,1,1.2.2.2h0c0,0,0,0,0,0h0s0,0,.2,0h.9s1.9-.1,1.9-.1c1.3,0,2.5-.2,3.8-.2,2.7,0,5.3,0,8,0,3.4,0,6.7.3,10.1.3,3.5,0,7.1-.2,10.5,0,6.2.5,12.4.3,18.6.3,6.2,0,12.4.1,18.5,0,3.5,0,6.7.4,10.1.4,1.6,0,3.7,1.5,3.1,2-.1,0-.4.2-.6.2-3.3.5-6.4,1.2-10.3,1.1-5.7,0-11.3,0-17,0Z" fill="#00b4e9"/>
    </g>
    <path d="M363.5,473.5c-.8-.9-1.5-1.7-2.3-2.6-.3-.3-.4-.8-1.1-.8-.4,0-.1-.7-.4-1-.7-.8-1.3-1.7-2-2.5-.7-.8-1.5-1.5-2.1-2.3-.6-.8-1-1.9-1.8-2.4-.6-.4-.6-1.1-1.1-1.4-.4-.2-.8-.3-1.4-.6-.4-.3-.9-.5-1.5-.5-.4,0-.8.3-1.2.3-.4,0-.8-.4-1.2.2,0,0-.2,0-.3-.2-.4-.4-.9-.4-1.2-.2-.3.3-.6.2-.9.2-.8,0-1.7,0-2.5-.1-.6,0-1.3-.3-1.9-.4-.7,0-1.4.2-2-.1-.6-.3-1.2-.3-1.8-.3-.3,0-.7-.3-1,.3,0,0-.2,0-.2,0-1-.9-2,.2-3,0-1-.2-2.1,0-3.1,0-.3,0-.6-.2-.8.3,0,.2-.4.2-.5,0-.8-.6-1.6-.3-2.4-.4-.9-.1-1.8.2-2.7-.3-.4-.2-.9-.3-1.4.3-.2.3-.7,0-1,0-.3,0-.5.3-.8.3-.2,0-.5-.2-.7-.3,0,0-.2,0-.2,0-1.3.7-2.6-.2-4,0-1.3.2-2.7.1-4,0-.7,0-1.5-.2-2-1.4-.2-.5-.2-1.1,0-1.4.2-.2.5-.5.8-.5.4-.1.8-.2,1.3-.3.9-.2,1.7-.7,2.6-.5.3,0,.6-.2.8.3,0,0,.1.1.2,0,1.2-.8,2.4-.3,3.6-.4,1,0,2-.7,3.1-.4.6-.6,1.2-.5,1.8-.3,2,.7,4.1.2,6.1.4,2.1.1,4.1,0,6.2.2.4,0,.7-.3,1.1,0,.4.3.9,0,1.3,0,.4,0,.9-.1,1.2,0,1.6.7,3.2.4,4.9.5,1.6.1,3.3.3,4.9.3,1,0,2-.3,3.2,0,.5.1,1.2,0,1.5.7,0,.2.7,0,1.1.2.9.4,1.6,1.1,2.1,1.8.8.9,1.3,1.8,1.8,2.5.3.4.9.7,1.2,1.2.4.4.7.9,1,1.4.4.6.7,1.3,1.1,2,.4.6,1.1,1.1,1.4,1.8.5,1.4,1.6,2.3,2.4,3.3.9,1.1,1.8,2.1,2.8,3,.6.5.7,1.4,1.3,1.9.3.2-.4,1.6-.9,1.9,0,0-.2,0-.3,0-.9-.2-1.9-.2-2.5-.8-.9-1-1.8-1.9-2.7-2.8Z" fill="#fff"/>
    <g>
      <g>
        <ellipse cx="317.7" cy="479.8" rx="9.9" ry="8.5" transform="translate(-257.6 462.9) rotate(-54.8)"/>
        <path d="M324.7,479.6c.1-.8.2-1.5,0-2.3,0-.3.1-.6-.5-.7-.3,0,.2-.5.1-.7-.3-.6-.6-1.2-1-1.7-.5-.4-1.1-.7-1.6-.9-.5-.2-1-.7-1.7-.5-.3,0-.5,0-.7,0-.2,0-.5-.2-.7-.1-.5.2-1,.3-1.6.3-.4,0-.9,0-1.2.2-.2.2-.3.6-.5.7-.2.1-.6,0-.4.7,0,0-.1,0-.2,0-.5-.2-.7.1-.7.5,0,.3-.1.5-.3.6-.2.2-.3.4-.5.7l-.5.7c-.3.3-.7.6-.9,1-.2.4-.1.9-.5,1.2-.4.3-.5.7-.5,1.2,0,.2-.3.5.3.7,0,0,0,.1,0,.1-.4.3-.3.7-.2,1,.2.3.4.6.4.9,0,.7.3,1.3.7,1.7,0,.1,0,.4.5.2.2,0,.3,0,.2.2-.2.7.5.8.8,1.1.4.4,1,.3,1.3,1,.2.2.5.5.9-.1.2-.3.4,0,.6,0,.2,0,.3-.3.5-.3.1,0,.3.2.4.3,0,0,.1,0,.1,0,.4-.4.7-.4,1.2-.5.4,0,.9,0,1.3-.3.7-.6,1.4-1,2.1-1.6.4-.3.8-.6,2-.2.5.2,1,.5,1.1.9,0,.3.1.6,0,.9-.2.4-.3.7-.5,1.1-.2.4-.4.8-.6,1.1-.3.3-.6.7-1,.8-.3,0-.4.5-.8.2,0,0-.2,0-.2,0-.6,1.3-2,1.3-3.2,1.6-1,.3-2,1-3.1.6-.7.6-1.4.3-2,0-1-.6-1.9-1.2-2.8-1.8-.9-.6-1.7-1.4-2.3-2.3-1.2-1.9-1.8-4-1.8-6.2,0-.4-.3-.7,0-1.1.3-.4.2-.9.3-1.3,0-.4,0-.9.3-1.2,1.1-1.3,1.4-2.8,2.5-4.1,1-1.2,2.2-2.2,3.4-3.2.7-.6,1.5-1.3,2.5-1.5.4,0,.8-.5,1.3,0,.1.1.4-.4.7-.4.7-.1,1.4-.1,2.1,0,1,0,2,.3,3,.6.6.2,1.3.2,1.8.6.3.1.6.3.9.5.3.2.5.4.7.7.3.3.5.7.7,1.1.2.4.4.7.6,1.1.4.7,1,1.5,1,2.3,0,1.5.3,2.8.2,4.2-.2,1.4-.5,2.7-.9,3.9-.1.4-.4.7-.6.9-.3.3-.5.5-.7.8-.2.3-1.6-.2-2-.6,0,0-.1-.2-.1-.2,0-.4-.1-.8-.2-1.1,0-.4,0-.7,0-.9.4-.8.6-1.7.8-2.5Z"/>
      </g>
      <path d="M318.2,482.9c-.3,0-.5,0-.8-.1-.1,0,0-.3-.4.2-.2.2,0-.4,0-.4-.2,0-.4-.2-.6-.3-.2,0-.5,0-.7-.2-.2-.2-.1-.5-.5-.6-.4,0,0-.5-.2-.6-.2-.1-.3-.4-.1-.6.1-.2.4-.3.2-.4,0,0-.4-.1-.4-.2,0,0,.3-.2-.3-.3,0,0,0,0,.2,0,.4,0,.4-.1.1-.3-.3-.1-.2-.2-.2-.2,0-.2,0-.4.1-.5,0-.1.4-.1.5-.2.1,0-.1-.3.2-.3.3,0,.4,0,.4-.1,0,0,.3,0-.2-.3,0,0,0,0,0,0,.8.3,0-.4.3-.5.3,0,.3-.2.4-.4,0,0,.2,0-.1-.3-.1-.1,0-.2,0-.1.5.4.3,0,.5,0,.2,0,.1-.3.5,0,.2.1.3.2,0-.3-.1-.2,0,0,0-.1,0,0-.1-.3,0-.3,0,0,.2.2.3.2,0,0,0,0,0,0-.2-.7.4,0,.4-.2,0-.2.2-.2.4-.2,0,0,.2.1.8,1.1.3.4.5.9.7,1.2,0,.2.2.4.2.5,0,.1,0,.2,0,.3,0,.2.2.7,0,.5,0,0,0,.2-.2-.2,0,0,0,0,0,0,.3.7,0,.3,0,.4,0,0,.3.6,0,.4.3.5.3.5.1.3-.5-.5-.3,0-.4,0-.1,0,0,0-.1,0,0,0,.3.2,0,0-.2-.1,0,0,0,0,0,0,.1,0,0,0-.6-.3-.3,0-.3,0,0,0,0,0,0,0,0,0,0,0,0,0,0,0-.1,0-.2,0,0,0,0,0,0,0,0,0,0,0,0,0,0,0,0,0,0,0h0s-.3.1-.3.1h0s0,0,0,0c0,0,0,0,.1,0,0,0,0,0,0,0h0s0,0,0,0c0,0,0,0,0,0,0,0,0,.1,0,.2,0,0,0,.2,0,.2,0,0,0,0,0,0h0s0,0,0,0c0,0,0,.2.2.2.2.4.5.8.6,1,0,0,0,.2.1.2.1.5.3,1.2,0,1.2-.4,0-.7.1-1,.1Z" fill="#00b4e9"/>
    </g>
    <path d="M382.5,407.2c-1,0-2,0-3,0-.4,0-.7-.2-1.1.3-.2.3-.5-.4-.9-.3-.9,0-1.9,0-2.8,0-.9,0-1.8.3-2.7.3-.9,0-1.8-.2-2.7,0-.7.3-1.4-.2-2.1-.1-.8.1-1.5.2-2.3,0-.5-.2-1.1-.4-1.6-.3-.3,0-.6.4-1,.4-.3,0-.7-.3-1,.3,0,0-.2,0-.3-.1-.4-.4-.8-.4-1.1-.1-.3.3-.6.2-.8.3-.8,0-1.5,0-2.3,0-.6,0-1.1-.3-1.7-.3-.6,0-1.2.2-1.8,0-.6-.3-1.1-.3-1.6-.3-.3,0-.7-.3-.9.3,0,0-.1,0-.2,0-.9-.8-1.7.3-2.6,0-.9-.2-1.8,0-2.8,0-.2,0-.5-.2-.7.3,0,.2-.3.2-.5,0-.7-.6-1.4-.2-2.1-.4-.8-.1-1.6.2-2.4-.3-.3-.2-.8-.3-1.2.3-.2.3-.6,0-.9,0-.2,0-.5.3-.7.3-.2,0-.4-.2-.6-.3,0,0-.1,0-.2,0-1.2.7-2.3-.2-3.5,0-1.2.2-2.4.1-3.6,0-.7,0-1.3-.2-1.8-1.4-.2-.5-.2-1.1,0-1.4.2-.2.4-.5.7-.5.4,0,.7-.2,1.1-.3.8-.2,1.5-.7,2.3-.4.2,0,.5-.2.7.3,0,0,.1.1.2,0,1-.8,2.1-.3,3.2-.3.9,0,1.8-.7,2.7-.4.5-.6,1.1-.5,1.6-.3,1.8.7,3.6.2,5.4.3,1.8,0,3.6,0,5.5,0,.3,0,.6-.4.9,0,.3.3.8,0,1.2,0s.7-.1,1.1,0c1.4.7,2.9.3,4.3.3,1.4,0,2.8.1,4.3,0,.9,0,1.7-.4,2.6-.3.4,0,.8-.3,1.1.3.1.2.5-.3.7-.3.6,0,1.2,0,1.8,0s1.7,0,2.5,0c.5,0,1-.3,1.5-.3.5,0,1.1,0,1.6,0,.7,0,1.3.3,2,.3.7,0,1.4-.2,2.1,0,1.2.5,2.5.3,3.7.3,1.2,0,2.4.1,3.7,0,.7,0,1.3.4,2,.4.3,0,.7,1.5.6,2,0,0,0,.2-.1.2-.7.5-1.3,1.2-2,1.1-1.1,0-2.2,0-3.4,0Z"/>
    <path d="M382.4,434.5c-.3,0-.7,0-1,0-.1,0-.2-.3-.4.3,0,.3-.2-.4-.3-.4-.3,0-.6,0-.9,0-.3,0-.6.2-.9.3-.3,0-.6-.3-.9,0-.3.3-.5-.3-.7-.1-.3.1-.5.2-.8,0-.2-.2-.3-.4-.5-.3-.1,0-.2.4-.4.3-.1,0-.2-.3-.4.3,0,0,0,0,0-.2,0-.4-.2-.4-.4-.1-.1.3-.2.2-.3.2-.3,0-.5,0-.8,0-.2,0-.4-.3-.5-.4-.2,0-.4.2-.6-.1-.2-.3-.3-.3-.5-.3-.1,0-.2-.3-.3.3,0,0,0,0,0,0-.2-.8-.6.2-.9,0-.3-.2-.6-.1-.9-.1,0,0-.2-.2-.3.3,0,.2-.1.2-.2,0-.2-.6-.5-.3-.7-.4-.3-.1-.6.1-.8-.4,0-.2-.2-.3-.4.2,0,.3-.2,0-.3,0,0,0-.2.3-.3.3,0,0-.1-.2-.2-.4,0,0,0,0,0,0-.5.6-.8-.3-1.2-.2-.4.1-.8,0-1.2-.1-.2,0-.4-.3-.5-1.4,0-.5,0-1.1.2-1.4,0-.2.2-.4.3-.5.1,0,.3-.2.4-.3.3-.2.6-.7.8-.4,0,0,.2-.2.2.3,0,0,0,.1,0,0,.4-.8.7-.2,1.1-.2.3,0,.7-.6.9-.3.2-.6.4-.5.6-.3.5.7,1.2.3,1.8.5.6.1,1.2.1,1.8.2.1,0,.2-.3.3,0,0,.3.3,0,.4,0,.1,0,.3-.1.4,0,.4.7.9.3,1.4.4.5.1.9.2,1.4,0,.3,0,.6-.4.9-.3.1,0,.3-.3.4.3,0,.2.2-.3.3-.3.2,0,.4,0,.6,0,.3,0,.5,0,.8,0,.2,0,.4-.3.5-.3.2,0,.4,0,.5,0,.2,0,.4.3.6.4.2,0,.5-.2.7.1.4.5.8.3,1.2.4.4,0,.8.1,1.2,0,.2,0,.4.5.6.5.1,0,.2,1.5.1,2,0,0,0,.2,0,.2-.2.5-.5,1.2-.7,1.1-.4,0-.8,0-1.1,0Z" fill="#fff"/>
    <path d="M380.1,445.6c-.3,0-.7,0-1,0-.1,0-.2-.3-.4.3,0,.3-.2-.4-.3-.4-.3,0-.6,0-.9,0-.3,0-.6.2-.9.3-.3,0-.6-.3-.9,0-.3.3-.5-.3-.7-.1-.3.1-.5.2-.8,0-.2-.2-.3-.4-.5-.3-.1,0-.2.4-.4.3-.1,0-.2-.3-.4.3,0,0,0,0,0-.2,0-.4-.2-.4-.4-.1-.1.3-.2.2-.3.2-.3,0-.5,0-.8,0-.2,0-.4-.3-.5-.4-.2,0-.4.2-.6-.1-.2-.3-.3-.3-.5-.3-.1,0-.2-.3-.3.3,0,0,0,0,0,0-.2-.8-.6.2-.9,0-.3-.2-.6-.1-.9-.1,0,0-.2-.2-.3.3,0,.2-.1.2-.2,0-.2-.6-.5-.3-.7-.4-.3-.1-.6.1-.8-.4,0-.2-.2-.3-.4.2,0,.3-.2,0-.3,0,0,0-.2.3-.3.3,0,0-.1-.2-.2-.4,0,0,0,0,0,0-.5.6-.8-.3-1.2-.2-.4.1-.8,0-1.2-.1-.2,0-.4-.3-.5-1.4,0-.5,0-1.1.2-1.4,0-.2.2-.4.3-.5.1,0,.3-.2.4-.3.3-.2.6-.7.8-.4,0,0,.2-.2.2.3,0,0,0,.1,0,0,.4-.8.7-.2,1.1-.2.3,0,.7-.6.9-.3.2-.6.4-.5.6-.3.5.7,1.2.3,1.8.5.6.1,1.2.1,1.8.2.1,0,.2-.3.3,0,0,.3.3,0,.4,0,.1,0,.3-.1.4,0,.4.7.9.3,1.4.4.5.1.9.2,1.4,0,.3,0,.6-.4.9-.3.1,0,.3-.3.4.3,0,.2.2-.3.3-.3.2,0,.4,0,.6,0,.3,0,.5,0,.8,0,.2,0,.4-.3.5-.3.2,0,.4,0,.5,0,.2,0,.4.3.6.4.2,0,.5-.2.7.1.4.5.8.3,1.2.4.4,0,.8.1,1.2,0,.2,0,.4.5.6.5.1,0,.2,1.5.1,2,0,0,0,.2,0,.2-.2.5-.5,1.2-.7,1.1-.4,0-.8,0-1.1,0Z" fill="#fff"/>
    <path d="M349,283.2c.4-.6.9-1.2,1.2-1.9.1-.2.5-.3.2-.9-.1-.3.5-.1.7-.4.3-.6.8-1.2,1.1-1.8.3-.6.5-1.3.8-1.9.3-.6.9-1,1-1.8,0-.6.8-.8.9-1.3.2-.6.4-1.1.9-1.5.4-.3.8-.5.9-.9,0-.3,0-.6,0-.8.2-.2.5-.3.1-.8,0,0,.1,0,.2,0,.5,0,.6-.3.5-.7-.1-.3,0-.5.1-.7.3-.5.5-1,.9-1.5.3-.3.7-.6.9-.9.3-.4.3-.9.7-1.1.5-.2.7-.6.9-.9.1-.2.5-.3,0-.8,0,0,0-.1,0-.1,1.1-.2.4-1.3.9-1.8.5-.5.7-1.2,1.1-1.8,0-.2.3-.3,0-.6-.1-.1,0-.3.1-.3.8-.2.7-.8,1.1-1.2.4-.5.4-1.2,1.1-1.5.3-.1.6-.4.2-.9-.2-.3.2-.4.3-.6,0-.2-.1-.5,0-.6,0-.1.3-.2.5-.3,0,0,0,0,0-.1-.2-1.1,1-1.5,1.3-2.3.3-.9.7-1.7,1.2-2.4.3-.4.7-.8,1.8-.6.5,0,1,.3,1.2.7.1.2.3.5.2.7,0,.3,0,.6,0,.9,0,.6.1,1.4-.4,1.8-.2.1,0,.5-.5.4,0,0-.1,0-.1,0,.3,1.1-.5,1.6-.8,2.3-.3.6,0,1.5-.6,2,.4.6,0,1-.3,1.2-1.2.9-1.5,2.3-2.2,3.5-.8,1.2-1.4,2.4-2.1,3.6-.1.2,0,.6-.3.7-.4,0-.3.5-.5.8-.1.2-.2.6-.4.7-1.1.6-1.3,1.8-1.9,2.7-.6.9-1.2,1.8-1.6,2.8-.3.6-.3,1.4-.8,1.9-.2.2,0,.6-.7.6-.2,0,0,.4,0,.6-.2.4-.5.8-.7,1.2-.3.5-.7,1.1-1,1.6-.2.3-.2.8-.3,1.2-.2.4-.4.7-.7,1-.3.4-.8.7-1.1,1.1-.3.4-.4,1-.9,1.3-.9.5-1.2,1.4-1.8,2.2-.6.7-1.1,1.5-1.5,2.4-.2.5-.9.6-1.2,1-.1.2-1.5-.4-1.9-.7,0,0-.1-.2-.1-.2-.1-.7-.4-1.5,0-1.9.5-.7,1-1.4,1.4-2.1Z"/>
    <path d="M311.3,365.7c-1.1-1.5-2.2-2.9-3.3-4.4-.4-.5-.6-1.2-1.5-1.5-.4-.1-.3-1-.7-1.5-1.1-1.3-2-2.7-3.1-4.1-1-1.3-2.2-2.5-3.3-3.8-1-1.3-1.8-2.8-3-3.9-1-.9-1.4-2.2-2.3-3.2-.9-1-1.9-2.1-2.5-3.4-.5-.9-.9-1.8-1.6-2.5-.4-.4-1-.7-1.4-1.3-.4-.5-.6-1.2-1.4-1.3,0,0-.1-.3-.2-.5,0-.8-.6-1.4-1.2-1.7-.5-.3-.8-.7-1.1-1.1-.9-1.1-1.7-2.2-2.5-3.3-.6-.9-1-1.8-1.6-2.7-.6-.9-1.5-1.7-1.9-2.7-.4-1-1-1.8-1.6-2.5-.3-.4-.5-1.1-1.3-1.1,0,0-.2-.2-.2-.3-.3-1.8-2.2-2.4-3-3.9-.8-1.5-2-2.9-2.9-4.3-.3-.4-.4-.9-1-1-.2,0-.5-.5-.5-.7-.1-1.4-1.1-2.4-1.7-3.7-.2-.4-.3-.7-.5-1.1l-.3-.5-.2-.6c-.4-.8-.5-1.6-.5-2.5,0-.7,0-1.6-.7-2.3-.3-.3-.2-1.1-.3-1.7,0-.5-.4-.9-.5-1.4,0-.4.2-.8.3-1.2,0-.1,0-.3,0-.4-.8-2.2.2-4.5.1-6.7,0-2.3.3-4.5.7-6.8.2-1.2.7-2.5,2-3,.6-.2,1.1,0,1.3.5.2.4.3.9.2,1.3,0,.7,0,1.4,0,2,0,1.4.3,2.8,0,4.1-.1.4.1,1-.4,1.3,0,0-.1.2,0,.3.7,1.9.1,3.8.2,5.7,0,1.6.8,3.1.8,4.7.7.8.8,1.7.8,2.6,0,.4,0,.7.1,1.1,0,.3.2.7.3,1,.3.7.6,1.4,1,2.1.7,1.4,1.6,2.7,2.5,4.1,1.7,2.8,3.7,5.4,5.7,8,.3.5.9.6,1.1,1.3.2.7.8,1.2,1.3,1.8.4.5.9,1,1.2,1.6,1.1,2.5,3,4.4,4.5,6.5,1.5,2.1,3.1,4.3,4.8,6.2,1,1.2,2.3,2.3,3.1,3.6.4.6,1.1.9,1,1.8,0,.3.7.5,1,.8.7.8,1.3,1.7,2,2.6.9,1.2,1.8,2.5,2.8,3.6.6.7,1.3,1.3,1.9,2,.6.7,1.2,1.5,1.8,2.3.7,1,1.2,2.1,1.9,3.2.7,1.1,1.7,2,2.3,3.1,1,2.1,2.5,3.8,3.8,5.6,1.3,1.8,2.6,3.7,4.1,5.4.8,1,1.1,2.2,1.9,3.2.4.5-.4,2-.9,2.1-.1,0-.2,0-.3,0-1.1-.7-2.4-1.2-3.2-2.3-1.2-1.7-2.5-3.3-3.7-5Z"/>
    <path d="M298,409.1c.4-.7.7-1.4,1-2.1.1-.3.5-.4.1-.9-.2-.3.5-.2.6-.5.3-.7.7-1.3.9-2,.2-.7.4-1.4.6-2.1.2-.7.8-1.2.8-2,0-.7.7-.9.8-1.5.1-.6.3-1.2.8-1.6.3-.3.7-.6.8-1.1,0-.3-.1-.6,0-.9.1-.2.5-.4,0-.9,0,0,.1-.1.2-.1.5-.1.6-.4.5-.8-.2-.3,0-.5,0-.7.2-.6.4-1.1.7-1.7.2-.4.6-.7.8-1.1.2-.4.2-1,.6-1.3.5-.3.6-.7.8-1.1,0-.2.5-.4,0-.8,0,0,0-.1,0-.1,1-.3.3-1.4.7-1.9.5-.6.6-1.3.9-2,0-.2.3-.3,0-.6-.1-.1,0-.3,0-.4.8-.3.6-.9.9-1.4.3-.5.3-1.2,1-1.7.3-.2.5-.5,0-1-.2-.2.2-.4.2-.7,0-.2-.2-.5-.1-.6,0-.2.3-.2.5-.3,0,0,0,0,0-.1-.3-1.1.9-1.8,1.3-2.8.3-1,1.1-2,2-2.9.5-.5,1.3-.8,2.2,0,.4.3.7.8.7,1.2,0,.3,0,.6,0,.7-.1.2-.2.5-.3.7-.2.5,0,1.2-.6,1.5-.2,0,0,.4-.5.3,0,0-.1,0-.1,0,.4,1-.4,1.5-.7,2.3-.2.7.1,1.6-.4,2.1.4.6.2,1-.2,1.3-1.1,1.1-1.3,2.6-1.9,3.9-.6,1.3-1.1,2.7-1.7,4-.1.2.1.6-.2.7-.3.2-.3.6-.4.9-.1.3-.1.6-.4.8-1.1.8-1.1,2-1.7,3-.5,1-1,2-1.3,3.1-.2.7-.2,1.4-.6,2-.2.2,0,.7-.7.7-.2,0,.1.4,0,.6-.2.5-.4.9-.6,1.3-.3.6-.6,1.2-.8,1.8-.1.4,0,.9-.2,1.2-.1.4-.3.8-.5,1.2-.3.5-.7.8-1,1.3-.3.5-.3,1.1-.8,1.5-.9.7-1.1,1.7-1.6,2.5-.5.9-1,1.7-1.3,2.6-.2.5-.9.8-1.1,1.2-.1.2-1.6-.1-2-.5,0,0-.1-.1-.2-.2-.2-.7-.6-1.4-.3-2,.5-.8.8-1.6,1.2-2.4Z"/>
    <path d="M346.5,414.9c-.8,0-1.7,0-2.5,0-.3,0-.6-.2-1,.3-.2.3-.5-.4-.7-.3-.8,0-1.6,0-2.3,0-.8,0-1.5.3-2.3.3-.8,0-1.5-.2-2.2,0-.6.3-1.2-.2-1.8-.1-.6.1-1.3.2-1.9,0-.5-.2-.9-.4-1.4-.3-.3,0-.5.4-.9.4-.3,0-.6-.3-.9.3,0,0-.1,0-.2-.1-.3-.4-.7-.4-.9-.1-.3.3-.5.2-.7.3-.6,0-1.3,0-1.9,0-.5,0-1-.3-1.4-.3-.5,0-1,.2-1.5,0-.5-.3-.9-.3-1.4-.3-.3,0-.6-.3-.8.3,0,0-.1,0-.2,0-.7-.8-1.5.3-2.2,0-.8-.2-1.6,0-2.3,0-.2,0-.4-.2-.6.3,0,.2-.3.2-.4,0-.6-.6-1.2-.2-1.8-.4-.7-.1-1.3.2-2-.3-.3-.2-.7-.3-1,.3-.2.3-.5,0-.7,0-.2,0-.4.3-.6.3-.2,0-.3-.2-.5-.3,0,0-.1,0-.2,0-1,.7-2-.2-3,0-1,.2-2,.1-3,0-.6,0-1.1-.2-1.5-1.4-.2-.5-.2-1.1,0-1.4.2-.2.4-.5.6-.5.3,0,.6-.2.9-.3.6-.2,1.3-.7,1.9-.4.2,0,.4-.2.6.3,0,0,.1.1.1,0,.9-.8,1.8-.3,2.7-.3.8,0,1.5-.7,2.3-.4.4-.6.9-.5,1.3-.3,1.5.7,3,.2,4.5.3,1.5,0,3.1,0,4.6,0,.3,0,.5-.4.8,0,.3.3.7,0,1,0s.6-.1.9,0c1.2.7,2.4.3,3.6.3,1.2,0,2.4.1,3.6,0,.7,0,1.5-.4,2.2-.3.3,0,.6-.3,1,.3,0,.2.4-.3.6-.3.5,0,1,0,1.5,0s1.4,0,2.1,0c.4,0,.8-.3,1.3-.3.4,0,.9,0,1.3,0,.6,0,1.1.3,1.7.3.6,0,1.2-.2,1.7,0,1,.5,2.1.3,3.1.3,1,0,2.1.1,3.1,0,.6,0,1.1.4,1.7.4.3,0,.6,1.5.5,2,0,0,0,.2-.1.2-.6.5-1.1,1.2-1.7,1.1-.9,0-1.9,0-2.8,0Z"/>
    <path d="M351.6,403.2c.7-1.6,1.4-3.2,2-4.8.2-.6.7-1.1.5-1.9-.1-.4.7-.7.9-1.3.6-1.5,1.3-2.9,1.8-4.4.6-1.4.9-3,1.4-4.4.5-1.4,1.3-2.8,1.4-4.3.1-1.3.9-2.2,1.1-3.4.2-1.2.4-2.5,1-3.7.3-.8.7-1.7.8-2.6,0-.6-.2-1.1-.1-1.7,0-.6.5-1.2-.1-1.7,0,0,0-.3.2-.4.5-.6.5-1.3.2-1.8-.2-.5-.2-.9-.2-1.4,0-1.3,0-2.5,0-3.8,0-.9.2-1.9.2-2.9,0-1-.4-2-.3-3,.2-1,0-1.8-.1-2.7,0-.5,0-1.2-.6-1.5,0,0,0-.2,0-.3.5-1.6-.9-2.8-1-4.3-.2-1.5-.8-3-1.3-4.5-.1-.4-.1-.9-.7-1.1-.2,0-.4-.5-.3-.7.2-1.3-.6-2.3-.9-3.4-.4-1.3-1.2-2.4-1.3-3.9,0-.6-.3-1.4-1.1-1.7-.4-.2-.4-.9-.7-1.3-.2-.3-.6-.6-.8-.9-.2-.3-.1-.7-.2-1.1,0-.1,0-.2-.2-.3-1.5-1.4-1.8-3.5-3-5.1-.6-.8-1.2-1.6-1.8-2.4-.6-.8-1.2-1.6-1.7-2.4-.7-.9-1.2-1.8-.9-3.2.2-.6.6-1,1.1-.8.4.1.9.3,1.2.6.5.4,1,.9,1.5,1.3.9,1,2.2,1.7,2.8,3,.2.4.7.7.5,1.2,0,0,0,.2.1.3.9.5,1.4,1.3,1.9,2.1.4.8.9,1.7,1.3,2.5.8,1.4,2.1,2.5,2.6,4,1,.5,1.3,1.5,1.5,2.4.2.8.4,1.6.7,2.3.3.8.5,1.5.8,2.2.6,1.5,1.2,3,1.7,4.5.9,3.1,1.9,6.2,2.4,9.4.1.5.5.9.4,1.6-.1.6.2,1.4.3,2.1,0,.6.3,1.3.3,1.9-.2,1.3-.1,2.6,0,3.8,0,1.3.2,2.5.2,3.8,0,2.5-.2,5.1-.4,7.6,0,1.6,0,3.1-.5,4.6-.2.6,0,1.4-.8,1.9-.2.1,0,.9,0,1.3-.2,1-.6,2-.9,3.1l-1.4,4.2c-.3.8-.3,1.8-.6,2.6-.3.9-.6,1.8-1,2.6-.5,1.1-1.2,2.1-1.7,3.1-.5,1.1-.8,2.4-1.5,3.3-1.3,1.8-1.9,3.8-2.8,5.7-.9,1.9-1.7,3.8-2.3,5.8-.4,1.1-1.2,2-1.6,3.1-.2.5-1.8.7-2.2.4,0,0-.1-.2-.1-.3,0-1.2-.4-2.5.1-3.7.8-1.8,1.4-3.7,2.2-5.5Z"/>
    <g>
      <path d="M367.4,476.7c1.9,0,3.2-2,2.5-3.7s0,0,0,0c-3.9-9.1-12.3-16-21.9-18.2,3.6-13.2,8-26.1,13.1-38.7.5-1.1.6-2.4.3-3.5-1-3.9-6-3.5-9.5-2.6-15.9-.5-31.9-.7-47.8-1.4-1.9,0-8.7-2-9.5.8-1.2,4-3.4,7.6-4.2,11.7-3.5,16.7-12.7,32.1-15.8,48.8,2.5,3,3.3,4,5.7,6.9h87.1Z" fill="#00b4e9"/>
      <path d="M339.4,478.6c-5,0-10,0-15,0-1.9,0-3.8-.2-5.7.3-1,.3-2.8-.4-4.5-.3-4.7,0-9.3,0-14,0-4.5.1-9.1.2-13.6.3-1,0-2.1,0-3.1,0-1.4,0-2.8,0-4.2,0-.6-.7-1.2-1.5-1.8-2.2-.4-.5-.8-.9-1.2-1.4-.8-.9-1.6-1.8-2.4-2.6l-.2-.3h-.1c0-.1-.2-.4-.2-.4-.3-.3-.6-.7-.9-1l-.4-.5h-.1c0-.1,0-.3,0-.3v-.3c.2-.4.2-.8.3-1.3l.2-1,.2-.7c.1-.4.2-.9.3-1.3.3-.9.5-1.7.8-2.6.3-.9.5-1.7.8-2.6,1-3.8,2.3-7.6,3.8-11,1.1-2.5,2.3-4.9,3.2-7.5.5-1.6.8-3.2,1.5-4.9.6-1.6,1.5-3.3,1.4-4.9,0-.1.3-.8.5-1.1,1-1.6,1.6-3.7,1.7-5.2.1-1.5.5-2.7.8-4l.3-1.4c.1-.5.2-1.1.4-1.6.3-1,.6-2,1-3,.7-1.9,1.5-3.6,2.2-5.3l.4-.9.2-.5.2-.7v-.4c.1,0,.2,0,.2,0,0,0,0,0,0,0v-.2c.2-.2.3-.5.5-.7.3-.4.7-.7,1.1-1,.4-.3.9-.4,1.4-.6.2,0,.5-.1.7-.1.2,0,.4,0,.6,0,1.4-.1,2.6,0,3.8.2,1.6.2,3.2.5,4.4.5,1.5,0,3,.1,4.4.3,2.8.4,5.4.5,8.1.6,1.5,0,3.3.4,4.6-.2.1,0,.7,0,1,0,4.4,1,8.7,0,13.2.3,4.6.3,9.3.3,14,.4.5,0,1.1,0,1.7,0,0,0,0,0,0,0l.5-.2c.3-.1.6-.3.9-.4.4-.3,1.9-.5,2.7-.4,1.1.1,2.2.3,3.3.7,1.2.4,2.4,1.1,3.3,2.3.9,1.1,1.3,2.4,1.4,3.7,0,1.3-.2,2.5-.7,3.6-1.6,3.7-2.8,7.5-4.7,11.1-.8,1.5-1.7,3.7-1.8,5.8,0,1-.9,2.7-1.3,4.2-.3,1.2-.4,2.4-.8,3.5-.3,1-.8,1.9-1.2,2.8-.1.3-.2.6-.3.9-.3,1.5-.6,2.9-1,4.3l-.6,2.1-.3,1c0,.1,0,.1,0,.1h0s0,0,0,0h0c0,.1,0,.2,0,.2,0,0,0,0,0,0,0,0,0,0,.1,0h0s0,0,0,0c0,0,0,0,0,0h.1c1.5.6,2.9,1.2,4.4,1.9,5.8,2.7,10.8,7.2,14.1,12.8.5.7.8,1.6,1.2,2.4.2.4.3.8.5,1.2l.2.6c0,0,0,.3.1.4,0,.2,0,.3.1.5.2,1.4-.3,2.6-1.1,3.4-.8.8-1.8,1.1-2.5,1-.7,0-1-.4-.9-.6,0-.3.4-.4.9-.8.7-.6.9-1.5.8-2.1,0-.1,0-.3-.1-.4,0-.2-.2-.4-.3-.6-.2-.4-.4-.8-.7-1.2-.5-.8-.9-1.5-1.5-2.2-2.1-3-5-5.3-7.7-7.7-.4-.4-1-.7-1.5-1-.5-.3-1-.7-1.3-1.1,0-.1-.5-.4-.7-.5-.6-.2-1.2-.4-1.8-.6-.6-.2-1.2-.4-1.8-.6-.6-.2-1.2-.4-1.8-.6-1.1-.4-2.2-.6-3.3-.9l-.8-.2s0,0,0,0h0c0-.1,0-.3,0-.3v-.4c.1,0,.6-1.7.6-1.7l.5-1.7.3-1.1c.4-1.3.8-2.6,1.2-3.9,1.3-4.4,2-8.8,3.8-13.2.2-2.6,1.3-5.4,2.4-7.8.9-2.1,1.8-4.2,2.7-6.3l1.3-3.2.6-1.5c.1-.4.2-.7.3-1.1,0-.3,0-.7,0-1v-.4c-.2,0-.3-.2-.3-.3-.1-.2-.3-.3-.6-.5-.3-.1-.6-.2-1-.3-.8-.1-1.7-.1-2.7,0-.5,0-1,.2-1.5.3-.3,0-.4,0-1,.2-.2,0-.5,0-.8,0h-.5c-9.1-.4-18.3-.4-27.5-.7-1.6,0-2.9.3-4.7,0-1.7-.3-3.9-.2-5.9-.3-1.8,0-3.8,0-5.5-.3-1.2-.2-2.3-.3-3.5-.4-.8,0-1.3-.2-1.9-.3-.6-.1-1.1-.2-1.7-.3-1.1-.2-2.2-.3-3.1-.2-.2,0-.5,0-.6,0,0,0-.2,0-.3,0-.2,0-.3.3-.3.4v.3c-.1,0-.3.5-.3.5l-.3,1c-.2.6-.5,1.3-.7,1.9l-1.5,3.5c-.3.8-.6,1.6-.9,2.4-.3.8-.4,1.5-.6,2.5-.4,1.8-.9,3.6-1.4,5.3-1,3.5-2.2,6.9-3.4,10.3-1.4,4.2-2.7,8.3-4.4,12.4-.7,1.7-1.1,3.7-2.2,5.2-.3.4-.5,2.2-.8,3.3-.9,2.8-1.7,5.6-2.4,8.5l-.4,1.9,1.2,1.5,1.9,2.3,1,1.2.2.2h0c0,0,0,0,0,0h0s0,0,.2,0h.9s1.9-.1,1.9-.1c1.3,0,2.5-.2,3.8-.2,2.7,0,5.3,0,8,0,3.4,0,6.7.3,10.1.3,3.5,0,7.1-.2,10.5,0,6.2.5,12.4.3,18.6.3,6.2,0,12.4.1,18.5,0,3.5,0,6.7.4,10.1.4,1.6,0,3.7,1.5,3.1,2-.1,0-.4.2-.6.2-3.3.5-6.4,1.2-10.3,1.1-5.7,0-11.3,0-17,0Z" fill="#00b4e9"/>
    </g>
    <path d="M333.9,473.5c-.8-.9-1.5-1.7-2.3-2.6-.3-.3-.4-.8-1.1-.8-.4,0-.1-.7-.4-1-.7-.8-1.3-1.7-2-2.5-.7-.8-1.5-1.5-2.1-2.3-.6-.8-1-1.9-1.8-2.4-.6-.4-.6-1.1-1.1-1.4-.4-.2-.8-.3-1.4-.6-.4-.3-.9-.5-1.5-.5-.4,0-.8.3-1.2.3-.4,0-.8-.4-1.2.2,0,0-.2,0-.3-.2-.4-.4-.9-.4-1.2-.2-.3.3-.6.2-.9.2-.8,0-1.7,0-2.5-.1-.6,0-1.3-.3-1.9-.4-.7,0-1.4.2-2-.1-.6-.3-1.2-.3-1.8-.3-.3,0-.7-.3-1,.3,0,0-.2,0-.2,0-1-.9-2,.2-3,0-1-.2-2.1,0-3.1,0-.3,0-.6-.2-.8.3,0,.2-.4.2-.5,0-.8-.6-1.6-.3-2.4-.4-.9-.1-1.8.2-2.7-.3-.4-.2-.9-.3-1.4.3-.2.3-.7,0-1,0-.3,0-.5.3-.8.3-.2,0-.5-.2-.7-.3,0,0-.2,0-.2,0-1.3.7-2.6-.2-4,0-1.3.2-2.7.1-4,0-.7,0-1.5-.2-2-1.4-.2-.5-.2-1.1,0-1.4.2-.2.5-.5.8-.5.4-.1.8-.2,1.3-.3.9-.2,1.7-.7,2.6-.5.3,0,.6-.2.8.3,0,0,.1.1.2,0,1.2-.8,2.4-.3,3.6-.4,1,0,2-.7,3.1-.4.6-.6,1.2-.5,1.8-.3,2,.7,4.1.2,6.1.4,2.1.1,4.1,0,6.2.2.4,0,.7-.3,1.1,0,.4.3.9,0,1.3,0,.4,0,.9-.1,1.2,0,1.6.7,3.2.4,4.9.5,1.6.1,3.3.3,4.9.3,1,0,2-.3,3.2,0,.5.1,1.2,0,1.5.7,0,.2.7,0,1.1.2.9.4,1.6,1.1,2.1,1.8.8.9,1.3,1.8,1.8,2.5.3.4.9.7,1.2,1.2.4.4.7.9,1,1.4.4.6.7,1.3,1.1,2,.4.6,1.1,1.1,1.4,1.8.5,1.4,1.6,2.3,2.4,3.3.9,1.1,1.8,2.1,2.8,3,.6.5.7,1.4,1.3,1.9.3.2-.4,1.6-.9,1.9,0,0-.2,0-.3,0-.9-.2-1.9-.2-2.5-.8-.9-1-1.8-1.9-2.7-2.8Z" fill="#fff"/>
    <path d="M213.1,271.3c2-1.4,4-2.8,6-4.3.7-.6,1.6-.9,2.1-1.9.2-.5,1.3-.5,2-1.1,1.8-1.4,3.7-2.8,5.5-4.3,1.7-1.4,3.3-3,5-4.5,1.7-1.4,3.7-2.7,5.1-4.3,1.3-1.4,2.9-2.1,4.2-3.3,1.4-1.3,2.8-2.6,4.4-3.7,1.1-.7,2.3-1.4,3.3-2.4.6-.6,1-1.3,1.7-1.9.7-.5,1.6-.9,1.8-1.9,0,0,.4-.2.6-.3,1-.3,1.8-1,2.2-1.7.4-.7.9-1.1,1.5-1.5,1.5-1.2,2.9-2.5,4.5-3.6,1.2-.9,2.4-1.6,3.6-2.4,1.2-.9,2.3-2.1,3.6-2.7,1.3-.6,2.3-1.4,3.4-2.2.6-.5,1.5-.7,1.7-1.6,0,0,.3-.2.4-.3,2.3-.6,3.4-2.8,5.4-3.9,2.1-1.1,3.9-2.6,5.9-3.9.5-.3,1.2-.5,1.4-1.2,0-.2.6-.6,1-.7,1.8-.4,3.1-1.7,4.8-2.5,1.8-.9,3.5-2.2,5.6-2.7.9-.2,2-.6,2.7-1.6.3-.5,1.4-.6,2.1-1,.6-.3,1-.8,1.6-1,.5-.2,1.1-.1,1.6-.2.2,0,.4,0,.5-.2,1.4-.8,2.9-1.1,4.5-1.3,1.6-.2,3.2-.2,4.7-.3,3.2-.3,6.3,0,9.3.6,1.7.3,3.3.7,4.2,2,.4.6.3,1.1-.4,1.3-.5.2-1.2.3-1.7.3-.9,0-1.9,0-2.8,0-1.9,0-3.8.3-5.6,0-.6-.1-1.3.2-1.8-.3,0,0-.3-.1-.4,0-2.5.8-5,.7-7.5,1.4-2.1.6-3.8,1.9-6,2.5-.9,1.1-2.2,1.6-3.4,2-4.2,1.4-7.8,4.1-11.6,6.4-2,1.1-3.8,2.4-5.7,3.7-1.9,1.2-3.7,2.6-5.6,3.9-.6.4-1,1.1-1.9,1.4-.9.3-1.6,1.1-2.4,1.7-.7.5-1.4,1.2-2.2,1.6-1.6.8-3.1,1.9-4.5,3-1.4,1.1-2.8,2.3-4.2,3.4-2.8,2.2-5.6,4.4-8.2,6.8-1.6,1.5-3,3.1-4.8,4.4-.8.6-1.3,1.4-2.4,1.6-.3,0-.7.9-1.1,1.4-1.1,1-2.3,1.9-3.4,2.9-1.6,1.3-3.2,2.6-4.8,4-1,.8-1.8,1.8-2.7,2.7-1,.9-2,1.7-3.1,2.5-1.4,1-2.8,1.9-4.2,2.9-1.4,1-2.7,2.3-4.2,3.1-2.8,1.5-5.2,3.5-7.7,5.3-2.6,1.7-5.2,3.4-7.7,5.2-1.4,1-3.1,1.4-4.5,2.3-.7.4-2.4-.3-2.3-.9,0-.1,0-.3.2-.4,1.2-1.3,2.1-2.7,3.7-3.7,1.2-.7,2.4-1.5,3.5-2.3l3.5-2.4Z"/>
    <path d="M239.9,299.2c1.4-1.1,2.8-2.2,4.2-3.3.5-.4,1.2-.6,1.4-1.5.1-.4,1-.3,1.5-.7,1.3-1.1,2.6-2,3.9-3.1,1.2-1,2.4-2.2,3.6-3.2,1.2-1,2.7-1.8,3.7-3,.9-1,2.2-1.4,3.1-2.2,1-.9,2.1-1.8,3.3-2.5.9-.4,1.8-.8,2.5-1.5.4-.4.7-1,1.2-1.4.5-.3,1.2-.6,1.3-1.4,0,0,.3-.1.5-.2.8,0,1.4-.6,1.7-1.1.3-.5.7-.8,1.1-1.1,1.1-.8,2.1-1.7,3.3-2.4.8-.6,1.8-1,2.7-1.5.9-.6,1.6-1.5,2.6-1.8,1-.3,1.7-.9,2.5-1.5.4-.3,1.1-.5,1.1-1.3,0,0,.2-.2.3-.2,1.8-.3,2.4-2,3.8-2.8,1.5-.8,2.7-1.9,4.1-2.9.4-.3.8-.4.9-1,0-.2.4-.5.6-.5,1.4-.2,2.2-1.3,3.3-1.9,1.2-.7,2.2-1.8,3.7-2.2.6-.2,1.4-.6,1.6-1.5.1-.4.9-.6,1.2-1,.3-.3.5-.8.9-1,.3-.2.7-.2,1.1-.4.1,0,.2-.1.3-.2,1.3-1.8,3.6-2.2,5.2-3.6,1.6-1.4,3.5-2.5,5.3-3.7,1-.6,2.1-1.2,3.4-.7.6.2.9.7.7,1.2-.2.4-.4.8-.7,1.1-.5.5-1,.9-1.5,1.4-1,.9-1.8,2.1-3.1,2.7-.4.2-.7.7-1.2.5,0,0-.3,0-.3.1-1.1,1.7-3,2.4-4.5,3.5-1.3,1-2.2,2.4-3.7,3.1-.4,1-1.3,1.6-2.1,1.9-3,1.3-5.4,3.5-8,5.3-2.7,1.8-5.3,3.8-7.9,5.7-.5.3-.6.9-1.3,1.1-.6.2-1.2.8-1.7,1.2-.5.4-1,.9-1.6,1.1-2.4,1-4.3,2.8-6.4,4.3-2.1,1.5-4.2,2.9-6.1,4.6-1.2,1-2.2,2.2-3.5,3.1-.6.4-.9,1.1-1.8,1-.2,0-.5.7-.8,1-.8.7-1.7,1.3-2.5,2-1.2.9-2.4,1.8-3.5,2.7-.7.6-1.2,1.3-1.9,1.9-.7.6-1.5,1.2-2.2,1.7-1,.7-2.1,1.2-3,1.9-1,.7-1.9,1.7-3,2.3-2,1-3.6,2.5-5.4,3.9-1.7,1.3-3.5,2.7-5.1,4.1-.9.8-2.1,1.2-3.1,1.9-.4.4-2-.3-2.1-.8,0-.1,0-.2,0-.3.6-1.1,1-2.4,2.1-3.2,1.6-1.2,3.2-2.5,4.7-3.8Z"/>
    <path d="M217.5,325.2c.3-.4.7-.8,1-1.2.1-.2.4-.2.1-.6-.1-.2.5,0,.6-.1.2-.4.6-.7.9-1.2.2-.4.4-.9.6-1.3.2-.4.8-.6.8-1.1,0-.5.6-.4.8-.8.2-.4.3-.8.8-.9.3-.1.7-.2.7-.5,0-.2,0-.5,0-.6.1-.1.5-.1,0-.6,0,0,.1,0,.2,0,.4.1.6,0,.4-.4-.1-.3,0-.4,0-.5.2-.3.5-.7.8-.9.2-.2.6-.3.8-.5.2-.2.2-.6.6-.7.4,0,.6-.3.8-.5.1-.1.4,0,0-.6,0,0,0,0,0,0,.9.2.4-.9.8-1.1.5-.2.7-.7.9-1.1,0-.1.3,0,0-.5,0-.1,0-.3.1-.2.7.1.7-.4,1-.6.4-.2.4-.8,1-.8.3,0,.5-.1.2-.7-.1-.2.2-.2.2-.4,0-.1,0-.4,0-.5,0,0,.3,0,.5,0,0,0,0,0,0,0-.1-.9.9-.8,1.2-1.4.2-.6.7-1,1.2-1.5.3-.2.6-.4,1.7.1.5.2.9.6,1.1.9.1.2.2.5.2.6,0,.2,0,.5-.1.7,0,.4,0,1.1-.4,1.2-.1,0,0,.4-.5.1,0,0-.1,0-.1,0,.3.9-.5,1-.8,1.5-.3.4,0,1.2-.6,1.4.3.6,0,.8-.3.9-1.1.3-1.4,1.3-2,2-.7.7-1.2,1.5-1.8,2.2-.1.1,0,.5-.3.4-.3,0-.3.3-.4.4-.1.1-.1.4-.4.4-1,.2-1.1,1-1.7,1.5-.5.5-1,1.1-1.4,1.8-.2.4-.2,1-.6,1.3-.2.1,0,.5-.6.3-.2,0,0,.4,0,.5-.2.3-.4.5-.6.7-.3.3-.6.6-.8,1-.1.2-.1.6-.2.8-.1.3-.3.5-.5.6-.3.2-.7.4-.9.6-.3.2-.3.7-.7.8-.8.2-1,.8-1.5,1.3-.4.5-.9.9-1.2,1.5-.2.3-.8.3-1,.5-.1.1-1.4-.6-1.7-1,0,0-.1-.2-.1-.2-.1-.6-.5-1.3-.2-1.5.4-.4.8-.9,1.1-1.4Z"/>
    <path d="M211.2,318.5c.1.1.3.3.4.4,0,0,0,.3.4,0,.2-.2-.2.3-.1.4.2,0,.3.3.4.4.2,0,.5,0,.6.1.2,0,.1.4.4.3.3,0,0,.4.2.4.2,0,.4,0,.3.3,0,.2-.1.4,0,.4,0,0,.4-.2.4-.1,0,0,0,.3.4-.1,0,0,0,0,0,.1-.2.3-.1.4,0,.2.2-.2.2,0,.3,0,.1,0,.3.2.3.3,0,.1,0,.4,0,.5,0,.1.3,0,.2.3-.1.3,0,.4,0,.4,0,0-.1.3.4-.1,0,0,0,0,0,0-.4.7.4,0,.4.3,0,.3.2.3.4.4,0,0,0,.2.3-.1.1-.1.2,0,.1,0-.3.6,0,.4,0,.6,0,.2.3,0,.1.6,0,.2,0,.3.4,0,.2-.2,0,0,.2,0,0,0,.3-.2.3-.1,0,0,0,.2-.1.3,0,0,0,0,0,0,.3-.2.3-.1.2,0,0,.1-.1.3,0,.2.1-.1,0,0,.1,0,0,0,0,.2,0,1.2,0,.2,0,.5,0,.7,0,.2,0,.5-.1.7,0,.3-.2.5-.2.6-.1.1-.2.2-.4.3-.3.2-.7.6-.9.2,0-.1-.3.1,0-.4,0,0,0-.1,0,0-.7.5-.8-.2-1-.3-.2-.1-.7.2-.7-.1-.5.4-.5.2-.5,0,.2-.8-.4-.7-.6-1-.2-.3-.5-.5-.8-.8,0,0-.3.2-.2,0,.1-.2,0-.2-.1-.2,0,0-.2,0-.1-.2.2-.7-.2-.6-.4-.8-.2-.3-.3-.5-.7-.6-.2,0-.6,0-.6-.1,0,0-.3,0,0-.4.1-.1-.3.1-.3.1-.1,0-.2-.2-.3-.2-.1-.1-.2-.3-.4-.3-.1,0-.3,0-.5,0-.1,0-.2-.1-.2-.2,0-.1,0-.4,0-.5,0-.1-.4,0-.3-.3.2-.5-.2-.5-.3-.7-.1-.2-.3-.4-.6-.5-.2,0,.1-.5,0-.6,0,0,.9-1.1,1.3-1.5,0,0,.2-.1.2-.1.4-.2,1-.7,1.1-.5.1.2.3.3.5.5Z"/>
    <path d="M196.1,325.2c.3-.2.7-.4,1-.7.1-.1.4,0,.2-.5,0-.3.4.2.5,0,.3-.3.6-.4.9-.7.3-.3.4-.7.7-.9.3-.3.7-.2.8-.7,0-.4.6-.2.8-.4.2-.3.4-.5.8-.5.3,0,.6,0,.7-.2,0-.1,0-.5.1-.5.1,0,.4,0,.1-.5,0,0,0,0,.2,0,.4.2.5,0,.4-.2,0-.3,0-.3.1-.4.2-.2.4-.4.7-.6.2-.1.5,0,.8-.2.2-.1.2-.5.6-.4.4,0,.5,0,.7-.2,0,0,.4,0,0-.5,0,0,0,0,0,0,.8.4.4-.7.8-.7.4,0,.6-.4.9-.7,0,0,.3,0,0-.4,0-.1,0-.2.1-.2.6.3.6-.2.9-.3.3-.1.4-.6.9-.4.2,0,.5,0,.2-.5-.1-.3.2-.2.2-.3,0-.1,0-.4,0-.4,0,0,.3,0,.4,0,0,0,0,0,0,0,0-.8.9-.5,1.1-.9.2-.5.6-.7,1-1,.2-.1.6-.2,1.5.5.4.3.8.7.9,1,.1.2.2.5.2.6,0,.2,0,.4-.1.6,0,.4,0,1-.4,1-.1,0,0,.3-.4,0,0,0-.1,0-.1,0,.2.9-.5.8-.8,1.1-.2.3,0,1-.6,1.1.3.6,0,.7-.3.7-1,0-1.3.8-1.9,1.2-.6.4-1.2,1-1.8,1.4-.1,0,0,.4-.3.3-.3-.1-.3.2-.4.3-.1,0-.2.3-.4.3-.9-.1-1.1.5-1.6.9-.5.3-1,.6-1.4,1.1-.2.3-.3.8-.7.9-.2,0,0,.4-.6,0-.1-.1,0,.3,0,.4-.2.2-.4.3-.6.5-.3.2-.6.4-.8.6-.1.2-.2.5-.3.7-.1.2-.3.3-.5.4-.3.1-.6,0-.9.2-.3.1-.4.5-.7.5-.7-.1-1,.4-1.4.6-.5.2-.9.5-1.3.9-.2.2-.7,0-.9.1-.1,0-1.1-1.1-1.3-1.5,0,0,0-.2,0-.2,0-.5-.2-1.3,0-1.4.4-.2.8-.5,1.1-.8Z"/>
    <path d="M193.6,327.9c-.1-.2-.2-.3-.4-.4,0,0,0-.3-.4,0-.2.1.2-.3.2-.4-.2,0-.2-.3-.4-.4-.2-.1-.4-.1-.6-.2-.2-.1,0-.4-.4-.4-.3,0,0-.4-.2-.4-.2,0-.4-.1-.3-.4,0-.2.2-.4,0-.4,0,0-.4.1-.4,0,0,0,.1-.3-.4,0,0,0,0,0,0-.1.3-.3.2-.4,0-.2-.3.1-.3,0-.3,0-.1-.1-.2-.2-.3-.4,0-.1,0-.4,0-.5,0-.1-.3,0-.1-.3.2-.3.1-.3,0-.4,0,0,.2-.3-.4,0,0,0,0,0,0,0,.6-.6-.4-.1-.4-.4,0-.3-.2-.3-.3-.5,0,0,0-.2-.3,0-.1,0-.2,0-.1,0,.4-.5,0-.4,0-.5,0-.2-.3-.2,0-.6.1-.2.2-.3-.4,0-.2.1,0,0-.2-.1,0,0-.3.1-.4,0,0,0,.1-.2.2-.3,0,0,0,0,0,0-.7.2,0-.5-.4-.6-.3,0-.4-.3-.4-.6,0-.1,0-.4.9-1.1.4-.3.9-.6,1.2-.8.2-.1.4-.2.5-.2.1,0,.3,0,.4,0,.2,0,.8-.2.6.1,0,0,.2,0-.2.3,0,0,0,0,0,0,.8-.3.5.2.6.3.1.1.8-.1.6.2.6-.3.5-.1.4,0-.3.7.2.7.3,1,.1.3.4.6.6.9,0,0,.3-.1.2.1-.2.2,0,.2,0,.2,0,0,.2,0,.1.2-.4.6.1.6.2.9.1.3.2.5.5.6.2,0,.6,0,.6.2,0,0,.3,0-.1.4-.1.1.3-.1.3,0,.1,0,.2.2.2.3,0,.1.2.3.3.4,0,0,.3,0,.4,0,.1,0,.2.1.2.2,0,.1,0,.4,0,.5,0,.1.3,0,.2.4-.2.5.1.5.2.7.1.2.2.4.5.5.1,0-.2.5,0,.6,0,0-1,1.1-1.4,1.4,0,0-.2.1-.2.1-.4.2-1.1.6-1.1.4,0-.2-.3-.4-.4-.5Z"/>
    <path d="M204.4,306.5c-.3.2-.6.4-.8.7,0,.1-.4,0-.1.5.1.2-.4-.2-.5,0-.2.3-.5.4-.7.7-.2.3-.3.6-.5.9-.2.3-.6.3-.6.7,0,.4-.5.2-.6.4-.1.3-.3.5-.6.5-.3,0-.5,0-.6.2,0,.1.1.4,0,.5-.1,0-.4,0,0,.5,0,0,0,0-.2,0-.4-.2-.5,0-.4.2.1.3,0,.3,0,.4-.2.2-.3.4-.6.6-.2.1-.5,0-.7.2-.2.1-.2.5-.5.4-.4,0-.5,0-.6.2,0,0-.4,0,0,.5,0,0,0,0,0,0-.8-.4-.2.6-.6.7-.4,0-.5.4-.7.7,0,0-.3,0,0,.4,0,.1,0,.2,0,.2-.6-.3-.5.2-.8.3-.3.1-.3.5-.8.4-.2,0-.4,0,0,.5.2.2-.1.1-.2.3,0,0,.1.3,0,.4,0,0-.3,0-.4,0,0,0,0,0,0,0,.2.8-.7.5-.9.9-.1.4-.5.7-.8,1-.2.1-.5.2-1.5-.4-.4-.3-.9-.6-1-.9-.1-.2-.2-.4-.2-.5,0-.2,0-.4,0-.5,0-.3-.2-.9.2-.9.1,0,0-.3.4,0,0,0,.1,0,0,0-.3-.8.3-.8.5-1.1.2-.3,0-.9.4-1-.3-.6-.1-.6.2-.7.9,0,1.1-.8,1.6-1.2.5-.4.9-1,1.4-1.4,0,0-.1-.4.2-.3.3,0,.2-.2.3-.3,0,0,0-.3.3-.3.8.1.9-.5,1.3-.9.4-.3.8-.6,1.1-1.1.2-.3.2-.8.5-.9.1,0,0-.4.5,0,.1,0,0-.3,0-.4.1-.2.3-.3.5-.5.2-.2.5-.4.7-.6.1-.2,0-.5.2-.6.1-.2.2-.3.4-.4.2-.1.6-.1.8-.2.2-.1.3-.5.6-.5.7,0,.8-.4,1.2-.6.4-.2.7-.5,1-.9.1-.2.6,0,.8-.1,0,0,1.1,1,1.4,1.4,0,0,.1.2.1.2.1.5.4,1.2.2,1.3-.4.2-.6.5-.9.8Z"/>
    <path d="M183.9,312c0,.1.2.2.3.3,0,0-.1.2.3,0,.2-.2-.2.3-.2.3.1,0,.2.2.3.3.1,0,.4,0,.5,0,.1,0,0,.3.3.2.3-.1,0,.3.1.3.2,0,.3,0,.2.3,0,.2-.2.4,0,.4,0,0,.3-.2.4-.1,0,0-.1.3.3-.1,0,0,0,0,0,.1-.3.3-.2.3,0,.2.2-.2.2-.1.3,0,0,0,.2.1.2.2,0,0,0,.3,0,.4,0,.1.3,0,.1.2-.2.3-.1.3,0,.4,0,0-.1.3.3-.1,0,0,0,0,0,0-.5.7.4,0,.3.2,0,.2.1.2.2.3,0,0,0,.2.3-.1.1-.1.2,0,0,0-.4.5,0,.3,0,.5,0,.2.3,0,0,.5-.1.2-.2.3.3,0,.2-.2,0,0,.1,0,0,0,.3-.2.3-.1,0,0-.1.2-.2.3,0,0,0,0,0,0,.6-.3,0,.4.3.4.2,0,.3.2.4.4,0,.1,0,.3-.8,1.1-.4.4-.8.7-1,.9-.2.1-.4.3-.5.3-.1,0-.2,0-.3.1-.2,0-.7.3-.5,0,0,0-.2,0,.1-.3,0,0,0,0,0,0-.7.4-.4,0-.6-.1-.1,0-.7.3-.6,0-.5.4-.5.2-.4,0,.3-.6-.2-.5-.3-.8-.1-.3-.4-.4-.5-.6,0,0-.3.2-.1,0,.2-.2,0-.1,0-.2,0,0-.2,0,0-.1.3-.6,0-.5-.2-.7,0-.2-.2-.4-.4-.4-.2,0-.5.1-.5,0,0,0-.3.1.1-.3.1-.1-.3.1-.3.1,0,0-.1-.1-.2-.2,0,0-.1-.2-.3-.3,0,0-.3,0-.4,0,0,0-.1,0-.2-.2,0-.1,0-.3,0-.4,0-.1-.3,0-.2-.3.3-.5,0-.4-.1-.6,0-.2-.2-.3-.4-.4-.1,0,.2-.4.1-.5,0,0,1-1.1,1.4-1.4,0,0,.2-.1.2-.1.4-.2,1-.7,1-.6,0,.2.2.3.3.4Z"/>
    <path d="M197.2,297.9c-.3.2-.6.4-.9.7,0,.1-.4,0-.1.5.1.3-.4-.1-.5,0-.2.3-.6.4-.8.7-.2.3-.3.7-.5.9-.2.3-.7.3-.7.8,0,.4-.5.2-.7.5-.1.3-.3.6-.6.6-.3,0-.6,0-.6.2,0,.1.1.5,0,.5-.1,0-.4,0,0,.5,0,0,0,0-.2,0-.4-.2-.5,0-.4.2.1.3,0,.3,0,.4-.2.2-.4.5-.6.6-.2.1-.5.1-.7.3-.2.1-.2.5-.5.5-.4,0-.5.1-.6.3,0,0-.4,0,0,.5,0,0,0,0,0,0-.8-.3-.3.7-.6.8-.4.1-.5.5-.7.8,0,0-.3,0,0,.4.1.1,0,.2,0,.2-.7-.2-.5.3-.8.4-.3.2-.3.6-.9.5-.2,0-.4,0-.1.5.2.2-.1.2-.2.3,0,.1.1.3,0,.4,0,0-.3,0-.4,0,0,0,0,0,0,0,.3.7-.7.5-.7.9,0,.4-.3.7-.5.9-.1.1-.3.2-1.5,0-.5-.1-1-.3-1.3-.5-.2-.2-.4-.3-.4-.5,0-.2,0-.4,0-.6,0-.4-.3-1,.1-1.2.1,0,0-.3.4-.1,0,0,.1,0,.1,0-.4-.8.3-.9.6-1.3.2-.3,0-1,.4-1.1-.3-.6-.1-.7.2-.7,1,0,1.1-.9,1.6-1.4.5-.5,1-1.1,1.5-1.6,0,0-.1-.4.2-.3.3,0,.3-.2.4-.3,0-.1,0-.3.3-.3.9,0,1-.7,1.4-1,.4-.4.9-.7,1.2-1.3.2-.3.2-.8.5-1,.1,0,0-.4.5-.1.1,0,0-.3,0-.4.1-.2.3-.4.5-.5.2-.2.5-.4.7-.7.1-.2.1-.5.2-.7.1-.2.3-.3.5-.4.3-.1.6-.2.8-.3.3-.1.3-.5.7-.5.7,0,.9-.4,1.4-.7.4-.3.9-.5,1.2-.9.2-.2.7,0,.9-.1.1,0,1.1,1,1.3,1.5,0,0,0,.2,0,.2,0,.5.3,1.3,0,1.4-.4.2-.7.5-1,.8Z"/>
    <path d="M181.6,299.9c0,0,0,.2,0,.2,0,0-.2.1.3,0,.3,0-.4.1-.3.1,0,0,0,.2.1.2,0,0,.3,0,.4.1,0,0-.2.3.2.2.3,0-.1.2,0,.2.1,0,.3,0,0,.2-.1.1-.3.3-.2.3,0,0,.4-.1.4,0,0,0-.2.2.4,0,0,0,0,0-.1.1-.3.2-.3.3,0,.2.3-.1.2,0,.3,0,0,0,.1.1.1.3,0,0-.2.3-.2.4,0,.1.3,0,0,.3-.2.2-.2.3-.1.3,0,0-.2.2.4,0,0,0,0,0,0,0-.6.5.4,0,.2.3-.1.2,0,.3.2.4,0,0-.1.2.3,0,.1,0,.2,0,0,0-.5.4-.1.3-.1.5,0,.2.3.2-.1.5-.2.1-.2.3.3,0,.3,0,0,0,.1.1,0,0,.3,0,.4,0,0,0-.2.2-.3.2,0,0,0,0,0,0,.7,0,0,.5.2.6.2.2.2.4.2.7,0,.1-.2.3-1.3.6-.5.1-1,.2-1.4.2-.2,0-.5,0-.5,0-.1,0-.2,0-.3,0-.2,0-.7,0-.5-.1,0,0-.2,0,.3-.2,0,0,0,0,0,0-.8.1-.3-.1-.4-.2,0,0-.7,0-.5-.1-.6.2-.5.1-.4,0,.5-.5,0-.5,0-.7,0-.2-.2-.4-.3-.6,0,0-.3.1-.1,0,.2-.2,0-.1,0-.2,0,0-.2,0,0-.1.5-.5,0-.5,0-.7,0-.2,0-.4-.3-.5-.2,0-.5,0-.5-.2,0,0-.3,0,.2-.3.1,0-.3,0-.3,0,0,0-.1-.2-.1-.3,0-.1,0-.3-.2-.4,0,0-.3,0-.4-.1,0,0-.1-.2-.1-.3,0-.2.2-.3.2-.5,0-.1-.3-.2,0-.4.5-.4.1-.5.2-.8,0-.3,0-.5,0-.8,0-.2.4-.3.4-.4,0,0,1.5,0,2,.1,0,0,.2,0,.2,0,.5.1,1.2.2,1.1.3,0,0,0,.2,0,.3Z"/>
    <path d="M203.6,282.7c-.5.2-1,.4-1.5.7-.2.1-.5,0-.4.5,0,.3-.4-.2-.6,0-.4.3-.9.5-1.3.8-.4.3-.7.8-1.1,1.1-.4.3-1,.3-1.2.9-.2.5-.8.2-1,.6-.3.3-.6.7-1.1.7-.3,0-.7,0-.9.3-.1.2,0,.5-.2.6-.2,0-.5,0-.2.6,0,0-.1,0-.2,0-.4-.2-.6,0-.6.3,0,.3,0,.4-.2.5-.3.3-.6.6-1,.8-.3.2-.7.2-1,.4-.3.2-.4.6-.8.6-.4,0-.6.2-.9.4-.1.1-.5,0-.2.6,0,0,0,0,0,0-.9-.3-.6.9-1.1,1-.5.2-.8.7-1.2,1.1,0,.1-.3,0-.1.5,0,.1,0,.3-.1.2-.7-.2-.7.4-1.1.6-.4.2-.5.8-1.2.7-.3,0-.6.1-.3.7.1.3-.2.2-.3.4,0,.1,0,.4,0,.5,0,0-.3,0-.5,0,0,0,0,0,0,0,0,1-1.1.8-1.4,1.4-.3.6-.7,1-1.1,1.4-.2.2-.5.3-1.6,0-.5-.2-1-.4-1.2-.7-.1-.2-.3-.5-.2-.6,0-.3,0-.5.1-.8.1-.5,0-1.2.6-1.4.2,0,0-.4.5-.1,0,0,.1,0,.1,0-.1-1,.7-1.1,1.1-1.6.3-.4.3-1.2.8-1.4-.2-.7,0-.8.4-.9,1.2-.3,1.7-1.3,2.5-2,.8-.7,1.6-1.5,2.4-2.2.1-.1,0-.5.4-.4.3,0,.4-.3.6-.4.2-.1.2-.4.5-.4,1.1,0,1.5-.9,2.2-1.4.7-.5,1.4-1,2-1.6.4-.4.6-1,1.1-1.2.2,0,.2-.5.7-.1.1.1,0-.4.2-.5.3-.2.6-.4.9-.6.4-.3.9-.5,1.3-.8.2-.2.4-.6.6-.8.2-.2.5-.4.8-.5.4-.1.9-.1,1.2-.3.4-.1.7-.6,1.1-.5.9.1,1.5-.4,2.2-.7.7-.2,1.4-.5,2.1-.9.4-.2.9.1,1.3,0,.2,0,.9,1.2,1,1.8,0,0,0,.2,0,.2-.2.6-.3,1.4-.7,1.5-.6.1-1.2.4-1.7.7Z"/>
    <g>
      <g>
        <ellipse cx="288" cy="479.8" rx="9.9" ry="8.5" transform="translate(-270.1 438.7) rotate(-54.8)"/>
        <path d="M295,479.6c.1-.8.2-1.5,0-2.3,0-.3.1-.6-.5-.7-.3,0,.2-.5.1-.7-.3-.6-.6-1.2-1-1.7-.5-.4-1.1-.7-1.6-.9-.5-.2-1-.7-1.7-.5-.3,0-.5,0-.7,0-.2,0-.5-.2-.7-.1-.5.2-1,.3-1.6.3-.4,0-.9,0-1.2.2-.2.2-.3.6-.5.7-.2.1-.6,0-.4.7,0,0-.1,0-.2,0-.5-.2-.7.1-.7.5,0,.3-.1.5-.3.6-.2.2-.3.4-.5.7l-.5.7c-.3.3-.7.6-.9,1-.2.4-.1.9-.5,1.2-.4.3-.5.7-.5,1.2,0,.2-.3.5.3.7,0,0,0,.1,0,.1-.4.3-.3.7-.2,1,.2.3.4.6.4.9,0,.7.3,1.3.7,1.7,0,.1,0,.4.5.2.2,0,.3,0,.2.2-.2.7.5.8.8,1.1.4.4,1,.3,1.3,1,.2.2.5.5.9-.1.2-.3.4,0,.6,0,.2,0,.3-.3.5-.3.1,0,.3.2.4.3,0,0,.1,0,.1,0,.4-.4.7-.4,1.2-.5.4,0,.9,0,1.3-.3.7-.6,1.4-1,2.1-1.6.4-.3.8-.6,2-.2.5.2,1,.5,1.1.9,0,.3.1.6,0,.9-.2.4-.3.7-.5,1.1-.2.4-.4.8-.6,1.1-.3.3-.6.7-1,.8-.3,0-.4.5-.8.2,0,0-.2,0-.2,0-.6,1.3-2,1.3-3.2,1.6-1,.3-2,1-3.1.6-.7.6-1.4.3-2,0-1-.6-1.9-1.2-2.8-1.8-.9-.6-1.7-1.4-2.3-2.3-1.2-1.9-1.8-4-1.8-6.2,0-.4-.3-.7,0-1.1.3-.4.2-.9.3-1.3,0-.4,0-.9.3-1.2,1.1-1.3,1.4-2.8,2.5-4.1,1-1.2,2.2-2.2,3.4-3.2.7-.6,1.5-1.3,2.5-1.5.4,0,.8-.5,1.3,0,.1.1.4-.4.7-.4.7-.1,1.4-.1,2.1,0,1,0,2,.3,3,.6.6.2,1.3.2,1.8.6.3.1.6.3.9.5.3.2.5.4.7.7.3.3.5.7.7,1.1.2.4.4.7.6,1.1.4.7,1,1.5,1,2.3,0,1.5.3,2.8.2,4.2-.2,1.4-.5,2.7-.9,3.9-.1.4-.4.7-.6.9-.3.3-.5.5-.7.8-.2.3-1.6-.2-2-.6,0,0-.1-.2-.1-.2,0-.4-.1-.8-.2-1.1,0-.4,0-.7,0-.9.4-.8.6-1.7.8-2.5Z"/>
      </g>
      <path d="M288.6,482.9c-.3,0-.5,0-.8-.1-.1,0,0-.3-.4.2-.2.2,0-.4,0-.4-.2,0-.4-.2-.6-.3-.2,0-.5,0-.7-.2-.2-.2-.1-.5-.5-.6-.4,0,0-.5-.2-.6-.2-.1-.3-.4-.1-.6.1-.2.4-.3.2-.4,0,0-.4-.1-.4-.2,0,0,.3-.2-.3-.3,0,0,0,0,.2,0,.4,0,.4-.1.1-.3-.3-.1-.2-.2-.2-.2,0-.2,0-.4.1-.5,0-.1.4-.1.5-.2.1,0-.1-.3.2-.3.3,0,.4,0,.4-.1,0,0,.3,0-.2-.3,0,0,0,0,0,0,.8.3,0-.4.3-.5.3,0,.3-.2.4-.4,0,0,.2,0-.1-.3-.1-.1,0-.2,0-.1.5.4.3,0,.5,0,.2,0,.1-.3.5,0,.2.1.3.2,0-.3-.1-.2,0,0,0-.1,0,0-.1-.3,0-.3,0,0,.2.2.3.2,0,0,0,0,0,0-.2-.7.4,0,.4-.2,0-.2.2-.2.4-.2,0,0,.2.1.8,1.1.3.4.5.9.7,1.2,0,.2.2.4.2.5,0,.1,0,.2,0,.3,0,.2.2.7,0,.5,0,0,0,.2-.2-.2,0,0,0,0,0,0,.3.7,0,.3,0,.4,0,0,.3.6,0,.4.3.5.3.5.1.3-.5-.5-.3,0-.4,0-.1,0,0,0-.1,0,0,0,.3.2,0,0-.2-.1,0,0,0,0,0,0,.1,0,0,0-.6-.3-.3,0-.3,0,0,0,0,0,0,0,0,0,0,0,0,0,0,0-.1,0-.2,0,0,0,0,0,0,0,0,0,0,0,0,0,0,0,0,0,0,0h0s-.3.1-.3.1h0s0,0,0,0c0,0,0,0,.1,0,0,0,0,0,0,0h0s0,0,0,0c0,0,0,0,0,0,0,0,0,.1,0,.2,0,0,0,.2,0,.2,0,0,0,0,0,0h0s0,0,0,0c0,0,0,.2.2.2.2.4.5.8.6,1,0,0,0,.2.1.2.1.5.3,1.2,0,1.2-.4,0-.7.1-1,.1Z" fill="#00b4e9"/>
    </g>
    <g>
      <g>
        <ellipse cx="339.2" cy="479.8" rx="9.9" ry="8.5" transform="translate(-248.4 480.6) rotate(-54.8)"/>
        <path d="M346.2,479.6c.1-.8.2-1.5,0-2.3,0-.3.1-.6-.5-.7-.3,0,.2-.5.1-.7-.3-.6-.6-1.2-1-1.7-.5-.4-1.1-.7-1.6-.9-.5-.2-1-.7-1.7-.5-.3,0-.5,0-.7,0-.2,0-.5-.2-.7-.1-.5.2-1,.3-1.6.3-.4,0-.9,0-1.2.2-.2.2-.3.6-.5.7-.2.1-.6,0-.4.7,0,0-.1,0-.2,0-.5-.2-.7.1-.7.5,0,.3-.1.5-.3.6-.2.2-.3.4-.5.7l-.5.7c-.3.3-.7.6-.9,1-.2.4-.1.9-.5,1.2-.4.3-.5.7-.5,1.2,0,.2-.3.5.3.7,0,0,0,.1,0,.1-.4.3-.3.7-.2,1,.2.3.4.6.4.9,0,.7.3,1.3.7,1.7,0,.1,0,.4.5.2.2,0,.3,0,.2.2-.2.7.5.8.8,1.1.4.4,1,.3,1.3,1,.2.2.5.5.9-.1.2-.3.4,0,.6,0,.2,0,.3-.3.5-.3.1,0,.3.2.4.3,0,0,.1,0,.1,0,.4-.4.7-.4,1.2-.5.4,0,.9,0,1.3-.3.7-.6,1.4-1,2.1-1.6.4-.3.8-.6,2-.2.5.2,1,.5,1.1.9,0,.3.1.6,0,.9-.2.4-.3.7-.5,1.1-.2.4-.4.8-.6,1.1-.3.3-.6.7-1,.8-.3,0-.4.5-.8.2,0,0-.2,0-.2,0-.6,1.3-2,1.3-3.2,1.6-1,.3-2,1-3.1.6-.7.6-1.4.3-2,0-1-.6-1.9-1.2-2.8-1.8-.9-.6-1.7-1.4-2.3-2.3-1.2-1.9-1.8-4-1.8-6.2,0-.4-.3-.7,0-1.1.3-.4.2-.9.3-1.3,0-.4,0-.9.3-1.2,1.1-1.3,1.4-2.8,2.5-4.1,1-1.2,2.2-2.2,3.4-3.2.7-.6,1.5-1.3,2.5-1.5.4,0,.8-.5,1.3,0,.1.1.4-.4.7-.4.7-.1,1.4-.1,2.1,0,1,0,2,.3,3,.6.6.2,1.3.2,1.8.6.3.1.6.3.9.5.3.2.5.4.7.7.3.3.5.7.7,1.1.2.4.4.7.6,1.1.4.7,1,1.5,1,2.3,0,1.5.3,2.8.2,4.2-.2,1.4-.5,2.7-.9,3.9-.1.4-.4.7-.6.9-.3.3-.5.5-.7.8-.2.3-1.6-.2-2-.6,0,0-.1-.2-.1-.2,0-.4-.1-.8-.2-1.1,0-.4,0-.7,0-.9.4-.8.6-1.7.8-2.5Z"/>
      </g>
      <path d="M339.8,482.9c-.3,0-.5,0-.8-.1-.1,0,0-.3-.4.2-.2.2,0-.4,0-.4-.2,0-.4-.2-.6-.3-.2,0-.5,0-.7-.2-.2-.2-.1-.5-.5-.6-.4,0,0-.5-.2-.6-.2-.1-.3-.4-.1-.6.1-.2.4-.3.2-.4,0,0-.4-.1-.4-.2,0,0,.3-.2-.3-.3,0,0,0,0,.2,0,.4,0,.4-.1.1-.3-.3-.1-.2-.2-.2-.2,0-.2,0-.4.1-.5,0-.1.4-.1.5-.2.1,0-.1-.3.2-.3.3,0,.4,0,.4-.1,0,0,.3,0-.2-.3,0,0,0,0,0,0,.8.3,0-.4.3-.5.3,0,.3-.2.4-.4,0,0,.2,0-.1-.3-.1-.1,0-.2,0-.1.5.4.3,0,.5,0,.2,0,.1-.3.5,0,.2.1.3.2,0-.3-.1-.2,0,0,0-.1,0,0-.1-.3,0-.3,0,0,.2.2.3.2,0,0,0,0,0,0-.2-.7.4,0,.4-.2,0-.2.2-.2.4-.2,0,0,.2.1.8,1.1.3.4.5.9.7,1.2,0,.2.2.4.2.5,0,.1,0,.2,0,.3,0,.2.2.7,0,.5,0,0,0,.2-.2-.2,0,0,0,0,0,0,.3.7,0,.3,0,.4,0,0,.3.6,0,.4.3.5.3.5.1.3-.5-.5-.3,0-.4,0-.1,0,0,0-.1,0,0,0,.3.2,0,0-.2-.1,0,0,0,0,0,0,.1,0,0,0-.6-.3-.3,0-.3,0,0,0,0,0,0,0,0,0,0,0,0,0,0,0-.1,0-.2,0,0,0,0,0,0,0,0,0,0,0,0,0,0,0,0,0,0,0h0s-.3.1-.3.1h0s0,0,0,0c0,0,0,0,.1,0,0,0,0,0,0,0h0s0,0,0,0c0,0,0,0,0,0,0,0,0,.1,0,.2,0,0,0,.2,0,.2,0,0,0,0,0,0h0s0,0,0,0c0,0,0,.2.2.2.2.4.5.8.6,1,0,0,0,.2.1.2.1.5.3,1.2,0,1.2-.4,0-.7.1-1,.1Z" fill="#00b4e9"/>
    </g>
    <path d="M352.9,407.2c-1,0-2,0-3,0-.4,0-.7-.2-1.1.3-.2.3-.5-.4-.9-.3-.9,0-1.9,0-2.8,0-.9,0-1.8.3-2.7.3-.9,0-1.8-.2-2.7,0-.7.3-1.4-.2-2.1-.1-.8.1-1.5.2-2.3,0-.5-.2-1.1-.4-1.6-.3-.3,0-.6.4-1,.4-.3,0-.7-.3-1,.3,0,0-.2,0-.3-.1-.4-.4-.8-.4-1.1-.1-.3.3-.6.2-.8.3-.8,0-1.5,0-2.3,0-.6,0-1.1-.3-1.7-.3-.6,0-1.2.2-1.8,0-.6-.3-1.1-.3-1.6-.3-.3,0-.7-.3-.9.3,0,0-.1,0-.2,0-.9-.8-1.7.3-2.6,0-.9-.2-1.8,0-2.8,0-.2,0-.5-.2-.7.3,0,.2-.3.2-.5,0-.7-.6-1.4-.2-2.1-.4-.8-.1-1.6.2-2.4-.3-.3-.2-.8-.3-1.2.3-.2.3-.6,0-.9,0-.2,0-.5.3-.7.3-.2,0-.4-.2-.6-.3,0,0-.1,0-.2,0-1.2.7-2.3-.2-3.5,0-1.2.2-2.4.1-3.6,0-.7,0-1.3-.2-1.8-1.4-.2-.5-.2-1.1,0-1.4.2-.2.4-.5.7-.5.4,0,.7-.2,1.1-.3.8-.2,1.5-.7,2.3-.4.2,0,.5-.2.7.3,0,0,.1.1.2,0,1-.8,2.1-.3,3.2-.3.9,0,1.8-.7,2.7-.4.5-.6,1.1-.5,1.6-.3,1.8.7,3.6.2,5.4.3,1.8,0,3.6,0,5.5,0,.3,0,.6-.4.9,0,.3.3.8,0,1.2,0s.7-.1,1.1,0c1.4.7,2.9.3,4.3.3,1.4,0,2.8.1,4.3,0,.9,0,1.7-.4,2.6-.3.4,0,.8-.3,1.1.3.1.2.5-.3.7-.3.6,0,1.2,0,1.8,0s1.7,0,2.5,0c.5,0,1-.3,1.5-.3.5,0,1.1,0,1.6,0,.7,0,1.3.3,2,.3.7,0,1.4-.2,2.1,0,1.2.5,2.5.3,3.7.3,1.2,0,2.4.1,3.7,0,.7,0,1.3.4,2,.4.3,0,.7,1.5.6,2,0,0,0,.2-.1.2-.7.5-1.3,1.2-2,1.1-1.1,0-2.2,0-3.4,0Z"/>
    <path d="M352.8,434.5c-.3,0-.7,0-1,0-.1,0-.2-.3-.4.3,0,.3-.2-.4-.3-.4-.3,0-.6,0-.9,0-.3,0-.6.2-.9.3-.3,0-.6-.3-.9,0-.3.3-.5-.3-.7-.1-.3.1-.5.2-.8,0-.2-.2-.3-.4-.5-.3-.1,0-.2.4-.4.3-.1,0-.2-.3-.4.3,0,0,0,0,0-.2,0-.4-.2-.4-.4-.1-.1.3-.2.2-.3.2-.3,0-.5,0-.8,0-.2,0-.4-.3-.5-.4-.2,0-.4.2-.6-.1-.2-.3-.3-.3-.5-.3-.1,0-.2-.3-.3.3,0,0,0,0,0,0-.2-.8-.6.2-.9,0-.3-.2-.6-.1-.9-.1,0,0-.2-.2-.3.3,0,.2-.1.2-.2,0-.2-.6-.5-.3-.7-.4-.3-.1-.6.1-.8-.4,0-.2-.2-.3-.4.2,0,.3-.2,0-.3,0,0,0-.2.3-.3.3,0,0-.1-.2-.2-.4,0,0,0,0,0,0-.5.6-.8-.3-1.2-.2-.4.1-.8,0-1.2-.1-.2,0-.4-.3-.5-1.4,0-.5,0-1.1.2-1.4,0-.2.2-.4.3-.5.1,0,.3-.2.4-.3.3-.2.6-.7.8-.4,0,0,.2-.2.2.3,0,0,0,.1,0,0,.4-.8.7-.2,1.1-.2.3,0,.7-.6.9-.3.2-.6.4-.5.6-.3.5.7,1.2.3,1.8.5.6.1,1.2.1,1.8.2.1,0,.2-.3.3,0,0,.3.3,0,.4,0,.1,0,.3-.1.4,0,.4.7.9.3,1.4.4.5.1.9.2,1.4,0,.3,0,.6-.4.9-.3.1,0,.3-.3.4.3,0,.2.2-.3.3-.3.2,0,.4,0,.6,0,.3,0,.5,0,.8,0,.2,0,.4-.3.5-.3.2,0,.4,0,.5,0,.2,0,.4.3.6.4.2,0,.5-.2.7.1.4.5.8.3,1.2.4.4,0,.8.1,1.2,0,.2,0,.4.5.6.5.1,0,.2,1.5.1,2,0,0,0,.2,0,.2-.2.5-.5,1.2-.7,1.1-.4,0-.8,0-1.1,0Z" fill="#fff"/>
    <path d="M350.5,445.6c-.3,0-.7,0-1,0-.1,0-.2-.3-.4.3,0,.3-.2-.4-.3-.4-.3,0-.6,0-.9,0-.3,0-.6.2-.9.3-.3,0-.6-.3-.9,0-.3.3-.5-.3-.7-.1-.3.1-.5.2-.8,0-.2-.2-.3-.4-.5-.3-.1,0-.2.4-.4.3-.1,0-.2-.3-.4.3,0,0,0,0,0-.2,0-.4-.2-.4-.4-.1-.1.3-.2.2-.3.2-.3,0-.5,0-.8,0-.2,0-.4-.3-.5-.4-.2,0-.4.2-.6-.1-.2-.3-.3-.3-.5-.3-.1,0-.2-.3-.3.3,0,0,0,0,0,0-.2-.8-.6.2-.9,0-.3-.2-.6-.1-.9-.1,0,0-.2-.2-.3.3,0,.2-.1.2-.2,0-.2-.6-.5-.3-.7-.4-.3-.1-.6.1-.8-.4,0-.2-.2-.3-.4.2,0,.3-.2,0-.3,0,0,0-.2.3-.3.3,0,0-.1-.2-.2-.4,0,0,0,0,0,0-.5.6-.8-.3-1.2-.2-.4.1-.8,0-1.2-.1-.2,0-.4-.3-.5-1.4,0-.5,0-1.1.2-1.4,0-.2.2-.4.3-.5.1,0,.3-.2.4-.3.3-.2.6-.7.8-.4,0,0,.2-.2.2.3,0,0,0,.1,0,0,.4-.8.7-.2,1.1-.2.3,0,.7-.6.9-.3.2-.6.4-.5.6-.3.5.7,1.2.3,1.8.5.6.1,1.2.1,1.8.2.1,0,.2-.3.3,0,0,.3.3,0,.4,0,.1,0,.3-.1.4,0,.4.7.9.3,1.4.4.5.1.9.2,1.4,0,.3,0,.6-.4.9-.3.1,0,.3-.3.4.3,0,.2.2-.3.3-.3.2,0,.4,0,.6,0,.3,0,.5,0,.8,0,.2,0,.4-.3.5-.3.2,0,.4,0,.5,0,.2,0,.4.3.6.4.2,0,.5-.2.7.1.4.5.8.3,1.2.4.4,0,.8.1,1.2,0,.2,0,.4.5.6.5.1,0,.2,1.5.1,2,0,0,0,.2,0,.2-.2.5-.5,1.2-.7,1.1-.4,0-.8,0-1.1,0Z" fill="#fff"/>
    <path d="M349.8,447.9c.2-.8.4-1.5.5-2.3,0-.3.4-.5-.1-.9-.2-.2.5-.4.5-.6,0-.7.3-1.4.4-2.2,0-.7,0-1.5,0-2.2,0-.7.5-1.4.3-2.1-.2-.6.4-1.1.4-1.6,0-.6,0-1.2.4-1.8.3-.4.5-.8.5-1.2,0-.3-.3-.6-.2-.9,0-.3.4-.5-.2-.9,0,0,0-.1.2-.2.5-.2.5-.6.3-.9-.2-.3-.1-.5-.1-.7,0-.6.2-1.2.3-1.8.1-.4.4-.8.6-1.3.1-.5,0-1,.3-1.4.4-.4.4-.8.5-1.2,0-.2.4-.5-.2-.8,0,0,0-.1,0-.2.9-.5,0-1.4.3-2.1.3-.7.3-1.4.4-2.2,0-.2.2-.4-.2-.6-.1,0-.1-.3,0-.4.7-.4.4-1.1.6-1.6.2-.6,0-1.3.7-1.8.3-.2.4-.6,0-1-.2-.2,0-.5,0-.7,0-.2-.3-.4-.2-.6,0-.2.3-.3.4-.4,0,0,0-.1,0-.2-.5-1,.5-1.8.5-2.8,0-1,.2-1.9.5-2.8.1-.5.4-1,1.6-1.2.5,0,1.1,0,1.4.3.2.2.4.4.4.6,0,.3.1.6.2.9,0,.6.5,1.3.1,1.9-.1.2.1.5-.4.5,0,0-.1,0,0,.1.6,1,0,1.7-.1,2.6,0,.7.4,1.5,0,2.2.6.5.4,1,0,1.3-.9,1.3-.7,2.8-1.1,4.2-.4,1.4-.5,2.9-.8,4.3,0,.2.3.5,0,.8-.3.2-.2.6-.2.9,0,.3,0,.6-.2.9-.9,1-.7,2.2-1,3.3-.3,1.1-.6,2.2-.6,3.4,0,.7.2,1.4,0,2.1-.1.3.2.7-.5.8-.2,0,.2.4.2.6,0,.5-.2.9-.3,1.4-.1.6-.3,1.3-.4,2,0,.4.1.8,0,1.3,0,.4-.1.8-.3,1.2-.2.5-.5,1-.7,1.5-.2.5,0,1.2-.4,1.6-.7.9-.6,1.9-.9,2.8-.3.9-.5,1.9-.6,2.9,0,.6-.6.9-.8,1.5,0,.2-1.6.3-2,0,0,0-.2-.1-.2-.1-.3-.6-1-1.2-.8-1.8.3-.9.4-1.8.6-2.6Z" fill="#fff"/>
    <path d="M371.2,472.8c-.2-.5-.4-1-.7-1.5-.1-.2,0-.5-.5-.4-.3,0,.2-.4,0-.6-.3-.4-.5-.9-.8-1.4-.3-.4-.7-.7-1.1-1.1-.3-.4-.4-1-.9-1.2-.5-.2-.3-.8-.6-1-.3-.3-.7-.6-.8-1,0-.3,0-.7-.4-.9-.2-.1-.5,0-.7-.2-.1-.2,0-.5-.6-.2,0,0,0-.1,0-.2.2-.4,0-.6-.3-.5-.3,0-.4,0-.5-.2-.3-.3-.6-.6-.9-.9-.2-.3-.3-.7-.5-.9-.2-.3-.7-.3-.7-.8,0-.4-.3-.6-.5-.8-.1-.1,0-.5-.6,0,0,0,0,0,0,0,.2-1-.9-.4-1.2-.9-.3-.5-.8-.7-1.2-1-.1,0-.1-.3-.5,0-.1.1-.3,0-.3-.1,0-.7-.5-.7-.8-1-.3-.4-.9-.4-1-1.1,0-.3-.2-.5-.7-.2-.2.2-.3-.2-.5-.2-.1,0-.4.1-.5,0,0,0,0-.3-.1-.5,0,0,0,0,0,0-.9.2-1-.8-1.6-1-.6-.1-1.1-.4-1.7-.7-.3-.1-.5-.4-.5-1.6,0-.5,0-1.1.3-1.4.2-.2.4-.4.5-.4.3,0,.5,0,.8-.1.5,0,1.2-.3,1.6.1.1.1.4,0,.3.5,0,0,0,.1,0,.1,1-.4,1.4.4,2,.7.5.3,1.3,0,1.7.6.6-.4.9,0,1,.3.5,1.2,1.7,1.5,2.5,2.2.8.8,1.8,1.4,2.6,2.2.1.1.5,0,.5.3,0,.3.3.4.5.5.2.2.4.2.5.5.2,1.1,1.1,1.4,1.7,2.1.6.7,1.1,1.4,1.8,1.9.4.3,1.1.5,1.3,1,.1.2.5.2.2.7,0,.2.4,0,.5.2.3.3.5.6.7.9.3.4.6.9.9,1.3.2.2.6.4.8.6.2.2.4.6.5.9.2.4.2.9.3,1.3.1.4.6.7.6,1.2,0,.9.4,1.5.7,2.3.2.7.5,1.5.8,2.2.2.4-.2.9,0,1.3,0,.2-1.3.8-1.8.9,0,0-.2,0-.2,0-.6-.2-1.4-.4-1.4-.8,0-.6-.4-1.2-.6-1.8Z" fill="#fff"/>
    <path d="M396.3,481.3c-.8,0-1.7,0-2.5,0-.3,0-.6-.2-.9.3-.2.3-.5-.4-.7-.3-.8,0-1.6,0-2.3,0-.8,0-1.5.3-2.3.3-.7,0-1.5-.2-2.2,0-.6.3-1.2-.2-1.8-.1-.6.1-1.3.2-1.9,0-.5-.2-.9-.4-1.4-.3-.3,0-.5.4-.8.4-.3,0-.6-.3-.9.3,0,0-.1,0-.2-.1-.3-.4-.7-.4-.9-.1-.3.3-.5.2-.7.3-.6,0-1.3,0-1.9,0-.5,0-1-.3-1.4-.3-.5,0-1,.2-1.5,0-.5-.3-.9-.3-1.4-.3-.3,0-.6-.3-.8.3,0,0-.1,0-.2,0-.7-.8-1.5.3-2.2,0-.8-.2-1.6,0-2.3,0-.2,0-.4-.2-.6.3,0,.2-.3.2-.4,0-.6-.6-1.2-.2-1.8-.4-.7-.1-1.3.2-2-.3-.3-.2-.7-.3-1,.3-.2.3-.5,0-.7,0-.2,0-.4.3-.6.3-.2,0-.3-.2-.5-.3,0,0-.1,0-.2,0-1,.7-2-.2-2.9,0-1,.2-2,.1-3,0-.6,0-1.1-.2-1.5-1.4-.2-.5-.2-1.1,0-1.4.2-.2.4-.5.6-.5.3,0,.6-.2.9-.3.6-.2,1.3-.7,1.9-.4.2,0,.4-.2.6.3,0,0,.1.1.1,0,.9-.8,1.8-.3,2.7-.3.8,0,1.5-.7,2.3-.4.4-.6.9-.5,1.3-.3,1.5.7,3,.2,4.5.3,1.5,0,3.1,0,4.6,0,.3,0,.5-.4.8,0,.3.3.7,0,1,0s.6-.1.9,0c1.2.7,2.4.3,3.6.3,1.2,0,2.4.1,3.6,0,.7,0,1.4-.4,2.2-.3.3,0,.6-.3.9.3,0,.2.4-.3.6-.3.5,0,1,0,1.5,0s1.4,0,2.1,0c.4,0,.8-.3,1.3-.3.4,0,.9,0,1.3,0,.6,0,1.1.3,1.7.3.6,0,1.2-.2,1.7,0,1,.5,2.1.3,3.1.3,1,0,2.1.1,3.1,0,.6,0,1.1.4,1.7.4.3,0,.6,1.5.5,2,0,0,0,.2-.1.2-.6.5-1.1,1.2-1.7,1.1-.9,0-1.9,0-2.8,0Z"/>
    <path d="M328.7,481.3c-.6,0-1.2,0-1.8,0-.2,0-.4-.2-.7.3-.1.3-.3-.4-.5-.3-.5,0-1.1,0-1.6,0-.5,0-1.1.3-1.6.3-.5,0-1.1-.2-1.6,0-.4.3-.8-.2-1.3-.1-.4.1-.9.2-1.3,0-.3-.2-.6-.4-.9-.3-.2,0-.4.4-.6.4-.2,0-.4-.3-.6.3,0,0-.1,0-.1-.1-.2-.4-.5-.4-.7-.1-.2.3-.3.2-.5.3-.4,0-.9,0-1.3,0-.3,0-.7-.3-1-.3-.3,0-.7.2-1,0-.3-.3-.6-.3-1-.3-.2,0-.4-.3-.5.3,0,0,0,0-.1,0-.5-.8-1,.3-1.5,0-.5-.2-1.1,0-1.6,0-.1,0-.3-.2-.4.3,0,.2-.2.2-.3,0-.4-.6-.8-.2-1.2-.4-.5-.1-.9.2-1.4-.3-.2-.2-.5-.3-.7.3-.1.3-.3,0-.5,0-.1,0-.3.3-.4.3-.1,0-.2-.2-.4-.3,0,0,0,0-.1,0-.7.7-1.4-.2-2.1,0-.7.2-1.4.1-2.1,0-.4,0-.8-.2-1-1.4-.1-.5-.1-1.1,0-1.4.1-.2.3-.5.4-.5.2,0,.4-.2.7-.3.4-.2.9-.7,1.4-.4.1,0,.3-.2.4.3,0,0,0,.1.1,0,.6-.8,1.3-.3,1.9-.3.5,0,1-.7,1.6-.4.3-.6.6-.5.9-.3,1.1.7,2.1.2,3.2.3,1.1,0,2.1,0,3.2,0,.2,0,.3-.4.6,0,.2.3.5,0,.7,0s.4-.1.6,0c.8.7,1.7.3,2.5.3.8,0,1.7.1,2.5,0,.5,0,1-.4,1.5-.3.2,0,.4-.3.7.3,0,.2.3-.3.4-.3.3,0,.7,0,1.1,0s1,0,1.5,0c.3,0,.6-.3.9-.3.3,0,.6,0,.9,0,.4,0,.8.3,1.2.3.4,0,.8-.2,1.2,0,.7.5,1.4.3,2.2.3.7,0,1.4.1,2.2,0,.4,0,.8.4,1.2.4.2,0,.4,1.5.4,2,0,0,0,.2,0,.2-.4.5-.7,1.2-1.2,1.1-.7,0-1.3,0-2,0Z"/>
    <path d="M386.1,300.5c0-1.8.2-3.5.2-5.3,0-.7.3-1.3-.2-2-.3-.3.4-1,.4-1.6,0-1.6.2-3.3.2-4.9,0-1.6-.1-3.2-.1-4.8,0-1.6.4-3.2.2-4.7-.2-1.3.4-2.5.3-3.8,0-1.3,0-2.7.3-4,.2-.9.5-1.9.5-2.8,0-.6-.3-1.2-.2-1.8,0-.6.4-1.3-.2-1.8,0,0,0-.3.2-.4.5-.6.5-1.4.3-2-.2-.6-.1-1-.1-1.5,0-1.4.2-2.7.4-4,.2-1,.5-2,.6-2.9.2-1,0-2.2.4-3.1.4-.9.4-1.8.5-2.8,0-.5.3-1.1-.3-1.6,0,0,0-.2,0-.3.4-.7.4-1.5.2-2.2-.1-.7-.4-1.5-.3-2.2.2-1.6-.1-3.1-.4-4.6,0-.4,0-.9-.5-1.1-.2-.1-.3-.5-.2-.7.2-.6,0-1.2,0-1.7-.2-.5-.4-1.1-.6-1.6-.1-.6-.5-1.2-.7-1.8-.1-.3-.2-.6-.4-.9-.1-.3-.2-.6-.3-.9,0-.6-.4-1.3-1.3-1.5-.4,0-.6-.7-.9-1.1-.3-.3-.7-.3-1-.6-.2-.2-.3-.6-.4-.9,0,0-.1-.2-.2-.2-.9-.4-1.6-1-2.2-1.6-.7-.6-1.4-1.2-2.2-1.5-1.7-.6-3.4-1.1-5.1-1.1-1,0-1.9,0-2.9-.9-.5-.4-.7-.9-.3-1.4.3-.3.7-.7,1.1-.8l1.1-.3c.4,0,.7-.2,1.1-.2,1.5-.2,3.1-.6,4.6.2.4.2,1.1.2,1.3.8,0,0,.2.2.3.2,1.1,0,2.1.5,2.9,1.1.9.6,1.6,1.3,2.4,1.9,1.3,1.1,3,1.9,3.9,3.5.5.2,1,.6,1.3,1,.3.4.5,1,.7,1.4,1.2,3.3,2.6,6.5,3.1,9.8.5,3.4.7,6.7.6,10,0,.6.3,1.1,0,1.7-.3.6-.1,1.4-.2,2.1,0,.7,0,1.3-.2,1.9-.9,2.5-.8,5.1-1.1,7.6-.3,2.5-.6,4.9-.6,7.4,0,1.5.2,3.1,0,4.6,0,.7.2,1.4-.4,2-.2.2.2.8.2,1.2,0,1-.1,2.1-.2,3.1,0,1.5-.2,2.9-.2,4.4,0,.9.2,1.8.2,2.7,0,.9,0,1.9-.1,2.8-.1,1.2-.4,2.3-.5,3.5-.1,1.2.1,2.5-.2,3.7-.6,2.2-.4,4.3-.5,6.5-.1,2.2-.2,4.3-.2,6.5,0,1.2-.5,2.3-.5,3.5,0,.6-1.5,1.3-2,1,0,0-.2-.1-.2-.2-.4-1.2-1.1-2.3-1.1-3.6.1-2,.1-4,.2-6Z"/>
    <path d="M361.6,297.4c0-.5-.1-.9-.3-1.4,0-.2.2-.4-.4-.5-.3,0,.3-.3.3-.5-.1-.4-.1-.9-.3-1.3-.1-.4-.4-.8-.5-1.2-.1-.4.1-.9-.3-1.2-.3-.3.1-.7,0-1-.2-.3-.3-.7,0-1.1.1-.3.3-.5.2-.8,0-.1-.4-.3-.4-.4,0-.2.3-.4-.4-.4,0,0,0,0,.1-.1.4-.2.3-.4,0-.5-.3-.1-.3-.2-.3-.4,0-.4-.1-.7,0-1.1,0-.3.2-.6.3-.8,0-.3-.3-.6,0-.8.3-.3.3-.5.2-.8,0-.1.3-.3-.4-.4,0,0,0,0,0,0,.8-.5-.3-.8-.1-1.2.2-.4,0-.8,0-1.2,0-.1.2-.2-.3-.3-.2,0-.2-.1,0-.2.6-.4.2-.6.2-1,0-.4-.3-.7.2-1.1.2-.2.3-.4-.4-.5-.3,0,0-.2-.1-.4,0,0-.4-.1-.4-.2,0,0,.2-.2.3-.3,0,0,0,0,0,0-.8-.3,0-1-.3-1.4-.3-.4-.4-.9-.5-1.3,0-.3,0-.6,1-1.2.4-.3.9-.6,1.3-.6.3,0,.5,0,.6,0,.2.1.4.2.5.4.3.3,1,.5.8.9,0,.1.3.2-.2.4,0,0,0,0,0,.1.9.3.6,1,.7,1.5.1.4.9.7.7,1.2.7.1.6.5.5.7-.5,1,0,1.8,0,2.7,0,.9.1,1.7.2,2.6,0,.1.4.2.1.4-.2.2,0,.4,0,.5,0,.2.2.3,0,.5-.6.7-.2,1.3-.2,2,0,.6,0,1.3.2,1.9.1.4.5.7.4,1.1,0,.2.3.3-.2.5-.2,0,.3.2.3.3,0,.3,0,.5.1.8,0,.4,0,.7.2,1.1,0,.2.3.4.4.6,0,.2.1.5.1.7,0,.3-.2.6-.2.9,0,.3.3.6,0,.9-.4.6,0,1.1,0,1.7,0,.6.1,1.1.4,1.6.1.3-.3.7-.2,1,0,.1-1.4.7-1.9.7,0,0-.2,0-.2,0-.5-.2-1.3-.3-1.3-.7,0-.5-.2-1-.3-1.6Z"/>
    <path d="M397.1,322.2c-.2-.3-.4-.5-.6-.7,0,0,0-.3-.5-.1-.2.1.2-.4,0-.4-.2-.2-.3-.5-.6-.7-.2-.2-.6-.3-.8-.5-.2-.2-.2-.6-.6-.6-.4,0,0-.5-.3-.6-.2-.1-.5-.3-.4-.6,0-.2.1-.5,0-.6-.1,0-.4,0-.5,0,0,0,0-.4-.5,0,0,0,0,0,0-.2.3-.3.1-.4-.1-.3-.3,0-.3,0-.4,0-.2-.2-.3-.3-.4-.6,0-.2,0-.5,0-.6,0-.2-.4-.2-.3-.5.1-.3,0-.4,0-.6,0,0,.1-.3-.5,0,0,0,0,0,0,0,.5-.7-.5-.3-.5-.6,0-.4-.3-.5-.5-.7,0,0,0-.2-.4,0-.1,0-.2,0-.1,0,.4-.5,0-.5-.1-.7,0-.3-.4-.3-.2-.8,0-.2.1-.4-.5-.1-.3.1-.1-.1-.2-.2,0,0-.4,0-.4,0,0,0,.1-.2.2-.4,0,0,0,0,0,0-.8,0-.3-.7-.6-.9-.4-.2-.5-.5-.7-.9,0-.2,0-.5.8-1.3.4-.4.8-.7,1.1-.8.2,0,.5-.2.6-.1.1,0,.3,0,.5,0,.3,0,.9,0,.8.3,0,.1.3,0,0,.4,0,0,0,0,0,0,.8-.2.6.4.9.6.2.2.9,0,.8.4.6-.3.6,0,.6.2-.2.8.5,1,.8,1.5.3.5.7.9,1,1.4,0,0,.4,0,.2.2-.1.2.1.2.2.3,0,0,.3.1.2.3-.3.8.3.9.6,1.3.2.4.4.8.8,1,.2.2.7.2.7.5,0,.1.4,0,0,.5-.1.1.3,0,.4,0,.2.1.2.3.4.4.2.2.3.4.5.6.1.1.4,0,.6.2.1,0,.3.2.3.4,0,.2,0,.5.1.7,0,.2.4.2.3.6-.2.6.3.8.5,1.1.2.3.4.7.7.9.2.1,0,.6,0,.8,0,0-1,1.1-1.4,1.4,0,0-.2.1-.2.1-.5.1-1.2.4-1.3.2-.2-.3-.4-.6-.6-.9Z"/>
    <path d="M390.9,329.6c-.2-.1-.5-.3-.7-.4,0,0,0-.3-.4,0-.2.2,0-.4,0-.4-.3,0-.4-.3-.6-.4-.2-.1-.6,0-.8-.2-.2-.1-.2-.5-.6-.4-.3,0-.1-.4-.3-.5-.2,0-.4-.1-.4-.4,0-.2,0-.5,0-.5-.1,0-.4.1-.4,0,0,0,0-.3-.4,0,0,0,0,0,0-.1.2-.3.2-.4-.1-.3-.3.1-.3,0-.3,0-.2-.1-.3-.3-.4-.4,0-.1,0-.4,0-.5,0-.2-.4,0-.2-.4.1-.3,0-.4,0-.5,0,0,.1-.3-.4,0,0,0,0,0,0,0,.5-.7-.5-.1-.4-.4,0-.3-.2-.4-.4-.5,0,0,0-.2-.3,0-.1,0-.2,0-.1,0,.4-.5,0-.4,0-.6,0-.2-.4-.2-.1-.6.1-.2.1-.4-.4,0-.2.2,0,0-.2,0,0,0-.3.1-.3.1,0,0,.1-.2.2-.3,0,0,0,0,0,0-.6.3-.2-.5-.5-.6-.3,0-.4-.3-.6-.5,0-.1,0-.4.6-1.3.3-.4.6-.9.9-1.1.2-.2.4-.3.5-.3.1,0,.3,0,.4,0,.3,0,.8-.3.7,0,0,.1.2,0,0,.3,0,0,0,.1,0,0,.7-.4.6.2.8.3.2.1.8-.1.8.2.6-.3.6-.1.5,0-.2.8.4.8.7,1.2.2.4.6.7.8,1,0,0,.4-.1.2.1-.1.2,0,.2.1.2,0,0,.2,0,.1.2-.3.7.2.7.4,1,.2.3.3.6.7.7.2,0,.6,0,.6.2,0,0,.3,0,0,.4-.1.1.3-.1.3-.1.1,0,.2.2.3.3.1.1.2.3.4.3.1,0,.3,0,.5,0,.1,0,.2,0,.2.2,0,.1,0,.4,0,.5,0,.1.3,0,.3.3,0,.6.3.5.4.7.2.2.4.3.6.3.1,0,0,.5.2.6,0,0-.4,1.4-.6,1.9,0,0,0,.2-.1.2-.3.4-.8.9-1,.8-.3-.2-.6-.3-.8-.5Z"/>
    <path d="M388.5,334.8c-.1,0-.2,0-.3,0,0,0,0-.2-.1.3,0,.3,0-.4,0-.3-.1,0-.2,0-.3,0-.1,0-.2.3-.4.3-.1,0-.2-.3-.3,0-.1.3-.1-.3-.2-.2-.1,0-.2.2-.2,0,0-.2,0-.4,0-.3,0,0-.2.3-.2.3,0,0,0-.3-.2.3,0,0,0,0,0-.1.1-.4,0-.4,0-.1-.1.2-.2.2-.2.2,0,0-.2,0-.3-.1,0,0,0-.3,0-.4,0,0-.2.1-.1-.2,0-.3,0-.3,0-.3,0,0,0-.3-.3.2,0,0,0,0,0,0,.3-.8-.3.1-.3-.1,0-.2-.1-.2-.2-.2,0,0,0-.2-.2.2-.1.1-.1.1,0,0,.3-.6,0-.3,0-.4,0-.2-.3,0,0-.4.1-.2.2-.3-.3.1-.2.2,0,0-.1,0,0,0-.3.2-.3.2,0,0,.1-.2.2-.3,0,0,0,0,0,0-.6.4,0-.4-.2-.3-.2,0-.3-.2-.3-.3,0,0,0-.3,1-1,.4-.3.9-.6,1.1-.8.2-.1.4-.2.5-.3,0,0,.2-.1.3-.1.2,0,.6-.4.4-.2,0,0,.2-.1-.2.2,0,0,0,0,0,0,.6-.5.3-.1.3-.1,0,0,.5-.4.4-.2.4-.4.4-.4.3-.2-.4.5,0,.3,0,.4,0,.1.1,0,.2.2,0,0,.2-.3,0,0-.1.2,0,0,0,0,0,0,0-.1,0,0-.2.6,0,.3,0,.4,0,0,0,.2.2,0,0,0,.2-.4.2-.3,0,0,.1-.3,0,.3,0,.2,0-.3.1-.3,0,0,0,0,0,0,0,0,0,0,0,0,0,0,0-.3.1-.3,0,0,0,0,0,0,0,0,0,.3,0,.4,0,0,0-.2,0,0,0,.5,0,.3.1.3,0,0,.1.1.2,0,0,0,0,.4.1.4,0,0,.2,1.5.3,2,0,0,0,.2,0,.2,0,.5,0,1.2,0,1.2-.1,0-.3,0-.4,0Z"/>
    <path d="M402.9,324.1c-.2.1-.4.2-.5.4,0,0-.3-.1,0,.4.1.2-.3-.2-.4-.2-.1.2-.4.2-.5.4-.1.2-.2.5-.3.6-.1.2-.5,0-.4.4,0,.3-.4,0-.4.2,0,.2-.2.4-.4.3-.2,0-.4-.2-.5,0,0,0,0,.4,0,.4,0,0-.3-.2,0,.4,0,0,0,0-.1,0-.3-.3-.4-.2-.3,0,0,.3,0,.3,0,.3-.1.1-.2.2-.4.3-.1,0-.4,0-.5,0-.1,0-.1.3-.4.2-.3-.2-.4-.1-.5,0,0,0-.3-.2,0,.4,0,0,0,0,0,0-.6-.6-.2.4-.5.4-.3,0-.4.2-.5.3,0,0-.2,0,0,.3,0,.1,0,.2,0,.1-.5-.4-.4,0-.6,0-.2,0-.2.3-.6,0-.2-.1-.3-.2,0,.4.1.2-.1,0-.1.2,0,0,0,.3,0,.4,0,0-.2-.1-.3-.2,0,0,0,0,0,0,.2.7-.6.1-.7.4-.1.3-.4.4-.6.5-.1,0-.4,0-1.1-.9-.3-.4-.6-.9-.8-1.2,0-.2-.2-.4-.2-.5,0-.1,0-.3,0-.4,0-.3-.1-.8.2-.7,0,0,0-.2.3.2,0,0,0,0,0,0-.3-.8.2-.5.4-.7.1-.2,0-.8.3-.7-.3-.6,0-.6.1-.5.7.3.8-.3,1.2-.4.4-.2.7-.5,1-.6,0,0,0-.4.1-.2.2.2.2,0,.2-.1,0,0,0-.2.2-.1.6.4.7-.1,1-.3.3-.1.6-.2.8-.6.1-.2,0-.6.3-.6.1,0,0-.3.4.1.1.1,0-.3,0-.3,0-.1.2-.2.3-.2.2-.1.3-.2.4-.3,0,0,0-.4,0-.5,0-.1.2-.2.3-.2.2,0,.4,0,.6,0,.2,0,.1-.4.4-.2.5.3.6,0,.9-.2.3-.1.5-.2.7-.5,0-.1.5.2.6.1,0,0,1,1.1,1.2,1.6,0,0,0,.2.1.2.1.5.4,1.1.3,1.2-.2,0-.4.3-.6.4Z"/>
    <g>
      <g>
        <g>
          <path d="M395,179.4c-.3-.5-.5-1-.9-1.4-.1-.2,0-.5-.6-.4-.3,0,.2-.5,0-.6-.3-.4-.5-.9-.8-1.3-.3-.4-.8-.7-1.1-1.1-.3-.4-.3-1-.9-1.2-.5-.2-.2-.8-.5-1.1-.3-.3-.6-.6-.6-1.1,0-.3,0-.7-.2-.9-.2-.1-.5-.1-.6-.3,0-.2,0-.5-.6-.3,0,0,0-.1,0-.2.2-.4,0-.6-.2-.6-.3,0-.4-.1-.5-.3-.3-.3-.5-.7-.7-1.1-.1-.3,0-.7-.2-1-.1-.3-.5-.5-.4-.9.1-.4,0-.7-.2-.9,0-.1,0-.5-.6-.3,0,0,0,0,0,0,.5-.8-.7-.7-.8-1.2,0-.6-.5-.9-.8-1.4,0-.1,0-.3-.5-.2-.2,0-.3,0-.2-.2.3-.7-.2-.8-.3-1.2-.1-.4-.6-.7-.4-1.3,0-.3,0-.6-.6-.5-.3,0-.2-.3-.3-.4-.1,0-.4,0-.5-.2,0,0,0-.3.1-.5,0,0,0,0,0,0-.9-.2-.5-1.2-1-1.6-.5-.4-.8-.8-1.1-1.3-.2-.2-.2-.6.3-1.6.3-.5.6-.9.9-1,.2-.1.5-.2.7-.1.2,0,.5.2.7.3.5.2,1.2.3,1.3.8,0,.2.4.1,0,.5,0,0,0,.1,0,.1,1,0,1,.9,1.3,1.4.3.4,1.1.5,1.1,1.1.7,0,.8.3.7.6,0,1.2.9,1.8,1.3,2.8.4.9,1.1,1.8,1.6,2.7,0,.2.5,0,.3.4-.1.3.2.4.3.6.1.2.3.3.3.5-.2,1,.6,1.5,1,2.2.4.7.7,1.4,1.3,2,.3.4.9.6,1,1.1,0,.2.5.2,0,.7-.1.1.4,0,.5.2.2.3.4.6.5.9.2.4.4.8.7,1.2.2.2.5.3.7.6.2.2.4.5.5.8.1.4.1.8.3,1.1.1.4.6.6.5,1,0,.9.5,1.3.8,1.9.3.6.6,1.2,1.1,1.8.3.3,0,.9.2,1.2,0,.2-1,1.1-1.5,1.3,0,0-.2,0-.2,0-.6,0-1.4,0-1.6-.4-.3-.6-.6-1.1-1-1.6Z"/>
          <path d="M336.7,164.3c-.1.8-.4,1.5-.4,2.3,0,.3-.3.5.1.9.2.2-.4.4-.5.6,0,.7-.3,1.4-.3,2.2,0,.7,0,1.4,0,2.1,0,.7-.4,1.4-.2,2.1.2.6-.3,1.1-.3,1.6,0,.6,0,1.2-.2,1.8-.2.4-.5.8-.4,1.2,0,.3.3.5.3.8,0,.3-.3.5.3.8,0,0,0,.1-.2.2-.4.3-.4.6-.2.9.3.3.2.5.2.7,0,.6,0,1.2-.1,1.8,0,.4-.3.9-.4,1.3,0,.5.2,1-.2,1.4-.3.4-.3.8-.4,1.3,0,.2-.3.5.3.7,0,0,0,.1,0,.2-.9.6.2,1.4,0,2.1-.2.7-.1,1.5-.1,2.2,0,.2-.2.4.3.6.2,0,.2.3,0,.4-.6.5-.3,1.1-.4,1.7-.1.6.1,1.3-.4,1.9-.2.3-.3.6.2,1,.3.2,0,.5,0,.7,0,.2.3.4.3.6,0,.2-.2.3-.4.5,0,0,0,.1,0,.2.6.9-.3,1.8-.1,2.8.2.9,0,1.9,0,2.8,0,.5-.3,1.1-1.4,1.4-.5.1-1.1.1-1.4,0-.2-.2-.5-.4-.5-.5-.1-.3-.2-.6-.3-.9-.2-.6-.7-1.2-.4-1.8,0-.2-.2-.4.3-.6,0,0,.1,0,0-.1-.8-.8-.2-1.7-.3-2.6,0-.7-.6-1.4-.4-2.2-.6-.4-.5-.9-.3-1.3.7-1.4.3-2.9.5-4.3.1-1.4.1-2.9.2-4.4,0-.2-.3-.5,0-.8.3-.3,0-.6.1-.9,0-.3-.1-.6,0-.9.7-1.1.4-2.3.6-3.4.2-1.1.3-2.3.3-3.4,0-.7-.3-1.4-.1-2.1,0-.3-.2-.6.4-.9.2,0-.2-.4-.2-.6,0-.5,0-1,.1-1.4,0-.7.2-1.3.2-2,0-.4-.2-.8-.2-1.3,0-.4,0-.9.2-1.3.2-.5.4-1,.6-1.5.1-.5,0-1.2.3-1.6.7-.9.6-1.9.8-2.9.3-1,.5-1.9.6-2.9,0-.6.7-.9.8-1.5,0-.3,1.6-.2,2,0,0,0,.2.1.2.2.3.6.9,1.2.8,1.8-.3.8-.4,1.7-.6,2.6Z"/>
          <path d="M378.8,181.6c.3,0,.7-.1,1-.3.1,0,.3.2.3-.4,0-.3.3.3.4.3.3-.2.6-.1.9-.3.3-.1.6-.4.9-.6.3-.1.7,0,.9-.3.2-.3.5.1.8,0,.2-.2.5-.3.8-.1.2.1.5.3.6.2.1,0,.2-.4.3-.4.1,0,.3.2.3-.4,0,0,0,0,.1.1.2.4.4.3.4,0,0-.3.2-.3.3-.3.3,0,.5-.2.8-.1.2,0,.4.2.7.2.2,0,.4-.3.6,0,.2.3.4.2.6.2.1,0,.3.3.3-.4,0,0,0,0,0,0,.4.8.6-.3.9-.2.4.2.7,0,1,0,0,0,.2.2.2-.3,0-.2,0-.2.2,0,.3.6.5.2.8.3.3,0,.6-.2.9.2.1.2.3.3.4-.3,0-.3.2,0,.3,0,0,0,.1-.3.2-.4,0,0,.2.2.2.3,0,0,0,0,0,0,.4-.7.8.2,1.3,0,.4-.2.8-.2,1.3-.1.2,0,.5.2.7,1.3.1.5.1,1.1,0,1.4,0,.2-.1.5-.2.5-.1.1-.2.2-.4.4-.2.2-.5.8-.8.5,0,0-.2.2-.3-.3,0,0,0-.1,0,0-.3.8-.7.3-1.1.4-.3,0-.5.7-.9.5-.1.6-.3.6-.5.4-.7-.6-1.2,0-1.8,0-.6,0-1.2.2-1.8.2-.1,0-.1.4-.3.1-.2-.2-.3,0-.4,0-.1,0-.2.2-.4,0-.6-.6-1-.1-1.5,0-.5,0-1,0-1.4.3-.3.2-.5.5-.8.5-.1,0-.2.3-.4-.2,0-.2,0,.3-.2.3-.2,0-.4,0-.6.1-.3,0-.6,0-.8.2-.2,0-.3.3-.4.4-.2.1-.3.1-.5.1-.2,0-.5-.2-.7-.2-.2,0-.4.3-.7.1-.5-.4-.9,0-1.3,0-.4,0-.8.1-1.2.3-.2.1-.6-.3-.8-.2-.1,0-.6-1.3-.7-1.8,0,0,0-.2,0-.2,0-.5.1-1.3.4-1.3.4,0,.8-.2,1.2-.3Z"/>
        </g>
        <path d="M369.3,212.7c.2-.5.4-1,.5-1.5,0-.2.4-.3,0-.7-.2-.2.4-.2.5-.3,0-.5.3-.9.4-1.4,0-.5,0-1,.1-1.5,0-.5.5-.9.4-1.4-.1-.5.4-.7.4-1.1,0-.4,0-.8.4-1.2.2-.2.5-.4.5-.7,0-.2-.3-.4-.2-.6,0-.2.4-.3-.2-.6,0,0,0,0,.2,0,.4,0,.5-.3.3-.5-.2-.2-.1-.4-.1-.5,0-.4.2-.8.3-1.2.1-.3.4-.5.6-.8.1-.3,0-.7.3-.9.4-.2.4-.5.5-.8,0-.2.4-.3-.2-.6,0,0,0,0,0,0,.9-.3,0-1,.3-1.4.3-.4.3-.9.4-1.4,0-.1.2-.2-.2-.4-.1,0-.1-.2,0-.3.7-.2.4-.7.6-1,.2-.4,0-.9.6-1.2.2-.1.4-.4-.1-.7-.2-.2,0-.3,0-.5,0-.1-.3-.3-.3-.4,0-.1.3-.2.4-.3,0,0,0,0,0-.1-.5-.7.4-1.2.4-1.8,0-.7.1-1.3.3-1.9.1-.3.3-.7,1.5-.7.5,0,1.1,0,1.4.3.2.1.4.3.5.4,0,.2.2.4.2.7.1.4.6.9.2,1.3-.1.1.2.3-.4.3,0,0-.1,0,0,0,.7.7,0,1.2,0,1.8,0,.5.5,1.1.1,1.5.6.4.4.7.2.9-.9.8-.6,1.9-.9,2.8-.3,1-.4,2-.7,2.9,0,.2.3.4,0,.5-.3.1-.2.4-.2.6,0,.2,0,.4-.2.6-.8.6-.6,1.5-.9,2.2-.3.7-.5,1.5-.6,2.3,0,.5.2,1,0,1.5-.1.2.2.5-.5.5-.2,0,.2.3.2.5,0,.3-.2.6-.3.9-.1.4-.3.9-.4,1.3,0,.3.1.6,0,.9,0,.3-.1.6-.3.8-.2.3-.5.6-.7.9-.2.3,0,.8-.4,1.1-.7.5-.7,1.2-1,1.8-.3.6-.6,1.2-.7,1.9,0,.4-.7.5-.8.9,0,.2-1.5-.2-2-.4,0,0-.2-.1-.2-.1-.3-.5-.9-1.1-.7-1.4.3-.5.4-1.1.7-1.7Z"/>
        <path d="M367.2,196.7c-.3,0-.5,0-.8,0,0,0-.2-.2-.3.3,0,.3-.2-.4-.2-.3-.2,0-.5,0-.7,0-.2,0-.5.3-.8.3-.3,0-.5-.3-.8,0-.3.2-.4-.3-.6-.2-.2,0-.5,0-.6-.2,0-.2-.2-.5-.3-.4-.1,0-.3.3-.4.2,0,0,0-.4-.4.2,0,0,0,0,0-.2,0-.4,0-.5-.3-.3-.2.2-.3.1-.4,0-.2-.1-.4-.2-.6-.4-.1-.2-.1-.5-.2-.6,0-.2-.5-.1-.4-.5.1-.3,0-.4-.1-.6,0,0,.1-.3-.4,0,0,0,0,0,0,0,.5-.7-.5-.3-.5-.7,0-.4-.2-.5-.4-.8,0,0,.1-.2-.3-.1-.2,0-.2,0-.1-.1.5-.4,0-.5.1-.8,0-.3-.3-.5.2-.8.2-.1.3-.3-.3-.4-.3,0,0-.2,0-.3,0,0-.3-.2-.3-.2,0,0,.2-.1.3-.2,0,0,0,0,0,0-.6-.5.3-.8.2-1.2,0-.5.2-.9.5-1.2.2-.2.5-.3,1.5.2.5.3.9.6,1.1.8.2.2.3.3.4.4,0,0,.1.2.2.3.1.2.6.4.3.4,0,0,.2.1-.3,0,0,0-.1,0,0,0,.7.3.2.3.3.4,0,.1.7.2.4.3.6,0,.5,0,.3.1-.6.3-.1.4-.1.6,0,.2.2.4.3.6,0,0,.3-.2.1,0-.2.2,0,.1,0,.1,0,0,.2,0,0,.1-.3.6,0,.4.2.6.1.2.3.3.6.3.2,0,.4-.3.5-.1,0,0,.2-.2,0,.3,0,.2.2-.3.2-.3,0,0,.2,0,.3,0,.1,0,.2,0,.4,0,0,0,.2-.3.3-.3,0,0,.2,0,.2,0,0,0,.2.3.3.4.1,0,.2-.2.3,0,.2.5.4.2.7.3.2,0,.5,0,.7-.1.1,0,.3.4.5.3,0,0,.5,1.4.6,1.9,0,0,0,.2,0,.2,0,.5,0,1.2-.3,1.2-.3,0-.6,0-.9.1Z"/>
      </g>
      <path d="M370.1,168.1c0,1-.1,2.1-.2,3.3,0,.4-.4.8,0,1.3.2.3-.5.6-.6.9-.2,1.1-.8,2.1-1.4,3.1-.6,1-1.2,2-2.2,2.7-.9.8-2.1,1-3.1,1.6-.9.6-1.9.2-2.8.4-1,.2-2,.1-2.9-.3-.6-.3-1.2-.7-1.8-.9-.4,0-.9,0-1.3-.2-.4-.2-.6-.7-1.3-.4,0,0-.2-.2-.2-.3-.1-.6-.6-.9-1-1-.5,0-.7-.3-.9-.6-.7-.7-1.3-1.5-1.7-2.4-.3-.7-.4-1.4-.6-2.1-.2-.7-.7-1.4-.5-2.1.2-.7,0-1.3,0-1.9,0-.4.2-.8-.4-1,0,0,0-.2,0-.2.8-1-.3-2,0-3,.3-1,.4-2.1.7-3.2,0-.2.1-.2.2-.4,0-.2,0-.5,0-.8-.1-.2,0-.7.3-.9.6-.4,1.1-.8,1.7-1.1.5-.3,1.2-.5,1.8-.6.9,0,1.7-.5,2.7,0,.4.2.9.2,1.3-.4.2-.3.6,0,1-.1.3,0,.5-.3.8-.3.2,0,.5.2.7.4,0,0,.2,0,.2,0,1.4-.6,2.6.4,3.9.5,1.4,0,2.7.5,3.9,1.2.7.3,1.3.9,1.2,2.1,0,.6-.4,1-.8,1.2-.3.1-.6.2-.8.2-.4,0-.7,0-1.1-.1-.7,0-1.5.2-2.2-.2-.2-.1-.5,0-.6-.4,0,0,0-.1-.1-.1-1.1.6-2,0-3,0-.9,0-1.7.6-2.5.4-.4.6-1,.6-1.5.4-.4-.1-.9-.2-1.3-.1-.2,0-.4,0-.6,0h-.3c0,0,0,0,0,0,0,0-.2,0-.2.2,0,0,0,0,0,.1,0,0,0,0,0,.2-.6,1.5-.7,3.2-.7,4.8,0,.3.4.5.1.8-.2.3,0,.7,0,1,0,.3.3.6.2.9-.3,1.4.6,2.4,1.2,3.4.6,1,1.5,1.9,2.7,2.3.7.3,1.5.2,2.1.5.3.1.6-.1.8.5,0,.2.4-.2.6-.3.4,0,.9,0,1.3-.1.6-.1,1.2-.3,1.7-.6.3-.2.5-.6.7-.9.2-.3.5-.5.8-.8.3-.3.8-.6,1.1-1,.3-.5.2-1.1.6-1.6.7-.9.6-2.1.7-3.3.1-1.2.1-2.5,0-3.8,0-.8.5-1.4.6-2.2,0-.4,1.6-.6,2-.3,0,0,.2.1.2.2.4.7,1,1.3.9,2.1-.1,1.1,0,2.2-.1,3.4Z"/>
      <path d="M363.6,167.6c0,.3,0,.6,0,1,0,.1-.3.2.3.4.3.1-.4.1-.4.2,0,.3-.2.6-.2.9,0,.3,0,.7,0,1-.1.4-.6.5-.5,1,0,.4-.5.3-.7.6-.1.3-.4.6-.7.5-.3,0-.5-.1-.6,0,0,.1,0,.5-.2.5-.1,0-.3-.2-.3.5,0,0,0,0-.1-.1-.2-.4-.4-.3-.4,0,0,.3-.2.3-.3.3-.3,0-.6.2-.9.1-.2,0-.4-.3-.6-.4-.2,0-.5.1-.6-.2,0-.3-.2-.4-.3-.4h-.1c0-.1,0-.4-.4,0,0,0,0,0,0,0,.2-.9-.6-.2-.7-.6,0-.4-.4-.6-.6-.9,0,0,0-.3-.4,0-.1,0-.2,0-.1-.1.4-.6,0-.7,0-1,0-.3-.4-.6,0-1,.2-.2.3-.4-.3-.4-.3,0,0-.2,0-.3,0,0-.3-.2-.3-.3,0,0,.2-.2.3-.2,0,0,0,0,0,0-.7-.4.3-.8.2-1.2-.1-.4,0-.8.3-1.2.1-.2.4-.3,1.5,0,.5.2,1,.4,1.2.6.2.1.4.3.4.3,0,0,.2.2.2.3.1.2.6.4.3.4,0,0,.2.1-.3,0,0,0-.1,0,0,0,.8.3.2.3.3.5,0,0,.2.1.3.2.1,0,.2,0,0,0,.6,0,.5,0,.3,0-.3.1-.4.2-.3.2,0,0,.1,0,0,0,0,.1,0,.1,0,.2,0,0,.2-.4,0,0,0,.2,0,.2,0,.1,0,0,0,0,0,0,0,0,0-.2,0,0-.1.8.1.3.2.4,0,0,.2,0,.3-.1,0-.1,0-.5,0-.4,0,0-.1-.3.2.2.1.1-.1-.3-.1-.3,0,0,0,0,0,0,0,0,0,0,0,0,0,0-.2-.2-.3-.2,0,0,0,0,0,0,0,0,.3,0,.4,0,0,0-.2-.2.1-.2.5,0,.3-.3.3-.4,0-.1,0-.3,0-.4,0,0,.4-.3.3-.4,0,0,.3-.2.7-.4.4-.2.8-.4,1.1-.5,0,0,.2,0,.2,0,.5,0,1.3,0,1.3.2,0,.4.2.7.2,1.1Z"/>
      <path d="M390.7,169.1c0,1-.1,2.1-.2,3.3,0,.4-.4.8,0,1.3.2.3-.5.6-.6.9-.2,1.1-.8,2.1-1.4,3.1-.6,1-1.2,2-2.2,2.7-.9.8-2.1,1-3.1,1.6-.9.6-1.9.2-2.8.4-1,.2-2,.1-2.9-.3-.6-.3-1.2-.7-1.8-.9-.4,0-.9,0-1.3-.2-.4-.2-.6-.7-1.3-.4,0,0-.2-.2-.2-.3-.1-.6-.6-.9-1-1-.5,0-.7-.3-.9-.6-.7-.7-1.3-1.5-1.7-2.4-.3-.7-.4-1.4-.6-2.1-.2-.7-.7-1.4-.5-2.1.2-.7,0-1.3,0-1.9,0-.4.2-.8-.4-1,0,0,0-.2,0-.2.8-1-.3-2,0-3,.3-1,.4-2.1.7-3.2,0-.2.1-.2.2-.4,0-.2,0-.5,0-.8-.1-.2,0-.7.3-.9.6-.4,1.1-.8,1.7-1.1.5-.3,1.2-.5,1.8-.6.9,0,1.7-.5,2.7,0,.4.2.9.2,1.3-.4.2-.3.6,0,1-.1.3,0,.5-.3.8-.3.2,0,.5.2.7.4,0,0,.2,0,.2,0,1.4-.6,2.6.4,3.9.5,1.4,0,2.7.5,3.9,1.2.7.3,1.3.9,1.2,2.1,0,.6-.4,1-.8,1.2-.3.1-.6.2-.8.2-.4,0-.7,0-1.1-.1-.7,0-1.5.2-2.2-.2-.2-.1-.5,0-.6-.4,0,0,0-.1-.1-.1-1.1.6-2,0-3,0-.9,0-1.7.6-2.5.4-.4.6-1,.6-1.5.4-.4-.1-.9-.2-1.3-.1-.2,0-.4,0-.6,0h-.3c0,0,0,0,0,0,0,0-.2,0-.2.2,0,0,0,0,0,.1,0,0,0,0,0,.2-.6,1.5-.7,3.2-.7,4.8,0,.3.4.5.1.8-.2.3,0,.7,0,1,0,.3.3.6.2.9-.3,1.4.6,2.4,1.2,3.4.6,1,1.5,1.9,2.7,2.3.7.3,1.5.2,2.1.5.3.1.6-.1.8.5,0,.2.4-.2.6-.3.4,0,.9,0,1.3-.1.6-.1,1.2-.3,1.7-.6.3-.2.5-.6.7-.9.2-.3.5-.5.8-.8.3-.3.8-.6,1.1-1,.3-.5.2-1.1.6-1.6.7-.9.6-2.1.7-3.3.1-1.2.1-2.5,0-3.8,0-.8.5-1.4.6-2.2,0-.4,1.6-.6,2-.3,0,0,.2.1.2.2.4.7,1,1.3.9,2.1-.1,1.1,0,2.2-.1,3.4Z"/>
      <path d="M384.2,168.6c0,.3,0,.6,0,1,0,.1-.3.2.3.4.3.1-.4.1-.4.2,0,.3-.2.6-.2.9,0,.3,0,.7,0,1-.1.4-.6.5-.5,1,0,.4-.5.3-.7.6-.1.3-.4.6-.7.5-.3,0-.5-.1-.6,0,0,.1,0,.5-.2.5-.1,0-.3-.2-.3.5,0,0,0,0-.1-.1-.2-.4-.4-.3-.4,0,0,.3-.2.3-.3.3-.3,0-.6.2-.9.1-.2,0-.4-.3-.6-.4-.2,0-.5.1-.6-.2,0-.3-.2-.4-.3-.4h-.1c0-.1,0-.4-.4,0,0,0,0,0,0,0,.2-.9-.6-.2-.7-.6,0-.4-.4-.6-.6-.9,0,0,0-.3-.4,0-.1,0-.2,0-.1-.1.4-.6,0-.7,0-1,0-.3-.4-.6,0-1,.2-.2.3-.4-.3-.4-.3,0,0-.2,0-.3,0,0-.3-.2-.3-.3,0,0,.2-.2.3-.2,0,0,0,0,0,0-.7-.4.3-.8.2-1.2-.1-.4,0-.8.3-1.2.1-.2.4-.3,1.5,0,.5.2,1,.4,1.2.6.2.1.4.3.4.3,0,0,.2.2.2.3.1.2.6.4.3.4,0,0,.2.1-.3,0,0,0-.1,0,0,0,.8.3.2.3.3.5,0,0,.2.1.3.2.1,0,.2,0,0,0,.6,0,.5,0,.3,0-.3.1-.4.2-.3.2,0,0,.1,0,0,0,0,.1,0,.1,0,.2,0,0,.2-.4,0,0,0,.2,0,.2,0,.1,0,0,0,0,0,0,0,0,0-.2,0,0-.1.8.1.3.2.4,0,0,.2,0,.3-.1,0-.1,0-.5,0-.4,0,0-.1-.3.2.2.1.1-.1-.3-.1-.3,0,0,0,0,0,0,0,0,0,0,0,0,0,0-.2-.2-.3-.2,0,0,0,0,0,0,0,0,.3,0,.4,0,0,0-.2-.2.1-.2.5,0,.3-.3.3-.4,0-.1,0-.3,0-.4,0,0,.4-.3.3-.4,0,0,.3-.2.7-.4.4-.2.8-.4,1.1-.5,0,0,.2,0,.2,0,.5,0,1.3,0,1.3.2,0,.4.2.7.2,1.1Z"/>
      <path d="M340.8,189.6c-.5-.3-1-.7-1.5-1-.2-.1-.2-.5-.7-.2-.3.1,0-.5-.2-.6-.5-.3-.8-.8-1.3-1.2-.4-.4-1-.6-1.4-1-.4-.4-.5-1-1.1-1.3-.5-.2-.3-.9-.7-1.2-.4-.3-.7-.7-.7-1.2,0-.4,0-.8-.2-1-.2-.2-.5-.2-.6-.5,0-.2,0-.5-.6-.5,0,0,0-.1,0-.2.3-.4.2-.6-.1-.8-.3-.1-.3-.3-.4-.5-.2-.5-.2-1.1-.2-1.8,0-.5.3-.9.4-1.3.1-.4,0-1,.4-1.4.4-.3.6-.7.8-1,.1-.2.5-.3,0-.8,0,0,0-.1,0-.1.5,0,.7-.3.8-.7.1-.3.2-.7.5-.9.7-.3,1.2-.8,1.8-1.2.2,0,.4,0,.4-.5,0-.2.2-.3.3-.2.7.4,1.1,0,1.7,0,.6,0,1.2-.3,1.8.2.2.2.5.4.9-.2.2-.2.4,0,.7,0,.2,0,.4-.2.6-.2.2,0,.3.3.4.5,0,0,0,0,.2,0,.6-.1,1,.1,1.4.5.4.4.6.8,1,1,.8.5,1.5,1.6,1.7,2.8.1.7,0,1.5-1.3,1.6-.5,0-1.1,0-1.4-.2-.2-.1-.4-.2-.5-.3,0-.1-.2-.2-.4-.3-.3-.2-.8,0-.7-.4,0-.1-.3,0,0-.4,0,0,0-.1,0,0-.4.1-.6,0-.7,0-.1-.1-.3-.3-.4-.4-.3,0-.8.4-1.1.1-.3.6-.4.5-.6.3-.3-.3-.7-.4-1-.3-.3,0-.6.3-.9.4-.6.2-1.1.7-1.5,1.2,0,0,.2.4-.1.3-.3,0-.2.2-.2.3,0,.1,0,.3-.1.3-.4.1-.5.4-.5.7,0,.3,0,.6,0,.9,0,.6.1,1.2.5,1.8.2.3.7.6.8,1,0,.2.4.2,0,.6-.1.1.4,0,.4.1.2.2.3.5.5.8.2.3.4.7.7,1,.2.2.5.2.7.4.2.2.4.3.5.6.2.3.2.7.4.9.2.3.7.3.7.7.1.8.8,1,1.3,1.3.5.4,1,.7,1.6.9.3,0,.4.7.7.8.1,0-.2,1.5-.4,2,0,0-.1.2-.2.2-.5.3-1.2.8-1.6.6-.6-.4-1.3-.7-1.9-1Z"/>
      <path d="M349.7,173.2c0,0-.1,0-.2,0,0,0,0-.2,0,.3,0,.3,0-.4-.1-.3,0,0-.1,0-.2,0,0,0,0,.3-.1.4,0,0-.2-.2-.2.1,0,.3-.1-.2-.2,0,0,.1,0,.2-.1,0,0-.2-.1-.4-.1-.3,0,0,0,.4,0,.4,0,0,0-.3,0,.3,0,0,0,0,0-.1,0-.4-.1-.4,0,0,0,.3,0,.2,0,.3,0,0,0,0-.1,0,0,0-.1-.3-.2-.3,0,0,0,.2-.1,0,0-.3-.1-.3-.1-.3,0,0,0-.3,0,.4,0,0,0,0,0,0-.2-.8,0,.3-.2,0,0-.2-.1,0-.2,0,0,0,0-.2,0,.3,0,.2,0,.2,0,0-.1-.6-.1-.2-.2-.3,0-.1,0,.2-.2-.3,0-.2-.1-.3,0,.3,0,.3,0,0,0,0,0,0,0,.3,0,.3,0,0,0-.2,0-.3,0,0,0,0,0,0,0,.7-.2-.2-.2,0,0,.2-.1.1-.2,0,0,0-.1-.2-.3-1.3,0-.5-.2-1.1-.2-1.4,0-.2,0-.5,0-.5,0,0,0-.2,0-.3,0-.2,0-.7,0-.5,0,0,0-.2,0,.3,0,0,0,.1,0,0,0-.8,0-.3.1-.4,0,0,0-.7.1-.4,0-.6,0-.5,0-.3.2.6.3.2.4.3.1,0,.2,0,.4,0,0,0,0-.4,0,0,0,.3,0,0,0,0,0,0,0-.1,0,0,.2.6.2.2.3.3.1,0,.2.1.3,0,0-.1,0-.5.1-.3,0,0,0-.3.1.3,0,.2,0-.3,0-.3,0,0,0,0,.1,0,0,0,.1,0,.2,0,0,0,0-.3,0-.4,0,0,0,0,.1,0,0,0,.1.3.2.3,0,0,0-.2.1,0,.2.5.2.2.3.3,0,0,.2,0,.2,0,0,0,.2.4.2.4,0,0,.3,1.4.4,1.9,0,0,0,.2,0,.2,0,.5.1,1.2,0,1.1,0,0-.1,0-.2,0Z"/>
      <path d="M353.8,152.2c0,.3-.2.7-.2,1,0,.1-.3.2.2.4.2.1-.4.1-.4.2,0,.3-.2.6-.2,1,0,.3.1.7.1,1,0,.3-.4.6-.2.9.2.3-.3.4-.3.7,0,.3,0,.6-.3.8-.2.1-.5.3-.4.5,0,.1.3.3.2.5,0,.1-.4.2.2.5,0,0,0,0-.2,0-.4,0-.5.1-.2.4.2.2.2.3.1.4,0,.3-.1.6-.3.8-.1.2-.4.3-.6.5-.1.2,0,.5-.3.6-.4,0-.4.2-.5.4,0,.1-.4,0,.2.5,0,0,0,0,0,0-.9-.1,0,.7-.4.9-.4.2-.4.6-.6.9,0,0-.3,0,0,.4.1.1,0,.2,0,.2-.7-.1-.5.3-.8.5-.3.2-.2.6-.8.5-.2,0-.4,0,0,.5.2.2-.1.2-.2.3,0,.1.1.4,0,.4,0,0-.3,0-.4,0,0,0,0,0,0,0,.2.8-.8.5-1,.9-.2.4-.6.7-1.1.9-.2.1-.6.1-1.4-.7-.4-.4-.7-.8-.8-1.2,0-.2-.2-.5-.1-.6,0-.1,0-.3,0-.5,0-.3,0-.8.3-.8.1,0,0-.3.4,0,0,0,.1,0,0,0-.3-.8.3-.6.5-.9.2-.2-.1-.8.2-.9-.4-.5-.2-.6,0-.6.9,0,.8-.7,1.2-1.1.4-.4.6-.9.9-1.4,0,0-.2-.3,0-.3.3,0,.2-.2.2-.3,0-.1,0-.3.2-.3.8-.1.6-.7.8-1.1.2-.4.5-.8.4-1.3,0-.3-.3-.7,0-.9,0,0-.2-.3.4-.3.2,0-.2-.2-.2-.3,0-.2,0-.4.1-.6,0-.3.2-.5.2-.8,0-.2-.2-.4-.2-.6,0-.2,0-.3.1-.5.1-.2.4-.4.5-.6.1-.2-.1-.5.2-.7.6-.3.4-.8.5-1.1,0-.2.1-.4.2-.6,0-.1,0-.2,0-.3v-.2s0,0,0,0c.1,0,.6,0,.9,0,.3,0,.5-.1.6-.2,0,0,0,0,0,0h0s0,0,0,0h0c0-.2,0-.3.1-.4,0-.2.1-.4.2-.5,0,0,.1-.2.2-.2.4,0,1,.1,1.3.4.3.3.5.6.5.9,0,.2,0,.4,0,.6,0,0,0,.2,0,.3v.6Z"/>
      <path d="M330.3,135.4c0,.4.1.8.3,1.2,0,.1-.1.4.4.4.3,0-.3.3-.2.5.2.4.3.8.5,1.2.2.4.6.7.9,1.1.2.4.2.9.7,1.2.4.2.1.8.4,1.1.3.3.5.7.5,1.2,0,.3-.2.7,0,1,.1.2.5.2.5.4,0,.2-.2.5.5.5,0,0,0,.1-.1.2-.3.3-.3.6,0,.7.3.1.3.3.3.5.1.5.2.9.2,1.5,0,.4-.3.8-.3,1.1,0,.4.2.9-.2,1.2-.4.3-.4.6-.5,1,0,.2-.4.3.1.7,0,0,0,.1,0,.1-.5.1-.6.4-.6.7,0,.3,0,.7-.2.9-.5.3-.7.8-.8,1.1,0,0-.2,0,.1.3.1,0,.1.1,0,.1-.6-.1-.3,0-.4,0-.1,0,.2.1-.2.4-.2.1-.2.4.4.2.3,0,0,.2.2.2,0,0,.4,0,.4,0,0,0-.1.2-.2.4,0,0,0,0,0,0,.8,0,.4.9.9,1.2.5.2.7.5.7.6,0,0,0,.3,0,1.4,0,.5,0,1-.1,1.4-.1.3-.3.5-.5.5-.3,0-.6.1-.9,0-.6,0-1.4,0-1.6-.6,0-.2-.4,0-.1-.5,0,0,0-.1,0-.1-1,0-1-.7-1.4-1.2-.4-.4-1.2-.5-1.3-1.2-.7,0-.8-.6-.8-1,.1-.8,0-1.6.2-2.4,0-.8.4-1.6.7-2.1.4-.5.7-.9.9-1.2.2-.3.3-.5.5-.8,0,0-.3-.3,0-.3.3,0,.1-.2.2-.4,0-.1,0-.3,0-.4.7-.4.3-1.1.3-1.7,0-.6,0-1.2-.4-1.8-.2-.3-.7-.6-.7-1,0-.2-.4-.2,0-.6.1-.1-.3,0-.4-.2-.2-.2-.2-.5-.4-.8-.2-.4-.3-.8-.6-1.1-.1-.2-.5-.4-.6-.6-.2-.2-.3-.5-.4-.8,0-.4,0-.8-.1-1.2,0-.4-.5-.7-.3-1.1.3-.8-.2-1.4-.2-2.2,0-.7,0-1.5-.2-2.3,0-.5.5-.8.6-1.2,0-.2,1.5-.1,2,0,0,0,.2,0,.2.1.4.4,1.1.7,1,1,0,.4,0,.9,0,1.3Z"/>
      <path d="M386.8,139.7c0,.2,0,.5-.2.7,0,.2-.1.4-.2.6,0,.1-.3.1,0,.5.2.2-.4,0-.4,0,0,.3-.3.4-.3.6,0,.2.2.4.2.5,0,.1-.3.2,0,.4.3.1-.2.2-.1.4.1.2.2.3,0,.5-.2.1-.4.3-.3.4,0,0,.4.1.4.2,0,0-.3.2.4.2,0,0,0,0-.1,0-.4.1-.4.2,0,.3.3,0,.3.1.3.2,0,.2.1.4,0,.6,0,.2-.2.4-.3.5,0,.2.3.3,0,.5-.3.2-.3.4-.2.5,0,0-.3.2.4.3,0,0,0,0,0,0-.8.3.3.6,0,.9-.2.3-.1.7-.2,1,0,0-.2.2.2.3.2,0,.1.2,0,.2-.7.1-.4.5-.6.8-.2.3-.2.7-.8.8-.3,0-.4,0,0,.6.2.2-.2.2-.2.3,0,.1,0,.4,0,.5,0,0-.3,0-.4,0,0,0,0,0,0,0,0,.4-.2.6-.5.6-.3,0-.6,0-.8.2-.5.4-1.2.5-1.7.4-.3,0-.7-.3-.7-1.4,0-.5,0-1.1.2-1.4,0-.2.1-.4.2-.5,0,0,.1-.2.2-.3.1-.2,0-.7.2-.5,0,0,0-.2.2.3,0,0,0,0,0,0-.2-.8,0-.3.2-.5,0-.1-.3-.6,0-.5-.5-.4-.4-.4-.2-.3.7.2.3-.2.5-.5.1-.3,0-.6.1-1,0,0-.4-.1,0-.2.3,0,0-.2,0-.3,0,0-.1-.2,0-.3.6-.4.2-.7.2-1.1,0-.4,0-.8-.2-1.2-.1-.3-.5-.5-.4-.8,0-.1-.3-.3.3-.4.2,0-.3-.2-.3-.2,0-.2,0-.4,0-.6,0-.3.1-.6.1-.9,0-.2-.2-.5-.2-.7,0-.2,0-.5.2-.6.2-.2.5-.4.6-.5.2-.2,0-.5.3-.5.6,0,.4-.3.5-.3,0,0,0,0,0,0,0,0,0,0,0,0,0,0,.2,0,.3,0,.2,0,.3-.1.3-.2,0,0,0,0,0,0,0,0,0,0,0,0,0,0,0,0,0,0,0,0,.1-.2.2-.2.3-.3.6-.7.7-.9,0,0,.2-.1.2-.1.5-.2,1.4-.2,1.6.3.2.7.3,1.3.2,1.9Z"/>
      <path d="M340.1,138.2c-.2-.4-.4-.8-.6-1.1,0-.1.1-.4-.4-.3-.3,0,.3-.3.2-.5-.2-.3-.2-.7-.3-1-.1-.3-.4-.6-.5-1,0,0,0,0,0-.1,0,0,0,0,0,0h0c0-.1,0-.2-.1-.1-.3.1.2-.2,0-.2-.1,0-.2.1,0-.2,0,0,.1-.2.2-.3,0-.1,0-.1,0,0,0,0-.3.4-.3.4,0,0,.1-.3-.2.4,0,0,0,0,0-.2.2-.4.1-.4,0-.1-.1.3,0,.3,0,.3,0,0,0,0,0,0,0,0,0,0,0-.2,0,0-.2-.1-.3-.1-.2,0-.4.3-.6,0-.2-.3-.4-.2-.6-.2,0,0-.3-.2-.2.4,0,0,0,0,0,0-.4-.8-.5.4-.8.2-.3-.1-.6,0-.9.2,0,0-.2-.1-.2.3,0,.2,0,.2-.1,0-.4-.6-.5-.1-.8-.2-.3,0-.5.3-.8-.1-.2-.2-.3-.2-.3.4,0,.3-.2,0-.3.1,0,0,0,.4-.1.4,0,0-.2-.2-.3-.3,0,0,0,0,0,0-.2.7-.8,0-1.1.3-.3.3-.7.3-1.1.4-.2,0-.5,0-1-1.1-.2-.5-.4-1-.4-1.3,0-.3,0-.5,0-.6,0-.1.2-.3.3-.4.2-.3.3-.9.6-.7.1,0,.1-.3.3.2,0,0,0,0,0,0,.1-.9.6-.5,1-.6.3-.1.4-.8.8-.6,0-.7.2-.6.5-.5.8.5,1.3,0,1.9-.1.7,0,1.3-.3,1.9-.3.1,0,.1-.4.3-.1.2.2.3,0,.4,0,.1,0,.2-.2.4,0,.3.3.6.3.8.3.3,0,.8-.2,1.2-.2.8,0,1.5,0,2.4-.3.4-.1,1-.4,1.4-.5,0,.1,0,.2,0,.4,0,.3.3.2-.2,1-.1.2.3,0,.3.2,0,.3,0,.7.1,1.1,0,.5,0,1.1.2,1.5,0,.1.1.3.2.4,0,0,.2.1.2.2,0,.1.1.3,0,.4,0,.2-.2.4-.2.6,0,.2.3.3.1.6-.4.5,0,.7,0,1,0,.3.2.6.5.8.2,0-.1.5,0,.7,0,0-.9,1.2-1.3,1.5,0,0-.2.1-.2.1-.5.2-1.2.5-1.4.1-.3-.4-.6-.8-.8-1.2Z"/>
      <path d="M349.9,141.6c-.1-.4-.1-.8-.2-1.2,0-.1.2-.3-.3-.4-.3-.1.4-.2.4-.3,0-.3.1-.5,0-.8,0-.2-.2-.5-.2-.6,0-.1.3-.3,0-.3-.3,0,.2,0,0-.1-.1,0-.2,0,0-.2.1-.1.3-.3.2-.3,0,0-.4,0-.4,0,0,0,.2-.2-.4,0,0,0,0,0,.1-.1.3-.3.2-.3,0-.2-.3.1-.3,0-.3,0-.1,0-.2-.2-.3-.4,0-.1,0-.4,0-.5,0-.2-.4-.1-.2-.4.2-.3,0-.4,0-.5,0,0,.1-.3-.4,0,0,0,0,0,0,0,.6-.7-.5-.4-.5-.7,0-.4-.2-.7-.3-1,0,0,.1-.2-.3-.2-.2,0-.2-.1-.1-.2.6-.4.2-.6.3-.9.1-.3-.2-.6.3-.9.2,0,.3-.2-.2-.4-.3-.1,0-.2,0-.3,0,0-.3-.2-.3-.3,0,0,.3,0,.4-.1,0,0,0,0,0,0-.6-.5.4-.6.4-1,0-.4.1-.7.3-.9.1-.1.4-.2,1.4.1.5.2,1,.4,1.3.6.2.1.4.3.4.4,0,.1.1.3.2.4.1.2.5.6.2.6-.1,0,.2.2-.3,0,0,0-.1,0,0,0,.7.5.1.5.1.7,0,.2.6.4.3.5.6.2.5.2.3.2-.7.2-.2.4-.3.5,0,.2.1.3.2.6,0,0,.3-.1.2,0-.2.2,0,.1,0,.2,0,0,.2,0,.1.2-.3.6.2.7.3,1,.2.4.3.7.7,1,.2.2.7.3.7.7,0,.1.4.2-.2.5-.2,0,.3,0,.4.2,0,.2.1.5.1.7,0,.4,0,.7,0,1,0,.2.2.4.3.5,0,.2,0,.3,0,.4-.1.2-.3.3-.4.4,0,.1.2.3-.1.3-.5,0-.3.3-.3.4,0,0,0,.1,0,.1,0,0,0,0,0,0,0,0-.1,0-.2.1-.1,0-.2.2-.2.2,0-.1-.2.2-.4.6-.2.4-.4.8-.6,1,0,0-.1.2-.2.2-.4.3-1.2.6-1.5.2-.3-.5-.6-1-.7-1.5Z"/>
      <path d="M362.4,141.3c0-.3.2-.6.2-.9,0-.1.3-.2-.2-.4-.3,0,.4,0,.4-.2,0-.2,0-.4,0-.5,0-.1-.3-.2-.4-.2,0,0,.1-.3-.2-.2-.3,0,0-.3-.1-.3-.2,0-.4,0-.3-.4,0-.2,0-.5-.1-.5-.1,0-.4.2-.4.1,0,0,0-.4-.4,0,0,0,0,0,0-.2.2-.4,0-.5-.2-.3-.2.2-.3,0-.4,0-.2-.1-.5-.3-.7-.5,0,0-.1-.2-.2-.4,0-.2-.2-.3-.3-.5-.2-.3-.7-.4-.6-.8,0-.4,0-.6-.2-.9,0-.2.1-.4-.5-.4,0,0,0,0,0-.1.3-.3.2-.5,0-.7-.2-.2-.4-.5-.2-.7.3-.5.3-1,.5-1.5,0-.1.3-.2,0-.5-.1-.1,0-.2,0-.2.7,0,.5-.4.7-.6.3-.2.2-.6.8-.6.2,0,.4,0,0-.5-.2-.2.1-.2.2-.3,0-.1-.1-.4,0-.4,0,0,.3,0,.4,0,0,0,0,0,0,0-.2-.8.8-.5,1-.9.2-.4.6-.7,1.1-.9.2-.1.6-.1,1.3.8.3.4.6.9.7,1.2,0,.2.1.5.1.6,0,.1,0,.3,0,.4,0,.3.1.8-.2.7-.1,0,0,.2-.3,0,0,0,0,0,0,0,.3.8-.2.6-.4.8-.1.2.2.8-.1.8.4.5.3.5,0,.5-.4,0-.6.2-.7.4,0,.1,0,.2-.1.3v.2c0,0,0,0,0,0-.1,0-.1.2-.1.3,0,0,.4,0,0,0-.3.1,0,0,0,0,0,0,.1,0,0,0-.3.2-.2.3-.2.4,0,0,.3.2.4.3.3.3.6.6,1.1.8.3.1.8,0,1,.4,0,.1.4,0,.1.5,0,.1.3,0,.4,0,.2.2.4.4.5.6.2.3.4.7.7,1,.1.2.5.4.6.7.2.3.2.6.2.9,0,.4-.2.8-.3,1.1,0,.3.2.7-.2.9-.6.4-.4.8-.5,1.2-.1.4-.2.8-.2,1.2,0,.2-.5.3-.5.6,0,.1-1.5,0-2-.2,0,0-.2,0-.2,0-.4-.3-1.1-.6-1-.9.1-.3.2-.7.2-1.1Z"/>
      <path d="M372,141c0-.2,0-.4,0-.6,0,0,.2-.2-.3-.2-.3,0,.4-.1.3-.2,0-.2,0-.4,0-.6,0-.2-.3-.4-.3-.6,0-.2.2-.4,0-.6-.3-.2.2-.3.1-.5-.1-.2-.2-.4,0-.5.2-.1.4-.2.3-.3,0,0-.4-.2-.3-.3,0,0,.3-.1-.3-.3,0,0,0,0,.2,0,.4,0,.4-.1.1-.2-.3-.1-.2-.2-.2-.2,0-.2,0-.3,0-.5,0-.1.3-.2.4-.3,0-.1-.2-.3.2-.4.3,0,.3-.2.4-.3,0,0,.3,0-.3-.3,0,0,0,0,0,0,.8,0-.2-.4,0-.6.3-.1.2-.4.2-.6,0,0,.2,0-.2-.2-.2,0-.2-.1,0-.1.6,0,.3-.2.5-.4.2-.1,0-.5.5-.5.2,0,.4,0,0-.4-.2-.2,0-.2,0-.3,0,0-.2-.3-.2-.4,0,0,.3,0,.4,0,0,0,0,0,0,0-.3-.8.7-.5.9-.9.2-.4.7-.6,1.1-.6.2,0,.6,0,1,1.2.2.5.3,1,.4,1.3,0,.2,0,.4,0,.5,0,0,0,.2,0,.3,0,.2.2.7,0,.4,0,0,.1.2-.2-.2,0,0,0,0,0,0,.4.7,0,.3,0,.4,0,0,.5.4.3.4.5.3.4.3.2.3-.7,0-.4.4-.5.6-.2.3-.2.6-.3.9,0,0,.3.2,0,.2-.3,0,0,.1,0,.2,0,0,.1.2,0,.2-.7.1-.3.5-.5.7-.1.2-.2.5,0,.8,0,.2.4.4.3.5,0,0,.3.2-.3.2-.2,0,.3.1.3.1,0,.1,0,.2,0,.3,0,.1,0,.3,0,.4,0,0,.3.2.3.3,0,0,0,.2,0,.3,0,.1-.3.2-.3.4,0,.1.2.2,0,.4-.5.2-.2.5-.3.7,0,.2,0,.5,0,.7,0,.1-.4.3-.4.4,0,0-1.4.3-1.9.4,0,0-.2,0-.2,0-.5,0-1.2-.1-1.2-.3,0-.2,0-.5,0-.7Z"/>
      <path d="M372.5,152.8c-.4,0-.8.2-1.2.3-.1,0-.3-.2-.4.4,0,.3-.3-.3-.4-.3-.4.2-.8.1-1.1.2-.4.1-.7.4-1,.5-.4.1-.8-.1-1.1.2-.3.3-.6-.2-.9,0-.3.2-.6.3-.9,0-.2-.2-.5-.4-.7-.2-.1,0-.2.4-.4.4-.1,0-.3-.3-.4.4,0,0,0,0-.1-.1-.2-.4-.3-.4-.5,0-.1.3-.2.2-.3.3-.3,0-.6,0-1,0-.2,0-.5-.3-.7-.4-.2,0-.5.2-.7-.1-.2-.3-.4-.3-.6-.3-.1,0-.3-.3-.4.3,0,0,0,0,0,0-.3-.8-.7.2-1.1,0-.4-.3-.8-.1-1.1-.2-.1,0-.2-.2-.3.2,0,.2-.2.2-.2,0-.2-.7-.5-.3-.8-.5-.3-.2-.7,0-.9-.5-.1-.2-.3-.4-.5.2-.1.2-.2,0-.4,0-.1,0-.3.3-.4.3,0,0-.1-.3-.2-.4,0,0,0,0,0,0-.6.6-.9-.4-1.4-.4-.5,0-1-.2-1.4-.4-.2-.1-.5-.4-.3-1.5,0-.5.3-1,.5-1.3.1-.2.3-.4.4-.4.2,0,.3-.1.5-.2.3-.1.7-.5.9-.2,0,.1.2-.2.2.4,0,0,0,.1,0,0,.6-.7.8,0,1.2,0,.3,0,.8-.5,1.1-.2.3-.6.5-.4.6-.2.5.8,1.3.4,1.9.6.7.2,1.3.2,2,.2.1,0,.2-.3.4,0,.1.3.3,0,.4,0,.1,0,.3-.1.4,0,.5.7,1.1.3,1.6.4.5,0,1.1.1,1.6,0,.3-.1.6-.5.9-.4.1,0,.3-.3.4.3,0,.2.1-.3.2-.3.2,0,.4,0,.7,0,.3,0,.6,0,.9-.1.2,0,.3-.3.5-.4.2,0,.4-.1.6,0,.3,0,.5.2.8.2.3,0,.5-.3.8,0,.6.4,1,0,1.4,0,.5,0,.9-.1,1.3-.4.2-.1.6.3.8.2.1,0,.7,1.3.8,1.8,0,0,0,.2,0,.2-.1.5-.1,1.3-.5,1.3-.5,0-.9.2-1.3.3Z"/>
    </g>
  </g>
  <path d="M268.1,400.5c-3.8-.5-7.5-1.8-10.9-3.7-.6-.3-1.2-.8-1.8-1.2-.3-.2-.6-.4-1-.6-.3-.2-.7-.4-1-.5-.4-.1-.7-.6-1.1-1.1-.3-.5-.7-1.1-1.2-1.6-2.5-2.6-4.3-5.9-5.5-9.2-1.2-3.3-2.1-6.7-2.2-10.2,0-3.5.8-7.1,1.7-10.3.4-1.4,1-2.7,1.8-3.9.7-1.2,1.6-2.3,2.5-3.4.9-1.2,2-2.4,3.3-3.3,1.3-1,2.8-1.7,4.4-2.1,2.3-.5,4.7-.3,6.9.2,1.4.3,2.7.6,4.1,1.4,1.2.8,2.2,2,3.5,2.6.1,0,.5.6.6.9.7,1.5,1.5,3.1,2.3,4.2.7,1.1.9,2.3,1.1,3.4.5,3.2,0,6.5-1.2,9.4-.9,2.2-2.2,4.1-3.6,5.9-1.5,1.9-3.1,3.8-5,4.9-1.9,1.1-3.6,2.1-5.5,3-.5.3-1.1.4-1.7.7-.6.2-1.1.5-1.4,1,0,0-.5.2-.7.2-1.7.2-3.3.6-4.9,1.1-1.6.5-3.2.9-4.9,1-3.5.1-7,.2-10.5,0-.9,0-1.9-.4-2.8,0-.3.1-1.3,0-1.7-.2-2.4-1-5.1-1-7.6-1.6-2.9-.6-5.8-.9-8.6-1.9-1.2-.4-2.8-.9-4.4-.7-.7,0-2.1-.5-3.2-.8-.9-.2-1.8-.2-2.7-.5-.7-.2-1.4-.7-2.1-1.1-.2-.1-.5-.2-.7-.3-4.4-1-8.1-4-11.6-6.9-3.6-2.9-6.5-6.9-7.9-11.5-.8-2.5-1-5.4.2-7.1.5-.8,1.1-.7,1.4.3.2.7.5,1.5.7,2.3.3,1.2.7,2.5,1.2,3.6,1.1,2.4,2.8,4.2,4.3,6.5.5.7,1.3,1.2,1.5,2,0,.1.2.4.4.5,1.6.9,3,2,4.6,3,1.5,1,3.1,2,4.8,2.7,2.9,1.2,6,1.6,9.1,2.6,1.9-.2,3.9.4,5.6.9,3.1,1,6.3,1.6,9.5,2.2,3.2.5,6.4.9,9.5,1.3,6.4.7,12.8.4,18.7-1.4,1-.3,1.7-1,3-1.2,1.2-.2,2.4-1.1,3.6-1.8,1-.7,2-1.5,3-2.1,4.1-2.5,6.6-7.1,7.3-11.7.4-2.3.2-4.6-.6-6.7-.8-2.1-2.4-3.9-4.2-5.1-1.1-.7-2.4-1.2-3.7-1.4-1.3-.2-2.5-.1-3.7,0-1.1.2-1.9,1-3.2,1.1-.4,0-1,1.1-1.5,1.6-1.3,1.3-2.5,2.9-3.4,4.6-1.3,2.4-2.2,5-2.6,7.8-.2,1.7,0,3.3,0,5,.2,1.7.4,3.5.8,5.2.5,2.2,1.1,4.3,2.1,6.3,1.1,2,2.8,3.7,4.2,5.4,1.3,1.5,3,2.8,4.9,3.8,1.9.9,3.8,1.6,5.9,2.1,2,.5,4.1.8,6.2.7,2.1,0,4.2-.3,6.2-.9,2.2-.7,4.4-1,6.5-2.1.9-.6,3-.2,2.9.5,0,.1-.1.3-.3.5-1.8,1.8-3.6,3.5-6.5,4.4-4.2,1.3-8.6,1.6-12.9,1.1Z" fill="#00b4e9"/>
  <path d="M372.2,118.3c0-.2.2-.5.2-.7,0,0,.3-.1-.2-.4-.2-.1.4,0,.4-.1,0-.2.2-.4.2-.7,0-.2-.1-.5-.1-.8,0-.2.4-.4.1-.7-.2-.3.3-.3.2-.5,0-.2,0-.4.2-.5.2,0,.4-.2.4-.3,0,0-.3-.3-.3-.3,0,0,.3-.1-.3-.3,0,0,0,0,.2,0,.4,0,.4-.1.2-.2-.2-.1-.2-.2-.2-.3,0-.2,0-.4.1-.6,0-.1.3-.2.4-.3,0-.1-.1-.4.2-.4.3,0,.3-.2.4-.3,0,0,.3-.1-.3-.3,0,0,0,0,0,0,.9,0-.2-.5,0-.7.3-.2.2-.4.2-.7,0,0,.2,0-.2-.2-.2,0-.2-.1,0-.1.7,0,.3-.3.5-.5.2-.2,0-.4.4-.5.2,0,.4-.1-.2-.4-.3,0,0-.1,0-.2,0,0-.3-.2-.3-.2,0,0,.2,0,.4,0,0,0,0,0,0,0-.6-.4.3-.5.2-.9-.1-.3,0-.6.1-.9,0-.2.3-.3,1.4-.2.5,0,1.1.1,1.4.2.2,0,.4.2.5.3,0,.1.2.2.3.3.2.2.7.5.3.7,0,0,.2.2-.3.1,0,0-.1,0,0,0,.7.4.2.6.2.9,0,.2.6.6.3.8.6.2.5.4.2.5-.7.3-.4.9-.6,1.4-.2.5-.2.9-.3,1.4,0,0,.3.2,0,.3-.3,0-.1.2-.1.3,0,0,0,.2,0,.3-.7.2-.4.7-.6,1-.2.3-.3.7-.3,1.1,0,.2.3.6.1.7,0,0,.2.3-.4.2-.2,0,.2.2.2.3,0,.2,0,.3-.1.5,0,.2-.2.4-.2.6,0,.1.2.3.2.5,0,.2,0,.3-.1.4-.1.2-.4.3-.5.4-.1.2,0,.4-.2.5-.6.2-.4.5-.6.8-.2.3-.3.6-.3.9,0,.2-.5.2-.6.4,0,0-1.5-.3-1.9-.5,0,0-.2,0-.2-.1-.4-.3-1-.7-.9-.9.2-.2.2-.5.3-.8Z" fill="#00b4e9"/>
  <path d="M392.4,124.3c.2-.2.3-.4.4-.6,0,0,.3,0,0-.4-.2-.2.4.1.4,0,0-.2.3-.3.4-.6,0-.2,0-.5.1-.7,0-.2.5-.2.3-.6-.1-.3.4-.1.4-.4,0-.2,0-.4.4-.4.2,0,.5,0,.5-.1,0-.1-.2-.4-.1-.4,0,0,.3,0-.1-.4,0,0,0,0,.2,0,.4.2.4,0,.3-.2-.2-.2-.1-.3,0-.3,0-.2.2-.3.3-.4.1,0,.4,0,.5-.1.1,0,0-.4.3-.3.3,0,.4,0,.5-.1,0,0,.3,0-.1-.4,0,0,0,0,0,0,.8.3,0-.5.4-.5.3,0,.3-.3.5-.5,0,0,.2,0-.1-.3-.1-.1,0-.2,0-.1.6.3.4-.1.6-.2.2,0,.1-.4.6-.3.2,0,.4,0,0-.4-.2-.2,0-.1,0-.2,0,0-.2-.3-.2-.3,0,0,.2,0,.4,0,0,0,0,0,0,0-.4-.6.5-.3.6-.7,0-.3.3-.5.5-.7.1,0,.4-.1,1.4.5.4.3.9.6,1.1.9.2.2.3.4.3.5,0,.1,0,.3,0,.4,0,.3.3.7,0,.7-.1,0,0,.2-.3,0,0,0-.1,0,0,0,.5.7-.1.6-.2.8,0,.2.3.8,0,.8.4.5.2.5,0,.5-.8,0-.7.6-1.1.9-.3.3-.6.7-.9,1,0,0,.2.3,0,.2-.3,0-.2.1-.2.2,0,0,0,.2-.2.2-.7-.1-.6.4-.9.6-.3.2-.5.5-.6.9,0,.2,0,.6-.1.7-.1,0,.1.3-.4,0-.1,0,.2.3.1.3,0,.1-.2.2-.3.4-.1.2-.3.3-.4.5,0,.1,0,.4,0,.5,0,.1-.1.2-.2.3-.2,0-.4,0-.6.2-.2,0,0,.4-.4.4-.6,0-.6.3-.8.5-.2.2-.5.4-.5.7,0,.2-.5,0-.6.1,0,0-1.3-.8-1.7-1.1,0,0-.1-.1-.2-.2-.3-.4-.8-1-.6-1.1.2-.2.4-.4.5-.7Z" fill="#00b4e9"/>
  <path d="M421.2,138.9c-.3,0-.5.2-.8.3,0,0-.3-.2-.2.4,0,.3-.3-.3-.3-.2-.2.1-.5.1-.7.3-.2.1-.4.4-.6.6-.2.1-.5,0-.7.3-.1.3-.4-.1-.6,0-.2.2-.4.3-.6.1-.2-.1-.4-.3-.5-.2,0,0,0,.4-.2.4s-.3-.2-.2.4c0,0,0,0-.1-.1-.2-.4-.3-.3-.3,0,0,.3-.1.3-.2.3-.2,0-.4.1-.6.1-.2,0-.4-.2-.5-.3-.2,0-.3.3-.5,0-.2-.3-.3-.2-.5-.2,0,0-.2-.3-.2.4,0,0,0,0,0,0-.4-.8-.4.3-.7.2-.3-.2-.5,0-.8,0,0,0-.2-.2-.2.3,0,.2,0,.2-.1,0-.2-.6-.4-.2-.7-.3-.2-.1-.5.2-.8-.3-.1-.2-.2-.3-.4.2,0,.3-.2,0-.3,0,0,0-.2.3-.3.3,0,0-.1-.3-.2-.4,0,0,0,0,0,0-.6.6-.8-.4-1.3-.4-.5,0-.9-.3-1.3-.7-.2-.2-.3-.5.4-1.5.3-.4.7-.8,1-1,.2-.1.4-.3.4-.3.1,0,.2-.1.3-.1.2,0,.6-.5.5-.2,0,0,.2-.2,0,.3,0,0,0,.1,0,0,.4-.7.4-.1.6-.2.2,0,.4-.6.5-.3.2-.6.2-.5.3-.3.3.7.7.2,1.1.3.4,0,.8,0,1.3-.1,0,0,0-.4.2-.1.1.2.2,0,.3,0,0,0,.2-.2.3,0,.5.6.7.1,1.1.1.4,0,.7,0,1-.3.2-.1.3-.5.5-.5.1,0,.1-.3.3.2,0,.2,0-.3,0-.3.1,0,.3,0,.4-.1.2,0,.4,0,.6-.2.1,0,.2-.3.2-.4.1,0,.2-.1.4-.1.2,0,.4.2.6.2.2,0,.3-.3.5-.1.5.4.7,0,1,0,.3,0,.6-.1.8-.4.1-.1.5.3.6.2,0,0,.8,1.3.9,1.8,0,0,0,.2,0,.2,0,.5.2,1.2,0,1.3-.3,0-.6.2-.9.3Z" fill="#00b4e9"/>
</svg>