<?xml version="1.0" encoding="UTF-8"?>
<svg xmlns="http://www.w3.org/2000/svg"
     width="1254" height="1254" viewBox="0 0 1254 1254">
  <title>Sora logo — transparent true vector trace</title>

  <defs>
    <linearGradient id="soraGreen" gradientUnits="userSpaceOnUse"
                    x1="520" y1="250" x2="720" y2="730">
      <stop offset="0" stop-color="#29CEAE"/>
      <stop offset="0.48" stop-color="#19B995"/>
      <stop offset="1" stop-color="#008E6E"/>
    </linearGradient>

    <linearGradient id="soraBlue" gradientUnits="userSpaceOnUse"
                    x1="990" y1="635" x2="250" y2="1000">
      <stop offset="0" stop-color="#2D7BE9"/>
      <stop offset="0.52" stop-color="#1E62C5"/>
      <stop offset="1" stop-color="#0C3F96"/>
    </linearGradient>

    <filter id="softShadow" x="-15%" y="-15%" width="130%" height="140%">
      <feGaussianBlur in="SourceAlpha" stdDeviation="7" result="blur"/>
      <feOffset in="blur" dx="0" dy="5" result="offsetBlur"/>
      <feFlood flood-color="#173F6E" flood-opacity="0.08" result="shadowColor"/>
      <feComposite in="shadowColor" in2="offsetBlur" operator="in" result="shadow"/>
      <feMerge>
        <feMergeNode in="shadow"/>
        <feMergeNode in="SourceGraphic"/>
      </feMerge>
    </filter>
  </defs>

  <g filter="url(#softShadow)" shape-rendering="geometricPrecision">
    <path d="M 949 245 L 919 246 L 918 247 L 909 247 L 908 248 L 900 248 L 899 249 L 893 249 L 892 250 L 880 251 L 879 252 L 875 252 L 874 253 L 870 253 L 869 254 L 865 254 L 864 255 L 860 255 L 859 256 L 856 256 L 855 257 L 852 257 L 851 258 L 844 259 L 840 261 L 837 261 L 833 263 L 830 263 L 827 265 L 824 265 L 821 267 L 813 269 L 810 271 L 808 271 L 805 273 L 803 273 L 798 276 L 796 276 L 774 287 L 769 291 L 766 292 L 764 294 L 761 295 L 759 297 L 752 301 L 749 304 L 748 304 L 745 307 L 744 307 L 740 311 L 739 311 L 733 317 L 732 317 L 713 336 L 713 337 L 707 343 L 707 344 L 703 348 L 701 352 L 698 355 L 698 356 L 688 370 L 686 375 L 684 377 L 676 393 L 676 395 L 673 400 L 673 402 L 671 405 L 671 407 L 670 408 L 670 410 L 669 411 L 669 413 L 668 414 L 668 416 L 667 417 L 667 419 L 666 420 L 666 422 L 664 426 L 664 429 L 663 430 L 663 433 L 662 434 L 662 437 L 661 438 L 661 441 L 660 442 L 660 445 L 659 446 L 659 451 L 658 452 L 658 456 L 657 457 L 657 463 L 656 464 L 656 470 L 655 471 L 655 479 L 654 480 L 654 493 L 653 494 L 653 521 L 652 522 L 652 539 L 653 540 L 652 542 L 653 543 L 653 546 L 652 547 L 652 549 L 651 550 L 649 558 L 647 561 L 647 563 L 646 564 L 646 566 L 644 570 L 644 573 L 643 574 L 643 576 L 641 580 L 641 583 L 639 587 L 639 590 L 637 594 L 637 598 L 636 599 L 635 606 L 633 610 L 632 609 L 632 596 L 631 595 L 631 587 L 630 586 L 629 573 L 628 572 L 628 568 L 627 567 L 626 558 L 625 557 L 625 554 L 624 553 L 624 550 L 623 549 L 623 539 L 622 538 L 622 526 L 621 525 L 621 518 L 620 517 L 620 511 L 619 510 L 619 506 L 618 505 L 617 497 L 615 493 L 615 490 L 614 489 L 614 487 L 613 486 L 611 478 L 608 473 L 608 471 L 601 457 L 597 452 L 594 446 L 591 443 L 591 442 L 588 439 L 588 438 L 584 434 L 584 433 L 571 420 L 570 420 L 566 416 L 565 416 L 562 413 L 561 413 L 558 410 L 557 410 L 552 406 L 547 404 L 545 402 L 533 396 L 531 396 L 528 394 L 526 394 L 523 392 L 521 392 L 520 391 L 518 391 L 517 390 L 515 390 L 511 388 L 507 388 L 506 387 L 503 387 L 502 386 L 499 386 L 498 385 L 494 385 L 493 384 L 487 384 L 486 383 L 480 383 L 479 382 L 468 382 L 467 381 L 432 381 L 431 382 L 428 382 L 429 396 L 430 397 L 430 403 L 431 404 L 431 410 L 432 411 L 432 417 L 433 418 L 434 429 L 435 430 L 435 434 L 436 435 L 436 439 L 437 440 L 437 443 L 438 444 L 439 451 L 440 452 L 440 454 L 442 458 L 442 461 L 444 464 L 446 472 L 450 479 L 450 481 L 454 489 L 456 491 L 458 496 L 460 498 L 464 505 L 468 509 L 468 510 L 472 514 L 472 515 L 485 528 L 486 528 L 491 533 L 492 533 L 495 536 L 496 536 L 507 544 L 523 552 L 525 552 L 533 556 L 535 556 L 536 557 L 538 557 L 542 559 L 545 559 L 549 561 L 556 562 L 557 563 L 561 563 L 562 564 L 566 564 L 567 565 L 572 565 L 573 566 L 578 566 L 579 567 L 585 567 L 586 568 L 591 568 L 592 569 L 601 570 L 601 568 L 600 567 L 600 565 L 599 564 L 599 562 L 598 561 L 596 553 L 594 550 L 594 548 L 591 543 L 591 541 L 583 525 L 581 523 L 580 520 L 574 512 L 573 509 L 570 506 L 570 505 L 565 499 L 565 498 L 556 488 L 556 487 L 540 471 L 541 470 L 544 471 L 546 473 L 549 474 L 555 479 L 556 479 L 574 495 L 574 496 L 581 503 L 581 504 L 588 512 L 588 513 L 594 521 L 596 526 L 598 528 L 604 540 L 604 542 L 606 545 L 606 547 L 609 553 L 609 556 L 610 557 L 611 563 L 612 564 L 612 567 L 613 568 L 614 578 L 615 579 L 615 585 L 616 586 L 616 592 L 617 593 L 617 601 L 618 602 L 618 614 L 619 615 L 619 637 L 620 638 L 620 690 L 619 691 L 619 722 L 620 723 L 628 724 L 629 725 L 633 725 L 634 726 L 646 727 L 646 678 L 647 677 L 647 660 L 648 659 L 648 649 L 649 648 L 649 642 L 650 641 L 650 635 L 651 634 L 651 629 L 652 628 L 652 623 L 653 622 L 654 613 L 655 612 L 655 609 L 656 608 L 656 605 L 657 604 L 657 601 L 658 600 L 659 593 L 660 592 L 660 590 L 662 586 L 662 583 L 663 582 L 664 577 L 666 574 L 666 571 L 668 568 L 668 566 L 670 563 L 670 561 L 673 556 L 673 554 L 676 549 L 676 547 L 686 527 L 688 525 L 691 518 L 698 508 L 699 505 L 701 503 L 705 496 L 708 493 L 710 489 L 713 486 L 713 485 L 716 482 L 716 481 L 720 477 L 720 476 L 735 460 L 735 459 L 737 458 L 738 456 L 744 450 L 745 450 L 756 439 L 757 439 L 761 435 L 762 435 L 765 432 L 766 432 L 770 428 L 771 428 L 773 426 L 775 427 L 763 440 L 763 441 L 758 446 L 758 447 L 753 452 L 753 453 L 750 456 L 750 457 L 746 461 L 744 465 L 738 472 L 738 473 L 722 496 L 721 499 L 719 501 L 718 504 L 713 511 L 711 516 L 709 518 L 702 533 L 700 535 L 697 541 L 697 543 L 691 554 L 691 556 L 689 559 L 689 561 L 684 571 L 684 573 L 682 577 L 683 578 L 685 577 L 688 577 L 689 576 L 691 576 L 695 574 L 698 574 L 699 573 L 702 573 L 703 572 L 706 572 L 707 571 L 710 571 L 711 570 L 714 570 L 715 569 L 718 569 L 719 568 L 723 568 L 724 567 L 727 567 L 728 566 L 731 566 L 732 565 L 735 565 L 736 564 L 743 563 L 747 561 L 750 561 L 754 559 L 757 559 L 758 558 L 760 558 L 761 557 L 769 555 L 772 553 L 777 552 L 785 548 L 787 548 L 792 545 L 794 545 L 806 539 L 808 537 L 815 534 L 825 527 L 828 526 L 831 523 L 838 519 L 842 515 L 843 515 L 847 511 L 848 511 L 854 505 L 855 505 L 871 489 L 871 488 L 878 481 L 878 480 L 882 476 L 882 475 L 891 464 L 891 463 L 899 452 L 904 442 L 906 440 L 914 424 L 914 422 L 918 415 L 918 413 L 920 410 L 920 408 L 922 405 L 922 403 L 926 395 L 926 392 L 928 389 L 928 386 L 929 385 L 929 383 L 930 382 L 930 380 L 931 379 L 931 377 L 933 373 L 933 370 L 935 366 L 935 363 L 936 362 L 936 359 L 937 358 L 937 355 L 938 354 L 938 351 L 939 350 L 939 346 L 940 345 L 940 342 L 941 341 L 942 331 L 943 330 L 943 325 L 944 324 L 944 319 L 945 318 L 945 312 L 946 311 L 946 303 L 947 302 L 947 294 L 948 293 L 948 284 L 949 283 L 949 266 L 950 265 L 950 246 Z" fill="url(#soraGreen)"/>
    <path d="M 991 668 L 990 667 L 989 661 L 986 655 L 982 651 L 982 650 L 975 644 L 964 639 L 960 639 L 959 638 L 946 638 L 945 639 L 941 639 L 940 640 L 938 640 L 935 642 L 933 642 L 927 645 L 925 647 L 918 651 L 913 656 L 912 656 L 888 680 L 888 681 L 827 742 L 826 742 L 814 754 L 814 760 L 815 761 L 815 777 L 814 778 L 814 782 L 813 783 L 813 786 L 812 787 L 811 792 L 806 802 L 804 804 L 800 811 L 788 823 L 787 823 L 784 826 L 783 826 L 775 832 L 761 839 L 759 839 L 756 841 L 754 841 L 753 842 L 751 842 L 747 844 L 744 844 L 740 846 L 737 846 L 736 847 L 732 847 L 731 848 L 728 848 L 727 849 L 722 849 L 721 850 L 717 850 L 716 851 L 710 851 L 709 852 L 702 852 L 701 853 L 692 853 L 691 854 L 674 854 L 673 855 L 638 855 L 637 854 L 620 854 L 619 853 L 607 853 L 606 852 L 597 852 L 596 851 L 589 851 L 588 850 L 582 850 L 581 849 L 574 849 L 573 848 L 568 848 L 567 847 L 556 846 L 555 845 L 551 845 L 550 844 L 546 844 L 545 843 L 541 843 L 540 842 L 536 842 L 535 841 L 528 840 L 527 839 L 525 839 L 521 837 L 518 834 L 518 832 L 517 831 L 517 827 L 518 825 L 522 821 L 526 819 L 528 819 L 529 818 L 535 818 L 536 817 L 552 818 L 553 819 L 559 819 L 560 820 L 572 821 L 573 822 L 580 822 L 581 823 L 587 823 L 588 824 L 595 824 L 596 825 L 604 825 L 605 826 L 615 826 L 616 827 L 630 827 L 631 828 L 675 828 L 676 827 L 689 827 L 690 826 L 700 826 L 701 825 L 708 825 L 709 824 L 721 823 L 722 822 L 726 822 L 727 821 L 731 821 L 732 820 L 736 820 L 737 819 L 740 819 L 741 818 L 748 817 L 749 816 L 751 816 L 752 815 L 760 813 L 763 811 L 765 811 L 775 806 L 781 801 L 782 801 L 791 791 L 794 785 L 795 780 L 796 779 L 796 766 L 795 765 L 795 763 L 794 762 L 793 758 L 791 756 L 791 755 L 784 748 L 778 745 L 772 744 L 771 743 L 767 743 L 766 742 L 740 743 L 739 744 L 728 744 L 727 745 L 716 745 L 715 746 L 696 746 L 695 747 L 667 747 L 666 746 L 651 746 L 650 745 L 642 745 L 641 744 L 629 743 L 628 742 L 624 742 L 623 741 L 619 741 L 618 740 L 615 740 L 614 739 L 607 738 L 603 736 L 600 736 L 599 735 L 597 735 L 596 734 L 588 732 L 585 730 L 580 729 L 575 726 L 573 726 L 570 724 L 568 724 L 563 721 L 561 721 L 556 718 L 554 718 L 551 716 L 549 716 L 546 714 L 544 714 L 541 712 L 539 712 L 531 708 L 529 708 L 528 707 L 526 707 L 525 706 L 523 706 L 522 705 L 520 705 L 516 703 L 513 703 L 512 702 L 506 701 L 505 700 L 496 699 L 495 698 L 490 698 L 489 697 L 484 697 L 483 696 L 475 696 L 474 695 L 443 695 L 442 696 L 434 696 L 433 697 L 428 697 L 427 698 L 423 698 L 422 699 L 413 700 L 412 701 L 406 702 L 402 704 L 399 704 L 393 707 L 391 707 L 385 710 L 383 710 L 376 714 L 374 714 L 366 718 L 364 720 L 352 726 L 350 728 L 349 728 L 347 730 L 346 730 L 344 732 L 337 736 L 334 739 L 333 739 L 330 742 L 329 742 L 325 746 L 324 746 L 319 751 L 318 751 L 292 777 L 292 778 L 281 790 L 281 791 L 277 795 L 277 796 L 274 799 L 272 803 L 269 806 L 269 807 L 257 824 L 256 827 L 254 829 L 248 841 L 245 845 L 267 856 L 269 858 L 278 862 L 280 864 L 283 865 L 285 867 L 293 871 L 295 873 L 296 873 L 301 877 L 304 878 L 324 892 L 327 893 L 330 896 L 331 896 L 333 898 L 334 898 L 336 900 L 337 900 L 339 902 L 340 902 L 342 904 L 343 904 L 345 906 L 352 910 L 355 913 L 356 913 L 358 915 L 359 915 L 361 917 L 362 917 L 385 933 L 388 934 L 396 940 L 399 941 L 401 943 L 404 944 L 411 949 L 416 951 L 418 953 L 446 967 L 448 967 L 453 970 L 455 970 L 463 974 L 468 975 L 471 977 L 473 977 L 474 978 L 476 978 L 477 979 L 479 979 L 480 980 L 482 980 L 483 981 L 485 981 L 489 983 L 492 983 L 496 985 L 499 985 L 500 986 L 503 986 L 504 987 L 507 987 L 508 988 L 512 988 L 513 989 L 516 989 L 517 990 L 521 990 L 522 991 L 526 991 L 527 992 L 532 992 L 533 993 L 539 993 L 540 994 L 546 994 L 547 995 L 555 995 L 556 996 L 569 996 L 570 997 L 602 997 L 603 996 L 618 996 L 619 995 L 628 995 L 629 994 L 636 994 L 637 993 L 642 993 L 643 992 L 649 992 L 650 991 L 659 990 L 660 989 L 663 989 L 664 988 L 668 988 L 669 987 L 672 987 L 673 986 L 680 985 L 684 983 L 687 983 L 688 982 L 690 982 L 694 980 L 697 980 L 698 979 L 706 977 L 709 975 L 714 974 L 717 972 L 719 972 L 722 970 L 724 970 L 727 968 L 729 968 L 736 964 L 738 964 L 762 952 L 764 950 L 769 948 L 771 946 L 779 942 L 781 940 L 782 940 L 784 938 L 785 938 L 787 936 L 788 936 L 790 934 L 797 930 L 800 927 L 801 927 L 804 924 L 805 924 L 808 921 L 809 921 L 812 918 L 813 918 L 823 909 L 824 909 L 831 902 L 832 902 L 862 872 L 862 871 L 869 864 L 869 863 L 874 858 L 874 857 L 878 853 L 878 852 L 887 842 L 887 841 L 902 822 L 904 818 L 907 815 L 909 811 L 912 808 L 914 804 L 917 801 L 919 797 L 922 794 L 922 793 L 924 791 L 928 784 L 931 781 L 931 780 L 933 778 L 933 777 L 935 775 L 935 774 L 937 772 L 937 771 L 939 769 L 943 762 L 946 759 L 946 758 L 948 756 L 948 755 L 950 753 L 950 752 L 952 750 L 952 749 L 968 726 L 969 723 L 979 709 L 980 706 L 982 704 L 988 692 L 988 690 L 990 686 L 990 683 L 991 682 Z" fill="url(#soraBlue)"/>
  </g>

</svg>
